<svg id="Layer_2" data-name="Layer 2" xmlns="http://www.w3.org/2000/svg" viewBox="0 0 23.17 23.17"><defs><style>.cls-1{fill:#fff;}</style></defs><title>question2</title><path class="cls-1" d="M33.33,16.09a7.51,7.51,0,0,0-5.48-7.22,8.85,8.85,0,1,0-16.46,4.88L10.2,18.08l4.32-1.19a8.81,8.81,0,0,0,4.11,1.22,7.49,7.49,0,0,0,11,4.44l3.65,1-1-3.65A7.46,7.46,0,0,0,33.33,16.09Zm-18.6-.68-2.58.71.71-2.58-.16-.25A7.49,7.49,0,1,1,15,15.58ZM31.35,21.6l-1.92-.53-.26.17A6.13,6.13,0,0,1,20,18a8.86,8.86,0,0,0,7.77-7.77A6.13,6.13,0,0,1,31,19.43l-.17.26Z" transform="translate(-10.17 -0.42)"/><path class="cls-1" d="M18.33,12.68h1.36V14H18.33Z" transform="translate(-10.17 -0.42)"/><path class="cls-1" d="M20.37,7.2a1.34,1.34,0,0,1-.44,1L18.33,9.66v1.66h1.36V10.26l1.15-1.06a2.71,2.71,0,1,0-4.55-2h1.36a1.36,1.36,0,0,1,2.71,0Z" transform="translate(-10.17 -0.42)"/></svg>