<?xml version="1.0" encoding="utf-8"?>
<!-- Generator: Adobe Illustrator 21.0.0, SVG Export Plug-In . SVG Version: 6.00 Build 0)  -->
<svg version="1.1" xmlns="http://www.w3.org/2000/svg" xmlns:xlink="http://www.w3.org/1999/xlink" x="0px" y="0px"
	 viewBox="0 0 22.5 22.5" style="enable-background:new 0 0 22.5 22.5;" xml:space="preserve">
<style type="text/css">
	.st0{fill:#FFFFFF;}
	.st1{fill:#40A1A4;}
</style>
<g id="Layer_2">
</g>
<g id="Layer_1">
	<title>question1</title>
	<path class="st0" d="M22.5,11.3C22.5,5,17.5,0,11.3,0S0,5,0,11.2c0,6.2,5,11.3,11.2,11.3c0,0,0,0,0,0
		C17.5,22.5,22.5,17.5,22.5,11.3z"/>
	<path class="st1" d="M6.3,7.9c0-0.7,0.2-1.4,0.6-1.9c0.4-0.7,1.1-1.2,1.8-1.6c0.8-0.4,1.8-0.7,2.7-0.6c0.9,0,1.8,0.2,2.5,0.5
		c0.7,0.3,1.3,0.8,1.7,1.4c0.4,0.6,0.6,1.3,0.6,2c0,0.5-0.1,1-0.3,1.5c-0.2,0.4-0.5,0.8-0.8,1.1c-0.3,0.3-0.9,0.8-1.7,1.6
		c-0.2,0.2-0.4,0.4-0.5,0.5c-0.1,0.1-0.2,0.3-0.3,0.4c-0.1,0.1-0.1,0.3-0.1,0.4c0,0.1-0.1,0.4-0.2,0.7c-0.1,0.6-0.6,1-1.2,1
		c-0.3,0-0.6-0.1-0.9-0.3c-0.3-0.3-0.4-0.6-0.4-1c0-0.9,0.3-1.8,1-2.5c0.4-0.4,0.8-0.8,1.2-1.1c0.4-0.4,0.7-0.7,0.9-0.8
		c0.2-0.2,0.4-0.4,0.5-0.6c0.1-0.2,0.2-0.5,0.2-0.8c0-0.5-0.2-1-0.6-1.3c-0.4-0.4-1-0.6-1.5-0.6C10.8,5.8,10.2,6,9.8,6.4
		C9.4,6.9,9.1,7.4,8.9,8C8.7,8.8,8.3,9.1,7.6,9.1C7.3,9.1,6.9,9,6.7,8.7C6.4,8.5,6.3,8.2,6.3,7.9z M11.2,18.8
		c-0.4,0-0.8-0.1-1.1-0.4c-0.3-0.3-0.5-0.7-0.5-1.1c0-0.4,0.2-0.8,0.4-1.1c0.3-0.3,0.7-0.4,1.1-0.4c0.8,0,1.5,0.6,1.5,1.4
		c0,0,0,0,0,0c0,0.4-0.1,0.8-0.5,1.1C11.9,18.6,11.6,18.8,11.2,18.8z"/>
</g>
</svg>
