<svg xmlns="http://www.w3.org/2000/svg" viewBox="0 0 41 39"><defs><style>.cls-1{fill:#29ab87;}.cls-2{fill:#fff;}</style></defs><title>NgoaiTru</title><g id="Layer_2" data-name="Layer 2"><rect class="cls-1" width="41" height="39"/></g><g id="Layer_17" data-name="Layer 17"><path class="cls-2" d="M36.24,16.85l-15-14.53a1.13,1.13,0,0,0-1.58,0L4.53,16.85a1.14,1.14,0,0,0,.78,2h2V34.71a1.13,1.13,0,0,0,1.13,1.13H32.32a1.13,1.13,0,0,0,1.12-1.13V18.8h2a1.14,1.14,0,0,0,.78-2Zm-2.8.83a1.13,1.13,0,0,0-1.13,1.13h0V34.71H8.45V18.8a1.13,1.13,0,0,0-1.13-1.13h-2L20.38,3.12l15.1,14.56Z" transform="translate(-0.05 0)"/><g id="Layer_14" data-name="Layer 14"><path class="cls-2" d="M30.16,25.18a.34.34,0,0,0-.34.34h0v.94H11.42V22.12a.34.34,0,0,0-.68,0V32.4a.34.34,0,0,0,.68,0V30h18.4V32.4a.34.34,0,1,0,.68,0V25.52a.34.34,0,0,0-.34-.34ZM11.42,29.36V27.12h18.4v2.24Z" transform="translate(-0.05 0)"/><path class="cls-2" d="M13,26.17h.85a1.59,1.59,0,0,0,1.6-1.57s0,0,0,0V24.4a1.57,1.57,0,0,0-1.58-1.56H13A1.22,1.22,0,0,0,11.8,24v.89A1.23,1.23,0,0,0,13,26.17Zm-.56-2.11a.56.56,0,0,1,.56-.56h.85a.89.89,0,0,1,.9.87h0v.18a.9.9,0,0,1-.9.9H13a.56.56,0,0,1-.56-.56Z" transform="translate(-0.05 0)"/><path class="cls-2" d="M16.4,22.84a.32.32,0,0,0-.34.3s0,0,0,0v2.66a.34.34,0,0,0,.34.34H28.54a.35.35,0,0,0,.35-.34v-.27a2.72,2.72,0,0,0-2.72-2.71H16.4Zm11.79,2.64H16.74v-2h9.38a2,2,0,0,1,2.07,2Z" transform="translate(-0.05 0)"/><path class="cls-2" d="M20.21,21.69h0a3.85,3.85,0,0,0,0-7.69h0a3.85,3.85,0,0,0,0,7.69Zm-2.18-6a3.06,3.06,0,0,1,2.18-.89h0a3.09,3.09,0,0,1,0,6.16h0A3.09,3.09,0,0,1,18,15.65Z" transform="translate(-0.05 0)"/><path class="cls-2" d="M18.46,18.72h.86v.86a.38.38,0,0,0,.38.38h1a.38.38,0,0,0,.27-.11.36.36,0,0,0,.11-.26v-.86H22a.38.38,0,0,0,.38-.37h0v-1a.38.38,0,0,0-.38-.38h-.87v-.86a.38.38,0,0,0-.38-.38h-1a.38.38,0,0,0-.27.11.37.37,0,0,0-.11.26V17h-.86a.38.38,0,0,0-.38.37h0v1a.38.38,0,0,0,.38.39Zm.39-1h.86A.38.38,0,0,0,20,17.6a.38.38,0,0,0,.11-.26v-.86h.25v.86a.38.38,0,0,0,.38.38h.87V18h-.87a.39.39,0,0,0-.38.39v.87h-.25v-.88a.38.38,0,0,0-.38-.38h-.86Z" transform="translate(-0.05 0)"/></g></g></svg>