<svg xmlns="http://www.w3.org/2000/svg" viewBox="0 0 41 39"><defs><style>.cls-1{fill:#29ab87;}.cls-2{fill:#fff;}</style></defs><title>phitrartrc</title><g id="Layer_2" data-name="Layer 2"><rect class="cls-1" width="41" height="39"/></g><g id="Layer_9" data-name="Layer 9"><path class="cls-2" d="M9.15,13h18.4a.57.57,0,0,0,.57-.57v-7a.57.57,0,0,0-.57-.57H9.15a.57.57,0,0,0-.57.57v7a.57.57,0,0,0,.57.57Zm.28-7.33H27.27v6.48H9.44Z" transform="translate(-0.05 0)"/><path class="cls-2" d="M30.16,20.6V4a1.91,1.91,0,0,0-1.9-1.91H8.54A1.91,1.91,0,0,0,6.63,4V35.2a1.91,1.91,0,0,0,1.9,1.91H28.31l.57,0A8.3,8.3,0,0,0,30.16,20.6ZM8.54,36.26a1.05,1.05,0,0,1-1-1.06V4A1.05,1.05,0,0,1,8.54,3H28.26A1.05,1.05,0,0,1,29.3,4V20.51h-.43l-.68,0V15.24a.58.58,0,0,0-.57-.58H8.88a.58.58,0,0,0-.57.58V34.46a.58.58,0,0,0,.57.58h12a.42.42,0,0,0,.29,0h2.09a8.53,8.53,0,0,0,1.84,1.22Zm6.65-2.07V30.26h5.33a8.1,8.1,0,0,0,.33,1.26.43.43,0,0,0-.25.39v2.27Zm-6,0V30.26h5.18v3.92ZM20.88,15.52v4H15.19v-4Zm6.46,0v4H21.73v-4Zm-7,13.29c0,.2,0,.4,0,.6H15.19V25.26h5.69V26a8.12,8.12,0,0,0-.49,2.78ZM9.16,20.4h5.18v4H9.16Zm0,4.86h5.18v4.15H9.16Zm6-.85v-4h5.69v4Zm-.85-4.86H9.16v-4h5.18Zm7.12,13.29a8.35,8.35,0,0,0,.95,1.34h-.95Zm.28-8.51V20.4h5.61v.23a8.52,8.52,0,0,0-5.61,3.69Zm7.14,11.94a7.46,7.46,0,1,1,7.63-7.46A7.56,7.56,0,0,1,28.88,36.27Z" transform="translate(-0.05 0)"/><path class="cls-2" d="M29.43,24.55v-.61a.43.43,0,1,0-.85,0v.61a2,2,0,0,0-1.15.55,2.47,2.47,0,0,0-.67,1.75,2.13,2.13,0,0,0,1.81,2l.1,0,.24,0,.17,0,0,0h0l.15.06,0,0,.14.08.08,0h0a1.9,1.9,0,0,1,1,1.33,1.29,1.29,0,0,1-.35,1,1.92,1.92,0,0,1-1.36.46,1.56,1.56,0,0,1-1.47-1.16.43.43,0,0,0-.85.09h0a2.4,2.4,0,0,0,2.07,1.9v.52a.43.43,0,0,0,.85,0v-.54a2.55,2.55,0,0,0,1.36-.67,2.15,2.15,0,0,0,.59-1.66,2.7,2.7,0,0,0-1.37-2l0,0-.08,0-.18-.1-.12-.06-.14-.05-.13,0-.25-.07-.23,0-.1,0a1.27,1.27,0,0,1-1.12-1.19A1.59,1.59,0,0,1,28,25.72a1.39,1.39,0,0,1,1.07-.34,1.64,1.64,0,0,1,1.57,1.17.43.43,0,0,0,.83-.2,2.47,2.47,0,0,0-2.07-1.79Z" transform="translate(-0.05 0)"/></g></svg>