<?xml version="1.0" encoding="utf-8"?>
<!-- Generator: Adobe Illustrator 21.0.0, SVG Export Plug-In . SVG Version: 6.00 Build 0)  -->
<svg version="1.1" xmlns="http://www.w3.org/2000/svg" xmlns:xlink="http://www.w3.org/1999/xlink" x="0px" y="0px"
	 viewBox="0 0 1400 934" style="enable-background:new 0 0 1400 934;" xml:space="preserve">
<style type="text/css">
	.st0{fill:#A0DDF9;}
	.st1{fill:#71C9F0;}
	.st2{fill:#D6F0FB;}
	.st3{fill:#124469;}
	.st4{fill:#FFC28F;}
	.st5{fill:#F39F6D;}
	.st6{opacity:0.32;}
	.st7{fill:#E4A88F;}
	.st8{fill:#F0EEEC;}
	.st9{fill:#E0DBD7;}
	.st10{fill:#B3B3B3;}
	.st11{opacity:0.55;fill:#DCDCD6;}
	.st12{fill:#626262;}
	.st13{opacity:0.32;fill:#544963;}
	.st14{fill:#FAFAF9;}
	.st15{opacity:0.75;fill:#E0DBD7;}
	.st16{fill:#E5E9E5;}
	.st17{fill:#C9C9C9;}
	.st18{fill:#214A60;}
	.st19{fill:#567385;}
	.st20{fill:#A9B8C1;}
	.st21{fill:#94A7B2;}
	.st22{opacity:0.55;fill:#DEE3E7;}
	.st23{fill:#1E485E;}
	.st24{fill:#3D6174;}
	.st25{fill:#758F9C;}
	.st26{fill:#CCC6BF;}
	.st27{fill:#E2DDD9;}
</style>
<g id="Layer_2">
	<rect class="st0" width="1400" height="934"/>
</g>
<g id="Layer_1">
	<polygon class="st1" points="633.1,450 647.5,450 647.8,447.8 632.3,447.8 	"/>
	<polygon class="st1" points="858.1,447.8 857.4,450 863.4,450 863,447.8 	"/>
	<polygon class="st1" points="673.1,487.9 679,487.9 679.6,485.2 672.9,485.2 	"/>
	<path class="st1" d="M669.3,447.8l0.2,2.2h2c-0.3-0.7-0.6-1.5-0.9-2.2H669.3z"/>
	<path class="st1" d="M683.8,485.2l-0.6,2.6h15c-0.8-0.9-1.7-1.7-2.5-2.6H683.8z"/>
	<polygon class="st1" points="839.4,487.9 842.3,487.9 843,485.2 838.8,485.2 	"/>
	<path class="st1" d="M821.8,487.9l0.1-1.4c-0.4,0.5-0.9,0.9-1.3,1.4H821.8z"/>
	<polygon class="st1" points="826.2,485.2 825.9,487.9 835.2,487.9 834.6,485.2 	"/>
	<polygon class="st1" points="519.6,614 519.6,616.2 556,616.2 554.5,614 	"/>
	<polygon class="st1" points="656.4,409.9 656.1,412.2 661.8,412.2 661.5,409.9 	"/>
	<polygon class="st1" points="867.6,450 891.4,450 891.4,447.8 867.2,447.8 	"/>
	<path class="st1" d="M826.5,481.4c1.9-2.2,3.8-4.4,5.6-6.7l-3.5-15L826.5,481.4z"/>
	<path class="st1" d="M853.1,412.2c-0.1-0.8-0.2-1.5-0.3-2.2c-3-19.6-14.2-30.3-26.9-35.6c-2.2-0.9-4.4-1.6-6.6-2.2
		c-0.6-0.1-1.1-0.3-1.7-0.4c-0.7-0.2-1.5-0.3-2.2-0.5c-7.6-1.5-15.1-1.4-21.3-0.4c-2.1,0.3-4.1,0.8-6.1,1.3
		c-2.3,0.6-4.5,1.4-6.5,2.2c-0.6,0.3-1.2,0.6-1.8,0.9c-0.8,0.4-1.5,0.7-2.2,1.1c-12.8,7-18.1,17.3-18.1,17.3s-5.1-10-17.5-16.9
		c-0.7-0.4-1.5-0.8-2.2-1.2c-0.8-0.4-1.6-0.8-2.5-1.2c-2-0.9-4.2-1.6-6.5-2.2c-1.9-0.5-3.9-1-6.1-1.3c-6-0.9-13.3-1-20.6,0.3
		c-0.7,0.1-1.5,0.3-2.2,0.5c-0.8,0.2-1.5,0.4-2.3,0.6c-2.2,0.6-4.4,1.3-6.6,2.2c-12.5,5.2-23.4,15.6-26.7,34.3
		c-0.1,0.8-0.3,1.7-0.4,2.6l3,31.6c0.6,1.7,1.2,3.3,1.8,5c0.3,0.7,0.6,1.5,0.9,2.2c3,6.9,6.9,13.6,11.5,19.9l7.9-35.5l7.4,25.7
		l14.5-44.9l8.7,53.7h46.9l10.2-37.2l17.6,48.9l9.9-95.6l4.1,0l9.8,103.4c0.2-0.2,0.4-0.4,0.6-0.6c0.4-0.5,0.9-0.9,1.3-1.4l5-52.3
		l8.4,36.3c4.7-6.5,8.7-13.3,11.8-20.5c0.3-0.7,0.6-1.5,0.9-2.2c2.6-6.5,4.4-13.2,5.1-20.2c0.2-2.2,0.4-4.4,0.4-6.7
		c0-2.6-0.1-5.1-0.4-7.5C853.2,413,853.2,412.6,853.1,412.2z"/>
	<path class="st1" d="M798.4,499.2l-19.3-53.6l-7.6,27.6H718l-6.5-40.3l-13.4,41.5l-6.6-23.2l-5.2,23.1c3,3.8,6.1,7.5,9.4,11
		c0.8,0.9,1.7,1.8,2.5,2.6c1.2,1.2,2.4,2.4,3.6,3.6c0.7,0.7,1.5,1.5,2.2,2.2c12.3,11.6,25.3,21.1,35.6,27.9c0.8,0.5,1.5,1,2.2,1.5
		c0.1,0,0.1,0.1,0.2,0.1c1.5,0.9,2.8,1.8,4.2,2.6c7.9,4.9,13.1,7.6,13.1,7.6s5.2-2.7,13.1-7.6c1.3-0.8,2.7-1.7,4.2-2.6
		c0.3-0.2,0.6-0.4,0.9-0.5c0.7-0.5,1.5-1,2.2-1.5c10.4-6.9,23.4-16.4,35.6-28.1c0.3-0.2,0.5-0.5,0.8-0.7l-8.2-86L798.4,499.2z"/>
	<path class="st1" d="M1263.2,300.7h-2.2v33.6h-9v2.2h9v35.6h-9v2.2h9v35.6h-9v2.2h9v35.6h-34.8v-26.4h-2.2v26.4h-34.8v-26.4h-2.2
		v26.4H1152v-26.4h-2.2v26.4H1115v-26.4h-2.2v26.4h-34.8v-26.4h-2.2v26.4h-34.8v-26.4h-2.2v26.4h-34.8v-26.4h-2.2v26.4h-34.8v-26.4
		h-2.2v26.4h-34.8v-26.4h-2.2v26.4h-36v2.2h36v35.6h-36v2.2h36v35.6h-36v2.2h36v35.6h-36v2.2h36v14.8h2.2v-14.8h34.8v14.8h2.2v-14.8
		h34.8v14.8h2.2v-14.8h34.8v14.8h2.2v-14.8h34.8v14.8h2.2v-14.8h34.8v14.8h2.2v-14.8h34.8v14.8h2.2v-14.8h34.8v14.8h2.2v-14.8h34.8
		v14.8h2.2v-14.8h34.8v14.8h2.2v-14.8h18.4v-2.2h-18.4v-35.6h18.4v-2.2h-18.4v-35.6h18.4v-2.2h-18.4V450h18.4v-2.2h-18.4v-35.6h18.4
		v-2.2h-18.4v-35.6h18.4v-2.2h-18.4v-35.6h18.4v-2.2h-18.4V300.7z M964.5,561.3h-34.8v-35.6h34.8V561.3z M964.5,523.5h-34.8v-35.6
		h34.8V523.5z M964.5,485.6h-34.8V450h34.8V485.6z M1001.5,561.3h-34.8v-35.6h34.8V561.3z M1001.5,523.5h-34.8v-35.6h34.8V523.5z
		 M1001.5,485.6h-34.8V450h34.8V485.6z M1038.6,561.3h-34.8v-35.6h34.8V561.3z M1038.6,523.5h-34.8v-35.6h34.8V523.5z M1038.6,485.6
		h-34.8V450h34.8V485.6z M1075.7,561.3h-34.8v-35.6h34.8V561.3z M1075.7,523.5h-34.8v-35.6h34.8V523.5z M1075.7,485.6h-34.8V450
		h34.8V485.6z M1112.7,561.3h-34.8v-35.6h34.8V561.3z M1112.7,523.5h-34.8v-35.6h34.8V523.5z M1112.7,485.6h-34.8V450h34.8V485.6z
		 M1149.8,561.3H1115v-35.6h34.8V561.3z M1149.8,523.5H1115v-35.6h34.8V523.5z M1149.8,485.6H1115V450h34.8V485.6z M1186.9,561.3
		H1152v-35.6h34.8V561.3z M1186.9,523.5H1152v-35.6h34.8V523.5z M1186.9,485.6H1152V450h34.8V485.6z M1223.9,561.3h-34.8v-35.6h34.8
		V561.3z M1223.9,523.5h-34.8v-35.6h34.8V523.5z M1223.9,485.6h-34.8V450h34.8V485.6z M1261,561.3h-34.8v-35.6h34.8V561.3z
		 M1261,523.5h-34.8v-35.6h34.8V523.5z M1261,485.6h-34.8V450h34.8V485.6z"/>
	<path class="st1" d="M181,578.3h2.2v-14.8H218v14.8h2.2v-14.8h34.8v14.8h2.2v-14.8h34.8v14.8h2.2v-14.8h34.8v14.8h2.2v-14.8h34.8
		v14.8h2.2v-14.8h34.8v14.8h2.2v-14.8h34.8v14.8h2.2v-14.8h34.8v14.8h2.2v-14.8h34.8v14.8h2.2v-14.8h34.8v14.8h2.2v-14.8h29.5v-2.2
		h-29.5v-35.6h29.5v-2.2h-29.5v-35.6h29.5v-2.2h-29.5V450h29.5v-2.2h-29.5v-35.6h29.5v-2.2h-29.5v-35.6h29.5v-2.2h-29.5v-35.6h29.5
		v-2.2h-29.5v-33.6h-2.2v33.6h-34.8v-33.6h-2.2v33.6h-34.8v-33.6h-2.2v33.6h-34.8v-33.6h-2.2v33.6h-34.8v-33.6h-2.2v33.6h-34.8
		v-33.6h-2.2v33.6h-34.8v-33.6h-2.2v33.6h-34.8v-33.6h-2.2v33.6h-34.8v-33.6h-2.2v33.6h-34.8v-33.6H218v33.6h-34.8v-33.6H181v33.6
		h-11.4v2.2H181v35.6h-11.4v2.2H181v35.6h-11.4v2.2H181v35.6h-11.4v2.2H181v35.6h-11.4v2.2H181v35.6h-11.4v2.2H181v35.6h-11.4v2.2
		H181V578.3z M516.8,336.4h34.8v35.6h-34.8V336.4z M516.8,374.3h34.8v35.6h-34.8V374.3z M516.8,412.2h34.8v35.6h-34.8V412.2z
		 M516.8,450h34.8v35.6h-34.8V450z M516.8,487.9h34.8v35.6h-34.8V487.9z M516.8,525.7h34.8v35.6h-34.8V525.7z M479.7,336.4h34.8
		v35.6h-34.8V336.4z M479.7,374.3h34.8v35.6h-34.8V374.3z M479.7,412.2h34.8v35.6h-34.8V412.2z M479.7,450h34.8v35.6h-34.8V450z
		 M479.7,487.9h34.8v35.6h-34.8V487.9z M479.7,525.7h34.8v35.6h-34.8V525.7z M442.7,336.4h34.8v35.6h-34.8V336.4z M442.7,374.3h34.8
		v35.6h-34.8V374.3z M442.7,412.2h34.8v35.6h-34.8V412.2z M442.7,450h34.8v35.6h-34.8V450z M442.7,487.9h34.8v35.6h-34.8V487.9z
		 M442.7,525.7h34.8v35.6h-34.8V525.7z M405.6,336.4h34.8v35.6h-34.8V336.4z M405.6,374.3h34.8v35.6h-34.8V374.3z M405.6,412.2h34.8
		v35.6h-34.8V412.2z M405.6,450h34.8v35.6h-34.8V450z M405.6,487.9h34.8v35.6h-34.8V487.9z M405.6,525.7h34.8v35.6h-34.8V525.7z
		 M368.5,336.4h34.8v35.6h-34.8V336.4z M368.5,374.3h34.8v35.6h-34.8V374.3z M368.5,412.2h34.8v35.6h-34.8V412.2z M368.5,450h34.8
		v35.6h-34.8V450z M368.5,487.9h34.8v35.6h-34.8V487.9z M368.5,525.7h34.8v35.6h-34.8V525.7z M331.5,336.4h34.8v35.6h-34.8V336.4z
		 M331.5,374.3h34.8v35.6h-34.8V374.3z M331.5,412.2h34.8v35.6h-34.8V412.2z M331.5,450h34.8v35.6h-34.8V450z M331.5,487.9h34.8
		v35.6h-34.8V487.9z M331.5,525.7h34.8v35.6h-34.8V525.7z M294.4,336.4h34.8v35.6h-34.8V336.4z M294.4,374.3h34.8v35.6h-34.8V374.3z
		 M294.4,412.2h34.8v35.6h-34.8V412.2z M294.4,450h34.8v35.6h-34.8V450z M294.4,487.9h34.8v35.6h-34.8V487.9z M294.4,525.7h34.8
		v35.6h-34.8V525.7z M257.3,336.4h34.8v35.6h-34.8V336.4z M257.3,374.3h34.8v35.6h-34.8V374.3z M257.3,412.2h34.8v35.6h-34.8V412.2z
		 M257.3,450h34.8v35.6h-34.8V450z M257.3,487.9h34.8v35.6h-34.8V487.9z M257.3,525.7h34.8v35.6h-34.8V525.7z M220.3,336.4h34.8
		v35.6h-34.8V336.4z M220.3,374.3h34.8v35.6h-34.8V374.3z M220.3,412.2h34.8v35.6h-34.8V412.2z M220.3,450h34.8v35.6h-34.8V450z
		 M220.3,487.9h34.8v35.6h-34.8V487.9z M220.3,525.7h34.8v35.6h-34.8V525.7z M183.2,336.4H218v35.6h-34.8V336.4z M183.2,374.3H218
		v35.6h-34.8V374.3z M183.2,412.2H218v35.6h-34.8V412.2z M183.2,450H218v35.6h-34.8V450z M183.2,487.9H218v35.6h-34.8V487.9z
		 M183.2,525.7H218v35.6h-34.8V525.7z"/>
	<path class="st1" d="M855.5,456.8l-2.2,7.8v20.6h-5.9l-0.8,2.6h6.7v35.2h-35.6v-15.3l-1.5-15.5c-0.3,0.2-0.5,0.5-0.8,0.7v30.1
		h-35.6v-2c-0.8,0.5-1.5,1-2.2,1.5v0.5h-0.9c-1.5,0.9-2.8,1.8-4.2,2.6h5v33.4h-35.6v-33.4h4.4c-1.3-0.8-2.7-1.7-4.2-2.6h-0.2V523
		c-0.7-0.5-1.5-1-2.2-1.5v1.6h-35.6v-29.5c-0.8-0.7-1.5-1.4-2.2-2.2v31.6h-26.5l-0.6,2.6h27.1v33.4h-35.6v-33.4h6.4l-0.3-2.6h-6.1
		v-35.2h2.8l-0.3-2.6h-2.5v-26.5l-2.2-23.4v12.4h-12.1l-0.3,2.2H664v35.2h-16.5l-0.3,2.6H664v35.2h-35.6v-35.2h13.6l-0.9-2.6h-12.7
		V450h7.9l1.6-2.2l-9.5-0.2v-19.4l-2.2-1.6v21.2h-6.6l-0.3,2.2h6.9v35.2h-35.6v-21.4l-2.2-3.5v24.9h-43v2.6h43v35.2h-43v2.6h43v33.4
		h-43v4h43v15.1h2.2v-15.1h35.6v15.1h2.2v-15.1H664v15.1h2.2v-15.1h35.6v15.1h2.2v-15.1h35.6v15.1h2.2v-15.1h35.6v15.1h2.2v-15.1
		h35.6v15.1h2.2v-15.1h35.6v15.1h2.2v-15.1h36v-4h-36v-33.4h36v-2.6h-36v-35.2h36v-2.6h-36V456.8z M626.1,559.2h-35.6v-33.4h35.6
		V559.2z M626.1,523.1h-35.6v-35.2h35.6V523.1z M664,559.2h-35.6v-33.4H664V559.2z M739.7,559.2h-35.6v-33.4h35.6V559.2z
		 M815.4,559.2h-35.6v-33.4h35.6V559.2z M853.3,559.2h-35.6v-33.4h35.6V559.2z"/>
	<path class="st1" d="M855.5,300.7h-2.2v33.6h-35.6v-33.6h-2.2v33.6h-35.6v-33.6h-2.2v33.6h-35.6v-33.6h-2.2v33.6h-35.6v-33.6h-2.2
		v33.6h-35.6v-33.6H664v33.6h-35.6v-33.6h-2.2v33.6h-35.6v-33.6h-2.2v33.6h-43v2.2h43v35.6h-43v2.2h43v35.6h-43v2.2h43v35.6h-3.2
		l1.4,2.2h1.8v2.7l2.2,3.5V450h30.1l0.3-2.2h-30.4v-35.6h35.6v17.9l2.2,6.4v-24.3H652l0.3-2.2h-23.9v-35.6h28.1l0.3-2.2h-28.3v-35.6
		H664v35.6h-1.9l0.2,2.2h1.7v17.5l1.9,19.4c0.1-0.9,0.2-1.7,0.4-2.6v-34.3h26.7c2.2-0.9,4.4-1.6,6.6-2.2h-33.3v-35.6h35.6v35.1
		c0.7-0.2,1.5-0.3,2.2-0.5v-34.6h35.6v35.6h-8.9c2.3,0.6,4.5,1.4,6.5,2.2h2.5v1.2c0.8,0.4,1.5,0.8,2.2,1.2v-2.4h35.6v2
		c0.7-0.4,1.5-0.8,2.2-1.1v-0.9h1.8c2-0.9,4.2-1.6,6.5-2.2h-8.3v-35.6h35.6v34.7c0.7,0.1,1.5,0.3,2.2,0.5v-35.2h35.6v35.6h-34
		c2.2,0.6,4.4,1.3,6.6,2.2h27.4v35.6h-0.4c0.1,0.7,0.2,1.5,0.3,2.2h0.1v1.3c0.2,2.4,0.4,4.8,0.4,7.5c0,2.2-0.1,4.5-0.4,6.7v20.2
		h-5.1c-0.3,0.7-0.6,1.5-0.9,2.2h5.9l2.3-8.2v-29.7h36v-2.2h-36v-35.6h36v-2.2h-36v-35.6h36v-2.2h-36V300.7z M626.1,409.9h-35.6
		v-35.6h35.6V409.9z M626.1,372.1h-35.6v-35.6h35.6V372.1z M777.5,372.1h-35.6v-35.6h35.6V372.1z"/>
	<path class="st1" d="M1200.6,300.7h-2.2v33.6h-35.6v-33.6h-2.2v33.6h-35.6v-33.6h-2.2v33.6H1087v-33.6h-2.2v33.6h-35.6v-33.6h-2.2
		v33.6h-35.6v-33.6h-2.2v33.6h-35.6v-33.6h-2.2v33.6h-35.6v-33.6h-2.2v33.6h-43v2.2h43v35.6h-43v2.2h43v35.6h-43v2.2h43v35.6h-3.2
		l1.4,2.2h1.8v2.7l2.2,3.5V450h30.1l0.3-2.2h-30.4v-35.6h35.6v17.9l2.2,6.4v-24.3h23.6l0.3-2.2h-23.9v-35.6h28.1l0.3-2.2h-28.3
		v-35.6h35.6v35.6h-1.9l0.2,2.2h1.7v17.5l1.9,19.4c0.1-0.9,0.2-1.7,0.4-2.6v-34.3h26.7c2.2-0.9,4.4-1.6,6.6-2.2h-33.3v-35.6h35.6
		v35.1c0.7-0.2,1.5-0.3,2.2-0.5v-34.6h35.6v35.6h-8.9c2.3,0.6,4.5,1.4,6.5,2.2h2.5v1.2c0.8,0.4,1.5,0.8,2.2,1.2v-2.4h35.6v2
		c0.7-0.4,1.5-0.8,2.2-1.1v-0.9h1.8c2-0.9,4.2-1.6,6.5-2.2h-8.3v-35.6h35.6v34.7c0.7,0.1,1.5,0.3,2.2,0.5v-35.2h35.6v35.6h-34
		c2.2,0.6,4.4,1.3,6.6,2.2h27.4v35.6h-0.4c0.1,0.7,0.2,1.5,0.3,2.2h0.1v1.3c0.2,2.4,0.4,4.8,0.4,7.5c0,2.2-0.1,4.5-0.4,6.7v20.2
		h-5.1c-0.3,0.7-0.6,1.5-0.9,2.2h5.9l2.3-8.2v-29.7h36v-2.2h-36v-35.6h36v-2.2h-36v-35.6h36v-2.2h-36V300.7z M971.2,409.9h-35.6
		v-35.6h35.6V409.9z M971.2,372.1h-35.6v-35.6h35.6V372.1z M1122.6,372.1H1087v-35.6h35.6V372.1z"/>
	<polygon class="st2" points="867.6,450 867.2,447.8 861.9,419.6 855.5,441.9 853.1,450 843,485.2 842.3,487.9 840.7,493.4 
		839.4,487.9 838.8,485.2 835.4,470.5 826.9,434.2 821.9,486.5 821.8,487.9 820.8,497.7 820,488.5 810.2,385.1 806.1,385.1 
		796.2,480.7 778.6,431.8 768.4,469 721.6,469 712.9,415.3 698.3,460.2 691,434.5 683,469.9 679.6,485.2 679,487.9 674.9,506.2 
		673.1,487.9 672.9,485.2 669.5,450 669.3,447.8 668.8,442.8 665.8,411.2 664,391.8 662.3,374.3 662.1,372.1 659.7,346.8 
		656.7,372.1 656.4,374.3 652.2,409.9 652,412.2 647.8,447.8 647.5,450 643.9,480.8 622,409.2 621.4,422.4 641,485.2 641.9,487.9 
		645.9,499.1 647.2,487.9 647.5,485.2 651.6,450 651.9,447.8 656.1,412.2 656.4,409.9 659.2,385.7 661.5,409.9 661.8,412.2 
		664,435.3 666.2,458.7 668.7,485.2 669,487.9 672.3,523.1 672.6,525.7 673.2,532.5 674.8,525.7 675.3,523.1 683.2,487.9 
		683.8,485.2 686.3,474.3 691.5,451.2 698.1,474.4 711.5,432.9 718,473.1 771.6,473.1 779.2,445.5 798.4,499.2 808,406.3 
		816.2,492.3 817.6,507.8 818.8,519.6 822.9,519.6 825.9,487.9 826.2,485.2 826.5,481.4 828.6,459.7 832.1,474.8 834.6,485.2 
		835.2,487.9 840.3,509.8 846.6,487.9 847.3,485.2 853.3,464.6 855.5,456.8 857.4,450 858.1,447.8 861.1,437.5 863,447.8 863.4,450 
		866.1,464.3 884,464.3 884,460.1 869.5,460.1 	"/>
	<polygon class="st2" points="1195.9,470.4 1195.5,468.1 1190.2,440 1183.8,462.2 1181.5,470.4 1171.3,505.6 1170.6,508.2 
		1169,513.7 1167.7,508.2 1167.1,505.6 1163.7,490.8 1155.3,454.6 1150.2,506.9 1150.1,508.2 1149.1,518 1148.3,508.9 1133,422 
		1131.5,433.1 1144.5,512.6 1145.9,528.2 1147.1,539.9 1151.2,539.9 1154.2,508.2 1154.5,505.6 1154.8,501.8 1156.9,480.1 
		1160.4,495.1 1162.9,505.6 1163.5,508.2 1168.6,530.2 1174.9,508.2 1175.6,505.6 1181.6,485 1183.8,477.2 1185.8,470.4 
		1186.4,468.1 1189.4,457.8 1191.3,468.1 1191.7,470.4 1194.4,484.6 1212.3,484.6 1212.3,480.5 1197.8,480.5 	"/>
	<path class="st2" d="M1131.5,433.1l-7,67.9l-17.6-48.9l-10.2,37.2h-46.9l-8.7-53.7l-14.5,44.9l-7.4-25.7l-7.9,35.5l-3.4,15.3
		l-0.6,2.6l-4.1,18.4l-18.4-95.1l-2.5-15.8l-1.8,14.6l0.2,2.2l19.9,110.9l0.3,2.6l0.6,6.8l1.5-6.8l0.6-2.6l7.9-35.2l0.6-2.6l2.5-11
		l5.2-23.1l6.6,23.2l13.4-41.5l6.5,40.3h53.5l7.6-27.6l19.3,53.6l8.3-80.6c-0.9-1.8-1.7-3.7-2.3-5.8H1131.5z"/>
	<path class="st2" d="M980.6,429.4l-0.1,0.8l-0.3,2.2l-4.2,35.6l-0.3,2.2l-3.6,30.8l-10.8-30.8l-0.8-2.2l-4-11.3l-2.2-6.4l-1.7-5
		l-3.5,22.7l-0.3,2.2l-2.9,19h-18.9l-8.3-12.8l-2.2-3.5l-1.8-2.7l-1.4-2.2l-5.1-8H884v4.1h22l2.5,3.8l1.4,2.2l6.7,10.3l2.2,3.5
		l6,9.3h24.7l3.5-23.1l0.3-2.2l0.9-5.6l0.2,0.5l2.6,7.4l12.3,35.2l0.9,2.6l3.9,11.2l1.3-11.2l0.3-2.6l4.2-35.2l0.3-2.2l4.1-34.6
		c-0.5-1.3-1-2.7-1.4-4.1H980.6z"/>
	<polygon class="st2" points="1277.5,488.4 1277.2,490.7 1274.3,509.7 1255.4,509.7 1247.1,496.9 1244.9,493.4 1243.1,490.7 
		1241.7,488.4 1236.5,480.5 1212.3,480.5 1212.3,484.6 1234.3,484.6 1236.8,488.4 1238.2,490.7 1244.9,501 1247.1,504.5 
		1253.1,513.8 1277.8,513.8 1281.4,490.7 1281.6,488.8 1281.6,467.6 1281,465.8 	"/>
	<polygon class="st2" points="615.6,431.5 613.2,439.7 603.1,474.9 602.4,477.5 600.8,483 599.5,477.5 598.9,474.9 595.5,460.1 
		587,423.8 582,476.1 581.9,477.5 580.9,487.3 580.1,478.2 570.3,374.8 566.2,374.8 556.3,470.3 538.7,421.5 528.5,458.6 
		481.7,458.6 473,404.9 458.4,449.8 451.1,424.1 443.1,459.5 439.7,474.9 439.1,477.5 435,495.9 433.2,477.5 433,474.9 429.6,439.7 
		429.4,437.4 428.9,432.4 425.9,400.8 424.1,381.4 422.4,363.9 422.2,361.7 419.8,336.4 416.8,361.7 416.5,363.9 412.3,399.6 
		412.1,401.8 407.9,437.4 407.6,439.7 404,470.4 393.2,439.7 392.4,437.4 388.5,426.1 386.2,419.7 384.5,414.7 381,437.4 
		380.7,439.7 377.8,458.6 358.9,458.6 350.6,445.8 348.4,442.4 346.6,439.7 345.2,437.4 340,429.4 315.8,429.4 315.8,433.6 
		337.8,433.6 340.3,437.4 341.7,439.7 348.4,450 350.6,453.4 356.6,462.8 381.3,462.8 384.8,439.7 385.2,437.4 386,431.8 
		386.2,432.3 388.8,439.7 401.1,474.9 402,477.5 406,488.7 407.3,477.5 407.6,474.9 411.7,439.7 412,437.4 416.2,401.8 416.5,399.6 
		419.3,375.4 421.7,399.6 421.9,401.8 424.1,425 426.3,448.4 428.8,474.9 429.1,477.5 432.4,512.7 432.7,515.4 433.3,522.1 
		434.9,515.4 435.4,512.7 443.3,477.5 443.9,474.9 446.4,463.9 451.6,440.8 458.2,464 471.6,422.5 478.1,462.8 531.7,462.8 
		539.3,435.2 558.5,488.8 568.1,395.9 576.3,481.9 577.7,497.4 578.9,509.2 583,509.2 586,477.5 586.3,474.9 586.6,471.1 
		588.7,449.3 592.2,464.4 594.7,474.9 595.3,477.5 600.4,499.4 606.7,477.5 607.4,474.9 613.4,454.2 615.6,446.5 617.6,439.7 
		622.7,422 622,409.2 	"/>
	<rect x="890.3" y="300.7" class="st1" width="2.2" height="277.7"/>
	<rect x="891.4" y="372.1" class="st1" width="10.9" height="2.2"/>
	<rect x="891.4" y="334.2" class="st1" width="10.9" height="2.2"/>
	<rect x="891.4" y="409.9" class="st1" width="10.9" height="2.2"/>
</g>
<g id="Layer_4">
	<path class="st1" d="M1110,381c0,0,61-56.3,91.9,9.4c0,0,19.1,43.6-46,99l-46,31.3c0,0-88.7-52.8-90.6-90.5
		c0,0-19.1-70.6,42.8-72.7C1062.3,357.5,1083.2,345.8,1110,381z"/>
	<path class="st1" d="M763.9,399c0,0,61-56.3,91.9,9.4c0,0,19.1,43.6-46,99l-46,31.3c0,0-88.7-52.8-90.6-90.5
		c0,0-19.1-70.6,42.8-72.7C716.1,375.5,737,363.8,763.9,399z"/>
	<g>
		<g>
			<g>
				<path class="st1" d="M1260.3,800.5c-11,5.7-25.6,13.4-39.6,20.7c-13.6,7.1-27.4,14-41.3,20.3c-30.3,13.6-62.9,23.5-95.9,22.2
					c-33.4-1.3-64.2-10.1-95.7-22.1c-25.5-9.7-51-20.1-77.6-25.3c-41.9-8.1-88.2-6-129.1,7.3c-41.3,13.4-79.8,37.1-122.3,46.1
					c-56.1,11.9-113.6-3.1-169.8-14.6c-73-14.9-150.8-17.4-214.8,31.3V934H1400V757.3c-21.6,1.3-41.9,3.8-62.4,10.2
					C1311,775.9,1285.4,787.6,1260.3,800.5z"/>
			</g>
			<g>
				<path class="st1" d="M1260.3,733.9c-11,5.7-25.6,13.4-39.6,20.7c-13.6,7.1-27.4,14-41.3,20.3c-30.3,13.6-62.9,23.5-95.9,22.2
					c-33.4-1.3-64.2-10.1-95.7-22.1c-25.5-9.7-51-20.1-77.6-25.3c-41.9-8.1-88.2-6-129.1,7.3c-41.3,13.4-79.8,37.1-122.3,46.1
					c-56.1,11.9-113.6-3.1-169.8-14.6c-73-14.9-150.8-17.4-214.8,31.3v38.3c64-48.7,141.8-46.1,214.8-31.3
					c56.2,11.4,113.7,26.5,169.8,14.6c42.5-9,80.9-32.7,122.3-46.1c41-13.3,87.2-15.4,129.1-7.3c26.6,5.2,52.1,15.6,77.6,25.3
					c31.4,12,62.3,20.8,95.7,22.1c32.9,1.3,65.5-8.6,95.9-22.2c14-6.3,27.7-13.2,41.3-20.3c14-7.2,28.5-15,39.6-20.7
					c25.1-12.9,50.6-24.7,77.2-33c20.5-6.4,40.8-8.9,62.4-10.2v-38.3c-21.6,1.3-41.9,3.8-62.4,10.2
					C1311,709.3,1285.4,721,1260.3,733.9z"/>
			</g>
			<ellipse class="st1" cx="990" cy="739.2" rx="10.9" ry="12.3"/>
			<ellipse class="st1" cx="653.5" cy="778.6" rx="6.4" ry="7.2"/>
			<ellipse class="st1" cx="626.3" cy="858.2" rx="6.4" ry="7.2"/>
			<ellipse class="st1" cx="751.8" cy="742.6" rx="7.8" ry="8.8"/>
			<ellipse class="st1" cx="889.2" cy="718.5" rx="5.4" ry="6.1"/>
			<ellipse class="st1" cx="842.5" cy="794.4" rx="5.4" ry="6.1"/>
			<ellipse class="st1" cx="1016.4" cy="839.3" rx="5.4" ry="6.1"/>
			<ellipse class="st1" cx="779.7" cy="739.4" rx="3.6" ry="4.1"/>
			<ellipse class="st1" cx="612.8" cy="788.3" rx="3.6" ry="4.1"/>
			<ellipse class="st1" cx="766.5" cy="814.1" rx="3.6" ry="4.1"/>
			<ellipse class="st1" cx="429.4" cy="828" rx="3.6" ry="4.1"/>
			<ellipse class="st1" cx="544" cy="849.7" rx="3.6" ry="4.1"/>
			<ellipse class="st1" cx="469.7" cy="763.3" rx="3.6" ry="4.1"/>
			<ellipse class="st1" cx="1021" cy="762.6" rx="4.7" ry="5.3"/>
			<ellipse class="st1" cx="801.8" cy="702.7" rx="10.6" ry="12"/>
			<ellipse class="st1" cx="383.4" cy="833.7" rx="5" ry="5.6"/>
			<ellipse class="st1" cx="502.6" cy="771.5" rx="7.3" ry="8.2"/>
			<ellipse class="st1" cx="306.3" cy="764.7" rx="8.7" ry="9.8"/>
			<ellipse class="st1" cx="339.6" cy="770.6" rx="5.3" ry="5.9"/>
		</g>
	</g>
</g>
<g id="Layer_3">
	<g>
		<path class="st3" d="M461.5,300C512.6,351.6,568,310,568,310C529,290.1,461.5,300,461.5,300z"/>
		<path class="st4" d="M546.8,252.3c6.2-8.8-57.2,6.7-57.2,6.7s-4.8,79-11,91.9c-6.2,12.9,73.8,8.3,73.8,8.3
			S540.6,261.1,546.8,252.3z"/>
		<path class="st5" d="M487.6,285.8c-2,24.2-5.3,57.1-9.1,65.1c-3.5,7.4,21,9,42.7,9.1c0.2-20.4,1.1-40.8,1.8-61.3
			c-12.5-1.6-23.6-5.2-34.2-12C488.5,286.4,488.1,286.1,487.6,285.8z"/>
		<path class="st4" d="M487.5,108.4c-5.6,18.2,17.3,85.7-7.8,78.8c-25.2-6.9-22.8-37.5-22.8-37.5c6.6-53.7,1.7-69.5-9.7-60.6
			c-11.4,8.9-21,59.5-21,59.5c31,44.7,10,82.6,20,86.7c10,4.2,25.9,22,41.3,34c15.4,12,27.8,6.9,27.8,6.9
			c26.3-6.9,31.2-48.5,39.5-68.9c8.3-20.4,1-77.4-9-98.7C535.8,87.4,493.1,90.2,487.5,108.4z"/>
		<path class="st4" d="M553.1,118.1c0,0-47.2,40.9-46.5,95.7c0.7,54.7,8.7,62.6,8.7,62.6s14,18.6,46.4-14.8
			c0,0,26.5-87.7,33.1-107.7C601.3,133.9,553.1,118.1,553.1,118.1z"/>
		<path class="st5" d="M553.1,118.1c0,0-66.6,32.2-70.3,82.8c14.1,8,28.4,8.6,32.5,8.4c11-0.5,26.8-9.5,31.7-17.1
			c5.6-8.8,9-18.8,10.3-29.1c1.7-14.2-0.1-28.2-1.5-44C554.1,118.4,553.1,118.1,553.1,118.1z"/>
		<path class="st4" d="M488.9,50.6c0,0-33.3,38-26.5,52.5c6.7,14.5,24.1-7.5,38-31.8l-0.8,12.9c0,0,15.3-0.7,17.6-8.9
			C517.2,75.4,515.1,46.8,488.9,50.6z"/>
		<path class="st5" d="M502.1,51.9c0.1,8.4-1.6,16.8-5,24.5c-0.1,0.3-0.1,0.6-0.2,1c1.2-2,2.4-4,3.6-6l-0.8,12.9
			c0,0,15.3-0.7,17.6-8.9C517.2,75.4,515.8,57.4,502.1,51.9z"/>
		<path class="st4" d="M528.8,50.3c-12.4,1.2,0,59,0,59l19.4-12.1l2.7-11.7C551,85.6,541.3,49.1,528.8,50.3z"/>
		<path class="st5" d="M528.8,50.3c-12.4,1.2,0,59,0,59l19.4-12.1l2.7-11.7C551,85.6,541.3,49.1,528.8,50.3z"/>
		<path class="st4" d="M526,48.6c-22.4,15.7-42.7,55.2-35.2,66.1c7.5,10.8,51.2-49,51.2-49C545.9,63.6,535.6,41.9,526,48.6z"/>
		<path class="st4" d="M533.5,134.9c0,0,40.9-18.6,41.6-15.5c0,0-8.3-27.1-9.6-31.5C564.3,83.5,533.5,134.9,533.5,134.9z"/>
		<path class="st5" d="M533.5,134.9c0,0,40.9-18.6,41.6-15.5c0,0-8.3-27.1-9.6-31.5C564.3,83.5,533.5,134.9,533.5,134.9z"/>
		<path class="st4" d="M551,78.7c-4.3,0.6-27.3,29.8-31.9,32.5c-4.7,2.7-8.8,30.3-8.8,30.3s-6.5,14.2,7,16.5
			c13.4,2.3,15.8-35.4,21.9-37.4c6.1-2.1,24.9-14.5,28.4-26.4C570.9,82.2,555.2,78.1,551,78.7z"/>
		<path class="st4" d="M577.7,116c-12.2-0.5-32.9,3.7-36.4,6c-3.4,2.3-17.6,34.8-25.3,40.7c-7.6,5.9,27.8,20.9,38.3-18.8
			c0,0,14.1,1.3,16.2-0.7c2.1-1.9-7.2,12.5-7.2,15c0,2.5,31,5,32.1-9.4C595.3,148.7,589.9,116.6,577.7,116z"/>
		<g class="st6">
			<path class="st7" d="M462.4,103.1c6.7,14.5,24.1-7.5,38-31.8l-0.4,7.2c-8.8,14.9-13.4,30.1-9.1,36.2c5.1,7.4,26.9-18,40.4-34.9
				c-11.7-12.9-30.7-19.3-49-20.9C472.8,70.9,457.6,92.9,462.4,103.1z"/>
			<path class="st7" d="M539.1,120.7c1.4-0.5,3.4-1.4,5.7-2.8c-0.1-8.8-1.7-17.8-6.3-27.3c-7.8,8.7-16.7,19.2-19.4,20.7
				c-4.7,2.7-8.8,30.3-8.8,30.3s-6.5,14.2,7,16.5c1.1,0.2,2.2,0,3.1-0.3c-1.6,2.2-3,4-4.3,4.9c-5.1,4,9.2,12,22.3,4.8
				c1.3-16.9,5.9-31.7,6.4-46.9c-1.6,0.5-2.8,1-3.4,1.4c-1.5,1-5.2,8.1-9.5,16.2C534.4,129.7,536.3,121.6,539.1,120.7z"/>
		</g>
		<path class="st5" d="M520.3,195.5c-4.9,6.9-10.1,12.5-13.8,19.4c-17.2,45.3,8.7,61.5,8.7,61.5s0.2,0.3,0.7,0.8
			c-10.4-15.1-11.6-36.3-7.4-51.2C509.4,222.8,517.3,199.8,520.3,195.5z"/>
		<path class="st5" d="M504.2,256.1c-1.3-3.9-2-8.4-1.7-12.8c-0.4-1.4-0.6-2.5-0.6-3.1c0-0.2,0.1-0.3,0.1-0.4
			c-1.8-1.2-3.7-2.4-5.4-3.5c-6.4-4.4-10.4-11.1-11.4-18.3c-7.4-2.4-15.1-9.1-15.1-9.1s-18.4-41.4-9.4-30.5c9,11,38.5,26.1,41.2-4.6
			c1.2-13.6-4.2-18.6-10.5-20c2.2,19.2,2.4,35.9-10.6,32.4c-24.4-6.7-22.1-36.4-22.1-36.4c6.4-52.1,1.7-67.5-9.4-58.8
			c-11,8.7-20.4,57.8-20.4,57.8c30.1,43.4,9.7,80.2,19.4,84.2c9.7,4,25.1,21.4,40.1,33.1c9.6,7.5,19.6,8.3,24.9,7.8
			c-1.5-1.6-2.9-3.2-4-5.1C506.9,264.8,505.6,260.2,504.2,256.1z"/>
		<path class="st5" d="M575.1,133.7c-5.9,5.1-20.8,3.2-20.8,3.2s-3.7,16.7-20.2,21.2c-7.4,2-11,0.5-12.8-1.8
			c-1.9,2.9-3.7,5.1-5.3,6.3c-7.6,5.9,27.8,20.9,38.3-18.8c0,0,14.1,1.3,16.2-0.7c1.4-1.3-2.3,4.7-4.9,9.5
			c6.5,0.7,13.4,0.9,11.6-1.4C573.9,147.2,575.1,133.7,575.1,133.7z"/>
		<path class="st4" d="M114.4,287.5c-11-21.8-22.6-125.7-26.9-176.2c-26.8-5.5-47.6,6.4-69.1-16.2c0,0-0.1-0.1-0.1-0.1
			c-3.2-3.1-6.5-6.4-9.8-9.8c-2.6-2.5-5.2-5.1-7.8-7.7v205.8C53.2,298.2,128.5,315.7,114.4,287.5z"/>
		<path class="st5" d="M72.3,203.5c8.8,3.7,17.3,7.2,28.3,21.8c-3.1-21.3-11.2-91.7-13.2-114.1c-26.8-5.5-47.6,6.4-69.1-16.2
			c0,0-0.1-0.1-0.1-0.1c-3.2-3.1-6.5-6.4-9.8-9.8c-2.6-2.5-5.2-5.1-7.8-7.7V223C16.3,208,45.2,192.3,72.3,203.5z"/>
		<g>
			<path class="st4" d="M161.5,0H0.5v178.6c0.2,0,0.3,0,0.5,0C70.6,178.6,156.1,66.4,161.5,0z"/>
		</g>
		<path class="st8" d="M280.1,856.3c-14.1-84.1,4.4-298.1,33.8-365.7c42.2-97,21.9-141.8-4.1-212.2c-1.8-5-22.2-10.5-24.7-11.3
			c-25.1-7.9-141.3-43.6-141.3-43.6c-40.5,52-94.1,53.6-143.3,35.7V934h287.6C285.3,898.3,282.5,870.6,280.1,856.3z"/>
		<path class="st9" d="M285.3,444.9c-11.7,180.4-43.8,229.5-48.1,268c-6.5,57.3,18.4,90.9,17.8,148.5c-0.2,16.8,2,41.8,5.1,72.6h28
			c-2.8-35.7-5.6-63.4-8-77.7c-11.9-71.2-1.3-241.5,20.4-331.2C287.1,502.8,285.5,473.1,285.3,444.9z"/>
		<path class="st8" d="M357.3,314c-11.6-19.4-30.1-33.2-51.3-39.2c-40.1,135.8-9.6,274.2-9.6,274.2
			c104.1,169.7,178.3,221.6,178.3,221.6s-1.7-32.3-21.5-110.3C430,569.2,416.8,413.4,357.3,314z"/>
		<path class="st9" d="M392.7,651.8C333.5,546,320.1,547.5,285.4,438.9c1,64.5,11,110.1,11,110.1
			c104.1,169.7,178.3,221.6,178.3,221.6s-0.6-10.5-4.7-34C439.5,716.9,404.3,672.3,392.7,651.8z"/>
		<path class="st8" d="M461.5,300c0,0-23.7,135.2-24.2,267.3c-0.6,154.5,23.5,200.4,37.4,203.3C550.1,785.9,568,310,568,310
			S521.1,322.9,461.5,300z"/>
		<path class="st9" d="M556.7,375.3c-1.5,10.4-2.6,20.8-3.2,31.3c-4.8,84.4-27.1,336.4-69.4,325.4c-9.2-2.4-25.2-41.5-24.9-173.1
			c0.3-94,6-194.3,9.7-223.3c2.1-19.7-2.1-30.9-7.4-35.5c-6.9,46.4-23.9,171.6-24.2,267.3c-0.6,154.5,23.5,200.4,37.4,203.3
			c63.2,12.8,86-327.7,91.7-435.7C561.1,336.4,559.2,356.8,556.7,375.3z"/>
		<g>
			<path class="st10" d="M136.2,230.4c0,0-37.8-26.4-38.5-17.6c-0.5,6.9-68.1,36.3-97.2,48.6v371c6.4,2.3,12.5,3.5,18.2,3.5
				C119.5,634.7,136.2,230.4,136.2,230.4z"/>
			<polygon class="st11" points="0.5,263.8 0.5,345.3 33.4,273.6 			"/>
			<polygon class="st11" points="61.2,544 0.5,361.2 0.5,651.3 2.5,653.5 			"/>
			<polygon class="st12" points="70.6,544 6.9,351.9 42.9,273.6 1,261.2 0.5,261.3 0.5,640.4 12,653.5 			"/>
			<path class="st13" d="M70.6,544l-17.5-52.6c-5.7,9.5-12.3,18.6-18.8,27.2c-9.2,12.3-22.2,15.9-33.9,12.1v109.7L12,653.5L70.6,544
				z"/>
			<polygon class="st11" points="53,365.6 143.8,249.8 95.2,222.7 1,261.2 0.5,261 0.5,288.3 1,287.7 			"/>
			<polygon class="st14" points="1,261.2 55.5,345 146.3,224.3 97.3,199.8 			"/>
			<polygon class="st14" points="0.5,261 0.5,261.8 1,261.2 			"/>
			<path class="st11" d="M170.1,389.9l41.8-37.9l-40-119.9l-31.1-9.4C133.4,466.9,17.8,608.6,17.8,608.6c-0.4-0.3-9.3,0.1-17.2,0.3
				v89.8l226.6-255.4L170.1,389.9z"/>
			<path class="st14" d="M153.9,389.7l42.9-37.1L155,226.9l-27.8-8.4C121.3,410.4,36.6,536.8,0.5,582.3v101.8L200,442.6L153.9,389.7
				z"/>
		</g>
		<g>
			<path class="st15" d="M275.3,756.2c-10.7,40.7-26.3,59.1-39.2,49.2c-80.7-62-122.3-189.1-135.7-211.9l5.3-1.9
				c0,0-13.1-24.6-15.4-91.7c-1.6-46,52.7-277.1,52.7-277.1s-5.8-2.9-13.5-6.7c-15.9,70.1-55.7,242.7-65,252.6
				c-11,11.7-37.8-37.3-64-95.4v46.8c22.9,42.2,43,74.2,47.5,82.9c15,29,30.7,98.5,30.7,98.5l6.7-2.5
				c12.6,28.5,59.8,182.6,151.2,257.4c14.6,11.9,28.4-16.7,38.8-56.3C275.3,782.5,275.3,756.2,275.3,756.2z M243.1,843.7
				c-60.6-32.5-98.4-132.5-98.4-132.5c19.2,32.7,75.5,105.1,95.7,108.5c7.9,1.3,31-18.6,31-18.6C264.3,824.3,252,848.5,243.1,843.7z
				"/>
			<g>
				<g>
					<g>
						<path class="st16" d="M154.1,226c28.6-73.5,37.6-168.6,38.3-226h-17.2c-0.6,59.1-10.9,155.3-39.2,226H154.1z"/>
					</g>
					<g>
						<path class="st16" d="M154.1,226c28.6-73.5,37.6-168.6,38.3-226h-17.2c-0.6,59.1-10.9,155.3-39.2,226H154.1z"/>
					</g>
					<path class="st17" d="M148,226c28.6-73.5,37.6-168.6,38.3-226h-5.9c-0.7,57.4-9.7,155.2-38.3,228.7L148,226z"/>
				</g>
				<path class="st18" d="M466,167.3l-5.4-1.5c-0.4,1.6-44,163.8-97.5,323.9c-96.5,288.8-141.4,320-156.2,320
					c-64.6,0-127-164.4-150.4-227.8l-11.7,4.3c0.4,1.1,1,2.6,1.7,4.5L45,591c2.4,11.2,59.8,274.6,149.7,274.6
					c59.8,0,125.8-117.9,196.1-350.4c51.8-171.3,87.3-344.8,87.6-346.5l-12.2-2.5C466.1,166.5,466,166.9,466,167.3z M194.7,853.2
					c-25.3,0-73.5-53.6-98.9-138.1c38.5,63.6,63.4,110.5,111,110.5c22.9,0,49.1-36.7,82.5-108.3c25.2-54,54-129.2,85.5-223.6
					c24.7-73.9,37.9-116.4,55.1-175.3C375.9,543.8,284.4,853.2,194.7,853.2z"/>
				<ellipse class="st19" cx="477.3" cy="123.9" rx="61" ry="59"/>
				<ellipse class="st20" cx="477.3" cy="123.9" rx="57.7" ry="55.9"/>
				<ellipse class="st21" cx="477.3" cy="123.9" rx="54.1" ry="52.4"/>
				<path class="st22" d="M420.7,123.3c2,30.9,28.2,55.3,60.6,55.3c0.7,0,1.4-0.1,2.1-0.1c-6.9-7.1-14.1-14.1-21.7-20.5
					C447.7,146.5,434.2,134.9,420.7,123.3z"/>
				<path class="st22" d="M441.8,82.7c-3,2.4-5.7,5.1-8.1,8.1c16.8,14.9,33.6,29.2,51,43.7c10.9,9,20.6,19.1,30.2,29.5
					c4.4-3.9,8.3-8.3,11.2-13.4c-6.2-4.1-12.4-8.2-18.7-12.3C483,122.4,462.1,103.1,441.8,82.7z"/>
				<ellipse class="st23" cx="477.3" cy="123.9" rx="34.2" ry="33.1"/>
				<g>
					<path class="st24" d="M40,603.2l28.4-3.2c0,0-27.4-105.6-11.8-168.5c6.4-25.8,62.5-134.4,98.5-202.7c0.5-1,1.2-2,1.8-3
						c-7.8-1.4-15.3-4-22.1-7.7C100,289,51.1,384.9,35.4,394.9c-9.6,6.1-22-18.4-34.9-56.5v59.3c5.4,13.4,9.2,22.9,10.6,27
						C21.6,456.2,40,603.2,40,603.2z"/>
					<path class="st25" d="M51.2,591.5c1.7-0.4,3.5-0.9,5.2-1.4c0.9-0.2,1.7-0.4,2.5-0.6c-6.5-28.3-22-106.8-9.7-157.3
						c6.3-25.8,62.1-134.4,98-202.7c0.9-1.8,1.9-3.4,2.9-5.1c-2.4-0.7-4.8-1.4-7.1-2.4c-4.9,10-9.8,20-14.6,30
						c-11.1,23.1-22,45.8-33,68.1c-9.2,18.5-18.3,36.8-28.5,54.3c-3.4,5.8-12.7,19.5-17.1,24.5C24.6,427.4,8,369,3.7,358.1
						c-1.1-2.9-2.2-5.8-3.2-8.6v15c12.3,32.8,22.2,56.2,24.6,63.5C33.4,453,46.6,554.6,51.2,591.5z"/>
				</g>
			</g>
		</g>
		<g>
			<g>
				
					<ellipse transform="matrix(7.524262e-03 -1 1 7.524262e-03 -733.7944 772.9852)" class="st26" cx="22.5" cy="756.2" rx="16.7" ry="10.7"/>
				
					<ellipse transform="matrix(7.540505e-03 -1 1 7.540505e-03 -733.795 772.9732)" class="st27" cx="22.5" cy="756.2" rx="10.1" ry="6.5"/>
			</g>
			<g>
				
					<ellipse transform="matrix(7.524262e-03 -1 1 7.524262e-03 -853.3292 891.624)" class="st26" cx="22.5" cy="875.7" rx="16.7" ry="10.7"/>
				
					<ellipse transform="matrix(7.540660e-03 -1 1 7.540660e-03 -853.3297 891.6098)" class="st27" cx="22.5" cy="875.7" rx="10.1" ry="6.5"/>
			</g>
		</g>
	</g>
</g>
</svg>
