<?xml version="1.0" encoding="utf-8"?>
<!-- Generator: Adobe Illustrator 21.0.0, SVG Export Plug-In . SVG Version: 6.00 Build 0)  -->
<svg version="1.1" xmlns="http://www.w3.org/2000/svg" xmlns:xlink="http://www.w3.org/1999/xlink" x="0px" y="0px"
	 viewBox="0 0 1202 896" style="enable-background:new 0 0 1202 896;" xml:space="preserve">
<style type="text/css">
	.st0{fill:#1CE1E8;}
	.st1{fill:#FFFFFF;}
	.st2{opacity:0.55;fill:#606060;}
	.st3{fill:#606060;}
	.st4{fill:#FFFFFF;stroke:#D9D9D9;stroke-width:0.5134;stroke-linecap:round;stroke-linejoin:round;stroke-miterlimit:10;}
	.st5{fill:#B1B1B1;}
	.st6{fill:#EDEDED;stroke:#D9D9D9;stroke-width:0.5134;stroke-linecap:round;stroke-linejoin:round;stroke-miterlimit:10;}
	.st7{fill:#454F56;}
	.st8{fill:none;stroke:#454F56;stroke-width:0.1694;stroke-miterlimit:10;}
	.st9{fill:#B7C4CB;}
	.st10{fill:#D6E5ED;}
	.st11{fill:#259CAA;}
	.st12{fill:#083B5A;}
	.st13{fill:none;stroke:#454F56;stroke-width:0.461;stroke-miterlimit:10;}
	.st14{fill:#E09F7A;}
	.st15{fill:#FFCA00;}
	.st16{fill:#F7AC00;}
	.st17{fill:#E3CEC6;}
	.st18{fill:#C77700;}
	.st19{fill:none;stroke:#F7AC00;stroke-width:0.5056;stroke-linecap:round;stroke-linejoin:round;stroke-miterlimit:10;}
	.st20{fill:#DBA585;}
	.st21{fill:#1A232F;}
	.st22{fill:#5A5C5A;}
	.st23{fill:#414D99;}
	.st24{fill:#E6D8D1;}
	.st25{fill:#2C3D54;}
	.st26{fill:#CFC3BC;}
	.st27{fill:#2C323D;}
	.st28{fill:#F3E4DC;}
	.st29{fill:#997761;}
	.st30{fill:#2F386C;}
	.st31{fill:#C99A7D;}
	.st32{fill:#26283A;}
	.st33{fill:#807F7D;}
	.st34{fill:#2E3048;}
	.st35{fill:#D8D6E1;}
	.st36{fill:#232536;}
	.st37{fill:#70A9ED;}
	.st38{fill:#DBA686;}
	.st39{fill:#C1BFC9;}
	.st40{fill:#3E4265;}
	.st41{fill:#DCA787;}
	.st42{fill:#1F2531;}
</style>
<g id="Layer_2">
	<rect y="1.8" class="st0" width="1202" height="896"/>
	<path class="st1" d="M892.6,808.2c67.6-79.2,108.7-183.2,108.7-297c0-248.4-195.2-449.7-436.1-449.7
		c-240.8,0-436.1,201.3-436.1,449.7c0,113.8,41,217.8,108.7,297H892.6z"/>
	<ellipse class="st2" cx="455.8" cy="756.2" rx="84.2" ry="28.9"/>
	<ellipse class="st2" cx="653.1" cy="798" rx="84.2" ry="28.9"/>
</g>
<g id="Layer_3">
	<g>
		<polygon class="st3" points="294.8,360.1 191.2,358.2 201.9,389.4 305.5,391.3 		"/>
		<polygon class="st3" points="304.3,458.4 200.7,456.5 227.1,497.6 330.8,499.5 		"/>
		<polygon class="st3" points="296.1,381.4 203.1,379.7 204.6,384.2 297.8,385.9 		"/>
		<polygon class="st3" points="293.6,374.2 200.9,372.5 202.6,377 295.3,378.7 		"/>
		<polygon class="st3" points="250.8,366.2 199.6,365.3 201,369.8 250.7,370.7 		"/>
		<polygon class="st3" points="304.6,483 247.6,482 250.4,487.2 310.8,488.3 		"/>
		<polygon class="st3" points="298.8,474.7 244,473.7 246.7,478.9 303,479.9 		"/>
		<polygon class="st3" points="271.3,465.9 241.2,465.3 243.6,470.6 273.7,471.1 		"/>
		<g>
			<polygon class="st3" points="318.1,391.5 216.7,389.7 200.7,456.5 304.3,458.4 			"/>
			<polygon class="st3" points="297.3,448.8 213.6,447.3 212.6,451.7 296.4,453.2 			"/>
			<polygon class="st3" points="298.8,441.7 215.3,440.2 214.3,444.6 297.9,446.1 			"/>
			<polygon class="st3" points="261.4,433.9 217,433 215.9,437.5 260.4,438.3 			"/>
			<g>
				<polygon class="st3" points="303.2,420.9 220.2,419.4 217.8,429.6 301.1,431.1 				"/>
			</g>
			<g>
				<path class="st3" d="M300.8,430.7l-82.5-1.5l8.7-36.8l81.5,1.5L300.8,430.7 M301.1,431.1l7.9-37.5l-82.2-1.5l-8.9,37.5
					L301.1,431.1L301.1,431.1z"/>
			</g>
			<line class="st3" x1="221.3" y1="415" x2="304.1" y2="416.5"/>
			<line class="st3" x1="222.3" y1="410.5" x2="305" y2="412"/>
			<line class="st3" x1="223.4" y1="406" x2="306" y2="407.5"/>
			<line class="st3" x1="224.5" y1="401.4" x2="306.9" y2="402.9"/>
			<line class="st3" x1="225.5" y1="396.9" x2="307.9" y2="398.4"/>
			<line class="st3" x1="234.7" y1="392.2" x2="226" y2="429.7"/>
			<line class="st3" x1="283.6" y1="393.1" x2="275.5" y2="430.6"/>
			<line class="st3" x1="296.5" y1="393.3" x2="288.5" y2="430.8"/>
		</g>
	</g>
	<g>
		<polygon class="st3" points="930.9,624.5 827.3,626.4 838,595.2 941.6,593.3 		"/>
		<polygon class="st3" points="940.4,526.2 836.8,528.1 863.2,486.9 966.8,485 		"/>
		<polygon class="st3" points="932.2,603.2 839.2,604.9 840.6,600.4 933.9,598.7 		"/>
		<polygon class="st3" points="929.7,610.4 837,612.1 838.7,607.6 931.4,605.9 		"/>
		<polygon class="st3" points="886.9,618.3 835.7,619.3 837,614.8 886.8,613.9 		"/>
		<polygon class="st3" points="940.7,501.5 883.7,502.6 886.4,497.4 946.9,496.3 		"/>
		<polygon class="st3" points="934.9,509.9 880.1,510.9 882.7,505.7 939.1,504.7 		"/>
		<polygon class="st3" points="907.3,518.7 877.3,519.2 879.7,514 909.8,513.5 		"/>
		<g>
			<polygon class="st3" points="954.2,593.1 852.8,594.9 836.8,528.1 940.4,526.2 			"/>
			<polygon class="st3" points="933.4,535.8 849.7,537.3 848.6,532.8 932.5,531.3 			"/>
			<polygon class="st3" points="934.9,542.9 851.4,544.4 850.3,540 934,538.4 			"/>
			<polygon class="st3" points="897.5,550.7 853.1,551.5 852,547.1 896.5,546.3 			"/>
			<g>
				<polygon class="st3" points="939.2,563.7 856.3,565.2 853.9,555 937.1,553.5 				"/>
			</g>
			<g>
				<path class="st3" d="M936.8,553.9l7.7,36.8l-81.5,1.5l-8.7-36.8L936.8,553.9 M937.1,553.5l-83.2,1.5l8.9,37.5L945,591
					L937.1,553.5L937.1,553.5z"/>
			</g>
			<line class="st3" x1="857.3" y1="569.5" x2="940.2" y2="568"/>
			<line class="st3" x1="858.4" y1="574.1" x2="941.1" y2="572.6"/>
			<line class="st3" x1="859.5" y1="578.6" x2="942" y2="577.1"/>
			<line class="st3" x1="860.5" y1="583.1" x2="943" y2="581.6"/>
			<line class="st3" x1="861.6" y1="587.7" x2="943.9" y2="586.2"/>
			<line class="st3" x1="870.8" y1="592.4" x2="862.1" y2="554.9"/>
			<line class="st3" x1="919.7" y1="591.5" x2="911.5" y2="554"/>
			<line class="st3" x1="932.6" y1="591.3" x2="924.6" y2="553.7"/>
		</g>
	</g>
	<g>
		<polygon class="st4" points="925.2,620.9 821.6,622.7 832.3,591.6 935.9,589.7 		"/>
		<polygon class="st4" points="934.6,522.5 831,524.4 857.5,483.3 961.1,481.4 		"/>
		<polygon class="st5" points="926.5,599.6 833.5,601.3 834.9,596.8 928.2,595.1 		"/>
		<polygon class="st5" points="924,606.8 831.3,608.5 833,603.9 925.7,602.3 		"/>
		<polygon class="st5" points="881.2,614.7 830,615.6 831.3,611.1 881.1,610.2 		"/>
		<polygon class="st5" points="935,497.9 878,498.9 880.7,493.7 941.2,492.6 		"/>
		<polygon class="st5" points="929.2,506.3 874.4,507.3 877,502.1 933.3,501 		"/>
		<polygon class="st5" points="901.6,515 871.5,515.6 873.9,510.4 904.1,509.8 		"/>
		<g>
			<polygon class="st6" points="948.4,589.4 847,591.3 831,524.4 934.6,522.5 			"/>
			<polygon class="st5" points="927.7,532.1 844,533.7 842.9,529.2 926.8,527.7 			"/>
			<polygon class="st5" points="929.2,539.3 845.7,540.8 844.6,536.3 928.2,534.8 			"/>
			<polygon class="st5" points="891.7,547.1 847.3,547.9 846.3,543.4 890.7,542.6 			"/>
			<g>
				<polygon class="st7" points="933.5,560 850.6,561.5 848.2,551.4 931.4,549.9 				"/>
			</g>
			<g>
				<path class="st7" d="M931.1,550.3l7.7,36.8l-81.5,1.5l-8.7-36.8L931.1,550.3 M931.4,549.9l-83.2,1.5l8.9,37.5l82.2-1.5
					L931.4,549.9L931.4,549.9z"/>
			</g>
			<line class="st8" x1="851.6" y1="565.9" x2="934.4" y2="564.4"/>
			<line class="st8" x1="852.7" y1="570.4" x2="935.4" y2="568.9"/>
			<line class="st8" x1="853.7" y1="575" x2="936.3" y2="573.5"/>
			<line class="st8" x1="854.8" y1="579.5" x2="937.3" y2="578"/>
			<line class="st8" x1="855.9" y1="584" x2="938.2" y2="582.5"/>
			<line class="st8" x1="865.1" y1="588.8" x2="856.3" y2="551.2"/>
			<line class="st8" x1="914" y1="587.9" x2="905.8" y2="550.3"/>
			<line class="st8" x1="926.9" y1="587.6" x2="918.9" y2="550.1"/>
		</g>
	</g>
	<g>
		<polygon class="st4" points="286.9,363.7 183.2,361.8 193.9,393 297.5,394.9 		"/>
		<polygon class="st4" points="296.3,462 192.7,460.1 219.2,501.3 322.8,503.2 		"/>
		<polygon class="st5" points="288.2,385 195.2,383.3 196.6,387.8 289.8,389.5 		"/>
		<polygon class="st5" points="285.7,377.8 192.9,376.1 194.6,380.6 287.4,382.3 		"/>
		<polygon class="st5" points="242.8,369.9 191.7,369 193,373.5 242.7,374.4 		"/>
		<polygon class="st5" points="296.6,486.7 239.7,485.6 242.4,490.8 302.9,491.9 		"/>
		<polygon class="st5" points="290.8,478.3 236,477.3 238.7,482.5 295,483.5 		"/>
		<polygon class="st5" points="263.3,469.5 233.2,469 235.6,474.2 265.7,474.7 		"/>
		<g>
			<polygon class="st6" points="310.1,395.1 208.7,393.3 192.7,460.1 296.3,462 			"/>
			<polygon class="st5" points="289.4,452.4 205.7,450.9 204.6,455.4 288.4,456.9 			"/>
			<polygon class="st5" points="290.9,445.3 207.3,443.8 206.3,448.2 289.9,449.8 			"/>
			<polygon class="st5" points="253.4,437.5 209,436.7 208,441.1 252.4,441.9 			"/>
			<g>
				<polygon class="st7" points="295.2,424.5 212.2,423 209.8,433.2 293.1,434.7 				"/>
			</g>
			<g>
				<path class="st7" d="M292.8,434.3l-82.5-1.5l8.7-36.8l81.5,1.5L292.8,434.3 M293.1,434.7l7.9-37.5l-82.2-1.5l-8.9,37.5
					L293.1,434.7L293.1,434.7z"/>
			</g>
			<line class="st8" x1="213.3" y1="418.7" x2="296.1" y2="420.2"/>
			<line class="st8" x1="214.3" y1="414.1" x2="297.1" y2="415.6"/>
			<line class="st8" x1="215.4" y1="409.6" x2="298" y2="411.1"/>
			<line class="st8" x1="216.5" y1="405.1" x2="299" y2="406.6"/>
			<line class="st8" x1="217.6" y1="400.5" x2="299.9" y2="402"/>
			<line class="st8" x1="226.8" y1="395.8" x2="218" y2="433.3"/>
			<line class="st8" x1="275.7" y1="396.7" x2="267.5" y2="434.2"/>
			<line class="st8" x1="288.6" y1="396.9" x2="280.6" y2="434.5"/>
		</g>
	</g>
</g>
<g id="Layer_4">
	<g>
		<g>
			<path class="st3" d="M833.4,451.5c0,6.5-5.2,11.7-11.7,11.7h-438c-6.4,0-11.7-5.2-11.7-11.7V190.7c0-6.4,5.2-11.7,11.7-11.7h438
				c6.5,0,11.7,5.2,11.7,11.7V451.5z"/>
			<path class="st3" d="M342.9,462.6v14.2c0,5.7,15.3,20.5,21.1,20.5h479.4c5.8,0,21.1-14.8,21.1-20.5v-14.2H342.9z"/>
			<path class="st3" d="M356.9,462.6v12.2c0,4.9,14.4,17.6,19.9,17.6h453.8c5.5,0,19.9-12.7,19.9-17.6v-12.2H356.9z"/>
			<path class="st3" d="M828.2,448.9c0,6.2-5.1,11.3-11.4,11.3H388.8c-6.3,0-11.4-5.1-11.4-11.3V197.1c0-6.2,5.1-11.3,11.4-11.3
				h427.9c6.3,0,11.4,5.1,11.4,11.3V448.9z"/>
			<circle class="st3" cx="602.8" cy="200.5" r="5.5"/>
			<rect x="392" y="210.4" class="st3" width="421.6" height="241.5"/>
		</g>
		<rect x="407.3" y="223.3" class="st3" width="396.2" height="217.6"/>
		<rect x="407.3" y="219.6" class="st3" width="396.2" height="20.9"/>
		<g>
			<rect x="639.7" y="337.1" class="st3" width="147" height="9.8"/>
			<rect x="639.7" y="352.7" class="st3" width="147" height="9.8"/>
			<rect x="639.7" y="368.4" class="st3" width="78.3" height="9.8"/>
			<rect x="639.7" y="387.1" class="st3" width="141.3" height="9.8"/>
			<rect x="639.7" y="405.9" class="st3" width="78.3" height="9.8"/>
			<rect x="486.4" y="266.2" class="st3" width="118.3" height="11.3"/>
			<rect x="486.4" y="284.3" class="st3" width="118.3" height="11.3"/>
			<rect x="486.4" y="302.4" class="st3" width="71.4" height="11.3"/>
			<g>
				<rect x="430.2" y="335.3" class="st3" width="183.9" height="22.3"/>
				<g>
					<path class="st3" d="M613.2,336.1v80.9H431v-80.9H613.2 M614.1,335.3H430.2v82.5h183.9V335.3L614.1,335.3z"/>
				</g>
				<line class="st3" x1="430.2" y1="367.2" x2="614.1" y2="367.2"/>
				<line class="st3" x1="430.2" y1="377.2" x2="614.1" y2="377.2"/>
				<line class="st3" x1="430.2" y1="387.1" x2="614.1" y2="387.1"/>
				<line class="st3" x1="430.2" y1="397.1" x2="614.1" y2="397.1"/>
				<line class="st3" x1="430.2" y1="407.1" x2="614.1" y2="407.1"/>
				<line class="st3" x1="448.2" y1="417.8" x2="448.2" y2="335.3"/>
				<line class="st3" x1="557.5" y1="417.8" x2="557.5" y2="335.3"/>
				<line class="st3" x1="586.4" y1="417.8" x2="586.4" y2="335.3"/>
			</g>
		</g>
		<path class="st3" d="M602.8,229.1c0,3.6-2.9,6.5-6.5,6.5H429.8c-3.6,0-6.5-2.9-6.5-6.5l0,0c0-3.6,2.9-6.5,6.5-6.5h166.5
			C599.9,222.7,602.8,225.6,602.8,229.1L602.8,229.1z"/>
		<circle class="st3" cx="754.8" cy="230.1" r="6.1"/>
		<circle class="st3" cx="772" cy="230.1" r="6.1"/>
		<circle class="st3" cx="789.2" cy="230.1" r="6.1"/>
	</g>
	<g>
		<g>
			<path class="st9" d="M823.1,452.5c0,6.5-5.2,11.7-11.7,11.7h-438c-6.4,0-11.7-5.2-11.7-11.7V191.7c0-6.4,5.2-11.7,11.7-11.7h438
				c6.5,0,11.7,5.2,11.7,11.7V452.5z"/>
			<path class="st9" d="M332.6,463.7v14.2c0,5.7,15.3,20.5,21.1,20.5h479.4c5.8,0,21.1-14.8,21.1-20.5v-14.2H332.6z"/>
			<path class="st10" d="M346.6,463.7v12.2c0,4.9,14.4,17.6,19.9,17.6h453.8c5.5,0,19.9-12.7,19.9-17.6v-12.2H346.6z"/>
			<path class="st10" d="M817.8,450c0,6.2-5.1,11.3-11.4,11.3H378.5c-6.3,0-11.4-5.1-11.4-11.3V198.2c0-6.2,5.1-11.3,11.4-11.3
				h427.9c6.3,0,11.4,5.1,11.4,11.3V450z"/>
			<circle class="st9" cx="592.5" cy="201.6" r="5.5"/>
			<rect x="381.6" y="211.4" class="st11" width="421.6" height="241.5"/>
		</g>
		<rect x="397" y="224.3" class="st1" width="396.2" height="217.6"/>
		<rect x="397" y="220.6" class="st12" width="396.2" height="20.9"/>
		<g>
			<rect x="629.4" y="338.1" class="st5" width="147" height="9.8"/>
			<rect x="629.4" y="353.8" class="st5" width="147" height="9.8"/>
			<rect x="629.4" y="369.4" class="st5" width="78.3" height="9.8"/>
			<rect x="629.4" y="388.2" class="st5" width="141.3" height="9.8"/>
			<rect x="629.4" y="407" class="st5" width="78.3" height="9.8"/>
			<rect x="476.1" y="267.2" class="st5" width="118.3" height="11.3"/>
			<rect x="476.1" y="285.3" class="st5" width="118.3" height="11.3"/>
			<rect x="476.1" y="303.4" class="st5" width="71.4" height="11.3"/>
			<g>
				<rect x="419.8" y="336.3" class="st7" width="183.9" height="22.3"/>
				<g>
					<path class="st7" d="M602.9,337.2V418H420.6v-80.9H602.9 M603.7,336.3H419.8v82.5h183.9V336.3L603.7,336.3z"/>
				</g>
				<line class="st13" x1="419.8" y1="368.3" x2="603.7" y2="368.3"/>
				<line class="st13" x1="419.8" y1="378.2" x2="603.7" y2="378.2"/>
				<line class="st13" x1="419.8" y1="388.2" x2="603.7" y2="388.2"/>
				<line class="st13" x1="419.8" y1="398.2" x2="603.7" y2="398.2"/>
				<line class="st13" x1="419.8" y1="408.1" x2="603.7" y2="408.1"/>
				<line class="st13" x1="437.9" y1="418.8" x2="437.9" y2="336.3"/>
				<line class="st13" x1="547.2" y1="418.8" x2="547.2" y2="336.3"/>
				<line class="st13" x1="576.1" y1="418.8" x2="576.1" y2="336.3"/>
			</g>
		</g>
		<path class="st1" d="M592.5,230.2c0,3.6-2.9,6.5-6.5,6.5H419.4c-3.6,0-6.5-2.9-6.5-6.5l0,0c0-3.6,2.9-6.5,6.5-6.5H586
			C589.6,223.7,592.5,226.6,592.5,230.2L592.5,230.2z"/>
		<circle class="st1" cx="744.5" cy="231.1" r="6.1"/>
		<circle class="st1" cx="761.7" cy="231.1" r="6.1"/>
		<circle class="st1" cx="778.9" cy="231.1" r="6.1"/>
	</g>
	<g>
		<path class="st14" d="M760.9,303.9c0,0-2.6-5.6-11.3-9.8c-2.2-1.1-5.2,1.9-1.5,3.7c1.8,0.9,2.4,2.5,1.5,2.2
			c-7.2-2.7-9.4-5.4-12.4-3.9c-3,1.5-3.1,9.9,2.5,12.3c5.7,2.4,19.1,3.5,19.1,3.5L760.9,303.9z"/>
		
			<ellipse transform="matrix(7.591161e-02 -0.9971 0.9971 7.591161e-02 401.0527 1008.2598)" class="st15" cx="744.5" cy="287.8" rx="28.3" ry="28.3"/>
		
			<ellipse transform="matrix(7.590934e-02 -0.9971 0.9971 7.590934e-02 401.0546 1008.2612)" class="st16" cx="744.5" cy="287.8" rx="24.1" ry="24.1"/>
		<path class="st17" d="M744.9,310.2c-13.2-1-23.2-12.6-22.2-25.8c0.5-6.9,3.9-12.9,9-17c-6.2,3.9-10.6,10.6-11.2,18.5
			c-1,13.2,8.9,24.8,22.2,25.8c6.3,0.5,12.2-1.5,16.8-5.2C755.3,309.2,750.2,310.6,744.9,310.2z"/>
		<g>
			<path class="st18" d="M748.2,269.8l-0.2,2.1c1.4,0.3,2.6,0.6,3.6,1.2c1,0.5,1.8,1.2,2.5,2.2c0.5,0.7,0.9,1.5,1.2,2.2
				c0.3,0.7,0.4,1.4,0.3,2c-0.1,0.7-0.3,1.2-0.9,1.7c-0.5,0.4-1.1,0.6-1.8,0.6c-1.3-0.1-2.1-0.9-2.4-2.3c-0.3-1.7-1.3-2.9-2.9-3.5
				l-0.6,8.3c1.6,0.6,2.9,1.1,3.8,1.5c0.9,0.4,1.8,1,2.5,1.8c0.8,0.8,1.3,1.7,1.7,2.8c0.4,1,0.5,2.2,0.4,3.4
				c-0.1,1.5-0.6,2.9-1.4,4.2c-0.8,1.3-1.9,2.3-3.4,3c-1.4,0.7-3.1,1.1-5,1.1l-0.4,4.9c-0.1,0.8-0.2,1.3-0.4,1.7
				c-0.2,0.3-0.5,0.5-1,0.5c-0.5,0-0.8-0.2-1-0.5c-0.2-0.3-0.2-0.8-0.2-1.4l0.4-5.4c-1.5-0.3-2.9-0.8-4-1.4c-1.1-0.6-2-1.4-2.7-2.3
				c-0.7-0.9-1.2-1.8-1.5-2.7c-0.3-0.9-0.4-1.8-0.4-2.7c0-0.6,0.3-1.2,0.9-1.7c0.5-0.5,1.2-0.7,1.9-0.6c0.6,0,1.1,0.2,1.5,0.5
				c0.4,0.3,0.6,0.7,0.8,1.2c0.3,1.1,0.5,2,0.7,2.6c0.2,0.6,0.6,1.2,1.1,1.7c0.5,0.5,1.2,0.9,2,1.3l0.7-9.2c-1.7-0.6-3.2-1.3-4.3-2
				c-1.1-0.7-2-1.6-2.7-2.8c-0.7-1.2-0.9-2.6-0.8-4.4c0.2-2.3,1-4.1,2.6-5.4c1.6-1.3,3.7-2,6.5-2.1l0.2-2.1c0.1-1.1,0.5-1.6,1.4-1.6
				C747.9,268.1,748.3,268.7,748.2,269.8z M744.6,283.2l0.6-7.6c-1.1,0.2-2,0.6-2.7,1.1c-0.7,0.5-1,1.3-1.1,2.4
				c-0.1,1,0.1,1.9,0.7,2.4C742.6,282.1,743.5,282.7,744.6,283.2z M746.7,289.3l-0.7,8.7c1.4-0.2,2.4-0.6,3.2-1.4
				c0.8-0.8,1.2-1.7,1.3-2.7c0.1-1.2-0.2-2.1-0.9-2.8C749.1,290.4,748.1,289.8,746.7,289.3z"/>
		</g>
		<line class="st19" x1="742.4" y1="315.5" x2="742.6" y2="312.3"/>
		<line class="st19" x1="716.8" y1="285.7" x2="720" y2="286"/>
		<line class="st19" x1="731.6" y1="312.4" x2="733.1" y2="309.6"/>
		<line class="st19" x1="719.9" y1="275" x2="722.7" y2="276.4"/>
		<line class="st19" x1="737.4" y1="314.6" x2="738.2" y2="311.6"/>
		<line class="st19" x1="717.7" y1="280.7" x2="720.7" y2="281.5"/>
		<line class="st19" x1="747.4" y1="312.2" x2="747.8" y2="315.3"/>
		<line class="st19" x1="727.4" y1="309.6" x2="729.3" y2="307.2"/>
		<line class="st19" x1="722.7" y1="270.7" x2="725.2" y2="272.7"/>
	</g>
	<g>
		<path class="st14" d="M679.3,303.9c0,0-2.6-5.6-11.3-9.8c-2.2-1.1-5.2,1.9-1.5,3.7c1.8,0.9,2.4,2.5,1.5,2.2
			c-7.2-2.7-9.4-5.4-12.4-3.9c-3,1.5-3.1,9.9,2.5,12.3c5.7,2.4,19.1,3.5,19.1,3.5L679.3,303.9z"/>
		
			<ellipse transform="matrix(7.591161e-02 -0.9971 0.9971 7.591161e-02 325.6786 926.998)" class="st15" cx="663" cy="287.8" rx="28.3" ry="28.3"/>
		
			<ellipse transform="matrix(7.590934e-02 -0.9971 0.9971 7.590934e-02 325.6803 926.9995)" class="st16" cx="663" cy="287.8" rx="24.1" ry="24.1"/>
		<path class="st17" d="M663.4,310.2c-13.2-1-23.2-12.6-22.2-25.8c0.5-6.9,3.9-12.9,9-17c-6.2,3.9-10.6,10.6-11.2,18.5
			c-1,13.2,8.9,24.8,22.2,25.8c6.3,0.5,12.2-1.5,16.8-5.2C673.8,309.2,668.7,310.6,663.4,310.2z"/>
		<g>
			<path class="st18" d="M666.7,269.8l-0.2,2.1c1.4,0.3,2.6,0.6,3.6,1.2c1,0.5,1.8,1.2,2.5,2.2c0.5,0.7,0.9,1.5,1.2,2.2
				c0.3,0.7,0.4,1.4,0.3,2c-0.1,0.7-0.3,1.2-0.9,1.7c-0.5,0.4-1.1,0.6-1.8,0.6c-1.3-0.1-2.1-0.9-2.4-2.3c-0.3-1.7-1.3-2.9-2.9-3.5
				l-0.6,8.3c1.6,0.6,2.9,1.1,3.8,1.5c0.9,0.4,1.8,1,2.5,1.8c0.8,0.8,1.3,1.7,1.7,2.8c0.4,1,0.5,2.2,0.4,3.4
				c-0.1,1.5-0.6,2.9-1.4,4.2c-0.8,1.3-1.9,2.3-3.4,3c-1.4,0.7-3.1,1.1-5,1.1l-0.4,4.9c-0.1,0.8-0.2,1.3-0.4,1.7
				c-0.2,0.3-0.5,0.5-1,0.5c-0.5,0-0.8-0.2-1-0.5c-0.2-0.3-0.2-0.8-0.2-1.4l0.4-5.4c-1.5-0.3-2.9-0.8-4-1.4c-1.1-0.6-2-1.4-2.7-2.3
				c-0.7-0.9-1.2-1.8-1.5-2.7c-0.3-0.9-0.4-1.8-0.4-2.7c0-0.6,0.3-1.2,0.9-1.7c0.5-0.5,1.2-0.7,1.9-0.6c0.6,0,1.1,0.2,1.5,0.5
				c0.4,0.3,0.6,0.7,0.8,1.2c0.3,1.1,0.5,2,0.7,2.6c0.2,0.6,0.6,1.2,1.1,1.7c0.5,0.5,1.2,0.9,2,1.3l0.7-9.2c-1.7-0.6-3.2-1.3-4.3-2
				c-1.1-0.7-2-1.6-2.7-2.8c-0.7-1.2-0.9-2.6-0.8-4.4c0.2-2.3,1-4.1,2.6-5.4c1.6-1.3,3.7-2,6.5-2.1l0.2-2.1c0.1-1.1,0.5-1.6,1.4-1.6
				C666.4,268.1,666.8,268.7,666.7,269.8z M663.1,283.2l0.6-7.6c-1.1,0.2-2,0.6-2.7,1.1c-0.7,0.5-1,1.3-1.1,2.4
				c-0.1,1,0.1,1.9,0.7,2.4C661.1,282.1,662,282.7,663.1,283.2z M665.2,289.3l-0.7,8.7c1.4-0.2,2.4-0.6,3.2-1.4
				c0.8-0.8,1.2-1.7,1.3-2.7c0.1-1.2-0.2-2.1-0.9-2.8C667.5,290.5,666.5,289.8,665.2,289.3z"/>
		</g>
		<line class="st19" x1="660.9" y1="315.5" x2="661.1" y2="312.4"/>
		<line class="st19" x1="635.3" y1="285.7" x2="638.5" y2="286"/>
		<line class="st19" x1="650.1" y1="312.4" x2="651.6" y2="309.6"/>
		<line class="st19" x1="638.4" y1="275" x2="641.2" y2="276.5"/>
		<line class="st19" x1="655.9" y1="314.7" x2="656.7" y2="311.6"/>
		<line class="st19" x1="636.2" y1="280.7" x2="639.2" y2="281.6"/>
		<line class="st19" x1="665.9" y1="312.3" x2="666.3" y2="315.4"/>
		<line class="st19" x1="645.8" y1="309.7" x2="647.8" y2="307.2"/>
		<line class="st19" x1="641.1" y1="270.7" x2="643.6" y2="272.7"/>
	</g>
	<g>
		<path class="st14" d="M461.7,305.8c0,0-2.6-5.6-11.3-9.8c-2.2-1.1-5.2,1.9-1.5,3.7c1.8,0.9,2.4,2.5,1.5,2.2
			c-7.2-2.7-9.4-5.4-12.4-3.9c-3,1.5-3.1,9.9,2.5,12.3c5.7,2.4,19.1,3.5,19.1,3.5L461.7,305.8z"/>
		
			<ellipse transform="matrix(7.591161e-02 -0.9971 0.9971 7.591161e-02 122.7535 711.6472)" class="st15" cx="445.3" cy="289.6" rx="28.3" ry="28.3"/>
		
			<ellipse transform="matrix(7.590934e-02 -0.9971 0.9971 7.590934e-02 122.7547 711.6485)" class="st16" cx="445.3" cy="289.6" rx="24.1" ry="24.1"/>
		<path class="st17" d="M445.7,312c-13.2-1-23.2-12.6-22.2-25.8c0.5-6.9,3.9-12.9,9-17c-6.2,3.9-10.6,10.6-11.2,18.5
			c-1,13.2,8.9,24.8,22.2,25.8c6.3,0.5,12.2-1.5,16.8-5.2C456.1,311,451.1,312.4,445.7,312z"/>
		<g>
			<path class="st18" d="M449,271.6l-0.2,2.1c1.4,0.3,2.6,0.6,3.6,1.2c1,0.5,1.8,1.2,2.5,2.2c0.5,0.7,0.9,1.5,1.2,2.2
				c0.3,0.7,0.4,1.4,0.3,2c-0.1,0.7-0.3,1.2-0.9,1.7c-0.5,0.4-1.1,0.6-1.8,0.6c-1.3-0.1-2.1-0.9-2.4-2.3c-0.3-1.7-1.3-2.9-2.9-3.5
				l-0.6,8.3c1.6,0.6,2.9,1.1,3.8,1.5c0.9,0.4,1.8,1,2.5,1.8c0.8,0.8,1.3,1.7,1.7,2.8c0.4,1,0.5,2.2,0.4,3.4
				c-0.1,1.5-0.6,2.9-1.4,4.2c-0.8,1.3-1.9,2.3-3.4,3c-1.4,0.7-3.1,1.1-5,1.1l-0.4,4.9c-0.1,0.8-0.2,1.3-0.4,1.7
				c-0.2,0.3-0.5,0.5-1,0.5c-0.5,0-0.8-0.2-1-0.5c-0.2-0.3-0.2-0.8-0.2-1.4l0.4-5.4c-1.5-0.3-2.9-0.8-4-1.4c-1.1-0.6-2-1.4-2.7-2.3
				c-0.7-0.9-1.2-1.8-1.5-2.7c-0.3-0.9-0.4-1.8-0.4-2.7c0-0.6,0.3-1.2,0.9-1.7c0.5-0.5,1.2-0.7,1.9-0.6c0.6,0,1.1,0.2,1.5,0.5
				c0.4,0.3,0.6,0.7,0.8,1.2c0.3,1.1,0.5,2,0.7,2.6c0.2,0.6,0.6,1.2,1.1,1.7c0.5,0.5,1.2,0.9,2,1.3l0.7-9.2c-1.7-0.6-3.2-1.3-4.3-2
				c-1.1-0.7-2-1.6-2.7-2.8c-0.7-1.2-0.9-2.6-0.8-4.4c0.2-2.3,1-4.1,2.6-5.4c1.6-1.3,3.7-2,6.5-2.1l0.2-2.1c0.1-1.1,0.5-1.6,1.4-1.6
				C448.7,269.9,449.1,270.5,449,271.6z M445.5,285l0.6-7.6c-1.1,0.2-2,0.6-2.7,1.1c-0.7,0.5-1,1.3-1.1,2.4c-0.1,1,0.1,1.9,0.7,2.4
				C443.5,283.9,444.3,284.5,445.5,285z M447.5,291.1l-0.7,8.7c1.4-0.2,2.4-0.6,3.2-1.4c0.8-0.8,1.2-1.7,1.3-2.7
				c0.1-1.2-0.2-2.1-0.9-2.8C449.9,292.3,448.9,291.7,447.5,291.1z"/>
		</g>
		<line class="st19" x1="443.2" y1="317.3" x2="443.4" y2="314.2"/>
		<line class="st19" x1="417.7" y1="287.6" x2="420.8" y2="287.8"/>
		<line class="st19" x1="432.5" y1="314.2" x2="433.9" y2="311.4"/>
		<line class="st19" x1="420.7" y1="276.8" x2="423.5" y2="278.3"/>
		<line class="st19" x1="438.2" y1="316.5" x2="439" y2="313.4"/>
		<line class="st19" x1="418.5" y1="282.5" x2="421.6" y2="283.4"/>
		<line class="st19" x1="448.3" y1="314.1" x2="448.6" y2="317.2"/>
		<line class="st19" x1="428.2" y1="311.5" x2="430.1" y2="309"/>
		<line class="st19" x1="423.5" y1="272.5" x2="426" y2="274.5"/>
	</g>
</g>
<g id="Layer_1">
	<g>
		<g>
			<g>
				<g>
					<path class="st20" d="M506.9,595.8c0,0,1.4,1.4,1.9,2.7c0.4,1,1.7,2.4,2.3,3.1c0.6,0.8,2.9,4.4,3.3,5.4c0.1,0.4,0,3.2,0.3,4
						c0.4,0.8,1.3,2.3,0.6,2.6c-0.7,0.3-2-0.9-2-0.9s0.3,0.8-0.3,1.2c-1.1,0.9-1.9,0.5-1.9,0.5s-0.2,1-0.8,1.2
						c-1.2,0.6-1.9,0.2-1.9,0.2s-0.4,0.6-1.3,0.8c-1.1,0.2-1.9-0.6-1.9-0.6s-1.3,0.6-1.9,0.1c-0.6-0.6-0.7-1.3-1.1-1.8
						c-0.3-0.6-1.7-6-1-10.3c0.7-4.3-2.6-7.5-2.6-7.5L506.9,595.8z"/>
				</g>
			</g>
		</g>
		<g>
			<path class="st21" d="M518.8,628.9h-18.6c-1.9,0-3.4-1.5-3.4-3.4v-11.7c0-1.9,1.5-3.4,3.4-3.4h18.6c1.9,0,3.4,1.5,3.4,3.4v11.7
				C522.2,627.4,520.7,628.9,518.8,628.9z M500.2,612.6c-0.6,0-1.1,0.5-1.1,1.1v11.7c0,0.6,0.5,1.1,1.1,1.1h18.6
				c0.6,0,1.1-0.5,1.1-1.1v-11.7c0-0.6-0.5-1.1-1.1-1.1H500.2z"/>
		</g>
		<g>
			<rect x="474.6" y="623.9" class="st22" width="69.8" height="50"/>
		</g>
		<g>
			<path class="st20" d="M479.9,490c0,0-3.6,0.1-5.1,10.7c-1.5,10.7,1.4,15.2,1.7,19.6c0.3,4.4,5.6,33.2,5.7,34.5
				c0.1,1.3,0.8,16.6,2.9,20.6c2,4.1,17,27.1,17.2,28.2c0.2,1.1,7.3-4,7.3-4s-11.8-24.6-12.4-27.4c-0.7-2.8-5.4-17.1-4.7-21.5
				c0.7-4.4-2.1-28.5-1.8-31.2C490.9,516.9,486.7,491.7,479.9,490z"/>
		</g>
		<g>
			<path class="st23" d="M479.9,490c0,0-3.6,0.1-5.1,10.7c-1.5,10.7-0.1,14.5,0.8,19.2c0.9,4.4,3.8,31.1,4,32.4
				c0.1,1.3,3.7,17.4,5.5,23.1c1.4,4.3,14.7,26.9,14.9,28.1c0.2,1.1,10.4-5.3,10.4-5.3s-13-25.4-13.7-28.3c-0.7-2.8-2.9-12.5-3-17
				c-0.1-5.2-3.4-30.8-3.1-33.5C490.9,516.9,489.8,493.7,479.9,490z"/>
		</g>
		<path class="st24" d="M450,739.4c0,0,6.2,9.2,8.7,11.5c0,0,5.8,2,6.1,5.9c0.2,2.6,0,6.7-6.6,6.9c-6.6,0.2-10.8-2.1-12-6.1
			c-1.2-4-3.5-5.8-3.5-5.8v8.4h-1.5c0,0-0.4-8.1-0.5-9.6c-0.1-1.5-1.1-7.2,2.1-9.7C446,738.3,450,739.4,450,739.4z"/>
		<path class="st24" d="M492.2,732c0,0,1.1,2.5,3.1,5.2c1.5,1.9,6.1,9.9,8.2,10.5c2,0.6,8.4,1.7,8.9,5.2c0.6,3.5,0.8,6-5.4,6.3
			c-6.2,0.3-10.3,0.7-13.3-3.7c-3-4.4-7.7-7.5-7.7-7.5v11.4h-2.4c0,0-1.1-11.9-1.8-12.7c-0.7-0.8-2.3-9.9,3.4-14.7
			C491,727.2,492.2,732,492.2,732z"/>
		<path class="st20" d="M445.8,560.9c0,0-7.9,10.2-10,22.3c-2.1,12.1,1.3,52.8,1.2,58.8c-0.1,6-5.7,20.9-4.6,32.2
			c1.1,11.3,10.4,66.6,10.4,66.6l7.1-1.5c0,0-0.7-57.3,0-62c0.7-4.7,2.1-22,2.4-24c0.3-2,17.7-53.2,17.7-61.9
			C470,582.7,464.7,546.6,445.8,560.9z"/>
		<path class="st20" d="M485.3,564.9c0,0,12.9,49.3,14.4,56.1c1.5,6.8,3.8,12.5,3.8,15.4c0,6.7-2.5,17.5-2.5,17.5l-8.8,78.1h-6.9
			c0,0-4.4-45.6-5.1-54.8c-0.7-9.2,5-23.4,3.6-27.3c-1.4-3.9-22.4-48.9-22.4-48.9S445.5,550.6,485.3,564.9z"/>
		<path class="st20" d="M459.8,751.3c0,0-5.4,2.8-10.3-0.9c-4.9-3.7-6.6-9.6-6.6-9.6l7.1-1.5L459.8,751.3z"/>
		<path class="st20" d="M503.5,747.7c0,0-5.6,1.4-7.7,0c-2.1-1.4-9.4-13.7-11.8-14.4c0,0,2.3-4.7,8.2-1.3
			C492.2,732,501.9,745.6,503.5,747.7z"/>
		<path class="st25" d="M501.8,628.9c0,0-23.7,14-68.2,14c0,0-2.5-51.6,3.9-66.1c6.5-14.5,49.4-5.5,49.4-5.5
			S500.3,618.2,501.8,628.9z"/>
		<g>
			<path class="st24" d="M469.4,486.2c0,0,6.9,3.3,9.3,3.7c2.4,0.5,11.7,12.6,13.3,17c1.6,4.4,0,11-3.4,18.8
				c-3.4,7.8-0.2,10.3-1.7,18.1c-1.5,7.8-2.9,24.2-2.6,28.5c0.3,4.3-38.8,5.1-47.7-2.7c0,0,9-13.4,10.1-15.3
				c1.1-1.9,0.2-12.4-0.9-15c-1.1-2.7-8.1-25.5-8.1-25.5s-5.7-17.5-0.6-21.5c4.5-3.5,16.8-4.7,19-5.5
				C458.5,485.8,464.9,485.5,469.4,486.2z"/>
		</g>
		<g>
			<path class="st26" d="M471.6,501.6l4.2-4.9l-3.6-12.9C472.1,483.7,470.9,490.9,471.6,501.6z"/>
		</g>
		<g>
			<path class="st20" d="M460.7,437.2c4.1-1.4,19.2-5,22.7,14.3c3.5,19.3-7.1,33-16.9,29.3c-9.8-3.6-15.8-17-16.4-27.1
				C449.6,443.6,455.5,439.1,460.7,437.2z"/>
		</g>
		<g>
			<path class="st27" d="M483.4,451.5c0,0,0.7-16.5-15.6-17.1c-16.4-0.6-20.8,12.9-19.4,22.7c1.3,9.8,8.1,15,8.1,15s-0.6-8,2.6-10
				c3.2-2.1,15.9-6.2,21.5-15.8C480.5,446.4,483.1,449.5,483.4,451.5z"/>
		</g>
		<g>
			
				<ellipse transform="matrix(0.3125 -0.9499 0.9499 0.3125 -112.8503 736.7586)" class="st27" cx="452.6" cy="446.3" rx="12.5" ry="10.9"/>
		</g>
		<g>
			<path class="st20" d="M472.7,478.2c0,0-1.4,12.7-1.1,16.8c0,0-7.2,7.2-15.3-8.4c0,0,3.4-6.4,0.8-15.2
				C454.5,462.7,472.7,478.2,472.7,478.2z"/>
		</g>
		<g>
			<polygon class="st20" points="471.6,495 471.6,501.6 463.3,495.4 			"/>
		</g>
		<g>
			<polygon class="st26" points="471.6,501.6 468.2,497.3 456.6,485.8 452.9,489.4 			"/>
		</g>
		<g>
			<path class="st23" d="M455,486.9c0,0,9.7,14.7,10.1,21.2c0.5,6.5-3.6,54.8-6.8,70.4c-3.3,15.5-26.7-1.8-26.7-1.8
				s15.8-25.6,9.7-46c-6.1-20.5-8.3-28.6-8.3-28.6s2.1-11.4,9.5-13C449,487.7,455,486.9,455,486.9z"/>
		</g>
		<g>
			<path class="st23" d="M492.6,508.8c0,0,1.7,6.2-5.1,19.8c0,0,0.1,17.5,0.3,22.9c0.2,5.5,1.5,26.1,1.5,26.1l-6.7,3.9
				c-1.4,0.8-3-0.3-2.8-1.9c1.9-15.7,8.1-75.3-5.3-91.3l5.4,1.6C479.9,490,489.4,497.9,492.6,508.8z"/>
		</g>
		<g>
			<path class="st20" d="M460.6,458.7c-0.6-1.5-2.6-1.9-3.7-1.1c-1.1,0.9-1.8,3.4,0,6.8C458.7,467.8,465.2,470.1,460.6,458.7z"/>
		</g>
		<g>
			<polygon class="st28" points="475.8,496.7 481.1,498.1 472.1,483.7 			"/>
		</g>
		<g>
			<polygon class="st28" points="468.2,497.3 463.3,503.6 453.4,487.1 456.6,485.8 			"/>
		</g>
		<g>
			<path class="st29" d="M472.4,481l-0.2,2.5c0,0-5.7,1.1-13.2-8C459,475.5,464.3,482,472.4,481z"/>
		</g>
		<g>
			<g>
				<g>
					<path class="st20" d="M501.7,558.5c0,0,3.4,2.2,5.3,1c1.6-1,4.5-1.2,5.4-1.2c1.2-0.1,4.7-1.6,4.8-0.1c0.1,1.5-5.7,2.8-6.9,3.3
						c-1.2,0.5,4,3,4.5,4.2c0.6,1.2-4,9.4-7.4,7.3c-3.3-2.1-5.5-6.6-6.1-6.8c-0.7-0.3-2.5-1.5-2.5-1.5L501.7,558.5z"/>
				</g>
			</g>
		</g>
		<g>
			<path class="st20" d="M438.1,491.4c0,0,4.7-1.2,8.7,3.2c4,4.3,6,11.4,7.1,13.7c1.1,2.3,14.4,23.6,15.1,24
				c0.8,0.5,14.3,11.4,20.4,17.2c6.1,5.8,18.1,12.4,18.1,12.4l-4.5,6.3c0,0-36.3-19.4-40.9-26.4c-4.6-7.1-23-26.7-23-26.7
				S428.2,498.5,438.1,491.4z"/>
		</g>
		<g>
			<g>
				<g>
					<path class="st20" d="M514.2,565c0,0,9.7,7.2,10,8.2c0.2,1-0.2,1.5-1.1,0.9c-0.9-0.6-9.6-6.7-9.6-6.7s10.1,10.4,10.5,11.2
						c0.2,0.5-0.5,1.5-1.1,1.2c-0.5-0.3-11.1-10.1-11.1-10.1s9.4,9.8,9.5,10.5c0.1,0.7-0.8,1.4-1.6,0.8c-0.7-0.7-10-9.2-10-9.2
						s6.4,7.5,6.1,8.2c-0.2,0.4-0.8,1.3-2.4-0.7c-1.6-2-5.8-6.3-5.8-6.3L514.2,565z"/>
				</g>
			</g>
		</g>
		<path class="st30" d="M489.2,525.3c0,0,0.3,21.8-1,32.3l-0.6-28.9L489.2,525.3z"/>
		<g>
			<path class="st23" d="M440.5,489.8c0,0,2.6,0.4,6.7,4.8c4,4.3,6,11.4,7.1,13.7c1.1,2.3,14.4,23.6,15.1,24
				c0.8,0.5,11.9,8.1,18,13.9c6.1,5.8,17.5,12.8,17.5,12.8l-5.9,8.7c0,0-32-17.7-37.1-24.5c-5.4-7.2-24.8-28.4-24.8-28.4
				S424.6,495.6,440.5,489.8z"/>
		</g>
		<g>
			<g>
				<path class="st31" d="M513.5,612.2c0,0-1.2-4.9-2.8-5.6c-1.6-0.7-1.2,1.1-1.2,1.1s-0.3-1.8-1.8-1.7c-1.5,0.1-0.9,2.2-0.9,2.2
					s-0.6-1.3-2-0.7c-1.4,0.6-0.6,2.2-0.6,2.2s-1.9-1.3-2.3,0.5c-0.8,3.1,1.5,5.9,1.5,5.9s0.7,0.7,2,0c0,0,1.5,1.7,3.2-0.2
					c0,0,2.5,0.7,2.7-1.4C511.4,614.5,514.2,615,513.5,612.2z"/>
			</g>
		</g>
		<path class="st30" d="M462.3,548.3l-11-17.7c0,0,9.3,11,10.3,12.2c1,1.2,1.1,1.3,1.1,1.3S462.4,547.7,462.3,548.3z"/>
	</g>
	<g>
		<path class="st32" d="M676.6,787c0,0,2.5,4.7,4.2,6.6c1.7,1.9,8,5.2,8,10.8c0,6-10.7,4.4-14.9,4.1c-4.2-0.2-4.5-3.4-6.3-6.9
			c-1.8-3.4-3.5-2.8-3.9-5.6c-0.3-2.8,1.7-9.1,1.7-9.1H676.6z"/>
		<g>
			<path class="st32" d="M612.8,786.5c0,0-5.2,5.8-10.4,7c-5.2,1.2-8.9,2.7-9,6.1c0,3.3,15.1,5.5,21.1,2.2c9-5,9.9-3.5,10.9-6
				c1-2.5-1.2-9.1-1.1-9.9C624.3,784.8,612.8,786.5,612.8,786.5z"/>
		</g>
		<g>
			<path class="st33" d="M613.3,783.7c0,0-0.7,2.7-0.6,2.8c0.1,0.1,11.8,1.5,11.5-0.7c-0.3-1.8-0.7-3.7-0.7-3.7L613.3,783.7z"/>
		</g>
		<g>
			<path class="st33" d="M665.6,785.2c0,0-0.5,2.6-0.4,2.6c0.1,0.1,11.9,2.2,11.8,0c-0.1-1.7-1.1-3.7-1.1-3.7L665.6,785.2z"/>
		</g>
		<g>
			<path class="st34" d="M624,621.9c0,0-4.3,41.4-6.5,55.6c-2.6,16.6-3.5,30.3-4.2,38.8c-0.9,10.8-1.1,63.8-1.7,67
				c-0.6,3.2,14.1,0.9,14.1,0.9s7.3-69.3,10-80.8c2.5-10.7,11.9-56.7,14.2-53.8c2.3,2.9,5.2,53.7,6.9,62.2
				c1.7,8.4,6.9,74.5,6.9,74.5s11.7,2.3,14.9-0.3c0,0,1.4-56.9,0.3-72.7c-0.4-6,7.1-72.3-2.5-98.9C671.2,600.2,624,621.9,624,621.9z
				"/>
		</g>
		<g>
			<path class="st35" d="M662.3,612.8c0,0-2.8-4.3-5.9-4.9c-3-0.6,41.5-22.1,41.4-29.7c-0.1-6.2-15.6-17.7-15.6-17.7s0,0,0,0
				c0,0,0-0.1,0-0.1c0,0,0,0,0,0c-0.3,1.2-5.4,19.6-5.6,27.8c-0.2,8.5,0.5,37.8,0.5,37.8l-11.4,3.1l-36.4,0.3L621,626
				c0,0,0.9-9.4,1.2-16c0.2-4.2,1-11.7,0.8-19.1c0,0,0.1-7.7-0.6-11.1c-0.1-14.7-1-29.2-1-29.2c-0.5-6.7-0.8-12.9-1-18.7
				c1.6-0.8,3.5-1.8,5.1-2.6c4.8-2.3,11.5-5.3,15.7-7.3c2.5-1.1,5-2,5-2s17.1-1.6,18.5-1.6c0.4,0,2.6,0.8,5.4,1.8
				c6.1,2.3,17.8,7,19.6,8.3c2.7,2,20.6,49.2,20.9,52.5C711,587,662.3,612.8,662.3,612.8z"/>
		</g>
		<path class="st36" d="M622.1,622.9c0,0,25,2.1,46.9,0v7.2c0,0-32.6,3.1-48-1.4L622.1,622.9z"/>
		<g>
			<path class="st37" d="M620,531.8c0.2,5.9,0.5,12.2,1,19c0,0,0.5,16.6,1.4,32.3c0.3,2.3,0.5,4.6,0.3,6.9c-0.2,3.1-0.6,6.4-1,9.9
				c0,0,0,0.1,0,0.1c-0.1,0.8-0.2,1.7-0.3,2.5c0,0,0,0,0,0c-2.1,17.5-5.7,37.6-7.6,43.7c-0.4,1.3,1,2.4,2,3.3l6.8,4.3
				c0,0,2.8-26,3.8-34.8c0.9-8.5,3.7-19.9,5-31v0c1.6-14.1,3.8-27.9,4.9-36.1c3.1-21.4,7.1-30.9,7.1-30.9
				C641.5,521.6,620,531.8,620,531.8z"/>
		</g>
		<g>
			<path class="st37" d="M692.7,576c3,6.5-27.2,18.1-26.6,19.7c1.6,3.8,8.3,11.7,8.3,11.7s39.8-19.7,39.3-24.1
				c-0.3-3.2-19-52.3-21.7-54.3c-1.6-1.1-13.3-5.3-19-7.5c-1-0.4-4.6-1.8-5.6-2.1c-1.2,1.4-9.6,10.6-12.6,45.5
				c-0.5,5.9,1.1,18.4,2.1,28.5c1.1,10.9,2.4,19.3,3.3,28.4c1.8,17.9,3,32.1,3,32.1l17.8-7.9c2.9-1.4,7.9-5.2,6.8-8.2
				c-4.1-11.5-10.3-33.4-10.3-43.5c0,0,2.9-27.9,4.5-33.4C682.2,560.9,689.3,568.7,692.7,576z"/>
		</g>
		<g>
			<path class="st38" d="M663.1,520.3c0,0,0.1-5.9,2.4-17.7c0.6-3.2-18.5,8.4-18.5,8.4s0.1,1.1,0.1,2.6c0,0.8,0,1.7,0,2.6
				c0,0.3,0,0.6,0,0.9c0,0.8-0.1,1.6-0.1,2.3c-0.1,0.7-0.5,1.9-0.6,2.3C645.6,523.5,656.7,524.9,663.1,520.3z"/>
		</g>
		<path class="st34" d="M651.2,526.4l-3.2,4.2c0,0,1.9,2.5,5.1,0.6L651.2,526.4z"/>
		<path class="st34" d="M648.9,530.8c0,0-12,46.1-9.5,82l4,7.1l3.8-7.4c0,0,1-64.2,4.3-81.8L648.9,530.8z"/>
		<path class="st38" d="M647.8,522.5l3.4,4c0,0,5.4-1.1,7-3.9C659.8,519.7,647.8,522.5,647.8,522.5z"/>
		<path class="st39" d="M647,519c0,0,0.4,3,4.2,7.4l-4.1,5.5l-2.2-11.5L647,519z"/>
		<path class="st39" d="M663.5,515.7c0,0-6.8,8.6-12.3,10.8l2.6,6.3l11.7-14.1L663.5,515.7z"/>
		<g>
			<path class="st20" d="M550.4,579.5c0,0-12.6,1.5-13.3,2.3c-0.7,0.8-0.5,1.5,0.6,1.4c1.2-0.1,12.2-1.1,12.2-1.1
				s-14.4,4.2-15.1,4.8c-0.4,0.3-0.2,1.6,0.5,1.7c0.6,0,15.2-3.4,15.2-3.4s-13.4,4-13.9,4.6c-0.4,0.5,0.1,1.7,1.1,1.5
				s13.7-3.2,13.7-3.2s-9.5,3.5-9.6,4.3c0,0.5,0.1,1.6,2.5,0.6c2.4-1,8.4-2.7,8.4-2.7L550.4,579.5z"/>
		</g>
		<g>
			<g>
				<path class="st20" d="M565.2,580.1c0,0-4.2,0.2-5.5-1.9c-1.1-1.8-3.7-3.4-4.6-3.9c-1.1-0.7-3.8-3.9-4.5-2.6
					c-0.8,1.3,4.1,5.6,5,6.7c0.9,1.1-5.2,0.7-6.3,1.5c-1.1,0.8-0.5,10.8,3.6,10.6c4.1-0.2,8.2-3.2,9-3c0.7,0.1,3,0,3,0L565.2,580.1z
					"/>
			</g>
		</g>
		<g>
			<path class="st37" d="M563.5,589.9c0,0,30.8-4.3,37.6-6c3.2-0.8,7.3-5.1,11.3-10.3c1.3-1.7,2.6-3.5,3.8-5.2c0,0,0,0,0,0
				c4.9-7,8.7-13.7,8.7-13.7s14.3-16.8,2.8-24.3c0,0-4.9-0.1-7.6,1.4c-2.8,1.5-8.7,13.9-9.7,16.1c-1,2.2-11.9,22.6-12.6,23
				c-0.7,0.5-11.6,2.8-16.5,3.8c-7,1.5-20.2,4.2-20.2,4.2L563.5,589.9z"/>
		</g>
		
			<rect x="640.5" y="623.3" transform="matrix(-1 -1.224647e-16 1.224647e-16 -1 1292.7798 1255.405)" class="st40" width="11.7" height="8.9"/>
		<path class="st41" d="M660.1,613.3c0,0,1.5-0.1,2.1-0.4c0,0,1.1-0.7,1.9-1.1c0.3-0.1,0.5-0.3,0.6-0.3c0.6-0.3,2.1-0.6,3.5-1.7
			c1.4-1,5.8-5.2,5.8-5.2l-2.9-4.4l-1.3-4.4c0,0-10.4,1-11.8,1.9c-0.1,0.1-0.3,0.2-0.4,0.3c-1.1,0.8-1.6,1.9-2.1,2.4
			c-0.2,0.2-2,2.1-1.9,2.9c0.1,1.1,0.7,1.8,1.4,2.1c0,0,0.4,2.1,1.5,3.1c0,0,0.3,2,2,2.8C658.4,611.1,658.9,613.1,660.1,613.3z"/>
		<path class="st37" d="M674.4,607.4c0,0-5.8-4.8-8.9-11.7l17.8-9.7l6.6,13.4L674.4,607.4z"/>
		<g>
			<path class="st20" d="M637,481.7c0,0-4.2,7.8-2.1,9c1.7,1-2,8.6-2.5,9.9c-0.5,1.2,3.1,2.2,3.9,3c0.8,0.8,3,10.7,6,11
				c3,0.3,16.3-4.3,19.9-8.1c3.6-3.8,6.6-20.8,4.2-28C663.9,471.1,644.4,468.1,637,481.7z"/>
		</g>
		<g>
			<path class="st42" d="M636.1,483.4c0,0-4.3-8.4,3.5-14.6c7.8-6.2,22.1,4.7,23.7,5.1c1.6,0.4,10.8,1,6.1,17.1
				c-4,13.8-4.5,14.4-4.5,14.4s-3-8-4.6-9.2c-2.6-1.9-8.4-1.4-8.4-1.4s2.7-7.3-1.5-8.3C646.1,485.4,640.5,481.8,636.1,483.4z"/>
		</g>
		<g>
			<path class="st20" d="M656.5,490.5c0.4-1,1.6-5.3,5.3-2.8c3.7,2.5-2.3,10.6-2.9,10.7C658.2,498.6,653.3,498.9,656.5,490.5z"/>
		</g>
		<path class="st29" d="M647.1,516.1c0,0.3,0,0.6,0,0.9c10.9-3.7,13-9.2,13-9.2c-3.4,2.4-13,5.6-13,5.6
			C647.1,514.3,647.2,515.2,647.1,516.1z"/>
	</g>
</g>
<g id="Layer_5">
</g>
</svg>
