<?xml version="1.0" encoding="utf-8"?>
<!-- Generator: Adobe Illustrator 21.0.0, SVG Export Plug-In . SVG Version: 6.00 Build 0)  -->
<svg version="1.1" xmlns="http://www.w3.org/2000/svg" xmlns:xlink="http://www.w3.org/1999/xlink" x="0px" y="0px"
	 viewBox="0 0 1202 896" style="enable-background:new 0 0 1202 896;" xml:space="preserve">
<style type="text/css">
	.st0{fill:#1CE1E8;}
	.st1{fill:#81F2F2;}
	.st2{display:none;}
	.st3{display:inline;}
	.st4{fill:#606060;}
	.st5{fill:#B7C4CB;}
	.st6{fill:#D6E5ED;}
	.st7{fill:#259CAA;}
	.st8{fill:#FFFFFF;}
	.st9{fill:#083B5A;}
	.st10{fill:#B1B1B1;}
	.st11{fill:#454F56;}
	.st12{fill:none;stroke:#454F56;stroke-width:0.461;stroke-miterlimit:10;}
	.st13{fill:#E09F7A;}
	.st14{fill:#FFCA00;}
	.st15{fill:#F7AC00;}
	.st16{fill:#E3CEC6;}
	.st17{fill:#C77700;}
	.st18{fill:none;stroke:#F7AC00;stroke-width:0.5056;stroke-linecap:round;stroke-linejoin:round;stroke-miterlimit:10;}
	.st19{fill:#FFFFFF;stroke:#D9D9D9;stroke-width:0.5134;stroke-linecap:round;stroke-linejoin:round;stroke-miterlimit:10;}
	.st20{fill:#EDEDED;stroke:#D9D9D9;stroke-width:0.5134;stroke-linecap:round;stroke-linejoin:round;stroke-miterlimit:10;}
	.st21{fill:none;stroke:#454F56;stroke-width:0.1694;stroke-miterlimit:10;}
	.st22{opacity:0.55;fill:#606060;}
	.st23{fill:#DBA585;}
	.st24{fill:#1A232F;}
	.st25{fill:#5A5C5A;}
	.st26{fill:#414D99;}
	.st27{fill:#E6D8D1;}
	.st28{fill:#2C3D54;}
	.st29{fill:#CFC3BC;}
	.st30{fill:#2C323D;}
	.st31{fill:#F3E4DC;}
	.st32{fill:#997761;}
	.st33{fill:#2F386C;}
	.st34{fill:#C99A7D;}
	.st35{fill:#26283A;}
	.st36{fill:#807F7D;}
	.st37{fill:#2E3048;}
	.st38{fill:#D8D6E1;}
	.st39{fill:#232536;}
	.st40{fill:#70A9ED;}
	.st41{fill:#DBA686;}
	.st42{fill:#C1BFC9;}
	.st43{fill:#3E4265;}
	.st44{fill:#DCA787;}
	.st45{fill:#1F2531;}
</style>
<g id="Layer_6">
	<rect y="1.8" class="st0" width="1202" height="896"/>
</g>
<g id="Layer_2">
	<path class="st1" d="M928.6,854.2c67.6-79.2,108.7-183.2,108.7-297c0-248.4-195.2-449.7-436.1-449.7
		c-240.8,0-436.1,201.3-436.1,449.7c0,113.8,41,217.8,108.7,297H928.6z"/>
</g>
<g id="Layer_7" class="st2">
	<g class="st3">
		<g>
			<path class="st4" d="M869.4,451.5c0,6.5-5.2,11.7-11.7,11.7h-438c-6.4,0-11.7-5.2-11.7-11.7V190.7c0-6.4,5.2-11.7,11.7-11.7h438
				c6.5,0,11.7,5.2,11.7,11.7V451.5z"/>
			<path class="st4" d="M378.9,462.6v14.2c0,5.7,15.3,20.5,21.1,20.5h479.4c5.8,0,21.1-14.8,21.1-20.5v-14.2H378.9z"/>
			<path class="st4" d="M392.9,462.6v12.2c0,4.9,14.4,17.6,19.9,17.6h453.8c5.5,0,19.9-12.7,19.9-17.6v-12.2H392.9z"/>
			<path class="st4" d="M864.2,448.9c0,6.2-5.1,11.3-11.4,11.3H424.8c-6.3,0-11.4-5.1-11.4-11.3V197.1c0-6.2,5.1-11.3,11.4-11.3
				h427.9c6.3,0,11.4,5.1,11.4,11.3V448.9z"/>
			<circle class="st4" cx="638.8" cy="200.5" r="5.5"/>
			<rect x="428" y="210.4" class="st4" width="421.6" height="241.5"/>
		</g>
		<rect x="443.3" y="223.3" class="st4" width="396.2" height="217.6"/>
		<rect x="443.3" y="219.6" class="st4" width="396.2" height="20.9"/>
		<g>
			<rect x="675.7" y="337.1" class="st4" width="147" height="9.8"/>
			<rect x="675.7" y="352.7" class="st4" width="147" height="9.8"/>
			<rect x="675.7" y="368.4" class="st4" width="78.3" height="9.8"/>
			<rect x="675.7" y="387.1" class="st4" width="141.3" height="9.8"/>
			<rect x="675.7" y="405.9" class="st4" width="78.3" height="9.8"/>
			<rect x="522.4" y="266.2" class="st4" width="118.3" height="11.3"/>
			<rect x="522.4" y="284.3" class="st4" width="118.3" height="11.3"/>
			<rect x="522.4" y="302.4" class="st4" width="71.4" height="11.3"/>
			<g>
				<rect x="466.2" y="335.3" class="st4" width="183.9" height="22.3"/>
				<g>
					<path class="st4" d="M649.2,336.1v80.9H467v-80.9H649.2 M650.1,335.3H466.2v82.5h183.9V335.3L650.1,335.3z"/>
				</g>
				<line class="st4" x1="466.2" y1="367.2" x2="650.1" y2="367.2"/>
				<line class="st4" x1="466.2" y1="377.2" x2="650.1" y2="377.2"/>
				<line class="st4" x1="466.2" y1="387.1" x2="650.1" y2="387.1"/>
				<line class="st4" x1="466.2" y1="397.1" x2="650.1" y2="397.1"/>
				<line class="st4" x1="466.2" y1="407.1" x2="650.1" y2="407.1"/>
				<line class="st4" x1="484.2" y1="417.8" x2="484.2" y2="335.3"/>
				<line class="st4" x1="593.5" y1="417.8" x2="593.5" y2="335.3"/>
				<line class="st4" x1="622.4" y1="417.8" x2="622.4" y2="335.3"/>
			</g>
		</g>
		<path class="st4" d="M638.8,229.1c0,3.6-2.9,6.5-6.5,6.5H465.8c-3.6,0-6.5-2.9-6.5-6.5l0,0c0-3.6,2.9-6.5,6.5-6.5h166.5
			C635.9,222.7,638.8,225.6,638.8,229.1L638.8,229.1z"/>
		<circle class="st4" cx="790.8" cy="230.1" r="6.1"/>
		<circle class="st4" cx="808" cy="230.1" r="6.1"/>
		<circle class="st4" cx="825.2" cy="230.1" r="6.1"/>
	</g>
	<g class="st3">
		<g>
			<path class="st5" d="M859.1,452.5c0,6.5-5.2,11.7-11.7,11.7h-438c-6.4,0-11.7-5.2-11.7-11.7V191.7c0-6.4,5.2-11.7,11.7-11.7h438
				c6.5,0,11.7,5.2,11.7,11.7V452.5z"/>
			<path class="st5" d="M368.6,463.7v14.2c0,5.7,15.3,20.5,21.1,20.5h479.4c5.8,0,21.1-14.8,21.1-20.5v-14.2H368.6z"/>
			<path class="st6" d="M382.6,463.7v12.2c0,4.9,14.4,17.6,19.9,17.6h453.8c5.5,0,19.9-12.7,19.9-17.6v-12.2H382.6z"/>
			<path class="st6" d="M853.8,450c0,6.2-5.1,11.3-11.4,11.3H414.5c-6.3,0-11.4-5.1-11.4-11.3V198.2c0-6.2,5.1-11.3,11.4-11.3h427.9
				c6.3,0,11.4,5.1,11.4,11.3V450z"/>
			<circle class="st5" cx="628.5" cy="201.6" r="5.5"/>
			<rect x="417.6" y="211.4" class="st7" width="421.6" height="241.5"/>
		</g>
		<rect x="433" y="224.3" class="st8" width="396.2" height="217.6"/>
		<rect x="433" y="220.6" class="st9" width="396.2" height="20.9"/>
		<g>
			<rect x="665.4" y="338.1" class="st10" width="147" height="9.8"/>
			<rect x="665.4" y="353.8" class="st10" width="147" height="9.8"/>
			<rect x="665.4" y="369.4" class="st10" width="78.3" height="9.8"/>
			<rect x="665.4" y="388.2" class="st10" width="141.3" height="9.8"/>
			<rect x="665.4" y="407" class="st10" width="78.3" height="9.8"/>
			<rect x="512.1" y="267.2" class="st10" width="118.3" height="11.3"/>
			<rect x="512.1" y="285.3" class="st10" width="118.3" height="11.3"/>
			<rect x="512.1" y="303.4" class="st10" width="71.4" height="11.3"/>
			<g>
				<rect x="455.8" y="336.3" class="st11" width="183.9" height="22.3"/>
				<g>
					<path class="st11" d="M638.9,337.2V418H456.6v-80.9H638.9 M639.7,336.3H455.8v82.5h183.9V336.3L639.7,336.3z"/>
				</g>
				<line class="st12" x1="455.8" y1="368.3" x2="639.7" y2="368.3"/>
				<line class="st12" x1="455.8" y1="378.2" x2="639.7" y2="378.2"/>
				<line class="st12" x1="455.8" y1="388.2" x2="639.7" y2="388.2"/>
				<line class="st12" x1="455.8" y1="398.2" x2="639.7" y2="398.2"/>
				<line class="st12" x1="455.8" y1="408.1" x2="639.7" y2="408.1"/>
				<line class="st12" x1="473.9" y1="418.8" x2="473.9" y2="336.3"/>
				<line class="st12" x1="583.2" y1="418.8" x2="583.2" y2="336.3"/>
				<line class="st12" x1="612.1" y1="418.8" x2="612.1" y2="336.3"/>
			</g>
		</g>
		<path class="st8" d="M628.5,230.2c0,3.6-2.9,6.5-6.5,6.5H455.4c-3.6,0-6.5-2.9-6.5-6.5l0,0c0-3.6,2.9-6.5,6.5-6.5H622
			C625.6,223.7,628.5,226.6,628.5,230.2L628.5,230.2z"/>
		<circle class="st8" cx="780.5" cy="231.1" r="6.1"/>
		<circle class="st8" cx="797.7" cy="231.1" r="6.1"/>
		<circle class="st8" cx="814.9" cy="231.1" r="6.1"/>
	</g>
	<g class="st3">
		<path class="st13" d="M796.9,303.9c0,0-2.6-5.6-11.3-9.8c-2.2-1.1-5.2,1.9-1.5,3.7c1.8,0.9,2.4,2.5,1.5,2.2
			c-7.2-2.7-9.4-5.4-12.4-3.9c-3,1.5-3.1,9.9,2.5,12.3c5.7,2.4,19.1,3.5,19.1,3.5L796.9,303.9z"/>
		
			<ellipse transform="matrix(7.591161e-02 -0.9971 0.9971 7.591161e-02 434.3199 1044.1559)" class="st14" cx="780.5" cy="287.8" rx="28.3" ry="28.3"/>
		
			<ellipse transform="matrix(7.590934e-02 -0.9971 0.9971 7.590934e-02 434.3218 1044.1573)" class="st15" cx="780.5" cy="287.8" rx="24.1" ry="24.1"/>
		<path class="st16" d="M780.9,310.2c-13.2-1-23.2-12.6-22.2-25.8c0.5-6.9,3.9-12.9,9-17c-6.2,3.9-10.6,10.6-11.2,18.5
			c-1,13.2,8.9,24.8,22.2,25.8c6.3,0.5,12.2-1.5,16.8-5.2C791.3,309.2,786.2,310.6,780.9,310.2z"/>
		<g>
			<path class="st17" d="M784.2,269.8l-0.2,2.1c1.4,0.3,2.6,0.6,3.6,1.2c1,0.5,1.8,1.2,2.5,2.2c0.5,0.7,0.9,1.5,1.2,2.2
				c0.3,0.7,0.4,1.4,0.3,2c-0.1,0.7-0.3,1.2-0.9,1.7c-0.5,0.4-1.1,0.6-1.8,0.6c-1.3-0.1-2.1-0.9-2.4-2.3c-0.3-1.7-1.3-2.9-2.9-3.5
				l-0.6,8.3c1.6,0.6,2.9,1.1,3.8,1.5c0.9,0.4,1.8,1,2.5,1.8c0.8,0.8,1.3,1.7,1.7,2.8c0.4,1,0.5,2.2,0.4,3.4
				c-0.1,1.5-0.6,2.9-1.4,4.2c-0.8,1.3-1.9,2.3-3.4,3c-1.4,0.7-3.1,1.1-5,1.1l-0.4,4.9c-0.1,0.8-0.2,1.3-0.4,1.7
				c-0.2,0.3-0.5,0.5-1,0.5c-0.5,0-0.8-0.2-1-0.5c-0.2-0.3-0.2-0.8-0.2-1.4l0.4-5.4c-1.5-0.3-2.9-0.8-4-1.4c-1.1-0.6-2-1.4-2.7-2.3
				c-0.7-0.9-1.2-1.8-1.5-2.7c-0.3-0.9-0.4-1.8-0.4-2.7c0-0.6,0.3-1.2,0.9-1.7c0.5-0.5,1.2-0.7,1.9-0.6c0.6,0,1.1,0.2,1.5,0.5
				c0.4,0.3,0.6,0.7,0.8,1.2c0.3,1.1,0.5,2,0.7,2.6c0.2,0.6,0.6,1.2,1.1,1.7c0.5,0.5,1.2,0.9,2,1.3l0.7-9.2c-1.7-0.6-3.2-1.3-4.3-2
				c-1.1-0.7-2-1.6-2.7-2.8c-0.7-1.2-0.9-2.6-0.8-4.4c0.2-2.3,1-4.1,2.6-5.4c1.6-1.3,3.7-2,6.5-2.1l0.2-2.1c0.1-1.1,0.5-1.6,1.4-1.6
				C783.9,268.1,784.3,268.7,784.2,269.8z M780.6,283.2l0.6-7.6c-1.1,0.2-2,0.6-2.7,1.1c-0.7,0.5-1,1.3-1.1,2.4
				c-0.1,1,0.1,1.9,0.7,2.4C778.6,282.1,779.5,282.7,780.6,283.2z M782.7,289.3l-0.7,8.7c1.4-0.2,2.4-0.6,3.2-1.4
				c0.8-0.8,1.2-1.7,1.3-2.7c0.1-1.2-0.2-2.1-0.9-2.8C785.1,290.4,784.1,289.8,782.7,289.3z"/>
		</g>
		<line class="st18" x1="778.4" y1="315.5" x2="778.6" y2="312.3"/>
		<line class="st18" x1="752.8" y1="285.7" x2="756" y2="286"/>
		<line class="st18" x1="767.6" y1="312.4" x2="769.1" y2="309.6"/>
		<line class="st18" x1="755.9" y1="275" x2="758.7" y2="276.4"/>
		<line class="st18" x1="773.4" y1="314.6" x2="774.2" y2="311.6"/>
		<line class="st18" x1="753.7" y1="280.7" x2="756.7" y2="281.5"/>
		<line class="st18" x1="783.4" y1="312.2" x2="783.8" y2="315.3"/>
		<line class="st18" x1="763.4" y1="309.6" x2="765.3" y2="307.2"/>
		<line class="st18" x1="758.7" y1="270.7" x2="761.2" y2="272.7"/>
	</g>
	<g class="st3">
		<path class="st13" d="M715.3,303.9c0,0-2.6-5.6-11.3-9.8c-2.2-1.1-5.2,1.9-1.5,3.7c1.8,0.9,2.4,2.5,1.5,2.2
			c-7.2-2.7-9.4-5.4-12.4-3.9c-3,1.5-3.1,9.9,2.5,12.3c5.7,2.4,19.1,3.5,19.1,3.5L715.3,303.9z"/>
		
			<ellipse transform="matrix(7.591161e-02 -0.9971 0.9971 7.591161e-02 358.9458 962.8942)" class="st14" cx="699" cy="287.8" rx="28.3" ry="28.3"/>
		
			<ellipse transform="matrix(7.590934e-02 -0.9971 0.9971 7.590934e-02 358.9476 962.8956)" class="st15" cx="699" cy="287.8" rx="24.1" ry="24.1"/>
		<path class="st16" d="M699.4,310.2c-13.2-1-23.2-12.6-22.2-25.8c0.5-6.9,3.9-12.9,9-17c-6.2,3.9-10.6,10.6-11.2,18.5
			c-1,13.2,8.9,24.8,22.2,25.8c6.3,0.5,12.2-1.5,16.8-5.2C709.8,309.2,704.7,310.6,699.4,310.2z"/>
		<g>
			<path class="st17" d="M702.7,269.8l-0.2,2.1c1.4,0.3,2.6,0.6,3.6,1.2c1,0.5,1.8,1.2,2.5,2.2c0.5,0.7,0.9,1.5,1.2,2.2
				c0.3,0.7,0.4,1.4,0.3,2c-0.1,0.7-0.3,1.2-0.9,1.7c-0.5,0.4-1.1,0.6-1.8,0.6c-1.3-0.1-2.1-0.9-2.4-2.3c-0.3-1.7-1.3-2.9-2.9-3.5
				l-0.6,8.3c1.6,0.6,2.9,1.1,3.8,1.5c0.9,0.4,1.8,1,2.5,1.8c0.8,0.8,1.3,1.7,1.7,2.8c0.4,1,0.5,2.2,0.4,3.4
				c-0.1,1.5-0.6,2.9-1.4,4.2c-0.8,1.3-1.9,2.3-3.4,3c-1.4,0.7-3.1,1.1-5,1.1l-0.4,4.9c-0.1,0.8-0.2,1.3-0.4,1.7
				c-0.2,0.3-0.5,0.5-1,0.5c-0.5,0-0.8-0.2-1-0.5c-0.2-0.3-0.2-0.8-0.2-1.4l0.4-5.4c-1.5-0.3-2.9-0.8-4-1.4c-1.1-0.6-2-1.4-2.7-2.3
				c-0.7-0.9-1.2-1.8-1.5-2.7c-0.3-0.9-0.4-1.8-0.4-2.7c0-0.6,0.3-1.2,0.9-1.7c0.5-0.5,1.2-0.7,1.9-0.6c0.6,0,1.1,0.2,1.5,0.5
				c0.4,0.3,0.6,0.7,0.8,1.2c0.3,1.1,0.5,2,0.7,2.6c0.2,0.6,0.6,1.2,1.1,1.7c0.5,0.5,1.2,0.9,2,1.3l0.7-9.2c-1.7-0.6-3.2-1.3-4.3-2
				c-1.1-0.7-2-1.6-2.7-2.8c-0.7-1.2-0.9-2.6-0.8-4.4c0.2-2.3,1-4.1,2.6-5.4c1.6-1.3,3.7-2,6.5-2.1l0.2-2.1c0.1-1.1,0.5-1.6,1.4-1.6
				C702.4,268.1,702.8,268.7,702.7,269.8z M699.1,283.2l0.6-7.6c-1.1,0.2-2,0.6-2.7,1.1c-0.7,0.5-1,1.3-1.1,2.4
				c-0.1,1,0.1,1.9,0.7,2.4C697.1,282.1,698,282.7,699.1,283.2z M701.2,289.3l-0.7,8.7c1.4-0.2,2.4-0.6,3.2-1.4
				c0.8-0.8,1.2-1.7,1.3-2.7c0.1-1.2-0.2-2.1-0.9-2.8C703.5,290.5,702.5,289.8,701.2,289.3z"/>
		</g>
		<line class="st18" x1="696.9" y1="315.5" x2="697.1" y2="312.4"/>
		<line class="st18" x1="671.3" y1="285.7" x2="674.5" y2="286"/>
		<line class="st18" x1="686.1" y1="312.4" x2="687.6" y2="309.6"/>
		<line class="st18" x1="674.4" y1="275" x2="677.2" y2="276.5"/>
		<line class="st18" x1="691.9" y1="314.7" x2="692.7" y2="311.6"/>
		<line class="st18" x1="672.2" y1="280.7" x2="675.2" y2="281.6"/>
		<line class="st18" x1="701.9" y1="312.3" x2="702.3" y2="315.4"/>
		<line class="st18" x1="681.8" y1="309.7" x2="683.8" y2="307.2"/>
		<line class="st18" x1="677.1" y1="270.7" x2="679.6" y2="272.7"/>
	</g>
	<g class="st3">
		<path class="st13" d="M497.7,305.8c0,0-2.6-5.6-11.3-9.8c-2.2-1.1-5.2,1.9-1.5,3.7c1.8,0.9,2.4,2.5,1.5,2.2
			c-7.2-2.7-9.4-5.4-12.4-3.9c-3,1.5-3.1,9.9,2.5,12.3c5.7,2.4,19.1,3.5,19.1,3.5L497.7,305.8z"/>
		
			<ellipse transform="matrix(7.591161e-02 -0.9971 0.9971 7.591161e-02 156.0207 747.5433)" class="st14" cx="481.3" cy="289.6" rx="28.3" ry="28.3"/>
		
			<ellipse transform="matrix(7.590934e-02 -0.9971 0.9971 7.590934e-02 156.022 747.5447)" class="st15" cx="481.3" cy="289.6" rx="24.1" ry="24.1"/>
		<path class="st16" d="M481.7,312c-13.2-1-23.2-12.6-22.2-25.8c0.5-6.9,3.9-12.9,9-17c-6.2,3.9-10.6,10.6-11.2,18.5
			c-1,13.2,8.9,24.8,22.2,25.8c6.3,0.5,12.2-1.5,16.8-5.2C492.1,311,487.1,312.4,481.7,312z"/>
		<g>
			<path class="st17" d="M485,271.6l-0.2,2.1c1.4,0.3,2.6,0.6,3.6,1.2c1,0.5,1.8,1.2,2.5,2.2c0.5,0.7,0.9,1.5,1.2,2.2
				c0.3,0.7,0.4,1.4,0.3,2c-0.1,0.7-0.3,1.2-0.9,1.7c-0.5,0.4-1.1,0.6-1.8,0.6c-1.3-0.1-2.1-0.9-2.4-2.3c-0.3-1.7-1.3-2.9-2.9-3.5
				l-0.6,8.3c1.6,0.6,2.9,1.1,3.8,1.5c0.9,0.4,1.8,1,2.5,1.8c0.8,0.8,1.3,1.7,1.7,2.8c0.4,1,0.5,2.2,0.4,3.4
				c-0.1,1.5-0.6,2.9-1.4,4.2c-0.8,1.3-1.9,2.3-3.4,3c-1.4,0.7-3.1,1.1-5,1.1l-0.4,4.9c-0.1,0.8-0.2,1.3-0.4,1.7
				c-0.2,0.3-0.5,0.5-1,0.5c-0.5,0-0.8-0.2-1-0.5c-0.2-0.3-0.2-0.8-0.2-1.4l0.4-5.4c-1.5-0.3-2.9-0.8-4-1.4c-1.1-0.6-2-1.4-2.7-2.3
				c-0.7-0.9-1.2-1.8-1.5-2.7c-0.3-0.9-0.4-1.8-0.4-2.7c0-0.6,0.3-1.2,0.9-1.7c0.5-0.5,1.2-0.7,1.9-0.6c0.6,0,1.1,0.2,1.5,0.5
				c0.4,0.3,0.6,0.7,0.8,1.2c0.3,1.1,0.5,2,0.7,2.6c0.2,0.6,0.6,1.2,1.1,1.7c0.5,0.5,1.2,0.9,2,1.3l0.7-9.2c-1.7-0.6-3.2-1.3-4.3-2
				c-1.1-0.7-2-1.6-2.7-2.8c-0.7-1.2-0.9-2.6-0.8-4.4c0.2-2.3,1-4.1,2.6-5.4c1.6-1.3,3.7-2,6.5-2.1l0.2-2.1c0.1-1.1,0.5-1.6,1.4-1.6
				C484.7,269.9,485.1,270.5,485,271.6z M481.5,285l0.6-7.6c-1.1,0.2-2,0.6-2.7,1.1c-0.7,0.5-1,1.3-1.1,2.4c-0.1,1,0.1,1.9,0.7,2.4
				C479.5,283.9,480.3,284.5,481.5,285z M483.5,291.1l-0.7,8.7c1.4-0.2,2.4-0.6,3.2-1.4c0.8-0.8,1.2-1.7,1.3-2.7
				c0.1-1.2-0.2-2.1-0.9-2.8C485.9,292.3,484.9,291.7,483.5,291.1z"/>
		</g>
		<line class="st18" x1="479.2" y1="317.3" x2="479.4" y2="314.2"/>
		<line class="st18" x1="453.7" y1="287.6" x2="456.8" y2="287.8"/>
		<line class="st18" x1="468.5" y1="314.2" x2="469.9" y2="311.4"/>
		<line class="st18" x1="456.7" y1="276.8" x2="459.5" y2="278.3"/>
		<line class="st18" x1="474.2" y1="316.5" x2="475" y2="313.4"/>
		<line class="st18" x1="454.5" y1="282.5" x2="457.6" y2="283.4"/>
		<line class="st18" x1="484.3" y1="314.1" x2="484.6" y2="317.2"/>
		<line class="st18" x1="464.2" y1="311.5" x2="466.1" y2="309"/>
		<line class="st18" x1="459.5" y1="272.5" x2="462" y2="274.5"/>
	</g>
</g>
<g id="Layer_3">
	<g>
		<g>
			<polygon class="st4" points="1038,467.3 934.4,469.2 945.1,438 1048.7,436.1 			"/>
			<polygon class="st4" points="1047.5,369 943.9,370.9 970.3,329.7 1073.9,327.8 			"/>
			<polygon class="st4" points="1039.3,446 946.3,447.7 947.7,443.2 1041,441.5 			"/>
			<polygon class="st4" points="1036.8,453.2 944.1,454.9 945.8,450.4 1038.5,448.7 			"/>
			<polygon class="st4" points="994,461.1 942.8,462.1 944.1,457.6 993.9,456.7 			"/>
			<polygon class="st4" points="1047.8,344.3 990.8,345.4 993.5,340.2 1054,339.1 			"/>
			<polygon class="st4" points="1042,352.7 987.2,353.7 989.8,348.5 1046.2,347.5 			"/>
			<polygon class="st4" points="1014.4,361.5 984.4,362 986.8,356.8 1016.9,356.3 			"/>
			<g>
				<polygon class="st4" points="1061.3,435.9 959.9,437.7 943.9,370.9 1047.5,369 				"/>
				<polygon class="st4" points="1040.5,378.6 956.8,380.1 955.7,375.6 1039.6,374.1 				"/>
				<polygon class="st4" points="1042,385.7 958.5,387.2 957.4,382.8 1041.1,381.2 				"/>
				<polygon class="st4" points="1004.6,393.5 960.2,394.3 959.1,389.9 1003.6,389.1 				"/>
				<g>
					<polygon class="st4" points="1046.3,406.5 963.4,408 961,397.8 1044.2,396.3 					"/>
				</g>
				<g>
					<path class="st4" d="M1043.9,396.7l7.7,36.8l-81.5,1.5l-8.7-36.8L1043.9,396.7 M1044.2,396.3l-83.2,1.5l8.9,37.5l82.2-1.5
						L1044.2,396.3L1044.2,396.3z"/>
				</g>
				<line class="st4" x1="964.4" y1="412.3" x2="1047.3" y2="410.8"/>
				<line class="st4" x1="965.5" y1="416.9" x2="1048.2" y2="415.4"/>
				<line class="st4" x1="966.6" y1="421.4" x2="1049.2" y2="419.9"/>
				<line class="st4" x1="967.6" y1="425.9" x2="1050.1" y2="424.4"/>
				<line class="st4" x1="968.7" y1="430.5" x2="1051" y2="429"/>
				<line class="st4" x1="977.9" y1="435.2" x2="969.2" y2="397.7"/>
				<line class="st4" x1="1026.8" y1="434.3" x2="1018.6" y2="396.8"/>
				<line class="st4" x1="1039.7" y1="434.1" x2="1031.7" y2="396.5"/>
			</g>
		</g>
		<g>
			<polygon class="st19" points="1032.3,463.7 928.7,465.5 939.4,434.4 1043,432.5 			"/>
			<polygon class="st19" points="1041.7,365.3 938.1,367.2 964.6,326.1 1068.2,324.2 			"/>
			<polygon class="st10" points="1033.6,442.4 940.6,444.1 942,439.6 1035.3,437.9 			"/>
			<polygon class="st10" points="1031.1,449.6 938.4,451.3 940.1,446.7 1032.8,445.1 			"/>
			<polygon class="st10" points="988.3,457.5 937.1,458.4 938.4,453.9 988.2,453 			"/>
			<polygon class="st10" points="1042.1,340.7 985.1,341.7 987.8,336.5 1048.3,335.4 			"/>
			<polygon class="st10" points="1036.3,349.1 981.5,350.1 984.1,344.9 1040.4,343.8 			"/>
			<polygon class="st10" points="1008.7,357.8 978.7,358.4 981,353.2 1011.2,352.6 			"/>
			<g>
				<polygon class="st20" points="1055.6,432.2 954.2,434.1 938.1,367.2 1041.7,365.3 				"/>
				<polygon class="st10" points="1034.8,374.9 951.1,376.5 950,372 1033.9,370.5 				"/>
				<polygon class="st10" points="1036.3,382.1 952.8,383.6 951.7,379.1 1035.3,377.6 				"/>
				<polygon class="st10" points="998.8,389.9 954.4,390.7 953.4,386.2 997.9,385.4 				"/>
				<g>
					<polygon class="st11" points="1040.6,402.8 957.7,404.3 955.3,394.2 1038.5,392.7 					"/>
				</g>
				<g>
					<path class="st11" d="M1038.2,393l7.7,36.8l-81.5,1.5l-8.7-36.8L1038.2,393 M1038.5,392.7l-83.2,1.5l8.9,37.5l82.2-1.5
						L1038.5,392.7L1038.5,392.7z"/>
				</g>
				<line class="st21" x1="958.7" y1="408.7" x2="1041.5" y2="407.2"/>
				<line class="st21" x1="959.8" y1="413.2" x2="1042.5" y2="411.7"/>
				<line class="st21" x1="960.8" y1="417.8" x2="1043.4" y2="416.3"/>
				<line class="st21" x1="961.9" y1="422.3" x2="1044.4" y2="420.8"/>
				<line class="st21" x1="963" y1="426.8" x2="1045.3" y2="425.3"/>
				<line class="st21" x1="972.2" y1="431.5" x2="963.4" y2="394"/>
				<line class="st21" x1="1021.1" y1="430.7" x2="1012.9" y2="393.1"/>
				<line class="st21" x1="1034" y1="430.4" x2="1026" y2="392.9"/>
			</g>
		</g>
	</g>
	<g>
		<g>
			<polygon class="st4" points="236.2,480.9 132.6,479 143.3,510.2 246.9,512.1 			"/>
			<polygon class="st4" points="245.7,579.2 142.1,577.4 168.5,618.5 272.1,620.4 			"/>
			<polygon class="st4" points="237.5,502.2 144.5,500.5 145.9,505 239.2,506.7 			"/>
			<polygon class="st4" points="235,495 142.3,493.3 144,497.8 236.7,499.5 			"/>
			<polygon class="st4" points="192.2,487.1 141,486.2 142.3,490.7 192.1,491.6 			"/>
			<polygon class="st4" points="246,603.9 189,602.8 191.7,608.1 252.2,609.2 			"/>
			<polygon class="st4" points="240.2,595.5 185.4,594.5 188.1,599.7 244.4,600.8 			"/>
			<polygon class="st4" points="212.6,586.7 182.6,586.2 185,591.4 215.1,592 			"/>
			<g>
				<polygon class="st4" points="259.5,512.3 158.1,510.5 142.1,577.4 245.7,579.2 				"/>
				<polygon class="st4" points="238.7,569.6 155,568.1 154,572.6 237.8,574.1 				"/>
				<polygon class="st4" points="240.2,562.5 156.7,561 155.6,565.5 239.3,567 				"/>
				<polygon class="st4" points="202.8,554.7 158.4,553.9 157.3,558.3 201.8,559.2 				"/>
				<g>
					<polygon class="st4" points="244.6,541.7 161.6,540.2 159.2,550.4 242.4,551.9 					"/>
				</g>
				<g>
					<path class="st4" d="M242.1,551.5l-82.5-1.5l8.7-36.8l81.5,1.5L242.1,551.5 M242.4,551.9l7.9-37.5l-82.2-1.5l-8.9,37.5
						L242.4,551.9L242.4,551.9z"/>
				</g>
				<line class="st4" x1="162.6" y1="535.9" x2="245.5" y2="537.4"/>
				<line class="st4" x1="163.7" y1="531.3" x2="246.4" y2="532.8"/>
				<line class="st4" x1="164.8" y1="526.8" x2="247.4" y2="528.3"/>
				<line class="st4" x1="165.8" y1="522.3" x2="248.3" y2="523.8"/>
				<line class="st4" x1="166.9" y1="517.8" x2="249.3" y2="519.2"/>
				<line class="st4" x1="176.1" y1="513" x2="167.4" y2="550.5"/>
				<line class="st4" x1="225" y1="513.9" x2="216.9" y2="551.4"/>
				<line class="st4" x1="237.9" y1="514.2" x2="229.9" y2="551.7"/>
			</g>
		</g>
		<g>
			<polygon class="st19" points="228.2,484.6 124.6,482.7 135.3,513.9 238.9,515.7 			"/>
			<polygon class="st19" points="237.7,582.9 134.1,581 160.5,622.1 264.2,624 			"/>
			<polygon class="st10" points="229.5,505.8 136.6,504.2 138,508.7 231.2,510.3 			"/>
			<polygon class="st10" points="227,498.6 134.3,497 136,501.5 228.7,503.2 			"/>
			<polygon class="st10" points="184.2,490.7 133.1,489.8 134.4,494.3 184.1,495.2 			"/>
			<polygon class="st10" points="238,607.5 181.1,606.5 183.8,611.7 244.3,612.8 			"/>
			<polygon class="st10" points="232.2,599.1 177.4,598.1 180.1,603.4 236.4,604.4 			"/>
			<polygon class="st10" points="204.7,590.4 174.6,589.8 177,595 207.1,595.6 			"/>
			<g>
				<polygon class="st20" points="251.5,516 150.1,514.1 134.1,581 237.7,582.9 				"/>
				<polygon class="st10" points="230.7,573.3 147,571.8 146,576.2 229.8,577.7 				"/>
				<polygon class="st10" points="232.2,566.2 148.7,564.6 147.7,569.1 231.3,570.6 				"/>
				<polygon class="st10" points="194.8,558.3 150.4,557.5 149.3,562 193.8,562.8 				"/>
				<g>
					<polygon class="st11" points="236.6,545.4 153.6,543.9 151.2,554 234.5,555.5 					"/>
				</g>
				<g>
					<path class="st11" d="M234.2,555.2l-82.5-1.5l8.7-36.8l81.5,1.5L234.2,555.2 M234.5,555.5l7.9-37.5l-82.2-1.5l-8.9,37.5
						L234.5,555.5L234.5,555.5z"/>
				</g>
				<line class="st21" x1="154.7" y1="539.5" x2="237.5" y2="541"/>
				<line class="st21" x1="155.7" y1="535" x2="238.4" y2="536.5"/>
				<line class="st21" x1="156.8" y1="530.4" x2="239.4" y2="531.9"/>
				<line class="st21" x1="157.9" y1="525.9" x2="240.3" y2="527.4"/>
				<line class="st21" x1="158.9" y1="521.4" x2="241.3" y2="522.9"/>
				<line class="st21" x1="168.2" y1="516.7" x2="159.4" y2="554.2"/>
				<line class="st21" x1="217" y1="517.6" x2="208.9" y2="555.1"/>
				<line class="st21" x1="229.9" y1="517.8" x2="221.9" y2="555.3"/>
			</g>
		</g>
	</g>
</g>
<g id="Layer_4">
</g>
<g id="Layer_1">
	<ellipse class="st22" cx="501.4" cy="784.1" rx="60.9" ry="20.9"/>
	<ellipse class="st22" cx="633" cy="814.3" rx="60.9" ry="20.9"/>
	<g>
		<g>
			<g>
				<g>
					<path class="st23" d="M528.6,668.1c0,0,1,1,1.4,1.9c0.3,0.7,1.2,1.7,1.7,2.3c0.5,0.6,2.1,3.2,2.4,3.9c0.1,0.3,0,2.3,0.2,2.9
						c0.3,0.6,1,1.7,0.4,1.9c-0.5,0.2-1.4-0.6-1.4-0.6s0.2,0.5-0.2,0.9c-0.8,0.6-1.3,0.4-1.3,0.4s-0.2,0.7-0.5,0.9
						c-0.9,0.4-1.4,0.1-1.4,0.1s-0.3,0.4-0.9,0.6c-0.8,0.2-1.3-0.4-1.3-0.4s-1,0.4-1.4,0c-0.4-0.4-0.5-0.9-0.8-1.3
						c-0.2-0.4-1.3-4.3-0.7-7.4c0.5-3.1-1.9-5.4-1.9-5.4L528.6,668.1z"/>
				</g>
			</g>
		</g>
		<g>
			<path class="st24" d="M537.2,692.1h-13.4c-1.4,0-2.5-1.1-2.5-2.5v-8.5c0-1.4,1.1-2.5,2.5-2.5h13.4c1.4,0,2.5,1.1,2.5,2.5v8.5
				C539.6,690.9,538.5,692.1,537.2,692.1z M523.7,680.3c-0.4,0-0.8,0.4-0.8,0.8v8.5c0,0.4,0.4,0.8,0.8,0.8h13.4
				c0.4,0,0.8-0.4,0.8-0.8v-8.5c0-0.4-0.4-0.8-0.8-0.8H523.7z"/>
		</g>
		<g>
			<rect x="505.2" y="688.4" class="st25" width="50.4" height="36.1"/>
		</g>
		<g>
			<path class="st23" d="M509,591.7c0,0-2.6,0-3.7,7.8c-1.1,7.7,1,11,1.2,14.2c0.2,3.2,4,24,4.1,24.9c0.1,0.9,0.6,12,2.1,14.9
				c1.5,2.9,12.3,19.6,12.4,20.4c0.1,0.8,5.2-2.9,5.2-2.9s-8.5-17.8-9-19.8c-0.5-2-3.9-12.4-3.4-15.5c0.5-3.2-1.5-20.6-1.3-22.5
				C517,611.1,514,592.9,509,591.7z"/>
		</g>
		<g>
			<path class="st26" d="M509,591.7c0,0-2.6,0-3.7,7.8c-1.1,7.7-0.1,10.5,0.6,13.9c0.6,3.2,2.8,22.5,2.9,23.4
				c0.1,0.9,2.7,12.6,4,16.7c1,3.1,10.7,19.5,10.8,20.3c0.1,0.8,7.5-3.8,7.5-3.8s-9.4-18.4-9.9-20.4c-0.5-2-2.1-9-2.1-12.3
				c-0.1-3.8-2.4-22.3-2.2-24.2C517,611.1,516.2,594.4,509,591.7z"/>
		</g>
		<path class="st27" d="M487.4,771.9c0,0,4.5,6.7,6.3,8.3c0,0,4.2,1.5,4.4,4.3c0.2,1.9,0,4.8-4.8,5c-4.8,0.1-7.8-1.5-8.7-4.4
			c-0.9-2.9-2.5-4.2-2.5-4.2v6h-1.1c0,0-0.3-5.8-0.3-6.9c-0.1-1.1-0.8-5.2,1.5-7C484.5,771.1,487.4,771.9,487.4,771.9z"/>
		<path class="st27" d="M517.9,766.6c0,0,0.8,1.8,2.2,3.8c1.1,1.4,4.4,7.2,5.9,7.6c1.5,0.4,6,1.2,6.4,3.8c0.4,2.6,0.6,4.4-3.9,4.6
			c-4.5,0.2-7.5,0.5-9.6-2.7c-2.1-3.2-5.6-5.4-5.6-5.4v8.2h-1.7c0,0-0.8-8.6-1.3-9.2c-0.5-0.6-1.7-7.2,2.5-10.6
			C517.1,763.1,517.9,766.6,517.9,766.6z"/>
		<path class="st23" d="M484.4,642.9c0,0-5.7,7.4-7.2,16.2c-1.5,8.8,0.9,38.2,0.8,42.5c-0.1,4.3-4.1,15.1-3.3,23.3
			c0.8,8.2,7.5,48.1,7.5,48.1l5.2-1.1c0,0-0.5-41.4,0-44.8c0.5-3.4,1.5-15.9,1.7-17.3c0.2-1.4,12.8-38.4,12.8-44.8
			C501.9,658.7,498.1,632.6,484.4,642.9z"/>
		<path class="st23" d="M512.9,645.8c0,0,9.3,35.6,10.4,40.6c1.1,4.9,2.7,9,2.7,11.1c0,4.9-1.8,12.7-1.8,12.7l-6.3,56.4h-5
			c0,0-3.2-32.9-3.7-39.6c-0.5-6.6,3.6-16.9,2.6-19.7c-1-2.8-16.2-35.4-16.2-35.4S484.1,635.5,512.9,645.8z"/>
		<path class="st23" d="M494.5,780.5c0,0-3.9,2-7.5-0.6c-3.6-2.7-4.8-6.9-4.8-6.9l5.2-1.1L494.5,780.5z"/>
		<path class="st23" d="M526.1,777.9c0,0-4,1-5.6,0c-1.5-1-6.8-9.9-8.5-10.4c0,0,1.7-3.4,6-0.9C517.9,766.6,524.9,776.4,526.1,777.9
			z"/>
		<path class="st28" d="M524.9,692.1c0,0-17.2,10.1-49.3,10.1c0,0-1.8-37.3,2.9-47.8c4.7-10.5,35.7-4,35.7-4
			S523.8,684.3,524.9,692.1z"/>
		<g>
			<path class="st27" d="M501.4,588.9c0,0,5,2.4,6.7,2.7c1.7,0.3,8.4,9.1,9.6,12.3c1.2,3.2,0,8-2.4,13.6c-2.4,5.6-0.1,7.5-1.2,13.1
				c-1.1,5.6-2.1,17.5-1.9,20.6c0.2,3.1-28,3.7-34.4-2c0,0,6.5-9.7,7.3-11.1c0.8-1.4,0.1-8.9-0.6-10.9c-0.8-1.9-5.8-18.4-5.8-18.4
				s-4.1-12.7-0.4-15.6c3.3-2.5,12.1-3.4,13.7-4C493.5,588.7,498.2,588.4,501.4,588.9z"/>
		</g>
		<g>
			<path class="st29" d="M503,600l3-3.5l-2.6-9.3C503.4,587.2,502.5,592.4,503,600z"/>
		</g>
		<g>
			<path class="st23" d="M495.1,553.5c3-1,13.8-3.6,16.4,10.3c2.6,13.9-5.1,23.8-12.2,21.2c-7.1-2.6-11.4-12.3-11.8-19.6
				C487.1,558.1,491.4,554.9,495.1,553.5z"/>
		</g>
		<g>
			<path class="st30" d="M511.5,563.9c0,0,0.5-11.9-11.3-12.3c-11.8-0.4-15,9.3-14.1,16.4c1,7.1,5.9,10.9,5.9,10.9s-0.4-5.7,1.9-7.2
				c2.3-1.5,11.5-4.5,15.5-11.4C509.4,560.2,511.3,562.4,511.5,563.9z"/>
		</g>
		<g>
			
				<ellipse transform="matrix(0.3125 -0.9499 0.9499 0.3125 -195.7057 849.8599)" class="st30" cx="489.3" cy="560.1" rx="9" ry="7.9"/>
		</g>
		<g>
			<path class="st23" d="M503.8,583.2c0,0-1,9.1-0.8,12.1c0,0-5.2,5.2-11.1-6.1c0,0,2.5-4.6,0.6-11
				C490.7,572,503.8,583.2,503.8,583.2z"/>
		</g>
		<g>
			<polygon class="st23" points="503,595.3 503,600 497.1,595.6 			"/>
		</g>
		<g>
			<polygon class="st29" points="503,600 500.5,597 492.2,588.7 489.5,591.3 			"/>
		</g>
		<g>
			<path class="st26" d="M491.1,589.5c0,0,7,10.6,7.3,15.3c0.3,4.7-2.6,39.6-5,50.9c-2.4,11.2-19.3-1.3-19.3-1.3s11.4-18.5,7-33.3
				c-4.4-14.8-6-20.7-6-20.7s1.5-8.2,6.8-9.4C486.7,590,491.1,589.5,491.1,589.5z"/>
		</g>
		<g>
			<path class="st26" d="M518.2,605.3c0,0,1.3,4.5-3.7,14.3c0,0,0.1,12.6,0.2,16.6c0.1,3.9,1.1,18.9,1.1,18.9l-4.9,2.8
				c-1,0.6-2.2-0.2-2.1-1.3c1.4-11.4,5.9-54.4-3.8-66l3.9,1.1C509,591.7,515.9,597.4,518.2,605.3z"/>
		</g>
		<g>
			<path class="st23" d="M495.1,569.1c-0.4-1.1-1.9-1.4-2.7-0.8c-0.8,0.6-1.3,2.5,0,4.9C493.7,575.6,498.4,577.3,495.1,569.1z"/>
		</g>
		<g>
			<polygon class="st31" points="506.1,596.5 509.9,597.5 503.4,587.2 			"/>
		</g>
		<g>
			<polygon class="st31" points="500.5,597 497.1,601.5 489.9,589.6 492.2,588.7 			"/>
		</g>
		<g>
			<path class="st32" d="M503.6,585.2l-0.2,1.8c0,0-4.1,0.8-9.5-5.8C493.9,581.2,497.7,585.9,503.6,585.2z"/>
		</g>
		<g>
			<g>
				<g>
					<path class="st23" d="M524.8,641.2c0,0,2.4,1.6,3.8,0.7c1.2-0.7,3.3-0.8,3.9-0.9c0.9,0,3.4-1.2,3.5-0.1c0.1,1.1-4.1,2-5,2.4
						c-0.8,0.4,2.9,2.2,3.3,3c0.4,0.9-2.9,6.8-5.3,5.3c-2.4-1.5-3.9-4.8-4.4-4.9c-0.5-0.2-1.8-1-1.8-1L524.8,641.2z"/>
				</g>
			</g>
		</g>
		<g>
			<path class="st23" d="M478.8,592.7c0,0,3.4-0.8,6.3,2.3c2.9,3.1,4.4,8.2,5.1,9.9c0.8,1.7,10.4,17,10.9,17.4
				c0.6,0.3,10.3,8.2,14.8,12.5c4.4,4.2,13.1,8.9,13.1,8.9l-3.3,4.6c0,0-26.2-14-29.6-19.1c-3.3-5.1-16.6-19.3-16.6-19.3
				S471.6,597.8,478.8,592.7z"/>
		</g>
		<g>
			<g>
				<g>
					<path class="st23" d="M533.8,645.9c0,0,7,5.2,7.2,5.9c0.2,0.7-0.1,1.1-0.8,0.6c-0.7-0.5-6.9-4.8-6.9-4.8s7.3,7.5,7.6,8.1
						c0.2,0.3-0.4,1.1-0.8,0.9c-0.4-0.2-8-7.3-8-7.3s6.8,7,6.9,7.6c0.1,0.5-0.6,1-1.1,0.5c-0.5-0.5-7.2-6.7-7.2-6.7s4.6,5.4,4.4,6
						c-0.1,0.3-0.6,1-1.7-0.5c-1.1-1.4-4.2-4.6-4.2-4.6L533.8,645.9z"/>
				</g>
			</g>
		</g>
		<path class="st33" d="M515.7,617.2c0,0,0.2,15.8-0.7,23.4l-0.4-20.9L515.7,617.2z"/>
		<g>
			<path class="st26" d="M480.5,591.5c0,0,1.9,0.3,4.8,3.4c2.9,3.1,4.4,8.2,5.1,9.9c0.8,1.7,10.4,17,10.9,17.4
				c0.6,0.3,8.6,5.8,13,10.1c4.4,4.2,12.7,9.3,12.7,9.3l-4.2,6.3c0,0-23.1-12.8-26.8-17.7c-3.9-5.2-17.9-20.5-17.9-20.5
				S469.1,595.7,480.5,591.5z"/>
		</g>
		<g>
			<g>
				<path class="st34" d="M533.3,680c0,0-0.9-3.5-2-4c-1.1-0.5-0.9,0.8-0.9,0.8s-0.2-1.3-1.3-1.2c-1,0.1-0.7,1.6-0.7,1.6
					s-0.4-0.9-1.4-0.5c-1,0.4-0.4,1.6-0.4,1.6s-1.3-1-1.7,0.3c-0.5,2.2,1.1,4.3,1.1,4.3s0.5,0.5,1.4,0c0,0,1.1,1.2,2.3-0.1
					c0,0,1.8,0.5,2-1C531.8,681.7,533.8,682,533.3,680z"/>
			</g>
		</g>
		<path class="st33" d="M496.3,633.8l-7.9-12.8c0,0,6.8,8,7.5,8.8c0.7,0.9,0.8,0.9,0.8,0.9S496.4,633.4,496.3,633.8z"/>
	</g>
	<g>
		<path class="st35" d="M659.4,802.4c0,0,1.8,3.4,3,4.8c1.2,1.4,5.8,3.8,5.8,7.8c0,4.4-7.7,3.2-10.8,3c-3-0.2-3.3-2.5-4.5-5
			c-1.3-2.5-2.6-2.1-2.8-4c-0.2-2,1.2-6.6,1.2-6.6H659.4z"/>
		<g>
			<path class="st35" d="M613.3,802c0,0-3.7,4.2-7.5,5c-3.8,0.9-6.4,2-6.5,4.4c0,2.4,10.9,4,15.2,1.6c6.5-3.6,7.1-2.5,7.9-4.3
				c0.7-1.8-0.9-6.6-0.8-7.2C621.6,800.8,613.3,802,613.3,802z"/>
		</g>
		<g>
			<path class="st36" d="M613.7,800c0,0-0.5,2-0.4,2c0.1,0,8.5,1.1,8.3-0.5c-0.2-1.3-0.5-2.7-0.5-2.7L613.7,800z"/>
		</g>
		<g>
			<path class="st36" d="M651.5,801.1c0,0-0.4,1.9-0.3,1.9c0.1,0,8.6,1.6,8.5,0c0-1.2-0.8-2.7-0.8-2.7L651.5,801.1z"/>
		</g>
		<g>
			<path class="st37" d="M621.4,683.1c0,0-3.1,29.9-4.7,40.1c-1.9,12-2.5,21.9-3,28.1c-0.7,7.8-0.8,46.1-1.2,48.4
				c-0.5,2.3,10.2,0.6,10.2,0.6s5.2-50.1,7.2-58.4c1.8-7.7,8.6-41,10.2-38.9c1.7,2.1,3.7,38.8,5,44.9c1.2,6.1,5,53.8,5,53.8
				s8.5,1.7,10.7-0.2c0,0,1-41.1,0.2-52.6c-0.3-4.4,5.1-52.2-1.8-71.5C655.5,667.4,621.4,683.1,621.4,683.1z"/>
		</g>
		<g>
			<path class="st38" d="M649,676.5c0,0-2.1-3.1-4.2-3.5c-2.2-0.4,30-15.9,29.9-21.5c-0.1-4.5-11.3-12.8-11.3-12.8s0,0,0,0
				c0,0,0-0.1,0-0.1c0,0,0,0,0,0c-0.2,0.9-3.9,14.2-4,20.1c-0.1,6.2,0.4,27.3,0.4,27.3l-8.2,2.2l-26.3,0.2l-6-2.5
				c0,0,0.7-6.8,0.9-11.6c0.2-3,0.7-8.5,0.6-13.8c0,0,0.1-5.6-0.5-8c-0.1-10.6-0.7-21.1-0.7-21.1c-0.4-4.8-0.6-9.3-0.7-13.5
				c1.2-0.6,2.6-1.3,3.7-1.9c3.5-1.6,8.3-3.9,11.4-5.3c1.8-0.8,3.6-1.4,3.6-1.4s12.4-1.2,13.4-1.1c0.3,0,1.9,0.6,3.9,1.3
				c4.4,1.7,12.8,5,14.2,6c2,1.4,14.9,35.6,15.1,37.9C684.3,657.8,649,676.5,649,676.5z"/>
		</g>
		<path class="st39" d="M620,683.8c0,0,18.1,1.5,33.9,0v5.2c0,0-23.6,2.3-34.7-1L620,683.8z"/>
		<g>
			<path class="st40" d="M618.5,617.9c0.1,4.3,0.3,8.8,0.7,13.8c0,0,0.3,12,1,23.3c0.2,1.6,0.4,3.3,0.2,5c-0.2,2.2-0.4,4.6-0.7,7.2
				c0,0,0,0.1,0,0.1c-0.1,0.6-0.1,1.2-0.2,1.8c0,0,0,0,0,0c-1.5,12.7-4.1,27.2-5.5,31.6c-0.3,0.9,0.7,1.8,1.4,2.4l4.9,3.1
				c0,0,2-18.8,2.7-25.1c0.7-6.1,2.7-14.4,3.6-22.4v0c1.1-10.2,2.7-20.2,3.6-26.1c2.2-15.4,5.1-22.4,5.1-22.4
				C634,610.6,618.5,617.9,618.5,617.9z"/>
		</g>
		<g>
			<path class="st40" d="M671,649.9c2.1,4.7-19.7,13.1-19.2,14.2c1.2,2.8,6,8.5,6,8.5s28.7-14.2,28.4-17.4
				c-0.2-2.3-13.7-37.8-15.7-39.2c-1.1-0.8-9.6-3.8-13.7-5.4c-0.8-0.3-3.3-1.3-4-1.5c-0.9,1-6.9,7.7-9.1,32.9
				c-0.4,4.3,0.8,13.3,1.5,20.6c0.8,7.8,1.7,14,2.4,20.5c1.3,12.9,2.2,23.2,2.2,23.2l12.9-5.7c2.1-1,5.7-3.8,4.9-6
				c-3-8.3-7.4-24.1-7.4-31.4c0,0,2.1-20.2,3.2-24.1C663.4,639,668.6,644.6,671,649.9z"/>
		</g>
		<g>
			<path class="st41" d="M649.7,609.6c0,0,0.1-4.2,1.7-12.8c0.4-2.3-13.3,6-13.3,6s0,0.8,0.1,1.9c0,0.6,0,1.2,0,1.9
				c0,0.2,0,0.5,0,0.7c0,0.6,0,1.2-0.1,1.7c-0.1,0.5-0.4,1.4-0.5,1.7C637,611.9,645,612.9,649.7,609.6z"/>
		</g>
		<path class="st37" d="M641.1,614.1l-2.3,3.1c0,0,1.3,1.8,3.7,0.5L641.1,614.1z"/>
		<path class="st37" d="M639.4,617.3c0,0-8.7,33.3-6.9,59.3l2.9,5.1l2.7-5.4c0,0,0.7-46.4,3.1-59.1L639.4,617.3z"/>
		<path class="st41" d="M638.6,611.2l2.4,2.9c0,0,3.9-0.8,5.1-2.8C647.3,609.2,638.6,611.2,638.6,611.2z"/>
		<path class="st42" d="M638.1,608.7c0,0,0.3,2.2,3,5.4l-3,4l-1.6-8.3L638.1,608.7z"/>
		<path class="st42" d="M649.9,606.3c0,0-4.9,6.2-8.9,7.8l1.8,4.6l8.4-10.2L649.9,606.3z"/>
		<g>
			<path class="st23" d="M568.2,652.4c0,0-9.1,1.1-9.6,1.6c-0.5,0.6-0.4,1.1,0.5,1c0.9-0.1,8.8-0.8,8.8-0.8s-10.4,3.1-10.9,3.4
				c-0.3,0.2-0.1,1.2,0.3,1.2c0.5,0,11-2.4,11-2.4s-9.7,2.9-10,3.3c-0.3,0.4,0.1,1.3,0.8,1.1c0.7-0.2,9.9-2.3,9.9-2.3
				s-6.9,2.6-6.9,3.1c0,0.3,0.1,1.2,1.8,0.5c1.8-0.7,6.1-2,6.1-2L568.2,652.4z"/>
		</g>
		<g>
			<g>
				<path class="st23" d="M578.9,652.8c0,0-3,0.2-3.9-1.4c-0.8-1.3-2.7-2.5-3.3-2.8c-0.8-0.5-2.7-2.8-3.3-1.9c-0.6,0.9,3,4,3.6,4.8
					c0.6,0.8-3.7,0.5-4.5,1.1c-0.8,0.6-0.4,7.8,2.6,7.6c3-0.1,5.9-2.3,6.5-2.2c0.5,0.1,2.2,0,2.2,0L578.9,652.8z"/>
			</g>
		</g>
		<g>
			<path class="st40" d="M577.7,659.9c0,0,22.3-3.1,27.2-4.3c2.3-0.6,5.3-3.7,8.1-7.4c0.9-1.2,1.9-2.5,2.7-3.8c0,0,0,0,0,0
				c3.5-5.1,6.3-9.9,6.3-9.9s10.4-12.1,2-17.6c0,0-3.6-0.1-5.5,1c-2,1.1-6.3,10-7,11.6c-0.7,1.6-8.6,16.3-9.1,16.6
				c-0.5,0.3-8.4,2-11.9,2.8c-5.1,1.1-14.6,3-14.6,3L577.7,659.9z"/>
		</g>
		
			<rect x="633.4" y="684" transform="matrix(-1 -1.224647e-16 1.224647e-16 -1 1275.1659 1374.5099)" class="st43" width="8.5" height="6.4"/>
		<path class="st44" d="M647.5,676.8c0,0,1.1,0,1.5-0.3c0,0,0.8-0.5,1.4-0.8c0.2-0.1,0.3-0.2,0.5-0.2c0.5-0.2,1.5-0.5,2.5-1.2
			c1-0.8,4.2-3.8,4.2-3.8l-2.1-3.2l-1-3.2c0,0-7.5,0.7-8.5,1.3c-0.1,0.1-0.2,0.1-0.3,0.2c-0.8,0.6-1.2,1.4-1.5,1.7
			c-0.1,0.1-1.5,1.5-1.4,2.1c0.1,0.8,0.5,1.3,1,1.5c0,0,0.3,1.5,1.1,2.2c0,0,0.2,1.4,1.4,2C646.3,675.2,646.6,676.7,647.5,676.8z"/>
		<path class="st40" d="M657.8,672.6c0,0-4.2-3.4-6.5-8.5l12.8-7l4.8,9.7L657.8,672.6z"/>
		<g>
			<path class="st23" d="M630.8,581.7c0,0-3,5.6-1.5,6.5c1.2,0.7-1.5,6.2-1.8,7.1c-0.4,0.9,2.2,1.6,2.8,2.1c0.6,0.6,2.2,7.7,4.3,7.9
				c2.1,0.2,11.8-3.1,14.4-5.9c2.6-2.7,4.8-15.1,3-20.3C650.2,574.1,636.1,571.9,630.8,581.7z"/>
		</g>
		<g>
			<path class="st45" d="M630.2,582.9c0,0-3.1-6.1,2.5-10.6c5.6-4.5,16,3.4,17.1,3.7c1.2,0.3,7.8,0.8,4.4,12.4
				c-2.9,10-3.3,10.4-3.3,10.4s-2.1-5.8-3.4-6.7c-1.9-1.4-6-1-6-1s2-5.3-1.1-6C637.4,584.4,633.3,581.8,630.2,582.9z"/>
		</g>
		<g>
			<path class="st23" d="M644.9,588.1c0.3-0.7,1.2-3.8,3.8-2c2.7,1.8-1.7,7.7-2.1,7.7C646.1,593.9,642.6,594.2,644.9,588.1z"/>
		</g>
		<path class="st32" d="M638.1,606.6c0,0.2,0,0.5,0,0.7c7.9-2.6,9.4-6.6,9.4-6.6c-2.5,1.7-9.4,4.1-9.4,4.1
			C638.1,605.3,638.1,606,638.1,606.6z"/>
	</g>
</g>
<g id="Layer_5">
</g>
</svg>
