<?xml version="1.0" encoding="utf-8"?>
<!-- Generator: Adobe Illustrator 21.0.0, SVG Export Plug-In . SVG Version: 6.00 Build 0)  -->
<svg version="1.1" xmlns="http://www.w3.org/2000/svg" xmlns:xlink="http://www.w3.org/1999/xlink" x="0px" y="0px"
	 viewBox="0 0 1202 896" style="enable-background:new 0 0 1202 896;" xml:space="preserve">
<style type="text/css">
	.st0{fill:#1CE1E8;}
	.st1{fill:#81F2F2;}
	.st2{display:none;}
	.st3{display:inline;}
	.st4{fill:#606060;}
	.st5{fill:#B7C4CB;}
	.st6{fill:#D6E5ED;}
	.st7{fill:#259CAA;}
	.st8{fill:#FFFFFF;}
	.st9{fill:#083B5A;}
	.st10{fill:#B1B1B1;}
	.st11{fill:#454F56;}
	.st12{fill:none;stroke:#454F56;stroke-width:0.461;stroke-miterlimit:10;}
	.st13{fill:#E09F7A;}
	.st14{fill:#FFCA00;}
	.st15{fill:#F7AC00;}
	.st16{fill:#E3CEC6;}
	.st17{fill:#C77700;}
	.st18{fill:none;stroke:#F7AC00;stroke-width:0.5056;stroke-linecap:round;stroke-linejoin:round;stroke-miterlimit:10;}
	.st19{fill:#FFFFFF;stroke:#D9D9D9;stroke-width:0.5134;stroke-linecap:round;stroke-linejoin:round;stroke-miterlimit:10;}
	.st20{fill:#EDEDED;stroke:#D9D9D9;stroke-width:0.5134;stroke-linecap:round;stroke-linejoin:round;stroke-miterlimit:10;}
	.st21{fill:none;stroke:#454F56;stroke-width:0.1694;stroke-miterlimit:10;}
	.st22{opacity:0.55;fill:#606060;}
	.st23{fill:#DBA585;}
	.st24{fill:#1A232F;}
	.st25{fill:#5A5C5A;}
	.st26{fill:#414D99;}
	.st27{fill:#E6D8D1;}
	.st28{fill:#2C3D54;}
	.st29{fill:#CFC3BC;}
	.st30{fill:#2C323D;}
	.st31{fill:#F3E4DC;}
	.st32{fill:#997761;}
	.st33{fill:#2F386C;}
	.st34{fill:#C99A7D;}
	.st35{fill:#26283A;}
	.st36{fill:#807F7D;}
	.st37{fill:#2E3048;}
	.st38{fill:#D8D6E1;}
	.st39{fill:#232536;}
	.st40{fill:#70A9ED;}
	.st41{fill:#DBA686;}
	.st42{fill:#C1BFC9;}
	.st43{fill:#3E4265;}
	.st44{fill:#DCA787;}
	.st45{fill:#1F2531;}
</style>
<g id="Layer_6">
	<rect y="1.8" class="st0" width="1202" height="896"/>
</g>
<g id="Layer_2">
	<path class="st1" d="M928.6,888.2c67.6-79.2,108.7-183.2,108.7-297c0-248.4-195.2-449.7-436.1-449.7
		c-240.8,0-436.1,201.3-436.1,449.7c0,113.8,41,217.8,108.7,297H928.6z"/>
</g>
<g id="Layer_7" class="st2">
	<g class="st3">
		<g>
			<path class="st4" d="M869.4,451.5c0,6.5-5.2,11.7-11.7,11.7h-438c-6.4,0-11.7-5.2-11.7-11.7V190.7c0-6.4,5.2-11.7,11.7-11.7h438
				c6.5,0,11.7,5.2,11.7,11.7V451.5z"/>
			<path class="st4" d="M378.9,462.6v14.2c0,5.7,15.3,20.5,21.1,20.5h479.4c5.8,0,21.1-14.8,21.1-20.5v-14.2H378.9z"/>
			<path class="st4" d="M392.9,462.6v12.2c0,4.9,14.4,17.6,19.9,17.6h453.8c5.5,0,19.9-12.7,19.9-17.6v-12.2H392.9z"/>
			<path class="st4" d="M864.2,448.9c0,6.2-5.1,11.3-11.4,11.3H424.8c-6.3,0-11.4-5.1-11.4-11.3V197.1c0-6.2,5.1-11.3,11.4-11.3
				h427.9c6.3,0,11.4,5.1,11.4,11.3V448.9z"/>
			<circle class="st4" cx="638.8" cy="200.5" r="5.5"/>
			<rect x="428" y="210.4" class="st4" width="421.6" height="241.5"/>
		</g>
		<rect x="443.3" y="223.3" class="st4" width="396.2" height="217.6"/>
		<rect x="443.3" y="219.6" class="st4" width="396.2" height="20.9"/>
		<g>
			<rect x="675.7" y="337.1" class="st4" width="147" height="9.8"/>
			<rect x="675.7" y="352.7" class="st4" width="147" height="9.8"/>
			<rect x="675.7" y="368.4" class="st4" width="78.3" height="9.8"/>
			<rect x="675.7" y="387.1" class="st4" width="141.3" height="9.8"/>
			<rect x="675.7" y="405.9" class="st4" width="78.3" height="9.8"/>
			<rect x="522.4" y="266.2" class="st4" width="118.3" height="11.3"/>
			<rect x="522.4" y="284.3" class="st4" width="118.3" height="11.3"/>
			<rect x="522.4" y="302.4" class="st4" width="71.4" height="11.3"/>
			<g>
				<rect x="466.2" y="335.3" class="st4" width="183.9" height="22.3"/>
				<g>
					<path class="st4" d="M649.2,336.1v80.9H467v-80.9H649.2 M650.1,335.3H466.2v82.5h183.9V335.3L650.1,335.3z"/>
				</g>
				<line class="st4" x1="466.2" y1="367.2" x2="650.1" y2="367.2"/>
				<line class="st4" x1="466.2" y1="377.2" x2="650.1" y2="377.2"/>
				<line class="st4" x1="466.2" y1="387.1" x2="650.1" y2="387.1"/>
				<line class="st4" x1="466.2" y1="397.1" x2="650.1" y2="397.1"/>
				<line class="st4" x1="466.2" y1="407.1" x2="650.1" y2="407.1"/>
				<line class="st4" x1="484.2" y1="417.8" x2="484.2" y2="335.3"/>
				<line class="st4" x1="593.5" y1="417.8" x2="593.5" y2="335.3"/>
				<line class="st4" x1="622.4" y1="417.8" x2="622.4" y2="335.3"/>
			</g>
		</g>
		<path class="st4" d="M638.8,229.1c0,3.6-2.9,6.5-6.5,6.5H465.8c-3.6,0-6.5-2.9-6.5-6.5l0,0c0-3.6,2.9-6.5,6.5-6.5h166.5
			C635.9,222.7,638.8,225.6,638.8,229.1L638.8,229.1z"/>
		<circle class="st4" cx="790.8" cy="230.1" r="6.1"/>
		<circle class="st4" cx="808" cy="230.1" r="6.1"/>
		<circle class="st4" cx="825.2" cy="230.1" r="6.1"/>
	</g>
	<g class="st3">
		<g>
			<path class="st5" d="M859.1,452.5c0,6.5-5.2,11.7-11.7,11.7h-438c-6.4,0-11.7-5.2-11.7-11.7V191.7c0-6.4,5.2-11.7,11.7-11.7h438
				c6.5,0,11.7,5.2,11.7,11.7V452.5z"/>
			<path class="st5" d="M368.6,463.7v14.2c0,5.7,15.3,20.5,21.1,20.5h479.4c5.8,0,21.1-14.8,21.1-20.5v-14.2H368.6z"/>
			<path class="st6" d="M382.6,463.7v12.2c0,4.9,14.4,17.6,19.9,17.6h453.8c5.5,0,19.9-12.7,19.9-17.6v-12.2H382.6z"/>
			<path class="st6" d="M853.8,450c0,6.2-5.1,11.3-11.4,11.3H414.5c-6.3,0-11.4-5.1-11.4-11.3V198.2c0-6.2,5.1-11.3,11.4-11.3h427.9
				c6.3,0,11.4,5.1,11.4,11.3V450z"/>
			<circle class="st5" cx="628.5" cy="201.6" r="5.5"/>
			<rect x="417.6" y="211.4" class="st7" width="421.6" height="241.5"/>
		</g>
		<rect x="433" y="224.3" class="st8" width="396.2" height="217.6"/>
		<rect x="433" y="220.6" class="st9" width="396.2" height="20.9"/>
		<g>
			<rect x="665.4" y="338.1" class="st10" width="147" height="9.8"/>
			<rect x="665.4" y="353.8" class="st10" width="147" height="9.8"/>
			<rect x="665.4" y="369.4" class="st10" width="78.3" height="9.8"/>
			<rect x="665.4" y="388.2" class="st10" width="141.3" height="9.8"/>
			<rect x="665.4" y="407" class="st10" width="78.3" height="9.8"/>
			<rect x="512.1" y="267.2" class="st10" width="118.3" height="11.3"/>
			<rect x="512.1" y="285.3" class="st10" width="118.3" height="11.3"/>
			<rect x="512.1" y="303.4" class="st10" width="71.4" height="11.3"/>
			<g>
				<rect x="455.8" y="336.3" class="st11" width="183.9" height="22.3"/>
				<g>
					<path class="st11" d="M638.9,337.2V418H456.6v-80.9H638.9 M639.7,336.3H455.8v82.5h183.9V336.3L639.7,336.3z"/>
				</g>
				<line class="st12" x1="455.8" y1="368.3" x2="639.7" y2="368.3"/>
				<line class="st12" x1="455.8" y1="378.2" x2="639.7" y2="378.2"/>
				<line class="st12" x1="455.8" y1="388.2" x2="639.7" y2="388.2"/>
				<line class="st12" x1="455.8" y1="398.2" x2="639.7" y2="398.2"/>
				<line class="st12" x1="455.8" y1="408.1" x2="639.7" y2="408.1"/>
				<line class="st12" x1="473.9" y1="418.8" x2="473.9" y2="336.3"/>
				<line class="st12" x1="583.2" y1="418.8" x2="583.2" y2="336.3"/>
				<line class="st12" x1="612.1" y1="418.8" x2="612.1" y2="336.3"/>
			</g>
		</g>
		<path class="st8" d="M628.5,230.2c0,3.6-2.9,6.5-6.5,6.5H455.4c-3.6,0-6.5-2.9-6.5-6.5l0,0c0-3.6,2.9-6.5,6.5-6.5H622
			C625.6,223.7,628.5,226.6,628.5,230.2L628.5,230.2z"/>
		<circle class="st8" cx="780.5" cy="231.1" r="6.1"/>
		<circle class="st8" cx="797.7" cy="231.1" r="6.1"/>
		<circle class="st8" cx="814.9" cy="231.1" r="6.1"/>
	</g>
	<g class="st3">
		<path class="st13" d="M796.9,303.9c0,0-2.6-5.6-11.3-9.8c-2.2-1.1-5.2,1.9-1.5,3.7c1.8,0.9,2.4,2.5,1.5,2.2
			c-7.2-2.7-9.4-5.4-12.4-3.9c-3,1.5-3.1,9.9,2.5,12.3c5.7,2.4,19.1,3.5,19.1,3.5L796.9,303.9z"/>
		
			<ellipse transform="matrix(7.591161e-02 -0.9971 0.9971 7.591161e-02 434.3199 1044.1559)" class="st14" cx="780.5" cy="287.8" rx="28.3" ry="28.3"/>
		
			<ellipse transform="matrix(7.590934e-02 -0.9971 0.9971 7.590934e-02 434.3218 1044.1573)" class="st15" cx="780.5" cy="287.8" rx="24.1" ry="24.1"/>
		<path class="st16" d="M780.9,310.2c-13.2-1-23.2-12.6-22.2-25.8c0.5-6.9,3.9-12.9,9-17c-6.2,3.9-10.6,10.6-11.2,18.5
			c-1,13.2,8.9,24.8,22.2,25.8c6.3,0.5,12.2-1.5,16.8-5.2C791.3,309.2,786.2,310.6,780.9,310.2z"/>
		<g>
			<path class="st17" d="M784.2,269.8l-0.2,2.1c1.4,0.3,2.6,0.6,3.6,1.2c1,0.5,1.8,1.2,2.5,2.2c0.5,0.7,0.9,1.5,1.2,2.2
				c0.3,0.7,0.4,1.4,0.3,2c-0.1,0.7-0.3,1.2-0.9,1.7c-0.5,0.4-1.1,0.6-1.8,0.6c-1.3-0.1-2.1-0.9-2.4-2.3c-0.3-1.7-1.3-2.9-2.9-3.5
				l-0.6,8.3c1.6,0.6,2.9,1.1,3.8,1.5c0.9,0.4,1.8,1,2.5,1.8c0.8,0.8,1.3,1.7,1.7,2.8c0.4,1,0.5,2.2,0.4,3.4
				c-0.1,1.5-0.6,2.9-1.4,4.2c-0.8,1.3-1.9,2.3-3.4,3c-1.4,0.7-3.1,1.1-5,1.1l-0.4,4.9c-0.1,0.8-0.2,1.3-0.4,1.7
				c-0.2,0.3-0.5,0.5-1,0.5c-0.5,0-0.8-0.2-1-0.5c-0.2-0.3-0.2-0.8-0.2-1.4l0.4-5.4c-1.5-0.3-2.9-0.8-4-1.4c-1.1-0.6-2-1.4-2.7-2.3
				c-0.7-0.9-1.2-1.8-1.5-2.7c-0.3-0.9-0.4-1.8-0.4-2.7c0-0.6,0.3-1.2,0.9-1.7c0.5-0.5,1.2-0.7,1.9-0.6c0.6,0,1.1,0.2,1.5,0.5
				c0.4,0.3,0.6,0.7,0.8,1.2c0.3,1.1,0.5,2,0.7,2.6c0.2,0.6,0.6,1.2,1.1,1.7c0.5,0.5,1.2,0.9,2,1.3l0.7-9.2c-1.7-0.6-3.2-1.3-4.3-2
				c-1.1-0.7-2-1.6-2.7-2.8c-0.7-1.2-0.9-2.6-0.8-4.4c0.2-2.3,1-4.1,2.6-5.4c1.6-1.3,3.7-2,6.5-2.1l0.2-2.1c0.1-1.1,0.5-1.6,1.4-1.6
				C783.9,268.1,784.3,268.7,784.2,269.8z M780.6,283.2l0.6-7.6c-1.1,0.2-2,0.6-2.7,1.1c-0.7,0.5-1,1.3-1.1,2.4
				c-0.1,1,0.1,1.9,0.7,2.4C778.6,282.1,779.5,282.7,780.6,283.2z M782.7,289.3l-0.7,8.7c1.4-0.2,2.4-0.6,3.2-1.4
				c0.8-0.8,1.2-1.7,1.3-2.7c0.1-1.2-0.2-2.1-0.9-2.8C785.1,290.4,784.1,289.8,782.7,289.3z"/>
		</g>
		<line class="st18" x1="778.4" y1="315.5" x2="778.6" y2="312.3"/>
		<line class="st18" x1="752.8" y1="285.7" x2="756" y2="286"/>
		<line class="st18" x1="767.6" y1="312.4" x2="769.1" y2="309.6"/>
		<line class="st18" x1="755.9" y1="275" x2="758.7" y2="276.4"/>
		<line class="st18" x1="773.4" y1="314.6" x2="774.2" y2="311.6"/>
		<line class="st18" x1="753.7" y1="280.7" x2="756.7" y2="281.5"/>
		<line class="st18" x1="783.4" y1="312.2" x2="783.8" y2="315.3"/>
		<line class="st18" x1="763.4" y1="309.6" x2="765.3" y2="307.2"/>
		<line class="st18" x1="758.7" y1="270.7" x2="761.2" y2="272.7"/>
	</g>
	<g class="st3">
		<path class="st13" d="M715.3,303.9c0,0-2.6-5.6-11.3-9.8c-2.2-1.1-5.2,1.9-1.5,3.7c1.8,0.9,2.4,2.5,1.5,2.2
			c-7.2-2.7-9.4-5.4-12.4-3.9c-3,1.5-3.1,9.9,2.5,12.3c5.7,2.4,19.1,3.5,19.1,3.5L715.3,303.9z"/>
		
			<ellipse transform="matrix(7.591161e-02 -0.9971 0.9971 7.591161e-02 358.9458 962.8942)" class="st14" cx="699" cy="287.8" rx="28.3" ry="28.3"/>
		
			<ellipse transform="matrix(7.590934e-02 -0.9971 0.9971 7.590934e-02 358.9476 962.8956)" class="st15" cx="699" cy="287.8" rx="24.1" ry="24.1"/>
		<path class="st16" d="M699.4,310.2c-13.2-1-23.2-12.6-22.2-25.8c0.5-6.9,3.9-12.9,9-17c-6.2,3.9-10.6,10.6-11.2,18.5
			c-1,13.2,8.9,24.8,22.2,25.8c6.3,0.5,12.2-1.5,16.8-5.2C709.8,309.2,704.7,310.6,699.4,310.2z"/>
		<g>
			<path class="st17" d="M702.7,269.8l-0.2,2.1c1.4,0.3,2.6,0.6,3.6,1.2c1,0.5,1.8,1.2,2.5,2.2c0.5,0.7,0.9,1.5,1.2,2.2
				c0.3,0.7,0.4,1.4,0.3,2c-0.1,0.7-0.3,1.2-0.9,1.7c-0.5,0.4-1.1,0.6-1.8,0.6c-1.3-0.1-2.1-0.9-2.4-2.3c-0.3-1.7-1.3-2.9-2.9-3.5
				l-0.6,8.3c1.6,0.6,2.9,1.1,3.8,1.5c0.9,0.4,1.8,1,2.5,1.8c0.8,0.8,1.3,1.7,1.7,2.8c0.4,1,0.5,2.2,0.4,3.4
				c-0.1,1.5-0.6,2.9-1.4,4.2c-0.8,1.3-1.9,2.3-3.4,3c-1.4,0.7-3.1,1.1-5,1.1l-0.4,4.9c-0.1,0.8-0.2,1.3-0.4,1.7
				c-0.2,0.3-0.5,0.5-1,0.5c-0.5,0-0.8-0.2-1-0.5c-0.2-0.3-0.2-0.8-0.2-1.4l0.4-5.4c-1.5-0.3-2.9-0.8-4-1.4c-1.1-0.6-2-1.4-2.7-2.3
				c-0.7-0.9-1.2-1.8-1.5-2.7c-0.3-0.9-0.4-1.8-0.4-2.7c0-0.6,0.3-1.2,0.9-1.7c0.5-0.5,1.2-0.7,1.9-0.6c0.6,0,1.1,0.2,1.5,0.5
				c0.4,0.3,0.6,0.7,0.8,1.2c0.3,1.1,0.5,2,0.7,2.6c0.2,0.6,0.6,1.2,1.1,1.7c0.5,0.5,1.2,0.9,2,1.3l0.7-9.2c-1.7-0.6-3.2-1.3-4.3-2
				c-1.1-0.7-2-1.6-2.7-2.8c-0.7-1.2-0.9-2.6-0.8-4.4c0.2-2.3,1-4.1,2.6-5.4c1.6-1.3,3.7-2,6.5-2.1l0.2-2.1c0.1-1.1,0.5-1.6,1.4-1.6
				C702.4,268.1,702.8,268.7,702.7,269.8z M699.1,283.2l0.6-7.6c-1.1,0.2-2,0.6-2.7,1.1c-0.7,0.5-1,1.3-1.1,2.4
				c-0.1,1,0.1,1.9,0.7,2.4C697.1,282.1,698,282.7,699.1,283.2z M701.2,289.3l-0.7,8.7c1.4-0.2,2.4-0.6,3.2-1.4
				c0.8-0.8,1.2-1.7,1.3-2.7c0.1-1.2-0.2-2.1-0.9-2.8C703.5,290.5,702.5,289.8,701.2,289.3z"/>
		</g>
		<line class="st18" x1="696.9" y1="315.5" x2="697.1" y2="312.4"/>
		<line class="st18" x1="671.3" y1="285.7" x2="674.5" y2="286"/>
		<line class="st18" x1="686.1" y1="312.4" x2="687.6" y2="309.6"/>
		<line class="st18" x1="674.4" y1="275" x2="677.2" y2="276.5"/>
		<line class="st18" x1="691.9" y1="314.7" x2="692.7" y2="311.6"/>
		<line class="st18" x1="672.2" y1="280.7" x2="675.2" y2="281.6"/>
		<line class="st18" x1="701.9" y1="312.3" x2="702.3" y2="315.4"/>
		<line class="st18" x1="681.8" y1="309.7" x2="683.8" y2="307.2"/>
		<line class="st18" x1="677.1" y1="270.7" x2="679.6" y2="272.7"/>
	</g>
	<g class="st3">
		<path class="st13" d="M497.7,305.8c0,0-2.6-5.6-11.3-9.8c-2.2-1.1-5.2,1.9-1.5,3.7c1.8,0.9,2.4,2.5,1.5,2.2
			c-7.2-2.7-9.4-5.4-12.4-3.9c-3,1.5-3.1,9.9,2.5,12.3c5.7,2.4,19.1,3.5,19.1,3.5L497.7,305.8z"/>
		
			<ellipse transform="matrix(7.591161e-02 -0.9971 0.9971 7.591161e-02 156.0207 747.5433)" class="st14" cx="481.3" cy="289.6" rx="28.3" ry="28.3"/>
		
			<ellipse transform="matrix(7.590934e-02 -0.9971 0.9971 7.590934e-02 156.022 747.5447)" class="st15" cx="481.3" cy="289.6" rx="24.1" ry="24.1"/>
		<path class="st16" d="M481.7,312c-13.2-1-23.2-12.6-22.2-25.8c0.5-6.9,3.9-12.9,9-17c-6.2,3.9-10.6,10.6-11.2,18.5
			c-1,13.2,8.9,24.8,22.2,25.8c6.3,0.5,12.2-1.5,16.8-5.2C492.1,311,487.1,312.4,481.7,312z"/>
		<g>
			<path class="st17" d="M485,271.6l-0.2,2.1c1.4,0.3,2.6,0.6,3.6,1.2c1,0.5,1.8,1.2,2.5,2.2c0.5,0.7,0.9,1.5,1.2,2.2
				c0.3,0.7,0.4,1.4,0.3,2c-0.1,0.7-0.3,1.2-0.9,1.7c-0.5,0.4-1.1,0.6-1.8,0.6c-1.3-0.1-2.1-0.9-2.4-2.3c-0.3-1.7-1.3-2.9-2.9-3.5
				l-0.6,8.3c1.6,0.6,2.9,1.1,3.8,1.5c0.9,0.4,1.8,1,2.5,1.8c0.8,0.8,1.3,1.7,1.7,2.8c0.4,1,0.5,2.2,0.4,3.4
				c-0.1,1.5-0.6,2.9-1.4,4.2c-0.8,1.3-1.9,2.3-3.4,3c-1.4,0.7-3.1,1.1-5,1.1l-0.4,4.9c-0.1,0.8-0.2,1.3-0.4,1.7
				c-0.2,0.3-0.5,0.5-1,0.5c-0.5,0-0.8-0.2-1-0.5c-0.2-0.3-0.2-0.8-0.2-1.4l0.4-5.4c-1.5-0.3-2.9-0.8-4-1.4c-1.1-0.6-2-1.4-2.7-2.3
				c-0.7-0.9-1.2-1.8-1.5-2.7c-0.3-0.9-0.4-1.8-0.4-2.7c0-0.6,0.3-1.2,0.9-1.7c0.5-0.5,1.2-0.7,1.9-0.6c0.6,0,1.1,0.2,1.5,0.5
				c0.4,0.3,0.6,0.7,0.8,1.2c0.3,1.1,0.5,2,0.7,2.6c0.2,0.6,0.6,1.2,1.1,1.7c0.5,0.5,1.2,0.9,2,1.3l0.7-9.2c-1.7-0.6-3.2-1.3-4.3-2
				c-1.1-0.7-2-1.6-2.7-2.8c-0.7-1.2-0.9-2.6-0.8-4.4c0.2-2.3,1-4.1,2.6-5.4c1.6-1.3,3.7-2,6.5-2.1l0.2-2.1c0.1-1.1,0.5-1.6,1.4-1.6
				C484.7,269.9,485.1,270.5,485,271.6z M481.5,285l0.6-7.6c-1.1,0.2-2,0.6-2.7,1.1c-0.7,0.5-1,1.3-1.1,2.4c-0.1,1,0.1,1.9,0.7,2.4
				C479.5,283.9,480.3,284.5,481.5,285z M483.5,291.1l-0.7,8.7c1.4-0.2,2.4-0.6,3.2-1.4c0.8-0.8,1.2-1.7,1.3-2.7
				c0.1-1.2-0.2-2.1-0.9-2.8C485.9,292.3,484.9,291.7,483.5,291.1z"/>
		</g>
		<line class="st18" x1="479.2" y1="317.3" x2="479.4" y2="314.2"/>
		<line class="st18" x1="453.7" y1="287.6" x2="456.8" y2="287.8"/>
		<line class="st18" x1="468.5" y1="314.2" x2="469.9" y2="311.4"/>
		<line class="st18" x1="456.7" y1="276.8" x2="459.5" y2="278.3"/>
		<line class="st18" x1="474.2" y1="316.5" x2="475" y2="313.4"/>
		<line class="st18" x1="454.5" y1="282.5" x2="457.6" y2="283.4"/>
		<line class="st18" x1="484.3" y1="314.1" x2="484.6" y2="317.2"/>
		<line class="st18" x1="464.2" y1="311.5" x2="466.1" y2="309"/>
		<line class="st18" x1="459.5" y1="272.5" x2="462" y2="274.5"/>
	</g>
</g>
<g id="Layer_3">
	<g>
		<g>
			<polygon class="st4" points="1021.8,343.8 918.2,345.7 928.9,314.5 1032.5,312.6 			"/>
			<polygon class="st4" points="1031.3,245.5 927.7,247.4 954.1,206.3 1057.7,204.4 			"/>
			<polygon class="st4" points="1023.1,322.6 930.1,324.2 931.5,319.7 1024.8,318.1 			"/>
			<polygon class="st4" points="1020.6,329.7 927.9,331.4 929.6,326.9 1022.3,325.2 			"/>
			<polygon class="st4" points="977.8,337.7 926.6,338.6 927.9,334.1 977.7,333.2 			"/>
			<polygon class="st4" points="1031.6,220.9 974.6,221.9 977.3,216.7 1037.8,215.6 			"/>
			<polygon class="st4" points="1025.8,229.3 971,230.3 973.7,225 1030,224 			"/>
			<polygon class="st4" points="998.2,238 968.2,238.6 970.6,233.3 1000.7,232.8 			"/>
			<g>
				<polygon class="st4" points="1045.1,312.4 943.7,314.3 927.7,247.4 1031.3,245.5 				"/>
				<polygon class="st4" points="1024.3,255.1 940.6,256.6 939.5,252.2 1023.4,250.7 				"/>
				<polygon class="st4" points="1025.8,262.2 942.3,263.8 941.2,259.3 1024.9,257.8 				"/>
				<polygon class="st4" points="988.4,270.1 944,270.9 942.9,266.4 987.4,265.6 				"/>
				<g>
					<polygon class="st4" points="1030.2,283 947.2,284.5 944.8,274.4 1028,272.9 					"/>
				</g>
				<g>
					<path class="st4" d="M1027.7,273.2l7.7,36.8l-81.5,1.5l-8.7-36.8L1027.7,273.2 M1028,272.9l-83.2,1.5l8.9,37.5l82.2-1.5
						L1028,272.9L1028,272.9z"/>
				</g>
				<line class="st4" x1="948.2" y1="288.9" x2="1031.1" y2="287.4"/>
				<line class="st4" x1="949.3" y1="293.4" x2="1032" y2="291.9"/>
				<line class="st4" x1="950.4" y1="297.9" x2="1033" y2="296.5"/>
				<line class="st4" x1="951.4" y1="302.5" x2="1033.9" y2="301"/>
				<line class="st4" x1="952.5" y1="307" x2="1034.9" y2="305.5"/>
				<line class="st4" x1="961.7" y1="311.7" x2="953" y2="274.2"/>
				<line class="st4" x1="1010.6" y1="310.8" x2="1002.4" y2="273.3"/>
				<line class="st4" x1="1023.5" y1="310.6" x2="1015.5" y2="273.1"/>
			</g>
		</g>
		<g>
			<polygon class="st19" points="1016.1,340.2 912.5,342.1 923.2,310.9 1026.8,309 			"/>
			<polygon class="st19" points="1025.6,241.9 921.9,243.8 948.4,202.6 1052,200.7 			"/>
			<polygon class="st10" points="1017.4,318.9 924.4,320.6 925.8,316.1 1019.1,314.4 			"/>
			<polygon class="st10" points="1014.9,326.1 922.2,327.8 923.9,323.3 1016.6,321.6 			"/>
			<polygon class="st10" points="972.1,334 920.9,335 922.2,330.5 972,329.6 			"/>
			<polygon class="st10" points="1025.9,217.3 968.9,218.3 971.6,213.1 1032.1,212 			"/>
			<polygon class="st10" points="1020.1,225.6 965.3,226.6 967.9,221.4 1024.2,220.4 			"/>
			<polygon class="st10" points="992.5,234.4 962.5,234.9 964.8,229.7 995,229.2 			"/>
			<g>
				<polygon class="st20" points="1039.4,308.8 938,310.6 921.9,243.8 1025.6,241.9 				"/>
				<polygon class="st10" points="1018.6,251.5 934.9,253 933.8,248.6 1017.7,247 				"/>
				<polygon class="st10" points="1020.1,258.6 936.6,260.1 935.5,255.7 1019.2,254.2 				"/>
				<polygon class="st10" points="982.6,266.4 938.2,267.2 937.2,262.8 981.7,262 				"/>
				<g>
					<polygon class="st11" points="1024.4,279.4 941.5,280.9 939.1,270.7 1022.3,269.2 					"/>
				</g>
				<g>
					<path class="st11" d="M1022,269.6l7.7,36.8l-81.5,1.5l-8.7-36.8L1022,269.6 M1022.3,269.2l-83.2,1.5l8.9,37.5l82.2-1.5
						L1022.3,269.2L1022.3,269.2z"/>
				</g>
				<line class="st21" x1="942.5" y1="285.3" x2="1025.3" y2="283.8"/>
				<line class="st21" x1="943.6" y1="289.8" x2="1026.3" y2="288.3"/>
				<line class="st21" x1="944.6" y1="294.3" x2="1027.2" y2="292.8"/>
				<line class="st21" x1="945.7" y1="298.8" x2="1028.2" y2="297.3"/>
				<line class="st21" x1="946.8" y1="303.4" x2="1029.1" y2="301.9"/>
				<line class="st21" x1="956" y1="308.1" x2="947.2" y2="270.6"/>
				<line class="st21" x1="1004.9" y1="307.2" x2="996.7" y2="269.7"/>
				<line class="st21" x1="1017.8" y1="307" x2="1009.8" y2="269.4"/>
			</g>
		</g>
	</g>
	<g>
		<g>
			<polygon class="st4" points="182.4,525 78.7,523.1 89.4,554.3 193,556.2 			"/>
			<polygon class="st4" points="191.8,623.3 88.2,621.4 114.7,662.6 218.3,664.4 			"/>
			<polygon class="st4" points="183.7,546.3 90.7,544.6 92.1,549.1 185.3,550.8 			"/>
			<polygon class="st4" points="181.2,539.1 88.5,537.4 90.2,541.9 182.9,543.6 			"/>
			<polygon class="st4" points="138.3,531.2 87.2,530.2 88.5,534.7 138.2,535.6 			"/>
			<polygon class="st4" points="192.1,647.9 135.2,646.9 137.9,652.1 198.4,653.2 			"/>
			<polygon class="st4" points="186.3,639.6 131.5,638.6 134.2,643.8 190.5,644.8 			"/>
			<polygon class="st4" points="158.8,630.8 128.7,630.3 131.1,635.5 161.2,636 			"/>
			<g>
				<polygon class="st4" points="205.6,556.4 104.2,554.6 88.2,621.4 191.8,623.3 				"/>
				<polygon class="st4" points="184.9,613.7 101.2,612.2 100.1,616.6 183.9,618.2 				"/>
				<polygon class="st4" points="186.4,606.6 102.8,605.1 101.8,609.5 185.4,611 				"/>
				<polygon class="st4" points="148.9,598.8 104.5,598 103.5,602.4 147.9,603.2 				"/>
				<g>
					<polygon class="st4" points="190.7,585.8 107.7,584.3 105.3,594.5 188.6,596 					"/>
				</g>
				<g>
					<path class="st4" d="M188.3,595.6l-82.5-1.5l8.7-36.8l81.5,1.5L188.3,595.6 M188.6,596l7.9-37.5l-82.2-1.5l-8.9,37.5L188.6,596
						L188.6,596z"/>
				</g>
				<line class="st4" x1="108.8" y1="579.9" x2="191.6" y2="581.4"/>
				<line class="st4" x1="109.8" y1="575.4" x2="192.6" y2="576.9"/>
				<line class="st4" x1="110.9" y1="570.9" x2="193.5" y2="572.4"/>
				<line class="st4" x1="112" y1="566.3" x2="194.5" y2="567.8"/>
				<line class="st4" x1="113.1" y1="561.8" x2="195.4" y2="563.3"/>
				<line class="st4" x1="122.3" y1="557.1" x2="113.5" y2="594.6"/>
				<line class="st4" x1="171.2" y1="558" x2="163" y2="595.5"/>
				<line class="st4" x1="184.1" y1="558.2" x2="176.1" y2="595.7"/>
			</g>
		</g>
		<g>
			<polygon class="st19" points="174.4,528.6 70.8,526.7 81.5,557.9 185.1,559.8 			"/>
			<polygon class="st19" points="183.9,626.9 80.2,625.1 106.7,666.2 210.3,668.1 			"/>
			<polygon class="st10" points="175.7,549.9 82.7,548.2 84.1,552.7 177.4,554.4 			"/>
			<polygon class="st10" points="173.2,542.7 80.5,541 82.2,545.5 174.9,547.2 			"/>
			<polygon class="st10" points="130.4,534.8 79.2,533.9 80.5,538.4 130.3,539.3 			"/>
			<polygon class="st10" points="184.2,651.6 127.2,650.5 129.9,655.8 190.4,656.9 			"/>
			<polygon class="st10" points="178.4,643.2 123.6,642.2 126.2,647.4 182.6,648.4 			"/>
			<polygon class="st10" points="150.8,634.4 120.8,633.9 123.1,639.1 153.3,639.7 			"/>
			<g>
				<polygon class="st20" points="197.7,560 96.3,558.2 80.2,625.1 183.9,626.9 				"/>
				<polygon class="st10" points="176.9,617.3 93.2,615.8 92.1,620.3 176,621.8 				"/>
				<polygon class="st10" points="178.4,610.2 94.9,608.7 93.8,613.2 177.5,614.7 				"/>
				<polygon class="st10" points="140.9,602.4 96.5,601.6 95.5,606 140,606.8 				"/>
				<g>
					<polygon class="st11" points="182.7,589.4 99.8,587.9 97.4,598.1 180.6,599.6 					"/>
				</g>
				<g>
					<path class="st11" d="M180.3,599.2l-82.5-1.5l8.7-36.8l81.5,1.5L180.3,599.2 M180.6,599.6l7.9-37.5l-82.2-1.5l-8.9,37.5
						L180.6,599.6L180.6,599.6z"/>
				</g>
				<line class="st21" x1="100.8" y1="583.6" x2="183.6" y2="585.1"/>
				<line class="st21" x1="101.9" y1="579" x2="184.6" y2="580.5"/>
				<line class="st21" x1="102.9" y1="574.5" x2="185.5" y2="576"/>
				<line class="st21" x1="104" y1="570" x2="186.5" y2="571.5"/>
				<line class="st21" x1="105.1" y1="565.5" x2="187.4" y2="566.9"/>
				<line class="st21" x1="114.3" y1="560.7" x2="105.5" y2="598.2"/>
				<line class="st21" x1="163.2" y1="561.6" x2="155" y2="599.1"/>
				<line class="st21" x1="176.1" y1="561.9" x2="168.1" y2="599.4"/>
			</g>
		</g>
	</g>
</g>
<g id="Layer_4">
</g>
<g id="Layer_1">
	<ellipse class="st22" cx="513.1" cy="841.2" rx="60.9" ry="20.9"/>
	<ellipse class="st22" cx="644.7" cy="871.4" rx="60.9" ry="20.9"/>
	<g>
		<g>
			<g>
				<g>
					<path class="st23" d="M534.4,748.8c0,0,0.9,0.9,1.3,1.7c0.3,0.7,1.1,1.5,1.5,2c0.4,0.5,1.9,2.8,2.1,3.5c0.1,0.3,0,2.1,0.2,2.6
						c0.2,0.5,0.9,1.5,0.4,1.7c-0.5,0.2-1.3-0.6-1.3-0.6s0.2,0.5-0.2,0.8c-0.7,0.6-1.2,0.3-1.2,0.3s-0.1,0.6-0.5,0.8
						c-0.8,0.4-1.3,0.1-1.3,0.1s-0.3,0.4-0.8,0.5c-0.7,0.2-1.2-0.4-1.2-0.4s-0.9,0.4-1.2,0c-0.4-0.4-0.5-0.8-0.7-1.2
						c-0.2-0.4-1.1-3.8-0.7-6.6c0.5-2.8-1.7-4.9-1.7-4.9L534.4,748.8z"/>
				</g>
			</g>
		</g>
		<g>
			<path class="st24" d="M542,770.2h-12c-1.2,0-2.2-1-2.2-2.2v-7.6c0-1.2,1-2.2,2.2-2.2h12c1.2,0,2.2,1,2.2,2.2v7.6
				C544.2,769.2,543.2,770.2,542,770.2z M530,759.7c-0.4,0-0.7,0.3-0.7,0.7v7.6c0,0.4,0.3,0.7,0.7,0.7h12c0.4,0,0.7-0.3,0.7-0.7
				v-7.6c0-0.4-0.3-0.7-0.7-0.7H530z"/>
		</g>
		<g>
			<rect x="513.5" y="766.9" class="st25" width="45.1" height="32.3"/>
		</g>
		<g>
			<path class="st23" d="M516.9,680.6c0,0-2.3,0-3.3,6.9c-1,6.9,0.9,9.8,1.1,12.7c0.2,2.9,3.6,21.4,3.7,22.2
				c0.1,0.8,0.5,10.7,1.9,13.3c1.3,2.6,11,17.5,11.1,18.2c0.1,0.7,4.7-2.6,4.7-2.6s-7.6-15.9-8-17.7c-0.4-1.8-3.5-11.1-3-13.9
				c0.5-2.8-1.4-18.4-1.2-20.1C524,697.9,521.3,681.6,516.9,680.6z"/>
		</g>
		<g>
			<path class="st26" d="M516.9,680.6c0,0-2.3,0-3.3,6.9c-1,6.9-0.1,9.4,0.5,12.4c0.6,2.8,2.5,20.1,2.6,20.9
				c0.1,0.8,2.4,11.2,3.6,14.9c0.9,2.8,9.5,17.4,9.6,18.1c0.1,0.7,6.7-3.4,6.7-3.4s-8.4-16.4-8.9-18.2c-0.4-1.8-1.9-8.1-1.9-10.9
				c-0.1-3.4-2.2-19.9-2-21.6C524,697.9,523.3,682.9,516.9,680.6z"/>
		</g>
		<path class="st27" d="M497.6,841.5c0,0,4,6,5.6,7.4c0,0,3.7,1.3,4,3.8c0.2,1.7,0,4.3-4.3,4.4c-4.3,0.1-7-1.4-7.8-3.9
			c-0.8-2.6-2.3-3.7-2.3-3.7v5.4h-1c0,0-0.2-5.2-0.3-6.2c-0.1-1-0.7-4.6,1.3-6.3C495,840.8,497.6,841.5,497.6,841.5z"/>
		<path class="st27" d="M524.8,836.7c0,0,0.7,1.6,2,3.4c1,1.3,4,6.4,5.3,6.8c1.3,0.4,5.4,1.1,5.8,3.4c0.4,2.3,0.5,3.9-3.5,4.1
			c-4,0.2-6.7,0.4-8.6-2.4c-1.9-2.8-5-4.9-5-4.9v7.4h-1.6c0,0-0.7-7.7-1.1-8.2c-0.4-0.5-1.5-6.4,2.2-9.5
			C524.1,833.7,524.8,836.7,524.8,836.7z"/>
		<path class="st23" d="M494.9,726.3c0,0-5.1,6.6-6.5,14.4c-1.4,7.8,0.8,34.1,0.8,38c-0.1,3.9-3.7,13.5-2.9,20.8
			c0.7,7.3,6.7,43,6.7,43l4.6-0.9c0,0-0.4-37,0-40c0.4-3.1,1.4-14.2,1.5-15.5c0.2-1.3,11.4-34.3,11.4-40
			C510.5,740.4,507.1,717.1,494.9,726.3z"/>
		<path class="st23" d="M520.4,728.9c0,0,8.3,31.8,9.3,36.2c1,4.4,2.4,8,2.4,9.9c0,4.3-1.6,11.3-1.6,11.3l-5.7,50.4h-4.5
			c0,0-2.8-29.4-3.3-35.4c-0.5-5.9,3.2-15.1,2.3-17.6c-0.9-2.5-14.5-31.6-14.5-31.6S494.7,719.6,520.4,728.9z"/>
		<path class="st23" d="M503.9,849.2c0,0-3.5,1.8-6.7-0.6c-3.2-2.4-4.3-6.2-4.3-6.2l4.6-0.9L503.9,849.2z"/>
		<path class="st23" d="M532.1,846.9c0,0-3.6,0.9-5,0c-1.4-0.9-6.1-8.8-7.6-9.3c0,0,1.5-3.1,5.3-0.8
			C524.8,836.7,531.1,845.6,532.1,846.9z"/>
		<path class="st28" d="M531,770.2c0,0-15.3,9-44,9c0,0-1.6-33.3,2.5-42.7c4.2-9.4,31.9-3.5,31.9-3.5S530.1,763.3,531,770.2z"/>
		<g>
			<path class="st27" d="M510.1,678.1c0,0,4.5,2.1,6,2.4c1.5,0.3,7.5,8.1,8.6,10.9c1.1,2.8,0,7.1-2.2,12.1c-2.2,5-0.1,6.7-1.1,11.7
				c-1,5-1.9,15.6-1.7,18.4c0.2,2.8-25,3.3-30.8-1.8c0,0,5.8-8.7,6.5-9.9c0.7-1.2,0.1-8-0.6-9.7c-0.7-1.7-5.2-16.5-5.2-16.5
				s-3.7-11.3-0.4-13.9c2.9-2.3,10.8-3.1,12.3-3.6C503.1,677.9,507.2,677.6,510.1,678.1z"/>
		</g>
		<g>
			<path class="st29" d="M511.5,688l2.7-3.2l-2.4-8.3C511.9,676.5,511.1,681.1,511.5,688z"/>
		</g>
		<g>
			<path class="st23" d="M504.5,646.5c2.6-0.9,12.4-3.2,14.7,9.2c2.3,12.4-4.6,21.3-10.9,18.9c-6.3-2.4-10.2-10.9-10.6-17.5
				C497.3,650.6,501.2,647.7,504.5,646.5z"/>
		</g>
		<g>
			<path class="st30" d="M519.2,655.7c0,0,0.5-10.6-10.1-11c-10.6-0.4-13.4,8.3-12.6,14.7c0.9,6.3,5.2,9.7,5.2,9.7s-0.4-5.1,1.7-6.5
				c2.1-1.3,10.3-4,13.9-10.2C517.3,652.4,518.9,654.4,519.2,655.7z"/>
		</g>
		<g>
			
				<ellipse transform="matrix(0.3125 -0.9499 0.9499 0.3125 -276.4498 922.75)" class="st30" cx="499.3" cy="652.4" rx="8.1" ry="7.1"/>
		</g>
		<g>
			<path class="st23" d="M512.2,672.9c0,0-0.9,8.2-0.7,10.8c0,0-4.6,4.6-9.9-5.4c0,0,2.2-4.1,0.5-9.8
				C500.5,662.9,512.2,672.9,512.2,672.9z"/>
		</g>
		<g>
			<polygon class="st23" points="511.5,683.8 511.5,688 506.2,684 			"/>
		</g>
		<g>
			<polygon class="st29" points="511.5,688 509.3,685.3 501.9,677.8 499.5,680.2 			"/>
		</g>
		<g>
			<path class="st26" d="M500.8,678.6c0,0,6.2,9.5,6.5,13.7c0.3,4.2-2.3,35.4-4.4,45.4c-2.1,10-17.3-1.1-17.3-1.1
				s10.2-16.5,6.3-29.7c-3.9-13.2-5.3-18.5-5.3-18.5s1.3-7.4,6.1-8.4C497,679,500.8,678.6,500.8,678.6z"/>
		</g>
		<g>
			<path class="st26" d="M525.1,692.7c0,0,1.1,4-3.3,12.8c0,0,0.1,11.3,0.2,14.8c0.1,3.5,1,16.9,1,16.9l-4.3,2.5
				c-0.9,0.5-2-0.2-1.8-1.2c1.2-10.1,5.2-48.6-3.4-59l3.5,1C516.9,680.6,523,685.6,525.1,692.7z"/>
		</g>
		<g>
			<path class="st23" d="M504.5,660.3c-0.4-1-1.7-1.2-2.4-0.7c-0.7,0.6-1.2,2.2,0,4.4C503.2,666.2,507.4,667.7,504.5,660.3z"/>
		</g>
		<g>
			<polygon class="st31" points="514.2,684.8 517.7,685.8 511.9,676.5 			"/>
		</g>
		<g>
			<polygon class="st31" points="509.3,685.3 506.2,689.4 499.8,678.7 501.9,677.8 			"/>
		</g>
		<g>
			<path class="st32" d="M512.1,674.7l-0.2,1.6c0,0-3.7,0.7-8.5-5.2C503.4,671.2,506.8,675.4,512.1,674.7z"/>
		</g>
		<g>
			<g>
				<g>
					<path class="st23" d="M531,724.7c0,0,2.2,1.4,3.4,0.6c1.1-0.7,2.9-0.8,3.5-0.8c0.8,0,3-1,3.1-0.1c0.1,1-3.7,1.8-4.4,2.1
						c-0.8,0.3,2.6,2,2.9,2.7c0.4,0.8-2.6,6.1-4.8,4.7c-2.1-1.4-3.5-4.2-3.9-4.4c-0.4-0.2-1.6-0.9-1.6-0.9L531,724.7z"/>
				</g>
			</g>
		</g>
		<g>
			<path class="st23" d="M489.9,681.4c0,0,3-0.7,5.6,2c2.6,2.8,3.9,7.4,4.6,8.8c0.7,1.5,9.3,15.2,9.8,15.5
				c0.5,0.3,9.2,7.4,13.2,11.1c4,3.8,11.7,8,11.7,8l-2.9,4.1c0,0-23.4-12.5-26.4-17.1c-3-4.6-14.8-17.3-14.8-17.3
				S483.5,686,489.9,681.4z"/>
		</g>
		<g>
			<g>
				<g>
					<path class="st23" d="M539,728.9c0,0,6.3,4.6,6.4,5.3c0.2,0.7-0.1,1-0.7,0.6c-0.6-0.4-6.2-4.3-6.2-4.3s6.5,6.7,6.8,7.2
						c0.1,0.3-0.3,1-0.7,0.8c-0.3-0.2-7.2-6.5-7.2-6.5s6.1,6.3,6.1,6.8c0.1,0.4-0.5,0.9-1,0.5c-0.5-0.4-6.4-6-6.4-6s4.1,4.9,4,5.3
						c-0.1,0.3-0.5,0.9-1.5-0.4c-1-1.3-3.8-4.1-3.8-4.1L539,728.9z"/>
				</g>
			</g>
		</g>
		<path class="st33" d="M522.9,703.3c0,0,0.2,14.1-0.7,20.9l-0.4-18.7L522.9,703.3z"/>
		<g>
			<path class="st26" d="M491.5,680.4c0,0,1.7,0.3,4.3,3.1c2.6,2.8,3.9,7.4,4.6,8.8c0.7,1.5,9.3,15.2,9.8,15.5
				c0.5,0.3,7.7,5.2,11.6,9c4,3.8,11.3,8.3,11.3,8.3l-3.8,5.6c0,0-20.7-11.4-23.9-15.8c-3.5-4.7-16-18.3-16-18.3
				S481.2,684.1,491.5,680.4z"/>
		</g>
		<g>
			<g>
				<path class="st34" d="M538.6,759.4c0,0-0.8-3.1-1.8-3.6c-1-0.5-0.8,0.7-0.8,0.7s-0.2-1.1-1.1-1.1c-0.9,0.1-0.6,1.4-0.6,1.4
					s-0.4-0.8-1.3-0.4c-0.9,0.4-0.4,1.4-0.4,1.4s-1.2-0.9-1.5,0.3c-0.5,2,1,3.8,1,3.8s0.5,0.4,1.3,0c0,0,1,1.1,2.1-0.1
					c0,0,1.6,0.4,1.8-0.9C537.2,760.9,539.1,761.2,538.6,759.4z"/>
			</g>
		</g>
		<path class="st33" d="M505.6,718.2l-7.1-11.4c0,0,6,7.1,6.7,7.9c0.6,0.8,0.7,0.8,0.7,0.8S505.6,717.8,505.6,718.2z"/>
	</g>
	<g>
		<path class="st35" d="M671.2,872.6c0,0,1.7,3.2,2.8,4.4c1.1,1.3,5.3,3.5,5.4,7.2c0,4-7.1,2.9-9.9,2.8c-2.8-0.1-3-2.3-4.2-4.6
			c-1.2-2.3-2.4-1.9-2.6-3.7c-0.2-1.8,1.1-6.1,1.1-6.1H671.2z"/>
		<g>
			<path class="st35" d="M628.6,872.3c0,0-3.4,3.9-6.9,4.7c-3.5,0.8-5.9,1.8-6,4c0,2.2,10.1,3.7,14.1,1.4c6-3.3,6.6-2.3,7.3-4
				c0.7-1.7-0.8-6.1-0.8-6.6C636.3,871.1,628.6,872.3,628.6,872.3z"/>
		</g>
		<g>
			<path class="st36" d="M629,870.4c0,0-0.5,1.8-0.4,1.8c0.1,0,7.9,1,7.7-0.5c-0.2-1.2-0.5-2.5-0.5-2.5L629,870.4z"/>
		</g>
		<g>
			<path class="st36" d="M663.9,871.4c0,0-0.3,1.7-0.3,1.8c0.1,0,7.9,1.4,7.9,0c0-1.1-0.7-2.5-0.7-2.5L663.9,871.4z"/>
		</g>
		<g>
			<path class="st37" d="M636.1,762.4c0,0-2.8,27.6-4.3,37.1c-1.7,11.1-2.3,20.2-2.8,25.9c-0.6,7.2-0.7,42.6-1.1,44.7
				c-0.4,2.1,9.4,0.6,9.4,0.6s4.8-46.3,6.7-53.9c1.7-7.1,7.9-37.9,9.5-35.9c1.5,1.9,3.4,35.9,4.6,41.5c1.1,5.6,4.6,49.7,4.6,49.7
				s7.8,1.6,9.9-0.2c0,0,0.9-38,0.2-48.5c-0.3-4,4.7-48.2-1.7-66C667.6,747.9,636.1,762.4,636.1,762.4z"/>
		</g>
		<g>
			<path class="st38" d="M661.6,756.3c0,0-1.9-2.9-3.9-3.2c-2-0.4,27.7-14.7,27.6-19.9c-0.1-4.2-10.4-11.8-10.4-11.8s0,0,0,0
				c0,0,0-0.1,0-0.1c0,0,0,0,0,0c-0.2,0.8-3.6,13.1-3.7,18.6c-0.1,5.7,0.3,25.2,0.3,25.2l-7.6,2l-24.3,0.2l-5.5-2.3
				c0,0,0.6-6.3,0.8-10.7c0.1-2.8,0.7-7.8,0.5-12.7c0,0,0.1-5.2-0.4-7.4c-0.1-9.8-0.6-19.5-0.6-19.5c-0.3-4.4-0.6-8.6-0.7-12.5
				c1.1-0.6,2.4-1.2,3.4-1.7c3.2-1.5,7.6-3.6,10.5-4.9c1.7-0.8,3.3-1.3,3.3-1.3s11.4-1.1,12.3-1c0.3,0,1.7,0.5,3.6,1.2
				c4,1.5,11.8,4.7,13.1,5.6c1.8,1.3,13.8,32.9,13.9,35C694.1,739.1,661.6,756.3,661.6,756.3z"/>
		</g>
		<path class="st39" d="M634.8,763.1c0,0,16.7,1.4,31.3,0v4.8c0,0-21.8,2.1-32.1-0.9L634.8,763.1z"/>
		<g>
			<path class="st40" d="M633.4,702.2c0.1,3.9,0.3,8.2,0.7,12.7c0,0,0.3,11.1,1,21.5c0.2,1.5,0.3,3,0.2,4.6
				c-0.2,2.1-0.4,4.3-0.6,6.6c0,0,0,0.1,0,0.1c-0.1,0.6-0.1,1.1-0.2,1.7c0,0,0,0,0,0c-1.4,11.7-3.8,25.1-5.1,29.2
				c-0.3,0.8,0.6,1.6,1.3,2.2l4.6,2.9c0,0,1.9-17.3,2.5-23.2c0.6-5.7,2.5-13.3,3.3-20.7v0c1.1-9.4,2.5-18.6,3.3-24.1
				c2-14.3,4.8-20.6,4.8-20.6C647.7,695.5,633.4,702.2,633.4,702.2z"/>
		</g>
		<g>
			<path class="st40" d="M681.9,731.8c2,4.3-18.2,12.1-17.7,13.2c1.1,2.6,5.5,7.8,5.5,7.8s26.5-13.1,26.2-16.1
				c-0.2-2.2-12.7-34.9-14.5-36.2c-1.1-0.8-8.8-3.5-12.7-5c-0.7-0.3-3.1-1.2-3.7-1.4c-0.8,0.9-6.4,7.1-8.4,30.4
				c-0.3,3.9,0.7,12.3,1.4,19c0.7,7.2,1.6,12.9,2.2,19c1.2,11.9,2,21.4,2,21.4l11.9-5.3c1.9-1,5.2-3.5,4.5-5.5
				c-2.7-7.7-6.9-22.3-6.9-29c0,0,1.9-18.6,3-22.3C674.9,721.7,679.7,726.9,681.9,731.8z"/>
		</g>
		<g>
			<path class="st41" d="M662.2,694.6c0,0,0.1-3.9,1.6-11.8c0.4-2.1-12.3,5.6-12.3,5.6s0,0.7,0.1,1.7c0,0.5,0,1.1,0,1.7
				c0,0.2,0,0.4,0,0.6c0,0.6,0,1.1-0.1,1.6c0,0.5-0.3,1.3-0.4,1.5C650.5,696.7,657.9,697.6,662.2,694.6z"/>
		</g>
		<path class="st37" d="M654.2,698.7l-2.1,2.8c0,0,1.2,1.7,3.4,0.4L654.2,698.7z"/>
		<path class="st37" d="M652.7,701.6c0,0-8,30.8-6.3,54.8l2.7,4.7l2.5-5c0,0,0.7-42.9,2.9-54.6L652.7,701.6z"/>
		<path class="st41" d="M652,696l2.3,2.6c0,0,3.6-0.7,4.7-2.6C660,694.2,652,696,652,696z"/>
		<path class="st42" d="M651.4,693.7c0,0,0.3,2,2.8,5l-2.7,3.7l-1.5-7.6L651.4,693.7z"/>
		<path class="st42" d="M662.4,691.5c0,0-4.5,5.7-8.2,7.2l1.7,4.2l7.8-9.4L662.4,691.5z"/>
		<g>
			<path class="st23" d="M586.9,734.1c0,0-8.4,1-8.8,1.5c-0.5,0.5-0.4,1,0.4,0.9c0.8-0.1,8.1-0.7,8.1-0.7s-9.6,2.8-10.1,3.2
				c-0.3,0.2-0.1,1.1,0.3,1.1c0.4,0,10.1-2.2,10.1-2.2s-9,2.7-9.3,3.1c-0.3,0.4,0.1,1.2,0.8,1c0.7-0.2,9.2-2.1,9.2-2.1
				s-6.4,2.4-6.4,2.9c0,0.3,0.1,1.1,1.7,0.4c1.6-0.7,5.6-1.8,5.6-1.8L586.9,734.1z"/>
		</g>
		<g>
			<g>
				<path class="st23" d="M596.8,734.5c0,0-2.8,0.1-3.6-1.3c-0.7-1.2-2.5-2.3-3-2.6c-0.7-0.4-2.5-2.6-3-1.8
					c-0.5,0.9,2.8,3.7,3.3,4.4c0.6,0.7-3.4,0.5-4.2,1c-0.7,0.5-0.3,7.2,2.4,7c2.8-0.1,5.5-2.1,6-2c0.5,0.1,2,0,2,0L596.8,734.5z"/>
			</g>
		</g>
		<g>
			<path class="st40" d="M595.7,741.1c0,0,20.6-2.9,25.1-4c2.1-0.5,4.9-3.4,7.5-6.9c0.9-1.1,1.7-2.3,2.5-3.5c0,0,0,0,0,0
				c3.2-4.7,5.8-9.2,5.8-9.2s9.6-11.2,1.9-16.2c0,0-3.3-0.1-5.1,0.9c-1.9,1-5.8,9.3-6.5,10.7c-0.7,1.5-7.9,15.1-8.4,15.4
				c-0.5,0.3-7.7,1.9-11,2.6c-4.7,1-13.5,2.8-13.5,2.8L595.7,741.1z"/>
		</g>
		
			<rect x="647.1" y="763.3" transform="matrix(-1 -1.224647e-16 1.224647e-16 -1 1302.0242 1532.5476)" class="st43" width="7.8" height="5.9"/>
		<path class="st44" d="M660.2,756.7c0,0,1,0,1.4-0.3c0,0,0.7-0.5,1.3-0.8c0.2-0.1,0.3-0.2,0.4-0.2c0.4-0.2,1.4-0.4,2.3-1.1
			c0.9-0.7,3.9-3.5,3.9-3.5l-1.9-3l-0.9-2.9c0,0-7,0.7-7.9,1.2c-0.1,0.1-0.2,0.1-0.3,0.2c-0.7,0.5-1.1,1.3-1.4,1.6
			c-0.1,0.1-1.3,1.4-1.3,1.9c0.1,0.7,0.5,1.2,0.9,1.4c0,0,0.2,1.4,1,2.1c0,0,0.2,1.3,1.3,1.8C659,755.2,659.4,756.5,660.2,756.7z"/>
		<path class="st40" d="M669.7,752.7c0,0-3.9-3.2-6-7.8l11.9-6.5l4.4,9L669.7,752.7z"/>
		<g>
			<path class="st23" d="M644.7,668.8c0,0-2.8,5.2-1.4,6c1.1,0.7-1.3,5.8-1.7,6.6c-0.3,0.8,2.1,1.4,2.6,2c0.5,0.5,2,7.1,4,7.3
				c2,0.2,10.9-2.9,13.3-5.4c2.4-2.5,4.4-13.9,2.8-18.7C662.7,661.7,649.7,659.8,644.7,668.8z"/>
		</g>
		<g>
			<path class="st45" d="M644.2,669.9c0,0-2.9-5.6,2.3-9.7c5.2-4.2,14.7,3.1,15.8,3.4c1.1,0.3,7.2,0.7,4.1,11.4
				c-2.6,9.2-3,9.6-3,9.6s-2-5.3-3.1-6.2c-1.7-1.3-5.6-1-5.6-1s1.8-4.9-1-5.5C650.8,671.3,647.1,668.9,644.2,669.9z"/>
		</g>
		<g>
			<path class="st23" d="M657.8,674.7c0.3-0.7,1.1-3.5,3.5-1.8c2.5,1.7-1.5,7.1-2,7.1C658.9,680.1,655.6,680.3,657.8,674.7z"/>
		</g>
		<path class="st32" d="M651.5,691.8c0,0.2,0,0.4,0,0.6c7.3-2.4,8.7-6.1,8.7-6.1c-2.3,1.6-8.7,3.7-8.7,3.7
			C651.5,690.6,651.5,691.2,651.5,691.8z"/>
	</g>
</g>
<g id="Layer_5">
</g>
</svg>
