<svg id="Layer_1" data-name="Layer 1" xmlns="http://www.w3.org/2000/svg" viewBox="0 0 100 100"><defs><style>.cls-1{fill:#fff;}.cls-2{fill:#727276;}.cls-3{fill:#e34623;}.cls-4{fill:#fdd700;}.cls-5{fill:#434041;}.cls-6{fill:#1f140f;}</style></defs><title>cay1</title><rect width="100" height="100"/><rect class="cls-1" x="33.51" y="81.91" width="36.73" height="12.45"/><rect class="cls-1" x="18.71" y="94.69" width="68.22" height="1.98"/><rect class="cls-2" x="33.51" y="86.49" width="36.73" height="4.59"/><path class="cls-3" d="M98.1,80V31.41a4.53,4.53,0,0,0-4.53-4.53H8.43A4.53,4.53,0,0,0,3.9,31.41V80Z"/><path class="cls-1" d="M3.9,77.21v3.21c0,.82,2,1.48,4.53,1.48H93.57c2.5,0,4.53-.66,4.53-1.48V77.21Z"/><rect class="cls-1" x="7.92" y="30" width="86.16" height="43.2"/><circle class="cls-3" cx="20.08" cy="26.88" r="18.19"/><path class="cls-1" d="M20.08,41a14.1,14.1,0,1,1,14.1-14.1A14.11,14.11,0,0,1,20.08,41Zm0-26A11.89,11.89,0,1,0,32,26.88,11.9,11.9,0,0,0,20.08,15Z"/><path class="cls-1" d="M20.24,18.06a8,8,0,0,1,4.1.85,7,7,0,0,1,2.56,2.39,4.82,4.82,0,0,1,.43.82,9.27,9.27,0,0,1,.31.91c0,.11.06.24.1.38a.69.69,0,0,1,0,.4.25.25,0,0,1-.18.18l-.3.08H27a.82.82,0,0,1-.32,0H25.29l-.52,0a.65.65,0,0,1-.64-.56,2.06,2.06,0,0,0-.24-.5,3.42,3.42,0,0,0-1.18-1.23,4.81,4.81,0,0,0-1.11-.5,3.06,3.06,0,0,0-1-.14,4.19,4.19,0,0,0-1.05.12l-.34.08a1.88,1.88,0,0,0-.32.11,4.12,4.12,0,0,0-2.27,2.27q-.12.28-.21.59c-.06.21-.13.42-.21.64l0,.31c0,.1,0,.2,0,.31a.75.75,0,0,0,0,.3.9.9,0,0,1,0,.32,1.28,1.28,0,0,0,0,.39c0,.13,0,.27,0,.39a1.56,1.56,0,0,1,0,.19.49.49,0,0,0,0,.19v.21a.49.49,0,0,1,0,.24A.5.5,0,0,0,16,28a2,2,0,0,0,0,.38c0,.17.06.34.09.49a3.92,3.92,0,0,0,.12.44A6,6,0,0,0,17.16,31a3.5,3.5,0,0,0,1.92,1.35l.62.18.22,0h.41a.72.72,0,0,0,.31,0l.31,0a.71.71,0,0,0,.21,0l.53-.09a1.87,1.87,0,0,0,.49-.17,3,3,0,0,0,.94-.63,4.92,4.92,0,0,0,.7-.89,2.71,2.71,0,0,0,.24-.52q.09-.28.21-.57t.14-.47a.57.57,0,0,1,.31-.33,1.11,1.11,0,0,1,.36,0h2.29a.66.66,0,0,1,.37.09.47.47,0,0,1,.18.38,1.47,1.47,0,0,1-.06.5l-.14.64-.23.69a3.77,3.77,0,0,1-.27.64,2.35,2.35,0,0,0-.19.37,1.63,1.63,0,0,1-.19.34A6.83,6.83,0,0,1,23,35.36a3.3,3.3,0,0,1-.52.14L22,35.6a.47.47,0,0,1-.23,0,.45.45,0,0,0-.22,0h-.32l-.32,0H20.1a1.68,1.68,0,0,1-.4,0,.8.8,0,0,0-.24,0l-.33,0-.36,0-.46-.12-.46-.12-.43-.15L17,35a7.26,7.26,0,0,1-2.41-1.65A8.27,8.27,0,0,1,13,30.88a6.25,6.25,0,0,1-.24-.71q-.09-.36-.21-.74a.56.56,0,0,1,0-.2.72.72,0,0,0,0-.18,3.76,3.76,0,0,1-.07-.45,4,4,0,0,0-.07-.45.4.4,0,0,1,0-.2.47.47,0,0,0,0-.18v-.45a1.35,1.35,0,0,1,0-.71.34.34,0,0,0,0-.15,1,1,0,0,1,0-.13v-.21a2.11,2.11,0,0,0,.06-.4c0-.14,0-.28,0-.43a3.25,3.25,0,0,0,.07-.37,3.51,3.51,0,0,1,.07-.37q.09-.33.17-.65a3.54,3.54,0,0,1,.19-.6l.25-.62a3.89,3.89,0,0,1,.3-.57,10.36,10.36,0,0,1,.78-1.18,2.53,2.53,0,0,1,.26-.31l.28-.28a7.33,7.33,0,0,1,1.24-1,9,9,0,0,1,1.48-.75,4.93,4.93,0,0,1,.59-.2l.64-.15a.91.91,0,0,1,.28,0,.71.71,0,0,0,.26,0l.37,0,.37,0a.16.16,0,0,1,.12,0A.15.15,0,0,0,20.24,18.06Z"/><path class="cls-4" d="M61.5,49.75H44.14a2.37,2.37,0,0,1-2.13-1,2.21,2.21,0,0,1,.13-2.3l8.68-14.54a2.21,2.21,0,0,1,4,0L63.49,46.4a2.21,2.21,0,0,1,.13,2.3A2.37,2.37,0,0,1,61.5,49.75Z"/><path class="cls-5" d="M60.38,48.35H45.26A1.45,1.45,0,0,1,43.91,46l7.56-13.09a1.46,1.46,0,0,1,2.7,0L61.73,46a1.45,1.45,0,0,1-1.35,2.34ZM52.82,33.14c-.19,0-.39.16-.55.45L44.95,46.26a.56.56,0,0,0,.55,1H60.14a.56.56,0,0,0,.55-1L53.37,33.58C53.21,33.3,53,33.14,52.82,33.14Z"/><polygon class="cls-5" points="53.48 44.5 52.16 44.5 51.48 36.54 54.16 36.54 53.48 44.5"/><rect class="cls-5" x="52.15" y="45.01" width="1.33" height="1.34"/><path class="cls-6" d="M18.4,52.24h1.05l-1.78,5h-.89l-1.16-3.32-1.17,3.32h-.89l-1.78-5h1.12l1.14,3.46,1.22-3.46H16l1.17,3.5Z"/><path class="cls-6" d="M20.08,57.25v-5h3.46v.86H21.16v1.17H23.4v.86H21.16v1.26h2.37v.86Z"/><path class="cls-6" d="M28.19,55.1a1.26,1.26,0,0,1,.24.78,1.21,1.21,0,0,1-.47,1,2,2,0,0,1-1.28.37H24.3v-5h2.31a2,2,0,0,1,1.24.35,1.13,1.13,0,0,1,.46,1,1.15,1.15,0,0,1-.21.69,1.19,1.19,0,0,1-.58.43A1.26,1.26,0,0,1,28.19,55.1Zm-2.81-.82h1a1.09,1.09,0,0,0,.63-.15.51.51,0,0,0,.2-.44.53.53,0,0,0-.2-.46,1.09,1.09,0,0,0-.63-.15h-1Zm1.81,2a.57.57,0,0,0,.2-.48.59.59,0,0,0-.2-.49,1,1,0,0,0-.64-.16H25.38v1.28h1.17A1.08,1.08,0,0,0,27.19,56.26Z"/><path class="cls-6" d="M29.86,57.16a2.59,2.59,0,0,1-.87-.42l.36-.79a2.78,2.78,0,0,0,1.63.5,1.4,1.4,0,0,0,.72-.15.47.47,0,0,0,.25-.42.42.42,0,0,0-.23-.38,3.09,3.09,0,0,0-.82-.26,4.54,4.54,0,0,1-1.06-.33,1.38,1.38,0,0,1-.58-.47,1.25,1.25,0,0,1-.18-.69,1.37,1.37,0,0,1,.25-.81,1.68,1.68,0,0,1,.71-.56,2.56,2.56,0,0,1,1.05-.2,3.38,3.38,0,0,1,1,.16,2.11,2.11,0,0,1,.79.42l-.36.79a2.42,2.42,0,0,0-1.45-.5,1.21,1.21,0,0,0-.68.17.52.52,0,0,0-.25.46.41.41,0,0,0,.1.28.8.8,0,0,0,.32.2,4.87,4.87,0,0,0,.64.18,3.53,3.53,0,0,1,1.39.55,1.11,1.11,0,0,1,.42.92,1.32,1.32,0,0,1-.55,1.12,2.51,2.51,0,0,1-1.53.41A3.91,3.91,0,0,1,29.86,57.16Z"/><path class="cls-6" d="M33.82,57.25v-5h1.11v5Z"/><path class="cls-6" d="M37.09,57.25V53.14H35.52v-.9h4.25v.9H38.2v4.11Z"/><path class="cls-6" d="M40.35,57.25v-5h3.46v.86H41.43v1.17h2.23v.86H41.43v1.26h2.37v.86Z"/><path class="cls-6" d="M50.12,52.54a2.09,2.09,0,0,1,.9.86,2.72,2.72,0,0,1,.31,1.34A2.77,2.77,0,0,1,51,56.09a2.05,2.05,0,0,1-.9.86,3.12,3.12,0,0,1-1.42.3H46.76V55.14h-.6V54.3h.6V52.24H48.7A3.1,3.1,0,0,1,50.12,52.54Zm.11,2.2a1.65,1.65,0,0,0-.39-1.21,1.62,1.62,0,0,0-1.2-.4h-.76V54.3h1.32v.84H47.87v1.22h.76A1.42,1.42,0,0,0,50.23,54.74Z"/><path class="cls-6" d="M55.87,57.25l-.48-1.11H53.06l-.48,1.11H51.47l2.3-5h.89l2.3,5ZM53.19,51a.69.69,0,0,1,.56-.26.62.62,0,0,1,.25,0l.3.16.22.13a.4.4,0,0,0,.17,0,.25.25,0,0,0,.21-.1.48.48,0,0,0,.09-.26h.46a1.19,1.19,0,0,1-.22.77.69.69,0,0,1-.56.26.62.62,0,0,1-.25,0l-.3-.16-.23-.12a.41.41,0,0,0-.17,0,.25.25,0,0,0-.21.09.46.46,0,0,0-.09.26H53A1.19,1.19,0,0,1,53.19,51Zm.23,4.32H55l-.8-1.88Z"/><path class="cls-6" d="M62.94,52.54a2.09,2.09,0,0,1,.9.86,2.72,2.72,0,0,1,.31,1.34,2.77,2.77,0,0,1-.31,1.35,2.06,2.06,0,0,1-.9.86,3.12,3.12,0,0,1-1.42.3H59.58V55.14H59V54.3h.6V52.24h1.94A3.1,3.1,0,0,1,62.94,52.54Zm.11,2.2a1.65,1.65,0,0,0-.39-1.21,1.62,1.62,0,0,0-1.2-.4h-.76V54.3H62v.84H60.69v1.22h.76A1.42,1.42,0,0,0,63,54.74Z"/><path class="cls-6" d="M68.69,57.25l-.48-1.11H65.88l-.48,1.11H64.29l2.3-5h.89l2.3,5Zm-2.45-5.7a1.07,1.07,0,0,1-.47-.58l.5-.21a1,1,0,0,0,1.54,0l.5.21a1.07,1.07,0,0,1-.47.58,1.69,1.69,0,0,1-1.59,0Zm0,3.75h1.61L67,53.43Z"/><path class="cls-6" d="M73.52,52.24h1v5h-.82l-2.5-3.19v3.19h-1v-5H71l2.5,3.18Z"/><path class="cls-6" d="M79.86,54.49v2.45a3.53,3.53,0,0,1-.85.28,5.07,5.07,0,0,1-1,.1A2.9,2.9,0,0,1,76.62,57a2.13,2.13,0,0,1-.9-.89,3.17,3.17,0,0,1,0-2.74,2.14,2.14,0,0,1,.88-.89,2.77,2.77,0,0,1,1.34-.31,3.28,3.28,0,0,1,1,.15,2.19,2.19,0,0,1,.77.41l-.35.79a2.59,2.59,0,0,0-.68-.36,2.25,2.25,0,0,0-.71-.11q-1.45,0-1.45,1.69A1.91,1.91,0,0,0,76.91,56a1.44,1.44,0,0,0,1.14.43,3.2,3.2,0,0,0,.82-.11v-1.1h-1v-.77Z"/><path class="cls-6" d="M87.39,57.25H86.06l-2.18-2.31v2.31H82.78v-5h1.11v2.2l2.1-2.2H87.3L85,54.64Z"/><path class="cls-6" d="M92,52.24,89.88,55v2.27H88.77V55L86.7,52.24H88l1.36,1.86,1.38-1.86Zm-2.3-.43H89l.73-1.11h1Z"/><path class="cls-6" d="M31.92,63.63a1.26,1.26,0,0,1,.24.78,1.21,1.21,0,0,1-.47,1,2,2,0,0,1-1.28.37H28v-5h2.31a2,2,0,0,1,1.24.35,1.13,1.13,0,0,1,.46,1,1.15,1.15,0,0,1-.21.69,1.19,1.19,0,0,1-.58.43A1.26,1.26,0,0,1,31.92,63.63Zm-2.81-.82h1a1.09,1.09,0,0,0,.63-.15.51.51,0,0,0,.2-.44.53.53,0,0,0-.2-.46,1.09,1.09,0,0,0-.63-.15h-1Zm1.81,2a.57.57,0,0,0,.2-.48.59.59,0,0,0-.2-.49,1,1,0,0,0-.64-.16H29.1v1.28h1.17A1.08,1.08,0,0,0,30.92,64.79Z"/><path class="cls-6" d="M36.75,65.78l-.48-1.11H33.94l-.48,1.11H32.35l2.3-5h.89l2.3,5ZM34.3,63.83h1.61L35.1,62Zm1.05-3.49h-.53v-.16a.23.23,0,0,1,.08-.19,1.11,1.11,0,0,1,.22-.13l.06,0,.07,0a.06.06,0,0,0,0,0q0-.12-.23-.12a1.13,1.13,0,0,0-.41.09l-.14-.38a1.8,1.8,0,0,1,.68-.13,1,1,0,0,1,.55.13.38.38,0,0,1,.21.32.27.27,0,0,1-.09.21,1,1,0,0,1-.25.15l-.19.11a.14.14,0,0,0-.06.12Z"/><path class="cls-6" d="M41.57,60.77h1v5h-.82l-2.5-3.19v3.19h-1v-5h.82l2.5,3.18Z"/><path class="cls-6" d="M49.4,65.73a1.41,1.41,0,0,1,.25.3l.53.87-.95.44-.74-1.21a.65.65,0,0,0-.61-.28,2.56,2.56,0,0,1-1.3-.32,2.14,2.14,0,0,1-.85-.9,3.25,3.25,0,0,1,0-2.72A2.12,2.12,0,0,1,46.6,61a2.85,2.85,0,0,1,2.59,0,2.12,2.12,0,0,1,.85.89,3.25,3.25,0,0,1,0,2.77,2.05,2.05,0,0,1-.92.88A.8.8,0,0,1,49.4,65.73Zm-.53-1.19a2.44,2.44,0,0,0,0-2.54,1.33,1.33,0,0,0-2,0,2.46,2.46,0,0,0,0,2.54,1.32,1.32,0,0,0,2,0Z"/><path class="cls-6" d="M51.71,65.3a2.14,2.14,0,0,1-.55-1.59V60.77h1.09v3a1.34,1.34,0,0,0,.27.91,1.16,1.16,0,0,0,1.59,0,1.33,1.33,0,0,0,.28-.91v-3h1.09v2.94a2.13,2.13,0,0,1-.55,1.59,2.63,2.63,0,0,1-3.21,0Z"/><path class="cls-6" d="M60.83,60.77l-2.08,2.74v2.27H57.65V63.51l-2.07-2.74h1.26l1.36,1.86,1.38-1.86Z"/><path class="cls-6" d="M61,65.78v-5h3.46v.86H62V62.8h2.23v.86H62v1.26h2.37v.86Zm1.4-5.44h-.79l.94-1h.61l.94,1h-.79l-.45-.5Zm1.42-.76-.87-1h.89l.5,1Z"/><path class="cls-6" d="M68.49,60.77h1v5H68.7l-2.5-3.19v3.19h-1v-5H66l2.5,3.18Z"/></svg>