<?xml version="1.0" encoding="utf-8"?>
<!-- Generator: Adobe Illustrator 22.0.0, SVG Export Plug-In . SVG Version: 6.00 Build 0)  -->
<svg version="1.1" id="Layer_1" xmlns="http://www.w3.org/2000/svg" xmlns:xlink="http://www.w3.org/1999/xlink" x="0px" y="0px"
	 viewBox="0 0 1940 374" style="enable-background:new 0 0 1940 374;" xml:space="preserve">
<style type="text/css">
	.st0{opacity:0.2;}
	.st1{fill:#1CA0A4;}
	.st2{fill:#F9D668;}
	.st3{fill:#E0A620;}
	.st4{fill:url(#SVGID_1_);}
	.st5{fill:#DA9A11;}
	.st6{fill:#D99B14;}
	.st7{fill:url(#SVGID_2_);}
	.st8{opacity:0.68;}
	.st9{fill:#FFFFFF;}
	.st10{fill:url(#SVGID_3_);}
	.st11{fill:#F9D45A;}
	.st12{fill:#F9E09E;}
	.st13{fill:#054C4C;}
	.st14{fill:#EDBD3D;}
	.st15{fill:#FCFCFC;}
	.st16{fill:#00A0A2;}
	.st17{opacity:0.35;fill:#00A0A2;enable-background:new    ;}
	.st18{fill:#8E2606;}
	.st19{fill:#F9C3B9;}
	.st20{fill:#EDAFA6;}
	.st21{fill:#601D0D;}
	.st22{fill:#6A2A13;}
	.st23{opacity:0.3;fill:#6A2A13;stroke:#441A0E;stroke-width:0.25;stroke-miterlimit:10;enable-background:new    ;}
	.st24{fill:#2E3741;}
	.st25{opacity:0.43;fill:#F9C3B9;enable-background:new    ;}
	.st26{opacity:0.3;fill:#F9C3B9;enable-background:new    ;}
	.st27{opacity:0.62;fill:#F9C3B9;enable-background:new    ;}
	.st28{fill:none;stroke:#441A0E;stroke-width:0.75;stroke-linecap:round;stroke-miterlimit:10;}
	.st29{fill:#00838F;}
	.st30{fill:#6F2A16;}
	.st31{fill:#511003;}
	.st32{fill:#841F04;}
	.st33{fill:#044745;}
	.st34{fill:#E9E6DA;}
	.st35{fill:#D4CFBF;}
	.st36{fill:#2D2A2C;}
	.st37{opacity:0.59;}
	.st38{fill:#F37402;}
	.st39{fill:#F34605;}
	.st40{fill:#F2B809;}
	.st41{opacity:0.4;fill:#F34605;enable-background:new    ;}
	.st42{fill:#011E1D;}
	.st43{fill:#4B2810;}
	.st44{fill:#5A3212;}
	.st45{fill:#DFF2EA;}
	.st46{fill:#2E3641;}
	.st47{fill:#0BA7A7;}
	.st48{fill:#CEE0D8;}
	.st49{opacity:0.35;}
	.st50{opacity:0.8;}
	.st51{fill:#FAC537;}
	.st52{fill:#F1F0F0;stroke:#454C4C;stroke-width:0.5;stroke-miterlimit:10;}
	.st53{fill:#21963E;}
	.st54{font-family:'Arial-BoldMT';}
	.st55{font-size:61.1537px;}
	.st56{font-family:'ArialMT';}
	.st57{font-size:33.3566px;}
	.st58{font-size:13.8986px;}
</style>
<title>bnnew-01</title>
<g class="st0">
	<path class="st1" d="M1280.3,161.7c66-3.1,73,165.1-73.6,115.8c-0.8-0.3-1.7-0.5-2.5-0.7c-170-46.1-208.5,17.1-208.5,17.1
		s56.3-71.8,258.3,1.3c0,0,68.7,27.3,91-39.1C1362,205.6,1322.2,146.5,1280.3,161.7"/>
	<path class="st1" d="M995.7,294c0,0,75.5-221.3,283.8-122.2c7.8,3.7,13.5-8.6,5.8-12.6c-1.5-0.8-3.2-1.3-4.9-1.5
		c0,0,21.1,18.8-15.4,24.1S1065.2,79.5,995.7,294z"/>
</g>
<image style="overflow:visible;opacity:0.18;enable-background:new    ;" width="195" height="93" xlink:href="F968B9679F7B7F0B.png"  transform="matrix(0.9798 0 0 0.9798 1138.1989 226.8014)">
</image>
<path class="st2" d="M1183.6,253.7l19.4,9.2c-1.9,0.3-3.7,0.6-5.5,0.9c-0.4,0.1-0.7,0.1-1.1,0.2l-2,0.3h-0.2
	c-0.7,0.1-1.4,0.2-2.1,0.4c-1.6,0.3-3.1,0.5-4.6,0.8c-0.3,0.1-0.7,0.1-1,0.2c-0.2,0-0.3,0-0.5,0.1l-2,0.3l-3.2,0.6
	c-0.4,0.1-0.9,0.2-1.3,0.2c-0.9,0.2-1.8,0.3-2.6,0.5c-0.4,0.1-0.8,0.1-1.1,0.2l-1.5,0.3c-0.4,0.1-0.8,0.1-1.1,0.2s-0.6,0.1-0.8,0.2
	c-0.8,0.1-1.6,0.3-2.4,0.4l0,0l-1.4,0.3c-1.4,0.3-2.7,0.5-3.9,0.7C1170.6,263.9,1176.9,258.5,1183.6,253.7z"/>
<path class="st2" d="M1328.4,253.8c-0.5-0.1-0.9-0.1-1.4-0.2l-5.9-0.6c-0.3,0-0.5,0-0.8-0.1c-1.1-0.1-2.3-0.2-3.4-0.2
	c-5.2-0.3-10.9-0.3-16.9-0.2h-1.3c-1.9,0-3.8,0.1-5.8,0.2c-0.5,0-1,0-1.5,0.1c-1,0-2,0.1-3.1,0.1c-1.3,0.1-2.6,0.1-4,0.2l-4.6,0.3
	c-0.5,0-1,0.1-1.5,0.1s-1.3,0.1-1.9,0.1l-4.2,0.3l-10.1,0.9c-0.8,0.1-1.5,0.1-2.3,0.2c-11.6,1.2-23.3,2.7-34.6,4.3l-2.2,0.3
	l-6.1,0.9c-0.4,0.1-0.8,0.1-1.2,0.2c-0.8,0.1-1.5,0.2-2.3,0.4c-0.4,0.1-0.8,0.1-1.2,0.2s-0.8,0.1-1.2,0.2c-1.1,0.2-2.2,0.3-3.2,0.5
	l-10.9-17.1c6.6-3.8,13.5-7.1,20.6-9.8l12.7,19.6l2.1-24c5.7-1.3,11.5-2.2,17.4-2.5l0.7,22.2l11.9-22.2
	C1297.9,230.3,1323.1,249.4,1328.4,253.8z"/>
<path class="st3" d="M1329.4,254.6c-26.4,20.7-50.4,31.8-71.4,36.7l-0.5-23.5l-14.2,26.1l0,0c-4.5,0.5-9.1,0.8-13.6,0.8l5.3-25.3
	l-21.4,24c-7-1-13.8-2.7-20.4-5.1l7.5-15.9l-17.9,11.5c-12.8-6.3-19.7-12.9-19.7-12.9l1.5-1.5c1.3-0.2,2.6-0.5,3.9-0.7
	c0.4-0.1,0.9-0.2,1.4-0.3l0,0c0.8-0.1,1.6-0.3,2.4-0.4c0.3,0,0.6-0.1,0.8-0.2c0.4-0.1,0.8-0.1,1.1-0.2l1.5-0.3
	c0.4-0.1,0.8-0.1,1.1-0.2c0.9-0.1,1.7-0.3,2.6-0.5c0.4-0.1,0.9-0.2,1.3-0.2c1-0.2,2.1-0.4,3.2-0.6c0.6-0.1,1.3-0.2,2-0.3
	c0.2,0,0.3-0.1,0.5-0.1c0.3,0,0.7-0.1,1-0.2c1.5-0.3,3.1-0.5,4.6-0.8c0.7-0.1,1.4-0.2,2.1-0.4h0.2l2-0.3c0.4-0.1,0.7-0.1,1.1-0.2
	c1.8-0.3,3.6-0.6,5.5-0.9l0,0c1.6-0.2,3.1-0.5,4.7-0.7c1.1-0.2,2.1-0.3,3.2-0.5c0.4-0.1,0.8-0.1,1.2-0.2s0.8-0.1,1.2-0.2
	c0.8-0.1,1.5-0.2,2.3-0.4c0.4-0.1,0.8-0.1,1.2-0.2l6.1-0.9l2.2-0.3c11.3-1.6,23.1-3.1,34.6-4.3c0.8-0.1,1.5-0.2,2.3-0.2
	c3.4-0.3,6.8-0.7,10.1-0.9l4.2-0.3c0.6-0.1,1.3-0.1,1.9-0.1c0.5,0,1-0.1,1.5-0.1l4.6-0.3c1.3-0.1,2.7-0.2,4-0.2
	c1-0.1,2.1-0.1,3.1-0.1c0.5,0,1,0,1.5-0.1c1.9-0.1,3.9-0.1,5.8-0.2h1.3c6-0.1,11.7-0.1,16.9,0.2c1.2,0.1,2.3,0.1,3.4,0.2
	c0.3,0,0.5,0,0.8,0.1l3,0.3l2.9,0.3c0.5,0.1,0.9,0.1,1.4,0.2C1328.7,254,1329.1,254.3,1329.4,254.6z"/>
<linearGradient id="SVGID_1_" gradientUnits="userSpaceOnUse" x1="1588.1498" y1="1339.5402" x2="1352.9298" y2="664.1801" gradientTransform="matrix(1 0 0 -1 0 1117.6)">
	<stop  offset="0" style="stop-color:#2FC1C1"/>
	<stop  offset="1" style="stop-color:#F9F4DE;stop-opacity:0"/>
</linearGradient>
<path class="st4" d="M1542.4,96.1c-8.5,4.8-17.7,8.4-27.3,10.5c-21.8,4.8-58,6.9-87.1-20.3c-42.2-39.5-174.3-105-208.5,70.1
	c-4.2,21.6-1.1,44,8.8,63.7c91.5,180.7,200.5,147.3,319.9,112.9c125.5-36.1,215-282.8,103.4-283.8
	C1651.7,49.3,1626.8,48.3,1542.4,96.1z"/>
<path class="st5" d="M1420.8,43h1c-0.6,0.5-1.2,1-1.7,1.5C1420.4,44,1420.6,43.5,1420.8,43z"/>
<path class="st6" d="M1548.3,51.3v1.6c-1-0.9-1.6-1.4-1.8-1.6c0.5,0,1-0.1,1.5-0.1C1548.1,51.2,1548.2,51.3,1548.3,51.3z"/>
<path class="st6" d="M1399.5,70.8c-2.9,2.1-6,3.8-9.4,4.9C1393.1,73.9,1396.3,72.3,1399.5,70.8z"/>
<image style="overflow:visible;opacity:0.18;enable-background:new    ;" width="141" height="211" xlink:href="F968B9679F7B7F09.png"  transform="matrix(0.9485 0 0 0.9581 1224.6383 40.2389)">
</image>
<linearGradient id="SVGID_2_" gradientUnits="userSpaceOnUse" x1="1324.8391" y1="865.1498" x2="1264.2291" y2="1156.6298" gradientTransform="matrix(1 0 0 -1 0 1117.6)">
	<stop  offset="0" style="stop-color:#F9E09E"/>
	<stop  offset="9.000000e-02" style="stop-color:#F0DE9E"/>
	<stop  offset="0.24" style="stop-color:#D6D89F"/>
	<stop  offset="0.43" style="stop-color:#ACCEA1"/>
	<stop  offset="0.65" style="stop-color:#73C0A3"/>
	<stop  offset="0.9" style="stop-color:#2AAEA6"/>
	<stop  offset="0.99" style="stop-color:#0BA7A7"/>
</linearGradient>
<path class="st7" d="M1348.6,197.3c0,0,30.5-42.6-14.3-65.6c-10.7-5.5-18.1-15.9-19.5-27.9c-2.9-25.8-11.3-65.8-34.3-62.2
	c-33.9,5.3-21.6,34.8-11.7,64.3s-34.2,10.2-15.2,46.7s55.8,56.1,50.2,64.3h36.5L1348.6,197.3z"/>
<g class="st8">
	<path class="st9" d="M1313,218.6c-3-14.3-6.8-28.4-11.5-42.2c-9.3-27.2-19.2-41.3-28.5-40.9l-0.1-1.9h0.5c17.7,0,31.2,43,37.5,67.8
		c-8-59-27.7-131.1-27.9-131.9l1.9-0.5c0.2,0.9,24.1,88.2,30,149.5L1313,218.6z"/>
</g>
<image style="overflow:visible;opacity:0.18;enable-background:new    ;" width="148" height="176" xlink:href="F968B9679F7B7F0F.png"  transform="matrix(0.9699 0 0 0.9699 1438.1899 152.101)">
</image>
<linearGradient id="SVGID_3_" gradientUnits="userSpaceOnUse" x1="1481.5768" y1="805.2115" x2="1570.0769" y2="995.6815" gradientTransform="matrix(1 0 0 -1 0 1117.6)">
	<stop  offset="0" style="stop-color:#F9E09E"/>
	<stop  offset="9.000000e-02" style="stop-color:#F0DE9E"/>
	<stop  offset="0.24" style="stop-color:#D6D89F"/>
	<stop  offset="0.43" style="stop-color:#ACCEA1"/>
	<stop  offset="0.65" style="stop-color:#73C0A3"/>
	<stop  offset="0.9" style="stop-color:#2AAEA6"/>
	<stop  offset="0.99" style="stop-color:#0BA7A7"/>
</linearGradient>
<path class="st10" d="M1484.2,299.8c0,0-62.5-48.6-19.8-62c0,0,1.6,27.8,19.8,31c0,0-44.4-77,0-75.4l15,52.9c0,0-18.2-116,34.2-89.3
	c3.9,1.9,7.5,4.5,10.6,7.6c29.3,30.6-35.2,90.7-35.2,90.7s35.8-48.1,55.6-28.9s-37.4,35.8-37.4,35.8s42.8-19.8,41.7,3.2
	s-59.3,34.2-59.3,34.2h-25.2L1484.2,299.8z"/>
<image style="overflow:visible;opacity:0.18;enable-background:new    ;" width="197" height="159" xlink:href="F968B9679F7B7F08.png"  transform="matrix(0.968 0 0 0.968 1128.3762 117.5885)">
</image>
<path class="st11" d="M1303.4,231.5c-6.6-7.3-14.6-16.1-25-24.2c0.1-0.1,0.2-0.1,0.3-0.1h-0.5c-14.5-11.3-33.6-21.4-60.4-24.7
	c-30.2-11.6-65.1-4.2-65.1-4.2c23.8,10.4,53.1,7,63.1,5.4c12.9,1.3,25.5,4.7,37.4,10c-32.7-2.4-72.9,13.4-72.9,13.4
	c12.4,2.3,25.5,1.1,37.2-1.2c-8,2.1-15.9,4.6-23.7,7.5c30.5,5.6,65.3-9.4,72.4-12.7c3.2,2,6.3,4.1,9.3,6.4
	c-32.3-1.6-70.7,13.6-70.7,13.6c29.9,5.5,64.1-8.9,72-12.5c3.9,3,7.6,6.3,11.2,9.7c-32.6-2.1-72.1,13.5-72.1,13.5
	c33.4,16.3,67.3-8.3,72.9-12.7c5.1,4.9,9.5,9.8,13.4,14.1c6.7,7.4,12,13.2,17.2,15.6l0.6-1.3C1315.2,244.5,1310,238.7,1303.4,231.5z
	 M1227.3,203.4c9.1-2.4,17.9-5.6,26.4-9.6c3.9,1.7,7.6,3.7,11.2,5.9C1252.5,199.1,1239.1,200.9,1227.3,203.4z"/>
<path class="st11" d="M1164.9,201.2c31.6,3.5,69.4-13.8,69.4-13.8C1201.5,184.7,1164.9,201.2,1164.9,201.2z"/>
<path class="st12" d="M1185.9,119.7c0,0,9.9,41,36.4,64.1C1222.3,183.8,1212.8,144.2,1185.9,119.7z"/>
<path class="st12" d="M1162.8,139.5c0,0,21.3,31.7,51.2,42.8C1214,182.3,1193.5,151.8,1162.8,139.5z"/>
<path class="st12" d="M1286,214.9c0,0,19.5-44.4-7.8-74.6C1278.3,140.3,1274.2,184.1,1286,214.9z"/>
<path class="st12" d="M1207.5,121.4c0,0,5.7,41.8,29.8,67.4C1237.3,188.8,1231.8,148.5,1207.5,121.4z"/>
<path class="st12" d="M1226.1,122.3c0,0,2.3,42.1,24.3,69.6C1250.4,191.8,1248.2,151.2,1226.1,122.3z"/>
<path class="st12" d="M1247.2,124.9c0,0-2.8,42.1,15.7,72C1262.9,196.9,1265.6,156.3,1247.2,124.9z"/>
<path class="st12" d="M1264.6,133.2c0,0-5.2,41.9,11.7,72.8C1276.3,205.9,1281.2,165.6,1264.6,133.2z"/>
<path class="st12" d="M1296.9,161.1c0,0-9.8,44.5,3.8,76.9C1300.7,238.1,1310.1,195.1,1296.9,161.1z"/>
<image style="overflow:visible;opacity:0.28;enable-background:new    ;" width="95" height="161" xlink:href="F968B9679F7B7F06.png"  transform="matrix(0.9488 0 0 0.9488 1263.6731 180.1684)">
</image>
<path class="st13" d="M1339.3,306.1h-36.6c-5.9,0-10.7-4.8-10.8-10.7V194.3c0-5.9,4.8-10.7,10.7-10.8h36.7c5.9,0,10.7,4.8,10.8,10.7
	v101.1C1350.1,301.3,1345.3,306.1,1339.3,306.1L1339.3,306.1z"/>
<image style="overflow:visible;opacity:0.18;enable-background:new    ;" width="318" height="171" xlink:href="F968B9679F7B7F07.png"  transform="matrix(1.0002 0 0 0.9902 1366.6576 41.7928)">
</image>
<path class="st3" d="M1674.3,146.4c-27.9,3.4-49.1,38-49.1,38c-2.2-20.9-9.6-40.7-19-58.4c-3.3-6.2-6.9-12.2-10.6-17.8
	c-0.8-1.3-1.6-2.5-2.5-3.7c-2.7-4-5.4-7.7-8.1-11.3c-0.6-0.8-1.3-1.7-1.9-2.5c-3-3.8-5.9-7.4-8.8-10.8c0-0.1-0.1-0.1-0.1-0.2
	c-0.6-0.7-1.1-1.3-1.7-1.9c-3.1-3.6-6.2-6.9-9-9.9c-0.5-0.5-0.9-1-1.4-1.5c-6.3-6.6-11.4-11.3-13.9-13.6c-0.8-0.7-1.3-1.2-1.6-1.4
	l-0.2-0.2h-0.1c-0.5-0.1-1-0.2-1.6-0.3c-0.1,0-0.2,0-0.3-0.1c-10.6-2-21.3-3.3-32.1-3.7c-0.8,0-1.7-0.1-2.5-0.1
	c-2.2-0.1-4.4-0.1-6.6-0.1h-2.8c-10.5,0.2-21.1,1.1-31.5,2.7l-3.6,0.6c-3.4,0.6-6.8,1.2-10,1.9l0,0c-1.1,0.2-2.1,0.5-3.2,0.7
	c-17.9,4-35.4,9.9-52,17.7l-0.6,0.3c10.9-8,18.4-21.7,20.6-26.3c0.5-0.5,1-1,1.5-1.4c0.1,0,0.1-0.1,0.2-0.1h102.4
	c7.2,2.3,14,4.6,20.5,7c0.1,0,0.2,0.1,0.3,0.1l1.5,0.6c0.1,0,0.2,0.1,0.3,0.1c0.4,0.1,0.7,0.3,1.1,0.4c0.1,0,0.3,0,0.3,0.1
	c9,3.4,17.3,6.8,25.1,10.3c0.6,0.3,1.2,0.5,1.8,0.8c11.4,5.2,21.6,10.5,30.6,15.7c1.1,0.6,2.2,1.3,3.3,1.9l0,0
	c13.1,7.7,25.3,16.7,36.5,26.9l0.7,0.7c0.7,0.7,1.5,1.4,2.2,2.1c14.8,14.3,21.4,26.1,24.1,32.2c0.8,1.9,1.3,3.2,1.5,3.9
	L1674.3,146.4z"/>
<path class="st14" d="M1546.5,51.3L1546.5,51.3c-0.8,0.1-1.5,0.1-2.2,0.2c-7.5,1-16.3,4.6-25.6,9.7c-0.6,0.3-1.1,0.6-1.7,0.9
	c-3.3,1.9-6.7,4-10.2,6.2c-0.7,0.4-1.3,0.9-2,1.3c-3,2-6.1,4.1-9.1,6.3c-0.8,0.6-1.6,1.2-2.4,1.7c-30,21.9-57.6,49.5-57.6,49.5
	c2.9-15.9-45.7-51.5-45.7-51.5l0,0c2.9-0.9,5.7-2.3,8.2-4c0.4-0.3,0.8-0.5,1.2-0.8c0.6-0.3,1.3-0.6,1.9-0.9
	c16.2-7.5,33.2-13.2,50.7-17.1c1.1-0.2,2.1-0.5,3.2-0.7c14.9-3.2,30-4.9,45.2-5.1h2.8c13.9,0,27.7,1.2,41.3,3.8
	c0.6,0.1,1.2,0.2,1.8,0.4C1546.4,51.2,1546.4,51.2,1546.5,51.3z"/>
<path class="st14" d="M1625.2,184.4c-68.6-25.7-96.7-9-97.2-8.7c18.8-48.6,20.1-111.8,20.2-122.9
	C1559.7,63.1,1618.3,118.5,1625.2,184.4z"/>
<path class="st11" d="M1548.3,52.9c-0.1,11.1-1.4,74.3-20.2,122.9l0,0c-15.4-21.6-92.3-48.6-92.3-48.6s73.1-73.1,110.7-75.9
	C1546.7,51.5,1547.3,52,1548.3,52.9z"/>
<image style="overflow:visible;opacity:0.3;enable-background:new    ;" width="270" height="238" xlink:href="F968B9679F7B7F17.png"  transform="matrix(0.9961 0 0 0.9961 1383.2489 36.7532)">
</image>
<path class="st13" d="M1646.3,107.6l-106.6-26.2l0.3,0.3l-0.9-0.4l-54.9,172.8c-0.5,1.4-1.8,2.3-3.2,2.3c-0.3,0-0.7,0-1-0.2
	c-1.7-0.5-2.7-2.3-2.3-4c0-0.1,0-0.1,0.1-0.2l0,0l54.7-172.1l-39.1-2.5l-95-6c0.4-0.3,0.8-0.5,1.2-0.8l0.6-0.3
	c0.4-0.2,0.9-0.4,1.3-0.6l94.4,6l36.2,2.3l-27-8.6l-52.8-16.8l-30.5-9.7l-0.5-0.1l-0.2-0.1c0.7-0.4,1.4-0.8,2.1-1.1l1.6,0.7l1.5,0.5
	l29.1,9.1l0,0l51.6,16.2l25.7,8.1l-15.7-14L1500.4,47l-4.4-4l-1.4-1.3c-0.4-0.4-0.5-1-0.1-1.4s1-0.5,1.4-0.1l0,0l0.2,0.2l2.8,2.6
	l4.3,4l15.5,14.2l16.1,14.8c0.4-0.2,0.9-0.3,1.4-0.3l8-24.2l0.2-0.7l0.3-0.8l1.2-3.5c0.1-0.2,0.8-0.5,0.9-0.6
	c0.5,0.2,0.4,0.5,0.9,0.7c0.1,0.2,0,0.4,0,0.6l-1.2,3.5l-0.2,0.5l0,0l-8.3,25c0.2,0.1,0.4,0.3,0.6,0.5l23.6-10.3l11.2-4.9
	c0.6,0.3,1.2,0.5,1.8,0.8c-0.1,0.3-0.3,0.6-0.6,0.7l-11,4.8l-22.1,9.6l31.1,0.3l33.2,0.3h3.6c0.4,0,0.8,0.3,0.9,0.7c0,0,0,0,0,0.1
	V79c0,0.5-0.4,0.9-0.9,0.9l0,0h-0.4l-34.8-0.3l-34.4-0.3l101.4,23.6l4.3,1C1645.9,105.1,1646.2,106.3,1646.3,107.6z"/>
<image style="overflow:visible;opacity:0.28;enable-background:new    ;" width="214" height="269" xlink:href="F968B9679F7B7F19.png"  transform="matrix(0.9959 0 0 0.9959 1287.0645 67.9198)">
</image>
<rect x="1290.9" y="103.5" transform="matrix(1.099711e-02 -0.9999 0.9999 1.099711e-02 1197.1725 1594.6398)" class="st13" width="227.6" height="177.3"/>
<rect x="1294" y="106.8" transform="matrix(1.064804e-02 -0.9999 0.9999 1.064804e-02 1197.527 1594.2991)" class="st15" width="221" height="170.4"/>
<rect x="1395.1" y="32.1" transform="matrix(1.064804e-02 -0.9999 0.9999 1.064804e-02 1308.3107 1486.9543)" class="st16" width="21" height="100.5"/>
<path class="st16" d="M1426.8,288.2l-1.2-0.8c1.3-2,7.7-11.8,11.7-11.1c1.2,0.2,2,1.2,2.4,2.9c0.9,4.1,2.6,6.6,5,7.3
	c3.7,1.1,9-1.6,16-8.1l1,1.1c-7.4,6.9-13.2,9.7-17.4,8.5c-2.9-0.9-5-3.7-6-8.4c-0.3-1.1-0.7-1.7-1.2-1.8
	C1434.8,277.3,1429.7,283.6,1426.8,288.2z"/>
<polygon class="st16" points="1443.7,143 1443.7,144.4 1369,143.6 1369,142.2 "/>
<polygon class="st16" points="1469.5,189.9 1469.4,191.3 1369,190.3 1369,188.8 "/>
<polygon class="st16" points="1469.6,174.3 1469.6,175.8 1369,174.7 1369,173.3 "/>
<polygon class="st16" points="1456.7,158.7 1456.7,160.1 1369,159.2 1369,157.7 "/>
<polygon class="st16" points="1469.1,221 1469.1,222.4 1369,221.3 1369,219.9 "/>
<polygon class="st16" points="1469.3,205.4 1469.3,206.9 1369,205.8 1369,204.4 "/>
<polygon class="st16" points="1469,236.5 1468.9,238 1369,236.9 1369,235.4 "/>
<polygon class="st16" points="1468.8,252 1468.8,253.5 1369,252.4 1369,251 "/>
<path class="st17" d="M1369,141.7v135.9c0,8.7-7.1,15.8-15.8,15.8h-1c-8.7,0-15.8-7.1-15.8-15.8V113.7c0-8.7,7.1-15.8,15.8-15.8h1
	c7.5,0,14,5.3,15.5,12.7h-21.6v31L1369,141.7L1369,141.7z"/>
<circle class="st17" cx="1363.4" cy="126.4" r="13.2"/>
<path class="st9" d="M1367.2,120.3c0,1.3-0.6,2.6-1.7,3.4c-0.7,0.5-1.6,0.8-2.5,0.8c-0.8,0-1.6-0.2-2.2-0.7
	c-1.2-0.8-1.9-2.1-1.9-3.5c0-2.3,1.9-4.2,4.2-4.2C1365.4,116.1,1367.2,118,1367.2,120.3L1367.2,120.3z"/>
<path class="st9" d="M1372.4,132.8v0.5h-17.9v-0.5c0-3.9,2.6-7.4,6.3-8.6c1.4,1,3.3,0.9,4.7-0.1c1.6,0.4,3.1,1.2,4.3,2.4
	C1371.5,128.2,1372.4,130.4,1372.4,132.8z"/>
<path class="st18" d="M1436.2,314.1c0.8,0,1.5-0.7,1.5-1.5s-0.7-1.5-1.5-1.5s-1.5,0.7-1.5,1.5S1435.4,314.1,1436.2,314.1z"/>
<image style="overflow:visible;opacity:0.35;enable-background:new    ;" width="90" height="264" xlink:href="F968B9679F7B7F1B.png"  transform="matrix(0.9455 0 0 0.9552 1424.2097 140.245)">
</image>
<path class="st19" d="M1466.8,183.7l4.4-2.4l18.5-1.5l-1.8,9.1c0,0-21.4,2-21.4,1.6S1466.8,183.7,1466.8,183.7z"/>
<path class="st20" d="M1465.7,167.6c-0.2,0-3.8,7.8-3.8,7.8s2.4,4.8,3.3,4.9s3.7-2.1,3.7-2.1L1465.7,167.6z"/>
<ellipse class="st20" cx="1465.7" cy="174.3" rx="1.8" ry="2.7"/>
<path class="st19" d="M1491,169.3c0,10-5.6,18.2-12.6,18.2s-12.6-8.1-12.6-18.2c0-2.1,0.3-4.2,0.7-6.2l22.9-2.5
	C1490.5,163.4,1491,166.3,1491,169.3z"/>
<path class="st21" d="M1465.7,171.6c0,0,3,4.8,4.4-2s3.4-3.9,3.4-3.9s13-8.5,14.6,5.9s-7.3,16.2-7.3,16.2s-1.2,5.5,7.5,8.3l3.7,5.1
	c0,0,6.5-0.8,0-20.3c5.9-22.5-7-26.8-7-26.8s-10.2-5.6-16.4,4.1c0,0-9.5-3.8-9.5,25.5c-17.2,17.7-0.8,21.7-0.8,21.7l12.1-5.6l3.8-13
	c0,0-4.2-2.2-7.2-9.8c0,0-2.2,1.4-3-2.5C1463.8,174.4,1463.6,171.3,1465.7,171.6z"/>
<path class="st19" d="M1481,187.7L1481,187.7c0,2.2,0.9,4.3,2.6,5.7l0.2,0.2l4.2,1.5l10.8,18.2c1.2,2,1.5,4.4,0.9,6.7l-5.5,20.7
	l-0.6,1.1l-3,0.9c-0.9,0.3-2,0.2-2.8-0.4l-1.5-1c-0.1-0.1-0.1-0.2-0.1-0.4l1.8-2l2.2-0.9c1.3-0.5,2.1-1.8,2.1-3.2
	c-0.1-4.6-0.1-14.8,1.4-17.6l-7.9-14.1l-3.4,24.5l4.5,29l-2.7,25.1L1475,333c-0.2,1-0.1,2.1,0.2,3.1c1.1,3.5,3.7,11.8,5.7,11.4
	l2,2.8h-5.6l-7-11.8v-8.2l1.1-28.8c0-0.5,0.1-1.1,0.2-1.6l3.4-17.2c0,0-11.5,29.9-13.5,37.5s-6.8,18.6-6.8,18.6l-1,7.1
	c-0.1,0.7-0.6,1.2-1.3,1.2c-1.7,0.1-4.5-0.2-4.5-4.4c0-5.4,7.4-25.4,8.8-29.2c0.2-0.4,0.3-0.8,0.3-1.3c0.7-4.3,4.6-28.5,9.2-35.4
	l14.9-40.3l-2.8-12.1l-4.2-8.5l-10.7-6.2l-3.7,9.6l11,11l3.4,0.2c0.9,0.1,1.7,0.5,2.2,1.2l0.8,1c0.4,0.6,0.3,1.4-0.3,1.9
	c-0.1,0.1-0.2,0.2-0.4,0.2l-2.9,0.8c-0.7,0.2-1.5,0.1-2.2-0.2l-3.6-1.8c-0.2-0.1-0.5-0.3-0.7-0.4l-12.3-10.2
	c-1.6-1.3-2.2-3.5-1.5-5.4l7.8-21.6l9.6-4.1c1.4-0.6,2.2-1.9,2.2-3.4v-6.9C1473.1,181.8,1479.1,188.8,1481,187.7z"/>
<path class="st22" d="M1483.1,193l5,2c-0.1,2.9,0.2,5.8,1.1,8.5c1.4,3.7,4.5,9.3-3.1,22.8c9,13.5,10.7,14.4,0.8,54.6
	c0,0-11.5,5.4-25.4-1.1l-3.4-30.1c0,0-2.8-15.8,9.3-22c-0.4-1.9-1-3.8-1.7-5.6c-2.3-6.5-2.8-11.5-1.7-19.2c0,0-0.8-7.3-2.8-6.8
	c0,0,5.4-3.4,7.9-3.1C1469.2,193,1475.8,209,1483.1,193z"/>
<path class="st19" d="M1467.1,226.7l3.5,3.5l3.4,0.2c0.9,0.1,1.7,0.5,2.2,1.2l0.8,1c0.4,0.6,0.3,1.4-0.3,1.9
	c-0.1,0.1-0.2,0.2-0.4,0.2l-2.9,0.8c-0.7,0.2-1.5,0.1-2.2-0.2l-3.6-1.8c-0.2-0.1-0.5-0.3-0.7-0.4l-3.6-3c1.2-1.1,2.5-2,3.9-2.7
	C1467.2,227.2,1467.2,226.9,1467.1,226.7z"/>
<path class="st19" d="M1488.1,242.6l-1.5-1c-0.1-0.1-0.1-0.2-0.1-0.4l1.8-2l2.2-0.9c0.8-0.3,1.5-1,1.8-1.8c0.7,1.8,1.2,3.7,1.4,5.6
	l-2.8,0.9C1490,243.3,1488.9,243.1,1488.1,242.6z"/>
<path class="st18" d="M1470.2,334.6c0,0,2.1,2.3,7.2,11.9c0,0,9.6,1.1,6.2,4.8c-2.2,2.1-5.7,2.1-7.9,0c0,0-2.3-7-4.5-7.6l-0.3,7.9
	h-1.4c0,0,0.3-6.8-1.4-11.3C1467.6,338.2,1468.4,335.9,1470.2,334.6z"/>
<path class="st18" d="M1454.8,338.6c0,0-1.2,10.2-5,6.7c-1.2-1.1-1.8-2.8-1.6-4.4c0.2-2.4,0.8-5.9,2.1-6.8c0,0-3.1,3.1-4.3,12.1
	c-0.3,1.9,0.5,3.8,2.1,4.9c1.4,1,3.4,1.3,5.5-1.2L1454.8,338.6z"/>
<polygon class="st19" points="1482.7,185.1 1478.5,190.5 1475.8,184.6 "/>
<path class="st18" d="M1464.1,202.9c0,0-0.8-7.3-2.8-6.8l7.2-3.1h0.7c0,0,6.6,16,13.9,0l0.3,0.1l0.2,0.2l0.2,0.2l4.2,1.5
	c-0.1,2.9,0.2,5.8,1.1,8.5c1.4,2.8,2,5.8,1.8,8.9l-5.2-9.2l-3.3,24.1c-1.7-4.3-4.2-8.1-7.4-11.4L1464.1,202.9z"/>
<ellipse class="st23" cx="1475.4" cy="174.9" rx="1.4" ry="2.1"/>
<path class="st22" d="M1475.4,173.9c0.7,0,1.2,0.4,1.4,1.4c-0.1,1-0.7,1.7-1.4,1.7s-1.2-0.7-1.4-1.7
	C1474,174.5,1474.6,173.9,1475.4,173.9L1475.4,173.9z"/>
<path class="st22" d="M1480.7,177.5c0,0,0.8,1.4,0,1.4V177.5z"/>
<path class="st18" d="M1482.4,182c0,0-2,2.3-5.1,0H1482.4z"/>
<path class="st24" d="M1476.2,173.1c0,0-1.6-1.2-2.2,1.6c0,0-0.3,0.3-0.8-0.3c0,0,0.3,0.3,0.6-0.3
	C1473.7,174.1,1474.7,171.7,1476.2,173.1z"/>
<circle class="st25" cx="1475" cy="176" r="0.4"/>
<ellipse class="st23" cx="1483.8" cy="174.6" rx="1.4" ry="2.1"/>
<path class="st22" d="M1483.8,173.6c-0.7,0-1.2,0.4-1.4,1.4c0.1,1,0.7,1.7,1.4,1.7s1.2-0.7,1.4-1.7
	C1485.2,174.2,1484.6,173.6,1483.8,173.6L1483.8,173.6z"/>
<path class="st24" d="M1483.1,172.8c0,0,1.6-1.2,2.2,1.6c0,0,0.3,0.3,0.8-0.3c0,0-0.3,0.3-0.6-0.3
	C1485.5,173.9,1484.6,171.5,1483.1,172.8z"/>
<circle class="st26" cx="1484.3" cy="176" r="0.4"/>
<circle class="st27" cx="1483.7" cy="174.3" r="0.1"/>
<circle class="st27" cx="1475.5" cy="174.6" r="0.1"/>
<path class="st28" d="M1477.4,169.9c-1.5-1-3.5-0.6-4.6,0.8"/>
<path class="st28" d="M1482.2,169.7c0,0,2.3-1.5,3.9,0"/>
<image style="overflow:visible;opacity:0.38;enable-background:new    ;" width="87" height="136" xlink:href="C22CBFA0CD95CA8.png"  transform="matrix(0.9672 0 0 0.9672 1220.1899 201.3776)">
</image>
<path class="st19" d="M1243.3,269.5l11.1-4.2c0,0,4.1-9.3,3.2-9.3s-11,4.2-11,4.2L1243.3,269.5z"/>
<path class="st29" d="M1276.2,234h-8.4v-13.5h6.8c1.8,0,3.3,1.5,3.3,3.3v8.5c0.1,0.9-0.6,1.6-1.5,1.7l0,0H1276.2z"/>
<path class="st22" d="M1275.9,227L1275.9,227c-0.3-2.3-1.8-4.3-4-5.1l-10.4-4l-6.9,4.8c-2.7,1.8-3.8,5.2-2.8,8.3l0,0
	c1,3.1,3.6,5.3,6.8,5.9l6.1,1l8.8-5.8c0.7-0.5,1.5,0.8,1.9,0.2C1276,231.5,1276.1,228.6,1275.9,227z"/>
<path class="st20" d="M1255.1,239.7l-3.6,0.3c-0.6,0.1-1.1-0.4-1.2-1l-0.3-3.7c-0.1-0.6,0.3-1.1,0.8-1.2c0,0,0,0,0.1,0h0.1l3.6-0.3
	c0.2,0,0.4,0.1,0.4,0.3l0.5,5.2C1255.4,239.5,1255.3,239.7,1255.1,239.7z"/>
<path class="st20" d="M1274.1,238.1l3.6-0.6c0.6-0.1,1-0.7,0.9-1.3l-0.7-3.7c-0.1-0.6-0.7-1-1.3-0.9l-3.5,0.6
	c-0.2,0-0.3,0.2-0.3,0.4l0.9,5.1C1273.8,238.1,1273.9,238.2,1274.1,238.1z"/>
<path class="st19" d="M1294.2,223.5l-1-0.7c-2-1.3-4.6-1.1-6.3,0.6l0,0c-0.8,0.9-1.3,2-1.3,3.2v1c0,2,0.6,3.9,1.7,5.6l0,0
	c0,0,4.2,10.1-11.8,16l-6.5,0.9c-1-0.6-1.6-1.7-1.8-2.8c5.6-1.3,9.2-6.7,8.2-12.4l-0.7-7.7c-0.2-0.1-0.3-0.1-0.4-0.2
	c-1.8,0.8-3.8,0.8-5.6,0c-6.2,1.7-8.3-0.8-9-1.9c1.8,3.7,6.6,3,6.6,3c-3.4,1.7-9.3-3.4-9.3-3.4l-3.4,4.2c0,1.7,0.1,3.5,0.3,5.2
	c0.2,0.7-0.4,0.4-0.8,0.1l0.4,2.7c0.1,1.4,0.4,2.9,1,4.2c1.6,3.5,5,5.9,8.8,6.3l-0.8,1.6l-0.5,0.9l-6.8,1.7l-7.5,4.2
	c0,0-11.5,11.5-2.6,24.6c1.5,2.3,4.4,3.2,6.9,2.2c0.5-0.2,0.8-0.4,0.8-0.6c0-0.8-2.5-5.1-2.5-5.1s-10.1-3.4,0-16.9l7.6-1.7l0.8,53.2
	h1.7l2.5-1.7l0.8-41.4c0,0,9.3,1.7,9.3,3.4s-0.8,39.7-0.8,39.7l2.5,0.8c0,0,1.7,0.8,1.7,0s-1.7-17.7-1.7-17.7v-38
	c0,0,16-7.6,16.9-14.3c0.8-6.4-1.5-10.6,2.7-17.5C1294.3,224.4,1294.3,223.9,1294.2,223.5z"/>
<path class="st19" d="M1266.5,226c-1-0.6-2-1.3-2.9-2.1C1263.6,225.1,1265,225.7,1266.5,226z"/>
<path class="st22" d="M1268.9,221.8c-1.3-0.6-2.8-0.9-4.2-1h-0.8c-1.9,0-3.8,0.5-5.4,1.5l-0.9,0.6c-3.1,1.8-5,5-5,8.6l0.4,2.8
	c0.4,0.3,1,0.6,0.8-0.1c-0.2-1.7-0.3-3.5-0.3-5.2l3.4-4.2c0,0,5.9,5.1,9.3,3.4c0,0-4.7,0.8-6.6-3c0-0.2-0.1-0.3-0.2-0.4
	c0.1,0.2,0.1,0.3,0.2,0.4c0.6,1,2.8,3.6,9,1.9c-0.7-0.3-1.4-0.6-2-1c-1.5-0.3-2.9-1-2.9-2.1c0.9,0.8,1.9,1.5,2.9,2.1
	c1.2,0.3,2.5,0.4,3.8,0.4l-1.8,0.6c1.9,0.8,4.1,1.1,5.9-0.2C1273.4,224.5,1271.4,222.7,1268.9,221.8z"/>
<path class="st22" d="M1266.5,226c0.6,0.4,1.3,0.7,2,1c0.6-0.2,1.2-0.4,1.8-0.6C1269,226.4,1267.8,226.2,1266.5,226z"/>
<path class="st22" d="M1259.6,225.2c-0.1-0.1-0.1-0.3-0.2-0.4S1259.4,224.9,1259.6,225.2z"/>
<ellipse transform="matrix(0.9956 -9.342330e-02 9.342330e-02 0.9956 -16.3349 118.6487)" class="st30" cx="1259.1" cy="233.8" rx="1.6" ry="2.5"/>
<path class="st21" d="M1258.3,232.3c-0.3,0-0.5,0.1-0.7,0.3c-0.1,0.5-0.2,1-0.2,1.5c0.1,1.4,1,2.5,1.9,2.4c0.3,0,0.5-0.1,0.7-0.3
	c0.1-0.5,0.2-1,0.2-1.5C1260,233.3,1259.2,232.2,1258.3,232.3z"/>
<ellipse transform="matrix(0.9919 -0.1271 0.1271 0.9919 -19.297 163.3821)" class="st30" cx="1270.6" cy="232.9" rx="1.6" ry="2.5"/>
<path class="st21" d="M1269.7,231.3c-0.2,0.1-0.5,0.2-0.7,0.3c-0.1,0.5-0.2,1-0.1,1.5c0.2,1.4,1.1,2.4,2,2.3
	c0.2-0.1,0.5-0.2,0.7-0.3c0.1-0.5,0.2-1,0.1-1.5C1271.5,232.2,1270.6,231.2,1269.7,231.3z"/>
<path class="st31" d="M1265.9,244.9c2.6-0.3,4.3-3.6,3.9-7.5l-9.3,0.9C1260.9,242.2,1263.3,245.1,1265.9,244.9z"/>
<path class="st32" d="M1269.8,239.6c-0.5-0.2-1.1-0.3-1.7-0.3c-2.4,0-4.4,1.7-5.4,4.1c0.8,1,2,1.5,3.2,1.4
	C1267.9,244.7,1269.4,242.5,1269.8,239.6z"/>
<path class="st22" d="M1268.9,221.8c-1.3-0.6-2.8-0.9-4.2-1h-0.8c-1.9,0-3.8,0.5-5.4,1.5l-0.9,0.6c-0.8,0.5-1.6,1.2-2.3,1.9h-3.6
	l0.8,7.6c0.1,0.1,0.1,0.2,0.2,0.3l0.2,1.7c0.4,0.3,1,0.6,0.8-0.1c-0.2-1.1-0.3-2.1-0.3-3.2c0.4-2.6,3.3-6.3,3.3-6.3s5.9,5.1,9.3,3.4
	c0,0-4.7,0.8-6.6-3c0-0.2-0.1-0.3-0.2-0.4c0.1,0.2,0.1,0.3,0.2,0.4c0.6,1,2.8,3.6,9,1.9c-0.7-0.3-1.4-0.6-2-1
	c-1.5-0.3-2.9-1-2.9-2.1c0.9,0.8,1.9,1.5,2.9,2.1c1.2,0.3,2.5,0.4,3.8,0.4l-1.8,0.6c1.9,0.8,4.1,1.1,5.9-0.2
	C1273.6,224.6,1271.4,222.8,1268.9,221.8z"/>
<path class="st33" d="M1252.6,231.5c0,0-7.3-11.8,3.4-16.8c12.7-5.9,18.6,9.3,18.6,9.3S1257.7,215.5,1252.6,231.5z"/>
<path class="st22" d="M1255.1,279.8l2.6,27.7h5.1l3.4-22.8h3.4l0.8,22.8h5.9c0,0,4.2-28.7,1.7-32.1S1255.1,279.8,1255.1,279.8z"/>
<path class="st22" d="M1262.8,313.4c0.3,0.6,0.1,1.3-0.5,1.6l0,0c-0.2,0.1-0.3,0.1-0.5,0.1h-11.5c-0.5,0-1-0.4-1-0.9v-0.1l0,0
	c0-0.8,0.7-1.5,1.5-1.5h0.1L1262.8,313.4z"/>
<path class="st22" d="M1283.6,315.1H1272c-0.9,0-1.7-0.8-1.7-1.7l0,0l12.1-1.4c1.1-0.1,2.1,0.7,2.3,1.8v0.2l0,0
	C1284.7,314.6,1284.2,315.1,1283.6,315.1z"/>
<path class="st33" d="M1258.5,309.6c0,0,2.6,2.1,4.3,0.4c0,0,0.8,3.4,0,4.2h-13.5c0-2,1.4-3.8,3.4-4.2
	C1254.6,309.5,1256.6,309.4,1258.5,309.6z"/>
<path class="st29" d="M1252.6,310c-2,0.4-3.4,2.2-3.4,4.2h2.5c0-2,1.4-3.8,3.4-4.2c0.9-0.2,1.9-0.4,2.8-0.5
	C1256.1,309.4,1254.3,309.6,1252.6,310z"/>
<path class="st33" d="M1272,310c0,0,1.2,1.7,4-0.4c0,0,7,0.4,7.8,2.1c0.4,0.8,0.7,1.6,0.8,2.5h-13.3c-0.4,0-0.8-0.3-0.9-0.7
	c0,0,0,0,0-0.1v-0.2C1270.6,312.1,1271,310.5,1272,310z"/>
<path class="st29" d="M1283.9,311.7c-0.8-1.7-7.8-2.1-7.8-2.1c-0.1,0.1-0.2,0.1-0.3,0.2c2.1,0.3,5.1,0.8,5.6,1.9
	c0.4,0.8,0.7,1.6,0.8,2.5h2.5C1284.6,313.3,1284.3,312.5,1283.9,311.7z"/>
<path class="st33" d="M1281,256.3c1.6-0.8,3.1-1.8,4.5-2.9c0-5.5-3-7.3-3.4-7.5v-0.1c-2.5,0-12.7,4.2-12.7,4.2h-0.1
	c-1.9,3.9-6.5,2.2-8.3,1.3l0,0l-0.3-0.1l-0.6-0.3h-0.1l-0.8-0.4c0,0-7.6,1.3-12.1,5.8l0.4,0.5l1.4,2.4c0.5,1.4,0.9,2.9,1.2,4.4
	l4.2-2.1l0.8,21.5c0,0,22.8-1.7,23.6-1.7s-0.4-18.4-0.8-23.3L1281,256.3z"/>
<path class="st29" d="M1281,256.3c1.6-0.8,3.1-1.8,4.5-2.9c0-3.8-1.4-5.8-2.5-6.8c0.5,1.4,0.8,2.8,0.8,4.3c-1.4,1.1-2.9,2.1-4.5,2.9
	l0,0l-3,1.7c0.3,4.9,1.5,23.3,0.8,23.3s-16.9,1.2-22,1.6l0.1,2.6c0,0,22.8-1.7,23.6-1.7s-0.4-18.4-0.8-23.3L1281,256.3z"/>
<circle class="st34" cx="1257.7" cy="271.2" r="12.7"/>
<path class="st35" d="M1262,259.3c2.1,2.3,3.3,5.4,3.3,8.5c0,7-5.5,12.6-12.5,12.7c-1.5,0-3.1-0.3-4.5-0.8
	c4.7,5.2,12.7,5.5,17.9,0.8c2.6-2.4,4.1-5.8,4.1-9.4C1270.4,265.8,1267,261,1262,259.3z"/>
<polygon class="st36" points="1262.5,261.1 1257.7,263.2 1257.7,268.4 1264,269.5 1266.1,264.2 "/>
<path class="st36" d="M1270.3,272.5l-2.5,0.4l-2.8,3.6l0.2,3.2l1.6,0.2C1269,278.1,1270.3,275.4,1270.3,272.5z"/>
<polygon class="st36" points="1248.4,276.2 1249.3,272.9 1253.5,272.9 1256,276.2 1253.5,279.6 1250.1,279.6 1247.1,277.6 "/>
<path class="st19" d="M1247.7,262.4c-2.3,2.3-3.5,5.5-3.5,8.7c0,4.9,2.8,9.3,7.2,11.4c0.2-0.1,0.4-0.3,0.4-0.4
	c-0.4-1.2-0.9-2.3-1.6-3.4c-0.5-0.9-1.3-1.7-2.2-2.3C1245.8,275.1,1242.1,271.2,1247.7,262.4z"/>
<path class="st36" d="M1251.4,260.2l0.4,3.4l-3.4,4.2h-2.4C1246,267.8,1245.9,264.4,1251.4,260.2z"/>
<path class="st36" d="M1253.2,283l1.2-0.8h2.5l1.7,1.7C1258.5,283.8,1254.5,283.8,1253.2,283z"/>
<path class="st29" d="M1256.7,214.6c1.6-0.8,3.3-1.3,5.1-1.3c-2.1-0.1-4.3,0.4-6.2,1.3c-10.7,5-3.4,16.8-3.4,16.8l0,0
	c0.2-0.8,0.2-1.6-0.1-2.4C1250.7,225.4,1249,218.2,1256.7,214.6z"/>
<path class="st9" d="M1261.1,238.3L1261.1,238.3c0.3,1.1,1.4,1.4,2.5,1.2l3.7-0.2c0.9-0.1,1.5-0.8,1.5-1.7l0,0L1261.1,238.3z"/>
<image style="overflow:visible;opacity:0.38;enable-background:new    ;" width="95" height="152" xlink:href="C22CBFA0CD95CAF.png"  transform="matrix(0.9388 0 0 0.9388 1278.1469 215.7411)">
</image>
<path class="st21" d="M1355.5,235.4v-0.1c-4.1-5-9-2.1-10.8-0.6c-4.9-4.9-12.4-5.9-18.4-2.6c-0.9-1.6-4.6-7.3-10.7-3.7l-0.1,0.1
	l-0.5,1.2c0,0.1,0,0.1,0.1,0.1c1.5-0.9,3.4-1.1,5.1-0.4c-1.5-0.7-3.3-0.5-4.7,0.5c-0.3,0.2-0.6,0.5-0.7,0.9l-0.5,1.7
	c0.4-0.1,0.7-0.1,1.1,0c-0.4-0.1-0.9,0-1.2,0.3l-0.7,2.5c0,0,7.7-4,9.7-1.8l1.4-0.5c-3.9,2.8-6.5,7.1-7.1,11.9
	c-1.2,9.3,5,17.8,13.8,19s17-5.5,18.2-14.8c0.6-4.2-0.4-8.4-2.7-11.9c2.8-0.7,8,5.2,8,5.2l0.2-2.6c-0.1-0.4-0.5-0.7-1-0.7
	c0.4,0,0.8,0.2,1.1,0.4l0.2-1.8c0-0.4-0.1-0.8-0.3-1.1c-0.9-1.4-2.5-2.1-4.2-2c2-0.2,3.7,1.2,4.6,2.1c0.1,0,0.1,0,0.1-0.1V235.4z"/>
<path class="st20" d="M1345.2,250.7c0,0,3.1-2.4,3.1,1.4s-3.5,3.5-4,3.5c-0.3,0-0.4-0.7-0.4-1.2s0.1-1.1,0.3-1.6L1345.2,250.7z"/>
<path class="st20" d="M1319.9,246.4c0,0-2.5-2.8-3.1,0.9s2.8,4,3.2,4.1c0.2,0,0.5-0.6,0.6-1.2c0.1-0.5,0.1-1.1,0-1.6L1319.9,246.4z"
	/>
<path class="st19" d="M1356.2,292.1c-0.3-0.4-0.8-0.6-1.3-0.6c-1.6-0.3-5.6-1.4-7.1-7.1c-2-7.2-4.5-17.2-9.7-17.7
	c-3.4-0.3-4.1-1.3-4.1-2.3c5.6-1,10.4-6,11.6-12.7c1.5-8.3-3.2-16-10.5-17.3s-14.3,4.4-15.7,12.7s3.2,16,10.5,17.3
	c0.2,0,0.5,0.1,0.7,0.1l0,0c0.1,1.1-0.7,2.1-1.8,2.3h-0.1c-1.4,0.2-2.7,1.1-3.5,2.3c-3,4.3-10,13.3-16.5,13.3c0,0-4.6-1.3-5.2-1.3
	s-4.6,2-3.3,2.6s17.5,4.8,23.1-6.4l3,21.4L1323,313l1.1,2.4c1.3,5.8,2.1,11.8,2.2,17.8l-4.6,3.9h9.1v-3.9c0,0,2-18.9,0.7-23.5
	s4.6,6.5,4.6,6.5s10.4,15.6,9.1,16.9l2.6,4.6c0,0,3.3,0.7,3.3-2s-8.5-24.8-11.7-27.4s-1.3-8.5-1.3-8.5l0.7-19.6l1.3-4.6
	c0,0,5.9,16.9,11.7,18.2c0,0,4.6,2.6,5.9,1.3C1358.4,294.5,1357,292.9,1356.2,292.1z"/>
<g class="st37">
	
		<ellipse transform="matrix(0.1302 -0.9915 0.9915 0.1302 908.4015 1530.2844)" class="st30" cx="1326.4" cy="247.4" rx="2.2" ry="1.4"/>
	
		<ellipse transform="matrix(0.1302 -0.9915 0.9915 0.1302 916.8362 1543.8552)" class="st30" cx="1338.3" cy="249.4" rx="2.2" ry="1.4"/>
</g>
<path class="st21" d="M1325.9,245.8c-0.2,0-0.4,0-0.6,0.1c-0.2,0.4-0.4,0.8-0.4,1.2c-0.2,1.2,0.3,2.3,1.1,2.4c0.2,0,0.4,0,0.6-0.1
	c0.2-0.4,0.4-0.8,0.4-1.2C1327.2,246.9,1326.7,245.9,1325.9,245.8z"/>
<path class="st21" d="M1337.9,247.9c-0.2,0-0.4,0-0.6,0.1c-0.2,0.4-0.4,0.8-0.4,1.2c-0.2,1.2,0.3,2.3,1.1,2.4c0.2,0,0.4,0,0.6-0.1
	c0.2-0.4,0.4-0.8,0.4-1.2C1339.2,249.1,1338.7,248,1337.9,247.9z"/>
<path class="st31" d="M1330.7,259.9c2.1,0.3,4.3-2,4.8-5.2l-7.7-1.2C1327.3,256.6,1328.6,259.5,1330.7,259.9z"/>
<path class="st30" d="M1335.5,232.5c-12.8-2.2-15.5,12.1-15.5,12.1c5.4-1.5,11.2-1.3,16.5,0.5c0.5,0.2,1,0.2,1.5,0l0,0
	c0,0,1.5-0.4,2-3.7c-0.1,1-0.3,2-0.5,3c-0.1,0.7,0.2,1.3,0.8,1.6c2,0.8,3.9,1.9,5.6,3.1C1346,244.1,1346,234.7,1335.5,232.5z"/>
<ellipse transform="matrix(5.757364e-02 -0.9983 0.9983 5.757364e-02 1016.4377 1540.4668)" class="st38" cx="1324.2" cy="231.9" rx="2.2" ry="2.2"/>
<path class="st39" d="M1323.1,229.8c-0.3,0.4-0.5,0.8-0.5,1.3c-0.1,1.2,0.8,2.3,2.1,2.4l0,0c0.5,0,1-0.1,1.4-0.4
	c-0.5,0.5-1.1,0.8-1.8,0.8c-1.2-0.1-2.2-1.1-2.1-2.4l0,0l0,0C1322.1,230.8,1322.5,230.1,1323.1,229.8z"/>
<path class="st40" d="M1325.4,230.3c0,0,1.6,0.9,0.3,2.1C1325.7,232.3,1326.2,230.3,1325.4,230.3z"/>
<ellipse transform="matrix(0.2651 -0.9642 0.9642 0.2651 746.6288 1446.9216)" class="st38" cx="1322.5" cy="233.7" rx="1.6" ry="1.6"/>
<path class="st39" d="M1323.9,232.6c0.1,0.3,0.2,0.7,0.1,1c-0.2,0.8-1,1.3-1.8,1.2c-0.1,0-0.1,0-0.2-0.1c-0.4-0.1-0.7-0.3-0.9-0.6
	c0.2,0.5,0.6,0.8,1.1,1c0.8,0.2,1.7-0.3,2-1.1C1324.3,233.5,1324.2,233,1323.9,232.6z"/>
<path class="st40" d="M1322.1,232.4c0,0-1.3,0.3-0.7,1.4C1321.4,233.7,1321.5,232.2,1322.1,232.4z"/>
<circle class="st38" cx="1344.4" cy="234.6" r="2.2"/>
<path class="st39" d="M1345.8,232.8c0.3,0.4,0.5,0.9,0.5,1.4c0,1.2-1,2.2-2.2,2.2c-0.5,0-1-0.2-1.4-0.5c0.4,0.5,1.1,0.9,1.8,0.9
	c1.2,0,2.2-1,2.2-2.2C1346.7,233.9,1346.3,233.3,1345.8,232.8z"/>
<path class="st40" d="M1343.4,233.1c0,0-1.6,0.8-0.4,2C1343,235.2,1342.6,233.1,1343.4,233.1z"/>
<circle class="st38" cx="1346.6" cy="236.4" r="1.6"/>
<path class="st39" d="M1345.6,235.1c-0.2,0.3-0.3,0.6-0.3,1c0,0.9,0.7,1.6,1.6,1.6l0,0l0,0c0.4,0,0.7-0.1,1-0.3
	c-0.3,0.4-0.8,0.6-1.3,0.6c-0.9,0-1.6-0.7-1.6-1.6l0,0l0,0C1345,235.9,1345.2,235.4,1345.6,235.1z"/>
<path class="st40" d="M1347.4,235.4c0,0,1.2,0.6,0.3,1.5C1347.7,236.8,1348,235.4,1347.4,235.4z"/>
<path class="st38" d="M1328.1,266.7c0,0,1.3,5.9,7.2-0.7l3.3,0.7c0,0-2.6,7.2,1.3,9.1v4.6c0,0,19.6,30.6,15,32.6s-20.2,9.8-43-2.6
	c0,0,7.8-26.1,11.1-30.6l0.9-8.4c0.2-2.1,1.6-3.8,3.6-4.4L1328.1,266.7z"/>
<path class="st21" d="M1330,339.7h-9.9c-0.2,0-0.4-0.2-0.4-0.4v-0.9l10.5-1.7c0.7-0.1,1.4,0.4,1.5,1.1v0.5
	C1331.5,339.1,1330.8,339.7,1330,339.7z"/>
<path class="st38" d="M1326.2,333.2c0,0,2.6,2.6,4.6,0c0,0,2,4.6,0,5.2l-11.1,0.7v-0.3c0-1.4,0.8-2.8,2.1-3.4L1326.2,333.2z"/>
<path class="st40" d="M1323.7,335.4l2.7-2l-0.2-0.2l-4.4,2.2c-1.3,0.6-2.1,2-2.1,3.4v0.3l2-0.1v-0.1
	C1321.6,337.4,1322.4,336.1,1323.7,335.4z"/>
<path class="st21" d="M1353.4,336.4c-0.3-2.2-2.1-4.8-3.5-6.5l-0.9-0.9l0,0c0.6,0.8,3.3,4.2,3.7,7.4c0.3,2.4-1.4,4.5-3.7,4.8
	c0,0,0,0-0.1,0h0.6C1351.9,341,1353.6,338.9,1353.4,336.4C1353.4,336.5,1353.4,336.4,1353.4,336.4z"/>
<path class="st38" d="M1335.2,337.3L1335.2,337.3l0.1,0.2C1335.3,337.3,1335.2,337.3,1335.2,337.3z"/>
<path class="st38" d="M1352.8,336.4c-0.5-3.7-3.9-7.6-3.9-7.6s0.7,3.1-0.6,5c-2,1.3-3.3-2-3.3-2c0,2.7,0.7,5.4,1.9,7.8l0,0
	c0.3,0.5,0.8,0.9,1.3,1.2c0.2,0.2,0.4,0.3,0.7,0.3c2.3-0.2,4.1-2.2,3.9-4.5V336.4z"/>
<path class="st40" d="M1352.8,336.3c-0.3,1.9-1.9,3.4-3.8,3.6c-0.3,0-0.5-0.1-0.7-0.3c-0.6-0.2-1.1-0.6-1.3-1.2l0,0
	c-1.1-1.9-1.7-4.1-1.9-6.3c-0.1-0.1-0.1-0.1-0.1-0.2c0,2.7,0.7,5.4,1.9,7.8l0,0c0.3,0.5,0.8,0.9,1.3,1.2c0.2,0.2,0.4,0.3,0.7,0.3
	c2.3-0.2,4-2.3,3.8-4.6C1352.7,336.5,1352.7,336.5,1352.8,336.3z"/>
<path class="st41" d="M1339.9,279.8v-4.6c-3.4-1.7-1.9-7.4-1.4-8.8c-2,1-4.1,3.2-4.5,7.6v2.5c0,0,19.6,30.6,15,32.6
	c-4.2,1.8-17.5,8.4-37,0.3c-0.1,0.1-0.1,0.3-0.1,0.4c22.8,12.4,38.5,4.6,43,2.6S1339.9,279.8,1339.9,279.8z"/>
<path class="st40" d="M1339.9,279.8c0,0-9.1-4.6-16.9,0C1322.9,279.8,1330.1,277.2,1339.9,279.8z"/>
<path class="st32" d="M1335,256.5c-0.4-0.3-0.8-0.5-1.3-0.6c-2-0.4-4.1,0.5-5.3,2.2c0.4,1,1.3,1.7,2.3,1.9
	C1332.4,260.1,1334.1,258.7,1335,256.5z"/>
<path class="st9" d="M1334.2,254.5l-4.8-0.8v0.7c0,0.3,0.3,0.6,0.6,0.7l3.3,0.5c0.3,0.1,0.6-0.1,0.7-0.4l0,0v-0.1L1334.2,254.5z"/>
<image style="overflow:visible;opacity:0.42;enable-background:new    ;" width="105" height="248" xlink:href="C22CBFA0CD95CA9.png"  transform="matrix(0.9464 0 0 0.9559 1465.9973 135.2887)">
</image>
<path class="st19" d="M1547.8,245.7c0,0,0,3.4,4.1,3.4s3.5-4.5,2.9-4.5h-7.1L1547.8,245.7z"/>
<path class="st19" d="M1487.3,246.4c0,0,0,3.4,4.1,3.4s3.5-4.5,2.9-4.5h-7.1L1487.3,246.4z"/>
<polygon class="st19" points="1517.1,184.3 1517.1,192.1 1522.7,205.7 1527.2,189.4 1527.2,182.6 "/>
<polygon class="st42" points="1519.8,259 1522.2,259.4 1526.3,344.4 1538.4,344.4 1538.4,239 1505.4,242.3 1505.4,344.4 
	1520.3,344.4 "/>
<path class="st20" d="M1536.7,177.9h-5.3v-7.8h5.5c0.7,0,1.4,0.5,1.4,1.3l0,0v5C1538.3,177.2,1537.6,177.9,1536.7,177.9
	C1536.8,177.9,1536.7,177.9,1536.7,177.9z"/>
<path class="st20" d="M1507.2,177.9h5.4v-7.8h-5.3c-0.8,0-1.5,0.7-1.5,1.5v4.9C1505.8,177.3,1506.4,177.9,1507.2,177.9L1507.2,177.9
	L1507.2,177.9z"/>
<path class="st19" d="M1529.4,185.8H1515c-2.3,0-4.3-1.8-4.3-4.2l0,0v-23.8h23v23.7C1533.6,183.9,1531.8,185.7,1529.4,185.8z"/>
<path class="st43" d="M1512.6,146.9c0,0,0.6,4-1.9,6.3c-5.5,5.2-2.5,13.6-1.8,17.5c0.2,0.9,0.9,1.5,1.8,1.5l0,0c0,0-1-15.8,6.7-14
	c0,0,3.8,4.3,9-0.1c0,0,7.7-2.3,7.3,14.1l0,0c1.7,0,3.2-1.3,3.4-3c0.6-6,1.2-19.5-8.7-18.5c0,0-7.5,0.5-10.7-1.9
	c-1.3-1-2.9-1.7-4.6-1.9L1512.6,146.9z"/>
<ellipse class="st43" cx="1517.1" cy="170.8" rx="1.8" ry="2.9"/>
<ellipse class="st43" cx="1527.4" cy="170.8" rx="1.8" ry="2.9"/>
<path class="st43" d="M1518.9,179.2c0,0,3.8,2.3,7.5,0"/>
<path class="st13" d="M1548.6,353H1526v-8.6h19.3c1.7,0,3.1,1.4,3.2,3.1v0.1L1548.6,353z"/>
<path class="st13" d="M1497.8,353h22.5v-8.6H1501c-1.7,0-3.1,1.4-3.2,3.1V353z"/>
<path class="st44" d="M1528.1,178.3c-0.8-1.2-2.3-1.8-3.7-1.4l-2,0.4l-2-0.4c-1.4-0.4-2.9,0.2-3.7,1.4c0,0,0.1,2.4,0,4
	c-0.1,1.2,2.4,2.3,3.4,2.6c0.3,0.1,0.5,0.1,0.8,0.1l1.5-0.3l1.5,0.3c0.3,0,0.5,0,0.8-0.1c1-0.4,3.5-1.4,3.4-2.6
	C1528,180.8,1528.1,178.3,1528.1,178.3z M1527,180.8c0,0-1.4,2.1-4.6,0.5l0,0c-3.2,1.6-4.6-0.5-4.6-0.5c-0.5-3.7,2-3.2,3.5-2.7
	c0.5,0.2,0.9,0.4,0.9,0.4l0,0l0.3,0.4l0.8-0.6C1524.4,177.7,1527.5,176.7,1527,180.8z"/>
<path class="st45" d="M1510.2,194.1c0,0,15.4,3,23.1,0s0.3,22.3,0.3,22.3v21.1c0,0-7,11.6-9.8,8s-8.6-16.7-9.5-17.3
	S1510.2,194.1,1510.2,194.1z"/>
<rect x="1518.9" y="221.3" class="st46" width="5" height="24.3"/>
<path class="st47" d="M1525.1,212.9l0.5-0.7l-3-12.4l1.2-4.2l-4-1l-0.9,2.4l2.5,2.4c0,0-4.8,15.2-3.7,20.5s6.8,9.9,6.8,9.9l2.6-13.9
	L1525.1,212.9z"/>
<polygon class="st48" points="1526.4,189.2 1521.8,195.5 1526.4,200.8 1530.4,190.1 "/>
<polygon class="st48" points="1513.1,190.1 1517.1,200.8 1521.7,195.5 1517.1,189.2 "/>
<path class="st13" d="M1546.7,200.3c-0.9-4.3-4.3-7.6-8.6-8.5l-7.7-1.6c0,0-6.7,14.9-8.6,31.1h-0.1c-1.5-10.7-4.4-21.1-8.6-31.1
	l-7.7,1.6c-4.3,0.9-7.6,4.2-8.6,8.5l-9.7,44.5l10.8,0.4l5.3-28v35l16.5,4.2l1.7-7.4v-3.9h0.7v3.9l1.7,7.4l16.5-4.2v-35l5.3,28
	l10.8-0.4L1546.7,200.3z"/>
<g class="st49">
	<path class="st16" d="M1530.4,190.1c0,0-6.7,14.9-8.6,31.1l8.6-13.5l-1.2-4.9h3l1.3-11.7l0.1-0.3L1530.4,190.1z"/>
	<path class="st16" d="M1509.8,190.9l0.1,0.3l1.3,11.7h3l-1.2,4.9l8.6,13.5c-1.5-10.7-4.4-21.1-8.6-31.1L1509.8,190.9z"/>
</g>
<image style="overflow:visible;opacity:0.28;enable-background:new    ;" width="61" height="62" xlink:href="C22CBFA0CD95CAB.png"  transform="matrix(0.9161 0 0 0.9161 1257.1823 253.3343)">
</image>
<path class="st16" d="M1294.4,258.6c3.9,1.1,8,0.2,11.1-2.4c0,0,10.2,14.8,0.4,27.4c0,0-15,0.7-20.9-18.1
	C1285,265.6,1292.5,263.6,1294.4,258.6z"/>
<g class="st50">
	
		<image style="overflow:visible;opacity:0.28;enable-background:new    ;" width="59" height="60" xlink:href="C22CBFA0CD95CB6.png"  transform="matrix(0.8974 0 0 0.8974 1259.178 255.3393)">
	</image>
	<path class="st9" d="M1294.7,260.2c3.5,1,7.2,0.1,9.9-2.2c0,0,9.1,13.3,0.3,24.6c0,0-13.4,0.6-18.7-16.2
		C1286.2,266.4,1293,264.6,1294.7,260.2z"/>
</g>
<path class="st51" d="M1210.4,266.4l-7.5-3.5c1.6-0.2,3.1-0.5,4.7-0.7L1210.4,266.4z"/>
<image style="overflow:visible;opacity:0.18;enable-background:new    ;" width="259" height="111" xlink:href="C22CBFA0CD95CB7.png"  transform="matrix(0.9967 0 0 0.9868 1405.1122 18.9992)">
</image>
<path class="st12" d="M1547.3,32c-10.7-1-18.9,4.9-24.5,11h-102c0.1,0,0.1,0,0.1-0.1c0.7-0.4,1.4-0.8,2.1-1.1
	c1.3-0.5,2.7-0.9,3.8-1.2c17.7-4.3,55.4-12.7,65.2-8.7c13,5.3,28.4-10.6,54.8-0.5C1547,31.6,1547.1,31.8,1547.3,32z"/>
<path class="st2" d="M1646.3,107.6L1646.3,107.6c-1.6-1.5-3.3-3-5-4.5c-10.1-8.6-20.8-16.3-32.2-23.1l0,0c-1.1-0.6-2.2-1.3-3.3-1.9
	c-9-5.2-19.1-10.5-30.6-15.7c-0.6-0.3-1.2-0.5-1.8-0.8c-7.8-3.5-16.1-6.9-25.1-10.3c0-0.1-0.2-0.1-0.3-0.1c-0.2-0.1-0.5-0.2-0.7-0.3
	s-0.5-0.2-0.7-0.3c-0.3-0.1-0.5-0.2-0.8-0.3s-0.7-0.3-1-0.4c-6.5-2.4-13.4-4.7-20.5-7h-1.4c5.5-6.1,13.8-12.1,24.5-11
	c13.4,15.1,37.2,18.3,47,19c3.1,0.2,6,1.4,8.4,3.3c10.3,8.5,37.7,32.3,42.9,49.8C1645.9,105.3,1646.2,106.4,1646.3,107.6z"/>
<path class="st52" d="M366.9,271.5c0,0-2.1-0.1-1.9,2.5"/>
<rect x="473" y="44" class="st53" width="487.7" height="278"/>
<text transform="matrix(1.0633 0 0 1 594.0332 106.6059)" class="st9 st54 st55">HOA LỆ </text>
<text transform="matrix(1.0633 0 0 1 541.249 150.6352)" class="st9 st56 st57">GỎI CUỐN NEM NƯỚNG </text>
<g id="_x33_AqBQ8_1_">
	
		<image style="overflow:visible;enable-background:new    ;" width="748" height="559" id="_x33_AqBQ8_3_" xlink:href="C22CBFA0CD95CB8.jpg"  transform="matrix(0.1614 0 0 0.1833 796.1678 176.2229)">
	</image>
</g>
<g id="RGSCfk_1_">
	
		<image style="overflow:visible;enable-background:new    ;" width="465" height="330" xlink:href="C22CBFA0CD95CBB.jpg"  transform="matrix(0.282 0 0 0.2947 513.8317 178.8086)">
	</image>
</g>
<g id="nf88rC_1_">
	
		<image style="overflow:visible;enable-background:new    ;" width="1515" height="1170" xlink:href="C22CBFA0CD95CB9.jpg"  transform="matrix(8.300971e-02 0 0 7.767361e-02 657.665 182.0221)">
	</image>
</g>
<text transform="matrix(1.0633 0 0 1 478.8623 314.9496)" class="st9 st54 st58">87 Đại Cồ Việt, Hai Bà Trưng, HN</text>
<text transform="matrix(1.0633 0 0 1 759.3311 298.2953)" class="st9 st54 st58">ĐT: 0968 596 725</text>
<text transform="matrix(1.0633 0 0 1 759.3311 314.9955)" class="st9 st54 st58">http://nemnuonghoale.com/ </text>
<g id="upZ6et_1_">
	
		<image style="overflow:visible;enable-background:new    ;" width="1003" height="992" xlink:href="C22CBFA0CD95CBF.jpg"  transform="matrix(0.2804 0 0 0.2804 192.6963 43.6751)">
	</image>
</g>
</svg>
