<?xml version="1.0" encoding="utf-8"?>
<!-- Generator: Adobe Illustrator 22.0.0, SVG Export Plug-In . SVG Version: 6.00 Build 0)  -->
<svg version="1.1" id="Layer_1" xmlns="http://www.w3.org/2000/svg" xmlns:xlink="http://www.w3.org/1999/xlink" x="0px" y="0px"
	 viewBox="0 0 195.5 189.9" style="enable-background:new 0 0 195.5 189.9;" xml:space="preserve">
<style type="text/css">
	.st0{fill:#FFFFFF;}
	.st1{opacity:0.1;fill:#01A0A4;}
	.st2{fill:#01A0A4;}
	.st3{opacity:0.1;enable-background:new    ;}
	.st4{opacity:0.3;fill:#FFFFFF;enable-background:new    ;}
	.st5{fill:#DC3545;}
	.st6{font-family:'AmericanTypewriter-Bold';}
	.st7{font-size:40px;}
</style>
<title>icon2</title>
<path class="st0" d="M186.2,96c0,0.6,0,1.3,0,1.9s0,1.2-0.1,1.8s0,1.2-0.1,1.7c0,0.3,0,0.6-0.1,0.9s-0.1,0.8-0.1,1.2
	c0,0.1,0,0.2,0,0.3c0,0.5-0.1,1-0.1,1.5c0,0.2,0,0.4-0.1,0.6c0,0.4-0.1,0.9-0.2,1.3c0,0.1,0,0.2,0,0.4c-0.1,0.5-0.1,1-0.2,1.5
	c0,0.1,0,0.2-0.1,0.4c-0.1,0.5-0.1,0.9-0.2,1.4c0,0.2-0.1,0.3-0.1,0.5c-0.1,0.4-0.2,0.9-0.3,1.3c0,0.2-0.1,0.3-0.1,0.4
	c-0.1,0.4-0.2,0.9-0.3,1.3c0,0.2-0.1,0.3-0.1,0.5s-0.1,0.6-0.2,0.8s-0.2,0.8-0.3,1.1c-0.6,2.2-1.2,4.4-2,6.6
	c-0.1,0.3-0.2,0.6-0.3,0.9s-0.2,0.6-0.3,0.9c-0.2,0.5-0.4,1-0.6,1.4s-0.3,0.8-0.5,1.1c-0.1,0.2-0.1,0.4-0.2,0.6l-0.4,0.9
	c-0.1,0.3-0.3,0.6-0.4,0.9c-0.1,0.2-0.2,0.4-0.3,0.7s-0.3,0.6-0.4,0.9c-0.2,0.5-0.4,1-0.7,1.4c-0.1,0.3-0.3,0.6-0.5,0.9
	c-0.2,0.3-0.3,0.7-0.5,1c-0.1,0.1-0.1,0.3-0.2,0.4c-0.2,0.4-0.4,0.7-0.6,1.1s-0.4,0.8-0.6,1.2c-0.5,0.9-1,1.7-1.5,2.5
	c-0.9,1.4-1.8,2.9-2.8,4.3c-0.2,0.3-0.4,0.6-0.6,0.8s-0.4,0.5-0.6,0.8l-0.8,1.1c-0.2,0.3-0.5,0.6-0.7,0.9l-0.9,1.2l-0.2,0.3
	c-0.6,0.8-1.3,1.5-2,2.3c-1.3,1.4-2.6,2.8-4,4.2l-0.8,0.8l-0.7,0.7l-0.2,0.2c-7.2,6.7-15.6,12.2-24.7,16c-0.8,0.4-1.7,0.7-2.5,1
	l-0.9,0.3c-0.8,0.3-1.7,0.6-2.5,0.9l-1.2,0.4l-1.2,0.4l-1.2,0.4l-1.1,0.3l-1.4,0.4l-1.9,0.4l-1.6,0.4l-0.4,0.1l-0.5,0.1l-1.2,0.2
	l-0.3,0.1l-1.8,0.3c-4.4,0.7-8.9,1.1-13.4,1.1h-2.8H98h-0.4l-1.1-0.1h-0.6h-0.1h-0.4h-0.2H95h-0.1h-0.2l-0.7-0.1h-0.2l-1.6-0.2h-0.1
	l-0.9-0.1l-0.7-0.1h-0.1H90l-0.1-0.3l-1.2-0.2l-0.4-0.1h-0.1l-1.5-0.2h-0.2h-0.2h-0.2c-0.5-0.1-0.9-0.2-1.4-0.3l-0.5-0.1l-1.6-0.4
	l-1.1-0.2l-0.5-0.1h-0.2h-0.2l-0.9-0.2l-0.5-0.1l-0.3-0.1l-1-0.3l-0.5-0.1l-0.2-0.1c-0.6-0.2-1.1-0.3-1.7-0.5l-0.7-0.2l-1-0.3
	l-0.3-0.1l-0.4-0.1l-0.4-0.1l-0.8-0.3l0,0h-0.1l-1.4-0.6l-0.4-0.2l-0.3-0.1l-0.4-0.2l-0.2-0.1l-0.2-0.1l-0.2-0.1l-0.3-0.5l-0.5-0.2
	l-0.7-0.3l-0.4-0.2l-1-0.4l-0.4-0.2h-0.1l-1-0.5l-0.6-0.3l-0.5-0.2l-0.2-0.1l-0.5-0.3l-0.2-0.1l-0.2-0.1l-0.1-0.1l-0.4-0.2l-1-0.6
	l-0.1-0.1l-1.1-0.6l-0.2-0.1l-0.8-0.5H58l-0.6-0.4l-0.5-0.3l-0.4-0.2l-0.6-0.4l-0.3-0.2l-0.9-0.6l-0.5-0.3l-0.4-0.3l-0.3-0.2
	l-0.3-0.2l-0.6-0.4l-0.6-0.4l-0.5-0.3l-0.3-0.2l-0.8-0.6l-0.8-0.6l-0.5-0.4l-0.7-0.6l-0.7-0.6l-0.3-0.2c-0.1-0.1-0.2-0.2-0.3-0.2
	l0,0c-0.6-0.5-1.1-0.9-1.7-1.4l-0.8-0.8l-0.8-0.7c-0.4-0.4-0.8-0.7-1.1-1.1l-0.4-0.4l-0.8-0.8l-0.7-0.7c-0.6-0.6-1.2-1.2-1.8-1.9
	l-0.9-1l-0.8-1c-0.6-0.6-1.1-1.3-1.6-2l0,0l-0.8-1l-0.8-1l-0.6-0.8l-0.3-0.4l-0.6-0.8l-0.2-0.3l-0.9-1.4l-0.3-0.5l-0.2-0.2
	c-0.8-1.2-1.6-2.4-2.3-3.6l-0.6-1.1l-0.4-0.8c-0.7-1.2-1.3-2.4-1.9-3.6c-0.2-0.5-0.5-1-0.7-1.5c-0.1-0.1-0.1-0.3-0.2-0.5l0,0
	c-0.1-0.3-0.3-0.6-0.4-0.9c-0.2-0.5-0.4-0.9-0.6-1.4s-0.4-0.9-0.5-1.3l-0.2-0.6c-0.2-0.4-0.3-0.9-0.5-1.3l-0.4-0.9l-0.6-1.5l0,0
	c-0.1-0.3-0.2-0.6-0.3-0.8s-0.2-0.7-0.3-1c-1.3-4-2.3-8.1-3-12.3c0-0.2-0.1-0.4-0.1-0.6s0-0.2,0-0.3c-0.1-0.8-0.2-1.6-0.3-2.4
	c0-0.4-0.1-0.8-0.1-1.1s-0.1-0.9-0.1-1.3l0,0c-0.3-2.6-0.4-5.2-0.4-7.8l0,0c0-0.2,0-0.3,0-0.4l0,0c0-0.9,0-1.8,0.1-2.8
	c0-0.4,0-0.8,0-1.2c0-0.6,0.1-1.3,0.1-1.9c1.1-15.1,6.2-29.6,14.7-42.1c1.3-1.8,2.6-3.6,4-5.3l0,0c0.2-0.2,0.4-0.5,0.6-0.7
	c0.3-0.4,0.7-0.8,1-1.2c1.7-2,3.6-3.9,5.5-5.8l0,0c1.9-1.9,4-3.6,6.1-5.3l0,0c2.9-2.3,5.9-4.4,9.1-6.2c2.2-1.3,4.5-2.6,6.8-3.7
	c1.4-0.7,2.9-1.3,4.3-1.9l1.4-0.6l0.3-0.1l0.3-0.1c0.9-0.3,1.7-0.6,2.6-0.9c0.8-0.3,1.5-0.5,2.3-0.8l1.2-0.4
	c0.7-0.2,1.5-0.4,2.2-0.6l1.4-0.3l1.2-0.3l0.9-0.2l1-0.2c1.4-0.3,2.8-0.6,4.3-0.8c4.5-0.7,9-1.1,13.5-1.1l0,0c0.6,0,1.2,0,1.8,0h1.2
	h0.7l1.3,0.1l1.1,0.1l1.2,0.1h0.2l0.8,0.1h0.1l0.6,0.1l0,0h0.2l0.7,0.1l1,0.1h0.3l0,0l0.4,0.1l0.5,0.1l1.2,0.2h0.1l0.6,0.1l1.1,0.2
	l1.3,0.3l1.1,0.2l0.3,0.1l1,0.2h0.1h0.1l0.7,0.2l0.7,0.2l1.4,0.4l1.3,0.4l0.4,0.1l0.2,0.1L127,15l1,0.3h0.1l0,0h0.1l0.2,0.1l1,0.4
	h0.1l0.2,0.1L130,16l0.9,0.3h0.1l0,0l0.3,0.1l0.4,0.1l0.6,0.2l0.4,0.2l0.5,0.2l0.6,0.2h0.1l1.3,0.6l0,0h0.1l1.3,0.6h0.1l0.2,0.1
	l0.4,0.2l0.1,0.1l0.6,0.3l0.3,0.1l0.9,0.4l0.3,0.2l0.1,0.1l0.5,0.2l0.7,0.4l1,0.5l0.3,0.2h0.1l1.3,0.8l0,0l1.3,0.8l0.1,0.1
	c0.4,0.3,0.9,0.5,1.3,0.8l0.6,0.4l0.3,0.2h0.1l0.2,0.1l0.4,0.2l1,0.7l0,0l0.8,0.6l0.4,0.2l0,0l0.1,0.1l0.3,0.2l0.1,0.1l0.1,0.1
	l0.5,0.3l0.2,0.2l0,0l0,0l0.1,0.1l0.3,0.2l0.2,0.2l0.3,0.2l0.1,0.1l1,0.8c0.6,0.4,1.1,0.9,1.7,1.4l0.9,0.7l1.2,1
	c0.2,0.2,0.4,0.4,0.6,0.6s0.5,0.4,0.7,0.7l0.2,0.2c0.3,0.3,0.6,0.6,0.9,0.8l0.6,0.6l0.4,0.4l0.9,0.9c0.4,0.4,0.7,0.7,1.1,1.1
	c0.7,0.8,1.4,1.5,2.1,2.3l0.9,1.1l0.9,1.1l0.1,0.1c0.3,0.4,0.6,0.8,0.9,1.1l1,1.2c0.6,0.8,1.2,1.7,1.8,2.5l0.7,1.1
	c0.1,0.1,0.1,0.2,0.2,0.3s0.3,0.5,0.5,0.7s0.2,0.3,0.3,0.5l0,0l0.3,0.5c0.1,0.1,0.2,0.3,0.3,0.4c0.3,0.4,0.5,0.8,0.8,1.3l0.2,0.3
	l0.1,0.2l0.6,1l0.1,0.2c0.5,0.8,0.9,1.7,1.4,2.5l0.2,0.5l0.1,0.2l0.3,0.6l0.3,0.7c0,0.1,0.1,0.1,0.1,0.2l0.2,0.5
	c0,0.1,0.1,0.2,0.1,0.3s0.2,0.3,0.2,0.5l0.2,0.4c0,0.1,0.1,0.1,0.1,0.2l0.4,0.8c0.1,0.3,0.2,0.6,0.4,0.8s0.4,0.8,0.5,1.2
	c0.1,0.2,0.2,0.4,0.3,0.6l0.1,0.2c0.2,0.5,0.4,1,0.6,1.5l0.2,0.5c0,0.1,0.1,0.1,0.1,0.2c0.1,0.3,0.2,0.7,0.4,1s0.1,0.4,0.2,0.6
	l0.1,0.4c0.1,0.3,0.2,0.7,0.4,1.1s0.2,0.6,0.3,0.8l0.1,0.5V70l0.1,0.3c0,0.1,0.1,0.2,0.1,0.4c0.1,0.4,0.2,0.7,0.3,1.1
	c0,0.1,0.1,0.2,0.1,0.3v0.1c0,0.2,0.1,0.3,0.1,0.5l0.1,0.2c0.1,0.4,0.2,0.7,0.3,1.1v0.1c0.1,0.3,0.2,0.7,0.2,1l0.1,0.7
	c0,0.1,0.1,0.3,0.1,0.4c0.1,0.3,0.1,0.6,0.2,0.9c0,0.2,0.1,0.3,0.1,0.5s0,0.2,0,0.2s0,0.2,0.1,0.3c0.1,0.5,0.2,0.9,0.3,1.4
	c0,0.2,0.1,0.5,0.1,0.7c0.1,0.5,0.2,1,0.3,1.6V82c0.2,1.3,0.4,2.6,0.5,3.8c0,0.1,0,0.1,0,0.2s0,0.2,0,0.2v0.1
	c0.1,0.5,0.1,1.1,0.1,1.6C185.9,91.1,186.2,93.7,186.2,96z"/>
<path class="st1" d="M116.4,100c-1.9-0.5-3.5-1.6-4.7-3.2c-0.5-0.6-0.7-2.6-1.2-2.9c-0.7-0.4-2.1,0.3-2.9,0.2
	c-0.8-2.2-1.8-3.8-4-1.5c0.5-1,0.5-2.2-0.2-3.1c-0.9-1.1-1.9-0.5-3.1-0.4c-2.4,0.2-3.1-1.6-4.5-3.3c-1.7-2.1-4-1-6.4-0.6
	c-2.7,0.4-6,0.4-8.6,1.3c-1.2,0.4-2.2,2.1-3.1,0.6c-0.8-1.2,0.3-2.4-1.2-3.3c-2.7-1.5-5.8,0.5-8.5-0.8c-1.5-0.8-1.8-1.5-0.8-3
	c0.9-1.2,1.5-2.5,1.8-4c0.3-1.7,1.1-2.2,2.1-3.5s0.8-1.9,0.8-3.5c3.6-1.7,8.9,0.3,9.3-5.2c0.1-0.8-0.8-2.7-0.3-3.3
	c0.7-0.9,2.8-0.1,3.7-0.1c2.6,0.1,5.1-0.4,7.5-1.4c1.7-0.8,4.9-1.8,6.8-1.4c2.3,0.4,2.8,2.5,3.7,4.1c1,1.8,2.6,3.3,4.5,4.2
	c1.4,0.5,2.4,1.5,2.9,2.9c0.4,1.3,0.4,2.1,1.5,3.3c1.5-1.1,3.7-0.5,5.2-1.5c1.2-0.7,0.4-3.7,0-5c-0.7-2.3-2.5-2.6-3.7-4.2
	c-0.5-0.9-0.7-2-0.7-3c0.3-1.1,0.8-0.9,1.9-1c2.5-0.4,3,0.3,4.4,1.9c0.6,0.6,1.3,0.8,1.9,1.3s0.9,2,1.6,2.8c0.9,1,3.1,2.1,3.6,3.4
	c0.5,1.2-0.3,2.2-0.4,3.3c0.1,1,0.3,2.1,0.5,3.1c1.2,0,2.9,1.8,3.7,2.4s1.9,0.4,2.6,1.1c0.9,0.8,0.5,1.4,0.9,2.5
	c0.4,0.9,0.9,1.1,1.2,2.1c0.6,2,0.8,4.2,1.9,6.1c1.2,2.2,3.3,3.6,4,6.1c1.8,6.2-6.6,7.8-11,8.5c-2.3,0.4-4.7,1-7,0.7
	C119.4,102.3,119.1,100.4,116.4,100z"/>
<path class="st2" d="M119.8,129.8L119.8,129.8z"/>
<path class="st2" d="M29.9,139.4L29.9,139.4L29.9,139.4z"/>
<path class="st2" d="M128.2,129.8L128.2,129.8z"/>
<path class="st2" d="M130.4,126.7L130.4,126.7z"/>
<path class="st2" d="M129,118.9L129,118.9L129,118.9z"/>
<path class="st2" d="M128.2,124.5L128.2,124.5L128.2,124.5z"/>
<path class="st2" d="M126.9,125.8L126.9,125.8z"/>
<path class="st2" d="M129.2,119.1L129.2,119.1z"/>
<path class="st1" d="M69.9,17.5c0.2,0,0.4,0,0.6,0c0.5,0,1-0.2,1.4-0.4c0.5-0.2,0.9-0.5,1.3-0.7s0.8-0.3,1.2-0.2
	c0.4,0,0.8,0,1.2,0.2c0.2,0.1,0.5,0.3,0.7,0.5s0.4,0.3,0.7,0.4c0.2,0,0.4,0,0.6,0c0.2,0.1,0.4,0.1,0.6,0.1h1.5
	c0.6,0,1.3-0.1,1.9-0.2c0.5,0,1,0,1.4,0.1s0.7,0.1,1.1,0.2s0.7,0.2,1.1,0.4c0.1,0.1,0.3,0.1,0.4,0.2s0.3,0.1,0.4,0.2
	c0.7,0.2,1.5,0.1,2.2-0.2c0.3-0.1,0.4-0.3,0.8-0.2l1.2,0.1c0.8,0,1.3-0.3,2-0.3c-0.3-0.1-0.6-0.9-0.6-1.1s-0.1-0.1,0.1-0.2
	c0.2-0.2,0.5-0.3,0.7-0.3c0.6,0,1.2,0,1.8,0.1c0.5,0.1,1.1,0.2,1.6,0.3s1,0.1,1.6,0.1c1.1,0.1,1.8,0.3,2.1,1.1
	c0.1,0.3,0.2,0.5,0.2,0.8c0.1,0.3,0.2,0.6,0.2,1c0,0.6,0.1,1.2,0.4,1.8c0.3,0.8,0.2,1.1,0.9,1.4c0.3,0.2,0.6,0.2,0.9,0.1
	c0.6-0.2,0.7-0.9,1.5-0.9c1.1,0.1,1.5,1.2,2.7,1.2c0.6-0.1,1.2-0.2,1.8-0.4c0.4,0,0.9-0.1,1.4-0.1c0.4,0,0.7,0,1.1,0
	c0.3,0,0.5-0.1,0.8-0.2c0.4-0.2,0.2-0.4,0.2-0.8s-0.1-0.9,0.2-1.1s0.8-0.2,1.1-0.4c0.5-0.2,0.2-0.6,0.1-0.9c0-0.1,0-0.3,0-0.4
	c0-0.2,0-0.2,0.3-0.2c1,0.1,2,0.3,3,0.6c0.7,0.1,1.4,0.3,2.2,0.5c0.6,0.2,1.1,0.4,1.6,0.8c0.4,0.2,0.8,0.5,1.1,0.8
	c0.3,0.4,0.7,0.7,1.1,1s0.5,0.8,0.9,1.2c0.5,0.5,1,1,1.6,1.4c0.9,0.5,2,0.6,2.9,0.2c0.4-0.1,0.9-0.1,1.4-0.2
	c0.3-0.1,0.6-0.1,0.8-0.1c0.6,0,1.2,0,1.8,0.1s1.1,0.2,1.6,0.4l1.1,0.5c0.4,0.2,0.7,0.4,1,0.6c0.4,0.2,0.7,0.4,1,0.7
	c0.6,0.6,1,1.3,2.1,1.5c0.2,0,0.5,0.1,0.7,0.1c0.1,0,0.3,0,0.4,0c0.2,0,0.4,0.1,0.6,0.1c0.2,0,0.4,0,0.6,0c0.9,0.1,2.3,0.4,3.2,0.6
	c-0.1,0-0.2-0.1-0.2-0.2c0.6-0.2,1.1-0.3,1.7-0.4c0.9,0,1.8,0.1,2.6,0.2c0.5,0,1.1,0.2,1.5,0.5c0.2,0.2,0.3,0.4,0.6,0.6
	c0.2,0.1,0.4,0.2,0.6,0.3c0.5,0.2,0.9,0.3,1.4,0.3c0.2,0,0.5,0,0.5-0.1s-0.2-0.3-0.1-0.3c0-0.1-0.1-0.3-0.1-0.4
	c-0.1-0.2-0.2-0.4-0.4-0.6s-0.3-0.3-0.1-0.6c0.1-0.1,0.1-0.2,0.2-0.4C128.1,10.2,96.6,6.2,69,17.5C69.3,17.6,69.6,17.6,69.9,17.5z"
	/>
<path class="st2" d="M154.1,82L154.1,82z"/>
<path class="st2" d="M160.1,136.1L160.1,136.1z"/>
<path class="st2" d="M149.1,130.9L149.1,130.9z"/>
<path class="st2" d="M121.3,130.4L121.3,130.4z"/>
<path class="st1" d="M135.9,126.5L135.9,126.5z M135.9,126.5L135.9,126.5z M135.9,126.5L135.9,126.5z M185.9,89
	c0-0.5-0.1-1.1-0.1-1.6v-0.1c0-0.1,0-0.2,0-0.2c0-0.1,0-0.1,0-0.2c-0.1-1.3-0.3-2.6-0.5-3.8v-0.2c-0.1-0.5-0.2-1-0.3-1.6
	c0-0.2-0.1-0.5-0.1-0.7c-0.1-0.5-0.2-0.9-0.3-1.4c0-0.1,0-0.2-0.1-0.3s0-0.2-0.1-0.3v-0.2c0-0.1,0-0.1,0-0.2
	c-0.1-0.3-0.1-0.6-0.2-0.9c0-0.1-0.1-0.3-0.1-0.4l-0.1-0.7c-0.1-0.3-0.2-0.7-0.2-1v-0.1c-0.1-0.4-0.2-0.7-0.3-1.1l-0.1-0.2
	c-0.1-0.3-0.1-0.6-0.2-0.9s-0.2-0.7-0.3-1.1c0-0.1-0.1-0.2-0.1-0.4l-0.1-0.3V71l-0.1-0.5c-0.1-0.3-0.2-0.6-0.3-0.8s-0.2-0.7-0.4-1.1
	l-0.1-0.4c-0.1-0.2-0.1-0.4-0.2-0.6s-0.2-0.7-0.4-1c0-0.1,0-0.1-0.1-0.2l-0.2-0.5c-0.2-0.5-0.4-1-0.6-1.5l-0.4-0.9
	c-0.2-0.4-0.3-0.8-0.5-1.2s-0.2-0.6-0.4-0.8l-0.4-0.8c0-0.1-0.1-0.1-0.1-0.2l-0.2-0.4c-0.1-0.2-0.2-0.4-0.2-0.5s-0.2-0.5-0.4-0.8
	c0-0.1-0.1-0.1-0.1-0.2l-0.3-0.7l-0.3-0.6l-0.1-0.2l-0.2-0.5c-0.4-0.8-0.9-1.7-1.4-2.5l-0.1-0.2l-0.6-1l-0.1-0.2l-0.2-0.3
	c-0.3-0.4-0.5-0.9-0.8-1.3c-0.1-0.1-0.2-0.3-0.3-0.4l-0.3-0.5l0,0l-0.1,0.1c-0.2,0.1-0.1,0.3-0.2,0.5s-0.1,0.1-0.2,0.2
	c0,0.1,0,0.2,0,0.3c-0.1,0.2-0.1,0.4-0.3,0.5c-0.1,0.1-0.2,0.2-0.3,0.3s-0.2,0.1-0.3,0.2s-0.1,0.2-0.2,0.3s-0.4,0.1-0.5,0.2
	c-0.2,0.2-0.5,0.4-0.8,0.4c-0.4,0-0.8-0.1-1.1-0.2c-0.3,0-0.6-0.1-0.8-0.2c-0.3-0.2-0.7-0.3-1.1-0.4c-0.3-0.1-0.5-0.1-0.8-0.1
	c-0.5,0-1,0.2-1.3,0.5c-0.2,0.2-0.2,0.4-0.5,0.4s-0.5-0.1-0.8-0.2c-0.4-0.2-0.8-0.2-1.1-0.2c-0.2,0.1-0.2,0.3-0.2,0.5
	c0,0.4,0,0.8,0.1,1.3c0.2,0.1,0.4,0.2,0.6,0.3s0.4,0.1,0.6,0.2c0.2,0.1,0.4,0.2,0.6,0.4c0.2,0.2,0.2,0.2,0.1,0.4s-0.1,0.7-0.2,1
	c0,0.4,0,0.9,0.2,1.3c1,0.3,1.6,1.2,1.7,2.2c0,0.3-0.1,0.5-0.4,0.6c-0.2,0.2-0.7,0.2-0.9,0.4s-0.1,0.2,0,0.4c0.2,0.3,0.2,0.7,0.1,1
	c-0.1,0.4-0.5,0.6-0.5,1c0.1,0.3,0.1,0.5,0.1,0.8c0,0.2-0.1,0.4-0.1,0.6c-0.1,0.4-0.4,1.3-1.1,1.2c-0.4-0.1-0.8-0.5-0.9-0.9
	c-0.1-0.2-0.2-0.4-0.3-0.7c-0.1-0.2-0.3-0.3-0.5-0.5s-0.2-0.4-0.4-0.6l-0.4-0.3c-0.4-0.3-0.8-0.7-1.2-1c-0.6-0.6-1.4-1-1.8-1.7
	c-0.2-0.5-0.3-1.1-0.3-1.6s-0.3-1-0.8-1.3c-0.3-0.2-0.6-0.5-0.9-0.8c-0.3-0.4-0.6-0.8-0.8-1.2c-0.1-0.3,0.1-0.6,0.2-0.9
	s0.6-0.4,0.9-0.7s0.4-1.1,0.4-1.5c0.1-0.4,0.3-0.7,0.6-0.9s0.5-0.4,0.8-0.6c0.3-0.3,0.6-0.7,0.6-1.1c0.2-0.4,0.1-0.9-0.1-1.3
	c-0.2-0.3-0.4-0.7-0.7-1c-0.1-0.2-0.2-0.4-0.5-0.5c-0.2,0.3,0,0.7-0.1,1.1s0,0.6-0.4,0.6s-0.5-0.1-0.7,0c-0.1,0.1-0.3,0.2-0.4,0.4
	c-0.1,0.2-0.1,0.4-0.4,0.4c-0.2,0-0.5-0.1-0.7-0.2c-0.6-0.3-0.4-1.1-1.1-1.4c-0.4-0.1-0.8-0.2-1.2-0.2s-0.2,0.1-0.4,0.3
	c-0.5,0.4-1,0.8-1.6,1.1c-0.4,0.2-0.6,0.4-0.4,0.8c0.1,0.3,0.3,0.5,0.6,0.6c0.2,0.1,0.6,0.3,0.7,0.5s-0.3,0.4-0.6,0.5
	c-0.6,0.2-1.3,0.3-2,0.2h-0.2c-0.6-0.1-0.8-0.5-1.3-0.6c-0.2,0-0.3-0.1-0.5-0.1c-0.3,0-0.6-0.1-0.9-0.1h-0.4c-0.6-0.1-0.6-0.2-1-0.5
	c-0.2-0.2-0.5-0.4-0.8-0.6c-0.2-0.1-0.4-0.1-0.6-0.1c-0.2,0-0.4,0-0.6,0.1c-0.6,0.3-1.2,0.4-1.8,0.3c-0.6-0.1-1.1-0.2-1.6-0.2
	c-0.6-0.1-1.2-0.3-1.8-0.3c-0.5-0.1-1.1,0-1.6,0.1c-0.7,0.2-1.2,0.7-1.5,1.4c-0.2,0.4-0.3,0.9-0.3,1.4c0,0.3-0.1,0.6-0.2,0.9
	c-0.3,0.4-0.6,0.7-0.9,0.9c-0.3,0.2-0.5,0.5-0.6,0.8c0,0.2-0.1,0.4,0.1,0.6c0.4,0.3,1.1,0.3,1.6,0.5l0,0c0.4,0.2,0.8,0.4,1.1,0.6
	c0.2,0.2,0.4,0.3,0.6,0.3c0.2,0,0.3,0.1,0.5,0.1s0.4-0.3,0.6-0.3c0.2-0.1,0.4-0.1,0.6-0.1c0.5,0.1,1,0.4,1.5,0.5
	c0.2,0.1,0.4,0.2,0.6,0.3c0.4,0.2,0.8,0.6,1.2,0.8c0.3,0.2,0.9,0.5,1.2,0.3c0.2-0.1,0.1-0.2,0.1-0.3s0.2-0.2,0.2-0.4s0-0.3,0.3-0.2
	s0.2,0.1,0.3,0.2s0.2,0.2,0.3,0.3s0.1,0.2,0.2,0.3c0.2,0.2,0.4,0.5,0.5,0.7s0.2,0.4,0.3,0.6c0.1,0.3,0.1,0.5,0,0.8
	c0,0.3-0.3,0.6-0.4,0.9c-0.2,0.6-0.2,1.2,0.1,1.7c0.3,0.4,0.6,0.8,0.8,1.2c0.1,0.2,0.4,0.5,0.4,0.8s0,0.6-0.1,0.8
	c-0.1,0.2-0.3,0.4-0.4,0.6c0,0.1-0.1,0.2-0.2,0.3c-0.1,0.1,0.2,0.2,0.2,0.3c-0.5,0-0.3,0.5-0.3,0.7c0,0.3,0,0.6-0.2,0.9
	c-0.1,0.1-0.3,0.2-0.5,0.2c-0.3,0.1-0.5,0.2-0.7,0.4c-0.2,0.2-0.3,0.5-0.5,0.8s-0.4,0.7-0.5,1.2c-0.1,0.4-0.6,1.1-1.3,1
	c-0.7-0.2-1.4-0.3-2.2-0.4c-0.6,0.1-0.7,0.3-0.8,0.8c0,0.3-0.1,0.6-0.1,0.9c-0.1,0.1-0.1,0.2-0.2,0.4c0,0.2-0.1,0.4-0.3,0.5
	c-0.4,0.2-1.3,0.1-1.3,0.6c0,0.3,0.3,0.6,0.6,0.8c0.6,0.4,1.1,0.9,1.5,1.5c0.1,0.2,0.2,0.3,0.3,0.5c0.2,0.3,0.5,0.6,0.8,0.9
	c0.4,0.4,0.7,1,0.6,1.5c0,0.4-0.1,0.7-0.4,1c-0.7,0.6-1.6,0.7-2.4,0.4l0,0c-0.2-0.1-0.4-0.1-0.5-0.3c-0.1-0.2-0.1-0.5-0.2-0.7
	c-0.1-0.4-0.4-0.6-0.9-0.8c-0.3-0.1-0.5-0.4-0.6-0.6c-0.1-0.3-0.1-0.6-0.1-0.9c-0.1-0.2,0-0.4-0.2-0.7c-0.1-0.1-0.2-0.3-0.3-0.4
	s-0.2-0.2-0.4-0.3c-0.2-0.1-0.5-0.2-0.7-0.3c-0.6-0.3-0.8-0.9-0.7-1.6c0-0.2,0.2-0.6,0.1-0.9s-0.7-0.4-1-0.4c-0.7-0.1-1.4-0.1-2.1,0
	c-0.2,0.1-0.5,0.2-0.6,0.3c-0.2,0.2-0.5,0.3-0.8,0.4c-0.3,0-0.7,0-1-0.1l0,0l0,0l0,0H126c-0.4-0.1-0.3-0.4-0.2-0.6s0.5-0.3,0.6-0.5
	c0-0.1,0-0.1,0.1-0.2c0-0.2,0-0.5,0-0.7c0-0.1,0-0.4-0.1-0.5c-0.2-0.1-0.3-0.1-0.5-0.1l-0.7-0.1c-0.1,0-0.2,0-0.3,0
	c-0.1,0-0.2,0-0.4,0l0,0c-0.1,0-0.2,0-0.3,0c-0.2,0-0.2,0.1-0.2,0.2c-0.1,0.3-0.3,0.6-0.5,0.8c-0.3,0.3-0.6,0.5-0.9,0.6
	c-0.4,0.1-0.8-0.1-1.2-0.1c0.1,0.3,0.3,0.6,0.6,0.8c0.2,0.1,0.3,0.1,0.5,0.2s0.4,0.1,0.6,0.1c0.7,0.1,0.5,0.4,0.5,0.8
	s0.3,0.6,0.8,0.7c0,0,0,0.1,0,0.2l0,0l0.6,0.1c0.2,0.1,0.5-0.1,0.7-0.2c0.3-0.1,0.6-0.1,0.9-0.1c0.4,0,0.9,0.1,1.3,0.2
	c0.3,0,0.7,0.1,1,0.2l0.4,0.2c0.2,0.2,0.4,0.5,0.3,0.8c0,0.2-0.1,0.5-0.3,0.6c-0.4,0.2-1.1-0.1-1.5,0c-0.6,0-1,0.4-1.1,1
	c0,0.4,0.7,0.8,1.2,1.1c0.5,0.3,1,0.5,1,1s-0.1,0.9,0.3,1.3c0.6,0.5,1.1,1.1,1.6,1.8c0.1,0.3,0.2,0.5,0.3,0.8c0,0.2,0,0.3,0.1,0.5
	s0.8,0.3,1.2,0.4s0.6,0.3,0.6,0.6s-0.3,0.7-0.4,1c-0.1,0.2-0.1,0.4-0.2,0.7c-0.1,0.2-0.1,0.5-0.1,0.7s-0.1,0.6-0.3,0.7
	c-0.1,0.1-0.3,0-0.4,0.1c-0.2,0-0.3,0.1-0.4,0.2c-0.4,0.4-0.6,1-0.6,1.6c-0.1,0.6-0.5,1-1,1.2c-0.2,0.1-0.4,0.1-0.5,0.1
	s-0.2,0.2-0.3,0.3l-0.4,0.4c-0.4,0.3-0.8,0.5-1.3,0.7c-0.3,0.2-0.7,0.4-1.1,0.5h-0.1c-0.6,0.1-1.1,0.3-1.6,0.6
	c-0.3,0.2-0.6,0.3-0.9,0.5c-0.2,0.1-0.5,0.2-0.8,0.2c-0.3-0.1-0.6-0.1-0.9,0s-0.5,0.1-0.8,0.2c-0.5,0.1-1.1,0.2-1.6,0.2h-0.4
	c-0.6,0-1.3,0.2-1.8,0.5c-0.1,0.1-0.3,0.2-0.3,0.4c-0.1,0.2-0.1,0.4-0.4,0.5s-0.6-0.3-0.7-0.6s0-0.7-0.3-1c-0.3-0.2-0.6-0.4-1-0.3
	c-0.1,0-0.3,0.1-0.5,0.1c-0.3,0-0.5,0-0.8-0.1c-0.2-0.1-0.5-0.1-0.8-0.1c-0.2,0.1-0.2,0.3-0.3,0.4c-0.1,0.2-0.2,0.4-0.4,0.6
	c-0.2,0.2-0.5,0.5-0.8,0.7c-0.2,0.1-0.3,0.3-0.3,0.5s0,0.3,0,0.5s0,0.3,0.1,0.4c0.1,0.2,0.2,0.3,0.4,0.4c0.1,0.1,0.3,0.2,0.4,0.4
	c0.1,0.2-0.1,0.3,0,0.5c0.1,0.1,0.1,0.2,0.2,0.4c0.1,0.2,0.2,0.4,0.3,0.5c0.2,0.2,0.5,0.3,0.7,0.5c0.1,0.1,0.2,0.2,0.3,0.3
	c0.1,0.2,0.3,0.3,0.5,0.4s0.2,0.4,0.4,0.6c0.4,0.6,1.2,0.9,1.5,1.5s0.5,1.1,0.9,1.6c0.4,0.6,0.6,1.3,0.4,2.1c-0.2,0.6-1.2,1.4-1.2,2
	h0.2c0.1,0.1-0.4,0.3-0.5,0.3c-0.3,0-0.6,0.1-0.8,0.1c-0.1,0-0.3,0.1-0.4,0.1c-0.6,0-1.2,0-1.8,0.2c-0.3,0.2-0.6,0.5-0.8,0.7
	s-0.9,0.3-1.1,0.7c-0.1,0.2-0.3,0.8-0.7,0.7c-0.2-0.1-0.3-0.7-0.4-0.9s-0.3-0.6-0.4-0.9s-0.2-0.5-0.3-0.7c-0.3-0.2-0.5-0.3-0.8-0.5
	c-0.4-0.2-0.8-0.2-1-0.6s-0.2-0.5-0.3-0.7c-0.3-0.5-0.8-0.9-1.3-1.1l-0.4-0.1c-0.4,0-0.7-0.2-0.9-0.4c-0.1-0.2-0.3-0.4-0.5-0.5
	c-0.5-0.3-1.1-0.1-1.1,0.4s-0.1,1.1-0.2,1.6c-0.1,0.4-0.2,0.7-0.4,1.1c-0.1,0.1-0.1,0.3-0.2,0.4s-0.1,0-0.2,0.2
	c-0.2,0.4,0.2,1,0.5,1.3l0.1,0.1c0.3,0.2,0.5,0.4,0.6,0.7c0.1,0.3,0.2,0.7,0.2,1.1c0.1,0.6,0.9,0.9,1.5,1.3c0.3,0.2,0.3,0.6,0.7,0.8
	c0.2,0.2,0.5,0.3,0.8,0.4s0.6,0.3,0.8,0.6c0.2,0.2,0.2,0.4,0.4,0.6s0.7,0.6,0.8,1c0,0.1,0,0.2-0.1,0.3c0,0.3,0.1,0.7,0.1,1
	s-0.2,0.8,0,1.2s0.4,0.4,0.6,0.6c0.1,0.2,0.2,0.4,0.3,0.6c0,0.2,0,0.3-0.1,0.5v0.1c0,0.3,0,0.6-0.1,0.8c-0.3-0.1-0.4-0.3-0.5-0.6
	l0,0c-0.5-0.2-0.9-0.4-1.4-0.8c-0.3-0.2-0.6-0.2-0.9-0.4c-0.2-0.2-0.4-0.3-0.5-0.5c-0.2-0.2-0.3-0.3-0.5-0.4s-0.4-0.4-0.6-0.6
	l-0.4-0.4c-0.3-0.3-0.5-0.6-0.7-0.8c-0.2-0.2-0.3-0.5-0.4-0.7s-0.2-0.5-0.3-0.7c-0.1-0.3-0.2-0.5-0.2-0.8c0-0.2-0.1-0.5-0.1-0.7
	c-0.1-0.6-0.3-1.1-0.7-1.6c-0.1-0.2-0.3-0.3-0.5-0.4s-0.3-0.2-0.4-0.4c-0.1-0.1-0.2-0.1-0.3-0.2l-0.1-0.1c-0.2-0.2-0.2-0.5-0.3-0.8
	c-0.1-0.1-0.2-0.3-0.3-0.5c0-0.1,0-0.2-0.1-0.3s-0.2-0.4-0.2-0.6c-0.1-0.2-0.2-0.4-0.2-0.7c0-0.3,0.1-0.5,0.2-0.8
	c0-0.3,0.1-0.5,0.2-0.8c0.1-0.1,0.2-0.2,0.3-0.4c0-0.1,0-0.3,0-0.4l0.1-0.7c0.1-0.4,0-0.9-0.1-1.3c0-0.2-0.2-0.4-0.3-0.5
	s0-0.3-0.1-0.5s-0.2-0.3-0.2-0.4c-0.1-0.2-0.1-0.3-0.2-0.5s-0.1-0.4-0.2-0.6s-0.2-0.5-0.3-0.8c-0.1-0.4-0.3-1.1-0.9-1.2
	c-0.3,0-0.5,0-0.8,0.1s-0.6,0.1-0.9,0.3c-0.3,0.2-0.7,0.3-1.1,0.3s-0.4-0.2-0.5-0.4c-0.3-0.5-0.4-1.1-0.5-1.7
	c-0.1-0.4-0.4-0.8-0.7-1c-0.5-0.3-0.8-0.9-0.8-1.4c0-0.2,0-0.5-0.1-0.7c-0.1-0.1-0.1-0.2-0.2-0.3h-0.2c-0.3-0.2-0.5-0.4-0.7-0.6
	c-0.2-0.3-0.4-0.6-0.5-0.9c-0.2-0.2-0.3-0.5-0.3-0.7s0-0.5-0.1-0.7c-0.4-0.5-1.1-0.8-1.7-0.8c-0.3,0-0.4,0.3-0.7,0.5
	c-0.3,0.1-0.7,0.2-1.1,0.2c-0.7,0-1.4-0.1-2.2-0.1h-0.6c-0.1,0-0.5,0-0.6,0.1s0,0.4,0,0.6c-0.1,0.2-0.2,0.5-0.3,0.7
	c-0.3,0.5-0.9,0.6-1.5,0.7c-0.5,0-0.9,0.2-1.2,0.5c-0.1,0.1,0,0.3-0.1,0.4c-0.1,0.2-0.2,0.4-0.3,0.5c-0.2,0.2-0.3,0.5-0.5,0.7
	c-0.4,0.5-1,1-1.6,1.2c-0.4,0.1-0.7,0.3-1,0.5l0,0v0.1c-0.2,0.3-0.3,0.7-0.5,1s-0.2,0.4-0.8,0.4c-0.5-0.1-1-0.1-1.5-0.1
	c-0.4,0.1-0.6,0.3-0.4,0.6c0,0.1,0.1,0.2,0.1,0.3c0,0.1,0,0.2,0,0.3s0.1,0.1,0.1,0.2s0,0.2,0,0.3c0,0.2,0.1,0.3,0.1,0.5
	s-0.2,0.3,0,0.5c-0.4,1.1-0.6,2.3-0.7,3.5c0,1.3,0,1.7-1.3,2.3c-0.3,0.1-0.5,0.2-0.7,0.4c-0.5,0.5-0.2,1.3-1,1.6
	c-0.5-0.1-0.4-0.6-0.7-0.8c0,0-0.7-0.3-0.8-0.3c-0.6-0.1-1.1-0.5-1.4-1c-1.1-1.5-2.1-3-3.1-4.6c-0.6-0.8-1.2-1.7-1.6-2.6
	c-0.5-1.3-0.4-2.6-0.9-3.8s-0.6-3.5-2.8-3.4c-1.2,0-2.9,0.1-3.7-0.8l-0.1-0.1c-0.3-0.4-0.5-0.9-0.5-1.5c0-0.5-0.2-1-0.4-1.5
	c-1.1-1.3-2.4-2.2-4-2.7c-1.8-0.4-3.6-0.4-5.4,0c-1.5,0.2-3,0.2-4.5-0.1c-1.1-0.2-1.8-1-2.8-1.3c-0.6-0.2-1.3-0.2-1.9-0.1
	c-0.9,0-1.8-0.2-2.7-0.4c-0.9-0.2-1.8-0.4-2.7-0.5h-0.6c-0.3,0-0.5,0-0.8-0.1h-0.1c-0.2,0-0.5-0.1-0.8-0.1c-0.5-0.2-1.1-0.3-1.6-0.3
	h-0.2c-0.1,0-0.3,0-0.4,0.1c0.1,0.1,0.1,0.2,0.2,0.2c0.1,0.1,0.1,0.2,0.2,0.3c0.1,0.2,0.2,0.4,0.3,0.7c0.1,0.2,0.2,0.3,0.3,0.5l0,0
	l0,0c0.4,0.6,1,1.3,1.5,1.8c0.1,0.2,0.3,0.3,0.5,0.5c1.5,1.1,3.7-0.6,5.2-1.2c0.6-0.2,0.5-0.3,1,0c0.3,0.2,0.6,0.5,0.8,0.8
	c0.9,0.9,2,1.5,3.2,1.8c0.7,0.2,1.8,0.6,2,1.2s-0.7,1.8-1.2,2.3c-0.5,0.4-1.1,0.8-1.7,1c-0.4,0.3-0.7,0.6-1,1
	c-0.2,0.4-0.4,0.9-0.4,1.3c-0.1,0.9-0.8,1.6-1.7,1.6c-0.8,0-1.7,0.3-2.2,1c-0.4,0.6-0.7,1.1-1.2,1.6c-0.8,0.8-0.7,1.6-2.1,1.7
	c-1,0-2,0.1-3,0.3c-0.2,0.1-0.4,0.2-0.6,0.3c-0.2,0.1-0.3,0.2-0.5,0.3c-1.3,1-2.8,1.7-4.3,2.2c-0.1,0-0.4,0.1-0.6,0.1l0,0
	c-0.4,0.1-0.7,0.1-1.1,0c-0.4-0.2-0.7-1.1-0.9-1.3c-0.3-0.4-0.6-0.9-0.9-1.3l0,0c0,0.4,0.1,0.9,0.1,1.3s0.1,0.8,0.1,1.1
	c0.1,0.8,0.2,1.6,0.3,2.4c0,0.1,0,0.2,0,0.3s0.1,0.4,0.1,0.6c0.3,0.2,0.7,0.2,1.4,0.1c1.1-0.2,2.1-0.4,3.1-0.8c1-0.3,1.8-0.8,2.8-1
	c0.3-0.1,0.6-0.2,0.8-0.3l0,0c0.8-0.4,1.6-0.7,2.4-0.9c0.3-0.1,0.5-0.2,0.8-0.3c0.7-0.2,1.4,0.2,1.3,0.8c-0.1,0.4-0.2,0.9-0.3,1.4
	l0,0c-0.1,0.6-0.2,1.2-0.5,1.7c-0.5,0.7-0.7,1.6-1.2,2.2s-0.5,1.5-0.8,2.1c-0.8,1.5-2.1,2.3-2.7,3.9c-0.6,1.1-1.5,2-2.7,2.5l0,0
	l-1.1,0.7l-0.3,0.2c0.1,0.3,0.2,0.7,0.3,1s0.2,0.5,0.3,0.8l0,0l0.6,1.5l0.4,0.9c0.2,0.4,0.3,0.9,0.5,1.3l0.2,0.6
	c0.2,0.4,0.4,0.9,0.5,1.3c0.2,0.5,0.4,0.9,0.6,1.4c0.1,0.3,0.3,0.6,0.4,0.9l0,0c0.1,0.2,0.1,0.3,0.2,0.5c0.2,0.5,0.5,1,0.7,1.5
	c0.6,1.2,1.2,2.4,1.9,3.6l0.4,0.8l0.6,1.1c0-0.1,0.1-0.1,0.1-0.2c0.1-0.1,0.1-0.1,0.2-0.2l0,0c0.1-0.1,0.1-0.2,0.2-0.4
	s0.1-0.1,0.2,0l0,0c0.3,0.3,0.3,0.6,0.5,0.9c0.1,0,0.2,0.1,0.2,0.2c0.3,0.2,0,0.5,0.3,0.7c0,0.1,0,0.1,0,0.2c0.2,0.3,0,0.7,0.2,1
	c0,0.2,0,0.5,0.1,0.7s0.1,0.3,0.2,0.4v0.1l0,0c0.1,0.1,0.1,0.3,0.1,0.4l0.3,0.5l0.9,1.4l0.2,0.3l0.6,0.8l0.3,0.4l0.6,0.8l0.8,1
	l0.8,1l0,0c0.5,0.6,1.1,1.3,1.6,2l0.8,1l0.9,1c0.6,0.6,1.2,1.2,1.8,1.9l0.7,0.7l0.8,0.8l0.4,0.4c0.4,0.4,0.8,0.7,1.1,1.1l0.8,0.7
	l0.8,0.8c0.5,0.5,1.1,1,1.7,1.4l0,0c0.1,0.1,0.2,0.2,0.3,0.2l0.3,0.2l0.7,0.6l0.7,0.6l0.5,0.4l0.8,0.6l0.8,0.6l0.3,0.2l0.5,0.3
	l0.6,0.4l0.6,0.4l0.3,0.2l0.3,0.2l0.2,0.1l0.2,0.1l0.5,0.3l0.9,0.6l0.3,0.2l0.6,0.4l0.4,0.2l0.5,0.3l0.6,0.4h0.1l0.8,0.5l0.2,0.1
	l1.1,0.6l0.1,0.1l1,0.6l0.4,0.2l0.5,0.1l0.2,0.1l0.2,0.1l0.5,0.3l0.2,0.1l0.5,0.2l0.6,0.3l1,0.5h0.1l0.4,0.2l1,0.4l0.4,0.2l0.7,0.3
	l0.5,0.2l0.8,0.3l0.2,0.1l0.4,0.2l0.3,0.1l0.4,0.2l1.4,0.6H72l0,0l0.8,0.3l0.4,0.1l0.4,0.1l0.3,0.1l1,0.3l0.7,0.2
	c0.6,0.2,1.1,0.4,1.7,0.5l0.2,0.1l0.5,0.1l1,0.3l0.3,0.1l0.5,0.1l0.9,0.2h0.2h0.2l0.5,0.1l1.1,0.2l1.6,0.4l0.5,0.1
	c0.5,0.1,0.9,0.2,1.4,0.3h0.2h0.2h0.2l1.5,0.2h0.1l0.4,0.1l1.2,0.5l0,0h0.1h0.1l0.7,0.1l0.9,0.1H92l1.6,0.2h0.2l0.7,0.1h0.2h0.4h0.2
	h0.4h0.1h0.6l1.1,0.1H98h0.6h2.8c4.5,0,8.9-0.4,13.4-1.1l1.8-0.3l0.3-0.1l1.2-0.2l0.5-0.1l0.4-0.1l1.6-0.4l1.9-0.4l1.4-0.4l1.1-0.3
	l1.2-0.4l1.2-0.4l1.2-0.4c0.8-0.3,1.7-0.6,2.5-0.9l0.9-0.3c0.8-0.3,1.7-0.7,2.5-1c0-0.1,0-0.1,0-0.2c-0.2-0.9-0.4-1.8-0.8-2.6
	c-0.1-0.1-0.3-0.1-0.4-0.2c0-0.1-0.1-0.2-0.2-0.2c-0.1-0.2-0.3-0.1-0.4-0.1l-0.4-0.1c-0.1-0.1-0.2-0.1-0.2-0.2
	c-0.1-0.1-0.1-0.1-0.2-0.2c-0.1-0.1-0.1-0.1-0.2-0.2c-0.8-0.3-1.7-0.4-2.5-0.4l-0.6-0.1c-0.1,0.1-0.2,0.1-0.2,0.1h-0.1h-0.1
	c-0.1,0.1-0.3,0-0.4,0.1s-0.3,0-0.5,0.1h-0.1H127c-0.2,0.1-0.5-0.1-0.7,0.1c-0.1,0-0.1,0-0.2,0c-0.6,0.1-1.2-0.3-1.9-0.1l-0.2,0.1
	l0,0c-0.1,0.1-0.2,0.1-0.3,0.1l0,0c-0.1,0.1-0.3,0-0.4,0.1s-0.2,0.1-0.2,0.1c-0.1,0.1-0.3,0-0.4,0.1s-0.3,0-0.4,0.1
	s-0.2,0.1-0.2,0.1c-0.1,0.1-0.1,0.3-0.2,0.3s-0.1,0.3-0.3,0.4c-0.1,0.1-0.1,0.1-0.2,0.1l0,0l-0.2,0.2c-0.1,0.1-0.2,0.1-0.3,0.1h-0.2
	c-0.4,0.2-0.8-0.2-1.3,0c-0.9-0.3-1.8-0.3-2.7-0.2l-0.2,0.1c-0.1,0.1-0.1,0.1-0.2,0.2l0,0c-0.2,0.2-0.4,0.4-0.7,0.5l-0.2,0.1
	l-0.2,0.1l-0.1,0.1l-0.2,0.1c0,0-0.1,0-0.1,0.1l-0.2,0.1c-0.1,0-0.1,0.1-0.2,0.1s-0.2,0.1-0.3,0.1c-0.1,0-0.2,0-0.2,0
	c-0.4,0-0.9-0.1-1.3-0.2l-0.2-0.1c-0.1,0-0.1-0.1-0.2-0.1l-0.1-0.1c-0.1-0.1-0.2-0.2-0.3-0.3c-0.1-0.1-0.1-0.1-0.1-0.2
	c0-0.1-0.1-0.1-0.1-0.2l-0.1-0.1l-0.2-0.2l-0.1-0.1c-0.2-0.3-0.2-0.8,0-1.1v-0.1c0.1-0.2,0.4-0.2,0.6-0.3l0.2-0.2
	c0.1-0.2,0.2-0.3,0.2-0.5c0-0.1,0-0.1,0-0.2v-0.1v-0.1l0.2-0.3c0-0.1,0.1-0.2,0.2-0.3c0.2-0.3,0.2-0.7,0.1-1.1c0-0.1,0-0.1,0-0.2
	c-0.1-0.2,0-0.4-0.1-0.6c0-0.1,0-0.1,0-0.2c-0.1-0.1,0-0.3-0.1-0.4c0-0.1,0-0.1,0-0.2c-0.1-0.1-0.1-0.2-0.1-0.3
	c0-0.2,0.1-0.5,0.1-0.8s0.3-0.5,0.2-0.9c0-0.1,0-0.1,0-0.2c-0.3-0.4-0.1-0.8-0.3-1.2l0,0c-0.1-0.3-0.1-0.7,0.1-0.9
	c0-0.1,0-0.1,0-0.2c-0.1-0.2,0-0.4-0.1-0.6c0-0.1,0-0.1,0-0.2c0-0.1,0-0.1,0-0.2c0,0-0.1,0-0.1-0.1s0-0.1,0-0.2
	c0-0.1-0.1-0.1-0.2-0.2c0-0.1-0.1-0.1-0.1-0.2c0-0.1,0-0.3-0.1-0.4c0-0.1,0-0.1,0-0.2c-0.1-0.2,0-0.3,0-0.5c0.1-0.1,0.2-0.1,0.3-0.1
	c0.2,0,0.1,0.3,0.3,0.2c0-0.1,0.1-0.1,0.2-0.2h0.1h0.1c0.1,0.1,0.2,0.2,0.2,0.3s0.1,0.1,0.1,0.2v0.1v-0.1c-0.1-0.1-0.1-0.2-0.1-0.4
	c0-0.1-0.1-0.2-0.1-0.4s0-0.4,0.1-0.5c0.1-0.2,0-0.5,0.2-0.6c0-0.1,0-0.1,0-0.2l0.2-0.2v-0.1c0.1-0.1,0.1-0.2,0.2-0.2l0.2-0.2
	c0-0.1,0-0.2,0.1-0.3c0.1-0.2,0.2-0.4,0.1-0.6v-0.1c0.1-0.1,0.1-0.1,0.2-0.2l0,0c0.2-0.1,0.1-0.3,0.3-0.4s0.1-0.3,0.3-0.3l0,0
	c0.3-0.1,0.3,0.2,0.5,0.2l0.2-0.1c0.1,0,0.1,0,0.2-0.1l0,0c0.1-0.1,0.3,0,0.4-0.1s0.3-0.1,0.4-0.2s0.3,0,0.5-0.1l0.2-0.1
	c0.1-0.1,0.2-0.1,0.2-0.1c0.1-0.1,0.2-0.1,0.2-0.2l0,0c0-0.1,0.1-0.1,0.2-0.1l0.2-0.1c0.1,0,0.1,0,0.2,0s0.2,0,0.3-0.1
	c0.6-0.3,1.2,0.3,1.8,0c0.1-0.1,0.2-0.1,0.2-0.1c0.2-0.2,0.5,0,0.7-0.1h0.4l0.2-0.1l0.2-0.1c0.2-0.1,0.4-0.1,0.6-0.1
	c0.1,0,0.2,0,0.3,0.1c0.2,0.1,0.5,0.2,0.7,0.1c0.1,0,0.1,0,0.2,0c0.1-0.1,0.3,0,0.5-0.1c0-0.1,0.1-0.1,0.2-0.1l0.3-0.1
	c0.1,0,0.1,0,0.2,0s0.1,0,0.2,0c0.1-0.1,0.2-0.1,0.2-0.2c0.1,0,0.2-0.1,0.2-0.2c0.2-0.1,0.1-0.2,0.3-0.3c0.2-0.2,0.3-0.3,0.5-0.5
	l0,0c0.3-0.1,0.6-0.3,0.8-0.6c0-0.2,0.1-0.5,0.1-0.7c0.1-0.1,0.1-0.1,0.1-0.2l0.1-0.1c0.1-0.1,0.4-0.1,0.5-0.2l0,0l0.2-0.1l0,0
	c0.1-0.2,0.3-0.3,0.6-0.3c0.4,0.1,0.3,0.4,0.4,0.6c0,0.1,0,0.1,0,0.2c0,0.1,0.1,0.1,0.1,0s0.1-0.2,0.1-0.3s0-0.1,0-0.2
	c0-0.1,0.1-0.2,0.1-0.4s0.1-0.1,0.1-0.1l0,0c0.4-0.2,0.9,0.6,1.4,0c0.1,0,0.1-0.1,0.1-0.1V148l0,0c-0.1-0.1-0.1-0.2,0-0.3l0,0v-0.1
	c0.1-0.3,0.5-0.2,0.7-0.3l0,0c0.5-0.2,0.6-0.6,1.1-0.8c0.1,0,0.2-0.1,0.4-0.1c0.1,0,0.2,0,0.2,0l0.1,0.1h0.1l0.1-0.1
	c0.1-0.1,0.1-0.2,0.2-0.2c0.1-0.1,0.1-0.1,0.2-0.1h0.1h0.1c0.2,0,0.3,0,0.5,0c0.1,0,0.2,0,0.2,0c0.3-0.1,0.5,0.2,0.7,0.2
	c0.1,0,0.2,0.1,0.3,0.2c0.1,0.2,0.1,0.4,0.2,0.6l0,0c0.1,0.2,0.3,0.4,0.4,0.6s0,0.1-0.1,0.1s0.1,0,0.1,0c0.2-0.2,0.4-0.2,0.6,0
	c0.3,0.2,0.7,0.3,1.1,0.2c0-0.1,0-0.1,0-0.2c0-0.1-0.1-0.2-0.2-0.2l0,0c-0.1,0-0.1-0.1,0-0.1l0,0c0.1-0.1,0.1-0.3,0.3-0.3
	c0.2-0.1,0.3-0.2,0.5-0.3c0-0.1,0-0.1,0-0.2c0.3-0.3,0.6-0.5,0.9-0.8c0.2-0.1,0.3-0.2,0.5-0.3l0.2-0.1l0.3-0.1c0.1,0,0.1,0,0.2,0
	l0.3-0.1l0,0c0.6-0.3,1.4,0.3,2-0.1c0-0.4-0.5-0.5-0.5-0.9c0.2-0.4,0.7,0.1,1-0.1c0.4,0.1,0.5,0.5,0.8,0.7c0,0.1,0.1,0.2,0.2,0.2
	c0.2,0.2,0.7,0.1,0.9,0.4s0.3,0.1,0.4,0.3c0.1,0.1,0.3,0.2,0.5,0.1h0.1c0.1,0.1,0.2,0.1,0.2,0.2c0.1,0.1,0.3,0.1,0.5,0.1
	c0.1-0.1,0.3,0,0.5-0.1l0,0c0.5,0,0.4,0.5,0.7,0.6c0,0.1,0.1,0,0,0s-0.2-0.3,0-0.4c0.6-0.4,0.7,0.2,1,0.5c0.1,0.1,0.1,0.2-0.1,0.4
	c-0.1,0.1-0.2,0.1-0.2,0.1l0,0c-0.1,0-0.2,0.1-0.3,0.1c-0.2,0.1-0.1,0.4-0.3,0.5c-0.4,0.1-0.8,0.4-1,0.8l0,0
	c-0.2,0.1-0.2,0.2-0.3,0.3l-0.2,0.1l0,0c-0.1,0-0.2,0.1-0.2,0.1l-0.1,0.1c-0.2,0.3,0,0.6,0.1,0.8c0,0.1,0.1,0.1,0.2,0.2l0,0
	c0,0.1,0.1,0.2,0.2,0.2c0.4,0.2,0.8,0.4,1,0.8c0.1,0.1,0.1,0.1,0.2,0.2c0.1,0.1,0.3,0.1,0.4,0.3l0,0c0.1,0.1,0,0.3,0.2,0.4l0.2,0.2
	l0,0c0.1,0.1,0.3,0.1,0.4,0.3c0.1,0,0.1,0,0.2,0c0.1,0.1,0.3,0.1,0.4,0.3c0.4,0.2,0.3,0.6,0.5,0.9c0.1,0.1,0.3,0.1,0.4,0.3
	c0.2,0.2,0.4,0.2,0.6,0.1c0.1-0.1,0.3,0,0.5-0.1l0,0c0.2-0.1,0.1-0.2,0.3-0.3s0.1-0.3,0.3-0.3l0,0l0.2-0.1c0.2-0.1,0.1-0.2,0.3-0.3
	l0,0c0.1-0.1,0.1-0.3,0.3-0.3s0.1-0.4,0.3-0.5c0-0.1,0.1-0.1,0.1-0.2c0.1-0.1,0.1-0.3,0.3-0.3s0.1-0.2,0.3-0.3
	c0.1-0.3,0.1-0.6,0.2-0.9c0.3-0.3,0.1-0.8,0.4-1.1c0.1,0,0.2-0.1,0.2-0.1c0-0.1,0-0.1,0-0.2c-0.1-0.1,0-0.3,0.1-0.3l0,0l0.2-0.1
	c0.1,0,0.1-0.1,0.1-0.1v-0.1c0,0-0.1-0.3,0.1-0.4v-0.1c0.1-0.1,0.2-0.1,0.2-0.2c0.1,0,0.2-0.1,0.2-0.1l0.1-0.1
	c0.1-0.1,0.1-0.3,0.3-0.3s0.1-0.4,0.3-0.5l0.1-0.1c0.3-0.2,0.6-0.3,0.9,0.2s-0.4,0.9,0.1,1.4l0,0v0.1c0,0,0,0-0.1,0
	c0,0-0.1,0.1-0.1,0.2c-0.1,0.1-0.1,0.1,0,0.2c0.1,0.1,0.1,0.2,0.1,0.3v0.1c0.1,0.4,0,0.9-0.3,1.3c0,0.1-0.1,0.2-0.1,0.4
	c0.2,0.2-0.3,0.6,0.3,0.6l0,0c0.1-0.1,0.3,0,0.5-0.1s0.3,0.1,0.4,0.3c0,0.1,0,0.1,0,0.2c0.1,0.1,0.3,0.3,0.4,0.5
	c0.1,0.1,0.1,0.2,0.2,0.2l0,0c0.1,0.2,0,0.4-0.1,0.5c0,0.1,0,0.1,0,0.2c-0.1,0-0.1,0.1-0.1,0.1v0.1c-0.1,0.3-0.1,0.6-0.2,0.9
	c-0.1,0.1-0.2,0.2-0.1,0.4c0.1,0.1,0.1,0.2,0.2,0.2l0,0c0.1,0.1,0.1,0.2,0.2,0.3v0.1c-0.1,0-0.1,0.1-0.1,0.1v0.1c0,0.1,0,0.1,0,0.2
	c0.1,0.2,0,0.4-0.1,0.6c0,0.1,0,0.1,0,0.2c-0.4,0.3,0.2,0.8-0.2,1.1c-0.1,0.1-0.2,0.2-0.1,0.4l0.2-0.2l0.7-0.7l0.8-0.8
	c1.4-1.3,2.7-2.7,4-4.2c0.7-0.8,1.3-1.5,2-2.3l0.2-0.3l0.9-1.2c-0.1,0-0.2-0.1-0.3-0.2l0,0c-0.4-0.3-0.9-0.2-1.3-0.5l0,0
	c-0.1-0.1-0.2-0.1-0.3-0.1H166c-0.1-0.1-0.4-0.1-0.4-0.3c-0.1-0.1-0.1-0.2-0.2-0.3v-0.1c-0.1-0.1-0.1-0.2-0.1-0.2
	c-0.1-0.1-0.2-0.1-0.2-0.2c-0.1-0.1-0.1-0.1-0.1-0.2l0,0c-0.1-0.1,0-0.3-0.1-0.4V146h-0.1c-0.3-0.2,0-0.4-0.2-0.6l0,0
	c0,0-0.1-0.3-0.1-0.4s0-0.3-0.2-0.4c0-0.1-0.1-0.1-0.2-0.1c-0.2-0.2-0.5-0.1-0.7-0.3s-0.5-0.1-0.6-0.3s-0.7,0.1-0.9-0.2h-0.2
	c-0.2,0-0.1,0.3-0.4,0.3h-0.1h-0.1c-0.6,0,0,0.8-0.6,0.8v0.1c-0.1,0.1-0.2,0.1-0.3,0.1l0,0c-0.1,0.1-0.3,0-0.5,0.1s-0.3,0-0.5,0.1
	h-0.1h-0.3c-0.1-0.1-0.3-0.1-0.4-0.3h-0.2c-0.5,0-1-0.1-1.5-0.4c-0.1,0-0.1-0.1-0.1-0.1c-0.1,0-0.1-0.1-0.1-0.1
	c-0.1-0.1-0.1-0.3-0.2-0.4l0,0c-0.1-0.1-0.1-0.2-0.1-0.2c-0.1-0.1-0.2-0.1-0.2-0.2l0,0c0,0-0.1-0.1-0.1-0.2
	c-0.2-0.2-0.3-0.5-0.7-0.3l-0.4-0.1c-0.1-0.1-0.2-0.1-0.3,0c-0.7,0.3-1.5,0.1-2-0.4l0,0c0.2-0.1,0.2-0.2,0.3-0.3l0,0
	c0.2-0.1,0.1-0.3,0.3-0.3l0,0c0.1-0.1,0.2-0.1,0.2-0.1c0.1,0,0.2-0.1,0.3-0.1c0.5,0,0.6-0.3,0.8-0.6l0,0c0.1,0,0.1-0.1,0.1-0.1v-0.1
	l0,0c-0.1-0.1-0.1-0.1-0.2-0.2l0,0c-0.2-0.2,0-0.4-0.1-0.6s-0.1-0.7-0.5-1.1c-0.1,0-0.2-0.1-0.2-0.2l0,0c-0.2-0.2-0.6-0.4-0.8-0.6
	h-0.1h-0.1c-0.3-0.2-0.6-0.4-0.9-0.6l0,0c-0.1-0.1-0.1-0.1-0.2-0.2l-0.4-0.1c-0.2-0.2-0.7-0.1-0.9-0.4l0,0c-0.2-0.1-0.3-0.2-0.4-0.4
	c-0.1-0.2-0.5-0.1-0.6-0.3l0,0c-0.3-0.2-0.5-0.3-0.8-0.5c0.1,0.1,0,0.3-0.1,0.3c0,0,0,0-0.1,0l0,0c-0.2,0.2-0.5,0.3-0.7,0.1
	l-0.1-0.1c-0.2-0.4,0.2-0.9-0.2-1.4c-0.1-0.1-0.1-0.2-0.2-0.2l-0.4-0.1c-0.2-0.1-0.2-0.2,0-0.4c0.6,0.1,1.2,0,1.8-0.2
	c-0.2-0.1-0.5,0-0.8-0.2c-0.1-0.1-0.2-0.1-0.2,0c-0.5,0-0.4-0.3-0.6-0.5s-0.1-0.5-0.4-0.6c-0.4-0.2-1.1-0.2-1.2-0.8
	c0-0.2-0.4-0.4-0.1-0.6h0.1c0.2-0.1,0.4,0,0.5,0.2c0.3,0.4,0.2-0.1,0.4,0l0,0c0.5,0,1-0.1,1.5-0.3c0.1,0,0.1,0,0.2,0
	c0.1,0,0.2,0,0.2,0c0.2,0.1,0.3,0.1,0.5,0.2c0.2,0,0.3,0,0.4,0.2c0.1,0.1,0.1,0.1,0.2,0.2c0.3,0.3,0.8,0.1,1.1,0.4
	c0.1,0.3,0,0.6,0.1,0.8v0.1c-0.1,0.1-0.1,0.2-0.2,0.4c0,0,0.1,0,0.1,0.1c-0.1,0.2,0.1,0.4,0.1,0.6H150c0.1,0.2,0.2,0.4,0.3,0.5
	c0,0.1,0,0.2,0,0.3c0.2,0.3,0.1,0.5,0.3,0.8s0.2,0.2,0.4,0.1c0.1-0.1,0.2-0.1,0.3-0.1c0.1-0.1,0.2-0.1,0.3-0.1l0,0
	c0.1-0.1,0.2-0.1,0.2-0.1c0.1-0.2,0.3-0.3,0.5-0.3l0,0c0.2,0,0.1-0.2,0.3-0.3h0.7c0.2-0.1,0.3-0.4,0.6-0.4l0,0
	c0.1-0.1,0.3-0.1,0.5-0.1l0,0c0.1-0.1,0.3,0,0.5-0.1c0.1-0.1,0.3,0,0.4,0.1l0,0l0,0c0.1,0.1,0.2,0.1,0.2,0.2l0.1,0.1
	c0.1,0.1,0.4,0.1,0.5,0.3c0.1,0.1,0.1,0.2,0.2,0.2l0,0c0.1,0.1,0.3,0.1,0.4,0.3l0,0c0.1,0.1,0.3,0.1,0.4,0.3l0,0
	c0.1,0.1,0.3,0.1,0.4,0.3l0.2,0.1c0.4,0.1,0.7,0.2,1.1,0.4l0.1,0.2c0.2,0,0.4,0,0.5,0.2l0,0c0.1,0.1,0.3,0.1,0.4,0.3
	s0.3,0.1,0.4,0.3l0,0c0.1,0.1,0.3,0.1,0.4,0.3s0.3,0.1,0.4,0.3l0,0c0.1,0.2,0.5,0.1,0.6,0.3c0,0,0.1,0.1,0.2,0.1
	c0.3,0.2,0.7,0.3,0.9,0.6c0.1,0.1,0.1,0.1,0.2,0.2c0.3,0.2,0.8,0.3,1,0.6c0.2,0.1,0.3,0.3,0.4,0.5c0.1,0.1,0.4,0.1,0.4,0.3l0,0
	c0.1,0.2,0.4,0.4,0.3,0.6s0,0.2-0.1,0.3s-0.2,0.2-0.1,0.4l0.1,0.1c0.1,0.1,0.4,0.1,0.5,0.3l0.1,0.1c0.1,0,0.2,0.1,0.2,0.2
	c0.1,0.1,0.3,0.1,0.4,0.3s0.5,0.1,0.6,0.3c0.1,0.1,0.1,0.1,0.2,0.2c0.1,0.1,0,0.3,0.1,0.4l-0.1,0.3c-0.2,0.2-0.5,0-0.8,0H166h-0.1
	c-0.5-0.2-0.4,0.1-0.4,0.3s0.1,0.5,0.3,0.6c0.1,0.3,0.3,0.5,0.5,0.7c0.1,0.1,0.1,0.2,0.2,0.3v0.1c0,0.3,0.1,0.7,0.2,1
	c0.2,0.2,0.5,0.2,0.7,0.2h0.1c0.3,0.2-0.1,0.5,0.1,0.8l0,0c0.1,0.1,0.2,0.1,0.4,0.2l0.8-1.1c0.2-0.3,0.4-0.5,0.6-0.8
	s0.4-0.6,0.6-0.8c1-1.4,1.9-2.8,2.8-4.3c0.5-0.8,1-1.7,1.5-2.5c0.2-0.4,0.4-0.8,0.6-1.2s0.4-0.7,0.6-1.1c0.1-0.1,0.1-0.3,0.2-0.4
	c0.2-0.3,0.4-0.7,0.5-1s0.3-0.6,0.5-0.9c0.2-0.5,0.5-1,0.7-1.4c0.1-0.3,0.3-0.6,0.4-0.9s0.2-0.4,0.3-0.7s0.3-0.6,0.4-0.9l0.4-0.9
	c0.1-0.2,0.1-0.4,0.2-0.6c0.1-0.4,0.3-0.8,0.5-1.1s0.4-1,0.6-1.4c0.1-0.3,0.2-0.6,0.3-0.9s0.2-0.6,0.3-0.9c0.7-2.2,1.4-4.4,2-6.6
	c0.1-0.4,0.2-0.8,0.3-1.1s0.1-0.5,0.2-0.8s0.1-0.3,0.1-0.5c0.1-0.4,0.2-0.9,0.3-1.3c0-0.2,0.1-0.3,0.1-0.4c0.1-0.4,0.2-0.9,0.3-1.3
	c0-0.2,0.1-0.3,0.1-0.5c0.1-0.5,0.2-0.9,0.2-1.4c0-0.1,0-0.2,0.1-0.4c0.1-0.5,0.2-1,0.2-1.5c0-0.1,0-0.2,0-0.4
	c0.1-0.4,0.1-0.9,0.2-1.3c0-0.2,0.1-0.4,0.1-0.6c0.1-0.5,0.1-1,0.1-1.5c0-0.1,0-0.2,0-0.3c0-0.4,0.1-0.8,0.1-1.2s0-0.6,0.1-0.9
	c0-0.6,0.1-1.1,0.1-1.7s0-1.2,0.1-1.8s0-1.3,0-1.9C186.2,93.8,186.1,91.3,185.9,89z M127.1,74.9L127.1,74.9z M23.9,108.3L23.9,108.3
	z M139.9,119.8c0-0.2,0.1-0.4-0.1-0.6v-0.1c-0.1,0-0.1-0.1-0.2-0.1l0,0h-0.2l-0.1,0.1c-0.1,0.1-0.1,0.2-0.1,0.3
	c0.2,0.1,0.1,0.3,0.2,0.4c0,0,0,0.1,0,0.2l0,0c0.1,0.3-0.1,0.5-0.4,0.7c-0.1,0.1-0.3,0.1-0.4-0.1c-0.1-0.4-0.6-0.3-0.9-0.5
	s-0.4-0.1-0.4-0.3l0,0c-0.1-0.1-0.2-0.1-0.2-0.2c-0.1-0.1-0.1-0.1-0.2-0.2l0,0l0,0c-0.1-0.3-0.1-0.6,0-0.8c0-0.1,0.1-0.2,0.1-0.2
	c0.1,0,0.2-0.2,0.1-0.3c0,0,0-0.1-0.1-0.1l-0.2-0.2h-1c-0.4,0-0.8,0-1.1-0.2v0.1c-0.1,0.1-0.1,0.2-0.2,0.2l0.1,0.1
	c0,0,0,0.1-0.1,0.1c0,0-0.1,0.1-0.1,0.2c-0.1,0.1-0.3,0.1-0.5,0l0,0c-0.1-0.2-0.1-0.4,0.1-0.6c0-0.1,0.1-0.2,0.1-0.3s0.1,0,0.1-0.1
	c0-0.2,0-0.4,0.2-0.5l0,0c0.1,0,0.2-0.1,0.3-0.1s0.1,0,0.2,0c0.3-0.1,0.6-0.3,0.9-0.4h0.1c0.1-0.1,0.3-0.3,0.5-0.2
	c1.2,0.8,1.9,0,2.7-0.4l0.1-0.1c-0.1-0.4,0.2-0.8,0.1-1.2c0.1-0.1,0.3-0.1,0.4,0.1l0,0c0,0.1,0,0.2,0,0.3c0.2,0.2,0.1,0.5-0.1,0.7
	l0,0c0.2,0,0.3,0.2,0.4,0.3c0.2,0.2,0.4,0.3,0.4,0.5c0,0.1,0,0.1,0,0.2c0.1,0.2-0.1,0.4,0.1,0.6s0,0.4,0.1,0.6v0.1
	c-0.1,0.1-0.1,0.1,0,0.2l0,0c0.1,0.1,0.2,0.2,0.2,0.3v0.3c0.1,0.2,0.1,0.3-0.1,0.3c-0.1,0.1-0.2,0.2-0.2,0.2l0,0v0.1h-0.1l0,0h-0.1
	C140.2,119.4,140.2,119.7,139.9,119.8z M136.4,126.3c0.1,0,0.2-0.1,0.3-0.1c0.1-0.1,0.3-0.2,0.5-0.3l0,0c0.2-0.2,0.5-0.2,0.7-0.1
	c0.1,0.1,0.1,0.2,0.1,0.3l-0.1,0.1l0,0c-0.1,0.1-0.1,0.2-0.3,0.3l0,0c-0.2,0.1-0.3,0.3-0.6,0.4s-0.1,0.3-0.4,0.3h-0.1h-0.1
	c-0.2,0.1-0.5-0.1-0.8,0h-0.1h-0.1c-0.1,0.1-0.3,0.1-0.5-0.1h0.1h-0.1c-0.1-0.1-0.1-0.1-0.2-0.2l0,0c-0.4-0.2-0.9-0.3-1.4-0.3
	l-0.6-0.1c-0.1-0.1-0.3-0.1-0.4-0.1h-0.4c-0.2,0.1-0.3,0.1-0.5-0.1h-0.1h-0.1c-0.2-0.1-0.4-0.2-0.5-0.1l0,0
	c-0.2,0.1-0.1,0.2-0.3,0.3s-0.1,0.3-0.2,0.4s0,0.1,0,0.2c0.1,0.1,0.1,0.3,0,0.5c0.1,0,0.1,0.1,0.1,0.1l0,0c0.1,0.1,0.3,0.1,0.4,0.3
	l0,0c0.2,0.1,0,0.4,0.2,0.5c0.1,0.1,0.1,0.1,0.2,0.1c0.1,0.1,0.2,0.1,0.2,0c0.2-0.1,0.1-0.3,0.3-0.3c0.1-0.1,0.1-0.1,0.2-0.1
	c0.2-0.1,0.5-0.1,0.7,0.1c0.1,0,0.2,0,0.2,0l0.2-0.1v-0.1c0.6,0.2,1.2-0.1,1.9,0.1c0,0.1-0.1,0.3-0.1,0.4c0,0,0,0.1,0.1,0.1
	c0,0.1,0.1,0.3,0.1,0.4c0,0.1,0,0.1,0,0.2c0.1,0.2,0.1,0.4-0.3,0.3c-0.2-0.1-0.5-0.1-0.7-0.2c-0.1,0-0.1-0.1-0.2-0.1
	c0-0.1-0.1-0.1-0.1-0.2h-0.1l-0.2-0.1l0,0l-0.3,0.1l0,0c-0.1,0.1-0.3,0-0.5,0.1l0,0c-0.1,0.1-0.2,0.1-0.3,0.1
	c-0.4,0.3,0.1,0.5,0.1,0.8l0,0c0.1,0.1,0.1,0.3,0.2,0.4l0,0c0.1,0.1,0.2,0.2,0.2,0.3l0,0v0.1c0.2,0.4-0.3,0.8,0.1,1.1
	c0.1,0,0.1,0,0.2,0.1c0,0.1,0.1,0.2,0.2,0.1l0,0c0.1,0,0.2,0,0.2,0c0.1,0,0.2,0.1,0.2,0.3c0,0.1,0,0.1-0.1,0.2s-0.2,0.1-0.1,0.3
	l-0.1,0.4c-0.1,0.1-0.1,0.2-0.2,0.2c-0.1,0-0.1,0.1-0.1,0.1s0,0.1,0.1,0.1l0,0c0.1,0.3-0.1,0.4-0.3,0.5c0,0-0.1,0.1,0,0.1
	c-0.4,0.3-0.5,0-0.6-0.2c-0.4-0.5-0.5-0.8-0.2-1c-0.7,0-1,0-1-0.4c0-0.2,0-0.3,0.1-0.5c0.2-0.2,0-0.3-0.1-0.4
	c-0.1-0.1-0.1-0.1-0.2-0.2c-0.1-0.1-0.1-0.1-0.2-0.2c-0.2-0.2-0.1-0.5,0.1-0.7l0,0c0.1-0.2,0.2-0.4,0.1-0.6l-0.2-0.1
	c-0.2,0.1-0.6,0.1-0.6,0.5c0.2,0.1,0.1,0.2,0,0.4s-0.1,0.4-0.1,0.5c-0.4,0.4-0.1,1.1-0.4,1.5c-0.1,0-0.1,0.1,0,0.1s-0.1,0.1,0,0.2
	l0,0c0.2,0.7-0.5,0.3-0.8,0.4c-0.2,0.1-0.5,0.1-0.6-0.1c-0.1-0.1-0.1-0.3-0.2-0.4s0,0,0-0.1s0.1-0.3,0.2-0.4c0.1,0,0.1-0.1,0.1-0.1
	c0.2-0.2,0.1-0.4,0.3-0.6c0.1-0.2,0.1-0.4,0.1-0.6c-0.2-0.1,0.3-0.6-0.4-0.6c-0.1,0.1-0.3,0.1-0.4,0l0,0c-0.2-0.3,0.1-0.7-0.1-1
	v-0.1c0.1-0.1,0.1-0.2,0.3-0.2c0.1-0.1,0.2-0.1,0.2-0.1c0.2-0.1,0.1-0.4,0.3-0.5l0,0c0.3-0.3,0-0.8,0.4-1.1l0,0
	c0.1-0.1,0.1-0.3,0.3-0.3c0.1,0,0.1-0.1,0.2-0.1v-0.1l0,0c0.4-0.5,0.1-1.2,0.7-1.6c0.2-0.1,0.1-0.2,0.3-0.3s0.2-0.3,0.5-0.1l0,0
	c0.1,0,0.2,0,0.2,0l0.2-0.2l0.1-0.1c0.1-0.1,0.2-0.2,0.3-0.2l0.4,0.1c0.1,0.1,0.4,0.1,0.5,0.2s0.5,0.1,0.7,0.3l0.6,0.1
	c0.4,0.3,1,0.1,1.4,0.4c0.1,0.1,0.1,0.1,0.2,0.1c0.1,0.1,0.3,0.1,0.5,0.1c0.1-0.1,0.2-0.1,0.4-0.1L136.4,126.3z M127.2,137.8
	c0.1,0.2-0.2,0.2-0.3,0.2h-0.3c-0.2,0-0.4,0-0.6,0s-0.2,0-0.4,0c-0.1,0-0.3,0-0.4,0c-0.3,0-0.6,0.1-0.8,0.1c-0.2,0-0.4,0-0.6-0.1
	c-0.1,0-0.1-0.1-0.2-0.1c-0.1-0.1-0.1-0.1-0.1-0.2c-0.2-0.3-0.7-0.2-1-0.2c0-0.1,0-0.3,0-0.4c0-0.1,0-0.2,0.1-0.3
	c0.2-0.1,0.4-0.1,0.6,0c0.2,0,0.3,0.2,0.5,0.3s0.3,0,0.4,0s0.1,0.1,0.1,0.1s0.2-0.1,0.2,0c0-0.1,0-0.3,0-0.4
	c0.2-0.1,0.3-0.1,0.5-0.2c0.3-0.1,0.2,0.1,0.4,0.1c0.2,0.1,0.5,0.2,0.7,0.4c0.3,0.1,0.5,0.2,0.8,0.4h0.1
	C127,137.6,127.1,137.7,127.2,137.8z M122.3,119.4h0.2c0.9-0.3,1.8-0.8,2.6-1.3c0.1-0.1,0.1-0.3,0.2-0.4l0,0
	c0.2-0.1,0.1-0.2,0.3-0.3s0.2-0.1,0.3-0.2c0.1,0,0-0.4,0.3-0.5c0-0.1,0.1,0,0.1,0l0,0c0.2,0.2,0.5-0.1,0.7,0.1l0,0
	c0.2,0.2,0.3,0.4,0.5,0.6l0,0c0.3,0.3,0.3,0.8,0.8,1.1c0.1,0.2,0.5,0.1,0.6,0.3c0.1,0,0.2,0.1,0.2,0.2c0.1,0.1,0.1,0.1,0.2,0.2
	c0.1,0,0.2,0.1,0.4,0.1c0.2,0.6,0.2,0.6-0.7,0.6c-0.2,0.1-0.3,0.1-0.2,0.4s-0.1,0.5-0.5,0.3c0,0.1,0,0.1-0.1,0.1h-0.1
	c-0.4,0.4-0.9,0.8-0.7,1.5v0.1c0.1,0.1,0.1,0.2,0.1,0.3v0.1c0,0,0.1,0.1,0.2,0.2s0.1,0.4,0,0.5c0,0,0,0-0.1,0
	c-0.2,0.3,0.2,0.4,0.4,0.6c0.1,0,0.2,0.1,0.2,0.2l0,0c0.1,0.1,0.1,0.1,0.2,0.2c0.1,0.1,0.1,0.2,0.2,0.2l0,0c0.2,0.2,0.4,0.4,0.1,0.6
	c-0.5,0.2-1.1-0.2-1.6,0c-0.1,0.1-0.1,0.3-0.3,0.4c-0.4,0.4-0.1,0.9-0.2,1.3c-0.1,0.1-0.1,0.3-0.3,0.3s-0.3,0-0.5,0.1l0,0
	c-0.2,0-0.2,0.3-0.4,0.3h-0.1h-0.1l-0.2,0.1c-0.8,0.3,0,1-0.4,1.5c-0.1,0.1-0.1,0.1-0.2,0.2c0,0.1,0,0.1,0,0.2c-0.4,0.3,0,0.6-0.1,1
	c-0.2,0.1-0.1,0.4-0.3,0.5s-0.3,0.1-0.4-0.1v-0.1c-0.1-0.2-0.3-0.1-0.5-0.1H123c-0.1,0.1-0.3,0-0.5,0.1s-0.3,0-0.5,0.1
	c-0.3,0.1-0.5,0.1-0.4-0.2c0-0.1,0-0.2,0-0.4c-0.1-0.1-0.1-0.1-0.2-0.2l0,0c-0.1-0.1-0.1-0.1-0.2-0.2l-0.2-0.1
	c-0.2,0.1-0.5,0.1-0.7-0.1c-0.1-0.1-0.3-0.1-0.4-0.2c-0.1-0.1-0.3-0.1-0.5,0c-0.1,0.1-0.2,0.1-0.2,0.1c-0.4,0.1-0.9-0.1-1.3,0.1
	c-0.3-0.3,0-0.7-0.4-0.9h-0.2c-0.2,0.1-0.3,0-0.5,0.1h-0.1h-0.1c-0.3-0.2-0.6-0.1-0.9-0.3c-0.3-0.4,0.2-0.9-0.1-1.3
	c-0.1-0.1-0.2-0.2-0.2-0.3l0,0c0-0.1,0.1-0.2,0.2-0.2c0-0.1,0-0.1,0-0.2c-0.1-0.1-0.2-0.3-0.4-0.3s-0.3,0.1-0.4-0.1
	c0-0.1,0-0.2,0-0.3c0-0.1-0.2-0.2-0.2-0.3v-0.1c0.1,0,0.1-0.1,0-0.2l0,0l0,0c-0.1-0.1-0.1-0.2-0.1-0.3c0-0.1,0-0.1,0-0.1
	s-0.1-0.1,0-0.1s0.1,0,0.1,0c0.1-0.2,0.2-0.4,0-0.6l0,0c0-0.1-0.1-0.2-0.2-0.2c0-0.1,0-0.1,0-0.2c-0.1-0.2-0.1-0.4,0.1-0.6
	c0-0.1,0.1-0.2,0.1-0.3c0.1-0.3,0.3-0.5,0.6-0.7l0,0c0.1-0.2,0.3-0.3,0.5-0.3l0,0c0.5-0.1,0.3,0.4,0.6,0.4l0,0l0.1,0.1
	c0.2,0,0.3-0.2,0.6,0l0,0c0.1,0,0.2,0.1,0.2,0.2c0.1,0.1,0.3,0.1,0.5,0s0.1-0.4,0.3-0.5c0-0.1,0-0.2,0.1-0.3
	c0.2-0.3,0.2-0.8,0.9-0.7h0.4c0.2-0.1,0.5,0,0.8,0c0.1,0,0.1,0,0.2,0c0.1-0.1,0.3,0,0.5-0.1l0,0c0.1,0,0.2-0.1,0.2-0.2l0,0
	c0.2,0,0.1-0.2,0.3-0.3c0.2-0.2,0.5-0.5,0.8-0.7c0.2-0.1,0.1-0.4,0.3-0.5c-0.1-0.1-0.1-0.2,0-0.3S122.2,119.4,122.3,119.4
	L122.3,119.4z M139.8,113.1c0.1,0.3-0.2,0.2-0.4,0.2c-0.4,0-0.6,0.1-0.4,0.4l0,0c0.1,0.1,0,0.3,0.2,0.4l-0.3,0.5
	c-0.6-0.6-0.9-1.4-0.9-2.3c0.4,0,0.2,0.3,0.4,0.4c0.6-0.2,0.2-0.5,0-0.7s-0.5-0.4-0.4-0.8c0.5,0,1,0,1.4,0.2l0,0
	c0.5,0.4,0.1,0.9,0.3,1.4c0.1,0.1,0.1,0.2,0.2,0.3C139.7,113,139.7,113,139.8,113.1C139.7,113.1,139.7,113.1,139.8,113.1
	L139.8,113.1z M134.8,114.2c0.2-0.2,0.6-0.3,0.8-0.6c-0.3,0-0.5-0.1-0.6-0.3h-0.2l-0.2,0.1c-0.6-0.2-0.2-0.5-0.1-0.8
	s0.1-0.5,0.1-0.8c-0.1-0.1-0.1-0.1-0.2-0.2s-0.1-0.3,0.1-0.3s0.1-0.1,0.2,0c0.1,0.1,0.1,0.1,0.2,0.2c0.1,0,0.1,0.1,0.2,0.1
	c0.1,0.1,0.2,0.1,0.3,0.2c0.2,0.2,0.7,0.1,1,0.4c0.1,0.2,0,0.5-0.1,0.7c0.1,0,0.3,0,0.4,0.1l0.1,0.1c0.1,0,0.1,0,0.2,0.1l0.2-0.1
	h0.2c0-0.1,0.1-0.2,0.1-0.3c0.3,0.5,0.2,1.1-0.3,1.4c-0.4,0.3-0.4,0.8-0.8,1c-0.1,0.2-0.3,0.3-0.5,0.2l0,0c-0.1-0.1-0.1-0.3-0.2-0.4
	l-0.1-0.1c-0.1,0-0.2-0.1-0.3-0.2C134.9,114.5,134.9,114.3,134.8,114.2L134.8,114.2L134.8,114.2z M127.5,114.4
	c0.2-0.1,0.1-0.2,0.3-0.3c0.1-0.1,0.2-0.1,0.3-0.1s0.1,0,0.2,0c0.1,0,0.2-0.1,0.2-0.1l0,0c0.2-0.1,0.1-0.2,0.3-0.3l0,0
	c0.1-0.1,0.2-0.1,0.2-0.2c0.1-0.1,0.1-0.3,0.3-0.3c0.1-0.1,0.2-0.1,0.2-0.2c0.2-0.1,0.3-0.2,0.5-0.3l0.1-0.1l0,0l-0.1-0.1
	c-0.1-0.1-0.1-0.3,0-0.4l0,0c0,0,0.1-0.1,0.1-0.2s0.1-0.1,0.1-0.1c0-0.1,0.1-0.1,0.1-0.2l0,0v-0.1h0.2v0.1h0.1c0,0,0,0.3,0,0.5
	c0,0,0,0.1,0,0.2h0.1c0,0.1,0,0.1-0.1,0.2h0.1c0.2,0.3-0.1,0.4-0.3,0.5l0,0l-0.2,0.1l-0.1,0.1c-0.3,0.1-0.7,0.2-0.8,0.5
	c-0.2,0.1-0.1,0.3-0.3,0.3l-0.2,0.1c-0.2,0.1-0.4,0.2-0.5,0.3l-0.3,0.2c-0.1,0.1-0.2,0.1-0.3,0.1c-0.1,0.1-0.2,0.1-0.2,0.1l0,0
	c-0.1,0.1-0.3,0.1-0.4,0s-0.1-0.2-0.1-0.3l0.1-0.1C127.3,114.5,127.4,114.5,127.5,114.4L127.5,114.4z M121,120.6L121,120.6z
	 M110.6,132.1c0.2,0.1,0.2,0.3,0.4,0.4s0.6,0.1,0.8,0.1c0.2,0,0.4,0.1,0.5,0.2c0.1,0.1,0.1,0.4,0.3,0.5c0.2,0.1,0.5,0.1,0.7,0.1
	c0.5,0.1,1,0.2,1.5,0.2c0.3,0,0.3-0.1,0.5-0.3s0.1-0.2,0.2-0.1s0.1,0.1,0.2,0.2c0.1,0.2,0.2,0.2,0.5,0.3c0.2,0.1,0.4,0.1,0.7,0.2
	l0,0c0.3,0.1,0.5,0.2,0.8,0.3c0.5,0.1,1,0.1,1.6,0.1c0.2,0,0.7,0,0.8,0.2s-0.2,0.2-0.2,0.3s-0.2,0.2-0.3,0.2s-0.8-0.2-0.8,0
	s0.6,0.3,0.8,0.3c0.4,0,0.7,0.1,1,0.2c0.1,0.1,0.2,0.3,0.3,0.4c0.2,0.1,0.4,0.2,0.6,0.3c0.3,0.1,0.8,0.2,0.8,0.5c0,0.1,0,0.2,0,0.4
	c-0.1,0.2-0.2,0.1-0.4,0.1c-0.1,0-0.3,0-0.4-0.1c-0.1,0-0.2-0.1-0.3-0.1c-0.3-0.1-0.6-0.1-0.9,0c-0.3,0-0.7-0.1-0.9-0.3
	c-0.2-0.1-0.3-0.3-0.5-0.3s-0.4-0.1-0.5-0.1c-0.3,0-0.6-0.1-0.9-0.2c-0.2-0.1-0.4-0.2-0.6-0.3c-0.2,0-0.4,0-0.5,0
	c-0.2,0-0.3,0.1-0.6,0.1c-0.2-0.1-0.5-0.1-0.7-0.3c-0.1-0.1-0.2-0.2-0.3-0.2c-0.1-0.1-0.3-0.2-0.4-0.3c-0.2-0.1-0.4-0.1-0.6-0.1
	c-0.3-0.1-0.6-0.1-0.8,0c-0.2,0.1-0.4,0.1-0.7,0.1c-0.4-0.1-0.8-0.4-1.2-0.4c-0.4,0-0.9-0.1-1.2-0.2c-0.3-0.2-0.3-0.4-0.5-0.6
	s-0.7-0.3-1-0.4c-0.1-0.1-0.3-0.1-0.4-0.2s0.1-0.2,0.3-0.3c0.2,0,0.3-0.1,0.4-0.2c0.1-0.1,0.1-0.1,0.1-0.2s0.3-0.1,0.5-0.2
	s0.1-0.1,0.2-0.2c0.1-0.1,0.1-0.2,0.2-0.2s0,0.1,0.1,0.1h0.2c0.1,0,0.1,0.1,0.3,0.1c0.1,0,0.3,0,0.4,0
	C110.3,132.1,110.4,132.1,110.6,132.1L110.6,132.1z M169.3,53L169.3,53L169.3,53C169.4,53,169.3,53,169.3,53L169.3,53z M141.3,84
	L141.3,84c0.1-0.1,0.2-0.1,0.3-0.1l0,0c0.1-0.1,0.2-0.1,0.3-0.2s0.1-0.2,0.1-0.3c0,0,0,0-0.1-0.1l0,0c-0.1-0.1-0.1-0.1,0-0.1
	c0,0,0,0,0.1,0l0,0c0.3-0.1,0.6,0,0.8-0.2c0.1-0.1,0.2-0.1,0.3-0.2s0.2-0.1,0.3-0.2l0,0c0.2-0.1,0.1-0.4,0.4-0.5
	c0.4,0,0.9,0,1.3,0.1c0.3,0.1,0.7,0.1,1,0.1c0.4-0.1,0.9,0,1.2,0.2l0,0c0.3,0.1,0.6,0.3,0.6-0.1l0,0c-0.1-0.1-0.2-0.3-0.1-0.5
	l0.1-0.1c0.1-0.1,0.1-0.1,0.2-0.2s0-0.1,0-0.1s0-0.1,0.1-0.1s0-0.1,0-0.2S148,81.1,148,81s0-0.1,0-0.2c-0.2-0.3,0.1-0.4,0.4-0.5l0,0
	c0.2-0.1,0.4,0,0.5,0.1c0,0.1-0.1,0.2-0.1,0.3c0,0.2,0.1,0.3,0.1,0.4c0.4,0,0.8,0,1.2-0.2l0.2-0.1c0-0.1,0.1-0.1,0.1-0.2
	c-0.1-0.1-0.1-0.3,0.1-0.3c0.1-0.1,0.2-0.1,0.3-0.1c0.2-0.1,0.2-0.4,0.1-0.6v-0.1c0.1-0.1,0.2-0.2,0.1-0.3c0,0,0,0,0-0.1
	c-0.2-0.3,0.1-0.5-0.1-0.8s-0.8-0.6-0.6-1.1c-0.1-0.1-0.2-0.2-0.2-0.2l0,0c-0.1-0.1-0.1-0.4,0-0.5c0,0,0.1,0,0.1-0.1l0,0
	c0.1,0,0.1-0.1,0.1-0.1v-0.1c0-0.1,0-0.1,0-0.2c0,0,0-0.1,0.1-0.1c-0.1-0.3,0.2-0.4,0.5-0.4h-0.3l-0.3,0.1c-0.3,0.1-0.7,0-0.8-0.3
	c0-0.1,0-0.1,0-0.2c-0.1-0.2-0.2-0.4-0.4-0.5c-0.1,0-0.1-0.1-0.1-0.1h-0.1c-0.4-0.3-0.5-0.6-0.2-0.9c0.2-0.1,0.1-0.4,0.2-0.5
	c0.1-0.1,0.2-0.1,0.3-0.1c0.7-0.3,0.4-0.7,0.3-1.2c0-0.1,0-0.1,0-0.2c-0.1-0.1-0.1-0.3-0.2-0.4l-0.2-0.2c-0.1-0.1-0.2-0.1-0.2-0.2
	c-0.2-0.2-0.5-0.4-0.2-0.5c0.4-0.3,0.7,0.1,1.1,0.3c0.3,0.3,0.6,0.5,0.9,0.8c0.1,0.1,0.3,0.2,0.4,0.3c0.7,0.5,1.5,0.9,2.4,1.3
	c0.3,0.2,0.7,0.2,1,0c0.3,0.2-0.2,0.6,0.5,0.5c0.1-0.2,0.1-0.5,0.2-0.7h0.2c0.2,0,0.4,0,0.5,0.2s-0.1,0.2-0.2,0.2
	c-0.1,0.2-0.2,0.3-0.3,0.4l0.1,0.1c0.1,0.3,0.7,0.7-0.1,1c-0.4,0.2-0.9-0.2-1.3-0.1c-0.2,0.1-0.1,0.3-0.3,0.3s-0.2,0.2-0.1,0.4
	s0.1,0.4-0.3,0.3s-0.8-0.4-1.2-0.6c-0.1-0.1-0.4-0.1-0.5-0.3l0,0c-0.1-0.1-0.2-0.1-0.4-0.2h-0.1c-0.2-0.1-0.4-0.1-0.6,0
	c-0.1,0.1-0.3,0.1-0.4,0.1c0.1,0.1,0.3,0.2,0.4,0.3c0.1,0.1,0.2,0.1,0.2,0.2h0.2c0,0.1,0,0.2-0.1,0.3c0.1,0,0.2,0,0.2,0.1l0.1,0.1
	l0.1,0.1l0,0h0.2c0.1,0.1,0.1,0.2,0.2,0.2v0.2l0.2,0.2c0.1,0,0.1,0.1,0,0.1l0,0c0.3,0.2,0.6,0.5,0.9,0.8c0.1,0.1,0.2,0.1,0.2,0.2
	c0.2,0.3,0.4,0.6,0.6,0.9c0.1,0.1,0.1,0.3,0.2,0.4c0,0.1,0,0.1,0,0.2c0.2,0.3-0.2,0.6,0,1l0,0c0.2,0.3-0.4,0.3-0.4,0.6v0.1
	c0.1,0.1,0.2,0.1,0.2,0.2l0,0c0.2,0.1,0.1,0.3,0.2,0.4s0.1,0.3,0.2,0.4s0.1,0.2-0.1,0.4c-0.1,0-0.1,0.1-0.1,0.1c0,0.1,0,0.1,0,0.1
	c0,0.1,0,0.1,0,0.2c0.1,0.1,0.1,0.3,0.1,0.4c0.1,0.3,0.8,0.6,0.4,1c-0.1,0-0.1,0.1-0.1,0.1V84c0,0,0.1,0.3-0.1,0.4l0,0
	c-0.1,0.1-0.2,0.1-0.3,0.1c-0.4,0.2-1.1-0.5-1.3,0.1c-0.6-0.1-1.2-0.2-1.8-0.2c-0.3,0-0.6-0.1-0.9-0.3c-0.2,0.4-0.7,0.7-0.8,1.2
	c-0.3,0.1-0.5,0-0.7-0.1c-0.2-0.2-0.5-0.3-0.7-0.5c-0.4-0.1,0-0.6-0.6-0.7l0,0l0,0c0,0.3,0.1,0.5,0.1,0.8c-0.2,0.1-0.4,0.3-0.8,0.1
	c-0.2-0.1-0.4-0.1-0.5,0.1c-0.2,0.1-0.3,0.2-0.3,0.4v0.1c-0.1,0.1-0.2,0.2-0.5,0.1l-0.2-0.2l-0.1-0.3c-0.1,0.2-0.2,0.3-0.4,0.4
	c0,0.3-0.1,0.6-0.2,0.9c0,0.6,0,1.2-1.1,0.8l0,0c-0.1-0.1-0.4-0.1-0.5-0.2c-0.1-0.3-0.2-0.6-0.4-0.8c0-0.5-0.4-0.8-0.9-1.1l0,0
	c-0.1-0.1-0.2-0.1-0.2-0.2c-0.1-0.1-0.1-0.3-0.2-0.4C140.4,84.2,140.9,84.1,141.3,84L141.3,84z M100.3,118.3
	c0.2,0.2,0.4,0.3,0.7,0.5c0.2,0.1,0.4,0.3,0.6,0.5s0.3,0.4,0.5,0.6c0.1,0.1,0.1,0.2,0.2,0.4c0,0.1,0.1,0.3,0.2,0.3
	c0.3,0.1,0.3,0.3,0.5,0.4s0.4,0.2,0.6,0.3s0.3,0.1,0.5,0.2s0.4,0.2,0.5,0.3c0.4,0.2,0.8,0.4,1.1,0.7c0.1,0.1,0.2,0.2,0.3,0.3
	c0.2,0.2,0.3,0.3,0.5,0.5s0.2,0.4,0.2,0.7c0,0.1,0,0.2,0,0.4c0,0.1,0,0.3,0,0.4c0.1,0.2,0.5,0.3,0.7,0.5s0.2,0.6,0.3,0.8
	c0.2,0.4,0.5,0.8,0.9,1c0.6,0.3,1.5,0.5,1.5,1.2c0,0.1,0,0.3-0.1,0.4c0,0.1-0.2,0.1-0.2,0.2s0,0.2-0.1,0.2s-0.1,0.1-0.1,0.2
	s-0.1,0.3-0.2,0.5c-0.2,0.5,0,1.1-0.3,1.5c-0.2,0.3-0.5,0.5-0.9,0.5c-0.1,0-0.3,0-0.5,0c-0.1,0-0.2,0.1-0.3,0.1
	c-0.2,0-0.3,0-0.5-0.1l-0.2-0.1c-0.1-0.1-0.1-0.1-0.2-0.2c-0.3-0.3-0.8-0.4-1.1-0.7c-0.5-0.5-0.6-1.1-1-1.6
	c-0.1-0.2-0.3-0.4-0.5-0.6c-0.2-0.1-0.4-0.2-0.5-0.3c-0.2-0.2-0.4-0.3-0.5-0.5c-0.1-0.1-0.1-0.2-0.2-0.3c-0.1-0.1-0.1-0.3-0.2-0.5
	c-0.2-0.4-0.4-0.7-0.8-1c-0.1-0.1-0.2-0.2-0.3-0.3c-0.1-0.2-0.1-0.4-0.1-0.6c-0.1-0.3,0-0.6-0.1-0.8v-0.1c-0.1-0.2-0.2-0.4-0.4-0.6
	c-0.2-0.2-0.4-0.3-0.6-0.5c0-0.1,0-0.3,0-0.4c0-0.2,0-0.3,0-0.5c-0.1-0.4-0.3-0.8-0.6-1.2c-0.3-0.4-0.6-0.7-1.1-0.8
	c-0.3,0-0.6-0.1-0.8-0.4c0,0-0.1-0.1-0.1-0.2s0-0.1,0-0.2s0-0.3-0.1-0.4s0-0.2,0-0.2s-0.1-0.1-0.1-0.2s-0.2-0.2-0.2-0.4
	c-0.1-0.1-0.2-0.3-0.3-0.4c-0.1-0.1-0.3-0.2-0.4-0.2c-0.3-0.1-0.6-0.3-0.9-0.4c-0.2-0.1-0.3-0.2-0.4-0.4c-0.1-0.1-0.2-0.2-0.3-0.4
	c-0.1-0.3-0.1-0.7,0.1-1c0.1-0.1,0.1-0.3,0.3-0.3c0.2,0,0.3,0.1,0.4,0.2c0.2,0.2,0.4,0.4,0.7,0.5s0.7-0.1,1,0s0.6,0.2,0.9,0.3
	c0.1,0.1,0.2,0.1,0.2,0.2s0.1,0.1,0.1,0.2c0.1,0.2,0.2,0.3,0.2,0.5c0.1,0.3,0.2,0.6,0.5,0.8C99.8,118.1,100,118.2,100.3,118.3z
	 M81.4,95.1L81.4,95.1L81.4,95.1z M72.3,110.5L72.3,110.5c0.2-0.3,0-0.6,0.2-0.8l0,0c0,0,0,0,0-0.1s0-0.1,0-0.1
	c0-0.2,0.1-0.4-0.2-0.6c-0.1-0.1-0.1-0.3,0-0.4h0.6c0.1,0,0.2,0.1,0.3,0.2c0.1,0,0.2,0.1,0.2,0.2l0,0l0.1,0.1c0.1,0,0.1,0.1,0.2,0.1
	l0,0c0.1,0.1,0.1,0.2,0.2,0.3l0,0c0.2,0.2,0.3,0.4,0.5,0.6s0.3,0.5,0.4,0.8c0.2,0.1,0.1,0.3,0.2,0.4c0.1,0,0.2,0.1,0.2,0.2l0,0
	c0.3,0.2,0,0.5,0.2,0.8c0,0.1,0,0.2,0,0.3c-0.2,0.2,0,0.5-0.2,0.6c-0.1,0.1-0.1,0.1-0.2,0.2s-0.2,0.1-0.3,0.2
	c-0.1,0.1-0.3,0.1-0.5,0.2c-0.1,0-0.1,0-0.2,0c-0.1,0.1-0.2,0.1-0.3,0.1h-0.1h-0.1c-0.1,0.1-0.3,0.1-0.4,0c-0.2-0.1-0.4-0.2-0.5-0.4
	c-0.1-0.1-0.1-0.3-0.2-0.4c0,0,0-0.1,0-0.2c-0.3-0.3,0-0.7-0.2-1c0-0.1,0-0.1,0-0.2C72.1,111.3,72.1,110.9,72.3,110.5L72.3,110.5z
	 M128.7,140.1c-0.5,0.5-0.9,0.3-1.4-0.1l0,0c-0.1-0.1-0.1-0.1-0.2-0.2l0,0c-0.1-0.2-0.5-0.1-0.6-0.3h-0.1h-0.1
	c-0.1-0.1-0.2-0.1-0.2-0.2c-0.1-0.2-0.1-0.3,0.1-0.4h0.1l0,0c0.5-0.1,1.1,0,1.5,0.3c0.1,0.2,0.3,0.3,0.4,0.4l0,0
	c0,0.1,0.1,0.1,0.2,0.2C128.6,139.9,128.6,140,128.7,140.1L128.7,140.1z M131.4,138.9c-0.1,0-0.3,0-0.4,0c-0.1,0-0.1,0-0.2-0.1
	c-0.1,0.1-0.2,0.1-0.3,0.1c-0.1,0.1-0.2,0.1-0.4,0.1c-0.1,0,0-0.2-0.2-0.1c-0.1,0-0.2,0-0.3,0c-0.2-0.1-0.5,0-0.7-0.2
	s-0.7-0.1-1-0.3s-0.6-0.4-0.1-0.6h0.1c0.1,0,0.2-0.1,0.2-0.1c0.3-0.1,0.6-0.1,0.9,0.1l0,0c0.1,0.2,0.5,0.1,0.6,0.3l0,0
	c0.3,0.2,0.7,0.2,1,0.1h0.1c0.1,0,0.1,0.1,0.1,0.2h0.1h0.2c0.1,0,0.2-0.1,0.2-0.1l0,0c0.1,0,0.2-0.1,0.3-0.1v-0.1
	c0.1-0.2,0.3-0.1,0.4,0l0,0c0.6,0.2,1.2,0.4,1.8,0.4c0,0,0.1,0,0.1,0.1l0.1-0.1l0.8,0.1c0.1,0.5-0.4,0.3-0.6,0.3
	c0,0.1,0,0.1-0.1,0.2c-0.2,0.1-0.3,0.1-0.5,0.1l-0.4-0.2l0,0c-0.1-0.2-0.2-0.2-0.4-0.1l0,0c-0.1,0-0.2,0.1-0.3,0.1h-0.1h-0.1
	c-0.2-0.1-0.4-0.3-0.7-0.1S131.5,138.8,131.4,138.9L131.4,138.9z M138.1,139.5c-0.1,0.1-0.2,0.2-0.3,0.2c-0.1,0.1-0.3,0-0.5,0.1
	c-0.1,0-0.1,0-0.2,0l-0.2,0.1c-0.2,0.1-0.5-0.1-0.7,0.1s-0.3,0-0.5,0.1s-0.5-0.1-0.7,0.1l0,0l-0.3,0.1h-0.1c0,0.1-0.1,0.1-0.1,0.1
	l0,0c-0.1,0.1-0.2,0.1-0.2,0.2l0,0c-0.1,0-0.2,0.1-0.2,0.1l0,0c-0.1,0-0.2,0.1-0.2,0.1c-0.1,0.1-0.2,0.1-0.3,0.1h-0.4
	c-0.1,0-0.2,0.1-0.2,0.1l0,0c-0.3,0.1-0.6,0.1-0.9-0.1c-0.1-0.1,0.1-0.2,0.2-0.3s0.1-0.4,0.3-0.5l0,0c0.1-0.1,0.2-0.2,0.4-0.3
	l0.2-0.1h0.2l0,0c0.1-0.2,0.4-0.2,0.6-0.2h0.1h0.5c0.1,0,0.1,0,0.1,0l0,0l0,0v-0.1l0.1-0.1c0.1-0.1,0.3-0.2,0.5-0.2h0.2
	c0.4-0.2,0.8,0.2,1.2,0l0.6,0.1C137.6,139.2,138,139.2,138.1,139.5L138.1,139.5z M140.1,129.6c0-0.2,0-0.4,0-0.6s0.3-0.1,0.5-0.1
	l0.2-0.1c0-0.2,0.1-0.4,0.1-0.6v-0.1c0-0.1-0.1-0.1-0.1-0.2c-0.1-0.1-0.2-0.2-0.2-0.3c0.1-0.4,0.2-0.7,0.4-1.1c0-0.1,0-0.1,0-0.2
	c0.1-0.1,0.1-0.3,0.3-0.4s0.1-0.3,0.4-0.3h0.1c0.6,0.2-0.1,0.4,0.1,0.6c0,0.1,0,0.2,0,0.3l0.1,0.1l0.1-0.1c0.1-0.1,0.4,0,0.5-0.1
	h0.2c0.2,0.2,0.2,0.6,0,0.8c0,0.1-0.1,0.1-0.2,0.1h-0.1c-0.2,0.1-0.2,0.2-0.1,0.4c0.1,0.1,0.3,0.2,0.2,0.4l0.2,0.1
	c-0.1,0.1-0.3,0.1-0.5,0.1c0,0-0.1-0.1-0.2-0.1v-0.1l0,0c-0.6-0.1-0.6,0.2-0.7,0.5h0.1l0.1,0.1c0,0.1,0,0.1,0,0.2s0.1,0.2,0.1,0.2
	c0,0.1,0,0.1,0,0.2c0.1,0.1,0.1,0.1,0.2,0.2c-0.1,0.3-0.2,0.3-0.5,0.1l0,0l-0.1-0.1h-0.1c0,0,0,0,0,0.1l0,0c-0.2,0.1-0.3,0-0.5-0.1
	c-0.1,0-0.1-0.1-0.2-0.1l-0.1-0.1l0,0c0,0-0.1,0.1-0.2,0.1C140.3,129.6,140.2,129.6,140.1,129.6L140.1,129.6z M144.7,134.2l-0.1,0.1
	c-0.1,0.1-0.3,0.1-0.4,0c-0.1-0.1-0.1-0.1-0.2-0.2l0,0c0-0.1-0.3-0.1-0.4-0.2l-0.1-0.1c-0.1,0-0.2-0.1-0.3-0.2
	c-0.1-0.1-0.2-0.1-0.2,0l0,0c-0.2,0.1-0.5,0-0.7-0.1c0,0-0.1-0.1-0.2-0.1c-0.1-0.1-0.2-0.1-0.3,0l0,0c-0.1,0.2-0.4,0.3-0.6,0.2h-0.1
	v0.1l0,0c-0.2,0-0.5,0.1-0.6-0.2v-0.1c0.2,0,0.4,0,0.6,0c-0.2-0.1-0.4-0.2-0.5-0.3c0-0.1,0-0.1,0-0.2c-0.1-0.2,0.2-0.2,0.3-0.3l0,0
	c0.7-0.5,1.4,0.2,2.1,0c0.1,0,0.1,0,0.2,0c0.1,0.1,0.3,0.1,0.4,0.3s0.6,0.1,0.8,0.4s0.1,0.3,0.2,0.4l0,0l0.2,0.2l0,0
	C144.8,134,144.8,134.2,144.7,134.2L144.7,134.2z M136,126.5L136,126.5z M136,126.5L136,126.5z M136,126.5L136,126.5z"/>
<path class="st2" d="M154.5,133.3L154.5,133.3z"/>
<path class="st2" d="M151.6,134.7L151.6,134.7z"/>
<path class="st3" d="M186.2,96c0,0.6,0,1.3,0,1.9s0,1.2-0.1,1.8s0,1.2-0.1,1.7c0,0.3,0,0.6-0.1,0.9s-0.1,0.8-0.1,1.2
	c0,0.1,0,0.2,0,0.3c0,0.5-0.1,1-0.1,1.5c0,0.2,0,0.4-0.1,0.6c0,0.4-0.1,0.9-0.2,1.3c0,0.1,0,0.2,0,0.4c-0.1,0.5-0.1,1-0.2,1.5
	c0,0.1,0,0.2-0.1,0.4c-0.1,0.5-0.1,0.9-0.2,1.4c0,0.2-0.1,0.3-0.1,0.5c-0.1,0.4-0.2,0.9-0.3,1.3c0,0.2-0.1,0.3-0.1,0.4
	c-0.1,0.4-0.2,0.9-0.3,1.3c0,0.2-0.1,0.3-0.1,0.5s-0.1,0.6-0.2,0.8s-0.2,0.8-0.3,1.1c-0.6,2.2-1.2,4.4-2,6.6
	c-0.1,0.3-0.2,0.6-0.3,0.9s-0.2,0.6-0.3,0.9c-0.2,0.5-0.4,1-0.6,1.4s-0.3,0.8-0.5,1.1c-0.1,0.2-0.1,0.4-0.2,0.6l-0.4,0.9
	c-0.1,0.3-0.3,0.6-0.4,0.9c-0.1,0.2-0.2,0.4-0.3,0.7s-0.3,0.6-0.4,0.9c-0.2,0.5-0.4,1-0.7,1.4c-0.1,0.3-0.3,0.6-0.5,0.9
	c-0.2,0.3-0.3,0.7-0.5,1c-0.1,0.1-0.1,0.3-0.2,0.4c-0.2,0.4-0.4,0.7-0.6,1.1s-0.4,0.8-0.6,1.2c-0.5,0.9-1,1.7-1.5,2.5
	c-0.9,1.4-1.8,2.9-2.8,4.3c-0.2,0.3-0.4,0.6-0.6,0.8s-0.4,0.5-0.6,0.8l-0.8,1.1c-0.2,0.3-0.5,0.6-0.7,0.9l-0.9,1.2l-0.2,0.3
	c-0.6,0.8-1.3,1.5-2,2.3c-1.3,1.4-2.6,2.8-4,4.2l-0.8,0.8l-0.7,0.7l-0.2,0.2c-7.2,6.7-15.6,12.2-24.7,16c-0.8,0.4-1.7,0.7-2.5,1
	l-0.9,0.3c-0.8,0.3-1.7,0.6-2.5,0.9l-1.2,0.4l-1.2,0.4l-1.2,0.4l-1.1,0.3l-1.4,0.4l-1.9,0.4l-1.6,0.4l-0.4,0.1l-0.5,0.1l-1.2,0.2
	l-0.3,0.1l-1.8,0.3c-4.4,0.7-8.9,1.1-13.4,1.1h-2.8H98h-0.4l-1.1-0.1h-0.8h-0.4h-0.4h-0.1h-0.2l-0.7-0.1h-0.2l-1.6-0.2H92l-0.9-0.1
	l-0.7-0.1h-0.1H90l-0.1-0.3l-1.2-0.2l-0.4-0.1h-0.1l-1.5-0.2h-0.2h-0.2h-0.2c-0.5-0.1-0.9-0.2-1.4-0.3l-0.5-0.1l-1.6-0.4l-1.1-0.2
	l-0.5-0.1h-0.2h-0.2l-0.9-0.2l-0.5-0.1l-0.3-0.1l-1-0.3l-0.5-0.1l-0.2-0.1c-0.6-0.2-1.1-0.3-1.7-0.5l-0.7-0.2l-1-0.3l-0.3-0.1
	l-0.4-0.1l-0.4-0.1l-0.8-0.3l0,0h-0.1l-1.4-0.6l-0.4-0.2l-0.3-0.1l-0.4-0.2l-0.4-0.2l-0.2-0.1l-0.3-0.5l-0.5-0.2l-0.7-0.3l-0.4-0.2
	l-1-0.4l-0.4-0.2h-0.1l-1-0.5l-0.6-0.3l-0.5-0.2l-0.2-0.1l-0.5-0.3l-0.2-0.1l-0.2-0.1l-0.1-0.1l-0.4-0.2l-1-0.6l-0.1-0.1l-1.1-0.6
	l-0.2-0.1l-0.8-0.5H58l-0.6-0.4l-0.5-0.3l-0.4-0.2l-0.6-0.4l-0.3-0.2l-0.9-0.6l-0.5-0.3l-0.2-0.1l-0.6-0.4l-0.3-0.2l-0.6-0.4
	l-0.6-0.4l-0.5-0.3l-0.3-0.2l-0.8-0.6l-0.8-0.6l-0.5-0.4l-0.7-0.6l-0.7-0.6l-0.3-0.2c-0.1-0.1-0.2-0.2-0.3-0.2l0.6,0.1
	c28.5,6.4,58.2-2.3,78.8-23c0.1-0.1,0.3-0.3,0.4-0.4c1.4-1.5,2.8-3,4.1-4.5c0.6-0.7,1.1-1.4,1.7-2.1c0.4-0.5,0.8-1,1.2-1.5
	s0.6-0.8,0.9-1.2l0.8-1l0,0l0.6-1c1.3-2,2.6-4,3.8-6.1c3.6-6.3,6.3-13.1,8.2-20.1c0.9-3.3,1.5-6.7,2-10.2c0.2-1.7,0.4-3.5,0.6-5.3
	c0.2-3,0.3-6,0.2-9c0-0.2,0-0.5,0-0.7s0-0.3,0-0.4c0-1-0.1-1.9-0.2-2.9c-0.2-2.2-0.4-4.3-0.8-6.5c-0.1-1-0.3-2-0.5-2.9
	c-0.7-3.8-1.7-7.6-3-11.2c-0.2-0.7-0.5-1.4-0.8-2.2c-0.8-2.1-1.6-4.2-2.6-6.2l-0.3-0.7l0,0c-0.9-1.8-1.8-3.6-2.8-5.4l0,0
	c-0.1-0.2-0.2-0.3-0.3-0.5l-0.1-0.2l-0.4-0.7c0,0,0,0,0-0.1c-3.7-6.2-8.1-11.8-13.2-16.9c-1.7-1.7-3.5-3.3-5.4-4.9l1.5,0.4l1.4,0.4
	l1.3,0.4l0.4,0.1c0.9,0.3,1.8,0.6,2.8,0.9h0.1l0,0h0.1l0.2,0.1l1,0.4h0.1l0.2,0.1l0.3,0.1l0.9,0.3h0.1h0.1l0.6,0.2l0.6,0.2l1.4,0.6
	h0.1l1.3,0.6l0,0h0.1l1.3,0.6h0.1l0.6,0.3l0.7,0.3l0.3,0.1l1.1,0.6l0.2,0.1l0.5,0.2l0.7,0.4l1,0.5l0.3,0.2h0.1l1.3,0.8l0,0l1.3,0.8
	l0.1,0.1c0.4,0.3,0.9,0.5,1.3,0.8l0.8,0.5l0.1,0.1l0.2,0.1l0.4,0.2l1,0.7l0,0l0.8,0.6l0.4,0.2l0,0l0.1,0.1l0.3,0.2l0.1,0.1l0.1,0.1
	l0.5,0.3l0.2,0.2l0,0l0,0l0,0l0.4,0.3l0.2,0.1l0.3,0.2L152,28l1,0.8c0.6,0.4,1.1,0.9,1.7,1.4l0.9,0.7l1.2,1c0.2,0.2,0.4,0.4,0.6,0.6
	s0.5,0.4,0.7,0.7l0.2,0.2c0.3,0.3,0.6,0.6,0.9,0.8l0.6,0.6l0.4,0.4l0.9,0.9c0.4,0.4,0.7,0.7,1.1,1.1c0.7,0.8,1.4,1.6,2.1,2.3
	l0.9,1.1l0.9,1.1l0.1,0.1c0.3,0.4,0.6,0.8,0.9,1.1l1,1.2c0.6,0.8,1.2,1.7,1.8,2.5l0.7,1.1c0.1,0.1,0.1,0.2,0.2,0.3s0.3,0.5,0.5,0.7
	l0.3,0.5l0.3,0.5c0.1,0.1,0.2,0.3,0.3,0.4c0.3,0.4,0.5,0.8,0.8,1.3l1,0.6l0.1,0.2l0.6,1l0.1,0.2c0.5,0.8,0.9,1.7,1.4,2.5l0.2,0.5
	l0.1,0.2l0.3,0.6l0.3,0.7c0,0.1,0.1,0.1,0.1,0.2l0.2,0.5c0,0.1,0.1,0.2,0.1,0.3l0.3,0.5l0.2,0.4c0,0.1,0.1,0.1,0.1,0.2l0.4,0.8
	c0.1,0.3,0.2,0.6,0.4,0.8s0.4,0.8,0.5,1.2c0.1,0.2,0.2,0.4,0.3,0.6l0.1,0.2c0.2,0.5,0.4,1,0.6,1.5l0.2,0.5c0,0.1,0.1,0.1,0.1,0.2
	c0.1,0.3,0.2,0.7,0.4,1s0.1,0.4,0.2,0.6l0.1,0.4c0.1,0.3,0.2,0.7,0.4,1.1s0.2,0.6,0.3,0.8l0.1,0.5v0.1l0.1,0.3
	c0,0.1,0.1,0.2,0.1,0.4c0.1,0.4,0.2,0.7,0.3,1.1c0,0.1,0.1,0.2,0.1,0.3v0.1c0,0.2,0.1,0.3,0.1,0.5l0.1,0.2c0.1,0.4,0.2,0.7,0.3,1.1
	v0.1c0.1,0.3,0.2,0.7,0.2,1l0.1,0.7c0,0.1,0.1,0.3,0.1,0.4c0.1,0.3,0.1,0.6,0.2,0.9c0,0.1,0,0.1,0,0.2v0.2v0.1c0,0.1,0,0.2,0,0.2
	s0,0.2,0.1,0.3c0.1,0.5,0.2,0.9,0.3,1.4c0,0.2,0.1,0.5,0.1,0.7c0.1,0.5,0.2,1,0.3,1.6v0.2c0.2,1.3,0.4,2.6,0.5,3.8
	c0,0.1,0,0.1,0,0.2s0,0.2,0,0.2v0.1c0.1,0.5,0.1,1.1,0.1,1.6C185.9,91.1,186.2,93.7,186.2,96z"/>
<path class="st1" d="M69.1,26.8C38.3,41.2,20.7,74.3,26,107.9c0.1-33.5,22-63,54-72.8C76.4,32.5,72.8,29.5,69.1,26.8z"/>
<path class="st4" d="M81.7,10.7C46.7,19.8,21.9,51,21,87.2c6.6-35,35.2-61.7,70.7-65.7C88.2,18,85,14.3,81.7,10.7z"/>
<text transform="matrix(1 0 0 1 48.6114 62.1607)" class="st5 st6 st7">NEM</text>
<text transform="matrix(1 0 0 1 56.5114 110.1607)" class="st5 st6 st7">HOA </text>
<text transform="matrix(1 0 0 1 68.7114 158.1607)" class="st5 st6 st7">L</text>
</svg>
