<?xml version="1.0" encoding="utf-8"?>
<!-- Generator: Adobe Illustrator 22.0.0, SVG Export Plug-In . SVG Version: 6.00 Build 0)  -->
<svg version="1.1" id="Layer_1" xmlns="http://www.w3.org/2000/svg" xmlns:xlink="http://www.w3.org/1999/xlink" x="0px" y="0px"
	 viewBox="0 0 120 25" style="enable-background:new 0 0 120 25;" xml:space="preserve">
<style type="text/css">
	.st0{fill:#FFFFFF;}
	.st1{opacity:0.2;fill:#01A0A4;enable-background:new    ;}
	.st2{fill:#01A0A4;}
	.st3{fill-opacity:0;}
	.st4{opacity:0.2;fill:#FFFFFF;enable-background:new    ;}
	.st5{fill:#FF4500;}
	.st6{font-family:'AmericanTypewriter-Bold';}
	.st7{font-size:8.1622px;}
	.st8{fill:#20C997;}
	.st9{font-size:17.4127px;}
</style>
<title>lgTC</title>
<path class="st0" d="M30.7,12.8c0,0.1,0,0.2,0,0.3c0,0.1,0,0.2,0,0.3c0,0.1,0,0.2,0,0.3c0,0.1,0,0.1,0,0.1c0,0.1,0,0.1,0,0.2
	c0,0.1,0,0,0,0.1c0,0.1,0,0.2,0,0.2c0,0.1,0,0.1,0,0.1s0,0.1,0,0.2c0,0.1,0,0.1,0,0.1s0,0.2-0.1,0.2v0.1c0,0.1,0,0.1-0.1,0.2v0.1
	l-0.1,0.2v0.1c0,0.1,0,0.1-0.1,0.2c-0.1,0.1,0,0.1,0,0.1s0,0.1,0,0.1l-0.1,0.2c-0.1,0.3-0.2,0.7-0.3,0.9l0,0.1L30.1,17L30,17.2
	l-0.1,0.2l-0.1,0.1l-0.1,0.1l-0.1,0.1l-0.1,0.1l-0.1,0.1l-0.1,0.2l-0.1,0.1l-0.1,0.2l-0.1,0.1l-0.1,0.2l-0.1,0.2
	C29.1,18.9,29,19,29,19.1c-0.1,0.2-0.3,0.4-0.4,0.6l-0.1,0.1l-0.1,0.1l-0.1,0.2l-0.1,0.1l-0.1,0.2l0,0.1l-0.3,0.3
	c-0.2,0.2-0.4,0.4-0.5,0.6l-0.1,0.1L27,21.5L27,21.6c-1.1,1-2.3,1.7-3.7,2.2L22.9,24L22.8,24l-0.4,0.1l-0.2,0.1l-0.2,0.1l-0.2,0.1
	l-0.2,0.1l-0.2,0.1l-0.3,0.1L21,24.5H21h-0.1l-0.2,0.1h-0.1l-0.3,0.1c-0.7,0.1-1.3,0.2-1.9,0.2H18h-0.2h-0.3h-0.1h-0.1h-0.2l0,0
	h-0.1H17h-0.1h-0.2h-0.1l0,0l-0.2-0.1h-0.1l-0.2-0.1h-0.1l-0.2-0.1l-0.2-0.1h-0.1h-0.1l-0.2-0.1h-0.1h-0.1l-0.1-0.1h-0.1h-0.1
	l-0.3-0.3h-0.1l-0.1-0.1h-0.1h-0.1h-0.1l-0.1,0l0,0L14.1,24h-0.1H14H14h-0.1l0,0h-0.1h-0.1L13.7,24l-0.1-0.1h-0.1l-0.2-0.3h-0.1l0,0
	l-0.2-0.1l-0.1-0.1l-0.1-0.1H13l-0.1-0.1h-0.1h-0.1l0,0l-0.1-0.1l-0.2-0.1l0,0l-0.2-0.1l0,0L12.3,23l0,0L12.2,23l0,0.1L12.1,23
	l-0.1-0.1H12l-0.2-0.1l-0.1-0.1l-0.1-0.1l-0.1,0l0,0l-0.1-0.1l-0.1-0.1l-0.1-0.1h-0.1l-0.1-0.1l-0.1-0.1l-0.1-0.1L11,22.1L10.9,22
	L10.8,22h-0.1l0,0l-0.2-0.2l-0.1-0.1l-0.1-0.1l-0.2-0.2l-0.1-0.1L10,21.3l-0.1-0.1l-0.3-0.3l-0.1-0.1l-0.1-0.1l-0.3-0.3l0,0L9,20.3
	l-0.1-0.2L8.8,20l-0.1-0.1l-0.1-0.1l-0.1-0.1l-0.1-0.2l-0.1-0.1v-0.1c-0.1-0.2-0.2-0.3-0.3-0.5L8,18.7l-0.1-0.1
	c-0.1-0.2-0.2-0.3-0.3-0.5l-0.1-0.2l-0.1-0.1l0,0v-0.1l-0.1-0.2l-0.1-0.2l-0.1-0.1l-0.1-0.2L7.2,17l-0.1-0.2l0,0v-0.2L7,16.5
	c-0.2-0.5-0.3-1.1-0.4-1.7v-0.1v-0.1c0-0.1-0.1-0.2-0.1-0.3v-0.2c0-0.1,0-0.1,0-0.2l0,0c-0.1-0.4-0.1-0.7-0.1-1.1H6.4v-0.1l0,0
	c0-0.1,0-0.3,0-0.4c0-0.1,0-0.1,0-0.2c0-0.1,0-0.2,0-0.3c0.1-1.3,0.4-2.4,0.9-3.6C7.6,7.5,8.1,6.7,8.6,6c0.2-0.2,0.3-0.5,0.5-0.7
	l0,0l0.1-0.1L9.3,5c0.3-0.3,0.5-0.5,0.8-0.8l0,0c0.3-0.3,0.6-0.5,0.9-0.8l0,0c0.4-0.3,0.9-0.6,1.3-0.9c0.3-0.2,0.7-0.4,1-0.5
	c0.2-0.1,0.4-0.2,0.6-0.3l0.2-0.1h0.1h0.1l0.3-0.2l0.4-0.1l0.2-0.1l0.3-0.1l0.2-0.1l0.2-0.1l0.1-0.1L16.1,1c0.2-0.1,0.4-0.1,0.6-0.1
	c0.7-0.1,1.3-0.2,1.9-0.2h0.5h0.2h0.2h0.2l0,0h0.1l0,0h0.1l0,0h0.1h0.2h0.1h0.1h0.2l0,0h0.1l0.2,0.1l0.2,0.1L21,0.9h0.1L21.3,1h0.1
	h0.1h0.1L21.7,1l0.2,0.1H22l0,0l0.2,0.1l0.2,0.1h0.1h0.1l0.1,0l0,0h0.1h0.1l0.1,0.1l0,0h0.1h0.1l0.1,0.1H23h0.1l0.1,0.1l0,0l0.2,0.1
	l0,0l0.2,0.1l0,0l0,0l0.1,0.1l0,0l0.1,0.1h0.1l0.1,0.1h0.1l0,0l0.1,0.1L24,1.8l0.2-0.1h0.1l0,0l0.2,0.1l0,0L24.6,2l0,0l0.2,0.1
	l0.1,0.1h0.1l0,0H25L25,2.2l0.2,0.1l0,0l0.1,0.1l0.1,0.1l0,0l0,0l0.1,0.1l0,0l0,0l0.1,0.1l0,0l0,0l0,0h0.1l0,0l0.1,0.1l0,0l0.2,0.1
	l0.2,0.2L26,3l0.2,0.2h0.1l0.1,0.1l0.1,0.1l0.1,0.1l0.1,0.1l0.1,0.1l0.1,0.1L27,3.9l0.3,0.3l0.1,0.2l0.1,0.2l0,0l0.1,0.2l0.1,0.2
	l0.3,0.3l0.1,0.2l0.1,0.1l0.4,0.9l0.1,0.1l0,0l0.1,0.1l0.1,0.1l0.1,0.2v0.1v0.1L29,6.8v0.1c0.1,0.1,0.1,0.2,0.2,0.4l0.1,0.1v0.1
	l0.1,0.1l0.1,0.1l0,0l0.1,0.1v0.1l0.1,0.1l0.1,0.1v0.1l0.1,0.1L29.7,8l0.1,0.2l0.1,0.1v0.1l0.1,0.2v0.1l0,0L30,8.8L30,8.9V9l0.1,0.2
	l0.1,0.1v0.1l0,0v0.1v0.1l0.1,0.2v0.1l0,0v0.1l0,0l0.1,0.2l0,0l0.1,0.2v0.1v0.1v0.1v0.1v0.1v0.1c0,0.1,0,0.1,0.1,0.2v0
	c0,0.1,0,0.2,0.1,0.2v0.1c0.1,0.2,0.1,0.4,0.1,0.5l0,0v0.1l0,0c0,0.1,0,0.2,0,0.2C30.5,12.1,30.7,12.5,30.7,12.8z"/>
<path class="st1" d="M20.7,13.4c-0.3-0.1-0.5-0.2-0.7-0.4c-0.1-0.1-0.1-0.4-0.2-0.4c-0.1-0.1-0.3,0.1-0.4,0.1
	c-0.1-0.3-0.3-0.5-0.6-0.2c0.1-0.1,0.1-0.3,0-0.4c-0.1-0.2-0.3-0.1-0.4-0.1c-0.3,0-0.4-0.2-0.7-0.5c-0.2-0.3-0.5-0.1-0.9-0.1
	c-0.4,0-0.8,0.1-1.2,0.2c-0.2,0.1-0.3,0.3-0.4,0.1c-0.1-0.2,0.1-0.3-0.2-0.4c-0.4-0.2-0.8,0.1-1.2-0.1c-0.2-0.1-0.3-0.2-0.1-0.4
	c0.1-0.2,0.2-0.3,0.3-0.5c0.1-0.2,0.2-0.4,0.3-0.5c0.2-0.2,0.1-0.3,0.1-0.5c0.5-0.3,1.3,0.1,1.4-0.8c0-0.1-0.1-0.4-0.1-0.5
	c0.1-0.1,0.4,0,0.5,0c0.4,0,0.8-0.1,1.1-0.2c0.3-0.2,0.7-0.2,1-0.2c0.3,0.1,0.4,0.3,0.5,0.6s0.4,0.5,0.7,0.6
	c0.2,0.1,0.3,0.2,0.4,0.4c0,0.2,0.1,0.3,0.2,0.5c0.2-0.2,0.5-0.1,0.8-0.2c0.2-0.1,0.1-0.5,0-0.7c-0.1-0.3-0.4-0.4-0.5-0.6
	c-0.1-0.1-0.1-0.3-0.1-0.4c0.1-0.2,0.1-0.1,0.3-0.2c0.3-0.1,0.4,0.1,0.7,0.3c0.1,0.1,0.2,0.1,0.3,0.2c0.1,0.1,0.1,0.3,0.2,0.4
	c0.1,0.1,0.4,0.3,0.5,0.5C22.1,8.8,22,9,22,9.1c0,0.2,0.1,0.3,0.1,0.4c0.2,0,0.4,0.3,0.5,0.3s0.3,0.1,0.4,0.2
	c0.1,0.1,0.1,0.2,0.1,0.4c0.1,0.2,0.1,0.2,0.2,0.3c0.1,0.3,0.2,0.6,0.3,0.9c0.2,0.3,0.5,0.5,0.6,0.9c0.3,0.9-0.9,1.1-1.6,1.2
	c-0.3,0.1-0.7,0.1-1,0.1C21.1,13.7,21.1,13.4,20.7,13.4z"/>
<path class="st2" d="M21.1,17.6L21.1,17.6L21.1,17.6z"/>
<path class="st2" d="M8.3,18.9L8.3,18.9L8.3,18.9z"/>
<path class="st2" d="M22.3,17.6L22.3,17.6L22.3,17.6z"/>
<path class="st2" d="M22.7,17.1L22.7,17.1L22.7,17.1z"/>
<path class="st2" d="M22.5,16L22.5,16L22.5,16z"/>
<path class="st2" d="M22.3,16.9L22.3,16.9L22.3,16.9z"/>
<path class="st2" d="M22.2,17L22.2,17L22.2,17z"/>
<path class="st2" d="M22.5,16.1L22.5,16.1L22.5,16.1z"/>
<path class="st1" d="M14,1.7h0.1c0.1,0,0.2,0,0.2-0.1c0.1-0.1,0.1-0.1,0.2-0.1c0.1,0,0.1-0.1,0.2-0.1c0.1,0,0.1,0,0.2,0.1L15,1.6
	c0.1,0,0.1,0.1,0.1,0.1h0.1c0.1,0,0.1,0,0.1,0h0.2c0.1,0,0.2,0,0.3-0.1c0.1,0,0.2,0,0.2,0h0.2l0.2,0.1l0.1,0.1l0.1,0.1
	c0.1,0.1,0.2,0.1,0.3,0c0.1,0,0.1-0.1,0.1-0.1H17c0.1,0,0.2-0.1,0.3-0.1c-0.1,0-0.1-0.1-0.1-0.2c0-0.1,0,0,0-0.1
	c0.1,0,0.1-0.1,0.1-0.1c0.1,0,0.2,0,0.3,0l0.2,0.1h0.2c0.2,0,0.3,0.1,0.3,0.2c0,0.1,0.1,0.1,0.1,0.1c0,0.1,0,0.1,0.1,0.1
	c0,0.1,0,0.2,0.1,0.3c0.1,0.1,0.1,0.2,0.1,0.2c0.1,0,0.1,0,0.1,0c0.1,0,0.1-0.1,0.2-0.1s0.2,0.2,0.4,0.2c0.1,0,0.2-0.1,0.3-0.1h0.2
	c0.1,0,0.1,0,0.2,0s0.1,0,0.1-0.1s0-0.1,0-0.1s0-0.1,0-0.2S20.1,2,20.1,2c0.1,0,0-0.1,0-0.1V1.8c0,0,0,0,0.1,0
	c0.2,0,0.3,0.1,0.4,0.1c0.1,0,0.2,0.1,0.3,0.1C21,2,21.1,2,21.1,2.1c0.1,0.1,0.1,0.1,0.2,0.1l0.1,0.2c0.1,0.1,0.1,0.1,0.1,0.2
	c0.1,0.1,0.2,0.2,0.2,0.2c0.1,0.1,0.3,0.1,0.4,0.1l0.2-0.1h0.2c0.1,0,0.2,0,0.3,0c0.1,0,0.2,0.1,0.2,0.1l0.2,0.1
	c0.1,0,0.1,0.1,0.2,0.1c0.1,0,0.1,0.1,0.2,0.1c0.1,0.1,0.2,0.2,0.3,0.2h0.1h0.1H24h0.1l0.5,0.1h-0.1c0.1-0.1,0.2-0.1,0.3-0.1
	c0.1,0,0.3,0,0.4,0.1c0.1,0,0.2,0.1,0.2,0.1c0,0.1,0.1,0.1,0.1,0.1l0.1,0.1c0.1,0,0.1,0.1,0.2,0.1h0.1V3.5V3.4l-0.1-0.1
	c0-0.1-0.1-0.1,0-0.1V3.1C22.5,0.6,18,0.1,14,1.7C14,1.7,14,1.7,14,1.7z"/>
<path class="st2" d="M26,10.8L26,10.8L26,10.8z"/>
<path class="st2" d="M26.9,18.5L26.9,18.5L26.9,18.5z"/>
<path class="st2" d="M25.3,17.7L25.3,17.7L25.3,17.7z"/>
<polygon class="st2" points="21.4,17.7 21.4,17.7 21.4,17.7 "/>
<path class="st1" d="M23.5,17.1L23.5,17.1z M23.5,17.1L23.5,17.1z M23.5,17.1L23.5,17.1z M30.6,11.8c0-0.1,0-0.2,0-0.2l0,0v-0.1l0,0
	c0-0.2-0.1-0.4-0.1-0.5v-0.1c0-0.1,0-0.2-0.1-0.2v-0.1c0-0.1,0-0.1-0.1-0.2v-0.1v-0.1v-0.1l-0.1-0.1v-0.1V10l-0.1-0.2l0,0l-0.1-0.2
	l0,0l-0.1-0.2l-0.1-0.1V9.3V9.2l0,0V9.2V9.1l-0.1-0.2V8.9L30,8.8L30,8.6l0,0V8.5l-0.2-0.2l-0.1-0.1L29.7,8l-0.1-0.1V7.8V7.8
	l-0.1-0.1l-0.1-0.1l-0.1-0.1l0,0l-0.1-0.1l-0.1-0.1V7.3l-0.1-0.1C29.2,7.1,29.1,7,29,6.8v0l-0.1-0.2V6.6V6.6l-0.1-0.2l-0.1-0.1
	l-0.1-0.1l0,0v0.1l0,0c0,0,0,0,0,0.1c0,0.1,0,0.1-0.1,0.1c0,0,0,0.1-0.1,0.1c0,0,0,0-0.1,0c-0.1,0,0,0.1-0.1,0.1l-0.1,0.1
	c-0.1,0.1-0.1,0.1-0.1,0.1s-0.1,0-0.2,0s-0.1,0-0.1,0s-0.1-0.1-0.2-0.1h-0.1c-0.1,0-0.2,0-0.2,0.1c0,0,0,0.1-0.1,0.1
	c-0.1,0-0.1,0-0.1-0.1c-0.1,0-0.1,0-0.2,0c-0.1,0,0,0.1-0.1,0.1c0,0.1,0,0.1,0,0.2c0.1,0,0.1,0.1,0.1,0.1L27.5,7
	c0.1,0,0.1,0.1,0.1,0.1c0.1,0,0,0,0,0.1c0,0.1,0,0.1,0,0.2c0,0.1,0,0.1,0,0.2c0.1,0.1,0.2,0.2,0.2,0.3c0,0.1,0,0.1-0.1,0.1
	c-0.1,0-0.1,0-0.1,0.1c0,0.1,0,0.1,0,0.1c0,0.1,0,0.1,0,0.2c0,0.1-0.1,0.1-0.1,0.1s0,0.1,0,0.1c0,0.1,0,0.1,0,0.1s-0.1,0.2-0.2,0.2
	c-0.1,0-0.1-0.1-0.1-0.1s0-0.1-0.1-0.1l-0.1-0.1c0,0-0.1-0.1-0.1-0.1l-0.1-0.1L26.9,8c-0.1-0.1-0.2-0.2-0.3-0.2
	c-0.1-0.1-0.1-0.2-0.1-0.2c0-0.1-0.1-0.2-0.1-0.2c-0.1-0.1-0.1-0.1-0.1-0.1c-0.1-0.1-0.1-0.1-0.1-0.2c0-0.1,0-0.1,0.1-0.1
	S26.4,7,26.4,7s0.1-0.2,0.1-0.2c0-0.1,0.1-0.1,0.1-0.1c0.1-0.1,0.1-0.1,0.1-0.1c0.1-0.1,0.1-0.1,0.1-0.2c0-0.1,0-0.1,0-0.2
	s-0.1-0.1-0.1-0.2c-0.1-0.1,0-0.1,0-0.1s0,0.1,0,0.2c0,0.1,0,0.1-0.1,0.1c-0.1,0-0.1,0-0.1,0l-0.1,0.1c0,0,0,0.1-0.1,0.1
	c-0.1,0-0.1,0-0.1,0c-0.1-0.1-0.1-0.2-0.2-0.2c-0.1,0-0.1-0.1-0.2-0.1c-0.1,0-0.1,0-0.1,0.1c-0.1,0.1-0.2,0.1-0.2,0.2
	c-0.1,0.1-0.1,0.1-0.1,0.1c0,0.1,0.1,0.1,0.1,0.1s0.1,0.1,0.1,0.1s-0.1,0.1-0.1,0.1c-0.1,0-0.2,0-0.3,0h-0.1c-0.1,0-0.1-0.1-0.2-0.1
	h-0.1h-0.1h-0.1c-0.1,0-0.1-0.1-0.2-0.1c-0.1-0.1-0.1-0.1-0.1-0.1s-0.1,0-0.1,0c0,0-0.1,0-0.1,0c-0.1,0.1-0.2,0.1-0.3,0.1l-0.2-0.1
	c-0.1,0-0.2-0.1-0.3-0.1c-0.1,0-0.2,0-0.2,0c-0.1,0.1-0.2,0.1-0.2,0.2c-0.1,0.1-0.1,0.1-0.1,0.2c0,0.1,0,0.1-0.1,0.1
	C23.2,6.9,23.2,7,23.2,7c-0.1,0-0.1,0.1-0.1,0.1v0.1c0,0,0.2,0.1,0.2,0.1l0,0c0.1,0,0.1,0.1,0.2,0.1c0,0,0.1,0.1,0.1,0.1h0.1
	c0,0,0.1-0.1,0.1-0.1c0,0,0.1,0,0.1,0c0.1,0,0.2,0.1,0.2,0.1l0.1,0.1l0.2,0.1c0.1,0,0.1,0.1,0.2,0.1c0.1,0,0,0,0-0.1
	c0-0.1,0-0.1,0-0.1s0-0.1,0.1-0.1c0.1,0,0.1,0,0.1,0.1l0.1,0.1l0.1,0.1c0.1,0.1,0.1,0.1,0.1,0.1c0,0.1,0,0.1,0.1,0.1
	c0,0.1,0,0.1,0,0.1c0,0.1-0.1,0.1-0.1,0.1c-0.1,0.1-0.1,0.2,0,0.2c0.1,0.1,0.1,0.1,0.1,0.2s0.1,0.1,0.1,0.1s0,0.1,0,0.1
	c0,0.1-0.1,0.1-0.1,0.1v0.1c0,0,0.1,0,0.1,0.1c0,0.1-0.1,0.1-0.1,0.1s0,0.1-0.1,0.1l-0.1,0.1c-0.1,0-0.1,0.1-0.1,0.1
	c-0.1,0.1-0.1,0.1-0.1,0.1c-0.1,0.1-0.1,0.1-0.1,0.2s-0.1,0.2-0.2,0.2c-0.1-0.1-0.2-0.1-0.3-0.1c-0.1,0-0.1,0.1-0.1,0.1
	c0,0.1,0,0.1,0,0.1v0.1c0,0.1,0,0.1-0.1,0.1c-0.1,0-0.2,0-0.2,0.1c0,0.1,0.1,0.1,0.1,0.1c0.1,0.1,0.2,0.1,0.2,0.2l0.1,0.1
	c0.1,0.1,0.1,0.1,0.1,0.1c0.1,0.1,0.1,0.1,0.1,0.2c0,0.1,0,0.1-0.1,0.2c-0.1,0.1-0.2,0.1-0.3,0.1l0,0c-0.1,0-0.1,0-0.1-0.1
	c0,0,0-0.1,0-0.1c0-0.1-0.1-0.1-0.1-0.1c-0.1,0-0.1-0.1-0.1-0.1c0-0.1,0-0.1,0-0.1c0-0.1,0-0.1,0-0.1l-0.1-0.1l-0.1-0.1
	c-0.1,0-0.1,0-0.1-0.1s-0.1-0.1-0.1-0.2c0-0.1,0.1-0.1,0-0.1c-0.1,0-0.1-0.1-0.2-0.1c-0.1,0-0.2,0-0.3,0c-0.1,0-0.1,0-0.1,0.1
	c-0.1,0-0.1,0.1-0.1,0.1c-0.1,0-0.1,0-0.2,0l0,0c-0.1,0-0.1-0.1,0-0.1c0-0.1,0.1-0.1,0.1-0.1l0,0c0-0.1-0.1-0.2-0.1-0.2V9.5h-0.1H22
	h-0.2c0,0,0,0-0.1,0.1c0,0.1-0.1,0.1-0.1,0.1c-0.1,0.1-0.1,0.1-0.1,0.1c-0.1,0-0.1,0-0.2,0c0,0.1,0.1,0.1,0.1,0.1h0.1h0.1
	c0.1,0,0.1,0.1,0.1,0.1c0,0.1,0.1,0.1,0.1,0.1l0,0l0,0H22c0.1,0,0.1,0,0.1,0c0.1,0,0.1,0,0.1,0h0.2c0.1,0,0.1,0,0.2,0.1h0.1
	c0.1,0,0.1,0.1,0.1,0.1c0,0.1,0,0.1-0.1,0.1c-0.1,0-0.2,0-0.2,0s-0.2,0.1-0.2,0.2c0,0.1,0.1,0.1,0.2,0.2c0.1,0.1,0.2-0.1,0.2,0
	c0,0.1,0,0.1,0.1,0.2c0.1,0.1,0.2,0.2,0.2,0.3c0,0.1,0.1,0.1,0.1,0.1v0.1c0,0,0.1,0.1,0.2,0.1s0.1,0.1,0.1,0.1
	c0,0.1-0.1,0.1-0.1,0.2c0,0.1,0,0.1-0.1,0.1c0,0.1,0,0.1,0,0.1c0,0.1,0,0.1-0.1,0.1c-0.1,0-0.1,0-0.1,0h-0.1
	c-0.1,0.1-0.1,0.2-0.1,0.2s-0.1,0.2-0.2,0.2h-0.1c0,0,0,0-0.1,0.1l-0.1,0.1c-0.1,0.1-0.1,0.1-0.2,0.1c-0.1,0.1-0.1,0.1-0.2,0.1l0,0
	c-0.1,0-0.2,0.1-0.2,0.1c-0.1,0-0.1,0.1-0.1,0.1c-0.1,0-0.1,0.1-0.1,0c-0.1,0-0.1,0-0.1,0h-0.1c-0.1,0-0.2,0-0.2,0h-0.1
	c-0.1,0-0.2,0-0.3,0.1l-0.1,0.1c0,0,0,0.1-0.1,0.1c-0.1,0-0.1-0.1-0.1-0.1c0-0.1,0-0.1-0.1-0.2c-0.1-0.1-0.1-0.1-0.2-0.1h-0.1h-0.1
	c-0.1,0-0.1,0-0.1,0l-0.1,0.1c0,0.1-0.1,0.1-0.1,0.1c-0.1,0.1-0.1,0.1-0.1,0.1l-0.1,0.1v0.1v0.1c0,0.1,0,0.1,0.1,0.1
	c0.1,0.1,0.1,0.1,0.1,0.2v0.1v0.1c0,0.1,0,0.1,0.1,0.1c0,0,0.1,0.1,0.1,0.1l0.1,0.1l0.1,0.1l0.1,0.1c0.1,0.1,0.2,0.1,0.2,0.2
	c0.1,0.1,0.1,0.2,0.1,0.2c0.1,0.1,0.1,0.2,0.1,0.3c0,0.1-0.2,0.2-0.2,0.3h0.1l-0.1,0.1c-0.1,0-0.1,0-0.1,0h-0.1c-0.1,0-0.2,0-0.3,0
	c-0.1,0-0.1,0.1-0.1,0.1c-0.1,0.1-0.1,0.1-0.2,0.1c-0.1,0.1-0.1,0.1-0.1,0.1c-0.1,0-0.1-0.1-0.1-0.1l-0.1-0.1c0-0.1,0-0.1-0.1-0.1
	c-0.1,0-0.1-0.1-0.1-0.1s-0.1-0.1-0.2-0.1c-0.1-0.1,0-0.1-0.1-0.1s-0.1-0.1-0.2-0.2h-0.1c-0.1,0-0.1,0-0.1-0.1
	c0-0.1-0.1-0.1-0.1-0.1c-0.1-0.1-0.2,0-0.2,0.1c0,0.1,0,0.2,0,0.2s-0.1,0.1-0.1,0.2c0,0,0,0.1-0.1,0.1l0,0c0,0,0,0.1,0.1,0.2l0,0
	c0.1,0.1,0.1,0.1,0.1,0.1c0,0.1,0.1,0.1,0.1,0.2c0,0.1,0.1,0.1,0.2,0.2c0.1,0.1,0.1,0.1,0.1,0.1c0.1,0,0.1,0.1,0.1,0.1
	c0.1,0,0.1,0.1,0.1,0.1c0,0,0.1,0.1,0.1,0.1c0,0.1,0.1,0.1,0.1,0.1v0.1c0,0.1,0,0.1,0,0.2s-0.1,0.1,0,0.2s0.1,0.1,0.1,0.1
	c0,0,0.1,0.1,0.1,0.1v0.1l0,0c0,0.1,0,0.1,0,0.1c-0.1,0-0.1-0.1-0.1-0.1l0,0c-0.1,0-0.2-0.1-0.2-0.1c-0.1,0-0.1-0.1-0.1-0.1
	c-0.1,0-0.1-0.1-0.1-0.1L19,16.1c0,0-0.1-0.1-0.1-0.1l-0.1-0.1c-0.1-0.1-0.1-0.1-0.1-0.1c0-0.1-0.1-0.1-0.1-0.1l-0.1-0.1
	c0-0.1,0-0.1,0-0.1s0-0.1,0-0.1c0-0.1-0.1-0.2-0.1-0.2l-0.1-0.1l-0.1-0.1h-0.1l0,0c0,0-0.1-0.1-0.1-0.1c0,0,0-0.1-0.1-0.1v-0.1
	c0,0,0-0.1-0.1-0.1c0-0.1,0-0.1,0-0.1s0-0.1,0-0.1c0-0.1,0-0.1,0-0.1c0,0,0-0.1,0.1-0.1v-0.1v-0.1c0-0.1,0-0.1,0-0.2L18.2,14V14
	l0-0.1v-0.1c0-0.1,0-0.1-0.1-0.1c0-0.1-0.1-0.1-0.1-0.1c0-0.1-0.1-0.2-0.1-0.2c-0.1,0-0.1,0-0.1,0s-0.1,0-0.1,0.1
	c-0.1,0-0.1,0.1-0.2,0.1s-0.1,0-0.1-0.1c-0.1-0.1-0.1-0.2-0.1-0.2s-0.1-0.1-0.1-0.2c-0.1-0.1-0.1-0.1-0.1-0.2c0-0.1,0-0.1,0-0.1
	l-0.1-0.1h-0.1c-0.1,0-0.1-0.1-0.1-0.1S17,12.6,17,12.6c0-0.1-0.1-0.1-0.1-0.1s0-0.1,0-0.1c-0.1-0.1-0.2-0.1-0.3-0.1
	c-0.1,0-0.1,0.1-0.1,0.1s-0.1,0.1-0.2,0.1c-0.1,0-0.2,0-0.3,0H16c0,0-0.1,0-0.1,0s0,0.1,0,0.1s0,0.1-0.1,0.1
	c-0.1,0.1-0.1,0.1-0.2,0.1c-0.1,0-0.1,0-0.2,0.1v0.1c0,0,0,0.1-0.1,0.1l0.1,0.1c-0.1,0.1-0.2,0.1-0.2,0.2c-0.1,0-0.1,0.1-0.2,0.1
	l0,0l0,0c0,0.1-0.1,0.1-0.1,0.1c-0.1,0.1-0.1,0.1-0.1,0.1s-0.2,0-0.2,0s-0.1,0.1-0.1,0.1v0.1c0,0,0,0,0,0.1l0,0v0.1v0.1
	c0,0-0.1,0.1,0,0.1c-0.1,0.2-0.1,0.3-0.1,0.5c0,0.2,0,0.2-0.2,0.3c-0.1,0-0.1,0.1-0.1,0.1c-0.1,0.1,0,0.2-0.2,0.2
	c-0.2,0.1-0.1-0.1-0.1-0.1l-0.1-0.1c-0.1,0-0.2-0.1-0.2-0.1c-0.2-0.2-0.3-0.4-0.4-0.7c-0.1-0.1-0.1-0.2-0.2-0.3
	c-0.1-0.2-0.1-0.4-0.1-0.5c-0.1-0.2-0.1-0.5-0.4-0.5c-0.2,0-0.4,0-0.5-0.1l0,0C12,12.4,12,12.3,12,12.2c0-0.1,0-0.2-0.1-0.2
	c-0.2-0.2-0.3-0.3-0.5-0.4c-0.3-0.1-0.5-0.1-0.8,0s-0.4,0.1-0.7,0c-0.2-0.1-0.3-0.1-0.4-0.2c-0.1,0-0.2,0-0.3,0S9,11.4,8.9,11.4
	c-0.1-0.1-0.3-0.1-0.4-0.1H8.3H8.1l0,0H8c-0.1,0-0.2-0.1-0.2-0.1H7.7H7.7v0.1v0.1l0.1,0.1l0.1,0.1l0,0c0.1,0,0.1,0.1,0.2,0.2L8,11.8
	c0.2,0.2,0.5-0.1,0.8-0.2c0.1-0.1,0.1-0.1,0.2,0c0.1,0,0.1,0.1,0.1,0.1C9.2,11.9,9.3,12,9.5,12c0.1,0.1,0.3,0.1,0.3,0.2
	s-0.1,0.3-0.2,0.3c-0.1,0.1-0.2,0.1-0.2,0.2c-0.1,0.1-0.1,0.1-0.1,0.2c-0.1,0.1-0.1,0.1-0.1,0.2c0,0.1-0.1,0.2-0.3,0.2
	c-0.1,0-0.2,0.1-0.3,0.2c-0.1,0.1-0.1,0.2-0.2,0.2c-0.1,0.1-0.1,0.2-0.3,0.3c-0.2,0-0.3,0-0.4,0.1L7.7,14l-0.1-0.1
	c-0.2,0.2-0.4,0.2-0.6,0.3H6.8l0,0c-0.1,0-0.1,0-0.2,0c-0.1,0-0.1-0.2-0.1-0.2S6.5,14,6.5,13.9l0,0c0,0.1,0,0.1,0,0.2v0.2
	c0,0.1,0.1,0.2,0.1,0.3v0.1v0.1c0.1,0.1,0.1,0,0.2,0c0.2,0,0.3-0.1,0.4-0.1s0.2-0.1,0.3-0.2l0.1-0.1l0,0c0.1-0.1,0.2-0.1,0.3-0.1
	L8,14.2c0.1-0.1,0.2,0.1,0.2,0.1c0,0.1,0,0.1-0.1,0.2l0,0c0,0.1-0.1,0.2-0.1,0.3C8,14.9,8,15,7.9,15.1c-0.1,0.1,0.1,0.3,0,0.4
	c-0.1,0.2-0.3,0.3-0.4,0.5c-0.1,0.2-0.2,0.3-0.4,0.4l0,0L7,16.5l0,0l0.1,0.1l0.1,0.1l0,0L7.2,17l0.1,0.1l0,0.2l0.1,0.1l0.1,0.2
	l0.1,0.2l0.1,0.1l0,0l0.1,0.1l0.1,0.2c0.1,0.2,0.2,0.3,0.3,0.5L8,18.7l0.1,0.2l0,0h0.1l0,0c0,0,0-0.1,0.1-0.1s0,0,0,0l0,0
	c0.1,0.1,0.1,0.1,0.1,0.1h0.1c0.1,0,0,0.1,0.1,0.1l0,0c0.1,0.1,0,0.1,0.1,0.1v0.1c-0.1,0.1-0.1,0.1-0.1,0.1l0,0l0,0v0.1l0.1,0.1
	l0.1,0.2l0.1,0.1l0.1,0.1l0.1,0.1L8.8,20L9,20.2l0.1,0.1l0,0l0.2,0.3l0.1,0.1l0.1,0.1l0.3,0.3l0.1,0.1l0.1,0.1l0.1,0.1l0.2,0.2
	l0.1,0.1l0.1,0.1l0.2,0.2l0,0l0.1,0.1h0.1l0.1,0.1l0.1,0.1l0.1,0.1l0.1,0.1l0.1,0.1h0.1l0.1,0.1l0.1,0.1l0.1,0.1h0.1l0.1,0.1l0,0
	h0.1l0.1,0.1l0.1,0.1h0.1l0.1,0.1l0.1,0.1l0.1,0.1l0.1,0.1l0,0l0.1,0.1h0.1l0.2,0.1l0,0l0.2,0.1l0.1-0.1l0,0h0.1h0.1l0.1,0.1h0.1
	l0.1,0.1l0.1,0.1l0.2,0.1l0,0h0.1l0.2,0.1h0.1l0.1,0.1l0.1,0.1l0.1,0.1h0.1h0.1h0.1H14l0.2,0.1l0,0l0.1,0.1h0.1h0h0.1l0.1,0.1
	l0.1,0.1l0.3,0.1h0.1H15l0.1,0.1h0.1h0.1l0.1,0.1h0.1h0.1l0.2,0.1l0.2,0.1H16l0.2,0.1h0.1l0.2,0.1l0,0h0.1h0.2h0.1h0.1H17l0,0h0.2
	h0.1h0.1h0.5H18h0.5c0.7,0,1.3-0.1,1.9-0.2l0.3-0.1h0.1l0.2-0.1H21H21l0.2-0.1l0.3-0.1l0.2-0.1l0.2-0.1l0.2-0.1l0.2-0.1l0.2-0.1
	l0.4-0.1l0.1-0.1l0.4-0.2l0,0c0-0.1-0.1-0.3-0.1-0.4c0,0-0.1,0-0.1-0.1v-0.1h-0.1H23c0,0,0,0,0-0.1c0,0,0,0,0-0.1v-0.1
	c-0.1-0.1-0.2-0.1-0.4-0.1h-0.1h-0.1l0,0h-0.1h-0.1l0,0c0,0-0.1,0-0.1,0h-0.2c-0.1,0-0.2-0.1-0.3,0h-0.1l0,0h-0.1l0,0h-0.1h-0.1
	h-0.1h-0.1h-0.1c0,0,0,0.1-0.1,0.1s0,0.1-0.1,0.1h-0.1l0,0h-0.1h-0.1l0,0c-0.1,0-0.1,0-0.2,0c-0.1-0.1-0.3-0.1-0.4,0h-0.1h-0.1l0,0
	c0,0.1-0.1,0.1-0.1,0.1h-0.1h-0.1l0,0l0,0l0,0l0,0h-0.1h-0.1h0.2h-0.2h-0.1l-0.2,1l0,0l-0.1-0.1l0,0l0,0l0,0l0,0l0,0
	c-0.1-0.1-0.1-0.1,0-0.2l0,0c0-0.1,0.1,0,0.1-0.1l0,0c0,0,0-0.1,0.1-0.1c0,0,0,0,0-0.1l0,0l0,0v-0.1c0,0,0-0.1,0.1-0.1
	c0-0.1,0-0.1,0-0.2l0,0c0,0,0-0.1,0-0.1l0,0v-0.1l0,0c0,0,0,0,0-0.1c0-0.1,0-0.1,0-0.1c0-0.1,0.1-0.1,0.1-0.1l0,0
	c-0.1-0.1,0-0.1-0.1-0.2l0,0c0-0.1,0-0.1,0-0.1l0,0c0,0,0-0.1,0-0.1l0,0l0,0l0,0l0,0l0,0l0,0v-0.1l0,0v-0.1c0,0,0,0,0.1,0
	c0,0,0,0.1,0.1,0.1l0,0h0.1c0,0,0,0.1,0.1,0.1v0.1l0,0v-0.1v-0.1v-0.1V22c0,0,0-0.1,0.1-0.1l0,0h-0.1l0,0h0.1h0.1v-0.1
	c0,0,0-0.1,0-0.1l0,0h0.1l0,0c0,0,0-0.1,0.1-0.1s0-0.1,0.1-0.1l0,0c0.1,0,0.1,0.1,0.1,0.1l0,0l0,0l0,0h0.1h0.1h0.1h0.1h0.1h-0.1l0,0
	l0,0l0,0h0.1c0.1-0.1,0.2,0.1,0.3,0h0.1c0,0,0.1,0,0.1,0h0.1l0,0h0.1c0,0,0.1,0,0.1,0h0.1c0.1,0,0.1,0,0.1,0l0,0h0.1l0,0h0.1h0.1H22
	h0c0,0,0-0.1,0.1-0.1l0.1-0.1l0,0c0.1,0,0.1-0.1,0.1-0.1s0-0.1,0-0.1l0,0l0,0h0.1l0,0h0.1l0,0l0.1-0.1c0.1,0,0.1,0.1,0.1,0.1
	c0,0,0,0,0,0.1l0,0c0,0,0,0,0-0.1c0,0,0,0,0-0.1v-0.1l0,0l0,0c0.1-0.1,0.1,0.1,0.2,0s0,0,0,0l0,0l0,0v-0.1l0,0l0,0
	c0-0.1,0.1-0.1,0.1-0.1l0,0c0.1,0,0.1-0.1,0.2-0.1h0.1h0.1l0,0l0,0l0,0v-0.1l0,0h0.2c0.1,0,0.1,0,0.1,0.1c0,0,0.1,0,0.1,0.1
	c0,0,0,0.1,0.1,0.1l0,0c0,0,0.1,0.1,0.1,0.1c0,0.1,0,0,0,0l0,0c0,0,0.1,0,0.1,0c0.1,0,0.1,0,0.2,0l0,0v-0.1l0,0l0,0l0,0
	c0,0,0-0.1,0.1-0.1c0,0,0.1,0,0.1-0.1l0,0l0.1-0.1c0,0,0.1,0,0.1-0.1H24H24l0,0h0.1l0,0c0.1-0.1,0.2,0.1,0.3,0
	c0-0.1-0.1-0.1-0.1-0.1c0-0.1,0.1,0,0.1,0s0.1,0.1,0.1,0.1l0,0c0.1,0.1,0.1,0,0.1,0.1s0.1,0,0.1,0.1h0.1l0,0c0,0,0,0,0.1,0.1h0.1
	h0.1l0,0c0.1,0,0.1,0.1,0.1,0.1c0.1,0.1,0,0,0,0v-0.1c0,0,0.1,0.1,0.2,0.1c0.1,0,0,0.1,0,0.1h-0.1l0,0h-0.1c-0.1,0,0,0.1-0.1,0.1
	c-0.1,0-0.1,0.1-0.2,0.1l0,0c0,0,0,0.1-0.1,0.1h-0.1l0,0h-0.1l0,0c-0.1,0.1,0,0.1,0,0.1v-0.1l0,0l0,0c0.1,0.1,0.1,0.1,0.2,0.1v0.1
	c0,0,0.1,0,0.1,0.1l0,0v0.1v0.1l0,0c0,0,0.1,0,0.1,0.1l0,0c0,0,0.1,0,0.1,0.1c0,0.1,0.1,0.1,0.1,0.1s0.1,0,0.1,0.1
	c0.1,0,0.1,0,0.1,0h0.1l0,0c0,0,0-0.1,0.1-0.1s0-0.1,0.1-0.1l0,0h0.1l0.4-1l0,0c0,0,0-0.1,0.1-0.1c0.1,0,0-0.1,0.1-0.1l0,0
	c0,0,0-0.1,0.1-0.1c0.1,0,0-0.1,0.1-0.1c0.1,0,0-0.1,0.1-0.1c0.1,0,0-0.1,0.1-0.2h0.1l0,0v-0.1l0,0h0.1l0,0l0,0v-0.1l0,0l0,0h0.1
	l0,0c0,0,0-0.1,0.1-0.1c0.1,0,0-0.1,0.1-0.1l0,0c0.1-0.1,0.1-0.1,0.1,0c0,0.1-0.1,0.1,0,0.2l0,0l0,0l0,0l0,0l0,0v-0.1l0,0
	c0,0.1,0,0.1-0.1,0.2v0.1c0.1,0-0.1,0.1,0.1,0.1l0,0h0.1c0,0,0.1,0,0.1,0.1l0,0l0.1,0.1v0.1l0,0V21l0,0l0,0l0,0v0.1v0.1v0.1l0,0
	c0,0,0,0,0,0.1l0,0l0,0l0,0l0,0c0,0,0,0.1,0,0.1l0,0c-0.1,0.1,0.1,0.1-0.1,0.2c-0.1,0.1,0,0,0,0.1l0.1-0.1l0.1-0.1l0.1-0.1
	c0.2-0.2,0.4-0.4,0.5-0.6l0.3-0.3l0.1-0.1l0.1-0.2h-0.1l0,0c-0.1-0.1-0.1,0-0.2-0.1l0,0c0,0,0,0-0.1,0l0,0c0,0-0.1,0-0.1-0.1
	c0,0,0,0,0-0.1l0,0c0,0,0,0,0-0.1c0,0,0,0,0-0.1c0,0,0,0,0-0.1l0,0v-0.1l0,0c-0.1,0,0-0.1,0-0.1l0,0v-0.1v-0.1l0,0
	c0,0-0.1,0-0.1-0.1c-0.1-0.1-0.1,0-0.1-0.1c-0.1-0.1-0.1,0-0.1,0h-0.1c0,0,0,0.1-0.1,0.1l0,0c-0.1,0,0,0.1-0.1,0.1l0,0
	c0,0,0,0-0.1,0l0,0H27h-0.1l0,0c0,0-0.1,0-0.1-0.1h0c-0.1,0-0.2,0-0.2-0.1l0,0l0,0v-0.1l0,0v-0.1c0,0,0,0,0-0.1l0,0l0,0
	c0-0.1-0.1-0.1-0.1-0.1h-0.1c0,0,0,0-0.1,0c-0.1,0.1-0.2,0-0.3-0.1l0,0c0,0,0-0.1,0.1-0.1l0,0c0,0,0-0.1,0.1-0.1l0,0h0.1h0
	c0.1,0,0.1-0.1,0.1-0.1l0,0l0,0l0,0l0,0c0,0,0,0,0-0.1l0,0c-0.1,0,0-0.1,0-0.1s0-0.1-0.1-0.2c-0.1,0.1-0.2,0.2-0.3,0.1
	c-0.1-0.1-0.2-0.2-0.1-0.3l0,0c-0.1-0.1-0.1-0.1-0.1-0.1l0,0l-0.1-0.1l0,0h-0.1h-0.1c-0.1-0.1-0.1,0-0.1-0.1l0,0
	c-0.1,0-0.1-0.1-0.1-0.1s-0.1,0-0.1-0.1l0,0l-0.2,0.1v0.1l0,0l0,0c0,0.1-0.1,0.1-0.1,0l0,0c-0.1-0.1,0-0.1-0.1-0.2v-0.1H25
	c-0.1,0,0-0.1,0-0.1c0.1,0,0.2,0,0.3,0c0,0-0.1,0-0.1-0.1 M25.1,18.1c-0.1,0-0.1-0.1-0.1-0.1s0-0.1-0.1-0.1
	c-0.1-0.1-0.2-0.1-0.2-0.1c0-0.1-0.1-0.1,0-0.1l0,0c0.1,0,0.1,0,0.1,0.1c0.1,0.1,0.1,0,0.1,0l0,0c0.1,0,0.2,0,0.2-0.1l0,0
	 M25.2,17.7L25.2,17.7h0.1c0,0,0,0,0,0.1c0.1,0.1,0.1,0,0.2,0.1c0.1,0.1,0,0.1,0,0.1l0,0V18l0,0c0,0.1,0,0.1,0,0.1l0,0
	c0,0,0,0.1,0.1,0.1c0.1,0,0,0,0,0.1c0,0.1,0,0.1,0.1,0.1c0.1,0.1,0.1,0.1,0.1,0h0.1c0,0,0,0,0.1,0l0,0c0,0,0,0,0.1,0l0.1-0.1l0,0
	c0,0,0-0.1,0.1-0.1H26c0.1,0,0.1-0.1,0.1-0.1l0,0h0.1l0,0h0.1h0.1l0,0l0,0l0.1,0.1l0,0c0,0,0.1,0,0.1,0.1l0.1,0.1l0,0
	c0,0,0.1,0,0.1,0.1l0,0c0,0,0.1,0,0.1,0.1l0,0c0,0,0.1,0,0.1,0.1h0.1c0.1,0,0.1,0.1,0.2,0.1l0,0h0.1l0,0c0,0,0.1,0,0.1,0.1
	c0,0.1,0.1,0,0.1,0.1l0,0c0,0,0.1,0,0.1,0.1c0,0.1,0.1,0,0.1,0.1l0,0c0,0,0.1,0,0.1,0.1l0,0c0.1,0,0.1,0.1,0.1,0.1c0,0,0,0,0,0.1
	c0.1,0.1,0.1,0.1,0.2,0.1l0.1,0.1c0,0,0.1,0,0.1,0.1l0,0c0,0,0.1,0.1,0.1,0.1v0.1v0.1l0,0c0,0,0.1,0,0.1,0.1l0,0c0,0,0,0,0.1,0.1
	c0,0,0.1,0,0.1,0.1c0,0.1,0.1,0,0.1,0.1v-0.3v0.1v0.1c-0.1,0.1-0.1,0-0.1,0l0,0c-0.1,0-0.1,0-0.1,0.1c0,0.1,0,0.1,0.1,0.1
	c0,0.1,0.1,0.1,0.1,0.1c0,0,0,0,0,0.1l0,0c0,0.1,0,0.1,0,0.2c0.1,0,0.1,0,0.1,0l0,0c0.1,0.1,0,0.1,0,0.1l0,0l0.1,0.1l0.1-0.2
	l0.1-0.1l0.1-0.1c0.2-0.2,0.3-0.4,0.4-0.6l0.2-0.4l0.1-0.2l0.1-0.2l0.1-0.1l0.1-0.2l0.1-0.1l0.1-0.2l0.1-0.1l0.1-0.1l0.1-0.1
	l0.1-0.1l0.1-0.1l0.1-0.2l0.1-0.2l0.1-0.1l0.1-0.1c0.1-0.3,0.2-0.6,0.3-0.9l0.1-0.2c0-0.1,0-0.1,0-0.1s0-0.1,0-0.1s0-0.1,0.1-0.2
	v-0.1l0.1-0.2V15c0-0.1,0-0.1,0.1-0.2v-0.1c0-0.1,0-0.2,0.1-0.2c0.1-0.1,0-0.1,0-0.1s0-0.1,0-0.2c0-0.1,0-0.1,0-0.1s0-0.1,0-0.2
	c0-0.1,0,0,0-0.1s0-0.1,0-0.2c0-0.1,0-0.1,0-0.1s0-0.2,0-0.3c0-0.1,0-0.2,0-0.3c0-0.1,0-0.2,0-0.3c0.2-0.3,0.3-0.6,0.3-0.9
	L25.2,17.7z M22.2,9.8L22.2,9.8z M7.4,14.6L7.4,14.6z M24,16.2c0,0,0-0.1,0-0.1l0,0l0,0H24l0,0L24,16.2C24,16.2,24,16.2,24,16.2
	L24,16.2L24,16.2c-0.1,0.1-0.1,0.1-0.1,0.1h-0.1c0-0.1-0.1-0.1-0.1-0.1s-0.1,0-0.1-0.1l0,0l-0.1-0.1v-0.1l0,0c0-0.1,0-0.1,0-0.1
	v-0.1v-0.1l0,0l-0.1,0h-0.2c-0.1,0-0.1,0-0.2,0l0,0c0,0,0,0-0.1,0.1c-0.1,0.1,0,0,0,0l0,0l0,0h-0.1l0,0v-0.1v-0.1l0,0v-0.1l0,0h0.1
	l0,0c0.1,0,0.1-0.1,0.1-0.1l0,0c0,0,0.1-0.1,0.1,0c0.2,0.1,0.3,0,0.4-0.1l0,0c0-0.1,0.1-0.1,0-0.2h0.1l0,0v0.1c0,0,0,0.1,0,0.1l0,0
	c0,0,0.1,0,0.1,0.1l0.1,0.1l0,0c0,0,0,0.1,0,0.1c0,0.1,0,0.1,0,0.1V16c0,0,0,0,0,0.1v0.1v0.1l-0.1,0.1l0,0l0,0h-0.1
	C24.1,16.1,24.1,16.2,24,16.2L24,16.2z M23.5,17.1L23.5,17.1c0.1,0,0.1-0.1,0.1-0.1l0,0c0.1,0,0.1,0,0.1,0v0.1l0,0
	c0,0,0,0.1-0.1,0.1l0,0c-0.1,0-0.1,0.1-0.1,0.1c-0.1,0,0,0.1-0.1,0.1l0,0c-0.1,0-0.1,0-0.1,0l0,0h-0.1l0,0h-0.1l0,0
	c-0.1-0.1-0.1-0.1-0.2-0.1H23h-0.1h-0.1h-0.1l0,0h-0.1l0,0c0,0,0,0.1-0.1,0.1c-0.1,0,0,0.1-0.1,0.1l0,0v0.1l0,0l0,0
	c0,0,0.1,0,0.1,0.1l0,0c0.1,0,0,0.1,0,0.1l0,0c0,0,0,0,0.1,0c0,0,0-0.1,0.1-0.1c0,0,0,0,0.1,0s0.1,0,0.1,0h0.1l0,0
	c0.1,0,0.2,0,0.3,0v0.1l0,0v0.1l0,0c0,0.1,0,0.1-0.1,0.1l-0.1-0.1l0,0l0,0l0,0h-0.1l0,0h-0.1l0,0H23l0,0c0,0,0,0-0.1,0
	c-0.1,0.1,0,0.1,0,0.1l0,0v0.1l0,0c0,0,0,0,0,0.1l0,0l0,0c0,0.1-0.1,0.1,0,0.2c0.1,0.1,0,0,0,0s0,0,0.1,0c0,0,0,0,0.1,0
	c0,0,0.1,0,0.1,0.1l0,0c0,0,0,0,0,0.1v0.1c0,0,0,0-0.1,0l0,0l0,0l0,0c0,0.1,0,0.1-0.1,0.1c-0.1,0,0,0,0,0s-0.1,0-0.1,0
	s-0.1-0.1-0.1-0.2c-0.1,0-0.2,0-0.2-0.1v-0.1v-0.1v0.1v-0.1c0-0.1,0-0.1,0-0.1c0,0,0.1-0.1,0-0.1h-0.1c-0.1,0-0.1,0-0.1,0.1
	s0,0.1,0,0.1v0.1c0,0,0,0.2-0.1,0.2c-0.1,0.1,0,0,0,0s0,0,0,0.1l0,0c0.1,0.1-0.1,0.1-0.1,0.1c0,0-0.1,0-0.1,0v-0.1l0,0
	c0,0,0-0.1,0.1-0.1l0,0c0,0,0-0.1,0.1-0.1c0,0,0-0.1,0-0.1c-0.1,0,0.1-0.1-0.1-0.1h-0.1c-0.1-0.1,0-0.1,0-0.2l0,0c0,0,0,0,0.1,0h0.1
	c0,0,0-0.1,0.1-0.1l0,0c0.1-0.1,0-0.1,0.1-0.2l0,0c0,0,0-0.1,0.1-0.1l0,0l0,0l0,0c0.1-0.1,0-0.2,0.1-0.2s0-0.1,0.1-0.1
	c0.1,0,0.1-0.1,0.1,0l0,0c0,0,0,0,0.1,0h0.1l0,0c0,0,0,0,0.1,0h0.1c0,0,0.1,0,0.1,0.1c0,0.1,0.1,0,0.1,0.1h0.1
	c0.1,0.1,0.2,0,0.2,0.1l0,0L23.5,17.1L23.5,17.1L23.5,17.1z M22.2,18.8L22.2,18.8h-0.1c-0.1,0-0.1,0-0.1,0h-0.1h-0.1h-0.1l0,0l0,0
	c0-0.1-0.1,0-0.2,0v-0.1v-0.1c0.1,0,0.1,0,0.1,0c0,0,0.1,0,0.1,0.1h0.1l0,0c0,0,0,0,0.1,0v-0.1h0.1c0.1,0,0,0,0.1,0
	c0.1,0,0.1,0.1,0.1,0.1L22.2,18.8L22.2,18.8L22.2,18.8z M21.5,16.2L21.5,16.2c0.2-0.1,0.3-0.1,0.4-0.2c0,0,0-0.1,0.1-0.1l0,0
	c0,0,0-0.1,0.1-0.1c0.1,0,0,0,0.1,0c0.1,0,0-0.1,0.1-0.1c0.1,0,0,0,0,0l0,0c0,0,0.1,0,0.1,0l0,0c0.1,0,0.1,0.1,0.1,0.1l0,0
	c0.1,0.1,0.1,0.1,0.1,0.2c0.1,0.1,0.1,0,0.1,0.1c0,0,0,0,0.1,0h-0.1h0.1c0,0.1,0,0.1-0.1,0.1c0,0-0.1,0-0.1,0.1c0,0.1,0,0.1-0.1,0.1
	c-0.1,0,0,0,0,0l0,0c-0.1,0.1-0.1,0.1-0.1,0.2l0,0v0.1l0,0v0.1v0.1l0,0c-0.1,0.1,0.1,0.1,0.1,0.1c0,0,0,0,0.1,0l0,0h0.1v0.1l0,0
	c0,0,0.1,0.1,0,0.1c-0.1,0.1-0.2,0-0.2,0s0,0.1-0.1,0.1c-0.1,0,0,0.1-0.1,0.2c-0.1,0.1,0,0.1-0.1,0.1c-0.1,0-0.1,0-0.1,0l0,0
	c0,0,0,0.1-0.1,0.1l0,0h-0.1c-0.1,0.1,0,0.2-0.1,0.2c0,0,0,0-0.1,0l0,0c-0.1,0.1,0,0.1,0,0.1s0,0.1-0.1,0.1c-0.1,0-0.1,0-0.1,0l0,0
	c0-0.1-0.1,0-0.1,0l0,0h-0.1h-0.1c0,0-0.1,0-0.1-0.1c0-0.1,0-0.1,0-0.1v-0.1l0,0h-0.1h-0.1c-0.1,0-0.1,0-0.1,0c0,0-0.1,0-0.1-0.1
	h-0.1H21c-0.1,0-0.1,0-0.2,0c-0.1,0,0-0.1-0.1-0.1h-0.1h-0.1l0,0c-0.1,0-0.1,0-0.1-0.1c0-0.1,0-0.1,0-0.2c0-0.1,0,0,0-0.1l0,0
	c0,0,0,0,0.1-0.1l0,0c0,0-0.1,0.1-0.2,0.1c-0.1,0-0.1,0-0.1,0s0,0,0-0.1c0,0,0,0-0.1-0.1l0,0 M20.4,17L20.4,17L20.4,17L20.4,17
	L20.4,17L20.4,17c0-0.1,0.1-0.1,0-0.1l0,0v-0.1l0,0v-0.1v-0.1c0-0.1,0.1-0.1,0.1-0.1l0,0l0.1-0.1l0,0c0.1,0,0.1,0.1,0.1,0.1l0,0l0,0
	c0,0,0.1-0.1,0.1,0l0,0c0,0,0,0,0.1,0h0.1c0.1,0,0-0.1,0.1-0.1s0-0.1,0-0.1s0.1-0.1,0.1-0.1H21c0.1,0,0.1,0,0.1,0l0,0h0.1l0,0h0.1
	l0,0c0,0,0-0.1,0.1-0.1c0.1-0.1,0.1-0.1,0.1-0.1c0,0,0-0.1,0.1-0.1L20.4,17z M24,15.3C24,15.3,24,15.3,24,15.3
	c-0.1,0.1-0.2,0.1-0.1,0.1l0,0v0.1l-0.1,0.1c-0.1-0.1-0.1-0.2-0.1-0.3c0.1,0,0,0.1,0.1,0.1s0-0.1,0-0.1s-0.1-0.1-0.1-0.1
	c0.1,0,0.2,0,0.2,0l0,0C24,15.1,24,15.1,24,15.3C24,15.2,24,15.2,24,15.3L24,15.3z M23.3,15.4c0.1-0.1,0.1-0.1,0.1-0.1
	c-0.1,0-0.1,0-0.1-0.1h-0.1h-0.1c-0.1-0.1-0.1-0.1,0-0.1V15v0V15l0,0h0.1l0,0c0,0,0.1,0,0.1,0.1c0.1,0.1,0.1,0,0.1,0.1
	c0,0.1,0,0.1,0,0.1h0.2l0,0l0,0l0,0l0,0v-0.1c0.1,0.1,0,0.2-0.1,0.2c-0.1,0.1-0.1,0.1-0.1,0.2c-0.1,0.1-0.1,0.1-0.1,0.1l0,0
	C23.4,15.5,23.4,15.4,23.3,15.4L23.3,15.4C23.3,15.4,23.3,15.4,23.3,15.4L23.3,15.4L23.3,15.4z M22.2,15.4
	C22.2,15.4,22.2,15.4,22.2,15.4c0.1-0.1,0.1-0.1,0.1-0.1l0,0h0.1l0,0c0,0,0-0.1,0.1-0.1l0,0h0.1c0,0,0-0.1,0.1-0.1h0.1l0.1-0.1l0,0
	l0,0l0,0v-0.1l0,0l0,0l0,0l0,0l0,0l0,0h0.1l0,0l0,0v0.1l0,0l0,0l0,0l0,0c0,0.1,0,0.1-0.1,0.1l0,0h-0.1l0,0c-0.1,0-0.1,0-0.1,0.1
	c0,0.1,0,0.1-0.1,0.1h-0.1c-0.1,0-0.1,0-0.1,0.1H22.2L22.2,15.4L22.2,15.4L22.2,15.4h-0.1v-0.1l0,0L22.2,15.4L22.2,15.4z M21.3,16.3
	L21.3,16.3z M19.8,17.9C19.8,17.9,19.8,18,19.8,17.9L20,18c0.1,0,0.1,0,0.1,0.1c0,0,0,0.1,0.1,0.1s0.1,0,0.1,0c0.1,0,0.2,0,0.2,0.1
	c0.1,0,0.1,0,0.1-0.1c0-0.1,0,0,0.1,0s0,0,0,0.1c0,0.1,0.1,0.1,0.1,0.1h0.1l0,0c0.1,0,0.1,0.1,0.1,0.1c0.1,0,0.2,0,0.3,0
	c0,0,0.1,0,0.1,0.1c0,0.1,0,0.1-0.1,0.1s0,0.1-0.1,0.1s-0.1-0.1-0.1,0c0,0.1,0.1,0.1,0.1,0.1s0.1,0,0.2,0.1c0,0,0,0.1,0.1,0.1
	c0,0,0.1,0.1,0.1,0.1c0.1,0,0.1,0.1,0.1,0.1v0.1h-0.1h-0.1h-0.1c-0.1,0-0.1,0-0.1,0c-0.1,0-0.1,0-0.1-0.1l-0.1-0.1H21
	c-0.1,0-0.1,0-0.1-0.1l-0.1-0.1h-0.1c-0.1,0-0.1,0-0.1,0c-0.1,0-0.1,0-0.1-0.1l-0.1-0.1l-0.3-0.1h-0.1c-0.1,0-0.1,0-0.1,0
	c-0.1,0-0.1,0-0.1,0s-0.1-0.1-0.2-0.1s-0.1,0-0.2-0.1c-0.1,0-0.1-0.1-0.1-0.1c0-0.1-0.1-0.1-0.2-0.1c-0.1,0-0.1,0-0.1-0.1
	c0-0.1,0-0.1,0.1-0.1h0.1c0,0,0,0,0-0.1s0.1,0,0.1,0s0,0,0-0.1c0,0,0,0,0.1,0l0,0l0,0c0,0,0,0,0.1,0h0.1
	C19.7,17.9,19.8,17.9,19.8,17.9L19.8,17.9z M28.2,6.7L28.2,6.7z M24.2,11.1L24.2,11.1L24.2,11.1L24.2,11.1h0.1v-0.1l0,0l0,0l0,0l0,0
	c0.1,0,0.1,0,0.1-0.1h0.1h0.1l0,0c0.1,0,0-0.1,0.1-0.1c0.1,0,0.1,0,0.2,0c0.1,0,0.1,0,0.2,0c0.1,0,0.1,0,0.2,0l0,0
	c0.1,0,0.1,0.1,0.1,0l0,0c0,0-0.1-0.1,0-0.1l0,0h0.1l0,0l0,0l0,0v-0.1l0,0c0-0.1,0-0.1,0.1-0.1l0,0h0.1v0.1v0.1c0.1,0,0.1,0,0.2,0
	h0.1l0,0v-0.1h0.1c0,0,0-0.1,0-0.1l0,0v-0.1l0,0c-0.1-0.1,0-0.1,0-0.1s-0.1-0.1-0.1-0.2l-0.1-0.1l0,0c0,0-0.1-0.1,0-0.1l0,0l0,0l0,0
	l0,0l0,0l0,0c0,0,0-0.1,0.1-0.1h-0.1h-0.1c-0.1,0-0.1,0-0.1-0.1l0,0c0-0.1-0.1-0.1-0.1-0.1l0,0l0,0c-0.1-0.1-0.1-0.1,0-0.1
	c0.1-0.1,0-0.1,0.1-0.1h0.1c0.1-0.1,0.1-0.1,0.1-0.2l0,0V9.8l-0.1-0.1l-0.1-0.1c-0.1,0-0.1-0.1-0.1-0.1c0.1,0,0.1,0,0.2,0.1l0.1,0.1
	l0.1,0.1c0.1,0.1,0.2,0.1,0.3,0.2c0.1,0,0.1,0,0.2,0c0.1,0,0,0.1,0.1,0.1l0.1-0.1h0.1c0.1,0,0.1,0,0.1,0s0,0-0.1,0.1
	c0,0,0,0.1-0.1,0.1l0,0c0,0.1,0.1,0.1,0,0.1c-0.1,0.1-0.1,0-0.2,0c-0.1,0,0,0.1-0.1,0.1c-0.1,0,0,0.1,0,0.1s0,0.1-0.1,0.1
	s-0.1-0.1-0.2-0.1c-0.1-0.1-0.1,0-0.1-0.1l0,0h-0.1l0,0c-0.1,0-0.1,0-0.1,0h-0.1l0.1,0.1l0.1,0.1h0.1v0.1h0.1l0,0l0,0h0.1l0.1,0.1
	v-0.3l0.1,0.1l0,0l0,0l0.1,0.1l0.1,0.1c0.1,0.1,0.1,0.1,0.1,0.1v0.1l0,0c0.1,0.1,0,0.1,0,0.1l0,0c0.1,0.1-0.1,0.1-0.1,0.1l0,0
	l0.1,0.1l0,0v0.1v0.1v0.1l0,0l0,0l0,0v0.1c0,0,0.1,0.1,0.1,0.2c-0.1,0.1,0,0,0,0l0,0v0.1l0,0h-0.1c-0.1,0-0.2-0.1-0.2,0
	c-0.1,0-0.2,0-0.3,0c-0.1,0-0.1,0-0.1-0.1c0,0.1-0.1,0.1-0.1,0.2c-0.1,0-0.1,0-0.1,0c-0.1,0-0.1-0.1-0.1-0.1s0-0.1-0.1-0.1l0,0
	c0,0.1,0,0.1,0,0.1c0,0.1-0.1,0.1-0.1,0H25c0,0-0.1,0-0.1,0.1l0,0h-0.1l-0.2-0.1v-0.1l-0.1,0.1c0,0.1,0,0.1,0,0.1
	c0,0.1,0,0.2-0.2,0.1l0,0c0,0-0.1,0-0.1-0.1s-0.1-0.1-0.1-0.1C24.4,11.2,24.3,11.1,24.2,11.1L24.2,11.1L24.2,11.1L24.2,11
	C24.1,11,24.1,11.1,24.2,11.1z M18.4,16l0.1,0.1c0.1,0,0.1,0.1,0.1,0.1c0,0.1,0.1,0.1,0.1,0.1v0.1v0.1l0.1,0.1l0.1,0.1h0.1l0.1,0.1
	l0.2,0.1l0.1,0.1l0.1,0.1c0,0.1,0,0.1,0,0.1v0.1v0.1c0,0.1,0.1,0.1,0.1,0.1s0.1,0.1,0.1,0.1c0,0.1,0.1,0.1,0.1,0.2
	c0.1,0.1,0.2,0.1,0.2,0.2v0.1c0,0,0,0-0.1,0s0,0,0,0.1l0,0v0.1c0,0,0,0.2-0.1,0.2c-0.1,0.1-0.1,0.1-0.1,0.1h-0.1h-0.1h-0.1h-0.1
	c0,0,0,0,0-0.1c0-0.1-0.1-0.1-0.2-0.1c-0.1-0.1-0.1-0.2-0.2-0.2c0-0.1-0.1-0.1-0.1-0.1c0,0-0.1,0-0.1-0.1c-0.1,0-0.1-0.1-0.1-0.1
	v-0.1v-0.1c0-0.1-0.1-0.1-0.1-0.1c0,0-0.1,0-0.1-0.1c0,0,0-0.1,0-0.1c0-0.1,0-0.1,0-0.1l0,0c0-0.1-0.1-0.1-0.1-0.1l-0.1-0.1v-0.1
	v-0.1c0-0.1-0.1-0.1-0.1-0.2c-0.1-0.1-0.1-0.1-0.2-0.1c-0.1,0-0.1-0.1-0.1-0.1l0,0l0,0v-0.1c0,0,0,0,0-0.1l0,0L18,16L18,16
	c0,0-0.1,0-0.1-0.1l-0.1-0.1l-0.1-0.1l-0.1-0.1c0-0.1,0-0.1,0-0.1s0-0.1,0.1-0.1c0,0,0.1,0,0.1,0.1c0.1,0,0.1,0.1,0.1,0.1
	s0.1,0,0.2,0c0.1,0,0.1,0,0.1,0.1h0.1c0,0,0,0,0,0.1l0.1,0.1C18.3,15.9,18.4,15.9,18.4,16L18.4,16z M15.7,12.7L15.7,12.7z
	 M14.3,14.9L14.3,14.9c0,0,0-0.1,0-0.1l0,0l0,0v-0.1v-0.1h0.1h0.1h0.1l0,0l0,0l0,0l0,0c0,0,0,0.1,0.1,0.1l0,0l0.1,0.1
	c0,0.1,0.1,0.1,0.1,0.1c0,0,0,0.1,0.1,0.1h0.1l0,0c0.1,0.1,0,0.1,0.1,0.1c0.1,0.1,0,0,0,0.1s0,0.1-0.1,0.1h-0.1h-0.1h-0.1l0,0h-0.1
	l0,0h-0.1c-0.1,0-0.1-0.1-0.1-0.1v-0.1l0,0c-0.1-0.1,0-0.1,0-0.1l0,0C14.3,14.9,14.3,14.9,14.3,14.9L14.3,14.9z M22.4,19.1
	c-0.1,0.1-0.1,0.1-0.2,0l0,0l0,0l0,0c0,0-0.1,0-0.1-0.1l0,0L22.1,19v-0.1l0,0c0.1,0,0.2,0,0.2,0.1L22.4,19.1L22.4,19.1L22.4,19.1
	C22.3,19.1,22.3,19.1,22.4,19.1L22.4,19.1z M22.8,18.9L22.8,18.9L22.8,18.9h-0.1h-0.1c0,0,0-0.1-0.1,0h-0.1c-0.1,0-0.1,0-0.1,0
	c-0.1,0-0.1,0-0.2-0.1c-0.1-0.1-0.1-0.1,0-0.1l0,0h0.1c0.1,0,0.1,0,0.1,0l0,0c0,0,0.1,0,0.1,0.1l0,0c0.1,0,0.1,0,0.2-0.1l0,0l0,0
	h0.1h0.1l0,0h0.1l0,0h0.1l0,0c0.1,0.1,0.2,0.1,0.3,0.1l0,0l0,0h0.1c0,0.1-0.1,0.1-0.1,0.1l0,0h-0.1h-0.1l0,0H23l0,0h-0.1l0,0
	C22.9,18.8,22.9,18.8,22.8,18.9C22.8,18.9,22.8,18.9,22.8,18.9L22.8,18.9z M23.8,19C23.8,19,23.7,19,23.8,19c-0.1,0-0.1,0-0.1,0l0,0
	h-0.1c0,0-0.1,0-0.1,0c-0.1,0-0.1,0-0.1,0s-0.1,0-0.1,0l0,0h-0.1l0,0l0,0l0,0h-0.1l0,0h-0.1l0,0h-0.1h-0.1h0l0,0l0,0
	c-0.1,0-0.1,0-0.1,0s0-0.1,0.1-0.1s0-0.1,0.1-0.1l0,0l0.1-0.1l0,0h0.1c0,0,0.1,0,0.1-0.1h0.1l0,0l0,0l0,0l0,0h0.1h0.1
	c0.1,0,0.1,0,0.2,0h0c0.1,0,0.1,0,0.1,0.1L23.8,19z M24,17.6L24,17.6C24,17.5,24.1,17.5,24,17.6L24,17.6c0.1-0.1,0.1-0.1,0.1-0.2
	l0,0l0,0c0,0,0,0-0.1-0.1c0-0.1,0.1-0.1,0.1-0.2l0,0c0,0,0-0.1,0.1-0.1c0.1,0,0-0.1,0.1-0.1l0,0c0.1,0,0,0.1,0,0.1c0,0.1,0,0,0,0.1
	l0,0l0,0h0.1l0,0c0.1,0,0.1,0.1,0,0.1l0,0l0,0c0,0-0.1,0,0,0.1c0.1,0.1,0.1,0.1,0,0.1l0,0h-0.1l0,0l0,0l0,0
	C24.1,17.5,24.1,17.5,24,17.6L24,17.6L24,17.6L24,17.6L24,17.6L24,17.6L24,17.6C24.1,17.6,24,17.6,24,17.6L24,17.6L24,17.6L24,17.6
	L24,17.6L24,17.6C24.1,17.7,24.1,17.7,24,17.6L24,17.6L24,17.6L24,17.6L24,17.6L24,17.6z M24.7,18.2L24.7,18.2
	C24.7,18.2,24.7,18.2,24.7,18.2C24.7,18.2,24.7,18.2,24.7,18.2h-0.1l0,0c0,0-0.1,0-0.1-0.1l0,0c0,0-0.1,0-0.1-0.1 M24.5,18.1
	L24.5,18.1c-0.1,0-0.1,0-0.1,0l0,0c0,0,0,0-0.1,0l0,0c0,0-0.1,0-0.1,0l0,0l0,0l0,0c-0.1,0-0.1,0-0.1,0l0,0h0.1c0,0-0.1,0-0.1-0.1
	l0,0c0-0.1,0-0.1,0.1-0.1l0,0c0.1-0.1,0.2,0,0.3,0l0,0C24.5,18,24.5,18,24.5,18.1c0.1,0,0.2-0.1,0.2,0c0,0.1,0,0.1,0,0.1l0,0v0.1
	l0,0l0,0L24.5,18.1z M23.5,17.1L23.5,17.1z M23.5,17.1L23.5,17.1z M23.5,17.1L23.5,17.1z"/>
<path class="st2" d="M26.1,18.1L26.1,18.1L26.1,18.1z"/>
<path class="st2" d="M25.7,18.3L25.7,18.3L25.7,18.3z"/>
<path class="st3" d="M30.7,12.8c0,0.1,0,0.2,0,0.3c0,0.1,0,0.2,0,0.3c0,0.1,0,0.2,0,0.3c0,0.1,0,0.1,0,0.1c0,0.1,0,0.1,0,0.2
	c0,0.1,0,0,0,0.1c0,0.1,0,0.2,0,0.2c0,0.1,0,0.1,0,0.1s0,0.1,0,0.2c0,0.1,0,0.1,0,0.1s0,0.2-0.1,0.2v0.1c0,0.1,0,0.1-0.1,0.2v0.1
	l-0.1,0.2v0.1c0,0.1,0,0.1-0.1,0.2c-0.1,0.1,0,0.1,0,0.1s0,0.1,0,0.1l-0.1,0.2c-0.1,0.3-0.2,0.7-0.3,0.9l0,0.1L30.1,17L30,17.2
	l-0.1,0.2l-0.1,0.1l-0.1,0.1l-0.1,0.1l-0.1,0.1l-0.1,0.1l-0.1,0.2l-0.1,0.1l-0.1,0.2l-0.1,0.1l-0.1,0.2l-0.1,0.2
	C29.1,18.9,29,19,29,19.1c-0.1,0.2-0.3,0.4-0.4,0.6l-0.1,0.1l-0.1,0.1l-0.1,0.2l-0.1,0.1l-0.1,0.2l0,0.1l-0.3,0.3
	c-0.2,0.2-0.4,0.4-0.5,0.6l-0.1,0.1L27,21.5L27,21.6c-1.1,1-2.3,1.7-3.7,2.2L22.9,24L22.8,24l-0.4,0.1l-0.2,0.1l-0.2,0.1l-0.2,0.1
	l-0.2,0.1l-0.2,0.1l-0.3,0.1L21,24.5H21h-0.1l-0.2,0.1h-0.1l-0.3,0.1c-0.7,0.1-1.3,0.2-1.9,0.2H18h-0.2h-0.3h-0.1h-0.1h-0.2l0,0
	h-0.1H17h-0.1h-0.2h-0.1l0,0l-0.2-0.1h-0.1l-0.2-0.1h-0.1l-0.2-0.1l-0.2-0.1h-0.1h-0.1l-0.2-0.1h-0.1h-0.1l-0.1-0.1h-0.1h-0.1
	l-0.3-0.3h-0.1l-0.1-0.1h-0.1h-0.1h-0.1l-0.1,0l0,0L14.1,24h-0.1H14H14h-0.1h-0.1h-0.1L13.7,24l-0.1-0.1h-0.1l-0.2-0.3h-0.1l0,0
	l-0.2-0.1l-0.1-0.1l-0.1-0.1H13l-0.1-0.1h-0.1h-0.1l0,0l-0.1-0.1l-0.2-0.1l0,0l-0.2-0.1l0,0L12.3,23l0,0L12.2,23l0,0.1L12.1,23
	l-0.1-0.1H12l-0.2-0.1l-0.1-0.1h-0.1l-0.1-0.1l0,0l-0.1-0.1l-0.1-0.1l-0.1-0.1h-0.1l-0.1-0.1l-0.1-0.1l-0.1-0.1L11,22.1L10.9,22
	L10.8,22h-0.1h0.1c4.1,0.9,8.3-0.3,11.3-3.3l0.1-0.1c0.2-0.2,0.4-0.4,0.6-0.7l0.3-0.3l0.2-0.2l0.1-0.2l0.1-0.2l0,0l0.1-0.1
	c0.2-0.3,0.4-0.5,0.5-0.9c0.5-0.9,0.9-1.9,1.2-2.8c0.1-0.5,0.2-0.9,0.3-1.4c0.1-0.3,0.1-0.5,0.1-0.8c0-0.4,0-0.9,0-1.3
	c0-0.1,0-0.1,0-0.1s0-0.1,0-0.1c0-0.1,0-0.3,0-0.4c0-0.3-0.1-0.6-0.1-0.9c0-0.2-0.1-0.3-0.1-0.4c-0.1-0.5-0.3-1.1-0.4-1.6
	C25,6.3,25,6.2,24.9,6.1c-0.1-0.3-0.2-0.6-0.4-0.9l-0.1-0.1l0,0c-0.1-0.3-0.3-0.5-0.4-0.8l0,0L24,4.3v0L24,4.2l0,0
	c-0.3-0.5-0.7-1-1.1-1.5c-0.3-0.3-0.5-0.6-0.8-0.9c-0.3-0.2-0.5-0.5-0.8-0.7l0.2,0.1l0.2,0.1l0.2,0.1H22l0.4,0.2h0.1h0.1l0.2,0.1
	l0,0h0.1h0.1l0.1,0.1h0.1L23,1.6l0.1,0.1l0.2,0.1l0,0l0.2,0.1l0,0l0.2,0.1l0,0L23.8,2L23.9,2h0.1l0-0.1l0,0L24,2l0.2,0.1l0.2,0.1
	h0.1l0,0l0.2,0.1l0,0l0.2,0.1l0,0l0.2,0.1L25,2.5l0,0h0.1l0.1,0.1l0.1,0.1l0,0l0.1,0.1l0.1,0.1l0,0l0,0l0.1,0.1l0,0l0,0l0.1,0.1l0,0
	l0,0l0.1,0.1l0,0L25.6,3l0,0L25.8,3L26,3.3l0.1,0.1l0.2,0.2l0.1,0.1l0.1,0.1l0.1,0.1l0.1,0.1L26.8,4h0.1L27,4.1l0.2,0.2l0.3,0.3
	l0.1,0.2l0.1,0.2l0,0l0.1,0.2l0.1,0.2l0.3,0.3l0.1,0.2l0.1,0.1l0.3,0.5l0.1,0.1l0.1,0.1l0.1,0.1l0.1,0.2v0.1v0.1L29,6.8v0.1
	c0.1,0.1,0.1,0.2,0.2,0.4l0.1,0.1v0.1l0.1,0.1l0.1,0.1l0,0l0.1,0.1v0.1l0.1,0.1v0.1v0.1l0.1,0.1L29.6,8l0.1,0.2l0.1,0.1v0.1l0.1,0.2
	v0.1l0,0l0.1,0.2L30,8.9V9L30,9.1l0.1,0.1v0.1l0,0v0.1v0.1l0.1,0.2v0.1l0,0v0.1l0,0l0.1,0.2l0,0l0.1,0.2v0.1v0.1v0.1v0.1v0.1
	c0,0.1,0,0.1,0.1,0.2v0c0,0.1,0,0.2,0.1,0.2v0.1c0.1,0.2,0.1,0.4,0.1,0.5l0,0v0.1l0,0c0,0.1,0,0.2,0,0.2
	C30.5,12.1,30.7,12.5,30.7,12.8z"/>
<path class="st1" d="M13.9,3C9.5,5.1,7,9.7,7.8,14.5c0.1-4.8,3.2-8.9,7.7-10.3C14.9,3.8,14.5,3.4,13.9,3z"/>
<path class="st4" d="M15.7,0.8C10.7,2,7.2,6.4,7,11.6c1-5,5.1-8.8,10.1-9.3C16.6,1.8,16.2,1.2,15.7,0.8z"/>
<text transform="matrix(1 0 0 1 8.1841 15.7402)" class="st5 st6 st7">NEM</text>
<text transform="matrix(1 0 0 1 35.0264 18.46)" class="st8 st6 st9">HOA LỆ </text>
</svg>
