<svg id="Layer_1" data-name="Layer 1" xmlns="http://www.w3.org/2000/svg" xmlns:xlink="http://www.w3.org/1999/xlink" viewBox="0 0 197.56 49.38"><defs><style>.cls-1,.cls-7{fill:#fff;}.cls-2{fill:#01a0a4;}.cls-3{opacity:0.1;}.cls-18,.cls-19,.cls-20,.cls-4,.cls-5,.cls-6,.cls-8{fill-rule:evenodd;}.cls-4{fill:url(#linear-gradient);}.cls-5{fill:url(#radial-gradient);}.cls-6{fill:url(#radial-gradient-2);}.cls-7{opacity:0.3;}.cls-8{fill:url(#linear-gradient-2);}.cls-9{fill:#595b5d;}.cls-10{fill:url(#linear-gradient-3);}.cls-11{fill:url(#radial-gradient-3);}.cls-12{fill:url(#radial-gradient-4);}.cls-13{fill:url(#linear-gradient-4);}.cls-14{fill:url(#radial-gradient-5);}.cls-15{fill:url(#radial-gradient-6);}.cls-16{fill:url(#radial-gradient-7);}.cls-17{fill:url(#radial-gradient-8);}.cls-18{fill:url(#radial-gradient-9);}.cls-19{fill:url(#radial-gradient-10);}.cls-20{fill:url(#linear-gradient-5);}.cls-21{fill:#1ca0a4;}</style><linearGradient id="linear-gradient" x1="2364.64" y1="818.79" x2="2339.17" y2="816.45" gradientTransform="translate(-2319.24 797.07) rotate(-37.71)" gradientUnits="userSpaceOnUse"><stop offset="0.02" stop-color="#f27221"/><stop offset="0.31" stop-color="#f27323"/><stop offset="0.45" stop-color="#f3782b"/><stop offset="0.56" stop-color="#f38038"/><stop offset="0.65" stop-color="#f48c4a"/><stop offset="0.73" stop-color="#f69b62"/><stop offset="0.8" stop-color="#f8ae80"/><stop offset="0.87" stop-color="#fac5a3"/><stop offset="0.93" stop-color="#fcdecc"/><stop offset="0.99" stop-color="#fffbf9"/><stop offset="1" stop-color="#fff"/></linearGradient><radialGradient id="radial-gradient" cx="2432.15" cy="-122.9" r="5.68" gradientTransform="matrix(0.92, -0.44, 0.45, 0.91, -2134.12, 1197.42)" gradientUnits="userSpaceOnUse"><stop offset="0" stop-color="#fcf0e9"/><stop offset="0.06" stop-color="#f9decf"/><stop offset="0.25" stop-color="#efa77e"/><stop offset="0.42" stop-color="#e87e43"/><stop offset="0.53" stop-color="#e4651e"/><stop offset="0.6" stop-color="#e25b10"/></radialGradient><radialGradient id="radial-gradient-2" cx="3374.15" cy="783.41" r="6.49" gradientTransform="matrix(0.7, -0.49, 0.49, 0.68, -2696.88, 1121.3)" gradientUnits="userSpaceOnUse"><stop offset="0.32" stop-color="#e25b10"/><stop offset="0.36" stop-color="#e35e15"/><stop offset="0.41" stop-color="#e46823"/><stop offset="0.47" stop-color="#e77739"/><stop offset="0.53" stop-color="#eb8d59"/><stop offset="0.58" stop-color="#f0aa83"/><stop offset="0.64" stop-color="#f6ccb4"/><stop offset="0.7" stop-color="#fcf0e9"/></radialGradient><linearGradient id="linear-gradient-2" x1="55.86" y1="26.2" x2="9.55" y2="11.23" gradientUnits="userSpaceOnUse"><stop offset="0" stop-color="#fff"/><stop offset="0.05" stop-color="#e3e4e4"/><stop offset="0.13" stop-color="#bfc0c1"/><stop offset="0.22" stop-color="#a0a2a2"/><stop offset="0.32" stop-color="#87898a"/><stop offset="0.42" stop-color="#747677"/><stop offset="0.55" stop-color="#666869"/><stop offset="0.7" stop-color="#5e6061"/><stop offset="0.98" stop-color="#5c5e5f"/><stop offset="1" stop-color="#5b5d5e"/></linearGradient><linearGradient id="linear-gradient-3" x1="52.81" y1="26.24" x2="1.48" y2="23.39" gradientUnits="userSpaceOnUse"><stop offset="0" stop-color="#fff"/><stop offset="0.13" stop-color="#d4d4d4"/><stop offset="0.27" stop-color="#a9aaab"/><stop offset="0.42" stop-color="#88898a"/><stop offset="0.55" stop-color="#707172"/><stop offset="0.68" stop-color="#616364"/><stop offset="0.78" stop-color="#5c5e5f"/><stop offset="1" stop-color="#5b5d5e"/></linearGradient><radialGradient id="radial-gradient-3" cx="77.69" cy="49.22" r="10.34" gradientTransform="translate(-72.75 -21.48) scale(1.02 1.01)" gradientUnits="userSpaceOnUse"><stop offset="0.08" stop-color="#08b4ea"/><stop offset="0.17" stop-color="#02aae4"/><stop offset="0.25" stop-color="#02ade8"/><stop offset="0.29" stop-color="#02a5df"/><stop offset="0.35" stop-color="#0390c7"/><stop offset="0.44" stop-color="#046ea1"/><stop offset="0.53" stop-color="#063f6b"/><stop offset="0.55" stop-color="#063863"/><stop offset="0.83" stop-color="#062952"/><stop offset="1" stop-color="#062149"/></radialGradient><radialGradient id="radial-gradient-4" cx="83.4" cy="31.75" r="14.78" gradientTransform="translate(-72.75 -11.56) scale(1.02 0.7)" gradientUnits="userSpaceOnUse"><stop offset="0.11" stop-color="#fcf0e9"/><stop offset="0.13" stop-color="#fae3d6"/><stop offset="0.16" stop-color="#f5c7ad"/><stop offset="0.2" stop-color="#f0ad87"/><stop offset="0.24" stop-color="#ec9667"/><stop offset="0.28" stop-color="#e9844b"/><stop offset="0.33" stop-color="#e67535"/><stop offset="0.39" stop-color="#e46924"/><stop offset="0.47" stop-color="#e36119"/><stop offset="0.57" stop-color="#e25c12"/><stop offset="0.86" stop-color="#e25b10"/></radialGradient><linearGradient id="linear-gradient-4" x1="-6.26" y1="54.11" x2="43.37" y2="-1.93" gradientUnits="userSpaceOnUse"><stop offset="0.6" stop-color="#f7981d"/><stop offset="1" stop-color="#fff"/></linearGradient><radialGradient id="radial-gradient-5" cx="76.57" cy="68.42" r="27.44" gradientTransform="translate(-72.75 -21.48) scale(1.02 1.01)" gradientUnits="userSpaceOnUse"><stop offset="0.01" stop-color="#fcf0e9"/><stop offset="0.02" stop-color="#fceee5"/><stop offset="0.25" stop-color="#f3ba9a"/><stop offset="0.45" stop-color="#eb915f"/><stop offset="0.63" stop-color="#e67434"/><stop offset="0.76" stop-color="#e3621a"/><stop offset="0.84" stop-color="#e25b10"/></radialGradient><radialGradient id="radial-gradient-6" cx="86.95" cy="65.24" r="10.32" gradientTransform="translate(-72.75 -21.48) scale(1.02 1.01)" gradientUnits="userSpaceOnUse"><stop offset="0.09" stop-color="#fcf0e9"/><stop offset="0.36" stop-color="#efa87f"/><stop offset="0.58" stop-color="#e6712f"/><stop offset="0.68" stop-color="#e25b10"/></radialGradient><radialGradient id="radial-gradient-7" cx="79.99" cy="48.6" r="19.1" gradientTransform="translate(-72.75 -21.48) scale(1.02 1.01)" gradientUnits="userSpaceOnUse"><stop offset="0.09" stop-color="#fcf0e9"/><stop offset="0.09" stop-color="#fbebe2"/><stop offset="0.12" stop-color="#f6cdb7"/><stop offset="0.15" stop-color="#f1b28f"/><stop offset="0.18" stop-color="#ed9a6c"/><stop offset="0.22" stop-color="#ea874f"/><stop offset="0.26" stop-color="#e77738"/><stop offset="0.3" stop-color="#e56a26"/><stop offset="0.36" stop-color="#e36119"/><stop offset="0.43" stop-color="#e25c12"/><stop offset="0.6" stop-color="#e25b10"/></radialGradient><radialGradient id="radial-gradient-8" cx="82.17" cy="47.76" r="8.07" gradientTransform="matrix(1.02, 0, 0, 1.01, -73.28, -20.39)" gradientUnits="userSpaceOnUse"><stop offset="0.32" stop-color="#fcf0e9"/><stop offset="0.41" stop-color="#fcede5"/><stop offset="0.5" stop-color="#fae5d9"/><stop offset="0.59" stop-color="#f8d8c6"/><stop offset="0.67" stop-color="#f4c5aa"/><stop offset="0.76" stop-color="#f0ac86"/><stop offset="0.85" stop-color="#eb8e5b"/><stop offset="0.93" stop-color="#e56c28"/><stop offset="0.97" stop-color="#e25b10"/></radialGradient><radialGradient id="radial-gradient-9" cx="119.64" cy="47.44" r="10.6" gradientTransform="translate(-72.75 -21.48) scale(1.02 1.01)" gradientUnits="userSpaceOnUse"><stop offset="0.03" stop-color="#fcf0e9"/><stop offset="0.04" stop-color="#fae4d8"/><stop offset="0.09" stop-color="#f4c0a3"/><stop offset="0.14" stop-color="#eea176"/><stop offset="0.19" stop-color="#ea8851"/><stop offset="0.24" stop-color="#e67435"/><stop offset="0.29" stop-color="#e46620"/><stop offset="0.33" stop-color="#e25e14"/><stop offset="0.38" stop-color="#e25b10"/></radialGradient><radialGradient id="radial-gradient-10" cx="120.8" cy="47.43" r="4.99" gradientTransform="translate(-72.75 -21.48) scale(1.02 1.01)" gradientUnits="userSpaceOnUse"><stop offset="0.01" stop-color="#fcf0e9"/><stop offset="0.07" stop-color="#fae5d8"/><stop offset="0.61" stop-color="#e98249"/><stop offset="0.84" stop-color="#e25b10"/></radialGradient><linearGradient id="linear-gradient-5" x1="63.56" y1="36.88" x2="24.04" y2="12.84" xlink:href="#linear-gradient-4"/></defs><title>lgBi18</title><path class="cls-1" d="M49.6,27.09c0,.17,0,.33,0,.5s0,.31,0,.47,0,.3,0,.45,0,.15,0,.23,0,.21,0,.31,0,0,0,.07,0,.26,0,.38,0,.1,0,.16,0,.22,0,.34,0,.06,0,.1,0,.26-.06.39a.86.86,0,0,1,0,.09c0,.12,0,.24-.06.36l0,.13-.07.35,0,.11c0,.12,0,.23-.08.35s0,.08,0,.12,0,.14-.05.21l-.07.3q-.22.87-.52,1.72l-.09.24-.09.24-.14.38-.12.29-.06.15-.1.24-.1.23-.08.17-.11.24-.18.37-.12.24-.13.26-.06.11-.16.28-.17.3c-.13.22-.26.44-.4.66-.23.38-.48.75-.74,1.11l-.16.22-.15.21-.22.29-.19.25-.24.3-.06.08-.52.6q-.5.56-1,1.09l-.2.19-.19.18-.06.06A22.14,22.14,0,0,1,36,47.34l-.66.26-.24.09-.66.23-.32.1-.32.1-.32.09-.28.08-.38.1-.49.12-.41.09-.09,0-.14,0-.32.06-.08,0-.47.08a22.79,22.79,0,0,1-3.52.27h-1L26,49h-.52l-.19,0h-.06l-.41,0h0l-.25,0-.18,0h-.1l-.32,0-.11,0h0l-.39-.07h-.14l-.37-.07-.12,0-.42-.09-.28-.07-.14,0h-.1l-.23-.06-.14,0-.09,0-.25-.07-.13,0-.06,0L20.5,48,20.33,48l-.25-.08-.07,0-.11,0-.11,0-.2-.07h0l-.38-.14-.11,0-.07,0-.12,0-.06,0-.05,0-.06,0-.1,0-.14-.06-.17-.07-.11,0L17.91,47l-.11,0h0l-.26-.13-.15-.08-.13-.06-.06,0L17,46.59l-.07,0-.06,0,0,0-.11-.06-.27-.15,0,0-.28-.16-.05,0L15.9,46h0l-.16-.09-.13-.08-.11-.07-.15-.09-.07,0L15,45.42l-.13-.08-.12-.08-.09-.06-.07,0L14.47,45l-.17-.12-.12-.09-.07-.05-.2-.14-.2-.15-.13-.1-.19-.14-.19-.16L13.13,44,13.06,44h0l-.44-.37-.22-.19-.21-.19-.3-.28-.11-.1-.21-.2-.17-.17L10.93,42l-.23-.25-.22-.25L10,41h0l-.2-.25-.21-.27-.16-.21-.09-.12-.16-.21-.05-.07-.25-.35-.09-.13,0-.06q-.31-.46-.61-.95L8,38l-.11-.2q-.26-.46-.5-.94l-.19-.39-.06-.13h0L7,36.16l-.16-.36-.14-.33-.06-.15L6.53,35l-.09-.24-.15-.4h0l-.07-.21-.09-.27a21.46,21.46,0,0,1-.78-3.2l0-.15v-.08c0-.21-.06-.42-.09-.63l0-.3c0-.11,0-.22,0-.33h0q-.1-1-.11-2H5s0-.08,0-.11H5q0-.36,0-.72c0-.11,0-.22,0-.32s0-.33,0-.49a21.6,21.6,0,0,1,1.56-6.65A21.91,21.91,0,0,1,9,14.56q.49-.71,1.05-1.38h0l.15-.18.28-.32q.68-.79,1.44-1.5h0q.77-.73,1.61-1.38h0a22.31,22.31,0,0,1,2.38-1.62q.87-.52,1.8-1c.37-.18.75-.34,1.14-.5l.37-.15.07,0,.07,0L20,6.25l.61-.2L21,6l.59-.16.36-.09.31-.07.23-.05.26-.06c.37-.08.75-.15,1.13-.21A22.56,22.56,0,0,1,27.39,5h1l.35,0,.29,0,.3,0h0l.21,0h0l.15,0h.05l.19,0,.27,0h.18l.13,0,.32,0h0l.16,0,.29.05.35.07.28.06.09,0,.26.06h.06l.19,0,.19,0,.38.1.34.09.11,0,.06,0,.4.12.26.09h.06l.06,0,.27.09h0l.06,0,.08,0,.24.09h0l.09,0,.09,0,.16.06.11,0,.12,0,.14.06h0l.34.14h0l.35.15h0l0,0,.12.05,0,0,.15.07.07,0,.23.11.09,0,0,0,.12.06.19.09.26.14.09,0h0l.35.2h0l.34.2,0,0,.34.21.16.1.07,0h0l.06,0,.09.06.28.18h0l.22.15.1.07h0l0,0,.09.06,0,0,0,0,.12.09.05,0h0l0,0,.08.06.05,0,.09.06,0,0,.26.2.44.35.23.19.31.26.17.15.19.17.06.06.24.22.17.16.11.11.23.23.28.29.57.61.25.29.25.29,0,0,.24.3.25.32.48.65.19.28.06.09L46,15l.08.13h0l.08.12.07.12.21.33.05.08,0,.06.16.27,0,.06c.12.22.25.43.36.66l.06.12,0,.06.07.15.09.17,0,0,.06.13,0,.08.07.14.06.12,0,.06.09.2.1.22.13.31.07.17,0,.07.15.38,0,.12,0,.05.1.27.06.16,0,.11.09.27.07.21,0,.12v0l0,.09,0,.09.08.28,0,.07v0l0,.13v.05l.07.28v0l.06.26,0,.17,0,.11.05.24,0,.12v.06l0,.08c0,.12,0,.24.07.36l0,.18c0,.13,0,.27.07.41v.06q.08.5.13,1a.27.27,0,0,1,0,0v.06a.26.26,0,0,1,0,0c0,.14,0,.28,0,.43Q49.6,26.17,49.6,27.09Z" transform="translate(-0.63 -2.12)"/><path class="cls-2" d="M31.26,28.11A2.27,2.27,0,0,1,30,27.28c-.12-.16-.18-.68-.3-.76s-.56.08-.76.06c-.21-.58-.46-1-1.06-.4a.75.75,0,0,0,0-.8c-.24-.28-.51-.13-.82-.11-.64,0-.82-.42-1.18-.85s-1-.25-1.69-.15a13.31,13.31,0,0,0-2.25.34c-.32.11-.57.54-.81.15s.09-.62-.31-.85c-.71-.4-1.54.14-2.24-.21-.4-.19-.47-.4-.22-.77a2.15,2.15,0,0,0,.46-1,1.86,1.86,0,0,1,.54-.91c.27-.35.21-.49.22-.91,1-.45,2.33.07,2.45-1.36,0-.22-.22-.69-.09-.87s.74,0,1,0a4.66,4.66,0,0,0,2-.37,3.79,3.79,0,0,1,1.8-.37c.62.11.73.64,1,1.08a2.59,2.59,0,0,0,1.18,1.09,1.19,1.19,0,0,1,.76.76,1.6,1.6,0,0,0,.39.85c.4-.29,1-.14,1.36-.38s.1-1,0-1.3c-.18-.6-.66-.67-1-1.08a1.58,1.58,0,0,1-.18-.77c.08-.28.21-.23.49-.27.65-.1.78.08,1.17.49.15.16.36.2.49.33s.24.51.41.71.8.55.94.87-.09.56-.1.85a5,5,0,0,0,.14.8c.32,0,.76.47,1,.63s.5.11.69.29.13.37.24.65.24.29.31.55a6.77,6.77,0,0,0,.49,1.57c.32.57.87.93,1.06,1.59.47,1.6-1.74,2-2.89,2.21a6.77,6.77,0,0,1-1.85.19C32.05,28.72,32,28.22,31.26,28.11Z" transform="translate(-0.63 -2.12)"/><polygon class="cls-2" points="31.51 33.74 31.51 33.74 31.52 33.74 31.51 33.74"/><polygon class="cls-2" points="7.87 36.25 7.87 36.25 7.87 36.24 7.87 36.25"/><polygon class="cls-2" points="33.72 33.75 33.71 33.75 33.71 33.75 33.72 33.75"/><polygon class="cls-2" points="34.31 32.94 34.31 32.94 34.31 32.94 34.31 32.94"/><polygon class="cls-2" points="33.93 30.92 33.93 30.91 33.93 30.91 33.93 30.92"/><polygon class="cls-2" points="33.72 32.37 33.72 32.36 33.72 32.36 33.72 32.37"/><polygon class="cls-2" points="33.36 32.7 33.37 32.7 33.37 32.7 33.36 32.7"/><polygon class="cls-2" points="33.99 30.97 33.99 30.97 33.98 30.97 33.99 30.97"/><path class="cls-2" d="M19,6.67h.17a1,1,0,0,0,.38-.11,3.6,3.6,0,0,0,.35-.19.48.48,0,0,1,.3-.05.61.61,0,0,1,.32.05l.18.12a.45.45,0,0,0,.18.1h.15a.61.61,0,0,0,.16,0h.4a3.73,3.73,0,0,0,.5-.05,1.31,1.31,0,0,1,.38,0l.28,0,.28.09.11.06.11.05a.8.8,0,0,0,.56,0c.09,0,.1-.07.22-.06l.3,0c.2,0,.33-.08.54-.07-.09,0-.16-.23-.17-.28s0,0,0-.06a.31.31,0,0,1,.19-.08,2.86,2.86,0,0,1,.48,0l.42.07.41,0c.28,0,.48.08.56.28a.77.77,0,0,1,.06.21,1.8,1.8,0,0,1,.06.25,1.15,1.15,0,0,0,.1.47c.08.2.06.28.23.37a.25.25,0,0,0,.23,0c.16-.05.18-.23.39-.22s.4.3.7.3a3.81,3.81,0,0,0,.48-.1l.36,0a1.92,1.92,0,0,0,.28,0,.63.63,0,0,0,.21-.06c.12-.06,0-.12,0-.2s0-.24,0-.3.21-.06.3-.09,0-.16,0-.24a.29.29,0,0,1,0-.11s0,0,.08,0a3.51,3.51,0,0,1,.8.15,4.61,4.61,0,0,1,.57.14,2.29,2.29,0,0,1,.42.19,1.64,1.64,0,0,1,.29.2l.28.27c.1.1.13.22.23.32a2.72,2.72,0,0,0,.42.38.93.93,0,0,0,.77.05l.35-.06.22,0a1.8,1.8,0,0,1,.46,0,1.35,1.35,0,0,1,.42.11l.28.14c.09,0,.18.11.27.17a1.9,1.9,0,0,1,.27.17c.17.15.26.34.55.38l.19,0h.11l.17,0h.17l.86.15-.06,0a1.94,1.94,0,0,1,.45-.11,3.2,3.2,0,0,1,.7.06.63.63,0,0,1,.39.14c.05.05.07.12.15.17l.15.09a1.17,1.17,0,0,0,.37.07s.13,0,.14,0l0-.08a1,1,0,0,0,0-.11l-.1-.17c-.05-.08-.07-.09,0-.16l.05-.09A22.53,22.53,0,0,0,18.84,6.7.59.59,0,0,0,19,6.67Z" transform="translate(-0.63 -2.12)"/><polygon class="cls-2" points="40.52 21.31 40.52 21.31 40.52 21.3 40.52 21.31"/><polygon class="cls-2" points="42.1 35.37 42.1 35.37 42.1 35.37 42.1 35.37"/><polygon class="cls-2" points="39.21 34.03 39.2 34.02 39.2 34.02 39.21 34.03"/><circle class="cls-2" cx="32.55" cy="36.01" transform="translate(-16.29 28.26) rotate(-41.22)"/><path class="cls-2" d="M36.39,35h0Zm0,0h0Zm0,0h0Zm13.13-9.74c0-.14,0-.28,0-.43a.26.26,0,0,0,0,0v-.06a.27.27,0,0,0,0,0q-.05-.5-.13-1v-.06c0-.14,0-.27-.07-.41l0-.18c0-.12,0-.24-.07-.36l0-.08,0-.09V22.4L49,22.17l0-.11,0-.17-.06-.26v0l-.07-.28v-.05L48.75,21l-.08-.28,0-.09,0-.09v0l0-.12-.07-.21-.09-.27,0-.11-.06-.16-.1-.27,0-.05,0-.12L48,18.84l-.1-.23-.13-.31-.1-.22-.09-.2,0-.06-.06-.12-.07-.14-.1-.21,0,0-.09-.17L47.14,17l0-.06L47,16.81c-.12-.22-.24-.44-.36-.66l0-.06-.16-.27,0-.06-.05-.08-.21-.33-.07-.12L46,15.12h0c-.05,0,0,.08-.05.13s0,0-.05,0a.22.22,0,0,0,0,.07.35.35,0,0,1-.07.14.44.44,0,0,1-.08.09s-.05,0-.08,0,0,.06-.06.08l-.13.05a.52.52,0,0,1-.21.11,1.13,1.13,0,0,1-.3,0,.75.75,0,0,1-.21,0,1.5,1.5,0,0,0-.28-.11l-.2,0a.53.53,0,0,0-.35.12s-.05.11-.14.12a.49.49,0,0,1-.2-.05.59.59,0,0,0-.3,0c-.06,0,0,.07-.06.12a1.73,1.73,0,0,0,0,.33c.06,0,.12.06.17.08l.16.06a.63.63,0,0,1,.15.09c.06,0,0,.05,0,.11s0,.17-.05.26a.75.75,0,0,0,0,.34.64.64,0,0,1,.44.57.21.21,0,0,1-.09.16c-.06,0-.18,0-.23.09s0,.06,0,.11a.35.35,0,0,1,0,.26c0,.09-.13.15-.12.25a.85.85,0,0,1,0,.2.89.89,0,0,1,0,.16c0,.1-.1.33-.3.3a.32.32,0,0,1-.22-.23.93.93,0,0,0-.07-.17c0-.05-.08-.08-.13-.12s-.06-.1-.12-.15l-.1-.07-.31-.26c-.16-.15-.37-.26-.47-.44a1,1,0,0,1-.07-.42.43.43,0,0,0-.2-.34,1.29,1.29,0,0,1-.23-.2,1.18,1.18,0,0,1-.21-.31c0-.07,0-.16.07-.23s.16-.11.25-.18.1-.28.12-.39a.4.4,0,0,1,.15-.25,2.3,2.3,0,0,1,.22-.14.53.53,0,0,0,.17-.29.4.4,0,0,0,0-.33c-.05-.09-.12-.18-.18-.26S42,14.4,42,14.39s0,.19,0,.29,0,.16-.1.16-.12,0-.19,0a.26.26,0,0,0-.09.1s0,.11-.11.12a.44.44,0,0,1-.18,0c-.16-.09-.11-.29-.3-.37a1.15,1.15,0,0,0-.31-.06c-.1,0-.06,0-.1.08a1.52,1.52,0,0,1-.41.28c-.11.06-.16.1-.11.2a.28.28,0,0,0,.16.15c.06,0,.17.09.19.13s-.07.1-.16.13a1.24,1.24,0,0,1-.52,0h-.06c-.15,0-.21-.12-.34-.16l-.13,0-.24,0h-.09a.43.43,0,0,1-.27-.14,1.76,1.76,0,0,0-.21-.15.49.49,0,0,0-.17,0,.24.24,0,0,0-.15,0,1,1,0,0,1-.48.09l-.43-.06a3.66,3.66,0,0,0-.48-.08,1.36,1.36,0,0,0-.41,0,.67.67,0,0,0-.4.36.82.82,0,0,0-.08.36.61.61,0,0,1-.06.22,1,1,0,0,1-.25.24.35.35,0,0,0-.15.21s0,.11,0,.15.29.09.42.14h0a1.71,1.71,0,0,1,.3.16.27.27,0,0,0,.17.08.44.44,0,0,0,.13,0s.1-.07.15-.09a.18.18,0,0,1,.15,0c.13,0,.26.1.38.13l.16.07.33.21c.07,0,.23.12.32.07s0,0,0-.08,0-.06.05-.09,0-.08.08-.06.06,0,.09.07l.07.09.06.08a.68.68,0,0,1,.13.19,1.54,1.54,0,0,1,.07.16.47.47,0,0,1,0,.2c0,.09-.08.14-.11.22a.48.48,0,0,0,0,.44,2.81,2.81,0,0,1,.22.31c0,.06.11.13.11.19a.62.62,0,0,1,0,.21c0,.06-.07.11-.1.16a.34.34,0,0,1,0,.08s.06.05.06.09-.07.13-.07.19a.33.33,0,0,1-.06.22.19.19,0,0,1-.13.07.4.4,0,0,0-.19.11c-.06.06-.08.14-.14.21a.87.87,0,0,0-.13.3c0,.11-.17.29-.34.26a2.6,2.6,0,0,0-.58-.1c-.17,0-.18.09-.2.2a1,1,0,0,1,0,.23,1,1,0,0,0,0,.09.18.18,0,0,1-.09.14c-.1.05-.34,0-.34.16s.09.16.16.22a1.61,1.61,0,0,1,.4.39l.08.12a1,1,0,0,0,.21.22.49.49,0,0,1,.16.4.49.49,0,0,1-.09.27.65.65,0,0,1-.63.1h0a.39.39,0,0,1-.14-.07s0-.12,0-.18-.12-.14-.22-.21a.35.35,0,0,1-.15-.17,1.6,1.6,0,0,1,0-.23c0-.06,0-.11,0-.17l-.09-.11-.09-.07c-.06,0-.13,0-.19-.08a.39.39,0,0,1-.19-.41c0-.06.06-.17,0-.22s-.19-.1-.26-.11a1.62,1.62,0,0,0-.55,0,.44.44,0,0,0-.17.09.49.49,0,0,1-.2.1.66.66,0,0,1-.26,0h0c-.11,0-.09-.1-.05-.16s.13-.08.17-.13l0,0A.58.58,0,0,0,34,21s0-.1,0-.12a.39.39,0,0,0-.13,0l-.19,0h-.26s0,0-.06.06a.68.68,0,0,1-.13.21.82.82,0,0,1-.24.17c-.1,0-.21,0-.31,0a.63.63,0,0,0,.15.2.66.66,0,0,0,.13,0l.15,0c.17,0,.12.1.14.19s.08.15.21.18v0h0l.16,0c.06,0,.14,0,.19,0a.69.69,0,0,1,.22,0l.34,0a1.09,1.09,0,0,1,.27.06l.11,0a.2.2,0,0,1,.07.21.21.21,0,0,1-.09.16c-.1.05-.28,0-.4,0a.31.31,0,0,0-.3.26c0,.12.18.22.31.28s.26.14.28.26,0,.24.08.35a2.52,2.52,0,0,1,.42.46,2,2,0,0,1,.07.21s0,.09,0,.12.22.07.31.11.15.09.16.15-.07.18-.1.26a1.73,1.73,0,0,1-.06.17.55.55,0,0,0,0,.18c0,.06,0,.15-.07.19s-.07,0-.09,0l-.11.05a.65.65,0,0,0-.16.41.43.43,0,0,1-.26.32l-.13,0s-.05,0-.08.07l-.1.1a1.14,1.14,0,0,1-.34.18.83.83,0,0,1-.29.12h0a1,1,0,0,0-.43.16,2.45,2.45,0,0,1-.23.12.35.35,0,0,1-.2.05.69.69,0,0,0-.24,0l-.21,0a2.79,2.79,0,0,1-.43.05H32a.89.89,0,0,0-.48.13.27.27,0,0,0-.09.1c0,.05,0,.11-.1.13s-.17-.08-.18-.15,0-.17-.09-.26a.32.32,0,0,0-.27-.08l-.13,0-.2,0a.65.65,0,0,0-.2,0s-.06.07-.07.11a.68.68,0,0,1-.11.15,1.81,1.81,0,0,1-.2.18c-.05,0-.07.06-.08.12v.13a.22.22,0,0,0,0,.12c0,.06.05.07.1.11A.62.62,0,0,1,30,28s0,.08,0,.12a.56.56,0,0,0,.05.09.39.39,0,0,0,.08.14c.05,0,.14.08.19.13l.09.08s.09.07.12.11l.1.14c.11.14.32.23.4.39s.14.28.23.42a.64.64,0,0,1,.11.54c0,.15-.31.35-.32.52h.06s-.09.07-.13.08a2,2,0,0,1-.22,0l-.1,0a1.63,1.63,0,0,0-.46,0c-.09,0-.15.13-.22.19s-.25.09-.3.18-.08.2-.18.17-.08-.18-.1-.23l-.1-.24a.54.54,0,0,0-.08-.19,1,1,0,0,0-.22-.12c-.1,0-.2-.06-.26-.15s0-.13-.08-.18a.61.61,0,0,0-.35-.28l-.1,0a.39.39,0,0,1-.25-.11.53.53,0,0,0-.13-.13c-.13-.08-.28,0-.29.1a2.17,2.17,0,0,1,0,.41,2.24,2.24,0,0,1-.11.28.3.3,0,0,1-.07.1s0,0-.05,0,0,.25.13.33h0a.66.66,0,0,1,.17.19,1.09,1.09,0,0,1,.06.27c0,.16.25.24.39.34s.09.15.17.21a1.26,1.26,0,0,0,.2.1,1,1,0,0,1,.22.15c.05,0,.06.1.11.15s.19.15.2.25a.8.8,0,0,1,0,.09c0,.09,0,.18,0,.27s-.06.22,0,.31.11.09.15.15a.41.41,0,0,1,.08.15.73.73,0,0,1,0,.13.12.12,0,0,0,0,0,.58.58,0,0,1,0,.22.25.25,0,0,1-.14-.15h0a1.34,1.34,0,0,1-.36-.2c-.07,0-.16-.07-.23-.11a.79.79,0,0,1-.14-.14l-.12-.11c0-.05-.11-.1-.16-.15l-.1-.1a2.12,2.12,0,0,1-.19-.22,1.24,1.24,0,0,1-.11-.19l-.09-.18a1,1,0,0,1-.05-.21,1.67,1.67,0,0,1,0-.18.86.86,0,0,0-.17-.41.32.32,0,0,0-.13-.1.8.8,0,0,1-.12-.1l-.07,0,0,0s-.06-.14-.09-.2a1.19,1.19,0,0,1-.07-.12s0-.06,0-.09,0-.1-.06-.15a.65.65,0,0,1-.05-.17.59.59,0,0,1,.05-.2,1.17,1.17,0,0,1,.05-.2s.05-.06.07-.1a.53.53,0,0,0,0-.11v-.17a.92.92,0,0,0,0-.33s-.06-.09-.07-.14,0-.08,0-.12l-.07-.1a1.1,1.1,0,0,1-.05-.13,1.72,1.72,0,0,0-.06-.17,1.81,1.81,0,0,1-.07-.2c0-.09-.07-.29-.23-.32a.65.65,0,0,0-.2,0,1.15,1.15,0,0,0-.23.07.73.73,0,0,1-.29.08c-.1,0-.09-.05-.13-.11a1.36,1.36,0,0,1-.13-.44.44.44,0,0,0-.19-.27.46.46,0,0,1-.22-.38.38.38,0,0,0,0-.18l-.06-.07h-.06a.88.88,0,0,1-.19-.16,1.79,1.79,0,0,1-.14-.23.46.46,0,0,1-.09-.19.38.38,0,0,0,0-.17.64.64,0,0,0-.45-.2c-.09,0-.11.09-.19.12a.81.81,0,0,1-.28.06c-.18,0-.38,0-.57,0h-.16s-.14,0-.16,0,0,.11,0,.15a.71.71,0,0,1-.08.18c-.08.13-.23.15-.39.18a.52.52,0,0,0-.33.13s0,.07,0,.1a.69.69,0,0,1-.07.14l-.14.17a1.12,1.12,0,0,1-.43.32.62.62,0,0,0-.26.14h0v0c-.05.09-.07.17-.12.25s-.06.12-.21.11a1.17,1.17,0,0,0-.39,0c-.11,0-.15.07-.11.16l0,.07s0,.05,0,.08,0,0,0,0a.31.31,0,0,1,0,.08.47.47,0,0,0,0,.13s-.06.08,0,.12a3.28,3.28,0,0,0-.19.9c0,.35,0,.44-.34.61a.66.66,0,0,0-.19.11c-.13.13,0,.34-.26.42s-.1-.15-.18-.22l-.21-.09a.62.62,0,0,1-.38-.25,12.71,12.71,0,0,1-.81-1.18,5.22,5.22,0,0,1-.31-.62c-.14-.33-.11-.66-.23-1s-.16-.9-.73-.89c-.32,0-.77,0-1-.21l0,0a.68.68,0,0,1-.14-.38.86.86,0,0,0-.1-.38,2.36,2.36,0,0,0-1-.7,3.07,3.07,0,0,0-1.42,0,3.37,3.37,0,0,1-1.17,0c-.28-.06-.47-.25-.73-.34a1.4,1.4,0,0,0-.5,0,2.92,2.92,0,0,1-.71-.12,3.85,3.85,0,0,0-.7-.12H8.38l-.21,0h0l-.2,0a3.15,3.15,0,0,0-.43-.09H7.45l-.11,0,0,.06,0,.07.09.18.08.13h0c.11.16.27.34.39.48a.58.58,0,0,0,.13.12c.41.28,1-.15,1.37-.3.17-.06.12-.07.26,0a.72.72,0,0,1,.21.19,1.85,1.85,0,0,0,.83.46c.18.06.46.15.52.31s-.19.46-.32.6a1.7,1.7,0,0,1-.44.26.82.82,0,0,0-.25.27,1.26,1.26,0,0,0-.11.34c0,.2-.1.36-.46.41a.69.69,0,0,0-.58.27,3.14,3.14,0,0,1-.31.42c-.21.21-.18.41-.54.45a4.32,4.32,0,0,0-.78.08l-.17.07-.13.09a4.19,4.19,0,0,1-1.14.58l-.17,0h0a.64.64,0,0,1-.28,0c-.1,0-.19-.27-.24-.34s-.17-.22-.24-.34h0c0,.11,0,.22,0,.33l0,.3c0,.21.06.42.09.63v.08l0,.15c.09.06.19,0,.36,0a5.19,5.19,0,0,0,.82-.2c.26-.07.48-.2.74-.27l.22-.07h0a4.3,4.3,0,0,1,.64-.25l.21-.08c.18-.06.37.06.33.21s0,.24-.07.37h0a1.1,1.1,0,0,1-.14.45c-.13.17-.19.4-.33.57S8,31.8,7.91,32c-.21.39-.56.61-.72,1a1.43,1.43,0,0,1-.7.66h0l-.29.17-.07,0,.09.27.07.21h0l.15.4.09.24.13.33.06.15.14.33.16.36.11.22h0l.06.13.19.39q.24.48.5.94L8,38l.17.29,0,0,.05-.05h0s0-.07.06-.09,0,0,0,0h0c.07.07.09.16.14.24l.06,0c.08,0,0,.14.07.19a.07.07,0,0,0,0,0c.06.07,0,.18.06.25l0,.18s0,.07.06.11a0,0,0,0,0,0,0h0a.1.1,0,0,1,0,.1l.09.13.25.35.05.07.16.21.09.12.16.21.21.27.2.25h0l.44.51.22.25.23.25.47.48.17.17.21.2.11.1.3.28.21.19.22.19.44.37h0l.07.06.07.05.19.16.19.14.13.1.2.15.2.14.07.05.12.09.17.12.15.11.07,0,.09.06.06,0,.06,0,.13.08.24.15.07,0,.15.09.11.07.13.08.16.09h0l.22.13.05,0,.28.16,0,0,.27.15.11.06,0,0,.06,0,.07,0,.13.07.06,0,.13.06.15.08.26.13h0l.11,0,.26.12.11,0,.17.07.14.06.21.09.06,0,.12,0,.07,0,.11,0,.38.14h0l.2.07.11,0,.11,0,.07,0,.25.08.18.06.45.14.06,0,.13,0,.25.07.09,0,.14,0,.23.06h.1l.14,0,.28.07.42.09.12,0,.37.07h.14l.39.07h0l.11,0,.32,0h.1l.18,0,.25,0h0l.41,0h.06l.19,0H26l.28,0h1a22.79,22.79,0,0,0,3.52-.27l.47-.08.08,0,.32-.06.14,0,.09,0,.41-.09.49-.12.38-.1.28-.08.32-.09.32-.1.32-.1.66-.23.24-.09.66-.26v-.05a3,3,0,0,0-.21-.69s-.08,0-.11-.06l0-.06s-.07,0-.11,0l-.09,0a.15.15,0,0,1-.05-.06.21.21,0,0,1,0-.06l0-.06a2.07,2.07,0,0,0-.67-.11l-.16,0-.07,0h0s-.08,0-.12,0-.08,0-.12,0h0c-.05,0-.12,0-.18,0H33.8c-.17,0-.33-.08-.5,0l-.06,0h0l-.07,0h0s-.08,0-.12,0l-.07,0s-.08,0-.11,0-.08,0-.12,0l-.06,0s0,.07-.06.09,0,.07-.07.09l-.06,0h0l-.06,0-.07,0h0c-.11,0-.22,0-.33,0a1.6,1.6,0,0,0-.72,0l-.06,0-.06,0h0a.36.36,0,0,1-.19.12l-.06,0-.06,0h0l0,0,0,0,0,0-.06,0-.09,0h-.07l-.34,0-.06,0L30,47l0,0-.09-.08,0,0,0-.05,0,0,0,0,0,0a.26.26,0,0,1,0-.28.08.08,0,0,0,0,0c0-.06.11,0,.16-.08l0,0a.6.6,0,0,0,.06-.13.15.15,0,0,0,0-.06.2.2,0,0,0,0,0v0l0-.09a.14.14,0,0,1,.07-.07.32.32,0,0,0,0-.27.08.08,0,0,0,0,0s0-.11,0-.15a.1.1,0,0,0,0,0s0-.07,0-.11a0,0,0,0,0,0,0,.08.08,0,0,1,0-.07c0-.07,0-.13,0-.2s.09-.14.06-.22a.1.1,0,0,0,0,0c-.09-.09,0-.2-.07-.3h0a.27.27,0,0,1,0-.25v0s0-.11,0-.16a.19.19,0,0,0,0,0v0h0a.48.48,0,0,0,0,0l0-.05a.07.07,0,0,1,0-.05s0-.07,0-.1a.28.28,0,0,0,0-.05s0-.09,0-.13a.07.07,0,0,1,.07,0s0,.08.08.06l0,0h.07a.34.34,0,0,1,.06.08l0,.06a.26.26,0,0,0,0,0,.26.26,0,0,0,0-.14.44.44,0,0,1,0-.1l0-.1a.21.21,0,0,1,0-.14c0-.05,0-.12.06-.17a.13.13,0,0,0,0,0l.06,0a.05.05,0,0,0,0,0l.06-.05.06,0,0-.09a.15.15,0,0,0,0-.16,0,0,0,0,0,0,0l.06-.05h0s0-.07.07-.09,0-.07.07-.09h0c.07,0,.07.06.13.06H31l.05,0h0s.09,0,.12,0l.12,0s.08,0,.12,0l.06,0,.07,0,.06,0h0l0,0,.05,0h.14c.15-.08.31.07.46,0l.06,0c.05,0,.13,0,.18,0h.11l.06,0,.06,0a.36.36,0,0,1,.15,0l.08,0a.22.22,0,0,0,.18,0h.05s.09,0,.13,0l0,0,.08,0h.12l.06,0,.06,0s0-.07.08-.09a1.61,1.61,0,0,1,.13-.12h0a.33.33,0,0,0,.2-.17c0-.06,0-.12,0-.18l0,0,0,0s.09,0,.13-.05h0l.07,0h0a.27.27,0,0,1,.14-.09c.09,0,.08.09.11.15a.28.28,0,0,1,0,.06s0,0,0,0a.25.25,0,0,0,0-.07.14.14,0,0,1,0-.06s0-.06,0-.1,0,0,0,0h0c.12-.06.24.15.35,0s0,0,0,0v0h0a.06.06,0,0,1,0-.09.07.07,0,0,0,0,0c0-.08.13-.06.19-.08h0c.12,0,.16-.17.28-.21l.09,0h.06l0,0h0l0,0,0-.07.05,0h.26c.08,0,.13,0,.19.06a.14.14,0,0,1,.08.06s0,.1.06.14h0c0,.05.07.11.1.16s0,0,0,0,0,0,0,0a.11.11,0,0,1,.15,0,.38.38,0,0,0,.29,0,.48.48,0,0,0,0,0l0-.06h0s0,0,0,0h0s0-.07.08-.09a.3.3,0,0,0,.12-.08.07.07,0,0,0,0,0l.22-.21a.41.41,0,0,0,.13-.08l.07,0,.07,0h0l.07,0h0c.16-.07.36.09.52,0,0-.09-.14-.12-.12-.22s.18,0,.25,0,.13.13.2.19a.06.06,0,0,0,0,.05c.06.06.17,0,.23.09s.08,0,.1.07a.12.12,0,0,0,.13,0h0a.17.17,0,0,1,.06.06.11.11,0,0,0,.12,0s.09,0,.12,0h0c.14,0,.09.13.18.17s0,0,0,0,0-.07,0-.09.19.06.26.12,0,.06,0,.09l-.07,0h0l-.07,0c-.06,0,0,.1-.09.13a.34.34,0,0,0-.27.2h0s0,.06-.08.08l-.06,0h0l-.06,0,0,0c-.06.07,0,.14,0,.21l0,.06h0l0,.06c.09.06.2.11.26.2l.05.06s.08,0,.1.07h0s0,.07,0,.11l0,.06h0s.08,0,.11.07h.05s.09,0,.11.07.08.15.13.23.08,0,.1.07a.15.15,0,0,0,.17,0s.09,0,.12,0h0s0-.06.08-.08,0-.07.08-.09h0l.07,0S41,42,41,42h0s0-.07.08-.09,0-.1.08-.13a.12.12,0,0,0,0,0s0-.07.08-.09,0-.07.07-.09,0-.15.06-.23,0-.21.12-.28l.06,0v0a.06.06,0,0,1,0-.09l.06,0s0,0,0,0v0s0-.07,0-.1a.07.07,0,0,0,0,0l.06,0,.06,0a.06.06,0,0,0,0,0s0-.07.08-.09,0-.1.08-.13l0,0c.09-.06.17-.07.23,0s-.11.24,0,.36h0a0,0,0,0,1,0,0h0v0s0,0,0,.05l0,.07a.06.06,0,0,0,0,0,.48.48,0,0,1-.07.34l0,.1c.06,0-.09.15.08.17h0s.09,0,.13,0,.07,0,.1.07a.09.09,0,0,0,0,0,.35.35,0,0,1,.09.12l0,.06h0a.1.1,0,0,1,0,.14v0a0,0,0,0,0,0,0v0l0,.22s0,.06,0,.1l0,.06h0a.16.16,0,0,1,0,.07.05.05,0,0,0,0,0,0,0,0,0,0,0,0v0a.13.13,0,0,0,0,0,.11.11,0,0,1,0,.15.08.08,0,0,0,0,0c-.1.08.06.22-.06.29s-.05.05,0,.09l.06-.06.19-.18.2-.19q.54-.53,1-1.09l.52-.6.06-.08.24-.3a.19.19,0,0,1-.08,0h0c-.09-.08-.25,0-.34-.13h0s0,0-.08,0h0s-.09,0-.12-.07a.14.14,0,0,1,0-.07,0,0,0,0,0,0,0,.24.24,0,0,1,0-.07.15.15,0,0,1-.05-.06.13.13,0,0,1,0-.06h0s0-.07,0-.1h0c-.09,0,0-.11,0-.17h0s0-.08,0-.11,0-.07,0-.1l0,0c-.05,0-.14,0-.18-.09s-.13,0-.16-.09-.18,0-.24-.05h-.06s0,.07-.09.07h0c-.15,0,0,.2-.17.21a0,0,0,0,0,0,0,.14.14,0,0,1-.07,0h0s-.09,0-.13,0-.09,0-.13,0h0s-.09,0-.12-.07h-.06a.74.74,0,0,1-.39-.1s0,0,0,0a.06.06,0,0,1,0,0s0-.07,0-.1h0l0-.06a.13.13,0,0,1,0-.06h0a.1.1,0,0,1,0-.05c0-.06-.09-.12-.19-.09l-.09,0s0,0-.07,0a.46.46,0,0,1-.53-.11h0s0-.06.08-.08h0s0-.07.08-.08h0l.06,0,.07,0c.14,0,.17-.09.21-.16h0s0,0,0,0v0h0a.16.16,0,0,1,0-.06h0c-.06,0,0-.11,0-.16s0-.19-.12-.27A.12.12,0,0,1,41,38h0c-.07-.06-.15-.09-.22-.14h0l-.24-.15h0l-.06,0-.1,0c-.07-.06-.18,0-.24-.1h0a.21.21,0,0,1-.11-.12c0-.05-.13,0-.16-.09h0l-.21-.14a.07.07,0,0,1-.05.09h0a.14.14,0,0,1-.23,0c-.06-.12.05-.24-.07-.35l0-.06-.1,0c-.06,0-.05-.06,0-.09a1.21,1.21,0,0,0,.46,0c-.05,0-.14,0-.2-.06a0,0,0,0,0-.06,0c-.12,0-.11-.08-.16-.13s0-.12-.09-.17-.29-.06-.33-.21-.09-.1,0-.15h0a.13.13,0,0,1,.14.06c.07.09.06,0,.1,0h0a1.3,1.3,0,0,0,.4-.08h.05a0,0,0,0,1,.06,0l.12.05s.08,0,.1,0a.22.22,0,0,1,.05.06c.07.07.2,0,.28.11s0,.14,0,.21v0a.19.19,0,0,0,0,.09l0,0c0,.06,0,.11,0,.16H40.1s.05.09.09.13,0,.05,0,.08,0,.14.08.21.06.06.12,0l.07,0a.11.11,0,0,1,.07,0h0a.1.1,0,0,1,.06,0,.28.28,0,0,1,.13-.08h0s0-.06.09-.08H41c.06,0,.07-.1.16-.11h0s.09,0,.13,0h0s.09,0,.13,0a.07.07,0,0,1,.11,0h0l.06.06,0,0s.1,0,.13.07l.06.06h0s.08,0,.11.07h0s.08,0,.1.07h0s.08,0,.11.07l.06,0a.77.77,0,0,1,.28.11l0,0a.16.16,0,0,1,.14,0h0s.09,0,.11.07.08,0,.1.08h0s.08,0,.11.07.09,0,.11.08h0s.13,0,.17.08h0c.08,0,.17.08.22.15a.16.16,0,0,1,.05.06c.09.06.22.07.27.17a.19.19,0,0,1,.09.12s.09,0,.11.08h0c0,.05.09.1.09.17l0,.08s-.05.07,0,.11h0s.1,0,.13.07l0,0a.12.12,0,0,1,.06.06s.08,0,.1.08.13,0,.17.09l0,.06s0,.07,0,.11l0,.08c-.06.06-.14,0-.2,0h0c-.13,0-.11,0-.1.09s0,.12.08.17a1,1,0,0,0,.14.18.14.14,0,0,1,0,.07.06.06,0,0,0,0,0,2,2,0,0,0,.05.26.19.19,0,0,0,.19,0h0c.08.07,0,.14,0,.21h0l.09.06.22-.29.15-.21.16-.22c.26-.36.51-.73.74-1.11l.4-.66.17-.3.16-.28.06-.11.13-.26.12-.24.18-.37.11-.24.08-.17.1-.23.1-.24.06-.15.12-.29.14-.38.09-.24.09-.24q.29-.85.52-1.72l.07-.3c0-.07,0-.14.05-.21s0-.08,0-.12.05-.23.08-.35l0-.11.07-.35,0-.13c0-.12,0-.24.06-.36a.86.86,0,0,0,0-.09q0-.19.06-.39s0-.06,0-.1,0-.22,0-.34,0-.1,0-.16,0-.25,0-.38,0,0,0-.07,0-.21,0-.31,0-.15,0-.23,0-.3,0-.45,0-.31,0-.47,0-.33,0-.5Q49.6,26.17,49.52,25.25ZM34.07,21.59h0ZM6.9,30.28h0Zm30.53,3c0-.05,0-.11,0-.16v0l0,0H37.3l0,0a.08.08,0,0,0,0,.08s0,.08.05.11a0,0,0,0,0,0,0h0c0,.09,0,.13-.11.17a.09.09,0,0,1-.12,0c0-.11-.17-.07-.23-.14s-.09,0-.11-.07h0l-.06-.06,0-.06h0a.27.27,0,0,1,0-.22l0-.07a.06.06,0,0,0,0-.1l-.06-.06h-.26a.7.7,0,0,1-.3-.05,0,0,0,0,0,0,0s0,0-.07.06,0,0,0,0l0,0a.07.07,0,0,0,0,0,.09.09,0,0,1-.12,0h0a.12.12,0,0,1,0-.14l0-.09s0,0,0,0,0-.09.05-.13h0a.19.19,0,0,1,.08,0h0a1.68,1.68,0,0,0,.23-.11h0s.08-.07.13,0c.32.2.49,0,.71-.1l0,0c0-.11.07-.21,0-.32a.08.08,0,0,1,.12,0s0,.06,0,.09a.12.12,0,0,1,0,.17.13.13,0,0,1,.09.09s.09.08.1.13a0,0,0,0,0,0,0s0,.1,0,.15,0,.11,0,.16a2,2,0,0,1,0,.09.11.11,0,0,1,0,.07v.08s0,.07,0,.09l-.07.06h0v0h-.06C37.51,33.16,37.53,33.24,37.43,33.27ZM36.52,35l.07,0a.35.35,0,0,1,.13-.08h0a.14.14,0,0,1,.18,0s0,.07,0,.1h0s0,.06-.07.09h0c-.06,0-.09.09-.15.11s0,.08-.1.09h0c-.06,0-.14,0-.2,0h-.05a.09.09,0,0,1-.12,0h-.05l-.07,0h0a.59.59,0,0,0-.37-.07l-.15,0a.15.15,0,0,0-.1,0h-.1a.1.1,0,0,1-.12,0h0s-.09,0-.14,0h0s0,.06-.08.08,0,.07-.07.09v0a.12.12,0,0,1,0,.12l0,0h0s.08,0,.1.07h0c.06,0,0,.1,0,.14l.05,0a.05.05,0,0,0,.06,0s0-.07.08-.08a.11.11,0,0,1,.06,0,.15.15,0,0,1,.18,0h.12v0c.17,0,.33,0,.49,0l0,.11,0,0,0,.11a.14.14,0,0,0,0,0c0,.06,0,.11-.08.08l-.19-.06,0,0a.11.11,0,0,1,0,0h0l-.06,0h0l-.07,0h0s-.09,0-.13,0h0a.15.15,0,0,1-.07,0c-.09.07,0,.14,0,.21h0s0,.07,0,.11h0a.1.1,0,0,1,0,.07h0a0,0,0,0,0,0,0c.05.1-.08.2,0,.3s0,0,0,0a.05.05,0,0,0,.06,0,.07.07,0,0,1,.06,0,.09.09,0,0,1,.06.07s0,0,0,0-.05,0,0,.07l0,.11a.12.12,0,0,1-.06,0s0,0,0,0v0h0c0,.07,0,.11-.09.13s0,0,0,0-.13,0-.17-.05-.12-.21-.06-.26c-.19,0-.26,0-.26-.1a.69.69,0,0,1,0-.13s0-.08,0-.11L35,36.46l0-.06a.13.13,0,0,1,0-.18s.07-.09,0-.15l-.06,0c-.06,0-.17,0-.15.14s0,.06,0,.09,0,.09,0,.13,0,.28-.12.39,0,0,0,0,0,0,0,.06h0c.06.19-.14.07-.2.11a.13.13,0,0,1-.16,0s0-.08,0-.11,0,0,0,0,0-.07.06-.1a0,0,0,0,0,0,0c.05,0,0-.11.08-.15a.21.21,0,0,0,0-.15c-.07,0,.07-.16-.1-.17a.08.08,0,0,1-.11,0c-.07-.09,0-.18,0-.26v0a.11.11,0,0,1,.07-.05l.07,0c.05,0,0-.11.08-.14h0c.08-.08,0-.21.1-.28h0s0-.07.08-.09h0a0,0,0,0,1,0,0h0c.11-.12,0-.31.19-.42s0-.06.08-.08.06-.08.13,0h0a.06.06,0,0,0,.06,0l.06,0a0,0,0,0,0,0,0,.14.14,0,0,1,.07-.05l.1,0s.09,0,.12.06.13,0,.18.07l.16,0c.12.07.26,0,.38.1a.07.07,0,0,0,.05,0,.14.14,0,0,0,.13,0s.06,0,.1,0Zm-2.44,3s0,0-.08.05h-.07a.47.47,0,0,1-.16,0h-.23l-.22,0-.15,0,0,0a.15.15,0,0,1,0,0c0-.07-.18-.05-.26-.05a.45.45,0,0,1,0-.1s0-.07,0-.08a.21.21,0,0,1,.17,0c.05,0,.08.05.14.07h.1l0,0s0,0,.06,0a.3.3,0,0,1,0-.12.75.75,0,0,1,.14,0c.07,0,0,0,.11,0a1.25,1.25,0,0,1,.18.1l.21.1h0Zm-1.28-4.78h.06a2.62,2.62,0,0,0,.68-.35s0-.07.06-.1h0s0-.06.08-.07,0,0,.07,0,0-.12.09-.13,0,0,0,0h0c.05.05.13,0,.18,0h0c.06,0,.07.11.12.15h0c.08.09.09.21.21.28s.13,0,.16.08a.1.1,0,0,1,.06.05l.06,0,.1,0c.05.15.05.15-.19.16,0,0-.09,0-.06.1s0,.13-.13.08,0,0,0,0h0c-.1.11-.25.22-.19.39,0,0,0,0,0,0a.14.14,0,0,1,0,.08s0,0,0,0l0,.06a.09.09,0,0,1,0,.14c-.06.09.06.11.09.17a.15.15,0,0,1,.06.05h0l.06.05.05.06h0s.11.09,0,.15-.29-.05-.43,0,0,.07-.07.09,0,.23-.06.34,0,.07-.07.09-.09,0-.12,0h0s0,.07-.1.07h0l-.07,0c-.2.09,0,.27-.12.38a.15.15,0,0,1-.06,0,0,0,0,0,0,0,0c-.09.07,0,.17,0,.25s0,.1-.08.13-.08,0-.11,0a0,0,0,0,0,0,0c0-.06-.09,0-.14,0a0,0,0,0,0,0,0s-.09,0-.13,0-.09,0-.12,0-.13,0-.12-.07,0-.06,0-.1l0-.06h0l-.06,0h-.06a.15.15,0,0,1-.18,0s-.09,0-.11-.06a.11.11,0,0,0-.13,0l-.07,0c-.12,0-.24,0-.35,0s0-.18-.11-.22h-.06s-.09,0-.13,0h0c-.07,0-.17,0-.24-.08s0-.23,0-.34,0,0,0-.07h0a.14.14,0,0,1,.06-.06.37.37,0,0,0,0-.05S31,35,30.9,35s-.08,0-.11,0a.59.59,0,0,0,0-.07s0,0-.06-.08a.09.09,0,0,1,0,0,0,0,0,0,0,0-.06h0l0-.07s0,0,0,0,0,0,0,0h0s.06-.09,0-.14h0l0-.06a.05.05,0,0,0,0,0,.1.1,0,0,1,0-.14.45.45,0,0,0,0-.08.4.4,0,0,1,.14-.18h0a.2.2,0,0,1,.13-.08h0c.13,0,.08.11.16.12h0l0,0s.09-.07.16,0h0a.15.15,0,0,1,.06.05.1.1,0,0,0,.12,0c.06,0,0-.1.08-.14s0-.06,0-.09.06-.19.23-.17h.1c.06,0,.14,0,.2,0a.05.05,0,0,0,.05,0s.09,0,.13,0h0l.06,0h0s0-.06.08-.08a1.13,1.13,0,0,1,.21-.17s0-.11.08-.13A0,0,0,0,1,32.81,33.18Zm4.6-1.65c0,.09-.06.06-.11.06s-.15,0-.1.11h0s0,.07,0,.11l-.08.12a.86.86,0,0,1-.25-.59c.1,0,.05.08.11.09s.05-.13,0-.19-.13-.11-.11-.21a1.11,1.11,0,0,1,.38,0h0c.13.11,0,.24.08.36a.17.17,0,0,1,0,.08A0,0,0,0,0,37.4,31.53Zm-1.32.29c.06-.06.17-.08.21-.16a.16.16,0,0,1-.17-.09h-.06l-.07,0c-.16-.06-.06-.13,0-.2l0-.2,0-.06s0-.07,0-.09,0,0,.05,0l.06,0,.05,0a.26.26,0,0,1,.07.06c.06.06.19,0,.25.09a.18.18,0,0,1,0,.18l.11,0h0l0,0,0,0h.06l0-.08a.27.27,0,0,1-.08.37c-.1.08-.1.21-.22.27s-.07.08-.14.06h0s0-.07-.05-.1l0,0a.12.12,0,0,1-.07-.06s0-.08-.05-.11A0,0,0,0,0,36.08,31.82Zm-1.91.06s0-.07.09-.08a.14.14,0,0,1,.07,0h.05l.06,0h0s0-.06.08-.08h0l.07,0s0-.07.08-.09l.07,0a.42.42,0,0,1,.14-.08l0,0h0l0,0a.07.07,0,0,1,0-.1.08.08,0,0,0,0,0s0,0,0,0a.08.08,0,0,1,0,0h0a.1.1,0,0,1,0,0H35v0h0a.18.18,0,0,1,0,.13.15.15,0,0,0,0,0h0v0h0c0,.08,0,.11-.09.14h0l-.06,0a0,0,0,0,0,0,0c-.08,0-.18,0-.2.13s0,.07-.08.09l-.06,0a.42.42,0,0,0-.14.08l-.07,0-.07,0-.07,0h0a.09.09,0,0,1-.11,0,.06.06,0,0,1,0-.1l.06,0Zm-1.72,1.6h0Zm-2.74,3s0,.08.11.09l.22,0a.15.15,0,0,1,.13.07s0,.09.08.13a.47.47,0,0,0,.18,0,4,4,0,0,0,.4.06c.08,0,.09,0,.13-.08s0,0,.06,0,0,0,0,.06.06.06.13.08l.17,0h0c.07,0,.12.06.2.09A1.86,1.86,0,0,0,32,37c.05,0,.18,0,.2.06s0,.06-.07.08,0,.06-.07.07-.2-.06-.22,0,.15.07.2.08a.47.47,0,0,1,.26.06s0,.07.07.1a.42.42,0,0,0,.16.07c.07,0,.2.06.2.12a.36.36,0,0,1,0,.09s-.06,0-.11,0h-.12l-.07,0a.52.52,0,0,0-.24,0,.37.37,0,0,1-.24-.08s-.07-.07-.13-.08l-.14,0a.67.67,0,0,1-.23-.06.63.63,0,0,0-.15-.07h-.14c-.06,0-.09,0-.15,0a.53.53,0,0,1-.17-.07l-.09-.06-.11-.07a.47.47,0,0,0-.15,0,.56.56,0,0,0-.22,0,.41.41,0,0,1-.18,0c-.12,0-.2-.09-.32-.1a.87.87,0,0,1-.33-.06c-.08,0-.09-.11-.14-.17s-.18-.08-.26-.12-.09,0-.09-.06,0-.06.07-.07l.12,0s0,0,0-.06.09,0,.13-.05,0,0,0-.06a.08.08,0,0,1,.07,0s0,0,0,0h0s0,0,.08,0h.11S29.68,36.46,29.71,36.47ZM45.16,15.9h0ZM37.8,24h0l.08,0h0l.08,0a.06.06,0,0,0,0-.1h0s0,0,0,0h0c.07,0,.16,0,.21-.06l.07,0,.07,0h0c.07,0,0-.1.09-.13a.87.87,0,0,1,.34,0,.72.72,0,0,0,.26,0,.44.44,0,0,1,.33.05h0c.07,0,.15.08.15,0h0a.08.08,0,0,1,0-.14l.06,0s0,0,0,0l0,0v-.05l-.05-.07a.1.1,0,0,0,0,0c0-.08,0-.1.1-.13h0a.1.1,0,0,1,.13,0,.4.4,0,0,0,0,.09s0,.07,0,.11a.88.88,0,0,0,.32,0l.07,0,0,0s0-.07,0-.09l.07,0a.11.11,0,0,0,0-.15,0,0,0,0,0,0,0,.07.07,0,0,0,0-.1c-.06-.07,0-.14,0-.2s-.2-.16-.16-.28l-.06-.06h0a.09.09,0,0,1,0-.15h0s0,0,0,0v0a0,0,0,0,1,0,0s0,0,0,0,.05-.09.12-.12h-.08l-.07,0a.18.18,0,0,1-.22-.09.16.16,0,0,1,0,0,.27.27,0,0,0-.11-.12s0,0,0,0h0c-.12-.07-.13-.15,0-.22s0-.1.06-.14l.07,0c.18-.07.1-.19.09-.3a.06.06,0,0,0,0,0s0-.07,0-.11l-.06-.06-.06-.06c-.06,0-.12-.1-.06-.14s.19,0,.28.08l.25.2.11.08a3,3,0,0,0,.62.33.27.27,0,0,0,.27,0c.07,0,0,.16.14.14l.06-.18h.06c.06,0,.1,0,.12,0s0,0-.07.06a.26.26,0,0,1-.08.11h0c0,.09.19.19,0,.25s-.23,0-.34,0,0,.07-.09.09-.05.06,0,.1,0,.1-.08.08-.22-.09-.32-.16-.09,0-.12-.07h0l-.1,0h0a.29.29,0,0,0-.16,0,.16.16,0,0,1-.11,0,.26.26,0,0,1,.09.09l.07.06h.06l0,.09.06,0,0,0,0,0h.07l.06.06V22l.06.06s0,0,0,0h0l.22.2.06.06a2.1,2.1,0,0,1,.16.23s0,.08.05.11a.07.07,0,0,0,0,0c.06.09,0,.17,0,.25h0c.06.09-.11.09-.11.15v0l.06.06h0s0,.08.05.11,0,.08,0,.11,0,.07,0,.09a0,0,0,0,0,0,0s0,0,0,0a0,0,0,0,0,0,0s0,.07,0,.11.21.16.09.26,0,0,0,0,0,0,0,0,0,.07,0,.09h0l-.07,0c-.11,0-.28-.12-.35,0a2,2,0,0,0-.47,0,.48.48,0,0,1-.23-.07c0,.11-.19.19-.22.31a.2.2,0,0,1-.19,0,1.74,1.74,0,0,1-.18-.14c-.12,0,0-.16-.17-.17h0c0,.07,0,.14,0,.21s-.11.09-.21,0a.13.13,0,0,0-.14,0,.12.12,0,0,0-.08.09v0s-.06,0-.13,0l-.06-.06,0-.08a.49.49,0,0,1-.1.11c0,.08,0,.16,0,.24s0,.3-.29.2h0s-.09,0-.12-.07a1,1,0,0,0-.1-.22c0-.12-.12-.2-.23-.29h0l-.06-.06s0-.07-.05-.1S37.68,24,37.8,24ZM27,32.88l.17.13a.51.51,0,0,1,.16.13,1.86,1.86,0,0,1,.12.16.67.67,0,0,1,.05.09s0,.07,0,.09.08.07.13.09l.14.08.13,0,.14.08.29.18.08.07.12.14a.2.2,0,0,1,0,.18.8.8,0,0,0,0,.09.34.34,0,0,0,0,.11c0,.06.13.09.18.12s.06.15.08.22a.49.49,0,0,0,.25.26c.14.07.39.13.4.3a.27.27,0,0,1,0,.11s0,0-.06,0,0,0,0,.06l0,0s0,.09,0,.13,0,.27-.08.4a.29.29,0,0,1-.23.13H29l-.09,0a.24.24,0,0,1-.13,0l-.07,0s0,0-.05-.06-.21-.11-.29-.19-.16-.29-.27-.42a.64.64,0,0,0-.14-.15.86.86,0,0,1-.14-.08.56.56,0,0,1-.13-.14l-.05-.09a.45.45,0,0,1,0-.12.69.69,0,0,0-.2-.25.32.32,0,0,1-.07-.08.52.52,0,0,1,0-.15c0-.07,0-.15,0-.22v0a.42.42,0,0,0-.09-.14s-.12-.08-.14-.13a.18.18,0,0,1,0-.1.5.5,0,0,0,0-.13.64.64,0,0,0-.14-.3.54.54,0,0,0-.28-.21.27.27,0,0,1-.18-.11.08.08,0,0,1,0,0v-.05s0-.08,0-.12,0,0,0-.07l0-.05-.06-.09a.43.43,0,0,0-.09-.1.38.38,0,0,0-.11-.06l-.23-.11a.48.48,0,0,1-.11-.09.5.5,0,0,1-.08-.09.31.31,0,0,1,0-.25s0-.08.09-.07a.27.27,0,0,1,.11.06c.06,0,.1.1.18.12s.18,0,.27,0a.7.7,0,0,1,.24.09l.06,0s0,0,0,.06a.85.85,0,0,1,.07.13.35.35,0,0,0,.12.2Zm-5-6h0Zm-2.4,4a0,0,0,0,0,0,0c0-.05,0-.12,0-.17h0s0,0,0,0,0-.11-.05-.15,0-.07,0-.09h.17a.17.17,0,0,1,.07.05l.06,0h0s0,0,0,0l0,0h0s0,.06.06.09h0l.12.15a.57.57,0,0,1,.11.2s0,.07.06.1l.06,0h0c.07.06,0,.14.06.2s0,0,0,.07,0,.12-.07.16l-.06,0-.07,0s-.09,0-.13,0h-.05l-.08,0h0a.09.09,0,0,1-.12,0,.25.25,0,0,1-.13-.1s0-.08-.05-.11a0,0,0,0,0,0,0c-.07-.08,0-.17-.05-.25a0,0,0,0,0,0,0A.43.43,0,0,1,19.65,30.84Zm14.82,7.71c-.13.12-.25.08-.35,0h0l-.05-.05h0c0-.05-.12,0-.16-.07h-.05l-.06-.06s0-.08,0-.09h0a.51.51,0,0,1,.4.07.59.59,0,0,0,.11.11h0l0,.06a.13.13,0,0,1,0,.07Zm.71-.33h-.12a0,0,0,0,1,0,0l-.08,0a.08.08,0,0,1-.09,0s0-.07-.06,0h-.07c-.06,0-.13,0-.18-.05s-.19,0-.27-.07-.15-.1,0-.17h0l.07,0a.24.24,0,0,1,.23,0h0c0,.05.13,0,.16.08h0A.33.33,0,0,0,35,38h0a.08.08,0,0,1,0,0h.1l.06,0h0l.07,0a0,0,0,0,0,0,0s.07,0,.12,0h0a1.76,1.76,0,0,0,.47.11l0,0,0,0,.21,0c0,.12-.09.08-.16.07a.05.05,0,0,1,0,0,.2.2,0,0,1-.13,0l-.12,0h0s-.06,0-.1,0h0l-.08,0h0c-.06,0-.12-.08-.19,0S35.22,38.2,35.18,38.22Zm1.78.18a.11.11,0,0,1-.07.05s-.09,0-.13,0h-.05l-.07,0c-.05,0-.13,0-.18,0s-.09,0-.13,0-.13,0-.18,0h0l-.07,0h0l0,0h0l-.06,0h0l-.06,0h0l-.06,0-.08,0h-.11l-.06,0h0a.2.2,0,0,1-.22,0s0-.06.06-.08,0-.1.08-.14h0l.09-.07.05,0h.06s.1,0,.15-.06H36s0,0,0,0h0a.15.15,0,0,0,0,0l0,0a.2.2,0,0,1,.13,0h.06c.1-.05.21,0,.32,0l.17,0c.08,0,.17,0,.22.06Zm.53-2.58v-.14c0-.06.09,0,.14,0l0,0s0-.1,0-.15a0,0,0,0,1,0,0,.16.16,0,0,1,0-.05.15.15,0,0,1-.06-.08,1.07,1.07,0,0,1,.11-.28,0,0,0,0,0,0,0s0-.07.08-.09,0-.08.1-.08h0c.16.05,0,.11,0,.17s0,.05,0,.08l0,0,0,0s.09,0,.14,0h0a.14.14,0,0,1,0,.23h0s-.06.05,0,.09.09.06.05.1l0,0s-.07,0-.12,0l0,0v0h0c-.17,0-.16.06-.17.13h0v0s0,0,0,.05l0,.06a.11.11,0,0,0,0,0l0,.05c0,.08-.06.08-.13,0h0l0,0h0v0h0a.13.13,0,0,1-.13,0l-.05,0,0,0h0l0,0ZM38.69,37l0,0a.07.07,0,0,1-.11,0L38.5,37h0s-.08,0-.1-.07l0,0a.13.13,0,0,1-.08-.07,0,0,0,0,0-.06,0h0a.19.19,0,0,1-.18,0l0,0s-.05,0-.08,0h0a.13.13,0,0,1-.17,0h0a.14.14,0,0,1,0,0h0c-.07,0-.14,0-.17,0v0h.14a.58.58,0,0,1-.13-.08.07.07,0,0,0,0,0c0-.06,0-.06.08-.08h0c.18-.12.38,0,.56,0h0s.08,0,.12.07.17,0,.22.09,0,.08.05.1h0l0,.06h0A.06.06,0,0,1,38.69,37Zm-2.3-2h0Zm0,0h0Zm0,0h0Z" transform="translate(-0.63 -2.12)"/><polygon class="cls-2" points="40.64 34.66 40.64 34.66 40.64 34.66 40.64 34.66"/><polygon class="cls-2" points="39.89 35.01 39.89 35.01 39.89 35.02 39.89 35.01"/><path class="cls-3" d="M49.6,27.09c0,.17,0,.33,0,.5s0,.31,0,.47,0,.3,0,.45,0,.15,0,.23,0,.21,0,.31,0,0,0,.07,0,.26,0,.38,0,.1,0,.16,0,.22,0,.34,0,.06,0,.1,0,.26-.06.39a.86.86,0,0,1,0,.09c0,.12,0,.24-.06.36l0,.13-.07.35,0,.11c0,.12,0,.23-.08.35s0,.08,0,.12,0,.14-.05.21l-.07.3q-.22.87-.52,1.72l-.09.24-.09.24-.14.38-.12.29-.06.15-.1.24-.1.23-.08.17-.11.24-.18.37-.12.24-.13.26-.06.11-.16.28-.17.3c-.13.22-.26.44-.4.66-.23.38-.48.75-.74,1.11l-.16.22-.15.21-.22.29-.19.25-.24.3-.06.08-.52.6q-.5.56-1,1.09l-.2.19-.19.18-.06.06A22.14,22.14,0,0,1,36,47.34l-.66.26-.24.09-.66.23-.32.1-.32.1-.32.09-.28.08-.38.1-.49.12-.41.09-.09,0-.14,0-.32.06-.08,0-.47.08a22.79,22.79,0,0,1-3.52.27h-1L26,49h-.52l-.19,0h-.06l-.41,0h0l-.25,0-.18,0h-.1l-.32,0-.11,0h0l-.39-.07h-.14l-.37-.07-.12,0-.42-.09-.28-.07-.14,0h-.1l-.23-.06-.14,0-.09,0-.25-.07-.13,0-.06,0L20.5,48,20.33,48l-.25-.08-.07,0-.11,0-.11,0-.2-.07h0l-.38-.14-.11,0-.07,0-.12,0-.11,0-.06,0-.1,0-.14-.06-.17-.07-.11,0L17.91,47l-.11,0h0l-.26-.13-.15-.08-.13-.06-.06,0L17,46.59l-.07,0-.06,0,0,0-.11-.06-.27-.15,0,0-.28-.16-.05,0L15.9,46h0l-.16-.09-.13-.08-.11-.07-.15-.09-.07,0L15,45.42l-.13-.08-.06,0-.15-.1-.07,0L14.47,45l-.17-.12-.12-.09-.07-.05-.2-.14-.2-.15-.13-.1-.19-.14-.19-.16L13.13,44,13.06,44l.15,0a22.48,22.48,0,0,0,20.73-6l.1-.1c.38-.38.74-.77,1.09-1.18l.45-.54.31-.39.25-.32.2-.27h0l.17-.25q.54-.77,1-1.59a21.77,21.77,0,0,0,2.16-5.22,21.14,21.14,0,0,0,.54-2.64c.06-.45.11-.91.15-1.37a20.75,20.75,0,0,0,0-2.34c0-.06,0-.13,0-.19s0-.07,0-.11c0-.25,0-.5,0-.75q-.07-.84-.2-1.69c0-.26-.09-.51-.14-.76a21.34,21.34,0,0,0-.79-2.92c-.06-.19-.13-.37-.2-.56q-.31-.83-.68-1.62L38.23,13h0q-.34-.72-.74-1.4h0l-.07-.13,0-.05-.1-.17v0a21.75,21.75,0,0,0-2-2.75,22,22,0,0,0-1.51-1.64q-.68-.67-1.42-1.27l.38.09.38.1.34.09.11,0,.72.22h.06l.06,0,.27.09h0l.06,0,.08,0,.24.09h.06l.16.06.16.06.38.15h0l.34.14h0l.35.15h0l.16.07.18.09.07,0,.29.14.05,0,.12.06.19.1.26.13.09,0h0l.35.2h0l.34.2,0,0,.34.21.21.13,0,0,.06,0,.09.06.28.18h0l.22.15.1.07h0l0,0,.09.06,0,0,0,0,.12.09.05,0h0l.11.08.05,0,.09.06,0,0,.26.2.44.35.23.19.31.26.17.15.19.17.06.06.24.22.17.16.11.11.23.23.28.29.57.61.25.29.25.29,0,0,.24.3.25.32.48.65.19.28.06.09L46,15l.08.13.08.12.07.12.21.33.05.08,0,.06.16.27,0,.06c.12.22.25.43.36.66l.06.12,0,.06.07.15.09.17,0,0,.06.13,0,.08.07.14.05.12,0,.06.09.2.1.22.13.31.07.17,0,.07.15.38,0,.12,0,.05.1.27.06.16,0,.11.09.27.07.21,0,.12v0l0,.09,0,.09.08.28,0,.07v0l0,.13v.05l.07.28v0l.06.26,0,.17,0,.11.05.24v.18l0,.08c0,.12,0,.24.07.36l0,.18c0,.13,0,.27.07.41v.06q.08.5.13,1a.27.27,0,0,1,0,0v.06a.26.26,0,0,1,0,0c0,.14,0,.28,0,.43Q49.6,26.17,49.6,27.09Z" transform="translate(-0.63 -2.12)"/><path class="cls-2" d="M18.82,9.08A19.8,19.8,0,0,0,7.49,30.17,19.88,19.88,0,0,1,21.71,11.24C20.72,10.56,19.78,9.8,18.82,9.08Z" transform="translate(-0.63 -2.12)"/><path class="cls-4" d="M34.72,5.84a3.85,3.85,0,0,1,4.72,1c1.23,1.44,1.12,3.3-.26,4.15a3.85,3.85,0,0,1-4.72-1c-1.23-1.44-1.12-3.3.26-4.15Z" transform="translate(-0.63 -2.12)"/><path class="cls-5" d="M39.33,11.24c-1.79,1.18-4-.44-4-.49l0,0h0s2.81,1.41,4.24,0a2.23,2.23,0,0,0,.5-.81A3.29,3.29,0,0,0,39.47,7a4.07,4.07,0,0,0-1.95-1.38,4.82,4.82,0,0,0-.92-.16h-.26a6.42,6.42,0,0,1,1.33.1A3.69,3.69,0,0,1,39.75,7a3.23,3.23,0,0,1,.7,2.75A2.77,2.77,0,0,1,39.33,11.24Z" transform="translate(-0.63 -2.12)"/><path class="cls-6" d="M39.11,11.1c-1.79,1.18-4-.44-4-.49l0,0L35,10.48a4.79,4.79,0,0,0,1.37.63,5.91,5.91,0,0,0,.83.15,4.91,4.91,0,0,0,.56,0,2.52,2.52,0,0,0,1.64-.62,2.34,2.34,0,0,0,.66-1,2.43,2.43,0,0,0,.07-1.17A2.62,2.62,0,0,0,40,8.15a2,2,0,0,0-.1-.3l-.1-.22a3.25,3.25,0,0,0-.55-.81h0l-.1-.1-.28-.26-.27-.23a4.14,4.14,0,0,0-1.25-.66,3.56,3.56,0,0,0-1.08-.14H36s.08,0,.08,0a4,4,0,0,1,3.49,1.47,3.18,3.18,0,0,1,.7,2.75A2.77,2.77,0,0,1,39.11,11.1Z" transform="translate(-0.63 -2.12)"/><path class="cls-7" d="M22.13,4.89a21.18,21.18,0,0,0-16,19.9A21.28,21.28,0,0,1,24.73,7.71C23.83,6.8,23,5.83,22.13,4.89Z" transform="translate(-0.63 -2.12)"/><path class="cls-8" d="M49.57,23.36l-.24.31q-.33.44-.7.89c-2.32,2.86-4.42,4.1-6.26,4.23a4.53,4.53,0,0,1-2.72-.63,5.57,5.57,0,0,1-1.44-1.27,9.29,9.29,0,0,1-1.72-3.49L36.37,23a14.68,14.68,0,0,1-.44-2,19.26,19.26,0,0,1-.18-4.26c0-.32,0-.63,0-1,0-.1,0-.2,0-.31,0-.62-.45-1.11-.19-1.56a1.17,1.17,0,0,1,.64-.47c.55-.19.86.34,1.41.18.35-.1.38-.34.65-.35h.12c.39.08.71.63.82.82a5,5,0,0,1,.52,1.54A24.37,24.37,0,0,1,40,18.31c0,.66.1,1.36.19,2.1,0,.09,0,.18,0,.27,0,.31.09.59.14.82l0,.12.05.22h0A2.39,2.39,0,0,0,41,23.12a.37.37,0,0,0,.16.08c.29.07.67-.09,2-1.58,1.47-1.65,1.81-2.36,3-3.75l.9-1.06.06.12,0,.06.07.15.09.17,0,0,.06.13.11.22.32-.26Z" transform="translate(-0.63 -2.12)"/><path class="cls-9" d="M15.86,6.4a22.33,22.33,0,0,0-5.7,8.24,22.1,22.1,0,0,0-1.56,9.43,22.09,22.09,0,0,1,1.45-10.74,22.37,22.37,0,0,1,2.76-5Z" transform="translate(-0.63 -2.12)"/><path class="cls-10" d="M32.06,27.16c-.05.39-.11.8-.19,1.21h0a9.4,9.4,0,0,1-2.76,5.47l0,0-.14,0-.46.13-1.24.35c-2.05.6-3.81,1.22-5.23,1.76a21.64,21.64,0,0,0-5.91,3.09c-.45.34-.8.65-1,.86a6.65,6.65,0,0,0-1,1.21,5.81,5.81,0,0,0-.62,1.28A6.26,6.26,0,0,0,13.2,44v.08L13.13,44,13.06,44h0l-.44-.37-.22-.19-.21-.19-.3-.28-.11-.1-.21-.2-.17-.17L10.93,42l-.23-.25-.22-.25L10,41h0l-.2-.25-.21-.27-.16-.21a4.67,4.67,0,0,0-.06.51l-.11-.13h0L9,40.28l-.33-.43-.17-.22h0a22.2,22.2,0,0,1-1.67-2.59c.08-.22.17-.44.28-.67h0a13.32,13.32,0,0,1,1-1.87s2.3-3.22,9.17-5.3l.18-.05s1.69-.63,3.12-1.29h0c1.06-.48,2-1,2-1.24,0,0,0-.12,0-.29a3.66,3.66,0,0,0-.24-1.85.83.83,0,0,0-.87-.46l-.5.17c-1.48.53-3.52,1.28-5.95,2.27l0,0c-1.13.46-1.48.62-1.69.72A19.36,19.36,0,0,0,8.6,30.4h0q-.7.63-1.42,1.4a18.67,18.67,0,0,0-.68,1.84h0c-.07.22-.14.45-.2.69h0c-.09.36-.18.73-.24,1.1l-.13-.29a22.12,22.12,0,0,1-1.26-3.86q.29-.43.65-.86c0-.21-.06-.42-.09-.63l0-.3c0-.11,0-.22,0-.33h0q-.1-1-.11-2a9.81,9.81,0,0,0-.61.93l-.22.41v0c0-.35-.06-.69-.08-1h0c0-.12,0-.23,0-.35v0c0-.2,0-.4,0-.6h0A22,22,0,0,1,5,20.15l.4-.35a16,16,0,0,1,1.28-1l.66-.43Q8,18,8.83,17.54l.24-.13h0l.21-.11.77-.37c1-.47,2.13-.94,3.42-1.4l.83-.2c2.18-.56,7.83-2.2,7-4a1.41,1.41,0,0,0-.34-.44q-1.49.34-3.1.63-1.35.24-2.63.43l-.16.06-.29.12a.56.56,0,0,0-.44-.26A.52.52,0,0,0,14,12h0a30.06,30.06,0,0,0-3.43,1.61l-.83.47h0l-.55.32L9,14.56q-.81.49-1.67,1.07l-.73.49q-1,.67-2,1.46l.9-2.92.26-.84.06-.21a14.2,14.2,0,0,1,2.14-2.81c.31-.33.66-.67,1-1H9a20.37,20.37,0,0,1,11.52-5A26.8,26.8,0,0,1,25,4.66l.71,0A6.3,6.3,0,0,1,27.39,5h0a6.13,6.13,0,0,1,2.93,2h0a6.45,6.45,0,0,1,1.09,2.2h0A10.63,10.63,0,0,1,31.71,13a7.16,7.16,0,0,1-2.53,4,4,4,0,0,1-.44.25,8.49,8.49,0,0,1,1.17,1h0a8.63,8.63,0,0,1,1.53,2,6,6,0,0,1,.76,2.86A21.8,21.8,0,0,1,32.06,27.16Z" transform="translate(-0.63 -2.12)"/><path class="cls-11" d="M12,22.68l0,0c-2.83.89-5.69,2.37-7.22,4.8,0,0-2.3,3.92-1.66,5.85l-2,.19A11.78,11.78,0,0,1,11.3,22.79Z" transform="translate(-0.63 -2.12)"/><path class="cls-12" d="M3.6,13.13l1.59,1.16S12,7.91,21.32,9.16l0-1.55-7.34-.87Z" transform="translate(-0.63 -2.12)"/><path class="cls-13" d="M31.42,9.29h0a12.43,12.43,0,0,1-.24,2.27s-1,3-3.42,3.87A8.9,8.9,0,0,1,29.18,17a8.43,8.43,0,0,1,.73,1.23h0a6.47,6.47,0,0,1,.65,2.42,5.6,5.6,0,0,1,0,1,21.88,21.88,0,0,1-.83,4.9A12.78,12.78,0,0,1,28.15,30a7.55,7.55,0,0,1-.81,1,6.24,6.24,0,0,1-1.1.93,68.71,68.71,0,0,0-7.29,1.49,21.62,21.62,0,0,0-6.22,2.42c-.48.29-.87.56-1.13.74a6.64,6.64,0,0,0-.87.82l-.23.28a5.83,5.83,0,0,0-.76,1.21,6.21,6.21,0,0,0-.37,1.17c0,.15-.06.32-.09.49h0c0,.17,0,.34,0,.52a4.47,4.47,0,0,0,1.19,2.61h0A13,13,0,0,0,12.83,46h0a17.62,17.62,0,0,0,2.62,1.6s5.33,2.32,9,2.66v.92h0a48.62,48.62,0,0,1-13.37-3.35C8.38,46.61,6,45,4.85,42.81a9.27,9.27,0,0,1-.19-11.53q.29-.43.64-.86l.08-.1a5.36,5.36,0,0,1,.52-.48h0a11.94,11.94,0,0,1,1.41-1l.22-.13a18.67,18.67,0,0,1,2.64-1.28,26.63,26.63,0,0,1,4.74-1.35l.34-.06s5.33-1.35,5.33-2l0-.22a3.28,3.28,0,0,0-.13-2.12.87.87,0,0,0-.13-.15.84.84,0,0,0-.58-.21l-.79,0h0a32.6,32.6,0,0,0-7.07,1.32l-.66.22L11,23l-.89.34-.06,0h0l-.1,0,0,0,0,0-.05,0-.25.11h0l-.24.11-.19.09-.17.08-.28.15-.22.12h0l-.07,0-.18.1h0l-.11.07-.46.29h0l-.23.16-.09.06,0,0-.18.13-.18.13-.37.29-.17.15-.16.14,0,0L6,25.94l-.16.16q-.28.28-.52.57l-.15.19h0L5,27H5l-.07.1c-.09.13-.18.26-.27.39s-.21.37-.5.93a10.85,10.85,0,0,0-1.28,4.14c0,.06,0,.11,0,.17h0a2.67,2.67,0,0,0,0,.33H3l0,.15H3v0H3v.08h-.1l-.19,0h0l-.48.08-.91.15L1,33.7H.93S-.1,22.39,1.67,18c0,0,.6-1.58,3.81-3.32a25.86,25.86,0,0,1,4.84-2l.09,0,.07,0,.7-.2q.76-.21,1.61-.42s.61-.07,1.51-.21l.2,0,.3,0h0a27.15,27.15,0,0,0,3.81-.9,8.06,8.06,0,0,0,1.62-.71,1.61,1.61,0,0,0,.87-1,.92.92,0,0,0-.16-.65,1.71,1.71,0,0,0-.17-.22,9.79,9.79,0,0,0-4.85-.12q-.52.08-1.1.21l-1.06.26c-.45.12-.91.26-1.41.42a36,36,0,0,0-4.4,1.79c-1.31.63-2.72,1.39-4.24,2.3l0-.06L5.36,9.31s6.39-9.4,20.78-6.7a6.52,6.52,0,0,1,4.18,2.63h0A6.11,6.11,0,0,1,31.13,7,8.12,8.12,0,0,1,31.42,9.29Z" transform="translate(-0.63 -2.12)"/><path class="cls-14" d="M10.3,37.7C9.94,38,7.43,40,7.59,42.87c.17,3.07,3.29,4.87,4.31,5.45a21.44,21.44,0,0,0,4.31,1.55c2,.59,3.48.91,4,1a41,41,0,0,0,4.25.61l0-.84a33.89,33.89,0,0,1-6.11-1.44,24.74,24.74,0,0,1-5.43-2.52,9.91,9.91,0,0,1-3.11-2.83,5.12,5.12,0,0,1-.76-1.43C8.42,40.36,9.87,38.29,10.3,37.7Z" transform="translate(-0.63 -2.12)"/><path class="cls-15" d="M24.47,50.26v.92h0c-1-.13-2.3-.33-3.72-.63-2-.42-3.52-.86-4-1A21.31,21.31,0,0,1,12.38,48c-1-.58-4.14-2.38-4.31-5.45a5.13,5.13,0,0,1,.62-2.68c.07-.13.14-.26.22-.39a8,8,0,0,1,1.2-1.5,7.7,7.7,0,0,1,.68-.6l-.06.09a7.1,7.1,0,0,0-1.27,2.77,4.68,4.68,0,0,0-.07.51,3.75,3.75,0,0,0,.15,1.38,5.15,5.15,0,0,0,.76,1.43l.13.19A9.33,9.33,0,0,0,12.83,46l.58.38a25,25,0,0,0,5.43,2.52A33.9,33.9,0,0,0,24.47,50.26Z" transform="translate(-0.63 -2.12)"/><path class="cls-16" d="M20.52,21.72h0c-.36,0-.95,0-1.68,0a26,26,0,0,0-5.82.71,23.21,23.21,0,0,0-2.91,1H10l-.1,0,0,0,0,0-.05,0-.25.11h0c-.38.17-.74.33-1.1.53l-.31.17-.4.25-.15.1-.23.16-.09.07,0,0A10.71,10.71,0,0,0,5,27.14H5a9.82,9.82,0,0,0-.61.93l-.22.41a10.8,10.8,0,0,0-.94,2.59A11.15,11.15,0,0,0,3,33.25H3v0H3v.07H2.94l-.19,0h0a4.4,4.4,0,0,0-.48.08l-.91.15L1,33.7H1l0-.12v-.09a16.37,16.37,0,0,1,3-6.41q.37-.47.8-.92l0,0L5,26l0,0,.41-.4q.42-.39.89-.76A13.21,13.21,0,0,1,7.48,24l.38-.24.08,0,.61-.34,0,0,.17-.09a19.09,19.09,0,0,1,2.16-.92,19.71,19.71,0,0,1,8.19-1.11c.47,0,.89.08,1.25.13l.1.19,0,.05S20.5,21.69,20.52,21.72Z" transform="translate(-0.63 -2.12)"/><path class="cls-17" d="M20.46,21.58l-.16,0a18.73,18.73,0,0,0-9,.84,15.33,15.33,0,0,0-5.08,2.82,15.21,15.21,0,0,0-4.83,8.44l-.29,0-.1,0a16.23,16.23,0,0,1,2-5.06,15.58,15.58,0,0,1,1.38-1.92c.1-.12.28-.33.55-.6l0,0c.13-.13.64-.64,1-1a14.55,14.55,0,0,1,3.5-2.22c.17-.08.67-.3,1.46-.59a20.24,20.24,0,0,1,2.63-.77,19.39,19.39,0,0,1,3.65-.43,19.69,19.69,0,0,1,3.16.18l0,.06,0,.06Z" transform="translate(-0.63 -2.12)"/><path class="cls-18" d="M51.88,28.57l-1.32.05s.12-4.54-1.81-3.1l1.89-2.23Z" transform="translate(-0.63 -2.12)"/><path class="cls-19" d="M51.88,28.57s-.41-5.28-1.6-4.39A2.53,2.53,0,0,0,49,25.33s1.49-2,1.79-.14c0,0,.58,3.17,1,3.38Z" transform="translate(-0.63 -2.12)"/><path class="cls-20" d="M52.07,25.61c0,.15,0,.31,0,.46s0,.47,0,.71,0,.41,0,.61,0,.23,0,.35,0,.15,0,.23V28c0,.17,0,.35-.06.52h0a17.11,17.11,0,0,1-.67-2.08c-.37-1.45-.35-2.17-.73-2.28a.32.32,0,0,0-.18,0,.9.9,0,0,0-.33.17,4,4,0,0,0-.48.44l-.38.42-.16.19-.18.21L47.62,27l-.43.58-.57.74c-.26.34-.52.67-.79,1l-.29.35-.48.55c-2.25,2.46-4.21,3.48-5.88,3.5a4.19,4.19,0,0,1-1.69-.31l-.19-.08a4.14,4.14,0,0,1-.66-.39l-.26-.21-.3-.28a5.55,5.55,0,0,1-.56-.66,8.2,8.2,0,0,1-1.37-3.08c0-.2-.08-.38-.11-.53-.08-.45-.16-.92-.24-1.42A30,30,0,0,1,33.42,22c0-.17,0-.35,0-.53s0-.39,0-.57c0-.38.06-.71.07-.85s0-.45.06-.66c.12-1.26.25-2.29.36-3h0l0-.1a11.5,11.5,0,0,1,1-2.85,2.82,2.82,0,0,1,.47-.51l.19-.13a1.46,1.46,0,0,1,.56-.19,2.16,2.16,0,0,1,1.38.07,2,2,0,0,1,.65.44h0l.16.18c.08.09.14.18.18.25a2.59,2.59,0,0,1,.32.64,2,2,0,0,1,.1.73c0,.16,0,.33,0,.53l0,.53c0,.45-.05.9-.08,1.35,0,.63-.07,1.2-.09,1.85,0,1,0,1.66,0,2.2,0,.1,0,.77,0,1.67,0,.2,0,.38,0,.53a3.62,3.62,0,0,0,.17.93l0,.1c.28.75.62.91.74,1a1,1,0,0,0,.34.06h.13a2.78,2.78,0,0,0,1.53-1,10.79,10.79,0,0,0,1.07-1.21,27.73,27.73,0,0,1,4.7-5.58h0l.32-.26A8.8,8.8,0,0,1,50,16.19a22.05,22.05,0,0,1,1.79,5.73c0,.1,0,.2,0,.3l0,.27c0,.15,0,.3.06.45s0,.41.06.62Q52.07,24.58,52.07,25.61Z" transform="translate(-0.63 -2.12)"/><path class="cls-21" d="M64.5,24.83l.09,0a19.29,19.29,0,0,1,2.55-2.29,8.56,8.56,0,0,1,2.1-1.09,7.14,7.14,0,0,1,2.37-.38,6.79,6.79,0,0,1,4,1.18,7.44,7.44,0,0,1,2.58,3.53,16.11,16.11,0,0,1,.91,5.77A14.59,14.59,0,0,1,78,37.52a7.8,7.8,0,0,1-3.19,3.67,9.66,9.66,0,0,1-5,1.24,15.19,15.19,0,0,1-3-.29,13.46,13.46,0,0,1-3-1l-1.53,1.32-1.51-.35V18.61q0-2.07,0-2.89a7.07,7.07,0,0,0-.17-1.39,2.41,2.41,0,0,0-.39-.9,1.77,1.77,0,0,0-.68-.52,7.19,7.19,0,0,0-1.54-.39V11.4l5.29-.22H64.5Zm0,9.48A18,18,0,0,0,64.65,37a4.9,4.9,0,0,0,.51,1.63,4.18,4.18,0,0,0,2.59,1.93,8.15,8.15,0,0,0,1.9.2,4.42,4.42,0,0,0,4-2.12Q75,36.49,75,32.26a13.2,13.2,0,0,0-1.23-6.42A4,4,0,0,0,70,23.69a5.32,5.32,0,0,0-2.12.38,6.22,6.22,0,0,0-1.74,1.18,6,6,0,0,0-1.27,1.58,3.78,3.78,0,0,0-.4,1.77Z" transform="translate(-0.63 -2.12)"/><path class="cls-21" d="M83.49,41a7.27,7.27,0,0,0,1.21-.45,1.82,1.82,0,0,0,.61-.54A2.75,2.75,0,0,0,85.71,39a12.54,12.54,0,0,0,.14-2.22V27.34q0-1.38,0-2.22a3.34,3.34,0,0,0-.31-1.35,1.66,1.66,0,0,0-.8-.76,6.42,6.42,0,0,0-1.52-.42V21.44l5.09-.19h1.33V36.69a12.73,12.73,0,0,0,.17,2.58,1.89,1.89,0,0,0,.67,1.1,4.53,4.53,0,0,0,1.61.66v1.06H83.49Zm6.25-28v4.19h-4V13Z" transform="translate(-0.63 -2.12)"/><path class="cls-21" d="M101.77,24.83l.09,0a21.15,21.15,0,0,1,2.7-2.39,8.57,8.57,0,0,1,2-1,6.2,6.2,0,0,1,2.09-.35,7.5,7.5,0,0,1,2.14.28,4.79,4.79,0,0,1,1.65.85,4.56,4.56,0,0,1,1.16,1.4,6.86,6.86,0,0,1,.67,2,16.24,16.24,0,0,1,.22,2.93v8.14a13,13,0,0,0,.16,2.56,2,2,0,0,0,.59,1.06,4.58,4.58,0,0,0,1.72.72v1.06h-8.61V41a7.77,7.77,0,0,0,1.22-.45,1.79,1.79,0,0,0,.62-.54,2.76,2.76,0,0,0,.39-1.07,12.41,12.41,0,0,0,.14-2.19V31.12a24.71,24.71,0,0,0-.29-4.39,3.91,3.91,0,0,0-1.16-2.28,3.55,3.55,0,0,0-2.41-.76,3.93,3.93,0,0,0-1.57.3,6.86,6.86,0,0,0-1.62,1.08,6.13,6.13,0,0,0-1.39,1.6,3.47,3.47,0,0,0-.47,1.75v8.27a19.64,19.64,0,0,0,.08,2.09,3.08,3.08,0,0,0,.29,1,1.75,1.75,0,0,0,.67.69,5.37,5.37,0,0,0,1.39.51v1.06H95.55V41a6.28,6.28,0,0,0,1.38-.5,1.78,1.78,0,0,0,.64-.6,2.88,2.88,0,0,0,.34-1.06A15.53,15.53,0,0,0,98,36.69V18.61q0-2.07,0-2.89a7.07,7.07,0,0,0-.17-1.39,2.41,2.41,0,0,0-.39-.9,1.77,1.77,0,0,0-.68-.52,7.19,7.19,0,0,0-1.54-.39V11.4l5.27-.22h1.31Z" transform="translate(-0.63 -2.12)"/><path class="cls-21" d="M133.24,39l-.33-.09a13.32,13.32,0,0,1-3.57,2.72,8.14,8.14,0,0,1-3.55.8,6.43,6.43,0,0,1-2.93-.64A4.57,4.57,0,0,1,120.91,40a5.17,5.17,0,0,1-.68-2.67,5.33,5.33,0,0,1,3.16-4.87q3.16-1.72,9.47-2v-1.4a11.48,11.48,0,0,0-.44-3.54,3.49,3.49,0,0,0-1.38-1.9,4.6,4.6,0,0,0-2.51-.6,4.08,4.08,0,0,0-2.74.89,5.41,5.41,0,0,0-1.56,2.66h-2.86V23.75a31.29,31.29,0,0,1,3.5-1.59,20.45,20.45,0,0,1,2.8-.8,13.94,13.94,0,0,1,2.84-.29,7.58,7.58,0,0,1,3.47.68,4.34,4.34,0,0,1,2,2.08,10.46,10.46,0,0,1,.66,4.23v7.51q0,1.6,0,2.26a7.6,7.6,0,0,0,.13,1.22,2.52,2.52,0,0,0,.33.9,1.78,1.78,0,0,0,.64.57,6.56,6.56,0,0,0,1.39.5v1.06h-6Zm-.37-6.76a15.55,15.55,0,0,0-6.64,1.17A3.61,3.61,0,0,0,124,36.8a3.31,3.31,0,0,0,.5,1.94,2.57,2.57,0,0,0,1.27,1,5.44,5.44,0,0,0,1.81.27,5.23,5.23,0,0,0,2.7-.71,5.35,5.35,0,0,0,1.89-1.81,4.15,4.15,0,0,0,.68-2.18Z" transform="translate(-0.63 -2.12)"/><path class="cls-21" d="M148.36,24.77l.31.09a26.54,26.54,0,0,1,2.15-2,10.08,10.08,0,0,1,1.63-1.06,7.16,7.16,0,0,1,1.47-.57,5.78,5.78,0,0,1,1.41-.17,6,6,0,0,1,3.56,1,5.16,5.16,0,0,1,1.9,3,28.92,28.92,0,0,1,2.65-2.42,8.7,8.7,0,0,1,2.08-1.2,6.11,6.11,0,0,1,2.28-.42,6.8,6.8,0,0,1,2.52.42,4.42,4.42,0,0,1,1.79,1.3A5.49,5.49,0,0,1,173.19,25a14.79,14.79,0,0,1,.34,3.54v8.14a15.44,15.44,0,0,0,.11,2.27,2.87,2.87,0,0,0,.32,1,1.75,1.75,0,0,0,.62.59A5.87,5.87,0,0,0,176,41v1.06h-8.59V41a7.78,7.78,0,0,0,1.22-.45,1.79,1.79,0,0,0,.62-.54,2.75,2.75,0,0,0,.39-1.07,12.4,12.4,0,0,0,.14-2.19V31.12q0-1.83-.1-3a10,10,0,0,0-.31-1.91,3.35,3.35,0,0,0-1.17-1.84,2.85,2.85,0,0,0-.87-.48,4.22,4.22,0,0,0-1.33-.17,3.87,3.87,0,0,0-1.63.35,6.5,6.5,0,0,0-1.64,1.17,5.55,5.55,0,0,0-1.28,1.65,4.53,4.53,0,0,0-.39,2v7.88a15.44,15.44,0,0,0,.11,2.27,2.87,2.87,0,0,0,.32,1,1.75,1.75,0,0,0,.62.59,5.87,5.87,0,0,0,1.4.51v1.06h-8.59V41a7.78,7.78,0,0,0,1.22-.45,1.79,1.79,0,0,0,.62-.54,2.75,2.75,0,0,0,.39-1.07,12.4,12.4,0,0,0,.14-2.19V31.12q0-1.92-.11-3.13a9.68,9.68,0,0,0-.34-1.94,3.65,3.65,0,0,0-.59-1.19,3.1,3.1,0,0,0-.73-.69,2.81,2.81,0,0,0-.87-.36,4.94,4.94,0,0,0-1.14-.12,3.66,3.66,0,0,0-1.68.4,7.29,7.29,0,0,0-1.61,1.16A5.63,5.63,0,0,0,149,26.82a3.87,3.87,0,0,0-.42,1.77v8.1q0,1.23.07,1.88a4.06,4.06,0,0,0,.21,1,1.75,1.75,0,0,0,.36.59,2.34,2.34,0,0,0,.62.43A6.57,6.57,0,0,0,151,41v1.06h-8.56V41a7.38,7.38,0,0,0,1.19-.45,1.92,1.92,0,0,0,.62-.54,2.53,2.53,0,0,0,.39-1.06,13.54,13.54,0,0,0,.13-2.22V27.34q0-1.38,0-2.22a3.34,3.34,0,0,0-.31-1.35,1.66,1.66,0,0,0-.8-.76,6.41,6.41,0,0,0-1.52-.42V21.44l5.11-.19h1.33Z" transform="translate(-0.63 -2.12)"/><path class="cls-21" d="M192.31,39l-.33-.09a13.32,13.32,0,0,1-3.57,2.72,8.14,8.14,0,0,1-3.55.8,6.43,6.43,0,0,1-2.93-.64A4.57,4.57,0,0,1,180,40a5.17,5.17,0,0,1-.68-2.67,5.33,5.33,0,0,1,3.16-4.87q3.16-1.72,9.47-2v-1.4a11.48,11.48,0,0,0-.44-3.54,3.49,3.49,0,0,0-1.38-1.9,4.6,4.6,0,0,0-2.51-.6,4.08,4.08,0,0,0-2.74.89,5.41,5.41,0,0,0-1.56,2.66h-2.86V23.75a31.29,31.29,0,0,1,3.5-1.59,20.45,20.45,0,0,1,2.8-.8,13.94,13.94,0,0,1,2.84-.29,7.58,7.58,0,0,1,3.47.68,4.34,4.34,0,0,1,2,2.08,10.46,10.46,0,0,1,.66,4.23v7.51q0,1.6,0,2.26a7.6,7.6,0,0,0,.13,1.22,2.52,2.52,0,0,0,.33.9,1.78,1.78,0,0,0,.64.57,6.56,6.56,0,0,0,1.39.5v1.06h-6Zm-.37-6.76a15.55,15.55,0,0,0-6.64,1.17,3.61,3.61,0,0,0-2.21,3.39,3.31,3.31,0,0,0,.5,1.94,2.57,2.57,0,0,0,1.27,1,5.44,5.44,0,0,0,1.81.27,5.23,5.23,0,0,0,2.7-.71,5.35,5.35,0,0,0,1.89-1.81,4.15,4.15,0,0,0,.68-2.18Z" transform="translate(-0.63 -2.12)"/></svg>