<?xml version="1.0" encoding="utf-8"?>
<!-- Generator: Adobe Illustrator 22.0.0, SVG Export Plug-In . SVG Version: 6.00 Build 0)  -->
<svg version="1.1" id="Layer_1" xmlns="http://www.w3.org/2000/svg" xmlns:xlink="http://www.w3.org/1999/xlink" x="0px" y="0px"
	 viewBox="0 0 120 25" style="enable-background:new 0 0 120 25;" xml:space="preserve">
<style type="text/css">
	.st0{fill:#FFFFFF;}
	.st1{opacity:0.2;fill:#01A0A4;enable-background:new    ;}
	.st2{fill:#01A0A4;}
	.st3{fill-opacity:0;}
	.st4{opacity:0.2;fill:#FFFFFF;enable-background:new    ;}
	.st5{fill:#FF4500;}
	.st6{font-family:'AmericanTypewriter-Bold';}
	.st7{font-size:7.8554px;}
	.st8{fill:#20C997;}
	.st9{font-size:16.7582px;}
</style>
<title>lgBS</title>
<path class="st0" d="M33.8,12.4c0,0.1,0,0.2,0,0.3s0,0.2,0,0.3s0,0.2,0,0.3s0,0.1,0,0.1c0,0.1,0,0.1,0,0.2s0,0,0,0.1
	c0,0.1,0,0.2,0,0.2c0,0.1,0,0.1,0,0.1c0,0.1,0,0.1,0,0.2s0,0.1,0,0.1s0,0.2-0.1,0.2v0.1c0,0.1,0,0.1-0.1,0.2v0.1l-0.1,0.2v0.1
	c0,0.1,0,0.1-0.1,0.2c-0.1,0.1,0,0.1,0,0.1s0,0.1,0,0.1l-0.1,0.2c-0.1,0.3-0.2,0.6-0.3,0.9l0,0.1l-0.1,0.1l-0.1,0.2L33,16.7L33,16.8
	l-0.1,0.1L32.9,17l-0.1,0.1l-0.1,0.1l-0.1,0.2l-0.1,0.1l-0.1,0.2l-0.1,0.1l-0.1,0.2l-0.1,0.2c-0.1,0.1-0.2,0.2-0.2,0.4
	c-0.1,0.2-0.3,0.4-0.4,0.6l-0.1,0.1l-0.1,0.1l-0.1,0.2l-0.1,0.1l-0.1,0.2l0,0.1L31,20c-0.2,0.2-0.4,0.4-0.5,0.6l-0.1,0.1l-0.1,0.1
	l-0.1,0.1c-1,0.9-2.3,1.7-3.6,2.1l-0.4,0.2l-0.1,0.1l-0.4,0.1l-0.2,0.1l-0.2,0.1l-0.2,0.1l-0.2,0.1L25,23.5l-0.3,0.1l-0.2,0.1h-0.1
	h-0.1l-0.2,0.1h-0.1l-0.3,0.1c-0.6,0.1-1.2,0.2-1.8,0.2h-0.5h-0.2h-0.3H21H21h-0.2l0,0h-0.1h-0.1h-0.1h-0.2h-0.1l0,0l-0.2-0.1H20
	l-0.2-0.1h-0.1l-0.2-0.1l-0.2-0.1h-0.1h-0.1l-0.2-0.1H19H19l-0.1-0.1h-0.1h-0.1l-0.3-0.3h-0.1l-0.1-0.1h-0.1h-0.1h-0.1l-0.1,0l0,0
	l-0.2-0.1h-0.1h-0.1h-0.1h-0.1l0,0h-0.1h-0.1l-0.1-0.1l-0.1-0.1h-0.1l-0.2-0.3h-0.1l0,0l-0.2-0.1l-0.1-0.1l-0.1-0.1h-0.1l-0.1-0.1
	h-0.1h-0.1l0,0l-0.1-0.1l-0.2-0.1l0,0l-0.2-0.1l0,0l-0.2-0.1l0,0L16,22.1l0,0.1l-0.1-0.1l-0.1-0.1h-0.1L15.6,22l-0.1-0.1l-0.1-0.1
	l-0.1,0l0,0l-0.1-0.1l-0.1-0.1l-0.1-0.1h-0.1l-0.1-0.1L15,21.5l-0.1-0.1l-0.1-0.1l-0.1-0.1l-0.1-0.1h-0.1l0,0L14.4,21l-0.1-0.1
	l-0.1-0.1L14,20.7L14,20.6l-0.1-0.1l-0.1-0.1l-0.3-0.3L13.4,20l-0.1-0.1L13,19.7l0,0l-0.1-0.1l-0.1-0.2l-0.1-0.1l-0.1-0.1l-0.1-0.1
	L12.5,19l-0.1-0.2l-0.1-0.1v-0.1c-0.1-0.2-0.2-0.3-0.3-0.5L11.9,18l-0.1-0.1c-0.1-0.2-0.2-0.3-0.3-0.5l-0.1-0.2l-0.1-0.1l0,0v-0.1
	l-0.1-0.2l-0.1-0.2l-0.1-0.1l-0.1-0.2l-0.1-0.1L11,16.2l0,0V16L11,15.9c-0.2-0.5-0.3-1.1-0.4-1.7v-0.1v-0.1c0-0.1-0.1-0.2-0.1-0.3
	v-0.2c0-0.1,0-0.1,0-0.2l0,0c-0.1-0.4-0.1-0.7-0.1-1h-0.1v-0.1l0,0c0-0.1,0-0.3,0-0.4c0-0.1,0-0.1,0-0.2s0-0.2,0-0.3
	c0.1-1.2,0.4-2.4,0.8-3.5c0.3-0.8,0.8-1.6,1.3-2.3c0.2-0.2,0.3-0.5,0.5-0.7l0,0L13.1,5l0.2-0.2c0.3-0.3,0.5-0.5,0.7-0.8l0,0
	c0.3-0.3,0.6-0.5,0.8-0.7l0,0c0.4-0.3,0.8-0.6,1.3-0.8C16.4,2.3,16.7,2.1,17,2c0.2-0.1,0.4-0.2,0.6-0.3l0.2-0.1h0.1h0.1l0.3-0.2
	l0.4-0.1l0.2-0.1l0.3-0.1l0.2-0.1l0.2-0.1l0.1-0.1L19.7,1c0.2-0.1,0.4-0.1,0.6-0.1c0.6-0.1,1.2-0.2,1.8-0.2h0.5h0.2H23h0.2l0,0h0.1
	l0,0h0.1l0,0h0.1h0.2h0.1h0.1h0.2l0,0H24l0.2,0.1l0.2,0.1l0.2,0.1h0.1L24.7,1h0.1h0.1H25L25.2,1l0.2,0.1h0.1l0,0l0.2,0.1l0.2,0.1
	h0.1h0.1l0.1,0l0,0H26H26l0.1,0.1l0,0h0.1h0.1l0.1,0.1h0.1h0.1l0.1,0.1l0,0l0.2,0.1l0,0l0.2,0.1l0,0l0,0l0.1,0.1l0,0l0.1,0.1H27
	l0.1,0.1h0.1l0,0l0.1,0.1l0.1,0.1l0.2-0.1h0.1l0,0l0.2,0.1l0,0l0.2,0.1l0,0L28,2l0.1,0.1h0.1l0,0h0.1l0.1,0.1l0.2,0.1l0,0l0.1,0.1
	l0.1,0.1l0,0l0,0l0.1,0.1l0,0l0,0l0.1,0.1l0,0l0,0l0,0h0.1l0,0l0.1,0.1l0,0L29,2.6l0.2,0.2l0.1,0.1l0.2,0.2h0.1l0.1,0.1l0.1,0.1
	l0.1,0.1l0.1,0.1L30,3.5l0.1,0.1l0.2,0.2l0.3,0.3l0.1,0.2l0.1,0.2l0,0l0.1,0.2L31,4.7L31.2,5l0.1,0.2l0.1,0.1L31.8,6l0.1,0.1l0,0
	l0.1,0.1L32,6.2l0.1,0.2v0.1v0.1l0.1,0.2v0.1c0.1,0.1,0.1,0.2,0.2,0.4l0.1,0.1v0.1l0.1,0.1l0.1,0.1l0,0l0.1,0.1v0.1l0.1,0.1l0.1,0.1
	v0.1l0.1,0.1l0.1,0.1l0.1,0.2L32.9,8v0.1L33,8.3v0.1l0,0l0.1,0.2l0.1,0.1v0.1l0.1,0.2l0.1,0.1V9l0,0V9v0.1l0.1,0.2v0.1l0,0v0.1l0,0
	l0.1,0.2l0,0l0.1,0.2v0.1v0.1v0.1V10V10v0.1c0,0.1,0,0.1,0.1,0.2v0c0,0.1,0,0.2,0.1,0.2v0.1c0.1,0.2,0.1,0.4,0.1,0.5l0,0v0.1l0,0
	c0,0.1,0,0.2,0,0.2C33.6,11.7,33.8,12.1,33.8,12.4z"/>
<path class="st1" d="M24.1,12.9c-0.3-0.1-0.5-0.2-0.7-0.4c-0.1-0.1-0.1-0.4-0.2-0.4c-0.1-0.1-0.3,0.1-0.4,0.1
	c-0.1-0.3-0.3-0.5-0.6-0.2c0.1-0.1,0.1-0.3,0-0.4c-0.1-0.2-0.3-0.1-0.4-0.1c-0.3,0-0.4-0.2-0.6-0.5c-0.2-0.3-0.5-0.1-0.9-0.1
	c-0.4,0-0.8,0.1-1.2,0.2c-0.2,0.1-0.3,0.3-0.4,0.1c-0.1-0.2,0.1-0.3-0.2-0.4c-0.4-0.2-0.8,0.1-1.2-0.1c-0.2-0.1-0.3-0.2-0.1-0.4
	c0.1-0.2,0.2-0.3,0.3-0.5c0.1-0.2,0.2-0.4,0.3-0.5C18,9,18,8.9,18,8.7c0.5-0.3,1.2,0.1,1.3-0.7c0-0.1-0.1-0.4-0.1-0.5
	c0.1-0.1,0.4,0,0.5,0c0.4,0,0.7-0.1,1-0.2c0.3-0.2,0.6-0.2,0.9-0.2c0.3,0.1,0.4,0.3,0.5,0.6c0.2,0.3,0.4,0.5,0.6,0.6
	c0.2,0.1,0.3,0.2,0.4,0.4c0,0.2,0.1,0.3,0.2,0.5c0.2-0.2,0.5-0.1,0.7-0.2c0.2-0.1,0.1-0.5,0-0.7c-0.1-0.3-0.4-0.4-0.5-0.6
	c-0.1-0.1-0.1-0.3-0.1-0.4c0.1-0.2,0.1-0.1,0.3-0.2c0.3-0.1,0.4,0.1,0.6,0.3c0.1,0.1,0.2,0.1,0.3,0.2c0.1,0.1,0.1,0.3,0.2,0.4
	c0.1,0.1,0.4,0.3,0.5,0.5c0.1,0.2-0.1,0.3-0.1,0.5c0,0.2,0.1,0.3,0.1,0.4c0.2,0,0.4,0.3,0.5,0.3c0.1,0.1,0.3,0.1,0.4,0.2
	c0.1,0.1,0.1,0.2,0.1,0.4c0.1,0.2,0.1,0.2,0.2,0.3c0.1,0.3,0.2,0.6,0.3,0.8c0.2,0.3,0.5,0.5,0.6,0.8c0.3,0.8-0.9,1-1.5,1.2
	c-0.3,0.1-0.6,0.1-0.9,0.1C24.5,13.2,24.5,13,24.1,12.9z"/>
<path class="st2" d="M24.6,16.9L24.6,16.9L24.6,16.9z"/>
<path class="st2" d="M12.2,18.2L12.2,18.2L12.2,18.2z"/>
<path class="st2" d="M25.7,17L25.7,17L25.7,17z"/>
<path class="st2" d="M26.1,16.5L26.1,16.5L26.1,16.5z"/>
<path class="st2" d="M25.8,15.5L25.8,15.5L25.8,15.5z"/>
<path class="st2" d="M25.7,16.3L25.7,16.3L25.7,16.3z"/>
<path class="st2" d="M25.6,16.4L25.6,16.4L25.6,16.4z"/>
<path class="st2" d="M25.9,15.5L25.9,15.5L25.9,15.5z"/>
<path class="st1" d="M17.7,1.7h0.1c0.1,0,0.2,0,0.2-0.1c0.1-0.1,0.1-0.1,0.2-0.1c0.1,0,0.1-0.1,0.2-0.1c0.1,0,0.1,0,0.2,0.1l0.1,0.1
	c0.1,0,0.1,0.1,0.1,0.1h0.1c0.1,0,0.1,0,0.1,0h0.2c0.1,0,0.2,0,0.3-0.1c0.1,0,0.2,0,0.2,0h0.2l0.2,0.1l0.1,0.1L20,1.7
	c0.1,0.1,0.2,0.1,0.3,0c0.1,0,0.1-0.1,0.1-0.1h0.2c0.1,0,0.2-0.1,0.3-0.1c-0.1,0-0.1-0.1-0.1-0.2s0,0,0-0.1c0.1,0,0.1-0.1,0.1-0.1
	c0.1,0,0.2,0,0.3,0l0.2,0.1h0.2c0.2,0,0.3,0.1,0.3,0.2c0,0.1,0.1,0.1,0.1,0.1s0,0.1,0.1,0.1c0,0.1,0,0.2,0.1,0.3s0.1,0.2,0.1,0.2
	c0.1,0,0.1,0,0.1,0c0.1,0,0.1-0.1,0.2-0.1c0.1,0,0.2,0.2,0.4,0.2c0.1,0,0.2-0.1,0.3-0.1h0.2c0.1,0,0.1,0,0.2,0c0.1,0,0.1,0,0.1-0.1
	c0.1-0.1,0-0.1,0-0.1s0-0.1,0-0.2c0-0.1,0.1-0.1,0.2-0.1c0.1,0,0-0.1,0-0.1V1.7c0,0,0,0,0.1,0c0.2,0,0.3,0.1,0.4,0.1
	c0.1,0,0.2,0.1,0.3,0.1c0.1,0,0.2,0.1,0.2,0.1c0.1,0.1,0.1,0.1,0.2,0.1l0.1,0.2c0.1,0.1,0.1,0.1,0.1,0.2c0.1,0.1,0.2,0.2,0.2,0.2
	c0.1,0.1,0.3,0.1,0.4,0.1l0.2-0.1h0.2c0.1,0,0.2,0,0.3,0c0.1,0,0.2,0.1,0.2,0.1l0.2,0.1c0.1,0,0.1,0.1,0.2,0.1
	c0.1,0,0.1,0.1,0.2,0.1C26.9,3,27,3.1,27.1,3.2h0.1h0.1h0.1h0.1l0.5,0.1h-0.1c0.1-0.1,0.2-0.1,0.3-0.1c0.1,0,0.3,0,0.4,0.1
	c0.1,0,0.2,0.1,0.2,0.1c0,0.1,0.1,0.1,0.1,0.1l0.1,0.1c0.1,0,0.1,0.1,0.2,0.1h0.1V3.4V3.3l-0.1-0.1c0-0.1-0.1-0.1,0-0.1V3.1
	C25.8,0.6,21.6,0.1,17.7,1.7C17.7,1.7,17.7,1.7,17.7,1.7z"/>
<path class="st2" d="M29.3,10.4L29.3,10.4L29.3,10.4z"/>
<path class="st2" d="M30.1,17.8L30.1,17.8L30.1,17.8z"/>
<path class="st2" d="M28.6,17.1L28.6,17.1L28.6,17.1z"/>
<polygon class="st2" points="24.8,17 24.8,17 24.8,17 "/>
<path class="st1" d="M26.8,16.5L26.8,16.5z M26.8,16.5L26.8,16.5z M26.8,16.5L26.8,16.5z M33.7,11.4c0-0.1,0-0.2,0-0.2l0,0v-0.1l0,0
	c0-0.2-0.1-0.4-0.1-0.5v-0.1c0-0.1,0-0.2-0.1-0.2v-0.1c0-0.1,0-0.1-0.1-0.2V10V10V9.9l-0.1-0.1V9.7V9.6l-0.1-0.2l0,0l-0.1-0.2l0,0
	l-0.1-0.2L33.2,9V9V8.9l0,0V8.9V8.8l-0.1-0.2V8.6l-0.1-0.1l-0.1-0.2l0,0V8.2L32.9,8l-0.1-0.1l-0.1-0.2l-0.1-0.1V7.6V7.5l-0.1-0.1
	l-0.1-0.1l-0.1-0.1l0,0l-0.1-0.1l-0.1-0.1V7L32.4,7c-0.1-0.1-0.1-0.2-0.2-0.4v0l-0.1-0.2V6.4V6.4L32,6.2l-0.1-0.1l-0.1-0.1l0,0v0.1
	l0,0c0,0,0,0,0,0.1s0,0.1-0.1,0.1c0,0,0,0.1-0.1,0.1c0,0,0,0-0.1,0s0,0.1-0.1,0.1l-0.1,0.1c-0.1,0.1-0.1,0.1-0.1,0.1
	c-0.1,0-0.1,0-0.2,0c-0.1,0-0.1,0-0.1,0c-0.1,0-0.1-0.1-0.2-0.1H31c-0.1,0-0.2,0-0.2,0.1c0,0,0,0.1-0.1,0.1c-0.1,0-0.1,0-0.1-0.1
	c-0.1,0-0.1,0-0.2,0c-0.1,0,0,0.1-0.1,0.1c0,0.1,0,0.1,0,0.2c0.1,0,0.1,0.1,0.1,0.1l0.1,0.1c0.1,0,0.1,0.1,0.1,0.1c0.1,0,0,0,0,0.1
	s0,0.1,0,0.2s0,0.1,0,0.2C30.9,7.2,31,7.4,31,7.5c0,0.1,0,0.1-0.1,0.1c-0.1,0-0.1,0-0.1,0.1c0,0.1,0,0.1,0,0.1c0,0.1,0,0.1,0,0.2
	c0,0.1-0.1,0.1-0.1,0.1c0,0.1,0,0.1,0,0.1c0,0.1,0,0.1,0,0.1c0,0.1-0.1,0.2-0.2,0.2c-0.1,0-0.1-0.1-0.1-0.1c0-0.1,0-0.1-0.1-0.1
	l-0.1-0.1c0,0-0.1-0.1-0.1-0.1l-0.1-0.1l-0.2-0.2c-0.1-0.1-0.2-0.2-0.3-0.2c-0.1-0.1-0.1-0.2-0.1-0.2c0-0.1-0.1-0.2-0.1-0.2
	c-0.1-0.1-0.1-0.1-0.1-0.1C29.6,7,29.5,7,29.5,6.9s0-0.1,0.1-0.1s0.1-0.1,0.1-0.1s0.1-0.2,0.1-0.2c0-0.1,0.1-0.1,0.1-0.1
	c0.1-0.1,0.1-0.1,0.1-0.1C30,6.3,30,6.3,30,6.2c0-0.1,0-0.1,0-0.2S30,5.9,29.9,5.9c-0.1-0.1,0-0.1,0-0.1s0,0.1,0,0.2s0,0.1-0.1,0.1
	c-0.1,0-0.1,0-0.1,0l-0.1,0.1c0,0,0,0.1-0.1,0.1c-0.1,0-0.1,0-0.1,0c-0.1-0.1-0.1-0.2-0.2-0.2c-0.1,0-0.1-0.1-0.2-0.1
	c-0.1,0-0.1,0-0.1,0.1C29.1,6,29,6,29,6.1c-0.1,0.1-0.1,0.1-0.1,0.1c0,0.1,0.1,0.1,0.1,0.1c0.1,0,0.1,0.1,0.1,0.1S29.1,6.4,29,6.4
	c-0.1,0-0.2,0-0.3,0h-0.1c-0.1,0-0.1-0.1-0.2-0.1h-0.1h-0.1h-0.1c-0.1,0-0.1-0.1-0.2-0.1c-0.1-0.1-0.1-0.1-0.1-0.1
	c-0.1,0-0.1,0-0.1,0c0,0-0.1,0-0.1,0c-0.1,0.1-0.2,0.1-0.3,0.1l-0.2-0.1c-0.1,0-0.2-0.1-0.3-0.1c-0.1,0-0.2,0-0.2,0
	c-0.1,0.1-0.2,0.1-0.2,0.2c-0.1,0.1-0.1,0.1-0.1,0.2c0,0.1,0,0.1-0.1,0.1c-0.1,0.1-0.1,0.1-0.1,0.1c-0.1,0-0.1,0.1-0.1,0.1v0.1
	c0,0,0.2,0.1,0.2,0.1l0,0c0.1,0,0.1,0.1,0.2,0.1c0,0,0.1,0.1,0.1,0.1h0.1c0,0,0.1-0.1,0.1-0.1c0,0,0.1,0,0.1,0s0.2,0.1,0.2,0.1
	l0.1,0.1l0.2,0.1c0.1,0,0.1,0.1,0.2,0.1c0.1,0,0,0,0-0.1c0-0.1,0-0.1,0-0.1s0-0.1,0.1-0.1s0.1,0,0.1,0.1l0.1,0.1L28,7.3
	C28,7.4,28,7.4,28,7.4c0,0.1,0,0.1,0.1,0.1c0,0.1,0,0.1,0,0.1S28,7.7,28,7.7C28,7.8,28,7.9,28,7.9C28.1,8,28.2,8,28.2,8.1
	s0.1,0.1,0.1,0.1c0,0.1,0,0.1,0,0.1c0,0.1-0.1,0.1-0.1,0.1v0.1c0,0,0.1,0,0.1,0.1c0,0.1-0.1,0.1-0.1,0.1c0,0.1,0,0.1-0.1,0.1L28,8.8
	c-0.1,0-0.1,0.1-0.1,0.1c-0.1,0.1-0.1,0.1-0.1,0.1C27.8,9,27.8,9,27.8,9.1c0,0.1-0.1,0.2-0.2,0.2c-0.1-0.1-0.2-0.1-0.3-0.1
	s-0.1,0.1-0.1,0.1c0,0.1,0,0.1,0,0.1v0.1c0,0.1,0,0.1-0.1,0.1s-0.2,0-0.2,0.1s0.1,0.1,0.1,0.1c0.1,0.1,0.2,0.1,0.2,0.2l0.1,0.1
	c0.1,0.1,0.1,0.1,0.1,0.1c0.1,0.1,0.1,0.1,0.1,0.2c0,0.1,0,0.1-0.1,0.2c-0.1,0.1-0.2,0.1-0.3,0.1l0,0c-0.1,0-0.1,0-0.1-0.1
	c0,0,0-0.1,0-0.1c0-0.1-0.1-0.1-0.1-0.1c-0.1,0-0.1-0.1-0.1-0.1c0-0.1,0-0.1,0-0.1c0-0.1,0-0.1,0-0.1l-0.1-0.1l-0.1-0.1
	c-0.1,0-0.1,0-0.1-0.1c-0.1-0.1-0.1-0.1-0.1-0.2c0-0.1,0.1-0.1,0-0.1c-0.1,0-0.1-0.1-0.2-0.1c-0.1,0-0.2,0-0.3,0
	c-0.1,0-0.1,0-0.1,0.1c-0.1,0-0.1,0.1-0.1,0.1c-0.1,0-0.1,0-0.2,0l0,0c-0.1,0-0.1-0.1,0-0.1c0-0.1,0.1-0.1,0.1-0.1l0,0
	c0-0.1-0.1-0.2-0.1-0.2V9.1h-0.1h-0.5h-0.2c0,0,0,0-0.1,0.1c0,0.1-0.1,0.1-0.1,0.1C25.1,9.3,25,9.3,25,9.4c-0.1,0-0.1,0-0.2,0
	c0,0.1,0.1,0.1,0.1,0.1H25h0.1c0.1,0,0.1,0.1,0.1,0.1c0,0.1,0.1,0.1,0.1,0.1l0,0l0,0h0.1c0.1,0,0.1,0,0.1,0c0.1,0,0.1,0,0.1,0h0.2
	c0.1,0,0.1,0,0.2,0.1H26C26,9.8,26,9.8,26,9.9c0,0.1,0,0.1-0.1,0.1c-0.1,0-0.2,0-0.2,0c-0.1,0-0.2,0.1-0.2,0.2
	c0,0.1,0.1,0.1,0.2,0.2c0.1,0.1,0.2-0.1,0.2,0c0,0.1,0,0.1,0.1,0.2c0.1,0.1,0.2,0.2,0.2,0.3c0,0.1,0.1,0.1,0.1,0.1v0.1
	c0,0,0.1,0.1,0.2,0.1c0.1,0,0.1,0.1,0.1,0.1c0,0.1-0.1,0.1-0.1,0.2s0,0.1-0.1,0.1c0,0.1,0,0.1,0,0.1c0,0.1,0,0.1-0.1,0.1
	s-0.1,0-0.1,0h-0.1c-0.1,0.1-0.1,0.2-0.1,0.2c0,0.1-0.1,0.2-0.2,0.2h-0.1c0,0,0,0-0.1,0.1l-0.1,0.1C25.7,12,25.7,12,25.6,12
	c-0.1,0.1-0.1,0.1-0.2,0.1l0,0c-0.1,0-0.2,0.1-0.2,0.1c-0.1,0-0.1,0.1-0.1,0.1c-0.1,0-0.1,0.1-0.1,0c-0.1,0-0.1,0-0.1,0h-0.1
	c-0.1,0-0.2,0-0.2,0h-0.1c-0.1,0-0.2,0-0.3,0.1l-0.1,0.1c0,0,0,0.1-0.1,0.1s-0.1-0.1-0.1-0.1s0-0.1-0.1-0.2
	c-0.1-0.1-0.1-0.1-0.2-0.1h-0.1h-0.1c-0.1,0-0.1,0-0.1,0l-0.1,0.1c0,0.1-0.1,0.1-0.1,0.1c-0.1,0.1-0.1,0.1-0.1,0.1l-0.1,0.1v0.1v0.1
	c0,0.1,0,0.1,0.1,0.1c0.1,0.1,0.1,0.1,0.1,0.2v0.1v0.1c0,0.1,0,0.1,0.1,0.1c0,0,0.1,0.1,0.1,0.1l0.1,0.1l0.1,0.1l0.1,0.1
	c0.1,0.1,0.2,0.1,0.2,0.2c0.1,0.1,0.1,0.2,0.1,0.2c0.1,0.1,0.1,0.2,0.1,0.3c0,0.1-0.2,0.2-0.2,0.3H24L24,14.1c-0.1,0-0.1,0-0.1,0
	h-0.1c-0.1,0-0.2,0-0.3,0c-0.1,0-0.1,0.1-0.1,0.1c-0.1,0.1-0.1,0.1-0.2,0.1c-0.1,0.1-0.1,0.1-0.1,0.1s-0.1-0.1-0.1-0.1l-0.1-0.1
	c0-0.1,0-0.1-0.1-0.1C23,14.1,23,14,22.9,14s-0.1-0.1-0.2-0.1c-0.1-0.1,0-0.1-0.1-0.1c-0.1-0.1-0.1-0.1-0.2-0.2h-0.1
	c-0.1,0-0.1,0-0.1-0.1c0-0.1-0.1-0.1-0.1-0.1c-0.1-0.1-0.2,0-0.2,0.1c0,0.1,0,0.2,0,0.2c0,0.1-0.1,0.1-0.1,0.2c0,0,0,0.1-0.1,0.1
	l0,0c0,0,0,0.1,0.1,0.2l0,0c0.1,0.1,0.1,0.1,0.1,0.1c0,0.1,0.1,0.1,0.1,0.2c0,0.1,0.1,0.1,0.2,0.2c0.1,0.1,0.1,0.1,0.1,0.1
	c0.1,0,0.1,0.1,0.1,0.1c0.1,0,0.1,0.1,0.1,0.1c0,0,0.1,0.1,0.1,0.1c0,0.1,0.1,0.1,0.1,0.1v0.1c0,0.1,0,0.1,0,0.2
	c0,0.1-0.1,0.1,0,0.2c0.1,0.1,0.1,0.1,0.1,0.1c0,0,0.1,0.1,0.1,0.1v0.1l0,0c0,0.1,0,0.1,0,0.1c-0.1,0-0.1-0.1-0.1-0.1l0,0
	c-0.1,0-0.2-0.1-0.2-0.1c-0.1,0-0.1-0.1-0.1-0.1c-0.1,0-0.1-0.1-0.1-0.1l-0.1,0.1c0,0-0.1-0.1-0.1-0.1l-0.1-0.1
	c-0.1-0.1-0.1-0.1-0.1-0.1c0-0.1-0.1-0.1-0.1-0.1L22.2,15c0-0.1,0-0.1,0-0.1c0-0.1,0-0.1,0-0.1c0-0.1-0.1-0.2-0.1-0.2L22,14.6
	L22,14.5h-0.1l0,0c0,0-0.1-0.1-0.1-0.1c0,0,0-0.1-0.1-0.1v-0.1c0,0,0-0.1-0.1-0.1c0-0.1,0-0.1,0-0.1c0-0.1,0-0.1,0-0.1
	c0-0.1,0-0.1,0-0.1c0,0,0-0.1,0.1-0.1v-0.1v-0.1c0-0.1,0-0.1,0-0.2l-0.1-0.1v-0.1l0-0.1v-0.1c0-0.1,0-0.1-0.1-0.1
	c0-0.1-0.1-0.1-0.1-0.1c0-0.1-0.1-0.2-0.1-0.2c-0.1,0-0.1,0-0.1,0s-0.1,0-0.1,0.1c-0.1,0-0.1,0.1-0.2,0.1c-0.1,0-0.1,0-0.1-0.1
	c-0.1-0.1-0.1-0.2-0.1-0.2c0-0.1-0.1-0.1-0.1-0.2c-0.1-0.1-0.1-0.1-0.1-0.2c0-0.1,0-0.1,0-0.1l-0.1-0.1h-0.1c-0.1,0-0.1-0.1-0.1-0.1
	c-0.1-0.1-0.1-0.1-0.1-0.1c0-0.1-0.1-0.1-0.1-0.1c0-0.1,0-0.1,0-0.1c-0.1-0.1-0.2-0.1-0.3-0.1c-0.1,0-0.1,0.1-0.1,0.1
	s-0.1,0.1-0.2,0.1c-0.1,0-0.2,0-0.3,0h-0.1c0,0-0.1,0-0.1,0c-0.1,0,0,0.1,0,0.1c0,0.1,0,0.1-0.1,0.1c-0.1,0.1-0.1,0.1-0.2,0.1
	c-0.1,0-0.1,0-0.2,0.1v0.1c0,0,0,0.1-0.1,0.1l0.1,0.1c-0.1,0.1-0.2,0.1-0.2,0.2c-0.1,0-0.1,0.1-0.2,0.1l0,0l0,0
	c0,0.1-0.1,0.1-0.1,0.1c-0.1,0.1-0.1,0.1-0.1,0.1s-0.2,0-0.2,0c-0.1,0-0.1,0.1-0.1,0.1v0.1c0,0,0,0,0,0.1l0,0v0.1v0.1
	c0,0-0.1,0.1,0,0.1c-0.1,0.2-0.1,0.3-0.1,0.5s0,0.2-0.2,0.3c-0.1,0-0.1,0.1-0.1,0.1c-0.1,0.1,0,0.2-0.2,0.2
	c-0.2,0.1-0.1-0.1-0.1-0.1l-0.1-0.1c-0.1,0-0.2-0.1-0.2-0.1c-0.2-0.2-0.3-0.4-0.4-0.6c-0.1-0.1-0.1-0.2-0.2-0.3
	c-0.1-0.2-0.1-0.4-0.1-0.5c-0.1-0.2-0.1-0.5-0.4-0.5c-0.2,0-0.4,0-0.5-0.1l0,0c-0.1-0.1-0.1-0.1-0.1-0.2c0-0.1,0-0.2-0.1-0.2
	c-0.2-0.2-0.3-0.3-0.5-0.4c-0.3-0.1-0.5-0.1-0.7,0c-0.2,0.1-0.4,0.1-0.6,0c-0.2-0.1-0.3-0.1-0.4-0.2c-0.1,0-0.2,0-0.3,0
	c-0.1,0-0.3-0.1-0.4-0.1C12.7,11,12.5,11,12.4,11h-0.3H12l0,0h-0.1c-0.1,0-0.2-0.1-0.2-0.1h-0.1h-0.1V11V11l0.1,0.1l0.1,0.1l0,0
	c0.1,0,0.1,0.1,0.2,0.2l0.1,0.1c0.2,0.2,0.5-0.1,0.7-0.2c0.1-0.1,0.1-0.1,0.2,0c0.1,0,0.1,0.1,0.1,0.1c0.1,0.1,0.3,0.2,0.4,0.3
	c0.1,0.1,0.3,0.1,0.3,0.2c0,0.1-0.1,0.3-0.2,0.3c-0.1,0.1-0.2,0.1-0.2,0.2c-0.1,0.1-0.1,0.1-0.1,0.2c-0.1,0.1-0.1,0.1-0.1,0.2
	c0,0.1-0.1,0.2-0.3,0.2c-0.1,0-0.2,0.1-0.3,0.2c-0.1,0.1-0.1,0.2-0.2,0.2c-0.1,0.1-0.1,0.2-0.3,0.3c-0.2,0-0.3,0-0.4,0.1l-0.1,0.1
	l-0.1-0.1c-0.2,0.2-0.4,0.2-0.6,0.3h-0.1l0,0c-0.1,0-0.1,0-0.2,0s-0.1-0.2-0.1-0.2s-0.1-0.1-0.1-0.2l0,0c0,0.1,0,0.1,0,0.2v0.2
	c0,0.1,0.1,0.2,0.1,0.3v0.1v0.1c0.1,0.1,0.1,0,0.2,0c0.2,0,0.3-0.1,0.4-0.1c0.1-0.1,0.2-0.1,0.3-0.2l0.1-0.1l0,0
	c0.1-0.1,0.2-0.1,0.3-0.1l0.1-0.1c0.1-0.1,0.2,0.1,0.2,0.1c0,0.1,0,0.1-0.1,0.2l0,0c0,0.1-0.1,0.2-0.1,0.3c-0.1,0.1-0.1,0.2-0.2,0.3
	s0.1,0.3,0,0.4c-0.1,0.2-0.3,0.3-0.4,0.5c-0.1,0.2-0.2,0.3-0.4,0.4l0,0L11,15.9l0,0L11,16l0.1,0.1l0,0l0.1,0.2l0.1,0.1v0.2l0.1,0.1
	l0.1,0.2l0.1,0.2l0.1,0.1l0,0l0.1,0.1l0.1,0.2c0.1,0.2,0.2,0.3,0.3,0.5L12,18l0.1,0.2l0,0h0.1l0,0c0,0,0-0.1,0.1-0.1c0.1,0,0,0,0,0
	l0,0c0.1,0.1,0.1,0.1,0.1,0.1h0.1c0.1,0,0,0.1,0.1,0.1l0,0c0.1,0.1,0,0.1,0.1,0.1v0.1c-0.1,0.1-0.1,0.1-0.1,0.1l0,0l0,0v0.1l0.1,0.1
	l0.1,0.2l0.1,0.1l0.1,0.1l0.1,0.1l0.1,0.1l0.1,0.2l0.1,0.1l0,0l0.2,0.3l0.1,0.1l0.1,0.1l0.3,0.3l0.1,0.1l0.1,0.1l0.1,0.1l0.2,0.2
	l0.1,0.1l0.1,0.1l0.2,0.2l0,0l0.1,0.1h0.1l0.1,0.1l0.1,0.1l0.1,0.1l0.1,0.1l0.1,0.1h0.1l0.1,0.1l0.1,0.1l0.1,0.1h0.1l0.1,0.1l0,0
	h0.1l0.1,0.1l0.1,0.1h0.1l0.1,0.1l0.1,0.1l0.1,0.1l0.1,0.1l0,0l0.1,0.1h0.1l0.2,0.1l0,0l0.2,0.1l0.1-0.1l0,0h0.1h0.1l0.1,0.1h0.1
	l0.1,0.1l0.1,0.1l0.2,0.1l0,0H17l0.2,0.1h0.1l0.1,0.1l0.1,0.1l0.1,0.1h0.1h0.1h0.1h0.1l0.2,0.1l0,0l0.1,0.1H18h0h0.1l0.1,0.1
	l0.1,0.1l0.3,0.1h0.1h0.1l0.1,0.1h0.1h0.1l0.1,0.1h0.1h0.1l0.2,0.1l0.2,0.1h0.1l0.2,0.1h0.1l0.2,0.1l0,0h0.1h0.2h0.1h0.1h0.1l0,0
	h0.2h0.1h0.1h0.5h0.2h0.5c0.6,0,1.3-0.1,1.8-0.2l0.3-0.1h0.1l0.2-0.1h0.1h0.1l0.2-0.1L25,23l0.2-0.1l0.2-0.1l0.2-0.1l0.2-0.1
	l0.2-0.1l0.4-0.1l0.1-0.1l0.4-0.2l0,0c0-0.1-0.1-0.3-0.1-0.4c0,0-0.1,0-0.1-0.1v-0.1h-0.1h-0.1c0,0,0,0,0-0.1c0,0,0,0,0-0.1v-0.1
	c-0.1-0.1-0.2-0.1-0.4-0.1h-0.1h-0.1l0,0h-0.1h-0.1l0,0c0,0-0.1,0-0.1,0h-0.2c-0.1,0-0.2-0.1-0.3,0h-0.1l0,0h-0.1l0,0h-0.1H25H25
	h-0.1h-0.1c0,0,0,0.1-0.1,0.1c-0.1,0,0,0.1-0.1,0.1h-0.1l0,0h-0.1h-0.1l0,0c-0.1,0-0.1,0-0.2,0c-0.1-0.1-0.3-0.1-0.4,0H24H24l0,0
	c0,0.1-0.1,0.1-0.1,0.1h-0.1h-0.1l0,0l0,0l0,0l0,0h-0.1h-0.1h0.2h-0.2h-0.1l-0.2,0.9l0,0l-0.1-0.1l0,0l0,0l0,0l0,0l0,0
	c-0.1-0.1-0.1-0.1,0-0.2l0,0c0-0.1,0.1,0,0.1-0.1l0,0c0,0,0-0.1,0.1-0.1c0,0,0,0,0-0.1l0,0l0,0v-0.1c0,0,0-0.1,0.1-0.1
	c0-0.1,0-0.1,0-0.2l0,0c0,0,0-0.1,0-0.1l0,0V22l0,0c0,0,0,0,0-0.1s0-0.1,0-0.1c0-0.1,0.1-0.1,0.1-0.1l0,0c-0.1-0.1,0-0.1-0.1-0.2
	l0,0c0-0.1,0-0.1,0-0.1l0,0c0,0,0-0.1,0-0.1l0,0l0,0l0,0l0,0l0,0l0,0v-0.1l0,0v-0.1c0,0,0,0,0.1,0c0,0,0,0.1,0.1,0.1l0,0h0.1
	c0,0,0,0.1,0.1,0.1v0.1l0,0v-0.1v-0.1v-0.1v-0.1c0,0,0-0.1,0.1-0.1l0,0h-0.1l0,0h0.1h0.1v-0.1c0,0,0-0.1,0-0.1l0,0H24l0,0
	c0,0,0-0.1,0.1-0.1s0-0.1,0.1-0.1l0,0c0.1,0,0.1,0.1,0.1,0.1l0,0l0,0l0,0h0.1h0.1h0.1h0.1h0.1h-0.1l0,0l0,0l0,0h0.1
	c0.1-0.1,0.2,0.1,0.3,0h0.1c0,0,0.1,0,0.1,0h0.1l0,0h0.1c0,0,0.1,0,0.1,0h0.1c0.1,0,0.1,0,0.1,0l0,0h0.1l0,0h0.1h0.1h0.1h0
	c0,0,0-0.1,0.1-0.1l0.1-0.1l0,0c0.1,0,0.1-0.1,0.1-0.1c0-0.1,0-0.1,0-0.1l0,0l0,0h0.1l0,0h0.1l0,0l0.1-0.1c0.1,0,0.1,0.1,0.1,0.1
	c0,0,0,0,0,0.1l0,0c0,0,0,0,0-0.1c0,0,0,0,0-0.1v-0.1l0,0l0,0c0.1-0.1,0.1,0.1,0.2,0c0.1-0.1,0,0,0,0l0,0l0,0v-0.1l0,0l0,0
	c0-0.1,0.1-0.1,0.1-0.1l0,0c0.1,0,0.1-0.1,0.2-0.1h0.1h0.1l0,0l0,0l0,0v-0.1l0,0h0.2c0.1,0,0.1,0,0.1,0.1c0,0,0.1,0,0.1,0.1
	c0,0,0,0.1,0.1,0.1l0,0c0,0,0.1,0.1,0.1,0.1c0,0.1,0,0,0,0l0,0c0,0,0.1,0,0.1,0s0.1,0,0.2,0l0,0v-0.1l0,0l0,0l0,0c0,0,0-0.1,0.1-0.1
	c0,0,0.1,0,0.1-0.1l0,0l0.1-0.1c0,0,0.1,0,0.1-0.1h0.1h0.1l0,0h0.1l0,0c0.1-0.1,0.2,0.1,0.3,0c0-0.1-0.1-0.1-0.1-0.1
	c0-0.1,0.1,0,0.1,0s0.1,0.1,0.1,0.1l0,0c0.1,0.1,0.1,0,0.1,0.1s0.1,0,0.1,0.1H28l0,0c0,0,0,0,0.1,0.1h0.1h0.1l0,0
	c0.1,0,0.1,0.1,0.1,0.1c0.1,0.1,0,0,0,0v-0.1c0,0,0.1,0.1,0.2,0.1s0,0.1,0,0.1h-0.1l0,0h-0.1c-0.1,0,0,0.1-0.1,0.1
	c-0.1,0-0.1,0.1-0.2,0.1l0,0c0,0,0,0.1-0.1,0.1H28l0,0H28l0,0c-0.1,0.1,0,0.1,0,0.1v-0.1l0,0l0,0c0.1,0.1,0.1,0.1,0.2,0.1v0.1
	c0,0,0.1,0,0.1,0.1l0,0V21v0.1l0,0c0,0,0.1,0,0.1,0.1l0,0c0,0,0.1,0,0.1,0.1s0.1,0.1,0.1,0.1s0.1,0,0.1,0.1c0.1,0,0.1,0,0.1,0h0.1
	l0,0c0,0,0-0.1,0.1-0.1s0-0.1,0.1-0.1l0,0h0.1l0.4-1l0,0c0,0,0-0.1,0.1-0.1c0.1,0,0-0.1,0.1-0.1l0,0c0,0,0-0.1,0.1-0.1
	s0-0.1,0.1-0.1s0-0.1,0.1-0.1c0.1,0,0-0.1,0.1-0.2h0.1l0,0v-0.1l0,0h0.1l0,0l0,0v-0.1l0,0l0,0h0.1l0,0c0,0,0-0.1,0.1-0.1
	s0-0.1,0.1-0.1l0,0c0.1-0.1,0.1-0.1,0.1,0c0,0.1-0.1,0.1,0,0.2l0,0l0,0l0,0l0,0l0,0v-0.1l0,0c0,0.1,0,0.1-0.1,0.2v0.1
	c0.1,0-0.1,0.1,0.1,0.1l0,0h0.1c0,0,0.1,0,0.1,0.1l0,0l0.1,0.1v0.1l0,0v0.1l0,0l0,0l0,0v0.1v0.1v0.1l0,0c0,0,0,0,0,0.1l0,0l0,0l0,0
	l0,0c0,0,0,0.1,0,0.1l0,0c-0.1,0.1,0.1,0.1-0.1,0.2c-0.1,0.1,0,0,0,0.1l0.1-0.1l0.1-0.1l0.1-0.1c0.2-0.2,0.4-0.4,0.5-0.6l0.3-0.3
	l0.1-0.1l0.1-0.2h-0.1l0,0c-0.1-0.1-0.1,0-0.2-0.1l0,0c0,0,0,0-0.1,0l0,0c0,0-0.1,0-0.1-0.1c0,0,0,0,0-0.1l0,0c0,0,0,0,0-0.1
	c0,0,0,0,0-0.1c0,0,0,0,0-0.1l0,0v-0.1l0,0c-0.1,0,0-0.1,0-0.1l0,0v-0.1v-0.1l0,0c0,0-0.1,0-0.1-0.1s-0.1,0-0.1-0.1
	c-0.1-0.1-0.1,0-0.1,0h-0.1c0,0,0,0.1-0.1,0.1l0,0c-0.1,0,0,0.1-0.1,0.1l0,0c0,0,0,0-0.1,0l0,0h-0.1h-0.1l0,0c0,0-0.1,0-0.1-0.1h0
	c-0.1,0-0.2,0-0.2-0.1l0,0l0,0v-0.1l0,0v-0.1c0,0,0,0,0-0.1l0,0l0,0c0-0.1-0.1-0.1-0.1-0.1h-0.1c0,0,0,0-0.1,0
	c-0.1,0.1-0.2,0-0.3-0.1l0,0c0,0,0-0.1,0.1-0.1l0,0c0,0,0-0.1,0.1-0.1l0,0h0.1h0c0.1,0,0.1-0.1,0.1-0.1l0,0l0,0l0,0l0,0
	c0,0,0,0,0-0.1l0,0c-0.1,0,0-0.1,0-0.1s0-0.1-0.1-0.2c-0.1,0.1-0.2,0.2-0.3,0.1c-0.1-0.1-0.2-0.2-0.1-0.3l0,0
	c-0.1-0.1-0.1-0.1-0.1-0.1l0,0L29,17.7l0,0H29h-0.1c-0.1-0.1-0.1,0-0.1-0.1l0,0c-0.1,0-0.1-0.1-0.1-0.1s-0.1,0-0.1-0.1l0,0l-0.2,0.1
	v0.1l0,0l0,0c0,0.1-0.1,0.1-0.1,0l0,0c-0.1-0.1,0-0.1-0.1-0.2v-0.1h-0.1c-0.1,0,0-0.1,0-0.1c0.1,0,0.2,0,0.3,0c0,0-0.1,0-0.1-0.1
	 M28.4,17.5c-0.1,0-0.1-0.1-0.1-0.1c-0.1,0,0-0.1-0.1-0.1c-0.1-0.1-0.2-0.1-0.2-0.1s-0.1-0.1,0-0.1l0,0c0.1,0,0.1,0,0.1,0.1
	c0.1,0.1,0.1,0,0.1,0l0,0c0.1,0,0.2,0,0.2-0.1l0,0 M28.5,17.1L28.5,17.1h0.1c0,0,0,0,0,0.1c0.1,0.1,0.1,0,0.2,0.1
	c0.1,0.1,0,0.1,0,0.1l0,0v0.1l0,0c0,0.1,0,0.1,0,0.1l0,0c0,0,0,0.1,0.1,0.1s0,0,0,0.1s0,0.1,0.1,0.1c0.1,0.1,0.1,0.1,0.1,0h0.1
	c0,0,0,0,0.1,0l0,0c0,0,0,0,0.1,0l0.1-0.1l0,0c0,0,0-0.1,0.1-0.1h0.1c0.1,0,0.1-0.1,0.1-0.1l0,0h0.1l0,0h0.1h0.1l0,0l0,0l0.1,0.1
	l0,0c0,0,0.1,0,0.1,0.1l0.1,0.1l0,0c0,0,0.1,0,0.1,0.1l0,0c0,0,0.1,0,0.1,0.1l0,0c0,0,0.1,0,0.1,0.1h0.1c0.1,0,0.1,0.1,0.2,0.1l0,0
	h0.1l0,0c0,0,0.1,0,0.1,0.1c0,0.1,0.1,0,0.1,0.1l0,0c0,0,0.1,0,0.1,0.1s0.1,0,0.1,0.1l0,0c0,0,0.1,0,0.1,0.1l0,0
	c0.1,0,0.1,0.1,0.1,0.1c0,0,0,0,0,0.1c0.1,0.1,0.1,0.1,0.2,0.1l0.1,0.1c0,0,0.1,0,0.1,0.1l0,0c0,0,0.1,0.1,0.1,0.1v0.1v0.1l0,0
	c0,0,0.1,0,0.1,0.1l0,0c0,0,0,0,0.1,0.1c0,0,0.1,0,0.1,0.1s0.1,0,0.1,0.1v-0.3v0.1v0.1c-0.1,0.1-0.1,0-0.1,0l0,0
	c-0.1,0-0.1,0-0.1,0.1s0,0.1,0.1,0.1C31,19,31,19,31,19c0,0,0,0,0,0.1l0,0c0,0.1,0,0.1,0,0.2c0.1,0,0.1,0,0.1,0l0,0
	c0.1,0.1,0,0.1,0,0.1l0,0l0.1,0.1l0.1-0.2l0.1-0.1l0.1-0.1c0.2-0.2,0.3-0.4,0.4-0.6l0.2-0.4l0.1-0.2l0.1-0.2l0.1-0.1l0.1-0.2
	l0.1-0.1l0.1-0.2l0.1-0.1l0.1-0.1l0.1-0.1l0.1-0.1l0.1-0.1l0.1-0.2l0.1-0.2l0.1-0.1l0.1-0.1c0.1-0.3,0.2-0.6,0.3-0.9l0.1-0.2
	c0-0.1,0-0.1,0-0.1c0-0.1,0-0.1,0-0.1s0-0.1,0.1-0.2v-0.1l0.1-0.2v-0.1c0-0.1,0-0.1,0.1-0.2v-0.1c0-0.1,0-0.2,0.1-0.2
	c0.1-0.1,0-0.1,0-0.1s0-0.1,0-0.2s0-0.1,0-0.1c0-0.1,0-0.1,0-0.2c0-0.1,0,0,0-0.1c0-0.1,0-0.1,0-0.2s0-0.1,0-0.1c0-0.1,0-0.2,0-0.3
	s0-0.2,0-0.3s0-0.2,0-0.3c0.2-0.3,0.3-0.6,0.3-0.9L28.5,17.1z M25.6,9.5L25.6,9.5z M11.4,14.1L11.4,14.1z M27.4,15.6
	c0,0,0-0.1,0-0.1l0,0l0,0h-0.1l0,0L27.4,15.6C27.3,15.6,27.3,15.6,27.4,15.6L27.4,15.6L27.4,15.6c-0.1,0.1-0.1,0.1-0.1,0.1h-0.1
	c0-0.1-0.1-0.1-0.1-0.1s-0.1,0-0.1-0.1l0,0L27,15.6v-0.1l0,0c0-0.1,0-0.1,0-0.1v-0.1v-0.1l0,0l-0.1,0h-0.2c-0.1,0-0.1,0-0.2,0l0,0
	c0,0,0,0-0.1,0.1c-0.1,0.1,0,0,0,0l0,0l0,0h-0.1l0,0v-0.1v-0.1l0,0v-0.1l0,0h0.1l0,0c0.1,0,0.1-0.1,0.1-0.1l0,0c0,0,0.1-0.1,0.1,0
	c0.2,0.1,0.3,0,0.4-0.1l0,0c0-0.1,0.1-0.1,0-0.2h0.1l0,0V15c0,0,0,0.1,0,0.1l0,0c0,0,0.1,0,0.1,0.1l0.1,0.1l0,0c0,0,0,0.1,0,0.1
	c0,0.1,0,0.1,0,0.1v0.1c0,0,0,0,0,0.1v0.1v0.1l-0.1,0.1l0,0l0,0h-0.1C27.4,15.5,27.4,15.6,27.4,15.6L27.4,15.6z M26.9,16.5
	L26.9,16.5c0.1,0,0.1-0.1,0.1-0.1l0,0c0.1,0,0.1,0,0.1,0v0.1l0,0c0,0,0,0.1-0.1,0.1l0,0c-0.1,0-0.1,0.1-0.1,0.1s0,0.1-0.1,0.1l0,0
	c-0.1,0-0.1,0-0.1,0l0,0h-0.1l0,0h-0.1l0,0c-0.1-0.1-0.1-0.1-0.2-0.1h-0.1h-0.1h-0.1h-0.1l0,0h-0.1l0,0c0,0,0,0.1-0.1,0.1
	s0,0.1-0.1,0.1l0,0v0.1l0,0l0,0c0,0,0.1,0,0.1,0.1l0,0c0.1,0,0,0.1,0,0.1l0,0c0,0,0,0,0.1,0c0,0,0-0.1,0.1-0.1c0,0,0,0,0.1,0
	s0.1,0,0.1,0h0.1l0,0c0.1,0,0.2,0,0.3,0v0.1l0,0v0.1l0,0c0,0.1,0,0.1-0.1,0.1l-0.1-0.1l0,0l0,0l0,0h-0.1l0,0h-0.1l0,0h-0.1l0,0
	c0,0,0,0-0.1,0c-0.1,0.1,0,0.1,0,0.1l0,0v0.1l0,0c0,0,0,0,0,0.1l0,0l0,0c0,0.1-0.1,0.1,0,0.2c0.1,0.1,0,0,0,0s0,0,0.1,0
	c0,0,0,0,0.1,0c0,0,0.1,0,0.1,0.1l0,0c0,0,0,0,0,0.1v0.1c0,0,0,0-0.1,0l0,0l0,0l0,0c0,0.1,0,0.1-0.1,0.1c-0.1,0,0,0,0,0
	s-0.1,0-0.1,0s-0.1-0.1-0.1-0.2c-0.1,0-0.2,0-0.2-0.1v-0.1v-0.1v0.1v-0.1c0-0.1,0-0.1,0-0.1c0,0,0.1-0.1,0-0.1H26
	c-0.1,0-0.1,0-0.1,0.1s0,0.1,0,0.1v0.1c0,0,0,0.2-0.1,0.2c-0.1,0.1,0,0,0,0s0,0,0,0.1l0,0c0.1,0.1-0.1,0.1-0.1,0.1c0,0-0.1,0-0.1,0
	v-0.1l0,0c0,0,0-0.1,0.1-0.1l0,0c0,0,0-0.1,0.1-0.1c0,0,0-0.1,0-0.1c-0.1,0,0.1-0.1-0.1-0.1h-0.1c-0.1-0.1,0-0.1,0-0.2l0,0
	c0,0,0,0,0.1,0h0.1c0,0,0-0.1,0.1-0.1l0,0c0.1-0.1,0-0.1,0.1-0.2l0,0c0,0,0-0.1,0.1-0.1l0,0l0,0l0,0c0.1-0.1,0-0.2,0.1-0.2
	c0.1-0.1,0-0.1,0.1-0.1s0.1-0.1,0.1,0l0,0c0,0,0,0,0.1,0h0.1l0,0c0,0,0,0,0.1,0h0.1c0,0,0.1,0,0.1,0.1s0.1,0,0.1,0.1h0.1
	c0.1,0.1,0.2,0,0.2,0.1l0,0L26.9,16.5L26.9,16.5L26.9,16.5z M25.6,18.1L25.6,18.1h-0.1c-0.1,0-0.1,0-0.1,0h-0.1h-0.1h-0.1l0,0l0,0
	c0-0.1-0.1,0-0.2,0V18V18c0.1,0,0.1,0,0.1,0c0,0,0.1,0,0.1,0.1h0.1l0,0c0,0,0,0,0.1,0V18h0.1c0.1,0,0,0,0.1,0s0.1,0.1,0.1,0.1
	L25.6,18.1L25.6,18.1L25.6,18.1z M25,15.6L25,15.6c0.2-0.1,0.3-0.1,0.4-0.2c0,0,0-0.1,0.1-0.1l0,0c0,0,0-0.1,0.1-0.1s0,0,0.1,0
	s0-0.1,0.1-0.1s0,0,0,0l0,0c0,0,0.1,0,0.1,0l0,0c0.1,0,0.1,0.1,0.1,0.1l0,0c0.1,0.1,0.1,0.1,0.1,0.2c0.1,0.1,0.1,0,0.1,0.1
	c0,0,0,0,0.1,0h-0.1H26c0,0.1,0,0.1-0.1,0.1c0,0-0.1,0-0.1,0.1c0,0.1,0,0.1-0.1,0.1c-0.1,0,0,0,0,0l0,0c-0.1,0.1-0.1,0.1-0.1,0.2
	l0,0V16l0,0v0.1v0.1l0,0c-0.1,0.1,0.1,0.1,0.1,0.1c0,0,0,0,0.1,0l0,0h0.1v0.1l0,0c0,0,0.1,0.1,0,0.1c-0.1,0.1-0.2,0-0.2,0
	c-0.1,0,0,0.1-0.1,0.1s0,0.1-0.1,0.2s0,0.1-0.1,0.1s-0.1,0-0.1,0l0,0c0,0,0,0.1-0.1,0.1l0,0h-0.1c-0.1,0.1,0,0.2-0.1,0.2
	c0,0,0,0-0.1,0l0,0c-0.1,0.1,0,0.1,0,0.1s0,0.1-0.1,0.1c-0.1,0-0.1,0-0.1,0l0,0c0-0.1-0.1,0-0.1,0l0,0H25h-0.1c0,0-0.1,0-0.1-0.1
	s0-0.1,0-0.1v-0.1l0,0h-0.1h-0.1c-0.1,0-0.1,0-0.1,0c0,0-0.1,0-0.1-0.1h-0.1h-0.1c-0.1,0-0.1,0-0.2,0s0-0.1-0.1-0.1h-0.1h-0.1l0,0
	c-0.1,0-0.1,0-0.1-0.1s0-0.1,0-0.2s0,0,0-0.1l0,0c0,0,0,0,0.1-0.1l0,0c0,0-0.1,0.1-0.2,0.1c-0.1,0-0.1,0-0.1,0s0,0,0-0.1
	c0,0,0,0-0.1-0.1l0,0 M23.9,16.4L23.9,16.4L23.9,16.4L23.9,16.4L23.9,16.4L23.9,16.4c0-0.1,0.1-0.1,0-0.1l0,0v-0.1l0,0v-0.1v-0.1
	c0-0.1,0.1-0.1,0.1-0.1l0,0L24,16l0,0C24,16,24,16,24.1,16l0,0l0,0c0,0,0.1-0.1,0.1,0l0,0c0,0,0,0,0.1,0h0.1c0.1,0,0-0.1,0.1-0.1
	c0.1,0,0-0.1,0-0.1s0.1-0.1,0.1-0.1h0.1c0.1,0,0.1,0,0.1,0l0,0h0.1l0,0h0.1l0,0c0,0,0-0.1,0.1-0.1c0.1-0.1,0.1-0.1,0.1-0.1
	c0,0,0-0.1,0.1-0.1L23.9,16.4z M27.4,14.7C27.4,14.8,27.3,14.8,27.4,14.7c-0.1,0.1-0.2,0.1-0.1,0.1l0,0v0.1l-0.1,0.1
	c-0.1-0.1-0.1-0.2-0.1-0.3c0.1,0,0,0.1,0.1,0.1s0-0.1,0-0.1s-0.1-0.1-0.1-0.1c0.1,0,0.2,0,0.2,0l0,0C27.4,14.5,27.3,14.6,27.4,14.7
	C27.3,14.6,27.3,14.7,27.4,14.7L27.4,14.7z M26.7,14.8c0.1-0.1,0.1-0.1,0.1-0.1c-0.1,0-0.1,0-0.1-0.1h-0.1h-0.1
	c-0.1-0.1-0.1-0.1,0-0.1v-0.1v0v-0.1l0,0h0.1l0,0c0,0,0.1,0,0.1,0.1c0.1,0.1,0.1,0,0.1,0.1c0,0.1,0,0.1,0,0.1h0.2l0,0l0,0l0,0l0,0
	v-0.1c0.1,0.1,0,0.2-0.1,0.2s-0.1,0.1-0.1,0.2C26.7,15,26.7,15,26.7,15l0,0C26.7,14.9,26.7,14.9,26.7,14.8L26.7,14.8
	C26.7,14.9,26.7,14.9,26.7,14.8L26.7,14.8L26.7,14.8z M25.6,14.9C25.6,14.9,25.6,14.8,25.6,14.9c0.1-0.1,0.1-0.1,0.1-0.1l0,0h0.1
	l0,0c0,0,0-0.1,0.1-0.1l0,0h0.1c0,0,0-0.1,0.1-0.1H26l0.1-0.1l0,0l0,0l0,0v-0.1l0,0l0,0l0,0l0,0l0,0l0,0h0.1l0,0l0,0v0.1l0,0l0,0
	l0,0l0,0c0,0.1,0,0.1-0.1,0.1l0,0H26l0,0c-0.1,0-0.1,0-0.1,0.1c0,0.1,0,0.1-0.1,0.1h-0.1c-0.1,0-0.1,0-0.1,0.1H25.6L25.6,14.9
	L25.6,14.9L25.6,14.9h-0.1v-0.1l0,0L25.6,14.9L25.6,14.9z M24.7,15.7L24.7,15.7z M23.3,17.3C23.3,17.3,23.3,17.4,23.3,17.3l0.2,0.1
	c0.1,0,0.1,0,0.1,0.1c0,0,0,0.1,0.1,0.1s0.1,0,0.1,0c0.1,0,0.2,0,0.2,0.1c0.1,0,0.1,0,0.1-0.1c0-0.1,0,0,0.1,0c0.1,0,0,0,0,0.1
	c0,0.1,0.1,0.1,0.1,0.1h0.1l0,0c0.1,0,0.1,0.1,0.1,0.1c0.1,0,0.2,0,0.3,0c0,0,0.1,0,0.1,0.1s0,0.1-0.1,0.1c-0.1,0,0,0.1-0.1,0.1
	c-0.1,0-0.1-0.1-0.1,0c0,0.1,0.1,0.1,0.1,0.1c0.1,0,0.1,0,0.2,0.1c0,0,0,0.1,0.1,0.1c0,0,0.1,0.1,0.1,0.1S25,18,25,18v0.1h-0.1h-0.1
	h-0.1c-0.1,0-0.1,0-0.1,0c-0.1,0-0.1,0-0.1-0.1L24.5,18h-0.1c-0.1,0-0.1,0-0.1-0.1l-0.1-0.1h-0.1c-0.1,0-0.1,0-0.1,0
	c-0.1,0-0.1,0-0.1-0.1l-0.1-0.1l-0.3-0.1h-0.1c-0.1,0-0.1,0-0.1,0c-0.1,0-0.1,0-0.1,0s-0.1-0.1-0.2-0.1c-0.1,0-0.1,0-0.2-0.1
	c-0.1,0-0.1-0.1-0.1-0.1c0-0.1-0.1-0.1-0.2-0.1s-0.1,0-0.1-0.1s0-0.1,0.1-0.1h0.1c0,0,0,0,0-0.1c0-0.1,0.1,0,0.1,0s0,0,0-0.1
	c0,0,0,0,0.1,0l0,0l0,0c0,0,0,0,0.1,0h0.1C23.2,17.3,23.3,17.2,23.3,17.3L23.3,17.3z M31.4,6.5L31.4,6.5z M27.6,10.8L27.6,10.8
	L27.6,10.8L27.6,10.8h0.1v-0.1l0,0l0,0l0,0l0,0c0.1,0,0.1,0,0.1-0.1h0.1h0.1l0,0c0.1,0,0-0.1,0.1-0.1s0.1,0,0.2,0c0.1,0,0.1,0,0.2,0
	c0.1,0,0.1,0,0.2,0l0,0c0.1,0,0.1,0.1,0.1,0l0,0c0,0-0.1-0.1,0-0.1l0,0h0.1l0,0l0,0l0,0v-0.1l0,0c0-0.1,0-0.1,0.1-0.1l0,0h0.1v0.1
	v0.1c0.1,0,0.1,0,0.2,0h0.1l0,0v-0.1h0.1c0,0,0-0.1,0-0.1l0,0v-0.1l0,0c-0.1-0.1,0-0.1,0-0.1c0-0.1-0.1-0.1-0.1-0.2L28.8,10l0,0
	c0,0-0.1-0.1,0-0.1l0,0l0,0l0,0l0,0l0,0l0,0c0,0,0-0.1,0.1-0.1h-0.1h-0.1c-0.1,0-0.1,0-0.1-0.1l0,0c0-0.1-0.1-0.1-0.1-0.1l0,0l0,0
	c-0.1-0.1-0.1-0.1,0-0.1c0.1-0.1,0-0.1,0.1-0.1h0.1c0.1-0.1,0.1-0.1,0.1-0.2l0,0V9.4l-0.1-0.1l-0.1-0.1c-0.1,0-0.1-0.1-0.1-0.1
	c0.1,0,0.1,0,0.2,0.1l0.1,0.1l0.1,0.1c0.1,0.1,0.2,0.1,0.3,0.2c0.1,0,0.1,0,0.2,0c0.1,0,0,0.1,0.1,0.1l0.1-0.1h0.1
	c0.1,0,0.1,0,0.1,0s0,0-0.1,0.1c0,0,0,0.1-0.1,0.1l0,0c0,0.1,0.1,0.1,0,0.1c-0.1,0.1-0.1,0-0.2,0s0,0.1-0.1,0.1s0,0.1,0,0.1
	s0,0.1-0.1,0.1c-0.1,0-0.1-0.1-0.2-0.1C29,9.8,29,9.9,29,9.8l0,0h-0.1l0,0c-0.1,0-0.1,0-0.1,0h-0.1l0.1,0.1l0.1,0.1h0.1V10H29l0,0
	l0,0H29l0.1,0.1V9.7l0.1,0.1l0,0l0,0l0.1,0.1l0.1,0.1c0.1,0.1,0.1,0.1,0.1,0.1v0.1l0,0c0.1,0.1,0,0.1,0,0.1l0,0
	c0.1,0.1-0.1,0.1-0.1,0.1l0,0l0.1,0.1l0,0v0.1v0.1v0.1l0,0l0,0l0,0v0.1c0,0,0.1,0.1,0.1,0.2c-0.1,0.1,0,0,0,0l0,0v0.1l0,0h-0.1
	c-0.1,0-0.2-0.1-0.2,0c-0.1,0-0.2,0-0.3,0c-0.1,0-0.1,0-0.1-0.1c0,0.1-0.1,0.1-0.1,0.2c-0.1,0-0.1,0-0.1,0c-0.1,0-0.1-0.1-0.1-0.1
	s0-0.1-0.1-0.1l0,0c0,0.1,0,0.1,0,0.1c0,0.1-0.1,0.1-0.1,0h-0.1c0,0-0.1,0-0.1,0.1l0,0h-0.1L28,10.8v-0.1l-0.1,0.1
	c0,0.1,0,0.1,0,0.1c0,0.1,0,0.2-0.2,0.1l0,0c0,0-0.1,0-0.1-0.1c0-0.1-0.1-0.1-0.1-0.1C27.7,10.8,27.6,10.8,27.6,10.8L27.6,10.8
	L27.6,10.8l-0.1-0.1C27.5,10.6,27.5,10.8,27.6,10.8z M21.9,15.4l0.1,0.1c0.1,0,0.1,0.1,0.1,0.1c0,0.1,0.1,0.1,0.1,0.1v0.1v0.1
	l0.1,0.1l0.1,0.1h0.1l0.1,0.1l0.2,0.1l0.1,0.1l0.1,0.1c0,0.1,0,0.1,0,0.1v0.1v0.1c0,0.1,0.1,0.1,0.1,0.1s0.1,0.1,0.1,0.1
	c0,0.1,0.1,0.1,0.1,0.2c0.1,0.1,0.2,0.1,0.2,0.2v0.1c0,0,0,0-0.1,0s0,0,0,0.1l0,0v0.1c0,0,0,0.2-0.1,0.2c-0.1,0.1-0.1,0.1-0.1,0.1
	h-0.1h-0.1h-0.1h-0.1c0,0,0,0,0-0.1s-0.1-0.1-0.2-0.1c-0.1-0.1-0.1-0.2-0.2-0.2c0-0.1-0.1-0.1-0.1-0.1c0,0-0.1,0-0.1-0.1
	c-0.1,0-0.1-0.1-0.1-0.1v-0.1v-0.1c0-0.1-0.1-0.1-0.1-0.1c0,0-0.1,0-0.1-0.1c0,0,0-0.1,0-0.1s0-0.1,0-0.1l0,0c0-0.1-0.1-0.1-0.1-0.1
	L22,16V16v-0.1c0-0.1-0.1-0.1-0.1-0.2c-0.1-0.1-0.1-0.1-0.2-0.1c-0.1,0-0.1-0.1-0.1-0.1l0,0l0,0v-0.1c0,0,0,0,0-0.1l0,0l-0.1-0.1
	l-0.1-0.1c0,0-0.1,0-0.1-0.1l-0.1-0.1l-0.1-0.1l-0.1-0.1c0-0.1,0-0.1,0-0.1s0-0.1,0.1-0.1c0,0,0.1,0,0.1,0.1c0.1,0,0.1,0.1,0.1,0.1
	s0.1,0,0.2,0c0.1,0,0.1,0,0.1,0.1h0.1c0,0,0,0,0,0.1l0.1,0.1C21.9,15.4,21.9,15.4,21.9,15.4L21.9,15.4z M19.3,12.3L19.3,12.3z
	 M18,14.4L18,14.4c0,0,0-0.1,0-0.1l0,0l0,0v-0.1v-0.1h0.1h0.1h0.1l0,0l0,0l0,0l0,0c0,0,0,0.1,0.1,0.1l0,0l0.1,0.1
	c0,0.1,0.1,0.1,0.1,0.1c0,0,0,0.1,0.1,0.1h0.1l0,0c0.1,0.1,0,0.1,0.1,0.1c0.1,0.1,0,0,0,0.1s0,0.1-0.1,0.1h-0.1h-0.1h-0.1l0,0h-0.1
	l0,0h-0.1c-0.1,0-0.1-0.1-0.1-0.1v-0.1l0,0c-0.1-0.1,0-0.1,0-0.1l0,0C18,14.4,18,14.4,18,14.4L18,14.4z M25.8,18.4
	c-0.1,0.1-0.1,0.1-0.2,0l0,0l0,0l0,0c0,0-0.1,0-0.1-0.1l0,0l-0.1-0.1v-0.1l0,0c0.1,0,0.2,0,0.2,0.1L25.8,18.4L25.8,18.4L25.8,18.4
	C25.7,18.4,25.7,18.4,25.8,18.4L25.8,18.4z M26.2,18.2L26.2,18.2L26.2,18.2h-0.1H26c0,0,0-0.1-0.1,0h-0.1c-0.1,0-0.1,0-0.1,0
	c-0.1,0-0.1,0-0.2-0.1c-0.1-0.1-0.1-0.1,0-0.1l0,0h0.1c0.1,0,0.1,0,0.1,0l0,0c0,0,0.1,0,0.1,0.1l0,0c0.1,0,0.1,0,0.2-0.1l0,0l0,0
	h0.1h0.1l0,0h0.1l0,0h0.1l0,0c0.1,0.1,0.2,0.1,0.3,0.1l0,0l0,0h0.1c0,0.1-0.1,0.1-0.1,0.1l0,0h-0.1h-0.1l0,0h-0.1l0,0h-0.1l0,0
	C26.3,18.1,26.3,18.1,26.2,18.2C26.2,18.2,26.2,18.2,26.2,18.2L26.2,18.2z M27.1,18.3C27.1,18.3,27.1,18.3,27.1,18.3
	c-0.1,0-0.1,0-0.1,0l0,0h-0.1c0,0-0.1,0-0.1,0c-0.1,0-0.1,0-0.1,0s-0.1,0-0.1,0l0,0h-0.1l0,0l0,0l0,0h-0.1l0,0h-0.1l0,0h-0.1h-0.1h0
	l0,0l0,0c-0.1,0-0.1,0-0.1,0s0-0.1,0.1-0.1c0.1,0,0-0.1,0.1-0.1l0,0l0.1-0.1l0,0h0.1c0,0,0.1,0,0.1-0.1h0.1l0,0l0,0l0,0l0,0h0.1h0.1
	c0.1,0,0.1,0,0.2,0h0c0.1,0,0.1,0,0.1,0.1L27.1,18.3z M27.4,16.9L27.4,16.9C27.4,16.8,27.4,16.9,27.4,16.9L27.4,16.9
	c0.1-0.1,0.1-0.1,0.1-0.2l0,0l0,0c0,0,0,0-0.1-0.1c0-0.1,0.1-0.1,0.1-0.2l0,0c0,0,0-0.1,0.1-0.1c0.1,0,0-0.1,0.1-0.1l0,0
	c0.1,0,0,0.1,0,0.1s0,0,0,0.1l0,0l0,0h0.1l0,0c0.1,0,0.1,0.1,0,0.1l0,0l0,0c0,0-0.1,0,0,0.1s0.1,0.1,0,0.1l0,0h-0.1l0,0l0,0l0,0
	C27.4,16.8,27.4,16.9,27.4,16.9L27.4,16.9L27.4,16.9L27.4,16.9L27.4,16.9L27.4,16.9L27.4,16.9C27.4,17,27.4,17,27.4,16.9L27.4,16.9
	L27.4,16.9L27.4,16.9L27.4,16.9L27.4,16.9C27.4,17,27.4,17,27.4,16.9L27.4,16.9L27.4,16.9L27.4,16.9L27.4,16.9L27.4,16.9z M28,17.6
	L28,17.6C28,17.6,28,17.6,28,17.6C28,17.6,28,17.6,28,17.6h-0.1l0,0c0,0-0.1,0-0.1-0.1l0,0c0,0-0.1,0-0.1-0.1 M27.8,17.5L27.8,17.5
	c-0.1,0-0.1,0-0.1,0l0,0c0,0,0,0-0.1,0l0,0c0,0-0.1,0-0.1,0l0,0l0,0l0,0c-0.1,0-0.1,0-0.1,0l0,0h0.1c0,0-0.1,0-0.1-0.1l0,0
	c0-0.1,0-0.1,0.1-0.1l0,0c0.1-0.1,0.2,0,0.3,0l0,0C27.8,17.4,27.8,17.4,27.8,17.5c0.1,0,0.2-0.1,0.2,0c0,0.1,0,0.1,0,0.1l0,0v0.1
	l0,0l0,0L27.8,17.5z M26.8,16.5L26.8,16.5z M26.8,16.5L26.8,16.5z M26.8,16.5L26.8,16.5z"/>
<path class="st2" d="M29.4,17.5L29.4,17.5L29.4,17.5z"/>
<path class="st2" d="M29,17.6L29,17.6L29,17.6z"/>
<path class="st3" d="M33.8,12.4c0,0.1,0,0.2,0,0.3s0,0.2,0,0.3s0,0.2,0,0.3s0,0.1,0,0.1c0,0.1,0,0.1,0,0.2s0,0,0,0.1
	c0,0.1,0,0.2,0,0.2c0,0.1,0,0.1,0,0.1c0,0.1,0,0.1,0,0.2s0,0.1,0,0.1s0,0.2-0.1,0.2v0.1c0,0.1,0,0.1-0.1,0.2v0.1l-0.1,0.2v0.1
	c0,0.1,0,0.1-0.1,0.2c-0.1,0.1,0,0.1,0,0.1s0,0.1,0,0.1l-0.1,0.2c-0.1,0.3-0.2,0.6-0.3,0.9l0,0.1l-0.1,0.1l-0.1,0.2L33,16.7L33,16.8
	l-0.1,0.1L32.9,17l-0.1,0.1l-0.1,0.1l-0.1,0.2l-0.1,0.1l-0.1,0.2l-0.1,0.1l-0.1,0.2l-0.1,0.2c-0.1,0.1-0.2,0.2-0.2,0.4
	c-0.1,0.2-0.3,0.4-0.4,0.6l-0.1,0.1l-0.1,0.1l-0.1,0.2l-0.1,0.1l-0.1,0.2l0,0.1L31,20c-0.2,0.2-0.4,0.4-0.5,0.6l-0.1,0.1l-0.1,0.1
	l-0.1,0.1c-1,0.9-2.3,1.7-3.6,2.1l-0.4,0.2l-0.1,0.1l-0.4,0.1l-0.2,0.1l-0.2,0.1l-0.2,0.1l-0.2,0.1L25,23.5l-0.3,0.1l-0.2,0.1h-0.1
	h-0.1l-0.2,0.1h-0.1l-0.3,0.1c-0.6,0.1-1.2,0.2-1.8,0.2h-0.5h-0.2h-0.3H21H21h-0.2l0,0h-0.1h-0.1h-0.1h-0.2h-0.1l0,0l-0.2-0.1H20
	l-0.2-0.1h-0.1l-0.2-0.1l-0.2-0.1h-0.1h-0.1l-0.2-0.1H19H19l-0.1-0.1h-0.1h-0.1l-0.3-0.3h-0.1l-0.1-0.1h-0.1h-0.1h-0.1l-0.1,0l0,0
	l-0.2-0.1h-0.1h-0.1h-0.1h-0.1h-0.1h-0.1l-0.1-0.1l-0.1-0.1h-0.1l-0.2-0.3h-0.1l0,0l-0.2-0.1l-0.1-0.1l-0.1-0.1h-0.1l-0.1-0.1h-0.1
	h-0.1l0,0l-0.1-0.1l-0.2-0.1l0,0l-0.2-0.1l0,0l-0.2-0.1l0,0L16,22.1l0,0.1l-0.1-0.1l-0.1-0.1h-0.1L15.6,22l-0.1-0.1h-0.1l-0.1-0.1
	l0,0l-0.1-0.1l-0.1-0.1l-0.1-0.1h-0.1l-0.1-0.1L15,21.5l-0.1-0.1l-0.1-0.1l-0.1-0.1l-0.1-0.1h-0.1h0.1c3.9,0.9,8-0.3,10.8-3.1
	l0.1-0.1c0.2-0.2,0.4-0.4,0.6-0.6l0.3-0.3l0.2-0.2l0.1-0.2l0.1-0.2l0,0l0.1-0.1c0.2-0.3,0.4-0.5,0.5-0.8c0.5-0.8,0.9-1.8,1.2-2.7
	c0.1-0.5,0.2-0.9,0.3-1.4c0.1-0.3,0.1-0.5,0.1-0.7c0-0.4,0-0.8,0-1.2c0-0.1,0-0.1,0-0.1c0-0.1,0-0.1,0-0.1c0-0.1,0-0.3,0-0.4
	c0-0.3-0.1-0.6-0.1-0.9c0-0.2-0.1-0.3-0.1-0.4c-0.1-0.5-0.3-1-0.4-1.5c-0.1-0.1-0.1-0.2-0.1-0.3C28.1,5.6,28,5.3,27.8,5l-0.1-0.1
	l0,0c-0.1-0.3-0.3-0.5-0.4-0.7l0,0l-0.1-0.1v0l-0.1-0.1l0,0c-0.3-0.5-0.7-1-1-1.5C26,2.3,25.7,2,25.5,1.7c-0.3-0.2-0.5-0.5-0.7-0.7
	L25,1.1l0.2,0.1l0.2,0.1h0.1l0.4,0.2h0.1h0.1L26,1.4l0,0h0.1h0.1l0.1,0.1h0.1l0.1,0.1l0.1,0.1l0.2,0.1l0,0l0.2,0.1l0,0L27,1.9l0,0
	l0.1,0.1L27.2,2h0.1l0-0.1l0,0L27.3,2L27.5,2l0.2,0.1h0.1l0,0l0.2,0.1l0,0L28,2.3l0,0l0.2,0.1l0.2,0.1l0,0h0.1l0.1,0.1l0.1,0.1l0,0
	l0.1,0.1l0.1,0.1l0,0l0,0l0.1,0.1l0,0l0,0l0.1,0.1l0,0l0,0l0.1,0.1l0,0l0.1,0.1l0,0L29.1,3l0.2,0.2l0.1,0.1l0.2,0.2l0.1,0.1l0.1,0.1
	l0.1,0.1l0.1,0.1L30,3.8h0.1l0.1,0.1l0.2,0.2l0.3,0.3l0.1,0.2l0.1,0.2l0,0L31,4.9L31.1,5l0.3,0.3l0.1,0.2l0.1,0.1L31.8,6l0.1,0.1
	l0.1,0.1L32,6.2l0.1,0.2v0.1v0.1l0.1,0.2v0.1c0.1,0.1,0.1,0.2,0.2,0.4l0.1,0.1v0.1l0.1,0.1l0.1,0.1l0,0l0.1,0.1v0.1l0.1,0.1v0.1v0.1
	l0.1,0.1l0.1,0.1l0.1,0.2L32.9,8v0.1L33,8.3v0.1l0,0L33,8.5l0.1,0.1v0.1l0.1,0.2l0.1,0.1V9l0,0V9v0.1l0.1,0.2v0.1l0,0v0.1l0,0
	l0.1,0.2l0,0l0.1,0.2v0.1v0.1v0.1V10v0.1c0,0.1,0,0.1,0.1,0.2v0c0,0.1,0,0.2,0.1,0.2v0.1c0.1,0.2,0.1,0.4,0.1,0.5l0,0v0.1l0,0
	c0,0.1,0,0.2,0,0.2C33.6,11.7,33.8,12.1,33.8,12.4z"/>
<path class="st1" d="M17.6,3c-4.2,1.9-6.7,6.4-5.9,11c0.1-4.6,3-8.6,7.4-9.9C18.6,3.7,18.2,3.3,17.6,3z"/>
<path class="st4" d="M19.4,0.8C14.5,2,11.1,6.2,11,11.2c0.9-4.8,4.9-8.4,9.7-9C20.2,1.7,19.8,1.2,19.4,0.8z"/>
<text transform="matrix(1 0 0 1 12.1167 15.1743)" class="st5 st6 st7">NEM</text>
<text transform="matrix(1 0 0 1 37.9502 17.793)" class="st8 st6 st9">HOA LỆ </text>
</svg>
