<?xml version="1.0" encoding="utf-8"?>
<!-- Generator: Adobe Illustrator 22.0.0, SVG Export Plug-In . SVG Version: 6.00 Build 0)  -->
<svg version="1.1" id="Layer_1" xmlns="http://www.w3.org/2000/svg" xmlns:xlink="http://www.w3.org/1999/xlink" x="0px" y="0px"
	 viewBox="0 0 120 25" style="enable-background:new 0 0 120 25;" xml:space="preserve">
<style type="text/css">
	.st0{fill:#FFFFFF;}
	.st1{opacity:0.2;fill:#01A0A4;enable-background:new    ;}
	.st2{fill:#01A0A4;}
	.st3{fill-opacity:0;}
	.st4{opacity:0.2;fill:#FFFFFF;enable-background:new    ;}
	.st5{fill:#FF4500;}
	.st6{font-family:'AmericanTypewriter-Bold';}
	.st7{font-size:8.0827px;}
	.st8{fill:#20C997;}
	.st9{font-size:17.2432px;}
</style>
<title>lgTC</title>
<path class="st0" d="M32.4,12.7c0,0.1,0,0.2,0,0.3s0,0.2,0,0.3c0,0.1,0,0.2,0,0.3c0,0.1,0,0.1,0,0.1c0,0.1,0,0.1,0,0.2s0,0,0,0.1
	c0,0.1,0,0.2,0,0.2s0,0.1,0,0.1c0,0.1,0,0.1,0,0.2c0,0.1,0,0.1,0,0.1s0,0.2-0.1,0.2v0.1c0,0.1,0,0.1-0.1,0.2v0.1l-0.1,0.2v0.1
	c0,0.1,0,0.1-0.1,0.2c-0.1,0.1,0,0.1,0,0.1s0,0.1,0,0.1l-0.1,0.2c-0.1,0.3-0.2,0.6-0.3,0.9l0,0.1l-0.1,0.1L31.7,17l-0.1,0.2
	l-0.1,0.1l-0.1,0.1l-0.1,0.1l-0.1,0.1l-0.1,0.1l-0.1,0.2l-0.1,0.1l-0.1,0.2l-0.1,0.1l-0.1,0.2L31,18.6c-0.1,0.1-0.2,0.2-0.2,0.4
	c-0.1,0.2-0.3,0.4-0.4,0.6l-0.1,0.1l-0.1,0.1l-0.1,0.2L30,20l-0.1,0.2l0,0.1l-0.3,0.3c-0.2,0.2-0.4,0.4-0.5,0.6l-0.1,0.1l-0.1,0.1
	l-0.1,0.1c-1.1,1-2.3,1.7-3.7,2.2l-0.4,0.2l-0.1,0.1l-0.4,0.1L24.1,24L23.9,24l-0.2,0.1l-0.2,0.1l-0.2,0.1l-0.3,0.1l-0.2,0.1h-0.1
	h-0.1l-0.2,0.1h-0.1l-0.3,0.1c-0.6,0.1-1.2,0.2-1.9,0.2h-0.5h-0.2h-0.3h-0.1h-0.1h-0.2l0,0H19h-0.1h-0.1h-0.2h-0.1l0,0l-0.2-0.1
	h-0.1l-0.2-0.1H18l-0.2-0.1l-0.2-0.1h-0.1h-0.1l-0.2-0.1h-0.1h-0.1l-0.1-0.1h-0.1H17l-0.3-0.3h-0.1l-0.1-0.1h-0.1h-0.1h-0.1l-0.1,0
	l0,0l-0.2-0.1H16h-0.1h-0.1h-0.1l0,0h-0.1h-0.1l-0.1-0.1l-0.1-0.1h-0.1l-0.2-0.3h-0.1l0,0l-0.2-0.1l-0.1-0.1L15,23.2H15l-0.1-0.1
	h-0.1h-0.1l0,0l-0.1-0.1L14.5,23l0,0l-0.2-0.1l0,0l-0.2-0.1l0,0l-0.1-0.1l0,0.1l-0.1-0.1L14,22.7H14l-0.2-0.1l-0.1-0.1l-0.1-0.1
	l-0.1,0l0,0l-0.1-0.1l-0.1-0.1l-0.1-0.1h-0.1l-0.1-0.1l-0.1-0.1L13,22l-0.1-0.1l-0.1-0.1l-0.1-0.1h-0.1l0,0l-0.2-0.2l-0.1-0.1
	l-0.1-0.1l-0.2-0.2l-0.1-0.1L12,21.1L11.8,21l-0.3-0.3l-0.1-0.1l-0.1-0.1l-0.3-0.3l0,0L11,20.1l-0.1-0.2l-0.1-0.1l-0.1-0.1l-0.1-0.1
	l-0.1-0.1l-0.1-0.2l-0.1-0.1v-0.1c-0.1-0.2-0.2-0.3-0.3-0.5L10,18.5l-0.1-0.1c-0.1-0.2-0.2-0.3-0.3-0.5l-0.1-0.2l-0.1-0.1l0,0v-0.1
	l-0.1-0.2l-0.1-0.2l-0.1-0.1L9.2,17l-0.1-0.1L9,16.6l0,0v-0.2L9,16.3c-0.2-0.5-0.3-1.1-0.4-1.7v-0.1v-0.1c0-0.1-0.1-0.2-0.1-0.3V14
	c0-0.1,0-0.1,0-0.2l0,0c-0.1-0.4-0.1-0.7-0.1-1.1H8.4v-0.1l0,0c0-0.1,0-0.3,0-0.4c0-0.1,0-0.1,0-0.2c0-0.1,0-0.2,0-0.3
	c0.1-1.2,0.4-2.4,0.9-3.6c0.3-0.8,0.8-1.6,1.3-2.3c0.2-0.2,0.3-0.5,0.5-0.7l0,0l0.1-0.1L11.3,5c0.3-0.3,0.5-0.5,0.8-0.8l0,0
	c0.3-0.3,0.6-0.5,0.9-0.8l0,0c0.4-0.3,0.9-0.6,1.3-0.9c0.3-0.2,0.6-0.4,1-0.5c0.2-0.1,0.4-0.2,0.6-0.3L16,1.6h0.1h0.1l0.3-0.2
	l0.4-0.1L17,1.3l0.3-0.1l0.2-0.1l0.2-0.1l0.1-0.1L18,1c0.2-0.1,0.4-0.1,0.6-0.1c0.6-0.1,1.2-0.2,1.9-0.2H21h0.2h0.2h0.2l0,0h0.1l0,0
	h0.1l0,0h0.1H22h0.1h0.1h0.2l0,0h0.1l0.2,0.1l0.2,0.1l0.2,0.1h0.1L23.1,1h0.1h0.1h0.1L23.6,1l0.2,0.1h0.1l0,0L24,1.1l0.2,0.1h0.1
	h0.1l0.1,0l0,0h0.1h0.1l0.1,0.1l0,0h0.1h0.1l0.1,0.1h0.1h0.1l0.1,0.1l0,0l0.2,0.1l0,0l0.2,0.1l0,0l0,0l0.1,0.1l0,0l0.1,0.1h0.1
	l0.1,0.1h0.1l0,0l0.1,0.1l0.1,0.1L26,1.7H26l0,0l0.2,0.1l0,0l0.2,0.1l0,0L26.6,2l0.1,0.1h0.1l0,0h0.1l0.1,0.1L27,2.3l0,0L27,2.3
	l0.1,0.1l0,0l0,0l0.1,0.1l0,0l0,0l0.1,0.1l0,0l0,0l0,0h0.1l0,0l0.1,0.1l0,0l0.2,0.1l0.2,0.2L27.9,3L28,3.1h0.1l0.1,0.1l0.1,0.1
	l0.1,0.1l0.1,0.1l0.1,0.1l0.1,0.1l0.2,0.2l0.3,0.3l0.1,0.2l0.1,0.2l0,0l0.1,0.2l0.1,0.2l0.3,0.3L30,5.3L30,5.3l0.4,0.9l0.1,0.1l0,0
	l0.1,0.1l0.1,0.1l0.1,0.2v0.1v0.1l0.1,0.2v0.1C30.9,7,30.9,7.1,31,7.2l0.1,0.1v0.1l0.1,0.1l0.1,0.1l0,0l0.1,0.1v0.1l0.1,0.1l0.1,0.1
	v0.1l0.1,0.1L31.5,8l0.1,0.2l0.1,0.1v0.1l0.1,0.2v0.1l0,0l0.1,0.2l0.1,0.1v0.1l0.1,0.2l0.1,0.1v0.1l0,0v0.1v0.1l0.1,0.2v0.1l0,0v0.1
	l0,0L32,9.8l0,0l0.1,0.2V10v0.1v0.1v0.1v0.1v0.1c0,0.1,0,0.1,0.1,0.2v0c0,0.1,0,0.2,0.1,0.2v0.1c0.1,0.2,0.1,0.4,0.1,0.5l0,0v0.1
	l0,0c0,0.1,0,0.2,0,0.2C32.3,12,32.4,12.4,32.4,12.7z"/>
<path class="st1" d="M22.5,13.3c-0.3-0.1-0.5-0.2-0.7-0.4c-0.1-0.1-0.1-0.4-0.2-0.4c-0.1-0.1-0.3,0.1-0.4,0.1
	c-0.1-0.3-0.3-0.5-0.6-0.2c0.1-0.1,0.1-0.3,0-0.4c-0.1-0.2-0.3-0.1-0.4-0.1c-0.3,0-0.4-0.2-0.6-0.5c-0.2-0.3-0.5-0.1-0.9-0.1
	c-0.4,0-0.8,0.1-1.2,0.2c-0.2,0.1-0.3,0.3-0.4,0.1c-0.1-0.2,0.1-0.3-0.2-0.4c-0.4-0.2-0.8,0.1-1.2-0.1c-0.2-0.1-0.3-0.2-0.1-0.4
	c0.1-0.2,0.2-0.3,0.3-0.5c0.1-0.2,0.2-0.4,0.3-0.5c0.2-0.2,0.1-0.3,0.1-0.5c0.5-0.3,1.2,0.1,1.3-0.8c0-0.1-0.1-0.4-0.1-0.5
	c0.1-0.1,0.4,0,0.5,0c0.4,0,0.8-0.1,1.1-0.2c0.3-0.2,0.6-0.2,1-0.2c0.3,0.1,0.4,0.3,0.5,0.6c0.2,0.3,0.4,0.5,0.6,0.6
	c0.2,0.1,0.3,0.2,0.4,0.4c0,0.2,0.1,0.3,0.2,0.5c0.2-0.2,0.5-0.1,0.8-0.2c0.2-0.1,0.1-0.5,0-0.7c-0.1-0.3-0.4-0.4-0.5-0.6
	C22.1,7.8,22,7.6,22,7.4c0.1-0.2,0.1-0.1,0.3-0.2c0.3-0.1,0.4,0.1,0.6,0.3c0.1,0.1,0.2,0.1,0.3,0.2s0.1,0.3,0.2,0.4
	c0.1,0.1,0.4,0.3,0.5,0.5c0.1,0.2-0.1,0.3-0.1,0.5s0.1,0.3,0.1,0.4c0.2,0,0.4,0.3,0.5,0.3c0.1,0.1,0.3,0.1,0.4,0.2
	c0.1,0.1,0.1,0.2,0.1,0.4s0.1,0.2,0.2,0.3c0.1,0.3,0.2,0.6,0.3,0.9c0.2,0.3,0.5,0.5,0.6,0.9c0.3,0.9-0.9,1.1-1.6,1.2
	c-0.3,0.1-0.6,0.1-1,0.1C22.9,13.6,22.9,13.3,22.5,13.3z"/>
<path class="st2" d="M23,17.4L23,17.4L23,17.4z"/>
<path class="st2" d="M10.3,18.8L10.3,18.8L10.3,18.8z"/>
<path class="st2" d="M24.2,17.5L24.2,17.5L24.2,17.5z"/>
<path class="st2" d="M24.5,17L24.5,17L24.5,17z"/>
<path class="st2" d="M24.3,15.9L24.3,15.9L24.3,15.9z"/>
<path class="st2" d="M24.2,16.7L24.2,16.7L24.2,16.7z"/>
<path class="st2" d="M24,16.9L24,16.9L24,16.9z"/>
<path class="st2" d="M24.3,15.9L24.3,15.9L24.3,15.9z"/>
<path class="st1" d="M15.9,1.7h0.1c0.1,0,0.2,0,0.2-0.1c0.1-0.1,0.1-0.1,0.2-0.1c0.1,0,0.1-0.1,0.2-0.1c0.1,0,0.1,0,0.2,0.1l0.1,0.1
	C17,1.6,17,1.7,17,1.7h0.1c0.1,0,0.1,0,0.1,0h0.2c0.1,0,0.2,0,0.3-0.1c0.1,0,0.2,0,0.2,0H18l0.2,0.1l0.1,0.1l0.1,0.1
	c0.1,0.1,0.2,0.1,0.3,0c0.1,0,0.1-0.1,0.1-0.1h0.2c0.1,0,0.2-0.1,0.3-0.1c-0.1,0-0.1-0.1-0.1-0.2s0,0,0-0.1c0.1,0,0.1-0.1,0.1-0.1
	c0.1,0,0.2,0,0.3,0l0.2,0.1h0.2c0.2,0,0.3,0.1,0.3,0.2c0,0.1,0.1,0.1,0.1,0.1s0,0.1,0.1,0.1c0,0.1,0,0.2,0.1,0.3
	c0.1,0.1,0.1,0.2,0.1,0.2c0.1,0,0.1,0,0.1,0c0.1,0,0.1-0.1,0.2-0.1c0.1,0,0.2,0.2,0.4,0.2c0.1,0,0.2-0.1,0.3-0.1h0.2
	c0.1,0,0.1,0,0.2,0s0.1,0,0.1-0.1c0.1-0.1,0-0.1,0-0.1c0-0.1,0-0.1,0-0.2s0.1-0.1,0.2-0.1s0-0.1,0-0.1V1.8c0,0,0,0,0.1,0
	c0.2,0,0.3,0.1,0.4,0.1c0.1,0,0.2,0.1,0.3,0.1C22.8,1.9,22.9,2,23,2c0.1,0.1,0.1,0.1,0.2,0.1l0.1,0.2c0.1,0.1,0.1,0.1,0.1,0.2
	c0.1,0.1,0.2,0.2,0.2,0.2c0.1,0.1,0.3,0.1,0.4,0.1l0.2-0.1h0.2c0.1,0,0.2,0,0.3,0c0.1,0,0.2,0.1,0.2,0.1L25,2.8
	c0.1,0,0.1,0.1,0.2,0.1c0.1,0,0.1,0.1,0.2,0.1c0.1,0.1,0.2,0.2,0.3,0.2h0.1h0.1h0.1H26l0.5,0.1h-0.1c0.1-0.1,0.2-0.1,0.3-0.1
	c0.1,0,0.3,0,0.4,0.1c0.1,0,0.2,0.1,0.2,0.1c0,0.1,0.1,0.1,0.1,0.1l0.1,0.1c0.1,0,0.1,0.1,0.2,0.1h0.1V3.4V3.4l-0.1-0.1
	c0-0.1-0.1-0.1,0-0.1V3.1C24.3,0.6,19.9,0.1,15.9,1.7C15.9,1.7,15.9,1.7,15.9,1.7z"/>
<path class="st2" d="M27.9,10.7L27.9,10.7L27.9,10.7z"/>
<path class="st2" d="M28.7,18.3L28.7,18.3L28.7,18.3z"/>
<path class="st2" d="M27.2,17.6L27.2,17.6L27.2,17.6z"/>
<polygon class="st2" points="23.2,17.5 23.2,17.5 23.2,17.5 "/>
<path class="st1" d="M25.3,17L25.3,17z M25.3,17L25.3,17z M25.3,17L25.3,17z M32.4,11.7c0-0.1,0-0.2,0-0.2l0,0v-0.1l0,0
	c0-0.2-0.1-0.4-0.1-0.5v-0.1c0-0.1,0-0.2-0.1-0.2v-0.1c0-0.1,0-0.1-0.1-0.2v-0.1v-0.1v-0.1L32.1,10V10V9.9l-0.1-0.2l0,0L32,9.5l0,0
	l-0.1-0.2l-0.1-0.1V9.2V9.2l0,0V9.1V9l-0.1-0.2V8.8l-0.1-0.1l-0.1-0.2l0,0V8.5l-0.2-0.2l-0.1-0.1L31.5,8l-0.1-0.1V7.8V7.7l-0.1-0.1
	l-0.1-0.1l-0.1-0.1l0,0l-0.1-0.1l-0.1-0.1V7.2L31,7.2C31,7.1,30.9,7,30.8,6.8v0l-0.1-0.2V6.6V6.5l-0.1-0.2l-0.1-0.1l-0.1-0.1l0,0
	v0.1l0,0c0,0,0,0,0,0.1s0,0.1-0.1,0.1c0,0,0,0.1-0.1,0.1c0,0,0,0-0.1,0c-0.1,0,0,0.1-0.1,0.1l-0.1,0.1c-0.1,0.1-0.1,0.1-0.1,0.1
	c-0.1,0-0.1,0-0.2,0s-0.1,0-0.1,0c-0.1,0-0.1-0.1-0.2-0.1h-0.1c-0.1,0-0.2,0-0.2,0.1c0,0,0,0.1-0.1,0.1s-0.1,0-0.1-0.1
	c-0.1,0-0.1,0-0.2,0c-0.1,0,0,0.1-0.1,0.1c0,0.1,0,0.1,0,0.2c0.1,0,0.1,0.1,0.1,0.1L29.3,7C29.3,7,29.3,7,29.4,7c0.1,0,0,0,0,0.1
	c0,0.1,0,0.1,0,0.2c0,0.1,0,0.1,0,0.2c0.1,0.1,0.2,0.2,0.2,0.3c0,0.1,0,0.1-0.1,0.1c-0.1,0-0.1,0-0.1,0.1s0,0.1,0,0.1
	c0,0.1,0,0.1,0,0.2c0,0.1-0.1,0.1-0.1,0.1c0,0.1,0,0.1,0,0.1c0,0.1,0,0.1,0,0.1s-0.1,0.2-0.2,0.2c-0.1,0-0.1-0.1-0.1-0.1
	c0-0.1,0-0.1-0.1-0.1L29,8.3c0,0-0.1-0.1-0.1-0.1l-0.1-0.1L28.7,8c-0.1-0.1-0.2-0.2-0.3-0.2c-0.1-0.1-0.1-0.2-0.1-0.2
	c0-0.1-0.1-0.2-0.1-0.2c-0.1-0.1-0.1-0.1-0.1-0.1c-0.1-0.1-0.1-0.1-0.1-0.2c0-0.1,0-0.1,0.1-0.1s0.1-0.1,0.1-0.1
	c0-0.1,0.1-0.2,0.1-0.2s0.1-0.1,0.1-0.1c0.1-0.1,0.1-0.1,0.1-0.1c0.1-0.1,0.1-0.1,0.1-0.2c0-0.1,0-0.1,0-0.2c0-0.1-0.1-0.1-0.1-0.2
	c-0.1-0.1,0-0.1,0-0.1s0,0.1,0,0.2s0,0.1-0.1,0.1s-0.1,0-0.1,0l-0.1,0.1c0,0,0,0.1-0.1,0.1s-0.1,0-0.1,0C28,6.3,28.1,6.1,28,6.1
	c-0.1,0-0.1-0.1-0.2-0.1s-0.1,0-0.1,0.1c-0.1,0.1-0.2,0.1-0.2,0.2c-0.1,0.1-0.1,0.1-0.1,0.1c0,0.1,0.1,0.1,0.1,0.1
	c0.1,0,0.1,0.1,0.1,0.1s-0.1,0.1-0.1,0.1c-0.1,0-0.2,0-0.3,0h-0.1c-0.1,0-0.1-0.1-0.2-0.1H27h-0.1h-0.1c-0.1,0-0.1-0.1-0.2-0.1
	c-0.1-0.1-0.1-0.1-0.1-0.1c-0.1,0-0.1,0-0.1,0c0,0-0.1,0-0.1,0c-0.1,0.1-0.2,0.1-0.3,0.1l-0.2-0.1c-0.1,0-0.2-0.1-0.3-0.1
	c-0.1,0-0.2,0-0.2,0c-0.1,0.1-0.2,0.1-0.2,0.2c-0.1,0.1-0.1,0.1-0.1,0.2c0,0.1,0,0.1-0.1,0.1C25.1,6.8,25,6.9,25,6.9
	c-0.1,0-0.1,0.1-0.1,0.1v0.1c0,0,0.2,0.1,0.2,0.1l0,0c0.1,0,0.1,0.1,0.2,0.1c0,0,0.1,0.1,0.1,0.1h0.1c0,0,0.1-0.1,0.1-0.1
	c0,0,0.1,0,0.1,0c0.1,0,0.2,0.1,0.2,0.1L26,7.3l0.2,0.1c0.1,0,0.1,0.1,0.2,0.1s0,0,0-0.1c0-0.1,0-0.1,0-0.1s0-0.1,0.1-0.1
	s0.1,0,0.1,0.1l0.1,0.1l0.1,0.1c0.1,0.1,0.1,0.1,0.1,0.1c0,0.1,0,0.1,0.1,0.1c0,0.1,0,0.1,0,0.1c0,0.1-0.1,0.1-0.1,0.1
	c-0.1,0.1-0.1,0.2,0,0.2c0.1,0.1,0.1,0.1,0.1,0.2s0.1,0.1,0.1,0.1s0,0.1,0,0.1c0,0.1-0.1,0.1-0.1,0.1v0.1c0,0,0.1,0,0.1,0.1
	s-0.1,0.1-0.1,0.1c0,0.1,0,0.1-0.1,0.1L26.6,9c-0.1,0-0.1,0.1-0.1,0.1c-0.1,0.1-0.1,0.1-0.1,0.1c-0.1,0.1-0.1,0.1-0.1,0.2
	c0,0.1-0.1,0.2-0.2,0.2c-0.1-0.1-0.2-0.1-0.3-0.1c-0.1,0-0.1,0.1-0.1,0.1c0,0.1,0,0.1,0,0.1v0.1c0,0.1,0,0.1-0.1,0.1s-0.2,0-0.2,0.1
	c0,0.1,0.1,0.1,0.1,0.1c0.1,0.1,0.2,0.1,0.2,0.2l0.1,0.1c0.1,0.1,0.1,0.1,0.1,0.1c0.1,0.1,0.1,0.1,0.1,0.2c0,0.1,0,0.1-0.1,0.2
	c-0.1,0.1-0.2,0.1-0.3,0.1l0,0c-0.1,0-0.1,0-0.1-0.1c0,0,0-0.1,0-0.1c0-0.1-0.1-0.1-0.1-0.1c-0.1,0-0.1-0.1-0.1-0.1
	c0-0.1,0-0.1,0-0.1c0-0.1,0-0.1,0-0.1l-0.1-0.1l-0.1-0.1c-0.1,0-0.1,0-0.1-0.1c-0.1-0.1-0.1-0.1-0.1-0.2c0-0.1,0.1-0.1,0-0.1
	S25.1,9.6,25,9.6c-0.1,0-0.2,0-0.3,0c-0.1,0-0.1,0-0.1,0.1c-0.1,0-0.1,0.1-0.1,0.1c-0.1,0-0.1,0-0.2,0l0,0c-0.1,0-0.1-0.1,0-0.1
	c0-0.1,0.1-0.1,0.1-0.1l0,0c0-0.1-0.1-0.2-0.1-0.2V9.4h-0.1h-0.5h-0.2c0,0,0,0-0.1,0.1c0,0.1-0.1,0.1-0.1,0.1
	c-0.1,0.1-0.1,0.1-0.1,0.1c-0.1,0-0.1,0-0.2,0c0,0.1,0.1,0.1,0.1,0.1h0.1h0.1c0.1,0,0.1,0.1,0.1,0.1c0,0.1,0.1,0.1,0.1,0.1l0,0l0,0
	h0.1c0.1,0,0.1,0,0.1,0c0.1,0,0.1,0,0.1,0h0.2c0.1,0,0.1,0,0.2,0.1h0.1c0.1,0,0.1,0.1,0.1,0.1s0,0.1-0.1,0.1c-0.1,0-0.2,0-0.2,0
	c-0.1,0-0.2,0.1-0.2,0.2c0,0.1,0.1,0.1,0.2,0.2c0.1,0.1,0.2-0.1,0.2,0c0,0.1,0,0.1,0.1,0.2c0.1,0.1,0.2,0.2,0.2,0.3
	c0,0.1,0.1,0.1,0.1,0.1v0.1c0,0,0.1,0.1,0.2,0.1s0.1,0.1,0.1,0.1c0,0.1-0.1,0.1-0.1,0.2c0,0.1,0,0.1-0.1,0.1c0,0.1,0,0.1,0,0.1
	c0,0.1,0,0.1-0.1,0.1c-0.1,0-0.1,0-0.1,0h-0.1c-0.1,0.1-0.1,0.2-0.1,0.2c0,0.1-0.1,0.2-0.2,0.2h-0.1c0,0,0,0-0.1,0.1l-0.1,0.1
	c-0.1,0.1-0.1,0.1-0.2,0.1c-0.1,0.1-0.1,0.1-0.2,0.1l0,0c-0.1,0-0.2,0.1-0.2,0.1c-0.1,0-0.1,0.1-0.1,0.1c-0.1,0-0.1,0.1-0.1,0
	c-0.1,0-0.1,0-0.1,0h-0.1c-0.1,0-0.2,0-0.2,0H23c-0.1,0-0.2,0-0.3,0.1l-0.1,0.1c0,0,0,0.1-0.1,0.1c-0.1,0-0.1-0.1-0.1-0.1
	c0-0.1,0-0.1-0.1-0.2c-0.1-0.1-0.1-0.1-0.2-0.1h-0.1h-0.1c-0.1,0-0.1,0-0.1,0l-0.1,0.1c0,0.1-0.1,0.1-0.1,0.1
	c-0.1,0.1-0.1,0.1-0.1,0.1l-0.1,0.1v0.1v0.1c0,0.1,0,0.1,0.1,0.1c0.1,0.1,0.1,0.1,0.1,0.2v0.1v0.1c0,0.1,0,0.1,0.1,0.1
	c0,0,0.1,0.1,0.1,0.1l0.1,0.1l0.1,0.1l0.1,0.1c0.1,0.1,0.2,0.1,0.2,0.2c0.1,0.1,0.1,0.2,0.1,0.2c0.1,0.1,0.1,0.2,0.1,0.3
	c0,0.1-0.2,0.2-0.2,0.3h0.1l-0.1,0.1c-0.1,0-0.1,0-0.1,0h-0.1c-0.1,0-0.2,0-0.3,0c-0.1,0-0.1,0.1-0.1,0.1c-0.1,0.1-0.1,0.1-0.2,0.1
	c-0.1,0.1-0.1,0.1-0.1,0.1s-0.1-0.1-0.1-0.1l-0.1-0.1c0-0.1,0-0.1-0.1-0.1c-0.1,0-0.1-0.1-0.1-0.1c-0.1,0-0.1-0.1-0.2-0.1
	s0-0.1-0.1-0.1C21,14.1,21,14.1,20.8,14h-0.1c-0.1,0-0.1,0-0.1-0.1s-0.1-0.1-0.1-0.1c-0.1-0.1-0.2,0-0.2,0.1s0,0.2,0,0.2
	c0,0.1-0.1,0.1-0.1,0.2c0,0,0,0.1-0.1,0.1l0,0c0,0,0,0.1,0.1,0.2l0,0c0.1,0.1,0.1,0.1,0.1,0.1c0,0.1,0.1,0.1,0.1,0.2
	c0,0.1,0.1,0.1,0.2,0.2c0.1,0.1,0.1,0.1,0.1,0.1c0.1,0,0.1,0.1,0.1,0.1c0.1,0,0.1,0.1,0.1,0.1c0,0,0.1,0.1,0.1,0.1s0.1,0.1,0.1,0.1
	v0.1c0,0.1,0,0.1,0,0.2c0,0.1-0.1,0.1,0,0.2c0.1,0.1,0.1,0.1,0.1,0.1c0,0,0.1,0.1,0.1,0.1v0.1l0,0c0,0.1,0,0.1,0,0.1
	c-0.1,0-0.1-0.1-0.1-0.1l0,0c-0.1,0-0.2-0.1-0.2-0.1c-0.1,0-0.1-0.1-0.1-0.1c-0.1,0-0.1-0.1-0.1-0.1l-0.1,0.1c0,0-0.1-0.1-0.1-0.1
	l-0.1-0.1c-0.1-0.1-0.1-0.1-0.1-0.1c0-0.1-0.1-0.1-0.1-0.1l-0.1-0.1c0-0.1,0-0.1,0-0.1c0-0.1,0-0.1,0-0.1s-0.1-0.2-0.1-0.2L20.4,15
	l-0.1-0.1h-0.1l0,0c0,0-0.1-0.1-0.1-0.1c0,0,0-0.1-0.1-0.1v-0.1c0,0,0-0.1-0.1-0.1c0-0.1,0-0.1,0-0.1c0-0.1,0-0.1,0-0.1s0-0.1,0-0.1
	c0,0,0-0.1,0.1-0.1v-0.1v-0.1c0-0.1,0-0.1,0-0.2l-0.1-0.1v-0.1l0-0.1v-0.1c0-0.1,0-0.1-0.1-0.1c0-0.1-0.1-0.1-0.1-0.1
	c0-0.1-0.1-0.2-0.1-0.2c-0.1,0-0.1,0-0.1,0s-0.1,0-0.1,0.1c-0.1,0-0.1,0.1-0.2,0.1s-0.1,0-0.1-0.1c-0.1-0.1-0.1-0.2-0.1-0.2
	c0-0.1-0.1-0.1-0.1-0.2c-0.1-0.1-0.1-0.1-0.1-0.2c0-0.1,0-0.1,0-0.1l-0.1-0.1h-0.1c-0.1,0-0.1-0.1-0.1-0.1c-0.1-0.1-0.1-0.1-0.1-0.1
	c0-0.1-0.1-0.1-0.1-0.1s0-0.1,0-0.1c-0.1-0.1-0.2-0.1-0.3-0.1c-0.1,0-0.1,0.1-0.1,0.1c-0.1,0-0.1,0.1-0.2,0.1c-0.1,0-0.2,0-0.3,0
	h-0.1c0,0-0.1,0-0.1,0s0,0.1,0,0.1s0,0.1-0.1,0.1c-0.1,0.1-0.1,0.1-0.2,0.1c-0.1,0-0.1,0-0.2,0.1v0.1c0,0,0,0.1-0.1,0.1l0.1,0.1
	c-0.1,0.1-0.2,0.1-0.2,0.2C17.1,13,17,13,17,13l0,0l0,0c0,0.1-0.1,0.1-0.1,0.1c-0.1,0.1-0.1,0.1-0.1,0.1c-0.1,0-0.2,0-0.2,0
	c-0.1,0-0.1,0.1-0.1,0.1v0.1c0,0,0,0,0,0.1l0,0v0.1v0.1c0,0-0.1,0.1,0,0.1c-0.1,0.2-0.1,0.3-0.1,0.5s0,0.2-0.2,0.3
	c-0.1,0-0.1,0.1-0.1,0.1c-0.1,0.1,0,0.2-0.2,0.2c-0.2,0.1-0.1-0.1-0.1-0.1l-0.1-0.1c-0.1,0-0.2-0.1-0.2-0.1
	c-0.2-0.2-0.3-0.4-0.4-0.6c-0.1-0.1-0.1-0.2-0.2-0.3c-0.1-0.2-0.1-0.4-0.1-0.5c-0.1-0.2-0.1-0.5-0.4-0.5c-0.2,0-0.4,0-0.5-0.1l0,0
	c-0.1-0.1-0.1-0.1-0.1-0.2c0-0.1,0-0.2-0.1-0.2c-0.2-0.2-0.3-0.3-0.5-0.4c-0.3-0.1-0.5-0.1-0.8,0c-0.2,0.1-0.4,0.1-0.6,0
	c-0.2-0.1-0.3-0.1-0.4-0.2c-0.1,0-0.2,0-0.3,0s-0.3-0.1-0.4-0.1c-0.1-0.1-0.3-0.1-0.4-0.1h-0.3h-0.2l0,0H10c-0.1,0-0.2-0.1-0.2-0.1
	H9.7H9.6v0.1v0.1l0.1,0.1l0.1,0.1l0,0c0.1,0,0.1,0.1,0.2,0.2l0.1,0.1c0.2,0.2,0.5-0.1,0.8-0.2c0.1-0.1,0.1-0.1,0.2,0
	c0.1,0,0.1,0.1,0.1,0.1c0.1,0.1,0.3,0.2,0.4,0.3c0.1,0.1,0.3,0.1,0.3,0.2s-0.1,0.3-0.2,0.3s-0.2,0.1-0.2,0.2
	c-0.1,0.1-0.1,0.1-0.1,0.2c-0.1,0.1-0.1,0.1-0.1,0.2c0,0.1-0.1,0.2-0.3,0.2c-0.1,0-0.2,0.1-0.3,0.2c-0.1,0.1-0.1,0.2-0.2,0.2
	c-0.1,0.1-0.1,0.2-0.3,0.3c-0.2,0-0.3,0-0.4,0.1l-0.1,0.1l-0.1-0.1C9.4,14,9.2,14,8.9,14.1H8.8l0,0c-0.1,0-0.1,0-0.2,0
	c-0.1,0-0.1-0.2-0.1-0.2s-0.1-0.1-0.1-0.2l0,0c0,0.1,0,0.1,0,0.2v0.2c0,0.1,0.1,0.2,0.1,0.3v0.1v0.1c0.1,0.1,0.1,0,0.2,0
	c0.2,0,0.3-0.1,0.4-0.1c0.1-0.1,0.2-0.1,0.3-0.2l0.1-0.1l0,0c0.1-0.1,0.2-0.1,0.3-0.1l0.1-0.1c0.1-0.1,0.2,0.1,0.2,0.1
	c0,0.1,0,0.1-0.1,0.2l0,0c0,0.1-0.1,0.2-0.1,0.3C10,14.8,10,14.9,9.9,15c-0.1,0.1,0.1,0.3,0,0.4c-0.1,0.2-0.3,0.3-0.4,0.5
	c-0.1,0.2-0.2,0.3-0.4,0.4l0,0L9,16.4l0,0L9,16.5l0.1,0.1l0,0l0.1,0.2l0.1,0.1l0,0.2l0.1,0.1l0.1,0.2l0.1,0.2l0.1,0.1l0,0l0.1,0.1
	l0.1,0.2c0.1,0.2,0.2,0.3,0.3,0.5l0.1,0.1l0.1,0.2l0,0h0.1l0,0c0,0,0-0.1,0.1-0.1c0.1,0,0,0,0,0l0,0c0.1,0.1,0.1,0.1,0.1,0.1h0.1
	c0.1,0,0,0.1,0.1,0.1l0,0c0.1,0.1,0,0.1,0.1,0.1v0.1c-0.1,0.1-0.1,0.1-0.1,0.1l0,0l0,0v0.1l0.1,0.1l0.1,0.2l0.1,0.1l0.1,0.1l0.1,0.1
	l0.1,0.1l0.1,0.2l0.1,0.1l0,0l0.2,0.3l0.1,0.1l0.1,0.1l0.3,0.3l0.1,0.1l0.1,0.1l0.1,0.1l0.2,0.2l0.1,0.1l0.1,0.1l0.2,0.2l0,0
	l0.1,0.1h0.1l0.1,0.1l0.1,0.1L13,22l0.1,0.1l0.1,0.1h0.1l0.1,0.1l0.1,0.1l0.1,0.1h0.1l0.1,0.1l0,0h0.1l0.1,0.1l0.1,0.1h0.1l0.1,0.1
	l0.1,0.1l0.1,0.1l0.1,0.1l0,0l0.1,0.1h0.1l0.2,0.1l0,0l0.2,0.1l0.1-0.1l0,0h0.1h0.1l0.1,0.1h0.1l0.1,0.1l0.1,0.1l0.2,0.1l0,0h0.1
	l0.2,0.1h0.1l0.1,0.1l0.1,0.1l0.1,0.1h0.1h0.1h0.1h0.1l0.2,0.1l0,0l0.1,0.1h0.1h0h0.1l0.1,0.1l0.1,0.1l0.3,0.1h0.1h0.1l0.1,0.1h0.1
	h0.1l0.1,0.1h0.1h0.1l0.2,0.1l0.2,0.1h0.1l0.2,0.1h0.1l0.2,0.1l0,0h0.1h0.2h0.1h0.1h0.1l0,0h0.2h0.1h0.1h0.5h0.2h0.5
	c0.6,0,1.3-0.1,1.9-0.2l0.3-0.1h0.1l0.2-0.1h0.1h0.1l0.2-0.1l0.3-0.1l0.2-0.1l0.2-0.1l0.2-0.1l0.2-0.1l0.2-0.1l0.4-0.1l0.1-0.1
	l0.4-0.2l0,0c0-0.1-0.1-0.3-0.1-0.4c0,0-0.1,0-0.1-0.1v-0.1h-0.1h-0.1c0,0,0,0,0-0.1c0,0,0,0,0-0.1v-0.1c-0.1-0.1-0.2-0.1-0.4-0.1
	h-0.1h-0.1l0,0h-0.1h-0.1l0,0c0,0-0.1,0-0.1,0h-0.2c-0.1,0-0.2-0.1-0.3,0h-0.1l0,0h-0.1l0,0h-0.1h-0.1h-0.1h-0.1h-0.1
	c0,0,0,0.1-0.1,0.1c-0.1,0,0,0.1-0.1,0.1h-0.1l0,0h-0.1H23l0,0c-0.1,0-0.1,0-0.2,0c-0.1-0.1-0.3-0.1-0.4,0h-0.1h-0.1l0,0
	c0,0.1-0.1,0.1-0.1,0.1h-0.1h-0.1l0,0l0,0l0,0l0,0h-0.1H22h0.2H22H22l-0.2,1l0,0l-0.1-0.1l0,0l0,0l0,0l0,0l0,0
	c-0.1-0.1-0.1-0.1,0-0.2l0,0c0-0.1,0.1,0,0.1-0.1l0,0c0,0,0-0.1,0.1-0.1c0,0,0,0,0-0.1l0,0l0,0V23c0,0,0-0.1,0.1-0.1
	c0-0.1,0-0.1,0-0.2l0,0c0,0,0-0.1,0-0.1l0,0v-0.1l0,0c0,0,0,0,0-0.1s0-0.1,0-0.1s0.1-0.1,0.1-0.1l0,0c-0.1-0.1,0-0.1-0.1-0.2l0,0
	c0-0.1,0-0.1,0-0.1l0,0c0,0,0-0.1,0-0.1l0,0l0,0l0,0l0,0l0,0l0,0v-0.1l0,0v-0.1c0,0,0,0,0.1,0c0,0,0,0.1,0.1,0.1l0,0h0.1
	c0,0,0,0.1,0.1,0.1V22l0,0V22v-0.1v-0.1v-0.1c0,0,0-0.1,0.1-0.1l0,0h-0.1l0,0h0.1h0.1v-0.1c0,0,0-0.1,0-0.1l0,0h0.1l0,0
	c0,0,0-0.1,0.1-0.1s0-0.1,0.1-0.1l0,0c0.1,0,0.1,0.1,0.1,0.1l0,0l0,0l0,0h0.1h0.1h0.1h0.1h0.1h-0.1l0,0l0,0l0,0h0.1
	c0.1-0.1,0.2,0.1,0.3,0h0.1c0,0,0.1,0,0.1,0h0.1l0,0h0.1c0,0,0.1,0,0.1,0h0.1c0.1,0,0.1,0,0.1,0l0,0h0.1l0,0h0.1h0.1h0.1h0
	c0,0,0-0.1,0.1-0.1l0.1-0.1l0,0c0.1,0,0.1-0.1,0.1-0.1c0-0.1,0-0.1,0-0.1l0,0l0,0h0.1l0,0h0.1l0,0l0.1-0.1c0.1,0,0.1,0.1,0.1,0.1
	c0,0,0,0,0,0.1l0,0c0,0,0,0,0-0.1c0,0,0,0,0-0.1v-0.1l0,0l0,0c0.1-0.1,0.1,0.1,0.2,0c0.1-0.1,0,0,0,0l0,0l0,0v-0.1l0,0l0,0
	c0-0.1,0.1-0.1,0.1-0.1l0,0c0.1,0,0.1-0.1,0.2-0.1h0.1h0.1l0,0l0,0l0,0v-0.1l0,0h0.2c0.1,0,0.1,0,0.1,0.1c0,0,0.1,0,0.1,0.1
	c0,0,0,0.1,0.1,0.1l0,0c0,0,0.1,0.1,0.1,0.1s0,0,0,0l0,0c0,0,0.1,0,0.1,0c0.1,0,0.1,0,0.2,0l0,0v-0.1l0,0l0,0l0,0c0,0,0-0.1,0.1-0.1
	c0,0,0.1,0,0.1-0.1l0,0l0.1-0.1c0,0,0.1,0,0.1-0.1h0.1h0.1l0,0h0.1l0,0c0.1-0.1,0.2,0.1,0.3,0c0-0.1-0.1-0.1-0.1-0.1s0.1,0,0.1,0
	s0.1,0.1,0.1,0.1l0,0c0.1,0.1,0.1,0,0.1,0.1s0.1,0,0.1,0.1h0.1l0,0c0,0,0,0,0.1,0.1h0.1h0.1l0,0c0.1,0,0.1,0.1,0.1,0.1s0,0,0,0V21
	c0,0,0.1,0.1,0.2,0.1c0.1,0,0,0.1,0,0.1h-0.1l0,0h-0.1c-0.1,0,0,0.1-0.1,0.1s-0.1,0.1-0.2,0.1l0,0c0,0,0,0.1-0.1,0.1h-0.1l0,0h-0.1
	l0,0c-0.1,0.1,0,0.1,0,0.1v-0.1l0,0l0,0c0.1,0.1,0.1,0.1,0.2,0.1v0.1c0,0,0.1,0,0.1,0.1l0,0v0.1v0.1l0,0c0,0,0.1,0,0.1,0.1l0,0
	c0,0,0.1,0,0.1,0.1s0.1,0.1,0.1,0.1s0.1,0,0.1,0.1c0.1,0,0.1,0,0.1,0h0.1l0,0c0,0,0-0.1,0.1-0.1s0-0.1,0.1-0.1l0,0h0.1l0.4-1l0,0
	c0,0,0-0.1,0.1-0.1s0-0.1,0.1-0.1l0,0c0,0,0-0.1,0.1-0.1c0.1,0,0-0.1,0.1-0.1c0.1,0,0-0.1,0.1-0.1s0-0.1,0.1-0.2h0.1l0,0v-0.1l0,0
	h0.1l0,0l0,0v-0.1l0,0l0,0h0.1l0,0c0,0,0-0.1,0.1-0.1s0-0.1,0.1-0.1l0,0c0.1-0.1,0.1-0.1,0.1,0s-0.1,0.1,0,0.2l0,0l0,0l0,0l0,0l0,0
	v-0.1l0,0c0,0.1,0,0.1-0.1,0.2v0.1c0.1,0-0.1,0.1,0.1,0.1l0,0h0.1c0,0,0.1,0,0.1,0.1l0,0l0.1,0.1v0.1l0,0v0.1l0,0l0,0l0,0v0.1V21V21
	l0,0c0,0,0,0,0,0.1l0,0l0,0l0,0l0,0c0,0,0,0.1,0,0.1l0,0c-0.1,0.1,0.1,0.1-0.1,0.2c-0.1,0.1,0,0,0,0.1l0.1-0.1l0.1-0.1l0.1-0.1
	c0.2-0.2,0.4-0.4,0.5-0.6l0.3-0.3l0.1-0.1l0.1-0.2h-0.1l0,0c-0.1-0.1-0.1,0-0.2-0.1l0,0c0,0,0,0-0.1,0l0,0c0,0-0.1,0-0.1-0.1
	c0,0,0,0,0-0.1l0,0c0,0,0,0,0-0.1c0,0,0,0,0-0.1c0,0,0,0,0-0.1l0,0v-0.1l0,0c-0.1,0,0-0.1,0-0.1l0,0v-0.1v-0.1l0,0
	c0,0-0.1,0-0.1-0.1c-0.1-0.1-0.1,0-0.1-0.1c-0.1-0.1-0.1,0-0.1,0H29c0,0,0,0.1-0.1,0.1l0,0c-0.1,0,0,0.1-0.1,0.1l0,0c0,0,0,0-0.1,0
	l0,0h-0.1h-0.1l0,0c0,0-0.1,0-0.1-0.1h0c-0.1,0-0.2,0-0.2-0.1l0,0l0,0v-0.1l0,0v-0.1c0,0,0,0,0-0.1l0,0l0,0c0-0.1-0.1-0.1-0.1-0.1
	h-0.1c0,0,0,0-0.1,0c-0.1,0.1-0.2,0-0.3-0.1l0,0c0,0,0-0.1,0.1-0.1l0,0c0,0,0-0.1,0.1-0.1l0,0h0.1h0c0.1,0,0.1-0.1,0.1-0.1l0,0l0,0
	l0,0l0,0c0,0,0,0,0-0.1l0,0c-0.1,0,0-0.1,0-0.1s0-0.1-0.1-0.2c-0.1,0.1-0.2,0.2-0.3,0.1c-0.1-0.1-0.2-0.2-0.1-0.3l0,0
	c-0.1-0.1-0.1-0.1-0.1-0.1l0,0l-0.1-0.1l0,0h-0.1h-0.1c-0.1-0.1-0.1,0-0.1-0.1l0,0c-0.1,0-0.1-0.1-0.1-0.1s-0.1,0-0.1-0.1l0,0
	L27,18.2v0.1l0,0l0,0c0,0.1-0.1,0.1-0.1,0l0,0c-0.1-0.1,0-0.1-0.1-0.2V18h-0.1c-0.1,0,0-0.1,0-0.1c0.1,0,0.2,0,0.3,0
	c0,0-0.1,0-0.1-0.1 M26.9,17.9c-0.1,0-0.1-0.1-0.1-0.1s0-0.1-0.1-0.1c-0.1-0.1-0.2-0.1-0.2-0.1s-0.1-0.1,0-0.1l0,0
	c0.1,0,0.1,0,0.1,0.1c0.1,0.1,0.1,0,0.1,0l0,0c0.1,0,0.2,0,0.2-0.1l0,0 M27,17.6L27,17.6h0.1c0,0,0,0,0,0.1c0.1,0.1,0.1,0,0.2,0.1
	c0.1,0.1,0,0.1,0,0.1l0,0v0.1l0,0c0,0.1,0,0.1,0,0.1l0,0c0,0,0,0.1,0.1,0.1s0,0,0,0.1c0,0.1,0,0.1,0.1,0.1s0.1,0.1,0.1,0h0.1
	c0,0,0,0,0.1,0l0,0c0,0,0,0,0.1,0l0.1-0.1l0,0c0,0,0-0.1,0.1-0.1h0.1c0.1,0,0.1-0.1,0.1-0.1l0,0H28l0,0H28h0.1l0,0l0,0l0.1,0.1l0,0
	c0,0,0.1,0,0.1,0.1l0.1,0.1l0,0c0,0,0.1,0,0.1,0.1l0,0c0,0,0.1,0,0.1,0.1l0,0c0,0,0.1,0,0.1,0.1h0.1c0.1,0,0.1,0.1,0.2,0.1l0,0h0.1
	l0,0c0,0,0.1,0,0.1,0.1s0.1,0,0.1,0.1l0,0c0,0,0.1,0,0.1,0.1c0,0.1,0.1,0,0.1,0.1l0,0c0,0,0.1,0,0.1,0.1l0,0c0.1,0,0.1,0.1,0.1,0.1
	c0,0,0,0,0,0.1c0.1,0.1,0.1,0.1,0.2,0.1l0.1,0.1c0,0,0.1,0,0.1,0.1l0,0c0,0,0.1,0.1,0.1,0.1v0.1v0.1l0,0c0,0,0.1,0,0.1,0.1l0,0
	c0,0,0,0,0.1,0.1c0,0,0.1,0,0.1,0.1c0,0.1,0.1,0,0.1,0.1v-0.3v0.1v0.1c-0.1,0.1-0.1,0-0.1,0l0,0c-0.1,0-0.1,0-0.1,0.1s0,0.1,0.1,0.1
	c0,0.1,0.1,0.1,0.1,0.1c0,0,0,0,0,0.1l0,0c0,0.1,0,0.1,0,0.2c0.1,0,0.1,0,0.1,0l0,0c0.1,0.1,0,0.1,0,0.1l0,0l0.1,0.1l0.1-0.2
	l0.1-0.1l0.1-0.1c0.2-0.2,0.3-0.4,0.4-0.6l0.2-0.4l0.1-0.2l0.1-0.2l0.1-0.1l0.1-0.2l0.1-0.1l0.1-0.2l0.1-0.1l0.1-0.1l0.1-0.1
	l0.1-0.1l0.1-0.1l0.1-0.2l0.1-0.2l0.1-0.1l0.1-0.1c0.1-0.3,0.2-0.6,0.3-0.9l0.1-0.2c0-0.1,0-0.1,0-0.1c0-0.1,0-0.1,0-0.1
	s0-0.1,0.1-0.2v-0.1l0.1-0.2v-0.1c0-0.1,0-0.1,0.1-0.2v-0.1c0-0.1,0-0.2,0.1-0.2c0.1-0.1,0-0.1,0-0.1s0-0.1,0-0.2c0-0.1,0-0.1,0-0.1
	c0-0.1,0-0.1,0-0.2c0-0.1,0,0,0-0.1c0-0.1,0-0.1,0-0.2s0-0.1,0-0.1s0-0.2,0-0.3c0-0.1,0-0.2,0-0.3c0-0.1,0-0.2,0-0.3
	c0.2-0.3,0.3-0.6,0.3-0.9L27,17.6z M24,9.8L24,9.8z M9.4,14.4L9.4,14.4z M25.9,16.1c0,0,0-0.1,0-0.1l0,0l0,0h-0.1l0,0L25.9,16.1
	C25.8,16,25.8,16.1,25.9,16.1L25.9,16.1L25.9,16.1c-0.1,0.1-0.1,0.1-0.1,0.1h-0.1c0-0.1-0.1-0.1-0.1-0.1s-0.1,0-0.1-0.1l0,0L25.5,16
	v-0.1l0,0c0-0.1,0-0.1,0-0.1v-0.1v-0.1l0,0l-0.1,0h-0.2c-0.1,0-0.1,0-0.2,0l0,0c0,0,0,0-0.1,0.1c-0.1,0.1,0,0,0,0l0,0l0,0H25l0,0
	v-0.1v-0.1l0,0v-0.1l0,0h0.1l0,0c0.1,0,0.1-0.1,0.1-0.1l0,0c0,0,0.1-0.1,0.1,0c0.2,0.1,0.3,0,0.4-0.1l0,0c0-0.1,0.1-0.1,0-0.2h0.1
	l0,0v0.1c0,0,0,0.1,0,0.1l0,0c0,0,0.1,0,0.1,0.1l0.1,0.1l0,0c0,0,0,0.1,0,0.1c0,0.1,0,0.1,0,0.1v0.1c0,0,0,0,0,0.1V16v0.1l-0.1,0.1
	l0,0l0,0h-0.1C25.9,15.9,25.9,16,25.9,16.1L25.9,16.1z M25.4,17L25.4,17c0.1,0,0.1-0.1,0.1-0.1l0,0c0.1,0,0.1,0,0.1,0V17l0,0
	c0,0,0,0.1-0.1,0.1l0,0c-0.1,0-0.1,0.1-0.1,0.1c-0.1,0,0,0.1-0.1,0.1l0,0c-0.1,0-0.1,0-0.1,0l0,0h-0.1l0,0h-0.1l0,0
	c-0.1-0.1-0.1-0.1-0.2-0.1h-0.1h-0.1h-0.1h-0.1l0,0h-0.1l0,0c0,0,0,0.1-0.1,0.1c-0.1,0,0,0.1-0.1,0.1l0,0v0.1l0,0l0,0
	c0,0,0.1,0,0.1,0.1l0,0c0.1,0,0,0.1,0,0.1l0,0c0,0,0,0,0.1,0c0,0,0-0.1,0.1-0.1c0,0,0,0,0.1,0s0.1,0,0.1,0h0.1l0,0
	c0.1,0,0.2,0,0.3,0v0.1l0,0v0.1l0,0c0,0.1,0,0.1-0.1,0.1L25,17.4l0,0l0,0l0,0h-0.1l0,0h-0.1l0,0h-0.1l0,0c0,0,0,0-0.1,0
	c-0.1,0.1,0,0.1,0,0.1l0,0v0.1l0,0c0,0,0,0,0,0.1l0,0l0,0c0,0.1-0.1,0.1,0,0.2c0.1,0.1,0,0,0,0s0,0,0.1,0c0,0,0,0,0.1,0
	c0,0,0.1,0,0.1,0.1l0,0c0,0,0,0,0,0.1v0.1c0,0,0,0-0.1,0l0,0l0,0l0,0c0,0.1,0,0.1-0.1,0.1c-0.1,0,0,0,0,0s-0.1,0-0.1,0
	s-0.1-0.1-0.1-0.2c-0.1,0-0.2,0-0.2-0.1v-0.1v-0.1v0.1v-0.1c0-0.1,0-0.1,0-0.1c0,0,0.1-0.1,0-0.1h-0.1c-0.1,0-0.1,0-0.1,0.1
	s0,0.1,0,0.1v0.1c0,0,0,0.2-0.1,0.2s0,0,0,0s0,0,0,0.1l0,0c0.1,0.1-0.1,0.1-0.1,0.1c0,0-0.1,0-0.1,0v-0.1l0,0c0,0,0-0.1,0.1-0.1l0,0
	c0,0,0-0.1,0.1-0.1c0,0,0-0.1,0-0.1c-0.1,0,0.1-0.1-0.1-0.1h-0.1c-0.1-0.1,0-0.1,0-0.2l0,0c0,0,0,0,0.1,0h0.1c0,0,0-0.1,0.1-0.1l0,0
	c0.1-0.1,0-0.1,0.1-0.2l0,0c0,0,0-0.1,0.1-0.1l0,0l0,0l0,0c0.1-0.1,0-0.2,0.1-0.2c0.1-0.1,0-0.1,0.1-0.1s0.1-0.1,0.1,0l0,0
	c0,0,0,0,0.1,0h0.1l0,0c0,0,0,0,0.1,0h0.1c0,0,0.1,0,0.1,0.1s0.1,0,0.1,0.1h0.1c0.1,0.1,0.2,0,0.2,0.1l0,0L25.4,17L25.4,17L25.4,17z
	 M24.1,18.6L24.1,18.6H24c-0.1,0-0.1,0-0.1,0h-0.1h-0.1h-0.1l0,0l0,0c0-0.1-0.1,0-0.2,0v-0.1v-0.1c0.1,0,0.1,0,0.1,0
	c0,0,0.1,0,0.1,0.1h0.1l0,0c0,0,0,0,0.1,0v-0.1h0.1c0.1,0,0,0,0.1,0c0.1,0,0.1,0.1,0.1,0.1L24.1,18.6L24.1,18.6L24.1,18.6z M23.4,16
	L23.4,16c0.2-0.1,0.3-0.1,0.4-0.2c0,0,0-0.1,0.1-0.1l0,0c0,0,0-0.1,0.1-0.1c0.1,0,0,0,0.1,0s0-0.1,0.1-0.1s0,0,0,0l0,0
	c0,0,0.1,0,0.1,0l0,0c0.1,0,0.1,0.1,0.1,0.1l0,0c0.1,0.1,0.1,0.1,0.1,0.2c0.1,0.1,0.1,0,0.1,0.1c0,0,0,0,0.1,0h-0.1h0.1
	c0,0.1,0,0.1-0.1,0.1c0,0-0.1,0-0.1,0.1c0,0.1,0,0.1-0.1,0.1c-0.1,0,0,0,0,0l0,0c-0.1,0.1-0.1,0.1-0.1,0.2l0,0v0.1l0,0v0.1v0.1l0,0
	c-0.1,0.1,0.1,0.1,0.1,0.1c0,0,0,0,0.1,0l0,0h0.1v0.1l0,0c0,0,0.1,0.1,0,0.1s-0.2,0-0.2,0s0,0.1-0.1,0.1s0,0.1-0.1,0.2
	c-0.1,0.1,0,0.1-0.1,0.1c-0.1,0-0.1,0-0.1,0l0,0c0,0,0,0.1-0.1,0.1l0,0h-0.1c-0.1,0.1,0,0.2-0.1,0.2c0,0,0,0-0.1,0l0,0
	c-0.1,0.1,0,0.1,0,0.1s0,0.1-0.1,0.1c-0.1,0-0.1,0-0.1,0l0,0c0-0.1-0.1,0-0.1,0l0,0h-0.1h-0.1c0,0-0.1,0-0.1-0.1s0-0.1,0-0.1v-0.1
	l0,0h-0.1h-0.1c-0.1,0-0.1,0-0.1,0c0,0-0.1,0-0.1-0.1h-0.1h-0.1c-0.1,0-0.1,0-0.2,0c-0.1,0,0-0.1-0.1-0.1h-0.1h-0.1l0,0
	c-0.1,0-0.1,0-0.1-0.1c0-0.1,0-0.1,0-0.2s0,0,0-0.1l0,0c0,0,0,0,0.1-0.1l0,0c0,0-0.1,0.1-0.2,0.1s-0.1,0-0.1,0s0,0,0-0.1
	c0,0,0,0-0.1-0.1l0,0 M22.2,16.9L22.2,16.9L22.2,16.9L22.2,16.9L22.2,16.9L22.2,16.9c0-0.1,0.1-0.1,0-0.1l0,0v-0.1l0,0v-0.1v-0.1
	c0-0.1,0.1-0.1,0.1-0.1l0,0l0.1-0.1l0,0c0.1,0,0.1,0.1,0.1,0.1l0,0l0,0c0,0,0.1-0.1,0.1,0l0,0c0,0,0,0,0.1,0h0.1
	c0.1,0,0-0.1,0.1-0.1s0-0.1,0-0.1s0.1-0.1,0.1-0.1h0.1c0.1,0,0.1,0,0.1,0l0,0h0.1l0,0h0.1l0,0c0,0,0-0.1,0.1-0.1
	c0.1-0.1,0.1-0.1,0.1-0.1c0,0,0-0.1,0.1-0.1L22.2,16.9z M25.9,15.1C25.9,15.2,25.8,15.2,25.9,15.1c-0.1,0.1-0.2,0.1-0.1,0.1l0,0v0.1
	l-0.1,0.1c-0.1-0.1-0.1-0.2-0.1-0.3c0.1,0,0,0.1,0.1,0.1c0.1,0,0-0.1,0-0.1s-0.1-0.1-0.1-0.1c0.1,0,0.2,0,0.2,0l0,0
	C25.9,14.9,25.8,15,25.9,15.1C25.8,15,25.8,15.1,25.9,15.1L25.9,15.1z M25.2,15.2c0.1-0.1,0.1-0.1,0.1-0.1c-0.1,0-0.1,0-0.1-0.1
	h-0.1h-0.1C24.9,15,25,15,25.1,15v-0.1v0v-0.1l0,0h0.1l0,0c0,0,0.1,0,0.1,0.1c0.1,0.1,0.1,0,0.1,0.1c0,0.1,0,0.1,0,0.1h0.2l0,0l0,0
	l0,0l0,0V15c0.1,0.1,0,0.2-0.1,0.2c-0.1,0.1-0.1,0.1-0.1,0.2c-0.1,0.1-0.1,0.1-0.1,0.1l0,0C25.2,15.4,25.2,15.3,25.2,15.2L25.2,15.2
	C25.2,15.3,25.2,15.3,25.2,15.2L25.2,15.2L25.2,15.2z M24.1,15.3C24.1,15.3,24.1,15.2,24.1,15.3c0.1-0.1,0.1-0.1,0.1-0.1l0,0h0.1
	l0,0c0,0,0-0.1,0.1-0.1l0,0h0.1c0,0,0-0.1,0.1-0.1h0.1l0.1-0.1l0,0l0,0l0,0V15l0,0l0,0l0,0l0,0l0,0l0,0h0.1l0,0l0,0v0.1l0,0l0,0l0,0
	l0,0c0,0.1,0,0.1-0.1,0.1l0,0h-0.1l0,0c-0.1,0-0.1,0-0.1,0.1c0,0.1,0,0.1-0.1,0.1h-0.1c-0.1,0-0.1,0-0.1,0.1H24.1L24.1,15.3
	L24.1,15.3L24.1,15.3H24v-0.1l0,0L24.1,15.3L24.1,15.3z M23.2,16.2L23.2,16.2z M21.7,17.8C21.7,17.8,21.7,17.8,21.7,17.8l0.2,0.1
	c0.1,0,0.1,0,0.1,0.1c0,0,0,0.1,0.1,0.1c0.1,0,0.1,0,0.1,0c0.1,0,0.2,0,0.2,0.1c0.1,0,0.1,0,0.1-0.1s0,0,0.1,0c0.1,0,0,0,0,0.1
	c0,0.1,0.1,0.1,0.1,0.1h0.1l0,0c0.1,0,0.1,0.1,0.1,0.1c0.1,0,0.2,0,0.3,0c0,0,0.1,0,0.1,0.1s0,0.1-0.1,0.1c-0.1,0,0,0.1-0.1,0.1
	c-0.1,0-0.1-0.1-0.1,0c0,0.1,0.1,0.1,0.1,0.1c0.1,0,0.1,0,0.2,0.1c0,0,0,0.1,0.1,0.1c0,0,0.1,0.1,0.1,0.1c0.1,0,0.1,0.1,0.1,0.1v0.1
	h-0.1h-0.1h-0.1c-0.1,0-0.1,0-0.1,0c-0.1,0-0.1,0-0.1-0.1l-0.1-0.1h-0.1c-0.1,0-0.1,0-0.1-0.1l-0.1-0.1h-0.1c-0.1,0-0.1,0-0.1,0
	c-0.1,0-0.1,0-0.1-0.1l-0.1-0.1l-0.3-0.1h-0.1c-0.1,0-0.1,0-0.1,0c-0.1,0-0.1,0-0.1,0s-0.1-0.1-0.2-0.1c-0.1,0-0.1,0-0.2-0.1
	c-0.1,0-0.1-0.1-0.1-0.1s-0.1-0.1-0.2-0.1c-0.1,0-0.1,0-0.1-0.1c0-0.1,0-0.1,0.1-0.1h0.1c0,0,0,0,0-0.1s0.1,0,0.1,0s0,0,0-0.1
	c0,0,0,0,0.1,0l0,0l0,0c0,0,0,0,0.1,0h0.1C21.6,17.8,21.7,17.7,21.7,17.8L21.7,17.8z M30,6.7L30,6.7z M26.1,11L26.1,11L26.1,11
	L26.1,11h0.1V11l0,0l0,0l0,0l0,0c0.1,0,0.1,0,0.1-0.1h0.1h0.1l0,0c0.1,0,0-0.1,0.1-0.1s0.1,0,0.2,0c0.1,0,0.1,0,0.2,0s0.1,0,0.2,0
	l0,0c0.1,0,0.1,0.1,0.1,0l0,0c0,0-0.1-0.1,0-0.1l0,0h0.1l0,0l0,0l0,0v-0.1l0,0c0-0.1,0-0.1,0.1-0.1l0,0h0.1v0.1v0.1
	c0.1,0,0.1,0,0.2,0h0.1l0,0v-0.1h0.1c0,0,0-0.1,0-0.1l0,0v-0.1l0,0c-0.1-0.1,0-0.1,0-0.1s-0.1-0.1-0.1-0.2l-0.1-0.1l0,0
	c0,0-0.1-0.1,0-0.1l0,0l0,0l0,0l0,0l0,0l0,0c0,0,0-0.1,0.1-0.1h-0.1h-0.1c-0.1,0-0.1,0-0.1-0.1l0,0c0-0.1-0.1-0.1-0.1-0.1l0,0l0,0
	C27,10,27,10,27.1,10c0.1-0.1,0-0.1,0.1-0.1h0.1c0.1-0.1,0.1-0.1,0.1-0.2l0,0V9.7l-0.1-0.1l-0.1-0.1c-0.1,0-0.1-0.1-0.1-0.1
	c0.1,0,0.1,0,0.2,0.1l0.1,0.1l0.1,0.1c0.1,0.1,0.2,0.1,0.3,0.2c0.1,0,0.1,0,0.2,0s0,0.1,0.1,0.1L28,9.9h0.1c0.1,0,0.1,0,0.1,0
	s0,0-0.1,0.1c0,0,0,0.1-0.1,0.1l0,0c0,0.1,0.1,0.1,0,0.1c-0.1,0.1-0.1,0-0.2,0s0,0.1-0.1,0.1c-0.1,0,0,0.1,0,0.1s0,0.1-0.1,0.1
	c-0.1,0-0.1-0.1-0.2-0.1c-0.1-0.1-0.1,0-0.1-0.1l0,0h-0.1l0,0c-0.1,0-0.1,0-0.1,0h-0.1l0.1,0.1l0.1,0.1h0.1v0.1h0.1l0,0l0,0h0.1
	l0.1,0.1V10l0.1,0.1l0,0l0,0l0.1,0.1l0.1,0.1c0.1,0.1,0.1,0.1,0.1,0.1v0.1l0,0c0.1,0.1,0,0.1,0,0.1l0,0c0.1,0.1-0.1,0.1-0.1,0.1l0,0
	l0.1,0.1l0,0v0.1v0.1v0.1l0,0l0,0l0,0v0.1c0,0,0.1,0.1,0.1,0.2c-0.1,0.1,0,0,0,0l0,0V11l0,0H28c-0.1,0-0.2-0.1-0.2,0
	c-0.1,0-0.2,0-0.3,0c-0.1,0-0.1,0-0.1-0.1c0,0.1-0.1,0.1-0.1,0.2c-0.1,0-0.1,0-0.1,0c-0.1,0-0.1-0.1-0.1-0.1c-0.1,0,0-0.1-0.1-0.1
	l0,0c0,0.1,0,0.1,0,0.1c0,0.1-0.1,0.1-0.1,0h-0.1c0,0-0.1,0-0.1,0.1l0,0h-0.1L26.5,11V11L26.5,11c0,0.1,0,0.1,0,0.1
	c0,0.1,0,0.2-0.2,0.1l0,0c0,0-0.1,0-0.1-0.1c0-0.1-0.1-0.1-0.1-0.1C26.2,11.1,26.1,11,26.1,11L26.1,11L26.1,11L26,10.9
	C26,10.9,26,11,26.1,11z M20.3,15.8l0.1,0.1c0.1,0,0.1,0.1,0.1,0.1c0,0.1,0.1,0.1,0.1,0.1v0.1v0.1l0.1,0.1l0.1,0.1h0.1l0.1,0.1
	l0.2,0.1l0.1,0.1l0.1,0.1c0,0.1,0,0.1,0,0.1v0.1v0.1c0,0.1,0.1,0.1,0.1,0.1c0.1,0,0.1,0.1,0.1,0.1c0,0.1,0.1,0.1,0.1,0.2
	c0.1,0.1,0.2,0.1,0.2,0.2v0.1c0,0,0,0-0.1,0s0,0,0,0.1l0,0v0.1c0,0,0,0.2-0.1,0.2c-0.1,0.1-0.1,0.1-0.1,0.1h-0.1h-0.1h-0.1h-0.1
	c0,0,0,0,0-0.1s-0.1-0.1-0.2-0.1s-0.1-0.2-0.2-0.2c0-0.1-0.1-0.1-0.1-0.1c0,0-0.1,0-0.1-0.1c-0.1,0-0.1-0.1-0.1-0.1V17V17
	c0-0.1-0.1-0.1-0.1-0.1c0,0-0.1,0-0.1-0.1c0,0,0-0.1,0-0.1c0-0.1,0-0.1,0-0.1l0,0c0-0.1-0.1-0.1-0.1-0.1l-0.1-0.1v-0.1v-0.1
	c0-0.1-0.1-0.1-0.1-0.2c-0.1-0.1-0.1-0.1-0.2-0.1S20,16.1,20,16.1l0,0l0,0V16c0,0,0,0,0-0.1l0,0l-0.1-0.1l-0.1-0.1
	c0,0-0.1,0-0.1-0.1l-0.1-0.1l-0.1-0.1l-0.1-0.1c0-0.1,0-0.1,0-0.1s0-0.1,0.1-0.1c0,0,0.1,0,0.1,0.1c0.1,0,0.1,0.1,0.1,0.1
	c0.1,0,0.1,0,0.2,0s0.1,0,0.1,0.1h0.1c0,0,0,0,0,0.1l0.1,0.1C20.2,15.8,20.3,15.8,20.3,15.8L20.3,15.8z M17.6,12.6L17.6,12.6z
	 M16.3,14.8L16.3,14.8c0,0,0-0.1,0-0.1l0,0l0,0v-0.1v-0.1h0.1h0.1h0.1l0,0l0,0l0,0l0,0c0,0,0,0.1,0.1,0.1l0,0l0.1,0.1
	c0,0.1,0.1,0.1,0.1,0.1c0,0,0,0.1,0.1,0.1h0.1l0,0c0.1,0.1,0,0.1,0.1,0.1c0.1,0.1,0,0,0,0.1s0,0.1-0.1,0.1h-0.1h-0.1h-0.1l0,0h-0.1
	l0,0h-0.1c-0.1,0-0.1-0.1-0.1-0.1V15l0,0c-0.1-0.1,0-0.1,0-0.1l0,0C16.2,14.8,16.3,14.8,16.3,14.8L16.3,14.8z M24.2,18.9
	c-0.1,0.1-0.1,0.1-0.2,0l0,0l0,0l0,0c0,0-0.1,0-0.1-0.1l0,0l-0.1-0.1v-0.1l0,0c0.1,0,0.2,0,0.2,0.1L24.2,18.9L24.2,18.9L24.2,18.9
	C24.2,18.9,24.2,18.9,24.2,18.9L24.2,18.9z M24.6,18.7L24.6,18.7L24.6,18.7h-0.1h-0.1c0,0,0-0.1-0.1,0h-0.1c-0.1,0-0.1,0-0.1,0
	s-0.1,0-0.2-0.1c-0.1-0.1-0.1-0.1,0-0.1l0,0h0.1c0.1,0,0.1,0,0.1,0l0,0c0,0,0.1,0,0.1,0.1l0,0c0.1,0,0.1,0,0.2-0.1l0,0l0,0h0.1h0.1
	l0,0h0.1l0,0h0.1l0,0c0.1,0.1,0.2,0.1,0.3,0.1l0,0l0,0h0.1c0,0.1-0.1,0.1-0.1,0.1l0,0h-0.1h-0.1l0,0h-0.1l0,0h-0.1l0,0
	C24.7,18.6,24.7,18.6,24.6,18.7C24.6,18.7,24.7,18.7,24.6,18.7L24.6,18.7z M25.6,18.8C25.6,18.8,25.5,18.9,25.6,18.8
	c-0.1,0-0.1,0-0.1,0l0,0h-0.1c0,0-0.1,0-0.1,0s-0.1,0-0.1,0s-0.1,0-0.1,0l0,0h-0.1l0,0l0,0l0,0h-0.1l0,0H25l0,0h-0.1h-0.1h0l0,0l0,0
	c-0.1,0-0.1,0-0.1,0s0-0.1,0.1-0.1s0-0.1,0.1-0.1l0,0l0.1-0.1l0,0H25c0,0,0.1,0,0.1-0.1h0.1l0,0l0,0l0,0l0,0h0.1h0.1
	c0.1,0,0.1,0,0.2,0h0c0.1,0,0.1,0,0.1,0.1L25.6,18.8z M25.9,17.4L25.9,17.4C25.9,17.3,25.9,17.4,25.9,17.4L25.9,17.4
	c0.1-0.1,0.1-0.1,0.1-0.2l0,0l0,0c0,0,0,0-0.1-0.1c0-0.1,0.1-0.1,0.1-0.2l0,0c0,0,0-0.1,0.1-0.1c0.1,0,0-0.1,0.1-0.1l0,0
	c0.1,0,0,0.1,0,0.1s0,0,0,0.1l0,0l0,0h0.1l0,0c0.1,0,0.1,0.1,0,0.1l0,0l0,0c0,0-0.1,0,0,0.1s0.1,0.1,0,0.1l0,0H26l0,0l0,0l0,0
	C25.9,17.3,25.9,17.4,25.9,17.4L25.9,17.4L25.9,17.4L25.9,17.4L25.9,17.4L25.9,17.4L25.9,17.4C25.9,17.5,25.9,17.5,25.9,17.4
	L25.9,17.4L25.9,17.4L25.9,17.4L25.9,17.4L25.9,17.4C25.9,17.5,25.9,17.5,25.9,17.4L25.9,17.4L25.9,17.4L25.9,17.4L25.9,17.4
	L25.9,17.4z M26.6,18.1L26.6,18.1C26.5,18.1,26.5,18.1,26.6,18.1C26.5,18.1,26.5,18.1,26.6,18.1h-0.1l0,0c0,0-0.1,0-0.1-0.1l0,0
	c0,0-0.1,0-0.1-0.1 M26.3,17.9L26.3,17.9c-0.1,0-0.1,0-0.1,0l0,0c0,0,0,0-0.1,0l0,0c0,0-0.1,0-0.1,0l0,0l0,0l0,0c-0.1,0-0.1,0-0.1,0
	l0,0H26c0,0-0.1,0-0.1-0.1l0,0c0-0.1,0-0.1,0.1-0.1l0,0c0.1-0.1,0.2,0,0.3,0l0,0C26.3,17.8,26.3,17.8,26.3,17.9c0.1,0,0.2-0.1,0.2,0
	s0,0.1,0,0.1l0,0v0.1l0,0l0,0L26.3,17.9z M25.3,17L25.3,17z M25.3,17L25.3,17z M25.3,17L25.3,17z"/>
<path class="st2" d="M27.9,17.9L27.9,17.9L27.9,17.9z"/>
<path class="st2" d="M27.5,18.1L27.5,18.1L27.5,18.1z"/>
<path class="st3" d="M32.4,12.7c0,0.1,0,0.2,0,0.3s0,0.2,0,0.3c0,0.1,0,0.2,0,0.3c0,0.1,0,0.1,0,0.1c0,0.1,0,0.1,0,0.2s0,0,0,0.1
	c0,0.1,0,0.2,0,0.2s0,0.1,0,0.1c0,0.1,0,0.1,0,0.2c0,0.1,0,0.1,0,0.1s0,0.2-0.1,0.2v0.1c0,0.1,0,0.1-0.1,0.2v0.1l-0.1,0.2v0.1
	c0,0.1,0,0.1-0.1,0.2c-0.1,0.1,0,0.1,0,0.1s0,0.1,0,0.1l-0.1,0.2c-0.1,0.3-0.2,0.6-0.3,0.9l0,0.1l-0.1,0.1L31.7,17l-0.1,0.2
	l-0.1,0.1l-0.1,0.1l-0.1,0.1l-0.1,0.1l-0.1,0.1l-0.1,0.2l-0.1,0.1l-0.1,0.2l-0.1,0.1l-0.1,0.2L31,18.6c-0.1,0.1-0.2,0.2-0.2,0.4
	c-0.1,0.2-0.3,0.4-0.4,0.6l-0.1,0.1l-0.1,0.1l-0.1,0.2L30,20l-0.1,0.2l0,0.1l-0.3,0.3c-0.2,0.2-0.4,0.4-0.5,0.6l-0.1,0.1l-0.1,0.1
	l-0.1,0.1c-1.1,1-2.3,1.7-3.7,2.2l-0.4,0.2l-0.1,0.1l-0.4,0.1L24.1,24L23.9,24l-0.2,0.1l-0.2,0.1l-0.2,0.1l-0.3,0.1l-0.2,0.1h-0.1
	h-0.1l-0.2,0.1h-0.1l-0.3,0.1c-0.6,0.1-1.2,0.2-1.9,0.2h-0.5h-0.2h-0.3h-0.1h-0.1h-0.2l0,0H19h-0.1h-0.1h-0.2h-0.1l0,0l-0.2-0.1
	h-0.1l-0.2-0.1H18l-0.2-0.1l-0.2-0.1h-0.1h-0.1l-0.2-0.1h-0.1h-0.1l-0.1-0.1h-0.1H17l-0.3-0.3h-0.1l-0.1-0.1h-0.1h-0.1h-0.1l-0.1,0
	l0,0l-0.2-0.1H16h-0.1h-0.1h-0.1h-0.1h-0.1l-0.1-0.1l-0.1-0.1h-0.1l-0.2-0.3h-0.1l0,0l-0.2-0.1l-0.1-0.1L15,23.2H15l-0.1-0.1h-0.1
	h-0.1l0,0l-0.1-0.1L14.5,23l0,0l-0.2-0.1l0,0l-0.2-0.1l0,0l-0.1-0.1l0,0.1l-0.1-0.1L14,22.7H14l-0.2-0.1l-0.1-0.1h-0.1l-0.1-0.1l0,0
	l-0.1-0.1l-0.1-0.1l-0.1-0.1h-0.1l-0.1-0.1l-0.1-0.1L13,22l-0.1-0.1l-0.1-0.1l-0.1-0.1h-0.1h0.1c4,0.9,8.2-0.3,11.2-3.2l0.1-0.1
	c0.2-0.2,0.4-0.4,0.6-0.6l0.3-0.3l0.2-0.2l0.1-0.2l0.1-0.2l0,0l0.1-0.1c0.2-0.3,0.4-0.5,0.5-0.9c0.5-0.9,0.9-1.8,1.2-2.8
	c0.1-0.5,0.2-0.9,0.3-1.4c0.1-0.3,0.1-0.5,0.1-0.8c0-0.4,0-0.9,0-1.2c0-0.1,0-0.1,0-0.1s0-0.1,0-0.1c0-0.1,0-0.3,0-0.4
	c0-0.3-0.1-0.6-0.1-0.9c0-0.2-0.1-0.3-0.1-0.4c-0.1-0.5-0.3-1.1-0.4-1.6c-0.1-0.1-0.1-0.2-0.1-0.3c-0.1-0.3-0.2-0.6-0.4-0.9
	l-0.1-0.1l0,0c-0.1-0.3-0.3-0.5-0.4-0.8l0,0l-0.1-0.1v0l-0.1-0.1l0,0c-0.3-0.5-0.7-1-1.1-1.5c-0.3-0.3-0.5-0.6-0.8-0.9
	c-0.3-0.2-0.5-0.5-0.8-0.7l0.2,0.1l0.2,0.1l0.2,0.1h0.1l0.4,0.2h0.1h0.1l0.2,0.1l0,0h0.1h0.1l0.1,0.1h0.1l0.1,0.1l0.1,0.1l0.2,0.1
	l0,0l0.2,0.1l0,0l0.2,0.1l0,0l0.1,0.1L25.7,2h0.1l0-0.1l0,0L25.8,2L26,2l0.2,0.1h0.1l0,0l0.2,0.1l0,0l0.2,0.1l0,0l0.2,0.1l0.2,0.1
	l0,0h0.1l0.1,0.1L27,2.6l0,0l0.1,0.1l0.1,0.1l0,0l0,0l0.1,0.1l0,0l0,0l0.1,0.1l0,0l0,0l0.1,0.1l0,0L27.4,3l0,0L27.6,3l0.2,0.2
	L28,3.3l0.2,0.2l0.1,0.1l0.1,0.1l0.1,0.1l0.1,0.1l0.1,0.1h0.1L28.8,4l0.2,0.2l0.3,0.3l0.1,0.2l0.1,0.2l0,0L29.6,5l0.1,0.2L30,5.5
	l0.1,0.2l0.1,0.1l0.3,0.5l0.1,0.1l0.1,0.1l0.1,0.1l0.1,0.2v0.1v0.1l0.1,0.2v0.1C30.9,7,30.9,7.1,31,7.2l0.1,0.1v0.1l0.1,0.1l0.1,0.1
	l0,0l0.1,0.1v0.1l0.1,0.1v0.1v0.1l0.1,0.1L31.4,8l0.1,0.2l0.1,0.1v0.1l0.1,0.2v0.1l0,0l0.1,0.2l0.1,0.1v0.1l0.1,0.2l0.1,0.1v0.1l0,0
	v0.1v0.1l0.1,0.2v0.1l0,0v0.1l0,0l0.1,0.2l0,0L32,9.9V10v0.1v0.1v0.1v0.1c0,0.1,0,0.1,0.1,0.2v0c0,0.1,0,0.2,0.1,0.2v0.1
	c0.1,0.2,0.1,0.4,0.1,0.5l0,0v0.1l0,0c0,0.1,0,0.2,0,0.2C32.3,12,32.4,12.4,32.4,12.7z"/>
<path class="st1" d="M15.8,3C11.5,5,9,9.6,9.7,14.3c0.1-4.7,3.1-8.8,7.7-10.2C16.9,3.8,16.4,3.4,15.8,3z"/>
<path class="st4" d="M17.6,0.8C12.7,2,9.2,6.4,9,11.5c1-5,5-8.7,10-9.2C18.5,1.8,18.1,1.2,17.6,0.8z"/>
<text transform="matrix(1 0 0 1 10.167 15.5938)" class="st5 st6 st7">NEM</text>
<text transform="matrix(1 0 0 1 36.7476 18.2871)" class="st8 st6 st9">HOA LỆ </text>
</svg>
