<svg xmlns="http://www.w3.org/2000/svg" xmlns:xlink="http://www.w3.org/1999/xlink" viewBox="0 0 1790 398"><defs><style>.cls-1,.cls-31,.cls-39,.cls-4,.cls-43,.cls-48,.cls-52{fill:none;}.cls-1{clip-rule:evenodd;}.cls-2{fill:#228c7e;}.cls-3{fill:#03aa99;}.cls-5{fill:url(#linear-gradient);}.cls-6{fill:#dd7a79;}.cls-7{clip-path:url(#clip-path);}.cls-8{fill:url(#linear-gradient-2);}.cls-9{clip-path:url(#clip-path-2);}.cls-10{fill:url(#linear-gradient-3);}.cls-11{fill:#569bdd;}.cls-11,.cls-13,.cls-16,.cls-17,.cls-18,.cls-19,.cls-20,.cls-22,.cls-23,.cls-24,.cls-25,.cls-26,.cls-27,.cls-28,.cls-29{fill-rule:evenodd;}.cls-12,.cls-13{fill:#fff;}.cls-14{clip-path:url(#clip-path-3);}.cls-15{fill:url(#linear-gradient-4);}.cls-16{fill:#1a47b6;}.cls-17{fill:#93d9ff;}.cls-18{fill:#f9a218;}.cls-19{fill:#ffbf42;}.cls-20{fill:#ffd789;}.cls-21{fill:#f9c4c7;}.cls-22{fill:#ed979b;}.cls-23{fill:#f7aaac;}.cls-24{fill:#6aaff1;}.cls-25{fill:#64a4e2;}.cls-26{fill:#e88e92;}.cls-27{fill:#dff2fc;}.cls-28{fill:#cbcbcb;}.cls-29{fill:#003398;}.cls-30{fill:#40c7a7;}.cls-31{stroke:#3b55ce;stroke-width:1.05px;}.cls-31,.cls-39,.cls-43,.cls-52{stroke-linecap:round;}.cls-31,.cls-39,.cls-43,.cls-48,.cls-52{stroke-miterlimit:10;}.cls-32{fill:#3b55ce;}.cls-33{fill:#2339a0;}.cls-34{fill:#91dbac;}.cls-35{fill:#3dc19a;}.cls-36{fill:#e09736;}.cls-37{fill:#8fc9c6;}.cls-38{clip-path:url(#clip-path-4);}.cls-39{stroke:#8fc9c6;}.cls-39,.cls-43,.cls-48{stroke-width:0.53px;}.cls-40{fill:#ff9a8d;}.cls-41{fill:#aaeeed;}.cls-42{clip-path:url(#clip-path-5);}.cls-43{stroke:#aaeeed;}.cls-44{fill:#1e4174;}.cls-45{fill:#85b8ed;}.cls-46{fill:#4e7eac;}.cls-47{clip-path:url(#clip-path-6);}.cls-48{stroke:#274d79;}.cls-49{fill:#ba5964;}.cls-50{fill:#ffc253;}.cls-51{fill:#001c45;}.cls-52{stroke:#001c45;stroke-width:0.79px;}</style><linearGradient id="linear-gradient" x1="893.94" y1="438.13" x2="895.95" y2="-14.17" gradientUnits="userSpaceOnUse"><stop offset="0" stop-color="#1e9df8"/><stop offset="0.07" stop-color="#32a6f9"/><stop offset="0.32" stop-color="#73c2fb"/><stop offset="0.55" stop-color="#a7d9fd"/><stop offset="0.74" stop-color="#cde9fe"/><stop offset="0.9" stop-color="#e4f3ff"/><stop offset="1" stop-color="#ecf7ff"/></linearGradient><clipPath id="clip-path"><path class="cls-1" d="M335.3,121.71a44.34,44.34,0,0,0-10.82,3.87q1.1,1.34,2.33,2.56a35.51,35.51,0,0,0,15.84,9.19,29.71,29.71,0,0,1-4.41-7.12,50.85,50.85,0,0,1-2.93-8.5m44.11,3.87a44.41,44.41,0,0,0-10.82-3.87,50.86,50.86,0,0,1-2.93,8.5,29.73,29.73,0,0,1-4.41,7.12,35.52,35.52,0,0,0,15.84-9.19Q378.3,126.92,379.4,125.58ZM369,86.2a44,44,0,0,0,11.47-4.37,35.65,35.65,0,0,0-19.27-13.15,29.72,29.72,0,0,1,4.41,7.12A52.91,52.91,0,0,1,369,86.2Zm-45.66-4.37a44,44,0,0,0,11.47,4.37,53,53,0,0,1,3.39-10.4,29.73,29.73,0,0,1,4.41-7.12,35.63,35.63,0,0,0-19.27,13.15Zm26.72,6.28V67.73c-4,1.22-6.94,6.11-8.52,9.59A49.09,49.09,0,0,0,338.44,87,74.86,74.86,0,0,0,350.1,88.12ZM338.9,121a46.92,46.92,0,0,0,2.67,7.71c1.58,3.48,4.51,8.38,8.52,9.59V119.91A75.29,75.29,0,0,0,338.9,121Zm14.88-1.07v18.37c4-1.22,6.94-6.11,8.52-9.59A47,47,0,0,0,365,121,75.35,75.35,0,0,0,353.78,119.91Zm0-52.18V88.12A74.88,74.88,0,0,0,365.44,87a49.2,49.2,0,0,0-3.13-9.64C360.72,73.85,357.79,69,353.78,67.73ZM382.54,84.9a46,46,0,0,1-12.81,4.92,79.05,79.05,0,0,1,1,11.34h16.66A35.38,35.38,0,0,0,382.54,84.9Zm-28.76,16.26H367.1a75.79,75.79,0,0,0-1-10.59,78.83,78.83,0,0,1-12.35,1.22Zm-17,0H350.1V91.8a78.89,78.89,0,0,1-12.36-1.22A75.84,75.84,0,0,0,336.78,101.16Zm-20.35,0H333.1a79.12,79.12,0,0,1,1-11.34,46.13,46.13,0,0,1-12.81-4.92A35.39,35.39,0,0,0,316.43,101.16Zm16.66,3.68H316.43a35.36,35.36,0,0,0,5.83,17.74,47.35,47.35,0,0,1,12.23-4.47A77.76,77.76,0,0,1,333.1,104.85Zm5,12.54a78.44,78.44,0,0,1,12-1.16V104.85H336.78A74.25,74.25,0,0,0,338.09,117.39Zm27.69,0a74.2,74.2,0,0,0,1.31-12.54H353.78v11.38A78.46,78.46,0,0,1,365.78,117.39Zm21.66-12.54H370.78a77.85,77.85,0,0,1-1.4,13.27,47.43,47.43,0,0,1,12.23,4.47A35.35,35.35,0,0,0,387.44,104.85ZM351.94,63.77a39.23,39.23,0,1,1-27.74,11.49A39.12,39.12,0,0,1,351.94,63.77Z"/></clipPath><linearGradient id="linear-gradient-2" x1="351.94" y1="120.98" x2="351.94" y2="53.34" gradientUnits="userSpaceOnUse"><stop offset="0" stop-color="#1e9df8"/><stop offset="1" stop-color="#b9e4ff"/></linearGradient><clipPath id="clip-path-2"><path class="cls-1" d="M159.52,152a32.28,32.28,0,0,0-7.34,4q.94.84,2,1.58a25.85,25.85,0,0,0,12.44,4.78,21.62,21.62,0,0,1-4-4.61,37,37,0,0,1-3.08-5.78m32.15-2.28a32.33,32.33,0,0,0-8.22-1.54,37,37,0,0,1-1.13,6.45,21.64,21.64,0,0,1-2.36,5.63,25.86,25.86,0,0,0,10.34-8.42Q191,150.81,191.67,149.72Zm-12-27.12a32,32,0,0,0,7.74-4.46,26,26,0,0,0-15.36-7.24,21.64,21.64,0,0,1,4,4.61A38.52,38.52,0,0,1,179.7,122.6Zm-33.32,2.1a32,32,0,0,0,8.75,1.83,38.56,38.56,0,0,1,1.24-7.87,21.64,21.64,0,0,1,2.36-5.63,25.94,25.94,0,0,0-12.34,11.66Zm19.93,1.45L164,111.5c-2.74,1.34-4.29,5.19-5,7.87a35.73,35.73,0,0,0-1.15,7.29A54.49,54.49,0,0,0,166.31,126.15ZM162,151.06a34.16,34.16,0,0,0,2.8,5.24c1.54,2.32,4.2,5.5,7.23,5.92L170,149A54.81,54.81,0,0,0,162,151.06Zm10.57-2.47,2.11,13.21c2.74-1.34,4.29-5.19,5-7.87a34.24,34.24,0,0,0,1-5.85A54.85,54.85,0,0,0,172.6,148.58Zm-6-37.51L169,125.73a54.51,54.51,0,0,0,8.25-2.17,35.82,35.82,0,0,0-3.36-6.57C172.3,114.68,169.64,111.49,166.61,111.08Zm22.65,9a33.52,33.52,0,0,1-8.64,5,57.55,57.55,0,0,1,2.05,8l12-1.91A25.76,25.76,0,0,0,189.26,120.12Zm-18.81,15,9.57-1.53a55.18,55.18,0,0,0-1.91-7.5,57.38,57.38,0,0,1-8.74,2.3Zm-12.22,2,9.57-1.53-1.07-6.73a57.43,57.43,0,0,1-9,.54A55.21,55.21,0,0,0,158.23,137.06ZM143.6,139.4l12-1.91a57.6,57.6,0,0,1-.55-8.27,33.58,33.58,0,0,1-9.77-2.07A25.76,25.76,0,0,0,143.6,139.4Zm12.4.74L144,142a25.74,25.74,0,0,0,6.23,12.09,34.47,34.47,0,0,1,8.28-4.62A56.61,56.61,0,0,1,156,140.13Zm5,8.44a57.11,57.11,0,0,1,8.5-2.21l-1.31-8.18-9.57,1.53A54.05,54.05,0,0,0,161,148.57Zm19.91-3.18a54,54,0,0,0-.49-9.16l-9.57,1.53,1.31,8.18A57.12,57.12,0,0,1,180.94,145.39Zm14.13-11.5-12,1.91a56.67,56.67,0,0,1,.52,9.7,34.53,34.53,0,0,1,9.3,1.81A25.74,25.74,0,0,0,195.07,133.89Zm-30.24-25.46a28.56,28.56,0,1,1-18.63,11.45A28.48,28.48,0,0,1,164.84,108.44Z"/></clipPath><linearGradient id="linear-gradient-3" x1="165.4" y1="114.01" x2="165.4" y2="64.77" gradientTransform="translate(3.94 35.71)" xlink:href="#linear-gradient-2"/><clipPath id="clip-path-3"><path class="cls-1" d="M1255.46,150.31a65.92,65.92,0,1,1-65.92,65.92,65.92,65.92,0,0,1,65.92-65.92"/></clipPath><linearGradient id="linear-gradient-4" x1="1255.46" y1="281.99" x2="1255.46" y2="165.02" xlink:href="#linear-gradient-2"/><clipPath id="clip-path-4"><path class="cls-2" d="M1414.18,373.16c.52,2.59,2.63,8.68,2,11.64-2.65,2.24-8.32,2.4-12.58,1.32s-7.25,1.11-12.59,1.42-9.61-1.15-10.68-3.34c-1.17-2.39,8-4.24,14.22-6.16a28.39,28.39,0,0,0,10.58-5.58Z"/></clipPath><clipPath id="clip-path-5"><path class="cls-3" d="M1495.66,351.34c2.63.19,9.06-.24,11.76,1.13,1.46,3.15.11,8.66-2.05,12.48s-.85,7.28-2,12.51-3.65,9-6,9.41c-2.62.49-2-8.82-2.18-15.34a28.39,28.39,0,0,0-2.59-11.68Z"/></clipPath><clipPath id="clip-path-6"><path class="cls-4" d="M1483.33,354.91s-47.23-25.59-50.4-28-22.16-67.54-23.63-71.74c0,0-14-11.4-15.93-20.43l32.35-21.17c2.47,5.31,2.45,8.86,9,22.16,6.29,12.7,8.57,48.46,14.62,78.78a54.82,54.82,0,0,1,9.72,3.79c5.71,2.72,29.9,28.31,29.9,28.31S1488.32,352.21,1483.33,354.91Z"/></clipPath></defs><title>lienhe</title><g id="Layer_2" data-name="Layer 2"><rect class="cls-5" width="1790" height="398"/></g><g id="Layer_1" data-name="Layer 1"><path id="_Path_" data-name="&lt;Path&gt;" class="cls-6" d="M1397.76,164.07c-9.84,9-20.54,15.06-32.94,12.69-17.46-3.32-31.1-21.13-31.1-21.13s-4.5,5.87-4.5,6.45,11.54,23.47,32.47,28.17,39.75-10.3,39.75-10.3Z"/><g class="cls-7"><rect class="cls-8" x="312.7" y="63.77" width="78.47" height="78.47"/></g><g class="cls-9"><rect class="cls-10" x="140.78" y="108.08" width="57.12" height="57.13" transform="matrix(0.99, -0.16, 0.16, 0.99, -19.42, 28.4)"/></g><path class="cls-11" d="M1323,70.11H1189.35a22.34,22.34,0,0,0-22.27,22.27V368.94a22.34,22.34,0,0,0,22.27,22.27H1323a22.34,22.34,0,0,0,22.27-22.27V92.39A22.34,22.34,0,0,0,1323,70.11"/><rect class="cls-12" x="1177.69" y="88.86" width="156.94" height="274.62" rx="11.65" ry="11.65"/><path class="cls-13" d="M1266.23,81.48a1.4,1.4,0,0,0,0-2.81h-26a1.4,1.4,0,0,0,0,2.81Zm4.69-2.81a1.4,1.4,0,0,0,0,2.81h1.2a1.4,1.4,0,1,0,0-2.81Z"/><path class="cls-13" d="M1256.16,368.08a9.28,9.28,0,1,1-9.28,9.29,9.28,9.28,0,0,1,9.28-9.29"/><g class="cls-14"><rect class="cls-15" x="1189.54" y="150.31" width="131.85" height="131.85"/></g><path class="cls-13" d="M1222.08,179.15c-4,3.46-7.22,7-8.67,12.82-3.8,15.21,12.74,34.42,21.67,42.82a79.43,79.43,0,0,0,12.05,9.73c11.39,7.39,27.84,14.28,40.56,5.06,1.5-1.08,4.41-3.88,5.27-5.62.74-1.51,1.65-7.91.66-9.07s-12.35-6.59-14.34-7.46c-6.6-2.86-5-3.61-12.23,5.67-2.63,3.37-1.88,3.75-6.76,1.79a47.39,47.39,0,0,1-13.35-8.42c-4.66-4.18-9.48-9-12.58-14.66-2-3.68.53-3.25,4.7-9.91,2.23-3.56,1.37-3.56-.29-7.63-.9-2.21-5.56-14-6.74-15-.9-.75-5.45-.6-7.52-.68-1.74-.07-1.38-.3-2.42.6"/><path class="cls-16" d="M24.26,390.08H1738.38c3,0,5.53,1.07,5.53,2.38h0c0,1.31-2.49,2.38-5.53,2.38H24.26c-3,0-5.53-1.07-5.53-2.38h0c0-1.31,2.49-2.38,5.53-2.38"/><path class="cls-17" d="M1114.75,76.29c13.52,0,24.47,10.72,24.47,22s-8,19.13-18.84,21.42h-30.1V98.29c0-12.15,11-22,24.47-22"/><polygon class="cls-18" points="1143.18 192.81 1143.18 392.46 807.52 392.46 807.52 192.81 978.96 99.49 1143.18 192.81"/><path class="cls-13" d="M1115,76.29h0Zm-24.72,54.92h.09V367.86H856V98.29c0-12.15,11-22,24.47-22h234.29c-13.52,0-24.47,9.85-24.47,22Z"/><polygon class="cls-19" points="807.52 192.81 972.82 339.98 1143.18 192.81 1143.18 392.46 807.52 392.46 807.52 192.81"/><polygon class="cls-20" points="807.52 392.46 976.79 273.83 1143.18 392.46 807.52 392.46"/><path class="cls-17" d="M896.66,214.41h152.59a6.78,6.78,0,1,1,0,13.53H896.66a6.78,6.78,0,1,1,0-13.53m0-62h59a6.78,6.78,0,1,1,0,13.53h-59a6.78,6.78,0,1,1,0-13.53Zm0,31.1h152.59a6.78,6.78,0,1,1,0,13.53H896.66a6.78,6.78,0,1,1,0-13.53Zm0,61.76h152.59a6.78,6.78,0,1,1,0,13.53H896.66a6.78,6.78,0,1,1,0-13.53Z"/><path class="cls-18" d="M1002.35,112.19q0,6.33,2.55,9.32a8.06,8.06,0,0,0,6.34,3,10.57,10.57,0,0,0,5.3-1.39,13.12,13.12,0,0,0,3.72-3.15,25.52,25.52,0,0,0,4.56-8.86,34.87,34.87,0,0,0,1.9-10.87c0-3.74-.87-6.63-2.6-8.64a8.37,8.37,0,0,0-6.58-3,11.49,11.49,0,0,0-7.91,3.32,20.42,20.42,0,0,0-5.46,9.44,38.36,38.36,0,0,0-1.84,10.85m53.75,20.47h10.63a36.12,36.12,0,0,1-15.3,15.93q-11.78,6.61-28.79,6.61-16.45,0-28.4-5.56a37.49,37.49,0,0,1-17.79-16.43,49.12,49.12,0,0,1-5.83-23.65,53.55,53.55,0,0,1,6.63-26.14,43.6,43.6,0,0,1,18.13-18.16,55.54,55.54,0,0,1,26.31-6.07A49.28,49.28,0,0,1,1044,64.08,34.57,34.57,0,0,1,1058.93,78a38.88,38.88,0,0,1,5.15,19.66,37,37,0,0,1-7.82,23q-9.79,13-25.13,13-4.13,0-6.22-1.43a7,7,0,0,1-2.79-4.22,19,19,0,0,1-13.54,5.64,18.23,18.23,0,0,1-13.72-5.7q-5.46-5.71-5.46-15.17A37.21,37.21,0,0,1,996,91.36q8-11.76,20.42-11.75c5.9,0,10.27,2.26,13.08,6.79l1.24-5.56h13.14l-7.53,35.68a30,30,0,0,0-.7,4.39,2.61,2.61,0,0,0,.58,1.85,1.75,1.75,0,0,0,1.36.63c1.6,0,3.66-1,6.19-2.89a27.63,27.63,0,0,0,8.21-10.15,29.6,29.6,0,0,0,3.15-13.21,26.87,26.87,0,0,0-8.86-20.49q-8.88-8.24-24.76-8.25-13.49,0-22.89,5.51a35,35,0,0,0-14.13,15.54,47.86,47.86,0,0,0-4.76,20.85A35.9,35.9,0,0,0,985,129.45a30.89,30.89,0,0,0,14.9,12.62,57,57,0,0,0,21.94,4c7.92,0,14.76-1.12,20.46-3.35A31.74,31.74,0,0,0,1056.11,132.66Z"/><path class="cls-17" d="M910.73,96.37a20.48,20.48,0,1,1-20.48,20.48,20.48,20.48,0,0,1,20.48-20.48"/><path class="cls-13" d="M910.71,104.16a6.36,6.36,0,1,1-6.36,6.37,6.37,6.37,0,0,1,6.36-6.37"/><path class="cls-13" d="M903.42,119.29H918a5.43,5.43,0,1,1,0,10.87H903.42a5.43,5.43,0,0,1,0-10.87"/><path class="cls-11" d="M370.92,254.53c-22.37,21.47-35.58,91.41-64,100.37,0,0-2.64,6.66-1.27,12.62s4,8.22,4,8.22,23.92,2.18,44-2c11.3-2.37,13-17.25,17.26-19,11.9-4.79,18.21-52.94,18.21-52.94Z"/><path class="cls-11" d="M305.25,363.68c0,1.26-.44.22.39,3.84s4,8.22,4,8.22,23.92,2.18,44-2c11.3-2.37,16.54-11.46,20.83-13.18,5.18-2.08,2.48-42.92,6.34-47.35l.56-2.52-8.23-26s-12.25,62.68-36.66,70.23-25.57,7.47-31.26,8.77"/><path class="cls-11" d="M397.26,244.1h55.31A44.33,44.33,0,0,1,496,280.93c.38,0,2,13.76,2.12,15,2.44,25.73,2.63,63.33-4.62,90.41H371.42l-.5-63.85V254.53c7.67-6.5,15.6-10.43,26.35-10.43"/><path class="cls-13" d="M433.85,244.1s-3.16,6.39-6.19,8.84-3.84,1.71-7,.73-3.76-.78-4.93-2.83-7.07-6.74-7.07-6.74h-6.57c-3.78,27.51-5.46,87-1.58,126.78L422,383.73l16.47-10c-.53-40.48,1.34-89.58,5.69-129.61Z"/><path class="cls-21" d="M393,197.33a32.67,32.67,0,0,1-1.61,12c-3.45,9.9,4.1,26.92,17.32,25.79l0,9h.21c-.7,9.16,5,14.74,11.66,14.79,5.73,0,12.56-3.88,13.29-14.79V224.46a5.19,5.19,0,0,0,2-.88c1.33-.81,8-6.26,7.47-9.34s-6.69-3.44-6.69-3.44l-1.42-1.25c3.71-9.14,6.53-9.3-3-14.38s-28.86-4.7-28.86-4.7l-10,3Z"/><path class="cls-22" d="M408.73,235.1l0,8.9a33.9,33.9,0,0,0,9.14-2.87,16.87,16.87,0,0,0,8.75-9.37,45.36,45.36,0,0,1-16,3.29Z"/><path class="cls-23" d="M344.79,336.1s-13.66-.13-18.08,1.54-6,4-6,4l-4.51,1.13s-.85,3.39,0,3.39S341,348.4,341,348.4l5.11-.66s-1.68-7.65-1.14-9.14,3.11-3.17,3.11-3.17Z"/><path class="cls-24" d="M453.85,270.73c4.7-10.44,18.7-16.11,26.79-8h0c6.06,6.06,7.33,6.89,7.48,14.94.44,24.88-9.72,94.94-37.55,99.13-15.26,2.3-40.16,4.74-56.55,4.17-6.62-.23-12,0-14.55-1.92-9-6.77,3.87-17.07,3.87-17.07s49.34-17.71,55.1-19.47c9.56-2.91,12.11-64.45,15.41-71.77"/><path class="cls-25" d="M486,269.16c15.16,22.14-7.91,104.15-31.8,107.75-3.69.55-10.77,1.79-15.32,2.32A335.22,335.22,0,0,1,394,381c-6.62-.23-12,0-14.55-1.92,0,0,48.73-6.24,71.87-12.91,20.88-6,35.37-72.57,34.67-97"/><path class="cls-26" d="M369.24,355a21.6,21.6,0,0,1,3.42,9.05c.64,5.19-.55,7.89-.55,7.89-13.68,1.1-41.15.07-41.1.06.92-.14-1.28-2.11,1.66-3.62,2.12-1.09,9.09-1.44,11.54-3.07,10.88-7.23,18.2-5.81,25-10.31"/><path class="cls-27" d="M363.74,307.65H265.56c-3.79,0-7.72,3.19-6.88,6.88l14.67,64.89c.83,3.69,3.1,6.88,6.88,6.88h98.18c3.79,0,7.72-3.19,6.88-6.88l-14.67-64.89c-.84-3.69-3.1-6.88-6.88-6.88"/><path class="cls-13" d="M359.34,307.65H261.16c-3.79,0-7.72,3.19-6.88,6.88l14.67,64.89c.83,3.69,3.1,6.88,6.88,6.88H374c3.79,0,7.72-3.19,6.88-6.88l-14.67-64.89c-.83-3.69-3.1-6.88-6.88-6.88"/><path class="cls-28" d="M315.52,340.53c-3,1-4.44,4.61-3.3,8.17s4.48,5.67,7.45,4.72,4.44-4.61,3.3-8.17-4.48-5.67-7.44-4.72"/><path class="cls-27" d="M442.17,378.64H384.26l-5.5,7.67H446v-3.83a3.85,3.85,0,0,0-3.83-3.84"/><path class="cls-29" d="M427.33,197.9c2.71,5.1,2.71,14.18,1.42,16.88-1.84,3.86-.58,4.86,1.12,4.85,4.75,0,3.46-2.8,6.14-4.07a2.81,2.81,0,0,1,2.35-.06c1.74,1.32.79,5.47-1.2,6.87-.59.41-3.3,2.09-3.3,2.09,14.45,2,27-18.45,17.36-30.63,4.73-32.82-26.73-33-48.91-27.14-6.38,1.7-11.81,2.76-18.07.37-1.81-.69-3.44-1.25-4.94-.53-4.4,2.14-2.07,15,2.83,22.5,10,15.15,40.08-.77,45.2,8.87"/><path class="cls-11" d="M734.3,76.64l31.33,14.48L797,76.64v27.66a4.56,4.56,0,0,1-4.54,4.54H738.84a4.56,4.56,0,0,1-4.54-4.54Zm62.49-4.45L765.63,86.59,734.47,72.18a4.57,4.57,0,0,1,4.37-3.31h53.58a4.57,4.57,0,0,1,4.37,3.31Zm-4.37-7.43H738.84a8.68,8.68,0,0,0-8.66,8.66v30.87a8.68,8.68,0,0,0,8.66,8.66h53.58a8.68,8.68,0,0,0,8.66-8.66V73.42a8.68,8.68,0,0,0-8.66-8.66Z"/><path class="cls-11" d="M650.56,92.73h65.72a2.92,2.92,0,1,1,0,5.83H650.56a2.92,2.92,0,1,1,0-5.83m0-26.69H676a2.92,2.92,0,1,1,0,5.83H650.56a2.92,2.92,0,1,1,0-5.83Zm0,13.39h65.72a2.92,2.92,0,1,1,0,5.83H650.56a2.92,2.92,0,1,1,0-5.83Zm0,26.6h65.72a2.92,2.92,0,1,1,0,5.83H650.56a2.92,2.92,0,1,1,0-5.83Z"/><g id="_Group_" data-name="&lt;Group&gt;"><path id="_Path_2" data-name="&lt;Path&gt;" class="cls-30" d="M1663.72,391.85s-10.44-4.71-9.67-15.91,8.4-13.49,15-17.56,7.13-10.94,7.38-19.34,5.85-16.8,17.05-16.29,15.34,2.8,23.45-6.87,19.06-9.42,23.64-4.07,4.88,14.54-2.07,20.88c-8.45,7.71-10.64,9.66-13.08,18.14-3.31,11.51,1.47,22.73-2.79,28.09-5.69,7.15-11.83,5.39-17.68,7.72s-6.07,5.22-6.07,5.22Z"/><path id="_Path_3" data-name="&lt;Path&gt;" class="cls-31" d="M1730.49,319.25c-17.13,10-46.93,40.36-52,72.6"/></g><path id="_Path_4" data-name="&lt;Path&gt;" class="cls-32" d="M622.48,308a21,21,0,0,0,26.47,6.71l16.84-8.3a7,7,0,0,1,9,2.51l30.43,47.82a7,7,0,0,1-2.44,9.82c-9.84,5.57-30.17,15-52.55,13.17-31.42-2.56-51.87-31.77-86.47-86.13s-52.4-85.26-41.42-114.8c7.83-21,25-35.48,34.18-42a7,7,0,0,1,9.93,1.95l30.43,47.82a7,7,0,0,1-1.52,9.2l-14.65,11.74a21,21,0,0,0-5.13,26.82Z"/><path id="_Path_5" data-name="&lt;Path&gt;" class="cls-33" d="M583,205.57l12.33-9.88a7,7,0,0,0,1.52-9.2l-16.09-25.28-14.53-22.78a7,7,0,0,0-9.75-1.71A113.71,113.71,0,0,0,545,146.08Z"/><path id="_Path_6" data-name="&lt;Path&gt;" class="cls-33" d="M689.43,372.93a113.73,113.73,0,0,0,13.32-6.4,7,7,0,0,0,2.6-9.51l-31.27-49a7,7,0,0,0-8.3-1.64l-14.32,7.06Z"/><g id="_Group_2" data-name="&lt;Group&gt;"><path id="_Path_7" data-name="&lt;Path&gt;" class="cls-34" d="M90.46,390.08A69.11,69.11,0,0,0,109,366.5c7.5-15.68.82-29.37-9.68-27.38-11.19,2.12-12.74-7-15.83-18.61-3.7-13.89-21.66-33.67-36.32-31.68-18.91,2.56-7,22.8-5,30.14s6.71,15.8-5,17c-10.68,1.05-15.36,10.75-7,20.68C38,366,46.62,365.9,47,375.48s6.35,12.29,11.38,14.6Z"/><path id="_Path_8" data-name="&lt;Path&gt;" class="cls-31" d="M55.08,305.58s25.77,33.64,19.26,84.5"/></g><g id="_Group_3" data-name="&lt;Group&gt;"><path id="_Path_9" data-name="&lt;Path&gt;" class="cls-34" d="M227.56,390.08S228.05,351,197,314.53,130.52,265,99.87,276.1c-22.82,8.23-17,34.65,1.7,45.91,22.09,13.32,104.82,18.72,107.77,68.07Z"/><path id="_Path_10" data-name="&lt;Path&gt;" class="cls-31" d="M103.16,293.76c42.15-2.4,106.68,36.44,115.54,96.31"/></g><g id="_Group_4" data-name="&lt;Group&gt;"><path id="_Path_11" data-name="&lt;Path&gt;" class="cls-35" d="M237.19,390.08s20.41-21.76,16.47-63.68-40.81-52.32-47.43-32.06c-5.21,15.94,30.69,53.07,17.89,95.74Z"/><path id="_Path_12" data-name="&lt;Path&gt;" class="cls-31" d="M224.11,297.3c7.91,10.24,23.12,52.13,7.6,92.78"/></g><path id="_Path_13" data-name="&lt;Path&gt;" class="cls-36" d="M1397.13,164.58l-8,6s-3.6,11,2.47,16.76l10.55-6.4Z"/><g id="_Group_5" data-name="&lt;Group&gt;"><g id="_Group_6" data-name="&lt;Group&gt;"><g id="_Group_7" data-name="&lt;Group&gt;"><path id="_Path_14" data-name="&lt;Path&gt;" class="cls-37" d="M1380.36,384.19c-.47.88-.11,2.67,3.43,4.14s10,.85,12.5.35,4.1-1.24,7.87-.45,10,.44,11.82-1.14c.65-.75.21-2.3.21-2.3Z"/><g id="_Clip_Group_" data-name="&lt;Clip Group&gt;"><path class="cls-2" d="M1414.18,373.16c.52,2.59,2.63,8.68,2,11.64-2.65,2.24-8.32,2.4-12.58,1.32s-7.25,1.11-12.59,1.42-9.61-1.15-10.68-3.34c-1.17-2.39,8-4.24,14.22-6.16a28.39,28.39,0,0,0,10.58-5.58Z"/><g class="cls-38"><path id="_Path_15" data-name="&lt;Path&gt;" class="cls-39" d="M1403.05,378.16s-1.25-3.52-2.93-4.66"/><path id="_Path_16" data-name="&lt;Path&gt;" class="cls-39" d="M1398.31,380s-1.25-3.52-2.93-4.66"/><path id="_Path_17" data-name="&lt;Path&gt;" class="cls-39" d="M1393.56,381.93s-1.25-3.52-2.93-4.66"/></g></g><path id="_Path_18" data-name="&lt;Path&gt;" class="cls-40" d="M1414.18,362.84v10.32a4.64,4.64,0,0,0-1.69,1c-.5.59-1.18,2.53-2,2.57-3.33.14-5.3-4.26-5.3-4.26l-1.25-9.38Z"/></g><g id="_Group_8" data-name="&lt;Group&gt;"><path id="_Path_19" data-name="&lt;Path&gt;" class="cls-41" d="M1497.36,386.87c.73.69,2.54.81,4.9-2.21s3.45-9.38,3.64-12-.11-4.28,1.65-7.71,3.06-9.48,2-11.7c-.55-.82-2.16-.81-2.16-.81Z"/><g id="_Clip_Group_2" data-name="&lt;Clip Group&gt;"><path class="cls-3" d="M1495.66,351.34c2.63.19,9.06-.24,11.76,1.13,1.46,3.15.11,8.66-2.05,12.48s-.85,7.28-2,12.51-3.65,9-6,9.41c-2.62.49-2-8.82-2.18-15.34a28.39,28.39,0,0,0-2.59-11.68Z"/><g class="cls-42"><path id="_Path_20" data-name="&lt;Path&gt;" class="cls-43" d="M1497.54,363.4s-3.72.28-5.27,1.6"/><path id="_Path_21" data-name="&lt;Path&gt;" class="cls-43" d="M1498.1,368.47s-3.72.28-5.27,1.6"/><path id="_Path_22" data-name="&lt;Path&gt;" class="cls-43" d="M1498.66,373.55s-3.72.28-5.27,1.6"/></g></g><path id="_Path_23" data-name="&lt;Path&gt;" class="cls-40" d="M1489,346.55l6.66,4.79a4.65,4.65,0,0,0,.5,1.89c.43.64,2.13,1.81,1.94,2.63-.75,3.25-5.51,4-5.51,4l-9.26-4.94Z"/></g><path id="_Path_24" data-name="&lt;Path&gt;" class="cls-44" d="M1394.25,215.82c11.56,0,20.16.87,20.16.87,3.7,1.62,10,10,11.91,15.35s-.9,12.79-1.88,17.38c-5.43,25.56-11,43.32-13.09,53.45-1.29,6.2,3.3,7.19,3.35,17,.06,14.06-.52,44-.52,44a13.51,13.51,0,0,1-10.05.8s-8.67-49.42-9.62-55.08c-1.54-9.17-2.07-13-2.25-28.89C1392,258.41,1394.25,215.82,1394.25,215.82Z"/><path id="_Path_25" data-name="&lt;Path&gt;" class="cls-45" d="M1394.39,235.19c1.93,9,14.9,19.93,14.9,19.93,1.47,4.21,20.47,69.28,23.64,71.76s50.39,28,50.39,28a10.7,10.7,0,0,0,4.48-4.72,13.53,13.53,0,0,0,1.08-3.09,4.36,4.36,0,0,0,.08-.44.34.34,0,0,0,0-.1s-24.18-25.57-29.89-28.3a53.52,53.52,0,0,0-9.72-3.79v0c-6.5-30.23-6.3-53.85-11.56-70.56a73.79,73.79,0,0,0-3.05-8.22c-1.35-3-2.38-5.43-3.21-7.54-.35-.91-.66-1.74-.95-2.53s-.54-1.53-.75-2.2c-.15-.46-.29-.91-.43-1.31-.6-1.89-1-3.42-1.49-4.87-.21-.64-.43-1.26-.66-1.89-.14-.31-.25-.64-.39-.95s-.27-.66-.43-1h0v0l-9,6.73-4.35,3.23Z"/><path id="_Path_26" data-name="&lt;Path&gt;" class="cls-46" d="M1413.08,223.36a43,43,0,0,0,5.51,5.91c6.71,5.84,10.76,14.92,14.34,33.74,4,21.2,10.79,52.73,11.61,54.68s6.77,1.22,17.67,9.18c8.23,6,20.2,18.52,25.61,23.31a13.53,13.53,0,0,0,1.08-3.09c0-.21.06-.37.08-.44a.34.34,0,0,0,0-.1s-24.18-25.57-29.89-28.3a53.52,53.52,0,0,0-9.72-3.79v0c-6.2-30.23-6.3-53.85-11.56-70.56a69.6,69.6,0,0,0-3.07-8.2c-1.35-3-2.38-5.43-3.19-7.56-.37-.91-.68-1.76-.95-2.53s-.54-1.53-.75-2.2c-.15-.46-.29-.91-.43-1.31-.6-1.89-1-3.42-1.49-4.87-.21-.64-.43-1.26-.66-1.89-.14-.31-.25-.64-.39-.95s-.29-.64-.44-1v0l-9,6.75Z"/><path id="_Path_27" data-name="&lt;Path&gt;" class="cls-46" d="M1394.39,235.19s5.91,7.74,22.16,8.35c11.23.42,18.37-4.08,18.37-4.08l-4.38-6.88Z"/><g id="_Clip_Group_3" data-name="&lt;Clip Group&gt;"><g class="cls-47"><path id="_Path_28" data-name="&lt;Path&gt;" class="cls-48" d="M1401.2,217.39c6.8,8.73,15.49,14,19.1,20s5.62,18.94,10.3,42.6c4.65,23.5,8.88,39.5,10.17,40.92s9.26,2.82,21.71,11.17,26.89,21.75,26.89,21.75"/><path id="_Path_29" data-name="&lt;Path&gt;" class="cls-48" d="M1408.74,238.07s2.7,14.88,15.94,12.39"/><path id="_Path_30" data-name="&lt;Path&gt;" class="cls-48" d="M1486.43,341.91c-.06,4-2.86,9.78-8,12.87"/></g></g></g><g id="_Group_9" data-name="&lt;Group&gt;"><g id="_Group_10" data-name="&lt;Group&gt;"><polygon id="_Path_31" data-name="&lt;Path&gt;" class="cls-40" points="1410.82 149.38 1399.63 158.97 1393.21 143.75 1406.54 136.06 1410.82 149.38"/><path id="_Path_32" data-name="&lt;Path&gt;" class="cls-49" d="M1395.11,148.25s13.2-3.7,11.43-12.2l-13.33,7.69Z"/></g></g><path id="_Path_33" data-name="&lt;Path&gt;" class="cls-50" d="M1399.89,158.59a13.12,13.12,0,0,0-4.6,8.57c-.61,5.41-1.09,13.51-1.54,25.26-.41,10.67-1.49,41.64-1.49,41.64s8.17,5.36,21.9,4.26c13.11-1,18.77-7.5,18.77-7.5s-1.37-43.55-5.68-60.69c-6.37-17.68-16.43-20.75-16.43-20.75Z"/><g id="_Group_11" data-name="&lt;Group&gt;"><path id="_Path_34" data-name="&lt;Path&gt;" class="cls-49" d="M1386.53,123.59c-.69,1.19-4.3,6.26-5.47,7.73s3.5,1.86,3.5,1.86Z"/><path id="_Path_35" data-name="&lt;Path&gt;" class="cls-40" d="M1406.54,136.05a30.49,30.49,0,0,1-1.54,3c-.79,1.3-11.77,5.76-14.66,6.11s-6.74-.24-6-9.91,3.22-18,9.68-22.42,15.52.4,19.43,6.6S1413.22,137.84,1406.54,136.05Z"/><path id="_Path_36" data-name="&lt;Path&gt;" class="cls-51" d="M1406.54,136.05h0l1.43,4.45s1.11.53,3.91-2.95c3.06-3.81,8.65-10.3,8.1-14.43-.72-5.42-6.93-7.37-6.93-7.37s-3.16-10-15.54-15.33-17.85,3.63-8.33,10.24c0,0-6.62,3.31-2.44,5.81s16.12,2.19,16.12,2.19-5.86,2.24-4.12,3.9,9.31,1,9.31,1l-.95,3.81s3.09-.94,4.75,1.05C1413.86,130.8,1410.8,137.31,1406.54,136.05Z"/><path id="_Path_37" data-name="&lt;Path&gt;" class="cls-52" d="M1414.28,104.11s3.69,8-3.24,13.35c0,0,6.91-.22,8.38-6.77"/><g id="_Group_12" data-name="&lt;Group&gt;"><g id="_Group_13" data-name="&lt;Group&gt;"><circle id="_Path_38" data-name="&lt;Path&gt;" class="cls-51" cx="1392.52" cy="125.9" r="1.19" transform="translate(822.09 1402.44) rotate(-71.09)"/><path id="_Path_39" data-name="&lt;Path&gt;" class="cls-51" d="M1391.29,122.23l4.78,3.14a2.85,2.85,0,0,0-1.26-2.89A3.22,3.22,0,0,0,1391.29,122.23Z"/></g><path id="_Path_40" data-name="&lt;Path&gt;" class="cls-49" d="M1410.36,129.6a2.8,2.8,0,0,0-2.46-.4c-.27.12,0,.59.24.57,1.33-.11,2.83.24,3,1.82,0,.08.09,0,.09,0A2.05,2.05,0,0,0,1410.36,129.6Z"/><path id="_Path_41" data-name="&lt;Path&gt;" class="cls-49" d="M1409.76,129.56c-.12-.1-.52.15-.51.25a1.7,1.7,0,0,1,.5.77,2.26,2.26,0,0,1-.1,1.45,2.54,2.54,0,0,1-2.61,1.79s-.07,0,0,.07a2.43,2.43,0,0,0,2.9-1C1410.44,131.9,1410.78,130.44,1409.76,129.56Z"/></g></g><path id="_Path_42" data-name="&lt;Path&gt;" class="cls-36" d="M1415.67,159.07c2.71,1.43,6.27,9.25,3.74,17.7s-5.8,17.16-5.8,17.16-13-3.08-16.48-11.39c0,0,4.61-11.26,6.75-15.82S1408.83,155.45,1415.67,159.07Z"/><path id="_Path_43" data-name="&lt;Path&gt;" class="cls-36" d="M1402,208.11c-2.93,2.93-6.91,6.14-9.14,7,.17-4.92.36-9.08.53-13.64l9.77-13,6.42-1.73,2.3,6.65S1406.69,203.43,1402,208.11Z"/><path id="_Path_44" data-name="&lt;Path&gt;" class="cls-40" d="M1412.59,159c6.17,1.64,8.27,10.49,2.06,24.2-6,13.14-15.55,25.17-21.44,29.28s-28.74,2.76-47.84-2.89c0,0-10.89-3.91-13.91-6.59-6.74-6-7.08-13.91-2.12-12.74s12.77,6.55,12.77,6.55,2.07-4.09,3.58-7.27c0,0,1.34.35,1.81,3.18s.43,6.77,1.25,7.35c2.19,1.53,32.82,4.11,36.47.5,4.14-4.08,10.14-14.91,14.4-24.91C1404.34,164.58,1406.28,157.3,1412.59,159Z"/><path id="_Path_45" data-name="&lt;Path&gt;" class="cls-50" d="M1414.65,157.59c2.71,1.43,6.27,9.25,3.74,17.7s-5.8,17.16-5.8,17.16-12.25-1.85-17.45-8.89c0,0,5.57-13.77,7.72-18.33S1407.81,154,1414.65,157.59Z"/></g></g></svg>