<?xml version="1.0" encoding="utf-8"?>
<!-- Generator: Adobe Illustrator 22.0.0, SVG Export Plug-In . SVG Version: 6.00 Build 0)  -->
<svg version="1.1" id="Layer_1" xmlns="http://www.w3.org/2000/svg" xmlns:xlink="http://www.w3.org/1999/xlink" x="0px" y="0px"
	 viewBox="0 0 197.6 49.4" style="enable-background:new 0 0 197.6 49.4;" xml:space="preserve">
<style type="text/css">
	.st0{fill:#FFFFFF;}
	.st1{opacity:0.2;fill:#01A0A4;}
	.st2{fill:#01A0A4;}
	.st3{opacity:0;enable-background:new    ;}
	.st4{opacity:0.2;fill:#FFFFFF;enable-background:new    ;}
	.st5{fill:#FF4500;}
	.st6{font-family:'AmericanTypewriter-Bold';}
	.st7{font-size:15px;}
	.st8{fill:#20C997;}
	.st9{font-size:32px;}
</style>
<title>lgBi18</title>
<path class="st0" d="M49,25c0,0.2,0,0.3,0,0.5c0,0.2,0,0.3,0,0.5s0,0.3,0,0.5s0,0.2,0,0.2c0,0.1,0,0.2,0,0.3c0,0.1,0,0,0,0.1
	s0,0.3,0,0.4s0,0.1,0,0.2c0,0.1,0,0.2,0,0.3c0,0.1,0,0.1,0,0.1s0,0.3-0.1,0.4c0,0,0,0.1,0,0.1c0,0.1,0,0.2-0.1,0.4v0.1l-0.1,0.4v0.1
	c0,0.1,0,0.2-0.1,0.3c-0.1,0.1,0,0.1,0,0.1s0,0.1,0,0.2l-0.1,0.3c-0.1,0.6-0.3,1.2-0.5,1.7L48,32.4l-0.1,0.2L47.7,33l-0.1,0.3
	l-0.1,0.2l-0.1,0.2l-0.1,0.2l-0.1,0.2l-0.1,0.2L47,34.7l-0.1,0.2l-0.1,0.3l-0.1,0.1l-0.2,0.3l-0.2,0.3c-0.1,0.2-0.3,0.4-0.4,0.7
	c-0.2,0.4-0.5,0.8-0.7,1.1L45,37.8l-0.2,0.2l-0.2,0.3l-0.2,0.2l-0.2,0.3L44.2,39l-0.5,0.6c-0.3,0.4-0.7,0.7-1,1.1l-0.2,0.2L42.3,41
	l-0.1,0.1c-2,1.8-4.3,3.2-6.8,4.1l-0.7,0.3l-0.2,0.1l-0.7,0.2l-0.3,0.1L33.2,46l-0.3,0.1l-0.3,0.1l-0.4,0.1l-0.5,0.1l-0.4,0.1h-0.1
	h-0.1l-0.3,0.1h-0.1l-0.5,0.1c-1.2,0.2-2.3,0.3-3.5,0.3h-1l-0.3,0h-0.5h-0.2h-0.1h-0.4l0,0h-0.2h-0.2h-0.1h-0.3h-0.1l0,0l-0.4-0.1
	h-0.1l-0.4-0.1h-0.1l-0.4-0.1l-0.3-0.1h-0.1h-0.1L21,46.5h-0.1h-0.1l-0.2-0.1h-0.1h-0.1l-0.5-0.6h-0.2l-0.2-0.1h-0.1h-0.1h-0.1
	L19,45.7l0,0l-0.4-0.1h-0.1h-0.1h-0.1h-0.1h0h-0.1H18l-0.1-0.1l-0.2-0.1h-0.1l-0.3-0.6h-0.1l0,0l-0.3-0.1l-0.1-0.1l-0.1-0.1h-0.1
	l-0.2-0.1h-0.1h-0.1l0,0l-0.1-0.1l-0.3-0.2l0,0l-0.3-0.2h0l-0.3-0.2l0,0l-0.2-0.1L15,43.7l-0.1-0.1l-0.1-0.1h-0.1l-0.3-0.2l-0.1-0.1
	l-0.1-0.1L14,43.1H14l-0.1-0.2l-0.2-0.1l-0.1-0.1l-0.1,0l-0.2-0.1l-0.2-0.2L13,42.2l-0.2-0.1l-0.2-0.2l-0.1-0.1h-0.1l0,0L12,41.5
	l-0.2-0.2l-0.2-0.2l-0.3-0.3l-0.1-0.1l-0.2-0.2l-0.2-0.2l-0.5-0.5l-0.2-0.2l-0.2-0.2l-0.5-0.5l0,0l-0.2-0.2L9,38.4l-0.2-0.2L8.7,38
	l-0.2-0.2l-0.1-0.1l-0.2-0.3l-0.1-0.1v-0.1c-0.2-0.3-0.4-0.6-0.6-1l-0.2-0.4l-0.1-0.2c-0.2-0.3-0.3-0.6-0.5-0.9l-0.2-0.4l-0.1-0.1
	l0,0L6.4,34l-0.2-0.4l-0.1-0.3L6,33.2l-0.1-0.3l-0.1-0.2l-0.2-0.4l0,0L5.6,32l-0.1-0.3c-0.3-1-0.6-2.1-0.8-3.2v-0.2v-0.1
	c0-0.2-0.1-0.4-0.1-0.6v-0.3c0-0.1,0-0.2,0-0.3l0,0c-0.1-0.7-0.1-1.3-0.1-2H4.4c0,0,0-0.1,0-0.1l0,0c0-0.2,0-0.5,0-0.7
	c0-0.1,0-0.2,0-0.3c0-0.1,0-0.3,0-0.5c0.2-2.3,0.7-4.5,1.6-6.7c0.6-1.5,1.5-3,2.4-4.3C8.7,12,9,11.5,9.4,11.1l0,0l0.1-0.2l0.3-0.3
	c0.5-0.5,0.9-1,1.4-1.5l0,0c0.5-0.5,1.1-0.9,1.6-1.4l0,0c0.8-0.6,1.6-1.1,2.4-1.6c0.6-0.3,1.2-0.7,1.8-1c0.4-0.2,0.8-0.3,1.1-0.5
	l0.4-0.2h0.1h0.1l0.6-0.3L20,3.9l0.4-0.1L21,3.7l0.4-0.1l0.3-0.1l0.2-0.1l0.3-0.1c0.4-0.1,0.8-0.2,1.1-0.2c1.2-0.2,2.3-0.3,3.5-0.4
	h1h0.4h0.3h0.3l0,0h0.2l0,0h0.1h0h0.2h0.3h0.2h0.1h0.3l0,0h0.2l0.3,0.1L31,3l0.3,0.1h0.1l0.3,0.1h0.1h0.2h0.2l0.4,0.1l0.3,0.1h0.1
	H33l0.4,0.1l0.3,0.1h0.1h0.1L34,3.6l0,0h0.1h0.1l0.2,0.1l0,0h0.1h0.1l0.2,0.1h0.1H35l0.1,0.1l0,0L35.4,4l0,0l0.3,0.2l0,0l0,0
	l0.1,0.1l0,0l0.2,0.1h0.1l0.2,0.1h0.1l0,0l0.1,0.1l0.2,0.1L37,4.6h0.1l0,0l0.3,0.2l0,0L37.8,5l0,0l0.3,0.2l0.2,0.1h0.1l0,0h0.1
	l0.1,0.1l0.3,0.2l0,0L39,5.7l0.1,0.1l0,0l0,0l0.1,0.1l0,0l0,0L39.3,6h0l0,0l0,0L39.5,6h0l0.1,0.1l0,0l0.3,0.2l0.4,0.4l0.2,0.2
	l0.3,0.3L41,7.2l0.2,0.2l0.1,0.1l0.2,0.2l0.2,0.2l0.1,0.1L42,8.2l0.3,0.3l0.6,0.6l0.2,0.3l0.2,0.3l0,0l0.2,0.3l0.2,0.3l0.5,0.6
	l0.2,0.3l0.1,0.1l0.8,1.6l0.1,0.1l0,0l0.1,0.1l0.1,0.1l0.2,0.3l0,0.1v0.1L46,14v0.1c0.1,0.2,0.2,0.4,0.4,0.7l0.1,0.1v0.1l0.1,0.1
	l0.1,0.2l0,0l0.1,0.1v0.1l0.1,0.1l0.1,0.1v0.1l0.1,0.2l0.1,0.2l0.1,0.3l0.1,0.2v0.1l0.2,0.4v0.1v0l0.1,0.3l0.1,0.2v0.1l0.1,0.3
	l0.1,0.2v0.1l0,0v0.1v0.1l0.1,0.3v0.1l0,0v0.1v0l0.1,0.3l0,0l0.1,0.3v0.2v0.1l0,0.2v0.1v0.1v0.1c0,0.1,0,0.2,0.1,0.4V21
	c0,0.1,0,0.3,0.1,0.4v0.1c0.1,0.3,0.1,0.7,0.1,1l0,0v0.1l0,0c0,0.1,0,0.3,0,0.4C48.7,23.7,49,24.4,49,25z"/>
<path class="st1" d="M30.6,26c-0.5-0.1-0.9-0.4-1.3-0.8c-0.1-0.2-0.2-0.7-0.3-0.8c-0.1-0.1-0.6,0.1-0.8,0.1c-0.2-0.6-0.5-1-1.1-0.4
	c0.2-0.2,0.2-0.6,0-0.8c-0.2-0.3-0.5-0.1-0.8-0.1c-0.6,0-0.8-0.4-1.2-0.9s-1-0.2-1.7-0.1c-0.8,0-1.5,0.2-2.2,0.3
	c-0.3,0.1-0.6,0.5-0.8,0.1c-0.2-0.4,0.1-0.6-0.3-0.8c-0.7-0.4-1.5,0.1-2.2-0.2c-0.4-0.2-0.5-0.4-0.2-0.8c0.2-0.3,0.4-0.6,0.5-1
	c0.1-0.3,0.3-0.7,0.5-0.9c0.3-0.4,0.2-0.5,0.2-0.9c1-0.5,2.3,0.1,2.5-1.4c0-0.2-0.2-0.7-0.1-0.9s0.7,0,1,0c0.7,0,1.4-0.1,2-0.4
	c0.6-0.3,1.2-0.4,1.8-0.4c0.6,0.1,0.7,0.6,1,1.1c0.3,0.5,0.7,0.9,1.2,1.1c0.4,0.1,0.6,0.4,0.8,0.8c0,0.3,0.2,0.6,0.4,0.9
	c0.4-0.3,1-0.1,1.4-0.4c0.4-0.2,0.1-1,0-1.3c-0.2-0.6-0.7-0.7-1-1.1c-0.1-0.2-0.2-0.5-0.2-0.8c0.1-0.3,0.2-0.2,0.5-0.3
	c0.6-0.1,0.8,0.1,1.2,0.5c0.1,0.2,0.4,0.2,0.5,0.3s0.2,0.5,0.4,0.7c0.2,0.2,0.8,0.5,0.9,0.9c0.1,0.3-0.1,0.6-0.1,0.9
	c0,0.3,0.1,0.5,0.1,0.8c0.3,0,0.8,0.5,1,0.6s0.5,0.1,0.7,0.3s0.1,0.4,0.2,0.7s0.2,0.3,0.3,0.5c0.1,0.5,0.3,1.1,0.5,1.6
	c0.3,0.6,0.9,0.9,1.1,1.6c0.5,1.6-1.7,2-2.9,2.2c-0.6,0.1-1.2,0.2-1.8,0.2C31.4,26.6,31.4,26.1,30.6,26z"/>
<polygon class="st2" points="31.5,33.7 31.5,33.7 31.5,33.7 "/>
<polygon class="st2" points="7.9,36.2 7.9,36.2 7.9,36.2 "/>
<polygon class="st2" points="33.7,33.8 33.7,33.8 33.7,33.8 "/>
<polygon class="st2" points="34.3,32.9 34.3,32.9 34.3,32.9 "/>
<polygon class="st2" points="33.9,30.9 33.9,30.9 33.9,30.9 "/>
<polygon class="st2" points="33.7,32.4 33.7,32.4 33.7,32.4 "/>
<polygon class="st2" points="33.4,32.7 33.4,32.7 33.4,32.7 "/>
<polygon class="st2" points="34,31 34,31 34,31 "/>
<path class="st1" d="M18.4,4.6h0.2c0.1,0,0.3,0,0.4-0.1c0.1-0.1,0.2-0.1,0.4-0.2c0.1,0,0.2-0.1,0.3-0.1c0.1,0,0.2,0,0.3,0.1l0.2,0.1
	c0.1,0,0.1,0.1,0.2,0.1h0.1c0.1,0,0.1,0,0.2,0H21c0.2,0,0.3,0,0.5-0.1c0.1,0,0.3,0,0.4,0h0.3l0.3,0.1l0.1,0.1l0.1,0.1
	c0.2,0.1,0.4,0.1,0.6,0c0.1,0,0.1-0.1,0.2-0.1h0.3c0.2,0,0.3-0.1,0.5-0.1c-0.1,0-0.2-0.2-0.2-0.3s0,0,0-0.1c0.1,0,0.1-0.1,0.2-0.1
	c0.2,0,0.3,0,0.5,0l0.4,0.1h0.4c0.3,0,0.5,0.1,0.6,0.3c0,0.1,0.1,0.1,0.1,0.2c0,0.1,0,0.2,0.1,0.2c0,0.2,0,0.3,0.1,0.5
	c0.1,0.2,0.1,0.3,0.2,0.4c0.1,0,0.2,0,0.2,0C27,5.7,27,5.5,27.2,5.5s0.4,0.3,0.7,0.3c0.2,0,0.3-0.1,0.5-0.1h0.4c0.1,0,0.2,0,0.3,0
	c0.1,0,0.1,0,0.2-0.1c0.1-0.1,0-0.1,0-0.2s0-0.2,0-0.3s0.2-0.1,0.3-0.1s0-0.2,0-0.2c0,0,0-0.1,0-0.1c0,0,0,0,0.1,0
	c0.3,0,0.5,0.1,0.8,0.2c0.2,0,0.4,0.1,0.6,0.1c0.1,0,0.3,0.1,0.4,0.2c0.1,0.1,0.2,0.1,0.3,0.2L32,5.7c0.1,0.1,0.1,0.2,0.2,0.3
	c0.1,0.1,0.3,0.3,0.4,0.4c0.2,0.1,0.5,0.1,0.8,0.1l0.3-0.1H34c0.2,0,0.3,0,0.5,0c0.1,0,0.3,0.1,0.4,0.1l0.3,0.1
	c0.1,0,0.2,0.1,0.3,0.2c0.1,0,0.2,0.1,0.3,0.2c0.2,0.1,0.3,0.3,0.5,0.4h0.2h0.1h0.2h0.2l0.9,0.1h-0.1c0.1-0.1,0.3-0.1,0.5-0.1
	c0.2,0,0.5,0,0.7,0.1c0.1,0,0.3,0.1,0.4,0.1c0,0.1,0.1,0.1,0.2,0.2l0.2,0.1c0.1,0,0.2,0.1,0.4,0.1c0,0,0.1,0,0.1,0V7.8
	c0,0,0-0.1,0-0.1l-0.1-0.2c0-0.1-0.1-0.1,0-0.2l0-0.1c-6.3-4.6-14.5-5.6-21.7-2.7C18.3,4.6,18.3,4.6,18.4,4.6z"/>
<polygon class="st2" points="40.5,21.3 40.5,21.3 40.5,21.3 "/>
<polygon class="st2" points="42.1,35.4 42.1,35.4 42.1,35.4 "/>
<polygon class="st2" points="39.2,34 39.2,34 39.2,34 "/>
<polygon class="st2" points="31.9,33.9 31.9,33.9 31.9,33.9 31.9,33.9 "/>
<path class="st1" d="M35.8,32.9L35.8,32.9z M35.8,32.9L35.8,32.9z M35.8,32.9L35.8,32.9z M48.9,23.1c0-0.1,0-0.3,0-0.4l0,0v-0.1l0,0
	c0-0.3-0.1-0.7-0.1-1v-0.1c0-0.1,0-0.3-0.1-0.4V21c0-0.1,0-0.2-0.1-0.4v-0.1v-0.1v-0.2L48.4,20v-0.1v-0.2l-0.1-0.3l0,0l-0.1-0.3v0
	l-0.1-0.3L48,18.6v-0.1v-0.1l0,0v-0.1L48,18.1l-0.1-0.3v-0.1l-0.1-0.2l-0.1-0.3v0v-0.1l-0.3-0.4l-0.1-0.2l-0.1-0.3L47,16L47,15.8
	v-0.1l-0.1-0.1l-0.1-0.1l-0.1-0.2l0,0l-0.1-0.2l-0.1-0.2v-0.1l-0.1-0.1c-0.1-0.2-0.2-0.4-0.4-0.7V14l-0.2-0.3v-0.1l0-0.1l-0.2-0.3
	l-0.1-0.1L45.4,13l0,0c0,0,0,0.1,0,0.1s0,0,0,0c0,0,0,0,0,0.1c0,0.1,0,0.1-0.1,0.1c0,0,0,0.1-0.1,0.1c0,0,0,0-0.1,0s0,0.1-0.1,0.1
	l-0.1,0.1c-0.1,0.1-0.1,0.1-0.2,0.1c-0.1,0-0.2,0-0.3,0c-0.1,0-0.1,0-0.2,0c-0.1,0-0.2-0.1-0.3-0.1h-0.2c-0.1,0-0.3,0-0.3,0.1
	c0,0,0,0.1-0.1,0.1c-0.1,0-0.1,0-0.2-0.1c-0.1,0-0.2,0-0.3,0c-0.1,0,0,0.1-0.1,0.1c0,0.1,0,0.2,0,0.3c0.1,0,0.1,0.1,0.2,0.1l0.2,0.1
	c0.1,0,0.1,0.1,0.2,0.1c0.1,0,0,0,0,0.1s0,0.2,0,0.3c0,0.1,0,0.2,0,0.3c0.2,0.1,0.4,0.3,0.4,0.6c0,0.1,0,0.1-0.1,0.2
	c-0.1,0-0.2,0-0.2,0.1c0,0.1,0,0.1,0,0.1c0,0.1,0,0.2,0,0.3c0,0.1-0.1,0.1-0.1,0.2c0,0.1,0,0.1,0,0.2c0,0.1,0,0.1,0,0.2
	c0,0.1-0.1,0.3-0.3,0.3c-0.1,0-0.2-0.1-0.2-0.2c0-0.1,0-0.1-0.1-0.2c0,0-0.1-0.1-0.1-0.1s-0.1-0.1-0.1-0.2l-0.1-0.1l-0.3-0.3
	c-0.2-0.2-0.4-0.3-0.5-0.4c-0.1-0.1-0.1-0.3-0.1-0.4c0-0.1-0.1-0.3-0.2-0.3c-0.1-0.1-0.2-0.1-0.2-0.2c-0.1-0.1-0.2-0.2-0.2-0.3
	c0-0.1,0-0.2,0.1-0.2s0.2-0.1,0.2-0.2s0.1-0.3,0.1-0.4c0-0.1,0.1-0.2,0.2-0.2c0.1-0.1,0.1-0.1,0.2-0.1c0.1-0.1,0.1-0.2,0.2-0.3
	c0-0.1,0-0.2,0-0.3c0-0.1-0.1-0.2-0.2-0.3s0-0.2,0-0.2s0,0.2,0,0.3s0,0.2-0.1,0.2s-0.1,0-0.2,0c0,0-0.1,0.1-0.1,0.1
	c0,0,0,0.1-0.1,0.1c-0.1,0-0.1,0-0.2,0c-0.2-0.1-0.1-0.3-0.3-0.4c-0.1,0-0.2-0.1-0.3-0.1c-0.1,0-0.1,0-0.1,0.1
	c-0.1,0.1-0.3,0.2-0.4,0.3c-0.1,0.1-0.2,0.1-0.1,0.2c0,0.1,0.1,0.1,0.2,0.1c0.1,0,0.2,0.1,0.2,0.1s-0.1,0.1-0.2,0.1
	c-0.2,0-0.3,0-0.5,0h-0.1c-0.2,0-0.2-0.1-0.3-0.2h-0.1h-0.2h-0.1c-0.1,0-0.2-0.1-0.3-0.1c-0.1-0.1-0.1-0.1-0.2-0.1
	c-0.1,0-0.1,0-0.2,0c0,0-0.1,0-0.2,0c-0.2,0.1-0.3,0.1-0.5,0.1l-0.4-0.1c-0.2,0-0.3-0.1-0.5-0.1c-0.1,0-0.3,0-0.4,0
	c-0.2,0.1-0.3,0.2-0.4,0.4c-0.1,0.1-0.1,0.2-0.1,0.4c0,0.1,0,0.2-0.1,0.2c-0.1,0.1-0.2,0.2-0.2,0.2c-0.1,0-0.1,0.1-0.2,0.2
	c0,0,0,0.1,0,0.1s0.3,0.1,0.4,0.1l0,0c0.1,0,0.2,0.1,0.3,0.2c0,0,0.1,0.1,0.2,0.1c0,0,0.1,0,0.1,0c0,0,0.1-0.1,0.2-0.1
	c0,0,0.1,0,0.2,0c0.1,0,0.3,0.1,0.4,0.1l0.2,0.1l0.3,0.2c0.1,0,0.2,0.1,0.3,0.1s0,0,0-0.1s0-0.1,0-0.1s0-0.1,0.1-0.1s0.1,0,0.1,0.1
	l0.1,0.1l0.1,0.1c0.1,0.1,0.1,0.1,0.1,0.2c0,0.1,0,0.1,0.1,0.2c0,0.1,0,0.1,0,0.2c0,0.1-0.1,0.1-0.1,0.2c-0.1,0.1-0.1,0.3,0,0.4
	c0.1,0.1,0.2,0.2,0.2,0.3c0,0.1,0.1,0.1,0.1,0.2c0,0.1,0,0.1,0,0.2c0,0.1-0.1,0.1-0.1,0.2c0,0,0,0.1,0,0.1c0,0,0.1,0,0.1,0.1
	s-0.1,0.1-0.1,0.2c0,0.1,0,0.2-0.1,0.2c0,0-0.1,0.1-0.1,0.1c-0.1,0-0.1,0.1-0.2,0.1c-0.1,0.1-0.1,0.1-0.1,0.2
	c-0.1,0.1-0.1,0.2-0.1,0.3c0,0.1-0.2,0.3-0.3,0.3c-0.2-0.1-0.4-0.1-0.6-0.1c-0.2,0-0.2,0.1-0.2,0.2c0,0.1,0,0.2,0,0.2
	c0,0,0,0.1,0,0.1c0,0.1,0,0.1-0.1,0.1c-0.1,0-0.3,0-0.3,0.2s0.1,0.2,0.2,0.2c0.2,0.1,0.3,0.2,0.4,0.4l0.1,0.1
	c0.1,0.1,0.1,0.2,0.2,0.2c0.1,0.1,0.2,0.2,0.2,0.4c0,0.1,0,0.2-0.1,0.3c-0.2,0.1-0.4,0.2-0.6,0.1l0,0c-0.1,0-0.1,0-0.1-0.1
	c0,0,0-0.1,0-0.2c0-0.1-0.1-0.1-0.2-0.2c-0.1,0-0.1-0.1-0.2-0.2c0-0.1,0-0.2,0-0.2c0-0.1,0-0.1,0-0.2l-0.1-0.1l-0.1-0.1
	c-0.1,0-0.1,0-0.2-0.1c-0.1-0.1-0.2-0.2-0.2-0.4c0-0.1,0.1-0.2,0-0.2s-0.2-0.1-0.3-0.1c-0.2,0-0.4,0-0.5,0c-0.1,0-0.1,0-0.2,0.1
	c-0.1,0-0.1,0.1-0.2,0.1c-0.1,0-0.2,0-0.3,0l0,0c-0.1,0-0.1-0.1,0-0.2c0-0.1,0.1-0.1,0.2-0.1l0,0c0-0.1-0.1-0.3-0.2-0.3
	c0,0,0-0.1,0-0.1c0,0-0.1,0-0.1,0H33h-0.3c0,0,0,0-0.1,0.1c0,0.1-0.1,0.1-0.1,0.2c-0.1,0.1-0.2,0.1-0.2,0.2c-0.1,0-0.2,0-0.3,0
	c0,0.1,0.1,0.1,0.2,0.2c0,0,0.1,0,0.1,0h0.2c0.2,0,0.1,0.1,0.1,0.2s0.1,0.1,0.2,0.2l0,0l0,0H33c0.1,0,0.1,0,0.2,0c0.1,0,0.1,0,0.2,0
	h0.3c0.1,0,0.2,0,0.3,0.1h0.1c0.1,0,0.1,0.1,0.1,0.2c0,0.1,0,0.1-0.1,0.2c-0.1,0-0.3,0-0.4,0c-0.1,0-0.3,0.1-0.3,0.3
	c0,0.1,0.2,0.2,0.3,0.3S34,20.9,34,21c0,0.1,0,0.2,0.1,0.3c0.2,0.1,0.3,0.3,0.4,0.5c0,0.1,0.1,0.1,0.1,0.2c0,0,0,0.1,0,0.1
	c0,0,0.2,0.1,0.3,0.1s0.2,0.1,0.2,0.1c0,0.1-0.1,0.2-0.1,0.3c0,0.1,0,0.1-0.1,0.2c0,0.1,0,0.1,0,0.2c0,0.1,0,0.2-0.1,0.2
	s-0.1,0-0.1,0l-0.1,0c-0.1,0.1-0.2,0.3-0.2,0.4c0,0.1-0.1,0.3-0.3,0.3H34c0,0,0,0-0.1,0.1l-0.1,0.1c-0.1,0.1-0.2,0.1-0.3,0.2
	c-0.1,0.1-0.2,0.1-0.3,0.1l0,0c-0.2,0-0.3,0.1-0.4,0.2c-0.1,0-0.2,0.1-0.2,0.1c-0.1,0-0.1,0.1-0.2,0c-0.1,0-0.2,0-0.2,0h-0.2
	c-0.1,0-0.3,0-0.4,0h-0.1c-0.2,0-0.3,0-0.5,0.1c0,0-0.1,0.1-0.1,0.1c0,0,0,0.1-0.1,0.1c-0.1,0-0.2-0.1-0.2-0.2s0-0.2-0.1-0.3
	c-0.1-0.1-0.2-0.1-0.3-0.1H30h-0.2c-0.1,0-0.1,0-0.2,0c0,0-0.1,0.1-0.1,0.1c0,0.1-0.1,0.1-0.1,0.2c-0.1,0.1-0.1,0.1-0.2,0.2
	c0,0-0.1,0.1-0.1,0.1v0.1c0,0,0,0.1,0,0.1c0,0.1,0,0.1,0.1,0.1c0.1,0.1,0.1,0.2,0.1,0.3c0,0,0,0.1,0,0.1c0,0,0,0.1,0,0.1
	c0,0.1,0,0.1,0.1,0.1c0,0,0.1,0.1,0.2,0.1l0.1,0.1c0,0,0.1,0.1,0.1,0.1l0.1,0.1c0.1,0.1,0.3,0.2,0.4,0.4s0.1,0.3,0.2,0.4
	c0.1,0.2,0.2,0.4,0.1,0.5c0,0.1-0.3,0.3-0.3,0.5h0.1c0,0-0.1,0.1-0.1,0.1c-0.1,0-0.1,0-0.2,0H30c-0.2,0-0.3,0-0.5,0
	c-0.1,0-0.1,0.1-0.2,0.2s-0.2,0.1-0.3,0.2s-0.1,0.2-0.2,0.2c-0.1,0-0.1-0.2-0.1-0.2l-0.1-0.2c0-0.1,0-0.1-0.1-0.2
	c-0.1,0-0.1-0.1-0.2-0.1c-0.1,0-0.2-0.1-0.3-0.2s0-0.1-0.1-0.2c-0.1-0.1-0.2-0.2-0.4-0.3h-0.1c-0.1,0-0.2,0-0.2-0.1
	c0-0.1-0.1-0.1-0.1-0.1c-0.1-0.1-0.3,0-0.3,0.1c0,0.1,0,0.3,0,0.4c0,0.1-0.1,0.2-0.1,0.3c0,0,0,0.1-0.1,0.1c0,0,0,0,0,0
	s0,0.2,0.1,0.3l0,0c0.1,0.1,0.1,0.1,0.2,0.2c0,0.1,0.1,0.2,0.1,0.3c0,0.2,0.2,0.2,0.4,0.3c0.1,0.1,0.1,0.1,0.2,0.2
	c0.1,0,0.1,0.1,0.2,0.1c0.1,0,0.2,0.1,0.2,0.2c0,0,0.1,0.1,0.1,0.2s0.2,0.2,0.2,0.2c0,0,0,0.1,0,0.1c0,0.1,0,0.2,0,0.3
	s-0.1,0.2,0,0.3s0.1,0.1,0.1,0.2c0,0,0.1,0.1,0.1,0.2c0,0,0,0.1,0,0.1l0,0c0,0.1,0,0.1,0,0.2c-0.1,0-0.1-0.1-0.1-0.2l0,0
	c-0.1,0-0.3-0.1-0.4-0.2c-0.1,0-0.2-0.1-0.2-0.1c-0.1,0-0.1-0.1-0.1-0.1L27.6,31c0,0-0.1-0.1-0.2-0.2l-0.1-0.1
	c-0.1-0.1-0.1-0.1-0.2-0.2c0-0.1-0.1-0.1-0.1-0.2l-0.1-0.2c0-0.1,0-0.1,0-0.2c0-0.1,0-0.1,0-0.2c0-0.1-0.1-0.3-0.2-0.4
	c0,0-0.1-0.1-0.1-0.1c0,0-0.1-0.1-0.1-0.1h-0.1l0,0c0,0-0.1-0.1-0.1-0.2c0,0,0-0.1-0.1-0.1c0,0,0-0.1,0-0.1c0,0,0-0.1-0.1-0.1
	c0-0.1,0-0.1,0-0.2c0-0.1,0-0.1,0-0.2c0-0.1,0-0.1,0-0.2c0,0,0-0.1,0.1-0.1c0,0,0-0.1,0-0.1v-0.2c0-0.1,0-0.2,0-0.3
	c0,0-0.1-0.1-0.1-0.1s0-0.1,0-0.1L26.1,27c0,0,0-0.1,0-0.1c0-0.1,0-0.1-0.1-0.2c0-0.1-0.1-0.1-0.1-0.2c0-0.1-0.1-0.3-0.2-0.3
	c-0.1,0-0.1,0-0.2,0c-0.1,0-0.2,0-0.2,0.1c-0.1,0-0.2,0.1-0.3,0.1c-0.1,0-0.1,0-0.1-0.1c-0.1-0.1-0.1-0.3-0.1-0.4
	c0-0.1-0.1-0.2-0.2-0.3c-0.1-0.1-0.2-0.2-0.2-0.4c0-0.1,0-0.1,0-0.2l-0.1-0.1h-0.1c-0.1,0-0.1-0.1-0.2-0.2c-0.1-0.1-0.1-0.1-0.1-0.2
	c0-0.1-0.1-0.1-0.1-0.2c0-0.1,0-0.1,0-0.2c-0.1-0.1-0.3-0.2-0.5-0.2c-0.1,0-0.1,0.1-0.2,0.1c-0.1,0-0.2,0.1-0.3,0.1
	c-0.2,0-0.4,0-0.6,0h-0.2c0,0-0.1,0-0.2,0s0,0.1,0,0.2c0,0.1,0,0.1-0.1,0.2c-0.1,0.1-0.2,0.1-0.4,0.2c-0.1,0-0.2,0-0.3,0.1
	c0,0,0,0.1,0,0.1c0,0,0,0.1-0.1,0.1L21,25.2c-0.1,0.1-0.3,0.2-0.4,0.3c-0.1,0-0.2,0.1-0.3,0.1l0,0l0,0c0,0.1-0.1,0.2-0.1,0.2
	C20.1,26,20.1,26,20,26c-0.1,0-0.3,0-0.4,0c-0.1,0-0.1,0.1-0.1,0.2v0.1c0,0,0,0,0,0.1c0,0,0,0,0,0c0,0,0,0.1,0,0.1c0,0,0,0.1,0,0.1
	c0,0-0.1,0.1,0,0.1c-0.1,0.3-0.2,0.6-0.2,0.9c0,0.3,0,0.4-0.3,0.6c-0.1,0-0.1,0.1-0.2,0.1c-0.1,0.1,0,0.3-0.3,0.4
	c-0.3,0.1-0.1-0.1-0.2-0.2l-0.2-0.1c-0.2,0-0.3-0.1-0.4-0.2c-0.3-0.4-0.6-0.8-0.8-1.2c-0.1-0.2-0.2-0.4-0.3-0.6
	c-0.1-0.3-0.1-0.7-0.2-1s-0.2-0.9-0.7-0.9c-0.3,0-0.8,0-1-0.2l0,0c-0.1-0.1-0.1-0.2-0.1-0.4c0-0.1,0-0.3-0.1-0.4
	c-0.3-0.3-0.6-0.6-1-0.7c-0.5-0.1-1-0.1-1.4,0c-0.4,0.1-0.8,0.1-1.2,0c-0.3-0.1-0.5-0.2-0.7-0.3c-0.2,0-0.3,0-0.5,0
	c-0.2,0-0.5-0.1-0.7-0.1c-0.2-0.1-0.5-0.1-0.7-0.1H7.8H7.5l0,0H7.3c-0.1,0-0.3-0.1-0.4-0.1H6.8H6.7v0.1v0.1l0.1,0.2l0.1,0.1l0,0
	C7,22.7,7.1,22.8,7.3,23c0,0,0.1,0.1,0.1,0.1c0.4,0.3,1-0.2,1.4-0.3c0.2-0.1,0.1-0.1,0.3,0c0.1,0,0.2,0.1,0.2,0.2
	c0.2,0.2,0.5,0.4,0.8,0.5c0.2,0.1,0.5,0.2,0.5,0.3s-0.2,0.5-0.3,0.6c-0.1,0.1-0.3,0.2-0.4,0.3c-0.1,0.1-0.2,0.2-0.2,0.3
	c-0.1,0.1-0.1,0.2-0.1,0.3c0,0.2-0.1,0.4-0.5,0.4c-0.2,0-0.4,0.1-0.6,0.3c-0.1,0.1-0.2,0.3-0.3,0.4c-0.2,0.2-0.2,0.4-0.5,0.5
	c-0.3,0-0.5,0-0.8,0.1l-0.2,0.1L6.5,27c-0.3,0.3-0.7,0.4-1.1,0.6H5.2l0,0c-0.1,0-0.2,0-0.3,0c-0.1,0-0.2-0.3-0.2-0.3
	s-0.2-0.2-0.2-0.3l0,0c0,0.1,0,0.2,0,0.3v0.3c0,0.2,0.1,0.4,0.1,0.6v0.1v0.1c0.1,0.1,0.2,0,0.4,0c0.3,0,0.6-0.1,0.8-0.2
	C6,28.1,6.2,28,6.4,27.9l0.2-0.1l0,0c0.2-0.1,0.4-0.2,0.6-0.2l0.2-0.1c0.2-0.1,0.4,0.1,0.3,0.2c0,0.1,0,0.2-0.1,0.4l0,0
	c0,0.2-0.1,0.3-0.1,0.5c-0.1,0.2-0.2,0.4-0.3,0.6c-0.1,0.2,0.1,0.5,0,0.7c-0.2,0.4-0.6,0.6-0.7,1c-0.2,0.3-0.4,0.5-0.7,0.7l0,0
	l-0.3,0.2H5.5L5.6,32l0.1,0.2l0,0l0.2,0.4l0.1,0.2L6,33.2l0.1,0.2l0.1,0.3L6.4,34l0.1,0.2l0,0l0.1,0.1l0.2,0.4
	c0.2,0.3,0.3,0.6,0.5,0.9l0.1,0.2l0.2,0.3l0,0l0.1,0l0,0c0,0,0-0.1,0.1-0.1s0,0,0,0l0,0c0.1,0.1,0.1,0.2,0.1,0.2h0.1
	c0.1,0,0,0.1,0.1,0.2l0,0c0.1,0.1,0,0.2,0.1,0.2v0.2C8,36.9,8,37,8,37l0,0l0,0c0,0,0,0.1,0,0.1l0.1,0.1l0.2,0.3l0.1,0.1l0.2,0.2
	L8.7,38l0.2,0.2l0.2,0.3l0.2,0.2l0,0l0.4,0.5l0.2,0.2l0.2,0.2l0.5,0.5l0.2,0.2l0.2,0.2l0.1,0.1l0.3,0.3l0.2,0.2l0.2,0.2l0.4,0.4l0,0
	l0.1,0.1l0.1,0l0.2,0.2l0.2,0.1l0.1,0.1l0.2,0.2l0.2,0.1l0.1,0l0.1,0.1l0.2,0.1l0.1,0.1h0.1l0.1,0.1H14h0.1l0.1,0.1l0.2,0.2h0.1
	l0.1,0.1l0.1,0.1l0.1,0.1l0.2,0.1l0,0l0.2,0.1h0.1l0.3,0.2l0,0l0.3,0.2L16,44l0,0h0.1h0.1l0.1,0.1h0.1l0.1,0.1l0.1,0.1l0.3,0.1l0,0
	H17l0.3,0.1h0.1l0.2,0.1l0.1,0.1l0.2,0.1h0.1h0.1h0.1h0.1l0.4,0.1l0,0l0.2,0.1h0.1H19h0.1l0.2,0.1l0.2,0.1l0.5,0.1h0.1h0.1l0.2,0.1
	h0.1h0.1l0.2,0.1H21h0.1l0.3,0.1l0.4,0.1H22l0.4,0.1h0.1l0.4,0.1l0,0H23h0.3h0.1h0.2h0.2l0,0h0.4h0.1h0.2h0.9h0.3h1
	c1.2,0,2.4-0.1,3.5-0.3l0.5-0.1h0.1l0.3-0.1h0.1h0.1l0.4-0.1l0.5-0.1l0.4-0.1l0.3-0.1l0.3-0.1l0.3-0.1l0.3-0.1l0.7-0.2l0.2-0.1
	l0.7-0.3v0c0-0.2-0.1-0.5-0.2-0.7c0,0-0.1,0-0.1-0.1v-0.1c0,0-0.1,0-0.1,0h-0.1c0,0,0,0,0-0.1c0,0,0,0,0-0.1v-0.1
	c-0.2-0.1-0.4-0.1-0.7-0.1H34h-0.1l0,0c0,0-0.1,0-0.1,0s-0.1,0-0.1,0l0,0c0,0-0.1,0-0.2,0h-0.3c-0.2,0-0.3-0.1-0.5,0h-0.1l0,0h-0.1
	l0,0c0,0-0.1,0-0.1,0h-0.1c0,0-0.1,0-0.1,0s-0.1,0-0.1,0h-0.1c0,0,0,0.1-0.1,0.1c-0.1,0,0,0.1-0.1,0.1h-0.1l0,0h-0.1h-0.1l0,0
	c-0.1,0-0.2,0-0.3,0c-0.2-0.1-0.5-0.1-0.7,0h-0.1h-0.1l0,0c0,0.1-0.1,0.1-0.2,0.1h-0.1h-0.1l0,0l0,0l0,0l0,0h-0.1h-0.1H30h-0.3h-0.1
	l-0.3,1.8l0,0l-0.1-0.1l0,0v0l0,0l0,0l0,0c-0.1-0.1-0.1-0.2,0-0.3l0,0c0-0.1,0.1,0,0.2-0.1l0,0c0,0,0-0.1,0.1-0.1c0,0,0,0,0-0.1l0,0
	l0,0v-0.1c0,0,0-0.1,0.1-0.1c0-0.1,0-0.2,0-0.3l0,0c0,0,0-0.1,0-0.2l0,0c0,0,0-0.1,0-0.1l0,0c0,0,0,0,0-0.1c0-0.1,0-0.1,0-0.2
	s0.1-0.1,0.1-0.2l0,0c-0.1-0.1,0-0.2-0.1-0.3l0,0c0-0.1,0-0.2,0-0.2l0,0c0,0,0-0.1,0-0.2l0,0l0,0l0,0l0,0v0c0,0,0,0,0,0
	c0,0,0-0.1,0-0.1c0,0,0,0,0,0c0,0,0-0.1,0-0.1c0,0,0,0,0.1,0c0,0,0,0.1,0.1,0.1l0,0h0.1c0,0,0,0.1,0.1,0.1v0.1l0,0c0,0,0-0.1,0-0.1
	c0,0,0-0.1,0-0.1v-0.1c0,0,0-0.1,0-0.1c0,0,0-0.1,0.1-0.2l0,0H30l0,0l0.1,0h0.1v-0.1c0,0,0-0.1,0-0.2l0,0l0.1,0l0,0
	c0,0,0-0.1,0.1-0.1s0-0.1,0.1-0.1l0,0c0.1,0,0.1,0.1,0.1,0.1h0h0l0,0c0,0,0.1,0,0.1,0h0.1c0,0,0.1,0,0.1,0h0.1h0.1H31l0,0l0,0h0h0.1
	c0.1-0.1,0.3,0.1,0.5,0h0.1c0,0,0.1,0,0.2,0H32H32h0.1c0,0,0.1,0,0.2,0h0.1c0.1,0,0.1,0,0.2,0h0c0,0,0.1,0,0.1,0l0,0h0.1h0.1h0.1H33
	c0,0,0-0.1,0.1-0.1c0,0,0.1-0.1,0.1-0.1l0,0c0.1,0,0.2-0.1,0.2-0.2c0-0.1,0-0.1,0-0.2l0,0l0,0c0,0,0.1,0,0.1,0l0,0h0.1l0,0
	c0,0,0.1-0.1,0.1-0.1c0.1,0,0.1,0.1,0.1,0.2c0,0,0,0,0,0.1l0,0c0,0,0,0,0-0.1c0,0,0,0,0-0.1c0,0,0-0.1,0-0.1s0,0,0,0l0,0
	c0.1-0.1,0.2,0.2,0.3,0s0,0,0,0l0,0l0,0c0,0,0-0.1,0-0.1c0,0,0,0,0,0l0,0c0-0.1,0.1-0.1,0.2-0.1l0,0c0.1,0,0.2-0.2,0.3-0.2h0.1h0.1
	l0,0l0,0l0,0v-0.1h0h0.3c0.1,0,0.1,0,0.2,0.1c0,0,0.1,0,0.1,0.1c0,0,0,0.1,0.1,0.1l0,0c0,0,0.1,0.1,0.1,0.2s0,0,0,0l0,0
	c0,0,0.1,0,0.2,0c0.1,0,0.2,0,0.3,0l0,0v-0.1l0,0l0,0l0,0c0,0,0-0.1,0.1-0.1c0,0,0.1,0,0.1-0.1l0,0l0.2-0.2c0,0,0.1,0,0.1-0.1h0.1
	h0.1l0,0h0.1l0,0c0.2-0.1,0.4,0.1,0.5,0c0-0.1-0.1-0.1-0.1-0.2s0.2,0,0.2,0s0.1,0.1,0.2,0.2c0,0,0,0,0,0c0.1,0.1,0.2,0,0.2,0.1
	s0.1,0,0.1,0.1c0,0,0.1,0,0.1,0l0,0c0,0,0,0,0.1,0.1c0,0,0.1,0,0.1,0c0,0,0.1,0,0.1,0l0,0c0.1,0,0.1,0.1,0.2,0.2s0,0,0,0
	s0-0.1,0-0.1s0.2,0.1,0.3,0.1s0,0.1,0,0.1h-0.1l0,0h-0.1c-0.1,0,0,0.1-0.1,0.1c-0.1,0-0.2,0.1-0.3,0.2l0,0c0,0,0,0.1-0.1,0.1h-0.1
	l0,0h-0.1l0,0c-0.1,0.1,0,0.1,0,0.2V41l0,0V41c0.1,0.1,0.2,0.1,0.3,0.2l0,0.1c0,0,0.1,0,0.1,0.1l0,0c0,0,0,0.1,0,0.1v0.1l0,0
	c0,0,0.1,0,0.1,0.1h0c0,0,0.1,0,0.1,0.1s0.1,0.2,0.1,0.2s0.1,0,0.1,0.1c0.1,0,0.1,0,0.2,0c0,0,0.1,0,0.1,0l0,0c0,0,0-0.1,0.1-0.1
	s0-0.1,0.1-0.1l0,0h0.1l0.8-1.9l0,0c0,0,0-0.1,0.1-0.1s0-0.1,0.1-0.1l0,0c0,0,0-0.1,0.1-0.1s0-0.1,0.1-0.1s0-0.2,0.1-0.2
	s0-0.2,0.1-0.3h0.1l0,0c0,0,0-0.1,0-0.1c0,0,0,0,0,0H41l0,0l0,0c0,0,0-0.1,0-0.1l0,0H41h0.1l0,0c0,0,0-0.1,0.1-0.1s0-0.1,0.1-0.1
	l0,0c0.1-0.1,0.2-0.1,0.2,0s-0.1,0.2,0,0.4l0,0l0,0l0,0l0,0c0,0,0,0,0,0V39l0,0c0,0.1,0,0.2-0.1,0.3v0.1c0.1,0-0.1,0.2,0.1,0.2l0,0
	c0,0,0.1,0,0.1,0s0.1,0,0.1,0.1l0,0c0,0,0.1,0.1,0.1,0.1v0.1l0,0c0,0,0,0.1,0,0.1l0,0l0,0l0,0v0.2c0,0,0,0.1,0,0.1v0.1l0,0
	c0,0,0,0,0,0.1l0,0l0,0l0,0l0,0c0,0,0,0.1,0,0.2l0,0c-0.1,0.1,0.1,0.2-0.1,0.3s0,0,0,0.1l0.1-0.1l0.2-0.2l0.2-0.2
	c0.4-0.4,0.7-0.7,1-1.1l0.5-0.6l0.1-0.1l0.2-0.3c0,0-0.1,0-0.1,0l0,0c-0.1-0.1-0.2,0-0.3-0.1l0,0c0,0,0,0-0.1,0l0,0
	c0,0-0.1,0-0.1-0.1c0,0,0,0,0-0.1l0,0c0,0,0,0,0-0.1c0,0,0,0,0-0.1c0,0,0,0,0-0.1l0,0c0,0,0-0.1,0-0.1l0,0c-0.1,0,0-0.1,0-0.2l0,0
	c0,0,0-0.1,0-0.1s0-0.1,0-0.1l0,0c0,0-0.1,0-0.2-0.1s-0.1,0-0.2-0.1s-0.2,0-0.2,0h-0.1c0,0,0,0.1-0.1,0.1l0,0c-0.2,0,0,0.2-0.2,0.2
	l0,0c0,0,0,0-0.1,0l0,0c0,0-0.1,0-0.1,0s-0.1,0-0.1,0l0,0c0,0-0.1,0-0.1-0.1H42c-0.1,0-0.3,0-0.4-0.1l0,0l0,0c0,0,0-0.1,0-0.1l0,0
	v-0.1c0,0,0,0,0-0.1l0,0c0,0,0,0,0,0c0-0.1-0.1-0.1-0.2-0.1h-0.1c0,0,0,0-0.1,0c-0.2,0.1-0.4,0-0.5-0.1l0,0c0,0,0-0.1,0.1-0.1l0,0
	c0,0,0-0.1,0.1-0.1l0,0h0.1H41c0.1,0,0.2-0.1,0.2-0.2l0,0l0,0l0,0l0,0c0,0,0,0,0-0.1l0,0c-0.1,0,0-0.1,0-0.2s0-0.2-0.1-0.3
	c-0.1,0.2-0.3,0.3-0.5,0.2c-0.2-0.1-0.3-0.3-0.2-0.5l0,0c-0.1-0.1-0.2-0.1-0.2-0.1l0,0l-0.2-0.2l0,0h-0.1h-0.1
	c-0.1-0.1-0.2,0-0.2-0.1l0,0c-0.1,0-0.1-0.1-0.1-0.1c0,0-0.1,0-0.2-0.1l0,0L39,35.1c0,0,0,0.1,0,0.1c0,0,0,0,0,0l0,0
	c0,0.1-0.1,0.1-0.2,0c0,0,0,0,0,0c-0.1-0.1,0-0.2-0.1-0.3v-0.1h-0.1c-0.1,0,0-0.1,0-0.1c0.2,0,0.3,0,0.5,0c0,0-0.1,0-0.2-0.1
	 M38.8,34.7c-0.1,0-0.1-0.1-0.2-0.1s0-0.1-0.1-0.2s-0.3-0.1-0.3-0.2s-0.1-0.1,0-0.2l0,0c0.1,0,0.1,0,0.1,0.1c0.1,0.1,0.1,0,0.1,0
	l0,0c0.1,0,0.3,0,0.4-0.1h0 M38.9,34l0.1,0c0,0,0.1,0,0.1,0c0,0,0,0,0,0.1c0.1,0.1,0.2,0,0.3,0.1s0,0.1,0,0.2l0,0c0,0,0,0.1,0,0.1
	l0,0c0,0.1,0,0.1,0,0.2h0c0,0,0,0.1,0.1,0.1s0,0,0,0.1s0,0.1,0.1,0.2s0.1,0.1,0.1,0h0.1c0,0,0,0,0.1,0l0,0c0,0,0,0,0.1,0
	c0,0,0.1-0.1,0.1-0.1l0,0c0,0,0-0.1,0.1-0.1h0.2c0.1,0,0.1-0.1,0.2-0.1l0,0c0,0,0.1,0,0.1,0l0,0c0,0,0.1,0,0.1,0c0,0,0.1,0,0.1,0
	c0,0,0,0,0,0l0,0l0.1,0.1l0,0c0,0,0.1,0,0.1,0.1l0.1,0.1l0,0c0,0,0.1,0,0.1,0.1l0,0c0,0,0.1,0,0.1,0.1l0,0c0,0,0.1,0,0.1,0.1h0.1
	c0.1,0,0.2,0.1,0.3,0.1l0,0c0,0,0.1,0,0.1,0l0,0c0,0,0.1,0,0.1,0.1s0.1,0,0.1,0.1l0,0c0,0,0.1,0,0.1,0.1s0.1,0,0.1,0.1l0,0
	c0,0,0.1,0,0.2,0.1l0,0c0.1,0,0.2,0.1,0.2,0.2c0,0,0,0,0,0.1c0.1,0.1,0.2,0.1,0.3,0.2c0,0,0.1,0.1,0.1,0.1c0,0,0.1,0,0.1,0.1l0,0
	c0,0,0.1,0.1,0.1,0.2v0.1c0,0,0,0.1,0,0.1l0,0c0,0,0.1,0,0.1,0.1l0,0c0,0,0,0,0.1,0.1c0,0,0.1,0,0.1,0.1s0.1,0,0.2,0.1V37
	c0,0,0,0.1,0,0.1v0.1c-0.1,0.1-0.1,0-0.2,0l0,0c-0.1,0-0.1,0-0.1,0.1s0,0.1,0.1,0.2c0,0.1,0.1,0.1,0.1,0.2c0,0,0,0,0,0.1l0,0
	c0,0.1,0,0.2,0,0.3c0.1,0,0.1,0,0.2,0l0,0c0.1,0.1,0,0.1,0,0.2l0,0l0.1,0.1l0.2-0.3l0.2-0.2l0.2-0.2c0.3-0.4,0.5-0.7,0.7-1.1
	l0.4-0.7l0.2-0.3l0.2-0.3l0.1-0.1l0.1-0.3l0.1-0.2l0.2-0.4l0.1-0.2l0.1-0.2l0.1-0.2l0.1-0.2l0.1-0.2l0.1-0.3l0.1-0.4l0.1-0.2
	l0.1-0.2c0.2-0.6,0.4-1.1,0.5-1.7l0.1-0.3c0-0.1,0-0.1,0-0.2s0-0.1,0-0.1s0-0.2,0.1-0.3v-0.1l0.1-0.4v-0.1c0-0.1,0-0.2,0.1-0.4
	c0,0,0-0.1,0-0.1c0-0.1,0-0.3,0.1-0.4c0.1-0.2,0-0.1,0-0.1s0-0.2,0-0.3c0-0.1,0-0.1,0-0.2c0-0.1,0-0.2,0-0.4c0-0.1,0,0,0-0.1
	s0-0.2,0-0.3c0-0.1,0-0.1,0-0.2c0-0.1,0-0.3,0-0.5s0-0.3,0-0.5s0-0.3,0-0.5c0.4-0.5,0.6-1.1,0.5-1.7L38.9,34z M33.4,19.5L33.4,19.5z
	 M6.3,28.2L6.3,28.2z M36.8,31.2c0,0,0-0.1,0-0.2l0,0l0,0h-0.1l0,0c0,0,0,0.1,0,0.1C36.7,31.1,36.7,31.2,36.8,31.2L36.8,31.2
	L36.8,31.2c-0.1,0.1-0.1,0.2-0.2,0.2c0,0-0.1,0-0.1,0c0-0.1-0.2-0.1-0.2-0.1s-0.1,0-0.1-0.1l0,0l-0.1-0.1V31l0,0c0-0.1,0-0.1,0-0.2
	v-0.1c0,0,0-0.1,0-0.1c0,0,0,0,0,0L36,30.6h-0.3c-0.1,0-0.2,0-0.3,0l0,0c0,0,0,0-0.1,0.1s0,0,0,0l0,0l0,0c0,0-0.1,0-0.1,0l0,0
	c0,0,0-0.1,0-0.1v-0.1l0,0c0,0,0-0.1,0-0.1l0,0c0,0,0.1,0,0.1,0l0,0c0.1,0,0.2-0.1,0.2-0.1l0,0c0,0,0.1-0.1,0.1,0
	c0.3,0.2,0.5,0,0.7-0.1l0,0c0-0.1,0.1-0.2,0-0.3c0,0,0.1,0,0.1,0c0,0,0,0,0,0c0,0,0,0.1,0,0.1c0,0,0,0.1,0,0.2c0,0,0,0,0,0
	c0,0,0.1,0,0.1,0.1c0,0,0.1,0.1,0.1,0.1l0,0c0,0,0,0.1,0,0.2s0,0.1,0,0.2c0,0,0,0.1,0,0.1c0,0,0,0,0,0.1v0.1c0,0,0,0.1,0,0.1
	l-0.1,0.1l0,0l0,0h-0.1C36.9,31,36.9,31.1,36.8,31.2L36.8,31.2z M35.9,32.9L35.9,32.9c0.1,0,0.2-0.1,0.2-0.1l0,0c0.1,0,0.1,0,0.2,0
	c0,0,0,0.1,0,0.1l0,0c0,0,0,0.1-0.1,0.1l0,0c-0.1,0-0.1,0.1-0.2,0.1s0,0.1-0.1,0.1l0,0c-0.1,0-0.1,0-0.2,0h0c0,0-0.1,0-0.1,0h0h-0.1
	l0,0c-0.1-0.1-0.2-0.1-0.4-0.1h-0.2c0,0-0.1,0-0.1,0h-0.1c0,0-0.1,0-0.1,0l0,0c0,0-0.1,0-0.1,0l0,0c0,0,0,0.1-0.1,0.1s0,0.1-0.1,0.1
	l0,0c0,0,0,0.1,0,0.1l0,0l0,0c0,0,0.1,0,0.1,0.1l0,0c0.1,0,0,0.1,0,0.1h0c0,0,0,0,0.1,0c0,0,0-0.1,0.1-0.1c0,0,0,0,0.1,0
	c0.1,0,0.1,0,0.2,0H35l0,0c0.2,0,0.3,0,0.5,0v0.1l0,0v0.1l0,0c0,0.1,0,0.1-0.1,0.1l-0.2-0.1l0,0l0,0l0,0h-0.1l0,0h-0.1l0,0
	c0,0-0.1,0-0.1,0l0,0c0,0,0,0-0.1,0c-0.1,0.1,0,0.1,0,0.2l0,0c0,0,0,0.1,0,0.1l0,0c0,0,0,0,0,0.1l0,0l0,0c0,0.1-0.1,0.2,0,0.3
	s0,0,0,0c0,0,0,0,0.1,0c0,0,0,0,0.1,0c0,0,0.1,0,0.1,0.1l0,0c0,0,0,0,0,0.1v0.1c0,0,0,0-0.1,0l0,0l0,0l0,0c0,0.1,0,0.1-0.1,0.1
	s0,0,0,0s-0.1,0-0.2,0s-0.1-0.2-0.1-0.3c-0.2,0-0.3,0-0.3-0.1c0,0,0-0.1,0-0.1c0,0,0-0.1,0-0.1l0,0.1v-0.1c0-0.1,0-0.1,0-0.2
	c0,0,0.1-0.1,0-0.2h-0.1c-0.1,0-0.2,0-0.2,0.1s0,0.1,0,0.1s0,0.1,0,0.1s0,0.3-0.1,0.4s0,0,0,0s0,0,0,0.1l0,0
	c0.1,0.2-0.1,0.1-0.2,0.1c0,0-0.1,0-0.2,0c0,0,0-0.1,0-0.1s0,0,0,0s0-0.1,0.1-0.1l0,0c0,0,0-0.1,0.1-0.2c0,0,0-0.1,0-0.2
	c-0.1,0,0.1-0.2-0.1-0.2c0,0-0.1,0-0.1,0c-0.1-0.1,0-0.2,0-0.3l0,0c0,0,0,0,0.1,0h0.1c0,0,0-0.1,0.1-0.1l0,0c0.1-0.1,0-0.2,0.1-0.3
	l0,0c0,0,0-0.1,0.1-0.1l0,0l0,0l0,0c0.1-0.1,0-0.3,0.2-0.4s0-0.1,0.1-0.1s0.1-0.1,0.1,0l0,0c0,0,0,0,0.1,0h0.1l0,0c0,0,0,0,0.1,0
	h0.1c0,0,0.1,0,0.1,0.1s0.1,0,0.2,0.1h0.2c0.1,0.1,0.3,0,0.4,0.1c0,0,0,0,0,0c0,0,0.1,0,0.1,0c0,0,0.1,0,0.1,0L35.9,32.9z
	 M33.5,35.9C33.5,35.9,33.5,35.9,33.5,35.9l-0.2,0c-0.1,0-0.1,0-0.2,0h-0.2h-0.2h-0.2l0,0l0,0c0-0.1-0.2,0-0.3,0c0,0,0-0.1,0-0.1
	c0,0,0-0.1,0-0.1c0.1,0,0.1,0,0.2,0c0,0,0.1,0,0.1,0.1h0.1l0,0c0,0,0,0,0.1,0c0,0,0-0.1,0-0.1c0,0,0.1,0,0.1,0c0.1,0,0,0,0.1,0
	c0.1,0,0.1,0.1,0.2,0.1L33.5,35.9L33.5,35.9L33.5,35.9z M32.2,31.1L32.2,31.1c0.3-0.1,0.5-0.2,0.7-0.3c0,0,0-0.1,0.1-0.1l0,0
	c0,0,0-0.1,0.1-0.1s0,0,0.1,0s0-0.1,0.1-0.1s0,0,0,0l0,0c0,0,0.1,0,0.2,0l0,0c0.1,0,0.1,0.1,0.1,0.2l0,0c0.1,0.1,0.1,0.2,0.2,0.3
	s0.1,0,0.2,0.1c0,0,0,0,0.1,0H34h0.1c0,0.2,0,0.2-0.2,0.2c0,0-0.1,0-0.1,0.1s0,0.1-0.1,0.1s0,0,0,0l0,0c-0.1,0.1-0.2,0.2-0.2,0.4
	l0,0c0,0,0,0.1,0,0.1l0,0v0.1c0,0,0,0.1,0,0.1c0,0,0,0,0,0c-0.1,0.1,0.1,0.1,0.1,0.2c0,0,0,0,0.1,0l0,0l0.1,0l0,0.1l0,0
	c0,0,0.1,0.1,0,0.2s-0.3,0-0.4,0s0,0.1-0.1,0.1s0,0.2-0.1,0.3s0,0.1-0.1,0.1s-0.1,0-0.1,0l0,0c0,0,0,0.1-0.1,0.1l0,0h-0.1
	c-0.2,0.1,0,0.3-0.1,0.4c0,0,0,0-0.1,0l0,0c-0.1,0.1,0,0.2,0,0.2s0,0.1-0.1,0.1s-0.1,0-0.1,0l0,0c0-0.1-0.1,0-0.1,0l0,0
	c0,0-0.1,0-0.1,0s-0.1,0-0.1,0s-0.1,0-0.1-0.1c0-0.1,0-0.1,0-0.1v-0.1l0,0h-0.1h-0.1c-0.1,0-0.1,0-0.2,0c0,0-0.1,0-0.1-0.1
	c0,0-0.1,0-0.1,0h-0.1c-0.1,0-0.2,0-0.4,0s0-0.2-0.1-0.2h-0.1c0,0-0.1,0-0.1,0l0,0c-0.1,0-0.2,0-0.2-0.1s0-0.2,0-0.3s0,0,0-0.1l0,0
	c0,0,0,0,0.1-0.1c0,0,0,0,0,0c0,0-0.2,0.1-0.3,0.1s-0.1,0-0.1,0c0,0,0,0,0-0.1c0,0,0,0-0.1-0.1l0,0 M30.1,32.7L30.1,32.7L30.1,32.7
	L30.1,32.7L30.1,32.7L30.1,32.7c0-0.1,0.1-0.2,0-0.2l0,0v-0.1l0,0c0,0,0-0.1,0-0.1c0,0,0-0.1,0-0.1c0-0.1,0.1-0.1,0.1-0.2l0,0
	c0,0,0.1-0.1,0.1-0.1l0,0c0.1,0,0.1,0.1,0.2,0.1l0,0l0,0c0,0,0.1-0.1,0.2,0l0,0c0,0,0,0,0.1,0c0,0,0.1,0,0.1,0c0.1,0,0-0.1,0.1-0.1
	s0-0.1,0-0.1s0.1-0.2,0.2-0.2h0.1c0.1,0,0.1,0,0.2,0c0,0,0,0,0,0c0,0,0.1,0,0.1,0l0,0h0.1l0,0c0,0,0-0.1,0.1-0.1
	c0.1-0.1,0.1-0.1,0.2-0.2c0,0,0-0.1,0.1-0.1L30.1,32.7z M36.8,29.5c0,0.1-0.1,0.1-0.1,0.1s-0.2,0-0.1,0.1l0,0c0,0,0,0.1,0,0.1
	l-0.1,0.1c-0.2-0.2-0.2-0.4-0.2-0.6c0.1,0,0,0.1,0.1,0.1c0.1,0,0-0.1,0-0.2s-0.1-0.1-0.1-0.2c0.1,0,0.3,0,0.4,0l0,0
	c0.1,0.1,0,0.2,0.1,0.4C36.7,29.3,36.7,29.4,36.8,29.5L36.8,29.5z M35.5,29.7c0.1-0.1,0.2-0.1,0.2-0.2c-0.1,0-0.1,0-0.2-0.1h-0.1
	h-0.1c-0.2-0.1-0.1-0.1,0-0.2v-0.2V29c0,0,0-0.1,0-0.1s0,0,0,0h0.1h0c0,0,0.1,0,0.1,0.1c0.1,0.1,0.2,0,0.2,0.1c0,0.1,0,0.1,0,0.2H36
	l0,0l0,0l0,0H36v-0.1c0.1,0.1,0,0.3-0.1,0.4c-0.1,0.1-0.1,0.2-0.2,0.3s-0.1,0.1-0.1,0.1l0,0C35.6,29.9,35.6,29.8,35.5,29.7
	L35.5,29.7C35.5,29.8,35.5,29.8,35.5,29.7c0,0,0-0.1,0-0.1L35.5,29.7z M33.5,29.8C33.5,29.8,33.5,29.7,33.5,29.8
	c0.1-0.1,0.1-0.1,0.2-0.1h0h0.1l0,0c0,0,0-0.1,0.1-0.1l0,0H34c0,0,0-0.1,0.1-0.1h0.1c0,0,0.1-0.1,0.1-0.1l0,0l0,0l0,0
	c0,0,0-0.1,0-0.1c0,0,0,0,0,0l0,0l0,0l0,0l0,0l0,0h0.1l0,0l0,0c0,0,0,0.1,0,0.1l0,0l0,0l0,0l0,0c0,0.1,0,0.1-0.1,0.1l0,0h-0.1l0,0
	c-0.1,0-0.2,0-0.2,0.1c0,0.1,0,0.1-0.1,0.1h-0.1c-0.1,0-0.1,0-0.1,0.1h-0.1h-0.1h-0.1l0,0c0,0-0.1,0-0.1,0c0,0,0-0.1,0-0.1
	c0,0,0,0,0,0L33.5,29.8L33.5,29.8z M31.8,31.4L31.8,31.4z M29.1,34.4c0,0,0,0.1,0.1,0.1h0.2c0.1,0,0.1,0,0.1,0.1c0,0,0,0.1,0.1,0.1
	c0.1,0,0.1,0,0.2,0c0.1,0,0.3,0,0.4,0.1c0.1,0,0.1,0,0.1-0.1s0,0,0.1,0s0,0,0,0.1s0.1,0.1,0.1,0.1h0.2l0,0c0.1,0,0.1,0.1,0.2,0.1
	c0.2,0,0.3,0,0.5,0c0,0,0.2,0,0.2,0.1s0,0.1-0.1,0.1s0,0.1-0.1,0.1s-0.2-0.1-0.2,0s0.1,0.1,0.2,0.1c0.1,0,0.2,0,0.3,0.1
	c0,0,0,0.1,0.1,0.1c0,0,0.1,0.1,0.2,0.1c0.1,0,0.2,0.1,0.2,0.1c0,0,0,0.1,0,0.1c0,0-0.1,0-0.1,0h-0.1h-0.1c-0.1,0-0.2,0-0.2,0
	c-0.1,0-0.2,0-0.2-0.1c0,0-0.1-0.1-0.1-0.1h-0.1c-0.1,0-0.2,0-0.2-0.1c0,0-0.1-0.1-0.1-0.1h-0.1c-0.1,0-0.1,0-0.1,0
	c-0.1,0-0.1,0-0.2-0.1l-0.1-0.1L30,35.1c0,0-0.1,0-0.1,0c-0.1,0-0.1,0-0.2,0c-0.1,0-0.1,0-0.2,0c-0.1,0-0.2-0.1-0.3-0.1
	c-0.1,0-0.2,0-0.3-0.1c-0.1,0-0.1-0.1-0.1-0.2s-0.2-0.1-0.3-0.1s-0.1,0-0.1-0.1s0-0.1,0.1-0.1h0.1c0,0,0,0,0-0.1s0.1,0,0.1,0
	s0,0,0-0.1c0,0,0,0,0.1,0l0,0l0,0c0,0,0,0,0.1,0h0.1C28.9,34.4,29.1,34.3,29.1,34.4L29.1,34.4z M44.5,13.8L44.5,13.8z M37.2,21.9
	L37.2,21.9L37.2,21.9L37.2,21.9h0.2c0,0,0-0.1,0-0.1c0,0,0,0,0,0l0,0l0,0l0,0c0.1,0,0.2,0,0.2-0.1h0.1h0.1l0,0c0.1,0,0-0.1,0.1-0.1
	c0.1,0,0.2,0,0.3,0c0.1,0,0.2,0,0.3,0c0.1,0,0.2,0,0.3,0l0,0c0.1,0,0.2,0.1,0.2,0l0,0c0,0-0.1-0.1,0-0.1c0,0,0,0,0,0h0.1l0,0l0,0v0
	l0-0.1l0,0c0-0.1,0-0.1,0.1-0.1l0,0c0,0,0.1,0,0.1,0c0,0,0,0.1,0,0.1c0,0,0,0.1,0,0.1c0.1,0,0.2,0,0.3,0h0.1l0,0c0,0,0-0.1,0-0.1
	h0.1c0,0,0-0.1,0-0.2l0,0c0,0,0-0.1,0-0.1c0,0,0,0,0,0c-0.1-0.1,0-0.1,0-0.2s-0.2-0.2-0.2-0.3l-0.1-0.1l0,0c0,0-0.1-0.1,0-0.1
	c0,0,0,0,0,0l0,0l0,0l0,0l0,0l0,0c0,0,0-0.1,0.1-0.1h-0.1h-0.1c-0.1,0-0.2,0-0.2-0.1l0,0c0-0.1-0.1-0.1-0.1-0.1l0,0l0,0
	c-0.1-0.1-0.1-0.1,0-0.2s0-0.1,0.1-0.1h0.1c0.2-0.1,0.1-0.2,0.1-0.3l0,0c0,0,0-0.1,0-0.1l-0.1-0.1l-0.1-0.1c-0.1,0-0.1-0.1-0.1-0.1
	c0.1,0,0.2,0,0.3,0.1l0.2,0.2l0.1,0.1c0.2,0.1,0.4,0.2,0.6,0.3c0.1,0,0.2,0,0.3,0c0.1,0,0,0.2,0.1,0.1l0.1-0.2h0.1
	c0.1,0,0.1,0,0.1,0s0,0-0.1,0.1c0,0,0,0.1-0.1,0.1l0,0c0,0.1,0.2,0.2,0,0.2c-0.2,0.1-0.2,0-0.3,0s0,0.1-0.1,0.1s0,0.1,0,0.1
	s0,0.1-0.1,0.1s-0.2-0.1-0.3-0.2s-0.1,0-0.1-0.1l0,0h-0.1l0,0c-0.1,0-0.1,0-0.2,0c0,0-0.1,0-0.1,0c0,0,0.1,0.1,0.1,0.1l0.1,0.1h0.1
	v0.1h0.1l0,0l0,0h0.1l0.1,0.1v-0.6l0.1,0.1l0,0l0,0l0.2,0.2l0.1,0.1c0.1,0.1,0.1,0.1,0.2,0.2c0,0,0,0.1,0,0.1l0,0
	c0.1,0.1,0,0.2,0,0.2l0,0c0.1,0.1-0.1,0.1-0.1,0.1l0,0l0.1,0.1l0,0c0,0,0,0.1,0,0.1c0,0,0,0.1,0,0.1c0,0,0,0.1,0,0.1l0,0l0,0l0,0
	c0,0,0,0.1,0,0.1s0.2,0.2,0.1,0.3c-0.1,0.1,0,0,0,0l0,0c0,0,0,0.1,0,0.1l0,0h-0.1c-0.1,0-0.3-0.1-0.3,0c-0.2,0-0.3,0-0.5,0
	c-0.1,0-0.2,0-0.2-0.1c0,0.1-0.2,0.2-0.2,0.3c-0.1,0-0.1,0-0.2,0c-0.1,0-0.1-0.1-0.2-0.1c-0.1,0,0-0.2-0.2-0.2l0,0
	c0,0.1,0,0.1,0,0.2s-0.1,0.1-0.2,0c0,0-0.1,0-0.1,0c0,0-0.1,0-0.1,0.1l0,0c0,0-0.1,0-0.1,0L38,21.9v-0.1c0,0-0.1,0.1-0.1,0.1
	c0,0.1,0,0.2,0,0.2c0,0.1,0,0.3-0.3,0.2l0,0c0,0-0.1,0-0.1-0.1c0-0.1-0.1-0.2-0.1-0.2C37.4,22,37.3,21.9,37.2,21.9L37.2,21.9
	l-0.1-0.1c0,0,0-0.1,0-0.1C37,21.6,37,21.9,37.2,21.9z M26.4,30.8l0.2,0.1c0.1,0,0.1,0.1,0.2,0.1c0,0.1,0.1,0.1,0.1,0.2
	c0,0,0,0.1,0,0.1c0,0,0,0.1,0,0.1s0.1,0.1,0.1,0.1l0.1,0.1h0.1l0.1,0.1l0.3,0.2l0.1,0.1l0.1,0.1c0,0.1,0,0.1,0,0.2c0,0,0,0.1,0,0.1
	c0,0,0,0.1,0,0.1c0,0.1,0.1,0.1,0.2,0.1s0.1,0.2,0.1,0.2c0,0.1,0.1,0.2,0.2,0.3c0.1,0.1,0.4,0.1,0.4,0.3c0,0,0,0.1,0,0.1
	c0,0,0,0-0.1,0s0,0,0,0.1l0,0c0,0,0,0.1,0,0.1s0,0.3-0.1,0.4c-0.1,0.1-0.1,0.1-0.2,0.1h-0.1h-0.1c0,0-0.1,0-0.1,0h-0.1
	c0,0,0,0,0-0.1s-0.2-0.1-0.3-0.2s-0.2-0.3-0.3-0.4c0-0.1-0.1-0.1-0.1-0.2c0,0-0.1,0-0.1-0.1c-0.1,0-0.1-0.1-0.1-0.1l0-0.1
	c0,0,0-0.1,0-0.1c0-0.1-0.1-0.2-0.2-0.2c0,0-0.1,0-0.1-0.1c0,0,0-0.1,0-0.2c0-0.1,0-0.2,0-0.2l0,0c0-0.1-0.1-0.1-0.1-0.1
	c0,0-0.1-0.1-0.1-0.1c0,0,0-0.1,0-0.1c0,0,0-0.1,0-0.1c0-0.1-0.1-0.2-0.1-0.3c-0.1-0.1-0.2-0.2-0.3-0.2c-0.1,0-0.1-0.1-0.2-0.1l0,0
	v0c0,0,0-0.1,0-0.1s0,0,0-0.1v0l-0.1-0.1c0,0-0.1-0.1-0.1-0.1c0,0-0.1,0-0.1-0.1l-0.2-0.1c0,0-0.1-0.1-0.1-0.1c0,0-0.1-0.1-0.1-0.1
	c0-0.1,0-0.2,0-0.2c0,0,0-0.1,0.1-0.1c0,0,0.1,0,0.1,0.1c0.1,0,0.1,0.1,0.2,0.1s0.2,0,0.3,0c0.1,0,0.2,0,0.2,0.1h0.1c0,0,0,0,0,0.1
	c0,0,0.1,0.1,0.1,0.1c0,0.1,0.1,0.1,0.1,0.2L26.4,30.8z M21.4,24.8L21.4,24.8z M19,28.8L19,28.8c0,0,0-0.1,0-0.2l0,0l0,0
	c0,0,0-0.1,0-0.1c0,0,0-0.1,0-0.1h0.2c0,0,0.1,0,0.1,0h0.1l0,0l0,0l0,0l0,0c0,0,0,0.1,0.1,0.1l0,0l0.1,0.1c0,0.1,0.1,0.1,0.1,0.2
	c0,0,0,0.1,0.1,0.1h0.1l0,0c0.1,0.1,0,0.1,0.1,0.2s0,0,0,0.1s0,0.1-0.1,0.2h-0.1h-0.1c0,0-0.1,0-0.1,0h0h-0.1l0,0c0,0-0.1,0-0.1,0
	c-0.1,0-0.1-0.1-0.1-0.1c0,0,0-0.1,0-0.1l0,0c-0.1-0.1,0-0.2,0-0.2l0,0C18.9,28.8,19,28.8,19,28.8L19,28.8z M33.8,36.5
	c-0.1,0.1-0.2,0.1-0.3,0l0,0l0,0l0,0c0,0-0.1,0-0.2-0.1h0l-0.1-0.1c0,0,0-0.1,0-0.1l0,0c0.1,0,0.3,0,0.4,0.1c0,0,0.1,0.1,0.1,0.1
	l0,0v0.1c0,0,0,0,0,0.1L33.8,36.5z M34.5,36.1h-0.1l0,0h-0.1c0,0-0.1,0-0.1,0c0,0,0-0.1-0.1,0h-0.1c-0.1,0-0.1,0-0.2,0
	s-0.2,0-0.3-0.1s-0.2-0.1,0-0.2l0,0h0.1c0.1,0,0.2,0,0.2,0l0,0c0,0,0.1,0,0.2,0.1l0,0c0.1,0,0.2,0,0.3-0.1l0,0l0,0h0.1h0.1l0,0h0.1
	l0,0c0,0,0.1,0,0.1,0l0,0c0.2,0.1,0.3,0.1,0.5,0.1l0,0l0,0h0.2c0,0.1-0.1,0.1-0.2,0.1l0,0c0,0-0.1,0-0.1,0H35l0,0c0,0-0.1,0-0.1,0
	l0,0h-0.1l0,0c-0.1,0-0.1-0.1-0.2,0S34.6,36.1,34.5,36.1L34.5,36.1z M36.3,36.3C36.3,36.3,36.2,36.4,36.3,36.3c-0.1,0-0.2,0-0.2,0h0
	H36c0,0-0.1,0-0.2,0s-0.1,0-0.1,0s-0.1,0-0.2,0l0,0h-0.1l0,0l0,0l0,0h-0.1l0,0h-0.1l0,0h-0.1h-0.1H35H35l0,0c-0.1,0-0.2,0-0.2,0
	c0,0,0-0.1,0.1-0.1s0-0.1,0.1-0.1l0,0l0.1-0.1h0h0.1c0,0,0.1,0,0.2-0.1h0.1l0,0l0,0l0,0l0,0c0,0,0.1,0,0.1,0h0.1c0.1,0,0.2,0,0.3,0
	H36c0.1,0,0.2,0,0.2,0.1L36.3,36.3z M36.8,33.7v-0.1c0-0.1,0.1,0,0.1,0l0,0c0,0,0-0.1,0-0.2l0,0c0,0,0,0,0,0c0,0,0,0-0.1-0.1
	c0-0.1,0.1-0.2,0.1-0.3l0,0c0,0,0-0.1,0.1-0.1s0-0.1,0.1-0.1l0,0c0.2,0,0,0.1,0,0.2s0,0,0,0.1l0,0l0,0c0,0,0.1,0,0.1,0l0,0
	c0.1,0,0.1,0.1,0,0.2c0,0,0,0,0,0l0,0c0,0-0.1,0,0,0.1s0.1,0.1,0,0.1l0,0c0,0-0.1,0-0.1,0l0,0l0,0l0,0c-0.2,0-0.2,0.1-0.2,0.1l0,0
	l0,0c0,0,0,0,0,0v0.1l0,0v0c0,0.1-0.1,0.1-0.1,0l0,0l0,0l0,0l0,0l0,0C36.9,33.9,36.9,33.9,36.8,33.7L36.8,33.7L36.8,33.7L36.8,33.7
	L36.8,33.7L36.8,33.7z M38.1,34.9L38.1,34.9C38,34.9,38,34.9,38.1,34.9c-0.1,0-0.1,0-0.1,0h-0.1l0,0c0,0-0.1,0-0.1-0.1l0,0
	c0,0-0.1,0-0.1-0.1 M37.6,34.7L37.6,34.7c-0.1,0-0.1,0-0.2,0l0,0c0,0,0,0-0.1,0l0,0c0,0-0.1,0-0.2,0l0,0l0,0l0,0c-0.1,0-0.1,0-0.2,0
	l0,0h0.1c0,0-0.1,0-0.1-0.1l0,0c0-0.1,0-0.1,0.1-0.1l0,0c0.2-0.1,0.4,0,0.6,0l0,0c0,0,0.1,0,0.1,0.1s0.2,0,0.2,0.1s0,0.1,0,0.1l0,0
	v0.1l0,0c0,0,0,0,0,0L37.6,34.7z M35.8,32.9L35.8,32.9z M35.8,32.9L35.8,32.9z M35.8,32.9L35.8,32.9z"/>
<polygon class="st2" points="40.6,34.7 40.6,34.7 40.6,34.7 "/>
<polygon class="st2" points="39.9,35 39.9,35 39.9,35 "/>
<path class="st3" d="M49,25c0,0.2,0,0.3,0,0.5c0,0.2,0,0.3,0,0.5s0,0.3,0,0.5s0,0.2,0,0.2c0,0.1,0,0.2,0,0.3c0,0.1,0,0,0,0.1
	s0,0.3,0,0.4s0,0.1,0,0.2c0,0.1,0,0.2,0,0.3c0,0.1,0,0.1,0,0.1s0,0.3-0.1,0.4c0,0,0,0.1,0,0.1c0,0.1,0,0.2-0.1,0.4v0.1l-0.1,0.4v0.1
	c0,0.1,0,0.2-0.1,0.3c-0.1,0.1,0,0.1,0,0.1s0,0.1,0,0.2l-0.1,0.3c-0.1,0.6-0.3,1.2-0.5,1.7L48,32.4l-0.1,0.2L47.7,33l-0.1,0.3
	l-0.1,0.2l-0.1,0.2l-0.1,0.2l-0.1,0.2l-0.1,0.2L47,34.7l-0.1,0.2l-0.1,0.3l-0.1,0.1l-0.2,0.3l-0.2,0.3c-0.1,0.2-0.3,0.4-0.4,0.7
	c-0.2,0.4-0.5,0.8-0.7,1.1L45,37.8l-0.2,0.2l-0.2,0.3l-0.2,0.2l-0.2,0.3L44.2,39l-0.5,0.6c-0.3,0.4-0.7,0.7-1,1.1l-0.2,0.2L42.3,41
	l-0.1,0.1c-2,1.8-4.3,3.2-6.8,4.1l-0.7,0.3l-0.2,0.1l-0.7,0.2l-0.3,0.1L33.2,46l-0.3,0.1l-0.3,0.1l-0.4,0.1l-0.5,0.1l-0.4,0.1h-0.1
	h-0.1l-0.3,0.1h-0.1l-0.5,0.1c-1.2,0.2-2.3,0.3-3.5,0.3h-1l-0.3,0h-0.5h-0.2h-0.1h-0.4l0,0h-0.2h-0.2h-0.1h-0.3h-0.1l0,0l-0.4-0.1
	h-0.1l-0.4-0.1h-0.1l-0.4-0.1l-0.3-0.1h-0.1h-0.1L21,46.5h-0.1h-0.1l-0.2-0.1h-0.1h-0.1l-0.5-0.6h-0.2l-0.2-0.1h-0.1h-0.1h-0.1
	L19,45.7l0,0l-0.4-0.1h-0.1h-0.1h-0.1h-0.1h-0.1H18l-0.1-0.1l-0.2-0.1h-0.1l-0.3-0.6h-0.1l0,0l-0.3-0.1l-0.1-0.1l-0.1-0.1h-0.1
	l-0.2-0.1h-0.1h-0.1l0,0l-0.1-0.1l-0.3-0.2l0,0l-0.3-0.2h0l-0.3-0.2l0,0l-0.2-0.1L15,43.7l-0.1-0.1l-0.1-0.1h-0.1l-0.3-0.2l-0.1-0.1
	h-0.1L14,43.1H14l-0.1-0.2l-0.2-0.1l-0.1-0.1l-0.1,0l-0.2-0.1l-0.2-0.2L13,42.2l-0.2-0.1l-0.2-0.2l-0.1-0.1h-0.1h0.1
	c7.5,1.7,15.3-0.6,20.7-6l0.1-0.1c0.4-0.4,0.7-0.8,1.1-1.2l0.5-0.5l0.3-0.4l0.2-0.3l0.2-0.3l0,0l0.2-0.2c0.4-0.5,0.7-1,1-1.6
	c0.9-1.6,1.7-3.4,2.2-5.2c0.2-0.9,0.4-1.7,0.5-2.6c0.1-0.5,0.1-0.9,0.2-1.4c0-0.8,0-1.6,0-2.3c0-0.1,0-0.1,0-0.2s0-0.1,0-0.1
	c0-0.2,0-0.5,0-0.8c0-0.6-0.1-1.1-0.2-1.7c0-0.3-0.1-0.5-0.1-0.8c-0.2-1-0.5-2-0.8-2.9c-0.1-0.2-0.1-0.4-0.2-0.6
	c-0.2-0.6-0.4-1.1-0.7-1.6l-0.1-0.2l0,0c-0.2-0.5-0.5-0.9-0.7-1.4l0,0l-0.1-0.1V9.3l-0.1-0.2l0,0c-0.6-1-1.3-1.9-2-2.8
	c-0.5-0.6-1-1.1-1.5-1.6c-0.5-0.4-0.9-0.9-1.4-1.3l0.4,0.1l0.4,0.1l0.3,0.1H33L33.7,4h0.1h0.1l0.3,0.1l0,0h0.1h0.1l0.2,0.1h0.1
	l0.2,0.1l0.2,0.1l0.4,0.2l0,0l0.3,0.1l0,0l0.3,0.2l0,0l0.2,0.1l0.2,0.1h0.1L36.6,5h0l0.1,0.1L37,5.2l0.3,0.1h0.1l0,0l0.3,0.2l0,0
	L38,5.7l0,0l0.3,0.2L38.6,6l0,0h0.1l0.1,0.1L39,6.3l0,0l0.2,0.1l0.1,0.1l0,0l0,0l0.1,0.1l0,0l0,0l0.1,0.1h0l0,0l0.1,0.1h0l0.1,0.1
	l0,0L40.1,7l0.4,0.4l0.2,0.2l0.3,0.3l0.2,0.1l0.2,0.2l0.1,0.1l0.2,0.2l0.2,0.2L42,8.7l0.2,0.2l0.3,0.3l0.6,0.6l0.2,0.3l0.2,0.3l0,0
	l0.2,0.3l0.2,0.3l0.5,0.6l0.2,0.3l0.1,0.1l0.6,0.9l0.1,0.1l0.1,0.1l0.1,0.1l0.2,0.3l0,0.1v0.1L46,14v0.1c0.1,0.2,0.2,0.4,0.4,0.7
	l0.1,0.1v0.1l0.1,0.1l0.1,0.2l0,0l0.1,0.1v0.1l0.1,0.1l0,0.1v0.1l0.1,0.2l0.1,0.2l0.1,0.3l0.1,0.2v0.1l0.2,0.4v0.1v0l0.1,0.3
	l0.1,0.2v0.1l0.1,0.3l0.1,0.2v0.1l0,0v0.1v0.1l0.1,0.3v0.1l0,0v0.1v0l0.1,0.3l0,0l0.1,0.3v0.2v0.1l0,0.2v0.2v0.1
	c0,0.1,0,0.2,0.1,0.4V21c0,0.1,0,0.3,0.1,0.4v0.1c0.1,0.3,0.1,0.7,0.1,1l0,0v0.1l0,0c0,0.1,0,0.3,0,0.4C48.7,23.7,49,24.4,49,25z"/>
<path class="st1" d="M18.2,7C10.1,10.7,5.5,19.3,6.9,28c0.1-8.8,5.8-16.4,14.2-18.9C20.1,8.4,19.2,7.7,18.2,7z"/>
<path class="st4" d="M21.5,2.8c-9.2,2.3-15.7,10.4-16,19.9c1.8-9.2,9.3-16.1,18.6-17.1C23.2,4.7,22.4,3.7,21.5,2.8z"/>
<text transform="matrix(1 0 0 1 7.6787 30.3385)" class="st5 st6 st7">NEM</text>
<text transform="matrix(1 0 0 1 57.0073 35.3383)" class="st8 st6 st9">HOA LỆ </text>
</svg>
