<?xml version="1.0" encoding="utf-8"?>
<!-- Generator: Adobe Illustrator 22.0.0, SVG Export Plug-In . SVG Version: 6.00 Build 0)  -->
<svg version="1.1" id="Layer_1" xmlns="http://www.w3.org/2000/svg" xmlns:xlink="http://www.w3.org/1999/xlink" x="0px" y="0px"
	 viewBox="0 0 242.7 56.5" style="enable-background:new 0 0 242.7 56.5;" xml:space="preserve">
<style type="text/css">
	.st0{fill:#FFFFFF;}
	.st1{opacity:0.2;fill:#01A0A4;enable-background:new    ;}
	.st2{fill:#01A0A4;}
	.st3{fill-opacity:0;}
	.st4{opacity:0.2;fill:#FFFFFF;enable-background:new    ;}
	.st5{fill:#FF4500;}
	.st6{font-family:'AmericanTypewriter-Bold';}
	.st7{font-size:15px;}
	.st8{fill:#20C997;}
	.st9{font-size:32px;}
</style>
<title>lgpo</title>
<path class="st0" d="M62,26c0,0.2,0,0.3,0,0.5s0,0.3,0,0.5s0,0.3,0,0.5s0,0.2,0,0.2c0,0.1,0,0.2,0,0.3c0,0.1,0,0,0,0.1s0,0.3,0,0.4
	s0,0.1,0,0.2s0,0.2,0,0.3c0,0.1,0,0.1,0,0.1s0,0.3-0.1,0.4v0.1c0,0.1,0,0.2-0.1,0.4v0.1l-0.1,0.4v0.1c0,0.1,0,0.2-0.1,0.3
	c-0.1,0.1,0,0.1,0,0.1s0,0.1,0,0.2l-0.1,0.3c-0.1,0.6-0.3,1.2-0.5,1.7l0,0.2l-0.1,0.2L60.7,34l-0.1,0.3l-0.1,0.2l-0.1,0.2l-0.1,0.2
	l-0.1,0.2l-0.1,0.2L60,35.7l-0.1,0.2l-0.1,0.3l-0.1,0.1l-0.2,0.3l-0.2,0.3c-0.1,0.2-0.3,0.4-0.4,0.7c-0.2,0.4-0.5,0.8-0.7,1.1
	L58,38.8L57.8,39l-0.2,0.3l-0.2,0.2l-0.2,0.3l0,0.2l-0.5,0.6c-0.3,0.4-0.7,0.7-1,1.1l-0.2,0.2L55.3,42l-0.1,0.1
	c-2,1.8-4.3,3.2-6.8,4.1l-0.7,0.3l-0.2,0.1l-0.7,0.2l-0.3,0.1L46.2,47l-0.3,0.1l-0.3,0.1l-0.4,0.1l-0.5,0.1l-0.4,0.1h-0.1h-0.1
	l-0.3,0.1h-0.1l-0.5,0.1C42,47.9,40.9,48,39.7,48h-1h-0.3h-0.5h-0.2h-0.1h-0.4l0,0H37h-0.2h-0.1h-0.3h-0.1l0,0l-0.4-0.1h-0.1
	l-0.4-0.1h-0.1l-0.4-0.1l-0.3-0.1h-0.1h-0.1L34,47.5h-0.1h-0.1l-0.2-0.1h-0.1h-0.1l-0.5-0.6h-0.2l-0.2-0.1h-0.1h-0.1h-0.1l-0.2,0
	l0,0l-0.4-0.1h-0.1h-0.1h-0.1h-0.1l0,0h-0.1H31l-0.1-0.1l-0.2-0.1h-0.1l-0.3-0.6h-0.1l0,0l-0.3-0.1l-0.1-0.1l-0.1-0.1h-0.1l-0.2-0.1
	h-0.1h-0.1l0,0l-0.1-0.1l-0.3-0.2l0,0l-0.3-0.2l0,0l-0.3-0.2l0,0L28,44.6l0,0.1l-0.1-0.1l-0.1-0.1h-0.1l-0.3-0.2l-0.1-0.1l-0.1-0.1
	l-0.2,0l0,0l-0.1-0.2l-0.2-0.1l-0.1-0.1h-0.1l-0.2-0.1l-0.2-0.2L26,43.2l-0.2-0.1l-0.2-0.2l-0.1-0.1h-0.1l0,0L25,42.5l-0.2-0.2
	l-0.2-0.2l-0.3-0.3l-0.1-0.1L24,41.5l-0.2-0.2l-0.5-0.5l-0.2-0.2l-0.2-0.2l-0.5-0.5l0,0l-0.2-0.2L22,39.4l-0.2-0.2L21.7,39l-0.2-0.2
	l-0.1-0.1l-0.2-0.3l-0.1-0.1v-0.1c-0.2-0.3-0.4-0.6-0.6-1l-0.2-0.4l-0.1-0.2c-0.2-0.3-0.3-0.6-0.5-0.9l-0.2-0.4l-0.1-0.1l0,0V35
	l-0.2-0.4l-0.1-0.3L19,34.2l-0.1-0.3l-0.1-0.2l-0.2-0.4l0,0V33l-0.1-0.3c-0.3-1-0.6-2.1-0.8-3.2v-0.2v-0.1c0-0.2-0.1-0.4-0.1-0.6
	v-0.3c0-0.1,0-0.2,0-0.3l0,0c-0.1-0.7-0.1-1.3-0.1-2h-0.1v-0.1l0,0c0-0.2,0-0.5,0-0.7c0-0.1,0-0.2,0-0.3c0-0.1,0-0.3,0-0.5
	c0.2-2.3,0.7-4.5,1.6-6.7c0.6-1.5,1.5-3,2.4-4.3c0.3-0.4,0.6-0.9,1-1.3l0,0l0.1-0.2l0.3-0.3c0.5-0.5,0.9-1,1.4-1.5l0,0
	c0.5-0.5,1.1-0.9,1.6-1.4l0,0c0.8-0.6,1.6-1.1,2.4-1.6c0.6-0.3,1.2-0.7,1.8-1c0.4-0.2,0.8-0.3,1.1-0.5l0.4-0.2h0.1h0.1l0.6-0.3
	L33,4.9l0.4-0.1L34,4.7l0.4-0.1l0.3-0.1l0.2-0.1l0.3-0.1c0.4-0.1,0.8-0.2,1.1-0.2c1.2-0.2,2.3-0.3,3.5-0.4h1h0.4h0.3h0.3l0,0H42l0,0
	h0.1l0,0h0.2h0.3h0.2h0.1h0.3l0,0h0.2l0.3,0.1L44,4l0.3,0.1h0.1l0.3,0.1h0.1H45h0.2l0.4,0.1l0.3,0.1H46l0,0l0.4,0.1l0.3,0.1h0.1h0.1
	l0.1,0l0,0h0.1h0.1l0.2,0.1l0,0h0.1h0.1l0.2,0.1h0.1H48l0.1,0.1l0,0L48.4,5l0,0l0.3,0.2l0,0l0,0l0.1,0.1l0,0L49,5.4h0.1l0.2,0.1h0.1
	l0,0l0.1,0.1l0.2,0.1L50,5.6h0.1l0,0l0.3,0.2l0,0L50.8,6l0,0l0.3,0.2l0.2,0.1h0.1l0,0h0.1l0.1,0.1l0.3,0.2l0,0L52,6.7l0.1,0.1l0,0
	l0,0l0.1,0.1l0,0l0,0L52.3,7l0,0l0,0l0,0h0.2l0,0l0.1,0.1l0,0l0.3,0.2l0.4,0.4l0.2,0.2l0.3,0.3H54l0.2,0.2l0.1,0.1l0.2,0.2l0.2,0.2
	L54.8,9L55,9.2l0.3,0.3l0.6,0.6l0.2,0.3l0.2,0.3l0,0l0.2,0.3l0.2,0.3l0.5,0.6l0.2,0.3l0.1,0.1l0.8,1.6l0.1,0.1l0,0l0.1,0.1l0.1,0.1
	l0.2,0.3v0.1v0.1L59,15v0.1c0.1,0.2,0.2,0.4,0.4,0.7l0.1,0.1V16l0.1,0.1l0.1,0.2l0,0l0.1,0.1v0.1l0.1,0.1l0.1,0.1v0.1l0.1,0.2
	l0.1,0.2l0.1,0.3l0.1,0.2v0.1l0.2,0.4v0.1l0,0l0.1,0.3l0.1,0.2v0.1l0.1,0.3l0.1,0.2v0.1l0,0v0.1v0.1l0.1,0.3v0.1l0,0v0.1l0,0
	l0.1,0.3l0,0l0.1,0.3V21v0.1v0.2v0.1v0.1v0.1c0,0.1,0,0.2,0.1,0.4v0c0,0.1,0,0.3,0.1,0.4v0.1c0.1,0.3,0.1,0.7,0.1,1l0,0v0.1l0,0
	c0,0.1,0,0.3,0,0.4C61.7,24.7,62,25.4,62,26z"/>
<path class="st1" d="M43.6,27c-0.5-0.1-0.9-0.4-1.3-0.8c-0.1-0.2-0.2-0.7-0.3-0.8c-0.1-0.1-0.6,0.1-0.8,0.1c-0.2-0.6-0.5-1-1.1-0.4
	c0.2-0.2,0.2-0.6,0-0.8c-0.2-0.3-0.5-0.1-0.8-0.1c-0.6,0-0.8-0.4-1.2-0.9s-1-0.2-1.7-0.1c-0.8,0-1.5,0.2-2.2,0.3
	c-0.3,0.1-0.6,0.5-0.8,0.1c-0.2-0.4,0.1-0.6-0.3-0.8c-0.7-0.4-1.5,0.1-2.2-0.2c-0.4-0.2-0.5-0.4-0.2-0.8c0.2-0.3,0.4-0.6,0.5-1
	c0.1-0.3,0.3-0.7,0.5-0.9c0.3-0.4,0.2-0.5,0.2-0.9c1-0.5,2.3,0.1,2.5-1.4c0-0.2-0.2-0.7-0.1-0.9c0.1-0.2,0.7,0,1,0
	c0.7,0,1.4-0.1,2-0.4c0.6-0.3,1.2-0.4,1.8-0.4c0.6,0.1,0.7,0.6,1,1.1c0.3,0.5,0.7,0.9,1.2,1.1c0.4,0.1,0.6,0.4,0.8,0.8
	c0,0.3,0.2,0.6,0.4,0.9c0.4-0.3,1-0.1,1.4-0.4c0.4-0.2,0.1-1,0-1.3c-0.2-0.6-0.7-0.7-1-1.1c-0.1-0.2-0.2-0.5-0.2-0.8
	c0.1-0.3,0.2-0.2,0.5-0.3c0.6-0.1,0.8,0.1,1.2,0.5c0.1,0.2,0.4,0.2,0.5,0.3c0.1,0.1,0.2,0.5,0.4,0.7s0.8,0.5,0.9,0.9
	c0.1,0.3-0.1,0.6-0.1,0.9s0.1,0.5,0.1,0.8c0.3,0,0.8,0.5,1,0.6s0.5,0.1,0.7,0.3s0.1,0.4,0.2,0.7s0.2,0.3,0.3,0.5
	c0.1,0.5,0.3,1.1,0.5,1.6c0.3,0.6,0.9,0.9,1.1,1.6c0.5,1.6-1.7,2-2.9,2.2c-0.6,0.1-1.2,0.2-1.8,0.2C44.4,27.6,44.4,27.1,43.6,27z"/>
<path class="st2" d="M44.5,34.7L44.5,34.7L44.5,34.7z"/>
<path class="st2" d="M20.9,37.2L20.9,37.2L20.9,37.2z"/>
<path class="st2" d="M46.7,34.8L46.7,34.8L46.7,34.8z"/>
<path class="st2" d="M47.3,33.9L47.3,33.9L47.3,33.9z"/>
<path class="st2" d="M46.9,31.9L46.9,31.9L46.9,31.9z"/>
<path class="st2" d="M46.7,33.4L46.7,33.4L46.7,33.4z"/>
<path class="st2" d="M46.4,33.7L46.4,33.7L46.4,33.7z"/>
<path class="st2" d="M47,32L47,32L47,32z"/>
<path class="st1" d="M31.4,5.6h0.2c0.1,0,0.3,0,0.4-0.1c0.1-0.1,0.2-0.1,0.4-0.2c0.1,0,0.2-0.1,0.3-0.1c0.1,0,0.2,0,0.3,0.1l0.2,0.1
	c0.1,0,0.1,0.1,0.2,0.1h0.1c0.1,0,0.1,0,0.2,0H34c0.2,0,0.3,0,0.5-0.1c0.1,0,0.3,0,0.4,0h0.3l0.3,0.1l0.1,0.1l0.1,0.1
	c0.2,0.1,0.4,0.1,0.6,0c0.1,0,0.1-0.1,0.2-0.1h0.3c0.2,0,0.3-0.1,0.5-0.1c-0.1,0-0.2-0.2-0.2-0.3s0,0,0-0.1c0.1,0,0.1-0.1,0.2-0.1
	c0.2,0,0.3,0,0.5,0l0.4,0.1h0.4c0.3,0,0.5,0.1,0.6,0.3c0,0.1,0.1,0.1,0.1,0.2s0,0.2,0.1,0.2c0,0.2,0,0.3,0.1,0.5s0.1,0.3,0.2,0.4
	c0.1,0,0.2,0,0.2,0c0.1,0,0.1-0.2,0.3-0.2s0.4,0.3,0.7,0.3c0.2,0,0.3-0.1,0.5-0.1h0.4c0.1,0,0.2,0,0.3,0c0.1,0,0.1,0,0.2-0.1
	c0.1-0.1,0-0.1,0-0.2s0-0.2,0-0.3S42.5,6,42.6,6s0-0.2,0-0.2V5.7c0,0,0,0,0.1,0c0.3,0,0.5,0.1,0.8,0.2c0.2,0,0.4,0.1,0.6,0.1
	c0.1,0,0.3,0.1,0.4,0.2s0.2,0.1,0.3,0.2L45,6.7c0.1,0.1,0.1,0.2,0.2,0.3c0.1,0.1,0.3,0.3,0.4,0.4c0.2,0.1,0.5,0.1,0.8,0.1l0.3-0.1
	H47c0.2,0,0.3,0,0.5,0c0.1,0,0.3,0.1,0.4,0.1l0.3,0.1c0.1,0,0.2,0.1,0.3,0.2c0.1,0,0.2,0.1,0.3,0.2c0.2,0.1,0.3,0.3,0.5,0.4h0.2h0.1
	h0.2H50l0.9,0.1h-0.1c0.1-0.1,0.3-0.1,0.5-0.1s0.5,0,0.7,0.1c0.1,0,0.3,0.1,0.4,0.1c0,0.1,0.1,0.1,0.2,0.2l0.2,0.1
	C52.9,8.9,53,9,53.2,9h0.1V8.8V8.7l-0.1-0.2c0-0.1-0.1-0.1,0-0.2V8.2c-6.3-4.6-14.5-5.6-21.7-2.7C31.3,5.6,31.3,5.6,31.4,5.6z"/>
<path class="st2" d="M53.5,22.3L53.5,22.3L53.5,22.3z"/>
<path class="st2" d="M55.1,36.4L55.1,36.4L55.1,36.4z"/>
<path class="st2" d="M52.2,35L52.2,35L52.2,35z"/>
<polygon class="st2" points="44.9,34.9 44.9,34.9 44.9,34.9 "/>
<path class="st1" d="M48.8,33.9L48.8,33.9z M48.8,33.9L48.8,33.9z M48.8,33.9L48.8,33.9z M61.9,24.1c0-0.1,0-0.3,0-0.4l0,0v-0.1l0,0
	c0-0.3-0.1-0.7-0.1-1v-0.1c0-0.1,0-0.3-0.1-0.4V22c0-0.1,0-0.2-0.1-0.4v-0.1v-0.1v-0.2L61.4,21v-0.1v-0.2l-0.1-0.3l0,0l-0.1-0.3l0,0
	l-0.1-0.3L61,19.6v-0.1v-0.1l0,0v-0.1v-0.2l-0.1-0.3v-0.1l-0.1-0.2l-0.1-0.3l0,0v-0.1l-0.3-0.4l-0.1-0.2l-0.1-0.3L60,17v-0.2v-0.1
	l-0.1-0.1l-0.1-0.1l-0.1-0.2l0,0l-0.1-0.2l-0.1-0.2v-0.1l-0.1-0.1c-0.1-0.2-0.2-0.4-0.4-0.7v0l-0.2-0.3v-0.1v-0.1l-0.2-0.3l-0.1-0.1
	L58.4,14l0,0v0.1l0,0c0,0,0,0,0,0.1s0,0.1-0.1,0.1c0,0,0,0.1-0.1,0.1c0,0,0,0-0.1,0s0,0.1-0.1,0.1l-0.1,0.1
	c-0.1,0.1-0.1,0.1-0.2,0.1c-0.1,0-0.2,0-0.3,0s-0.1,0-0.2,0c-0.1,0-0.2-0.1-0.3-0.1h-0.2c-0.1,0-0.3,0-0.3,0.1c0,0,0,0.1-0.1,0.1
	s-0.1,0-0.2-0.1c-0.1,0-0.2,0-0.3,0s0,0.1-0.1,0.1c0,0.1,0,0.2,0,0.3c0.1,0,0.1,0.1,0.2,0.1l0.2,0.1c0.1,0,0.1,0.1,0.2,0.1
	c0.1,0,0,0,0,0.1s0,0.2,0,0.3s0,0.2,0,0.3c0.2,0.1,0.4,0.3,0.4,0.6c0,0.1,0,0.1-0.1,0.2c-0.1,0-0.2,0-0.2,0.1s0,0.1,0,0.1
	c0,0.1,0,0.2,0,0.3c0,0.1-0.1,0.1-0.1,0.2s0,0.1,0,0.2s0,0.1,0,0.2s-0.1,0.3-0.3,0.3c-0.1,0-0.2-0.1-0.2-0.2s0-0.1-0.1-0.2l-0.1-0.1
	c0,0-0.1-0.1-0.1-0.2l-0.1-0.1l-0.3-0.3c-0.2-0.2-0.4-0.3-0.5-0.4s-0.1-0.3-0.1-0.4c0-0.1-0.1-0.3-0.2-0.3c-0.1-0.1-0.2-0.1-0.2-0.2
	c-0.1-0.1-0.2-0.2-0.2-0.3s0-0.2,0.1-0.2s0.2-0.1,0.2-0.2s0.1-0.3,0.1-0.4c0-0.1,0.1-0.2,0.2-0.2c0.1-0.1,0.1-0.1,0.2-0.1
	c0.1-0.1,0.1-0.2,0.2-0.3c0-0.1,0-0.2,0-0.3s-0.1-0.2-0.2-0.3s0-0.2,0-0.2s0,0.2,0,0.3s0,0.2-0.1,0.2s-0.1,0-0.2,0L54.3,14
	c0,0,0,0.1-0.1,0.1s-0.1,0-0.2,0c-0.2-0.1-0.1-0.3-0.3-0.4c-0.1,0-0.2-0.1-0.3-0.1s-0.1,0-0.1,0.1c-0.1,0.1-0.3,0.2-0.4,0.3
	c-0.1,0.1-0.2,0.1-0.1,0.2c0,0.1,0.1,0.1,0.2,0.1c0.1,0,0.2,0.1,0.2,0.1s-0.1,0.1-0.2,0.1c-0.2,0-0.3,0-0.5,0h-0.1
	c-0.2,0-0.2-0.1-0.3-0.2H52h-0.2h-0.1c-0.1,0-0.2-0.1-0.3-0.1c-0.1-0.1-0.1-0.1-0.2-0.1c-0.1,0-0.1,0-0.2,0c0,0-0.1,0-0.2,0
	c-0.2,0.1-0.3,0.1-0.5,0.1l-0.4-0.1c-0.2,0-0.3-0.1-0.5-0.1c-0.1,0-0.3,0-0.4,0c-0.2,0.1-0.3,0.2-0.4,0.4c-0.1,0.1-0.1,0.2-0.1,0.4
	c0,0.1,0,0.2-0.1,0.2c-0.1,0.1-0.2,0.2-0.2,0.2c-0.1,0-0.1,0.1-0.2,0.2v0.1c0,0,0.3,0.1,0.4,0.1l0,0c0.1,0,0.2,0.1,0.3,0.2
	c0,0,0.1,0.1,0.2,0.1H49c0,0,0.1-0.1,0.2-0.1c0,0,0.1,0,0.2,0c0.1,0,0.3,0.1,0.4,0.1L50,16l0.3,0.2c0.1,0,0.2,0.1,0.3,0.1s0,0,0-0.1
	s0-0.1,0-0.1s0-0.1,0.1-0.1s0.1,0,0.1,0.1l0.1,0.1l0.1,0.1c0.1,0.1,0.1,0.1,0.1,0.2c0,0.1,0,0.1,0.1,0.2c0,0.1,0,0.1,0,0.2
	c0,0.1-0.1,0.1-0.1,0.2c-0.1,0.1-0.1,0.3,0,0.4s0.2,0.2,0.2,0.3c0,0.1,0.1,0.1,0.1,0.2s0,0.1,0,0.2s-0.1,0.1-0.1,0.2v0.1
	c0,0,0.1,0,0.1,0.1s-0.1,0.1-0.1,0.2s0,0.2-0.1,0.2l-0.1,0.1c-0.1,0-0.1,0.1-0.2,0.1c-0.1,0.1-0.1,0.1-0.1,0.2
	c-0.1,0.1-0.1,0.2-0.1,0.3c0,0.1-0.2,0.3-0.3,0.3c-0.2-0.1-0.4-0.1-0.6-0.1c-0.2,0-0.2,0.1-0.2,0.2s0,0.2,0,0.2v0.1
	c0,0.1,0,0.1-0.1,0.1s-0.3,0-0.3,0.2s0.1,0.2,0.2,0.2c0.2,0.1,0.3,0.2,0.4,0.4l0.1,0.1c0.1,0.1,0.1,0.2,0.2,0.2
	c0.1,0.1,0.2,0.2,0.2,0.4c0,0.1,0,0.2-0.1,0.3c-0.2,0.1-0.4,0.2-0.6,0.1l0,0c-0.1,0-0.1,0-0.1-0.1c0,0,0-0.1,0-0.2s-0.1-0.1-0.2-0.2
	c-0.1,0-0.1-0.1-0.2-0.2c0-0.1,0-0.2,0-0.2c0-0.1,0-0.1,0-0.2L49,21.2l-0.1-0.1c-0.1,0-0.1,0-0.2-0.1c-0.1-0.1-0.2-0.2-0.2-0.4
	c0-0.1,0.1-0.2,0-0.2s-0.2-0.1-0.3-0.1c-0.2,0-0.4,0-0.5,0s-0.1,0-0.2,0.1c-0.1,0-0.1,0.1-0.2,0.1c-0.1,0-0.2,0-0.3,0l0,0
	c-0.1,0-0.1-0.1,0-0.2c0-0.1,0.1-0.1,0.2-0.1l0,0c0-0.1-0.1-0.3-0.2-0.3v-0.1h-0.1H46h-0.3c0,0,0,0-0.1,0.1c0,0.1-0.1,0.1-0.1,0.2
	c-0.1,0.1-0.2,0.1-0.2,0.2c-0.1,0-0.2,0-0.3,0c0,0.1,0.1,0.1,0.2,0.2h0.1h0.2c0.2,0,0.1,0.1,0.1,0.2s0.1,0.1,0.2,0.2l0,0l0,0H46
	c0.1,0,0.1,0,0.2,0c0.1,0,0.1,0,0.2,0h0.3c0.1,0,0.2,0,0.3,0.1h0.1c0.1,0,0.1,0.1,0.1,0.2s0,0.1-0.1,0.2c-0.1,0-0.3,0-0.4,0
	c-0.1,0-0.3,0.1-0.3,0.3c0,0.1,0.2,0.2,0.3,0.3s0.3-0.1,0.3,0s0,0.2,0.1,0.3c0.2,0.1,0.3,0.3,0.4,0.5c0,0.1,0.1,0.1,0.1,0.2v0.1
	c0,0,0.2,0.1,0.3,0.1s0.2,0.1,0.2,0.1c0,0.1-0.1,0.2-0.1,0.3c0,0.1,0,0.1-0.1,0.2c0,0.1,0,0.1,0,0.2s0,0.2-0.1,0.2s-0.1,0-0.1,0
	h-0.1c-0.1,0.1-0.2,0.3-0.2,0.4s-0.1,0.3-0.3,0.3H47c0,0,0,0-0.1,0.1l-0.1,0.1c-0.1,0.1-0.2,0.1-0.3,0.2s-0.2,0.1-0.3,0.1l0,0
	c-0.2,0-0.3,0.1-0.4,0.2c-0.1,0-0.2,0.1-0.2,0.1c-0.1,0-0.1,0.1-0.2,0c-0.1,0-0.2,0-0.2,0H45c-0.1,0-0.3,0-0.4,0h-0.1
	c-0.2,0-0.3,0-0.5,0.1l-0.1,0.1c0,0,0,0.1-0.1,0.1s-0.2-0.1-0.2-0.2s0-0.2-0.1-0.3c-0.1-0.1-0.2-0.1-0.3-0.1H43h-0.2
	c-0.1,0-0.1,0-0.2,0l-0.1,0.1c0,0.1-0.1,0.1-0.1,0.2c-0.1,0.1-0.1,0.1-0.2,0.2L42.1,26v0.1v0.1c0,0.1,0,0.1,0.1,0.1
	c0.1,0.1,0.1,0.2,0.1,0.3v0.1v0.1c0,0.1,0,0.1,0.1,0.1c0,0,0.1,0.1,0.2,0.1l0.1,0.1l0.1,0.1l0.1,0.1c0.1,0.1,0.3,0.2,0.4,0.4
	s0.1,0.3,0.2,0.4c0.1,0.2,0.2,0.4,0.1,0.5c0,0.1-0.3,0.3-0.3,0.5h0.1l-0.1,0.1c-0.1,0-0.1,0-0.2,0H43c-0.2,0-0.3,0-0.5,0
	c-0.1,0-0.1,0.1-0.2,0.2s-0.2,0.1-0.3,0.2s-0.1,0.2-0.2,0.2s-0.1-0.2-0.1-0.2l-0.1-0.2c0-0.1,0-0.1-0.1-0.2c-0.1,0-0.1-0.1-0.2-0.1
	c-0.1,0-0.2-0.1-0.3-0.2s0-0.1-0.1-0.2s-0.2-0.2-0.4-0.3h-0.1c-0.1,0-0.2,0-0.2-0.1s-0.1-0.1-0.1-0.1c-0.1-0.1-0.3,0-0.3,0.1
	s0,0.3,0,0.4s-0.1,0.2-0.1,0.3c0,0,0,0.1-0.1,0.1l0,0c0,0,0,0.2,0.1,0.3l0,0c0.1,0.1,0.1,0.1,0.2,0.2c0,0.1,0.1,0.2,0.1,0.3
	c0,0.2,0.2,0.2,0.4,0.3c0.1,0.1,0.1,0.1,0.2,0.2c0.1,0,0.1,0.1,0.2,0.1s0.2,0.1,0.2,0.2c0,0,0.1,0.1,0.1,0.2s0.2,0.2,0.2,0.2v0.1
	c0,0.1,0,0.2,0,0.3s-0.1,0.2,0,0.3c0.1,0.1,0.1,0.1,0.1,0.2c0,0,0.1,0.1,0.1,0.2v0.1l0,0c0,0.1,0,0.1,0,0.2c-0.1,0-0.1-0.1-0.1-0.2
	l0,0c-0.1,0-0.3-0.1-0.4-0.2c-0.1,0-0.2-0.1-0.2-0.1c-0.1,0-0.1-0.1-0.1-0.1L40.6,32c0,0-0.1-0.1-0.2-0.2l-0.1-0.1
	c-0.1-0.1-0.1-0.1-0.2-0.2c0-0.1-0.1-0.1-0.1-0.2l-0.1-0.2c0-0.1,0-0.1,0-0.2s0-0.1,0-0.2s-0.1-0.3-0.2-0.4l-0.1-0.1l-0.1-0.1h-0.1
	l0,0c0,0-0.1-0.1-0.1-0.2c0,0,0-0.1-0.1-0.1v-0.1c0,0,0-0.1-0.1-0.1c0-0.1,0-0.1,0-0.2s0-0.1,0-0.2s0-0.1,0-0.2c0,0,0-0.1,0.1-0.1
	v-0.1v-0.2c0-0.1,0-0.2,0-0.3l-0.1-0.1v-0.1l0-0.1v-0.1c0-0.1,0-0.1-0.1-0.2c0-0.1-0.1-0.1-0.1-0.2s-0.1-0.3-0.2-0.3
	c-0.1,0-0.1,0-0.2,0c-0.1,0-0.2,0-0.2,0.1c-0.1,0-0.2,0.1-0.3,0.1c-0.1,0-0.1,0-0.1-0.1c-0.1-0.1-0.1-0.3-0.1-0.4s-0.1-0.2-0.2-0.3
	c-0.1-0.1-0.2-0.2-0.2-0.4c0-0.1,0-0.1,0-0.2l-0.1-0.1h-0.1c-0.1,0-0.1-0.1-0.2-0.2c-0.1-0.1-0.1-0.1-0.1-0.2s-0.1-0.1-0.1-0.2
	s0-0.1,0-0.2c-0.1-0.1-0.3-0.2-0.5-0.2c-0.1,0-0.1,0.1-0.2,0.1c-0.1,0-0.2,0.1-0.3,0.1c-0.2,0-0.4,0-0.6,0H35c0,0-0.1,0-0.2,0
	s0,0.1,0,0.2s0,0.1-0.1,0.2c-0.1,0.1-0.2,0.1-0.4,0.2c-0.1,0-0.2,0-0.3,0.1v0.1c0,0,0,0.1-0.1,0.1l0.1,0.2c-0.1,0.1-0.3,0.2-0.4,0.3
	c-0.1,0-0.2,0.1-0.3,0.1l0,0l0,0c0,0.1-0.1,0.2-0.1,0.2C33.1,27,33.1,27,33,27s-0.3,0-0.4,0c-0.1,0-0.1,0.1-0.1,0.2v0.1
	c0,0,0,0,0,0.1l0,0v0.1v0.1c0,0-0.1,0.1,0,0.1c-0.1,0.3-0.2,0.6-0.2,0.9s0,0.4-0.3,0.6c-0.1,0-0.1,0.1-0.2,0.1
	c-0.1,0.1,0,0.3-0.3,0.4s-0.1-0.1-0.2-0.2l-0.2-0.1c-0.2,0-0.3-0.1-0.4-0.2c-0.3-0.4-0.6-0.8-0.8-1.2c-0.1-0.2-0.2-0.4-0.3-0.6
	c-0.1-0.3-0.1-0.7-0.2-1s-0.2-0.9-0.7-0.9c-0.3,0-0.8,0-1-0.2l0,0c-0.1-0.1-0.1-0.2-0.1-0.4c0-0.1,0-0.3-0.1-0.4
	c-0.3-0.3-0.6-0.6-1-0.7c-0.5-0.1-1-0.1-1.4,0c-0.4,0.1-0.8,0.1-1.2,0c-0.3-0.1-0.5-0.2-0.7-0.3c-0.2,0-0.3,0-0.5,0
	c-0.2,0-0.5-0.1-0.7-0.1c-0.2-0.1-0.5-0.1-0.7-0.1h-0.5h-0.3l0,0h-0.2c-0.1,0-0.3-0.1-0.4-0.1h-0.1h-0.1v0.1v0.1l0.1,0.2l0.1,0.1
	l0,0c0.1,0,0.2,0.1,0.4,0.3l0.1,0.1c0.4,0.3,1-0.2,1.4-0.3c0.2-0.1,0.1-0.1,0.3,0c0.1,0,0.2,0.1,0.2,0.2c0.2,0.2,0.5,0.4,0.8,0.5
	c0.2,0.1,0.5,0.2,0.5,0.3s-0.2,0.5-0.3,0.6c-0.1,0.1-0.3,0.2-0.4,0.3c-0.1,0.1-0.2,0.2-0.2,0.3c-0.1,0.1-0.1,0.2-0.1,0.3
	c0,0.2-0.1,0.4-0.5,0.4c-0.2,0-0.4,0.1-0.6,0.3c-0.1,0.1-0.2,0.3-0.3,0.4c-0.2,0.2-0.2,0.4-0.5,0.5c-0.3,0-0.5,0-0.8,0.1l-0.2,0.1
	L19.5,28c-0.3,0.3-0.7,0.4-1.1,0.6h-0.2l0,0c-0.1,0-0.2,0-0.3,0s-0.2-0.3-0.2-0.3s-0.2-0.2-0.2-0.3l0,0c0,0.1,0,0.2,0,0.3v0.3
	c0,0.2,0.1,0.4,0.1,0.6v0.1v0.1c0.1,0.1,0.2,0,0.4,0c0.3,0,0.6-0.1,0.8-0.2c0.2-0.1,0.4-0.2,0.6-0.3l0.2-0.1l0,0
	c0.2-0.1,0.4-0.2,0.6-0.2l0.2-0.1c0.2-0.1,0.4,0.1,0.3,0.2c0,0.1,0,0.2-0.1,0.4l0,0c0,0.2-0.1,0.3-0.1,0.5c-0.1,0.2-0.2,0.4-0.3,0.6
	c-0.1,0.2,0.1,0.5,0,0.7c-0.2,0.4-0.6,0.6-0.7,1c-0.2,0.3-0.4,0.5-0.7,0.7l0,0l-0.3,0.2l0,0l0.1,0.2l0.1,0.2l0,0l0.2,0.4l0.1,0.2
	v0.4l0.1,0.2l0.1,0.3l0.2,0.3l0.1,0.2l0,0l0.1,0.1l0.2,0.4c0.2,0.3,0.3,0.6,0.5,0.9l0.1,0.2l0.2,0.3l0,0h0.1l0,0c0,0,0-0.1,0.1-0.1
	s0,0,0,0l0,0c0.1,0.1,0.1,0.2,0.1,0.2H21c0.1,0,0,0.1,0.1,0.2l0,0c0.1,0.1,0,0.2,0.1,0.2v0.2C21,37.9,21,38,21,38l0,0l0,0v0.1
	l0.1,0.1l0.2,0.3l0.1,0.1l0.2,0.2l0.1,0.2l0.2,0.2l0.2,0.3l0.2,0.2l0,0l0.4,0.5l0.2,0.2l0.2,0.2l0.5,0.5l0.2,0.2l0.2,0.2l0.1,0.1
	l0.3,0.3l0.2,0.2l0.2,0.2l0.4,0.4l0,0l0.1,0.1h0.1l0.2,0.2l0.2,0.1l0.1,0.1l0.2,0.2l0.2,0.1h0.1l0.1,0.1l0.2,0.1l0.1,0.1h0.1
	l0.1,0.1l0,0h0.1l0.1,0.1l0.2,0.2h0.1l0.1,0.1l0.1,0.1l0.1,0.1l0.2,0.1l0,0l0.2,0.1h0.1l0.3,0.2l0,0l0.3,0.2L29,45l0,0h0.1h0.1
	l0.1,0.1h0.1l0.1,0.1l0.1,0.1l0.3,0.1l0,0H30l0.3,0.1h0.1l0.2,0.1l0.1,0.1l0.2,0.1H31h0.1h0.1h0.1l0.4,0.1l0,0l0.2,0.1H32h0h0.1
	l0.2,0.1l0.2,0.1l0.5,0.1h0.1h0.1l0.2,0.1h0.1h0.1l0.2,0.1H34h0.1l0.3,0.1l0.4,0.1H35l0.4,0.1h0.1l0.4,0.1l0,0H36h0.3h0.1h0.2h0.2
	l0,0h0.4h0.1h0.2h0.9h0.3h1c1.2,0,2.4-0.1,3.5-0.3l0.5-0.1h0.1l0.3-0.1h0.1h0.1l0.4-0.1l0.5-0.1l0.4-0.1l0.3-0.1l0.3-0.1l0.3-0.1
	l0.3-0.1l0.7-0.2l0.2-0.1l0.7-0.3l0,0c0-0.2-0.1-0.5-0.2-0.7c0,0-0.1,0-0.1-0.1v-0.1H48h-0.1c0,0,0,0,0-0.1c0,0,0,0,0-0.1v-0.1
	c-0.2-0.1-0.4-0.1-0.7-0.1H47h-0.1l0,0h-0.1h-0.1l0,0c0,0-0.1,0-0.2,0h-0.3c-0.2,0-0.3-0.1-0.5,0h-0.1l0,0h-0.1l0,0h-0.1h-0.1h-0.1
	h-0.1H45c0,0,0,0.1-0.1,0.1c-0.1,0,0,0.1-0.1,0.1h-0.1l0,0h-0.1h-0.1l0,0c-0.1,0-0.2,0-0.3,0c-0.2-0.1-0.5-0.1-0.7,0h-0.1h-0.1l0,0
	c0,0.1-0.1,0.1-0.2,0.1H43h-0.1l0,0l0,0l0,0l0,0h-0.1h-0.1H43h-0.3h-0.1l-0.3,1.8l0,0l-0.1-0.1l0,0l0,0l0,0l0,0l0,0
	c-0.1-0.1-0.1-0.2,0-0.3l0,0c0-0.1,0.1,0,0.2-0.1l0,0c0,0,0-0.1,0.1-0.1c0,0,0,0,0-0.1l0,0l0,0v-0.1c0,0,0-0.1,0.1-0.1
	c0-0.1,0-0.2,0-0.3l0,0c0,0,0-0.1,0-0.2l0,0v-0.1l0,0c0,0,0,0,0-0.1s0-0.1,0-0.2s0.1-0.1,0.1-0.2l0,0c-0.1-0.1,0-0.2-0.1-0.3l0,0
	c0-0.1,0-0.2,0-0.2l0,0c0,0,0-0.1,0-0.2l0,0l0,0l0,0l0,0l0,0l0,0v-0.1l0,0V43c0,0,0,0,0.1,0c0,0,0,0.1,0.1,0.1l0,0h0.1
	c0,0,0,0.1,0.1,0.1v0.1l0,0v-0.1v-0.1V43v-0.1c0,0,0-0.1,0.1-0.2l0,0H43l0,0h0.1h0.1v-0.1c0,0,0-0.1,0-0.2l0,0h0.1l0,0
	c0,0,0-0.1,0.1-0.1s0-0.1,0.1-0.1l0,0c0.1,0,0.1,0.1,0.1,0.1l0,0l0,0l0,0h0.1h0.1h0.1H44h0.1H44l0,0l0,0l0,0h0.1
	c0.1-0.1,0.3,0.1,0.5,0h0.1c0,0,0.1,0,0.2,0H45l0,0h0.1c0,0,0.1,0,0.2,0h0.1c0.1,0,0.1,0,0.2,0l0,0h0.1l0,0h0.1h0.1H46h0
	c0,0,0-0.1,0.1-0.1l0.1-0.1l0,0c0.1,0,0.2-0.1,0.2-0.2c0-0.1,0-0.1,0-0.2l0,0l0,0h0.1l0,0h0.1l0,0l0.1-0.1c0.1,0,0.1,0.1,0.1,0.2
	c0,0,0,0,0,0.1l0,0c0,0,0,0,0-0.1c0,0,0,0,0-0.1v-0.1l0,0l0,0c0.1-0.1,0.2,0.2,0.3,0s0,0,0,0l0,0l0,0v-0.1l0,0l0,0
	c0-0.1,0.1-0.1,0.2-0.1l0,0c0.1,0,0.2-0.2,0.3-0.2h0.1h0.1l0,0l0,0l0,0v-0.1l0,0h0.3c0.1,0,0.1,0,0.2,0.1c0,0,0.1,0,0.1,0.1
	c0,0,0,0.1,0.1,0.1l0,0c0,0,0.1,0.1,0.1,0.2s0,0,0,0l0,0c0,0,0.1,0,0.2,0c0.1,0,0.2,0,0.3,0l0,0v-0.1l0,0l0,0l0,0c0,0,0-0.1,0.1-0.1
	c0,0,0.1,0,0.1-0.1l0,0l0.2-0.2c0,0,0.1,0,0.1-0.1h0.1h0.1l0,0h0.1l0,0c0.2-0.1,0.4,0.1,0.5,0c0-0.1-0.1-0.1-0.1-0.2s0.2,0,0.2,0
	s0.1,0.1,0.2,0.2l0,0c0.1,0.1,0.2,0,0.2,0.1s0.1,0,0.1,0.1h0.1l0,0c0,0,0,0,0.1,0.1h0.1h0.1l0,0c0.1,0,0.1,0.1,0.2,0.2s0,0,0,0v-0.1
	c0,0,0.2,0.1,0.3,0.1s0,0.1,0,0.1h-0.1l0,0h-0.1c-0.1,0,0,0.1-0.1,0.1s-0.2,0.1-0.3,0.2l0,0c0,0,0,0.1-0.1,0.1h-0.1l0,0H51l0,0
	c-0.1,0.1,0,0.1,0,0.2V42l0,0l0,0c0.1,0.1,0.2,0.1,0.3,0.2v0.1c0,0,0.1,0,0.1,0.1l0,0v0.1v0.1l0,0c0,0,0.1,0,0.1,0.1l0,0
	c0,0,0.1,0,0.1,0.1s0.1,0.2,0.1,0.2s0.1,0,0.1,0.1c0.1,0,0.1,0,0.2,0h0.1l0,0c0,0,0-0.1,0.1-0.1s0-0.1,0.1-0.1l0,0h0.1l0.8-1.9l0,0
	c0,0,0-0.1,0.1-0.1s0-0.1,0.1-0.1l0,0c0,0,0-0.1,0.1-0.1s0-0.1,0.1-0.1s0-0.2,0.1-0.2s0-0.2,0.1-0.3h0.1l0,0V40l0,0H54l0,0l0,0v-0.1
	l0,0l0,0h0.1l0,0c0,0,0-0.1,0.1-0.1s0-0.1,0.1-0.1l0,0c0.1-0.1,0.2-0.1,0.2,0s-0.1,0.2,0,0.4l0,0l0,0l0,0l0,0l0,0V40l0,0
	c0,0.1,0,0.2-0.1,0.3v0.1c0.1,0-0.1,0.2,0.1,0.2l0,0h0.1c0,0,0.1,0,0.1,0.1l0,0l0.1,0.1v0.1l0,0V41l0,0l0,0l0,0v0.2v0.1v0.1l0,0
	c0,0,0,0,0,0.1l0,0l0,0l0,0l0,0c0,0,0,0.1,0,0.2l0,0c-0.1,0.1,0.1,0.2-0.1,0.3s0,0,0,0.1l0.1-0.1l0.2-0.2l0.2-0.2
	c0.4-0.4,0.7-0.7,1-1.1l0.5-0.6l0.1-0.1l0.2-0.3h-0.1l0,0c-0.1-0.1-0.2,0-0.3-0.1l0,0c0,0,0,0-0.1,0l0,0c0,0-0.1,0-0.1-0.1
	c0,0,0,0,0-0.1l0,0c0,0,0,0,0-0.1c0,0,0,0,0-0.1c0,0,0,0,0-0.1l0,0v-0.1l0,0c-0.1,0,0-0.1,0-0.2l0,0v-0.1v-0.1l0,0
	c0,0-0.1,0-0.2-0.1s-0.1,0-0.2-0.1s-0.2,0-0.2,0h-0.1c0,0,0,0.1-0.1,0.1l0,0c-0.2,0,0,0.2-0.2,0.2l0,0c0,0,0,0-0.1,0l0,0h-0.1h-0.1
	l0,0c0,0-0.1,0-0.1-0.1h0c-0.1,0-0.3,0-0.4-0.1l0,0l0,0v-0.1l0,0v-0.1c0,0,0,0,0-0.1l0,0l0,0c0-0.1-0.1-0.1-0.2-0.1h-0.1
	c0,0,0,0-0.1,0c-0.2,0.1-0.4,0-0.5-0.1l0,0c0,0,0-0.1,0.1-0.1l0,0c0,0,0-0.1,0.1-0.1l0,0H54h0c0.1,0,0.2-0.1,0.2-0.2l0,0l0,0l0,0
	l0,0c0,0,0,0,0-0.1l0,0c-0.1,0,0-0.1,0-0.2s0-0.2-0.1-0.3C54,37,53.8,37.1,53.6,37s-0.3-0.3-0.2-0.5l0,0c-0.1-0.1-0.2-0.1-0.2-0.1
	l0,0L53,36.2l0,0h-0.1h-0.1c-0.1-0.1-0.2,0-0.2-0.1l0,0c-0.1,0-0.1-0.1-0.1-0.1s-0.1,0-0.2-0.1l0,0L52,36.1v0.1l0,0l0,0
	c0,0.1-0.1,0.1-0.2,0l0,0c-0.1-0.1,0-0.2-0.1-0.3v-0.1h-0.1c-0.1,0,0-0.1,0-0.1c0.2,0,0.3,0,0.5,0c0,0-0.1,0-0.2-0.1 M51.8,35.7
	c-0.1,0-0.1-0.1-0.2-0.1s0-0.1-0.1-0.2s-0.3-0.1-0.3-0.2s-0.1-0.1,0-0.2l0,0c0.1,0,0.1,0,0.1,0.1c0.1,0.1,0.1,0,0.1,0l0,0
	c0.1,0,0.3,0,0.4-0.1l0,0 M51.9,35L51.9,35h0.2c0,0,0,0,0,0.1c0.1,0.1,0.2,0,0.3,0.1s0,0.1,0,0.2l0,0v0.1l0,0c0,0.1,0,0.1,0,0.2l0,0
	c0,0,0,0.1,0.1,0.1s0,0,0,0.1s0,0.1,0.1,0.2s0.1,0.1,0.1,0h0.1c0,0,0,0,0.1,0l0,0c0,0,0,0,0.1,0l0.1-0.1l0,0c0,0,0-0.1,0.1-0.1h0.2
	c0.1,0,0.1-0.1,0.2-0.1l0,0h0.1l0,0h0.1h0.1l0,0l0,0l0.1,0.1l0,0c0,0,0.1,0,0.1,0.1l0.1,0.1l0,0c0,0,0.1,0,0.1,0.1l0,0
	c0,0,0.1,0,0.1,0.1l0,0c0,0,0.1,0,0.1,0.1h0.1c0.1,0,0.2,0.1,0.3,0.1l0,0H55l0,0c0,0,0.1,0,0.1,0.1s0.1,0,0.1,0.1l0,0
	c0,0,0.1,0,0.1,0.1s0.1,0,0.1,0.1l0,0c0,0,0.1,0,0.2,0.1l0,0c0.1,0,0.2,0.1,0.2,0.2c0,0,0,0,0,0.1c0.1,0.1,0.2,0.1,0.3,0.2l0.1,0.1
	c0,0,0.1,0,0.1,0.1l0,0c0,0,0.1,0.1,0.1,0.2V38v0.1l0,0c0,0,0.1,0,0.1,0.1l0,0c0,0,0,0,0.1,0.1c0,0,0.1,0,0.1,0.1s0.1,0,0.2,0.1V38
	v0.1v0.1c-0.1,0.1-0.1,0-0.2,0l0,0c-0.1,0-0.1,0-0.1,0.1s0,0.1,0.1,0.2c0,0.1,0.1,0.1,0.1,0.2c0,0,0,0,0,0.1l0,0c0,0.1,0,0.2,0,0.3
	c0.1,0,0.1,0,0.2,0l0,0c0.1,0.1,0,0.1,0,0.2l0,0l0.1,0.1l0.2-0.3l0.2-0.2l0.2-0.2c0.3-0.4,0.5-0.7,0.7-1.1l0.4-0.7l0.2-0.3l0.2-0.3
	l0.1-0.1l0.1-0.3l0.1-0.2l0.2-0.4l0.1-0.2l0.1-0.2l0.1-0.2l0.1-0.2l0.1-0.2l0.1-0.3l0.1-0.4l0.1-0.2l0.1-0.2
	c0.2-0.6,0.4-1.1,0.5-1.7l0.1-0.3c0-0.1,0-0.1,0-0.2s0-0.1,0-0.1s0-0.2,0.1-0.3v-0.1l0.1-0.4V30c0-0.1,0-0.2,0.1-0.4v-0.1
	c0-0.1,0-0.3,0.1-0.4c0.1-0.2,0-0.1,0-0.1s0-0.2,0-0.3c0-0.1,0-0.1,0-0.2s0-0.2,0-0.4c0-0.1,0,0,0-0.1s0-0.2,0-0.3
	c0-0.1,0-0.1,0-0.2s0-0.3,0-0.5s0-0.3,0-0.5s0-0.3,0-0.5c0.4-0.5,0.6-1.1,0.5-1.7L51.9,35z M46.4,20.5L46.4,20.5z M19.3,29.2
	L19.3,29.2z M49.8,32.2c0,0,0-0.1,0-0.2l0,0l0,0h-0.1l0,0v0.1C49.7,32.1,49.7,32.2,49.8,32.2L49.8,32.2L49.8,32.2
	c-0.1,0.1-0.1,0.2-0.2,0.2h-0.1c0-0.1-0.2-0.1-0.2-0.1s-0.1,0-0.1-0.1l0,0l-0.1-0.1V32l0,0c0-0.1,0-0.1,0-0.2v-0.1v-0.1l0,0l-0.1,0
	h-0.3c-0.1,0-0.2,0-0.3,0l0,0c0,0,0,0-0.1,0.1s0,0,0,0l0,0l0,0h-0.1l0,0v-0.1v-0.1l0,0v-0.1l0,0h0.1l0,0c0.1,0,0.2-0.1,0.2-0.1l0,0
	c0,0,0.1-0.1,0.1,0c0.3,0.2,0.5,0,0.7-0.1l0,0c0-0.1,0.1-0.2,0-0.3h0.1l0,0V31c0,0,0,0.1,0,0.2l0,0c0,0,0.1,0,0.1,0.1l0.1,0.1l0,0
	c0,0,0,0.1,0,0.2s0,0.1,0,0.2v0.1c0,0,0,0,0,0.1v0.1v0.1l-0.1,0.1l0,0l0,0h-0.1C49.9,32,49.9,32.1,49.8,32.2L49.8,32.2z M48.9,33.9
	L48.9,33.9c0.1,0,0.2-0.1,0.2-0.1l0,0c0.1,0,0.1,0,0.2,0v0.1l0,0c0,0,0,0.1-0.1,0.1l0,0c-0.1,0-0.1,0.1-0.2,0.1s0,0.1-0.1,0.1l0,0
	c-0.1,0-0.1,0-0.2,0l0,0h-0.1l0,0h-0.1l0,0c-0.1-0.1-0.2-0.1-0.4-0.1h-0.2h-0.1h-0.1h-0.1l0,0h-0.1l0,0c0,0,0,0.1-0.1,0.1
	s0,0.1-0.1,0.1l0,0v0.1l0,0l0,0c0,0,0.1,0,0.1,0.1l0,0c0.1,0,0,0.1,0,0.1l0,0c0,0,0,0,0.1,0c0,0,0-0.1,0.1-0.1c0,0,0,0,0.1,0
	s0.1,0,0.2,0H48l0,0c0.2,0,0.3,0,0.5,0v0.1l0,0v0.1l0,0c0,0.1,0,0.1-0.1,0.1l-0.2-0.1l0,0l0,0l0,0h-0.1l0,0H48l0,0h-0.1l0,0
	c0,0,0,0-0.1,0c-0.1,0.1,0,0.1,0,0.2l0,0V35l0,0c0,0,0,0,0,0.1l0,0l0,0c0,0.1-0.1,0.2,0,0.3s0,0,0,0s0,0,0.1,0c0,0,0,0,0.1,0
	c0,0,0.1,0,0.1,0.1l0,0c0,0,0,0,0,0.1v0.1c0,0,0,0-0.1,0l0,0l0,0l0,0c0,0.1,0,0.1-0.1,0.1s0,0,0,0s-0.1,0-0.2,0s-0.1-0.2-0.1-0.3
	c-0.2,0-0.3,0-0.3-0.1v-0.1v-0.1v0.1v-0.1c0-0.1,0-0.1,0-0.2c0,0,0.1-0.1,0-0.2h-0.1c-0.1,0-0.2,0-0.2,0.1s0,0.1,0,0.1v0.1
	c0,0,0,0.3-0.1,0.4s0,0,0,0s0,0,0,0.1l0,0c0.1,0.2-0.1,0.1-0.2,0.1c0,0-0.1,0-0.2,0v-0.1l0,0c0,0,0-0.1,0.1-0.1l0,0
	c0,0,0-0.1,0.1-0.2c0,0,0-0.1,0-0.2c-0.1,0,0.1-0.2-0.1-0.2h-0.1c-0.1-0.1,0-0.2,0-0.3l0,0c0,0,0,0,0.1,0h0.1c0,0,0-0.1,0.1-0.1l0,0
	c0.1-0.1,0-0.2,0.1-0.3l0,0c0,0,0-0.1,0.1-0.1l0,0l0,0l0,0c0.1-0.1,0-0.3,0.2-0.4s0-0.1,0.1-0.1s0.1-0.1,0.1,0l0,0c0,0,0,0,0.1,0
	h0.1l0,0c0,0,0,0,0.1,0h0.1c0,0,0.1,0,0.1,0.1s0.1,0,0.2,0.1h0.2c0.1,0.1,0.3,0,0.4,0.1l0,0h0.1L48.9,33.9L48.9,33.9z M46.5,36.9
	L46.5,36.9h-0.2c-0.1,0-0.1,0-0.2,0h-0.2h-0.2h-0.2l0,0l0,0c0-0.1-0.2,0-0.3,0v-0.1v-0.1c0.1,0,0.1,0,0.2,0c0,0,0.1,0,0.1,0.1h0.1
	l0,0c0,0,0,0,0.1,0v-0.1h0.1c0.1,0,0,0,0.1,0s0.1,0.1,0.2,0.1L46.5,36.9L46.5,36.9L46.5,36.9z M45.2,32.1L45.2,32.1
	c0.3-0.1,0.5-0.2,0.7-0.3c0,0,0-0.1,0.1-0.1l0,0c0,0,0-0.1,0.1-0.1s0,0,0.1,0s0-0.1,0.1-0.1s0,0,0,0l0,0c0,0,0.1,0,0.2,0l0,0
	c0.1,0,0.1,0.1,0.1,0.2l0,0c0.1,0.1,0.1,0.2,0.2,0.3s0.1,0,0.2,0.1c0,0,0,0,0.1,0H47h0.1c0,0.2,0,0.2-0.2,0.2c0,0-0.1,0-0.1,0.1
	s0,0.1-0.1,0.1s0,0,0,0l0,0c-0.1,0.1-0.2,0.2-0.2,0.4l0,0V33l0,0v0.1v0.1l0,0c-0.1,0.1,0.1,0.1,0.1,0.2c0,0,0,0,0.1,0l0,0h0.1v0.1
	l0,0c0,0,0.1,0.1,0,0.2s-0.3,0-0.4,0s0,0.1-0.1,0.1s0,0.2-0.1,0.3s0,0.1-0.1,0.1s-0.1,0-0.1,0l0,0c0,0,0,0.1-0.1,0.1l0,0h-0.1
	c-0.2,0.1,0,0.3-0.1,0.4c0,0,0,0-0.1,0l0,0c-0.1,0.1,0,0.2,0,0.2s0,0.1-0.1,0.1s-0.1,0-0.1,0l0,0c0-0.1-0.1,0-0.1,0l0,0h-0.1h-0.1
	c0,0-0.1,0-0.1-0.1s0-0.1,0-0.1v-0.1l0,0h-0.1h-0.1c-0.1,0-0.1,0-0.2,0c0,0-0.1,0-0.1-0.1h-0.1h-0.1c-0.1,0-0.2,0-0.4,0
	s0-0.2-0.1-0.2h-0.1h-0.1l0,0c-0.1,0-0.2,0-0.2-0.1s0-0.2,0-0.3s0,0,0-0.1l0,0c0,0,0,0,0.1-0.1l0,0c0,0-0.2,0.1-0.3,0.1
	s-0.1,0-0.1,0s0,0,0-0.1c0,0,0,0-0.1-0.1l0,0 M43.1,33.7L43.1,33.7L43.1,33.7L43.1,33.7L43.1,33.7L43.1,33.7c0-0.1,0.1-0.2,0-0.2
	l0,0v-0.1l0,0v-0.1v-0.1c0-0.1,0.1-0.1,0.1-0.2l0,0l0.1-0.1l0,0c0.1,0,0.1,0.1,0.2,0.1l0,0l0,0c0,0,0.1-0.1,0.2,0l0,0c0,0,0,0,0.1,0
	h0.1c0.1,0,0-0.1,0.1-0.1s0-0.1,0-0.1s0.1-0.2,0.2-0.2h0.1c0.1,0,0.1,0,0.2,0l0,0h0.1l0,0h0.1l0,0c0,0,0-0.1,0.1-0.1
	c0.1-0.1,0.1-0.1,0.2-0.2c0,0,0-0.1,0.1-0.1L43.1,33.7z M49.8,30.5c0,0.1-0.1,0.1-0.1,0.1s-0.2,0-0.1,0.1l0,0v0.1l-0.1,0.1
	c-0.2-0.2-0.2-0.4-0.2-0.6c0.1,0,0,0.1,0.1,0.1s0-0.1,0-0.2s-0.1-0.1-0.1-0.2c0.1,0,0.3,0,0.4,0l0,0c0.1,0.1,0,0.2,0.1,0.4
	C49.7,30.3,49.7,30.4,49.8,30.5L49.8,30.5z M48.5,30.7c0.1-0.1,0.2-0.1,0.2-0.2c-0.1,0-0.1,0-0.2-0.1h-0.1h-0.1
	c-0.2-0.1-0.1-0.1,0-0.2V30v0v-0.1l0,0h0.1l0,0c0,0,0.1,0,0.1,0.1c0.1,0.1,0.2,0,0.2,0.1s0,0.1,0,0.2H49l0,0l0,0l0,0l0,0v-0.1
	c0.1,0.1,0,0.3-0.1,0.4s-0.1,0.2-0.2,0.3S48.6,31,48.6,31l0,0C48.6,30.9,48.6,30.8,48.5,30.7L48.5,30.7
	C48.5,30.8,48.5,30.8,48.5,30.7v-0.1V30.7z M46.5,30.8C46.5,30.8,46.5,30.7,46.5,30.8c0.1-0.1,0.1-0.1,0.2-0.1l0,0h0.1l0,0
	c0,0,0-0.1,0.1-0.1l0,0H47c0,0,0-0.1,0.1-0.1h0.1l0.1-0.1l0,0l0,0l0,0v-0.1l0,0l0,0l0,0l0,0l0,0l0,0h0.1l0,0l0,0v0.1l0,0l0,0l0,0
	l0,0c0,0.1,0,0.1-0.1,0.1l0,0h-0.1l0,0c-0.1,0-0.2,0-0.2,0.1s0,0.1-0.1,0.1h-0.1c-0.1,0-0.1,0-0.1,0.1h-0.1H46.5L46.5,30.8
	L46.5,30.8h-0.2v-0.1l0,0L46.5,30.8L46.5,30.8z M44.8,32.4L44.8,32.4z M42.1,35.4c0,0,0,0.1,0.1,0.1h0.2c0.1,0,0.1,0,0.1,0.1
	c0,0,0,0.1,0.1,0.1s0.1,0,0.2,0s0.3,0,0.4,0.1c0.1,0,0.1,0,0.1-0.1s0,0,0.1,0c0.1,0,0,0,0,0.1s0.1,0.1,0.1,0.1h0.2l0,0
	c0.1,0,0.1,0.1,0.2,0.1c0.2,0,0.3,0,0.5,0c0,0,0.2,0,0.2,0.1s0,0.1-0.1,0.1c-0.1,0,0,0.1-0.1,0.1s-0.2-0.1-0.2,0s0.1,0.1,0.2,0.1
	s0.2,0,0.3,0.1c0,0,0,0.1,0.1,0.1c0,0,0.1,0.1,0.2,0.1s0.2,0.1,0.2,0.1v0.1h-0.1H45h-0.1c-0.1,0-0.2,0-0.2,0c-0.1,0-0.2,0-0.2-0.1
	l-0.1-0.1h-0.1c-0.1,0-0.2,0-0.2-0.1L44,36.5h-0.1c-0.1,0-0.1,0-0.1,0c-0.1,0-0.1,0-0.2-0.1l-0.1-0.1L43,36.1h-0.1
	c-0.1,0-0.1,0-0.2,0c-0.1,0-0.1,0-0.2,0c-0.1,0-0.2-0.1-0.3-0.1s-0.2,0-0.3-0.1c-0.1,0-0.1-0.1-0.1-0.2s-0.2-0.1-0.3-0.1
	s-0.1,0-0.1-0.1s0-0.1,0.1-0.1h0.1c0,0,0,0,0-0.1s0.1,0,0.1,0s0,0,0-0.1c0,0,0,0,0.1,0l0,0l0,0c0,0,0,0,0.1,0H42
	C41.9,35.4,42.1,35.3,42.1,35.4L42.1,35.4z M57.5,14.8L57.5,14.8z M50.2,22.9L50.2,22.9L50.2,22.9L50.2,22.9h0.2v-0.1l0,0l0,0l0,0
	l0,0c0.1,0,0.2,0,0.2-0.1h0.1h0.1l0,0c0.1,0,0-0.1,0.1-0.1s0.2,0,0.3,0s0.2,0,0.3,0s0.2,0,0.3,0l0,0c0.1,0,0.2,0.1,0.2,0l0,0
	c0,0-0.1-0.1,0-0.1l0,0h0.1l0,0l0,0l0,0v-0.1l0,0c0-0.1,0-0.1,0.1-0.1l0,0h0.1v0.1v0.1c0.1,0,0.2,0,0.3,0h0.1l0,0v-0.1h0.1
	c0,0,0-0.1,0-0.2l0,0v-0.1l0,0c-0.1-0.1,0-0.1,0-0.2s-0.2-0.2-0.2-0.3l-0.1-0.1l0,0c0,0-0.1-0.1,0-0.1l0,0l0,0l0,0l0,0l0,0l0,0
	c0,0,0-0.1,0.1-0.1h-0.1h-0.1c-0.1,0-0.2,0-0.2-0.1l0,0c0-0.1-0.1-0.1-0.1-0.1l0,0l0,0C52,21,52,21,52.1,20.9s0-0.1,0.1-0.1h0.1
	c0.2-0.1,0.1-0.2,0.1-0.3l0,0v-0.1l-0.1-0.1l-0.1-0.1c-0.1,0-0.1-0.1-0.1-0.1c0.1,0,0.2,0,0.3,0.1l0.2,0.2l0.1,0.1
	c0.2,0.1,0.4,0.2,0.6,0.3c0.1,0,0.2,0,0.3,0s0,0.2,0.1,0.1l0.1-0.2h0.1c0.1,0,0.1,0,0.1,0s0,0-0.1,0.1c0,0,0,0.1-0.1,0.1l0,0
	c0,0.1,0.2,0.2,0,0.2c-0.2,0.1-0.2,0-0.3,0s0,0.1-0.1,0.1s0,0.1,0,0.1s0,0.1-0.1,0.1s-0.2-0.1-0.3-0.2s-0.1,0-0.1-0.1l0,0h-0.1l0,0
	c-0.1,0-0.1,0-0.2,0h-0.1l0.1,0.1l0.1,0.1h0.1v0.1h0.1l0,0l0,0H53l0.1,0.1v-0.6l0.1,0.1l0,0l0,0l0.2,0.2l0.1,0.1
	c0.1,0.1,0.1,0.1,0.2,0.2v0.1l0,0c0.1,0.1,0,0.2,0,0.2l0,0c0.1,0.1-0.1,0.1-0.1,0.1l0,0l0.1,0.1l0,0v0.1v0.1v0.1l0,0l0,0l0,0v0.1
	c0,0,0.2,0.2,0.1,0.3c-0.1,0.1,0,0,0,0l0,0v0.1l0,0h-0.1c-0.1,0-0.3-0.1-0.3,0c-0.2,0-0.3,0-0.5,0c-0.1,0-0.2,0-0.2-0.1
	c0,0.1-0.2,0.2-0.2,0.3c-0.1,0-0.1,0-0.2,0c-0.1,0-0.1-0.1-0.2-0.1c-0.1,0,0-0.2-0.2-0.2l0,0c0,0.1,0,0.1,0,0.2s-0.1,0.1-0.2,0h-0.1
	c0,0-0.1,0-0.1,0.1l0,0h-0.1L51,22.9v-0.1l-0.1,0.1c0,0.1,0,0.2,0,0.2c0,0.1,0,0.3-0.3,0.2l0,0c0,0-0.1,0-0.1-0.1S50.4,23,50.4,23
	C50.4,23,50.3,22.9,50.2,22.9L50.2,22.9l-0.1-0.1v-0.1C50,22.6,50,22.9,50.2,22.9z M39.4,31.8l0.2,0.1c0.1,0,0.1,0.1,0.2,0.1
	c0,0.1,0.1,0.1,0.1,0.2v0.1v0.1l0.1,0.1l0.1,0.1h0.1l0.1,0.1l0.3,0.2l0.1,0.1l0.1,0.1c0,0.1,0,0.1,0,0.2v0.1v0.1
	c0,0.1,0.1,0.1,0.2,0.1s0.1,0.2,0.1,0.2c0,0.1,0.1,0.2,0.2,0.3c0.1,0.1,0.4,0.1,0.4,0.3v0.1c0,0,0,0-0.1,0c-0.1,0,0,0,0,0.1l0,0v0.1
	c0,0,0,0.3-0.1,0.4c-0.1,0.1-0.1,0.1-0.2,0.1h-0.1h-0.1H41h-0.1c0,0,0,0,0-0.1s-0.2-0.1-0.3-0.2s-0.2-0.3-0.3-0.4
	c0-0.1-0.1-0.1-0.1-0.2c0,0-0.1,0-0.1-0.1c-0.1,0-0.1-0.1-0.1-0.1V34v-0.1c0-0.1-0.1-0.2-0.2-0.2c0,0-0.1,0-0.1-0.1c0,0,0-0.1,0-0.2
	c0-0.1,0-0.2,0-0.2l0,0c0-0.1-0.1-0.1-0.1-0.1L39.5,33v-0.1v-0.1c0-0.1-0.1-0.2-0.1-0.3c-0.1-0.1-0.2-0.2-0.3-0.2s-0.1-0.1-0.2-0.1
	l0,0l0,0v-0.1c0,0,0,0,0-0.1l0,0l-0.1-0.1l-0.1-0.1c0,0-0.1,0-0.1-0.1l-0.2-0.1l-0.1-0.1l-0.1-0.1c0-0.1,0-0.2,0-0.2s0-0.1,0.1-0.1
	c0,0,0.1,0,0.1,0.1c0.1,0,0.1,0.1,0.2,0.1s0.2,0,0.3,0c0.1,0,0.2,0,0.2,0.1h0.1c0,0,0,0,0,0.1l0.1,0.1
	C39.3,31.7,39.4,31.7,39.4,31.8L39.4,31.8z M34.4,25.8L34.4,25.8z M32,29.8L32,29.8c0,0,0-0.1,0-0.2l0,0l0,0v-0.1v-0.1h0.2h0.1h0.1
	l0,0l0,0l0,0l0,0c0,0,0,0.1,0.1,0.1l0,0l0.1,0.1c0,0.1,0.1,0.1,0.1,0.2c0,0,0,0.1,0.1,0.1h0.1l0,0c0.1,0.1,0,0.1,0.1,0.2s0,0,0,0.1
	s0,0.1-0.1,0.2h-0.1h-0.1h-0.1l0,0h-0.1l0,0h-0.1c-0.1,0-0.1-0.1-0.1-0.1v-0.1l0,0c-0.1-0.1,0-0.2,0-0.2l0,0
	C31.9,29.8,32,29.8,32,29.8L32,29.8z M46.8,37.5c-0.1,0.1-0.2,0.1-0.3,0l0,0l0,0l0,0c0,0-0.1,0-0.2-0.1l0,0l-0.1-0.1v-0.1l0,0
	c0.1,0,0.3,0,0.4,0.1L46.8,37.5L46.8,37.5L46.8,37.5C46.7,37.5,46.7,37.5,46.8,37.5L46.8,37.5z M47.5,37.1L47.5,37.1L47.5,37.1h-0.2
	h-0.1c0,0,0-0.1-0.1,0H47c-0.1,0-0.1,0-0.2,0s-0.2,0-0.3-0.1s-0.2-0.1,0-0.2l0,0h0.1c0.1,0,0.2,0,0.2,0l0,0c0,0,0.1,0,0.2,0.1l0,0
	c0.1,0,0.2,0,0.3-0.1l0,0l0,0h0.1h0.1l0,0h0.1l0,0h0.1l0,0c0.2,0.1,0.3,0.1,0.5,0.1l0,0l0,0h0.2c0,0.1-0.1,0.1-0.2,0.1l0,0h-0.1H48
	l0,0h-0.1l0,0h-0.1l0,0c-0.1,0-0.1-0.1-0.2,0S47.6,37.1,47.5,37.1L47.5,37.1z M49.3,37.3C49.3,37.3,49.2,37.4,49.3,37.3
	c-0.1,0-0.2,0-0.2,0l0,0H49c0,0-0.1,0-0.2,0s-0.1,0-0.1,0s-0.1,0-0.2,0l0,0h-0.1l0,0l0,0l0,0h-0.1l0,0h-0.1l0,0h-0.1H48h0l0,0l0,0
	c-0.1,0-0.2,0-0.2,0s0-0.1,0.1-0.1s0-0.1,0.1-0.1l0,0l0.1-0.1l0,0h0.1c0,0,0.1,0,0.2-0.1h0.1l0,0l0,0l0,0l0,0h0.1h0.1
	c0.1,0,0.2,0,0.3,0h0c0.1,0,0.2,0,0.2,0.1L49.3,37.3z M49.8,34.7L49.8,34.7C49.8,34.5,49.9,34.6,49.8,34.7L49.8,34.7
	c0.1-0.1,0.1-0.2,0.1-0.3l0,0l0,0c0,0,0,0-0.1-0.1c0-0.1,0.1-0.2,0.1-0.3l0,0c0,0,0-0.1,0.1-0.1s0-0.1,0.1-0.1l0,0
	c0.2,0,0,0.1,0,0.2s0,0,0,0.1l0,0l0,0h0.1l0,0c0.1,0,0.1,0.1,0,0.2l0,0l0,0c0,0-0.1,0,0,0.1s0.1,0.1,0,0.1l0,0h-0.1l0,0l0,0l0,0
	C49.9,34.5,49.9,34.6,49.8,34.7L49.8,34.7L49.8,34.7L49.8,34.7L49.8,34.7L49.8,34.7L49.8,34.7C49.9,34.8,49.8,34.8,49.8,34.7
	L49.8,34.7L49.8,34.7L49.8,34.7L49.8,34.7L49.8,34.7C49.9,34.9,49.9,34.9,49.8,34.7L49.8,34.7L49.8,34.7L49.8,34.7L49.8,34.7
	L49.8,34.7z M51.1,35.9L51.1,35.9C51,35.9,51,35.9,51.1,35.9C51,35.9,51,35.9,51.1,35.9h-0.2l0,0c0,0-0.1,0-0.1-0.1l0,0
	c0,0-0.1,0-0.1-0.1 M50.6,35.7L50.6,35.7c-0.1,0-0.1,0-0.2,0l0,0c0,0,0,0-0.1,0l0,0c0,0-0.1,0-0.2,0l0,0l0,0l0,0c-0.1,0-0.1,0-0.2,0
	l0,0H50c0,0-0.1,0-0.1-0.1l0,0c0-0.1,0-0.1,0.1-0.1l0,0c0.2-0.1,0.4,0,0.6,0l0,0C50.6,35.5,50.7,35.5,50.6,35.7c0.1,0,0.3-0.1,0.3,0
	s0,0.1,0,0.1l0,0v0.1l0,0l0,0L50.6,35.7z M48.8,33.9L48.8,33.9z M48.8,33.9L48.8,33.9z M48.8,33.9L48.8,33.9z"/>
<path class="st2" d="M53.6,35.7L53.6,35.7L53.6,35.7z"/>
<path class="st2" d="M52.9,36L52.9,36L52.9,36z"/>
<path class="st3" d="M62,26c0,0.2,0,0.3,0,0.5s0,0.3,0,0.5s0,0.3,0,0.5s0,0.2,0,0.2c0,0.1,0,0.2,0,0.3c0,0.1,0,0,0,0.1s0,0.3,0,0.4
	s0,0.1,0,0.2s0,0.2,0,0.3c0,0.1,0,0.1,0,0.1s0,0.3-0.1,0.4v0.1c0,0.1,0,0.2-0.1,0.4v0.1l-0.1,0.4v0.1c0,0.1,0,0.2-0.1,0.3
	c-0.1,0.1,0,0.1,0,0.1s0,0.1,0,0.2l-0.1,0.3c-0.1,0.6-0.3,1.2-0.5,1.7l0,0.2l-0.1,0.2L60.7,34l-0.1,0.3l-0.1,0.2l-0.1,0.2l-0.1,0.2
	l-0.1,0.2l-0.1,0.2L60,35.7l-0.1,0.2l-0.1,0.3l-0.1,0.1l-0.2,0.3l-0.2,0.3c-0.1,0.2-0.3,0.4-0.4,0.7c-0.2,0.4-0.5,0.8-0.7,1.1
	L58,38.8L57.8,39l-0.2,0.3l-0.2,0.2l-0.2,0.3l0,0.2l-0.5,0.6c-0.3,0.4-0.7,0.7-1,1.1l-0.2,0.2L55.3,42l-0.1,0.1
	c-2,1.8-4.3,3.2-6.8,4.1l-0.7,0.3l-0.2,0.1l-0.7,0.2l-0.3,0.1L46.2,47l-0.3,0.1l-0.3,0.1l-0.4,0.1l-0.5,0.1l-0.4,0.1h-0.1h-0.1
	l-0.3,0.1h-0.1l-0.5,0.1C42,47.9,40.9,48,39.7,48h-1h-0.3h-0.5h-0.2h-0.1h-0.4l0,0H37h-0.2h-0.1h-0.3h-0.1l0,0l-0.4-0.1h-0.1
	l-0.4-0.1h-0.1l-0.4-0.1l-0.3-0.1h-0.1h-0.1L34,47.5h-0.1h-0.1l-0.2-0.1h-0.1h-0.1l-0.5-0.6h-0.2l-0.2-0.1h-0.1h-0.1h-0.1l-0.2,0
	l0,0l-0.4-0.1h-0.1h-0.1h-0.1h-0.1h-0.1H31l-0.1-0.1l-0.2-0.1h-0.1l-0.3-0.6h-0.1l0,0l-0.3-0.1l-0.1-0.1l-0.1-0.1h-0.1l-0.2-0.1
	h-0.1h-0.1l0,0l-0.1-0.1l-0.3-0.2l0,0l-0.3-0.2l0,0l-0.3-0.2l0,0L28,44.6l0,0.1l-0.1-0.1l-0.1-0.1h-0.1l-0.3-0.2l-0.1-0.1h-0.1
	L27,44.1l0,0l-0.1-0.2l-0.2-0.1l-0.1-0.1h-0.1l-0.2-0.1l-0.2-0.2L26,43.2l-0.2-0.1l-0.2-0.2l-0.1-0.1h-0.1h0.1
	c7.5,1.7,15.3-0.6,20.7-6l0.1-0.1c0.4-0.4,0.7-0.8,1.1-1.2l0.5-0.5l0.3-0.4l0.2-0.3l0.2-0.3l0,0l0.2-0.2c0.4-0.5,0.7-1,1-1.6
	c0.9-1.6,1.7-3.4,2.2-5.2c0.2-0.9,0.4-1.7,0.5-2.6c0.1-0.5,0.1-0.9,0.2-1.4c0-0.8,0-1.6,0-2.3c0-0.1,0-0.1,0-0.2s0-0.1,0-0.1
	c0-0.2,0-0.5,0-0.8c0-0.6-0.1-1.1-0.2-1.7c0-0.3-0.1-0.5-0.1-0.8c-0.2-1-0.5-2-0.8-2.9c-0.1-0.2-0.1-0.4-0.2-0.6
	C51.2,13,51,12.5,50.7,12l-0.1-0.2l0,0c-0.2-0.5-0.5-0.9-0.7-1.4l0,0l-0.1-0.1v0l-0.1-0.2l0,0c-0.6-1-1.3-1.9-2-2.8
	c-0.5-0.6-1-1.1-1.5-1.6c-0.5-0.4-0.9-0.9-1.4-1.3l0.4,0.1l0.4,0.1l0.3,0.1H46L46.7,5h0.1h0.1l0.3,0.1l0,0h0.1h0.1l0.2,0.1h0.1
	l0.2,0.1l0.2,0.1l0.4,0.2l0,0l0.3,0.1l0,0l0.3,0.2l0,0L49.3,6l0.2,0.1h0.1l0-0.1l0,0l0.1,0.1L50,6.2l0.3,0.1h0.1l0,0l0.3,0.2l0,0
	L51,6.7l0,0l0.3,0.2L51.6,7l0,0h0.1l0.1,0.1L52,7.3l0,0l0.2,0.1l0.1,0.1l0,0l0,0l0.1,0.1l0,0l0,0l0.1,0.1l0,0l0,0l0.1,0.1l0,0
	l0.1,0.1l0,0L53.1,8l0.4,0.4l0.2,0.2L54,8.9L54.2,9l0.2,0.2l0.1,0.1l0.2,0.2l0.2,0.2H55l0.2,0.2l0.3,0.3l0.6,0.6l0.2,0.3l0.2,0.3
	l0,0l0.2,0.3l0.2,0.3l0.5,0.6l0.2,0.3l0.1,0.1l0.6,0.9l0.1,0.1l0.1,0.1l0.1,0.1l0.2,0.3v0.1v0.1L59,15v0.1c0.1,0.2,0.2,0.4,0.4,0.7
	l0.1,0.1V16l0.1,0.1l0.1,0.2l0,0l0.1,0.1v0.1l0.1,0.1v0.1v0.1L60,17l0.1,0.2l0.1,0.3l0.1,0.2v0.1l0.2,0.4v0.1l0,0l0.1,0.3l0.1,0.2
	v0.1l0.1,0.3l0.1,0.2v0.1l0,0v0.1v0.1L61,20v0.1l0,0v0.1l0,0l0.1,0.3l0,0l0.1,0.3V21v0.1v0.2v0.2v0.1c0,0.1,0,0.2,0.1,0.4v0
	c0,0.1,0,0.3,0.1,0.4v0.1c0.1,0.3,0.1,0.7,0.1,1l0,0v0.1l0,0c0,0.1,0,0.3,0,0.4C61.7,24.7,62,25.4,62,26z"/>
<path class="st1" d="M31.2,8c-8.1,3.7-12.7,12.3-11.3,21c0.1-8.8,5.8-16.4,14.2-18.9C33.1,9.4,32.2,8.7,31.2,8z"/>
<path class="st4" d="M34.5,3.8c-9.2,2.3-15.7,10.4-16,19.9c1.8-9.2,9.3-16.1,18.6-17.1C36.2,5.7,35.4,4.7,34.5,3.8z"/>
<text transform="matrix(1 0 0 1 20.6787 31.3385)" class="st5 st6 st7">NEM</text>
<text transform="matrix(1 0 0 1 70.0073 36.3383)" class="st8 st6 st9">HOA LỆ </text>
</svg>
