<?xml version="1.0" encoding="utf-8"?>
<!-- Generator: Adobe Illustrator 21.0.0, SVG Export Plug-In . SVG Version: 6.00 Build 0)  -->
<svg version="1.1" id="Layer_1" xmlns="http://www.w3.org/2000/svg" xmlns:xlink="http://www.w3.org/1999/xlink" x="0px" y="0px"
	 viewBox="0 0 15 15" style="enable-background:new 0 0 15 15;" xml:space="preserve">
<style type="text/css">
	.st0{fill:#FFE6B1;}
	.st1{fill:#FFDFBA;}
	.st2{fill:#FFAA64;}
	.st3{fill:#FFEBD2;}
	.st4{fill:#42434D;}
	.st5{fill:#FFD6A6;}
	.st6{fill:#4D4E59;}
	.st7{fill:#FFF3E4;}
	.st8{fill:#FFBD7B;}
	.st9{fill:#FAA157;}
</style>
<rect class="st0" width="15" height="15"/>
<path class="st1" d="M12.1,13v1.2c0,0.1-0.1,0.2-0.2,0.2H3.2c-0.1,0-0.2-0.1-0.2-0.2V13c0-0.9,0.5-1.7,1.3-2
	c-0.3-0.2-0.8-0.6-1.1-1.3c-0.5-1-0.4-2.2,0.2-3.1c0.3-0.5,0.5-1.1,0.5-1.7V3.6c0-1.6,1.3-3,3-3h1.4c1.6,0,3,1.3,3,3
	c0,1.4,0,1.6,0.1,2.2c0.2,0.8,0.5,0.9,0.8,1.6c0.4,1.2,0,2.6-1.1,3.4L10.8,11C11.5,11.3,12.1,12.1,12.1,13L12.1,13z"/>
<path class="st2" d="M12.1,13v1.2c0,0.1-0.1,0.2-0.2,0.2H3.2c-0.1,0-0.2-0.1-0.2-0.2V13c0-1.2,1-2.2,2.2-2.2c0.2,0,0.4,0,0.5-0.1
	l0,0L7.4,12c0.1,0.1,0.2,0.1,0.3,0l1.7-1.3l0,0c0.2,0.1,0.3,0.1,0.5,0.1C11.1,10.8,12.1,11.8,12.1,13z"/>
<path class="st3" d="M10.2,5c0.1,0,0.2,0.1,0.2,0.2v1.4c0,1.2-0.7,2.3-1.8,2.7c-1.9,0.8-4.1-0.6-4.1-2.7V5.2C4.6,5.1,4.7,5,4.8,5
	c1.4,0.1,2.8-0.2,4-1c0.1-0.1,0.3,0,0.4,0.1C9.3,4.6,9.7,4.9,10.2,5L10.2,5z"/>
<path class="st4" d="M11,10.8L10.8,11c-0.3-0.1-0.6-0.2-0.9-0.2c-0.7,0-1.2-0.5-1.2-1.2V9.3l0,0c1.1-0.4,1.8-1.5,1.8-2.7V5.2
	c0-0.1-0.1-0.2-0.2-0.2c-0.5,0-0.9-0.3-1-0.9C9.1,3.9,9,3.9,8.8,4c-1.2,0.8-2.6,1.2-4,1C4.7,5,4.6,5.1,4.6,5.2v1.4
	c0,1.2,0.7,2.3,1.8,2.7l0,0v0.2c0,0.7-0.6,1.2-1.2,1.2c-0.3,0-0.6,0.1-0.9,0.2L4,10.8c-1.3-1-1.6-2.8-0.7-4.2
	c0.3-0.5,0.5-1.1,0.5-1.7V3.6c0-1.6,1.3-3,3-3h1.4c1.6,0,3,1.3,3,3v1.3c0,0.6,0.2,1.2,0.5,1.7C12.6,7.9,12.3,9.7,11,10.8z"/>
<path class="st5" d="M8.7,9.8c-0.7,0.3-1.5,0.3-2.3,0c0-0.2,0-0.3,0-0.5l0,0c0.7,0.3,1.5,0.3,2.2,0l0,0C8.6,9.6,8.6,9.7,8.7,9.8z"/>
<path class="st6" d="M9.6,0.9c0.3,0.2,0.2,0.6-0.2,0.6c-0.1,0-0.2,0-0.3,0H7.7c-1.6,0-3,1.3-3,3v0.4C4.7,5,4.6,5,4.6,5.2
	c0,1.6,0,1.5,0,1.5C4.3,7.4,4,7.5,3.8,8.3C3.7,8.7,3.6,9.1,3.7,9.5c0,0.3-0.4,0.5-0.6,0.1c-0.5-1-0.4-2.2,0.2-3.1
	c0.3-0.5,0.5-1.1,0.5-1.7V3.6c0-1.6,1.3-3,3-3h1.4C8.7,0.6,9.2,0.7,9.6,0.9L9.6,0.9z"/>
<path class="st7" d="M6.9,8.6c0.4,0.3,0.1,1-0.4,0.8C5.4,9,4.6,8,4.6,6.6V5.2C4.6,5.1,4.7,5,4.8,5c0.1,0,0.2,0,0.4,0
	c0.2,0,0.4,0.2,0.4,0.5v0.7C5.6,7.2,6.2,8.1,6.9,8.6L6.9,8.6z"/>
<path class="st8" d="M6.1,11.1c0.1,0.1,0.1,0.3-0.1,0.3c-1.3,0-2.2,1-2.2,2.2v0.8H3.2c-0.1,0-0.2-0.1-0.2-0.2V13
	c0-1.2,1-2.2,2.2-2.2c0.2,0,0.4,0,0.5-0.1l0,0L6.1,11.1z"/>
<path class="st9" d="M8.9,11.1c-0.1,0.1-0.1,0.3,0.1,0.3c1.3,0,2.2,1,2.2,2.2v0.8h0.7c0.1,0,0.2-0.1,0.2-0.2V13c0-1.2-1-2.2-2.2-2.2
	c-0.2,0-0.4,0-0.5-0.1l0,0L8.9,11.1z"/>
<path d="M12.3,13v1.4c0,0.1-0.1,0.2-0.2,0.2c-0.1,0-0.2-0.1-0.2-0.2V13c0-1.1-0.9-2-2-2c-0.5,0-1-0.3-1.3-0.7
	c-0.1-0.1,0-0.3,0.1-0.3c0.1-0.1,0.3,0,0.3,0.1c0.2,0.3,0.5,0.5,0.8,0.5C11.2,10.5,12.3,11.6,12.3,13z M8.3,11.1l-0.8,0.7l-1.4-1.1
	c0.3-0.2,0.5-0.6,0.5-1c0.3,0.1,0.6,0.1,0.9,0.1c1.8,0,3.2-1.4,3.2-3.2c0,0,0-1.7,0-1.7c0-0.1-0.1-0.2-0.2-0.2c0,0-0.3,0.1-0.6-0.1
	C9.4,4.3,9.4,3.7,9.4,3.7c0-0.2-0.2-0.3-0.4-0.2C8,4.2,6.9,4.7,5.6,4.9C5.5,4.9,5.4,5,5.4,5.1c0,0.1,0.1,0.2,0.2,0.2
	c0,0,0.8-0.1,1.7-0.4C7.9,4.7,8.4,4.5,9,4.1c0.2,0.7,0.7,1,1.2,1.1v1.4c0,1.5-1.2,2.7-2.7,2.7S4.8,8.1,4.8,6.6V4.9
	c0-0.1-0.1-0.2-0.2-0.2S4.3,4.8,4.3,4.9v1.7c0,1.3,0.7,2.4,1.8,2.9v0.1c0,0.5-0.4,1-1,1c-0.3,0-0.6,0.1-0.9,0.2l-0.2-0.1
	c-1.2-1-1.4-2.6-0.6-3.9c0.3-0.5,0.6-1.2,0.6-1.8V3.6c0-1.5,1.2-2.7,2.7-2.7h1.4c1.5,0,2.7,1.2,2.7,2.7v1.3c0,0.7,0.2,1.3,0.5,1.8
	c0.7,1,0.7,2.3,0,3.3c-0.1,0.1,0,0.3,0.1,0.3c0.1,0.1,0.3,0,0.3-0.1c0.8-1.1,0.8-2.6,0-3.8c-0.3-0.5-0.5-1-0.5-1.6V3.6
	c0-1.8-1.4-3.2-3.2-3.2H6.8C5,0.4,3.6,1.8,3.6,3.6v1.3c0,0.6-0.2,1.1-0.5,1.6c-1,1.4-0.7,3.4,0.7,4.5c-0.7,0.4-1.1,1.2-1.1,2.1v1.4
	c0,0.1,0.1,0.2,0.2,0.2s0.2-0.1,0.2-0.2V13c0-1.1,0.9-2,2-2c0.2,0,0.3,0,0.5-0.1l1.8,1.4c0.1,0.1,0.2,0.1,0.3,0l1-0.8
	c0.1-0.1,0.1-0.2,0-0.3C8.6,11.1,8.5,11.1,8.3,11.1L8.3,11.1z"/>
</svg>
