<?xml version="1.0" encoding="utf-8"?>
<!-- Generator: Adobe Illustrator 22.0.0, SVG Export Plug-In . SVG Version: 6.00 Build 0)  -->
<svg version="1.1" id="Layer_1" xmlns="http://www.w3.org/2000/svg" xmlns:xlink="http://www.w3.org/1999/xlink" x="0px" y="0px"
	 viewBox="0 0 360 180" style="enable-background:new 0 0 360 180;" xml:space="preserve">
<style type="text/css">
	.st0{fill:none;stroke:#1F6666;stroke-width:2;stroke-miterlimit:10;}
	.st1{fill:#1CA0A4;}
	.st2{fill:#F27221;}
	.st3{font-family:'Arial-BoldMT';}
	.st4{font-size:21px;}
	.st5{font-size:14px;}
	.st6{fill:#1F6666;}
	.st7{font-size:11px;}
</style>
<line class="st0" x1="231.8" y1="11.4" x2="232" y2="113"/>
<circle class="st1" cx="211.9" cy="23.5" r="3"/>
<circle class="st1" cx="252.5" cy="41.7" r="3"/>
<circle class="st1" cx="211.8" cy="75.8" r="3"/>
<circle class="st1" cx="253.9" cy="92.5" r="3"/>
<circle class="st1" cx="232" cy="115.4" r="3"/>
<text transform="matrix(1 0 0 1 117.3 149.5)" class="st2 st3 st4">Quy trình sản xuất nem</text>
<text transform="matrix(1 0 0 1 141.6 166.8)" class="st1 st3 st5">Đảm bảo vệ sinh thực phẩm</text>
<g id="_x30_SNimD_1_">
	
		<image style="overflow:visible;" width="600" height="446" id="_x30_SNimD" xlink:href="723E4520FB04C6BB.jpg"  transform="matrix(0.2076 0 0 0.2076 1.0753 26.6821)">
	</image>
</g>
<text transform="matrix(1 0 0 1 136.3 26.5)" class="st6 st3 st7">Thịt lợn sạch</text>
<text transform="matrix(1 0 0 1 256.8999 44.7001)" class="st6 st3 st7">Lên men tự nhiên</text>
<text transform="matrix(1 0 0 1 136.2999 72.971)"><tspan x="0" y="0" class="st6 st3 st7">Nguyên liệu </tspan><tspan x="0" y="13.2" class="st6 st3 st7">truyền thống</tspan></text>
<text transform="matrix(1 0 0 1 266.3649 95.4998)"><tspan x="0" y="0" class="st6 st3 st7">Bảo quản đúng </tspan><tspan x="0" y="13.2" class="st6 st3 st7">    quy trình </tspan></text>
</svg>
