<svg xmlns="http://www.w3.org/2000/svg" xmlns:xlink="http://www.w3.org/1999/xlink" viewBox="0 0 1200 445.9"><defs><style>.cls-1,.cls-55{fill:none;}.cls-2{isolation:isolate;}.cls-3{fill:url(#radial-gradient);}.cls-4{fill:url(#linear-gradient);}.cls-11,.cls-5{opacity:0.25;}.cls-11,.cls-6{fill:#fff;}.cls-7{fill:url(#linear-gradient-2);}.cls-8{fill:url(#linear-gradient-3);}.cls-11,.cls-12,.cls-9{mix-blend-mode:overlay;}.cls-10{fill:url(#linear-gradient-4);}.cls-12{opacity:0.15;}.cls-13{fill:url(#linear-gradient-5);}.cls-14{fill:url(#linear-gradient-6);}.cls-15{fill:url(#linear-gradient-7);}.cls-16{fill:url(#linear-gradient-8);}.cls-17{fill:url(#linear-gradient-9);}.cls-18{fill:url(#linear-gradient-10);}.cls-19{fill:url(#linear-gradient-11);}.cls-20{fill:url(#linear-gradient-12);}.cls-21{fill:url(#linear-gradient-14);}.cls-22{fill:url(#linear-gradient-15);}.cls-23{fill:url(#linear-gradient-16);}.cls-24{fill:url(#linear-gradient-17);}.cls-25{fill:url(#linear-gradient-18);}.cls-26{fill:url(#linear-gradient-19);}.cls-27{fill:url(#linear-gradient-20);}.cls-28{fill:#eaf0f9;}.cls-29{fill:url(#linear-gradient-21);}.cls-30{fill:url(#linear-gradient-22);}.cls-31{fill:url(#linear-gradient-23);}.cls-32{fill:url(#linear-gradient-24);}.cls-33{fill:url(#linear-gradient-25);}.cls-34{fill:url(#linear-gradient-26);}.cls-35{fill:url(#linear-gradient-27);}.cls-36{fill:url(#linear-gradient-28);}.cls-37{fill:url(#linear-gradient-29);}.cls-38{fill:#0f4c75;}.cls-39{clip-path:url(#clip-path);}.cls-40{clip-path:url(#clip-path-2);}.cls-41{fill:#44a280;}.cls-42,.cls-46{fill:#ffb697;}.cls-43{fill:#eb9b72;}.cls-44,.cls-46,.cls-53,.cls-54{mix-blend-mode:multiply;}.cls-45,.cls-54{fill:#fead87;}.cls-47{fill:#561f15;}.cls-48{fill:#e46159;}.cls-49{fill:#306e9c;}.cls-50{fill:#f7c447;}.cls-51{fill:#e9aa00;}.cls-52{fill:#9d6444;}.cls-53{opacity:0.5;}.cls-55{stroke:#000;stroke-miterlimit:10;}.cls-56{fill:#b74b48;}</style><radialGradient id="radial-gradient" cx="603.08" cy="390.36" r="684.73" gradientTransform="translate(-944.58 -127.83) scale(2.58 1.44)" gradientUnits="userSpaceOnUse"><stop offset="0" stop-color="#b1e3f7"/><stop offset="1" stop-color="#6489ff"/></radialGradient><linearGradient id="linear-gradient" x1="594.44" y1="206.9" x2="608.81" y2="539.69" gradientUnits="userSpaceOnUse"><stop offset="0" stop-color="#fff"/><stop offset="1" stop-color="#fff" stop-opacity="0"/></linearGradient><linearGradient id="linear-gradient-2" x1="136.61" y1="375.21" x2="118.76" y2="450.36" xlink:href="#linear-gradient"/><linearGradient id="linear-gradient-3" x1="1111.63" y1="375.19" x2="1137.45" y2="470.07" xlink:href="#linear-gradient"/><linearGradient id="linear-gradient-4" x1="1099.4" y1="266.56" x2="1126.49" y2="294.04" gradientUnits="userSpaceOnUse"><stop offset="0" stop-color="#ffcace"/><stop offset="1" stop-color="#ff8a98"/></linearGradient><linearGradient id="linear-gradient-5" x1="1218.18" y1="295.85" x2="1079.27" y2="316.46" gradientUnits="userSpaceOnUse"><stop offset="0" stop-color="#9f6ff7"/><stop offset="1" stop-color="#fbf"/></linearGradient><linearGradient id="linear-gradient-6" x1="1130.8" y1="209.84" x2="1181.16" y2="230.82" xlink:href="#linear-gradient-4"/><linearGradient id="linear-gradient-7" x1="1148.2" y1="241.45" x2="1148.05" y2="241.4" gradientUnits="userSpaceOnUse"><stop offset="0" stop-color="#e9a561"/><stop offset="1" stop-color="#ffff6f"/></linearGradient><linearGradient id="linear-gradient-8" x1="1228.11" y1="251.27" x2="1128.89" y2="214.89" gradientUnits="userSpaceOnUse"><stop offset="0" stop-color="#e98949"/><stop offset="1" stop-color="#ffff6f"/></linearGradient><linearGradient id="linear-gradient-9" x1="1215.67" y1="263.88" x2="1100.42" y2="184.77" xlink:href="#linear-gradient-8"/><linearGradient id="linear-gradient-10" x1="1102.37" y1="215.63" x2="1164.06" y2="220.34" xlink:href="#linear-gradient-4"/><linearGradient id="linear-gradient-11" x1="1093.79" y1="222.37" x2="1146.73" y2="226.57" xlink:href="#linear-gradient-4"/><linearGradient id="linear-gradient-12" x1="1096.05" y1="205.96" x2="1147.71" y2="210.06" xlink:href="#linear-gradient-4"/><linearGradient id="linear-gradient-14" x1="1135.33" y1="389.39" x2="1185.45" y2="427.42" gradientUnits="userSpaceOnUse"><stop offset="0" stop-color="#51878f"/><stop offset="1" stop-color="#a5ffd1"/></linearGradient><linearGradient id="linear-gradient-15" x1="1115.15" y1="357.12" x2="1213.35" y2="451.25" xlink:href="#linear-gradient-4"/><linearGradient id="linear-gradient-16" x1="1117.14" y1="280.3" x2="1167.13" y2="465.75" xlink:href="#linear-gradient-4"/><linearGradient id="linear-gradient-17" x1="1139.95" y1="425.14" x2="1132.51" y2="387.94" xlink:href="#linear-gradient-14"/><linearGradient id="linear-gradient-18" x1="1124.98" y1="427.9" x2="1135.66" y2="376.77" xlink:href="#linear-gradient-14"/><linearGradient id="linear-gradient-19" x1="107.1" y1="233.46" x2="56.97" y2="251.58" xlink:href="#linear-gradient-4"/><linearGradient id="linear-gradient-20" x1="106.57" y1="199.39" x2="92.34" y2="271.86" xlink:href="#linear-gradient-4"/><linearGradient id="linear-gradient-21" x1="-50.9" y1="290.33" x2="34.05" y2="275.43" gradientUnits="userSpaceOnUse"><stop offset="0" stop-color="#612b51"/><stop offset="1" stop-color="#8c4c77"/></linearGradient><linearGradient id="linear-gradient-22" x1="74.81" y1="329.75" x2="117.26" y2="347.44" xlink:href="#linear-gradient-4"/><linearGradient id="linear-gradient-23" x1="572.84" y1="182.26" x2="631.23" y2="186.71" gradientTransform="matrix(-0.87, 0.49, 0.49, 0.87, 520.23, -125.08)" xlink:href="#linear-gradient-4"/><linearGradient id="linear-gradient-24" x1="564.72" y1="188.64" x2="614.83" y2="192.61" gradientTransform="matrix(-0.87, 0.49, 0.49, 0.87, 520.23, -125.08)" xlink:href="#linear-gradient-4"/><linearGradient id="linear-gradient-25" x1="566.86" y1="173.1" x2="615.75" y2="176.98" gradientTransform="matrix(-0.87, 0.49, 0.49, 0.87, 520.23, -125.08)" xlink:href="#linear-gradient-4"/><linearGradient id="linear-gradient-26" x1="-94.41" y1="432.8" x2="95.83" y2="353.69" xlink:href="#linear-gradient-14"/><linearGradient id="linear-gradient-27" x1="16.75" y1="445.83" x2="60.23" y2="316.73" xlink:href="#linear-gradient-14"/><linearGradient id="linear-gradient-28" x1="114.3" y1="370.62" x2="88.53" y2="421.35" xlink:href="#linear-gradient-4"/><linearGradient id="linear-gradient-29" x1="91.4" y1="394.22" x2="75.5" y2="446.05" gradientUnits="userSpaceOnUse"><stop offset="0" stop-color="#ffbfb1"/><stop offset="1" stop-color="#ff6395"/></linearGradient><clipPath id="clip-path"><rect class="cls-1" x="320.65" y="186.6" width="644.21" height="260.66"/></clipPath><clipPath id="clip-path-2"><path class="cls-1" d="M445.75,498.7q-4.83-1.64-9.61-3.42c-26.56-9.88-50.09-30.45-65.26-57.88-18.34-33.17-25.94-74.66-19-113.54l.22-1.22c-2.11-11.6-12.84-76.1,22.21-134.07,32.26-53.36,100.34-86.63,147-37.24,19.79,21,24.71,47.71,26.08,57.45,6.13-10.43,22.58-35.31,52-47.31,51.35-20.92,96.23,16,100.83,19.93,1.07-4.09,5.33-18.55,17.94-27.52,19-13.5,39.47-2.15,41-1.28.41.24,11.43-9.09,13-10a64.85,64.85,0,0,1,17.46-7.28c23.9-6,51.46,4.78,66.1,28.61,6.88,11.2,10,25.55,7.17,39.08-3.2,15.27-12.64,27.52-17,42.29a79.66,79.66,0,0,0-.32,42.64c1.81,6.83,5,19.49,10.22,24A115,115,0,0,1,892,374.45C903.45,428,877.54,485.51,833,498c-74.8,21-169.26,24.47-219.95,24.65C556.93,522.83,499.8,517.11,445.75,498.7Z"/></clipPath></defs><title>thanks-01</title><g class="cls-2"><g id="Layer_3" data-name="Layer 3"><rect class="cls-3" width="1200" height="445.9"/></g><g id="Layer_1" data-name="Layer 1"><path class="cls-4" d="M1200,257.67V444H1.31V284.32c94.39-58.58,201.91-18.67,179.16,62.27,26.64-19.53,96.42-13.52,97.24,28.35,44.06-17.37,78.35-3.07,67.73,28.08,49.79-27.57,285.32-22,320.16,17.36s128.71-10.3,128.71-10.3,23.67-65.1,89-45c8.15-25,87-85.39,157-35.72,8.31-29,55.3-26,65.46-9.1C1093.83,278.42,1155.19,242.53,1200,257.67Z"/><g class="cls-5"><circle class="cls-6" cx="409.01" cy="154.08" r="3"/><circle class="cls-6" cx="428.16" cy="154.08" r="3"/><circle class="cls-6" cx="447.3" cy="154.08" r="3"/><circle class="cls-6" cx="466.45" cy="154.08" r="3"/><circle class="cls-6" cx="485.6" cy="154.08" r="3"/><circle class="cls-6" cx="504.75" cy="154.08" r="3"/><circle class="cls-6" cx="523.89" cy="154.08" r="3"/><circle class="cls-6" cx="543.04" cy="154.08" r="3"/><circle class="cls-6" cx="562.19" cy="154.08" r="3"/><circle class="cls-6" cx="409.01" cy="171.69" r="3"/><circle class="cls-6" cx="428.16" cy="171.69" r="3"/><circle class="cls-6" cx="447.3" cy="171.69" r="3"/><circle class="cls-6" cx="466.45" cy="171.69" r="3"/><circle class="cls-6" cx="485.6" cy="171.69" r="3"/><circle class="cls-6" cx="504.75" cy="171.69" r="3"/><circle class="cls-6" cx="523.89" cy="171.69" r="3"/><circle class="cls-6" cx="543.04" cy="171.69" r="3"/><circle class="cls-6" cx="562.19" cy="171.69" r="3"/><circle class="cls-6" cx="409.01" cy="189.3" r="3"/><circle class="cls-6" cx="428.16" cy="189.3" r="3"/><circle class="cls-6" cx="447.3" cy="189.3" r="3"/><circle class="cls-6" cx="466.45" cy="189.3" r="3"/><circle class="cls-6" cx="485.6" cy="189.3" r="3"/><circle class="cls-6" cx="504.75" cy="189.3" r="3"/><circle class="cls-6" cx="523.89" cy="189.3" r="3"/><circle class="cls-6" cx="543.04" cy="189.3" r="3"/><circle class="cls-6" cx="562.19" cy="189.3" r="3"/><circle class="cls-6" cx="409.01" cy="206.91" r="3"/><circle class="cls-6" cx="428.16" cy="206.91" r="3"/><circle class="cls-6" cx="447.3" cy="206.91" r="3"/><circle class="cls-6" cx="466.45" cy="206.91" r="3"/><circle class="cls-6" cx="485.6" cy="206.91" r="3"/><circle class="cls-6" cx="504.75" cy="206.91" r="3"/><circle class="cls-6" cx="523.89" cy="206.91" r="3"/><circle class="cls-6" cx="543.04" cy="206.91" r="3"/><circle class="cls-6" cx="562.19" cy="206.91" r="3"/><circle class="cls-6" cx="409.01" cy="224.52" r="3"/><circle class="cls-6" cx="428.16" cy="224.52" r="3"/><circle class="cls-6" cx="447.3" cy="224.52" r="3"/><circle class="cls-6" cx="466.45" cy="224.52" r="3"/><circle class="cls-6" cx="485.6" cy="224.52" r="3"/><circle class="cls-6" cx="504.75" cy="224.52" r="3"/><circle class="cls-6" cx="523.89" cy="224.52" r="3"/><circle class="cls-6" cx="543.04" cy="224.52" r="3"/><circle class="cls-6" cx="562.19" cy="224.52" r="3"/><circle class="cls-6" cx="409.01" cy="242.13" r="3"/><circle class="cls-6" cx="428.16" cy="242.13" r="3"/><circle class="cls-6" cx="447.3" cy="242.13" r="3"/><circle class="cls-6" cx="466.45" cy="242.13" r="3"/><circle class="cls-6" cx="485.6" cy="242.13" r="3"/><circle class="cls-6" cx="504.75" cy="242.13" r="3"/><circle class="cls-6" cx="523.89" cy="242.13" r="3"/><circle class="cls-6" cx="543.04" cy="242.13" r="3"/><circle class="cls-6" cx="562.19" cy="242.13" r="3"/><circle class="cls-6" cx="409.01" cy="259.73" r="3"/><circle class="cls-6" cx="428.16" cy="259.73" r="3"/><circle class="cls-6" cx="447.3" cy="259.73" r="3"/><circle class="cls-6" cx="466.45" cy="259.73" r="3"/><circle class="cls-6" cx="485.6" cy="259.73" r="3"/><circle class="cls-6" cx="504.75" cy="259.73" r="3"/><circle class="cls-6" cx="523.89" cy="259.73" r="3"/><circle class="cls-6" cx="543.04" cy="259.73" r="3"/><circle class="cls-6" cx="562.19" cy="259.73" r="3"/><circle class="cls-6" cx="409.01" cy="277.34" r="3"/><circle class="cls-6" cx="428.16" cy="277.34" r="3"/><circle class="cls-6" cx="447.3" cy="277.34" r="3"/><circle class="cls-6" cx="466.45" cy="277.34" r="3"/><circle class="cls-6" cx="485.6" cy="277.34" r="3"/><circle class="cls-6" cx="504.75" cy="277.34" r="3"/><circle class="cls-6" cx="523.89" cy="277.34" r="3"/><circle class="cls-6" cx="543.04" cy="277.34" r="3"/><circle class="cls-6" cx="562.19" cy="277.34" r="3"/><circle class="cls-6" cx="409.01" cy="294.95" r="3"/><circle class="cls-6" cx="428.16" cy="294.95" r="3"/><circle class="cls-6" cx="447.3" cy="294.95" r="3"/><circle class="cls-6" cx="466.45" cy="294.95" r="3"/><circle class="cls-6" cx="485.6" cy="294.95" r="3"/><circle class="cls-6" cx="504.75" cy="294.95" r="3"/><circle class="cls-6" cx="523.89" cy="294.95" r="3"/><circle class="cls-6" cx="543.04" cy="294.95" r="3"/><circle class="cls-6" cx="562.19" cy="294.95" r="3"/><circle class="cls-6" cx="409.01" cy="312.56" r="3"/><circle class="cls-6" cx="428.16" cy="312.56" r="3"/><circle class="cls-6" cx="447.3" cy="312.56" r="3"/><circle class="cls-6" cx="466.45" cy="312.56" r="3"/><circle class="cls-6" cx="485.6" cy="312.56" r="3"/><circle class="cls-6" cx="504.75" cy="312.56" r="3"/><circle class="cls-6" cx="523.89" cy="312.56" r="3"/><circle class="cls-6" cx="543.04" cy="312.56" r="3"/><circle class="cls-6" cx="562.19" cy="312.56" r="3"/></g><g class="cls-5"><circle class="cls-6" cx="651.34" cy="238.14" r="1.87"/><circle class="cls-6" cx="663.29" cy="238.14" r="1.87"/><circle class="cls-6" cx="675.24" cy="238.14" r="1.87"/><circle class="cls-6" cx="687.19" cy="238.14" r="1.87"/><circle class="cls-6" cx="699.13" cy="238.14" r="1.87"/><circle class="cls-6" cx="711.08" cy="238.14" r="1.87"/><circle class="cls-6" cx="723.03" cy="238.14" r="1.87"/><circle class="cls-6" cx="734.98" cy="238.14" r="1.87"/><circle class="cls-6" cx="746.93" cy="238.14" r="1.87"/><circle class="cls-6" cx="651.34" cy="249.13" r="1.87"/><circle class="cls-6" cx="663.29" cy="249.13" r="1.87"/><circle class="cls-6" cx="675.24" cy="249.13" r="1.87"/><circle class="cls-6" cx="687.19" cy="249.13" r="1.87"/><circle class="cls-6" cx="699.13" cy="249.13" r="1.87"/><circle class="cls-6" cx="711.08" cy="249.13" r="1.87"/><circle class="cls-6" cx="723.03" cy="249.13" r="1.87"/><circle class="cls-6" cx="734.98" cy="249.13" r="1.87"/><circle class="cls-6" cx="746.93" cy="249.13" r="1.87"/><circle class="cls-6" cx="651.34" cy="260.11" r="1.87"/><circle class="cls-6" cx="663.29" cy="260.11" r="1.87"/><circle class="cls-6" cx="675.24" cy="260.11" r="1.87"/><circle class="cls-6" cx="687.19" cy="260.11" r="1.87"/><circle class="cls-6" cx="699.13" cy="260.11" r="1.87"/><circle class="cls-6" cx="711.08" cy="260.11" r="1.87"/><circle class="cls-6" cx="723.03" cy="260.11" r="1.87"/><circle class="cls-6" cx="734.98" cy="260.11" r="1.87"/><circle class="cls-6" cx="746.93" cy="260.11" r="1.87"/><circle class="cls-6" cx="651.34" cy="271.1" r="1.87"/><circle class="cls-6" cx="663.29" cy="271.1" r="1.87"/><circle class="cls-6" cx="675.24" cy="271.1" r="1.87"/><circle class="cls-6" cx="687.19" cy="271.1" r="1.87"/><circle class="cls-6" cx="699.13" cy="271.1" r="1.87"/><circle class="cls-6" cx="711.08" cy="271.1" r="1.87"/><circle class="cls-6" cx="723.03" cy="271.1" r="1.87"/><circle class="cls-6" cx="734.98" cy="271.1" r="1.87"/><circle class="cls-6" cx="746.93" cy="271.1" r="1.87"/><circle class="cls-6" cx="651.34" cy="282.09" r="1.87"/><circle class="cls-6" cx="663.29" cy="282.09" r="1.87"/><circle class="cls-6" cx="675.24" cy="282.09" r="1.87"/><circle class="cls-6" cx="687.19" cy="282.09" r="1.87"/><circle class="cls-6" cx="699.13" cy="282.09" r="1.87"/><circle class="cls-6" cx="711.08" cy="282.09" r="1.87"/><circle class="cls-6" cx="723.03" cy="282.09" r="1.87"/><circle class="cls-6" cx="734.98" cy="282.09" r="1.87"/><circle class="cls-6" cx="746.93" cy="282.09" r="1.87"/><circle class="cls-6" cx="651.34" cy="293.08" r="1.87"/><circle class="cls-6" cx="663.29" cy="293.08" r="1.87"/><circle class="cls-6" cx="675.24" cy="293.08" r="1.87"/><circle class="cls-6" cx="687.19" cy="293.08" r="1.87"/><circle class="cls-6" cx="699.13" cy="293.08" r="1.87"/><circle class="cls-6" cx="711.08" cy="293.08" r="1.87"/><circle class="cls-6" cx="723.03" cy="293.08" r="1.87"/><circle class="cls-6" cx="734.98" cy="293.08" r="1.87"/><circle class="cls-6" cx="746.93" cy="293.08" r="1.87"/><circle class="cls-6" cx="651.34" cy="304.06" r="1.87"/><circle class="cls-6" cx="663.29" cy="304.06" r="1.87"/><circle class="cls-6" cx="675.24" cy="304.06" r="1.87"/><circle class="cls-6" cx="687.19" cy="304.06" r="1.87"/><circle class="cls-6" cx="699.13" cy="304.06" r="1.87"/><circle class="cls-6" cx="711.08" cy="304.06" r="1.87"/><circle class="cls-6" cx="723.03" cy="304.06" r="1.87"/><circle class="cls-6" cx="734.98" cy="304.06" r="1.87"/><circle class="cls-6" cx="746.93" cy="304.06" r="1.87"/><circle class="cls-6" cx="651.34" cy="315.05" r="1.87"/><circle class="cls-6" cx="663.29" cy="315.05" r="1.87"/><circle class="cls-6" cx="675.24" cy="315.05" r="1.87"/><circle class="cls-6" cx="687.19" cy="315.05" r="1.87"/><circle class="cls-6" cx="699.13" cy="315.05" r="1.87"/><circle class="cls-6" cx="711.08" cy="315.05" r="1.87"/><circle class="cls-6" cx="723.03" cy="315.05" r="1.87"/><circle class="cls-6" cx="734.98" cy="315.05" r="1.87"/><circle class="cls-6" cx="746.93" cy="315.05" r="1.87"/><circle class="cls-6" cx="651.34" cy="326.04" r="1.87"/><circle class="cls-6" cx="663.29" cy="326.04" r="1.87"/><circle class="cls-6" cx="675.24" cy="326.04" r="1.87"/><circle class="cls-6" cx="687.19" cy="326.04" r="1.87"/><circle class="cls-6" cx="699.13" cy="326.04" r="1.87"/><circle class="cls-6" cx="711.08" cy="326.04" r="1.87"/><circle class="cls-6" cx="723.03" cy="326.04" r="1.87"/><circle class="cls-6" cx="734.98" cy="326.04" r="1.87"/><circle class="cls-6" cx="746.93" cy="326.04" r="1.87"/><circle class="cls-6" cx="651.34" cy="337.03" r="1.87"/><circle class="cls-6" cx="663.29" cy="337.03" r="1.87"/><circle class="cls-6" cx="675.24" cy="337.03" r="1.87"/><circle class="cls-6" cx="687.19" cy="337.03" r="1.87"/><circle class="cls-6" cx="699.13" cy="337.03" r="1.87"/><circle class="cls-6" cx="711.08" cy="337.03" r="1.87"/><circle class="cls-6" cx="723.03" cy="337.03" r="1.87"/><circle class="cls-6" cx="734.98" cy="337.03" r="1.87"/><circle class="cls-6" cx="746.93" cy="337.03" r="1.87"/></g><g class="cls-5"><circle class="cls-6" cx="261.43" cy="67.04" r="2.32"/><circle class="cls-6" cx="276.23" cy="67.04" r="2.32"/><circle class="cls-6" cx="291.03" cy="67.04" r="2.32"/><circle class="cls-6" cx="305.83" cy="67.04" r="2.32"/><circle class="cls-6" cx="320.63" cy="67.04" r="2.32"/><circle class="cls-6" cx="335.44" cy="67.04" r="2.32"/><circle class="cls-6" cx="261.43" cy="80.65" r="2.32"/><circle class="cls-6" cx="276.23" cy="80.65" r="2.32"/><circle class="cls-6" cx="291.03" cy="80.65" r="2.32"/><circle class="cls-6" cx="305.83" cy="80.65" r="2.32"/><circle class="cls-6" cx="320.63" cy="80.65" r="2.32"/><circle class="cls-6" cx="335.44" cy="80.65" r="2.32"/><circle class="cls-6" cx="261.43" cy="94.26" r="2.32"/><circle class="cls-6" cx="276.23" cy="94.26" r="2.32"/><circle class="cls-6" cx="291.03" cy="94.26" r="2.32"/><circle class="cls-6" cx="305.83" cy="94.26" r="2.32"/><circle class="cls-6" cx="320.63" cy="94.26" r="2.32"/><circle class="cls-6" cx="335.44" cy="94.26" r="2.32"/><circle class="cls-6" cx="261.43" cy="107.88" r="2.32"/><circle class="cls-6" cx="276.23" cy="107.88" r="2.32"/><circle class="cls-6" cx="291.03" cy="107.88" r="2.32"/><circle class="cls-6" cx="305.83" cy="107.88" r="2.32"/><circle class="cls-6" cx="320.63" cy="107.88" r="2.32"/><circle class="cls-6" cx="335.44" cy="107.88" r="2.32"/><circle class="cls-6" cx="261.43" cy="121.49" r="2.32"/><circle class="cls-6" cx="276.23" cy="121.49" r="2.32"/><circle class="cls-6" cx="291.03" cy="121.49" r="2.32"/><circle class="cls-6" cx="305.83" cy="121.49" r="2.32"/><circle class="cls-6" cx="320.63" cy="121.49" r="2.32"/><circle class="cls-6" cx="335.44" cy="121.49" r="2.32"/><circle class="cls-6" cx="261.43" cy="135.1" r="2.32"/><circle class="cls-6" cx="276.23" cy="135.1" r="2.32"/><circle class="cls-6" cx="291.03" cy="135.1" r="2.32"/><circle class="cls-6" cx="305.83" cy="135.1" r="2.32"/><circle class="cls-6" cx="320.63" cy="135.1" r="2.32"/><circle class="cls-6" cx="335.44" cy="135.1" r="2.32"/><circle class="cls-6" cx="261.43" cy="148.71" r="2.32"/><circle class="cls-6" cx="276.23" cy="148.71" r="2.32"/><circle class="cls-6" cx="291.03" cy="148.71" r="2.32"/><circle class="cls-6" cx="305.83" cy="148.71" r="2.32"/><circle class="cls-6" cx="320.63" cy="148.71" r="2.32"/><circle class="cls-6" cx="335.44" cy="148.71" r="2.32"/></g><g class="cls-5"><circle class="cls-6" cx="934.85" cy="89.01" r="1.87"/><circle class="cls-6" cx="946.8" cy="89.01" r="1.87"/><circle class="cls-6" cx="958.75" cy="89.01" r="1.87"/><circle class="cls-6" cx="970.69" cy="89.01" r="1.87"/><circle class="cls-6" cx="934.85" cy="99.99" r="1.87"/><circle class="cls-6" cx="946.8" cy="99.99" r="1.87"/><circle class="cls-6" cx="958.75" cy="99.99" r="1.87"/><circle class="cls-6" cx="970.69" cy="99.99" r="1.87"/><circle class="cls-6" cx="934.85" cy="110.98" r="1.87"/><circle class="cls-6" cx="946.8" cy="110.98" r="1.87"/><circle class="cls-6" cx="958.75" cy="110.98" r="1.87"/><circle class="cls-6" cx="970.69" cy="110.98" r="1.87"/><circle class="cls-6" cx="934.85" cy="121.97" r="1.87"/><circle class="cls-6" cx="946.8" cy="121.97" r="1.87"/><circle class="cls-6" cx="958.75" cy="121.97" r="1.87"/><circle class="cls-6" cx="970.69" cy="121.97" r="1.87"/><circle class="cls-6" cx="934.85" cy="132.96" r="1.87"/><circle class="cls-6" cx="946.8" cy="132.96" r="1.87"/><circle class="cls-6" cx="958.75" cy="132.96" r="1.87"/><circle class="cls-6" cx="970.69" cy="132.96" r="1.87"/><circle class="cls-6" cx="934.85" cy="143.94" r="1.87"/><circle class="cls-6" cx="946.8" cy="143.94" r="1.87"/><circle class="cls-6" cx="958.75" cy="143.94" r="1.87"/><circle class="cls-6" cx="970.69" cy="143.94" r="1.87"/><circle class="cls-6" cx="934.85" cy="154.93" r="1.87"/><circle class="cls-6" cx="946.8" cy="154.93" r="1.87"/><circle class="cls-6" cx="958.75" cy="154.93" r="1.87"/><circle class="cls-6" cx="970.69" cy="154.93" r="1.87"/><circle class="cls-6" cx="934.85" cy="165.92" r="1.87"/><circle class="cls-6" cx="946.8" cy="165.92" r="1.87"/><circle class="cls-6" cx="958.75" cy="165.92" r="1.87"/><circle class="cls-6" cx="970.69" cy="165.92" r="1.87"/><circle class="cls-6" cx="934.85" cy="176.91" r="1.87"/><circle class="cls-6" cx="946.8" cy="176.91" r="1.87"/><circle class="cls-6" cx="958.75" cy="176.91" r="1.87"/><circle class="cls-6" cx="970.69" cy="176.91" r="1.87"/><circle class="cls-6" cx="934.85" cy="187.9" r="1.87"/><circle class="cls-6" cx="946.8" cy="187.9" r="1.87"/><circle class="cls-6" cx="958.75" cy="187.9" r="1.87"/><circle class="cls-6" cx="970.69" cy="187.9" r="1.87"/></g><path class="cls-7" d="M266,444.79H2.47v-119C74.9,253.91,157.4,302.86,140,402.12c20.44-24,74-16.57,74.61,34.77C239,421.47,259.58,426.4,266,444.79Z"/><path class="cls-8" d="M1201.35,356.15v85.13H1034.71c6-9.88,15.76-18.35,30.27-11.22,3.51-17.21,37.48-58.76,67.58-24.58,3.58-20,23.81-17.9,28.19-6.26C1155.63,370.44,1182.05,345.73,1201.35,356.15Z"/><path class="cls-9" d="M999.88,207.26c-.28.08-.11.21,0,0Z"/><path class="cls-9" d="M123.38,224.9c1.44-8.14.06-13.72-2.53-14-1.38-.17-3.1,1.17-4.92,4.41-.5.9-1.14,1.9-1.88,3-5.44,7.9-16.61,19.7-25.45,25.84q-1.35.94-2.61,1.69c-.47-1.31-.79-2-.79-2l-42,9.34L30,256c-.11-.86-.22-1.65-.31-2.38a3.53,3.53,0,0,0-4.23-3L1.31,255.71v71.87l32-16.53a3.52,3.52,0,0,0,2.49-3.44c0-1.55-.12-3.34-.26-5.31l15.23-6.74L89,278.68c.26-1.75.43-3.45.55-5.11,7.31-3.07,16.56-5.11,25.14-6.86,11.9-2.43,22.5-4.34,24.83-7.78,4.64-6.84,2.22-14.89,6.24-28.93S139.28,221.29,123.38,224.9Z"/><path class="cls-9" d="M81.46,368.78a19,19,0,0,0-.15-5l6.37-7.54.55-.2a63.93,63.93,0,0,0,6.56-2.81c4.51-2.25,9.51-5.56,9.54-9.13a10.86,10.86,0,0,0-.16-1.8,15.07,15.07,0,0,0-1.74-4.86,23.72,23.72,0,0,0-4.25-5.49S95.46,321.42,94,319v0a2.63,2.63,0,0,0-.17-.25.92.92,0,0,0-.3-.25c-1.35-.71-4.77,1.56-7.74,4.18-.81.71-1.59,1.45-2.28,2.16l-.05.06-.08.08v0c-.23.24-.45.47-.66.71-.39-.91-.8-1.74-1.22-2.52a22.29,22.29,0,0,0-4.76-6.32c-.17-.15-.34-.31-.51-.44-3.19-2.6-6.07-2.74-7.06-2.23a.45.45,0,0,0-.16.14c-.76,1,.69,6.07,2.13,10.42.8,2.37,1.58,4.53,2,5.71.88,2.42-1.29,7.29-3.68,11.39h0l-.61,1c-.52.84-1,1.63-1.52,2.34l-.58-.28c-3.76-1.61-20.54,18.92-36.64,34.5C23.22,377.23,0,372.27,0,372.27v42.27s36.1,1.48,43.89.95S68.71,392.67,81.46,368.78Z"/><path class="cls-9" d="M121,411.21c-2.68,3.19-6,6.38-9,9.73,2,2.14,3.37,4.09,3.52,5.49.61,5.64-6.24,3-5.83,6.65.2,1.88-2.16,7.91-4.5,13.31h-53c9.61-11,23.13-25.73,27.64-25.59,5.61.18,4.74-10.6,8.56-13.19a3.13,3.13,0,0,1,1.19-.5c1.21-.24,3.23.39,5.62,1.53a16.3,16.3,0,0,0,1.14-6,31.57,31.57,0,0,0-.24-3.29c-.4-3.35-1.22-7.18-2-10.8-1.22-5.85-2.25-11.13-1-12.88a1,1,0,0,1,.54-.4c3-.9,12,12.49,12,12.49s2.08-11.09,6.33-12.07,6.21,7.44,6.21,7.44,7.64,3.47,8.51,15.28C127,402.91,124.48,407.05,121,411.21Z"/><path class="cls-9" d="M1154,307.41c-2-.69-9.38-7.3-16.16-12.86-1.13-.93-2.23-1.82-3.3-2.65-4.24-3.33-7.76-5.69-8.77-5.05a12.45,12.45,0,0,0-2.22,2.2c-1.09-1.4-2.48-3.27-3.82-5.16a63.61,63.61,0,0,1-3.75-5.78c-1-1.93-1.36-6.3-1.76-10.17-.38-3.69-.84-6.92-2.08-7.14a1.41,1.41,0,0,0-1.12.47c-3.92,3.44-3.72,14.12-3.72,14.12s-3.82-2.68-7.06-2.29-4.77,5.34-7.63,16.41c-1,4-.16,6.91,1.89,9.16,3.58,4,10.79,6,17.64,8.84a5.62,5.62,0,0,0-.35,2.19c.13,1.15,2.56,4,6.21,7.69,1,1,2.07,2,3.21,3.12,10.57,10,27,23.29,32.55,24.8,8.39,2.29,46.21-10.69,46.21-10.69v-46S1157.61,308.68,1154,307.41Z"/><path class="cls-9" d="M1155.23,219.2c-.92-.23-1.78.57-2.56,2-1.06-.53-2.2-1.14-3.38-1.83-4.33-2.53-8.86-5.9-9.3-8.58-.27-1.62-.8-4.89-1.48-8.12-.87-4.17-2-8.3-3-8.86a.66.66,0,0,0-.25-.06c-1.17,0-3.74,1.66-5.34,5.71-1.08,2.75-1.72,6.64-1.15,11.91l-1-.31h0l-.2-.06c-5-1.47-12.31-2.5-12.66-.26a2.75,2.75,0,0,0,0,.3s0,.05,0,.08,0,.2,0,.31v.08c.09,2.35,1.32,7.66,2.12,10.92l.06.23.05.22c.34,1.37.59,2.3.59,2.3s-2.79,8.39.64,14.37c1.88,3.27,8.2,3.72,13.52,3.46a66.52,66.52,0,0,0,8.11-.92l8,3a15.92,15.92,0,0,0,.14,4.15,1.79,1.79,0,0,1,.12,1.18c.44-.13,2.29-.13,8.66,2.44,12.3,5,43.15,17.74,43.15,17.74V229.41S1160.09,220.44,1155.23,219.2Z"/><path class="cls-9" d="M1200,424.79v21.58h-37.74l-30.08-35.44c-1.71,2.2-3.49,3.76-5.22,4.19.43,1.81-1.53-.52-3.44-3-.9-1.2-1.8-2.45-2.41-3.32s0-4.51,1.62-9l-4-4.77A93.25,93.25,0,0,1,1103,388.4c-4.39-2.46-8.25-5.44-9.27-8.64-2.67-8.39,5-17.67,3.95-20.89s1.4-8.88,5-11.8,9.54,5.72,13.23,6.61c4.28-10.53,13.28-11.63,14.17-9.89a.47.47,0,0,1,.07.22c.11.87-.81,3.68-1.87,6.76-1.43,4.13-3.11,8.74-3,9.91.25,2,6.87,17.17,6.87,17.17l2.66,1.84a15,15,0,0,1,3.83-2.6l2.61,2.47,2,1.85h0c.4.37.32,1.86-.11,4Z"/><path class="cls-10" d="M1125.55,282.36l-13.35,16.1c-6.86-2.84-14.08-4.88-17.67-8.85-2.06-2.26-2.93-5.14-1.89-9.16,2.86-11.07,4.39-16,7.63-16.41s7.06,2.29,7.06,2.29-.19-10.69,3.72-14.12a1.41,1.41,0,0,1,1.12-.47c1.25.22,1.7,3.45,2.08,7.14.4,3.87.71,8.24,1.76,10.17a63.61,63.61,0,0,0,3.75,5.78A88.14,88.14,0,0,0,1125.55,282.36Z"/><path class="cls-11" d="M1114.26,258.88l-2,.49s-1.77-4.33-.12-7.63C1113.43,252,1113.88,255.19,1114.26,258.88Z"/><path class="cls-12" d="M1125.55,282.36l-13.35,16.1c-6.86-2.84-14.08-4.88-17.67-8.85,10.22,1.28,21.37-5.62,25.24-14.78A88.14,88.14,0,0,0,1125.55,282.36Z"/><path class="cls-13" d="M1200,279.57v46s-37.81,13-46.21,10.69c-5.57-1.52-22-14.77-32.55-24.8-1.14-1.08-2.23-2.13-3.21-3.12-3.65-3.65-6.08-6.54-6.21-7.69-.51-4.33,11.19-21.12,14-22.86,1-.64,4.53,1.73,8.77,5.05,1.07.83,2.17,1.73,3.3,2.65,6.79,5.56,14.21,12.17,16.16,12.86C1157.61,299.63,1200,279.57,1200,279.57Z"/><path class="cls-11" d="M1137.88,285.49c-4.46,4.51-13.49,14.68-16.64,26-1.14-1.08-2.23-2.13-3.21-3.12,1.73-10.24,11.17-20.42,16.55-25.5C1135.65,283.67,1136.76,284.57,1137.88,285.49Z"/><path class="cls-12" d="M1200,303v22.59s-37.81,13-46.21,10.69c-5.57-1.52-22-14.77-32.55-24.8-1.14-1.08-2.23-2.13-3.21-3.12-3.65-3.65-6.08-6.54-6.21-7.69,14,16.16,39,32,45.22,32.47C1162.11,333.51,1188.26,317.58,1200,303Z"/><path class="cls-14" d="M1156.34,239.18l-16.4-6.11a66.52,66.52,0,0,1-8.11.92c-5.32.26-11.64-.19-13.52-3.46-3.43-6-.64-14.37-.64-14.37s-3.18-12-2.79-14.44c.35-2.23,7.64-1.21,12.66.26l.2.06h0l1,.31c-.57-5.28.07-9.16,1.15-11.91,1.59-4.05,4.16-5.67,5.34-5.71a.66.66,0,0,1,.25.06c1.07.56,2.17,4.69,3,8.86.68,3.24,1.21,6.5,1.48,8.12.44,2.68,5,6,9.3,8.58,1.92,1.12,3.8,2.08,5.27,2.74Z"/><path class="cls-11" d="M1138.51,193.66a3.58,3.58,0,0,1-2.92.62,66.08,66.08,0,0,1-.11-9.48C1136.55,185.36,1137.65,189.49,1138.51,193.66Z"/><path class="cls-12" d="M1156.34,239.18l-16.4-6.11a66.52,66.52,0,0,1-8.11.92c-5.32.26-11.64-.19-13.52-3.46-3.43-6-.64-14.37-.64-14.37s-3.18-12-2.79-14.44c.35-2.23,7.64-1.21,12.66.26l.2.06h0l1,.31c-.57-5.28.07-9.16,1.15-11.91,2,6,8.1,14.22,8.26,19.23.19,5.81-3.43,13.83.48,17.94,3.41,3.56,8.62-10.07,10.66-17.25,1.92,1.12,3.8,2.08,5.27,2.74Z"/><path class="cls-15" d="M1148.19,241.38c-.09.18-.23.07,0,0Z"/><path class="cls-16" d="M1200,220.35v41.21s-30.85-12.78-43.15-17.74c-6.37-2.57-8.22-2.58-8.66-2.44a1.79,1.79,0,0,0-.12-1.18,22.15,22.15,0,0,1,0-5.75c.67-9.12,3.48-25.25,7.2-24.3C1160.09,211.38,1200,220.35,1200,220.35Z"/><path class="cls-17" d="M1200,229.3v32.26s-30.85-12.78-43.15-17.74c-6.37-2.57-8.22-2.58-8.66-2.44a1.79,1.79,0,0,0-.12-1.18,22.15,22.15,0,0,1,0-5.75c22.92,9.45,22-2.65,32.29,7.08C1187.7,248.53,1192.11,235.08,1200,229.3Z"/><path class="cls-18" d="M1134.14,207.63a32.56,32.56,0,0,0-3,5.22,9.33,9.33,0,0,1,.94,1c1.12,1.35,2.63,3.91.89,6.52a12,12,0,0,0-1.67,3.5,4.87,4.87,0,0,0-.16,2.55,3.94,3.94,0,0,1,.49.47c.83.93,2.23,3.23.38,6.85l-.16.28c-5.32.26-11.64-.19-13.52-3.46-3.43-6-.64-14.37-.64-14.37s-.38-1.43-.86-3.41l-.13-.57c-.9-3.73-2-9-1.8-10.46.35-2.23,7.64-1.21,12.66.26l.2.06h0a28.19,28.19,0,0,1,3.5,1.55C1133.89,205,1135.11,206.47,1134.14,207.63Z"/><path class="cls-19" d="M1131.6,226.87c-2-.26-4.53-.52-7.19-.6-6.25-.19-10.39-3.15-5-2.14,3.94.73,8.9.11,11.86-.28a4.87,4.87,0,0,0-.16,2.55A3.94,3.94,0,0,1,1131.6,226.87Z"/><path class="cls-20" d="M1116.68,212.18c2-.77,8.87,0,11.93-.23,2.83-.21,3.62-3.39,2.65-8.35,2.64,1.42,3.86,2.88,2.88,4a32.56,32.56,0,0,0-3,5.22,9.33,9.33,0,0,1,.94,1c-3.95-1.26-12.86-.75-15.24-1.08Z"/><path class="cls-15" d="M1148.19,241.38c-.09.18-.23.07,0,0Z"/><path class="cls-21" d="M1127,406.07c8.65-2.16,18.25-31.85,16.28-33.71s-11.83,9.92-11.83,9.92-3.43,14.37-3.56,15.14-1.4,6-1.4,6Z"/><path class="cls-22" d="M1200,415.73v30.64h-30L1118.69,386a93.25,93.25,0,0,1-15.66-6.63c-4.39-2.46-8.25-5.44-9.27-8.64-2.67-8.39,5-17.67,3.95-20.89s1.4-8.88,5-11.8,9.54,5.72,13.23,6.61c4.28-10.53,13.28-11.63,14.17-9.89a.47.47,0,0,1,.07.22c.11.87-.81,3.68-1.87,6.76-1.43,4.13-3.11,8.74-3,9.91.25,2,6.87,17.17,6.87,17.17Z"/><path class="cls-11" d="M1128.27,341.71a4.56,4.56,0,0,1-1.9-.92s1.14-4.44,3.69-6.05a.47.47,0,0,1,.07.22C1130.25,335.83,1129.33,338.63,1128.27,341.71Z"/><path class="cls-23" d="M1200,436.28v10.09h-30L1118.69,386a93.25,93.25,0,0,1-15.66-6.63c10.47,2.64,17.37-.61,23.49,6.82C1134,395.3,1174.55,443.15,1200,436.28Z"/><path class="cls-24" d="M1127,406.06c.43,1.81-1.53-.52-3.44-3-.9-1.2-1.8-2.45-2.41-3.32-1.91-2.67,7.25-27.09,17.55-31.67l2.61,2.47,2,1.86S1126.32,403.4,1127,406.06Z"/><path class="cls-25" d="M1127,406.06c.43,1.81-1.53-.52-3.44-3,5.4-6.2,9.89-27.16,17.74-32.52l2,1.86S1126.32,403.4,1127,406.06Z"/><path class="cls-26" d="M144.41,220.17c-4,14-1.61,22.08-6.24,28.93-2.33,3.45-12.93,5.35-24.83,7.78S88.54,262.21,81,267.62V237.76a28.66,28.66,0,0,0,6.29-3.48c8.84-6.14,20-17.94,25.45-25.84.74-1.06,1.37-2.07,1.88-3,1.82-3.24,3.54-4.57,4.92-4.41,2.59.29,4,5.87,2.53,14C138,211.46,148.44,206.14,144.41,220.17Z"/><path class="cls-11" d="M119.53,201.07a55.47,55.47,0,0,1-3.15,8.78,9.07,9.07,0,0,1-3.64-1.4c.74-1.06,1.37-2.07,1.88-3C116.43,202.24,118.15,200.9,119.53,201.07Z"/><path class="cls-27" d="M113.33,256.88c-11.76,2.4-24.8,5.33-32.34,10.74V237.76a28.66,28.66,0,0,0,6.29-3.48C94,244.85,101.72,251.86,113.33,256.88Z"/><path class="cls-6" d="M87.64,268.85,49.48,285.73,23.22,297.35V247.42l18.62-4.14,42-9.34S90.59,248.68,87.64,268.85Z"/><path class="cls-28" d="M49.48,285.73,23.22,297.35V247.42l18.62-4.14A130.65,130.65,0,0,0,49.48,285.73Z"/><path class="cls-29" d="M0,245.88l24.11-5.05a3.53,3.53,0,0,1,4.23,3c1.49,11.78,5.92,41.08,6.18,53.95A3.52,3.52,0,0,1,32,301.22L0,317.75Z"/><path class="cls-30" d="M104.33,334.5c0,3.57-5,6.88-9.54,9.13a62.6,62.6,0,0,1-7.11,3L77,359.29,66.34,337c.9-1.23,2-2.89,3.07-4.71,2.39-4.1,4.57-9,3.68-11.39-.43-1.18-1.22-3.34-2-5.71-1.44-4.34-2.89-9.38-2.13-10.42a.45.45,0,0,1,.16-.14c1-.51,3.86-.37,7.06,2.23a23.88,23.88,0,0,1,6.48,9.29q.31-.35.66-.71l0,0,.13-.14c3.46-3.55,9-7.77,10.32-6.09s4.4,13.2,4.4,13.2S104.38,328,104.33,334.5Z"/><path class="cls-11" d="M73.95,314.13a18.45,18.45,0,0,1-2.87,1c-1.44-4.34-2.89-9.38-2.13-10.42C71.25,307.11,74,314,73.95,314.13Z"/><path class="cls-12" d="M77,359.29l10.69-12.65a63,63,0,0,0,7.11-3c4.51-2.26,9.51-5.56,9.54-9.13.05-6.52-6.15-12.14-6.15-12.14s-3-11.39-4.4-13.2-6.86,2.55-10.32,6.09l-.14.14v0c-.23.24-.45.48-.66.71a23.77,23.77,0,0,0-6.48-9.29c1.12,5.86-.08,15.49,2.12,19.69,2.54,4.88,9.25,9.81,7.93,15-1.15,4.52-11.78-4.3-16.8-9.27-1.06,1.82-2.17,3.48-3.07,4.71Z"/><path class="cls-31" d="M80.64,323a30.82,30.82,0,0,1,4.92,2.89,8.83,8.83,0,0,0-.32,1.24c-.3,1.63-.35,4.44,2.3,5.79a11.35,11.35,0,0,1,3,2.11,4.61,4.61,0,0,1,1.31,2,3.72,3.72,0,0,0-.19.62c-.25,1.15-.34,3.7,2.86,5.82l.26.16c4.51-2.26,9.51-5.56,9.54-9.13.05-6.52-6.15-12.14-6.15-12.14s-.35-1.36-.87-3.21l-.15-.53c-1-3.49-2.48-8.34-3.37-9.46-1.33-1.68-6.86,2.55-10.32,6.09l-.14.14v0a26.68,26.68,0,0,0-2.17,2.9C79.63,320.7,79.3,322.47,80.64,323Z"/><path class="cls-32" d="M91.67,337.65c1.54-1.15,3.49-2.53,5.65-3.83,5.06-3.06,7.11-7.42,3.13-4.09-2.91,2.43-7.29,4.23-9.91,5.28a4.61,4.61,0,0,1,1.31,2A3.72,3.72,0,0,0,91.67,337.65Z"/><path class="cls-33" d="M97.3,319.14c-1.81,1.37-9.39,5.1-12.06,8a8.83,8.83,0,0,1,.32-1.24A30.82,30.82,0,0,0,80.64,323c-1.34-.5-1-2.27.5-4.67,1.51,4.55,3.63,6.8,6.06,5.66,2.63-1.23,7.92-5,9.95-5.35Z"/><path class="cls-34" d="M81.46,359.22c-12.75,23.89-29.8,46.16-37.58,46.71S0,405,0,405V362.71s23.22,5,30.06,7.11c16.1-15.57,32.88-36.1,36.64-34.5,2.68,1.16,9.75,6.21,13.08,13.75A19.76,19.76,0,0,1,81.46,359.22Z"/><path class="cls-35" d="M81.46,359.22c-12.75,23.89-29.8,46.16-37.58,46.71S0,405,0,405V390c37.61,9.16,38.9,12.13,49.48,5,9.52-6.39,25.07-35.73,30.3-46A19.76,19.76,0,0,1,81.46,359.22Z"/><path class="cls-36" d="M121,401.65c-4.62,5.5-11,11-15.09,17.33a27.74,27.74,0,0,0-2.49,4.76l-4.91-4.12-10.9-9.16s8.82-8.65,8.69-17.33a31.57,31.57,0,0,0-.24-3.29c-.4-3.35-1.22-7.18-2-10.8-1.22-5.85-2.25-11.13-1-12.88a1,1,0,0,1,.54-.4c3-.9,12,12.49,12,12.49s2.08-11.09,6.33-12.07,6.21,7.44,6.21,7.44,7.64,3.47,8.51,15.28C127,393.36,124.48,397.49,121,401.65Z"/><path class="cls-11" d="M96.46,378.52l-2.4.51c-1.22-5.85-2.25-11.13-1-12.88a1,1,0,0,1,.54-.4C95.57,370,96.46,378.52,96.46,378.52Z"/><path class="cls-12" d="M121,401.65c-4.62,5.5-11,11-15.09,17.33l-7.4.64-10.9-9.16s8.82-8.65,8.69-17.33a31.57,31.57,0,0,0-.24-3.29A33.93,33.93,0,0,0,121,401.65Z"/><path class="cls-37" d="M109.65,423.51c.4,3.63-8.86,22.87-8.86,22.87H43.91c7-8.17,29.72-35.34,35.85-35.14,5.61.18,4.74-10.6,8.56-13.19a3.13,3.13,0,0,1,1.19-.5c5.23-1,25.36,13.68,26,19.32S109.25,419.89,109.65,423.51Z"/><path class="cls-12" d="M109.65,423.51c.4,3.63-8.86,22.87-8.86,22.87h-25c12.71-11.38,21.4-27,25.76-26.76,5.8.26,1.56-16.57-13.26-21.57a3.13,3.13,0,0,1,1.19-.5c5.23-1,25.36,13.68,26,19.32S109.25,419.89,109.65,423.51Z"/><path class="cls-6" d="M394.1,225c-18.11,3.26-18.55,16.17-20.6,30.19-2-14-2.49-26.94-20.6-30.19,18.11-3.26,18.55-16.17,20.6-30.19C375.56,208.85,376,221.76,394.1,225Z"/><path class="cls-6" d="M145.52,348.62c-18.11,3.26-18.55,16.17-20.6,30.19-2-14-2.49-26.94-20.6-30.19,18.11-3.26,18.55-16.17,20.6-30.19C127,332.45,127.41,345.37,145.52,348.62Z"/><path class="cls-6" d="M137.37,162.56c-10.94,2-11.21,9.77-12.44,18.24-1.24-8.47-1.5-16.27-12.44-18.24,10.94-2,11.21-9.77,12.44-18.24C126.16,152.79,126.43,160.59,137.37,162.56Z"/><path class="cls-6" d="M1179.6,195.66c-18.11,3.26-18.55,16.17-20.6,30.19-2-14-2.49-26.94-20.6-30.19,18.11-3.26,18.55-16.17,20.6-30.19C1161,179.49,1161.49,192.4,1179.6,195.66Z"/><path class="cls-6" d="M931,319.27c-18.11,3.26-18.55,16.17-20.6,30.19-2-14-2.49-26.94-20.6-30.19,18.11-3.26,18.55-16.17,20.6-30.19C912.47,303.1,912.91,316,931,319.27Z"/><path class="cls-6" d="M922.86,133.2c-10.94,2-11.21,9.77-12.44,18.24-1.24-8.47-1.5-16.27-12.44-18.24,10.94-2,11.21-9.77,12.44-18.24C911.66,123.43,911.92,131.24,922.86,133.2Z"/><path class="cls-6" d="M673.23,312.59l5.56-18.75c.55-1.85-2.34-2.65-2.89-.8l-5.56,18.75c-.55,1.85,2.34,2.65,2.89.8Z"/><path class="cls-6" d="M716.9,317.68a192.83,192.83,0,0,0,10.85-16.5,1.5,1.5,0,0,0-2.59-1.51,192.83,192.83,0,0,1-10.85,16.5c-1.14,1.56,1.46,3.06,2.59,1.51Z"/><path class="cls-6" d="M759.22,357.85a87.06,87.06,0,0,1,15.46-5.65,1.5,1.5,0,0,0-.8-2.89,91.26,91.26,0,0,0-16.17,5.95c-1.74.83-.22,3.42,1.51,2.59Z"/><path class="cls-6" d="M984.34,112.24a77.34,77.34,0,0,1-7.12-12c-.83-1.74-3.42-.22-2.59,1.51a77.34,77.34,0,0,0,7.12,12c1.12,1.55,3.72.05,2.59-1.51Z"/><path class="cls-6" d="M1000.24,97.4a35.69,35.69,0,0,0-2.85-11.84c-.76-1.77-3.34-.24-2.59,1.51a31.34,31.34,0,0,1,2.44,10.32c.12,1.92,3.13,1.93,3,0Z"/><path class="cls-6" d="M1022.48,90.23V83.85a1.5,1.5,0,0,0-3,0v6.38a1.5,1.5,0,0,0,3,0Z"/><path class="cls-6" d="M313.62,294.57a174.28,174.28,0,0,1,6.05-18c.71-1.79-2.19-2.57-2.89-.8a174.28,174.28,0,0,0-6.05,18,1.5,1.5,0,0,0,2.89.8Z"/><path class="cls-6" d="M316.49,248.94a92,92,0,0,0,6.11-9.06,1.5,1.5,0,0,0-2.59-1.51,92,92,0,0,1-6.11,9.06c-1.17,1.53,1.43,3,2.59,1.51Z"/><path class="cls-6" d="M164.19,314.41l15.18-6.15c1.77-.72,1-3.62-.8-2.89l-15.18,6.15c-1.77.72-1,3.62.8,2.89Z"/><path class="cls-6" d="M973.06,329.78v-9.57a1.5,1.5,0,0,0-3,0v9.57a1.5,1.5,0,0,0,3,0Z"/><path class="cls-38" d="M160.13,102.95a9.62,9.62,0,0,1-1.82,4.73,9.9,9.9,0,0,1-4,3.17,12.06,12.06,0,0,1-5.27,1.05,8.9,8.9,0,0,1-4.44-1.18,7.79,7.79,0,0,1-3-3.25,12,12,0,0,1-1.23-4.91,24.05,24.05,0,0,1,.45-5.41,17.15,17.15,0,0,1,2.05-5.75,12.83,12.83,0,0,1,3.51-4,10.59,10.59,0,0,1,6.54-2,8.69,8.69,0,0,1,6.34,2.47,9.92,9.92,0,0,1,2.57,6.66l-5.16,0a5.41,5.41,0,0,0-1-3.57,4,4,0,0,0-3-1.2,5.25,5.25,0,0,0-4.36,1.89,11.37,11.37,0,0,0-2.29,5.78,32,32,0,0,0-.5,5.53,5.51,5.51,0,0,0,1,3.44,3.49,3.49,0,0,0,2.67,1.16,5.33,5.33,0,0,0,3.79-1.12A5.94,5.94,0,0,0,155,103Z"/><path class="cls-38" d="M173.06,111.54a5.15,5.15,0,0,1-.19-1.73,6.48,6.48,0,0,1-4.88,2.09,5.87,5.87,0,0,1-4.16-1.64,5,5,0,0,1-1.55-4,5.72,5.72,0,0,1,2.63-4.8,11.92,11.92,0,0,1,6.71-1.67l2.33,0,.25-1.15a4,4,0,0,0,.05-1.11,1.92,1.92,0,0,0-.63-1.3,2.17,2.17,0,0,0-1.42-.49,3,3,0,0,0-2,.57,2.78,2.78,0,0,0-1,1.76l-5,0a5.56,5.56,0,0,1,2.52-4.45,9.76,9.76,0,0,1,5.91-1.67A7.06,7.06,0,0,1,177.69,94a5.67,5.67,0,0,1,1.54,4.8l-1.47,9.16-.09,1.13a5.45,5.45,0,0,0,.3,2.12l0,.34ZM169.22,108a4.56,4.56,0,0,0,3.77-1.87l.62-3.31-1.73,0a4.84,4.84,0,0,0-4,1.68,2.92,2.92,0,0,0-.55,1.43,1.7,1.7,0,0,0,.4,1.51A2,2,0,0,0,169.22,108Zm2.33-18.85.05-2.4.83-.07q1.66-.19,1.86-1.17t-1.36-1.06l-.81,0L172.4,82q6.08.21,6.08,3.36,0,2.07-2.83,2.63l-.16,1.18Z"/><path class="cls-38" d="M189,92.39l-.41,2.17a7,7,0,0,1,5.6-2.51,5.39,5.39,0,0,1,2.93.81,3.8,3.8,0,0,1,1.57,2.1,7.37,7.37,0,0,1,5.94-2.92,4.81,4.81,0,0,1,4,1.8,7.4,7.4,0,0,1,1.12,5.06l0,.44-2,12.18h-5l2-12.23a8.9,8.9,0,0,0,.05-1.22,1.89,1.89,0,0,0-2.12-1.91,4.21,4.21,0,0,0-3.52,2.19l-.05.41-2.23,12.76h-5l2-12.18a8.88,8.88,0,0,0,.05-1.22,1.89,1.89,0,0,0-2.1-1.93A4.23,4.23,0,0,0,188.37,98L186,111.54h-5l3.31-19.13Z"/><path class="cls-38" d="M221.63,101.9a13.39,13.39,0,0,1,1.08-4,10.52,10.52,0,0,1,2.21-3.21A9.07,9.07,0,0,1,231.74,92a7.61,7.61,0,0,1,6.17,2.81,4.13,4.13,0,0,0,1.38-1.5,8.18,8.18,0,0,0,.76-2.72l3,0a8.76,8.76,0,0,1-1.16,4,6,6,0,0,1-2.8,2.27,17,17,0,0,1,.14,4.88q-.76,5.64-4.28,8.29a9,9,0,0,1-5.85,1.86,7.25,7.25,0,0,1-5.87-2.78,9.24,9.24,0,0,1-1.64-6.83Zm5,.37a14.57,14.57,0,0,0-.07,1.79,4.41,4.41,0,0,0,.74,2.71,2.56,2.56,0,0,0,2.1,1,3.83,3.83,0,0,0,3.08-1.33,7.66,7.66,0,0,0,1.68-4l.11-.72a17.07,17.07,0,0,0,.09-1.8,4.75,4.75,0,0,0-.77-2.73,2.53,2.53,0,0,0-2.11-1.05,3.78,3.78,0,0,0-3.15,1.45,8.41,8.41,0,0,0-1.64,4.3Z"/><path class="cls-38" d="M249,92.39l-.42,2.26a6.88,6.88,0,0,1,5.57-2.6,4.59,4.59,0,0,1,4,2,8,8,0,0,1,.94,5.34l-2,12.16h-5l2.05-12.22a5.72,5.72,0,0,0,0-1.26,2,2,0,0,0-2.26-1.86A4.29,4.29,0,0,0,248.36,98L246,111.54h-5l3.32-19.13Z"/><path class="cls-38" d="M279.37,92a5.31,5.31,0,0,1,4.54,2.4l.81-2.05,4.46,0-4.6,26.49h-5l1.79-9a6,6,0,0,1-4.65,2,5.51,5.51,0,0,1-3.13-.94,5.89,5.89,0,0,1-2.08-2.66,10.7,10.7,0,0,1-.8-3.83,14.79,14.79,0,0,1,.05-2.17l.11-.78a15.35,15.35,0,0,1,1.64-5.2,8.31,8.31,0,0,1,3-3.28A7.13,7.13,0,0,1,279.37,92Zm-3.7,12.53q.18,3.15,2.51,3.21a4.26,4.26,0,0,0,3.61-1.86l1.45-8a2.81,2.81,0,0,0-2.78-1.79,3.65,3.65,0,0,0-3.09,1.48,8.51,8.51,0,0,0-1.57,4.28A18.6,18.6,0,0,0,275.68,104.57Z"/><path class="cls-38" d="M301.74,109.56a6.61,6.61,0,0,1-5.27,2.33,4.92,4.92,0,0,1-4.17-2,7.24,7.24,0,0,1-1.1-5.13l2.07-12.38h5l-2.1,12.44a4.89,4.89,0,0,0,0,1.1,1.82,1.82,0,0,0,2,1.82,4.56,4.56,0,0,0,3.84-1.79l2.39-13.58h5L306,111.54h-4.65Z"/><path class="cls-38" d="M317.84,104.25l5.46-11.85h5.55l-11.19,22a9.58,9.58,0,0,1-2.82,3.71,6.16,6.16,0,0,1-3.74,1.18,11.39,11.39,0,0,1-2.4-.37l.37-3.89.69,0a3.74,3.74,0,0,0,3.57-1.79l1.1-2L311.3,92.41h5.16Zm4.38-19.87H328l-5.62,5.48H318Z"/><path class="cls-38" d="M344.74,103.92l-2.32,2-1,5.6h-5l4.7-27.16h5l-2.58,14.75,1-1,5.68-5.68h6.4l-8.36,8.22,5.32,10.91h-5.46Z"/><path class="cls-38" d="M363,94.53a6.67,6.67,0,0,1,5.18-2.48,4.85,4.85,0,0,1,4.18,2,8,8,0,0,1,1,5.38l-2,12.06h-5l2-12.12a5.88,5.88,0,0,0,0-1.27,2,2,0,0,0-2.23-2,4.31,4.31,0,0,0-3.54,1.73l-2.4,13.63h-5L360,84.38h5Z"/><path class="cls-38" d="M386.3,111.54a5.15,5.15,0,0,1-.19-1.73,6.48,6.48,0,0,1-4.88,2.09,5.87,5.87,0,0,1-4.16-1.64,5,5,0,0,1-1.55-4,5.72,5.72,0,0,1,2.63-4.8,11.92,11.92,0,0,1,6.71-1.67l2.33,0,.25-1.15a4,4,0,0,0,.05-1.11,1.92,1.92,0,0,0-.63-1.3,2.17,2.17,0,0,0-1.42-.49,3,3,0,0,0-2,.57,2.78,2.78,0,0,0-1,1.76l-5,0a5.56,5.56,0,0,1,2.52-4.45,9.76,9.76,0,0,1,5.91-1.67A7.06,7.06,0,0,1,390.94,94a5.67,5.67,0,0,1,1.54,4.8L391,107.95l-.09,1.13a5.45,5.45,0,0,0,.3,2.12l0,.34ZM382.47,108a4.56,4.56,0,0,0,3.77-1.87l.62-3.31-1.73,0a4.84,4.84,0,0,0-4,1.68,2.92,2.92,0,0,0-.55,1.43,1.7,1.7,0,0,0,.4,1.51A2,2,0,0,0,382.47,108Zm5.8-23.64H394l-5.62,5.48H384Z"/><path class="cls-38" d="M402.62,107.79a3.28,3.28,0,0,0,2.3-.75,3.7,3.7,0,0,0,1.2-2.1l4.69,0a6.87,6.87,0,0,1-1.26,3.62,7.68,7.68,0,0,1-3,2.51,8.7,8.7,0,0,1-4,.85,7.07,7.07,0,0,1-5.52-2.4,9,9,0,0,1-2-6.26l.05-1,0-.19a12,12,0,0,1,3.15-7.4,8.51,8.51,0,0,1,6.59-2.63A6.9,6.9,0,0,1,410,94.17a7.46,7.46,0,0,1,1.87,5.38h-4.65a3.92,3.92,0,0,0-.67-2.42,2.55,2.55,0,0,0-2-1q-3.57-.11-4.33,5.22a17.59,17.59,0,0,0-.19,3.25Q400.15,107.74,402.62,107.79Z"/><path class="cls-38" d="M420.34,94.53a6.67,6.67,0,0,1,5.18-2.48,4.85,4.85,0,0,1,4.18,2,8,8,0,0,1,1,5.38l-2,12.06h-5l2-12.12a5.88,5.88,0,0,0,0-1.27,2,2,0,0,0-2.23-2A4.31,4.31,0,0,0,420,97.91l-2.4,13.63h-5l4.7-27.16h5Z"/><path class="cls-38" d="M451.62,87.7l-.83,4.7H454l-.65,3.75h-3.18l-1.63,9.58a2.44,2.44,0,0,0,.14,1.38q.25.48,1.2.51.28,0,1.52-.09l-.35,3.91a8.39,8.39,0,0,1-2.86.41,4.49,4.49,0,0,1-3.66-1.54,5.56,5.56,0,0,1-1-4.07l1.64-10.1h-2.71l.65-3.75h2.71l.81-4.7Z"/><path class="cls-38" d="M458.81,111.54h-5l3.32-19.13h5Zm-1.11-24a2.49,2.49,0,0,1,.78-2,3,3,0,0,1,3.93-.09,2.48,2.48,0,0,1,.87,1.87,2.56,2.56,0,0,1-.73,1.91,2.75,2.75,0,0,1-2,.85,2.79,2.79,0,0,1-2-.67A2.47,2.47,0,0,1,457.7,87.55Z"/><path class="cls-38" d="M470.92,92.39l-.42,2.26a6.88,6.88,0,0,1,5.57-2.6,4.59,4.59,0,0,1,4,2,8,8,0,0,1,.94,5.34l-2,12.16h-5L476,99.32a5.72,5.72,0,0,0,0-1.26,2,2,0,0,0-2.26-1.86A4.29,4.29,0,0,0,470.3,98l-2.39,13.51h-5l3.32-19.13Z"/><path class="cls-38" d="M501.93,87.7l-.83,4.7h3.18l-.65,3.75h-3.18l-1.63,9.58a2.44,2.44,0,0,0,.14,1.38q.25.48,1.2.51.28,0,1.52-.09l-.35,3.91a8.39,8.39,0,0,1-2.86.41,4.49,4.49,0,0,1-3.66-1.54,5.56,5.56,0,0,1-1-4.07l1.64-10.1h-2.71l.65-3.75h2.71l.81-4.7Z"/><path class="cls-38" d="M528.51,90.71a7.57,7.57,0,0,1-1.64,4.71,6.44,6.44,0,0,1-4.29,1.9L520,111.54h-4.65l.37-2a6.66,6.66,0,0,1-5.27,2.33,4.92,4.92,0,0,1-4.16-2,7.28,7.28,0,0,1-1.09-5.15l2.05-12.38h5l-2.1,12.46a4.89,4.89,0,0,0,0,1.1,1.81,1.81,0,0,0,2,1.81A4.56,4.56,0,0,0,515.9,106l2.39-13.58h5l-.58,2.53a3.48,3.48,0,0,0,1.94-1.28,6.77,6.77,0,0,0,.94-2.93Z"/><path class="cls-38" d="M526.58,101.9a13.39,13.39,0,0,1,1.08-4,10.52,10.52,0,0,1,2.21-3.21A9.07,9.07,0,0,1,536.69,92a7.61,7.61,0,0,1,6.17,2.81,4.13,4.13,0,0,0,1.38-1.5,8.18,8.18,0,0,0,.76-2.72l3,0a8.76,8.76,0,0,1-1.16,4,6,6,0,0,1-2.8,2.27,17,17,0,0,1,.14,4.88q-.76,5.64-4.28,8.29a9,9,0,0,1-5.85,1.86,7.25,7.25,0,0,1-5.87-2.78,9.24,9.24,0,0,1-1.64-6.83Zm5,.37a14.57,14.57,0,0,0-.07,1.79,4.41,4.41,0,0,0,.74,2.71,2.56,2.56,0,0,0,2.1,1,3.83,3.83,0,0,0,3.08-1.33,7.66,7.66,0,0,0,1.68-4l.11-.72a17.07,17.07,0,0,0,.09-1.8,4.75,4.75,0,0,0-.77-2.73,2.53,2.53,0,0,0-2.11-1.05,3.78,3.78,0,0,0-3.15,1.45,8.41,8.41,0,0,0-1.64,4.3Zm3.92-13.1.05-2.4.83-.07q1.66-.19,1.86-1.17t-1.36-1.06l-.81,0,.28-2.42q6.08.21,6.08,3.36,0,2.07-2.83,2.63l-.16,1.18Z"/><path class="cls-38" d="M553.93,92.39l-.42,2.26a6.88,6.88,0,0,1,5.57-2.6,4.59,4.59,0,0,1,4,2,8,8,0,0,1,.94,5.34l-2,12.16h-5l2.05-12.22a5.72,5.72,0,0,0,0-1.26,2,2,0,0,0-2.26-1.86A4.29,4.29,0,0,0,553.31,98l-2.39,13.51h-5l3.32-19.13Z"/><path class="cls-38" d="M566.86,102a13.24,13.24,0,0,1,2.89-7.2A7.34,7.34,0,0,1,575.7,92a5.36,5.36,0,0,1,4.56,2.21l.65-1.86,4.58,0-3.13,18.48a9,9,0,0,1-3.25,6,10.12,10.12,0,0,1-6.79,2.16,9.43,9.43,0,0,1-3.78-.86,8.09,8.09,0,0,1-3-2.25l2.48-3a5.31,5.31,0,0,0,4.17,2.17,4.9,4.9,0,0,0,3.32-1,5.44,5.44,0,0,0,1.87-3.07l.28-1.15a6.22,6.22,0,0,1-4.69,2,5.49,5.49,0,0,1-4.44-2.08,8.93,8.93,0,0,1-1.8-5.31A17.76,17.76,0,0,1,566.86,102Zm4.9,2.1a4.57,4.57,0,0,0,.7,2.67,2.44,2.44,0,0,0,2,1.05,4.46,4.46,0,0,0,3.61-1.74l1.49-8.11a2.93,2.93,0,0,0-2.81-1.74,3.91,3.91,0,0,0-3.24,1.54,8.06,8.06,0,0,0-1.66,4.23A18.61,18.61,0,0,0,571.75,104.05Z"/><path class="cls-38" d="M603.1,105.23l5.45-12.82h5.37l-9.25,19.13H599.9l-3.27-19.13h5.06Z"/><path class="cls-38" d="M623.79,111.54a5.15,5.15,0,0,1-.19-1.73,6.48,6.48,0,0,1-4.88,2.09,5.87,5.87,0,0,1-4.16-1.64,5,5,0,0,1-1.55-4,5.72,5.72,0,0,1,2.63-4.8,11.92,11.92,0,0,1,6.71-1.67l2.33,0,.25-1.15a4,4,0,0,0,.05-1.11,1.92,1.92,0,0,0-.63-1.3,2.17,2.17,0,0,0-1.42-.49,3,3,0,0,0-2,.57,2.78,2.78,0,0,0-1,1.76l-5,0a5.56,5.56,0,0,1,2.52-4.45,9.76,9.76,0,0,1,5.91-1.67A7.06,7.06,0,0,1,628.42,94a5.67,5.67,0,0,1,1.54,4.8l-1.47,9.16-.09,1.13a5.45,5.45,0,0,0,.3,2.12l0,.34ZM620,108a4.56,4.56,0,0,0,3.77-1.87l.62-3.31-1.73,0a4.84,4.84,0,0,0-4,1.68,2.92,2.92,0,0,0-.55,1.43,1.7,1.7,0,0,0,.4,1.51A2,2,0,0,0,620,108Zm6.44-18.16-3.73,0-3.94-5.43,5.15,0Z"/><path class="cls-38" d="M651.74,106.15q.28-1.41-2-2.05l-1.61-.41q-5.71-1.57-5.55-5.55a5.49,5.49,0,0,1,2.4-4.41,8.92,8.92,0,0,1,5.56-1.67,8,8,0,0,1,5.23,1.71,5.65,5.65,0,0,1,2,4.47l-5,0a2.18,2.18,0,0,0-2.44-2.49,3.52,3.52,0,0,0-2,.58,2.4,2.4,0,0,0-1.05,1.57q-.27,1.42,2.14,2l.71.16a14.2,14.2,0,0,1,3.73,1.33,5.63,5.63,0,0,1,2,1.87,4.61,4.61,0,0,1,.65,2.67,5.1,5.1,0,0,1-1.18,3.18,7.2,7.2,0,0,1-3.08,2.1,10.71,10.71,0,0,1-4.11.69,8.07,8.07,0,0,1-5.3-1.83,5.9,5.9,0,0,1-2.16-4.64l4.7,0q.07,2.74,2.93,2.78a4.17,4.17,0,0,0,2.27-.57A2.24,2.24,0,0,0,651.74,106.15Z"/><path class="cls-38" d="M683.53,90.71a7.57,7.57,0,0,1-1.63,4.71,6.44,6.44,0,0,1-4.29,1.9L675,111.54h-4.65l.37-2a6.66,6.66,0,0,1-5.27,2.33,4.91,4.91,0,0,1-4.16-2,7.27,7.27,0,0,1-1.09-5.15l2.05-12.38h5l-2.1,12.46a5,5,0,0,0,0,1.1,1.81,1.81,0,0,0,2,1.81,4.56,4.56,0,0,0,3.84-1.79l2.39-13.58h5l-.58,2.53a3.48,3.48,0,0,0,1.95-1.28,6.77,6.77,0,0,0,.94-2.93ZM668.8,89.54l.05-2.4.83-.07q1.66-.19,1.86-1.17t-1.36-1.06l-.81,0,.28-2.42q6.08.21,6.08,3.36,0,2.07-2.83,2.63l-.16,1.18Z"/><path class="cls-38" d="M698.91,92a5.44,5.44,0,0,1,4.31,2.14l1.87-9.79h5l-4.7,27.16h-4.46l.28-2.05a6.19,6.19,0,0,1-5,2.42,5.51,5.51,0,0,1-3.13-.94,5.9,5.9,0,0,1-2.08-2.64,10.64,10.64,0,0,1-.8-3.85,14.57,14.57,0,0,1,.05-2.16l.11-.8A15.32,15.32,0,0,1,692,96.37a8.52,8.52,0,0,1,3-3.31A7,7,0,0,1,698.91,92Zm-3.62,10.29a14.17,14.17,0,0,0-.09,2.26q.18,3.11,2.51,3.16a4.27,4.27,0,0,0,3.66-2l1.36-7.6a2.82,2.82,0,0,0-2.76-2,3.63,3.63,0,0,0-3,1.41A9.45,9.45,0,0,0,695.29,102.33Z"/><path class="cls-38" d="M721.23,109.56a6.61,6.61,0,0,1-5.27,2.33,4.91,4.91,0,0,1-4.17-2,7.24,7.24,0,0,1-1.1-5.13l2.07-12.38h5l-2.1,12.44a5,5,0,0,0,0,1.1,1.82,1.82,0,0,0,2,1.82,4.56,4.56,0,0,0,3.84-1.79l2.39-13.58h5l-3.32,19.13h-4.65Zm-9.12,6.21a2.22,2.22,0,0,1,.78-1.84,2.87,2.87,0,0,1,1.95-.71,3,3,0,0,1,1.94.61,2.19,2.19,0,0,1,.88,1.76,2.24,2.24,0,0,1-.78,1.86,3.17,3.17,0,0,1-3.92.06A2.27,2.27,0,0,1,712.1,115.76Z"/><path class="cls-38" d="M737.1,92.39l-.42,2.26a6.88,6.88,0,0,1,5.57-2.6,4.59,4.59,0,0,1,4,2,8,8,0,0,1,.94,5.34l-2,12.16h-5l2.05-12.22a5.7,5.7,0,0,0,0-1.26A2,2,0,0,0,740,96.21,4.29,4.29,0,0,0,736.48,98l-2.39,13.51h-5l3.32-19.13Z"/><path class="cls-38" d="M750,102a13.24,13.24,0,0,1,2.89-7.2A7.33,7.33,0,0,1,758.87,92a5.36,5.36,0,0,1,4.56,2.21l.65-1.86,4.58,0-3.13,18.48a9,9,0,0,1-3.25,6,10.12,10.12,0,0,1-6.79,2.16,9.43,9.43,0,0,1-3.78-.86,8.09,8.09,0,0,1-3-2.25l2.48-3a5.31,5.31,0,0,0,4.17,2.17,4.9,4.9,0,0,0,3.32-1,5.44,5.44,0,0,0,1.88-3.07l.28-1.15a6.22,6.22,0,0,1-4.69,2,5.49,5.49,0,0,1-4.44-2.08,8.94,8.94,0,0,1-1.8-5.31A17.83,17.83,0,0,1,750,102Zm4.9,2.1a4.57,4.57,0,0,0,.7,2.67,2.44,2.44,0,0,0,2,1.05,4.47,4.47,0,0,0,3.61-1.74l1.48-8.11a2.93,2.93,0,0,0-2.81-1.74,3.91,3.91,0,0,0-3.24,1.54A8,8,0,0,0,755,102,18.51,18.51,0,0,0,754.92,104.05Z"/><path class="cls-38" d="M787.72,92A5.44,5.44,0,0,1,792,94.18l1.87-9.79h5l-4.7,27.16h-4.46l.28-2.05a6.19,6.19,0,0,1-5,2.42,5.51,5.51,0,0,1-3.13-.94,5.9,5.9,0,0,1-2.08-2.64,10.64,10.64,0,0,1-.8-3.85,14.57,14.57,0,0,1,.05-2.16l.11-.8a15.32,15.32,0,0,1,1.64-5.16,8.52,8.52,0,0,1,3-3.31A7,7,0,0,1,787.72,92Zm-3.62,10.29a14.17,14.17,0,0,0-.09,2.26q.18,3.11,2.51,3.16a4.27,4.27,0,0,0,3.66-2l1.36-7.6a2.82,2.82,0,0,0-2.76-2,3.63,3.63,0,0,0-3,1.41A9.45,9.45,0,0,0,784.1,102.33Z"/><path class="cls-38" d="M797.5,115.59a2.22,2.22,0,0,1,.78-1.84,2.86,2.86,0,0,1,1.94-.71,3,3,0,0,1,1.95.61,2.19,2.19,0,0,1,.88,1.76,2.24,2.24,0,0,1-.78,1.86,3.18,3.18,0,0,1-3.92.06A2.27,2.27,0,0,1,797.5,115.59Zm6-4h-5l3.32-19.13h5Zm-1.11-24a2.49,2.49,0,0,1,.78-2,3,3,0,0,1,3.92-.09,2.48,2.48,0,0,1,.87,1.87,2.56,2.56,0,0,1-.73,1.91,2.75,2.75,0,0,1-2,.85,2.79,2.79,0,0,1-2-.67A2.47,2.47,0,0,1,802.34,87.55Z"/><path class="cls-38" d="M816.06,107.79a3.28,3.28,0,0,0,2.3-.75,3.69,3.69,0,0,0,1.2-2.1l4.69,0a6.87,6.87,0,0,1-1.26,3.62,7.68,7.68,0,0,1-3,2.51,8.7,8.7,0,0,1-4,.85,7.06,7.06,0,0,1-5.52-2.4,9,9,0,0,1-2-6.26l.05-1,0-.19a12,12,0,0,1,3.15-7.4,8.51,8.51,0,0,1,6.59-2.63,6.9,6.9,0,0,1,5.14,2.11,7.47,7.47,0,0,1,1.87,5.38h-4.65a3.91,3.91,0,0,0-.67-2.42,2.55,2.55,0,0,0-2-1q-3.57-.11-4.33,5.22a17.64,17.64,0,0,0-.19,3.25Q813.59,107.74,816.06,107.79Z"/><path class="cls-38" d="M833.78,94.53A6.67,6.67,0,0,1,839,92.05a4.85,4.85,0,0,1,4.18,2,8,8,0,0,1,1,5.38l-2,12.06h-5l2-12.12a5.85,5.85,0,0,0,0-1.27,2,2,0,0,0-2.23-2,4.31,4.31,0,0,0-3.54,1.73L831,111.54h-5l4.7-27.16h5Z"/><path class="cls-38" d="M863,105.23l5.45-12.82h5.38l-9.25,19.13h-4.77l-3.27-19.13h5.06Z"/><path class="cls-38" d="M884.72,109.56a6.61,6.61,0,0,1-5.27,2.33,4.91,4.91,0,0,1-4.17-2,7.24,7.24,0,0,1-1.1-5.13l2.07-12.38h5l-2.1,12.44a5,5,0,0,0,0,1.1,1.82,1.82,0,0,0,2,1.82,4.56,4.56,0,0,0,3.84-1.79l2.39-13.58h5L889,111.54h-4.65Zm-9.12,6.21a2.22,2.22,0,0,1,.78-1.84,2.87,2.87,0,0,1,1.95-.71,3,3,0,0,1,1.94.61,2.19,2.19,0,0,1,.88,1.76,2.24,2.24,0,0,1-.78,1.86,3.17,3.17,0,0,1-3.92.06A2.27,2.27,0,0,1,875.59,115.76Z"/><path class="cls-38" d="M910,107.79a3.28,3.28,0,0,0,2.3-.75,3.69,3.69,0,0,0,1.2-2.1l4.69,0a6.87,6.87,0,0,1-1.26,3.62,7.68,7.68,0,0,1-3,2.51,8.7,8.7,0,0,1-4,.85,7.06,7.06,0,0,1-5.52-2.4,9,9,0,0,1-2-6.26l.05-1,0-.19a12,12,0,0,1,3.15-7.4,8.51,8.51,0,0,1,6.59-2.63,6.9,6.9,0,0,1,5.14,2.11,7.46,7.46,0,0,1,1.87,5.38h-4.65a3.91,3.91,0,0,0-.67-2.42,2.55,2.55,0,0,0-2-1q-3.57-.11-4.33,5.22a17.64,17.64,0,0,0-.19,3.25Q907.54,107.74,910,107.79Z"/><path class="cls-38" d="M932,109.56a6.61,6.61,0,0,1-5.27,2.33,4.91,4.91,0,0,1-4.17-2,7.24,7.24,0,0,1-1.1-5.13l2.07-12.38h5l-2.1,12.44a5,5,0,0,0,0,1.1,1.82,1.82,0,0,0,2,1.82,4.56,4.56,0,0,0,3.84-1.79l2.39-13.58h5l-3.32,19.13h-4.65ZM930,89.17l.05-2.4.83-.07q1.66-.19,1.86-1.17t-1.36-1.06l-.81,0L930.9,82q6.08.21,6.08,3.36,0,2.07-2.83,2.63L934,89.19Z"/><path class="cls-38" d="M951,111.54a5.14,5.14,0,0,1-.19-1.73,6.48,6.48,0,0,1-4.88,2.09,5.87,5.87,0,0,1-4.16-1.64,5,5,0,0,1-1.55-4,5.72,5.72,0,0,1,2.63-4.8,11.92,11.92,0,0,1,6.71-1.67l2.33,0,.25-1.15a4,4,0,0,0,.05-1.11,1.92,1.92,0,0,0-.63-1.3,2.16,2.16,0,0,0-1.42-.49,3,3,0,0,0-2,.57,2.79,2.79,0,0,0-1,1.76l-5,0a5.56,5.56,0,0,1,2.52-4.45,9.76,9.76,0,0,1,5.91-1.67A7.05,7.05,0,0,1,955.67,94a5.66,5.66,0,0,1,1.54,4.8l-1.47,9.16-.09,1.13a5.47,5.47,0,0,0,.3,2.12l0,.34ZM947.2,108a4.57,4.57,0,0,0,3.77-1.87l.62-3.31-1.73,0a4.84,4.84,0,0,0-4,1.68,2.93,2.93,0,0,0-.55,1.43,1.7,1.7,0,0,0,.4,1.51A2,2,0,0,0,947.2,108Z"/><path class="cls-38" d="M986.29,102a13.71,13.71,0,0,1-2.76,7.25,6.86,6.86,0,0,1-5.76,2.63,5.33,5.33,0,0,1-4.6-2.44l-.73,2.07H967.9l4.7-27.16h5l-1.93,9.78a6,6,0,0,1,4.67-2.1,5.4,5.4,0,0,1,4.36,2,8.8,8.8,0,0,1,1.69,5.4A20.61,20.61,0,0,1,986.29,102Zm-5-.37a14.82,14.82,0,0,0,.11-2.34q-.19-3.09-2.55-3.14a4.15,4.15,0,0,0-3.66,2l-1.38,7.63a2.85,2.85,0,0,0,2.86,2q3.68.11,4.51-5.36Z"/><path class="cls-38" d="M993.12,111.54h-5l3.32-19.13h5Zm-1.11-24a2.49,2.49,0,0,1,.78-2,3,3,0,0,1,3.92-.09,2.48,2.48,0,0,1,.87,1.87,2.56,2.56,0,0,1-.73,1.91,2.75,2.75,0,0,1-2,.85,2.79,2.79,0,0,1-2-.67A2.47,2.47,0,0,1,992,87.55Z"/><path class="cls-38" d="M1004.94,94.53a6.67,6.67,0,0,1,5.18-2.48,4.85,4.85,0,0,1,4.18,2,8,8,0,0,1,1,5.38l-2,12.06h-5l2-12.12a5.85,5.85,0,0,0,0-1.27,2,2,0,0,0-2.23-2,4.31,4.31,0,0,0-3.54,1.73l-2.4,13.63h-5l4.7-27.16h5Z"/><path class="cls-38" d="M1028.25,111.54a5.14,5.14,0,0,1-.19-1.73,6.48,6.48,0,0,1-4.88,2.09,5.87,5.87,0,0,1-4.16-1.64,5,5,0,0,1-1.55-4,5.72,5.72,0,0,1,2.63-4.8,11.92,11.92,0,0,1,6.71-1.67l2.33,0,.25-1.15a4,4,0,0,0,.05-1.11,1.92,1.92,0,0,0-.63-1.3,2.16,2.16,0,0,0-1.42-.49,3,3,0,0,0-2,.57,2.79,2.79,0,0,0-1,1.76l-5,0a5.56,5.56,0,0,1,2.52-4.45,9.76,9.76,0,0,1,5.91-1.67,7.05,7.05,0,0,1,5.09,1.94,5.66,5.66,0,0,1,1.54,4.8l-1.47,9.16-.09,1.13a5.47,5.47,0,0,0,.3,2.12l0,.34Zm-3.84-3.52a4.57,4.57,0,0,0,3.77-1.87l.62-3.31-1.73,0a4.84,4.84,0,0,0-4,1.68,2.93,2.93,0,0,0-.55,1.43,1.7,1.7,0,0,0,.4,1.51A2,2,0,0,0,1024.41,108Z"/><path class="cls-38" d="M1044.14,92.39l-.41,2.17a7,7,0,0,1,5.6-2.51,5.39,5.39,0,0,1,2.94.81,3.8,3.8,0,0,1,1.57,2.1,7.37,7.37,0,0,1,5.94-2.92,4.81,4.81,0,0,1,4,1.8,7.4,7.4,0,0,1,1.12,5.06l0,.44-2,12.18h-5l2-12.23a8.89,8.89,0,0,0,.05-1.22,1.89,1.89,0,0,0-2.12-1.91,4.21,4.21,0,0,0-3.52,2.19l-.05.41L1052,111.54h-5l2-12.18a8.73,8.73,0,0,0,.05-1.22,1.89,1.89,0,0,0-2.1-1.93,4.23,4.23,0,0,0-3.41,1.79l-2.39,13.54h-5l3.31-19.13Z"/><path class="cls-38" d="M1077.84,111.54a5.14,5.14,0,0,1-.19-1.73,6.48,6.48,0,0,1-4.88,2.09,5.87,5.87,0,0,1-4.16-1.64,5,5,0,0,1-1.55-4,5.72,5.72,0,0,1,2.63-4.8,11.92,11.92,0,0,1,6.71-1.67l2.33,0,.25-1.15a4,4,0,0,0,.05-1.11,1.92,1.92,0,0,0-.63-1.3,2.16,2.16,0,0,0-1.42-.49,3,3,0,0,0-2,.57,2.79,2.79,0,0,0-1,1.76l-5,0a5.56,5.56,0,0,1,2.52-4.45,9.76,9.76,0,0,1,5.91-1.67,7.05,7.05,0,0,1,5.09,1.94,5.66,5.66,0,0,1,1.54,4.8l-1.47,9.16-.09,1.13a5.47,5.47,0,0,0,.3,2.12l0,.34ZM1074,108a4.57,4.57,0,0,0,3.77-1.87l.62-3.31-1.73,0a4.84,4.84,0,0,0-4,1.68,2.93,2.93,0,0,0-.55,1.43,1.7,1.7,0,0,0,.4,1.51A2,2,0,0,0,1074,108Z"/><path class="cls-38" d="M1086.45,109.22a2.61,2.61,0,0,1,.74-2,2.92,2.92,0,0,1,3.94-.14A2.55,2.55,0,0,1,1092,109a2.64,2.64,0,0,1-.74,2,2.89,2.89,0,0,1-4,.07A2.52,2.52,0,0,1,1086.45,109.22Zm5.8-5.59h-4.16l2.51-17.84h5.32Z"/><path class="cls-38" d="M234.52,155.44A8.26,8.26,0,0,1,233,159.5a8.48,8.48,0,0,1-3.4,2.71,10.34,10.34,0,0,1-4.52.9,7.64,7.64,0,0,1-3.8-1,6.68,6.68,0,0,1-2.55-2.79,10.3,10.3,0,0,1-1.05-4.21,20.61,20.61,0,0,1,.39-4.64,14.69,14.69,0,0,1,1.76-4.93,11,11,0,0,1,3-3.41,9.08,9.08,0,0,1,5.61-1.7,7.45,7.45,0,0,1,5.43,2.11,8.5,8.5,0,0,1,2.21,5.71l-4.43,0a4.64,4.64,0,0,0-.83-3.06,3.4,3.4,0,0,0-2.59-1,4.49,4.49,0,0,0-3.74,1.62,9.75,9.75,0,0,0-2,5,27.45,27.45,0,0,0-.42,4.74,4.72,4.72,0,0,0,.89,2.95,3,3,0,0,0,2.29,1,4.57,4.57,0,0,0,3.25-1,5.09,5.09,0,0,0,1.61-3Z"/><path class="cls-38" d="M242.62,148.23a5.72,5.72,0,0,1,4.44-2.12,4.16,4.16,0,0,1,3.58,1.75,6.89,6.89,0,0,1,.86,4.61l-1.73,10.34H245.5l1.74-10.39a5,5,0,0,0,0-1.09,1.72,1.72,0,0,0-1.91-1.68,3.69,3.69,0,0,0-3,1.49l-2.06,11.68H236l4-23.28h4.29Z"/><path class="cls-38" d="M263.26,161.11a5.66,5.66,0,0,1-4.52,2,4.21,4.21,0,0,1-3.58-1.7,6.2,6.2,0,0,1-.94-4.4L256,146.41h4.27l-1.8,10.67a4.21,4.21,0,0,0,0,.94,1.56,1.56,0,0,0,1.68,1.56,3.91,3.91,0,0,0,3.29-1.53l2-11.64h4.3l-2.85,16.4h-4Zm1.32-21.58h5l-4.82,4.7h-3.77Z"/><path class="cls-38" d="M276.87,146.39l-.36,1.94a5.9,5.9,0,0,1,4.77-2.23,3.93,3.93,0,0,1,3.43,1.7,6.84,6.84,0,0,1,.8,4.58l-1.73,10.43h-4.27l1.76-10.47a4.89,4.89,0,0,0,0-1.08,1.74,1.74,0,0,0-1.94-1.59,3.68,3.68,0,0,0-3,1.56l-2,11.58H270l2.85-16.4Z"/><path class="cls-38" d="M288,154.59a11.35,11.35,0,0,1,2.48-6.18,6.29,6.29,0,0,1,5.1-2.33,4.6,4.6,0,0,1,3.91,1.89l.56-1.59,3.93,0-2.68,15.84a7.73,7.73,0,0,1-2.79,5.18,8.68,8.68,0,0,1-5.82,1.85,8.08,8.08,0,0,1-3.24-.74,6.94,6.94,0,0,1-2.55-1.93L289,164a4.55,4.55,0,0,0,3.58,1.86,4.2,4.2,0,0,0,2.85-.87,4.66,4.66,0,0,0,1.61-2.63l.24-1a5.33,5.33,0,0,1-4,1.73,4.71,4.71,0,0,1-3.8-1.78,7.65,7.65,0,0,1-1.55-4.55A15.27,15.27,0,0,1,288,154.59Zm4.2,1.8a3.92,3.92,0,0,0,.6,2.28,2.09,2.09,0,0,0,1.74.9,3.83,3.83,0,0,0,3.09-1.49l1.27-7a2.51,2.51,0,0,0-2.41-1.49,3.35,3.35,0,0,0-2.77,1.32,6.9,6.9,0,0,0-1.42,3.63A15.89,15.89,0,0,0,292.15,156.39Z"/><path class="cls-38" d="M320.79,142.38l-.71,4h2.73l-.56,3.21h-2.73l-1.39,8.21a2.09,2.09,0,0,0,.12,1.18q.21.41,1,.44.24,0,1.3-.08l-.3,3.35a7.2,7.2,0,0,1-2.46.35,3.85,3.85,0,0,1-3.14-1.32,4.76,4.76,0,0,1-.85-3.49l1.41-8.65h-2.32l.56-3.21h2.32l.7-4Z"/><path class="cls-38" d="M331.37,146.11a6.58,6.58,0,0,1,3.74,1.11,6.27,6.27,0,0,1,2.3,3,9.24,9.24,0,0,1,.52,4.22,10,10,0,0,1-2.72,6.33,7.68,7.68,0,0,1-5.86,2.36,6.56,6.56,0,0,1-3.7-1.1,6.25,6.25,0,0,1-2.3-3,9,9,0,0,1-.53-4.18,10.27,10.27,0,0,1,2.76-6.46A7.52,7.52,0,0,1,331.37,146.11Zm6.27-2.4V144l-3.27-.08-1.86-2.18-2.65,2.17-3.47.06v-.36l4.86-4.11,2.44,0ZM327,156.42a3.78,3.78,0,0,0,.68,2.29,2.27,2.27,0,0,0,1.83.87,3.32,3.32,0,0,0,3.09-1.81,9,9,0,0,0,1-4.91,4.11,4.11,0,0,0-.71-2.32,2.23,2.23,0,0,0-1.84-.9,3.33,3.33,0,0,0-3.05,1.79A8.92,8.92,0,0,0,327,156.42Z"/><path class="cls-38" d="M343.67,162.81h-4.3l2.85-16.4h4.3Zm-1-20.56a2.13,2.13,0,0,1,.67-1.68,2.57,2.57,0,0,1,3.36-.08,2.13,2.13,0,0,1,.74,1.61,2.19,2.19,0,0,1-.63,1.64,2.36,2.36,0,0,1-1.72.73,2.39,2.39,0,0,1-1.67-.58A2.11,2.11,0,0,1,342.72,142.24Z"/><path class="cls-38" d="M364.45,158.18q.24-1.21-1.68-1.76l-1.38-.35q-4.9-1.35-4.76-4.76a4.71,4.71,0,0,1,2.05-3.78,7.65,7.65,0,0,1,4.77-1.43,6.86,6.86,0,0,1,4.49,1.47,4.84,4.84,0,0,1,1.74,3.83l-4.24,0a1.87,1.87,0,0,0-2.09-2.14,3,3,0,0,0-1.74.5,2.06,2.06,0,0,0-.9,1.35q-.23,1.21,1.83,1.71l.61.14a12.21,12.21,0,0,1,3.2,1.14,4.83,4.83,0,0,1,1.7,1.6,4,4,0,0,1,.55,2.29,4.37,4.37,0,0,1-1,2.73,6.17,6.17,0,0,1-2.64,1.8,9.19,9.19,0,0,1-3.52.59,6.92,6.92,0,0,1-4.55-1.57,5.06,5.06,0,0,1-1.85-4l4,0a2.22,2.22,0,0,0,2.52,2.38,3.58,3.58,0,0,0,1.95-.48A1.92,1.92,0,0,0,364.45,158.18Z"/><path class="cls-38" d="M378.36,163.11a7.14,7.14,0,0,1-3.81-1.05,6.38,6.38,0,0,1-2.48-2.85,7.94,7.94,0,0,1-.64-4l0-.61a10.6,10.6,0,0,1,1.39-4.4,8.42,8.42,0,0,1,3-3.08,7.43,7.43,0,0,1,4.06-1,5.67,5.67,0,0,1,4.8,2.33,8,8,0,0,1,1.24,5.74l-.24,1.87h-10a3.52,3.52,0,0,0,.77,2.55,3,3,0,0,0,2.27,1,5.24,5.24,0,0,0,4.09-1.82l2,2.42a6.08,6.08,0,0,1-2.67,2.17A8.72,8.72,0,0,1,378.36,163.11Zm7.73-23.41a4.94,4.94,0,0,1-1.07,2.95,3,3,0,0,1-2.43,1.16,2.55,2.55,0,0,1-.81-.13,7.69,7.69,0,0,1-1.16-.56,8.45,8.45,0,0,0-1.16-.57,2.23,2.23,0,0,0-.83-.12q-1.15,0-1.53,1.49l-2.52-.15a4.84,4.84,0,0,1,1.11-2.94,3,3,0,0,1,2.46-1.15,2.46,2.46,0,0,1,.75.11,8.47,8.47,0,0,1,1.2.57,8.67,8.67,0,0,0,1.21.58,2.27,2.27,0,0,0,.8.11q1.17,0,1.53-1.49Zm-6.37,9.94a3,3,0,0,0-2.1.74,6.52,6.52,0,0,0-1.64,2.68h5.88l.09-.39a4,4,0,0,0,0-1.15,2.2,2.2,0,0,0-.74-1.37A2.33,2.33,0,0,0,379.73,149.64Z"/><path class="cls-38" d="M401.75,156.28l-2,1.73-.83,4.8h-4.27l4-23.28H403l-2.21,12.64.83-.89,4.86-4.86h5.49l-7.17,7,4.56,9.35h-4.68Z"/><path class="cls-38" d="M415.4,162.81h-4.3l2.85-16.4h4.3Zm-1-20.56a2.13,2.13,0,0,1,.67-1.68,2.57,2.57,0,0,1,3.36-.08,2.13,2.13,0,0,1,.74,1.61,2.19,2.19,0,0,1-.63,1.64,2.36,2.36,0,0,1-1.72.73,2.39,2.39,0,0,1-1.67-.58A2.11,2.11,0,0,1,414.45,142.24Z"/><path class="cls-38" d="M426.81,163.11a7.14,7.14,0,0,1-3.81-1.05,6.38,6.38,0,0,1-2.48-2.85,7.94,7.94,0,0,1-.64-4l0-.61a10.6,10.6,0,0,1,1.39-4.4,8.42,8.42,0,0,1,3-3.08,7.43,7.43,0,0,1,4.06-1,5.67,5.67,0,0,1,4.8,2.33,8,8,0,0,1,1.24,5.74l-.24,1.87h-10a3.52,3.52,0,0,0,.77,2.55,3,3,0,0,0,2.27,1,5.24,5.24,0,0,0,4.09-1.82l2,2.42a6.08,6.08,0,0,1-2.67,2.17A8.72,8.72,0,0,1,426.81,163.11Zm6.87-18.83-2.76,0-2-2-2.7,2-3.49,0,4.73-3.45h2.56Zm-5.5,5.36a3,3,0,0,0-2.1.74,6.52,6.52,0,0,0-1.64,2.68h5.88l.09-.39a4,4,0,0,0,0-1.15,2.2,2.2,0,0,0-.74-1.37A2.33,2.33,0,0,0,428.18,149.64Zm4.55-7.23,0-1.76.59,0q1.23-.14,1.36-.85t-1-.77l-.64,0,.2-1.74a6.11,6.11,0,0,1,3,.69,2,2,0,0,1,1,1.74q0,1.52-2,1.91l-.14.88Z"/><path class="cls-38" d="M442.27,146.39l-.35,1.86a6,6,0,0,1,4.8-2.15,4.62,4.62,0,0,1,2.52.7,3.26,3.26,0,0,1,1.35,1.8,6.32,6.32,0,0,1,5.09-2.5,4.12,4.12,0,0,1,3.4,1.55,6.35,6.35,0,0,1,1,4.33l0,.38-1.74,10.44H454l1.74-10.48a7.62,7.62,0,0,0,0-1,1.62,1.62,0,0,0-1.82-1.64,3.61,3.61,0,0,0-3,1.88l0,.35L449,162.81h-4.27l1.74-10.44a7.68,7.68,0,0,0,0-1,1.62,1.62,0,0,0-1.8-1.65,3.62,3.62,0,0,0-2.93,1.53l-2,11.61h-4.27l2.83-16.4Z"/><path class="cls-38" d="M478,142.38l-.71,4H480l-.56,3.21h-2.73l-1.39,8.21a2.09,2.09,0,0,0,.12,1.18q.21.41,1,.44.24,0,1.3-.08l-.3,3.35a7.2,7.2,0,0,1-2.46.35,3.85,3.85,0,0,1-3.14-1.32,4.76,4.76,0,0,1-.85-3.49l1.41-8.65h-2.32l.56-3.21H473l.7-4Z"/><path class="cls-38" d="M490.87,150.52a8.81,8.81,0,0,0-1.44-.15,4.14,4.14,0,0,0-3.62,1.71l-1.89,10.73h-4.27l2.85-16.4,4,0-.39,2a4.51,4.51,0,0,1,3.82-2.32,6.23,6.23,0,0,1,1.49.21Z"/><path class="cls-38" d="M499.81,162.81a4.42,4.42,0,0,1-.17-1.49,5.55,5.55,0,0,1-4.18,1.79,5,5,0,0,1-3.57-1.4,4.24,4.24,0,0,1-1.33-3.39,4.9,4.9,0,0,1,2.25-4.11,10.21,10.21,0,0,1,5.75-1.43l2,0,.21-1a3.42,3.42,0,0,0,0-1,1.64,1.64,0,0,0-.54-1.11,1.86,1.86,0,0,0-1.22-.42,2.61,2.61,0,0,0-1.7.49,2.39,2.39,0,0,0-.89,1.51l-4.29,0a4.77,4.77,0,0,1,2.16-3.81,8.37,8.37,0,0,1,5.07-1.43,6,6,0,0,1,4.36,1.66,4.85,4.85,0,0,1,1.32,4.11l-1.26,7.85-.08,1a4.67,4.67,0,0,0,.26,1.82l0,.29Zm-3.29-3a3.91,3.91,0,0,0,3.23-1.61l.53-2.83-1.48,0a4.15,4.15,0,0,0-3.41,1.44,2.51,2.51,0,0,0-.47,1.23,1.45,1.45,0,0,0,.34,1.3A1.73,1.73,0,0,0,496.53,159.79Z"/><path class="cls-38" d="M521.17,157.4l4.67-11h4.61l-7.93,16.4h-4.09l-2.8-16.4H520Z"/><path class="cls-38" d="M538.9,162.81a4.42,4.42,0,0,1-.17-1.49,5.55,5.55,0,0,1-4.18,1.79,5,5,0,0,1-3.57-1.4,4.24,4.24,0,0,1-1.33-3.39,4.9,4.9,0,0,1,2.25-4.11,10.21,10.21,0,0,1,5.75-1.43l2,0,.21-1a3.42,3.42,0,0,0,0-1,1.64,1.64,0,0,0-.54-1.11,1.86,1.86,0,0,0-1.22-.42,2.61,2.61,0,0,0-1.7.49,2.39,2.39,0,0,0-.89,1.51l-4.29,0a4.77,4.77,0,0,1,2.16-3.81,8.37,8.37,0,0,1,5.07-1.43,6,6,0,0,1,4.36,1.66,4.85,4.85,0,0,1,1.32,4.11l-1.26,7.85-.08,1a4.67,4.67,0,0,0,.26,1.82l0,.29Zm-3.29-3a3.91,3.91,0,0,0,3.23-1.61l.53-2.83-1.48,0a4.15,4.15,0,0,0-3.41,1.44A2.51,2.51,0,0,0,534,158a1.45,1.45,0,0,0,.34,1.3A1.73,1.73,0,0,0,535.61,159.79Zm5.52-15.56-3.2,0-3.38-4.65,4.41,0Z"/><path class="cls-38" d="M557.87,162.81h-4.3l4-23.28h4.29Z"/><path class="cls-38" d="M566,162.81h-4.3l2.85-16.4h4.3Zm-1-20.56a2.13,2.13,0,0,1,.67-1.68,2.57,2.57,0,0,1,3.36-.08,2.13,2.13,0,0,1,.74,1.61,2.19,2.19,0,0,1-.63,1.64,2.36,2.36,0,0,1-1.72.73,2.39,2.39,0,0,1-1.67-.58A2.11,2.11,0,0,1,565.06,142.24Z"/><path class="cls-38" d="M577.42,163.11a7.14,7.14,0,0,1-3.81-1.05,6.38,6.38,0,0,1-2.48-2.85,7.94,7.94,0,0,1-.64-4l0-.61a10.6,10.6,0,0,1,1.39-4.4,8.42,8.42,0,0,1,3-3.08,7.43,7.43,0,0,1,4.06-1,5.67,5.67,0,0,1,4.8,2.33,8,8,0,0,1,1.24,5.74l-.24,1.87h-10a3.52,3.52,0,0,0,.77,2.55,3,3,0,0,0,2.27,1,5.24,5.24,0,0,0,4.09-1.82l2,2.42a6.08,6.08,0,0,1-2.67,2.17A8.72,8.72,0,0,1,577.42,163.11Zm7.4-19.41V144l-3.27-.08-1.86-2.18L577,143.94l-3.47.06v-.36l4.86-4.11,2.44,0Zm-6,5.93a3,3,0,0,0-2.1.74,6.52,6.52,0,0,0-1.64,2.68h5.88l.09-.39a4,4,0,0,0,0-1.15,2.2,2.2,0,0,0-.74-1.37A2.33,2.33,0,0,0,578.79,149.64Z"/><path class="cls-38" d="M592.82,146.39l-.36,1.94a5.9,5.9,0,0,1,4.77-2.23,3.93,3.93,0,0,1,3.43,1.7,6.84,6.84,0,0,1,.8,4.58l-1.73,10.43h-4.27l1.76-10.47a4.89,4.89,0,0,0,0-1.08,1.74,1.74,0,0,0-1.94-1.59,3.68,3.68,0,0,0-3,1.56l-2,11.58H586l2.85-16.4Z"/><path class="cls-38" d="M617.25,148.23a5.72,5.72,0,0,1,4.44-2.12,4.16,4.16,0,0,1,3.58,1.75,6.88,6.88,0,0,1,.86,4.61l-1.73,10.34h-4.27l1.74-10.39a5.08,5.08,0,0,0,0-1.09,1.72,1.72,0,0,0-1.91-1.68,3.69,3.69,0,0,0-3,1.49l-2.06,11.68h-4.27l4-23.28h4.29Z"/><path class="cls-38" d="M635.53,163.11a7.14,7.14,0,0,1-3.81-1.05,6.38,6.38,0,0,1-2.48-2.85,7.94,7.94,0,0,1-.64-4l0-.61a10.61,10.61,0,0,1,1.39-4.4,8.43,8.43,0,0,1,3-3.08,7.43,7.43,0,0,1,4.06-1,5.68,5.68,0,0,1,4.8,2.33,8,8,0,0,1,1.23,5.74l-.24,1.87h-10a3.52,3.52,0,0,0,.77,2.55,3,3,0,0,0,2.27,1,5.24,5.24,0,0,0,4.09-1.82l2,2.42a6.07,6.07,0,0,1-2.67,2.17A8.72,8.72,0,0,1,635.53,163.11Zm-3.88,3.32a1.9,1.9,0,0,1,.67-1.58,2.45,2.45,0,0,1,1.67-.61,2.53,2.53,0,0,1,1.67.52,1.87,1.87,0,0,1,.76,1.51,1.92,1.92,0,0,1-.67,1.59,2.72,2.72,0,0,1-3.36.05A1.94,1.94,0,0,1,631.65,166.43Zm11.28-22.72V144l-3.27-.08-1.86-2.18-2.65,2.17-3.47.06v-.36l4.86-4.11,2.44,0Zm-6,5.93a3,3,0,0,0-2.1.74,6.52,6.52,0,0,0-1.64,2.68H639l.09-.39a4,4,0,0,0,0-1.15,2.19,2.19,0,0,0-.74-1.37A2.33,2.33,0,0,0,636.89,149.64Z"/><path class="cls-38" d="M656.33,162.81H652l4-23.28h4.29Z"/><path class="cls-38" d="M669.44,162.81a4.45,4.45,0,0,1-.17-1.49,5.55,5.55,0,0,1-4.18,1.79,5,5,0,0,1-3.57-1.4,4.24,4.24,0,0,1-1.33-3.39,4.9,4.9,0,0,1,2.25-4.11,10.21,10.21,0,0,1,5.75-1.43l2,0,.21-1a3.42,3.42,0,0,0,0-1,1.64,1.64,0,0,0-.54-1.11,1.86,1.86,0,0,0-1.22-.42,2.61,2.61,0,0,0-1.7.49,2.39,2.39,0,0,0-.89,1.51l-4.29,0a4.77,4.77,0,0,1,2.16-3.81,8.37,8.37,0,0,1,5.07-1.43,6,6,0,0,1,4.36,1.66,4.85,4.85,0,0,1,1.32,4.11l-1.26,7.85-.08,1a4.7,4.7,0,0,0,.26,1.82v.29Zm-7,3.38a1.9,1.9,0,0,1,.67-1.58,2.46,2.46,0,0,1,1.67-.61,2.54,2.54,0,0,1,1.67.52,1.87,1.87,0,0,1,.76,1.51,1.92,1.92,0,0,1-.67,1.59,2.72,2.72,0,0,1-3.36.05A1.94,1.94,0,0,1,662.39,166.19Zm3.76-6.4a3.91,3.91,0,0,0,3.23-1.61l.53-2.83-1.49,0a4.15,4.15,0,0,0-3.41,1.44,2.5,2.5,0,0,0-.47,1.23,1.45,1.45,0,0,0,.34,1.3A1.73,1.73,0,0,0,666.15,159.79Z"/><path class="cls-38" d="M680.76,162.81h-4.3l2.85-16.4h4.3Zm-1-20.56a2.14,2.14,0,0,1,.67-1.68,2.56,2.56,0,0,1,3.36-.08,2.13,2.13,0,0,1,.74,1.61,2.2,2.2,0,0,1-.63,1.64,2.36,2.36,0,0,1-1.72.73,2.39,2.39,0,0,1-1.67-.58A2.12,2.12,0,0,1,679.81,142.24Z"/><path class="cls-38" d="M700.7,142.38l-.71,4h2.73l-.56,3.21h-2.73L698,157.84a2.09,2.09,0,0,0,.12,1.18q.21.41,1,.44.24,0,1.3-.08l-.3,3.35a7.19,7.19,0,0,1-2.46.35,3.85,3.85,0,0,1-3.14-1.32,4.77,4.77,0,0,1-.85-3.49l1.41-8.65h-2.32l.56-3.21h2.32l.7-4Z"/><path class="cls-38" d="M713.59,150.52a8.82,8.82,0,0,0-1.44-.15,4.14,4.14,0,0,0-3.62,1.71l-1.89,10.73h-4.27l2.85-16.4,4,0-.39,2a4.51,4.51,0,0,1,3.82-2.32,6.22,6.22,0,0,1,1.48.21Z"/><path class="cls-38" d="M722.33,146.11a6.58,6.58,0,0,1,3.74,1.11,6.27,6.27,0,0,1,2.3,3,9.24,9.24,0,0,1,.52,4.22,10,10,0,0,1-2.72,6.33,7.68,7.68,0,0,1-5.86,2.36,6.56,6.56,0,0,1-3.7-1.1,6.25,6.25,0,0,1-2.3-3,9,9,0,0,1-.53-4.18,10.28,10.28,0,0,1,2.76-6.46A7.52,7.52,0,0,1,722.33,146.11ZM718,156.42a3.78,3.78,0,0,0,.68,2.29,2.27,2.27,0,0,0,1.83.87,3.32,3.32,0,0,0,3.09-1.81,9,9,0,0,0,1-4.91,4.12,4.12,0,0,0-.7-2.32,2.23,2.23,0,0,0-1.84-.9,3.33,3.33,0,0,0-3.05,1.79A8.92,8.92,0,0,0,718,156.42Z"/><path class="cls-38" d="M736.88,146.39l-.36,1.94a5.9,5.9,0,0,1,4.77-2.23,3.93,3.93,0,0,1,3.42,1.7,6.84,6.84,0,0,1,.8,4.58l-1.73,10.43h-4.27l1.76-10.47a4.89,4.89,0,0,0,0-1.08,1.74,1.74,0,0,0-1.94-1.59,3.68,3.68,0,0,0-3,1.56l-2,11.58H730l2.85-16.4Z"/><path class="cls-38" d="M748,154.59a11.35,11.35,0,0,1,2.48-6.18,6.29,6.29,0,0,1,5.1-2.33,4.6,4.6,0,0,1,3.91,1.89l.56-1.59,3.92,0-2.68,15.84a7.73,7.73,0,0,1-2.79,5.18,8.68,8.68,0,0,1-5.82,1.85,8.08,8.08,0,0,1-3.24-.74,6.94,6.94,0,0,1-2.55-1.93L749,164a4.56,4.56,0,0,0,3.58,1.86,4.2,4.2,0,0,0,2.85-.87,4.67,4.67,0,0,0,1.61-2.63l.24-1a5.33,5.33,0,0,1-4,1.73,4.71,4.71,0,0,1-3.8-1.78,7.66,7.66,0,0,1-1.55-4.55A15.28,15.28,0,0,1,748,154.59Zm4.2,1.8a3.92,3.92,0,0,0,.6,2.28,2.1,2.1,0,0,0,1.74.9,3.83,3.83,0,0,0,3.09-1.49l1.27-7a2.51,2.51,0,0,0-2.41-1.49,3.35,3.35,0,0,0-2.77,1.32,6.91,6.91,0,0,0-1.42,3.63A16.11,16.11,0,0,0,752.15,156.39Z"/><path class="cls-38" d="M780.8,142.38l-.71,4h2.73l-.56,3.21h-2.73l-1.39,8.21a2.09,2.09,0,0,0,.12,1.18q.21.41,1,.44.24,0,1.3-.08l-.3,3.35a7.19,7.19,0,0,1-2.46.35,3.85,3.85,0,0,1-3.14-1.32,4.77,4.77,0,0,1-.85-3.49l1.41-8.65h-2.32l.56-3.21h2.32l.7-4Z"/><path class="cls-38" d="M789,148.23a5.72,5.72,0,0,1,4.44-2.12,4.16,4.16,0,0,1,3.58,1.75,6.88,6.88,0,0,1,.86,4.61l-1.73,10.34h-4.27l1.74-10.39a5.08,5.08,0,0,0,0-1.09,1.72,1.72,0,0,0-1.91-1.68,3.69,3.69,0,0,0-3,1.49l-2.06,11.68h-4.27l4-23.28h4.29Z"/><path class="cls-38" d="M800.41,154.55a11.47,11.47,0,0,1,.92-3.4,9,9,0,0,1,1.89-2.75,7.77,7.77,0,0,1,5.85-2.3,6.52,6.52,0,0,1,5.29,2.41,3.54,3.54,0,0,0,1.18-1.29,7,7,0,0,0,.65-2.33l2.58,0a7.52,7.52,0,0,1-1,3.43,5.17,5.17,0,0,1-2.4,1.95,14.54,14.54,0,0,1,.12,4.18q-.65,4.83-3.67,7.11a7.72,7.72,0,0,1-5,1.59,6.22,6.22,0,0,1-5-2.39,7.92,7.92,0,0,1-1.41-5.86Zm4.26.32a12.32,12.32,0,0,0-.06,1.53,3.78,3.78,0,0,0,.64,2.32,2.2,2.2,0,0,0,1.8.88,3.28,3.28,0,0,0,2.64-1.14,6.58,6.58,0,0,0,1.44-3.42l.09-.62a14.6,14.6,0,0,0,.08-1.55,4.06,4.06,0,0,0-.66-2.34,2.17,2.17,0,0,0-1.81-.9,3.24,3.24,0,0,0-2.7,1.24,7.21,7.21,0,0,0-1.41,3.68Zm6.88-10.64-3.2,0L805,139.56l4.41,0Z"/><path class="cls-38" d="M821.61,162.81h-4.3l2.85-16.4h4.3Zm-1-20.56a2.14,2.14,0,0,1,.67-1.68,2.56,2.56,0,0,1,3.36-.08,2.13,2.13,0,0,1,.74,1.61,2.2,2.2,0,0,1-.63,1.64,2.36,2.36,0,0,1-1.72.73,2.39,2.39,0,0,1-1.67-.58A2.12,2.12,0,0,1,820.65,142.24Z"/><path class="cls-38" d="M833.7,154.59a11.35,11.35,0,0,1,2.48-6.18,6.29,6.29,0,0,1,5.1-2.33,4.6,4.6,0,0,1,3.91,1.89l.56-1.59,3.92,0L847,162.25a7.73,7.73,0,0,1-2.79,5.18,8.68,8.68,0,0,1-5.82,1.85,8.08,8.08,0,0,1-3.24-.74,6.94,6.94,0,0,1-2.55-1.93l2.12-2.61a4.56,4.56,0,0,0,3.58,1.86,4.2,4.2,0,0,0,2.85-.87,4.67,4.67,0,0,0,1.61-2.63l.24-1a5.33,5.33,0,0,1-4,1.73,4.71,4.71,0,0,1-3.8-1.78,7.66,7.66,0,0,1-1.55-4.55A15.28,15.28,0,0,1,833.7,154.59Zm4.2,1.8a3.92,3.92,0,0,0,.6,2.28,2.1,2.1,0,0,0,1.74.9,3.83,3.83,0,0,0,3.09-1.49l1.27-7a2.51,2.51,0,0,0-2.41-1.49,3.35,3.35,0,0,0-2.77,1.32A6.91,6.91,0,0,0,838,154.6,16.11,16.11,0,0,0,837.9,156.39Z"/><path class="cls-38" d="M854.74,162.81h-4.3l2.85-16.4h4.3Zm-1-20.56a2.14,2.14,0,0,1,.67-1.68,2.56,2.56,0,0,1,3.36-.08,2.13,2.13,0,0,1,.74,1.61,2.2,2.2,0,0,1-.63,1.64,2.36,2.36,0,0,1-1.72.73,2.39,2.39,0,0,1-1.67-.58A2.12,2.12,0,0,1,853.78,142.24Z"/><path class="cls-38" d="M867.85,162.81a4.45,4.45,0,0,1-.17-1.49,5.55,5.55,0,0,1-4.18,1.79,5,5,0,0,1-3.57-1.4,4.24,4.24,0,0,1-1.33-3.39,4.9,4.9,0,0,1,2.25-4.11,10.21,10.21,0,0,1,5.75-1.43l2,0,.21-1a3.43,3.43,0,0,0,0-1,1.64,1.64,0,0,0-.54-1.11,1.86,1.86,0,0,0-1.22-.42,2.61,2.61,0,0,0-1.7.49,2.39,2.39,0,0,0-.89,1.51l-4.29,0a4.77,4.77,0,0,1,2.16-3.81,8.37,8.37,0,0,1,5.07-1.43,6,6,0,0,1,4.36,1.66,4.85,4.85,0,0,1,1.32,4.11l-1.26,7.85-.08,1a4.7,4.7,0,0,0,.26,1.82v.29Zm-3.29-3a3.91,3.91,0,0,0,3.23-1.61l.53-2.83-1.49,0a4.15,4.15,0,0,0-3.41,1.44A2.5,2.5,0,0,0,863,158a1.45,1.45,0,0,0,.34,1.3A1.73,1.73,0,0,0,864.56,159.79Z"/><path class="cls-38" d="M881.41,146.39l-.36,1.94a5.9,5.9,0,0,1,4.77-2.23,3.93,3.93,0,0,1,3.42,1.7,6.84,6.84,0,0,1,.8,4.58l-1.73,10.43H884l1.76-10.47a4.89,4.89,0,0,0,0-1.08,1.74,1.74,0,0,0-1.94-1.59,3.68,3.68,0,0,0-3,1.56l-2,11.58h-4.27l2.85-16.4Z"/><path class="cls-38" d="M908.82,158.18q.24-1.21-1.68-1.76l-1.38-.35q-4.9-1.35-4.76-4.76a4.71,4.71,0,0,1,2.05-3.78,7.65,7.65,0,0,1,4.77-1.43,6.86,6.86,0,0,1,4.49,1.47,4.84,4.84,0,0,1,1.74,3.83l-4.24,0a1.87,1.87,0,0,0-2.09-2.14,3,3,0,0,0-1.74.5,2.06,2.06,0,0,0-.9,1.35q-.23,1.21,1.83,1.71l.61.14a12.19,12.19,0,0,1,3.2,1.14,4.83,4.83,0,0,1,1.71,1.6A4,4,0,0,1,913,158a4.37,4.37,0,0,1-1,2.73,6.17,6.17,0,0,1-2.64,1.8,9.18,9.18,0,0,1-3.52.59,6.92,6.92,0,0,1-4.55-1.57,5.05,5.05,0,0,1-1.85-4l4,0A2.22,2.22,0,0,0,906,160a3.58,3.58,0,0,0,1.95-.48A1.92,1.92,0,0,0,908.82,158.18Z"/><path class="cls-38" d="M915.9,154.55a11.47,11.47,0,0,1,.92-3.4,9,9,0,0,1,1.89-2.75,7.77,7.77,0,0,1,5.85-2.3,6.52,6.52,0,0,1,5.29,2.41,3.54,3.54,0,0,0,1.18-1.29,7,7,0,0,0,.65-2.33l2.58,0a7.52,7.52,0,0,1-1,3.43,5.17,5.17,0,0,1-2.4,1.95,14.54,14.54,0,0,1,.12,4.18q-.65,4.83-3.67,7.11a7.72,7.72,0,0,1-5,1.59,6.22,6.22,0,0,1-5-2.39,7.92,7.92,0,0,1-1.41-5.86Zm4.26.32a12.32,12.32,0,0,0-.06,1.53,3.78,3.78,0,0,0,.64,2.32,2.2,2.2,0,0,0,1.8.88,3.28,3.28,0,0,0,2.64-1.14,6.58,6.58,0,0,0,1.44-3.42l.09-.62a14.6,14.6,0,0,0,.08-1.55,4.06,4.06,0,0,0-.66-2.34,2.17,2.17,0,0,0-1.81-.9,3.24,3.24,0,0,0-2.7,1.24,7.21,7.21,0,0,0-1.41,3.68Zm6.33-15.34h5l-4.82,4.7h-3.77Z"/><path class="cls-38" d="M939.41,146.39l-.35,1.86a6,6,0,0,1,4.8-2.15,4.62,4.62,0,0,1,2.52.7,3.26,3.26,0,0,1,1.35,1.8,6.32,6.32,0,0,1,5.09-2.5,4.13,4.13,0,0,1,3.4,1.55,6.35,6.35,0,0,1,1,4.33l0,.38-1.74,10.44h-4.29l1.74-10.48a7.69,7.69,0,0,0,0-1,1.62,1.62,0,0,0-1.82-1.64,3.61,3.61,0,0,0-3,1.88l0,.35-1.91,10.94h-4.27l1.74-10.44a7.68,7.68,0,0,0,0-1,1.62,1.62,0,0,0-1.8-1.65,3.62,3.62,0,0,0-2.92,1.53l-2,11.61h-4.27l2.83-16.4Z"/><path class="cls-38" d="M973.22,146.39l-.36,1.94a5.9,5.9,0,0,1,4.77-2.23,3.93,3.93,0,0,1,3.42,1.7,6.84,6.84,0,0,1,.8,4.58l-1.73,10.43h-4.27l1.76-10.47a4.89,4.89,0,0,0,0-1.08,1.74,1.74,0,0,0-1.94-1.59,3.68,3.68,0,0,0-3,1.56l-2,11.58h-4.27l2.85-16.4Z"/><path class="cls-38" d="M990,148.23a5.72,5.72,0,0,1,4.44-2.12,4.16,4.16,0,0,1,3.58,1.75,6.88,6.88,0,0,1,.86,4.61l-1.73,10.34h-4.27l1.74-10.39a5.08,5.08,0,0,0,0-1.09,1.72,1.72,0,0,0-1.91-1.68,3.69,3.69,0,0,0-3,1.49l-2.06,11.68h-4.27l4-23.28h4.29Z"/><path class="cls-38" d="M1010,162.81a4.45,4.45,0,0,1-.17-1.49,5.55,5.55,0,0,1-4.18,1.79,5,5,0,0,1-3.57-1.4,4.24,4.24,0,0,1-1.33-3.39,4.9,4.9,0,0,1,2.25-4.11,10.21,10.21,0,0,1,5.75-1.43l2,0,.21-1a3.43,3.43,0,0,0,0-1,1.64,1.64,0,0,0-.54-1.11,1.86,1.86,0,0,0-1.22-.42,2.61,2.61,0,0,0-1.7.49,2.39,2.39,0,0,0-.89,1.51l-4.29,0a4.77,4.77,0,0,1,2.16-3.81,8.37,8.37,0,0,1,5.07-1.43,6,6,0,0,1,4.36,1.66,4.85,4.85,0,0,1,1.32,4.11l-1.26,7.85-.08,1a4.7,4.7,0,0,0,.26,1.82v.29Zm-.62-22.05h2.41l3.68,3.43-2.88.05-1.85-1.91-2.55,1.89-3.61,0Zm-2.67,19a3.91,3.91,0,0,0,3.23-1.61l.53-2.83-1.49,0a4.15,4.15,0,0,0-3.41,1.44,2.5,2.5,0,0,0-.47,1.23,1.45,1.45,0,0,0,.34,1.3A1.73,1.73,0,0,0,1006.68,159.79Zm11.11-21.72,3.73,0-4.06,4.11h-2.8Z"/><path class="cls-38" d="M1025.44,142.38l-.71,4h2.73l-.56,3.21h-2.73l-1.39,8.21a2.09,2.09,0,0,0,.12,1.18q.21.41,1,.44.24,0,1.3-.08l-.3,3.35a7.19,7.19,0,0,1-2.46.35,3.85,3.85,0,0,1-3.14-1.32,4.77,4.77,0,0,1-.85-3.49l1.41-8.65h-2.32l.56-3.21h2.32l.7-4Z"/><path class="cls-38" d="M1035.32,160.82a2.23,2.23,0,0,1,.64-1.69,2.5,2.5,0,0,1,3.38-.12,2.18,2.18,0,0,1,.74,1.64,2.26,2.26,0,0,1-.64,1.7,2.48,2.48,0,0,1-3.45.06A2.16,2.16,0,0,1,1035.32,160.82Zm5-4.79h-3.56l2.15-15.29h4.56Z"/><g class="cls-39"><g class="cls-40"><path class="cls-41" d="M613.62,378.52s69.47-66.58,154-33.66l-10.2,25.24s-97.16,2.23-112.76,31Z"/><path class="cls-42" d="M757.77,368.6a86.07,86.07,0,0,1,13.08,1.57c2.83.56,5.73,1.26,8.54.63s5.49-3.08,5.32-6a3.43,3.43,0,0,0,.81-5.21c1.36-.28,2-2.1,1.49-3.44a6.66,6.66,0,0,0-2.8-3.06,39.21,39.21,0,0,0-17.43-6.52Z"/><path class="cls-43" d="M805.72,232.09a32,32,0,0,0-4.25-3.12,28.56,28.56,0,0,0-28.89-.69c-14.71,8.08-23.43,31.57-12.59,46.78,8.61,12.08,24.59,14.52,37.64,11.5,16-3.71,22.9-23.23,18.12-39.1A33.34,33.34,0,0,0,805.72,232.09Z"/><path d="M795.63,253c-.09,1.28.49,2.38,1.31,2.45s1.55-.92,1.64-2.2-.49-2.38-1.31-2.45S795.72,251.68,795.63,253Z"/><path d="M773.91,250.42c-.09,1.28.49,2.38,1.31,2.45s1.55-.92,1.64-2.2-.49-2.38-1.31-2.45S774,249.14,773.91,250.42Z"/><g class="cls-44"><path class="cls-45" d="M786,249.14a15.22,15.22,0,0,0-1.65,8.63c.07.55.85.43,1,0a16.54,16.54,0,0,0,.47-3.8,21.25,21.25,0,0,1,1-4.48.44.44,0,0,0-.8-.34Z"/></g><path d="M791.26,262a8,8,0,0,1-6.5,2c-2.65-.32-3.78-1.71-5.08-3.87-.2-.34-.83-.22-.79.21.54,5.93,10,6.35,13,2.37.36-.47-.22-1.11-.67-.67Z"/><path class="cls-46" d="M798.38,263.7a5,5,0,0,0,5.47,4.56,5.23,5.23,0,0,0,4.2-5.93,5,5,0,0,0-5.47-4.56A5.23,5.23,0,0,0,798.38,263.7Z"/><path class="cls-46" d="M763.1,260a5,5,0,0,0,5.47,4.56,5.23,5.23,0,0,0,4.2-5.93,5,5,0,0,0-5.47-4.56A5.23,5.23,0,0,0,763.1,260Z"/><path class="cls-47" d="M816.66,239.23c-2.34-9.52-5.63-19.12-11.95-26.2-3.32-3.72-9.68-9.83-14.84-6.74-3.87,2.32-.81,9.19,1.36,11.67a27.59,27.59,0,0,0-13.29-8.76c-4.11-1.11-10.27.15-8.43,6.39a8.62,8.62,0,0,0,4.87,5.22,22.94,22.94,0,0,0-13.22-4.44,13,13,0,0,0-6.24,1.3c-4,2.13-6.3,7.36-5.69,12.19a14.75,14.75,0,0,0,7.88,11.08,16.87,16.87,0,0,0,13.13.56c-1.47.52-1.93,2.76-1.17,4.23a5.61,5.61,0,0,0,3.81,2.62c4.58,1.13,9.37-.63,13.44-3.18a29.33,29.33,0,0,0,9.14-8.67,8.19,8.19,0,0,0,3.31,8.88,6.86,6.86,0,0,0,8.7-1.6,10,10,0,0,0,.85,7.36c1.3,2.12,4,3.32,6.12,2.32a8.65,8.65,0,0,0-.19,4.46c.38,1.17,2.1,2.81,3.21,1.74s1-5.11,1.07-6.52A50.91,50.91,0,0,0,816.66,239.23Z"/><path class="cls-43" d="M823.38,262.48a5.13,5.13,0,0,1-5.67,4.69,5.41,5.41,0,0,1-4.32-6.16,5.13,5.13,0,0,1,5.67-4.69A5.41,5.41,0,0,1,823.38,262.48Z"/><g class="cls-44"><path class="cls-45" d="M819.51,259.07a5.42,5.42,0,0,0-3,1.87c-.67.74-1.69,2-1.61,3.08,0,.28.38.49.6.25a5.8,5.8,0,0,0,.69-1.31,7.09,7.09,0,0,1,.95-1.39,13,13,0,0,1,2.57-2,.28.28,0,0,0-.22-.51Z"/></g><g class="cls-44"><path class="cls-45" d="M817.2,261.08a5.37,5.37,0,0,1,1,1.73,11,11,0,0,0,.4,1.55.29.29,0,0,0,.53-.07c.35-1.19-.74-2.78-1.54-3.58-.24-.24-.58.11-.37.37Z"/></g><path class="cls-48" d="M736,436.14s-24,35.38-31.78,85.28c0,0,115.5-1.53,137.54-33.6,0,0-7.83-28.08-22.31-42.67C819.43,445.15,774.82,457.4,736,436.14Z"/><path class="cls-49" d="M736,436.14l-1.82-99.41c-.27-14.88,8-28.44,20.87-33.69l.32-.13c17.92-7.2,43.63-4.39,60.31,5.6a59.14,59.14,0,0,1,9.3,6.94c11.78,10.68,16.83,27.79,13.17,44-6.82,30.15-18.71,85.73-18.71,85.73S781.47,458.91,736,436.14Z"/><g class="cls-44"><path class="cls-49" d="M766.9,310.53c.12,8.21,6.08,16.48,14.47,17.81s15.92-4.32,18.74-11.87c.31-.82-1-1.18-1.32-.36-2.6,7-10.07,12.52-17.78,11s-12.68-9.11-13.35-16.56c0-.48-.77-.5-.77,0Z"/></g><path class="cls-49" d="M810.09,305.59s57.52,15.06,66.51,64l-42.13,6.27S829.3,323.47,810.09,305.59Z"/><path class="cls-43" d="M846.34,374.13s16.83,49.78-18.69,111.62c0,0-4.23,5.24,2.27,7.18,0,0-2.65,6.8,4.4,4.69,0,0,1.29,7.79,7.46,2.33,0,0,50.85-32.74,30.52-129.69Z"/><path class="cls-43" d="M774.13,285.52c-.08,0-2.78,22.26-2.78,22.26,1.22,5.81,5.55,10.26,10.89,11.22,5.62,1,11.29-2,14-7.55l4.11-25.71Z"/><path class="cls-46" d="M774.13,285.52s11,5.15,26.25.21l-1.67,10.44S782.07,297.37,774.13,285.52Z"/><path class="cls-43" d="M717.22,292.93s-47.72-11.3-76.73-77c0,0-1.8-6.69-6.8-1.77,0,0-3.87-6.08-6,1.51,0,0-6.75-3-5.81,5.59,0,0-1.84,64.15,84.42,97.56Z"/><path class="cls-49" d="M765.81,300s-26-8.53-46.65-24.35c0,0-17.3,34.85-16.54,61.35l31.85,16.28S739.94,316.92,765.81,300Z"/><path class="cls-50" d="M663.56,352.76s-24.92,8.38-42.24,4c0,0,4,27.87-8,43.61a85.59,85.59,0,0,0,51.54,1.21Z"/><path class="cls-51" d="M622.43,399.67c3-5.91,4.41-12.56,5.83-19s2.4-13.23,1.29-19.85c-.1-.61-1.16-.47-1.08.15.87,6.9,0,13.61-1.47,20.36a115.86,115.86,0,0,1-5.23,18c-.16.38.49.65.67.28Z"/><path class="cls-43" d="M614.42,397.39s-86.5-34.15-121.51-63.61c0,0-4.4-2-.92-5.39,0,0-2.17-5.36,4-5.76,0,0-1.26-3.89,4.45-3.49,0,0,88.41,50,121.44,43.48C621.84,362.63,623.71,386.35,614.42,397.39Z"/><path class="cls-41" d="M567.9,355c-14.69.81-26.37,13.45-26.93,29.19a288.32,288.32,0,0,1-5.28,45.57,282.7,282.7,0,0,1-31,84.06l146.65,10.74c-5.07-24.63-.11-121.4,1.49-132.93,2.31-16.65-14.37-31.53-29.93-33.93a264.47,264.47,0,0,0-28.93-2.86C584.73,354.46,576,354.57,567.9,355Z"/><path class="cls-42" d="M582.8,338.44l-1.92,21.37c2.62,7.64,9.36,12.67,16.67,12.55,6.43-.1,12.35-4.17,15.32-10.5l-.66-18S591.39,346,582.8,338.44Z"/><path class="cls-42" d="M626,294.65c-5.05-13.61-18.41-22.43-31.51-22.06A26,26,0,0,0,577,280c-5.74,5.54-8.75,13.65-10,21.82-1.46,9.37-.42,19.12,4.88,26.82,7.94,11.53,23.66,16.34,36,11.82,14.61-5.37,23-21.43,20.15-38.17A41.94,41.94,0,0,0,626,294.65Z"/><path class="cls-52" d="M628.38,308a14.92,14.92,0,0,1-7.66,6.31,9.78,9.78,0,0,1-8.95-1.48c-2.5-2-3.62-5.33-5.95-7.51-5.08-4.75-13.38-4.31-18.58,0-4.58,3.79-8.95,10.89-15.55,7.3-1.57-.85-5.75-3.63-5.38-6-2,12.87,3.37,27.19,14,33.95,6.25,4,13.21,4.85,20.35,4.93,14,.15,27.39-9.71,28.12-25.4.08-1.83,0-3.66-.08-5.49-.09-2-.76-4.53-.38-6.5A.3.3,0,0,1,628.38,308Z"/><path d="M608.43,296.43c-.05,1.48.67,2.71,1.62,2.75s1.76-1.13,1.82-2.6-.67-2.71-1.62-2.75S608.48,294.95,608.43,296.43Z"/><path d="M583.07,294.57c-.05,1.48.67,2.71,1.62,2.75s1.76-1.13,1.82-2.6-.67-2.71-1.62-2.75S583.12,293.09,583.07,294.57Z"/><g class="cls-44"><path class="cls-45" d="M597.7,290.54a18.14,18.14,0,0,0-1.56,9.91c.07.52.87.46,1,0a21.6,21.6,0,0,0,.37-4.36,23.05,23.05,0,0,1,1-5.22c.13-.47-.57-.79-.8-.34Z"/></g><path d="M603.79,307a9.58,9.58,0,0,1-7.83,2.61c-2.85-.28-4.44-1.87-5.83-4.22a.42.42,0,0,0-.77.33c1.12,6.79,11.82,6.41,15.18,1.87.32-.44-.38-1-.75-.58Z"/><path class="cls-46" d="M612.07,308.6a5.72,5.72,0,0,0,6.55,5,6,6,0,0,0,4.64-7,5.72,5.72,0,0,0-6.55-5A6,6,0,0,0,612.07,308.6Z"/><path class="cls-46" d="M570.91,306.11a5.72,5.72,0,0,0,6.55,5,6,6,0,0,0,4.64-7,5.72,5.72,0,0,0-6.55-5A6,6,0,0,0,570.91,306.11Z"/><g class="cls-53"><path class="cls-52" d="M576.09,317.59c-1.36,6.53-1.14,15,2.85,20.66.22.31.79.14.66-.28-1-3.07-2.31-5.9-2.84-9.13a31.63,31.63,0,0,1,.17-11c.1-.54-.72-.77-.83-.23Z"/></g><g class="cls-53"><path class="cls-52" d="M585.79,313.69a85.82,85.82,0,0,0-1.37,15.54c.08,4.24.35,9.88,2.8,13.47a.28.28,0,0,0,.51-.22c-.37-2.37-1.33-4.63-1.72-7a46.61,46.61,0,0,1-.57-7.14c0-4.87.59-9.7,1-14.54,0-.37-.59-.46-.65-.09Z"/></g><g class="cls-53"><path class="cls-52" d="M596.51,313.89a109.63,109.63,0,0,1-.78,27c0,.34.45.5.53.15a73.76,73.76,0,0,0,.86-27.27c-.05-.34-.64-.26-.61.08Z"/></g><g class="cls-53"><path class="cls-52" d="M605.72,316.08c.06,4.52.41,9,.33,13.54s-.74,9-.78,13.5a.23.23,0,0,0,.45.06c1.12-4.3,1.23-9.14,1.32-13.56a70.46,70.46,0,0,0-.77-13.61c-.05-.31-.54-.23-.54.07Z"/></g><g class="cls-53"><path class="cls-52" d="M616.13,318.83a26.68,26.68,0,0,1,.18,11.42c-.72,3.44-2.15,6.63-3,10a.2.2,0,0,0,.36.15c3.5-6.41,5.56-14.68,3.06-21.76a.31.31,0,0,0-.6.17Z"/></g><path class="cls-52" d="M629.19,313a84.22,84.22,0,0,0,3.57-21.76c.19-6.12-.45-12.73-4.19-17.36s-10-6.31-15.34-8.87a48.59,48.59,0,0,1-8.75-5.46,26.63,26.63,0,0,1-7.36-8A36.59,36.59,0,0,1,594,242c-5.63,3.88-8,12.32-5.41,18.91a43.65,43.65,0,0,1-6.66-10.12,9.62,9.62,0,0,0-2.6,6.93,9.52,9.52,0,0,0,3.1,6.69,28.35,28.35,0,0,1-15.83-11.71,8.9,8.9,0,0,0-2.38-2.93.82.82,0,0,0-.58-.17,1,1,0,0,0-.55.48,23.24,23.24,0,0,0-2.91,17.82,26,26,0,0,0,9.92,14.85c-2,0-4.6-.4-6.06-1.89a7.61,7.61,0,0,0,.26,6,6.76,6.76,0,0,0,4.42,3.62,16.9,16.9,0,0,0-3.38,8.71,31.15,31.15,0,0,0,.87,9.4,51.18,51.18,0,0,1,1.7-5.77c2.11-5.39,4.43-10.78,8-15.23a30,30,0,0,1,11.4-8.84c2.26.66,4.44,1.33,6.72,1.92a25.36,25.36,0,0,0,14.07-.43c3.51.93,6.45,3.62,8.76,6.59a53.76,53.76,0,0,1,5.67,9.87C625,301.81,627.66,307.38,629.19,313Z"/><g class="cls-53"><path class="cls-52" d="M566.46,265.88c2.2,5.78,6.62,11.86,12.79,13.82a.4.4,0,0,0,.3-.72c-5.56-3.35-10-7.06-12.56-13.24-.13-.32-.65-.19-.53.15Z"/></g><g class="cls-53"><path class="cls-52" d="M575.15,267.81c3.5,3.56,8.22,8.35,13.61,8.35a.31.31,0,0,0,.08-.6,32.9,32.9,0,0,1-7.1-3.15,55.5,55.5,0,0,1-6.19-5c-.27-.24-.65.14-.4.4Z"/></g><g class="cls-53"><path class="cls-52" d="M585.88,266.27c2.8,2.39,4.86,6.16,8.56,7.25a.31.31,0,0,0,.23-.56c-3.32-1.81-5.45-4.92-8.41-7.19-.29-.22-.66.27-.39.5Z"/></g><g class="cls-53"><path class="cls-52" d="M594,259c2.22,5.37,5.06,12.07,10.24,15.23a.4.4,0,0,0,.48-.62,35.47,35.47,0,0,1-6-7c-1.55-2.52-2.79-5.22-4.11-7.87-.17-.35-.79-.1-.64.27Z"/></g><g class="cls-53"><path class="cls-52" d="M604.72,266.88c1.94,3.89,4.8,8.73,8.55,11.12a.19.19,0,0,0,.26-.26c-1.14-1.74-2.67-3.19-4-4.81a60.11,60.11,0,0,1-4.31-6.36.31.31,0,0,0-.53.31Z"/></g><path class="cls-42" d="M636.76,309.62a5.85,5.85,0,0,1-6.26,5.52,6,6,0,0,1-5.16-6.7,5.86,5.86,0,0,1,6.26-5.52A6,6,0,0,1,636.76,309.62Z"/><g class="cls-44"><path class="cls-45" d="M632.83,306.74l0,0a.19.19,0,0,0,.22,0,.33.33,0,0,0-.25-.61,6.2,6.2,0,0,0-2.44,2.23c-.59.77-1.54,2-1.49,3a.32.32,0,0,0,.54.22,4.18,4.18,0,0,0,.74-1.26,11.8,11.8,0,0,1,.89-1.43,21.24,21.24,0,0,1,2.12-2.25h-.32l.17-.23c-.17-.12-.36.14-.22.28Z"/></g><g class="cls-44"><path class="cls-45" d="M631.07,308.45a9.63,9.63,0,0,1,.54,2c.11.67.06,1.36.17,2a.3.3,0,0,0,.57,0,7.33,7.33,0,0,0-.74-4.21c-.13-.3-.66-.09-.54.23Z"/></g><path class="cls-41" d="M570.69,375s-76-58.59-156.64-16.59l12.77,24s96.84-8.43,115.35,18.51Z"/><path class="cls-42" d="M426.34,381a86.34,86.34,0,0,0-12.85,3c-2.75.87-5.57,1.89-8.43,1.57s-5.78-2.47-5.92-5.42A3.42,3.42,0,0,1,397.8,375c-1.38-.13-2.17-1.87-1.84-3.26a6.72,6.72,0,0,1,2.47-3.35,39.45,39.45,0,0,1,16.65-8.4Z"/><path class="cls-51" d="M512,280.16a47.6,47.6,0,0,0-38.05,1c-14.18,6.67-19.34,20.21-26,33.7-11.46,23.29-30.77,41.2-57,43.38-8.31.69-16.53.84-23.64,5.84-9.12,6.41-13.3,17.41-13.7,28.47-1.15,32.51,27,57.11,56.5,61.62A89.75,89.75,0,0,0,446,451.86c34.33-9,60.36-37.54,74.51-69.93q1.18-2.71,2.25-5.47a131.26,131.26,0,0,0,8.38-58.23c-.34-4-.94-7.87-1.6-11.78-1.34-8-3.75-16.42-10-21.83a21.78,21.78,0,0,0-3.69-2.58A40.49,40.49,0,0,0,512,280.16Z"/><path class="cls-45" d="M490.47,284.2a25.59,25.59,0,0,0-11,6.83,23.73,23.73,0,0,0-1.93,2.34c-3.82,5.31-5.05,12.08-5,18.57v.22a37.12,37.12,0,0,0,1.81,11,29.38,29.38,0,0,0,5.48,10.09A29.74,29.74,0,0,0,494.09,342c5.8,1.72,12.22,2,18-.11a23.24,23.24,0,0,0,12.4-11.79A39.52,39.52,0,0,0,528,310.47c-.4-6.5-1.88-13.31-6-18.47-4.65-5.89-11.16-8.58-18.37-9.18A33.94,33.94,0,0,0,490.47,284.2Z"/><path d="M491.7,309.89c.12,1.12-.39,2.09-1.13,2.18s-1.45-.75-1.58-1.87.39-2.09,1.13-2.18S491.58,308.77,491.7,309.89Z"/><path d="M511.87,307c.12,1.12-.39,2.09-1.13,2.18s-1.45-.75-1.58-1.87.39-2.09,1.13-2.18S511.75,305.86,511.87,307Z"/><g class="cls-44"><path class="cls-45" d="M499.72,306.56a18.65,18.65,0,0,1,1,3.86,13.06,13.06,0,0,0,.55,3.33.52.52,0,0,0,1-.14,13.51,13.51,0,0,0-.41-3.83,9.19,9.19,0,0,0-1.37-3.56c-.26-.39-1-.15-.8.34Z"/></g><path d="M495.36,318.23c2.89,3.35,11.74,2.91,12-2.5a.43.43,0,0,0-.79-.21c-1.22,2-2.42,3.36-4.91,3.58a7.76,7.76,0,0,1-5.65-1.53.48.48,0,0,0-.67.67Z"/><path class="cls-54" d="M489.48,319.34a4.53,4.53,0,0,1-4.91,4.16,4.59,4.59,0,0,1-4-5,4.53,4.53,0,0,1,4.91-4.16A4.59,4.59,0,0,1,489.48,319.34Z"/><path class="cls-54" d="M521.91,315a4.53,4.53,0,0,1-4.91,4.16,4.59,4.59,0,0,1-4-5,4.53,4.53,0,0,1,4.91-4.16A4.59,4.59,0,0,1,521.91,315Z"/><path class="cls-55" d="M494.12,316l-9.51,1.66a4.6,4.6,0,0,1-5.28-3.84l-.88-5.3a4.7,4.7,0,0,1,3.74-5.42l9.51-1.66a4.6,4.6,0,0,1,5.28,3.84l.88,5.3A4.7,4.7,0,0,1,494.12,316Z"/><path class="cls-55" d="M520.09,311.42l-11,1.92a3.86,3.86,0,0,1-4.42-3.22l-1.13-6.8a3.94,3.94,0,0,1,3.13-4.54l11-1.92a3.86,3.86,0,0,1,4.42,3.22l1.13,6.8A3.94,3.94,0,0,1,520.09,311.42Z"/><path d="M497.74,306.26a12,12,0,0,1,2.61-1.39c.79-.27,2.07-.72,2.86-.31s1.31-.69.61-1c-2.07-1.06-5.17.55-6.76,1.87-.49.41.15,1.22.68.88Z"/><path class="cls-51" d="M471.71,282.72a16,16,0,0,0-1.69,4.48c-1.22,5.76.28,12.41,3.09,17.46l3.1-.58-.31-14.65,2,13.17,18-2.57-.52-12.41L498,299.52l14.67-2.72-.62-5.24,2.51,5L526.53,295a26.07,26.07,0,0,0-3.27-12.89,24.81,24.81,0,0,0-5.07-6.31,34.64,34.64,0,0,0-23.2-6.32C486.82,270.26,476.12,274.78,471.71,282.72Z"/><g class="cls-44"><path class="cls-51" d="M481.71,276.1a46,46,0,0,0,.63,12.35,47.24,47.24,0,0,0,3.18,11.9c.18.4.8.11.69-.29-1-3.81-2.17-7.52-2.84-11.41-.72-4.2-.7-8.34-1.06-12.55a.3.3,0,0,0-.61,0Z"/></g><g class="cls-44"><path class="cls-51" d="M486.39,277.53c-.22,6.55.46,14.08,2.69,20.28.08.23.47.22.45-.06-.24-3.09-1.14-6.14-1.65-9.19a65.87,65.87,0,0,1-1-11,.24.24,0,0,0-.48,0Z"/></g><g class="cls-44"><path class="cls-51" d="M497.33,274.88c1.87,2.49,2.52,6,3.19,9,.73,3.23,1,6.51,1.58,9.76.07.4.69.3.7-.09a42.76,42.76,0,0,0-1.65-10.81c-.71-2.82-1.39-5.94-3.36-8.17-.22-.25-.67.09-.47.36Z"/></g><g class="cls-44"><path class="cls-51" d="M501.82,275.92c2.4,5.56,3.1,11.1,4.1,17,.06.33.53.22.55-.07.4-5.84-1.68-12-4.11-17.24-.17-.36-.69,0-.53.31Z"/></g><g class="cls-44"><path class="cls-51" d="M507.8,277.27c.73-.41,2.84,2.9,3.22,3.49a27,27,0,0,1,1.92,3.48c1.17,2.55,1.69,5.28,2.75,7.85.14.35.77.36.73-.1-.31-3.87-2.24-8.15-4.34-11.39-.62-1-3.33-5.48-4.65-3.7-.17.23.15.5.37.37Z"/></g><g class="cls-44"><path class="cls-51" d="M513.22,277.9c4.07,2.28,4.41,7.9,6,11.77.13.32.65.31.64-.09,0-2.55-1.14-5.18-2.19-7.48-.93-2-2-3.85-4-4.87-.44-.22-.82.42-.39.66Z"/></g><path class="cls-45" d="M476.31,317.47a6.23,6.23,0,0,1-6.75,5.71,6.31,6.31,0,0,1-5.56-6.93,6.23,6.23,0,0,1,6.75-5.71A6.31,6.31,0,0,1,476.31,317.47Z"/><g class="cls-44"><path class="cls-45" d="M470.64,313.32a9.73,9.73,0,0,0-1.9,7.42c.08.37.6.25.63-.08a26.12,26.12,0,0,1,.34-3.64,17.43,17.43,0,0,1,1.31-3.41c.11-.23-.2-.52-.38-.29Z"/></g><g class="cls-44"><path class="cls-45" d="M469.71,316.74a21.11,21.11,0,0,0,2.25,3.32c.27.34.81-.1.59-.46a21.07,21.07,0,0,0-2.35-3.25c-.25-.27-.66.07-.5.38Z"/></g><path class="cls-43" d="M528.76,365.37s57.52-1,34.19,157.5c0,0-28-2.5-33.2-4.76C529.75,518.11,561.42,383.12,528.76,365.37Z"/><path class="cls-48" d="M436.18,376.34c6.56-8.89,16.49-14.4,27.18-16.9,9.32-2.19,18.85-1.78,28.34-1.43a125.37,125.37,0,0,1,29,4.31,47.48,47.48,0,0,1,33.28,57l-24.26,98.82a179.59,179.59,0,0,1-75.57-21.24,174.18,174.18,0,0,1-28.67-19.54,143.54,143.54,0,0,1-3.7-60.08C424,403,427.8,387.69,436.18,376.34Z"/><polygon class="cls-56" points="458.65 373.25 455.94 372.07 453.46 373.69 453.71 370.68 451.44 368.76 454.31 368.07 455.39 365.26 456.9 367.85 459.84 368.04 457.91 370.32 458.65 373.25"/><polygon class="cls-56" points="532.65 382.56 529.94 381.38 527.46 383 527.71 379.99 525.44 378.07 528.31 377.39 529.39 374.57 530.9 377.16 533.84 377.35 531.91 379.63 532.65 382.56"/><polygon class="cls-56" points="507 396.45 505.61 395.85 504.35 396.68 504.48 395.15 503.32 394.17 504.78 393.82 505.33 392.38 506.11 393.7 507.6 393.8 506.62 394.96 507 396.45"/><polygon class="cls-56" points="524.17 433.13 522.78 432.53 521.52 433.36 521.65 431.83 520.49 430.85 521.95 430.5 522.5 429.07 523.28 430.39 524.77 430.48 523.79 431.64 524.17 433.13"/><polygon class="cls-56" points="455.25 391.34 453.87 390.74 452.61 391.56 452.74 390.03 451.58 389.05 453.04 388.7 453.59 387.27 454.37 388.59 455.86 388.68 454.88 389.84 455.25 391.34"/><polygon class="cls-56" points="456.58 421.58 453.87 420.4 451.38 422.03 451.64 419.02 449.37 417.09 452.23 416.41 453.31 413.6 454.83 416.19 457.77 416.37 455.84 418.66 456.58 421.58"/><polygon class="cls-56" points="479.47 385.24 475.95 380.15 469.86 380.24 473.49 375.22 471.52 369.31 477.29 371.3 482.16 367.56 482.1 373.81 487.07 377.4 481.27 379.27 479.47 385.24"/><polygon class="cls-56" points="534.01 416.77 530.49 411.67 524.4 411.77 528.03 406.75 526.07 400.83 531.84 402.83 536.71 399.08 536.64 405.33 541.62 408.93 535.81 410.8 534.01 416.77"/><polygon class="cls-56" points="494.73 437.58 490.31 431.19 482.67 431.31 487.23 425.01 484.76 417.59 492 420.09 498.11 415.39 498.03 423.23 504.27 427.75 496.98 430.09 494.73 437.58"/><path class="cls-45" d="M483.34,336.6a21,21,0,0,1,2.14,11.84,20.67,20.67,0,0,1-3.49,9.29l4.17,6a16.28,16.28,0,0,0,28.42-2.9h0a18.51,18.51,0,0,1,.43-20.25Z"/><path class="cls-54" d="M488.85,340s15.51,7.41,26.15.52c0,0-4.19,6.74-3.19,11.64C511.8,352.18,498.39,350.12,488.85,340Z"/><path class="cls-45" d="M451.57,384.4c13.43,26.08.35,59.9,15,85.34a45.63,45.63,0,0,0,22.89,19.55c17.78,6.88,38.73,2.31,55.93,10.5a7.75,7.75,0,0,1,3.75,3c.76,1.43.36,3.55-1.17,4.1,4.5,1.73,1.61,5-.58,6.11,1.21-.64,2.41.45,2.75,1.63.47,1.62-.85,3.07-2.16,3.77-3.28,1.78-7.16,1.65-10.76,1.37-14-1.1-28.19-1.87-42.14-4s-27.59-5.64-40.34-11.69q-3.16-1.5-6.23-3.2c-9.46-5.26-18.08-12.86-23.76-22.32-6.09-10.15-7.59-22.27-7.86-34,0-1.54-.06-3.09-.07-4.63-.19-18.05,2-38.72,11.4-54.39,2.88-4.83,8.34-12.66,14.87-9.92C446.91,377.27,449.74,380.86,451.57,384.4Z"/><path class="cls-48" d="M746.34,310c-4.43-10.65-6.62-16-8.41-18.79a32.87,32.87,0,0,0-27.74-15.11c-11.35.2-21.63,6.37-32.12,10.82-5.69,2.41-12.51,4.25-17.71.89a10.26,10.26,0,0,0,10.36,8.11,27.57,27.57,0,0,1-6.54,6.29c-2.61,1.81-5.79,3.22-8.85,2.44-.64,16.39,7.05,33.09,20.25,42.33s30.64,11.43,45.86,6.45a36.66,36.66,0,0,0,11.6-6c-1-1.78-2.08-3.95-3.06-5.73.82,0,1.4.75,2,1.27a7.26,7.26,0,0,0,2.86,1.18,48.37,48.37,0,0,0,6.25,1.3,24.5,24.5,0,0,0,16.94-4.39,6.11,6.11,0,0,1-2.47-1,23.39,23.39,0,0,1-6.49-7.12,11.1,11.1,0,0,0,10.37,2.17,13.77,13.77,0,0,0,8.18-7.12c-4.38-.4-10.81-1.78-15.47-6.8C749.71,318.53,748.86,316,746.34,310Z"/><path class="cls-43" d="M718.85,342a23.73,23.73,0,0,1-18.7-.36c-10.47-4.62-14.79-14.76-14.75-25.35a41.54,41.54,0,0,1,1.39-10.51,42,42,0,0,1,3.71-9.41c3.22-5.91,8.51-12.2,15-14.26,7.59-2.43,16.58.24,22.32,5.72a29.94,29.94,0,0,1,7.71,12C740.58,314.83,733.77,335.73,718.85,342Z"/><path d="M717,309.43c-.29,1.27.16,2.46,1,2.67s1.77-.65,2.07-1.92-.16-2.46-1-2.67S717.28,308.16,717,309.43Z"/><path d="M694.43,303.2c-.29,1.27.16,2.46,1,2.67s1.77-.65,2.07-1.92-.16-2.46-1-2.67S694.73,301.93,694.43,303.2Z"/><g class="cls-44"><path class="cls-45" d="M707.45,303.94a11.07,11.07,0,0,0-2,3.73,17.44,17.44,0,0,0-1.07,4.57.52.52,0,0,0,1,.26,16.69,16.69,0,0,0,1.08-3.7,20,20,0,0,1,1.73-4.34c.21-.41-.36-.94-.69-.53Z"/></g><path d="M711.06,317.65a8.89,8.89,0,0,1-6.73,1c-2.79-.61-4.22-2.28-5.28-4.86a.42.42,0,0,0-.83.11c-.19,6.18,9.6,7.84,13.41,4.46.4-.36-.13-1.05-.58-.75Z"/><path class="cls-46" d="M718.25,320.62a5.21,5.21,0,1,0,5.34-5.21A5.29,5.29,0,0,0,718.25,320.62Z"/><path class="cls-46" d="M686.64,316.45a4.88,4.88,0,0,1-1.24-.19,41.54,41.54,0,0,1,1.39-10.51h.12a5.35,5.35,0,0,1-.27,10.7Z"/><path class="cls-48" d="M705,279.44c-5.19,1.85-9.39,5.76-14,8.84a49.51,49.51,0,0,1-14.1,6.52,40.2,40.2,0,0,0,14.27,3.67,21.63,21.63,0,0,0,14-4,13.33,13.33,0,0,1-4.2,3.79c4.47,2,10,.38,13.45-3.14,2.75-2.79,6.75-9.69,5.16-13.9C717.87,276.61,708.33,278.27,705,279.44Z"/><path class="cls-48" d="M719,280.17s22,4.84,20.21,30C739.22,310.21,719.19,307.28,719,280.17Z"/><g class="cls-53"><path class="cls-48" d="M684.93,300a80.65,80.65,0,0,1-12.75,8.59A84.29,84.29,0,0,1,657.13,314c-.13,0-.11.25,0,.24a49.44,49.44,0,0,0,28.22-13.71c.28-.29-.11-.85-.45-.58Z"/></g><g class="cls-53"><path class="cls-48" d="M682.06,312.77c-5.34,5.9-11.53,9.42-18.73,12.54-.31.14-.08.61.23.54,7.37-1.73,14.19-6.9,19-12.57.3-.35-.19-.85-.51-.51Z"/></g><g class="cls-53"><path class="cls-48" d="M683.64,326.44c-2.35,4.7-5.93,7.43-10.44,9.88a.29.29,0,0,0,.22.52c4.86-1.28,8.8-5.62,10.86-10,.2-.43-.43-.81-.64-.37Z"/></g><g class="cls-53"><path class="cls-48" d="M734.83,331.66c1.6,5,6.1,9.13,11.63,9.08a.21.21,0,0,0,.06-.41c-2.26-.85-4.58-1.33-6.6-2.75-2.27-1.59-3.34-3.76-4.61-6.11a.26.26,0,0,0-.47.2Z"/></g><g class="cls-53"><path class="cls-48" d="M740.67,314.15c3.06,7.15,10,13.42,18,14,.35,0,.42-.53.08-.61-7.79-2-14.15-6.21-17.63-13.67-.15-.33-.63,0-.49.28Z"/></g><g class="cls-53"><path class="cls-48" d="M737.93,322.7c1.5,3.08,4.33,6.35,7.76,7.27a.3.3,0,0,0,.23-.55,27.57,27.57,0,0,1-4.26-2.91,16.12,16.12,0,0,1-3.16-4.14c-.2-.37-.75,0-.57.33Z"/></g><path class="cls-50" d="M598.76,524c.68-32,6.64-83.3,36.72-134.59a254.79,254.79,0,0,1,25.36-35.76,107,107,0,0,1,81.59,11.62A515.9,515.9,0,0,0,709.6,520.92C694.59,522.37,678.82,523.48,598.76,524Z"/><path class="cls-51" d="M691,352.83a41.73,41.73,0,0,0-15.07,3.66,125.84,125.84,0,0,0-13.31,7.16,18.81,18.81,0,0,1,8.53,3.43,19.12,19.12,0,0,1,4.39,4.5,15.34,15.34,0,0,0-6.71,5.33,16,16,0,0,0-2.9,8.48L682,384.11l12.93-26.46a42.11,42.11,0,0,0,2.11-4.44A30.34,30.34,0,0,0,691,352.83Z"/><path class="cls-51" d="M716.55,359.63a44.53,44.53,0,0,1,5.5,14.87,133.74,133.74,0,0,1,1.68,15.33,19.12,19.12,0,0,0-7.55-5.33,18.42,18.42,0,0,0-6.09-1.21,16.12,16.12,0,0,1-.54,8.7,15.68,15.68,0,0,1-5.22,7.22l-8-14.37L710.46,359a41.91,41.91,0,0,1,2.4-4.29A31.9,31.9,0,0,1,716.55,359.63Z"/><path class="cls-43" d="M694.19,337.87a16.66,16.66,0,0,1,.78,8.28,16.45,16.45,0,0,1-3.73,8.05,25.45,25.45,0,0,0-8.87,6.94,30,30,0,0,0-6.26,18.64,12,12,0,0,0,1.63,6.24c2.72,4.32,8.22,4.93,12.76,4.13,5.13-.9,8.35-3.58,12.2-6.88a43.31,43.31,0,0,0,11.55-15.68,43.79,43.79,0,0,0,3.35-13.1,14.19,14.19,0,0,1,2.28-13C716.94,341.59,713.7,341.52,694.19,337.87Z"/><path class="cls-50" d="M742.43,365.28s31.65,20.9,38.11,50.57c0,0-33.12,23.37-57.26,11.39C723.28,427.25,729.79,387.67,742.43,365.28Z"/><path class="cls-51" d="M730.64,424.54c15.62,3.56,31.1-3.88,44.39-11.35.67-.37.08-1.36-.6-1-13.66,6.94-27.73,14.68-43.61,11.71-.43-.08-.62.56-.18.66Z"/><path class="cls-43" d="M771,421.5s11.95,42.37-4.58,95.12l-27.08,3.26s20.15-72.77,1.5-89.27C740.84,430.61,761.45,427.15,771,421.5Z"/><path class="cls-46" d="M694.19,337.87s8.83,8.79,23.42,3.63l-24.33,9.7S696.79,345.78,694.19,337.87Z"/></g></g></g></g></svg>