<?xml version="1.0" encoding="utf-8"?>
<!-- Generator: Adobe Illustrator 21.0.0, SVG Export Plug-In . SVG Version: 6.00 Build 0)  -->
<svg version="1.1" id="Layer_1" xmlns="http://www.w3.org/2000/svg" xmlns:xlink="http://www.w3.org/1999/xlink" x="0px" y="0px"
	 viewBox="0 0 1790 398" style="enable-background:new 0 0 1790 398;" xml:space="preserve">
<style type="text/css">
	.st0{fill:#FFFFFF;}
	.st1{opacity:0.29;fill:#84CE9D;enable-background:new    ;}
	.st2{opacity:0.5;}
	.st3{fill:#40A05D;}
	.st4{fill:none;stroke:#4FAA69;stroke-width:8;stroke-miterlimit:10;}
	.st5{fill:#6AB782;}
	.st6{fill:#95E887;}
	.st7{fill:#C8E94B;}
	.st8{fill:#A5C437;}
	.st9{opacity:0.25;}
	.st10{fill:none;stroke:#FFFFFF;stroke-width:0.83;stroke-linecap:round;stroke-linejoin:round;}
	.st11{fill:#E2E2E2;}
	.st12{fill:#FEC784;}
	.st13{fill:#E95F5C;}
	.st14{fill:#71D38A;}
	.st15{fill:#86EAA4;}
	.st16{fill:#C1E8C9;}
	.st17{fill:#1E6072;}
	.st18{fill:#184656;}
	.st19{fill:#F5FCFF;stroke:#0E2833;stroke-width:2.2;stroke-miterlimit:10;}
	.st20{fill:#1E7CD8;}
	.st21{fill:none;stroke:#40A05D;stroke-width:1.1;stroke-miterlimit:10;}
	.st22{fill:#C1E3EC;}
	.st23{fill:#84CE9D;}
	.st24{fill:#0B343F;}
	.st25{fill:#C0EDFF;}
	.st26{fill:#96CC9E;}
	.st27{fill:#6FC987;}
	.st28{fill:#F0FFF2;}
	.st29{fill:none;stroke:#6FC987;stroke-width:1.1;stroke-miterlimit:10;}
	.st30{fill:#76D38E;}
	.st31{fill:#EF929C;}
	.st32{fill:#A8D0FE;}
	.st33{opacity:0.18;fill:#4C65BA;enable-background:new    ;}
	.st34{fill:none;}
	.st35{opacity:0.29;fill:#4C65BA;enable-background:new    ;}
	.st36{fill:#EAE8C3;}
	.st37{fill:#4BAE9A;}
	.st38{fill:#86CFBE;}
	.st39{fill:#DEE1CC;}
	.st40{opacity:0.8;fill:#C9C9C9;enable-background:new    ;}
	.st41{fill:#FCB6AC;}
	.st42{fill:#153351;}
	.st43{fill:#174555;}
	.st44{fill:#FEAF84;}
	.st45{fill:#ED6D52;}
	.st46{fill:#011035;}
	.st47{fill:#E59470;}
	.st48{fill:#DB5842;}
	.st49{fill:#2F5B77;}
	.st50{fill:#44B194;}
	.st51{fill:#3CA083;}
	.st52{fill:#383874;}
	.st53{opacity:0.35;}
	.st54{fill:#5275A0;}
	.st55{fill:#8FCAF2;}
	.st56{fill:#B1DAFC;}
	.st57{fill:#1C4757;}
	.st58{fill:#F29870;}
	.st59{fill:#222B70;}
	.st60{fill:#2D80E2;}
	.st61{fill:#5390EA;}
	.st62{fill:#FFBE9D;}
	.st63{fill:#F2A181;}
	.st64{fill:#2C2C60;}
	.st65{opacity:0.4;fill:#7F7F7F;enable-background:new    ;}
	.st66{opacity:0.44;fill:#4C65BA;enable-background:new    ;}
</style>
<rect class="st0" width="1790.2" height="398"/>
<title>tintuc</title>
<g>
	<g id="Layer_1_1_">
		<path class="st1" d="M1731.7,234.5V80.8h-7.5V65.2h-57.8v15.6h-7.4v193.3h-54.3v-87.6h-79.1v114.9h-38.2V95.6h-77.9v158.1h-9.1
			v-94.1h-14.1l-39.3-19.2v19.2h-8.6v116.2h-19.1V118.4h-19.3V63.2h-2.6v55.2h-19.3V388h502.3V234.5H1731.7z M1314.7,219.6h-31.8
			v-3.4h31.8L1314.7,219.6z M1314.7,211.7h-31.8v-3.4h31.8L1314.7,211.7z M1314.7,203.7h-31.8v-3.4h31.8L1314.7,203.7z
			 M1314.7,195.8h-31.8v-3.4h31.8L1314.7,195.8z M1314.7,187.9h-31.8v-3.4h31.8L1314.7,187.9z M1314.7,180h-31.8v-3.4h31.8
			L1314.7,180z M1314.7,172h-31.8v-3.4h31.8L1314.7,172z M1314.7,164.1h-31.8v-3.4h31.8L1314.7,164.1z M1314.7,156.2h-31.8v-3.4
			h31.8L1314.7,156.2z M1314.7,148.3h-31.8v-3.4h31.8L1314.7,148.3z M1314.7,140.4h-31.8V137h31.8L1314.7,140.4z M1314.7,132.4
			h-31.8V129h31.8L1314.7,132.4z M1314.7,124.5h-31.8v-3.4h31.8L1314.7,124.5z M1426.3,171.6h-9.5v-8.8h9.5V171.6z M1426.3,157h-9.5
			v-8.8h9.5V157z M1426.3,142.4h-9.5v-8.8h9.5V142.4z M1426.3,127.7h-9.5V119h9.5V127.7z M1426.3,113.1h-9.5v-8.8h9.5V113.1z
			 M1444.3,171.6h-9.5v-8.8h9.5V171.6z M1444.3,157h-9.5v-8.8h9.5V157z M1444.3,142.4h-9.5v-8.8h9.5V142.4z M1444.3,127.7h-9.5V119
			h9.5V127.7z M1444.3,113.1h-9.5v-8.8h9.5V113.1z M1462.3,171.6h-9.5v-8.8h9.5V171.6z M1462.3,157h-9.5v-8.8h9.5V157z
			 M1462.3,142.3h-9.5v-8.8h9.5V142.3z M1462.3,127.7h-9.5V119h9.5V127.7z M1462.3,113.1h-9.5v-8.8h9.5V113.1z M1480.3,171.6h-9.5
			v-8.8h9.5V171.6z M1480.3,157h-9.5v-8.8h9.5V157z M1480.3,142.3h-9.5v-8.8h9.5V142.3z M1480.3,127.7h-9.5V119h9.5V127.7z
			 M1739.1,306.8h-9.8v-9.1h9.8V306.8z M1739.1,288.5h-9.8v-9.1h9.8V288.5z M1739.1,270.3h-9.8v-9.1h9.8V270.3z M1739.1,252h-9.8v-9
			h9.8V252z M1757.4,306.8h-9.8v-9.1h9.8V306.8z M1757.4,288.5h-9.8v-9.1h9.8V288.5z M1757.4,270.2h-9.8v-9.1h9.8V270.2z
			 M1757.4,252h-9.8v-9h9.8V252z M1775.7,306.8h-9.9v-9.1h9.9V306.8z M1775.7,288.5h-9.9v-9.1h9.9V288.5z M1775.7,270.2h-9.9v-9.1
			h9.9V270.2z M1775.7,252h-9.9v-9h9.9V252z"/>
		<path class="st1" d="M876.5,237.2V89.3h-7.2v-15h-55.6v15h-7.2v185.9h-52.2V191h-76v110.5h-36.8V103.6h-74.9v152.1h-8.8v-90.5
			h-13.5l-37.8-18.5v18.5h-8.3v111.8H480V125.5h-18.5V72.4h-2.5v53.1h-18.5v259.3h483V237.2H876.5z M475.5,222.8h-30.6v-3.3h30.6
			V222.8z M475.5,215.2h-30.6v-3.3h30.6V215.2z M475.5,207.6h-30.6v-3.3h30.6V207.6z M475.5,200h-30.6v-3.3h30.6V200z M475.5,192.4
			h-30.6v-3.3h30.6V192.4z M475.5,184.8h-30.6v-3.3h30.6V184.8z M475.5,177.1h-30.6v-3.3h30.6V177.1z M475.5,169.5h-30.6v-3.3h30.6
			V169.5z M475.5,161.9h-30.6v-3.3h30.6V161.9z M475.5,154.3h-30.6V151h30.6V154.3z M475.5,146.7h-30.6v-3.3h30.6V146.7z
			 M475.5,139.1h-30.6v-3.3h30.6V139.1z M475.5,131.5h-30.6v-3.3h30.6V131.5z M582.8,176.8h-9.1v-8.4h9.1V176.8z M582.8,162.7h-9.1
			v-8.4h9.1V162.7z M582.8,148.7h-9.1v-8.4h9.1V148.7z M582.8,134.6h-9.1v-8.5h9.1V134.6z M582.8,120.5h-9.1V112h9.1V120.5z
			 M600.1,176.8H591v-8.4h9.1L600.1,176.8z M600.1,162.7H591v-8.4h9.1L600.1,162.7z M600.1,148.6H591v-8.4h9.1L600.1,148.6z
			 M600.1,134.6H591v-8.5h9.1L600.1,134.6z M600.1,120.5H591V112h9.1L600.1,120.5z M617.5,176.8h-9.1v-8.4h9.1V176.8z M617.5,162.7
			h-9.1v-8.4h9.1V162.7z M617.5,148.6h-9.1v-8.4h9.1V148.6z M617.5,134.5h-9.1v-8.4h9.1V134.5z M617.5,120.5h-9.1V112h9.1V120.5z
			 M634.8,176.7h-9.1v-8.4h9.1V176.7z M634.8,162.7h-9.1v-8.4h9.1V162.7z M634.8,148.6h-9.1v-8.4h9.1V148.6z M634.8,134.5h-9.1v-8.4
			h9.1V134.5z M883.7,306.8h-9.5V298h9.5V306.8z M883.7,289.2h-9.5v-8.8h9.5V289.2z M883.7,271.7h-9.5v-8.8h9.5V271.7z M883.7,254.1
			h-9.5v-8.8h9.5V254.1z M901.3,306.8h-9.5V298h9.5V306.8z M901.3,289.2h-9.5v-8.8h9.5V289.2z M901.3,271.7h-9.5v-8.8h9.5V271.7z
			 M901.3,254.1h-9.5v-8.8h9.5V254.1z M918.9,306.8h-9.5V298h9.5V306.8z M918.9,289.2h-9.5v-8.8h9.5V289.2z M918.9,271.7h-9.5v-8.8
			h9.5V271.7z M918.9,254.1h-9.5v-8.8h9.5V254.1z"/>
		<path class="st1" d="M1197.1,103.4V32.5l-51.9,52.5v87.4h-33.4V47.2h-8.5l-24.2-21l-24.3,21h-8.4v169h-123v165.9h354.8V103.4
			H1197.1z M1103.3,148.4h-48.4v-4.6h48.4V148.4z M1103.3,139.2h-48.4v-4.6h48.4V139.2z M1103.3,130.1h-48.4v-4.6h48.4V130.1z
			 M1103.3,120.9h-48.4v-4.6h48.4V120.9z M1103.3,111.8h-48.4v-4.6h48.4V111.8z M1103.3,102.7h-48.4v-4.6h48.4V102.7z M1103.3,93.5
			h-48.4v-4.6h48.4V93.5z M1103.3,84.4h-48.4v-4.6h48.4V84.4z M1103.3,75.2h-48.4v-4.6h48.4V75.2z M1103.3,66.1h-48.4v-4.6h48.4
			V66.1z M1103.3,57h-48.4v-4.6h48.4V57z M1190.5,279.7h-5v-225l5-5.1V279.7z"/>
		<path class="st1" d="M385.3,163.5v123.1h-40.9V66h-83.5v169.5h-9.8V134.6H236L193.9,114v20.6h-9.2v124.6h-20.4V90.5h-20.7V31.3
			h-2.8v59.2h-20.7v289h319.4v-216L385.3,163.5z M159.3,198.9h-34.1v-3.7h34.1L159.3,198.9z M159.3,190.4h-34.1v-3.7h34.1
			L159.3,190.4z M159.3,181.9h-34.1v-3.7h34.1L159.3,181.9z M159.3,173.4h-34.1v-3.7h34.1L159.3,173.4z M159.3,165h-34.1v-3.7h34.1
			L159.3,165z M159.3,156.5h-34.1v-3.7h34.1L159.3,156.5z M159.3,148h-34.1v-3.7h34.1L159.3,148z M159.3,139.5h-34.1v-3.7h34.1
			L159.3,139.5z M159.3,131h-34.1v-3.7h34.1L159.3,131z M159.3,122.5h-34.1v-3.7h34.1L159.3,122.5z M159.3,114h-34.1v-3.7h34.1
			L159.3,114z M159.3,105.5h-34.1v-3.7h34.1L159.3,105.5z M159.3,97.1h-34.1v-3.7h34.1L159.3,97.1z M278.8,147.6h-10.1v-9.4h10.1
			L278.8,147.6z M278.8,131.9h-10.1v-9.4h10.1L278.8,131.9z M278.8,116.2h-10.1v-9.4h10.1L278.8,116.2z M278.8,100.6h-10.1v-9.4
			h10.1L278.8,100.6z M278.8,84.9h-10.1v-9.5h10.1L278.8,84.9z M298.1,147.6H288v-9.4h10.1L298.1,147.6z M298.1,131.9H288v-9.4h10.1
			L298.1,131.9z M298.1,116.2H288v-9.4h10.1L298.1,116.2z M298.1,100.6H288v-9.4h10.1L298.1,100.6z M298.1,84.9H288v-9.5h10.1
			L298.1,84.9z M317.4,147.6h-10.2v-9.4h10.2L317.4,147.6z M317.4,131.9h-10.2v-9.4h10.2L317.4,131.9z M317.4,116.2h-10.2v-9.4h10.2
			L317.4,116.2z M317.4,100.6h-10.2v-9.4h10.2L317.4,100.6z M317.4,84.9h-10.2v-9.5h10.2L317.4,84.9z M336.7,147.6h-10.1v-9.4h10.1
			L336.7,147.6z M336.7,131.9h-10.1v-9.4h10.1L336.7,131.9z M336.7,116.2h-10.1v-9.4h10.1L336.7,116.2z M336.7,100.6h-10.1v-9.4
			h10.1L336.7,100.6z"/>
		<g class="st2">
			<path class="st3" d="M591.5,60.3C587.7,57.9,576,60,576,60s2.7-1.1,2.7-2.4c-0.1-1.4-1-2.6-2.4-3.2c-1.3-0.5-2.8-0.7-4.2-0.5
				c-2.9,0.2-5.7,0.8-8.4,1.8c1.1-0.7,1.5-2.2,0.7-3.3c0,0,0,0,0,0c-0.9-1.1-2.4-1.3-3.5-0.5c1.8-2.4,4.6-12.9-4-17.5
				c-10.8-5.8-18.9-1-20.7,2.5c-0.9-3.4-4.9-6-7.6-6.7c-6.1-1.5-10.1-1-15.8,1.5c-2,0.9-4.7,4-6,5.8c-0.8,1.1-1.4,2.3-1.8,3.6
				c-1.6-0.1-3.2,0.2-4.6,1c-6.3,3.4-4.3,11.2-2.9,13c-0.8-0.6-2-0.5-2.6,0.3c-0.6,0.8-0.3,1.9,0.5,2.5c0,0,0,0,0,0
				c-2-0.8-4.1-1.2-6.2-1.3c-1-0.1-2.1,0-3.1,0.4c-1,0.4-1.7,1.3-1.8,2.3c0,1,2,1.8,2,1.8s-8.7-1.5-11.4,0.2c-3.3,2-1.4,2.6-0.8,2.6
				l53.4-0.7l-0.3-0.2l65,0.9C593.3,63.8,595.8,63,591.5,60.3z"/>
		</g>
		<g class="st2">
			<path class="st3" d="M250.7,80.5c-2.2-1.4-9.1-0.1-9.1-0.1s1.6-0.6,1.6-1.4c-0.1-0.8-0.6-1.5-1.4-1.8c-0.8-0.3-1.6-0.4-2.4-0.3
				c-1.7,0.1-3.3,0.5-4.9,1.1c0.7-0.4,0.9-1.3,0.4-2c0,0,0,0,0,0c-0.5-0.6-1.4-0.7-2.1-0.3c1.1-1.4,2.7-7.6-2.3-10.3
				c-6.3-3.4-11.1-0.6-12.1,1.4c-0.5-2-2.9-3.5-4.5-3.9c-3.1-0.9-6.4-0.6-9.2,0.9c-1.4,0.9-2.6,2-3.5,3.4c-0.5,0.6-0.8,1.3-1,2.1
				c-0.9-0.1-1.9,0.2-2.7,0.6c-3.7,2-2.5,6.6-1.7,7.6c-0.5-0.4-1.2-0.3-1.5,0.2c-0.3,0.4-0.2,1.1,0.2,1.4c0,0,0.1,0,0.1,0.1
				c-1.2-0.5-2.4-0.7-3.6-0.8c-0.6-0.1-1.2,0-1.8,0.2c-0.6,0.2-1,0.8-1,1.4c0,0.6,1.2,1.1,1.2,1.1s-5.1-0.9-6.7,0.1
				c-1.9,1.2-0.8,1.5-0.4,1.5l31.3-0.4l-0.1-0.1l38.1,0.5C251.8,82.5,253.3,82.1,250.7,80.5z"/>
		</g>
		<g class="st2">
			<path class="st3" d="M765.3,71.7c-3.7-2.3-15.5-0.2-15.5-0.2s2.7-1.1,2.7-2.4c-0.1-1.4-1-2.6-2.4-3.2c-1.3-0.5-2.8-0.7-4.2-0.5
				c-2.9,0.2-5.7,0.8-8.4,1.8c1.1-0.7,1.5-2.2,0.7-3.3c0,0,0,0,0,0c-0.9-1.1-2.4-1.3-3.5-0.5c1.8-2.4,4.6-12.9-4-17.5
				c-10.8-5.8-18.9-1-20.7,2.5c-0.9-3.4-4.9-6-7.6-6.7c-6.1-1.5-10.1-1-15.8,1.5c-2,0.9-4.7,4-6,5.8c-0.8,1-1.4,2.2-1.8,3.5
				c-1.6-0.1-3.2,0.2-4.6,1c-6.3,3.4-4.3,11.2-2.9,13c-0.8-0.6-2-0.5-2.6,0.3c-0.6,0.8-0.3,1.9,0.5,2.5c0,0,0,0,0,0
				c-2-0.8-4.1-1.2-6.2-1.3c-1-0.1-2.1,0-3.1,0.4c-1,0.4-1.7,1.3-1.8,2.3c0,1,2,1.8,2,1.8s-8.7-1.6-11.4,0.2c-3.3,2-1.4,2.6-0.8,2.6
				l53.4-0.7l-0.3-0.2l65,0.9C767.2,75.2,769.7,74.4,765.3,71.7z"/>
		</g>
		<g class="st2">
			<path class="st3" d="M1651.2,167.7c-3.7-2.3-15.5-0.2-15.5-0.2s2.7-1.1,2.7-2.4c-0.1-1.4-1-2.6-2.4-3.2c-1.3-0.5-2.8-0.7-4.2-0.5
				c-2.9,0.2-5.7,0.8-8.4,1.8c1.1-0.7,1.5-2.2,0.7-3.3c0,0,0,0,0,0c-0.9-1.1-2.4-1.3-3.5-0.4c1.8-2.4,4.6-12.9-4-17.6
				c-10.8-5.8-18.9-1-20.7,2.5c-0.9-3.4-4.9-6-7.6-6.7c-6.1-1.5-10.1-1-15.8,1.6c-2,0.9-4.7,4-6,5.8c-0.8,1.1-1.4,2.3-1.8,3.6
				c-1.6-0.1-3.2,0.2-4.6,1c-6.3,3.4-4.3,11.2-2.9,13c-0.8-0.6-2-0.5-2.6,0.3c-0.6,0.8-0.3,1.9,0.5,2.5c0,0,0,0,0,0
				c-2-0.8-4.1-1.2-6.2-1.4c-1-0.1-2.1,0-3.1,0.4c-1,0.4-1.7,1.3-1.8,2.3c0,1,2,1.8,2,1.8s-8.7-1.6-11.4,0.2c-3.3,2-1.4,2.6-0.8,2.6
				l53.4-0.7l-0.3-0.1l65,0.9C1653.1,171.2,1655.6,170.4,1651.2,167.7z"/>
		</g>
		<g class="st2">
			<path class="st3" d="M1316.7,88.9c-3.7-2.3-15.5-0.2-15.5-0.2s2.7-1.1,2.7-2.4c-0.1-1.4-1-2.6-2.4-3.2c-1.3-0.5-2.8-0.7-4.2-0.5
				c-2.9,0.2-5.7,0.8-8.4,1.8c1.1-0.7,1.5-2.2,0.7-3.3c0,0,0,0,0,0c-0.9-1.1-2.4-1.3-3.5-0.4c1.8-2.4,4.6-12.9-4-17.5
				c-10.8-5.8-18.9-1-20.7,2.5c-0.9-3.4-4.9-6-7.6-6.7c-6.1-1.5-10.1-1-15.8,1.5c-2,0.9-4.7,4-6,5.8c-0.8,1.1-1.4,2.3-1.8,3.6
				c-1.6-0.1-3.2,0.2-4.6,1c-6.3,3.4-4.3,11.2-2.9,13c-0.8-0.6-2-0.5-2.6,0.3c-0.6,0.8-0.3,1.9,0.5,2.5c0,0,0,0,0,0
				c-2-0.8-4.1-1.2-6.2-1.3c-1-0.1-2.1,0-3.1,0.4c-1,0.4-1.7,1.3-1.8,2.3c0,1,2,1.8,2,1.8s-8.7-1.6-11.4,0.2c-3.3,2-1.4,2.6-0.8,2.6
				l53.4-0.7l-0.3-0.2l65,0.9C1318.6,92.5,1321.1,91.7,1316.7,88.9z"/>
		</g>
		<line class="st4" x1="1.3" y1="384.8" x2="1790.2" y2="384.8"/>
		<path class="st5" d="M115.8,339.1c0,0-16-57.5-32.8-48.8c-18.1,9.4,24.4,26.5,27.5,50.5"/>
		<path class="st5" d="M114,342c0,0-29.3-41.7-40.3-29.9c-11.9,12.7,27.2,14.4,36.5,32.8"/>
		<path class="st5" d="M112.3,341.4c0,0-45.6-22.7-49.7-7.1c-4.4,16.8,30.7-0.3,47.7,11.5"/>
		<path class="st6" d="M210.8,338.2c-2.5,0-5,0.3-7.5,0.8c-7.8-24.7-34.1-38.4-58.8-30.6c-2.2,0.7-4.3,1.6-6.4,2.6
			c0.1-4.7-1.5-9.9-6.7-14.6c0,0-7.6,8.9-3.3,20c-4.5-3.3-10.9-5.6-19.2-2.2c0,0,3.6,8,12.3,10.7c-1.6,2.1-2.9,4.3-4.1,6.6
			c-4.3-1.7-9.2,0.5-10.9,4.9c-0.3,0.8-0.5,1.7-0.5,2.6c-2.5-0.6-5.1-0.9-7.8-0.9c-19.7,0-35.6,16-35.7,35.7c0,3,0.4,6,1.2,8.9h182
			c0.7-2.9,1.1-5.9,1.1-8.9C246.5,354.1,230.5,338.2,210.8,338.2z"/>
		<path class="st5" d="M277.6,375.6c0,2.4-0.3,4.8-0.9,7.1h-146c-0.6-2.3-0.9-4.7-0.9-7.1c0-15.8,12.8-28.6,28.6-28.6
			c4.3,0,8.5,0.9,12.3,2.8c5.2-20.1,25.7-32.3,45.8-27.1c12.6,3.2,22.6,12.7,26.5,25c2-0.4,4-0.6,6-0.6
			C264.7,347,277.5,359.8,277.6,375.6C277.6,375.6,277.6,375.6,277.6,375.6z"/>
		<path class="st5" d="M193.2,378.3c0,1.5-0.2,3-0.6,4.5h-92c-0.4-1.5-0.6-3-0.6-4.5c0-9.9,8-18,18-18c2.7,0,5.3,0.6,7.8,1.8
			c3.2-12.7,16.2-20.4,28.9-17.1c7.9,2,14.2,8,16.7,15.8c1.2-0.3,2.5-0.4,3.8-0.4C185.1,360.2,193.2,368.3,193.2,378.3
			C193.2,378.2,193.2,378.2,193.2,378.3z"/>
		<path class="st5" d="M98.6,345.6c-3.3,3.3-4.9,7.8-4.6,12.4c-2.8-3.6-7.1-5.8-11.7-5.9c0,0,0,13.5,15.4,15.1l0,0
			C97.7,367.2,107.4,356.8,98.6,345.6z"/>
		<path class="st7" d="M173.6,299.2c-2.9,1.1-5.2,3.4-6.3,6.3c-0.7-3-2.7-5.5-5.5-6.9c0,0-3.8,8.2,5.2,13.6l0,0
			C167,312.2,175.9,308.4,173.6,299.2z"/>
		<path class="st7" d="M238.3,325.7c-3-0.8-6.2-0.3-8.8,1.5c1.2-2.9,1-6.1-0.5-8.8c0,0-7.8,4.5-3.6,14.1l0,0
			C225.4,332.5,234.8,334.6,238.3,325.7z"/>
		<path class="st8" d="M205,336.8c-2.2,2.2-3.3,5.2-3.1,8.3c-1.9-2.4-4.8-3.9-7.9-4c0,0,0,9,10.4,10.2l0,0
			C204.4,351.3,211,344.3,205,336.8z"/>
		<path class="st8" d="M191.1,354.4c-3.1,0.3-5.9,1.9-7.7,4.4c0.1-3.1-1.2-6.1-3.5-8.1c0,0-5.8,7,1.5,14.5l0,0
			C181.3,365.2,190.8,363.9,191.1,354.4z"/>
		<path class="st8" d="M253.2,343.6c-1.8,0.4-3.3,1.5-4.2,3.1c-0.1-1.8-1.1-3.4-2.6-4.4c0,0-2.9,4.4,1.8,8.2l0,0
			C248.3,350.5,253.7,349.2,253.2,343.6z"/>
		<path class="st5" d="M134.9,329.7c-1.5,2.7-1.8,6-0.7,8.9c-2.5-1.8-5.7-2.4-8.7-1.7c0,0,2.5,8.7,12.8,6.9l0,0
			C138.4,343.8,142.7,335.3,134.9,329.7z"/>
		<path class="st6" d="M144.3,294.6c-1.3-2.8-2.7-5.6-2.6-8.7c0.1-2.8,0-6,0.7-8.7c0.7-2.8,0.9-5.6,0.6-8.4c-1-8.8-4.7-8.3-6.1-7.8
			s-2.1,1.9-2.4,4.1c-0.3,1.8,0.1,10.5-2.6,9c-3.1-1.8-2-10.8-2.2-13.8c-0.3-4.6-1.6-9.5-4.7-13c-1.5-1.7-3.9-3.1-6-2.3
			c-1.3,0.6-2.3,1.6-2.8,2.9c-1.7,3.7-0.8,7.9,0.3,11.7c0.5,1.6,4.9,9.1,0.7,8c-1-0.3-8.8-7.9-10.4-1c-0.6,2.4,1.9,5.2,5.9,8.8
			c2.5,2.2,12,8.4,11.2,11s-5.9-2.3-5.8,2.8c0.1,2.9,3.6,5.3,5.9,6.6c1.1,0.6,2.4,1,3.5,1.7c1.3,0.8,2.8,2.7,1.6,4.2
			c-0.5,0.7-1.4,0.9-2,1.6c-0.5,0.7-0.5,1.7-0.1,2.5c0.4,0.8,1,1.4,1.7,1.9c4.4,3.4,10.2,4.5,15.7,4s10.8-2.5,15.9-4.7"/>
		<g class="st9">
			<path class="st10" d="M121.1,250c0,0,2.6,30,18.5,50.2"/>
			<path class="st10" d="M110.9,268.5c0,0,9.1,8.8,17.2,10.8"/>
			<path class="st10" d="M138,264.8c0,4.7-0.9,17.6-5.9,23.4"/>
			<path class="st10" d="M121.7,290.5c0,0,3.6,3.8,15.5,6.4"/>
			<path class="st10" d="M129.5,304.3c4,1,8.2,0.7,12-0.9"/>
		</g>
		<ellipse class="st11" cx="1686.8" cy="379.1" rx="17.6" ry="2.8"/>
		<path class="st12" d="M1691.2,356c0,0,8.5-5.7,8.4-14.7c-0.1-11,7-6.3,7.8-15c0.8-8-3.8-7.6-5-12.9s-5.4-9-6.9,0.1
			s4,12.3,0.5,16.8s-8.7-0.1-9.7,8s3.4,13.4-0.4,18.3"/>
		<g class="st2">
			<path class="st0" d="M1698.6,311.5c1.3,3.8,2,7.8,2.1,11.8c0,2-0.3,4.1-0.9,6c-0.6,1.9-1.5,3.7-2.6,5.4c-2.2,3.4-5.1,6.2-7,9.7
				c-1.9,3.5-2.7,7.5-2.4,11.5h-0.1c-0.6-4,0.1-8.1,2-11.8c1.9-3.6,4.9-6.4,7.3-9.6c1.2-1.6,2.1-3.4,2.7-5.3
				c0.5-1.9,0.7-3.9,0.6-5.9C1700.2,319.3,1699.6,315.4,1698.6,311.5L1698.6,311.5z"/>
		</g>
		<path class="st13" d="M1691,355.3c0,0,2-9.3-2.2-14.2s-6-6.2-7-10.2s1.6-8.5-0.6-11.2s-8.1-3.6-8.9,3.8s4.1,10,5.4,14.2
			s-2.7,11,1.3,17.8"/>
		<g class="st2">
			<path class="st0" d="M1677.6,320.6c-0.1,3.2,0.1,6.4,0.8,9.5c0.3,1.6,0.7,3.1,1.4,4.6c0.6,1.5,1.3,2.9,2,4.4
				c1.4,2.9,2.5,5.9,3.3,9c0.8,3.1,1.1,6.4,0.9,9.6h-0.1c-0.1-3.2-0.6-6.4-1.4-9.5c-0.8-3.1-1.8-6.1-3-9.1c-1.1-3-2.8-5.8-3.5-9
				C1677.3,327.1,1677.1,323.8,1677.6,320.6L1677.6,320.6z"/>
		</g>
		<path class="st14" d="M1674.5,354.7l1.8,20.1c0.2,2.5,2.3,4.4,4.8,4.4h11.2c2.5,0,4.6-1.9,4.8-4.4l1.8-20.1L1674.5,354.7z"/>
		<path class="st15" d="M1674.5,354.7l1.8,20.1c0.2,2.5,2.3,4.4,4.8,4.4h5.4c2.5,0,4.6-1.9,4.8-4.4l1.8-20.1L1674.5,354.7z"/>
		<path class="st16" d="M1675,357.3h23.5c1.1,0,2-0.9,2-2l0,0c0-1.1-0.9-2-2-2H1675c-1.1,0-2,0.9-2,2l0,0
			C1673,356.4,1673.9,357.3,1675,357.3z"/>
		<path class="st17" d="M1049.9,99.5v197.2c0,5.6-4.5,10.2-10.2,10.3c0,0,0,0,0,0H699.5c-5.6,0-10.2-4.6-10.2-10.2V99.5
			c0-5.6,4.6-10.2,10.2-10.2h340.1C1045.3,89.3,1049.9,93.9,1049.9,99.5z"/>
		<path class="st18" d="M1048.6,100.5v194.6c0,5.6-4.6,10.1-10.1,10.1H700.9c-5.6,0-10.1-4.5-10.2-10.1V100.5
			c0-5.6,4.6-10.1,10.2-10.1h337.5C1044,90.4,1048.6,94.9,1048.6,100.5z"/>
		<rect x="716.6" y="98.8" class="st19" width="306.3" height="198.6"/>
		<path class="st20" d="M773.2,157.9c0,5.9-4.7,9.3-13.7,9.3h-17.6v-34.1h16.7c8.5,0,12.9,3.6,12.9,8.9c0.1,3.2-1.7,6.1-4.5,7.5
			C770.7,150.5,773.3,154,773.2,157.9z M749.7,139.1v8h7.8c3.8,0,6-1.4,6-4s-2.1-4-6-4H749.7z M765.2,157.1c0-2.9-2.2-4.2-6.3-4.2
			h-9.2v8.4h9.2C763,161.3,765.2,160,765.2,157.1L765.2,157.1z"/>
		<path class="st20" d="M777.7,133.1c0-2.4,1.9-4.2,4.7-4.2s4.7,1.8,4.7,4.1c0,2.5-1.9,4.4-4.7,4.4S777.7,135.5,777.7,133.1z
			 M778.6,141h7.6v26.2h-7.6V141z"/>
		<path class="st20" d="M820.1,152.2v15h-7.6v-13.8c0-4.2-2-6.2-5.3-6.2c-3.7,0-6.3,2.2-6.3,7.1v13h-7.6v-36.2h7.6v12.7
			c2.3-2.1,5.3-3.2,8.3-3.1C815.4,140.6,820.1,144.2,820.1,152.2z"/>
		<path class="st20" d="M850.2,152.3v15h-7.1V164c-1.4,2.4-4.1,3.7-8,3.7c-6.1,0-9.8-3.4-9.8-7.9s3.3-7.9,11.3-7.9h6
			c0-3.3-2-5.2-6-5.2c-2.7,0-5.4,0.8-7.6,2.4l-2.7-5.3c3.4-2.2,7.3-3.3,11.3-3.2C845.6,140.6,850.2,144.3,850.2,152.3z M842.6,158.9
			v-2.7h-5.2c-3.6,0-4.7,1.3-4.7,3.1s1.6,3.2,4.3,3.2C839.4,162.7,841.7,161.2,842.6,158.9L842.6,158.9z"/>
		<path class="st20" d="M901.4,152.2v15h-7.6v-13.8c0-4.2-1.9-6.2-5-6.2c-3.4,0-5.8,2.2-5.8,6.9v13.2h-7.6v-13.8
			c0-4.2-1.8-6.2-5-6.2c-3.4,0-5.8,2.2-5.8,6.9v13.2H857V141h7.3v3c2.1-2.3,5.1-3.5,8.2-3.4c3.7,0,6.8,1.4,8.6,4.3
			c2.3-2.8,5.8-4.4,9.5-4.3C896.9,140.6,901.4,144.2,901.4,152.2z"/>
		<path class="st20" d="M931.4,152.3v15h-7.1V164c-1.4,2.4-4.1,3.7-8,3.7c-6.1,0-9.8-3.4-9.8-7.9s3.3-7.9,11.3-7.9h6
			c0-3.3-2-5.2-6-5.2c-2.7,0-5.4,0.8-7.6,2.4l-2.7-5.3c3.4-2.2,7.3-3.3,11.3-3.2C926.8,140.6,931.4,144.3,931.4,152.3z M923.8,158.9
			v-2.7h-5.2c-3.6,0-4.7,1.3-4.7,3.1s1.6,3.2,4.3,3.2C920.6,162.7,922.9,161.2,923.8,158.9L923.8,158.9z"/>
		<line class="st21" x1="920.8" y1="175.8" x2="760" y2="175.8"/>
		<rect x="858.3" y="194.4" class="st22" width="73.2" height="3.7"/>
		<rect x="843.3" y="202.2" class="st22" width="88.2" height="3.7"/>
		<rect x="843.3" y="210" class="st22" width="88.2" height="3.7"/>
		<rect x="843.3" y="217.8" class="st22" width="88.2" height="3.7"/>
		<rect x="843.3" y="225.6" class="st22" width="88.2" height="3.7"/>
		<rect x="843.3" y="233.4" class="st22" width="53.6" height="3.7"/>
		<rect x="843.3" y="241.2" class="st22" width="88.2" height="3.7"/>
		<rect x="843.3" y="249" class="st22" width="64.2" height="3.7"/>
		<rect x="843.3" y="256.8" class="st22" width="88.2" height="3.7"/>
		<rect x="843.3" y="264.6" class="st22" width="35.1" height="3.7"/>
		<rect x="881.1" y="264.6" class="st22" width="22.9" height="3.7"/>
		<rect x="742.9" y="272.4" class="st22" width="126.7" height="3.7"/>
		<rect x="873.2" y="272.4" class="st22" width="61.8" height="3.7"/>
		<rect x="742.9" y="280.2" class="st22" width="47.9" height="3.7"/>
		<rect x="795.5" y="280.2" class="st22" width="61.2" height="3.7"/>
		<rect x="860.8" y="280.2" class="st22" width="61.7" height="3.7"/>
		<rect x="945.1" y="122.3" class="st22" width="66.7" height="52.4"/>
		<polygon class="st23" points="945.1,174.7 959.5,154.4 974,174.7 		"/>
		<polygon class="st23" points="960.5,174.7 986.1,138.6 1011.8,174.7 		"/>
		<circle class="st12" cx="962" cy="134.1" r="7.4"/>
		<rect x="742.9" y="193.9" class="st22" width="93.2" height="73.1"/>
		<polygon class="st23" points="742.9,266.9 763.1,238.6 783.3,266.9 		"/>
		<polygon class="st23" points="764.4,266.9 800.2,216.6 836,266.9 		"/>
		<circle class="st12" cx="766.5" cy="210.4" r="10.4"/>
		<rect x="945.1" y="194.4" class="st23" width="46.3" height="44.8"/>
		<rect x="965.5" y="239.1" class="st22" width="46.3" height="44.8"/>
		<path class="st24" d="M1035.8,219.7L1035.8,219.7c-1.2,0-2.3-1-2.3-2.3l0,0v-38.6c0-1.2,1-2.3,2.3-2.3l0,0c1.2,0,2.3,1,2.3,2.3
			v38.6C1038.1,218.7,1037,219.7,1035.8,219.7L1035.8,219.7z"/>
		<path class="st24" d="M703.2,219.7L703.2,219.7c-4.9,0-8.8-3.9-8.8-8.8v-25.5c0-4.9,3.9-8.8,8.8-8.8l0,0c4.9,0,8.8,3.9,8.8,8.8
			v25.5C712,215.7,708,219.7,703.2,219.7z"/>
		<path class="st5" d="M1591.2,369.2c0,0,10.1-36.3,20.7-30.8c11.4,5.9-15.4,16.7-17.3,31.9"/>
		<path class="st5" d="M1592.3,371c0,0,18.5-26.3,25.4-18.8c7.5,8-17.1,9.1-23,20.7"/>
		<path class="st5" d="M1593.3,370.6c0,0,28.8-14.4,31.3-4.5c2.8,10.6-19.4-0.2-30.1,7.2"/>
		<polyline class="st0" points="1539.2,262.9 1517,349.8 1521.2,350.8 1548.7,265.3 		"/>
		<path class="st25" d="M1548,240.7l-6.7,26.4c-0.3,1.3,0.5,2.7,1.8,3l0,0c1.3,0.3,2.7-0.5,3-1.8l0.8-3c0,0,3.5-7.5,13.3-4.4
			c0,0-11.7-1.5-12.1-1.4S1548.4,239.3,1548,240.7z"/>
		<polyline class="st0" points="1535.9,262.1 1535.8,351.8 1531.5,351.8 1526.1,262.1 		"/>
		<path class="st25" d="M1532.8,238.4c0,1.5,0,27.3,0,27.3c0,1.4-1.1,2.5-2.5,2.5l0,0c-1.4,0-2.5-1.1-2.5-2.5v-3.1
			c0,0-1.6-8.2-11.8-7.6c0,0,11.7,1.5,12,1.6S1532.8,237,1532.8,238.4z"/>
		<path class="st15" d="M1537.5,266.2c-0.9,3.4,1.2,6.9,4.6,7.8c3.4,0.9,6.9-1.2,7.8-4.6l0,0c0.2-1.1,0.6-2.2,1.2-3.2
			c1.2-1.8,3.8-2.4,8.3-1.3l0.2,0.1c11.3,2.9,23.3-5.9,26.8-19.6s-2.9-27.1-14.2-30s-23.3,5.9-26.8,19.6c-0.1,0.5-0.2,1-0.3,1.5l0,0
			L1537.5,266.2z M1561.6,257.3c-7.1-1.8-10.9-11-8.5-20.5s10.2-15.7,17.3-13.9s10.9,11,8.5,20.5S1568.7,259.1,1561.6,257.3z"/>
		<path class="st15" d="M1494.4,233.4c0,14.1,9.5,25.6,21.2,25.6h0.3c4.7,0.1,6.9,1.3,7.7,3.3c0.3,1.1,0.4,2.3,0.4,3.4
			c0,3.5,2.9,6.4,6.4,6.4s6.4-2.9,6.4-6.4v-30.8l0,0c0-0.5,0.1-1,0.1-1.5c0-14.1-9.5-25.6-21.2-25.6S1494.4,219.3,1494.4,233.4z
			 M1502.3,233.4c0-9.8,6-17.7,13.3-17.7s13.3,8,13.3,17.8s-6,17.7-13.3,17.7S1502.3,243.1,1502.3,233.4L1502.3,233.4z"/>
		<path class="st26" d="M1518.4,228.9c0.2,0,0.4-0.2,0.5-0.5l0.2-2.5c0-0.3-0.2-0.5-0.5-0.5s-0.5,0.2-0.5,0.5l-0.2,2.5
			C1517.8,228.6,1518,228.9,1518.4,228.9C1518.3,228.9,1518.3,228.9,1518.4,228.9L1518.4,228.9z"/>
		<polygon class="st16" points="1507.5,341.9 1514.1,342.3 1521.1,236.4 1517.8,236.2 1514.5,235.9 		"/>
		<polygon class="st16" points="1517.8,227.4 1519.1,227.4 1521.1,236.4 1514.5,235.9 		"/>
		<path class="st16" d="M1517.4,318.8l-11.3,2.1l0,0l-17.7-96.1c-0.2-1,0.5-2,1.5-2.2l0,0l7.4-1.4c1-0.2,2,0.5,2.2,1.5c0,0,0,0,0,0
			L1517.4,318.8L1517.4,318.8L1517.4,318.8z"/>
		<path class="st27" d="M1495.9,227l-11.3,2l0,0l-1.6-8.9c-0.2-1,0.5-2.1,1.6-2.2l0,0l7.5-1.4c1-0.2,2.1,0.5,2.2,1.6c0,0,0,0,0,0
			L1495.9,227L1495.9,227z"/>
		
			<rect x="1484.9" y="227.8" transform="matrix(0.9841 -0.1778 0.1778 0.9841 -17.0598 268.6415)" class="st28" width="11.5" height="3.4"/>
		
			<rect x="1471.3" y="231.9" transform="matrix(0.9304 -0.3667 0.3667 0.9304 -1.4665 562.9882)" class="st16" width="19.8" height="107"/>
		<line class="st29" x1="1459.8" y1="240.1" x2="1453.7" y2="242.5"/>
		<line class="st29" x1="1461.8" y1="245.3" x2="1455.7" y2="247.7"/>
		<line class="st29" x1="1463.8" y1="250.4" x2="1457.8" y2="252.8"/>
		<line class="st29" x1="1468.8" y1="254.4" x2="1459.8" y2="258"/>
		<line class="st29" x1="1467.9" y1="260.8" x2="1461.8" y2="263.2"/>
		<line class="st29" x1="1469.9" y1="266" x2="1463.9" y2="268.4"/>
		<line class="st29" x1="1472" y1="271.1" x2="1465.9" y2="273.5"/>
		<line class="st29" x1="1477" y1="275.1" x2="1468" y2="278.7"/>
		<line class="st29" x1="1476.1" y1="281.5" x2="1470" y2="283.9"/>
		<line class="st29" x1="1478.1" y1="286.6" x2="1472" y2="289"/>
		<line class="st29" x1="1480.1" y1="291.8" x2="1474.1" y2="294.2"/>
		<line class="st29" x1="1485.2" y1="295.8" x2="1476.1" y2="299.4"/>
		<line class="st29" x1="1484.2" y1="302.2" x2="1478.2" y2="304.5"/>
		<line class="st29" x1="1486.3" y1="307.3" x2="1480.2" y2="309.7"/>
		<line class="st29" x1="1488.3" y1="312.5" x2="1482.2" y2="314.9"/>
		<line class="st29" x1="1493.3" y1="316.5" x2="1484.3" y2="320.1"/>
		<line class="st29" x1="1492.4" y1="322.8" x2="1486.3" y2="325.2"/>
		<line class="st29" x1="1494.4" y1="328" x2="1488.3" y2="330.4"/>
		<line class="st29" x1="1496.4" y1="333.2" x2="1490.4" y2="335.6"/>
		<path class="st30" d="M1552.3,289.9l-9.8,88.5c-0.5,4.1-3.9,7.1-8,7.1h-48.9c-4.1,0-7.5-3-8-7.1l-9.8-88.5
			c-0.2-1.1,0.6-2.1,1.7-2.3c0.1,0,0.2,0,0.3,0h80.3c1.1-0.1,2.1,0.7,2.2,1.8C1552.3,289.6,1552.3,289.7,1552.3,289.9z"/>
		<path class="st15" d="M1552.3,289.9l-9.8,88.5c-0.5,4.1-3.9,7.1-8,7.1h-30.1c-4.1,0-7.5-3-8-7.1l-9.8-88.5
			c-0.2-1.1,0.6-2.1,1.7-2.3c0.1,0,0.2,0,0.3,0h61.7c1.1-0.1,2.1,0.8,2.1,1.9C1552.3,289.6,1552.3,289.7,1552.3,289.9z"/>
		<path class="st23" d="M1537.1,348.1c-2.2,0-4.3,0.2-6.4,0.7c-6.7-21.1-29.2-32.7-50.2-26c-1.9,0.6-3.7,1.3-5.4,2.2
			c0.1-4.8-2-9.4-5.7-12.5c0,0-6.5,7.6-2.8,17.1c-4.7-3.6-11-4.3-16.4-1.9c2.2,4.3,5.9,7.6,10.5,9.2c-0.1-0.2-0.2-0.4-0.4-0.6
			c-0.5-0.7-1-1.4-1.6-2c-1.4-0.5-2.8-0.8-4.3-1c-8.8-1.1-15.8,3.6-18.5,5.6c-2.8-1.3-3.8-0.6-4.2-0.4c-0.9,0.7-0.7,2-0.7,6
			c0.1,3.3,0.1,4.9,0,5.3c-0.9,5.9-11.6,4.9-16.7,13.7c-4,6.9-5.1,15.1-3.1,22.8h155.4c0.6-2.5,1-5,1-7.5
			C1567.6,361.8,1554,348.1,1537.1,348.1C1537.2,348.1,1537.2,348.1,1537.1,348.1z"/>
		<path class="st6" d="M1606,380c0,2-0.3,4.1-0.8,6.1h-124.6c-0.5-2-0.8-4-0.8-6.1c0-13.5,11-24.4,24.5-24.4c3.6,0,7.2,0.8,10.4,2.4
			c4.4-17.2,21.9-27.6,39.1-23.2c10.7,2.7,19.3,10.8,22.6,21.3c1.7-0.4,3.4-0.6,5.2-0.5C1595.1,355.7,1606,366.5,1606,380z"/>
		<path class="st23" d="M1518.8,382.3c0,1.3-0.2,2.6-0.5,3.8h-78.5c-0.3-1.2-0.5-2.5-0.5-3.8c0-8.5,6.9-15.4,15.4-15.4
			c2.3,0,4.6,0.5,6.6,1.5c2.8-10.8,13.8-17.4,24.6-14.6c6.8,1.7,12.2,6.8,14.3,13.5c1.1-0.2,2.2-0.3,3.2-0.4
			C1511.9,366.9,1518.8,373.8,1518.8,382.3z"/>
		<path class="st7" d="M1438,354.4c-2.8,2.8-4.2,6.7-3.9,10.6c-2.4-3.1-6.1-5-10-5.1c0,0,0,11.5,13.2,12.9l0,0
			C1437.2,372.9,1445.6,363.9,1438,354.4z"/>
		<path class="st23" d="M1502,314.8c-2.5,0.9-4.4,2.9-5.3,5.4c-0.6-2.6-2.3-4.7-4.7-5.9c0,0-3.2,7,4.5,11.6l0,0
			C1496.4,325.9,1504,322.7,1502,314.8z"/>
		<path class="st6" d="M1572.5,337.4c-2.6-0.7-5.3-0.2-7.5,1.3c1-2.4,0.8-5.2-0.4-7.5c0,0-6.7,3.9-3.1,12l0,0
			C1561.6,343.2,1569.5,345,1572.5,337.4z"/>
		<path class="st23" d="M1538.4,346.9c-1.9,1.9-2.8,4.5-2.7,7.1c-1.6-2.1-4.1-3.3-6.7-3.4c0,0,0,7.7,8.8,8.7l0,0
			C1537.9,359.3,1543.5,353.3,1538.4,346.9z"/>
		<path class="st23" d="M1516.9,361.9c-2.6,0.2-5.1,1.6-6.6,3.8c0.1-2.6-1-5.2-3-6.9c0,0-4.9,5.9,1.3,12.3l0,0
			C1508.6,371.1,1516.8,370,1516.9,361.9z"/>
		<path class="st6" d="M1585.2,352.7c-1.5,0.3-2.8,1.3-3.6,2.6c-0.1-1.5-0.9-2.9-2.2-3.8c0,0-2.4,3.8,1.5,7l0,0
			C1581,358.6,1585.7,357.4,1585.2,352.7z"/>
		<path class="st7" d="M1469,340.9c-1.3,2.3-1.5,5.1-0.6,7.6c-2.1-1.6-4.8-2.1-7.4-1.4c0,0,2.1,7.4,10.9,5.9l0,0
			C1472,352.9,1475.7,345.6,1469,340.9z"/>
		<path class="st20" d="M661.9,142.9c-10,0-18.1-8.1-18.1-18.1c0-10,8.1-18.1,18.1-18.1c10,0,18.1,8.1,18.1,18.1c0,0,0,0,0,0
			C680,134.7,671.9,142.8,661.9,142.9z M661.9,107c-9.8,0-17.8,8-17.8,17.8s8,17.8,17.8,17.8s17.8-8,17.8-17.8c0,0,0,0,0,0
			C679.7,115,671.8,107,661.9,107L661.9,107z"/>
		<path class="st20" d="M661.9,138.6c-10,0-18.1-6.2-18.1-13.9s8.2-13.9,18.1-13.9s18.1,6.2,18.1,13.9S671.9,138.6,661.9,138.6z
			 M661.9,111.2c-9.8,0-17.8,6.1-17.8,13.6s8,13.6,17.8,13.6s17.8-6.1,17.8-13.6S671.8,111.2,661.9,111.2z"/>
		<path class="st20" d="M661.9,135.2c-10,0-18.1-4.7-18.1-10.4s8.1-10.4,18.1-10.4S680,119,680,124.8S671.9,135.2,661.9,135.2z
			 M661.9,114.7c-9.8,0-17.8,4.5-17.8,10.1s8,10.1,17.8,10.1s17.8-4.5,17.8-10.1S671.8,114.7,661.9,114.7z"/>
		<path class="st20" d="M661.9,132.6c-10,0-18.1-3.5-18.1-7.8s8.1-7.8,18.1-7.8s18.1,3.5,18.1,7.8S671.9,132.6,661.9,132.6z
			 M661.9,117.2c-9.8,0-17.8,3.4-17.8,7.5s8,7.5,17.8,7.5s17.8-3.4,17.8-7.5S671.8,117.2,661.9,117.2z"/>
		<path class="st20" d="M661.9,127.8c-8.9,0-18.1-1.1-18.1-3s9.2-3,18.1-3s18.1,1.1,18.1,3S670.8,127.8,661.9,127.8z M661.9,122.1
			c-10.6,0-17.8,1.4-17.8,2.7s7.2,2.7,17.8,2.7s17.8-1.4,17.8-2.7S672.6,122.1,661.9,122.1z"/>
		<path class="st20" d="M661.9,142.9c-7.7,0-13.9-8.1-13.9-18.1s6.2-18.1,13.9-18.1s13.9,8.1,13.9,18.1S669.6,142.9,661.9,142.9z
			 M661.9,107c-7.5,0-13.6,8-13.6,17.8s6.1,17.8,13.6,17.8s13.6-8,13.6-17.8S669.4,107,661.9,107L661.9,107z"/>
		<path class="st20" d="M661.9,142.9c-5.7,0-10.4-8.1-10.4-18.1s4.7-18.1,10.4-18.1s10.4,8.1,10.4,18.1S667.7,142.9,661.9,142.9z
			 M661.9,107c-5.6,0-10.1,8-10.1,17.8s4.5,17.8,10.1,17.8s10.1-8,10.1-17.8S667.5,107,661.9,107L661.9,107z"/>
		<path class="st20" d="M661.9,142.9c-4.3,0-7.8-8.1-7.8-18.1s3.5-18.1,7.8-18.1s7.8,8.1,7.8,18.1S666.3,142.9,661.9,142.9z
			 M661.9,107c-4.2,0-7.5,8-7.5,17.8s3.4,17.8,7.5,17.8s7.5-8,7.5-17.8S666.1,107,661.9,107L661.9,107z"/>
		<path class="st20" d="M661.9,142.9c-1.9,0-3-9.2-3-18.1s1.1-18.1,3-18.1s3,9.2,3,18.1S663.8,142.9,661.9,142.9z M661.9,107
			c-1.3,0-2.7,7.2-2.7,17.8s1.4,17.8,2.7,17.8s2.7-7.1,2.7-17.8S663.3,107,661.9,107L661.9,107z"/>
		<path class="st31" d="M260.4,166.4h26.7c1.8,0,3.3,1.5,3.3,3.3l0,0v26.7c0,1.8-1.5,3.3-3.3,3.3l0,0h-21.4c-0.4,0-0.9,0.2-1.2,0.5
			l-4.3,3.9c-0.7,0.7-1.9,0.6-2.5-0.1c-0.3-0.3-0.5-0.8-0.5-1.2v-33C257.2,167.8,258.6,166.3,260.4,166.4
			C260.4,166.4,260.4,166.4,260.4,166.4z"/>
		<path class="st3" d="M260.4,166.4h26.7c1.8,0,3.3,1.5,3.3,3.3l0,0v26.7c0,1.8-1.5,3.3-3.3,3.3l0,0h-21.4c-0.4,0-0.9,0.2-1.2,0.5
			l-4.3,3.9c-0.7,0.7-1.9,0.6-2.5-0.1c-0.3-0.3-0.5-0.8-0.5-1.2v-33C257.2,167.8,258.6,166.3,260.4,166.4
			C260.4,166.4,260.4,166.4,260.4,166.4z"/>
		<path class="st1" d="M261.7,166.4h24.1c1.6,0,2.9,1.3,2.9,2.9l0,0v24.1c0,1.6-1.3,2.9-2.9,2.9l0,0h-19.4c-0.4,0-0.8,0.1-1.1,0.4
			l-3.9,3.5c-0.7,0.6-1.7,0.6-2.3-0.1c-0.3-0.3-0.4-0.7-0.4-1.1v-29.8C258.8,167.7,260.1,166.4,261.7,166.4L261.7,166.4z"/>
		<polygon class="st32" points="268.6,186.4 268.6,186.4 268.6,186.4 		"/>
		<polygon class="st0" points="265.8,184.7 266.7,189.2 268.6,186.4 		"/>
		<path class="st0" d="M284.9,174.9l-18.7,9.8c-0.1,0.1-0.3,0.1-0.4,0l0,0l2.7,1.7l0,0c0-0.1,0-0.3,0.1-0.4l16.3-11.2L284.9,174.9
			L284.9,174.9z"/>
		<path class="st33" d="M284.9,174.9L284.9,174.9l-18.7,9.8c-0.1,0.1-0.3,0.1-0.4,0l0,0l0.9,4.5l1.8-2.8l0,0c0-0.1,0-0.3,0.1-0.4
			L284.9,174.9L284.9,174.9z"/>
		<path class="st34" d="M285.1,174.9L285.1,174.9"/>
		<path class="st0" d="M268.6,186.4L268.6,186.4l1.2,1.4l2.9,3.1c1,1.1,2.7,1.1,3.7,0.1c0.2-0.2,0.4-0.4,0.5-0.6l8-15.5l-16.3,11.2
			C268.6,186.1,268.6,186.3,268.6,186.4z"/>
		<path class="st0" d="M266.2,184.7l18.7-9.8l0,0c0,0,0.1,0,0,0l-22.4,4.5c-0.7,0.1-1.1,0.8-1,1.5c0.1,0.3,0.2,0.6,0.5,0.7l3.8,3
			l0,0C266,184.8,266.1,184.8,266.2,184.7z"/>
		<polygon class="st0" points="268.6,186.4 268.6,186.4 268.6,186.4 268.6,186.4 266.7,189.2 269.8,187.8 269.8,187.8 		"/>
		<polygon class="st35" points="268.6,186.4 268.6,186.4 268.6,186.4 268.6,186.4 266.7,189.2 269.8,187.8 269.8,187.8 		"/>
		<path class="st31" d="M1088.1,45.9h32.3c2.2,0,3.9,1.8,3.9,3.9v32.3c0,2.2-1.8,3.9-3.9,3.9h-26c-0.5,0-1.1,0.2-1.5,0.6l-5.2,4.7
			c-0.9,0.8-2.2,0.7-3.1-0.1c-0.4-0.4-0.6-0.9-0.6-1.5V49.8C1084.2,47.6,1085.9,45.9,1088.1,45.9
			C1088.1,45.9,1088.1,45.9,1088.1,45.9z"/>
		<path class="st3" d="M1088.1,45.9h32.3c2.2,0,3.9,1.8,3.9,3.9v32.3c0,2.2-1.8,3.9-3.9,3.9h-26c-0.5,0-1.1,0.2-1.5,0.6l-5.2,4.7
			c-0.9,0.8-2.2,0.7-3.1-0.1c-0.4-0.4-0.6-0.9-0.6-1.5V49.8C1084.2,47.6,1085.9,45.9,1088.1,45.9
			C1088.1,45.9,1088.1,45.9,1088.1,45.9z"/>
		<path class="st1" d="M1089.7,45.9h29.2c2,0,3.6,1.6,3.6,3.6c0,0,0,0,0,0v29.2c0,2-1.6,3.6-3.6,3.6l0,0h-23.5
			c-0.5,0-0.9,0.2-1.3,0.5l-4.7,4.3c-0.9,0.7-2.1,0.6-2.8-0.3c-0.3-0.3-0.4-0.7-0.5-1.2V49.4C1086.1,47.5,1087.7,45.9,1089.7,45.9
			C1089.7,45.9,1089.7,45.9,1089.7,45.9z"/>
		<polygon class="st32" points="1098,70.2 1098,70.2 1098,70.2 		"/>
		<polygon class="st0" points="1094.7,68.1 1095.8,73.5 1098,70.2 		"/>
		<path class="st0" d="M1117.8,56.3l-22.6,11.8c-0.1,0.1-0.3,0.1-0.5,0l0,0l3.3,2.1l0,0c0-0.2,0.1-0.3,0.2-0.4l19.7-13.5
			L1117.8,56.3L1117.8,56.3z"/>
		<path class="st33" d="M1117.8,56.3L1117.8,56.3l-22.6,11.8c-0.1,0.1-0.3,0.1-0.5,0l0,0l1.1,5.4l2.2-3.3l0,0c0-0.2,0.1-0.3,0.2-0.4
			l19.7-13.5L1117.8,56.3z"/>
		<path class="st34" d="M1118,56.2L1118,56.2"/>
		<path class="st0" d="M1098,70.2L1098,70.2l1.5,1.7l3.5,3.7c1.2,1.3,3.2,1.3,4.5,0.1c0.2-0.2,0.4-0.5,0.6-0.8l9.8-18.8l-19.7,13.5
			C1098,69.8,1098,70,1098,70.2z"/>
		<path class="st0" d="M1095.2,68.1l22.6-11.8l0,0c0,0,0.1,0-0.1,0l-27.1,5.5c-0.8,0.2-1.4,1-1.2,1.8c0.1,0.4,0.3,0.7,0.6,0.9
			l4.7,3.6l0,0C1094.8,68.2,1095,68.2,1095.2,68.1z"/>
		<polygon class="st0" points="1098,70.2 1098,70.2 1098,70.2 1098,70.2 1095.8,73.5 1099.5,71.9 1099.5,71.9 		"/>
		<polygon class="st35" points="1098,70.2 1098,70.2 1098,70.2 1098,70.2 1095.8,73.5 1099.5,71.9 1099.5,71.9 		"/>
		<path class="st3" d="M391.5,163.7c-1.1,0-2.2-0.4-2.9-1.2l-9.4-9.4c-0.3-0.3-0.8-0.5-1.3-0.5h-11.5c-3.2,0-5.8-2.6-5.8-5.8l0,0
			v-21.6c0-3.2,2.6-5.8,5.8-5.8l0,0h37c3.2,0,5.8,2.6,5.8,5.8v0v21.6c0,3.2-2.6,5.8-5.8,5.8l0,0h-5.8c-1,0-1.9,0.8-1.9,1.9v5.1
			c0,1.7-1,3.2-2.6,3.9C392.7,163.6,392.1,163.7,391.5,163.7z M366.4,121.7c-1.9,0-3.5,1.6-3.5,3.5c0,0,0,0,0,0v21.6
			c0,1.9,1.6,3.5,3.5,3.5l0,0h11.5c1.1,0,2.2,0.4,3,1.2l9.4,9.4c0.7,0.7,1.9,0.7,2.6,0c0.3-0.3,0.5-0.8,0.5-1.3v-5.1
			c0-2.3,1.9-4.2,4.2-4.2h5.8c1.9,0,3.5-1.6,3.5-3.5l0,0v-21.6c0-1.9-1.6-3.5-3.5-3.5l0,0L366.4,121.7z"/>
		<path class="st3" d="M373.9,139.7c-1.9,0-3.5-1.6-3.5-3.5s1.6-3.5,3.5-3.5c1.9,0,3.5,1.6,3.5,3.5S375.8,139.7,373.9,139.7
			L373.9,139.7z M373.9,133.9c-1.3,0-2.3,1-2.3,2.3s1,2.3,2.3,2.3s2.3-1,2.3-2.3l0,0C376.2,134.9,375.2,133.9,373.9,133.9z"/>
		<path class="st3" d="M384.9,140.2c-1.9,0-3.5-1.6-3.5-3.5s1.6-3.5,3.5-3.5c1.9,0,3.5,1.6,3.5,3.5S386.8,140.2,384.9,140.2
			L384.9,140.2z M384.9,134.5c-1.3,0-2.3,1-2.3,2.3s1,2.3,2.3,2.3s2.3-1,2.3-2.3l0,0C387.2,135.5,386.2,134.5,384.9,134.5z"/>
		<path class="st3" d="M395.3,140.2c-1.9,0-3.5-1.6-3.5-3.5s1.6-3.5,3.5-3.5c1.9,0,3.5,1.6,3.5,3.5S397.2,140.2,395.3,140.2
			L395.3,140.2z M395.3,134.5c-1.3,0-2.3,1-2.3,2.3s1,2.3,2.3,2.3s2.3-1,2.3-2.3l0,0C397.6,135.5,396.6,134.5,395.3,134.5z"/>
		<rect x="1096.8" y="114.5" class="st18" width="286.8" height="159.7"/>
		<rect x="1103.7" y="125.4" class="st36" width="273" height="22.5"/>
		<circle class="st37" cx="1115.4" cy="136.6" r="9"/>
		<circle class="st0" cx="1144.8" cy="136.6" r="9"/>
		<circle class="st38" cx="1174.3" cy="136.6" r="9"/>
		<rect x="1107.3" y="158.3" class="st23" width="123.8" height="59.2"/>
		<rect x="1241.4" y="158.3" class="st22" width="61.9" height="59.2"/>
		<rect x="1311.2" y="158.3" class="st12" width="61.9" height="59.2"/>
		<rect x="1107.3" y="230.6" class="st36" width="265.9" height="2.6"/>
		<rect x="1107.3" y="239.8" class="st39" width="265.9" height="2.6"/>
		<rect x="1107.3" y="249" class="st36" width="265.9" height="2.6"/>
		<ellipse class="st11" cx="644.8" cy="382.6" rx="30.6" ry="2.8"/>
		<path class="st40" d="M679.7,279l2.2-22c-1.9,2.3-4.1,4.2-6.5,5.8l-3.8-6.8c0.3-0.3,0.5-0.5,0.5-0.5c-2.1-4.8-4.5-9.3-7.3-13.7
			c-0.3-0.7-0.7-1.3-1.3-1.9v-0.1c-0.2-0.2-0.3-0.3-0.4-0.4c-1.1-1-2.5-1.8-4-2.3l-3.2-1.5c0,0,0-1,0-2.3v-0.5l0,0
			c0.3,0,0.6,0,0.9,0c0.7,0,1.3-0.1,2-0.2c1.7-0.4,3.1-1.7,3.6-3.4c0.1-0.6,0.2-1.2,0.3-1.8c0.2-0.1,0.4-0.4,0.6-0.6
			c0-0.1,0.1-0.2,0.1-0.3c0.1-0.2,0.4-0.1,0.6-0.2c0.3-0.1,0.5-0.2,0.7-0.4c0.3-0.4,0.4-0.8,0.4-1.3c0.1-1.2-0.2-2.3-0.8-3.3
			c-0.1-0.2-0.3-0.3-0.5-0.4c0.5-0.5,0.1-2.2-0.2-2.8c-0.1-0.3-0.3-0.5-0.5-0.7h0.1c1-0.5,1.4-1.7,0.9-2.7c0-0.1-0.1-0.2-0.1-0.2
			c-0.1-0.1-0.2-0.2-0.3-0.3c-0.3-0.1-0.7-0.1-1,0.1c0.1-0.6,0.1-1.1-0.1-1.7c-0.3-0.5-0.8-1-1.3-1.1c-0.6-0.1-1.2-0.2-1.8-0.1
			c-0.6,0.1-1.2,0.2-1.8,0.4c-0.3,0.1-0.7,0.2-1,0.2c-0.4-0.1-0.7-0.2-1-0.4c-0.6-0.2-1.2-0.3-1.9-0.3c-0.7,0-1.4,0-2,0.2v106.7
			c0-0.4,0-0.7,0-1.1l0,0c2.2,4.6,4.3,8.9,5,11.3c0.1,0.3,0.1,0.7,0,1c-1.1,3.6-2,7.2-2.8,10.9c-0.8,4.7-1.7,10.2-2.3,14.9v1.6
			c0,3.7,1.9,7.1,5,9.1c4.2-9.3,9-19.9,11.8-29.7c0.2-0.8,0.4-1.6,0.4-2.5c0,0,0,0.1,0,0.1c1.2-6.4-0.1-14.1-0.4-18
			c-0.3-3.8-0.8-7.7-1.5-11.4c1.5-0.2,2.5-0.4,2.5-0.4c3.3-0.5,8.4-6.6,8.4-6.6l1.3-13.1l0.1-0.1c0.4-0.4,0.8-0.8,1-1.3
			c0.3-1,0.4-2.1,0.3-3.2C680.4,279.2,679.7,279,679.7,279z M663.9,262.3c0-0.5,0-1.1,0-1.4v-0.1l0.7-0.3c0.4,0.7,0.9,1.4,1.4,2.1
			C665.3,262.6,664.6,262.5,663.9,262.3z"/>
		<g id="_Group_">
			<path id="_Path_" class="st41" d="M639.7,372.1c0,0-0.2,4.8-0.3,6s-3.5,1.2-3.9,0.5s-0.5-6.2-0.5-6.2"/>
			<path id="_Path_2" class="st42" d="M634.6,378.9c0,1.3-0.3,3.1,0,3.6s4.8,1.1,5.8,1.3c1,0.2,2.1,0.3,3.2,0.3
				c2.8-0.3,4.7-1.4,4.7-1.9c0.3-2-5.2-1.6-8.8-5.9c-0.3,0.1-0.6,0.3-0.7,0.6c-0.3,0.8-1.2,1.3-2.1,1.1c-0.6-0.2-1.1-0.5-1.5-1
				C634.8,377.6,634.5,378.3,634.6,378.9z"/>
		</g>
		<g id="_Group_2">
			<path id="_Path_3" class="st41" d="M651.5,365.4c0,0-1.6,4.5-2.1,5.6s-3.7,0-3.9-0.7s1.4-6.1,1.4-6.1"/>
			<path id="_Path_4" class="st42" d="M644.5,370.3c-0.4,1.2-1.2,2.9-1,3.5s4.2,2.5,5.1,3.1c0.9,0.6,1.9,1,3,1.2
				c2.7,0.6,4.8,0.1,5.1-0.3c0.9-1.8-4.5-3.1-6.7-8.3c-0.3,0-0.6,0.1-0.8,0.4c-0.6,0.7-1.5,0.9-2.3,0.4c-0.5-0.3-0.9-0.8-1.1-1.4
				C645.1,369.2,644.7,369.7,644.5,370.3z"/>
		</g>
		<path class="st43" d="M663,329.1c0.9,1.4,1.4,3,1.5,4.7c1.2-6.4-0.1-14.1-0.4-18c-0.7-8.3-2.4-16.4-4.9-24.3l-18-5.1
			c-0.6,5.1-0.5,10.2,0.2,15.3c1.2,8,10.9,24.2,11.2,28.1C652.6,329.6,660,325.2,663,329.1z"/>
		<path class="st43" d="M645.9,365.6l5.5,2.1c4.4-9.7,9.7-21.1,12.7-31.5c0.6-2.3,0.7-4.7,0.4-7.1c-0.4-1.5-1.3-2.8-2.4-3.8
			c-4-2.8-9.8,3.1-9.8,3.1c0.1,0.4,0.1,0.7,0.1,1.1c-1.1,3.6-2.1,7.2-2.8,10.9C647.6,351,645.9,365.6,645.9,365.6z"/>
		<path class="st43" d="M648.6,285.4c0,0-0.6,19.5-1.8,41.6c-1.1,15.7-3.3,31.4-6.6,46.8c-2.7,0-5.9-0.1-5.9-0.1s-3.3-23.8-3-41.1
			c-2.5-20.7-5.2-24.1-3.2-46.7C630.9,274.3,648.6,285.4,648.6,285.4z"/>
		<path class="st44" d="M665.7,253.4l6.5,11.8l-6.1,4c0,0-4.9-6.7-7-10.2"/>
		<path class="st45" d="M659.1,239.8c3.4,4.9,6.2,10.1,8.6,15.6c-2.5,2.5-5.6,4.5-9,5.7c-5.7,2-2.3-7.7-2.3-7.7"/>
		<path class="st45" d="M661,247.1c-0.3,3.6-1,7.1-1.5,10.7c-0.5,3.3-0.5,6.5-0.6,9.8c-0.4,4.5-0.5,9.1-0.4,13.7
			c-0.1,1.4,0.3,2.8,1.2,3.9c0.3,0.3,0.5,0.5,0.8,0.8c0.2,0.3,0.2,0.7,0,1c-0.2,0.1-0.3,0.3-0.5,0.4c-0.3,0.4-0.4,0.9-0.2,1.4
			c0.2,0.5,0.3,0.9,0.3,1.4c-0.1,0.8-0.5,1.5-1.3,1.8c-1,0.4-2,0.6-3,0.7c-1.2,0.3-2.4,0.6-3.7,0.8c-2.5,0.4-5,0.6-7.5,0.6
			c-5.6,0-11.2-0.6-16.7-1.7c-1.3-0.3-3.2-1-2.6-2.7c0.4-0.8,0.9-1.5,1.4-2.2c0.5-1.1,0.7-2.4,0.6-3.6c0.1-8.4,0.4-16.8,0.2-25.2
			c-0.1-2.2-0.5-4.9,0.5-6.9c2.2-4.3,8.1-7.1,10.8-11.2c0.8-1.2-0.6-2.9,0.6-3.8c0.5-0.3,1-0.5,1.5-0.6c0,0,3.1,0,3.7-0.1
			c3.3,0.1,6.7,0.4,10,0.8c1.5,0.4,2.9,1.2,4,2.3c1.9,1.7,2.8,4.2,2.4,6.7"/>
		<path class="st44" d="M644.2,228.4c-0.3,2.1-0.9,7-0.9,7c-0.7,0.5-1.6,0.8-2.4,1c0.8,1.4,3.3,4.6,9.1,3.8c1.9-0.3,3.6-1.4,4.7-3.1
			l-3.1-1.4c0.1-1.9,0-3.7-0.2-5.6"/>
		<path class="st46" d="M655,223.2c-0.2,1-0.1,2.1,0.4,3c0.3,0.7,0.8,1.2,1.5,1.5c0.8,0.2,1.6-0.1,1.9-0.8c0-0.1,0.1-0.2,0.2-0.3
			c0.2-0.2,0.4-0.1,0.6-0.2c0.3-0.1,0.5-0.2,0.7-0.4c0.3-0.4,0.4-0.8,0.4-1.3c0.1-1.2-0.2-2.3-0.8-3.3c-0.1-0.2-0.3-0.3-0.5-0.4
			c0.5-0.5,0.1-2.2-0.2-2.8c-0.4-0.8-1.2-1.3-2-1.3"/>
		<path class="st44" d="M655.1,216.1c2.9,3.7,3.9,8.5,2.9,13.1c-0.5,1.7-1.8,3-3.6,3.4c-3.3,0.8-8-0.5-10.2-3.1
			c-2.4-2.8-1.6-8-1-11.3c0.5-3,2-6.9,5.8-6.1C651.4,212.7,653.6,214.1,655.1,216.1z"/>
		<path class="st46" d="M645,217.8c0.8,1,2.2,1.4,3.4,1c0.4-0.2,0.9-0.3,1.3-0.5c0.8-0.1,1.6,0,2.3,0.3c1.1,0.3,2.2,0.4,3.3,0.3
			c0.6,0,1.1-0.1,1.6-0.4c0.3-0.2,0.6-0.4,0.9-0.6c0.2-0.2,0.3-0.3,0.5-0.4c0.1-0.1,0.3-0.1,0.4-0.1c1-0.4,1.4-1.6,1-2.6
			c-0.1-0.1-0.1-0.2-0.2-0.3c-0.1-0.1-0.2-0.2-0.3-0.3c-0.3-0.1-0.7-0.1-1,0.1c0.1-0.6,0.1-1.1-0.1-1.7c-0.3-0.5-0.8-0.9-1.3-1.1
			c-0.6-0.1-1.2-0.2-1.8-0.1c-0.6,0.1-1.2,0.2-1.8,0.4c-0.3,0.1-0.7,0.2-1,0.1c-0.4-0.1-0.7-0.2-1-0.4c-0.6-0.2-1.2-0.3-1.9-0.3
			c-1.2-0.1-2.3,0.1-3.4,0.6c-1.1,0.5-1.8,1.7-1.8,3"/>
		<path class="st46" d="M646.8,216.7c0.5,0.7,0.7,1.5,0.7,2.3c0.1,1.2-0.1,2.5-0.7,3.6c-0.2,0.3-0.5,0.6-0.8,0.5
			c-0.1-0.1-0.2-0.2-0.4-0.2c-0.1,0-0.2,0-0.3,0.1c-0.6,0.4-1.1,1-1.3,1.7c-0.1,0.4-0.1,0.9,0,1.4c0.2,0.7,0.1,1.4-0.3,2.1
			c-0.4,0.4-1,0.5-1.5,0.3c-0.3-0.1-0.6-0.3-0.9-0.5c-0.4-0.5-0.1-1.6-0.7-1.7c-0.9-0.3-1.6-1.1-1.7-2c-0.1-0.6,0-1.2,0.2-1.8
			c0.1-0.6,0.2-1.2,0.3-1.8c0.1-1.3,0.6-2.5,1.3-3.6c0.4-0.5,0.8-1,1.3-1.4c0.5-0.5,1-0.8,1.6-1.1c0.6-0.3,1.3-0.2,1.8,0.1"/>
		<path class="st44" d="M646.2,223.4c-0.1-0.4-0.3-0.7-0.6-1c-0.3-0.3-0.6-0.4-1-0.3c-0.3,0.2-0.6,0.5-0.6,0.9
			c-0.3,0.9-0.2,1.9,0.2,2.7c0.2,0.3,0.4,0.5,0.8,0.5c0.3,0,0.6-0.1,0.8-0.3c0.2-0.2,0.3-0.5,0.4-0.8"/>
		<path class="st47" d="M651.6,232.8c-2-0.3-3.8-1.1-5.4-2.3c0.3,1.4,1.4,2.6,2.8,3c0.8,0.2,1.7,0.2,2.5,0.2"/>
		<path class="st48" d="M660.5,250.9c-0.7,3.1-1.1,6.2-1.4,9.3c-0.1,1.2-0.7,3.4-0.2,4.5c0,0,0.1,0.1,0.1,0c0,0,0,0,0,0
			c0.5-0.9,0.3-2.8,0.3-3.9c0.2-3.3,0.7-6.6,1.3-9.9C660.6,250.9,660.5,250.8,660.5,250.9L660.5,250.9z"/>
		<path class="st49" d="M648.3,303.6c-0.1,4.5-0.8,9-1.1,13.5c0,0.1,0.1,0.1,0.1,0C647.9,312.6,648.3,308.1,648.3,303.6L648.3,303.6
			z"/>
		<path class="st44" d="M664.5,278.2c0.8,1.9,0.7,4-0.3,5.8c-0.2,0.3-0.4,0.7-0.6,1c-0.1,0.3-0.2,0.7-0.3,1
			c-0.1,0.4-0.2,0.8-0.3,1.3c-0.1,0.3-0.2,0.5-0.3,0.7c-0.4,0.4-0.8,1-1.4,0.4c-0.4-0.7-0.7-1.4-0.8-2.2c0-0.4,0-1.4-0.1-1.9
			c-0.4,0.3-0.5-0.5-0.5-0.7c-0.1-2.5,0.7-5,2.2-7.1"/>
		<path class="st44" d="M618.9,265.3c3.3,0.3,4.2,4.4,4.2,4.4c0.1-2.1,6.3-14,6.3-14l-6.2-7.6c0,0-8.5,15-8.6,19.3
			C615.5,265.8,617.2,265,618.9,265.3z"/>
		<path class="st44" d="M639.5,279.8c-5.1-5.4-10.7-10.4-16.5-15c0,0-3.1-2.8-6-1.1c-1.6,0.8-2.5,2.4-2.4,4.2
			c1.8,2.6,13,11,24.1,14.3L639.5,279.8z"/>
		<path class="st45" d="M640.9,236.4c-3.3,0.3-6.5,1.2-9.5,2.5c-3.8,1.6-8.2,7.9-12.9,15.8c0.5,1.8,1.6,2.8,3.2,4s4.5,3.2,6.4,3.3
			c0.2-0.1,8.5-11.4,11.3-14.1l1.7-1.6l0.5-2L640.9,236.4z"/>
		<path class="st48" d="M635.1,249.8c-2,1.8-3.3,4.5-4.5,6.8c-1,1.7-1.9,3.5-2.7,5.3c0,0.1,0.2,0.2,0.2,0.1
			C630.6,258.1,631.9,253.1,635.1,249.8C635.2,249.8,635.2,249.7,635.1,249.8L635.1,249.8z"/>
		<path class="st49" d="M632.5,293.8c-1,2.1-2.2,4-3.8,5.7c0,0,0,0.1,0,0.1c0,0,0.1,0,0.1,0c1.7-1.6,3-3.5,3.8-5.7
			C632.6,293.8,632.5,293.7,632.5,293.8L632.5,293.8z"/>
		<path class="st50" d="M665,303.9c-3,0.6-6.1,0.8-9.2,0.6c-6.6-1-12.9-3.3-18.6-6.6c0.8-5.7,1.9-11.4,3.4-17
			c2.6-8.6,1.9-23.8,1.9-23.8s16.2,7.3,27.8,6.1C668.3,276.1,665,303.9,665,303.9z"/>
		<path class="st51" d="M670.3,263c2.7-1.6,5.1-3.6,7-6.1l-4,40.3c0,0-5.1,6.1-8.4,6.6C665,303.9,668,273.2,670.3,263z"/>
		<path class="st44" d="M647.4,281.9c-0.6-1-3.6-0.4-4.5-0.7c-0.7-0.3-1.4-0.7-2-1.1l0,0c0-0.1,0.3-1.1,0.3-1.4c0,0-1.2-0.1-2.2-0.1
			c-0.6,0-1.2-0.2-1.7-0.5l-1,3.5c0.9,0.3,1.8,0.8,2.6,1.3c0.4,0.5,1.4,2.4,3.5,2.7s2.3,0.2,2.8-0.2c0.2-0.1,0.4-0.3,0.5-0.5l0,0
			c0.2-0.1,0.4-0.3,0.6-0.4c0.1-0.2,0.2-0.4,0.2-0.6l0,0c0.2-0.1,0.4-0.2,0.6-0.4c0.1-0.2,0.1-0.5,0.1-0.7c0,0,0.3-0.3,0.4-0.5
			C647.5,282.1,647.5,282,647.4,281.9z"/>
		<path class="st44" d="M675.1,279.9c-0.4,0.3-0.8,0.7-1.1,1.1c-0.1,0.3-0.2,0.5-0.2,0.8c0,0-0.6,0.6-0.6,0.9c0,0.2,0,0.5,0.1,0.7
			c-0.2,0.2-0.3,0.5-0.3,0.7c0,0.2,0,0.3,0.1,0.5c0.1,0.1,0.2,0.1,0.3,0.1c0.2-0.1,0.4-0.3,0.5-0.5c0,0,0,0.3,0.1,0.3
			s0.6-0.3,0.8-0.5c0.4-0.4,0.8-0.8,1-1.3c0.3-1,0.4-2.1,0.3-3.2c-0.2-0.5-0.9-0.7-0.9-0.7L675.1,279.9z"/>
		<path class="st40" d="M253.7,342.4l-1.9,10.9l0,0c-0.2,0.2-4,2.7-14.3,4.5c-5.6,1-14.2,1.4-14.2,1.4s1.6,8.4,0.6,13.6
			c-0.6,2.7-3.1,14.4-5.5,25.2h-14.8l1.3-38.8c-2.8,0.2-5.6,0.6-8.3,1.3c-0.8,0.3-1.4,0.5-1.4,0.9c-0.4,1.4,0.3,8.8,0.3,12.2
			c0,1.7-1.2,13.9-2.3,24.4h-9.6l-0.6-15.4l-1.6-17.8l3-14.5l8.9-2l3-0.7l10.5-2.4l19.7-1.3l26.1-1.7L253.7,342.4z"/>
		<path class="st52" d="M227.3,329.1v0.2l-0.1,1.4l0,0v0.6l-0.4,6.9v0.5l-0.1,1.2l-0.2,4l-0.6,9.5c-0.8,0-1.7,0-2.8,0.1l-0.9,0
			c-0.8,0-1.6,0.1-2.5,0.2h-0.6l-0.8,0.1c-1.4,0.1-2.8,0.3-4.3,0.4c-0.8,0.1-1.5,0.2-2.3,0.3c-1.9,0.2-3.9,0.5-5.8,0.7l-1.7,0.2
			c-2.8,0.4-5.5,0.7-7.9,1l-2.1,0.3l-1.8,0.2l-2.6,0.3c0.4,3.2,2.1,7.6,2.2,12.1c0,9.6-0.5,19.2-1.5,28.8h-12.2
			c-2.9-20.4-5.6-45.8-4.1-52c0.6-2.4,2.7-4.7,5.8-6.7c0.8-0.5,1.7-1.1,2.7-1.6l0,0c0.3-0.1,0.5-0.3,0.8-0.4s0.4-0.2,0.7-0.3
			c0.6-0.3,1.2-0.5,1.8-0.8c1.1-0.5,2.3-1,3.5-1.4l0.6-0.2l1.2-0.4c1.9-0.6,4-1.3,6-1.8l0,0l1.1-0.3l0.3-0.1l1.8-0.4l2.1-0.5h0.1
			l0,0c1.2-0.2,2.5-0.5,3.7-0.7l0.7-0.1c0.3-0.1,0.6-0.1,1-0.1c1.1-0.2,2.2-0.3,3.3-0.5l1.5-0.2h0.1l1.9-0.2l1.8-0.1h0.7h0.3
			l1.5-0.1h1.2h0.9C223.5,328.9,225.4,329,227.3,329.1z"/>
		<g class="st53">
			<path class="st54" d="M227.3,329.1c-13.7-1.1-33.3,2.7-44.5,8.6c2.4,1.1,4.6,2.5,6.7,4.1c2.3,1.9,3.7,4.8,3.8,7.8
				c0,2.4-0.3,4.9-0.9,7.3c9.1-1,26.5-3.6,33.5-3.5L227.3,329.1z"/>
		</g>
		<path class="st52" d="M257.5,347.5c-1.6,3.3-2.8,4.4-5.7,5.7l0,0c-9.8,4.4-24.3,3.5-39,2.6c3.8,10.3,1.5,27.3-1.1,42.2H199
			c-0.7-13.3-1.9-26.8-2.5-37.5c-0.1-1.4-0.1-2.8-0.2-4.1l0,0c-0.1-3.3-0.2-6.3-0.1-8.8c0.1-3.3,0.5-5.8,1.2-7.1l0.1-0.2
			c0.8-1.5,4.7-3.1,9.5-4.6l0,0l1.1-0.3c4.2-1.3,9-2.5,13-3.4l0.4-0.1l2.2-0.5l0,0c1.2-0.3,2.3-0.5,3.2-0.7h0.1h0.2
			c1.7-0.3,2.8-0.5,2.9-0.5h26l0.1,0.2C258.2,335.2,259.3,343.7,257.5,347.5z"/>
		<path class="st44" d="M216.5,295.4c-1.7-0.5-6-6.5-7.3-6.2c-1.2,1.6-2.6,12.1-2.6,12.1c-0.4,3-18.6,30.2-18.6,30.2
			c0.2,1.4,0.9,2.7,2,3.6c1.2,0.9,2.5,1.5,3.9,2c0,0,19.6-21.6,24.1-29.2C218.3,306.5,220.3,296.7,216.5,295.4z"/>
		<path class="st45" d="M228.9,279.1c0,0-3.5,8.2-7.2,16.3c-1.2-0.8-2.6-1.3-4.1-1.3c-6.9-0.7-10.1-1.7-11.5-2.3
			c1.8-7.2,3.8-15.4,4.2-17.1c1.6-7.3,5-10.3,5-10.3L228.9,279.1z"/>
		<path class="st45" d="M256.3,330.4c-8,1-22.7,0.6-32.6,1c-8.9,0.3-10.7,2-10.7,2c0.3-12.8,2.2-21.9,1.6-31.4
			c-1.1-16-2.5-34,0.6-37.6c6.2-4.8,18.9-6.8,31.9-2.7c9.8,3,12.9,5.9,12.3,13.2c-0.2,2.1-5.4,33.1-4.1,48.6
			c0.1,1.2,0.5,2.3,1.2,3.3C257.4,328.5,257.2,329.8,256.3,330.4z"/>
		<polygon class="st55" points="241.5,330.5 194.1,331.2 222.6,341 		"/>
		<polygon class="st56" points="222.5,342.2 241.4,332.2 241.5,330.5 222.3,340.5 		"/>
		<path class="st44" d="M219.8,325.4l-4,1.9c-2.2-1.7-5.2-1.8-7.6-0.3c-4,2.6,0,11,2.9,10.4s11.4-6.1,11.4-6.1L219.8,325.4z"/>
		<path class="st45" d="M217.8,325.3c0,0,11.1-6.6,19-12.6c-7.7,5.9-18.7,13.6-19.3,14.1C217.6,326.2,217.7,325.8,217.8,325.3z"/>
		<path class="st45" d="M262.8,293.9c-5.2,0.7-10.4,0.9-15.6,0.5c-0.2-2-0.5-4.1-0.7-6.5c-0.4-3.6-1.3-8.3-0.8-11.9
			c0.6-4.8,2.5-12.6,8.3-11.6C264.5,266.2,262.8,293.8,262.8,293.9z"/>
		<path class="st44" d="M261.6,294.1c-0.2,5.5,0.1,14.5-3.2,19c-5.1,7-38.8,19.1-38.8,19.1s-1.4,0.5-2.1-2.9
			c-0.2-0.8-0.2-1.7,0.1-2.5c0,0,11.4-8,19.3-14.1c3.6-2.8,7.5-5.2,11.6-7.1c-0.4-4.3-0.9-7.5-1.3-11.1
			C252,294.9,256.8,294.8,261.6,294.1z"/>
		<path class="st44" d="M217.5,329.3c-0.2-0.8-0.2-1.6,0-2.4C217.4,327.6,217.4,328.5,217.5,329.3z"/>
		<path class="st56" d="M222.5,342.2l-43.9-3c-1.5-0.1-2.7-1.2-2.9-2.7l-4.2-30.4c-0.2-1.4,0.8-2.7,2.2-2.9c0.2,0,0.4,0,0.5,0
			l41.1,2.8c1.2,0.1,2.2,1,2.4,2.2L222.5,342.2z"/>
		<path class="st57" d="M217.4,235.2c0,0-1.9,5.5,1.3,7.4c0,0-0.9,2.8,2.3,3.3s0.3-10,0.3-10L217.4,235.2z"/>
		<path class="st44" d="M229.3,254.8c0,0-0.1,1.3-0.2,2.5c-0.2,0.8-0.3,1.6-0.4,2.5c0,1.1,0.1,2.2,0.4,3.2c0.4,0.7,1.3-0.1,2.1,0.1
			c7.9,2.1,9-2.9,9-2.9c-0.8-3,0.7-10.5,0.7-10.5L229.3,254.8z"/>
		<path class="st44" d="M221,248.2c0.5,2.5,1.8,4.8,3.8,6.4c2.2,1.6,5,2.2,7.7,1.6c6.6-1.2,11-7.5,9.8-14.1
			c-0.6-3.1-2.3-5.8-4.8-7.7c-3.5-2.6-12.4-4.6-16.2-2S220,244.3,221,248.2z"/>
		<path class="st58" d="M242.1,247.1c-1.1,4.7-4.9,8.3-9.7,9.3c-2.4,0.5-4.9,0.1-7-1.2c1.5,0.3,3.1,0.4,4.6,0.2
			c4.8-0.9,8.6-4.5,9.9-9.2c1.1-4.6-1.9-10.1-5.7-12.8c-0.4-0.3-0.8-0.5-1.3-0.8c6.5,1.4,10.6,7.8,9.2,14.2
			C242.1,246.9,242.1,247,242.1,247.1L242.1,247.1z"/>
		<path class="st57" d="M215.2,232.4c0.4,3.1,3.3,5.6,6.4,6s9.1,0.4,11.2-1.9c0.1,3.1,5.7,9,8.5,9.9c-0.1,2.1-0.4,3.3-0.7,5.1
			c1.4,0.7,3.6-1.2,4.4-2.6s3.9-9.9,3.1-13.6s-2.4-7-6.3-6.8c-0.5-4.4-4.4-7.6-8.8-7.1c-2.3,0.2-4.4,1.5-5.7,3.3
			c0.2-0.2-2.2-0.7-2.4-0.7c-1-0.2-2-0.2-2.9,0c-1.8,0.5-3.4,1.4-4.7,2.8c-1.2,1.2-1.9,2.8-2.1,4.4
			C215.1,231.6,215.1,232,215.2,232.4z"/>
		<path class="st44" d="M236.7,240.9c0-0.3,0.2-0.7,0.4-0.9c1-0.8,2.4-0.6,3.1,0.3c0.1,0.1,0.1,0.2,0.2,0.2c1.2,1.4,0.9,7.5-1.8,5.6
			C236.7,244.6,236.6,241.9,236.7,240.9z"/>
		<path class="st48" d="M240,257c1,1.1,1.8,2.3,2.5,3.5c-1.2,1-2.5,2-3.9,2.9c-2.5,1.5-5.1,2.8-7.7,4l-1.8-4.4
			C229.1,263,236.6,259,240,257z"/>
		<path class="st48" d="M229.1,263c-1.2,1-2.3,2.2-3.3,3.5c-0.5-2-0.4-4,0.1-6c0,0,1.8-2.8,3.2-3.3
			C229.1,257.3,228.6,261.3,229.1,263z"/>
		<path class="st48" d="M244.9,279.8l0.3,7.4c0.1,2.4,0.2,4.9,0.5,7.3l-0.2-0.2c2.7,0.3,5.4,0.4,8.1,0.4c2.7,0,5.4-0.1,8.1-0.5
			c-2.7,0.6-5.4,0.9-8.1,0.9c-1.4,0-2.7,0-4.1,0s-2.7-0.1-4.1-0.3h-0.2v-0.2c-0.1-1.2-0.2-2.5-0.3-3.7s-0.1-2.5-0.1-3.7
			C244.7,284.7,244.8,282.2,244.9,279.8z"/>
		<path class="st48" d="M213.6,276.6v6.2c0,2.1,0,4.1,0.1,6.2s0.2,4.1,0.3,6.2s0.3,4.1,0.5,6.2c-0.4-2-0.7-4.1-0.9-6.2
			s-0.3-4.1-0.4-6.2s-0.1-4.1,0-6.2S213.4,278.7,213.6,276.6z"/>
		<path class="st40" d="M1456,325.9l-1.5,8.4c0,0-2.9,2.1-11.2,3.5c-4.4,0.8-11.1,1.1-11.1,1.1s1.3,6.5,0.4,10.6s-7.6,34.6-7.6,34.6
			l-1.5,0.9v3.1c0.6,0.5,1.1,1.2,1.5,1.9c0.3,1.4,0.4,2.9,0.4,4.3c0,0-1.9,0.3-4.4,0.6c-0.7,0.1-1.4-1.4-2.2-1.3
			c-5.1,0.7-11.4,3-11.4,2.4c0.2-0.9,0.6-1.7,1.3-2.4l7.4-1.3l1.8-53.5c0,0-7.3,0.6-7.6,1.7s0.3,6.9,0.2,9.5
			c0,2.3-3.1,31.2-3.1,31.2c-0.4,0.1-0.8,0.2-1.2,0.4c0.1,0.3-0.5,1-0.2,2.1c0.4,1.5,1.7,3.6,1.4,4.3c-0.5,1.3-3.6,1.4-3.6,1.4
			l-2.2-10.3l-0.9-22l-1.2-13.9l2.3-11.3l17.5-4l35.6-2.4"/>
		<path class="st44" d="M1399.5,380.7c-0.1,1.5-0.1,3.1,0,4.6c0.2,1.2,4.1,1,4.5,0.3s0.1-6.4,0.1-6.4"/>
		<path class="st59" d="M1405.2,386.8c0.1,1.3,0,3.7,0,3.7l-4,0.8l-0.5-0.7c-0.7,0.6-1.5,1-2.4,1.2c-1.3,0.2-2.5,0.3-3.8,0.2
			c-3.3-0.4-5.6-1.5-5.7-2c-0.4-2,9.3-3.6,9.8-4.9c0.4-0.9,0.2-1.2,0.7-1c0.4,0.1,0.7,0.3,0.8,0.6c0.5,0.9,1.5,1.4,2.5,1.2
			c0.6-0.1,1.1-0.4,1.6-0.8C1404.9,385.5,1405.2,386.1,1405.2,386.8z"/>
		<path class="st52" d="M1434.3,334.5c-6-0.1-22,2.4-28.1,2.9c0.3,2.5,1.7,6,1.7,9.4c0.2,11.4-1.4,25.8-2.7,35c0,0-2.4,2.5-5.9-0.1
			c-2.7-15.6-6.6-46.8-5.2-53c1.8-8,26.2-14.3,41.3-13.1"/>
		<g class="st53">
			<path class="st54" d="M1435.4,315.6c-10.7-0.8-25.9,2.1-34.6,6.7c1.9,0.8,3.6,1.9,5.2,3.2c1.8,1.5,2.9,3.7,3,6.1
				c0,1.9-0.2,3.8-0.7,5.6c7.1-0.8,20.6-2.8,26.1-2.7L1435.4,315.6z"/>
		</g>
		<path class="st44" d="M1414.5,385.4c0,1.5,0,3.1,0.2,4.6c0.2,1.2,4.2,0.8,4.5,0.1s-0.1-6.4-0.1-6.4"/>
		<path class="st59" d="M1420.4,391.4c0.1,1.3,0.1,3.7,0.1,3.7l-4,1l-0.5-0.7c-0.7,0.6-1.5,1-2.4,1.3c-1.2,0.3-2.5,0.4-3.8,0.4
			c-3.3-0.2-5.6-1.3-5.7-1.7c-0.5-2,9.1-3.9,9.6-5.2c0.4-1,0.2-1.2,0.7-1c0.4,0.1,0.7,0.3,0.9,0.6c0.5,0.9,1.6,1.3,2.5,1.1
			c0.6-0.1,1.1-0.4,1.5-0.9C1419.9,390.1,1420.3,390.7,1420.4,391.4z"/>
		<path class="st52" d="M1457.9,316.4c1.6,3.7,2.5,10.5,1,13.5c-1.2,2.6-2.2,3.4-4.4,4.5c-7.6,3.4-18.9,2.7-30.3,2
			c4.7,12.7-2.6,38.5-3.7,50.1c-4.3,1.9-6.7-0.1-6.7-0.1c0.5-23.5-4.8-56.4-1.6-62.1c1.9-3.4,25-7.9,25.4-7.9"/>
		<path class="st44" d="M1427,289.4c-1.3-0.4-4.6-5-5.7-4.8c-0.9,1.3-2,9.4-2,9.4c-0.3,2.3-14.4,23.5-14.4,23.5
			c0.2,1.1,0.7,2.1,1.6,2.8c0.9,0.7,1.9,1.2,3,1.6c0,0,15.3-16.8,18.8-22.7C1428.4,298,1429.9,290.3,1427,289.4z"/>
		<path class="st60" d="M1436.7,276.7c0,0-2.8,6.4-5.6,12.7c-1-0.6-2.1-0.9-3.2-1c-5.3-0.5-7.9-1.3-9-1.8c1.4-5.6,3-12,3.2-13.3
			c1.3-5.7,3.9-8,3.9-8L1436.7,276.7z"/>
		<path class="st61" d="M1458,316.6c-6.2,0.8-17.7,0.5-25.4,0.8c-7,0.3-8.3,1.6-8.3,1.6c0.3-9.9,1.7-17.1,1.2-24.5
			c-0.9-12.5-2-26.5,0.5-29.3c4.8-3.7,14.7-5.3,24.8-2.1c7.6,2.4,10,4.6,9.6,10.3c-0.1,1.7-4.2,25.8-3.2,37.9
			c0.1,0.9,0.4,1.8,0.9,2.5C1458.8,315.1,1458.7,316.1,1458,316.6z"/>
		<polygon class="st55" points="1446.4,316.7 1409.6,317.2 1431.7,324.9 		"/>
		<polygon class="st56" points="1431.7,325.8 1446.3,318 1446.4,316.7 1431.5,324.5 		"/>
		<path class="st44" d="M1429.5,312.7l-3.1,1.4c-1.7-1.3-4.1-1.4-5.9-0.2c-3.1,2,0,8.5,2.2,8.1s8.9-4.7,8.9-4.7L1429.5,312.7z"/>
		<path class="st45" d="M1428,312.6c0,0,8.7-5.1,14.8-9.8c-6,4.6-14.6,10.6-15,10.9C1427.9,313.3,1427.9,313,1428,312.6z"/>
		<path class="st61" d="M1463,288.2c-4,0.5-8.1,0.7-12.2,0.4c-0.2-1.6-0.4-3.2-0.6-5.1c-0.3-2.8-1-6.5-0.6-9.2
			c0.5-3.8,1.9-9.8,6.5-9C1464.3,266.6,1463,288.1,1463,288.2z"/>
		<path class="st44" d="M1462.1,288.3c-0.2,4.3,0.1,11.3-2.5,14.8c-4,5.5-30.2,14.9-30.2,14.9s-1.1,0.4-1.7-2.3
			c-0.2-0.7-0.2-1.3,0-2c0,0,8.9-6.3,15-10.9c2.8-2.2,5.8-4,9-5.5c-0.3-3.4-0.7-5.9-1-8.6C1454.6,288.9,1458.4,288.8,1462.1,288.3z"
			/>
		<path class="st44" d="M1427.8,315.7c-0.1-0.6-0.1-1.3,0-1.9C1427.7,314.4,1427.7,315.1,1427.8,315.7z"/>
		<path class="st56" d="M1431.7,325.8l-34.1-2.3c-1.1-0.1-2.1-0.9-2.2-2.1l-3.3-23.7c-0.2-1.1,0.6-2.1,1.7-2.3c0.2,0,0.3,0,0.5,0
			l32,2.2c1,0.1,1.7,0.8,1.9,1.7L1431.7,325.8z"/>
		<path class="st57" d="M1427.7,242.5c0,0-1.5,4.3,1,5.8c-0.3,1,0.2,2.1,1.2,2.5c0.2,0.1,0.4,0.1,0.6,0.1c2.5,0.4,0.2-7.8,0.2-7.8"
			/>
		<path class="st44" d="M1436.9,257.8c0,0-0.1,1-0.1,2c-0.1,0.6-0.3,1.3-0.3,1.9c0,0.8,0.1,1.7,0.3,2.5c0.3,0.5,1-0.1,1.6,0.1
			c6.1,1.7,7-2.2,7-2.2c-0.6-2.3,0.5-8.2,0.5-8.2"/>
		<path class="st44" d="M1430.5,252.6c0.4,1.9,1.4,3.7,2.9,5c1.7,1.2,3.9,1.7,6,1.3c5.1-0.9,8.6-5.8,7.7-11c-0.4-2.4-1.8-4.6-3.8-6
			c-2.8-2-9.6-3.6-12.6-1.5S1429.7,249.5,1430.5,252.6z"/>
		<path class="st58" d="M1446.9,251.7c-0.9,3.7-3.8,6.5-7.5,7.2c-1.9,0.4-3.8,0-5.4-0.9c1.2,0.2,2.4,0.3,3.6,0.2
			c3.7-0.7,6.7-3.5,7.7-7.2c0.8-3.6-1.5-7.8-4.4-10c-0.3-0.2-0.7-0.4-1-0.6c5,1.1,8.3,6,7.2,11.1
			C1446.9,251.6,1446.9,251.6,1446.9,251.7L1446.9,251.7z"/>
		<path class="st57" d="M1426,240.3c0.5,2.5,2.5,4.4,5,4.6c2.4,0.3,7.1,0.3,8.7-1.5c0.1,2.4,4.4,7,6.6,7.7c-0.1,1.6-0.3,2.5-0.5,4
			c1.1,0.6,2.8-1,3.4-2s3-7.7,2.4-10.6s-1.9-5.4-4.9-5.3c-0.3-3.4-3.3-5.9-6.7-5.6c-1.8,0.2-3.5,1.1-4.5,2.7
			c0.1-0.2-1.7-0.5-1.8-0.6c-0.7-0.2-1.5-0.2-2.3,0c-1.4,0.4-2.7,1.1-3.6,2.2c-0.9,0.9-1.5,2.2-1.7,3.5
			C1426,239.7,1426,240,1426,240.3z"/>
		<path class="st44" d="M1442.7,246.9c0-0.3,0.1-0.5,0.3-0.7c0.7-0.6,1.8-0.5,2.4,0.3c0.1,0.1,0.1,0.1,0.1,0.2
			c0.9,1.1,0.7,5.8-1.4,4.4C1443.1,250,1442.5,248.4,1442.7,246.9z"/>
		<path class="st60" d="M1445.3,259.5c0.8,0.9,1.4,1.8,2,2.8c-1,0.8-2,1.6-3,2.3c-1.9,1.1-3.9,2.2-6,3.1l-1.4-3.4
			C1436.9,264.2,1442.6,261,1445.3,259.5z"/>
		<path class="st60" d="M1436.8,264.2c-1,0.8-1.8,1.7-2.6,2.8c-0.4-1.5-0.3-3.1,0.1-4.6c0,0,1.4-2.2,2.5-2.5
			C1436.6,261.2,1436.6,262.7,1436.8,264.2z"/>
		<path class="st60" d="M1449.1,277.2l0.3,5.7c0.1,1.9,0.1,3.8,0.4,5.7l-0.2-0.2c2.1,0.2,4.2,0.3,6.3,0.3c2.1,0,4.2-0.1,6.3-0.3
			c-2.1,0.5-4.2,0.7-6.3,0.8c-1.1,0-2.1,0-3.2,0s-2.1-0.1-3.2-0.2h-0.2v-0.2c-0.2-1.9-0.3-3.8-0.3-5.8
			C1448.9,281,1449,279.1,1449.1,277.2z"/>
		<path class="st60" d="M1424.7,274.8c0.1,3.2,0,6.5,0.2,9.7c0,1.6,0.1,3.2,0.2,4.8s0.2,3.2,0.3,4.8c-0.6-3.2-1-6.4-1.1-9.6
			c0-1.6,0-3.2,0-4.9S1424.5,276.4,1424.7,274.8z"/>
		<ellipse class="st11" cx="1003.7" cy="381.6" rx="26.6" ry="2.4"/>
		<path class="st40" d="M1019.8,366.5h-4.5c-3.4-8.7-8.1-17.4-10.9-23.8l0,0c-0.8-1.8-1.5-3.6-2.1-5.5l-0.1-0.2
			c0-0.1-0.1-0.2-0.1-0.3s-0.1-0.5-0.2-0.7s-0.1-0.5-0.2-0.7s-0.1-0.5-0.1-0.7s-0.1-0.7-0.2-1l0,0v-0.3c-0.2-1.2-0.4-2.5-0.7-3.9
			h-0.4c-1.2,4.9-2.1,8.7-2.1,8.7c1.5,3.9,2.5,8,3,12.2c0.5,4.9-0.6,10.7-0.8,16.3h-4.9c-1.4-10.1-4.7-23.4-5.4-29
			c-0.4-3.2-0.7-6.5-0.8-9.7l0,0c0,0-1-20.4-0.3-30c0.3-3.8,2.4-9.4,3.2-11.3c-0.3-1.2-0.1-2.5,0.5-3.6c0.6-1.3,1.2-6.5,1-7.9
			c-0.2-0.7-0.4-1.3-0.8-1.9c-2.3,5-6,12.2-7.9,12.2c-2.2,0-7.4-15.1-7.5-15.4c-0.2-0.5-0.5-0.9-0.9-1.2c-0.8-0.5-1.4-1.1-1.9-1.9
			c-0.4-0.6-0.6-1.2-0.8-1.9c-0.1-0.5,0.2-0.5,0.2-0.8s-0.1-0.3,0-0.9s0.5-0.5,0.6-0.7c0.1-0.1,0.1-0.3,0.1-0.4
			c-0.1-0.5-0.2-0.9-0.2-1.4c0.1-0.6,0.2-1.8,0.2-1.8s0-0.1,0-0.1c0,0,0,0,0-0.1c-0.1-0.2-0.1-0.3-0.1-0.5c-0.1-0.8,0-1.5,0.1-2.3
			c0.2-0.2,0.5-0.1,0.7,0.5c0.2,0.6,0.2,1.1,0.2,1.4c0.2,0.4,0.4,0.8,0.7,1.2l0.6,1c0.3,0.2,0.5,0.5,0.6,0.4s1.5,0.3,1.8,0.5
			c0.4,0.7,0.8,1.4,1.1,2.2c0.1,1.1,0.1,2.1-0.1,3.2c0.1,1,0.3,1.9,0.8,2.7l3.3,5.6l2.3-5.5c-0.1-0.1-0.2-0.2-0.3-0.3
			c1.2-3.3,2.7-6.5,4.6-9.5c1.5-2.1,3.5-3.8,5.9-4.7l0,0c1.2-0.4,2.4-0.8,3.6-0.9c0.3-0.4,0.8-0.8,1.3-1c0.4-0.2,0.7-0.3,1.1-0.4
			c0-0.2,0-0.4,0-0.6s0-0.7,0.1-1v-0.1c-0.9,0.3-1.9,0.3-2.8,0.2c-0.6-0.4-1.3-0.3-1.7-5.1c-0.7-0.4-1.3-0.4-1-1.3
			c0.1-0.2,0.8-2.1,0.8-2.3c0-1,0-2,0.2-3c-2.6-6.5,2.5-7.3,3.5-7.4c1.5-1.2,3.8-2,7.2-0.9c2.8,0.8,5,2.9,6.1,5.6l0,0
			c3.7,5.8,2.1,21.7,2.1,21.7l-1,0.1c2.4,4.7,1.7,13.2,1.7,13.2s0.1,0.2-0.3,0.3c-0.2,1.2-0.7,3.3-1,4.4c-0.4,1.5-2.6,10.7-4.7,11
			c-0.1,0.2-0.2,0.5-0.4,0.6c1.6,2.4,3.8,6.5,4,10.2c0.2,3.1-0.3,6.3-1.5,9.2c-0.8,2.8-3.2,20.8-3.2,21.3c0,0.2-0.3,0.3-0.9,0.5
			c-0.1,2-0.1,4,0.1,6c0.5,1.6,3,5.9,4.3,10.7c1.4,5.1,3,12.7,4.2,17.7h0.1C1019.2,363.5,1019.3,365,1019.8,366.5z"/>
		<g id="_Group_3">
			<g id="_Group_4">
				<path id="_Path_5" class="st13" d="M999.5,231.7c0,0-7.1,0.2-3.3,8.3S999.5,231.7,999.5,231.7z"/>
				<path id="_Path_6" class="st62" d="M997.5,234.6c0,0-1.9,1.2-1.9,7.5c0,0.2-0.8,2.1-0.8,2.3c-0.3,0.9,0.3,0.9,1,1.3
					c0.3,4.8,1,4.7,1.7,5.1s6.2-0.6,9.8-2.4s4.8-7,3.3-10.2S1001.7,231.9,997.5,234.6z"/>
				<path id="_Path_7" class="st13" d="M1013.5,239.1c0.6,3-0.9,7.6-6.8,9.6c0,0-0.5-1.8-0.9-3.6s-5.4-3.8-7.6-5.8l-0.3-0.3
					c-1.5-1.7-1.5-4.2,0-5.9c1.2-1.5,3.9-4,8.7-2.4C1010.9,232.3,1012.8,235.4,1013.5,239.1z"/>
				<path id="_Path_8" class="st62" d="M999.2,245.8c0.9,1,1.1,3,1,5l-0.1,1c-0.1,1.2-0.3,2.5-0.5,3.7l6.8-0.2
					c-0.1-2.2-0.1-4.4,0.2-6.6C1006.6,248.8,997,243.5,999.2,245.8z"/>
				<path id="_Path_9" class="st63" d="M1000.2,251.8c1.6-0.6,3.1-1.3,4.5-2.3c-1.9,0.6-4.5,1.3-4.5,1.3L1000.2,251.8z"/>
			</g>
			<g id="_Group_5">
				<path id="_Path_10" class="st62" d="M994.4,298.8l10.6-11.5c0,0,6.5,6.8,5.3,14.3c-0.6,3.7-1.7,5.6-2,7.4s-1.2,24.4-0.7,26
					s3,5.9,4.3,10.6c1.6,5.7,3.3,14.4,4.6,19.3s-0.8,11.5-1.3,9.8c-3.9-14.2-14.3-31-16-38.1S996.1,316.3,994.4,298.8z"/>
				<path class="st63" d="M1001.4,342.7c-0.2-1.9-0.6-3.7-0.8-5.6c-0.4-4.4,0.3-8.8,2.1-12.9l-6.6-11.2h-0.3
					c0.1,0.7,0.1,1.3,0.2,1.9s0.1,1.1,0.2,1.6c0.1,0.7,0.2,1.4,0.2,2.1c0.3,2.4,0.5,4.6,0.8,6.7c0.1,0.5,0.1,1,0.2,1.5
					c0.2,1.3,0.3,2.4,0.5,3.6s0.3,2.1,0.5,3.1c0.1,0.6,0.2,1.2,0.3,1.8l0.2,0.7c0,0.2,0.1,0.5,0.2,0.7s0,0.2,0.1,0.4L1001.4,342.7z"
					/>
				<path id="_Path_11" class="st62" d="M1011.9,364.5c0,0,3.3,9.3,3,10.5c-0.2,0.7-0.9,3.1-1,3.5c-0.1,0.1-2.4,2-0.8,2
					s5.2-4.9,5.7-5.3c0.8-0.5,1.2-1.4,1.1-2.4c-0.4-1.3-1.1-2.5-2-3.5c-0.7-1-1.7-5.8-1.7-5.8L1011.9,364.5z"/>
				<path id="_Path_12" class="st42" d="M1010.9,380.8c0.7-0.8,1.6-1.5,2.5-2l0,0c0.3-0.4,0.5-0.6,0.4-0.4c-0.2,0.4,0.8,0.6,1.3,0.2
					c1.8-1.4,2.3-3.6,3.2-4.6c1.3-1.4,0.4-3.3,0.2-3.7c0.9,0.2,1.8,0.6,2.6,1.1c0.6,0.4,1,0.9,1.4,1.5c0.3,1,0.7,1.9,1.2,2.8
					l-1.7,1.4l-1.6-1.5l-0.5,0.5c-0.4,0.5-0.7,1.1-0.9,1.8c-0.1,0.4-0.3,0.9-0.4,1.3c-0.3,0.7-0.7,1.3-1.3,1.7l-0.7,0.6
					c-0.5,0.4-1.2,0.7-1.9,0.7h-3.4c-0.4,0-0.8-0.3-0.8-0.8c0,0,0-0.1,0-0.1C1010.7,381.2,1010.8,381,1010.9,380.8z"/>
			</g>
			<g id="_Group_6">
				<path id="_Path_13" class="st62" d="M986.3,379.4c0.2-0.3,3-1,4.2-1.7c1.2-0.8,2.2-1.9,2.8-3.1c0.2-0.7-0.2-4.3-0.3-5.8
					c-1.2-10.3-4.9-25.2-5.7-31.2c-1.4-10.5-1-21.4,1.5-38.6l14-12.9c0,0,4.9,7.5,4.2,15.1c-0.4,4.4-4,5.4-4.4,7.1
					s-7.1,29.8-7.1,29.8c1.5,3.9,2.5,8,3,12.2c0.6,5.5-0.9,12.2-0.8,18.5c0.1,1.2,0.1,4.2,0.6,5.1c0.5,1.1,1.8,2.4,1.9,3.8
					c0,1-0.6,1.8-1.5,2.1c-1,0.4-1.7-0.1-2-0.1c-2.1,0.1-2.6,1.6-6.3,1.9c-1.4,0.1-2.7-0.4-3.8-1.2
					C986.1,380.2,986,379.7,986.3,379.4z"/>
				<path id="_Path_14" class="st42" d="M986.1,380.7c0.2,0.3,0.5,0.6,0.8,0.8c0.7,0.5,1.5,0.8,2.4,0.7h1.8c0.7,0,1.4-0.2,2.1-0.6
					c0.4-0.2,0.8-0.5,1.2-0.8c0.5-0.4,1.1-0.7,1.8-0.8c0.4,0,0.8,0,1.2,0l0.1,2.2h2.5c0.1-1.1,0.3-2.1,0.6-3.1
					c0.1-0.6,0-1.3-0.2-1.9c-0.4-0.9-0.9-1.8-1.6-2.5c-0.1,0.3-0.6,2.4-2.5,2.7c-1.3,0.2-3.1,1.6-5.3,1.5c-0.7,0-1.3-0.8-0.9-1
					s-0.7,0-1.5,0.3c-0.8,0.3-1.6,0.7-2.3,1.1C985.8,379.6,985.9,380.2,986.1,380.7z"/>
			</g>
			<path id="_Path_15" class="st13" d="M986.4,327.8c0,0,2.4,1.2,11,1.5c0.8,0,1.6,0.1,2.5,0.1h1.6c4.7,0,6.9-0.4,6.9-0.9
				s2.4-18.6,3.2-21.3c1.1-3,1.6-6.1,1.5-9.3c-0.3-5-4.2-10.9-5.3-11.9l-18.2-0.3c0,0-3.1,7.4-3.5,12
				C985.4,307.4,986.4,327.8,986.4,327.8z"/>
			<path id="_Path_16" class="st62" d="M1015.2,270.9c0,0-0.7,3.7-1.2,5.2s-2.7,11.2-4.8,11s-13.7-9.8-13.7-9.8l1.6-3.3l10.2,4.9
				c0,0,0.9-11,1.7-13.7L1015.2,270.9z"/>
			<g id="_Group_7">
				<path class="st63" d="M1012.3,271.3c-1.1,3.8-3.2,9.7-4,10.8c-0.4,0.5-7.2-2-7.2-4.6l7.1-8L1012.3,271.3z"/>
			</g>
			<path id="_Path_17" class="st64" d="M1005.6,254.2c2.3-0.1,4.5,0.5,6.4,1.7c4.4,3.3,3.5,15.5,3.5,15.5s0.2,0.6-2.7,0.5
				c-1.8-0.1-3.6-0.4-5.3-1l0.8-9.9L1005.6,254.2z"/>
			<path id="_Path_18" class="st64" d="M1013.2,261.1c0,0,0.4,7.1-0.9,10.7c-0.8,0-1.6-0.1-2.4-0.3L1013.2,261.1z"/>
			<g id="_Group_8">
				<path class="st64" d="M1007.9,254.8c-0.1-0.8-0.3-1.8-1.1-2.1c-0.2-0.1-0.4-0.1-0.7-0.1c-1.4-0.3-2.9-0.4-4.3-0.3
					c-1,0-1.9,0.1-2.8,0.5c-1.3,0.7-2.1,2.1-2.7,3.5L1007.9,254.8z"/>
			</g>
			<g id="_Group_9">
				<path class="st52" d="M989.8,282.8c0.6-1.3,1.2-6.5,1-7.9s-1.5-2.2-2.1-5.5c-0.5-3.1,0.2-6.2,1.9-8.8c1.3-2,3.2-5.9,3.6-6
					c5.6-1.7,6.5-0.9,10.3-0.7c1.6,0.1,3.3,0.3,4.9,0.6c2.6,0.7,4.5,2.8,4.8,5.5c0.7,4.3,0.2,7-1.2,11.1c-0.9,2.7-6,12-4.7,13.8
					c0.5,0.5,0.8,1.1,1.1,1.7c0.3,1.9-2.7,2.3-5.7,2.7c-2.9,0.2-5.8,0.2-8.7,0C986.5,288.5,989.5,283.4,989.8,282.8z"/>
			</g>
			<path id="_Path_19" class="st64" d="M989.2,270.3c0.1,0.7,0.3,1.5,0.6,2.2c0.9,0.3,1.8,0.5,2.8,0.4c0.8-2.7,1.3-5.4,1.7-8.2
				C994.2,264.7,989.2,269.6,989.2,270.3z"/>
			<g id="_Group_10">
				<path id="_Path_20" class="st62" d="M991.9,268.5c0,0-6.9,16.7-9.9,16.7c-2.2,0-7.5-15.4-7.5-15.4l3.4-1.6l3.8,6.5l4.6-11.4
					L991.9,268.5z"/>
				<path id="_Path_21" class="st62" d="M978.5,269.4c-0.6-0.9-0.9-1.9-1-3c0.2-1.1,0.2-2.1,0.1-3.2c-0.3-0.8-0.7-1.5-1.1-2.2
					c-0.3-0.3-1.5-0.7-1.8-0.5s-0.7-0.7-1.2-0.6c-0.5,0.1-0.9,0.4-0.9,0.9c0,0.5-0.7,0.5-0.7,0.9c0,0.3-0.1,0.6-0.2,0.9
					c-0.1,0.2-0.5,0.1-0.6,0.7s0,0.6,0,0.9s-0.3,0.3-0.2,0.8c0.2,0.7,0.4,1.3,0.8,1.9c0.5,0.8,1.1,1.4,1.9,1.9
					c0.5,0.4,0.9,0.9,1.1,1.5L978.5,269.4z"/>
				<g id="_Group_11">
					<path id="_Path_22" class="st63" d="M974.5,260.7c0.3,0.5,0.8,1,1.3,1.3c0.3,0.3,0.3,0.5,0.6,0.8c-0.6,0-0.5-0.4-1.3-1
						c-0.4-0.2-0.7-0.6-0.8-1c0-0.1,0-0.1,0.1-0.2C974.4,260.7,974.5,260.7,974.5,260.7L974.5,260.7z"/>
				</g>
			</g>
			<g id="_Group_12">
				<path class="st52" d="M999.2,253.6c-1.8,0.1-7.5,0.6-11,5.8c-1.9,3-3.4,6.1-4.6,9.5c1.2,1.7,5.1,3.3,7.9,3.3
					c1.4-2.5,2.4-5.3,2.9-8.1L999.2,253.6z"/>
			</g>
			<path id="_Path_23" class="st65" d="M1001.5,241.8c0.4-0.8,1.4-1.1,2.2-0.7c1.4,0.7,0.5,3.2-0.5,3.6c-0.5,0.2-1,0.1-1.4-0.2
				L1001.5,241.8z"/>
			<path id="_Path_24" class="st62" d="M1001.1,241.8c0.4-0.8,1.4-1.1,2.2-0.7c1.4,0.7,0.6,3.3-0.5,3.6c-0.5,0.1-1-0.1-1.3-0.5
				L1001.1,241.8z"/>
			<path class="st62" d="M974,260c0,0-1.1-1.9-1.2-2.2s0-0.8-0.2-1.4s-0.5-0.7-0.7-0.5c-0.2,0.8-0.2,1.5-0.1,2.3
				c0,0.2,0.1,0.5,0.2,0.7l0,0c0,0-0.1,1.2-0.2,1.8c0,0.5,0,1,0.2,1.5l0.8,0.4l0.5-1.6l-0.1-0.1l0.6,0.1L974,260z"/>
			<path class="st63" d="M971.7,258.5c0.3,0.5,0.4,1,0.6,1.5s0.4,1,0.6,1.5c-0.3-0.5-0.5-1-0.7-1.5
				C972,259.6,971.8,259.1,971.7,258.5z"/>
			<path class="st13" d="M1004.7,243.8c0,0,1.2,3.8-0.3,14c3.4,0.6,6.9,0.6,10.3,0.3c0,0,1.6-15.9-2.1-21.7"/>
		</g>
		<ellipse class="st11" cx="1111.1" cy="380.1" rx="26.8" ry="4.3"/>
		<path class="st12" d="M1117.7,344.9c0,0,12.9-8.7,12.9-22.5c-0.1-16.8,10.6-9.6,11.9-22.8c1.2-12.3-5.8-11.5-7.6-19.7
			s-8.3-13.7-10.5,0.1s6,18.7,0.8,25.7s-13.2-0.2-14.7,12.1s5.2,20.5-0.6,27.8"/>
		<g class="st2">
			<path class="st0" d="M1129,277c1,2.9,1.7,5.9,2.2,8.9c0.6,3,0.8,6.1,0.9,9.1c0,3.1-0.4,6.1-1.3,9.1c-0.5,1.5-1,2.9-1.7,4.3
				c-0.7,1.4-1.5,2.7-2.3,4c-3.4,5.1-7.9,9.4-10.8,14.7c-1.4,2.7-2.5,5.5-3,8.5c-0.5,3-0.7,6-0.5,9.1h-0.1c-0.4-3-0.3-6.1,0.2-9.1
				c0.2-1.5,0.6-3,1.1-4.5c0.5-1.5,1.1-2.9,1.8-4.2c2.9-5.5,7.5-9.7,11-14.6c1.8-2.5,3.2-5.2,4.1-8.1c0.8-2.9,1.1-6,1-9
				C1131.4,289,1130.5,282.9,1129,277L1129,277z"/>
		</g>
		<path class="st13" d="M1117.5,343.9c0,0,3.1-14.2-3.3-21.7s-9.2-9.4-10.6-15.5s2.4-13-1-17s-12.3-5.6-13.6,5.8s6.2,15.2,8.3,21.7
			s-4.1,16.8,2,27.2"/>
		<g class="st2">
			<path class="st0" d="M1097,291c-0.3,4.9,0.1,9.8,1.1,14.5c0.5,2.4,1.2,4.7,2.2,7c0.9,2.3,2,4.5,3,6.7c2.1,4.4,3.7,9.1,5,13.8
				c1.2,4.8,1.7,9.7,1.5,14.6h-0.1c0-2.4-0.2-4.9-0.5-7.3c-0.3-2.4-0.8-4.8-1.4-7.1c-1.3-4.7-2.8-9.3-4.7-13.8
				c-1.8-4.5-4.2-8.8-5.3-13.7C1096.5,300.8,1096.3,295.9,1097,291z"/>
		</g>
		<path class="st14" d="M1092.3,342.9l2.8,30.6c0.3,3.8,3.5,6.8,7.4,6.8h17.1c3.8,0,7-2.9,7.4-6.8l2.8-30.6H1092.3z"/>
		<path class="st15" d="M1092.3,342.9l2.8,30.6c0.3,3.8,3.5,6.8,7.4,6.8h8.2c3.8,0,7-2.9,7.4-6.8l2.8-30.6H1092.3z"/>
		<path class="st16" d="M1093.1,346.8h35.8c1.7,0,3-1.3,3-3l0,0c0-1.7-1.3-3-3-3h-35.8c-1.7,0-3,1.3-3,3l0,0
			C1090.1,345.5,1091.5,346.8,1093.1,346.8z"/>
		<path class="st0" d="M595.2,309.6l-174.7-0.2c-0.6,0-1.1-0.5-1.1-1.1l0.3-207c0-0.6,0.5-1.1,1.1-1.1l174.7,0.2
			c0.6,0,1.1,0.5,1.1,1.1l-0.3,207C596.3,309.1,595.8,309.6,595.2,309.6z"/>
		<path class="st66" d="M595.2,309.6l-174.7-0.2c-0.6,0-1.1-0.5-1.1-1.1l0.3-207c0-0.6,0.5-1.1,1.1-1.1l174.7,0.2
			c0.6,0,1.1,0.5,1.1,1.1l-0.3,207C596.3,309.1,595.8,309.6,595.2,309.6z"/>
		<path class="st0" d="M592.4,312.4l-174.7-0.2c-0.6,0-1.1-0.5-1.1-1.1l0.3-207c0-0.6,0.5-1,1.1-1.1l174.7,0.2
			c0.6,0,1.1,0.5,1.1,1.1l-0.3,207C593.5,311.9,593,312.4,592.4,312.4z"/>
		<path class="st35" d="M592.4,312.4l-174.7-0.2c-0.6,0-1.1-0.5-1.1-1.1l0.3-207c0-0.6,0.5-1,1.1-1.1l174.7,0.2
			c0.6,0,1.1,0.5,1.1,1.1l-0.3,207C593.5,311.9,593,312.4,592.4,312.4z"/>
		<path class="st0" d="M588.7,312.9l-172.8-0.2c-0.6,0-1.1-0.5-1.1-1.1l0.2-204.4c0-0.6,0.5-1.1,1.1-1.1l172.8,0.2
			c0.6,0,1.1,0.5,1.1,1.1l-0.3,204.4C589.8,312.4,589.3,312.9,588.7,312.9z"/>
		<path class="st33" d="M588.7,312.9l-172.8-0.2c-0.6,0-1.1-0.5-1.1-1.1l0.2-204.4c0-0.6,0.5-1.1,1.1-1.1l172.8,0.2
			c0.6,0,1.1,0.5,1.1,1.1l-0.3,204.4C589.8,312.4,589.3,312.9,588.7,312.9z"/>
		<path class="st18" d="M585,313.9l-171-0.2c-0.6,0-1.1-0.5-1.1-1.1l0.2-201.6c0-0.6,0.5-1.1,1.1-1.1l171,0.2c0.6,0,1.1,0.5,1.1,1.1
			l-0.2,201.6C586.1,313.4,585.6,313.9,585,313.9z"/>
		<path class="st0" d="M421,200.2l0-34.7c0-0.4,0.3-0.7,0.7-0.7l102.8,0.1c0.4,0,0.7,0.3,0.7,0.7l0,34.7c0,0.4-0.3,0.7-0.7,0.7
			l-102.8-0.1C421.3,200.9,421,200.5,421,200.2z"/>
		<path class="st0" d="M578.1,243.9l-156.4-0.2c-0.6,0-1-0.4-1-1v-34.1c0-0.6,0.4-1,1-1l156.4,0.2c0.6,0,1,0.4,1,1v34.1
			C579.1,243.5,578.6,243.9,578.1,243.9z"/>
		<rect x="422.3" y="254.7" class="st0" width="157.4" height="2.8"/>
		<rect x="422.3" y="247.3" class="st0" width="157.4" height="2.8"/>
		<rect x="422.3" y="262.1" class="st0" width="133.9" height="2.8"/>
		<path class="st0" d="M419.7,307.5l0-34.7c0-0.4,0.3-0.7,0.7-0.7l47.8,0.1c0.4,0,0.7,0.3,0.7,0.7l0,34.7c0,0.4-0.3,0.7-0.7,0.7
			l-47.8-0.1C420,308.2,419.7,307.9,419.7,307.5z"/>
		<path class="st0" d="M476.4,306.5l0-34.7c0-0.4,0.3-0.7,0.7-0.7l47.8,0.1c0.4,0,0.7,0.3,0.7,0.7l0,34.7c0,0.4-0.3,0.7-0.7,0.7
			l-47.8-0.1C476.7,307.2,476.4,306.9,476.4,306.5z"/>
		<path class="st0" d="M530.3,307.7l0-34.7c0-0.4,0.3-0.7,0.7-0.7l47.8,0.1c0.4,0,0.7,0.3,0.7,0.7l0,34.7c0,0.4-0.3,0.7-0.7,0.7
			l-47.8-0.1C530.6,308.4,530.3,308.1,530.3,307.7z"/>
		<path class="st0" d="M578.6,169H531c-0.5,0-0.8-0.4-0.8-0.8v0l0,0c0-0.5,0.4-0.8,0.8-0.8l0,0l47.6,0.1c0.5,0,0.8,0.4,0.8,0.8v0
			l0,0C579.4,168.7,579,169,578.6,169z"/>
		<path class="st0" d="M578.6,174l-47.6-0.1c-0.5,0-0.8-0.4-0.8-0.8v0l0,0c0-0.5,0.4-0.8,0.8-0.8l0,0l47.6,0.1
			c0.5,0,0.8,0.4,0.8,0.8v0l0,0C579.4,173.6,579.1,174,578.6,174C578.6,174,578.6,174,578.6,174z"/>
		<path class="st0" d="M578.6,178.9l-47.6-0.1c-0.5,0-0.8-0.4-0.8-0.8v0l0,0c0-0.5,0.4-0.8,0.8-0.8l0,0l47.6,0.1
			c0.5,0,0.8,0.4,0.8,0.8v0l0,0C579.4,178.5,579.1,178.9,578.6,178.9C578.6,178.9,578.6,178.9,578.6,178.9z"/>
		<path class="st0" d="M578.6,183.8l-47.6-0.1c-0.5,0-0.8-0.4-0.8-0.8v0l0,0c0-0.5,0.4-0.8,0.8-0.8l0,0l47.6,0.1
			c0.5,0,0.8,0.4,0.8,0.8v0l0,0C579.4,183.5,579.1,183.8,578.6,183.8C578.6,183.8,578.6,183.8,578.6,183.8z"/>
		<path class="st0" d="M578.6,188.7l-47.6-0.1c-0.5,0-0.8-0.4-0.8-0.8v0l0,0c0-0.5,0.3-0.8,0.8-0.9c0,0,0,0,0,0l47.6,0.1
			c0.5,0,0.8,0.4,0.8,0.8v0l0,0C579.5,188.3,579.1,188.7,578.6,188.7C578.6,188.7,578.6,188.7,578.6,188.7z"/>
		<path class="st0" d="M578.6,193.7l-47.6-0.1c-0.5,0-0.8-0.4-0.8-0.8v0l0,0c0-0.4,0.4-0.8,0.8-0.8l47.6,0.1c0.5,0,0.8,0.4,0.8,0.8
			v0l0,0C579.4,193.3,579,193.7,578.6,193.7C578.6,193.7,578.6,193.7,578.6,193.7z"/>
		<path class="st0" d="M578.5,198.6l-47.6-0.1c-0.5,0-0.8-0.4-0.8-0.8v0l0,0c0-0.5,0.4-0.8,0.8-0.8l0,0l47.6,0.1
			c0.5,0,0.8,0.4,0.8,0.8v0l0,0C579.4,198.2,579,198.6,578.5,198.6L578.5,198.6z"/>
		<path class="st0" d="M421,157.6l0-2.1c0-0.3,0.3-0.6,0.6-0.6l121.1,0.1c0.3,0,0.6,0.3,0.6,0.6l0,2.1c0,0.3-0.3,0.6-0.6,0.6
			l-121.1-0.1C421.3,158.2,421,157.9,421,157.6z"/>
		
			<rect x="566" y="112.7" transform="matrix(1.221725e-03 -1 1 1.221725e-03 443.9888 691.3139)" class="st0" width="4.1" height="21.3"/>
	</g>
</g>
</svg>
