<svg id="Layer_1" data-name="Layer 1" xmlns="http://www.w3.org/2000/svg" xmlns:xlink="http://www.w3.org/1999/xlink" viewBox="0 0 40 40"><defs><style>.cls-1{fill:#303c42;}.cls-2{fill:#4fc3f7;}.cls-3{opacity:0.1;isolation:isolate;}.cls-4{fill:url(#linear-gradient);}</style><linearGradient id="linear-gradient" x1="-199.88" y1="-403.03" x2="-197.77" y2="-402.04" gradientTransform="translate(4261.52 8607.37) scale(21.33)" gradientUnits="userSpaceOnUse"><stop offset="0" stop-color="#fff" stop-opacity="0.2"/><stop offset="1" stop-color="#fff" stop-opacity="0"/></linearGradient></defs><title>Untitled-3</title><path class="cls-1" d="M36.31,26.31a22.07,22.07,0,0,1-6.93-1.1,3.05,3.05,0,0,0-3.08.65l-4.37,3.3A24.15,24.15,0,0,1,11.08,18.3L14.28,14a3.14,3.14,0,0,0,.77-3.18,22.1,22.1,0,0,1-1.11-6.94A3.12,3.12,0,0,0,10.82.8H3.69A3.12,3.12,0,0,0,.57,3.92,35.78,35.78,0,0,0,36.31,39.67a3.12,3.12,0,0,0,3.12-3.12V29.43A3.12,3.12,0,0,0,36.31,26.31Z"/><path class="cls-2" d="M37.27,36.55a1,1,0,0,1-1,1A33.62,33.62,0,0,1,2.73,3.92a1,1,0,0,1,1-1h7.14a1,1,0,0,1,1,1A24.21,24.21,0,0,0,13,11.52a1.07,1.07,0,0,1-.34,1.11L8.94,17.55a1.08,1.08,0,0,0-.1,1.14,26.8,26.8,0,0,0,12.7,12.71,1.08,1.08,0,0,0,1.14-.1l5-3.81a1,1,0,0,1,1-.23,24.24,24.24,0,0,0,7.62,1.22,1,1,0,0,1,1,1Z"/><path class="cls-3" d="M36.31,28.47c-.77,0-1.52,0-2.28-.12v1.4A4.33,4.33,0,0,1,29.2,34,33.43,33.43,0,0,1,11,26,33.49,33.49,0,0,0,36.31,37.51a1,1,0,0,0,1-1V29.43A1,1,0,0,0,36.31,28.47Z"/><path class="cls-4" d="M36.31,26a22.07,22.07,0,0,1-6.93-1.1,3.05,3.05,0,0,0-3.08.65l-4.37,3.3A24.15,24.15,0,0,1,11.08,18l3.2-4.26a3.14,3.14,0,0,0,.77-3.18,22.1,22.1,0,0,1-1.11-6.94A3.12,3.12,0,0,0,10.82.5H3.69A3.12,3.12,0,0,0,.57,3.62,35.78,35.78,0,0,0,36.31,39.36a3.12,3.12,0,0,0,3.12-3.12V29.13A3.12,3.12,0,0,0,36.31,26Z"/></svg>