<svg id="Layer_1" data-name="Layer 1" xmlns="http://www.w3.org/2000/svg" viewBox="0 0 40 40"><defs><style>.cls-1{fill:#ffcd00;}.cls-2{fill:#ff3051;}.cls-3{fill:#e52b49;}.cls-4{fill:#bcbec0;}.cls-5{fill:#1ca0a4;}.cls-6{fill:#ff6243;}.cls-7{fill:#e5583c;}.cls-8{fill:#118e8e;}</style></defs><title>Untitled-3</title><path class="cls-1" d="M8.33,23.22l.11-.07Z"/><path class="cls-1" d="M19.07,23l.15,0Z"/><path class="cls-1" d="M19.46,22.93l.17,0Z"/><path class="cls-1" d="M30.66,23l.11,0Z"/><path class="cls-1" d="M29.12,23.22l.11-.07Z"/><path class="cls-1" d="M8.68,23l.15,0Z"/><path class="cls-1" d="M30.33,22.9h-.07l.18,0Z"/><path class="cls-1" d="M29.85,22.93l.17,0Z"/><path class="cls-1" d="M29.46,23l.15,0Z"/><path class="cls-1" d="M20.27,23l.11,0Z"/><path class="cls-1" d="M9.07,22.93l.17,0Z"/><path class="cls-1" d="M18.73,23.22l.11-.07Z"/><path class="cls-1" d="M9.55,22.9H9.49l.18,0Z"/><path class="cls-1" d="M9.88,23,10,23Z"/><path class="cls-1" d="M19.94,22.9h-.07l.18,0Z"/><path class="cls-1" d="M33.09,29.74a3.26,3.26,0,0,1-.95-2.3V25a2.06,2.06,0,0,0-1.36-2l-.11,0-.21,0-.18,0H30l-.17,0-.24.06-.15,0-.23.12-.11.07a1.94,1.94,0,0,0-.87,1.62v1.3a3.25,3.25,0,1,1-6.49,0V25a2.06,2.06,0,0,0-1.36-2l-.11,0-.21,0-.18,0h-.24l-.17,0-.24.06-.15,0-.23.12-.11.07a1.94,1.94,0,0,0-.87,1.62v3.9a3.25,3.25,0,0,1-6.49,0V25A2.06,2.06,0,0,0,10,23l-.11,0-.21,0-.18,0H9.24l-.17,0L8.83,23l-.15,0-.23.12-.11.07a1.94,1.94,0,0,0-.87,1.62v2.6a3.24,3.24,0,0,1-3.25,3.25,3.31,3.31,0,0,1-1.3-.27v8.06H36.69V30.42a3.31,3.31,0,0,1-1.3.27A3.26,3.26,0,0,1,33.09,29.74Z"/><path class="cls-2" d="M36,19H3.56A2.6,2.6,0,0,0,1,21.6v5.85a3.26,3.26,0,0,0,.95,2.3,3.25,3.25,0,0,0,5.55-2.3v-2.6a1.94,1.94,0,0,1,.87-1.62l.11-.07L8.68,23l.15,0,.24-.07.17,0h.31l.12,0,.21,0L10,23a1.94,1.94,0,0,1,1.37,1.85v3.9a3.25,3.25,0,0,0,6.49,0v-3.9a1.94,1.94,0,0,1,.87-1.62l.11-.07.23-.12.15,0,.24-.07.17,0h.31l.12,0,.21,0,.11,0a1.94,1.94,0,0,1,1.37,1.85v1.3a3.25,3.25,0,1,0,6.49,0v-1.3a1.94,1.94,0,0,1,.87-1.62l.11-.07.23-.12.15,0,.24-.07.17,0h.31l.12,0,.21,0,.11,0a1.94,1.94,0,0,1,1.37,1.85v2.6a3.24,3.24,0,0,0,3.25,3.25,3.31,3.31,0,0,0,1.3-.27,3.27,3.27,0,0,0,1.95-3V21.6A2.6,2.6,0,0,0,36,19Z"/><path class="cls-3" d="M6.51,29.74a3.26,3.26,0,0,0,.95-2.3v1.3a3.25,3.25,0,1,1-6.49,0v-1.3a3.26,3.26,0,0,0,.95,2.3,3.22,3.22,0,0,0,2.3.95A3.26,3.26,0,0,0,6.51,29.74Z"/><path class="cls-3" d="M16.9,31a3.26,3.26,0,0,0,.95-2.3V30a3.25,3.25,0,0,1-6.49,0v-1.3A3.25,3.25,0,0,0,16.9,31Z"/><path class="cls-3" d="M27.29,28.44a3.26,3.26,0,0,0,.95-2.3v1.3a3.25,3.25,0,1,1-6.49,0v-1.3a3.25,3.25,0,0,0,5.55,2.3Z"/><path class="cls-3" d="M38.63,27.44v1.3a3.27,3.27,0,0,1-1.95,3,3.31,3.31,0,0,1-1.3.27,3.24,3.24,0,0,1-3.25-3.25v-1.3a3.24,3.24,0,0,0,3.25,3.25,3.31,3.31,0,0,0,1.3-.27A3.27,3.27,0,0,0,38.63,27.44Z"/><path class="cls-4" d="M38.63,39.13H1a.65.65,0,0,1,0-1.3H38.63a.65.65,0,0,1,0,1.3Z"/><path class="cls-1" d="M28.81,23.47a2,2,0,0,1,.3-.25A2,2,0,0,0,28.81,23.47Z"/><path class="cls-1" d="M11.36,25v-.11A1.94,1.94,0,0,0,10,23,2.06,2.06,0,0,1,11.36,25Z"/><path class="cls-1" d="M20.06,22.92l.21,0Z"/><path class="cls-1" d="M21.75,25v-.11A1.94,1.94,0,0,0,20.38,23,2.06,2.06,0,0,1,21.75,25Z"/><path class="cls-1" d="M32.14,25v-.11A1.94,1.94,0,0,0,30.78,23,2.06,2.06,0,0,1,32.14,25Z"/><path class="cls-1" d="M19.22,23l.24-.07Z"/><path class="cls-1" d="M9.41,22.9l-.17,0h.17Z"/><path class="cls-1" d="M9.67,22.92l.21,0Z"/><path class="cls-1" d="M30.19,22.9l-.17,0h.17Z"/><path class="cls-1" d="M8.45,23.16,8.68,23Z"/><path class="cls-1" d="M29.23,23.16l.23-.12Z"/><path class="cls-1" d="M29.61,23l.24-.07Z"/><path class="cls-1" d="M8,23.47a2,2,0,0,1,.3-.25A2,2,0,0,0,8,23.47Z"/><path class="cls-1" d="M8.83,23l.24-.07Z"/><path class="cls-1" d="M19.8,22.9l-.17,0h.17Z"/><path class="cls-1" d="M18.42,23.47a2,2,0,0,1,.3-.25A2,2,0,0,0,18.42,23.47Z"/><path class="cls-1" d="M30.45,22.92l.21,0Z"/><path class="cls-1" d="M18.84,23.16l.23-.12Z"/><path class="cls-5" d="M17.85,10.56h3.9V19h-3.9Z"/><path class="cls-6" d="M17.2,5.36a2.6,2.6,0,0,0,5.2,0c0-1.43-2.6-5.2-2.6-5.2S17.2,3.93,17.2,5.36Z"/><path class="cls-5" d="M28.89,11.86h3.9V19h-3.9Z"/><path class="cls-6" d="M28.24,6.66a2.6,2.6,0,1,0,5.2,0c0-1.43-2.6-5.2-2.6-5.2S28.24,5.23,28.24,6.66Z"/><path class="cls-5" d="M6.81,11.86h3.9V19H6.81Z"/><path class="cls-6" d="M11.36,6.66A2.6,2.6,0,0,1,9.09,9.24h0l-.32,0a2.6,2.6,0,0,1-2.6-2.6c0-1.44,2.6-5.2,2.6-5.2L9.08,2C9.79,3,11.36,5.54,11.36,6.66Z"/><path class="cls-7" d="M9.08,9.24l-.32,0a2.6,2.6,0,0,1-2.6-2.6c0-1.44,2.6-5.2,2.6-5.2L9.08,2C8.38,3,6.81,5.54,6.81,6.66A2.6,2.6,0,0,0,9.08,9.24Z"/><path class="cls-7" d="M20.12,7.94,19.8,8a2.6,2.6,0,0,1-2.6-2.6c0-1.44,2.6-5.2,2.6-5.2l.32.49c-.7,1.07-2.27,3.59-2.27,4.71A2.6,2.6,0,0,0,20.12,7.94Z"/><path class="cls-7" d="M31.17,9.24l-.32,0a2.6,2.6,0,0,1-2.6-2.6c0-1.44,2.6-5.2,2.6-5.2l.32.49c-.7,1.07-2.27,3.59-2.27,4.71A2.6,2.6,0,0,0,31.17,9.24Z"/><path class="cls-8" d="M6.81,11.86h3.9v1.3H6.81Z"/><path class="cls-8" d="M17.85,10.56h3.9v1.3h-3.9Z"/><path class="cls-8" d="M28.89,11.86h3.9v1.3h-3.9Z"/></svg>