<?xml version="1.0" encoding="utf-8"?>
<!-- Generator: Adobe Illustrator 21.0.0, SVG Export Plug-In . SVG Version: 6.00 Build 0)  -->
<svg version="1.1" id="Layer_1" xmlns="http://www.w3.org/2000/svg" xmlns:xlink="http://www.w3.org/1999/xlink" x="0px" y="0px"
	 viewBox="0 0 799.7 1130.8" style="enable-background:new 0 0 799.7 1130.8;" xml:space="preserve">
<style type="text/css">
	.st0{fill:#FFFFFF;}
	.st1{fill:#87D5F7;}
	.st2{opacity:0.4;}
	.st3{fill:#20BFDA;}
	.st4{fill:#689B32;}
	.st5{fill:#ADD036;}
	.st6{fill:#7FB93C;}
	.st7{fill:#F9A93F;}
	.st8{fill:#FAD658;}
	.st9{fill:#5A91CC;}
	.st10{fill:#EA6580;}
	.st11{fill:#F5B32C;}
	.st12{fill:#DF9038;}
	.st13{fill:#4A60AB;}
	.st14{fill:none;stroke:#B8BABA;stroke-width:3.56;stroke-linecap:round;stroke-linejoin:round;}
	.st15{fill:#525354;}
	.st16{fill:#E7A387;}
	.st17{fill:#474950;}
	.st18{fill:#3B3534;}
	.st19{opacity:0.1;enable-background:new    ;}
	.st20{opacity:5.000000e-02;fill:#FFFFFF;enable-background:new    ;}
	.st21{opacity:5.000000e-02;enable-background:new    ;}
	.st22{fill:#3D3D3D;}
	.st23{fill:#D7937F;}
	.st24{fill:#2D2B2A;}
	.st25{fill:#F3F3E9;}
	.st26{fill:#6D4D4B;}
	.st27{opacity:7.000000e-02;fill:#FFFFFF;enable-background:new    ;}
	.st28{fill:#FBB823;}
	.st29{fill:#555050;}
	.st30{opacity:0.1;}
	.st31{fill:#AFAFAF;}
	.st32{opacity:0.55;fill:#FFFFFF;enable-background:new    ;}
	.st33{fill:#9B9B9B;}
	.st34{fill:#3C3938;}
	.st35{fill:#666666;}
	.st36{fill:#1E2225;}
	.st37{fill:#C11F1F;}
	.st38{fill:#DD2424;}
	.st39{fill:#A5ADAE;}
	.st40{fill:#2B3033;}
	.st41{fill:#767777;}
	.st42{fill:#E23C34;}
	.st43{opacity:0.2;enable-background:new    ;}
	.st44{opacity:0.1;fill:#FFFFFF;enable-background:new    ;}
	.st45{fill:#BAAB90;}
	.st46{fill:#F8EDD7;}
	.st47{fill:#99988C;}
	.st48{fill:#7F7F79;}
	.st49{fill:#D8D8D8;}
	.st50{opacity:6.000000e-02;enable-background:new    ;}
	.st51{fill:#77726A;}
	.st52{fill:#66625C;}
	.st53{fill:#4F4C48;}
</style>
<title>xe1</title>
<g>
	<g id="Layer_1_1_">
		<circle class="st0" cx="395.8" cy="637.7" r="280.4"/>
	</g>
	<g id="Layer_3">
		<rect x="0.7" class="st1" width="799" height="1129.8"/>
		<g class="st2">
			<polygon class="st3" points="727.3,262.3 706.9,327.2 727.3,327.2 			"/>
			<path class="st3" d="M500.6,468.4v273.2H628V468.4H500.6z M552.4,691.4h-34.5V633h34.5V691.4z M552.4,550.7h-34.5v-58.4h34.5
				V550.7z M610.7,621.1h-34.5v-58.4h34.5V621.1z"/>
			<path class="st3" d="M727.3,383h-8.4v-37.8h8.4v-18h-59.5v66.3h59.5V383z"/>
			<path class="st3" d="M359.8,234.8v506.7h127.4V234.8H359.8z M400.4,691.4H371v-47.3h29.4L400.4,691.4z M400.4,628.3H371V581h29.4
				L400.4,628.3z M400.4,502.1H371v-47.3h29.4L400.4,502.1z M400.4,438.9H371v-47.3h29.4L400.4,438.9z M400.4,312.7H371v-47.3h29.4
				L400.4,312.7z M437.4,628.3h-29.5V581h29.4L437.4,628.3z M437.4,565.2h-29.5v-47.3h29.4L437.4,565.2z M437.4,502.1h-29.5v-47.3
				h29.4L437.4,502.1z M437.4,375.8h-29.5v-47.3h29.4L437.4,375.8z M437.4,312.7h-29.5v-47.4h29.4L437.4,312.7z M474.3,691.4h-29.5
				v-47.3h29.4L474.3,691.4z M474.3,565.2h-29.5v-47.4h29.4L474.3,565.2z M474.3,438.9h-29.5v-47.3h29.4L474.3,438.9z M474.3,375.8
				h-29.5v-47.3h29.4L474.3,375.8z"/>
			<path class="st3" d="M727.3,679.2h-12.8v-51.8h12.8v-19.1h-12.8v-51.8h12.8v-19.1h-12.8v-51.8h12.8v-19.1h-12.8v-51.8h12.8v-21
				h-82.5v348h82.5L727.3,679.2z M704.9,679.2h-37.7v-51.8h37.7L704.9,679.2z M704.9,537.3h-37.7v-51.8h37.7L704.9,537.3z"/>
			<path class="st3" d="M244.9,216.2v84.1h79.4v-84.1H244.9z M270,286.9h-17.4V239H270L270,286.9z M316.7,286.9h-17.4V239h17.4
				V286.9z"/>
			<path class="st3" d="M230.9,300.3v441.3h107.3V300.3H230.9z M267.3,662.5h-22.8v-65.7h22.8L267.3,662.5z M267.3,482.6h-22.8
				v-65.7h22.8L267.3,482.6z M267.3,392.6h-22.8v-65.7h22.8L267.3,392.6z M296,662.5h-22.8v-65.7H296L296,662.5z M296,572.5h-22.8
				v-65.7H296L296,572.5z M296,482.6h-22.8v-65.7H296L296,482.6z M324.7,572.5h-22.8v-65.7h22.8V572.5z M324.7,392.6h-22.8v-65.7
				h22.8V392.6z"/>
			<path class="st3" d="M71.7,317.3h-9.2v424.2h153v-350L71.7,317.3z M110.4,680.1H79.1v-51.8h31.4L110.4,680.1z M110.4,537.3H79.1
				v-51.8h31.4L110.4,537.3z M154.7,608.7h-31.3v-51.8h31.3V608.7z M198.9,680.1h-31.3v-51.8H199L198.9,680.1z M198.9,608.7h-31.3
				v-51.8H199L198.9,608.7z M198.9,465.9h-31.3v-51.8H199L198.9,465.9z"/>
			<rect x="283.1" y="109.2" class="st3" width="3" height="107"/>
		</g>
		<path class="st0" d="M151.4,176.6c-4.7-25.4-59.8-20-45.2,2.7c-15.7-13.8-52.9,1.1-40.3,23.5c8.2,14.4,32.8,14.5,47,16
			c24.2,2.6,102.7,1.7,116.4,0.2c10.1-1.1,26.4,3.2,27.3-8.8c1.1-14.4-16.7-17.6-24.3-15.9c6.1-15.2-33.9-16.8-42.4-15.6
			c-4.2,0.6-8.2,1-8.2,1s-8.2-4.9-13.2-5.8c-4.8-0.9-13.7-2.6-15.8,2.8L151.4,176.6z"/>
		<path class="st0" d="M641.2,172.2c-4.2-22.4-52.8-17.6-40,2.4c-13.8-12.2-46.8,1-35.6,20.7c7.2,12.7,28.9,12.8,41.6,14.2
			c21.4,2.3,90.8,1.5,102.9,0.2c8.9-1,23.4,2.9,24.2-7.7c1-12.7-14.8-15.6-21.4-14.1c5.4-13.5-29.9-14.9-37.5-13.8
			c-3.7,0.5-7.2,0.9-7.2,0.9s-7.2-4.3-11.7-5.1c-4.2-0.8-12.1-2.3-13.9,2.5L641.2,172.2z"/>
	</g>
	<g id="Layer_2">
		<path class="st4" d="M763.7,739L763.7,739c0,0.1,0,0.2,0,0.2c-0.6,0.6-1.2,1.2-1.8,1.8c-1.5,1.8-2.7,3.7-3.7,5.8
			c-1.6,0.2-3.3,0.6-4.8,1.3c-1.5-1-3.5-1.2-5.2-0.5c-0.9,0.4-1.8,1-2.5,1.7c-0.4-0.3-0.8-0.6-1.3-0.8c-1.8-0.9-3.7-1.6-5.7-1.8
			c-0.9-2.1-2.2-4.1-3.7-5.8c-0.5-0.7-1.1-1.3-1.8-1.8c0,0,0-0.1,0-0.2c-0.4-4.4-3.5-7.4-7.5-8.8c-0.3-0.1-0.7-0.2-1-0.3
			c-0.8-4.4-2.9-8.5-6.2-11.6c-1.4-1.4-3.5-1.6-5.2-0.7c-1.8,1-3.4,2.5-4.7,4.2c-1.7,0.1-3.3,0.6-4.7,1.6c-1.2,0.8-2.3,1.8-3.1,3
			c-1.2-0.2-2.5-0.3-3.8-0.2c-3,0.3-5.9,1.5-8.3,3.4c-0.2-0.2-0.4-0.3-0.6-0.5c-3.4-2.3-8.2-1.6-11.3,0.7c-3,2.1-4.8,5.4-5,9
			c-1.8,1.4-3.2,3.4-4,5.5c-0.9,2.2-1.2,4.6-0.9,7c-0.8,0.1-1.6,0.3-2.3,0.7c-0.8-2-2.4-3.5-4.3-4.4c-1.7-0.7-3.6-0.5-5.2,0.5
			c-1.5-0.7-3.1-1.2-4.7-1.4c-0.9-2.1-2.2-4.1-3.7-5.8c-0.5-0.7-1.1-1.3-1.8-1.8c0,0,0-0.1,0-0.2c-0.4-4.4-3.5-7.4-7.5-8.8
			c-0.3-0.1-0.7-0.2-1-0.3c-0.8-4.4-2.9-8.5-6.1-11.6c-1.4-1.4-3.5-1.6-5.2-0.7c-1.8,1-3.4,2.5-4.6,4.2c-1.7,0.1-3.3,0.6-4.7,1.6
			c-1.2,0.8-2.3,1.8-3.1,3c-1.2-0.2-2.5-0.3-3.8-0.2c-3,0.3-5.9,1.5-8.3,3.4c-0.2-0.2-0.4-0.3-0.6-0.5c-3.4-2.3-8.2-1.6-11.3,0.7
			c-3,2.1-4.8,5.4-5,9c-1.8,1.4-3.2,3.4-4,5.5c-1.1,2.7-1.3,5.8-0.6,8.6c-0.2,0.2-0.5,0.3-0.7,0.5c-0.2-0.2-0.4-0.5-0.6-0.7
			c-1.7-1.8-4.3-2.1-6.4-0.8c-0.8-2-2.4-3.5-4.3-4.4c-1.7-0.7-3.6-0.5-5.2,0.5c-1.5-0.7-3.1-1.1-4.8-1.3c-0.9-2.1-2.2-4.1-3.7-5.8
			c-0.5-0.7-1.1-1.3-1.8-1.8c0,0,0-0.1,0-0.2c-0.4-4.4-3.5-7.4-7.5-8.8c-0.3-0.1-0.7-0.2-1-0.3c-0.8-4.4-2.9-8.5-6.1-11.6
			c-1.4-1.4-3.5-1.6-5.2-0.7c-1.8,1-3.4,2.5-4.6,4.2c-1.7,0.1-3.3,0.6-4.7,1.6c-1.2,0.8-2.3,1.8-3.1,3c-1.2-0.2-2.5-0.3-3.8-0.2
			c-3.1,0.2-6,1.4-8.4,3.3c-0.2-0.2-0.4-0.3-0.6-0.5c-3.4-2.3-8.2-1.6-11.3,0.7c-3,2.1-4.8,5.4-5,9c-1.8,1.4-3.2,3.4-4,5.5
			c-1.1,2.7-1.3,5.8-0.6,8.6c-0.2,0.2-0.5,0.4-0.7,0.5c-0.2-0.2-0.4-0.5-0.6-0.7c-1.7-1.8-4.3-2.1-6.4-0.8c-0.8-2-2.4-3.5-4.3-4.4
			c-1.7-0.7-3.6-0.5-5.1,0.5c-1.5-0.7-3.1-1.1-4.8-1.3c-0.9-2.1-2.2-4.1-3.7-5.8c-0.5-0.7-1.1-1.3-1.8-1.8c0,0,0-0.1,0-0.2
			c-0.4-4.4-3.5-7.4-7.5-8.8c-0.3-0.1-0.7-0.2-1-0.3c-0.8-4.4-2.9-8.5-6.1-11.6c-1.4-1.4-3.5-1.6-5.2-0.7c-1.8,1-3.4,2.5-4.6,4.2
			c-1.7,0.1-3.3,0.6-4.6,1.6c-1.2,0.8-2.3,1.8-3.1,3c-1.2-0.2-2.5-0.3-3.8-0.2c-3,0.3-5.9,1.5-8.3,3.4c-0.2-0.2-0.4-0.3-0.6-0.5
			c-3.4-2.3-8.2-1.6-11.3,0.7c-3,2.1-4.8,5.4-5,9c-1.8,1.4-3.2,3.4-4,5.5c-1.1,2.7-1.3,5.8-0.6,8.6c-2.1,1.6-3.6,3.7-4.5,6.1
			c-0.9,2.6-1.2,5.4-0.6,8.1l-0.3,0.1c-4.5,1.3-7.4,5.8-8.3,10.2c-1,4.7,0.1,9.7,3.1,13.5c1.9,2.3,4.5,3.8,7.4,4.4
			c0.6,1.7,2.3,2.9,4.1,2.9c3.6,0,7.1,0.5,10.7,0.7c5.3,0.3,11-0.1,15.5-2.7c1.8,0.9,3.8,1.6,5.7,2.2c-0.5,1.1-0.8,2.2-0.9,3.4
			c-0.4,2.9,0.5,5.8,2.5,8c2,1.9,4.5,2.2,7,1.6c2,1.1,4.3,1.7,6.5,1.8c4.4,0.5,8.8,0,13.1-0.2c1.7-0.1,3.4-0.2,5.1-0.2
			c3.1,0.1,6.3,1.1,9.3,1.8c6.3,1.4,12.2,1.7,18.5-0.1c2.9-0.8,6.3-2.5,6.5-5.8c0-1.3-0.5-2.6-1.5-3.4c2.7-0.1,5.3-0.8,7.7-1.9
			c1.3-0.7,2.4-1.8,3-3.1c2.2-0.3,4.4-1.1,6.4-2.1c1.5-0.4,2.9-1,4.2-1.7c1.8,0.9,3.8,1.6,5.7,2.2c-0.5,1.1-0.8,2.2-0.9,3.4
			c-0.4,2.9,0.5,5.8,2.5,8c2,1.9,4.5,2.2,7,1.6c2,1.1,4.3,1.7,6.5,1.8c4.3,0.5,8.8,0,13.1-0.2c1.7-0.1,3.4-0.2,5.1-0.2
			c3.1,0.1,6.3,1.1,9.3,1.8c6.3,1.4,12.2,1.7,18.5-0.1c2.9-0.8,6.3-2.5,6.5-5.8c0-1.3-0.5-2.6-1.5-3.4c2.7-0.1,5.3-0.8,7.7-1.9
			c1.3-0.7,2.4-1.8,3-3.1c2.2-0.3,4.4-1.1,6.4-2.1c1.5-0.4,2.8-1,4.2-1.7c1.8,0.9,3.8,1.6,5.7,2.2c-0.5,1.1-0.8,2.2-0.9,3.4
			c-0.4,2.9,0.5,5.8,2.5,8c2,1.9,4.5,2.2,7,1.6c2,1.1,4.3,1.7,6.5,1.8c4.3,0.5,8.8,0,13.1-0.2c1.7-0.1,3.4-0.2,5.1-0.2
			c3.1,0.1,6.3,1.1,9.3,1.8c6.3,1.4,12.2,1.7,18.5-0.1c2.9-0.8,6.3-2.5,6.5-5.8c0-1.3-0.5-2.6-1.5-3.4c2.7-0.1,5.3-0.8,7.7-1.9
			c1.3-0.7,2.4-1.8,3-3.1c2.7-0.4,5.3-1.4,7.6-2.9c3.5,1.4,7.3,2.2,11.1,2.3c0.7,0,1.4,0,2.1-0.1c3,1.4,6.3,2.2,9.6,2.6l1.5,0.2
			c0.4,0.4,1,0.8,1.5,1.1c2.4,1.1,5.1,1.8,7.7,1.9c-1,0.9-1.5,2.1-1.5,3.4c0.2,3.4,3.6,5,6.5,5.8c6.3,1.8,12.2,1.5,18.5,0.1
			c3-0.7,6.2-1.7,9.3-1.8h0.3V739z"/>
		<rect x="0.7" y="774.6" class="st5" width="799" height="356.1"/>
		<path class="st4" d="M57.9,716.7c1.8-5.4,5.5-10,10.5-12.8c2.3-1.2,4.8-2,7.4-2.3c1.2-2.8,2.8-5.3,4.8-7.6
			c0.7-0.8,1.5-1.6,2.3-2.4c0-0.1,0-0.1,0-0.2c0.6-5.7,4.6-9.6,9.8-11.4c0.4-0.1,0.9-0.3,1.3-0.4c1-5.7,3.8-11,8-15.1
			c1.8-1.8,4.6-2.1,6.8-0.9c2.4,1.3,4.4,3.2,6,5.4c2.2,0.1,4.2,0.8,6,2.1c1.6,1.1,2.9,2.4,4.1,3.9c1.6-0.3,3.3-0.4,4.9-0.2
			c4,0.4,7.7,1.9,10.8,4.5c0.3-0.2,0.6-0.4,0.8-0.6c4.4-3,10.6-2,14.7,0.9c3.7,2.7,6.5,7,6.6,11.7c2.4,1.9,4.2,4.4,5.2,7.2
			c1.5,3.6,1.7,7.5,0.7,11.2c2.7,2,4.7,4.8,5.8,8c1.2,3.4,1.5,7,0.8,10.6l0.4,0.1c5.9,1.7,9.7,7.6,10.8,13.3
			c1.3,6.2-0.1,12.6-4,17.6c-2.5,3.1-5.9,5.2-9.8,5.9c-0.8,2.3-3,3.8-5.4,3.8c-4.6,0.1-9.3,0.6-13.9,0.9c-6.9,0.4-14.3-0.1-20.2-3.5
			c-5.3,2.7-11.2,4.1-17.2,4.2c-0.9,0-1.8,0-2.7-0.2c-3.9,1.8-8.1,2.9-12.4,3.3c-8,1.1-17.2,1.3-24.6-2.1c-3.4-1.6-5.9-4.5-6.8-8.1
			c-6.5-0.3-13.1-2.2-17.1-7.4c-1.5-1.9-2.4-4.2-2.8-6.6c-3.9-2.8-6.3-7.3-6.4-12.2C42.3,726.6,49.5,719,57.9,716.7z"/>
		<path class="st6" d="M126.8,773.3c-0.2-3-1.5-5.7-3.7-7.8c1-1.8,1.6-3.7,1.8-5.7c0.2-2.9-0.8-5.7-2.7-7.8c0.2-0.8,0.2-1.6,0.1-2.4
			c-0.4-3.5-2.3-6.6-5.2-8.5l-0.4-0.3c0.1-0.8,0.1-1.7,0.1-2.5c-0.2-5.8-1.3-13.1-5.7-17.3c-1.2-1.2-3.1-1.2-4.2,0
			c-1.3,1.2-2.4,2.6-3.2,4.1c-1-0.9-2.3-1.5-3.7-1.6c-0.5-1.3-1.2-2.5-2-3.6c-1.1-1.5-2.6-2.6-4.3-3.3c-0.4-3.5-1.9-6.6-5-8.3
			c-2.8-1.5-4.9-1-6.5,0.6c-0.6-0.8-1.3-1.6-2-2.3c-1.2-1.2-3.1-1.2-4.2,0c-0.5,0.5-0.9,1.1-1.4,1.6c-2.1-4.1-6.6-7.8-11.5-5.8
			c-2.5,1.1-4.6,3.2-5.6,5.7c-2.7-1.4-5.7-1.5-8.3,1c-3.2,3.2-3.6,8.1-3,12.6c-4.5-0.9-9.2-0.3-12.4,2.6c-0.5,0.5-1,1-1.5,1.5v50.2
			c2.4,0.8,4.9,1.3,7.4,1.5c-1.3,1.1-2,2.8-1.9,4.5c0.3,4.4,4.7,6.5,8.4,7.6c8.2,2.4,15.9,1.9,24.1,0.1c3.9-0.9,8.1-2.2,12.1-2.3
			c2.2-0.1,4.4,0.1,6.6,0.2c5.7,0.3,11.4,0.9,17.1,0.3c2.8-0.3,6-0.8,8.5-2.3c3.2,0.8,6.5,0.5,9.1-2
			C126.1,781,127.3,777.2,126.8,773.3z"/>
		<path class="st4" d="M175.6,743c1.8-5.4,5.5-10,10.4-12.8c2.3-1.2,4.8-2,7.4-2.3c1.2-2.7,2.8-5.3,4.8-7.6c0.7-0.8,1.5-1.6,2.3-2.4
			c0-0.1,0-0.1,0-0.2c0.6-5.7,4.6-9.6,9.8-11.4c0.4-0.1,0.8-0.3,1.3-0.4c1-5.7,3.8-11,8-15.1c1.8-1.8,4.6-2.1,6.8-0.9
			c2.4,1.3,4.4,3.2,6,5.4c2.2,0.1,4.2,0.8,6,2.1c1.6,1.1,2.9,2.4,4.1,3.9c1.6-0.3,3.2-0.4,4.9-0.3c4,0.4,7.7,1.9,10.8,4.5
			c0.3-0.2,0.5-0.4,0.8-0.6c4.4-3,10.6-2,14.7,0.9c3.7,2.7,6.5,7,6.6,11.7c2.4,1.9,4.2,4.4,5.2,7.2c1.5,3.6,1.7,7.5,0.7,11.2
			c2.7,2,4.7,4.8,5.8,8c1.2,3.4,1.5,7,0.8,10.6l0.4,0.1c5.9,1.7,9.7,7.5,10.8,13.3c1.3,6.2-0.1,12.6-4,17.6
			c-2.5,3.1-5.9,5.2-9.8,5.9c-0.8,2.3-3,3.8-5.4,3.8c-4.7,0.1-9.3,0.6-14,0.9c-6.9,0.4-14.2-0.1-20.2-3.5
			c-5.3,2.7-11.2,4.1-17.2,4.2c-0.9,0-1.8,0-2.7-0.2c-3.9,1.8-8.1,2.9-12.4,3.4c-8,1.1-17.2,1.3-24.6-2.1c-3.4-1.6-5.9-4.5-6.9-8.1
			c-6.5-0.3-13.1-2.2-17.1-7.4c-1.5-1.9-2.4-4.2-2.8-6.6c-3.9-2.9-6.2-7.4-6.3-12.2C160,753,167.2,745.4,175.6,743z"/>
		<path class="st6" d="M134.6,777.7c0.1-0.6,0.2-1.3,0.4-1.9c0.8-2.6,2.7-4.8,5.2-5.8c-0.5-4.5,2.3-8.7,6.7-9.9
			c0.2-3.5,1.8-6.8,4.5-9.1c3.2-2.8,7.9-3.5,12.4-2.6c-0.6-4.5-0.3-9.4,3-12.6c2.6-2.6,5.7-2.5,8.3-1.1c1.1-2.6,3.1-4.6,5.6-5.7
			c4.9-2,9.4,1.8,11.5,5.8c0.4-0.6,0.9-1.1,1.4-1.6c1.2-1.2,3.1-1.2,4.2,0c0.7,0.7,1.4,1.5,2,2.3c1.6-1.6,3.7-2.1,6.5-0.6
			c3.2,1.7,4.6,4.8,5,8.3c1.7,0.6,3.2,1.8,4.3,3.3c0.8,1.1,1.5,2.3,2,3.6c1.4,0.1,2.7,0.7,3.7,1.6c0.8-1.5,1.9-2.9,3.2-4.1
			c1.2-1.2,3.1-1.2,4.2,0c4.4,4.2,5.6,11.5,5.7,17.3c0,0.8,0,1.6-0.1,2.5l0.4,0.3c2.9,1.9,4.8,5,5.2,8.5c0.1,0.8,0.1,1.6-0.1,2.4
			c1.9,2.1,2.9,4.9,2.7,7.8c-0.2,2-0.8,3.9-1.8,5.7c2.2,2,3.5,4.8,3.7,7.8c0.5,3.8-0.7,7.6-3.3,10.5c-2.5,2.5-5.9,2.8-9.1,2
			c-2.5,1.5-5.8,2-8.5,2.3c-5.7,0.6-11.4,0-17.1-0.3c-2.2-0.1-4.4-0.3-6.6-0.2c-4.1,0.1-8.2,1.4-12.1,2.3
			c-8.2,1.8-15.9,2.3-24.1-0.1c-3.8-1.1-8.1-3.2-8.4-7.6c0-1.7,0.7-3.3,1.9-4.5c-3.5-0.2-6.9-1-10.1-2.5c-1.7-0.9-3.1-2.3-3.9-4.1
			c-5.6-1-12.2-3.4-13.8-9.1C128.1,783.3,130.5,779.8,134.6,777.7z"/>
		<path class="st4" d="M764.6,810.9c-1.5-4.6-4.7-8.5-8.9-10.9c-2-1-4.1-1.7-6.3-2c-1-2.3-2.4-4.5-4-6.5c-0.6-0.7-1.3-1.4-2-2
			c0-0.1,0-0.1,0-0.2c-0.5-4.8-3.9-8.2-8.3-9.7c-0.4-0.1-0.7-0.2-1.1-0.3c-0.8-4.9-3.2-9.4-6.8-12.8c-1.5-1.5-3.9-1.8-5.7-0.7
			c-2,1.1-3.8,2.7-5.1,4.6c-1.8,0.1-3.6,0.7-5.1,1.8c-1.3,0.9-2.5,2-3.5,3.3c-1.4-0.3-2.8-0.3-4.2-0.2c-3.4,0.3-6.6,1.6-9.2,3.8
			c-0.2-0.2-0.5-0.4-0.7-0.5c-3.7-2.5-9-1.7-12.5,0.8c-3.3,2.3-5.3,5.9-5.6,9.9c-2,1.6-3.5,3.7-4.4,6.1c-1.2,3-1.5,6.4-0.6,9.5
			c-2.3,1.7-4,4.1-4.9,6.8c-1.1,2.9-1.3,6-0.7,9l-0.3,0.1c-5,1.5-8.2,6.4-9.2,11.3c-1.1,5.3,0.1,10.7,3.4,15c2.1,2.6,5.1,4.4,8.3,5
			c0.7,1.9,2.5,3.2,4.6,3.2c4,0,7.9,0.5,11.9,0.7c5.9,0.3,12.1-0.1,17.2-3c4.5,2.3,9.5,3.5,14.6,3.6c0.8,0,1.5,0,2.3-0.1
			c3.4,1.5,6.9,2.5,10.6,2.9c6.8,0.9,14.6,1.1,20.9-1.8c2.9-1.3,5-3.9,5.8-6.9c5.5-0.2,11.1-1.9,14.5-6.3c1.2-1.6,2.1-3.6,2.4-5.6
			c3.3-2.4,5.3-6.2,5.4-10.3C777.8,819.4,771.7,812.9,764.6,810.9z"/>
		<path class="st6" d="M778.7,815.1c-1.3-0.1-2.7,0-4,0.3c0.5-3.8,0.2-8-2.5-10.7c-1.8-1.9-4.8-2.3-7-0.9c-0.9-2.2-2.6-3.9-4.8-4.9
			c-4.1-1.7-8,1.5-9.8,5c-0.4-0.5-0.8-0.9-1.2-1.4c-1-1-2.6-1-3.6,0c-0.6,0.6-1.2,1.2-1.7,1.9c-1.4-1.3-3.2-1.8-5.6-0.5
			c-2.7,1.4-3.9,4-4.3,7c-1.5,0.5-2.7,1.5-3.6,2.8c-0.7,0.9-1.3,2-1.7,3.1c-1.2,0.1-2.3,0.6-3.2,1.4c-0.7-1.3-1.6-2.5-2.7-3.5
			c-1-1-2.6-1-3.6,0c-3.7,3.5-4.7,9.8-4.9,14.7c0,0.7,0,1.4,0,2.1l-0.4,0.2c-2.5,1.6-4.1,4.3-4.5,7.2c-0.1,0.7,0,1.4,0.1,2.1
			c-1.6,1.8-2.5,4.2-2.3,6.6c0.2,1.7,0.7,3.3,1.5,4.8c-1.8,1.7-2.9,4.1-3.1,6.6c-0.4,3.2,0.6,6.5,2.8,8.9c2.2,2.1,5,2.4,7.7,1.7
			c2.2,1.2,4.7,1.9,7.2,2c4.8,0.5,9.7,0,14.5-0.3c1.9-0.1,3.7-0.2,5.6-0.2c3.5,0.1,7,1.2,10.3,1.9c7,1.5,13.5,1.9,20.5-0.1
			c1.4-0.4,2.8-1,4-1.7L778.7,815.1z"/>
		<rect x="1.3" y="910.1" class="st7" width="798" height="52.6"/>
		<rect y="962.2" class="st8" width="799.5" height="47.2"/>
		
			<rect x="355" y="779.5" transform="matrix(0.9652 -0.2614 0.2614 0.9652 -189.0514 141.0682)" class="st9" width="161.4" height="3.2"/>
		
			<rect x="355.3" y="781.5" transform="matrix(0.9652 -0.2614 0.2614 0.9652 -189.2998 141.1718)" class="st9" width="161.4" height="1.2"/>
		<path class="st10" d="M381.2,796.3c0.4,1.4-0.4,2.8-1.8,3.1l-19.4,5.3c-1.4,0.4-2.8-0.4-3.1-1.8l0,0c-0.4-1.4,0.4-2.8,1.8-3.1
			l19.4-5.3C379.4,794.1,380.8,794.9,381.2,796.3L381.2,796.3z"/>
		<path class="st10" d="M378.9,797.5l-19.4,5.3c-1,0.3-2-0.1-2.7-0.9c-0.2,1.4,0.8,2.7,2.2,2.9c0.4,0.1,0.7,0,1.1-0.1l19.4-5.3
			c1.4-0.4,2.2-1.8,1.8-3.1c-0.1-0.3-0.3-0.6-0.5-0.9C380.6,796.4,379.9,797.2,378.9,797.5z"/>
		
			<rect x="380.7" y="783.9" transform="matrix(0.9643 -0.2647 0.2647 0.9643 -195.7724 129.1597)" class="st9" width="1.3" height="14"/>
		<path class="st10" d="M499,764c0.4,1.4,1.8,2.2,3.1,1.8l19.4-5.3c1.4-0.4,2.2-1.8,1.8-3.1l0,0c-0.4-1.4-1.8-2.2-3.1-1.8
			c0,0,0,0,0,0l-19.4,5.3C499.4,761.2,498.6,762.6,499,764L499,764z"/>
		<path class="st10" d="M501.6,763.8l19.4-5.3c1-0.3,1.7-1.1,1.9-2.1c0.2,0.3,0.4,0.6,0.5,0.9c0.4,1.4-0.4,2.8-1.8,3.1l-19.4,5.3
			c-1.4,0.4-2.8-0.4-3.1-1.8c-0.1-0.3-0.1-0.7-0.1-1C499.6,763.7,500.6,764.1,501.6,763.8z"/>
		
			<rect x="489.9" y="751.4" transform="matrix(0.9652 -0.2614 0.2614 0.9652 -181.1839 154.5952)" class="st9" width="1.3" height="14"/>
		<path class="st11" d="M459.9,812.9l-15.1-32.8c-1.7-3-4.5-3-6.3,0l-15.1,32.8H459.9z"/>
		<path class="st12" d="M457.4,812.9l-13.2-30.6c-1.4-2.4-3.6-2.4-5,0l-13.2,30.6H457.4z"/>
		<rect x="632.1" y="687.6" class="st13" width="73.1" height="13.7"/>
		<rect x="632.1" y="698.7" class="st13" width="73.1" height="2.6"/>
		<rect x="632.1" y="688.3" class="st0" width="73.1" height="0.7"/>
		<rect x="632.1" y="703.4" class="st13" width="73.1" height="13.7"/>
		<rect x="632.1" y="714.4" class="st13" width="73.1" height="2.6"/>
		<rect x="632.1" y="704.1" class="st0" width="73.1" height="0.7"/>
		<rect x="632.1" y="719.2" class="st13" width="73.1" height="13.7"/>
		<rect x="632.1" y="730.2" class="st13" width="73.1" height="2.6"/>
		<rect x="632.1" y="719.9" class="st0" width="73.1" height="0.7"/>
		<rect x="623.3" y="734.7" class="st13" width="90.8" height="13.7"/>
		<rect x="623.3" y="740.3" class="st13" width="90.8" height="8"/>
		<rect x="623.3" y="735.4" class="st0" width="90.8" height="0.7"/>
		<line class="st14" x1="639.2" y1="521.5" x2="639.2" y2="734.6"/>
		<line class="st14" x1="698.2" y1="521.5" x2="698.2" y2="734.6"/>
		<polygon class="st13" points="589.7,771.8 583.4,771.8 604.1,517.2 610.5,517.2 		"/>
		<polygon class="st13" points="589.7,771.8 587.5,771.8 608.2,517.2 610.5,517.2 		"/>
		<polygon class="st13" points="744.9,771.8 751.3,771.8 730.5,517.2 724.2,517.2 		"/>
		<polygon class="st13" points="744.9,771.8 747.2,771.8 726.4,517.2 724.2,517.2 		"/>
		<rect x="604" y="517.2" class="st13" width="126" height="8.7"/>
		<polygon class="st13" points="727.1,525.9 607.4,525.9 607.7,522.6 726.6,522.6 		"/>
		<path class="st15" d="M183,713.8h57.7c1,0,1.8,0.8,1.8,1.8v1.2c0,1-0.8,1.8-1.8,1.8H183c-1,0-1.8-0.8-1.8-1.8v-1.2
			C181.2,714.6,182,713.8,183,713.8z"/>
		<path class="st15" d="M257.9,738h-74c-1.4,0-2.6-1.1-2.6-2.6l0,0c0-1.4,1.1-2.6,2.6-2.6h74c1.4,0,2.6,1.1,2.6,2.6l0,0
			C260.4,736.9,259.3,738,257.9,738z"/>
		<path class="st15" d="M183.2,723.5h61.6l0,0v5l0,0h-61.6c-1,0-1.9-0.9-1.9-1.9l0,0v-1.2C181.3,724.3,182.2,723.5,183.2,723.5z"/>
		<path class="st16" d="M451.2,578.9c-17.7-7.7-47.3-42.3-55.5-54.6c-5.3,3.6-6,9.8-11.5,12.8c0.3,0.5,5.1,6.7,5.5,7.3
			c2.8,4,7.3,10.4,13.1,17.5c14.6,17.7,28.5,29.4,41.1,34.7c27.3,11.4,66.1,25.8,67.9,26.1l23.5-12.2
			C534.8,610.4,481.5,592,451.2,578.9z"/>
		<polygon id="_Path_" class="st17" points="439.3,798.6 437,820.9 418.8,822.3 420.9,796.6 		"/>
		<path id="_Path_2" class="st18" d="M419.6,812.7c13.2,4.7,18.3-0.7,18.3-0.7c4.3,3.7,26.6,23.4,36.1,20s14.3,1.1,14.4,7.7l0.1,6.7
			c0,0-19.2,8.8-36.4,3.6l-17.1-5.2l-0.1,4l-21.6-0.6C413.3,848.2,408.7,818.6,419.6,812.7z"/>
		<path id="_Path_3" class="st19" d="M439.3,798.6l-1,9.5c-3.8,0.1-7.6,0.3-11.2,0.4c-2.4,0.1-4.8,0.2-7.2,0.4l1-12.2L439.3,798.6z"
			/>
		<path id="_Path_4" class="st20" d="M445.5,818.4c8.6,6.9,21.8,16.1,28.5,13.7l0.7-0.2c-0.3,3.3-1,6.6-2,9.7
			c-2.1-0.2-4.1-0.5-6.2-0.8c-7.7-1.2-15-3.7-21.8-7.6c-3.1-1.9-6.1-4-8.9-6.3c2.4-2.2,4.8-4.4,7.3-6.5
			C443.9,819.8,444.7,819,445.5,818.4z"/>
		<path id="_Path_5" class="st16" d="M539.8,622.3c-0.1,2.2-0.4,5.8-4.5,5.7c-3.1-0.1-18.2,5.5-22.6,4.5c-7.6-1.7-1.3-11.3,0.8-11
			c1.7,0.2,5.6-0.2,5-3.6c-0.8-4.1-7.1-2.8-7.1-2.8h-2.7c5-6.5,16.9-7.3,26.6-4.7C538.2,611.3,540,617,539.8,622.3z"/>
		<path class="st21" d="M509.6,626.1c-1,2.6-0.8,5.6,3.1,6.5c4.4,1,19.5-4.7,22.6-4.5c4,0.1,4.4-3.2,4.5-5.4L509.6,626.1z"/>
		<path class="st22" d="M294.2,473.9l-2.4,4.1c0.7,6.9,5.5,22.2,5.5,22.2s10.9,8.7,56.9,5c35.9-2.9,50.4-15.6,50.4-15.6
			s-3.2-13.7-2.7-17.5L294.2,473.9z"/>
		<path id="_Path_6" class="st23" d="M337.9,524.4l0.4-29c0.1-5.6,4.6-10,10.2-10l2.6,0c5.6,0.1,10,4.6,10,10.2l-0.4,29
			c-0.1,5.6-4.6,10-10.2,10l-2.6,0C342.3,534.5,337.8,530,337.9,524.4z"/>
		<path id="_Path_7" class="st19" d="M348.5,485.4h2.6c5.6,0.1,10.1,4.6,10,10.2l-0.2,15.9c-0.4,0.3-0.8,0.5-1.2,0.8
			c-3.4,1.6-7,2.4-10.8,2.6c-3.6,0.2-7.3-0.1-10.8-1l0.2-18.5C338.4,489.8,342.9,485.3,348.5,485.4z"/>
		<path id="_Path_8" class="st24" d="M393.8,701.2c-37.4,1.7-38.6,1.3-71.5,0.4c-3.7-0.1-6.8-3-7.2-6.7l-1-10.7l80-5.4L393.8,701.2z
			"/>
		<path id="_Path_9" class="st16" d="M338.3,410.7l15.1-1.4c20-1.8,37.6,12.9,39.4,32.9l2.5,27.3c1.8,20-12.9,37.6-32.9,39.4
			l-15.1,1.4c-20,1.8-37.6-12.9-39.4-32.9l-2.5-27.3C303.6,430.1,318.3,412.5,338.3,410.7z"/>
		<path class="st19" d="M317.7,479.4c-0.5-10.2-4.1-21.3,1.8-30.6c5-7.9,14.9-10.3,23.6-11.3s19.1-1.7,27.4,1.2s12.6,9.8,14.2,18
			c2.1,11.2,2.9,22.5,2.4,33.8c3.7-6.4,5.4-13.7,4.7-21.1l-2.3-27.2c-1.8-19.9-19.2-34.6-39.1-32.9l-15,1.3
			c-19.8,1.8-34.5,19.2-32.9,39.1l2.3,27.2c0.7,7.7,3.8,15,9,20.7C318.3,496.3,317.9,482.9,317.7,479.4z"/>
		<path id="_Path_10" class="st0" d="M335.7,480.6l30-2.5c1.8-0.1,3.1,1.8,2.5,3.7c-2.7,8.8-8.9,15.3-16.4,15.9s-14.4-4.7-18.3-13
			c-0.7-1.4-0.1-3.1,1.3-3.8C335.1,480.8,335.4,480.7,335.7,480.6z"/>
		<path id="_Path_11" class="st25" d="M336.7,480.6l28.4-2.4c1.4,0,2.6,1.2,2.5,2.6c0,0.3-0.1,0.5-0.1,0.8
			c-5.8-0.9-12.2-0.4-17.6-0.4c-4.9,0-9.9,0.1-14.8,0.3C335.4,481,336,480.7,336.7,480.6z"/>
		
			<ellipse id="_Path_12" transform="matrix(0.9982 -5.989229e-02 5.989229e-02 0.9982 -27.0313 23.1202)" class="st26" cx="372.2" cy="462.5" rx="5.3" ry="6.8"/>
		<path id="_Path_13" class="st27" d="M372.3,453.8c2.9-0.2,5.4,2.7,5.7,6.4c0,0.3,0,0.5,0,0.8c-3.1-1.5-6.3-3.1-9.4-4.7
			C369.3,454.9,370.7,453.9,372.3,453.8z"/>
		
			<ellipse id="_Path_14" transform="matrix(0.998 -6.279052e-02 6.279052e-02 0.998 -28.3798 21.4858)" class="st26" cx="327.7" cy="462.3" rx="5.3" ry="6.8"/>
		<path id="_Path_15" class="st27" d="M327.2,455.5c2.9-0.2,5.4,2.7,5.7,6.4c0,0.3,0,0.5,0,0.8c-3.1-1.5-6.3-3.1-9.4-4.7
			C324.3,456.6,325.7,455.7,327.2,455.5z"/>
		<path id="_Path_16" class="st23" d="M357.4,523.9c37.4-3.8,37.4,1.1,37.4,1.1s-0.7,24.5-1.4,89.4c-0.2,23.8,4.7,40.5,4.5,52.7
			c-5.4-0.4-10.7-0.6-16-0.6c-1-0.6-2.2-0.9-3.3-0.8c-26.6,0.8-35.5-5.1-61.8-0.9c-0.6-75.7-15.2-123.6-15.2-123.6
			C297.9,529.9,347.8,524.8,357.4,523.9z"/>
		<path class="st28" d="M395.5,561c-0.4-8.8-0.1-32.9,0.2-36.7c-3.4-1.7-13.9-2.1-24.5-1.9c-1.3,10-2.5,19.2-11.7,24.2
			c-14.6,8-27.3-18-27.4-19.4c-12.9,1.7-31.5,3.9-29.2,9.7c2,5.3-7.1,17.1-6.4,22.9c1,8.2,2,16.4,3,24.6c2,16.4,4.1,32.8,6.4,49.1
			c2.4,17,3,35.3,7.1,51.9c10.2-1.3,26.5-2.4,36.8-3.5c10.5-1.1,21-2,31.6-2.9c2.9-0.3,23.6-8,26.5-8.3
			C408.3,664.3,396.2,576.9,395.5,561z"/>
		<path id="_Path_17" class="st29" d="M362.4,617.4C362.3,617.7,362.4,617.5,362.4,617.4z"/>
		<path id="_Path_18" class="st29" d="M362.4,617.4L362.4,617.4C362.5,617.2,362.6,617,362.4,617.4z"/>
		<path id="_Path_19" class="st29" d="M362.4,617.4L362.4,617.4z"/>
		<path class="st19" d="M406.1,652.4L406.1,652.4c-0.5-4.3-1.1-9-1.7-14.1v-0.2c-3.5-28.7-8.5-67.1-8.9-77.1
			c-0.4-8.8-0.1-32.9,0.2-36.7c-2.1-1-6.8-1.6-12.5-1.8c0.8,35.1,3.1,73.2-12.3,105.4c-18.7-2.6-37.6-5-45.7-7.5
			c-6.3-1.9-11.6-21.4-14.5-51c-0.7-6.9,0.2-14.2-3.3-20.2l0,0c-6.3,2.5-9.4,6.8-10.9,11.8c1,7.8,1.9,15.7,2.9,23.5
			c1.6,12.8,3.2,25.6,5,38.3c3.5,7.8,8.4,13.7,15.3,15.8c8.4,2.6,23.9,5.3,39.9,7.7c-12.7,16.2-29.6,26.2-48.2,31.9
			c0.5,2.5,1,4.9,1.6,7.3c10.2-1.3,26.5-2.4,36.8-3.5c10.5-1.1,21-2,31.6-2.9c2.9-0.3,23.6-8,26.5-8.3
			C407.9,669.1,407.2,662.2,406.1,652.4z"/>
		<path class="st24" d="M438.7,807.2l-18.6-9.3c-2.8-1.4-4-4.8-2.6-7.6c19.2-39.3,34.1-79,35-92.9c-11.6-3.2-46.7,3.3-78.9,5.6
			l-6.4-32.3c0.9-0.2,23.3-4.6,47.2-6.7c40.6-3.5,61.1,1.8,68.4,17.7c4.5,9.7,5.7,25.8-15.4,77.4c-7.7,18.8-15.8,36.2-20,44.9
			c-1.5,3.2-5.4,4.6-8.6,3.1C438.7,807.2,438.7,807.2,438.7,807.2z"/>
		<path class="st16" d="M398.6,633.9c-2.6-0.1-57.2-6.3-78.9-12.9c-19-5.8-21.9-40.3-23.1-63.4c-0.6-10.7-0.4-19.6,11.4-24.3
			c0,0,2.1,11.6,2.8,18.5c2.9,29.6,8.2,49.1,14.5,51c16.1,4.9,75.1,9.8,89.9,15.5L398.6,633.9z"/>
		<path class="st16" d="M451.2,578.9c-17.7-7.7-47.3-42.3-55.5-54.6c-5.3,3.6-6,9.8-11.5,12.8c0.3,0.5,5.1,6.7,5.5,7.3
			c2.8,4,7.3,10.4,13.1,17.5c14.6,17.7,28.5,29.4,41.1,34.7c27.3,11.4,66.1,25.8,67.9,26.1l23.5-12.2
			C534.8,610.4,481.5,592,451.2,578.9z"/>
		<path class="st16" d="M398.6,633.9c-2.6-0.1-57.2-6.3-78.9-12.9c-19-5.8-21.9-40.3-23.1-63.4c-0.6-10.7-0.4-19.6,11.4-24.3
			c0,0,2.1,11.6,2.8,18.5c2.9,29.6,8.2,49.1,14.5,51c16.1,4.9,75.1,9.8,89.9,15.5L398.6,633.9z"/>
		<path class="st28" d="M409.9,570.1c4.5-4.4,8.9-8.9,12.9-13.7c-11.8-12-22.7-25.4-27.2-32.1c-5.3,3.6-6,9.8-11.5,12.8
			c0.3,0.5,5.1,6.7,5.5,7.3c2.8,4,7.3,10.4,13.1,17.5C405.2,564.8,407.6,567.5,409.9,570.1z"/>
		<g class="st30">
			<path d="M409.9,570.1c4.5-4.4,8.9-8.9,12.9-13.7c-11.8-12-22.7-25.4-27.2-32.1c-5.3,3.6-6,9.8-11.5,12.8c0.3,0.5,5.1,6.7,5.5,7.3
				c2.8,4,7.3,10.4,13.1,17.5C405.2,564.8,407.6,567.5,409.9,570.1z"/>
		</g>
		<path class="st28" d="M298.5,585.3c5.5-1.4,11-2.8,16.5-4.3c-1.8-8-1.7-19.6-2.9-31c-0.7-6.9-3.9-18.5-3.9-18.5
			c-11.9,4.7-13.4,15.4-12.8,26.1C295.9,566.9,296.9,576.2,298.5,585.3z"/>
		<rect x="527.2" y="574.5" class="st31" width="2.8" height="25.6"/>
		<ellipse class="st31" cx="527.2" cy="587.3" rx="8" ry="12.8"/>
		<path class="st32" d="M531.2,576.3c-2.8,0.2-5.7,0.5-8.6,0.5c-2.1,2.3-3.4,6.1-3.4,10.5c0,2.5,0.5,4.9,1.4,7.2
			c4.1,0.3,8.3,0.9,12.4,1.5c1.5-2.7,2.2-5.7,2.2-8.7C535.2,582.6,533.6,578.5,531.2,576.3z"/>
		<ellipse class="st33" cx="530.1" cy="587.3" rx="8" ry="12.8"/>
		<path class="st34" d="M348,681.8l-37.3-3.6l2.9,16.8c0.8,4.5,5,6.5,8.7,6.6c21.5,0.5,29.5,0.9,42.9,0.7
			C362.4,699.1,355.7,689.9,348,681.8z"/>
		<path class="st32" d="M530.2,588.6c1.8-2.7,5-8.3,3.8-11.4c-0.2-0.4-0.3-0.9-0.4-1.4c-1-0.8-2.2-1.3-3.5-1.3c-4.4,0-8,5.7-8,12.8
			c0,2.5,0.5,5.1,1.5,7.4C526.4,593.6,528.6,591,530.2,588.6z"/>
		<rect x="366.4" y="557.6" class="st31" width="3.4" height="30.1"/>
		<ellipse class="st31" cx="366.4" cy="572.6" rx="9.4" ry="15.1"/>
		<path class="st32" d="M371.1,559.7c-3.4,0.3-6.7,0.5-10.1,0.7c-2.4,2.7-4,7.2-4,12.3c0,2.9,0.5,5.8,1.6,8.5
			c4.9,0.3,9.7,1,14.6,1.8c1.7-3.2,2.6-6.7,2.5-10.3C375.8,567.1,373.9,562.3,371.1,559.7z"/>
		<ellipse class="st33" cx="369.8" cy="572.6" rx="9.4" ry="15.1"/>
		<path class="st32" d="M369.9,574.2c2.1-3.2,5.8-9.7,4.4-13.4c-0.2-0.5-0.3-1.1-0.4-1.6c-1.2-1-2.6-1.5-4.1-1.5
			c-5.2,0-9.4,6.7-9.4,15.1c0,3,0.6,6,1.7,8.7C365.4,580.1,368,577,369.9,574.2z"/>
		<path class="st35" d="M426.9,627.8L426.9,627.8c-1,0-1.7-0.8-1.7-1.7v-3.7c0-7.8-3.7-15.1-9.8-19.8L381,576.7
			c-1.5-1.2-3.4-1.8-5.3-1.8h-4.3c-1,0-1.7-0.8-1.7-1.7l0,0c0-1,0.8-1.7,1.7-1.7h3.7c3,0,6,1,8.4,2.8l33.2,25
			c7.5,5.7,11.9,14.5,11.9,23.9v2.8C428.7,627,427.9,627.8,426.9,627.8z"/>
		<path class="st35" d="M522.4,621.1l-2.7-2.1l12.4-16.2c1.9-2.3,2.5-5.4,1.8-8.3c-0.7-2.4-2.4-4.3-4.6-5.4
			c-0.6-0.3-0.8-0.9-0.6-1.5l0,0c0.4-1.1,1.6-1.6,2.7-1.3c0.1,0,0.2,0.1,0.3,0.2c2.8,1.6,4.8,4.3,5.6,7.3c1,3.9,0.1,8-2.4,11.1
			L522.4,621.1z"/>
		<path class="st36" d="M520.2,635.2H395.2c-3.4,0-6.1-2.7-6.1-6.1l0,0c0-3.4,2.7-6.1,6.1-6.1h125.1c3.4,0,6.1,2.7,6.1,6.1l0,0
			C526.3,632.5,523.6,635.2,520.2,635.2z"/>
		<path class="st37" d="M431.5,617h39.4c2.2,0,4,1.8,4,4v15.7c0,2.2-1.8,4-4,4h-39.4c-2.2,0-4-1.8-4-4V621
			C427.5,618.8,429.3,617,431.5,617z"/>
		<path class="st38" d="M447.6,663.5c0,0-16.5-35.6,19.8-56.3c29.2-16.6,58.3-6.2,58.9,22S488.8,666,488.8,666L447.6,663.5z"/>
		<path class="st37" d="M490.1,599.5c-19,11.9-30.4,36.8-15.7,57.2c3,3.9,7,7.1,11.5,9l2.8,0.2c0,0,38.1-8.7,37.5-36.8
			C525.8,608.4,510,597.4,490.1,599.5z"/>
		<path class="st37" d="M290.5,733.8c0,0-41.5,7.2-56,72.2h81.6c0,0,7.3,57.7,97.7,57.2l90.4-0.5c0,0,1.1-45.7,31.7-81.1
			c4.1-4.9,8.5-9.5,13.3-13.7c3.7-3.2,5-8.3,3.2-12.9c-6.9-17.7-23.7-59-37.4-79.6c-4.9-7.4-13.3-11.8-22.1-11.8h-36.7
			c0,0,27.6,83.4,21.4,118.8s-20.2,65.2-20.2,65.2h-37.4c-8.4,0-15.3-6.8-15.3-15.3c0-0.8,0.1-1.7,0.2-2.5c4-25.1,9.7-69.4,2.7-81.1
			c-6.1-10.1-10.4-12-10.4-12L290.5,733.8z"/>
		<path class="st39" d="M569.1,854.1L547.7,793c-4.1,0.7-8.3,1-12.4,1c-1.2,0-2.4-0.3-3.4-0.8l23,65.8c1.4,3.9,5.7,6,9.6,4.6
			C568.4,862.2,570.4,858,569.1,854.1L569.1,854.1z"/>
		<path class="st40" d="M614.2,846.6c-4.3-41.6-37.5-72.5-74.2-69.1s-62.9,40-58.6,81.7s37.5,72.5,74.2,69.1
			S618.5,888.2,614.2,846.6z M540.6,895.8c-20.5-4.7-32.4-27.6-32.2-46.5c0.2-21.4,12.8-37.9,34.4-40.9c1.3-0.7,2.7-0.9,4.1-0.8
			c17.6,1.5,30,13,35.3,28.8c0.7,1.8,0.5,3.8-0.4,5.5c1.7,4.7,2.7,9.6,3,14.6C585.7,878.3,564.6,901.2,540.6,895.8z"/>
		<path class="st36" d="M597.5,848c-3.4-33.3-30-58-59.3-55.2c-29.3,2.8-50.3,32-46.9,65.3s30,58,59.3,55.2S600.9,881.3,597.5,848z
			 M548.1,889.3c-17.6,1.7-33.5-13.2-35.6-33.2c-2.1-20,10.5-37.5,28.2-39.2s33.5,13.2,35.6,33.2S565.7,887.6,548.1,889.3
			L548.1,889.3z"/>
		<path class="st41" d="M523.3,856.1c-2-19,9.3-35.7,25.5-38.8c-2.7-0.5-5.5-0.7-8.2-0.4c-17.6,1.7-30.2,19.2-28.2,39.2
			c2.1,20,18,34.8,35.6,33.2c0.9-0.1,1.8-0.2,2.7-0.4C536.6,886.1,525,872.9,523.3,856.1z"/>
		<path class="st40" d="M323.7,847.2c-3.9-37.6-33.9-65.6-67.1-62.5s-56.9,36.2-53,73.9s33.9,65.6,67.1,62.5
			S327.5,884.9,323.7,847.2z M257.1,891.6c-18.5-4.2-29.3-25-29.2-42c0.2-19.3,11.6-34.3,31.2-37c1.1-0.6,2.5-0.9,3.7-0.7
			c15.9,1.4,27.1,11.7,31.9,26c0.6,1.6,0.5,3.4-0.4,4.9c1.6,4.3,2.5,8.7,2.7,13.2C297.9,875.9,278.8,896.6,257.1,891.6L257.1,891.6z
			"/>
		<path class="st36" d="M308.5,848.5c-3.1-30.1-27.1-52.5-53.7-50s-45.5,29-42.4,59.1s27.1,52.5,53.7,50S311.6,878.6,308.5,848.5z
			 M263.8,885.8c-15.9,1.5-30.3-11.9-32.2-30s9.5-33.9,25.5-35.5s30.3,11.9,32.2,30S279.7,884.3,263.8,885.8z"/>
		<path class="st41" d="M241.4,855.8c-1.7-17.1,8.4-32.3,23.1-35.1c-2.4-0.5-4.9-0.6-7.4-0.4c-15.9,1.5-27.3,17.4-25.5,35.5
			s16.3,31.5,32.2,30c0.8-0.1,1.6-0.2,2.4-0.4C253.4,882.9,243,871,241.4,855.8z"/>
		<path class="st39" d="M538.5,854.1l-23.9-68.3c-3.1,4.8-6.6,9.3-11.7,12.1l21.4,61.1c1.4,3.9,5.7,6,9.6,4.6
			C537.8,862.3,539.9,858,538.5,854.1L538.5,854.1L538.5,854.1z"/>
		<path class="st42" d="M398.9,822.3h-21.2c-2.8,0-5-2.2-5-5l3.5-35.1c0-2.8,2.2-5,5-5h23c2.7,0,3.2,2.2,3.2,5l-3.5,35.1
			C403.9,820.1,401.7,822.3,398.9,822.3z"/>
		<path class="st43" d="M529.8,829.4l-15.3-43.6c-3.1,4.8-6.6,9.3-11.7,12.1l12.3,35.2C520.1,831.8,525,830.6,529.8,829.4z"/>
		<path class="st36" d="M369.1,859.3c-7.9-0.4-16.1,0.3-22.9-4.6c-5.1-3.7-7.3-9.1-8-15h-79.1c-8.7,0-15.7,7-15.7,15.7
			c0,8.7,7,15.7,15.7,15.7h143.2c6.8,0,12.9-4.4,15-10.9C401.2,860.6,385.2,860.1,369.1,859.3z"/>
		<path class="st15" d="M318.6,847.8H203.8c-6.4,0-11.7-5.2-11.7-11.7l0,0c0-6.4,5.2-11.7,11.7-11.7h114.8c6.4,0,11.7,5.2,11.7,11.7
			l0,0C330.2,842.5,325,847.7,318.6,847.8z"/>
		<path class="st44" d="M300.1,835.1h-93.6c-1.9,0-3.5-1.6-3.5-3.5l0,0c0-1.9,1.6-3.5,3.5-3.5h93.6c1.9,0,3.5,1.6,3.5,3.5l0,0
			C303.6,833.5,302.1,835.1,300.1,835.1z"/>
		<polygon id="_Path_20" class="st17" points="413.4,798.4 411,820.7 392.8,822.2 394.9,796.5 		"/>
		<path id="_Path_21" class="st19" d="M413.4,798.4l-1.2,11.3c-6.1-0.1-12.3,0.2-18.4,0.9l1.1-14.2L413.4,798.4z"/>
		<path id="_Path_22" class="st18" d="M393.7,812.5c13.2,4.7,18.3-0.7,18.3-0.7c4.3,3.7,26.6,23.4,36.1,20s14.3,1.1,14.4,7.7
			l0.1,6.7c0,0-19.2,8.8-36.4,3.6l-17.2-5.1l-0.1,4l-21.6-0.6C387.4,848.1,382.7,818.5,393.7,812.5z"/>
		<path id="_Path_23" class="st20" d="M416.5,815.8c7.3,6.1,20.5,16.2,28.6,16.5c-0.2,3.1-0.6,6.1-1,9.1c-1.6-0.3-3.2-0.6-4.8-1
			c-8-1.9-18.7-5.2-27.6-10.2c-1.7-1.7-3.4-3.4-5-5.2C409.5,821.4,412.8,818.3,416.5,815.8z"/>
		<path class="st38" d="M252.3,733.8c0,0-32.3,5.6-49.9,51.6c-3,7.8,1,16.6,8.8,19.6c1.7,0.7,3.5,1,5.4,1h61.3
			c0,0,7.3,57.7,97.7,57.2l90.4-0.5c0,0,1.1-45.8,31.7-81.1c4.2-5,9-9.6,14.3-13.5c5.1-3.7,6.9-10.4,4.4-16.1
			c-9-20.6-28.5-63.7-42.6-81.1c-3.8-4.6-9.5-7.3-15.5-7.3h-10.1c-7.3,0-13.2,5.9-13.2,13.2c0,1.6,0.3,3.3,0.9,4.8
			c10.3,26.7,27.3,76.5,22.9,101.6c-3.9,21.9-9.5,43.4-16.6,64.5h-62c-7.8,0-14.2-6.4-14.2-14.2c0-0.7,0-1.3,0.1-2
			c3.4-24.6,8.7-69.8,3.3-82.6c-5.1-12-10.4-12-10.4-12L252.3,733.8z"/>
		<path class="st44" d="M371.6,763.2c-0.2-6.3-0.9-11.3-2.2-14.5c-0.6-1.4-1.3-2.7-2-4H230.7c-6.6,5.2-12.3,11.5-17,18.5
			L371.6,763.2z"/>
		<path class="st44" d="M443.4,664.3c-2.4,0.9-4.4,2.5-5.9,4.5c0.4,0.6,0.7,1.3,1,1.9c11.4,17,21.4,35.2,25.7,55.2
			c11.2,51.3-11.3,121.8-11.3,121.8l-144.4-0.3c3.2,1.9,6.5,3.7,9.9,5.2h143.7C490.9,750.4,475.1,691.5,443.4,664.3z"/>
		<path class="st45" d="M391,700.8h-73c-0.8,1.7-2.2,3.2-3.9,4.1c-9.8,5.7-20.3,8.7-31,10.4c-0.3,1.3-0.5,2.7-0.5,4.1
			c0.1,10.2,8.3,18.4,18.5,18.4h79.6c7.8,0,21.3,1.5,24.9-7.1c0.4-1,0.7-2,0.8-3C407.6,719.2,401.7,700.8,391,700.8z"/>
		<path class="st46" d="M348,700.8c0,0-57,0.5-89.5,1.2c-9.5,0.2-17.5,7.2-18.8,16.6c0,0.2-0.1,0.5-0.1,0.7
			c0,10.2,8.3,18.5,18.5,18.5h79.6c7.8,0,21.3,1.5,24.9-7.1c0.4-1,0.7-2,0.8-3C364.6,719.2,358.7,700.8,348,700.8z"/>
		<ellipse class="st47" cx="503" cy="629.1" rx="18" ry="24"/>
		<path class="st44" d="M526.3,629.1c0,15.9-13,28.8-23.2,28.8c-11.9,0-21.6-12.9-21.6-28.8s9.7-28.8,21.6-28.8
			C508.9,600.3,526.3,608.5,526.3,629.1z"/>
		<path class="st48" d="M503.1,605.1c-1,0-1.9,0.1-2.9,0.3c8.5,1.8,15.1,11.7,15.1,23.6s-6.6,21.8-15.1,23.6
			c0.9,0.2,1.9,0.3,2.9,0.3c9.9,0,18-10.7,18-24S513,605.1,503.1,605.1z"/>
		<ellipse class="st49" cx="503" cy="629.1" rx="14.4" ry="19.2"/>
		<ellipse class="st0" cx="503" cy="629.1" rx="12.9" ry="17.3"/>
		<path class="st50" d="M514.9,636c0.7-2.2,1.1-4.6,1.1-6.9c0-1.4-0.2-2.9-0.4-4.3c-8.4,2.5-16.8,5.1-25.2,7.7
			c0.5,3.3,1.8,6.4,3.8,9.1C501,639.5,507.9,637.8,514.9,636z"/>
		<path class="st38" d="M594.7,790.8c5.8-1.9,16.1-6.7,7.9-13c-17-13.2-35.8-22.4-56.7-20.3c-28.9,3-52.4,24.2-63.9,53.5
			c-3.5,8.7,0.7,18.6,9.4,22.1c2,0.8,4.1,1.2,6.3,1.2c6.5,0,11.6-4.3,15.3-9.7C543.2,781.3,581.6,795.1,594.7,790.8z"/>
		<path class="st44" d="M570.8,780.2c-10.2-7.9-21.5-13.5-34-12.2c-17.3,1.8-31.4,14.5-38.3,32.1c-2.1,5.2,0.4,11.2,5.7,13.3
			c1.2,0.5,2.5,0.7,3.8,0.7c3.9,0,6.9-2.6,9.2-5.8C535.2,782.4,575.7,784,570.8,780.2z"/>
		<path class="st37" d="M547.9,763.8c17.7,3.2,35,13.1,49,26.3c5.8-2.3,12.9-6.7,5.7-12.3c-17-13.2-35.8-22.4-56.7-20.3
			c-9.7,1-19.1,4.1-27.5,9C527.8,762.9,538,762,547.9,763.8z"/>
		<ellipse class="st36" cx="416.8" cy="629.1" rx="5.6" ry="8.7"/>
		<ellipse class="st36" cx="420.7" cy="629.1" rx="5.6" ry="8.7"/>
		<rect x="416.8" y="620.5" class="st36" width="3.9" height="17.3"/>
		<path class="st19" d="M360,784.2H202.8c-0.1,0.4-0.3,0.7-0.4,1.1c-2.6,6.8,0,14.5,6.3,18.3c2.5,1.2,5.1,2,7.9,2.2h142.9
			c5.3,0,10.2-4.9,10.7-10.2v-0.2c0.5-5.7-3.7-10.7-9.3-11.2C360.6,784.3,360.3,784.2,360,784.2z M342.5,800.5h-34.1
			c-1.2,0-2.1-1-2.1-2.2c0-1.2,1-2.1,2.1-2.1h34.1c1.2,0,2.1,1,2.1,2.2C344.6,799.5,343.6,800.5,342.5,800.5L342.5,800.5z
			 M342.5,792.6h-34.1c-1.2,0-2.2-1-2.2-2.1c0-1.2,1-2.2,2.1-2.2c0,0,0,0,0,0h34.1c1.2,0,2.1,1,2.1,2.2
			C344.6,791.6,343.6,792.6,342.5,792.6L342.5,792.6z"/>
		<path class="st44" d="M532.8,748c-2.6,0.3-6.5-1.8-9.2-6.6l-33-65c-1.4-2.7,0-6.9,3.4-7c3.8-0.1,7.1,4.7,8.6,7.7l32.5,64.1
			C536.7,744.1,537.1,747.4,532.8,748z"/>
		<path class="st51" d="M299.8,499.8c0,0,10.2-3.8,10.1-14.2c0-2.4-1.2-23.3-3.1-40.4c-0.7-6.8,4.1-12.9,10.9-13.6
			c14.1-1.6,37.1-4.3,52-6c7.8-0.9,15.9,5.6,16.5,13.4l4.5,39.6c0.5,5.3,4.1,9.8,9.2,11.5c0.8,0.3,1.7,0.4,2.5,0.4
			c4.9,0-10.2-74-11-74.4s-79.4,10-79.4,10s-19.8,23.9-20.1,27.2S299.8,499.8,299.8,499.8z"/>
		<path class="st28" d="M320.2,431.6l51.9-4.7c11.9-1.1,22.5,7.7,23.6,19.7c0,0,0,0,0,0l3.7,41.2c0.1,1.7,1.5,2.9,3.1,2.9
			c1.2-0.1,2.3-0.9,2.7-2c4.3-11.6,2.1-25,1.1-37.1c-1.5-17.3-1.6-37.5-11.4-52.5c-18.1-27.8-59.5-27.8-85.6-12
			c-7.6,4.6-14,11.1-18.3,18.9c-5.1,9.1-5.8,19.4-6.1,29.6c-0.2,12.4,0.8,24.7,3,36.9c1,5.5,2.3,11,3.3,16.5
			c0.7,3.7,1.5,8.8,5.3,10.7c2,1,4.5,0.1,5.4-1.9c0.3-0.7,0.5-1.4,0.4-2.1l-3.5-38.5C297.6,444.3,307.2,432.8,320.2,431.6z"/>
		<path class="st21" d="M406.3,451.6c-1.5-17.3-1.6-37.5-11.4-52.5c-0.9-1.4-1.9-2.7-2.9-3.9c-0.8,2.8-1.7,5.6-2.8,8.4
			c-3.2,8.2-7.1,16.1-11.7,23.6c9.8,1.6,17.2,9.6,18.1,19.5l3.7,41.2c0.1,1.7,1.5,2.9,3.1,2.9c1.2-0.1,2.3-0.9,2.7-2
			C409.5,477.1,407.3,463.7,406.3,451.6z"/>
		<path class="st44" d="M304.4,433.8c21.1-9.1,49.4-31.3,54.8-56.5c-17.3-2.5-34.9,0.9-50,9.8c-7.6,4.6-14,11.1-18.3,18.9
			c-5.1,9.1-5.8,19.4-6.1,29.6c0,1.2,0,2.4,0,3.5C291.6,438.4,298.2,436.6,304.4,433.8z"/>
		<path class="st52" d="M301.7,499.2c-0.7,1.4-2.5,2-3.9,1.3l-0.9-0.4c-0.7-0.4-1-0.9-0.7-1.6c1.4-2.5,3-6.5,2.8-8.2
			c-0.4-3.1-0.9-8.1-1.4-13.9c-0.6-6.5-1.2-14-2-20.7c-0.6-4.7,1-9.5,4.6-13.7c8.1-9.6,25.8-15.8,48.5-16.8
			c34.2-1.6,46.3,3.9,49.7,22.4c1.2,6.4,1.8,13,2.3,19.4c0.6,7.4,1.8,15.4,3.3,20.2c0.6,1.8,0.9,2.9-2.2,4.2l0,0
			c-0.8,0.4-2-0.4-2.4-1.2c-2.3-5.4-3-13.5-3.8-22.7c-0.5-6.3-1.1-12.8-2.2-19c-2.5-13.8-9.5-19.7-44.3-18.1
			c-21.2,1-37.5,6.4-44.7,15c-2.6,3.1-3.8,6.4-3.4,9.7c0.8,6.8,1.5,14.2,2,20.8c0.5,5.8,0.9,10.7,1.3,13.6
			C304.6,492.8,303,496.7,301.7,499.2z"/>
		<path class="st52" d="M303.3,495.4c0,0,35.2,12.8,53.4,10.7s41.8-17.7,41.8-17.7l3.8,2.9c0,0-20.9,15.5-49.1,20.1
			c-25,4.1-54.7-10.5-54.7-10.5L303.3,495.4z"/>
		<path class="st53" d="M356.8,506.1c0,0,14.5-0.3,15.9,9.8l-8.6,1c0,0,0-5.9-11.7-5.4L356.8,506.1z"/>
		<g id="_Group_">
			<path id="_Rectangle_" class="st0" d="M458.9,672.5h2.2c0.7,0,1.3,0.6,1.3,1.3v22.6c0,0.7-0.6,1.3-1.3,1.3h-2.2
				c-0.7,0-1.3-0.6-1.3-1.3v-22.6C457.7,673,458.2,672.5,458.9,672.5z"/>
			<path id="_Rectangle_2" class="st0" d="M472.6,683.9v2.2c0,0.7-0.6,1.3-1.3,1.3h-22.6c-0.7,0-1.3-0.6-1.3-1.3v-2.2
				c0-0.7,0.6-1.3,1.3-1.3h22.6C472,682.7,472.6,683.2,472.6,683.9z"/>
		</g>
		<circle id="_Path_24" class="st0" cx="472.5" cy="709.1" r="5"/>
		<path class="st34" d="M415.6,803.5l-20.6-6.1c-2.5-0.7-3.9-3.3-3.1-5.8c11-38.3,18.1-76.5,16.7-89.1c-10.8-2.8-49-1.6-86.5-3.1
			l-11.3-21.2c14.2-1.2,40.6-8.3,60.5-8.8c39-1.1,51.3,3.9,57.7,8.4c13,9.1,14.3,29.4,4.8,74.9c-4.1,19.8-9.3,38.6-11.7,47.3
			C421.1,802.7,418.3,804.3,415.6,803.5C415.6,803.5,415.6,803.5,415.6,803.5z"/>
		<path id="_Path_25" class="st16" d="M421.9,633.2c-0.1,2.2-1,5.8-5,6.5c-5.3,1-17.7,2.9-22,1.5c-5.1-1.6-3.1-6.1,0.4-6.6
			c1.7-0.3,5.8-1.4,5.6-6.4c-0.1-4.2-5.4-4.9-7.5-4.4c-1.1,0.3-2.2,0.9-3.1,1.7c0.6-8.8,17.7-10.7,27-6.4
			C420.2,620.4,422.1,627.8,421.9,633.2z"/>
		<path class="st21" d="M406.2,632.8c-2.9,0.5-5.9,0.9-8.8,1.2c-0.7,0.3-1.4,0.5-2.1,0.6c-3.6,0.5-5.5,5-0.4,6.6
			c4.3,1.4,16.7-0.6,22-1.5c4.1-0.7,4.9-4.4,5-6.5c0-1.4,0-2.7-0.2-4.1C416.6,630.8,411.4,632.1,406.2,632.8z"/>
		<path class="st43" d="M168.7,925c2.6-6,25.6-10.4,51.6-10.4h429.8c15.4,0,24.9,3.9,17.1,7L585,975.8c-6.4,2.5-18,4-30.6,4h-79.6
			c-24.4,0-46.2-4.1-48.9-9.7c-1.3-2.8,1.7-5.1,7.8-7.1c9.7-3.2,25.9-4.9,42.7-4.9h62.4c25,0,45.4-4.2,45.6-10
			c-0.2-5.8-20.6-10.2-45.6-10.2H220.4C190.1,937.8,165.7,932.2,168.7,925z"/>
	</g>
</g>
</svg>
