<svg xmlns="http://www.w3.org/2000/svg" viewBox="0 0 41 39"><defs><style>.cls-1{fill:#29ab87;}.cls-2{fill:#fff;}.cls-3{fill:none;stroke:#fff;stroke-miterlimit:10;}</style></defs><title>1.1treemduoi</title><g id="Layer_2" data-name="Layer 2"><rect class="cls-1" width="41" height="39"/></g><g id="Layer_4" data-name="Layer 4"><rect class="cls-2" x="17.42" y="28.58" width="5.12" height="5.74"/><path class="cls-2" d="M17.38,29.4a8.59,8.59,0,0,0,5.12,1.05V28.73H17.38Z" transform="translate(-0.05 0)"/><ellipse class="cls-2" cx="9.95" cy="18.84" rx="2.5" ry="2.85"/><ellipse class="cls-2" cx="29.84" cy="18.84" rx="2.5" ry="2.85"/><path class="cls-3" d="M29.87,13.4c0-4.2-3.07-7.27-9.93-7.27S10,9.2,10,13.4s-.72,15.26,9.93,15.26S29.87,17.6,29.87,13.4Z" transform="translate(-0.05 0)"/><ellipse class="cls-2" cx="15.06" cy="18.16" rx="1.08" ry="1.18"/><circle class="cls-2" cx="14.59" cy="17.64" r="0.32"/><path class="cls-2" d="M13.38,15.24c.51.25,1.32-.86,3.19.11.34.18.54-1.52-1.46-1.52C13.38,13.84,13.07,15.09,13.38,15.24Z" transform="translate(-0.05 0)"/><ellipse class="cls-2" cx="24.87" cy="18.16" rx="1.08" ry="1.18"/><circle class="cls-2" cx="24.4" cy="17.64" r="0.32"/><path class="cls-2" d="M26.5,15.24c-.51.25-1.32-.86-3.19.11-.34.18-.54-1.52,1.46-1.52C26.5,13.84,26.81,15.09,26.5,15.24Z" transform="translate(-0.05 0)"/><path class="cls-2" d="M19.94,22.31c-1.06,0-1.7-.79-1.7-.41S18.54,23,19.94,23s1.7-.73,1.7-1.11S21,22.31,19.94,22.31Z" transform="translate(-0.05 0)"/><path class="cls-2" d="M19.94,25.84c-.37,0-.59-.27-.59-.14s.11.39.59.39.59-.25.59-.39S20.31,25.84,19.94,25.84Z" transform="translate(-0.05 0)"/><path class="cls-2" d="M19.94,24.86a13.89,13.89,0,0,1-2.7-.51c0,.17.49.86,2.7.86s2.7-.68,2.7-.86A13.9,13.9,0,0,1,19.94,24.86Z" transform="translate(-0.05 0)"/><path class="cls-2" d="M19.94,30V36.5H7.5C7.5,33.88,14.05,30,19.94,30Z" transform="translate(-0.05 0)"/><path class="cls-2" d="M19.94,30V36.5H32.38C32.38,33.88,25.83,30,19.94,30Z" transform="translate(-0.05 0)"/><path class="cls-2" d="M19.94,30a16.3,16.3,0,0,0-3.78.47,5.06,5.06,0,0,0,3.78,1.78,5.62,5.62,0,0,0,3.91-1.75A16.38,16.38,0,0,0,19.94,30Z" transform="translate(-0.05 0)"/><path class="cls-2" d="M17.38,30.27a3.3,3.3,0,0,0,2.56.93,3.3,3.3,0,0,0,2.56-.93A8.1,8.1,0,0,0,17.38,30.27Z" transform="translate(-0.05 0)"/><path class="cls-2" d="M28.11,5.23S24.42.55,16.76,2.31s-8.24,6.38-8,10.86S9.6,20.29,10.32,20s.35-3.28.43-4,.77-3.77,5.43-3.31a19.28,19.28,0,0,0,8.59-1.23,9.66,9.66,0,0,0,2.62,2.38c2.08.76,1.4,5.87,2.21,5.87S34.41,7.92,28.11,5.23Z" transform="translate(-0.05 0)"/></g></svg>