<svg xmlns="http://www.w3.org/2000/svg" viewBox="0 0 41 39"><defs><style>.cls-1{fill:#29ab87;}.cls-2{fill:#fff;}</style></defs><title>baolanhbenhvien</title><g id="Layer_2" data-name="Layer 2"><rect class="cls-1" width="41" height="39"/></g><g id="Layer_1" data-name="Layer 1"><path class="cls-2" d="M21,3.85H19.82V5H18.65V6.19h1.17V7.36H21V6.19h1.17V5H21Z" transform="translate(-0.05 0)"/><path class="cls-2" d="M22.17,13.23V10.88h1.17a1.17,1.17,0,0,0,1.17-1.17V9.12h3.2l1.64,2.46,2.24-6.15,1.33,3.1h5.66V7.36H33.69L31.5,2.25,29,9,28.34,8H24.51V2.67A1.17,1.17,0,0,0,23.34,1.5H17.47A1.17,1.17,0,0,0,16.3,2.67V5.6H11.22L9.9,8.7,7.66,2.56,6,5H2.23V6.19H6.65l.7-1.06,2.46,6.75L12,6.78h4.3V9.71a1.17,1.17,0,0,0,1.17,1.17h1.17v2.35h1.17v3.52H16.89a6.48,6.48,0,0,0-2.88.68l-.41.2a2.93,2.93,0,0,0-2.78-2.06H8.68a2.9,2.9,0,0,0-1.76.6V13.81a1.76,1.76,0,1,0-3.52,0v8.8a1.17,1.17,0,0,0-1.17,1.17V25A1.17,1.17,0,0,0,3.4,26.13H5.16v6.46a2.93,2.93,0,1,0,3.52,0V26.13H32.13v6.45a2.93,2.93,0,1,0,3.52,0V26.13h1.76A1.17,1.17,0,0,0,38.58,25V23.78a1.17,1.17,0,0,0-1.17-1.17h0A6.46,6.46,0,0,0,31,16.75H21V13.23ZM8.68,16.75h2.13a1.76,1.76,0,1,1,0,3.52H8.68a1.76,1.76,0,0,1,0-3.52ZM11,21.44a1.76,1.76,0,0,1,1.65,1.17H7a1.76,1.76,0,0,1,1.65-1.17Zm-4.1-.6,0,0,0,0Zm-2.35-7a.59.59,0,0,1,1.17,0v8.8H4.57ZM6.92,36.68a1.76,1.76,0,0,1-1.76-1.76,1.73,1.73,0,0,1,.11-.58,1.75,1.75,0,0,0,3.3,0,1.74,1.74,0,0,1,.11.58A1.76,1.76,0,0,1,6.92,36.68Zm.59-2.93a.59.59,0,0,1-1.17,0V26.13H7.51Zm26.39,2.93a1.76,1.76,0,0,1-1.76-1.76,1.74,1.74,0,0,1,.11-.58,1.75,1.75,0,0,0,3.3,0,1.74,1.74,0,0,1,.11.58A1.76,1.76,0,0,1,33.89,36.68Zm.59-2.93a.59.59,0,0,1-1.17,0V26.13h1.17ZM36.2,22.61H33.89v1.17h3.52V25H3.4V23.78H32.72V22.61H13.9a2.94,2.94,0,0,0-1.24-1.85,2.91,2.91,0,0,0,1-1.88l.82-.41a5.3,5.3,0,0,1,2.36-.56H31A5.28,5.28,0,0,1,36.2,22.61ZM17.47,2.67h5.86v7H17.47ZM21,10.88v1.17H19.82V10.88Z" transform="translate(-0.05 0)"/></g></svg>