<svg xmlns="http://www.w3.org/2000/svg" viewBox="0 0 41 39"><defs><style>.cls-1{fill:#29ab87;}.cls-2{fill:#fff;}</style></defs><title>chiPhiRang</title><g id="Layer_2" data-name="Layer 2"><rect class="cls-1" width="41" height="39"/></g><g id="Layer_19" data-name="Layer 19"><path id="Shape" class="cls-2" d="M31.79,1.94H7.21A2.93,2.93,0,0,0,4.28,4.86V34.14a2.93,2.93,0,0,0,2.93,2.92H31.79a2.93,2.93,0,0,0,2.93-2.92V4.86A2.93,2.93,0,0,0,31.79,1.94ZM12.47,3.11H26.52V6a.58.58,0,0,1-.58.58H24.77V5.45a.59.59,0,1,0-1.17,0V6.62H15.4V5.45a.59.59,0,1,0-1.17,0V6.62H13.06A.59.59,0,0,1,12.47,6Zm.59,4.68H25.94A1.75,1.75,0,0,0,27.7,6V5.45h3.51V21.26a.59.59,0,0,0-.59.58.6.6,0,0,0,.59.59v3.82l-.05,0V29l.05-.06v4.63H7.79V22.43a.6.6,0,0,0,.59-.59.59.59,0,0,0-.59-.58V5.45H11.3V6A1.75,1.75,0,0,0,13.06,7.79ZM33.55,34.14a1.75,1.75,0,0,1-1.76,1.75H7.21a1.75,1.75,0,0,1-1.76-1.75V4.86A1.75,1.75,0,0,1,7.21,3.11H11.3V4.28H7.79A1.17,1.17,0,0,0,6.62,5.45v28.1a1.17,1.17,0,0,0,1.17,1.17c10,0,9,0,9.42,0h14a1.17,1.17,0,0,0,1.17-1.17V5.45a1.17,1.17,0,0,0-1.17-1.17H27.7V3.11h4.09a1.75,1.75,0,0,1,1.76,1.75Z" transform="translate(-0.05 0)"/><path id="Shape-2" data-name="Shape" class="cls-2" d="M19.55,15.21a.46.46,0,0,0-.9,0,1,1,0,0,1-.5-.83.47.47,0,0,0-.95,0,1.9,1.9,0,0,0,1.42,1.83v.54a.47.47,0,0,0,.95,0v-.54a1.9,1.9,0,0,0-.47-3.73.95.95,0,0,1-.45-1.78.46.46,0,0,0,.9,0,1,1,0,0,1,.5.83.47.47,0,1,0,.95,0A1.9,1.9,0,0,0,19.58,9.7V9.16a.47.47,0,1,0-.95,0V9.7a1.9,1.9,0,0,0,.47,3.73.95.95,0,0,1,.45,1.78Z" transform="translate(-0.05 0)"/><path class="cls-2" d="M23.31,17.24a5.34,5.34,0,0,0-4.29.5,5.33,5.33,0,0,0-4.29-.5c-2.56.82-3.76,4.57-1.71,7.58a7.23,7.23,0,0,1,1.24,3.7,9.46,9.46,0,0,0,.64,2.77c.29.69.71,1.49,1.32,1.49h0c.49,0,.89-.5,1.29-1.58A12.74,12.74,0,0,0,18,29.38c.23-1.13.46-2.31,1-2.31h0c.58,0,.81,1.17,1,2.31a12.72,12.72,0,0,0,.46,1.84c.4,1.08.79,1.57,1.29,1.59h0c.61,0,1-.8,1.32-1.49a9.59,9.59,0,0,0,.63-2.72A7.48,7.48,0,0,1,25,24.83C27.1,21.77,25.83,18.05,23.31,17.24Zm1.2,7.23a8.09,8.09,0,0,0-1.36,4,9,9,0,0,1-.59,2.56c-.45,1.08-.72,1.11-.75,1.11h0s-.3,0-.72-1.18a12.29,12.29,0,0,1-.43-1.74,10.1,10.1,0,0,0-.47-1.83c-.27-.64-.66-1-1.17-1h0c-.51,0-.9.33-1.17,1a10.09,10.09,0,0,0-.47,1.83A12.32,12.32,0,0,1,16.93,31c-.42,1.16-.71,1.18-.72,1.18s-.29,0-.75-1.11a8.83,8.83,0,0,1-.6-2.61,7.84,7.84,0,0,0-1.34-4c-1.85-2.72-.74-6,1.39-6.65a4.74,4.74,0,0,1,3.94.54.31.31,0,0,0,.33,0,4.75,4.75,0,0,1,3.94-.54C25.29,18.53,26.33,21.81,24.51,24.48Z" transform="translate(-0.05 0)"/><path class="cls-2" d="M17.89,20.22l-1.24-.41-.41-1.24a.31.31,0,0,0-.59,0l-.41,1.24L14,20.22a.31.31,0,0,0,0,.59l1.24.41.41,1.24a.31.31,0,0,0,.59,0l.41-1.24,1.24-.41a.31.31,0,0,0,0-.59Zm-1.58.46a.31.31,0,0,0-.2.2l-.17.51-.17-.51a.31.31,0,0,0-.2-.2l-.51-.17.51-.17a.31.31,0,0,0,.2-.2l.17-.51.17.51a.31.31,0,0,0,.2.2l.51.17Z" transform="translate(-0.05 0)"/></g></svg>