<svg xmlns="http://www.w3.org/2000/svg" viewBox="0 0 41 39"><defs><style>.cls-1{fill:#29ab87;}.cls-2{fill:#fff;}</style></defs><title>ChiPhinamVien</title><g id="Layer_2" data-name="Layer 2"><rect class="cls-1" width="41" height="39"/></g><g id="Layer_14" data-name="Layer 14"><path class="cls-2" d="M38.19,22.22a.61.61,0,0,0-.61.61v1.68H4.75V16.77a.61.61,0,0,0-1.22,0V35.11a.61.61,0,0,0,1.22,0V30.9H37.59v4.21a.61.61,0,1,0,1.22,0V22.83A.61.61,0,0,0,38.19,22.22ZM4.75,29.68v-4H37.59v4Z" transform="translate(-0.05 0)"/><path class="cls-2" d="M7.63,24H9.15A2.83,2.83,0,0,0,12,21.16v-.33a2.8,2.8,0,0,0-2.82-2.78H7.63a2.17,2.17,0,0,0-2.2,2.17v1.55A2.2,2.2,0,0,0,7.63,24Zm-1-3.76a1,1,0,0,1,1-1H9.15a1.58,1.58,0,0,1,1.61,1.56v.33a1.61,1.61,0,0,1-1.61,1.6H7.63a1,1,0,0,1-1-1Z" transform="translate(-0.05 0)"/><path class="cls-2" d="M13.63,18.05a.57.57,0,0,0-.6.58v4.74a.61.61,0,0,0,.6.61H35.3a.62.62,0,0,0,.62-.61v-.48A4.85,4.85,0,0,0,31,18.05Zm21.05,4.71H14.25v-3.5H31A3.62,3.62,0,0,1,34.69,22.77Z" transform="translate(-0.05 0)"/><path class="cls-2" d="M20.43,16h0a6.87,6.87,0,0,0,0-13.73h0a6.87,6.87,0,0,0,0,13.73ZM16.54,5.23a5.46,5.46,0,0,1,3.89-1.59h0a5.51,5.51,0,0,1,0,11h0a5.52,5.52,0,0,1-3.89-9.43Z" transform="translate(-0.05 0)"/><path class="cls-2" d="M17.31,10.69h1.54v1.53a.67.67,0,0,0,.68.67h1.81a.67.67,0,0,0,.48-.19.65.65,0,0,0,.2-.47V10.69h1.54a.67.67,0,0,0,.68-.67V8.21a.68.68,0,0,0-.68-.68H22V6a.67.67,0,0,0-.68-.67H19.53a.67.67,0,0,0-.48.19.66.66,0,0,0-.2.47V7.54H17.32a.67.67,0,0,0-.68.67V10A.68.68,0,0,0,17.31,10.69ZM18,8.89h1.54a.68.68,0,0,0,.48-.2.67.67,0,0,0,.2-.47V6.69h.45V8.22a.67.67,0,0,0,.68.67h1.54v.44H21.34a.69.69,0,0,0-.68.69v1.55h-.45V10a.68.68,0,0,0-.68-.68H18Z" transform="translate(-0.05 0)"/></g></svg>