<svg xmlns="http://www.w3.org/2000/svg" viewBox="0 0 41 39"><defs><style>.cls-1{fill:#29ab87;}.cls-2{fill:#fdfffe;}</style></defs><title>CMDN</title><g id="Layer_2" data-name="Layer 2"><rect class="cls-1" width="41" height="39"/></g><g id="Layer_5" data-name="Layer 5"><path class="cls-2" d="M35.27,1.88h-30A2.65,2.65,0,0,0,2.58,4.53v30a2.65,2.65,0,0,0,2.65,2.65h30a2.65,2.65,0,0,0,2.65-2.65v-30A2.65,2.65,0,0,0,35.27,1.88Zm1.47,32.68A1.47,1.47,0,0,1,35.27,36h-30a1.47,1.47,0,0,1-1.47-1.47v-30A1.47,1.47,0,0,1,5.23,3.05h30a1.47,1.47,0,0,1,1.47,1.47Z" transform="translate(-0.05 0)"/><path class="cls-2" d="M7.88,4.23H5.53a.59.59,0,0,0-.59.59V7.18a.59.59,0,0,0,.59.59H7.88a.59.59,0,0,0,.59-.59V4.82A.59.59,0,0,0,7.88,4.23ZM7.29,6.59H6.12V5.41H7.29Z" transform="translate(-0.05 0)"/><path class="cls-2" d="M12.59,4.23H10.24a.59.59,0,0,0-.59.59V7.18a.59.59,0,0,0,.59.59h2.36a.59.59,0,0,0,.59-.59V4.82A.59.59,0,0,0,12.59,4.23ZM12,6.59H10.83V5.41H12Z" transform="translate(-0.05 0)"/><path class="cls-2" d="M17.31,4.23H14.95a.59.59,0,0,0-.59.59V7.18a.59.59,0,0,0,.59.59h2.36a.59.59,0,0,0,.59-.59V4.82A.59.59,0,0,0,17.31,4.23Zm-.59,2.36H15.54V5.41h1.18Z" transform="translate(-0.05 0)"/><path class="cls-2" d="M35.27,1.88h-30A2.65,2.65,0,0,0,2.58,4.53v5a.59.59,0,0,0,.59.59H37.33a.59.59,0,0,0,.59-.59v-5A2.65,2.65,0,0,0,35.27,1.88Zm1.47,7.07h-33V4.53A1.47,1.47,0,0,1,5.23,3.05h30a1.47,1.47,0,0,1,1.47,1.47Z" transform="translate(-0.05 0)"/><path class="cls-2" d="M24.37,17.77H16.13a1.77,1.77,0,0,0,0,3.53h8.24a1.77,1.77,0,1,0,0-3.53Zm0,2.36H16.13a.59.59,0,0,1,0-1.18h8.24a.59.59,0,1,1,0,1.18Z" transform="translate(-0.05 0)"/><path class="cls-2" d="M26.14,12.48H14.36a.59.59,0,1,0,0,1.18H26.14a.59.59,0,1,0,0-1.18Z" transform="translate(-0.05 0)"/><path class="cls-2" d="M29.08,14.83H11.42a.59.59,0,0,0,0,1.18H29.08a.59.59,0,0,0,0-1.18Z" transform="translate(-0.05 0)"/><path class="cls-2" d="M11.42,30.73H6.12a.59.59,0,0,0,0,1.18h5.3a.59.59,0,0,0,0-1.18Z" transform="translate(-0.05 0)"/><path class="cls-2" d="M9.65,33.09H6.12a.59.59,0,1,0,0,1.18H9.65a.59.59,0,1,0,0-1.18Z" transform="translate(-0.05 0)"/><path class="cls-2" d="M11.42,28.38H6.12a.59.59,0,1,0,0,1.18h5.3a.59.59,0,1,0,0-1.18Z" transform="translate(-0.05 0)"/><path class="cls-2" d="M11.42,26H6.12a.59.59,0,1,0,0,1.18h5.3a.59.59,0,1,0,0-1.18Z" transform="translate(-0.05 0)"/><path class="cls-2" d="M19.07,30.73h-5.3a.59.59,0,1,0,0,1.18h5.3a.59.59,0,1,0,0-1.18Z" transform="translate(-0.05 0)"/><path class="cls-2" d="M17.31,33.09H13.77a.59.59,0,1,0,0,1.18h3.53a.59.59,0,1,0,0-1.18Z" transform="translate(-0.05 0)"/><path class="cls-2" d="M19.07,28.38h-5.3a.59.59,0,1,0,0,1.18h5.3a.59.59,0,1,0,0-1.18Z" transform="translate(-0.05 0)"/><path class="cls-2" d="M19.07,26h-5.3a.59.59,0,1,0,0,1.18h5.3a.59.59,0,1,0,0-1.18Z" transform="translate(-0.05 0)"/><path class="cls-2" d="M26.73,30.73h-5.3a.59.59,0,0,0,0,1.18h5.3a.59.59,0,1,0,0-1.18Z" transform="translate(-0.05 0)"/><path class="cls-2" d="M25,33.09H21.43a.59.59,0,0,0,0,1.18H25a.59.59,0,0,0,0-1.18Z" transform="translate(-0.05 0)"/><path class="cls-2" d="M26.73,28.38h-5.3a.59.59,0,1,0,0,1.18h5.3a.59.59,0,1,0,0-1.18Z" transform="translate(-0.05 0)"/><path class="cls-2" d="M26.73,26h-5.3a.59.59,0,1,0,0,1.18h5.3a.59.59,0,1,0,0-1.18Z" transform="translate(-0.05 0)"/><path class="cls-2" d="M34.38,30.73h-5.3a.59.59,0,0,0,0,1.18h5.3a.59.59,0,0,0,0-1.18Z" transform="translate(-0.05 0)"/><path class="cls-2" d="M32.62,33.09H29.08a.59.59,0,0,0,0,1.18h3.53a.59.59,0,0,0,0-1.18Z" transform="translate(-0.05 0)"/><path class="cls-2" d="M34.38,28.38h-5.3a.59.59,0,0,0,0,1.18h5.3a.59.59,0,1,0,0-1.18Z" transform="translate(-0.05 0)"/><path class="cls-2" d="M34.38,26h-5.3a.59.59,0,0,0,0,1.18h5.3a.59.59,0,1,0,0-1.18Z" transform="translate(-0.05 0)"/><path class="cls-2" d="M11.42,23.66H6.12a.59.59,0,1,0,0,1.18h5.3a.59.59,0,1,0,0-1.18Z" transform="translate(-0.05 0)"/><path class="cls-2" d="M19.07,23.66h-5.3a.59.59,0,1,0,0,1.18h5.3a.59.59,0,1,0,0-1.18Z" transform="translate(-0.05 0)"/><path class="cls-2" d="M26.73,23.66h-5.3a.59.59,0,0,0,0,1.18h5.3a.59.59,0,1,0,0-1.18Z" transform="translate(-0.05 0)"/><path class="cls-2" d="M34.38,23.66h-5.3a.59.59,0,0,0,0,1.18h5.3a.59.59,0,0,0,0-1.18Z" transform="translate(-0.05 0)"/></g></svg>