<svg xmlns="http://www.w3.org/2000/svg" viewBox="0 0 41 39"><defs><style>.cls-1{fill:#29ab87;}.cls-2{fill:#fff;}</style></defs><title>doTaiNan</title><g id="Layer_2" data-name="Layer 2"><rect class="cls-1" width="41" height="39"/></g><g id="Layer_21" data-name="Layer 21"><path class="cls-2" d="M31.19,4.33a7,7,0,0,1-3.82,1.13A7,7,0,0,1,22,2.94h0a2.13,2.13,0,0,0-3.28,0A7,7,0,0,1,13.3,5.46,7,7,0,0,1,9.48,4.33a2.1,2.1,0,0,0-3.21,1.8V20.47a14.66,14.66,0,0,0,2.88,8.78,29.79,29.79,0,0,0,10.9,8.87.7.7,0,0,0,.55,0,29.79,29.79,0,0,0,10.9-8.86,14.67,14.67,0,0,0,2.88-8.78V6.13A2.1,2.1,0,0,0,31.19,4.33Zm-.8,24.07a29.16,29.16,0,0,1-10.06,8.29A29.07,29.07,0,0,1,10.28,28.4a13.25,13.25,0,0,1-2.6-7.93V6.13a.69.69,0,0,1,1-.62A8.41,8.41,0,0,0,13.3,6.86a8.42,8.42,0,0,0,6.47-3,.72.72,0,0,1,1.13,0,8.42,8.42,0,0,0,6.47,3A8.41,8.41,0,0,0,32,5.51a.69.69,0,0,1,1,.62V20.47h0A13.25,13.25,0,0,1,30.39,28.4Z" transform="translate(-0.05 0)"/><g id="outline"><path class="cls-2" d="M17.13,22.62A.7.7,0,1,0,16.92,24H17a.7.7,0,0,0,.08-1.38Zm-.12,1,0-.3v0Z" transform="translate(-0.05 0)"/><path class="cls-2" d="M30.75,17l.39-.57a1.37,1.37,0,0,0-1-.24l-4.81.63a1.39,1.39,0,0,0-1,.69L23,19.7l-1.16-.8a1.24,1.24,0,0,0-1.62.19l.52.47a.54.54,0,0,1,.71-.08l.88.61-.09.1-.34-.13a.35.35,0,0,0-.41.13l-.08.12a.47.47,0,0,0-.51-.08,1.38,1.38,0,0,0-.44.36,1.23,1.23,0,0,0-.64-.35l-.22-.3a.35.35,0,0,0-.26-.14.34.34,0,0,0-.27.11l-.16.18-.19-.27a.35.35,0,0,0-.48-.09h0l-.2.16-1.4-2.44a1.4,1.4,0,0,0-1-.69l-4.82-.63a1.37,1.37,0,0,0-.87.18l.35.6a.67.67,0,0,1,.43-.09l1.9.25-.25,2.07-2.21-.28-.09.69,2.21.28L12,22.26,10.13,22l-.09.69,4.91.62a2.08,2.08,0,0,0,1.83,2l.26,0a2.08,2.08,0,0,0,2-1.54l1.08.14h0a.35.35,0,0,0,.31-.18.35.35,0,0,0,.31.19h0L22,23.85a2.09,2.09,0,0,0,1.76,1.52l.26,0a2.09,2.09,0,0,0,2.07-1.83,2.16,2.16,0,0,0,0-.22L31,22.72,30.9,22l-1.9.24-.3-2.41L31,19.56l-.09-.69-2.28.29-.25-2.08,1.9-.25A.67.67,0,0,1,30.75,17Zm-17.46.21,2.23.29a.71.71,0,0,1,.52.35l1.12,2L13,19.24Zm5.13,6.31a1.39,1.39,0,0,1-2.76-.34h0A1.39,1.39,0,0,1,17,21.92h.17a1.39,1.39,0,0,1,1.21,1.55Zm1.67-1.94-.22,1.72-.75-.09a2.09,2.09,0,0,0-4.06-.51l-2.41-.31.3-2.41,4.53.57v0a.35.35,0,0,0,.56.26l.34-.27.22.32a.35.35,0,0,0,.26.15.36.36,0,0,0,.28-.11l.17-.19.05.07a.35.35,0,0,0,.23.14.5.5,0,0,1,.49.64Zm4.83-3.72a.7.7,0,0,1,.52-.34l2.23-.29.25,2.07-4.13.52Zm.45,5.67a1.39,1.39,0,0,1-2.76-.34h0A1.39,1.39,0,0,1,24,21.92h.17a1.39,1.39,0,0,1,1.21,1.55Zm.6-.82a2.09,2.09,0,0,0-4,.4s0,.07,0,.11l-.83.1-.22-1.72a.7.7,0,0,1,.24-.62.63.63,0,0,0,.46.19.35.35,0,0,0,.25-.15l.11-.16.3.12a.35.35,0,0,0,.38-.09l.22-.24L28,19.94l.3,2.42Z" transform="translate(-0.05 0)"/><path class="cls-2" d="M24.08,22.62A.7.7,0,1,0,23.87,24H24a.7.7,0,0,0,.08-1.38Zm-.12,1,0-.3v0Z" transform="translate(-0.05 0)"/><path class="cls-2" d="M17.76,18l.65-.26-.93-2.32,1.79,1.34a.35.35,0,0,0,.54-.18l.76-2.52,1,2.55a.35.35,0,0,0,.45.19l.06,0,1.73-1.08L23,17.37l.62.31L25,14.9a.35.35,0,0,0-.5-.45L22.08,16l-1.24-3.09a.34.34,0,0,0-.34-.22.35.35,0,0,0-.32.25l-.9,3L16.9,14.12a.35.35,0,0,0-.53.41Z" transform="translate(-0.05 0)"/><polygon class="cls-2" points="13.07 13.6 13.52 13.15 13.97 13.6 14.46 13.11 14.01 12.66 14.46 12.21 13.97 11.72 13.52 12.17 13.07 11.72 12.58 12.21 13.03 12.66 12.58 13.11 13.07 13.6"/><rect class="cls-2" x="14.95" y="13.81" width="0.69" height="2.22" transform="translate(-6.01 12.81) rotate(-38.62)"/><rect class="cls-2" x="22.2" y="13.09" width="2.71" height="0.7" transform="translate(-2.65 20.59) rotate(-45)"/><polygon class="cls-2" points="25.24 12.21 25.68 11.76 26.14 12.21 26.63 11.72 26.18 11.27 26.63 10.82 26.14 10.33 25.68 10.78 25.24 10.33 24.74 10.82 25.19 11.27 24.74 11.72 25.24 12.21"/><rect class="cls-2" x="13.79" y="20.57" width="0.7" height="1.08" transform="translate(-9.02 31.66) rotate(-80.73)"/><rect class="cls-2" x="26.2" y="20.62" width="1.08" height="0.7" transform="matrix(0.98, -0.18, 0.18, 0.98, -3.39, 5.17)"/></g></g></svg>