<svg xmlns="http://www.w3.org/2000/svg" viewBox="0 0 41 39"><defs><style>.cls-1{fill:#29ab87;}.cls-2{fill:#fff;}</style></defs><title>khamsk1.2</title><g id="Layer_2" data-name="Layer 2"><rect class="cls-1" width="41" height="39"/></g><g id="Layer_3" data-name="Layer 3"><path class="cls-2" d="M38.31,24.5a.61.61,0,0,0-.5-.26H32.34V6.6A.61.61,0,0,0,31.73,6H29.9V4.17a.61.61,0,0,0-.61-.61H14.7a2.43,2.43,0,0,0-4.87,0H8a.61.61,0,0,0-.61.61V24.24H2.53a.61.61,0,0,0-.53.9L8.69,37.31a.61.61,0,0,0,.53.32H33.55a.58.58,0,0,0,.57-.41h0L38.39,25A.61.61,0,0,0,38.31,24.5Zm-8.4,4.61V7.21h1.22V31.33L29.9,29.11ZM12.26,2.34a1.22,1.22,0,0,1,1.22,1.22H11A1.22,1.22,0,0,1,12.26,2.34ZM8.61,4.77h4.87V6.6a.61.61,0,1,1-1.22,0V6H11V6.6a1.82,1.82,0,0,0,3.65,0V4.77h14V26.91l-1.29-2.35a.61.61,0,0,0-.53-.32H8.61Zm1,31.63-6-10.95H26.5l6,10.95Zm23.85-.88-1.09-2V25.46H37Z" transform="translate(-0.05 0)"/><path class="cls-2" d="M32.34,3.56H31.12V4.77h1.22A1.22,1.22,0,0,1,33.55,6v8.52h1.22V6A2.43,2.43,0,0,0,32.34,3.56Z" transform="translate(-0.05 0)"/><rect class="cls-2" x="33.51" y="15.72" width="1.22" height="1.22"/><rect class="cls-2" x="4.92" y="13.29" width="1.22" height="8.52"/><rect class="cls-2" x="4.92" y="10.85" width="1.22" height="1.22"/><path class="cls-2" d="M22.6,9H20.78V7.21a.61.61,0,0,0-.61-.61H17.74a.61.61,0,0,0-.61.61V9H15.3a.61.61,0,0,0-.61.61v2.43a.61.61,0,0,0,.61.61h1.82v1.82a.61.61,0,0,0,.61.61h2.43a.61.61,0,0,0,.61-.61V12.68H22.6a.61.61,0,0,0,.61-.61V9.64A.61.61,0,0,0,22.6,9ZM22,11.47H20.17a.61.61,0,0,0-.61.61V13.9H18.35V12.07a.61.61,0,0,0-.61-.61H15.91V10.25h1.82a.61.61,0,0,0,.61-.61V7.82h1.22V9.64a.61.61,0,0,0,.61.61H22Z" transform="translate(-0.05 0)"/><rect class="cls-2" x="11.61" y="16.33" width="1.22" height="1.22"/><rect class="cls-2" x="14.04" y="16.33" width="12.77" height="1.22"/><rect class="cls-2" x="10.39" y="18.76" width="16.42" height="1.22"/><rect class="cls-2" x="10.39" y="21.2" width="13.99" height="1.22"/><rect class="cls-2" x="26.1" y="6.6" width="1.25" height="1.22"/><rect class="cls-2" x="26.21" y="9.03" width="1.22" height="1.22"/></g></svg>