<svg xmlns="http://www.w3.org/2000/svg" viewBox="0 0 41 39"><defs><style>.cls-1{fill:#29ab87;}.cls-2{fill:#fff;}</style></defs><title>YtaNha</title><g id="Layer_2" data-name="Layer 2"><rect class="cls-1" width="41" height="39"/></g><g id="Layer_15" data-name="Layer 15"><path class="cls-2" d="M21.69,21.71a2.43,2.43,0,0,1,1.44.11.32.32,0,1,0,.34-.54,3,3,0,0,0-1.91-.19.32.32,0,1,0,.13.62Z" transform="translate(-0.05 0)"/><circle class="cls-2" cx="22.44" cy="22.83" r="0.51"/><circle class="cls-2" cx="18.06" cy="22.83" r="0.51"/><path class="cls-2" d="M19,21.09a3,3,0,0,0-1.91.19.32.32,0,1,0,.34.54,2.41,2.41,0,0,1,1.44-.11.32.32,0,0,0,.13-.62Z" transform="translate(-0.05 0)"/><path class="cls-2" d="M19.59,15.71H20v.39a.32.32,0,1,0,.63,0v-.39H21a.32.32,0,0,0,0-.63h-.39v-.39a.32.32,0,1,0-.63,0v.39h-.39a.32.32,0,0,0,0,.63Z" transform="translate(-0.05 0)"/><path class="cls-2" d="M25,32H22.32a.32.32,0,1,0,0,.63H25A.32.32,0,0,0,25,32Z" transform="translate(-0.05 0)"/><path class="cls-2" d="M24.52,28a3.8,3.8,0,0,0,1.67-1,.32.32,0,1,0-.46-.44,3.17,3.17,0,0,1-2.25,1,6.05,6.05,0,0,0-1.42-.31,5.69,5.69,0,0,0,2.75-3.17,1.94,1.94,0,0,0,1.47-1.89,13.66,13.66,0,0,1,.33,2.18,3.16,3.16,0,0,1-.25,1.25.32.32,0,0,0,.58.25A3.8,3.8,0,0,0,27.23,24l-1.1-6.49a2.2,2.2,0,0,0-1.8-1.81c.21-.42.27-.5.27-.68a.61.61,0,0,0-.28-.52,7,7,0,0,0-8,0,.62.62,0,0,0-.2.81l.19.37h0a2.2,2.2,0,0,0-1.85,1.82L13.36,24a3.83,3.83,0,0,0,2.72,4,6,6,0,0,0-1.41,1.13.32.32,0,0,0,.47.43,5.38,5.38,0,0,1,3.49-1.72L20,32.3v1.93H14.63a.94.94,0,0,1-.94-.94,5.43,5.43,0,0,1,.73-2.72.32.32,0,1,0-.55-.32,6.06,6.06,0,0,0-.82,3,1.58,1.58,0,0,0,1.57,1.57H26a1.58,1.58,0,0,0,1.57-1.57,6.06,6.06,0,0,0-3-5.25Zm.39-4.66V21A1.3,1.3,0,0,1,24.9,23.39ZM24,15,22.86,17.2a.15.15,0,0,1-.19.08,6.27,6.27,0,0,0-4.7,0,.15.15,0,0,1-.19-.08L16.69,15A6.43,6.43,0,0,1,24,15Zm-8.87,2.58a1.57,1.57,0,0,1,1.53-1.31l.6,1.19a.78.78,0,0,0,1,.39c2.66-1,4,0,4.54,0a.79.79,0,0,0,.7-.44L24,16.3a1.57,1.57,0,0,1,1.48,1.31l.67,4a1.94,1.94,0,0,0-1.28-1.23.63.63,0,0,0-.6-.53c-1.33,0-2.69-.16-3.95-.32a.32.32,0,1,0-.08.63c2.07.27,4,.33,4,.33,0,4.61,0,2,0,3.08a4.71,4.71,0,0,1-3.19.33,3.38,3.38,0,0,0-1.55,0,4.71,4.71,0,0,1-3.19-.33c0-.13,0,.16,0-4.27h0a13,13,0,0,0,2.67.68.32.32,0,0,0,.11-.62,12,12,0,0,1-2.52-.63.64.64,0,0,0-.9.58v1.09a2,2,0,0,0-1.27,1.22Zm.6,3.43v2.35a1.3,1.3,0,0,1,0-2.35Zm1.42,6.53A3.2,3.2,0,0,1,14,24.09l.32-1.88a1.94,1.94,0,0,0,1.47,1.89,5.74,5.74,0,0,0,2.75,3.17A6,6,0,0,0,17.11,27.57Zm-.59-3.26a5.21,5.21,0,0,0,3.16.18,2.76,2.76,0,0,1,1.23,0,5.23,5.23,0,0,0,3.16-.18,5.9,5.9,0,0,1-3.56,2.92h-.44a5.89,5.89,0,0,1-3.56-2.92ZM19.2,27.6a2.26,2.26,0,0,0,2.19,0L20.3,31.17ZM26,34.23H20.61V32.3L22,27.89a5.41,5.41,0,0,1,4.94,5.41A.94.94,0,0,1,26,34.23Z" transform="translate(-0.05 0)"/><path class="cls-2" d="M35.75,17.26,21,3a1.11,1.11,0,0,0-1.55,0L4.62,17.26a1.12,1.12,0,0,0,.77,1.92h2V34.8a1.11,1.11,0,0,0,1.11,1.11H31.9A1.11,1.11,0,0,0,33,34.8V19.18h2a1.12,1.12,0,0,0,.77-1.92ZM33,18.07a1.11,1.11,0,0,0-1.11,1.11V34.8H8.47V19.18a1.11,1.11,0,0,0-1.11-1.11h-2L20.18,3.78,35,18.07Z" transform="translate(-0.05 0)"/></g></svg>