<svg id="Layer_1" data-name="Layer 1" xmlns="http://www.w3.org/2000/svg" xmlns:xlink="http://www.w3.org/1999/xlink" viewBox="0 0 1920 1080"><defs><style>.cls-1{fill:#4870ba;}.cls-2{fill:#ececec;}.cls-3{fill:#e7e7e7;}.cls-4{fill:#e1e1e1;}.cls-5{fill:#1ca0a4;}.cls-6{fill:#f5f5f5;}.cls-7{opacity:0.6;}.cls-12,.cls-18,.cls-8{fill:#fff;}.cls-9{fill:#1a2e35;}.cls-10{opacity:0.2;}.cls-11{fill:#007cff;}.cls-12{font-size:113.7px;font-family:Arial-BoldMT, Arial;font-weight:700;}.cls-13{fill:#01a0a4;}.cls-14{opacity:0.1;}.cls-15,.cls-16,.cls-17,.cls-19,.cls-29,.cls-30,.cls-31{fill-rule:evenodd;}.cls-15{fill:url(#linear-gradient);}.cls-16{fill:url(#radial-gradient);}.cls-17{fill:url(#radial-gradient-2);}.cls-18{opacity:0.3;}.cls-19{fill:url(#linear-gradient-2);}.cls-20{fill:#595b5d;}.cls-21{fill:url(#linear-gradient-3);}.cls-22{fill:url(#radial-gradient-3);}.cls-23{fill:url(#radial-gradient-4);}.cls-24{fill:url(#linear-gradient-4);}.cls-25{fill:url(#radial-gradient-5);}.cls-26{fill:url(#radial-gradient-6);}.cls-27{fill:url(#radial-gradient-7);}.cls-28{fill:url(#radial-gradient-8);}.cls-29{fill:url(#radial-gradient-9);}.cls-30{fill:url(#radial-gradient-10);}.cls-31{fill:url(#linear-gradient-5);}</style><linearGradient id="linear-gradient" x1="2701.13" y1="2646.21" x2="2658.64" y2="2642.3" gradientTransform="translate(-2894.86 111.3) rotate(-37.71)" gradientUnits="userSpaceOnUse"><stop offset="0.02" stop-color="#f27221"/><stop offset="0.31" stop-color="#f27323"/><stop offset="0.45" stop-color="#f3782b"/><stop offset="0.56" stop-color="#f38038"/><stop offset="0.65" stop-color="#f48c4a"/><stop offset="0.73" stop-color="#f69b62"/><stop offset="0.8" stop-color="#f8ae80"/><stop offset="0.87" stop-color="#fac5a3"/><stop offset="0.93" stop-color="#fcdecc"/><stop offset="0.99" stop-color="#fffbf9"/><stop offset="1" stop-color="#fff"/></linearGradient><radialGradient id="radial-gradient" cx="2938.58" cy="1300.73" r="9.63" gradientTransform="translate(-2371.61 693.17) rotate(-26.02)" gradientUnits="userSpaceOnUse"><stop offset="0" stop-color="#fcf0e9"/><stop offset="0.06" stop-color="#f9decf"/><stop offset="0.25" stop-color="#efa77e"/><stop offset="0.42" stop-color="#e87e43"/><stop offset="0.53" stop-color="#e4651e"/><stop offset="0.6" stop-color="#e25b10"/></radialGradient><radialGradient id="radial-gradient-2" cx="4019.58" cy="2726.47" r="11.01" gradientTransform="matrix(0.68, -0.48, 0.48, 0.68, -3225.39, 668.62)" gradientUnits="userSpaceOnUse"><stop offset="0.32" stop-color="#e25b10"/><stop offset="0.36" stop-color="#e35e15"/><stop offset="0.41" stop-color="#e46823"/><stop offset="0.47" stop-color="#e77739"/><stop offset="0.53" stop-color="#eb8d59"/><stop offset="0.58" stop-color="#f0aa83"/><stop offset="0.64" stop-color="#f6ccb4"/><stop offset="0.7" stop-color="#fcf0e9"/></radialGradient><linearGradient id="linear-gradient-2" x1="866.41" y1="598.99" x2="789.21" y2="574.05" gradientUnits="userSpaceOnUse"><stop offset="0" stop-color="#fff"/><stop offset="0.05" stop-color="#e3e4e4"/><stop offset="0.13" stop-color="#bfc0c1"/><stop offset="0.22" stop-color="#a0a2a2"/><stop offset="0.32" stop-color="#87898a"/><stop offset="0.42" stop-color="#747677"/><stop offset="0.55" stop-color="#666869"/><stop offset="0.7" stop-color="#5e6061"/><stop offset="0.98" stop-color="#5c5e5f"/><stop offset="1" stop-color="#5b5d5e"/></linearGradient><linearGradient id="linear-gradient-3" x1="861.31" y1="599.12" x2="775.91" y2="594.38" gradientUnits="userSpaceOnUse"><stop offset="0" stop-color="#fff"/><stop offset="0.13" stop-color="#d4d4d4"/><stop offset="0.27" stop-color="#a9aaab"/><stop offset="0.42" stop-color="#88898a"/><stop offset="0.55" stop-color="#707172"/><stop offset="0.68" stop-color="#616364"/><stop offset="0.78" stop-color="#5c5e5f"/><stop offset="1" stop-color="#5b5d5e"/></linearGradient><radialGradient id="radial-gradient-3" cx="784.24" cy="602.33" r="17.55" gradientUnits="userSpaceOnUse"><stop offset="0.08" stop-color="#08b4ea"/><stop offset="0.17" stop-color="#02aae4"/><stop offset="0.25" stop-color="#02ade8"/><stop offset="0.29" stop-color="#02a5df"/><stop offset="0.35" stop-color="#0390c7"/><stop offset="0.44" stop-color="#046ea1"/><stop offset="0.53" stop-color="#063f6b"/><stop offset="0.55" stop-color="#063863"/><stop offset="0.83" stop-color="#062952"/><stop offset="1" stop-color="#062149"/></radialGradient><radialGradient id="radial-gradient-4" cx="793.93" cy="572.69" r="25.08" gradientTransform="translate(0 177.58) scale(1 0.69)" gradientUnits="userSpaceOnUse"><stop offset="0.11" stop-color="#fcf0e9"/><stop offset="0.13" stop-color="#fae3d6"/><stop offset="0.16" stop-color="#f5c7ad"/><stop offset="0.2" stop-color="#f0ad87"/><stop offset="0.24" stop-color="#ec9667"/><stop offset="0.28" stop-color="#e9844b"/><stop offset="0.33" stop-color="#e67535"/><stop offset="0.39" stop-color="#e46924"/><stop offset="0.47" stop-color="#e36119"/><stop offset="0.57" stop-color="#e25c12"/><stop offset="0.86" stop-color="#e25b10"/></radialGradient><linearGradient id="linear-gradient-4" x1="762.75" y1="645.9" x2="845.97" y2="551.94" gradientUnits="userSpaceOnUse"><stop offset="0.6" stop-color="#f7981d"/><stop offset="1" stop-color="#fff"/></linearGradient><radialGradient id="radial-gradient-5" cx="782.33" cy="634.9" r="46.55" gradientUnits="userSpaceOnUse"><stop offset="0.01" stop-color="#fcf0e9"/><stop offset="0.02" stop-color="#fceee5"/><stop offset="0.25" stop-color="#f3ba9a"/><stop offset="0.45" stop-color="#eb915f"/><stop offset="0.63" stop-color="#e67434"/><stop offset="0.76" stop-color="#e3621a"/><stop offset="0.84" stop-color="#e25b10"/></radialGradient><radialGradient id="radial-gradient-6" cx="799.94" cy="629.5" r="17.51" gradientUnits="userSpaceOnUse"><stop offset="0.09" stop-color="#fcf0e9"/><stop offset="0.36" stop-color="#efa87f"/><stop offset="0.58" stop-color="#e6712f"/><stop offset="0.68" stop-color="#e25b10"/></radialGradient><radialGradient id="radial-gradient-7" cx="788.13" cy="601.27" r="32.41" gradientUnits="userSpaceOnUse"><stop offset="0.09" stop-color="#fcf0e9"/><stop offset="0.09" stop-color="#fbebe2"/><stop offset="0.12" stop-color="#f6cdb7"/><stop offset="0.15" stop-color="#f1b28f"/><stop offset="0.18" stop-color="#ed9a6c"/><stop offset="0.22" stop-color="#ea874f"/><stop offset="0.26" stop-color="#e77738"/><stop offset="0.3" stop-color="#e56a26"/><stop offset="0.36" stop-color="#e36119"/><stop offset="0.43" stop-color="#e25c12"/><stop offset="0.6" stop-color="#e25b10"/></radialGradient><radialGradient id="radial-gradient-8" cx="791.38" cy="608.16" r="13.69" gradientTransform="translate(-2.47 -3.93) rotate(-0.22)" gradientUnits="userSpaceOnUse"><stop offset="0.32" stop-color="#fcf0e9"/><stop offset="0.41" stop-color="#fcede5"/><stop offset="0.5" stop-color="#fae5d9"/><stop offset="0.59" stop-color="#f8d8c6"/><stop offset="0.67" stop-color="#f4c5aa"/><stop offset="0.76" stop-color="#f0ac86"/><stop offset="0.85" stop-color="#eb8e5b"/><stop offset="0.93" stop-color="#e56c28"/><stop offset="0.97" stop-color="#e25b10"/></radialGradient><radialGradient id="radial-gradient-9" cx="855.41" cy="599.3" r="17.98" gradientUnits="userSpaceOnUse"><stop offset="0.03" stop-color="#fcf0e9"/><stop offset="0.04" stop-color="#fae4d8"/><stop offset="0.09" stop-color="#f4c0a3"/><stop offset="0.14" stop-color="#eea176"/><stop offset="0.19" stop-color="#ea8851"/><stop offset="0.24" stop-color="#e67435"/><stop offset="0.29" stop-color="#e46620"/><stop offset="0.33" stop-color="#e25e14"/><stop offset="0.38" stop-color="#e25b10"/></radialGradient><radialGradient id="radial-gradient-10" cx="857.38" cy="599.3" r="8.47" gradientUnits="userSpaceOnUse"><stop offset="0.01" stop-color="#fcf0e9"/><stop offset="0.07" stop-color="#fae5d8"/><stop offset="0.61" stop-color="#e98249"/><stop offset="0.84" stop-color="#e25b10"/></radialGradient><linearGradient id="linear-gradient-5" x1="879.31" y1="616.89" x2="813.28" y2="576.73" xlink:href="#linear-gradient-4"/></defs><title>error</title><path class="cls-1" d="M222.12,957.8l7.66-19.53h13.16l-13.36,28.2,13.67,28.67H229.94l-7.81-19.88-7.77,19.88H201l13.67-28.67-13.4-28.2h13.16Z"/><path class="cls-1" d="M248.53,941.94a5.71,5.71,0,0,1,1.64-4.22,6.65,6.65,0,0,1,8.75,0,5.71,5.71,0,0,1,1.64,4.22,6,6,0,1,1-12,0Zm11.6,53.2H249V952.88h11.09Z"/><path class="cls-1" d="M278.8,952.88l.31,4.18a11.73,11.73,0,0,1,9.8-5q10.9,0,11.21,15.27v27.77H289v-27A9.73,9.73,0,0,0,288,963a4.18,4.18,0,0,0-3.77-1.62,5.16,5.16,0,0,0-4.69,3.09v30.7H268.41V952.88Z"/><path class="cls-1" d="M338.53,985.62h20.16v9.53H327V938.27h11.48Z"/><path class="cls-1" d="M363.49,972.65q0-9.61,4.53-15.08t12.54-5.47q8.09,0,12.62,5.47t4.53,15.16v2.7q0,9.65-4.49,15.08t-12.58,5.43q-8.13,0-12.64-5.45t-4.51-15.14Zm29.57-25-7.62,0-4.88-4.92-5,4.92-7.58,0,9.61-8.77h5.82ZM389,930.62a7.2,7.2,0,0,1-1.29,4.28,3.79,3.79,0,0,1-3.16,1.82,7.82,7.82,0,0,1-3.67-1.25,7.69,7.69,0,0,0-3.28-1.25,1.24,1.24,0,0,0-1.11.82,4.32,4.32,0,0,0-.41,2l-3.63-1.13a7.61,7.61,0,0,1,1.23-4.34,3.67,3.67,0,0,1,3.14-1.84,9.1,9.1,0,0,1,3.5,1.23,9.12,9.12,0,0,0,3.46,1.23q.62,0,1.09-.88a4.38,4.38,0,0,0,.47-2.09Zm-14.41,44.8q0,11.33,6.05,11.33,5.58,0,6-9.45l0-4.65q0-5.78-1.6-8.57a5,5,0,0,0-4.53-2.79,4.86,4.86,0,0,0-4.39,2.79q-1.58,2.79-1.58,8.57Z"/><path class="cls-1" d="M404.58,941.94a5.71,5.71,0,0,1,1.64-4.22,6.65,6.65,0,0,1,8.75,0,5.71,5.71,0,0,1,1.64,4.22,6,6,0,1,1-12,0Zm11.6,53.2H405.09V952.88h11.09Z"/><path class="cls-1" d="M443.8,989.8a5.79,5.79,0,0,1,6.05-6.05,5.84,5.84,0,0,1,4.34,1.7,5.94,5.94,0,0,1,1.68,4.36,6,6,0,1,1-12.07,0Zm10.66-12.15h-9.18L444,938.27h11.76Z"/><path class="cls-1" d="M517.47,947.84H503.41v47.3H491.89v-47.3H478.06v-9.57h39.41Z"/><path class="cls-1" d="M541.85,963.55l-3.67-.31a6,6,0,0,0-6.13,4v27.93H521V952.88h10.43l.31,4.57q2.62-5.35,7.23-5.35a7.75,7.75,0,0,1,3,.51Z"/><path class="cls-1" d="M566.42,995.15a15.42,15.42,0,0,1-.94-3.28,9.45,9.45,0,0,1-8,4.06,11.9,11.9,0,0,1-8.81-3.52,12.35,12.35,0,0,1-3.5-9.1q0-6.64,4.24-10.27t12.21-3.71h3.36v-3.4a6.37,6.37,0,0,0-1-4,3.5,3.5,0,0,0-2.85-1.17q-4.14,0-4.14,4.84H545.91a12.23,12.23,0,0,1,4.39-9.67,16.36,16.36,0,0,1,11.11-3.81q7,0,10.76,3.61T576,966v19.88a20.77,20.77,0,0,0,1.56,8.55v.66Zm-6.52-7.89a6.17,6.17,0,0,0,3.13-.74,5.25,5.25,0,0,0,1.91-1.76V976h-2.66a5.67,5.67,0,0,0-4.43,1.8,6.9,6.9,0,0,0-1.62,4.8Q556.22,987.26,559.9,987.26Z"/><path class="cls-1" d="M594.12,952.88l.31,4.18a11.73,11.73,0,0,1,9.8-5q10.9,0,11.21,15.27v27.77H604.35v-27a9.73,9.73,0,0,0-1.07-5.21,4.18,4.18,0,0,0-3.77-1.62,5.16,5.16,0,0,0-4.69,3.09v30.7H583.72V952.88Z"/><path class="cls-1" d="M622,972.73q0-10.39,3.75-15.51a12.28,12.28,0,0,1,10.51-5.12,10.14,10.14,0,0,1,8.87,4.53l.43-3.75h10v42.27q0,8.09-4.53,12.36t-13,4.28a21.45,21.45,0,0,1-7.3-1.39,13.53,13.53,0,0,1-5.7-3.54l3.71-7.66a11.67,11.67,0,0,0,4.06,2.68,12.39,12.39,0,0,0,4.73,1q3.71,0,5.33-1.78t1.66-5.72v-3.63a9.9,9.9,0,0,1-8.24,4.14,12,12,0,0,1-10.45-5.25q-3.69-5.25-3.77-14.82Zm11.05,2.77q0,5.86,1.52,8.54a5.17,5.17,0,0,0,4.84,2.68,5.64,5.64,0,0,0,5-2.46v-20.2a5.54,5.54,0,0,0-5-2.7,5.26,5.26,0,0,0-4.86,2.7q-1.58,2.7-1.58,8.67Z"/><path class="cls-1" d="M715,975.38q0,10.27-3.28,15.41t-10.31,5.14a10.17,10.17,0,0,1-8.83-5l-.35,4.18H682v-60H693.1v21.17a9.77,9.77,0,0,1,8.24-4.22q7,0,10.31,5.1T715,972.14ZM704,972.61q0-6.68-1.29-9a4.72,4.72,0,0,0-4.49-2.29,5.33,5.33,0,0,0-5.08,3.16v19.26a5.28,5.28,0,0,0,5.16,3q3.16,0,4.39-2.07t1.31-8Z"/><path class="cls-1" d="M741.73,995.15a15.42,15.42,0,0,1-.94-3.28,9.45,9.45,0,0,1-8,4.06,11.9,11.9,0,0,1-8.81-3.52,12.35,12.35,0,0,1-3.5-9.1q0-6.64,4.24-10.27t12.21-3.71h3.36v-3.4a6.37,6.37,0,0,0-1-4,3.5,3.5,0,0,0-2.85-1.17q-4.14,0-4.14,4.84H721.22a12.23,12.23,0,0,1,4.39-9.67,16.36,16.36,0,0,1,11.11-3.81q7,0,10.76,3.61T751.3,966v19.88a20.77,20.77,0,0,0,1.56,8.55v.66Zm-8,3.09a6.81,6.81,0,0,1,4.63,1.54,5.14,5.14,0,0,1,0,7.77,7.66,7.66,0,0,1-9.22,0,5.14,5.14,0,0,1,0-7.77A6.74,6.74,0,0,1,733.76,998.23Zm1.45-11a6.17,6.17,0,0,0,3.13-.74,5.25,5.25,0,0,0,1.91-1.76V976h-2.66a5.67,5.67,0,0,0-4.43,1.8,6.9,6.9,0,0,0-1.62,4.8Q731.54,987.26,735.21,987.26Z"/><path class="cls-1" d="M769.43,952.88l.31,4.18a11.73,11.73,0,0,1,9.8-5q10.9,0,11.21,15.27v27.77H779.66v-27a9.73,9.73,0,0,0-1.07-5.21,4.18,4.18,0,0,0-3.77-1.62,5.16,5.16,0,0,0-4.69,3.09v30.7H759V952.88Z"/><path class="cls-1" d="M853.76,947.57h-5.12v47.58h-10l-.47-3.75a10.24,10.24,0,0,1-8.55,4.53q-6.33,0-10.16-5.86t-3.83-16.37q0-9.88,3.73-15.74a11.61,11.61,0,0,1,10.29-5.86,10,10,0,0,1,7.85,3.67v-8.2h-7.46v-7.15h7.46v-5.27h11.13v5.27h5.12Zm-27,27q0,12.19,5.82,12.19a5.23,5.23,0,0,0,5-3.4V965q-1.6-3.63-4.92-3.63-2.81,0-4.34,3T826.73,974.52Z"/><path class="cls-1" d="M882.24,995.15a15.42,15.42,0,0,1-.94-3.28,9.45,9.45,0,0,1-8,4.06,11.9,11.9,0,0,1-8.81-3.52,12.35,12.35,0,0,1-3.5-9.1q0-6.64,4.24-10.27t12.21-3.71h3.36v-3.4a6.37,6.37,0,0,0-1-4,3.5,3.5,0,0,0-2.85-1.17q-4.14,0-4.14,4.84H861.73a12.23,12.23,0,0,1,4.39-9.67,16.36,16.36,0,0,1,11.11-3.81q7,0,10.76,3.61T891.81,966v19.88a20.77,20.77,0,0,0,1.56,8.55v.66Zm-6.52-7.89a6.17,6.17,0,0,0,3.13-.74,5.25,5.25,0,0,0,1.91-1.76V976H878.1a5.67,5.67,0,0,0-4.43,1.8,6.9,6.9,0,0,0-1.62,4.8Q872,987.26,875.72,987.26Z"/><path class="cls-1" d="M909.94,952.88l.31,4.18a11.73,11.73,0,0,1,9.8-5q10.9,0,11.21,15.27v27.77H920.17v-27A9.73,9.73,0,0,0,919.1,963a4.18,4.18,0,0,0-3.77-1.62,5.16,5.16,0,0,0-4.69,3.09v30.7H899.54V952.88Z"/><path class="cls-1" d="M937.87,972.73q0-10.39,3.75-15.51a12.28,12.28,0,0,1,10.51-5.12,10.14,10.14,0,0,1,8.87,4.53l.43-3.75h10v42.27q0,8.09-4.53,12.36t-13,4.28a21.45,21.45,0,0,1-7.3-1.39,13.53,13.53,0,0,1-5.7-3.54l3.71-7.66a11.67,11.67,0,0,0,4.06,2.68,12.39,12.39,0,0,0,4.73,1q3.71,0,5.33-1.78t1.66-5.72v-3.63a9.9,9.9,0,0,1-8.24,4.14,12,12,0,0,1-10.45-5.25q-3.69-5.25-3.77-14.82Zm11.05,2.77q0,5.86,1.52,8.54a5.17,5.17,0,0,0,4.84,2.68,5.64,5.64,0,0,0,5-2.46v-20.2a5.54,5.54,0,0,0-5-2.7,5.26,5.26,0,0,0-4.86,2.7q-1.58,2.7-1.58,8.67Z"/><path class="cls-1" d="M1010.72,942.49v10.39h5.66v8.28h-5.66v21a6.19,6.19,0,0,0,.68,3.44,3.08,3.08,0,0,0,2.64.94,10.32,10.32,0,0,0,2.62-.27l-.08,8.59a17.22,17.22,0,0,1-6.09,1.05q-10.71,0-10.82-12.28V961.16h-4.88v-8.28h4.88V942.49Z"/><path class="cls-1" d="M1034.54,947.82l-9.34,0-10.78-12.11h12.38Zm-.23,47.32h-11.05V952.88h11.05Z"/><path class="cls-1" d="M1053.8,952.88l.31,3.91a11.89,11.89,0,0,1,9.8-4.69,9.12,9.12,0,0,1,8.95,5.7,11.58,11.58,0,0,1,10.35-5.7q11.09,0,11.37,15.35v27.7h-11.05v-27q0-3.67-1-5.23a3.79,3.79,0,0,0-3.44-1.56q-3.09,0-4.61,3.79l.08,1.33v28.67h-11.05V968.23a10.63,10.63,0,0,0-1-5.25,3.72,3.72,0,0,0-3.48-1.62q-2.85,0-4.53,3.09v30.7h-11.05V952.88Z"/><path class="cls-1" d="M1135.21,978.86l-3,3.32v13h-11.05v-60h11.05v32.42l1.37-2,7.66-12.66h13.16l-12.27,17.42,13.44,24.84h-12.66Z"/><path class="cls-1" d="M1159.47,941.94a5.71,5.71,0,0,1,1.64-4.22,6.65,6.65,0,0,1,8.75,0,5.71,5.71,0,0,1,1.64,4.22,6,6,0,1,1-12,0Zm11.6,53.2H1160V952.88h11.09Z"/><path class="cls-1" d="M1196.69,995.93q-8.52,0-13.28-5.08t-4.77-14.53V973q0-10,4.38-15.43t12.54-5.43q8,0,12,5.09t4.1,15.08v5.42h-22q.23,4.71,2.07,6.89t5.66,2.18a12.43,12.43,0,0,0,9.26-3.79l4.34,6.68a14.28,14.28,0,0,1-5.9,4.55A20.26,20.26,0,0,1,1196.69,995.93Zm-5.59-57.62h5.9l9.57,9-7.93,0-4.61-4.92-4.61,4.92-7.89,0ZM1189.74,970h11.05v-1a11.82,11.82,0,0,0-1.25-5.74,4.35,4.35,0,0,0-4.06-2,4.59,4.59,0,0,0-4.2,2.07Q1190,965.42,1189.74,970Zm19.73-38.52h8.59l-7.93,10.63H1204Z"/><path class="cls-1" d="M1228.29,952.88l.31,3.91a11.89,11.89,0,0,1,9.8-4.69,9.12,9.12,0,0,1,8.95,5.7,11.58,11.58,0,0,1,10.35-5.7q11.09,0,11.37,15.35v27.7H1258v-27q0-3.67-1-5.23a3.79,3.79,0,0,0-3.44-1.56q-3.09,0-4.61,3.79l.08,1.33v28.67H1238V968.23a10.63,10.63,0,0,0-1-5.25,3.72,3.72,0,0,0-3.48-1.62q-2.85,0-4.53,3.09v30.7h-11.05V952.88Z"/><path class="cls-1" d="M1309.7,978.86l-3,3.32v13h-11.05v-60h11.05v32.42l1.37-2,7.66-12.66h13.16l-12.27,17.42,13.44,24.84h-12.66Z"/><path class="cls-1" d="M1344.74,956.59a10.92,10.92,0,0,1,8.83-4.49q5.78,0,8.79,4.06t3,12.11v26.88h-11.09V968.39q0-3.71-1.15-5.37a4.22,4.22,0,0,0-3.73-1.66,5.22,5.22,0,0,0-4.69,2.77v31h-11.05v-60h11.05Z"/><path class="cls-1" d="M1372,972.65q0-9.61,4.53-15.08t12.54-5.47q8.09,0,12.62,5.47t4.53,15.16v2.7q0,9.65-4.49,15.08t-12.58,5.43q-8.13,0-12.64-5.45T1372,975.34Zm30.51-26.58v.47l-8.63,0-4.88-5.62-4.88,5.63-8.44,0v-.62l10.16-10.76h6.33Zm-19.41,29.35q0,11.33,6.05,11.33,5.58,0,6-9.45l0-4.65q0-5.78-1.6-8.57a5,5,0,0,0-4.53-2.79,4.86,4.86,0,0,0-4.39,2.79q-1.58,2.79-1.58,8.57Z"/><path class="cls-1" d="M1423.26,952.88l.31,4.18a11.73,11.73,0,0,1,9.8-5q10.9,0,11.21,15.27v27.77h-11.09v-27a9.73,9.73,0,0,0-1.07-5.21,4.18,4.18,0,0,0-3.77-1.62,5.16,5.16,0,0,0-4.69,3.09v30.7h-11.09V952.88Z"/><path class="cls-1" d="M1451.19,972.73q0-10.39,3.75-15.51a12.28,12.28,0,0,1,10.51-5.12,10.14,10.14,0,0,1,8.87,4.53l.43-3.75h10v42.27q0,8.09-4.53,12.36t-13,4.28a21.45,21.45,0,0,1-7.3-1.39,13.53,13.53,0,0,1-5.7-3.54l3.71-7.66a11.67,11.67,0,0,0,4.06,2.68,12.39,12.39,0,0,0,4.73,1q3.71,0,5.33-1.78t1.66-5.72v-3.63a9.9,9.9,0,0,1-8.24,4.14,12,12,0,0,1-10.45-5.25q-3.69-5.25-3.77-14.82Zm11.05,2.77q0,5.86,1.52,8.54a5.17,5.17,0,0,0,4.84,2.68,5.64,5.64,0,0,0,5-2.46v-20.2a5.54,5.54,0,0,0-5-2.7,5.26,5.26,0,0,0-4.86,2.7q-1.58,2.7-1.58,8.67Z"/><path class="cls-1" d="M1524,942.49v10.39h5.66v8.28H1524v21a6.19,6.19,0,0,0,.68,3.44,3.08,3.08,0,0,0,2.64.94,10.32,10.32,0,0,0,2.62-.27l-.08,8.59a17.22,17.22,0,0,1-6.09,1.05q-10.71,0-10.82-12.28V961.16h-4.88v-8.28H1513V942.49Z"/><path class="cls-1" d="M1540.4,942.12l-6.13,0-7.89-10.62h8.55Zm-7.11,30.53q0-9.61,4.53-15.08t12.54-5.47q8.09,0,12.62,5.47t4.53,15.16v2.7q0,9.65-4.49,15.08t-12.58,5.43q-8.13,0-12.64-5.45t-4.51-15.14Zm29.57-25.33-7.89,0-4.61-4.92-4.65,4.92-7.89,0,9.57-9h5.86Zm-18.48,28.11q0,11.33,6.05,11.33,5.58,0,6-9.45l0-4.65q0-5.78-1.6-8.57a5,5,0,0,0-4.53-2.79,4.86,4.86,0,0,0-4.39,2.79q-1.58,2.79-1.58,8.57Z"/><path class="cls-1" d="M1584.51,952.88l.31,4.18a11.73,11.73,0,0,1,9.8-5q10.9,0,11.21,15.27v27.77h-11.09v-27a9.73,9.73,0,0,0-1.07-5.21,4.18,4.18,0,0,0-3.77-1.62,5.16,5.16,0,0,0-4.69,3.09v30.7h-11.09V952.88Z"/><path class="cls-1" d="M1645.05,942.49v10.39h5.66v8.28h-5.66v21a6.19,6.19,0,0,0,.68,3.44,3.08,3.08,0,0,0,2.64.94,10.32,10.32,0,0,0,2.62-.27l-.08,8.59a17.22,17.22,0,0,1-6.09,1.05q-10.71,0-10.82-12.28V961.16h-4.88v-8.28H1634V942.49Z"/><path class="cls-1" d="M1676.85,995.15a15.42,15.42,0,0,1-.94-3.28,9.45,9.45,0,0,1-8,4.06,11.9,11.9,0,0,1-8.81-3.52,12.35,12.35,0,0,1-3.5-9.1q0-6.64,4.24-10.27t12.21-3.71h3.36v-3.4a6.37,6.37,0,0,0-1-4,3.5,3.5,0,0,0-2.85-1.17q-4.14,0-4.14,4.84h-11.05a12.23,12.23,0,0,1,4.39-9.67,16.36,16.36,0,0,1,11.11-3.81q7,0,10.76,3.61t3.81,10.33v19.88a20.77,20.77,0,0,0,1.56,8.55v.66Zm-8,3.09a6.81,6.81,0,0,1,4.63,1.54,5.14,5.14,0,0,1,0,7.77,7.66,7.66,0,0,1-9.22,0,5.14,5.14,0,0,1,0-7.77A6.74,6.74,0,0,1,1668.88,998.23Zm1.45-11a6.17,6.17,0,0,0,3.13-.74,5.25,5.25,0,0,0,1.91-1.76V976h-2.66a5.67,5.67,0,0,0-4.43,1.8,6.9,6.9,0,0,0-1.62,4.8Q1666.65,987.26,1670.33,987.26Z"/><path class="cls-1" d="M1694.43,941.94a5.71,5.71,0,0,1,1.64-4.22,6.65,6.65,0,0,1,8.75,0,5.71,5.71,0,0,1,1.64,4.22,6,6,0,1,1-12,0Zm11.6,53.2h-11.09V952.88H1706Z"/><path class="cls-1" d="M1733.65,989.8a5.79,5.79,0,0,1,6.05-6.05,5.84,5.84,0,0,1,4.34,1.7,5.94,5.94,0,0,1,1.68,4.36,6,6,0,1,1-12.07,0Zm10.66-12.15h-9.18l-1.29-39.37h11.76Z"/><path class="cls-1" d="M1754.47,989.8a5.79,5.79,0,0,1,6.05-6.05,5.84,5.84,0,0,1,4.34,1.7,5.94,5.94,0,0,1,1.68,4.36,6,6,0,1,1-12.07,0Zm10.66-12.15H1756l-1.29-39.37h11.76Z"/><rect class="cls-2" x="385.64" y="809.21" width="1154.72" height="0.58"/><path class="cls-2" d="M933,706.22H487.06A13.2,13.2,0,0,1,473.88,693V66.18A13.2,13.2,0,0,1,487.06,53H933a13.2,13.2,0,0,1,13.18,13.18V693A13.2,13.2,0,0,1,933,706.22ZM487.06,53.58a12.62,12.62,0,0,0-12.6,12.6V693a12.62,12.62,0,0,0,12.6,12.6H933a12.62,12.62,0,0,0,12.6-12.6V66.18A12.62,12.62,0,0,0,933,53.58Z"/><path class="cls-2" d="M1432.53,706.22H986.58A13.2,13.2,0,0,1,973.4,693V66.18A13.2,13.2,0,0,1,986.58,53h445.95a13.2,13.2,0,0,1,13.18,13.18V693A13.2,13.2,0,0,1,1432.53,706.22ZM986.58,53.58A12.62,12.62,0,0,0,974,66.18V693a12.62,12.62,0,0,0,12.6,12.6h445.95a12.62,12.62,0,0,0,12.61-12.6V66.18a12.62,12.62,0,0,0-12.61-12.6Z"/><rect class="cls-2" x="504.07" y="831.21" width="60.04" height="0.58"/><rect class="cls-2" x="720.86" y="824.94" width="103.99" height="0.58"/><rect class="cls-2" x="566.42" y="852.65" width="140.39" height="0.58"/><rect class="cls-2" x="1377.51" y="848.77" width="44.42" height="0.58"/><rect class="cls-2" x="1229.26" y="848.77" width="127.69" height="0.58"/><rect class="cls-2" x="979.27" y="839.02" width="171.98" height="0.58"/><path class="cls-3" d="M826.36,423.63,797.13,809.22h281.7l29.22-385.58ZM1003.5,696.17c-2.38,31.45-29.81,56.95-61.27,56.95s-55-25.5-52.63-56.95l10.27-135.56c2.38-31.45,29.81-57,61.27-57a52.07,52.07,0,0,1,52.63,57Z"/><polygon class="cls-3" points="1168.25 809.21 757.47 809.21 759.84 783.92 1170.62 783.92 1168.25 809.21"/><path class="cls-4" d="M1326.1,666h36.37a3.57,3.57,0,0,0,3.59-3.78l-.13-2.58a4,4,0,0,0-4-3.78h-36.37a3.57,3.57,0,0,0-3.59,3.78l.13,2.58A4,4,0,0,0,1326.1,666Z"/><path class="cls-4" d="M1265.27,666h36.37a3.57,3.57,0,0,0,3.59-3.78l-.13-2.58a4,4,0,0,0-4-3.78h-36.37a3.57,3.57,0,0,0-3.59,3.78l.13,2.58A4,4,0,0,0,1265.27,666Z"/><path class="cls-5" d="M1390.77,663.19h-849a18.85,18.85,0,0,1-18.62-17.73l-25.56-510a16.7,16.7,0,0,1,16.84-17.73h849A18.85,18.85,0,0,1,1382,135.49l25.56,510A16.7,16.7,0,0,1,1390.77,663.19Z"/><path class="cls-5" d="M1401.17,663.19h-849a18.85,18.85,0,0,1-18.62-17.73L508,135.49a16.7,16.7,0,0,1,16.84-17.73h849a18.85,18.85,0,0,1,18.62,17.73l25.56,510A16.7,16.7,0,0,1,1401.17,663.19Z"/><path class="cls-6" d="M557.13,627.6,533.36,153.36a10.47,10.47,0,0,1,10.55-11.11H1357.2a11.81,11.81,0,0,1,11.67,11.11l23.77,474.24a10.46,10.46,0,0,1-10.55,11.11H568.8A11.81,11.81,0,0,1,557.13,627.6Z"/><path class="cls-6" d="M583.47,166.51a9.26,9.26,0,0,1-9.34,9.83,10.45,10.45,0,0,1-10.32-9.83,9.26,9.26,0,0,1,9.34-9.83A10.45,10.45,0,0,1,583.47,166.51Z"/><path class="cls-6" d="M628,166.51a9.26,9.26,0,0,1-9.34,9.83,10.45,10.45,0,0,1-10.32-9.83,9.26,9.26,0,0,1,9.34-9.83A10.45,10.45,0,0,1,628,166.51Z"/><path class="cls-6" d="M672.49,166.51a9.26,9.26,0,0,1-9.34,9.83,10.45,10.45,0,0,1-10.32-9.83,9.26,9.26,0,0,1,9.34-9.83A10.45,10.45,0,0,1,672.49,166.51Z"/><g class="cls-7"><polygon class="cls-8" points="641.7 638.71 758.9 638.71 866.06 142.25 748.86 142.25 641.7 638.71"/><polygon class="cls-8" points="1146.1 638.71 1175.76 638.71 1282.92 142.25 1253.26 142.25 1146.1 638.71"/><polygon class="cls-8" points="784.96 638.71 951.25 638.71 1058.4 142.25 892.12 142.25 784.96 638.71"/></g><ellipse id="_Path_" data-name="&lt;Path&gt;" class="cls-6" cx="963" cy="887.36" rx="447.77" ry="26.15"/><path class="cls-9" d="M1218.43,533.59c-.28,0-.56,0-.84,0-61.51-5-103.85-57.61-105.62-59.85a10.32,10.32,0,0,1,16.16-12.83c.5.62,36.73,45.29,86.89,51.67,16.27-16.15,30-58.85,28.48-71.77,0-.12,0-.24,0-.36-.34-4.16-1.11-18.39,3-26.89a10.32,10.32,0,1,1,18.59,8.94c-1,2.12-1.5,9.79-1,16.15,2.3,21.25-16.13,74.88-39.27,92.81A10.31,10.31,0,0,1,1218.43,533.59Z"/><path class="cls-9" d="M729.34,477.63c-18.31,0-70.15-4.49-112.16-51.45a10.32,10.32,0,0,1-.59-13c16.66-22.42,46.1-75.38,50.68-92.64-1.89-3.27-5.32-8-9.57-10a10.32,10.32,0,0,1-5.88-8.32l-1.67-16.91a10.32,10.32,0,0,1,20.53-2L671.85,295c10.08,7.23,15.1,18.51,15.72,20a10.32,10.32,0,0,1,.75,5.22c-2.13,18.33-31.85,71.36-50.14,98.18,42.7,42.56,93.73,38.68,96,38.48A10.32,10.32,0,0,1,736,477.39C735.56,477.43,733.19,477.63,729.34,477.63Z"/><path class="cls-9" d="M1062,887h-27.64a10.32,10.32,0,0,1-9.94-13.08c7.23-26,10.77-47.07,13.43-80.15-9.78-46.07-19-88.25-19.1-88.67a10.31,10.31,0,1,1,20.15-4.41c.09.43,9.52,43.56,19.43,90.26a10.3,10.3,0,0,1,.19,3c-2.34,29.7-5.34,50.23-10.8,72.47H1062a10.32,10.32,0,0,1,0,20.63Z"/><path class="cls-9" d="M848.28,887H832.66a10.32,10.32,0,0,1-10.22-11.74c2.64-18.94,16.26-53.43,30.7-88.09,5.15-45.73,9.37-85,9.41-85.38a10.32,10.32,0,0,1,20.51,2.2c0,.4-4.35,40.55-9.59,87a10.33,10.33,0,0,1-.73,2.82c-10.25,24.54-21.92,53.45-27.26,72.61h2.77a10.32,10.32,0,1,1,0,20.63Z"/><path class="cls-8" d="M857.26,182.39,737,302.63c-6.05,133.29-5.55,273.28,0,418.44h397.6c-7.87-187.31-8.62-367.61,0-538.68Z"/><path class="cls-9" d="M1134.61,723.13H737a2.06,2.06,0,0,1-2.06-2c-5.77-150.72-5.77-291.56,0-418.61a2.06,2.06,0,0,1,.6-1.36L855.8,180.94a2.06,2.06,0,0,1,1.46-.6h277.36a2.06,2.06,0,0,1,2.06,2.17c-8.3,164.77-8.3,340.91,0,538.49a2.06,2.06,0,0,1-2.06,2.15ZM739,719h393.46c-8.18-196-8.19-370.88,0-534.56H858.11L739,303.53C733.34,429.7,733.32,569.47,739,719Z"/><path class="cls-1" d="M1063.32,663.86H1020a1.54,1.54,0,1,1,0-3.09h43.36a1.54,1.54,0,0,1,0,3.09Z"/><path class="cls-1" d="M1002,663.86H808.31a1.54,1.54,0,0,1,0-3.09H1002a1.54,1.54,0,0,1,0,3.09Z"/><path class="cls-1" d="M880.5,415.62c-.46-10.05-6.17-18-12.77-17.77s-11.58,8.58-11.12,18.63,6.17,18,12.77,17.77S881,425.67,880.5,415.62Z"/><path class="cls-1" d="M1019.93,412.48c-.46-10.05-6.17-18-12.77-17.77s-11.58,8.58-11.12,18.63,6.17,18,12.77,17.77S1020.38,422.53,1019.93,412.48Z"/><path class="cls-1" d="M987.87,496C924.76,515.27,878,487,875.82,485.68a5,5,0,0,1-1.62-6.9,5.08,5.08,0,0,1,7-1.6c.54.33,55.06,33,123.38,1.68a5.1,5.1,0,0,1,6.72,2.44,5,5,0,0,1-2.45,6.65A168.19,168.19,0,0,1,987.87,496Z"/><path class="cls-1" d="M825.56,373.19a6,6,0,0,1-1.83-10.08C848.6,342,874.92,349.68,876,350a6,6,0,0,1,4,7.39,5.86,5.86,0,0,1-7.32,4h0c-.87-.25-21.45-6-41.29,10.82A5.89,5.89,0,0,1,825.56,373.19Z"/><path class="cls-1" d="M1054.75,377.39a6,6,0,0,1-5.36-1.72c-18.29-18.8-39.37-15.31-40.26-15.15a6,6,0,0,1-6.94-4.74,5.84,5.84,0,0,1,4.67-6.86c1.17-.19,28.12-5,51,18.58a5.87,5.87,0,0,1-3.16,9.89Z"/><path class="cls-10" d="M1128.62,399.2l-16.86,1.58a12.05,12.05,0,0,1-12.89-9.38l-23.39-104.8a12.05,12.05,0,0,1,8.71-14.29l45.24-11.87Z"/><path class="cls-10" d="M868.35,313.37c-11.75-32.1-23.51-83.43-11.09-131L737,302.63C771,314,825.17,319,868.35,313.37Z"/><path class="cls-8" d="M857.26,302.63c-13.18-38.94-7.81-91.87,0-120.24L737,302.63C773.42,309.26,814.08,308.22,857.26,302.63Z"/><path class="cls-9" d="M792,309.28a308.85,308.85,0,0,1-55.36-4.62,2.06,2.06,0,0,1-1.09-3.48L855.8,180.94a2.06,2.06,0,0,1,3.44,2c-7.27,26.42-13.28,79.92,0,119a2.06,2.06,0,0,1-1.69,2.7A512.59,512.59,0,0,1,792,309.28Zm-50.72-8c31.94,5.29,69.06,5.17,113.24-.38-10.87-34.49-8.41-80.14-1.09-111.77Z"/><path class="cls-9" d="M1270.4,478.31a3.45,3.45,0,0,1-3.33-2.58l-42.35-161.38a3.45,3.45,0,0,1,6.67-1.75L1273.73,474a3.45,3.45,0,0,1-2.46,4.21A3.38,3.38,0,0,1,1270.4,478.31Z"/><rect class="cls-11" x="1347.16" y="242.03" width="2.31" height="12.73" transform="translate(-18.89 350.35) rotate(-14.7)"/><path class="cls-11" d="M1342,228.84l-8.9-33.9a17.86,17.86,0,0,0-21.83-12.76l-23.26,6.1-.59-2.23,23.25-6.1a20.17,20.17,0,0,1,24.65,14.4l8.9,33.9Z"/><rect class="cls-1" x="1093.73" y="214.47" width="251.84" height="134.01" rx="5.24" ry="5.24" transform="matrix(0.97, -0.25, 0.25, 0.97, -31.5, 318.78)"/><rect class="cls-1" x="1155.83" y="328.79" width="167.83" height="58.52" rx="5.24" ry="5.24" transform="translate(-50.28 326.39) rotate(-14.7)"/><path class="cls-8" d="M1175.82,360.12l19-4.94,1.27,4.9-11.89,3.09.95,3.65,11-2.87,1.22,4.68-11,2.87,1.18,4.52,12.24-3.18,1.35,5.2-19.35,5Z"/><path class="cls-8" d="M1205,377l-6-22.95,11.82-3.07a17.82,17.82,0,0,1,5.17-.74,5.52,5.52,0,0,1,3.34,1.36,6.69,6.69,0,0,1,.42,9.78,8.88,8.88,0,0,1-2.25,1.56,7.31,7.31,0,0,1,2.06.36,7.44,7.44,0,0,1,1.45.91,9.37,9.37,0,0,1,1.37,1.17l5.16,5.76-8,2.08-5.61-6a5.52,5.52,0,0,0-1.75-1.44,3.07,3.07,0,0,0-1.88-.08l-.63.16,2.42,9.31Zm3.57-15.5,3-.78a11.29,11.29,0,0,0,1.79-.8,2,2,0,0,0,1-1,2.4,2.4,0,0,0-1-3,4.44,4.44,0,0,0-2.8.09l-3.12.81Z"/><path class="cls-8" d="M1230,370.54l-6-22.94,11.82-3.07a17.75,17.75,0,0,1,5.17-.75,5.53,5.53,0,0,1,3.34,1.36,6.56,6.56,0,0,1,2,3.44,6.62,6.62,0,0,1,0,3.51,6.55,6.55,0,0,1-1.66,2.83,8.92,8.92,0,0,1-2.25,1.56,7.26,7.26,0,0,1,2.07.36,7.46,7.46,0,0,1,1.45.91,9.67,9.67,0,0,1,1.37,1.17l5.16,5.76-8,2.08-5.61-6a5.53,5.53,0,0,0-1.75-1.44,3.07,3.07,0,0,0-1.88-.08l-.63.16,2.42,9.31Zm3.57-15.5,3-.78a11,11,0,0,0,1.79-.8,2,2,0,0,0,1-1,2.4,2.4,0,0,0-1-3,4.41,4.41,0,0,0-2.8.09l-3.11.81Z"/><path class="cls-8" d="M1250.4,353q-1.46-5.62.86-9.57t7.9-5.4q5.73-1.49,9.63.78t5.34,7.81a14.62,14.62,0,0,1,.36,7,10,10,0,0,1-2.87,5,13.34,13.34,0,0,1-6,3.09,15.14,15.14,0,0,1-6.75.43,10,10,0,0,1-5.14-2.84A13.44,13.44,0,0,1,1250.4,353Zm7.1-1.81q.9,3.48,2.59,4.66a5,5,0,0,0,7.06-1.8q.87-1.82-.13-5.66-.84-3.24-2.54-4.4a4.62,4.62,0,0,0-3.93-.58,4.45,4.45,0,0,0-3,2.41C1256.89,347.05,1256.89,348.85,1257.5,351.18Z"/><path class="cls-8" d="M1281.07,357.25l-6-22.95,11.82-3.07a17.73,17.73,0,0,1,5.17-.75,5.54,5.54,0,0,1,3.35,1.36,6.7,6.7,0,0,1,.42,9.78,8.93,8.93,0,0,1-2.25,1.56,4.94,4.94,0,0,1,3.51,1.28,9.38,9.38,0,0,1,1.37,1.17l5.16,5.76-8,2.08-5.61-6a5.52,5.52,0,0,0-1.74-1.44,3.07,3.07,0,0,0-1.88-.08l-.62.16,2.42,9.31Zm3.57-15.5,3-.78a11.21,11.21,0,0,0,1.8-.8,2,2,0,0,0,1-1,2.41,2.41,0,0,0-1-3,4.43,4.43,0,0,0-2.8.1l-3.11.81Z"/><text class="cls-12" transform="translate(1130.91 341.55) rotate(-15.79)">404</text><path class="cls-8" d="M856,600.58c0,.28,0,.56,0,.84s0,.53,0,.79,0,.5,0,.75,0,.25,0,.38,0,.35,0,.52,0,.08,0,.12c0,.22,0,.43-.06.64s0,.18,0,.26,0,.38-.07.56,0,.11,0,.16q0,.33-.1.66a1.46,1.46,0,0,1,0,.16c0,.2-.06.41-.1.61s0,.15,0,.22-.07.39-.11.59l0,.19c0,.19-.08.39-.13.58s0,.14,0,.2-.05.24-.08.36l-.12.5q-.37,1.47-.86,2.89l-.15.41-.15.4c-.08.21-.16.42-.24.64l-.2.49-.1.25-.17.4-.17.39-.13.29-.19.41c-.09.21-.19.42-.3.63l-.2.41-.22.44-.1.19-.26.48-.28.51c-.21.38-.43.75-.66,1.11-.39.64-.8,1.26-1.23,1.87l-.26.37-.25.35-.36.48-.32.41-.4.51-.11.13c-.28.34-.57.68-.86,1q-.84.95-1.74,1.84l-.34.33-.31.3-.1.1a36.77,36.77,0,0,1-10.8,7l-1.1.45-.39.15-1.09.38-.53.17-.53.17-.54.16-.46.13-.62.17-.81.19-.69.15-.16,0-.23,0-.53.1-.14,0-.78.13a37.48,37.48,0,0,1-5.85.46h-1.67l-.47,0h-.86l-.32,0h-.1l-.68-.07h0l-.41,0-.3,0h-.17l-.53-.08-.18,0h0l-.66-.11h-.15l-.08,0-.61-.12-.2,0-.71-.15-.47-.11-.23-.05-.08,0-.09,0-.38-.1-.23-.06-.14,0-.42-.12-.22-.06-.1,0-.74-.23-.29-.1-.42-.14-.12,0-.19-.07-.18-.06-.34-.12h0l0,0-.63-.24-.19-.08-.12,0-.19-.08-.1,0-.08,0-.1,0-.16-.07-.23-.1-.28-.12-.18-.08-.42-.19-.18-.08,0,0-.44-.21-.26-.13-.21-.11-.1-.05-.22-.11-.11-.06-.11-.05-.06,0-.19-.1-.46-.25-.06,0-.47-.26-.09-.05-.36-.21,0,0-.26-.16-.21-.13-.18-.11-.25-.16-.12-.08-.4-.26-.21-.14-.19-.13-.15-.1-.12-.08-.25-.18-.28-.2-.21-.15-.12-.09-.33-.24-.33-.25-.22-.18-.31-.24-.32-.26-.11-.09-.12-.11h0l-.72-.62-.37-.33-.36-.32-.5-.47-.18-.18-.35-.34-.29-.29c-.26-.27-.52-.54-.78-.82l-.38-.42-.37-.42-.72-.85,0,0-.34-.42-.35-.45-.26-.35-.15-.2-.26-.36-.09-.12-.41-.59-.15-.22-.07-.11q-.52-.78-1-1.6l-.29-.49-.19-.34q-.44-.77-.84-1.58l-.32-.65-.1-.21h0l-.18-.38-.27-.61-.24-.56-.11-.26-.22-.56-.15-.41-.24-.68h0l-.12-.36-.15-.45a36.48,36.48,0,0,1-1.31-5.38l0-.25,0-.14c-.05-.35-.1-.71-.15-1.06,0-.17,0-.33-.06-.5s0-.38-.06-.56h0q-.17-1.72-.18-3.42h0c0-.06,0-.13,0-.19h0q0-.6,0-1.21c0-.18,0-.36,0-.54s0-.55,0-.82a37,37,0,0,1,6.46-18.4q.82-1.2,1.75-2.33v0l.25-.31c.15-.18.3-.36.46-.54q1.14-1.32,2.4-2.53h0q1.28-1.23,2.67-2.33h0a37.4,37.4,0,0,1,4-2.74q1.45-.87,3-1.6c.62-.3,1.25-.58,1.89-.84l.61-.25.12,0,.12,0,1.14-.41,1-.34.51-.16,1-.28.6-.16.51-.12.38-.09.43-.09c.62-.13,1.25-.25,1.88-.35a37.11,37.11,0,0,1,5.92-.46h.8l.51,0h.29l.58,0,.48,0,.5,0h.08l.35,0h0l.25,0H823l.32,0,.45.06.13,0h0l.16,0,.22,0,.53.08h.06l.27,0,.48.09.59.11.46.09.15,0,.43.09h.09l.32.08.32.08.63.16.56.16.18.05.11,0,.66.2.44.14.05,0h.05l.11,0,.45.16,0,0,.11,0,.13,0,.41.15.06,0h0l.14.05.15.06.27.11.18.07.21.08.24.1,0,0,.56.24h0l0,0,.58.26,0,0,.08,0,.19.09.06,0,.25.12.12.06.38.18.14.08.06,0,.2.11.31.16.42.23.14.08,0,0,.59.33h0l.57.34.06,0,.57.35.27.17.12.08,0,0,.1.06.15.1.46.31h0l.36.25.16.11h0l.05,0,.14.1,0,0,.05,0,.21.15.09.06h0l0,0,.14.1.08.06.15.11,0,0,.43.34.74.59.39.32.51.44.29.26.32.29.11.1.4.37.28.26.19.18.38.39.47.49q.48.5.94,1l.41.48.41.49,0,.06.4.5.42.54q.41.54.8,1.1l.32.47.1.15.21.31.14.22h0l.13.2.12.19.35.56.08.14.06.11.26.45.06.1c.21.36.41.73.6,1.1l.11.2.06.11.12.25.14.29,0,.08.11.21.06.14.11.24.09.19,0,.09.15.34.16.37.22.52.12.28,0,.11c.09.21.17.42.25.64l.08.21,0,.09.16.45.09.27.06.18.15.46.12.36.06.21,0,.06,0,.14,0,.16.14.47,0,.12v0l.06.23,0,.09.12.47v0l.11.44.07.29,0,.19c0,.13.06.27.09.4s0,.14,0,.21l0,.1,0,.13c0,.2.08.4.12.6s0,.21.06.31.08.46.12.69l0,.11q.13.84.22,1.68a.46.46,0,0,1,0,.08s0,.07,0,.11a.44.44,0,0,1,0,.06c0,.24,0,.48.07.72Q856,599,856,600.58Z"/><path class="cls-13" d="M825.45,602.29a3.77,3.77,0,0,1-2.05-1.39c-.21-.27-.3-1.14-.51-1.27s-.93.13-1.27.1c-.35-1-.77-1.68-1.76-.67a1.27,1.27,0,0,0-.07-1.35c-.4-.48-.84-.23-1.36-.19-1.06.07-1.37-.72-2-1.43-.74-.9-1.74-.42-2.82-.25a21.89,21.89,0,0,0-3.75.58c-.54.19-.94.9-1.36.26s.15-1-.52-1.43c-1.18-.67-2.56.23-3.72-.35-.66-.33-.79-.67-.37-1.3a3.64,3.64,0,0,0,.77-1.76,3.14,3.14,0,0,1,.9-1.53c.46-.59.34-.83.37-1.53,1.58-.75,3.88.12,4.07-2.29,0-.37-.36-1.16-.15-1.46s1.24-.06,1.6,0a7.67,7.67,0,0,0,3.28-.62,6.25,6.25,0,0,1,3-.62c1,.19,1.22,1.07,1.6,1.81a4.33,4.33,0,0,0,2,1.84,2,2,0,0,1,1.26,1.29,2.72,2.72,0,0,0,.65,1.43c.67-.48,1.61-.23,2.27-.65s.16-1.62,0-2.19c-.29-1-1.1-1.12-1.63-1.82a2.69,2.69,0,0,1-.3-1.3c.13-.47.35-.39.82-.46,1.08-.17,1.31.13,1.94.83.24.27.59.33.82.56s.4.86.68,1.2,1.34.93,1.57,1.47-.16,1-.16,1.43a8.52,8.52,0,0,0,.23,1.35c.53,0,1.26.79,1.63,1.06s.82.19,1.15.49.21.63.4,1.09.4.48.52.93a11.49,11.49,0,0,0,.82,2.65c.53,1,1.44,1.56,1.77,2.68.78,2.69-2.89,3.42-4.81,3.72a11.13,11.13,0,0,1-3.08.32C826.77,603.33,826.6,602.49,825.45,602.29Z"/><polygon class="cls-13" points="826.93 615.34 826.93 615.34 826.93 615.34 826.93 615.34"/><polygon class="cls-13" points="787.6 619.57 787.6 619.56 787.59 619.56 787.6 619.57"/><polygon class="cls-13" points="830.59 615.36 830.59 615.36 830.59 615.36 830.59 615.36"/><polygon class="cls-13" points="831.58 614 831.58 613.99 831.58 613.99 831.58 614"/><path class="cls-13" d="M830.95,610.6h0Z"/><polygon class="cls-13" points="830.6 613.03 830.59 613.02 830.59 613.02 830.6 613.03"/><path class="cls-13" d="M830,613.6h0Z"/><path class="cls-13" d="M831,610.68h0Z"/><path class="cls-13" d="M805.08,566.22c.09,0,.19,0,.28,0A1.73,1.73,0,0,0,806,566a6,6,0,0,0,.58-.32.79.79,0,0,1,.51-.09,1,1,0,0,1,.54.09l.31.2a.75.75,0,0,0,.31.17c.08,0,.16,0,.24,0a1,1,0,0,0,.26,0l.66,0a6.13,6.13,0,0,0,.83-.09,2.16,2.16,0,0,1,.62,0c.16,0,.31,0,.47.07a3.89,3.89,0,0,1,.47.15,1,1,0,0,1,.18.1l.18.09a1.32,1.32,0,0,0,.94-.08c.15-.06.16-.12.36-.11l.5,0c.34,0,.56-.14.89-.12-.15,0-.27-.39-.28-.48s0-.05,0-.11a.52.52,0,0,1,.32-.13,4.71,4.71,0,0,1,.8.05l.7.12c.22,0,.46,0,.68,0,.47,0,.79.14.93.46a1.31,1.31,0,0,1,.1.35,3.06,3.06,0,0,1,.1.42,2,2,0,0,0,.17.78c.14.33.09.47.39.62a.41.41,0,0,0,.37,0c.27-.09.3-.4.65-.38s.67.51,1.16.51a6.28,6.28,0,0,0,.81-.18c.19,0,.41,0,.6,0a3.16,3.16,0,0,0,.47,0,1,1,0,0,0,.35-.1c.2-.11.08-.19.08-.34s0-.41.08-.51.35-.1.49-.15.07-.27,0-.41a.49.49,0,0,1,0-.19c0-.08,0-.07.13-.07a5.78,5.78,0,0,1,1.32.26,7.59,7.59,0,0,1,.94.23,3.8,3.8,0,0,1,.7.33,2.73,2.73,0,0,1,.49.34l.46.45c.16.17.22.36.38.53a4.54,4.54,0,0,0,.7.63,1.53,1.53,0,0,0,1.29.09c.2,0,.39,0,.59-.1l.36-.07a3,3,0,0,1,.77.05,2.23,2.23,0,0,1,.71.19l.46.23c.15.08.31.19.45.28a3.15,3.15,0,0,1,.45.29c.27.25.43.57.91.64l.31,0a1.63,1.63,0,0,0,.19,0c.09,0,.19,0,.28,0a1.72,1.72,0,0,1,.29,0c.41.06,1,.19,1.42.25l-.1-.07a3.2,3.2,0,0,1,.75-.18,5.26,5.26,0,0,1,1.16.1,1,1,0,0,1,.65.24c.09.09.12.19.24.28l.25.15a1.93,1.93,0,0,0,.62.12c.07,0,.21,0,.24,0l-.06-.14a1.69,1.69,0,0,0-.07-.18c0-.09-.1-.19-.16-.28s-.12-.15,0-.27l.09-.16a37.1,37.1,0,0,0-36.27-4.58A1,1,0,0,0,805.08,566.22Z"/><path class="cls-13" d="M841.91,594.42h0Z"/><path class="cls-13" d="M844.54,618.09h0Z"/><path class="cls-13" d="M839.72,615.83h0Z"/><polygon class="cls-13" points="827.6 615.59 827.6 615.6 827.6 615.6 827.61 615.6 827.6 615.59"/><path class="cls-13" d="M834,613.89h0Zm0,0h0Zm0,0h0Zm21.84-16.4c0-.24,0-.48-.07-.72a.44.44,0,0,0,0-.06s0-.07,0-.11a.46.46,0,0,0,0-.08q-.09-.84-.22-1.68l0-.11c0-.23-.08-.46-.12-.69s0-.21-.06-.31-.08-.4-.12-.6l0-.13c0-.05,0-.1,0-.15l0-.08,0-.08c0-.14-.06-.27-.09-.4l0-.19-.07-.29-.11-.44v0l-.12-.47,0-.09c0-.13-.07-.26-.11-.38l-.14-.47,0-.16,0-.14,0-.06-.06-.21-.12-.36-.15-.46-.06-.18-.09-.27-.16-.45,0-.09-.08-.21c-.08-.21-.16-.43-.25-.64l-.16-.39-.22-.52-.16-.37-.15-.34,0-.09-.09-.19-.11-.24-.17-.35,0-.08-.14-.29-.12-.25-.06-.11-.11-.2c-.19-.37-.4-.74-.6-1.1l-.06-.1-.26-.45-.06-.11-.08-.14-.35-.56-.12-.19-.13-.2h0l0,0c-.09.06,0,.14-.09.21s-.06,0-.08.06a.38.38,0,0,0,0,.12.59.59,0,0,1-.12.23.74.74,0,0,1-.13.15s-.09,0-.14.07,0,.1-.1.14-.15,0-.21.09a.86.86,0,0,1-.35.19,1.87,1.87,0,0,1-.5-.07,1.24,1.24,0,0,1-.36-.08,2.47,2.47,0,0,0-.47-.18,1.48,1.48,0,0,0-.34,0,.87.87,0,0,0-.58.21c-.08.06-.09.18-.24.19a.81.81,0,0,1-.34-.09,1,1,0,0,0-.5-.06c-.09,0-.08.12-.1.2a2.94,2.94,0,0,0,0,.55c.11,0,.19.1.29.14l.27.1a1,1,0,0,1,.25.16c.09.08.08.09.06.18s-.06.29-.08.43a1.27,1.27,0,0,0,.07.57,1.07,1.07,0,0,1,.74,1,.35.35,0,0,1-.15.28c-.11.07-.29.08-.39.16s-.06.1,0,.19a.59.59,0,0,1,0,.44c0,.16-.22.25-.21.42a1.45,1.45,0,0,1,.06.34,1.51,1.51,0,0,1-.06.27c-.06.17-.16.56-.49.5a.54.54,0,0,1-.37-.39,1.58,1.58,0,0,0-.12-.29c0-.09-.14-.13-.21-.21s-.1-.17-.19-.25l-.17-.12c-.18-.15-.34-.29-.51-.44s-.62-.43-.78-.74a1.63,1.63,0,0,1-.12-.71.73.73,0,0,0-.34-.57,2.15,2.15,0,0,1-.38-.34,2,2,0,0,1-.35-.52c0-.12,0-.28.11-.38s.27-.19.41-.31.16-.46.2-.66a.68.68,0,0,1,.24-.41,3.82,3.82,0,0,1,.36-.24.89.89,0,0,0,.29-.49.69.69,0,0,0,0-.56c-.09-.15-.19-.3-.29-.44s-.09-.19-.2-.21c-.08.15,0,.32,0,.48s0,.26-.17.26-.2-.06-.31,0a.43.43,0,0,0-.15.16c-.05.08-.05.18-.19.19a.73.73,0,0,1-.3-.07c-.27-.15-.18-.49-.49-.62a1.89,1.89,0,0,0-.52-.1c-.17,0-.11.06-.17.14a2.53,2.53,0,0,1-.69.47c-.18.11-.26.16-.18.34a.46.46,0,0,0,.27.26c.09,0,.29.14.32.22s-.12.18-.26.21a2,2,0,0,1-.87.08l-.09,0c-.25,0-.34-.21-.57-.28l-.21,0-.39,0-.15,0c-.25,0-.27-.09-.45-.23a2.92,2.92,0,0,0-.34-.26.81.81,0,0,0-.28-.06.39.39,0,0,0-.26,0,1.61,1.61,0,0,1-.8.15l-.72-.11a6,6,0,0,0-.81-.14,2.24,2.24,0,0,0-.69,0,1.13,1.13,0,0,0-.66.61,1.39,1.39,0,0,0-.14.61,1,1,0,0,1-.11.38,1.74,1.74,0,0,1-.41.41.59.59,0,0,0-.24.35c0,.08-.06.19,0,.26s.49.15.69.24h0a2.83,2.83,0,0,1,.51.27.44.44,0,0,0,.28.13.72.72,0,0,0,.22,0c.08,0,.17-.12.25-.15a.3.3,0,0,1,.24,0c.21.05.44.16.64.22a1.43,1.43,0,0,1,.27.11c.19.11.35.24.54.35s.38.2.53.12,0-.08.06-.13.08-.09.09-.16,0-.13.14-.11.09,0,.15.11.08.09.12.15l.09.14a1.14,1.14,0,0,1,.21.32,2.6,2.6,0,0,1,.12.27.8.8,0,0,1,0,.34c0,.14-.14.24-.18.38a.81.81,0,0,0,.05.74,4.72,4.72,0,0,1,.36.51c.06.11.18.22.18.33a1,1,0,0,1-.06.36c0,.09-.11.18-.17.27a.57.57,0,0,1-.08.14s.09.09.09.15c-.22,0-.12.22-.12.32a.56.56,0,0,1-.1.38.31.31,0,0,1-.21.11.66.66,0,0,0-.31.18c-.11.1-.13.24-.23.35a1.48,1.48,0,0,0-.22.5c-.06.18-.28.49-.56.45a4.27,4.27,0,0,0-1-.16c-.28,0-.3.15-.33.34a1.62,1.62,0,0,1-.06.38,1.71,1.71,0,0,0-.08.16.3.3,0,0,1-.15.23c-.17.09-.57.05-.57.26s.14.26.27.36a2.69,2.69,0,0,1,.66.66l.14.21a1.75,1.75,0,0,0,.35.38.82.82,0,0,1,.27.68.83.83,0,0,1-.15.46,1.08,1.08,0,0,1-1.05.18h0a.65.65,0,0,1-.23-.12c-.07-.08,0-.21-.07-.3s-.19-.24-.37-.35a.59.59,0,0,1-.25-.28,2.72,2.72,0,0,1,0-.39c0-.11,0-.19-.08-.29a1.91,1.91,0,0,0-.15-.18l-.15-.12c-.1-.06-.22-.07-.32-.13a.67.67,0,0,1-.32-.69c0-.1.1-.28,0-.38s-.31-.16-.44-.19a2.67,2.67,0,0,0-.92,0,.73.73,0,0,0-.28.15.81.81,0,0,1-.33.16,1.08,1.08,0,0,1-.42,0s0,0,0,0h0c-.18-.05-.15-.17-.08-.26s.22-.13.28-.22a.25.25,0,0,0,0-.07,1,1,0,0,0,0-.32s0-.18,0-.2a.65.65,0,0,0-.22,0l-.32,0h-.14a.85.85,0,0,1-.16,0h0l-.12,0c-.07,0-.07,0-.09.1a1.15,1.15,0,0,1-.22.36,1.36,1.36,0,0,1-.4.28c-.16.05-.35-.05-.52,0a1.06,1.06,0,0,0,.24.34,1.09,1.09,0,0,0,.22.07,1.17,1.17,0,0,0,.25.05c.29,0,.2.17.23.33s.14.25.34.31V592h0l.27,0c.11,0,.24-.05.32-.08a1.14,1.14,0,0,1,.37,0c.18,0,.38,0,.56.08a1.8,1.8,0,0,1,.45.1l.18.07a.34.34,0,0,1,.12.35.35.35,0,0,1-.15.27c-.16.09-.47,0-.67,0a.52.52,0,0,0-.49.43c0,.19.31.37.51.47s.43.24.46.44,0,.4.14.59a4.23,4.23,0,0,1,.7.77,3.35,3.35,0,0,1,.12.35c0,.07,0,.15.07.2s.36.11.51.19.25.15.26.26-.12.31-.17.44a2.93,2.93,0,0,1-.1.28.94.94,0,0,0-.06.3c0,.1,0,.25-.12.31s-.11,0-.15,0a.55.55,0,0,0-.18.09,1.1,1.1,0,0,0-.26.69.72.72,0,0,1-.43.54c-.07,0-.16,0-.22.06s-.09.07-.14.12l-.16.16a1.9,1.9,0,0,1-.56.31,1.37,1.37,0,0,1-.49.2h-.06a1.73,1.73,0,0,0-.71.26,4.07,4.07,0,0,1-.39.21.57.57,0,0,1-.33.09,1.14,1.14,0,0,0-.41,0l-.35.06a4.59,4.59,0,0,1-.72.09h-.17a1.46,1.46,0,0,0-.8.22.46.46,0,0,0-.15.17c0,.09,0,.19-.17.23s-.28-.13-.3-.26,0-.29-.14-.43a.53.53,0,0,0-.46-.14c-.06,0-.15,0-.21,0a2.43,2.43,0,0,1-.34,0,1.08,1.08,0,0,0-.33,0c-.08,0-.09.12-.12.18a1.14,1.14,0,0,1-.18.25,3,3,0,0,1-.34.3.25.25,0,0,0-.13.21l0,.21a.37.37,0,0,0,0,.2c0,.09.08.12.17.19a1,1,0,0,1,.18.16c0,.06,0,.14,0,.21a.94.94,0,0,0,.09.16.65.65,0,0,0,.14.23c.09.08.23.14.32.22l.15.14c.06.07.15.12.2.19l.16.24c.18.24.52.39.66.65s.24.47.38.7a1.09,1.09,0,0,1,.18.9c-.08.26-.51.59-.54.87l.09,0s-.16.12-.21.14a3.23,3.23,0,0,1-.37,0l-.17,0a2.68,2.68,0,0,0-.77.08c-.15.06-.24.22-.37.31s-.41.15-.49.3-.13.34-.31.28-.14-.3-.17-.39-.12-.27-.17-.41a.92.92,0,0,0-.14-.32,1.64,1.64,0,0,0-.36-.21c-.16-.08-.33-.11-.44-.25s-.08-.21-.14-.31a1,1,0,0,0-.58-.48l-.17,0a.64.64,0,0,1-.41-.18.88.88,0,0,0-.22-.22c-.22-.14-.46,0-.49.17a3.69,3.69,0,0,1-.07.69,3.8,3.8,0,0,1-.18.47.51.51,0,0,1-.11.16s-.06,0-.09.07.08.43.21.56l0,0a1.1,1.1,0,0,1,.28.32,1.85,1.85,0,0,1,.11.46c0,.28.41.4.65.57s.15.26.28.36a2.09,2.09,0,0,0,.34.16,1.6,1.6,0,0,1,.36.25c.08.08.1.18.18.26s.32.25.34.43a1.36,1.36,0,0,1,0,.15c0,.15,0,.3.06.45s-.09.37,0,.52.18.16.24.25a.69.69,0,0,1,.13.26,1.24,1.24,0,0,1,0,.22.2.2,0,0,0,0,0,1,1,0,0,1,0,.36.42.42,0,0,1-.24-.25h0a2.23,2.23,0,0,1-.6-.33c-.12-.07-.27-.11-.39-.19a1.32,1.32,0,0,1-.24-.24c-.06-.07-.14-.11-.2-.19s-.19-.16-.27-.25l-.16-.17a3.56,3.56,0,0,1-.31-.37,2.1,2.1,0,0,1-.18-.32c0-.11-.1-.21-.15-.31a1.77,1.77,0,0,1-.08-.35,2.84,2.84,0,0,1,0-.31,1.46,1.46,0,0,0-.29-.69.53.53,0,0,0-.21-.16,1.33,1.33,0,0,1-.2-.16l-.11-.07,0,0c-.08-.08-.09-.24-.15-.33a2,2,0,0,1-.12-.2s0-.1,0-.15-.07-.17-.09-.25a1.1,1.1,0,0,1-.08-.29,1,1,0,0,1,.08-.33,2,2,0,0,1,.09-.34c0-.06.09-.1.11-.17a.9.9,0,0,0,0-.19l0-.29a1.56,1.56,0,0,0,0-.56c0-.07-.09-.16-.12-.24s0-.13,0-.21-.08-.12-.11-.18a1.87,1.87,0,0,1-.09-.22,2.92,2.92,0,0,0-.1-.28,3.07,3.07,0,0,1-.12-.33c-.06-.16-.12-.49-.38-.54a1.06,1.06,0,0,0-.33.05,1.89,1.89,0,0,0-.39.12,1.2,1.2,0,0,1-.49.13c-.16,0-.16-.09-.22-.19a2.32,2.32,0,0,1-.21-.74.74.74,0,0,0-.32-.46.77.77,0,0,1-.37-.64.65.65,0,0,0,0-.3.54.54,0,0,0-.1-.12l-.09,0a1.46,1.46,0,0,1-.32-.27,3,3,0,0,1-.23-.38.77.77,0,0,1-.14-.32.64.64,0,0,0-.06-.29,1.06,1.06,0,0,0-.74-.34c-.15,0-.19.14-.31.2a1.34,1.34,0,0,1-.46.1c-.31,0-.64,0-.94-.05h-.27c-.06,0-.23,0-.27,0s0,.18,0,.25a1.2,1.2,0,0,1-.14.3c-.13.21-.38.26-.66.31a.85.85,0,0,0-.54.23s0,.12,0,.17a1.16,1.16,0,0,1-.12.23c-.06.1-.15.2-.23.29a1.86,1.86,0,0,1-.72.54,1,1,0,0,0-.43.24h0l0,0c-.08.15-.12.29-.2.43s-.11.2-.34.19a1.92,1.92,0,0,0-.65,0c-.19.05-.25.12-.18.27a1.11,1.11,0,0,1,.05.12s0,.09,0,.13,0,0,.06.08a.53.53,0,0,1,0,.13.8.8,0,0,0,.05.21c0,.08-.1.13,0,.2a5.58,5.58,0,0,0-.32,1.51c0,.59,0,.75-.56,1a1.1,1.1,0,0,0-.32.18c-.21.22-.07.57-.44.71-.21,0-.17-.26-.3-.37l-.35-.15a1,1,0,0,1-.63-.42,21.4,21.4,0,0,1-1.34-2,8.83,8.83,0,0,1-.51-1c-.23-.56-.18-1.12-.39-1.69s-.26-1.51-1.22-1.51c-.54,0-1.27,0-1.63-.35l0,0a1.14,1.14,0,0,1-.23-.64,1.46,1.46,0,0,0-.17-.64,3.92,3.92,0,0,0-1.74-1.19,5,5,0,0,0-2.36,0,5.54,5.54,0,0,1-1.95,0c-.46-.11-.78-.43-1.21-.57a2.31,2.31,0,0,0-.83,0,4.81,4.81,0,0,1-1.18-.19,6.34,6.34,0,0,0-1.16-.2l-.28,0-.35,0H787l-.33-.05a5.19,5.19,0,0,0-.71-.15h-.11a.43.43,0,0,0-.19,0l.08.11.07.12.15.29.14.22v0h0c.19.28.45.57.64.81a1,1,0,0,0,.22.21c.68.47,1.64-.25,2.29-.5.28-.11.21-.12.44,0a1.21,1.21,0,0,1,.34.33,3.07,3.07,0,0,0,1.39.78c.29.11.77.25.87.51s-.32.78-.54,1a2.83,2.83,0,0,1-.73.43,1.38,1.38,0,0,0-.42.45,2.14,2.14,0,0,0-.19.58.74.74,0,0,1-.76.69,1.14,1.14,0,0,0-1,.46,5.28,5.28,0,0,1-.52.7c-.35.35-.31.69-.91.76a7.1,7.1,0,0,0-1.29.14,1.58,1.58,0,0,0-.28.12l-.22.14a6.94,6.94,0,0,1-1.89,1l-.29.06h0a1.06,1.06,0,0,1-.47,0c-.16-.07-.32-.46-.39-.57s-.28-.38-.4-.57h0c0,.19,0,.38.06.56s0,.33.06.5c0,.35.09.7.15,1.06l0,.14,0,.25c.14.1.31.08.59.05a8.54,8.54,0,0,0,1.37-.34c.43-.12.79-.34,1.23-.45a2.42,2.42,0,0,0,.36-.12h0a7.11,7.11,0,0,1,1.06-.41,3.13,3.13,0,0,0,.35-.13c.3-.11.62.1.55.35s-.08.41-.11.62h0a1.86,1.86,0,0,1-.24.76c-.21.29-.31.68-.55,1s-.22.64-.36.92c-.35.66-.93,1-1.19,1.71a2.39,2.39,0,0,1-1.16,1.11h0l-.48.28-.12.07.15.45.12.36h0l.24.68.15.41.22.56.11.26.24.56.27.61.18.38h0l.1.21.32.65q.4.8.84,1.58l.19.34.29.49a.17.17,0,0,1,.06-.07l.09-.09h0c.06,0,0-.11.09-.15s.05,0,.08,0h0c.12.12.14.27.23.4a.25.25,0,0,1,.1.08c.13.08,0,.24.12.32a.12.12,0,0,0,0,.08c.1.12,0,.29.1.42s0,.2,0,.31.06.12.1.18a.05.05,0,0,0,0,.05v0a.17.17,0,0,1,0,.17l.15.22.41.59.09.12.26.36.15.2.26.35.35.45.34.42,0,0,.72.85.37.42.38.42c.25.28.51.55.78.82l.29.29.35.34.18.18.5.47.36.32.37.33.72.62h0l.12.11.11.09.32.26.31.24.22.18.33.25.33.24.12.09.21.15.28.2.25.18.12.08.15.1.1.06.09.06.21.14.4.26.12.08.25.16.18.11.21.13.26.16,0,0,.36.21.09.05.47.26.06,0,.46.25.19.1.06,0,.11.05.11.06.22.11.1.05.21.11.26.13.44.21,0,0,.18.08.42.19.18.08.28.12.23.1.34.14.1,0,.19.08.12,0,.19.08.63.24,0,0h0l.34.12.18.06.19.07.12,0,.42.14.29.1.74.23.1,0,.22.06.42.12.14,0,.23.06.38.1.09,0,.08,0,.23.05.47.11.71.15.2,0,.61.12.08,0h.15l.66.11h0l.19,0,.53.08H814l.3,0,.41,0h0l.68.07h.1l.32,0h.86l.47,0h1.67a37.48,37.48,0,0,0,5.85-.46l.78-.13.14,0,.53-.1.23,0,.16,0,.69-.15.81-.19.62-.17.46-.13.54-.16.53-.17.53-.17,1.09-.38.39-.15,1.1-.45a.51.51,0,0,0,0-.09,5,5,0,0,0-.36-1.16c0-.05-.13-.05-.18-.1a.39.39,0,0,0-.08-.1c-.05-.07-.12-.06-.19,0l-.15,0a.24.24,0,0,1-.09-.09.35.35,0,0,1-.08-.1.5.5,0,0,1-.08-.09,3.4,3.4,0,0,0-1.11-.19l-.27,0a.28.28,0,0,1-.11,0h-.08c-.06,0-.14,0-.2,0s-.14,0-.2,0h-.08c-.09.06-.21,0-.29,0h-.09c-.28.05-.55-.13-.83-.05l-.11.06h0a.32.32,0,0,1-.11.06h0c-.05,0-.14,0-.19.06l-.11.07c-.05,0-.13,0-.19.05s-.14,0-.2.06a.32.32,0,0,1-.11.07s0,.11-.11.15-.05.12-.12.15l-.1.07h0l-.1.07a.33.33,0,0,1-.11.06h-.08c-.19.07-.37-.07-.55,0a2.63,2.63,0,0,0-1.19-.08l-.1.07-.1.08h0a.6.6,0,0,1-.32.21l-.1,0-.09,0,0,0-.08,0,0,0-.08,0-.1,0-.15.05-.11,0a4.88,4.88,0,0,1-.57-.07l-.11,0-.08-.06,0,0-.15-.13a.43.43,0,0,1-.06-.08l-.06-.09,0,0-.08-.08,0,0a.44.44,0,0,1,0-.47.14.14,0,0,0,0-.06c.06-.1.18-.08.27-.14l.06-.07a1,1,0,0,0,.1-.22.25.25,0,0,0,0-.1.34.34,0,0,0,0-.05l0,0,.07-.14a.24.24,0,0,1,.11-.12.55.55,0,0,0,.06-.46.13.13,0,0,0,0-.08c-.06-.07,0-.18-.05-.25a.18.18,0,0,0,0-.08c0-.05,0-.12-.06-.18a.08.08,0,0,0,0-.07.14.14,0,0,1,0-.11c0-.11,0-.23,0-.34s.15-.23.09-.37a.17.17,0,0,0,0-.08c-.15-.15-.06-.34-.12-.51h0a.45.45,0,0,1,0-.41.78.78,0,0,1,0-.08c-.06-.08,0-.18-.05-.26a.32.32,0,0,0,0-.07.21.21,0,0,1,0-.07l-.06,0a.81.81,0,0,0,0-.08.39.39,0,0,0-.07-.09.12.12,0,0,1,0-.09c0-.06,0-.12,0-.17a.47.47,0,0,0,0-.09c-.05-.08,0-.14,0-.22a.12.12,0,0,1,.12,0c.07,0,0,.13.13.1a.28.28,0,0,1,.07-.08h.06l.06,0a.58.58,0,0,1,.09.14l0,.1a.45.45,0,0,0,0,.06.43.43,0,0,0,0-.24.75.75,0,0,1,0-.16l0-.17a.35.35,0,0,1,0-.23c.06-.09,0-.21.1-.28a.22.22,0,0,0,0-.07l.09-.08a.09.09,0,0,0,0-.06.32.32,0,0,1,.11-.09l.09-.07,0-.15a.25.25,0,0,0,0-.27.07.07,0,0,0,0-.05.33.33,0,0,1,.1-.09h0c.07,0,.06-.12.12-.15s.05-.12.12-.15h0c.12-.06.12.1.21.09l.09,0,.08,0h0c.06-.05.14,0,.2-.07s.14,0,.2-.07.14,0,.21,0l.1-.07.11-.06.11-.07h0a.17.17,0,0,1,.07-.06l.09,0h.09a.3.3,0,0,0,.14,0c.25-.13.51.11.77,0l.11-.06c.08-.07.21,0,.3,0h.18l.11-.06.1-.07a.59.59,0,0,1,.25,0,.37.37,0,0,1,.14,0,.36.36,0,0,0,.3,0,.13.13,0,0,0,.08,0c.06,0,.15,0,.21,0l.07-.06.14,0h.1l.09,0,.11-.07.1-.07c.07,0,.06-.11.13-.15a2.69,2.69,0,0,1,.22-.21h0a.54.54,0,0,0,.33-.29c0-.11,0-.21.06-.31l.06-.08,0,0c.06,0,.15,0,.21-.09h0l.11-.06h0a.45.45,0,0,1,.24-.15c.16,0,.14.15.18.25a.47.47,0,0,1,0,.09s.06,0,.06,0a.42.42,0,0,0,0-.12.23.23,0,0,1,0-.09c0-.06,0-.11,0-.18s0,0,.07-.05h0c.19-.1.4.25.59,0,0,0,0,0,0,0s0,0,0,0h0a.1.1,0,0,1,0-.16.12.12,0,0,0,0-.06c.05-.13.21-.09.31-.14h0c.2-.08.27-.28.46-.35a.42.42,0,0,0,.15-.05.2.2,0,0,1,.1,0l0,0,0,0,.06-.06s0-.08.08-.11a.15.15,0,0,1,.09,0h.1a.63.63,0,0,0,.21,0l.11,0c.14,0,.21.08.32.1a.24.24,0,0,1,.14.1c0,.08.05.17.1.24h0c.06.09.12.18.17.28s0,0,0,.05,0,0,.07,0a.18.18,0,0,1,.25,0,.62.62,0,0,0,.49.08.82.82,0,0,0,0-.08l-.07-.1h0s0,0,0-.06l0,0c.07,0,.06-.12.14-.15a.5.5,0,0,0,.21-.13.12.12,0,0,0,0-.07c.12-.12.26-.23.37-.36a.68.68,0,0,0,.21-.14l.11-.06.12-.06a.11.11,0,0,0,.08,0l.12-.06h0c.27-.13.61.14.87-.06,0-.15-.23-.21-.2-.37s.29,0,.42,0,.22.22.34.32a.1.1,0,0,0,.07.09c.1.1.29,0,.38.15s.14.06.17.12a.19.19,0,0,0,.22,0h.06a.28.28,0,0,1,.09.11.18.18,0,0,0,.21,0c.05,0,.14,0,.2,0h0c.24,0,.15.22.29.28s.05,0,0,0-.07-.12,0-.16c.26-.15.31.09.43.2s0,.11,0,.15l-.11.06h0l-.11.06c-.11,0,0,.17-.15.22a.56.56,0,0,0-.46.34h0c-.07,0-.07.11-.13.14l-.11.06h0a.29.29,0,0,0-.1.06.15.15,0,0,0,0,.06c-.09.12,0,.24,0,.36l.08.1h0l.07.1c.15.11.34.18.43.34a.39.39,0,0,1,.08.1c0,.05.13.06.17.12h0c.06.05,0,.12.07.18l.08.1h0c0,.06.14.06.18.12l.08,0c0,.05.14.06.18.12s.14.25.22.38.14.06.17.12a.25.25,0,0,0,.29.06c.06,0,.15,0,.2,0h0c.07,0,.06-.11.13-.13s.06-.11.13-.15h0l.11-.06c.07,0,.07-.11.14-.14h0c.06,0,.06-.12.13-.15s0-.17.14-.22a.2.2,0,0,0,0-.07c.06,0,.06-.12.14-.15s.05-.11.12-.14.06-.26.09-.39,0-.35.2-.47l.1-.06a.4.4,0,0,0,0-.08.1.1,0,0,1,0-.16l.11-.06s0,0,0-.05,0,0,0,0,0-.11,0-.16a.12.12,0,0,0,0-.06l.11-.08.1-.06a.1.1,0,0,0,0-.06c.06,0,.06-.12.13-.15s0-.17.14-.23a.17.17,0,0,0,0-.07c.15-.1.28-.12.38.08s-.19.41.06.61h0a.06.06,0,0,1,0,.06s0,0,0,0a.2.2,0,0,0,0,.07s0,.05,0,.09a.44.44,0,0,1,.06.12.1.1,0,0,0,0,.06.82.82,0,0,1-.11.56l0,.17c.1.08-.14.25.13.29h0c.06,0,.15,0,.21,0s.12.07.16.12a.15.15,0,0,0,0,.08.59.59,0,0,1,.15.2l.08.1h0a.18.18,0,0,1-.06.24.37.37,0,0,0,0,.07.06.06,0,0,0,0,.06.05.05,0,0,0,0,0c0,.12-.06.25-.09.38s-.08.1,0,.18l.07.11h0a.28.28,0,0,1,.07.11.09.09,0,0,0,0,.05.07.07,0,0,0,0,.07s0,0,0,0a.12.12,0,0,0,0,.07.19.19,0,0,1-.06.25.14.14,0,0,0,0,.07c-.17.13.09.36-.11.49s-.09.09,0,.15l.1-.1.31-.3.34-.33q.9-.88,1.74-1.84c.29-.33.58-.67.86-1l.11-.13.4-.51a.32.32,0,0,1-.14-.08h0c-.15-.14-.41-.07-.56-.23h0s-.08,0-.13,0h0c-.06,0-.15-.05-.19-.12a.23.23,0,0,1-.07-.12,0,0,0,0,0,0-.06.41.41,0,0,1-.06-.11.25.25,0,0,1-.09-.1.22.22,0,0,1-.06-.1h0c-.06-.05,0-.12-.07-.17l0,0h0c-.14-.07,0-.19-.08-.28h0c-.06-.06,0-.13-.06-.19s0-.12-.07-.16a.09.09,0,0,0-.07,0c-.09-.08-.23-.05-.29-.15s-.21-.05-.27-.15-.29.06-.4-.09l-.1,0c-.08,0-.06.12-.15.12h-.07c-.25,0,0,.34-.28.35a.07.07,0,0,0,0,.06.24.24,0,0,1-.11.06h0c-.07,0-.15,0-.22,0s-.15,0-.22,0H844c-.06,0-.14-.06-.19-.11l-.11,0a1.23,1.23,0,0,1-.65-.16s0,0,0-.05a.1.1,0,0,1-.06-.06c-.06,0,0-.12-.08-.16h0a.85.85,0,0,1-.06-.11.21.21,0,0,1-.08-.1h0a.17.17,0,0,1-.07-.09c-.08-.09-.15-.2-.31-.15l-.16,0s-.08-.06-.12,0a.77.77,0,0,1-.88-.18h0c.08,0,.07-.11.13-.14h0c.07,0,.07-.11.14-.13h0a.35.35,0,0,1,.11-.06l.12-.05c.24,0,.28-.14.35-.27h0s0,0,0,0v0h0a.27.27,0,0,1-.07-.11h0c-.09-.08,0-.18-.05-.26s-.06-.32-.2-.46a.19.19,0,0,1-.09-.1h0c-.11-.09-.25-.16-.37-.24h-.06a3.86,3.86,0,0,1-.39-.25h0l-.09-.08-.17-.06c-.11-.1-.3,0-.41-.17h0A.36.36,0,0,1,840,618c-.06-.09-.22,0-.27-.15h0a3.49,3.49,0,0,1-.34-.24.11.11,0,0,1-.08.16h0a.23.23,0,0,1-.38,0c-.09-.2.09-.41-.11-.59l-.08-.09-.16,0c-.09-.06-.08-.11,0-.15a2,2,0,0,0,.77-.08c-.08,0-.23,0-.34-.1a.08.08,0,0,0-.1,0c-.2,0-.19-.14-.27-.22s0-.21-.15-.28-.49-.1-.55-.35c0-.08-.16-.16,0-.25a.07.07,0,0,0,.07,0,.22.22,0,0,1,.24.1c.12.16.1-.05.16,0h0a2.14,2.14,0,0,0,.66-.13.13.13,0,0,0,.09,0,.08.08,0,0,1,.1,0l.21.09c.07,0,.14,0,.16.08a.37.37,0,0,1,.09.1c.12.12.34.05.46.18s0,.24,0,.36v0a.32.32,0,0,0-.07.15.06.06,0,0,1,0,0c0,.1,0,.18.05.27l-.1,0a.52.52,0,0,0,.15.22s0,.09,0,.14.07.24.14.35.1.11.2.06a.26.26,0,0,1,.12-.06.19.19,0,0,1,.12-.06h0a.17.17,0,0,1,.11-.06.46.46,0,0,1,.22-.14h0c.08,0,.07-.11.14-.13l.31,0c.1-.05.12-.18.26-.19h0c.06-.05.15,0,.22,0h0c.06,0,.15,0,.22,0a.12.12,0,0,1,.18.05h0a.55.55,0,0,1,.1.1.07.07,0,0,0,.07,0c.07,0,.16.06.21.12l.1.09h0c0,.06.13.06.18.12h0c0,.06.13.06.17.12h0c0,.06.14.06.18.12l.1,0a1.27,1.27,0,0,1,.46.19l.06.07a.26.26,0,0,1,.24.08h0c0,.05.15.06.19.13s.13.06.17.13h0c0,.05.14.06.18.12s.14.06.18.13h0c.06.08.22.05.28.14a.09.09,0,0,0,.07,0c.14.08.29.13.37.25a.26.26,0,0,1,.08.1c.15.1.36.12.45.28a.33.33,0,0,1,.16.21c.05.05.15.06.18.13h0c.06.09.15.17.15.28l0,.14c-.05.06-.09.11,0,.19a.08.08,0,0,0,.06,0c.06,0,.16.06.22.12a.08.08,0,0,0,.06,0,.21.21,0,0,1,.11.11c0,.05.14.06.17.13s.22.06.28.15a.49.49,0,0,1,.08.1c.06.06,0,.12.06.19l0,.13c-.09.09-.23,0-.34,0h-.05c-.21-.08-.19,0-.17.15s0,.2.14.29a1.64,1.64,0,0,0,.23.31.23.23,0,0,1,.08.11.1.1,0,0,0,0,.07,3.43,3.43,0,0,0,.08.45.32.32,0,0,0,.31.08,0,0,0,0,0,.06,0c.13.11-.05.23,0,.35h0l.16.1.36-.48.25-.35.26-.37c.43-.61.84-1.23,1.23-1.87q.34-.55.66-1.11l.28-.51.26-.48.1-.19.22-.44.2-.41c.11-.21.21-.42.3-.63l.19-.41.13-.29.17-.39.17-.4.1-.25.2-.49c.08-.21.16-.42.24-.64l.15-.4.15-.41q.49-1.42.86-2.89l.12-.5c0-.12.06-.24.08-.36s0-.13,0-.2.09-.39.13-.58l0-.19c0-.19.08-.39.11-.59s0-.15,0-.22.07-.4.1-.61a1.46,1.46,0,0,0,0-.16q.05-.32.1-.66c0-.05,0-.11,0-.16s.05-.38.07-.56,0-.18,0-.26,0-.43.06-.64c0,0,0-.08,0-.12s0-.35,0-.52,0-.25,0-.38,0-.5,0-.75,0-.53,0-.79,0-.56,0-.84Q856,599,855.83,597.49Zm-25.71-6.17h0ZM784.93,606h0Zm50.78,5c0-.09,0-.18-.06-.26l0,0-.08-.06h-.09l-.06,0a.14.14,0,0,0,0,.14c.08.06,0,.13.09.19a.07.07,0,0,0,0,.07h0c.06.14-.05.22-.18.29a.15.15,0,0,1-.2,0c0-.19-.28-.12-.38-.24s-.15-.05-.19-.11h0a.49.49,0,0,1-.1-.1.55.55,0,0,1-.08-.1h0a.46.46,0,0,1,0-.37l.06-.11a.1.1,0,0,0,0-.16l-.09-.09-.44,0a1.15,1.15,0,0,1-.5-.09.07.07,0,0,0,0,.06s-.05.08-.11.09,0,0,0,0,0,0,0,0a.12.12,0,0,0,0,.06.15.15,0,0,1-.2,0h0a.2.2,0,0,1,0-.24s0-.1,0-.15,0,0,.05,0,0-.16.09-.21h0a.32.32,0,0,1,.14,0l.07,0a2.77,2.77,0,0,0,.38-.18H834c.06,0,.14-.12.21-.07.52.34.82,0,1.18-.17l.06-.05c0-.19.11-.36.06-.54a.14.14,0,0,1,.2,0c0,.05,0,.1,0,.15a.2.2,0,0,1,0,.29.22.22,0,0,1,.16.15c.08.07.15.13.17.22a.07.07,0,0,0,0,.07c0,.08,0,.18,0,.26s0,.19.06.27a.06.06,0,0,0,0,.06.06.06,0,0,0,0,.09.19.19,0,0,1,.08.12v.14c0,.07,0,.12,0,.15a1,1,0,0,1-.11.1h0v0h-.1C835.85,610.81,835.87,610.93,835.71,611Zm-1.51,2.85.12-.06a.58.58,0,0,1,.22-.13h0a.22.22,0,0,1,.3,0,.1.1,0,0,1,0,.17h0c-.06,0-.06.11-.12.15h0c-.1,0-.15.14-.25.19s-.05.14-.16.14h-.06c-.11,0-.23,0-.33,0h-.08a.16.16,0,0,1-.2,0l0,0h0l-.11-.08h0a1,1,0,0,0-.62-.12l-.24,0a.24.24,0,0,0-.17,0h-.16a.16.16,0,0,1-.2,0l0,0h0c-.07,0-.15-.08-.23,0h0c-.08,0-.06.11-.14.14s0,.12-.11.16v.08a.2.2,0,0,1,0,.21l.06.05h0c0,.06.14.05.17.12h0c.1.06,0,.17.08.23a.12.12,0,0,0,.09,0,.09.09,0,0,0,.11,0c.07,0,.06-.12.14-.14a.18.18,0,0,1,.1-.07.25.25,0,0,1,.29,0h.11l.09,0a.07.07,0,0,0,0,0c.28.08.54-.07.81.05,0,.06,0,.13,0,.19l0,0c0,.06,0,.13,0,.19a.23.23,0,0,0,0,.08c0,.1,0,.18-.13.14s-.22-.05-.31-.09l-.07,0a.18.18,0,0,1,0-.07.05.05,0,0,1-.06,0l-.11,0h0l-.11.07h0c-.06,0-.15,0-.21,0h0a.23.23,0,0,1-.12.06c-.16.12,0,.23,0,.35h0c.07,0,0,.12.08.18h0a.17.17,0,0,1,.08.12h0a.05.05,0,0,0,0,.06c.08.16-.13.33,0,.5,0,0,.06,0,.07,0a.08.08,0,0,0,.1.06.12.12,0,0,1,.11,0,.16.16,0,0,1,.1.12s0,.06,0,.07-.08.06,0,.12l0,.19a.21.21,0,0,1-.11.08s0,0,0,0a0,0,0,0,0,0,0h0c.06.12,0,.18-.14.22s0,0,0,0c-.16.12-.21,0-.28-.09s-.2-.35-.09-.45c-.32,0-.43,0-.43-.17a1.17,1.17,0,0,1,0-.21c.08-.08,0-.13-.07-.18l-.09-.09a.46.46,0,0,1-.08-.1.21.21,0,0,1,0-.31c.06-.08.11-.15,0-.25l-.1,0c-.1.07-.28.06-.26.23s.06.11,0,.16,0,.15,0,.22,0,.46-.2.66c0,0,0,0,0,.05s-.06.07,0,.11h0c.1.32-.24.12-.34.19a.21.21,0,0,1-.27,0c-.07-.06,0-.13-.08-.19s0,0,0,0,0-.12.11-.17a0,0,0,0,0,0-.06c.08-.07,0-.18.13-.25a.36.36,0,0,0,0-.25c-.11-.07.12-.26-.16-.28a.13.13,0,0,1-.19,0c-.11-.14,0-.3,0-.44v0a.18.18,0,0,1,.11-.09l.11-.07c.09-.06,0-.18.14-.23h0c.14-.14,0-.35.17-.48h0c.06,0,.06-.12.13-.15l.08,0a.06.06,0,0,1,0-.06h0c.18-.2.06-.52.32-.7.07,0,.06-.11.13-.14s.1-.13.21,0h0a.1.1,0,0,0,.1,0l.11-.07a0,0,0,0,0,0-.06.24.24,0,0,1,.12-.09l.16,0c.06,0,.15,0,.2.11s.21,0,.3.12l.26.06c.19.11.44.05.62.16a.12.12,0,0,0,.09,0,.24.24,0,0,0,.22,0s.11,0,.16,0Zm-4.05,5.05c0,.07-.08.08-.13.09l-.12,0a.77.77,0,0,1-.26,0c-.07,0-.11,0-.18,0h-.2l-.36.05a.89.89,0,0,1-.25,0l-.07-.05a.25.25,0,0,1-.05-.08c-.08-.12-.3-.09-.43-.09a.77.77,0,0,1,0-.17s0-.11,0-.14a.34.34,0,0,1,.28,0c.08,0,.14.09.23.11l.16,0,.06,0s.07,0,.1,0a.5.5,0,0,1,0-.2,1.24,1.24,0,0,1,.23-.08c.11,0,.08,0,.19.06a2.07,2.07,0,0,1,.29.17c.11.06.24.11.34.17l0,0ZM828,610.83h.1a4.34,4.34,0,0,0,1.13-.58s.05-.12.11-.16h0c.06,0,.06-.11.14-.12s.06-.06.12-.08,0-.2.15-.23,0,0,.07,0h0c.09.09.22,0,.31.05v0c.11.07.11.19.21.26h0c.14.14.15.35.34.47s.22,0,.27.14a.17.17,0,0,1,.1.09l.1.07.16,0c.08.25.08.25-.32.27-.07,0-.15.06-.11.17s0,.22-.22.13c0,0,0,.05-.06.05a.07.07,0,0,0-.07,0c-.17.19-.41.36-.31.65,0,0,0,0,0,0a.23.23,0,0,1,.06.14s0,0,0,0l.08.09a.15.15,0,0,1,0,.24c-.09.15.09.19.15.28a.25.25,0,0,1,.1.09h0l.1.09a.48.48,0,0,0,.08.1h0c.08.08.19.15.05.25s-.48-.09-.72,0c-.06,0-.05.12-.12.15s0,.39-.09.58-.05.12-.11.15-.15,0-.2.06h0c-.08,0-.07.12-.17.12h-.06l-.11.05c-.33.14,0,.45-.2.63a.26.26,0,0,1-.1.08.06.06,0,0,0,0,.07c-.16.12,0,.28-.06.42s0,.17-.14.22-.13,0-.18,0a0,0,0,0,0,0-.06c-.06-.09-.15,0-.23,0a0,0,0,0,0-.06,0c-.06,0-.15,0-.21,0s-.15,0-.2.06-.22,0-.2-.11,0-.1,0-.17a.36.36,0,0,1-.07-.09h0l-.09-.08-.11,0a.25.25,0,0,1-.29,0c-.05,0-.14,0-.19-.11a.19.19,0,0,0-.21,0,.36.36,0,0,1-.11.06c-.19.05-.4,0-.58,0-.12-.13,0-.3-.19-.38h-.1c-.07,0-.15,0-.22,0h-.06c-.12-.08-.28-.07-.4-.14s.08-.39,0-.58c0,0-.07-.07-.08-.12v0a.24.24,0,0,1,.09-.1.62.62,0,0,0,0-.09c0-.06-.07-.14-.19-.12s-.14.05-.18,0a1,1,0,0,0,0-.12c0-.06-.08-.08-.09-.13a.16.16,0,0,1,0,0,.06.06,0,0,0,0-.09h0a.81.81,0,0,1-.06-.11s0,0,0-.06,0,0,0-.06,0,0,0,0,.1-.16,0-.24v0l-.06-.1a.09.09,0,0,0,0-.08.17.17,0,0,1,0-.24.76.76,0,0,0,0-.14.66.66,0,0,1,.24-.31h0A.32.32,0,0,1,825,612h0c.21-.06.14.18.27.2h0l0,.06c.08,0,.15-.11.26,0h0a.28.28,0,0,1,.11.09.16.16,0,0,0,.2,0c.11,0,0-.18.14-.23s0-.1,0-.15.09-.33.38-.29h.17c.1,0,.23,0,.34,0a.09.09,0,0,0,.08,0c.06,0,.15,0,.21,0h0a.47.47,0,0,0,.1-.08h0c.08,0,.06-.11.14-.13a1.89,1.89,0,0,1,.35-.29c.08-.06,0-.18.13-.22A.06.06,0,0,1,828,610.83Zm7.65-2.78c0,.14-.09.1-.19.09s-.25,0-.17.18h0c.05.05,0,.12.07.18l-.13.2a1.45,1.45,0,0,1-.41-1c.16,0,.09.13.18.16.24-.09.09-.22,0-.32s-.22-.19-.18-.36a1.83,1.83,0,0,1,.62.08h0c.22.19,0,.41.13.6a.29.29,0,0,1,.08.13A0,0,0,0,0,835.67,608.05Zm-2.19.49c.1-.11.28-.14.35-.26a.27.27,0,0,1-.28-.15h-.11l-.11,0c-.27-.1-.1-.22-.06-.33l.05-.33-.08-.09c-.05-.06,0-.11,0-.15s.06,0,.08,0l.09.08.08,0a.44.44,0,0,1,.12.1c.11.11.32,0,.42.16a.31.31,0,0,1,0,.3.47.47,0,0,1,.19,0l.06,0a.1.1,0,0,1,.08,0l.07,0h.09l0-.14a.46.46,0,0,1-.13.63c-.16.13-.17.35-.36.46,0,.11-.11.13-.24.11h0c-.06,0,0-.12-.09-.16a.1.1,0,0,0-.07,0,.2.2,0,0,1-.12-.1c-.06-.05,0-.13-.08-.18A.06.06,0,0,0,833.47,608.55Zm-3.18.1c.08,0,.06-.11.14-.14a.24.24,0,0,1,.12-.06h.08l.1-.06h0c.07,0,.06-.11.13-.13h0a.41.41,0,0,1,.11-.07c.06,0,.06-.12.13-.15a.4.4,0,0,1,.11-.07.7.7,0,0,1,.23-.14.11.11,0,0,0,0,0h0l0,0a.11.11,0,0,1,0-.17.14.14,0,0,0,0-.06s0,0,.05,0a.13.13,0,0,1,.05-.07h0a.16.16,0,0,1,0-.05h.09a.13.13,0,0,1,0,.05h0c0,.07,0,.14,0,.2a.26.26,0,0,0,0,.06h0l0,.07h0c.07.13,0,.18-.15.23h0l-.1.06a.07.07,0,0,0,0,.06c-.13.05-.3.08-.34.22s-.06.12-.14.15l-.11.06a.7.7,0,0,0-.23.14l-.11.07-.12.06a.3.3,0,0,1-.11.06h0a.15.15,0,0,1-.18,0,.1.1,0,0,1,0-.17l.11-.08Zm-2.86,2.7h0Zm-4.56,5c.08,0,.08.13.19.15s.24,0,.36,0a.25.25,0,0,1,.21.11c0,.07.06.15.14.21a.77.77,0,0,0,.3.05,6.59,6.59,0,0,0,.66.11c.13,0,.15-.07.21-.14s0-.07.1,0,.05.07.07.1.11.09.22.14a1.48,1.48,0,0,0,.29.08s0,0,0,0,.21.11.35.15a3.05,3.05,0,0,0,.68,0c.08,0,.31,0,.33.1s-.08.1-.11.13-.07.09-.12.11-.34-.1-.37,0,.25.12.34.13a.77.77,0,0,1,.43.11c.06.05.06.12.12.18a.7.7,0,0,0,.27.12c.12,0,.34.09.34.21a.61.61,0,0,1,0,.16c0,.07-.09,0-.18,0a1.14,1.14,0,0,1-.19,0l-.12-.06a.86.86,0,0,0-.4,0,.6.6,0,0,1-.4-.13c-.08-.05-.12-.12-.22-.14l-.23,0a1.11,1.11,0,0,1-.38-.1,1,1,0,0,0-.25-.11,1,1,0,0,0-.24,0c-.1,0-.15.06-.25,0a.87.87,0,0,1-.29-.12,1.3,1.3,0,0,1-.15-.11,1.6,1.6,0,0,0-.19-.12.77.77,0,0,0-.25-.06.91.91,0,0,0-.37,0,.68.68,0,0,1-.29,0c-.2,0-.34-.15-.54-.17a1.43,1.43,0,0,1-.55-.11c-.14-.07-.15-.19-.23-.28s-.29-.14-.44-.2-.15,0-.16-.11.06-.1.12-.12a.83.83,0,0,0,.19-.08s0-.05,0-.1.15-.06.21-.09,0,0,.08-.1a.13.13,0,0,1,.11-.07s0,0,0,0h.08c.05,0,.06,0,.13,0a1.08,1.08,0,0,0,.19,0S822.82,616.35,822.88,616.38Zm25.7-34.63h0S848.57,581.75,848.58,581.75Zm-12.24,13.56h0l.13-.06h0l.13-.07a.1.1,0,0,0,0-.16h0s0,0,0-.06h0c.12,0,.26,0,.35-.11a.35.35,0,0,1,.12-.06l.12-.07h0c.11,0,0-.17.15-.22a1.43,1.43,0,0,1,.57.05,1.18,1.18,0,0,0,.42,0,.72.72,0,0,1,.55.09h0c.12.05.25.13.25,0h0a.14.14,0,0,1,0-.24l.1-.08s0,0,0,0,0,0,0,0v-.09l-.08-.11a.17.17,0,0,0,0-.07c-.08-.14,0-.17.16-.22h0a.17.17,0,0,1,.22.05.67.67,0,0,0,0,.15c0,.06.05.12,0,.18a1.44,1.44,0,0,0,.53-.08l.11-.06a.61.61,0,0,0,0-.08c-.06-.06-.06-.12,0-.15l.12-.06a.19.19,0,0,0,0-.26.06.06,0,0,0,0-.06.11.11,0,0,0,0-.17c-.11-.12,0-.24-.05-.34s-.33-.28-.27-.47a.56.56,0,0,1-.09-.11h0a.15.15,0,0,1,0-.25h0s0,0,0-.05v0s0-.06,0-.08,0,0,0,0,.08-.16.21-.19l-.13,0-.12.05a.29.29,0,0,1-.36-.15.27.27,0,0,1,0-.08.45.45,0,0,0-.18-.2s0,0,0-.06h0c-.19-.12-.22-.25-.08-.38s0-.16.11-.23l.12-.05c.31-.11.16-.32.14-.51a.1.1,0,0,0,0-.07c-.06-.05,0-.12-.08-.18l-.1-.1a.53.53,0,0,1-.1-.1c-.1-.07-.21-.16-.1-.24s.32.06.46.14a4.56,4.56,0,0,0,.41.34l.19.14a4.93,4.93,0,0,0,1,.55.45.45,0,0,0,.45,0c.12.08-.08.27.23.24,0-.11.07-.2.1-.31h.11c.09,0,.17,0,.2.08s0,.08-.11.11a.44.44,0,0,1-.14.19l0,0c.06.15.31.32,0,.42-.18.07-.39-.08-.57,0s-.06.12-.15.15-.09.1,0,.17.06.18-.14.14-.37-.16-.53-.26-.15-.06-.2-.12h0l-.16-.08h0a.47.47,0,0,0-.26,0,.26.26,0,0,1-.18,0,.44.44,0,0,1,.16.14l.11.1.1,0,0,.15a.18.18,0,0,1,.11,0l0,0,.06.05h0l.09,0,.1.1V592l.09.1s0,0,0,.06h0c.13.11.24.23.37.34a.38.38,0,0,1,.11.1,3.53,3.53,0,0,1,.27.38c.07.05,0,.13.09.19a.13.13,0,0,0,0,.08c.09.15-.07.28,0,.42h0c.1.14-.18.15-.18.26a.1.1,0,0,0,0,0,.39.39,0,0,1,.1.11h0c.07.05,0,.13.09.18s0,.13.08.19,0,.11,0,.16a.05.05,0,0,0,0,.05s0,0,0,0a.08.08,0,0,0,0,.08c.05.06,0,.12.07.18s.35.26.15.44c0,0,0,0,0,.05s0,0,0,0,0,.12,0,.16h0l-.12.06c-.18.08-.47-.21-.58.06a3.22,3.22,0,0,0-.79-.08.8.8,0,0,1-.38-.12c-.08.19-.31.32-.36.53a.33.33,0,0,1-.32-.06,2.9,2.9,0,0,1-.29-.23c-.19,0,0-.27-.28-.28h0c0,.11,0,.23,0,.35s-.18.15-.35,0a.21.21,0,0,0-.24,0,.2.2,0,0,0-.13.16l0,0c0,.06-.11.08-.21.06l-.11-.09-.07-.13a.82.82,0,0,1-.17.18c0,.14,0,.27-.08.41s0,.51-.49.33h0c-.06-.05-.16-.05-.21-.11a1.68,1.68,0,0,0-.16-.36c0-.2-.19-.34-.38-.48h0a.37.37,0,0,1-.1-.1c-.06-.05,0-.12-.09-.18C835.92,595.39,836.12,595.35,836.34,595.31Zm-18,15,.29.22a.86.86,0,0,1,.26.21,3.13,3.13,0,0,1,.21.26,1.13,1.13,0,0,1,.09.16s0,.12.07.15.13.11.22.16l.24.13.22.08a2.65,2.65,0,0,1,.23.13,4.5,4.5,0,0,1,.49.31l.14.12a1.83,1.83,0,0,1,.2.24.34.34,0,0,1,.07.3,1.37,1.37,0,0,0,0,.15.58.58,0,0,0,0,.18c0,.09.22.15.3.21s.1.26.14.36a.82.82,0,0,0,.41.43c.24.11.65.23.66.51a.46.46,0,0,1,0,.18s-.07.05-.09.08,0,.07,0,.1l0,.08c0,.07,0,.14-.06.21s0,.46-.13.67a.49.49,0,0,1-.38.22h-.2a1.48,1.48,0,0,1-.14,0,.4.4,0,0,1-.22,0l-.11,0s-.05-.06-.09-.1-.36-.18-.48-.31-.26-.49-.45-.71a1.07,1.07,0,0,0-.24-.26,1.43,1.43,0,0,1-.24-.13.94.94,0,0,1-.21-.24l-.09-.15a.76.76,0,0,1-.07-.2,1.16,1.16,0,0,0-.33-.42.54.54,0,0,1-.12-.14.89.89,0,0,1-.05-.25c0-.12,0-.25,0-.37v0a.71.71,0,0,0-.16-.24c-.07-.08-.19-.13-.24-.22a.31.31,0,0,1,0-.16.85.85,0,0,0,0-.22,1.08,1.08,0,0,0-.24-.51.89.89,0,0,0-.46-.35.44.44,0,0,1-.29-.19.13.13,0,0,1,0-.08l0-.09c0-.06,0-.14,0-.2s0-.07,0-.11,0-.05,0-.09-.07-.1-.09-.16a.72.72,0,0,0-.15-.17.64.64,0,0,0-.18-.1,4,4,0,0,1-.38-.18.81.81,0,0,1-.18-.16.83.83,0,0,1-.13-.16.54.54,0,0,1,0-.42c0-.05.06-.14.15-.12a.45.45,0,0,1,.18.11c.1.07.16.17.3.2s.29,0,.45,0a1.16,1.16,0,0,1,.4.14l.11.08s0,.06,0,.1a1.44,1.44,0,0,1,.11.21.58.58,0,0,0,.2.33C818.16,610.21,818.27,610.26,818.37,610.33Zm-8.24-10.16h0Zm-4,6.72a.05.05,0,0,0,0-.05c.07-.09,0-.21.07-.29h0a0,0,0,0,1,0,0s0,0,0,0,.06-.19-.08-.25-.06-.12,0-.16h.28a.28.28,0,0,1,.11.09.32.32,0,0,1,.1.08h0s0,0,0,0l.07.05h0c.06,0,0,.11.11.15h0c.08.08.13.17.2.25a1,1,0,0,1,.19.34c.06,0,.05.11.1.16a.34.34,0,0,1,.09.08h0c.12.09,0,.24.09.34s0,.08,0,.12,0,.2-.11.26a.32.32,0,0,1-.1.08l-.11.08c-.05.05-.15,0-.21.08a.17.17,0,0,0-.09,0,.32.32,0,0,1-.13.06h-.07a.15.15,0,0,1-.19,0,.42.42,0,0,1-.21-.16c-.06-.06-.05-.13-.08-.19a.07.07,0,0,0,0-.06c-.11-.13,0-.29-.08-.42a.07.07,0,0,0,0-.07A.72.72,0,0,1,806.14,606.89Zm24.66,13c-.22.2-.41.13-.59-.06h0l-.08-.09h0c-.06-.09-.2,0-.26-.12l0,0h0a.49.49,0,0,1-.1-.09c-.05-.07-.06-.13.06-.15a0,0,0,0,0,.06,0,.84.84,0,0,1,.67.12,1,1,0,0,0,.19.18h0l.08.11a.22.22,0,0,1,.08.11S830.8,619.85,830.8,619.86Zm1.18-.55h-.19a.08.08,0,0,1-.08,0l-.14,0a.13.13,0,0,1-.15,0c-.05,0,0-.11-.1,0a.28.28,0,0,1-.12,0c-.1,0-.22,0-.29-.09s-.31-.06-.45-.12-.25-.17,0-.28a.08.08,0,0,0,.06,0l.11,0a.4.4,0,0,1,.39,0h0c.06.09.21,0,.27.13h0a.55.55,0,0,0,.42.06h0a.13.13,0,0,1,.06.07.06.06,0,0,1,.06,0l.11,0,.1-.06h0l.12-.05a.06.06,0,0,0,0-.05c.06-.07.12,0,.19,0h0a2.89,2.89,0,0,0,.79.18l.06,0,0-.05.36.06c0,.21-.15.13-.27.12a.09.09,0,0,1,0,.08.34.34,0,0,1-.21,0l-.2-.08v0c0-.07-.1-.08-.17,0h0l-.13,0h-.06c-.1-.06-.2-.13-.32,0S832,619.28,832,619.31Zm3,.3a.19.19,0,0,1-.12.09c-.05,0-.14,0-.21,0h-.09l-.11.05c-.09.06-.22,0-.3,0s-.15,0-.21,0-.21,0-.29,0h0l-.12.05h-.05a.14.14,0,0,1-.06.05h0s-.07,0-.1.08h0l-.11.06h0l-.11.06-.13.05h-.19l-.11,0h0a.33.33,0,0,1-.37-.06c-.05-.06,0-.11.11-.14s0-.17.14-.23h0a1.13,1.13,0,0,1,.15-.12l.09,0,.1,0h0c.05-.08.16-.07.25-.09h.26s0,0,.07,0h0v0a.26.26,0,0,0,0,0l0-.05a.32.32,0,0,1,.22-.08h.1c.17-.09.35.08.52,0l.28,0c.14,0,.28,0,.37.1Zm.88-4.34c0-.08,0-.16,0-.24s.15-.06.24,0l.07-.07c0-.08,0-.16,0-.25a.05.05,0,0,1,0-.06.27.27,0,0,1,0-.09.25.25,0,0,1-.1-.13,1.82,1.82,0,0,1,.18-.47.08.08,0,0,0,0-.07c.06,0,.06-.11.13-.15s.06-.13.17-.13a.06.06,0,0,0,.06,0c.27.09-.06.19,0,.28s0,.09,0,.14l0,.05.05,0c.07,0,.16,0,.24,0h0a.24.24,0,0,1-.07.39.06.06,0,0,0-.06,0c-.08,0-.1.09,0,.15s.15.1.08.18l.08,0c0,.06-.12.05-.2,0a.11.11,0,0,0-.07,0v0h0c-.28-.07-.26.09-.29.22h0l0,0s0,.06,0,.09l.06.1a.18.18,0,0,0,0,.08l.08.09c0,.14-.11.13-.21,0h0l-.06,0h0a.12.12,0,0,1,0,0h0a.21.21,0,0,1-.21,0l-.08,0,0,0v0l-.08,0Zm2,2a.13.13,0,0,0,0,.06c-.06.06-.13,0-.19,0l-.09-.09h0c0-.07-.12-.06-.16-.11a.05.05,0,0,0-.05,0,.22.22,0,0,1-.13-.11.08.08,0,0,0-.09,0h0a.32.32,0,0,1-.29-.05.14.14,0,0,0-.08,0s-.09-.05-.14,0h0a.21.21,0,0,1-.28.08l0,0a.25.25,0,0,1,0,.06h0c-.11,0-.23,0-.29-.08v0l.24,0a1,1,0,0,1-.22-.14.11.11,0,0,0,0-.08c0-.09.07-.11.13-.14h0c.29-.2.63.08.94,0h.08c0,.06.14.06.19.12s.28,0,.37.16,0,.13.08.17h0l.07.11h0A.1.1,0,0,1,837.82,617.3ZM834,613.89h0Zm0,0h0Zm0,0h0Z"/><polygon class="cls-13" points="842.11 616.89 842.11 616.89 842.1 616.89 842.11 616.89"/><path class="cls-13" d="M840.86,617.48h0Z"/><path class="cls-14" d="M856,600.58c0,.28,0,.56,0,.84s0,.53,0,.79,0,.5,0,.75,0,.25,0,.38,0,.35,0,.52,0,.08,0,.12c0,.22,0,.43-.06.64s0,.18,0,.26,0,.38-.07.56,0,.11,0,.16q0,.33-.1.66a1.46,1.46,0,0,1,0,.16c0,.2-.06.41-.1.61s0,.15,0,.22-.07.39-.11.59l0,.19c0,.19-.08.39-.13.58s0,.14,0,.2-.05.24-.08.36l-.12.5q-.37,1.47-.86,2.89l-.15.41-.15.4c-.08.21-.16.42-.24.64l-.2.49-.1.25-.17.4-.17.39-.13.29-.19.41c-.09.21-.19.42-.3.63l-.2.41-.22.44-.1.19-.26.48-.28.51c-.21.38-.43.75-.66,1.11-.39.64-.8,1.26-1.23,1.87l-.26.37-.25.35-.36.48-.32.41-.4.51-.11.13c-.28.34-.57.68-.86,1q-.84.95-1.74,1.84l-.34.33-.31.3-.1.1a36.77,36.77,0,0,1-10.8,7l-1.1.45-.39.15-1.09.38-.53.17-.53.17-.54.16-.46.13-.62.17-.81.19-.69.15-.16,0-.23,0-.53.1-.14,0-.78.13a37.48,37.48,0,0,1-5.85.46h-1.67l-.47,0-.33,0h-.19l-.19,0h-.15l-.32,0h-.1l-.68-.07h0l-.41,0-.3,0h-.17l-.53-.08-.18,0h0l-.66-.11h-.15l-.08,0-.61-.12-.2,0-.71-.15-.47-.11-.23-.05-.08,0-.09,0-.38-.1-.23-.06-.14,0-.42-.12-.22-.06-.1,0-.74-.23-.29-.1-.42-.14-.12,0-.19-.07-.18-.06-.34-.12h0l0,0-.63-.24-.19-.08-.12,0-.19-.08-.18-.08-.1,0-.16-.07-.23-.1-.28-.12-.18-.08-.42-.19-.18-.08,0,0-.44-.21-.26-.13-.21-.11-.1-.05-.22-.11-.11-.06-.11-.05-.06,0-.19-.1-.46-.25-.06,0-.47-.26-.09-.05-.36-.21,0,0-.26-.16-.21-.13-.18-.11-.25-.16-.12-.08-.4-.26-.21-.14-.09-.06-.24-.16-.12-.08-.25-.18-.28-.2-.21-.15-.12-.09-.33-.24-.33-.25-.22-.18-.31-.24-.32-.26-.11-.09-.12-.11.25.06A37.09,37.09,0,0,0,829.89,619l.17-.17c.63-.64,1.23-1.3,1.81-2,.25-.3.5-.6.74-.91s.35-.44.51-.66l.41-.55.33-.46h0l.29-.42q.9-1.3,1.67-2.67a36.88,36.88,0,0,0,3.59-8.79,36,36,0,0,0,.89-4.45c.11-.76.19-1.53.24-2.31a35.34,35.34,0,0,0,.08-3.94c0-.11,0-.22,0-.32s0-.12,0-.19c0-.42,0-.84-.08-1.26q-.11-1.42-.34-2.85c-.07-.43-.14-.85-.23-1.28a36.26,36.26,0,0,0-1.31-4.92c-.11-.32-.22-.63-.34-.94q-.51-1.39-1.13-2.72l-.14-.28h0q-.57-1.2-1.23-2.35h0l-.12-.22,0-.09-.17-.29,0,0a37.13,37.13,0,0,0-5.77-7.38q-1.14-1.12-2.36-2.15l.64.15.63.16.56.16.18.05,1.21.38.07,0h0l.11,0,.45.16,0,0,.11,0,.13,0,.41.15.06,0,0,0,.27.1.27.11.63.25,0,0,.56.24h0l0,0,.58.26,0,0,.27.12.31.15.12.06.49.24.09,0,.2.11.31.16.42.23.14.08,0,0,.59.33h0l.57.34.06,0,.57.35.35.23.06,0,.1.06.15.1.46.31h0l.36.25.16.11h0l.05,0,.14.1,0,0,.05,0,.21.15.09.06h0l.17.13.08.06.15.11,0,0,.43.34.74.59.39.32.51.44.29.26.32.29.11.1.4.37.28.26.19.18.38.39.47.49q.48.5.94,1l.41.48.41.49,0,.06.4.5.42.54q.41.54.8,1.1l.32.47.1.15.21.31.14.22.13.2.12.19.35.56.08.14.06.11.26.45.06.1c.21.36.41.73.6,1.1l.11.2.06.11.12.25.14.29,0,.08.11.21.06.14.11.24.09.19,0,.09.15.34.16.37.22.52.12.28,0,.11c.09.21.17.42.25.64l.08.21,0,.09.16.45.09.27.06.18.15.46.12.36.06.21,0,.06,0,.14,0,.16.14.47,0,.12v0l.06.23,0,.09.12.47v0l.11.44.07.29,0,.19c0,.13.06.27.09.4l0,.08,0,.08v.05l0,.1,0,.13c0,.2.08.4.12.6s0,.21.06.31.08.46.12.69l0,.11q.13.84.22,1.68a.46.46,0,0,1,0,.08s0,.07,0,.11a.44.44,0,0,1,0,.06c0,.24,0,.48.07.72Q856,599,856,600.58Z"/><path class="cls-13" d="M804.75,570.26a33.42,33.42,0,0,0-18.84,35.5,33.42,33.42,0,0,1,23.65-31.86C807.92,572.75,806.36,571.48,804.75,570.26Z"/><path class="cls-15" d="M831.21,564.82c2.29-1.44,5.8-.65,7.85,1.77s1.86,5.55-.43,7-5.8.65-7.85-1.77-1.86-5.55.43-7Z"/><path class="cls-16" d="M838.87,573.9c-3,2-6.66-.74-6.71-.83l0-.08h0s4.67,2.36,7.06-.07a3.76,3.76,0,0,0,.84-1.36c.86-2.28-.61-4.48-.91-4.89a6.79,6.79,0,0,0-3.24-2.32,7.93,7.93,0,0,0-1.53-.27h-.43a10.2,10.2,0,0,1,2.21.17,6.16,6.16,0,0,1,3.44,2.51,5.48,5.48,0,0,1,1.17,4.63A4.65,4.65,0,0,1,838.87,573.9Z"/><path class="cls-17" d="M838.52,573.66c-3,2-6.66-.74-6.71-.83l0-.08-.09-.13a7.92,7.92,0,0,0,2.27,1.06,9.72,9.72,0,0,0,1.39.26,8.07,8.07,0,0,0,.93.06,4.17,4.17,0,0,0,2.72-1,4,4,0,0,0,1.1-1.72,4.13,4.13,0,0,0,.11-2,4.46,4.46,0,0,0-.14-.58,3.47,3.47,0,0,0-.16-.51c0-.08-.08-.19-.17-.37a5.46,5.46,0,0,0-.92-1.36h0l-.17-.18-.47-.44-.45-.39a6.85,6.85,0,0,0-2.07-1.1,5.87,5.87,0,0,0-1.8-.24h-.26a1.77,1.77,0,0,1-.3,0s.13-.06.13-.07a6.59,6.59,0,0,1,5.8,2.48,5.4,5.4,0,0,1,1.17,4.63A4.65,4.65,0,0,1,838.52,573.66Z"/><path class="cls-18" d="M810.26,563.22a35.56,35.56,0,0,0-26.59,33.5A35.56,35.56,0,0,1,814.59,568C813.1,566.44,811.71,564.8,810.26,563.22Z"/><path class="cls-19" d="M855.91,594.31l-.39.53q-.55.73-1.16,1.5c-3.86,4.81-7.35,6.91-10.42,7.12a7.47,7.47,0,0,1-4.52-1.07,9.3,9.3,0,0,1-2.39-2.14,15.71,15.71,0,0,1-2.87-5.88c-.07-.23-.14-.47-.21-.71a25,25,0,0,1-.74-3.4,32.81,32.81,0,0,1-.31-7.16c0-.55,0-1.07,0-1.64,0-.17,0-.34,0-.52,0-1-.75-1.87-.32-2.63a1.94,1.94,0,0,1,1.06-.79c.91-.33,1.43.57,2.34.3.59-.17.64-.58,1.09-.59h.19c.65.14,1.18,1.06,1.36,1.39a8.47,8.47,0,0,1,.86,2.6,41.49,41.49,0,0,1,.44,4.58c.07,1.11.16,2.29.32,3.53,0,.16,0,.31.06.46.07.53.15,1,.23,1.39l0,.19c0,.13.06.26.09.38h0a4,4,0,0,0,.94,2.14.6.6,0,0,0,.26.14c.48.12,1.12-.15,3.34-2.67,2.45-2.78,3-4,5-6.31.57-.68,1.06-1.27,1.5-1.78l.11.2.06.11.12.25.14.29,0,.08.11.21.18.37.53-.43Z"/><path class="cls-20" d="M799.84,565.75a37.83,37.83,0,0,0-12.07,29.74,37.88,37.88,0,0,1,7-26.45Z"/><path class="cls-21" d="M826.79,600.71c-.08.66-.19,1.34-.32,2h0c-.65,3.4-2,7-4.59,9.21l-.06,0-.23.06-.77.21c-.71.19-1.4.39-2.07.59-3.42,1-6.34,2.05-8.71,3a35.85,35.85,0,0,0-9.84,5.2c-.74.58-1.33,1.09-1.73,1.45a11.17,11.17,0,0,0-1.61,2,9.84,9.84,0,0,0-1,2.16,10.65,10.65,0,0,0-.42,2.36v.14l-.11-.09-.12-.11h0l-.72-.62-.37-.33-.36-.32-.5-.47-.18-.18-.35-.34-.29-.29c-.26-.27-.52-.54-.78-.82l-.38-.42-.37-.42-.72-.85,0,0-.34-.42-.35-.45-.26-.35a7.93,7.93,0,0,0-.11.85l-.18-.22h0l-.43-.52-.56-.72-.28-.36h0a37.44,37.44,0,0,1-2.77-4.35c.14-.37.29-.74.46-1.12h0a22.5,22.5,0,0,1,1.72-3.15s3.83-5.42,15.25-8.92l.3-.09s2.82-1.06,5.2-2.16h0c1.77-.82,3.3-1.65,3.25-2.09,0,0,0-.2,0-.49a6.23,6.23,0,0,0-.41-3.12,1.38,1.38,0,0,0-1.44-.77l-.82.29c-2.47.88-5.85,2.15-9.89,3.82l-.07,0c-1.89.78-2.46,1-2.82,1.21a32.18,32.18,0,0,0-7.87,5.37h0q-1.16,1.06-2.37,2.36a31.7,31.7,0,0,0-1.13,3.1h0c-.11.37-.23.76-.33,1.16h0c-.16.6-.3,1.23-.4,1.85l-.21-.49a37.55,37.55,0,0,1-2.1-6.5q.49-.72,1.07-1.44c-.05-.35-.1-.71-.15-1.06,0-.17,0-.33-.06-.5s0-.38-.06-.56h0q-.17-1.72-.18-3.42a16.55,16.55,0,0,0-1,1.56c-.1.17-.22.4-.37.68,0,0,0,0,0,0-.06-.58-.1-1.16-.13-1.74h0c0-.2,0-.39,0-.59v0c0-.34,0-.67,0-1h0a37.48,37.48,0,0,1,1.45-10.59l.66-.59a26.58,26.58,0,0,1,2.13-1.62c.35-.24.71-.48,1.1-.72q1.14-.72,2.53-1.46l.41-.22h0l.34-.18,1.28-.63c1.65-.79,3.54-1.58,5.69-2.36,0,0,.53-.12,1.38-.34,3.62-.94,13-3.71,11.68-6.68a2.38,2.38,0,0,0-.57-.75,56.54,56.54,0,0,1-6.51,1.11c-1.33.15-4.27.46-4.51.55l-.56.22h0a49.73,49.73,0,0,0-5.71,2.71l-1.38.78h0l-.92.55-.37.22q-1.35.83-2.78,1.79l-1.21.83q-1.62,1.14-3.34,2.46l1.49-4.91.43-1.41.11-.35a23.9,23.9,0,0,1,3.56-4.72c.52-.55,1.09-1.12,1.74-1.7h0A33.7,33.7,0,0,1,807.56,563a44.07,44.07,0,0,1,7.46-.21l1.19.08a10.37,10.37,0,0,1,2.81.57h0a10.19,10.19,0,0,1,4.88,3.44h0a10.9,10.9,0,0,1,1.81,3.71h0a18.11,18.11,0,0,1,.49,6.33s-1,4.53-4.21,6.68a6.69,6.69,0,0,1-.73.42,14.16,14.16,0,0,1,1.95,1.64h0a14.5,14.5,0,0,1,2.55,3.38A10.25,10.25,0,0,1,827,593.9,37.13,37.13,0,0,1,826.79,600.71Z"/><path class="cls-22" d="M793.34,593.17l-.06.06c-4.71,1.5-9.47,4-12,8.08,0,0-3.83,6.6-2.77,9.85l-3.36.33s.67-15.45,17.1-18.14Z"/><path class="cls-23" d="M779.43,577.09l2.65,2s11.28-10.75,26.83-8.63l-.08-2.61-12.21-1.47Z"/><path class="cls-24" d="M825.72,570.62h0a21.16,21.16,0,0,1-.4,3.82s-1.71,5-5.7,6.51a14.92,14.92,0,0,1,2.37,2.67,14.23,14.23,0,0,1,1.21,2.07h0a11,11,0,0,1,1.09,4.07,9.53,9.53,0,0,1,0,1.61,37.23,37.23,0,0,1-1.38,8.24,21.63,21.63,0,0,1-2.61,5.89,12.68,12.68,0,0,1-1.35,1.72,10.41,10.41,0,0,1-1.84,1.57A113.14,113.14,0,0,0,805,611.32a35.72,35.72,0,0,0-10.35,4.08c-.8.49-1.44.94-1.88,1.25A11.09,11.09,0,0,0,791.3,618c-.13.15-.26.3-.38.46a9.84,9.84,0,0,0-1.26,2,10.54,10.54,0,0,0-.62,2c-.06.26-.11.54-.14.82h0c0,.28-.06.57-.07.87a7.57,7.57,0,0,0,2,4.39v0a21.67,21.67,0,0,0,4,3.79l0,0a29.25,29.25,0,0,0,4.35,2.69s8.87,3.91,15,4.48v1.55h0c-.81-.08-12.76-1.3-22.25-5.63-4.49-2.05-8.42-4.8-10.36-8.45,0,0-7.69-8.65-.31-19.4q.49-.72,1.07-1.44l.13-.16a9,9,0,0,1,.87-.81h0a19.87,19.87,0,0,1,2.35-1.68l.37-.22a30.91,30.91,0,0,1,4.39-2.15,43.91,43.91,0,0,1,7.88-2.28l.57-.11s8.86-2.27,8.86-3.3c0,0,0-.15.08-.38.15-.79.43-2.62-.21-3.57a1.46,1.46,0,0,0-.21-.25,1.4,1.4,0,0,0-1-.35s-.48,0-1.32.08H805a53.66,53.66,0,0,0-11.76,2.21l-1.09.37-.4.14q-.74.27-1.48.58l-.11,0,0,0-.17.07-.07,0-.06,0-.09,0-.42.19h0l-.4.19-.32.16-.28.14-.47.25-.36.2h0l-.11.06-.3.17,0,0h0l-.19.11-.77.48h0l-.39.26-.15.11,0,0-.3.22-.29.22-.62.49-.29.25-.26.23-.05.05-.26.24-.27.27q-.46.47-.87,1l-.25.32h0l-.2.26h0l-.12.16c-.16.22-.3.44-.44.66,0,0-.36.62-.82,1.56-.87,1.78-2.13,4.73-2.13,7,0,.1,0,.19,0,.29h0a4.55,4.55,0,0,0,.06.56h0l.05.25h0a0,0,0,0,0,0,0v.09l0,.05,0,0-.15,0h0l-.31,0h0l-.8.13-1.52.25-.52.08-.13,0H775s-1.71-19.05,1.22-26.46c0,0,1-2.66,6.34-5.59a42.74,42.74,0,0,1,8-3.3l.14,0,.12,0L792,576q1.27-.36,2.67-.7s1-.12,2.51-.36l.33-.06.49-.08h0a44.72,44.72,0,0,0,6.33-1.51,13.33,13.33,0,0,0,2.69-1.19,2.7,2.7,0,0,0,1.44-1.69,1.56,1.56,0,0,0-.26-1.09,2.87,2.87,0,0,0-.28-.37s-2.59-1.09-8.06-.21q-.87.14-1.84.35t-1.76.43c-.74.2-1.52.43-2.34.7a59.4,59.4,0,0,0-7.32,3c-2.17,1.06-4.52,2.33-7,3.87l0-.11,2.7-6.3s10.64-15.83,34.57-11.27a10.83,10.83,0,0,1,6.95,4.42h0a10.34,10.34,0,0,1,1.36,3A13.82,13.82,0,0,1,825.72,570.62Z"/><path class="cls-25" d="M790.59,618.45c-.6.47-4.79,3.87-4.52,8.69.28,5.17,5.48,8.19,7.17,9.18,1.54.89,3.41,1.46,7.17,2.61,3.27,1,5.8,1.52,6.72,1.71a67.45,67.45,0,0,0,7.07,1l0-1.42A55.84,55.84,0,0,1,804,637.83a40.94,40.94,0,0,1-9-4.23,16.56,16.56,0,0,1-5.17-4.76,8.65,8.65,0,0,1-1.26-2.4C787.45,622.92,789.86,619.43,790.59,618.45Z"/><path class="cls-26" d="M814.16,639.58v1.55h0c-1.73-.23-3.82-.56-6.19-1.05-3.35-.7-5.85-1.45-6.72-1.71-3.75-1.14-5.63-1.71-7.16-2.61-1.69-1-6.89-4-7.17-9.18a8.72,8.72,0,0,1,1-4.5c.12-.23.24-.45.37-.66a13.47,13.47,0,0,1,2-2.52,12.86,12.86,0,0,1,1.13-1l-.11.15a12,12,0,0,0-2.11,4.66,8,8,0,0,0-.11.85,6.38,6.38,0,0,0,.25,2.32,8.7,8.7,0,0,0,1.26,2.4l.22.31a15.6,15.6,0,0,0,4,3.81l1,.64a41.41,41.41,0,0,0,9,4.24A55.86,55.86,0,0,0,814.16,639.58Z"/><path class="cls-27" d="M807.59,591.54h0c-.61,0-1.58,0-2.79,0a42.83,42.83,0,0,0-9.68,1.2,38.31,38.31,0,0,0-4.85,1.64l-.05,0,0,0-.17.07-.07,0-.06,0-.09,0-.42.19h0c-.63.28-1.22.56-1.82.89l-.51.29-.66.42-.24.17-.38.27-.15.11,0,0a17.93,17.93,0,0,0-3.67,3.73h0a16.55,16.55,0,0,0-1,1.56c-.1.17-.22.4-.37.68a18.31,18.31,0,0,0-1.57,4.36,19,19,0,0,0-.44,3.69,0,0,0,0,0,0,0v.09l0,.05a.15.15,0,0,1,0,0l-.07,0-.08,0h0l-.31,0h0a7.18,7.18,0,0,0-.8.13l-1.52.25-.52.08v0c0-.07,0-.14,0-.2l0-.15a27.71,27.71,0,0,1,5.05-10.79q.62-.79,1.33-1.55l0,0,.16-.17.06-.07.68-.68q.69-.66,1.47-1.29a22,22,0,0,1,1.85-1.33l.63-.4.13-.08c.34-.21.68-.39,1-.57l.06,0,.29-.15a31.55,31.55,0,0,1,3.59-1.54,32.43,32.43,0,0,1,13.62-1.87c.78.06,1.48.14,2.09.22.06.1.11.21.17.31l0,.09S807.56,591.49,807.59,591.54Z"/><path class="cls-28" d="M807.48,591.3l-.27,0a30.82,30.82,0,0,0-15,1.41,25.41,25.41,0,0,0-8.45,4.75,25.7,25.7,0,0,0-8,14.21l-.48.08-.17,0a27.5,27.5,0,0,1,3.35-8.51,26.21,26.21,0,0,1,2.3-3.24c.17-.2.47-.55.91-1l0,0c.21-.22,1.06-1.09,1.66-1.62a24.16,24.16,0,0,1,5.82-3.74c.29-.13,1.12-.51,2.44-1a33.38,33.38,0,0,1,4.38-1.3,31.9,31.9,0,0,1,6.07-.72,32.39,32.39,0,0,1,5.25.31l.06.1.06.1Z"/><path class="cls-29" d="M859.75,603.07l-2.19.09s.2-7.63-3-5.22l3.15-3.75Z"/><path class="cls-30" d="M859.75,603.07s-.68-8.88-2.66-7.39a4.22,4.22,0,0,0-2.08,1.94s2.48-3.42,3-.24c0,0,1,5.34,1.67,5.69Z"/><path class="cls-31" d="M860.06,598.09c0,.26,0,.52,0,.77s0,.8,0,1.19,0,.68-.06,1,0,.39-.05.58,0,.26,0,.38,0,.06,0,.09c0,.29-.06.59-.1.88h0v0a29.15,29.15,0,0,1-1.12-3.49c-.61-2.44-.58-3.66-1.21-3.84a.53.53,0,0,0-.3,0,1.48,1.48,0,0,0-.54.28,6.76,6.76,0,0,0-.8.75c-.19.21-.41.44-.64.71l-.27.32-.3.35c-.54.65-1.17,1.42-1.89,2.31l-.72,1-.94,1.25c-.44.57-.87,1.14-1.31,1.68l-.48.58q-.4.47-.8.92c-3.74,4.14-7,5.85-9.78,5.89a6.89,6.89,0,0,1-2.81-.52l-.32-.14a6.87,6.87,0,0,1-1.1-.66L834,610c-.17-.15-.34-.3-.5-.47a9.31,9.31,0,0,1-.93-1.1,13.89,13.89,0,0,1-2.28-5.19c-.07-.33-.13-.63-.18-.9-.13-.76-.27-1.55-.39-2.38a51,51,0,0,1-.63-8c0-.29,0-.59,0-.89s0-.65,0-1c0-.64.09-1.2.11-1.43,0-.38.06-.76.09-1.12.19-2.12.42-3.86.6-5.11v0l0-.18a19.5,19.5,0,0,1,1.67-4.79,4.72,4.72,0,0,1,.79-.85,2.8,2.8,0,0,1,.32-.22,2.42,2.42,0,0,1,.93-.31,3.55,3.55,0,0,1,2.29.12,3.31,3.31,0,0,1,1.09.74h0c.1.1.19.2.26.3s.23.31.3.41a4.39,4.39,0,0,1,.53,1.07,3.39,3.39,0,0,1,.17,1.22c0,.26,0,.55-.06.89s-.05.55-.08.89c-.06.76-.08,1.52-.13,2.28-.06,1.07-.11,2-.15,3.11-.06,1.6-.06,2.79-.06,3.69,0,.16,0,1.3.06,2.81,0,.34,0,.63,0,.89a6.15,6.15,0,0,0,.28,1.56l.06.16c.46,1.26,1,1.53,1.24,1.61a1.65,1.65,0,0,0,.57.1h.22a4.62,4.62,0,0,0,2.54-1.74,18.1,18.1,0,0,0,1.78-2c1.87-2.73,4.55-6.64,7.82-9.38h0l.53-.43a14.6,14.6,0,0,1,3.59-2.12,37.44,37.44,0,0,1,3,9.65c0,.16.05.33.08.5s0,.31.07.46.07.51.1.76.08.69.11,1Q860.06,596.35,860.06,598.09Z"/><path class="cls-5" d="M880.75,596.79l.15,0a32.21,32.21,0,0,1,4.23-3.85,14.17,14.17,0,0,1,3.49-1.83,11.74,11.74,0,0,1,3.94-.64,11.2,11.2,0,0,1,6.67,2,12.51,12.51,0,0,1,4.29,5.94,27.41,27.41,0,0,1,1.51,9.7,24.82,24.82,0,0,1-1.8,10,13.08,13.08,0,0,1-5.31,6.18,15.92,15.92,0,0,1-8.31,2.09,25,25,0,0,1-5.07-.49,22.22,22.22,0,0,1-5-1.73L877,626.41l-2.51-.58V586.32q0-3.49-.05-4.87a12,12,0,0,0-.29-2.35,4.08,4.08,0,0,0-.65-1.51,2.94,2.94,0,0,0-1.13-.87,11.84,11.84,0,0,0-2.56-.65v-1.89l8.8-.36h2.14Zm0,16a30.59,30.59,0,0,0,.25,4.45,8.31,8.31,0,0,0,.85,2.74,6.68,6.68,0,0,0,1.74,2,6.59,6.59,0,0,0,2.56,1.25,13.4,13.4,0,0,0,3.16.34,7.34,7.34,0,0,0,6.61-3.56q2.25-3.56,2.25-10.69t-2.05-10.81a6.68,6.68,0,0,0-6.2-3.62,8.76,8.76,0,0,0-3.53.64,10.34,10.34,0,0,0-2.89,2,10,10,0,0,0-2.11,2.65,6.43,6.43,0,0,0-.67,3Z"/><path class="cls-5" d="M912.33,624a12,12,0,0,0,2-.76,3,3,0,0,0,1-.91,4.66,4.66,0,0,0,.65-1.78,21.35,21.35,0,0,0,.24-3.74V601q0-2.32-.07-3.74a5.67,5.67,0,0,0-.51-2.27,2.77,2.77,0,0,0-1.33-1.27,10.59,10.59,0,0,0-2.53-.71v-1.93l8.47-.33h2.22v26a21.67,21.67,0,0,0,.29,4.34,3.18,3.18,0,0,0,1.11,1.85,7.49,7.49,0,0,0,2.67,1.11v1.78H912.33Zm10.39-47.21v7.05H916v-7.05Z"/><path class="cls-5" d="M942.76,596.79l.15,0a35.31,35.31,0,0,1,4.49-4,14.2,14.2,0,0,1,3.27-1.73,10.21,10.21,0,0,1,3.47-.58,12.35,12.35,0,0,1,3.56.47,7.94,7.94,0,0,1,2.74,1.43,7.65,7.65,0,0,1,1.93,2.36,11.64,11.64,0,0,1,1.11,3.34,27.64,27.64,0,0,1,.36,4.92v13.7a22.12,22.12,0,0,0,.27,4.31,3.36,3.36,0,0,0,1,1.78,7.58,7.58,0,0,0,2.85,1.22v1.78H953.62V624a12.82,12.82,0,0,0,2-.76,3,3,0,0,0,1-.91,4.68,4.68,0,0,0,.65-1.8,21.12,21.12,0,0,0,.24-3.69v-9.52a42.07,42.07,0,0,0-.49-7.4,6.61,6.61,0,0,0-1.93-3.83,5.86,5.86,0,0,0-4-1.27,6.47,6.47,0,0,0-2.62.51,11.41,11.41,0,0,0-2.69,1.82,10.29,10.29,0,0,0-2.31,2.69,5.89,5.89,0,0,0-.78,2.94v13.92a33.45,33.45,0,0,0,.13,3.53,5.23,5.23,0,0,0,.49,1.76,2.92,2.92,0,0,0,1.11,1.16,8.87,8.87,0,0,0,2.31.85v1.78H932.4V624a10.38,10.38,0,0,0,2.29-.84,3,3,0,0,0,1.07-1,4.88,4.88,0,0,0,.56-1.78,26.44,26.44,0,0,0,.18-3.67V586.32q0-3.49-.05-4.87a12,12,0,0,0-.29-2.35,4.08,4.08,0,0,0-.65-1.51,2.94,2.94,0,0,0-1.13-.87,11.84,11.84,0,0,0-2.56-.65v-1.89l8.76-.36h2.18Z"/><path class="cls-5" d="M995.1,620.63l-.55-.15a22.18,22.18,0,0,1-5.94,4.58,13.4,13.4,0,0,1-5.91,1.34,10.59,10.59,0,0,1-4.87-1.07,7.63,7.63,0,0,1-3.23-3,8.79,8.79,0,0,1-1.13-4.49q0-5.31,5.25-8.2t15.76-3.36v-2.36a19.53,19.53,0,0,0-.73-6,5.86,5.86,0,0,0-2.29-3.2,7.58,7.58,0,0,0-4.18-1,6.74,6.74,0,0,0-4.56,1.49,9.12,9.12,0,0,0-2.6,4.47h-4.76V595a51.76,51.76,0,0,1,5.82-2.67,33.71,33.71,0,0,1,4.65-1.35,22.92,22.92,0,0,1,4.72-.49,12.48,12.48,0,0,1,5.78,1.14,7.28,7.28,0,0,1,3.27,3.51,17.8,17.8,0,0,1,1.09,7.12v12.65q0,2.69,0,3.8a12.94,12.94,0,0,0,.22,2.05,4.27,4.27,0,0,0,.55,1.51,3,3,0,0,0,1.07,1,10.83,10.83,0,0,0,2.31.84v1.78h-10Zm-.62-11.38q-7.38.07-11,2a6.09,6.09,0,0,0-3.67,5.71,5.63,5.63,0,0,0,.84,3.27,4.29,4.29,0,0,0,2.11,1.65,9,9,0,0,0,3,.46,8.62,8.62,0,0,0,4.49-1.2,9,9,0,0,0,3.14-3.05,7,7,0,0,0,1.13-3.67Z"/><path class="cls-5" d="M1020.25,596.68l.51.15a44.33,44.33,0,0,1,3.58-3.29,16.74,16.74,0,0,1,2.71-1.78,11.83,11.83,0,0,1,2.45-1,9.52,9.52,0,0,1,2.35-.29,9.81,9.81,0,0,1,5.92,1.67,8.7,8.7,0,0,1,3.16,5.12,48.32,48.32,0,0,1,4.42-4.07,14.43,14.43,0,0,1,3.45-2,10.06,10.06,0,0,1,3.8-.71,11.2,11.2,0,0,1,4.2.71,7.36,7.36,0,0,1,3,2.18,9.28,9.28,0,0,1,1.78,3.69,25.18,25.18,0,0,1,.56,6v13.7a26.29,26.29,0,0,0,.18,3.82,4.87,4.87,0,0,0,.53,1.64,2.93,2.93,0,0,0,1,1,9.7,9.7,0,0,0,2.33.85v1.78H1051.9V624a12.85,12.85,0,0,0,2-.76,3,3,0,0,0,1-.91,4.66,4.66,0,0,0,.65-1.8,21.11,21.11,0,0,0,.24-3.69v-9.52q0-3.09-.16-5.11a17.08,17.08,0,0,0-.51-3.22,5.64,5.64,0,0,0-1.94-3.09,4.73,4.73,0,0,0-1.45-.8,6.94,6.94,0,0,0-2.22-.29,6.37,6.37,0,0,0-2.71.58,10.81,10.81,0,0,0-2.73,2,9.33,9.33,0,0,0-2.13,2.78,7.71,7.71,0,0,0-.65,3.29v13.27a26.29,26.29,0,0,0,.18,3.82,4.87,4.87,0,0,0,.53,1.64,2.93,2.93,0,0,0,1,1,9.7,9.7,0,0,0,2.33.85v1.78h-14.28V624a12.85,12.85,0,0,0,2-.76,3,3,0,0,0,1-.91,4.66,4.66,0,0,0,.65-1.8,21.11,21.11,0,0,0,.24-3.69v-9.52q0-3.23-.18-5.27a16.46,16.46,0,0,0-.56-3.27,6.17,6.17,0,0,0-1-2,5.18,5.18,0,0,0-1.22-1.16,4.64,4.64,0,0,0-1.45-.6,8.13,8.13,0,0,0-1.89-.2,6,6,0,0,0-2.8.67,12.12,12.12,0,0,0-2.67,1.95,9.46,9.46,0,0,0-2.05,2.65,6.57,6.57,0,0,0-.69,3v13.63q0,2.07.11,3.16a6.9,6.9,0,0,0,.34,1.71,3,3,0,0,0,.6,1,3.9,3.9,0,0,0,1,.73,10.84,10.84,0,0,0,2,.71v1.78h-14.25V624a12.19,12.19,0,0,0,2-.76,3.21,3.21,0,0,0,1-.91,4.28,4.28,0,0,0,.65-1.78,23,23,0,0,0,.22-3.74V601q0-2.32-.07-3.74a5.68,5.68,0,0,0-.51-2.27,2.77,2.77,0,0,0-1.33-1.27,10.57,10.57,0,0,0-2.53-.71v-1.93l8.5-.33h2.22Z"/><path class="cls-5" d="M1093.38,620.63l-.55-.15a22.18,22.18,0,0,1-5.94,4.58,13.4,13.4,0,0,1-5.91,1.34,10.59,10.59,0,0,1-4.87-1.07,7.63,7.63,0,0,1-3.23-3,8.79,8.79,0,0,1-1.13-4.49q0-5.31,5.25-8.2t15.76-3.36v-2.36a19.53,19.53,0,0,0-.73-6,5.86,5.86,0,0,0-2.29-3.2,7.58,7.58,0,0,0-4.18-1,6.74,6.74,0,0,0-4.56,1.49,9.12,9.12,0,0,0-2.6,4.47h-4.76V595a51.76,51.76,0,0,1,5.82-2.67,33.71,33.71,0,0,1,4.65-1.35,22.92,22.92,0,0,1,4.72-.49,12.48,12.48,0,0,1,5.78,1.14,7.28,7.28,0,0,1,3.27,3.51,17.8,17.8,0,0,1,1.09,7.12v12.65q0,2.69,0,3.8a12.94,12.94,0,0,0,.22,2.05,4.27,4.27,0,0,0,.55,1.51,3,3,0,0,0,1.07,1,10.83,10.83,0,0,0,2.31.84v1.78h-10Zm-.62-11.38q-7.38.07-11,2a6.09,6.09,0,0,0-3.67,5.71,5.63,5.63,0,0,0,.84,3.27,4.29,4.29,0,0,0,2.11,1.65,9,9,0,0,0,3,.46,8.62,8.62,0,0,0,4.49-1.2,9,9,0,0,0,3.14-3.05,7,7,0,0,0,1.13-3.67Z"/></svg>