<svg id="Layer_1" data-name="Layer 1" xmlns="http://www.w3.org/2000/svg" xmlns:xlink="http://www.w3.org/1999/xlink" viewBox="0 0 1920 1080"><defs><style>.cls-1{fill:#ececec;}.cls-2{fill:#e7e7e7;}.cls-3{fill:#e1e1e1;}.cls-4{fill:#1ca0a4;}.cls-5{fill:#f5f5f5;}.cls-6{opacity:0.6;}.cls-12,.cls-18,.cls-7{fill:#fff;}.cls-8{fill:#1a2e35;}.cls-9{opacity:0.2;}.cls-10{fill:#007cff;}.cls-11{fill:#4870ba;}.cls-12{font-size:113.7px;font-family:Arial-BoldMT, Arial;font-weight:700;}.cls-13{fill:#01a0a4;}.cls-14{opacity:0.1;}.cls-15,.cls-16,.cls-17,.cls-19,.cls-29,.cls-30,.cls-31{fill-rule:evenodd;}.cls-15{fill:url(#linear-gradient);}.cls-16{fill:url(#radial-gradient);}.cls-17{fill:url(#radial-gradient-2);}.cls-18{opacity:0.3;}.cls-19{fill:url(#linear-gradient-2);}.cls-20{fill:#595b5d;}.cls-21{fill:url(#linear-gradient-3);}.cls-22{fill:url(#radial-gradient-3);}.cls-23{fill:url(#radial-gradient-4);}.cls-24{fill:url(#linear-gradient-4);}.cls-25{fill:url(#radial-gradient-5);}.cls-26{fill:url(#radial-gradient-6);}.cls-27{fill:url(#radial-gradient-7);}.cls-28{fill:url(#radial-gradient-8);}.cls-29{fill:url(#radial-gradient-9);}.cls-30{fill:url(#radial-gradient-10);}.cls-31{fill:url(#linear-gradient-5);}</style><linearGradient id="linear-gradient" x1="1976.97" y1="2393.67" x2="1936.91" y2="2389.98" gradientTransform="translate(-2174.78 -131.84) rotate(-37.71)" gradientUnits="userSpaceOnUse"><stop offset="0.02" stop-color="#f27221"/><stop offset="0.31" stop-color="#f27323"/><stop offset="0.45" stop-color="#f3782b"/><stop offset="0.56" stop-color="#f38038"/><stop offset="0.65" stop-color="#f48c4a"/><stop offset="0.73" stop-color="#f69b62"/><stop offset="0.8" stop-color="#f8ae80"/><stop offset="0.87" stop-color="#fac5a3"/><stop offset="0.93" stop-color="#fcdecc"/><stop offset="0.99" stop-color="#fffbf9"/><stop offset="1" stop-color="#fff"/></linearGradient><radialGradient id="radial-gradient" cx="2418.09" cy="1176.01" r="9.08" gradientTransform="translate(-1855.28 575.71) rotate(-26.02)" gradientUnits="userSpaceOnUse"><stop offset="0" stop-color="#fcf0e9"/><stop offset="0.06" stop-color="#f9decf"/><stop offset="0.25" stop-color="#efa77e"/><stop offset="0.42" stop-color="#e87e43"/><stop offset="0.53" stop-color="#e4651e"/><stop offset="0.6" stop-color="#e25b10"/></radialGradient><radialGradient id="radial-gradient-2" cx="3198.96" cy="2693.93" r="10.38" gradientTransform="matrix(0.68, -0.48, 0.48, 0.68, -2655.66, 292.01)" gradientUnits="userSpaceOnUse"><stop offset="0.32" stop-color="#e25b10"/><stop offset="0.36" stop-color="#e35e15"/><stop offset="0.41" stop-color="#e46823"/><stop offset="0.47" stop-color="#e77739"/><stop offset="0.53" stop-color="#eb8d59"/><stop offset="0.58" stop-color="#f0aa83"/><stop offset="0.64" stop-color="#f6ccb4"/><stop offset="0.7" stop-color="#fcf0e9"/></radialGradient><linearGradient id="linear-gradient-2" x1="858.78" y1="596.31" x2="785.99" y2="572.79" gradientUnits="userSpaceOnUse"><stop offset="0" stop-color="#fff"/><stop offset="0.05" stop-color="#e3e4e4"/><stop offset="0.13" stop-color="#bfc0c1"/><stop offset="0.22" stop-color="#a0a2a2"/><stop offset="0.32" stop-color="#87898a"/><stop offset="0.42" stop-color="#747677"/><stop offset="0.55" stop-color="#666869"/><stop offset="0.7" stop-color="#5e6061"/><stop offset="0.98" stop-color="#5c5e5f"/><stop offset="1" stop-color="#5b5d5e"/></linearGradient><linearGradient id="linear-gradient-3" x1="853.97" y1="596.43" x2="773.44" y2="591.96" gradientUnits="userSpaceOnUse"><stop offset="0" stop-color="#fff"/><stop offset="0.13" stop-color="#d4d4d4"/><stop offset="0.27" stop-color="#a9aaab"/><stop offset="0.42" stop-color="#88898a"/><stop offset="0.55" stop-color="#707172"/><stop offset="0.68" stop-color="#616364"/><stop offset="0.78" stop-color="#5c5e5f"/><stop offset="1" stop-color="#5b5d5e"/></linearGradient><radialGradient id="radial-gradient-3" cx="781.3" cy="599.46" r="16.55" gradientUnits="userSpaceOnUse"><stop offset="0.08" stop-color="#08b4ea"/><stop offset="0.17" stop-color="#02aae4"/><stop offset="0.25" stop-color="#02ade8"/><stop offset="0.29" stop-color="#02a5df"/><stop offset="0.35" stop-color="#0390c7"/><stop offset="0.44" stop-color="#046ea1"/><stop offset="0.53" stop-color="#063f6b"/><stop offset="0.55" stop-color="#063863"/><stop offset="0.83" stop-color="#062952"/><stop offset="1" stop-color="#062149"/></radialGradient><radialGradient id="radial-gradient-4" cx="790.43" cy="571.51" r="23.65" gradientTransform="translate(0 177.22) scale(1 0.69)" gradientUnits="userSpaceOnUse"><stop offset="0.11" stop-color="#fcf0e9"/><stop offset="0.13" stop-color="#fae3d6"/><stop offset="0.16" stop-color="#f5c7ad"/><stop offset="0.2" stop-color="#f0ad87"/><stop offset="0.24" stop-color="#ec9667"/><stop offset="0.28" stop-color="#e9844b"/><stop offset="0.33" stop-color="#e67535"/><stop offset="0.39" stop-color="#e46924"/><stop offset="0.47" stop-color="#e36119"/><stop offset="0.57" stop-color="#e25c12"/><stop offset="0.86" stop-color="#e25b10"/></radialGradient><linearGradient id="linear-gradient-4" x1="761.04" y1="640.54" x2="839.51" y2="551.95" gradientUnits="userSpaceOnUse"><stop offset="0.6" stop-color="#f7981d"/><stop offset="1" stop-color="#fff"/></linearGradient><radialGradient id="radial-gradient-5" cx="779.5" cy="630.17" r="43.89" gradientUnits="userSpaceOnUse"><stop offset="0.01" stop-color="#fcf0e9"/><stop offset="0.02" stop-color="#fceee5"/><stop offset="0.25" stop-color="#f3ba9a"/><stop offset="0.45" stop-color="#eb915f"/><stop offset="0.63" stop-color="#e67434"/><stop offset="0.76" stop-color="#e3621a"/><stop offset="0.84" stop-color="#e25b10"/></radialGradient><radialGradient id="radial-gradient-6" cx="796.11" cy="625.08" r="16.51" gradientUnits="userSpaceOnUse"><stop offset="0.09" stop-color="#fcf0e9"/><stop offset="0.36" stop-color="#efa87f"/><stop offset="0.58" stop-color="#e6712f"/><stop offset="0.68" stop-color="#e25b10"/></radialGradient><radialGradient id="radial-gradient-7" cx="784.97" cy="598.46" r="30.56" gradientUnits="userSpaceOnUse"><stop offset="0.09" stop-color="#fcf0e9"/><stop offset="0.09" stop-color="#fbebe2"/><stop offset="0.12" stop-color="#f6cdb7"/><stop offset="0.15" stop-color="#f1b28f"/><stop offset="0.18" stop-color="#ed9a6c"/><stop offset="0.22" stop-color="#ea874f"/><stop offset="0.26" stop-color="#e77738"/><stop offset="0.3" stop-color="#e56a26"/><stop offset="0.36" stop-color="#e36119"/><stop offset="0.43" stop-color="#e25c12"/><stop offset="0.6" stop-color="#e25b10"/></radialGradient><radialGradient id="radial-gradient-8" cx="783.48" cy="605.32" r="12.91" gradientTransform="translate(2.1 -3.92) rotate(-0.22)" gradientUnits="userSpaceOnUse"><stop offset="0.32" stop-color="#fcf0e9"/><stop offset="0.41" stop-color="#fcede5"/><stop offset="0.5" stop-color="#fae5d9"/><stop offset="0.59" stop-color="#f8d8c6"/><stop offset="0.67" stop-color="#f4c5aa"/><stop offset="0.76" stop-color="#f0ac86"/><stop offset="0.85" stop-color="#eb8e5b"/><stop offset="0.93" stop-color="#e56c28"/><stop offset="0.97" stop-color="#e25b10"/></radialGradient><radialGradient id="radial-gradient-9" cx="848.41" cy="596.6" r="16.95" gradientUnits="userSpaceOnUse"><stop offset="0.03" stop-color="#fcf0e9"/><stop offset="0.04" stop-color="#fae4d8"/><stop offset="0.09" stop-color="#f4c0a3"/><stop offset="0.14" stop-color="#eea176"/><stop offset="0.19" stop-color="#ea8851"/><stop offset="0.24" stop-color="#e67435"/><stop offset="0.29" stop-color="#e46620"/><stop offset="0.33" stop-color="#e25e14"/><stop offset="0.38" stop-color="#e25b10"/></radialGradient><radialGradient id="radial-gradient-10" cx="850.26" cy="596.6" r="7.99" gradientUnits="userSpaceOnUse"><stop offset="0.01" stop-color="#fcf0e9"/><stop offset="0.07" stop-color="#fae5d8"/><stop offset="0.61" stop-color="#e98249"/><stop offset="0.84" stop-color="#e25b10"/></radialGradient><linearGradient id="linear-gradient-5" x1="870.94" y1="613.19" x2="808.68" y2="575.32" xlink:href="#linear-gradient-4"/></defs><title>error</title><rect class="cls-1" x="385.64" y="809.21" width="1154.72" height="0.58"/><path class="cls-1" d="M933,706.22H487.06A13.2,13.2,0,0,1,473.88,693V66.18A13.2,13.2,0,0,1,487.06,53H933a13.2,13.2,0,0,1,13.18,13.18V693A13.2,13.2,0,0,1,933,706.22ZM487.06,53.58a12.62,12.62,0,0,0-12.6,12.6V693a12.62,12.62,0,0,0,12.6,12.6H933a12.62,12.62,0,0,0,12.6-12.6V66.18A12.62,12.62,0,0,0,933,53.58Z"/><path class="cls-1" d="M1432.53,706.22H986.58A13.2,13.2,0,0,1,973.4,693V66.18A13.2,13.2,0,0,1,986.58,53h445.95a13.2,13.2,0,0,1,13.18,13.18V693A13.2,13.2,0,0,1,1432.53,706.22ZM986.58,53.58A12.62,12.62,0,0,0,974,66.18V693a12.62,12.62,0,0,0,12.6,12.6h445.95a12.62,12.62,0,0,0,12.61-12.6V66.18a12.62,12.62,0,0,0-12.61-12.6Z"/><rect class="cls-1" x="504.07" y="831.21" width="60.04" height="0.58"/><rect class="cls-1" x="720.86" y="824.94" width="103.99" height="0.58"/><rect class="cls-1" x="566.42" y="852.65" width="140.39" height="0.58"/><rect class="cls-1" x="1377.51" y="848.77" width="44.42" height="0.58"/><rect class="cls-1" x="1229.26" y="848.77" width="127.69" height="0.58"/><rect class="cls-1" x="979.27" y="839.02" width="171.98" height="0.58"/><path class="cls-2" d="M826.36,423.63,797.13,809.22h281.7l29.22-385.58ZM1003.5,696.17c-2.38,31.45-29.81,56.95-61.27,56.95s-55-25.5-52.63-56.95l10.27-135.56c2.38-31.45,29.81-57,61.27-57a52.07,52.07,0,0,1,52.63,57Z"/><polygon class="cls-2" points="1168.25 809.21 757.47 809.21 759.84 783.92 1170.62 783.92 1168.25 809.21"/><path class="cls-3" d="M1326.1,666h36.37a3.57,3.57,0,0,0,3.59-3.78l-.13-2.58a4,4,0,0,0-4-3.78h-36.37a3.57,3.57,0,0,0-3.59,3.78l.13,2.58A4,4,0,0,0,1326.1,666Z"/><path class="cls-3" d="M1265.27,666h36.37a3.57,3.57,0,0,0,3.59-3.78l-.13-2.58a4,4,0,0,0-4-3.78h-36.37a3.57,3.57,0,0,0-3.59,3.78l.13,2.58A4,4,0,0,0,1265.27,666Z"/><path class="cls-4" d="M1390.77,663.19h-849a18.85,18.85,0,0,1-18.62-17.73l-25.56-510a16.7,16.7,0,0,1,16.84-17.73h849A18.85,18.85,0,0,1,1382,135.49l25.56,510A16.7,16.7,0,0,1,1390.77,663.19Z"/><path class="cls-4" d="M1401.17,663.19h-849a18.85,18.85,0,0,1-18.62-17.73L508,135.49a16.7,16.7,0,0,1,16.84-17.73h849a18.85,18.85,0,0,1,18.62,17.73l25.56,510A16.7,16.7,0,0,1,1401.17,663.19Z"/><path class="cls-5" d="M557.13,627.6,533.36,153.36a10.47,10.47,0,0,1,10.55-11.11H1357.2a11.81,11.81,0,0,1,11.67,11.11l23.77,474.24a10.46,10.46,0,0,1-10.55,11.11H568.8A11.81,11.81,0,0,1,557.13,627.6Z"/><path class="cls-5" d="M583.47,166.51a9.26,9.26,0,0,1-9.34,9.83,10.45,10.45,0,0,1-10.32-9.83,9.26,9.26,0,0,1,9.34-9.83A10.45,10.45,0,0,1,583.47,166.51Z"/><path class="cls-5" d="M628,166.51a9.26,9.26,0,0,1-9.34,9.83,10.45,10.45,0,0,1-10.32-9.83,9.26,9.26,0,0,1,9.34-9.83A10.45,10.45,0,0,1,628,166.51Z"/><path class="cls-5" d="M672.49,166.51a9.26,9.26,0,0,1-9.34,9.83,10.45,10.45,0,0,1-10.32-9.83,9.26,9.26,0,0,1,9.34-9.83A10.45,10.45,0,0,1,672.49,166.51Z"/><g class="cls-6"><polygon class="cls-7" points="641.7 638.71 758.9 638.71 866.06 142.25 748.86 142.25 641.7 638.71"/><polygon class="cls-7" points="1146.1 638.71 1175.76 638.71 1282.92 142.25 1253.26 142.25 1146.1 638.71"/><polygon class="cls-7" points="784.96 638.71 951.25 638.71 1058.4 142.25 892.12 142.25 784.96 638.71"/></g><ellipse id="_Path_" data-name="&lt;Path&gt;" class="cls-5" cx="963" cy="887.36" rx="447.77" ry="26.15"/><path class="cls-8" d="M1218.43,533.59c-.28,0-.56,0-.84,0-61.51-5-103.85-57.61-105.62-59.85a10.32,10.32,0,0,1,16.16-12.83c.5.62,36.73,45.29,86.89,51.67,16.27-16.15,30-58.85,28.48-71.77,0-.12,0-.24,0-.36-.34-4.16-1.11-18.39,3-26.89a10.32,10.32,0,1,1,18.59,8.94c-1,2.12-1.5,9.79-1,16.15,2.3,21.25-16.13,74.88-39.27,92.81A10.31,10.31,0,0,1,1218.43,533.59Z"/><path class="cls-8" d="M729.34,477.63c-18.31,0-70.15-4.49-112.16-51.45a10.32,10.32,0,0,1-.59-13c16.66-22.42,46.1-75.38,50.68-92.64-1.89-3.27-5.32-8-9.57-10a10.32,10.32,0,0,1-5.88-8.32l-1.67-16.91a10.32,10.32,0,0,1,20.53-2L671.85,295c10.08,7.23,15.1,18.51,15.72,20a10.32,10.32,0,0,1,.75,5.22c-2.13,18.33-31.85,71.36-50.14,98.18,42.7,42.56,93.73,38.68,96,38.48A10.32,10.32,0,0,1,736,477.39C735.56,477.43,733.19,477.63,729.34,477.63Z"/><path class="cls-8" d="M1062,887h-27.64a10.32,10.32,0,0,1-9.94-13.08c7.23-26,10.77-47.07,13.43-80.15-9.78-46.07-19-88.25-19.1-88.67a10.31,10.31,0,1,1,20.15-4.41c.09.43,9.52,43.56,19.43,90.26a10.3,10.3,0,0,1,.19,3c-2.34,29.7-5.34,50.23-10.8,72.47H1062a10.32,10.32,0,0,1,0,20.63Z"/><path class="cls-8" d="M848.28,887H832.66a10.32,10.32,0,0,1-10.22-11.74c2.64-18.94,16.26-53.43,30.7-88.09,5.15-45.73,9.37-85,9.41-85.38a10.32,10.32,0,0,1,20.51,2.2c0,.4-4.35,40.55-9.59,87a10.33,10.33,0,0,1-.73,2.82c-10.25,24.54-21.92,53.45-27.26,72.61h2.77a10.32,10.32,0,1,1,0,20.63Z"/><path class="cls-7" d="M857.26,182.39,737,302.63c-6.05,133.29-5.55,273.28,0,418.44h397.6c-7.87-187.31-8.62-367.61,0-538.68Z"/><path class="cls-8" d="M1134.61,723.13H737a2.06,2.06,0,0,1-2.06-2c-5.77-150.72-5.77-291.56,0-418.61a2.06,2.06,0,0,1,.6-1.36L855.8,180.94a2.06,2.06,0,0,1,1.46-.6h277.36a2.06,2.06,0,0,1,2.06,2.17c-8.3,164.77-8.3,340.91,0,538.49a2.06,2.06,0,0,1-2.06,2.15ZM739,719h393.46c-8.18-196-8.19-370.88,0-534.56H858.11L739,303.53C733.34,429.7,733.32,569.47,739,719Z"/><path class="cls-4" d="M1063.32,663.86H1020a1.54,1.54,0,1,1,0-3.09h43.36a1.54,1.54,0,0,1,0,3.09Z"/><path class="cls-4" d="M1002,663.86H808.31a1.54,1.54,0,0,1,0-3.09H1002a1.54,1.54,0,0,1,0,3.09Z"/><path class="cls-9" d="M1128.62,399.2l-16.86,1.58a12.05,12.05,0,0,1-12.89-9.38l-23.39-104.8a12.05,12.05,0,0,1,8.71-14.29l45.24-11.87Z"/><path class="cls-9" d="M868.35,313.37c-11.75-32.1-23.51-83.43-11.09-131L737,302.63C771,314,825.17,319,868.35,313.37Z"/><path class="cls-7" d="M857.26,302.63c-13.18-38.94-7.81-91.87,0-120.24L737,302.63C773.42,309.26,814.08,308.22,857.26,302.63Z"/><path class="cls-8" d="M792,309.28a308.85,308.85,0,0,1-55.36-4.62,2.06,2.06,0,0,1-1.09-3.48L855.8,180.94a2.06,2.06,0,0,1,3.44,2c-7.27,26.42-13.28,79.92,0,119a2.06,2.06,0,0,1-1.69,2.7A512.59,512.59,0,0,1,792,309.28Zm-50.72-8c31.94,5.29,69.06,5.17,113.24-.38-10.87-34.49-8.41-80.14-1.09-111.77Z"/><path class="cls-8" d="M1270.4,478.31a3.45,3.45,0,0,1-3.33-2.58l-42.35-161.38a3.45,3.45,0,0,1,6.67-1.75L1273.73,474a3.45,3.45,0,0,1-2.46,4.21A3.38,3.38,0,0,1,1270.4,478.31Z"/><rect class="cls-10" x="1347.16" y="242.03" width="2.31" height="12.73" transform="matrix(0.97, -0.25, 0.25, 0.97, -18.89, 350.35)"/><path class="cls-10" d="M1342,228.84l-8.9-33.9a17.86,17.86,0,0,0-21.83-12.76l-23.26,6.1-.59-2.23,23.25-6.1a20.17,20.17,0,0,1,24.65,14.4l8.9,33.9Z"/><rect class="cls-11" x="1093.73" y="214.47" width="251.84" height="134.01" rx="5.24" ry="5.24" transform="translate(-31.5 318.78) rotate(-14.7)"/><rect class="cls-11" x="1155.83" y="328.79" width="167.83" height="58.52" rx="5.24" ry="5.24" transform="translate(-50.28 326.39) rotate(-14.7)"/><path class="cls-7" d="M1175.62,354.49l19-4.94,1.27,4.9L1184,357.54l.95,3.65,11-2.87,1.22,4.68-11,2.87,1.18,4.52,12.24-3.18,1.35,5.2-19.35,5Z"/><path class="cls-7" d="M1204.85,371.39l-6-22.95,11.82-3.07a17.82,17.82,0,0,1,5.17-.74,5.52,5.52,0,0,1,3.34,1.36,6.69,6.69,0,0,1,.42,9.78,8.88,8.88,0,0,1-2.25,1.56,7.31,7.31,0,0,1,2.06.36,7.44,7.44,0,0,1,1.45.91,9.37,9.37,0,0,1,1.37,1.17l5.16,5.76-8,2.08-5.61-6a5.52,5.52,0,0,0-1.75-1.44,3.07,3.07,0,0,0-1.88-.08l-.63.16,2.42,9.31Zm3.57-15.5,3-.78a11.29,11.29,0,0,0,1.79-.8,2,2,0,0,0,1-1,2.4,2.4,0,0,0-1-3,4.44,4.44,0,0,0-2.8.09l-3.12.81Z"/><path class="cls-7" d="M1229.78,364.91l-6-22.94,11.82-3.07a17.75,17.75,0,0,1,5.17-.75,5.53,5.53,0,0,1,3.34,1.36,6.56,6.56,0,0,1,2,3.44,6.62,6.62,0,0,1,0,3.51,6.55,6.55,0,0,1-1.66,2.83,8.92,8.92,0,0,1-2.25,1.56,7.26,7.26,0,0,1,2.07.36,7.46,7.46,0,0,1,1.45.91,9.67,9.67,0,0,1,1.37,1.17l5.16,5.76-8,2.08-5.61-6a5.53,5.53,0,0,0-1.75-1.44,3.07,3.07,0,0,0-1.88-.08l-.63.16,2.42,9.31Zm3.57-15.5,3-.78a11,11,0,0,0,1.79-.8,2,2,0,0,0,1-1,2.4,2.4,0,0,0-1-3,4.41,4.41,0,0,0-2.8.09l-3.11.81Z"/><path class="cls-7" d="M1250.2,347.36q-1.46-5.62.86-9.57t7.9-5.4q5.73-1.49,9.63.78t5.34,7.81a14.62,14.62,0,0,1,.36,7,10,10,0,0,1-2.87,5,13.34,13.34,0,0,1-6,3.09,15.14,15.14,0,0,1-6.75.43,10,10,0,0,1-5.14-2.84A13.44,13.44,0,0,1,1250.2,347.36Zm7.1-1.81q.9,3.48,2.59,4.66a5,5,0,0,0,7.06-1.8q.87-1.82-.13-5.66-.84-3.24-2.54-4.4a4.62,4.62,0,0,0-3.93-.58,4.45,4.45,0,0,0-3,2.41C1256.69,341.42,1256.69,343.22,1257.3,345.55Z"/><path class="cls-7" d="M1280.87,351.62l-6-22.95,11.82-3.07a17.73,17.73,0,0,1,5.17-.75,5.54,5.54,0,0,1,3.35,1.36,6.7,6.7,0,0,1,.42,9.78,8.93,8.93,0,0,1-2.25,1.56,4.94,4.94,0,0,1,3.51,1.28,9.38,9.38,0,0,1,1.37,1.17l5.16,5.76-8,2.08-5.61-6a5.52,5.52,0,0,0-1.74-1.44,3.07,3.07,0,0,0-1.88-.08l-.62.16,2.42,9.31Zm3.57-15.5,3-.78a11.21,11.21,0,0,0,1.8-.8,2,2,0,0,0,1-1,2.41,2.41,0,0,0-1-3,4.43,4.43,0,0,0-2.8.1l-3.11.81Z"/><text class="cls-12" transform="translate(1130.91 341.55) rotate(-15.79)">500</text><path class="cls-11" d="M130.75,946.8l7.66-19.53h13.16l-13.36,28.2,13.67,28.67H138.56l-7.81-19.88L123,984.15H109.66l13.67-28.67-13.4-28.2H123.1Z"/><path class="cls-11" d="M157.16,930.94a5.71,5.71,0,0,1,1.64-4.22,6.65,6.65,0,0,1,8.75,0,5.71,5.71,0,0,1,1.64,4.22,6,6,0,1,1-12,0Zm11.6,53.2H157.67V941.88h11.09Z"/><path class="cls-11" d="M187.43,941.88l.31,4.18a11.73,11.73,0,0,1,9.8-5q10.9,0,11.21,15.27v27.77H197.67v-27a9.73,9.73,0,0,0-1.07-5.21,4.18,4.18,0,0,0-3.77-1.62,5.16,5.16,0,0,0-4.69,3.09v30.7H177V941.88Z"/><path class="cls-11" d="M247.16,974.62h20.16v9.53H235.67V927.27h11.48Z"/><path class="cls-11" d="M272.12,961.65q0-9.61,4.53-15.08t12.54-5.47q8.09,0,12.62,5.47t4.53,15.16v2.7q0,9.65-4.49,15.08t-12.58,5.43q-8.13,0-12.64-5.45t-4.51-15.14Zm29.57-25-7.62,0-4.88-4.92-5,4.92-7.58,0,9.61-8.77h5.82Zm-4.06-17.05a7.2,7.2,0,0,1-1.29,4.28,3.79,3.79,0,0,1-3.16,1.82,7.82,7.82,0,0,1-3.67-1.25,7.69,7.69,0,0,0-3.28-1.25,1.24,1.24,0,0,0-1.11.82,4.32,4.32,0,0,0-.41,2l-3.63-1.13a7.61,7.61,0,0,1,1.23-4.34,3.67,3.67,0,0,1,3.14-1.84,9.1,9.1,0,0,1,3.5,1.23,9.12,9.12,0,0,0,3.46,1.23q.62,0,1.09-.88a4.38,4.38,0,0,0,.47-2.09Zm-14.41,44.8q0,11.33,6.05,11.33,5.58,0,6-9.45l0-4.65q0-5.78-1.6-8.57a5,5,0,0,0-4.53-2.79,4.86,4.86,0,0,0-4.39,2.79q-1.58,2.79-1.58,8.57Z"/><path class="cls-11" d="M313.21,930.94a5.71,5.71,0,0,1,1.64-4.22,6.65,6.65,0,0,1,8.75,0,5.71,5.71,0,0,1,1.64,4.22,6,6,0,1,1-12,0Zm11.6,53.2H313.72V941.88h11.09Z"/><path class="cls-11" d="M341.43,978.8a5.79,5.79,0,0,1,6.05-6.05,5.84,5.84,0,0,1,4.34,1.7,5.94,5.94,0,0,1,1.68,4.36,6,6,0,1,1-12.07,0Zm10.66-12.15h-9.18l-1.29-39.37h11.76Z"/><path class="cls-11" d="M431.49,984.15H420V959.81h-17v24.34H391.61V927.27H403.1v23h17v-23h11.45Z"/><path class="cls-11" d="M457.24,984.93q-8.52,0-13.28-5.08t-4.77-14.53V962q0-10,4.38-15.43t12.54-5.43q8,0,12,5.09t4.1,15.08v5.42h-22q.23,4.71,2.07,6.89t5.66,2.18A12.43,12.43,0,0,0,467.2,972l4.34,6.68a14.28,14.28,0,0,1-5.9,4.55A20.26,20.26,0,0,1,457.24,984.93Zm10.9-49.86v.47l-8.63,0-4.88-5.62-4.88,5.63-8.44,0v-.62l10.16-10.76h6.33ZM455.6,987.86a6.81,6.81,0,0,1,4.63,1.54,5.14,5.14,0,0,1,0,7.77,7.66,7.66,0,0,1-9.22,0,5.14,5.14,0,0,1,0-7.77A6.74,6.74,0,0,1,455.6,987.86ZM450.28,959h11.05v-1a11.82,11.82,0,0,0-1.25-5.74,4.35,4.35,0,0,0-4.06-2,4.59,4.59,0,0,0-4.2,2.07Q450.52,954.42,450.28,959Z"/><path class="cls-11" d="M509.74,931.49v10.39h5.66v8.28h-5.66v21a6.19,6.19,0,0,0,.68,3.44,3.08,3.08,0,0,0,2.64.94,10.32,10.32,0,0,0,2.62-.27l-.08,8.59a17.22,17.22,0,0,1-6.09,1.05q-10.71,0-10.82-12.28V950.16H493.8v-8.28h4.88V931.49Z"/><path class="cls-11" d="M532.24,945.59a10.92,10.92,0,0,1,8.83-4.49q5.78,0,8.79,4.06t3,12.11v26.88H541.81V957.39q0-3.71-1.15-5.37a4.22,4.22,0,0,0-3.73-1.66,5.22,5.22,0,0,0-4.69,2.77v31H521.18v-60h11.05Z"/><path class="cls-11" d="M559.54,961.65q0-9.61,4.53-15.08t12.54-5.47q8.09,0,12.62,5.47t4.53,15.16v2.7q0,9.65-4.49,15.08t-12.58,5.43q-8.13,0-12.64-5.45t-4.51-15.14Zm14-34.34h5.9l9.57,9-7.93,0-4.61-4.92-4.61,4.92-7.89,0Zm-2.93,37.11q0,11.33,6.05,11.33,5.58,0,6-9.45l0-4.65q0-5.78-1.6-8.57a5,5,0,0,0-4.53-2.79,4.86,4.86,0,0,0-4.39,2.79q-1.58,2.79-1.58,8.57Zm21.29-43.95h8.59l-7.93,10.63h-6.13Z"/><path class="cls-11" d="M610.75,941.88l.31,4.18a11.73,11.73,0,0,1,9.8-5q10.9,0,11.21,15.27v27.77H621v-27a9.73,9.73,0,0,0-1.07-5.21,4.18,4.18,0,0,0-3.77-1.62,5.16,5.16,0,0,0-4.69,3.09v30.7H600.36V941.88Z"/><path class="cls-11" d="M638.68,961.73q0-10.39,3.75-15.51a12.28,12.28,0,0,1,10.51-5.12,10.14,10.14,0,0,1,8.87,4.53l.43-3.75h10v42.27q0,8.09-4.53,12.36t-13,4.28a21.45,21.45,0,0,1-7.3-1.39,13.53,13.53,0,0,1-5.7-3.54l3.71-7.66a11.67,11.67,0,0,0,4.06,2.68,12.39,12.39,0,0,0,4.73,1q3.71,0,5.33-1.78t1.66-5.72v-3.63a9.9,9.9,0,0,1-8.24,4.14,12,12,0,0,1-10.45-5.25q-3.69-5.25-3.77-14.82Zm11.05,2.77q0,5.86,1.52,8.54a5.17,5.17,0,0,0,4.84,2.68,5.64,5.64,0,0,0,5-2.46v-20.2a5.54,5.54,0,0,0-5-2.7,5.26,5.26,0,0,0-4.86,2.7q-1.58,2.7-1.58,8.67Z"/><path class="cls-11" d="M735.32,936.57h-5.12v47.58h-10l-.47-3.75a10.24,10.24,0,0,1-8.55,4.53q-6.33,0-10.16-5.86T697.2,962.7q0-9.88,3.73-15.74a11.61,11.61,0,0,1,10.29-5.86,10,10,0,0,1,7.85,3.67v-8.2h-7.46v-7.15h7.46v-5.27h11.13v5.27h5.12Zm-27,27q0,12.19,5.82,12.19a5.23,5.23,0,0,0,5-3.4V954q-1.6-3.63-4.92-3.63-2.81,0-4.34,3T708.29,963.52Z"/><path class="cls-11" d="M763.8,984.15a15.42,15.42,0,0,1-.94-3.28,9.45,9.45,0,0,1-8,4.06,11.9,11.9,0,0,1-8.81-3.52,12.35,12.35,0,0,1-3.5-9.1q0-6.64,4.24-10.27T759,958.33h3.36v-3.4a6.37,6.37,0,0,0-1-4,3.5,3.5,0,0,0-2.85-1.17q-4.14,0-4.14,4.84H743.29a12.23,12.23,0,0,1,4.39-9.67,16.36,16.36,0,0,1,11.11-3.81q7,0,10.76,3.61T773.37,955v19.88a20.77,20.77,0,0,0,1.56,8.55v.66Zm-6.52-7.89a6.17,6.17,0,0,0,3.13-.74,5.25,5.25,0,0,0,1.91-1.76V965h-2.66a5.67,5.67,0,0,0-4.43,1.8,6.9,6.9,0,0,0-1.62,4.8Q753.6,976.26,757.28,976.26Z"/><path class="cls-11" d="M791.49,941.88l.31,4.18a11.73,11.73,0,0,1,9.8-5q10.9,0,11.21,15.27v27.77H801.73v-27a9.73,9.73,0,0,0-1.07-5.21,4.18,4.18,0,0,0-3.77-1.62,5.16,5.16,0,0,0-4.69,3.09v30.7H781.1V941.88Z"/><path class="cls-11" d="M819.42,961.73q0-10.39,3.75-15.51a12.28,12.28,0,0,1,10.51-5.12,10.14,10.14,0,0,1,8.87,4.53l.43-3.75h10v42.27q0,8.09-4.53,12.36t-13,4.28a21.45,21.45,0,0,1-7.3-1.39,13.53,13.53,0,0,1-5.7-3.54l3.71-7.66a11.67,11.67,0,0,0,4.06,2.68,12.39,12.39,0,0,0,4.73,1q3.71,0,5.33-1.78t1.66-5.72v-3.63a9.9,9.9,0,0,1-8.24,4.14,12,12,0,0,1-10.45-5.25q-3.69-5.25-3.77-14.82Zm11.05,2.77q0,5.86,1.52,8.54a5.17,5.17,0,0,0,4.84,2.68,5.64,5.64,0,0,0,5-2.46v-20.2a5.54,5.54,0,0,0-5-2.7,5.26,5.26,0,0,0-4.86,2.7q-1.58,2.7-1.58,8.67Z"/><path class="cls-11" d="M889.54,941.88l.31,4.18a11.73,11.73,0,0,1,9.8-5q10.9,0,11.21,15.27v27.77H899.78v-27A9.73,9.73,0,0,0,898.7,952a4.18,4.18,0,0,0-3.77-1.62,5.16,5.16,0,0,0-4.69,3.09v30.7H879.15V941.88Z"/><path class="cls-11" d="M938.88,984.15a15.42,15.42,0,0,1-.94-3.28,9.45,9.45,0,0,1-8,4.06,11.9,11.9,0,0,1-8.81-3.52,12.35,12.35,0,0,1-3.5-9.1q0-6.64,4.24-10.27T934,958.33h3.36v-3.4a6.37,6.37,0,0,0-1-4,3.5,3.5,0,0,0-2.85-1.17q-4.14,0-4.14,4.84H918.37a12.23,12.23,0,0,1,4.39-9.67,16.36,16.36,0,0,1,11.11-3.81q7,0,10.76,3.61T948.45,955v19.88a20.77,20.77,0,0,0,1.56,8.55v.66ZM947,935.07v.47l-8.63,0-4.88-5.62-4.88,5.63-8.44,0v-.62l10.16-10.76h6.33Zm-14.61,41.19a6.17,6.17,0,0,0,3.13-.74,5.25,5.25,0,0,0,1.91-1.76V965h-2.66a5.67,5.67,0,0,0-4.43,1.8,6.9,6.9,0,0,0-1.62,4.8Q928.68,976.26,932.35,976.26Z"/><path class="cls-11" d="M966.57,941.88l.31,4.18a11.73,11.73,0,0,1,9.8-5q10.9,0,11.21,15.27v27.77H976.81v-27a9.73,9.73,0,0,0-1.07-5.21,4.18,4.18,0,0,0-3.77-1.62,5.16,5.16,0,0,0-4.69,3.09v30.7H956.18V941.88Z"/><path class="cls-11" d="M994.5,961.73q0-10.39,3.75-15.51a12.28,12.28,0,0,1,10.51-5.12,10.14,10.14,0,0,1,8.87,4.53l.43-3.75h10v42.27q0,8.09-4.53,12.36t-13,4.28a21.45,21.45,0,0,1-7.3-1.39,13.53,13.53,0,0,1-5.7-3.54l3.71-7.66a11.67,11.67,0,0,0,4.06,2.68,12.39,12.39,0,0,0,4.73,1q3.71,0,5.33-1.78t1.66-5.72v-3.63a9.9,9.9,0,0,1-8.24,4.14,12,12,0,0,1-10.45-5.25q-3.69-5.25-3.77-14.82Zm11.05,2.77q0,5.86,1.52,8.54a5.17,5.17,0,0,0,4.84,2.68,5.64,5.64,0,0,0,5-2.46v-20.2a5.54,5.54,0,0,0-5-2.7,5.26,5.26,0,0,0-4.86,2.7q-1.58,2.7-1.58,8.67Z"/><path class="cls-11" d="M1069.78,975.75q4.8,0,4.88-6.25H1085a15.54,15.54,0,0,1-4.26,11.17,14.45,14.45,0,0,1-10.78,4.26q-8.17,0-12.46-5.08t-4.37-15v-3.36q0-10,4.24-15.2t12.52-5.23q7,0,11,4.32t4.1,12.25h-10.39a11.11,11.11,0,0,0-1.17-5.47,4,4,0,0,0-3.75-1.91,4.47,4.47,0,0,0-4.14,2.05q-1.25,2.05-1.33,7.95v4.3a34.4,34.4,0,0,0,.51,7.21,5.42,5.42,0,0,0,1.68,3A5.11,5.11,0,0,0,1069.78,975.75Z"/><path class="cls-11" d="M1111.38,984.15a15.42,15.42,0,0,1-.94-3.28,9.45,9.45,0,0,1-8,4.06,11.9,11.9,0,0,1-8.81-3.52,12.35,12.35,0,0,1-3.5-9.1q0-6.64,4.24-10.27t12.21-3.71h3.36v-3.4a6.37,6.37,0,0,0-1-4,3.5,3.5,0,0,0-2.85-1.17q-4.14,0-4.14,4.84h-11.05a12.23,12.23,0,0,1,4.39-9.67,16.36,16.36,0,0,1,11.11-3.81q7,0,10.76,3.61t3.81,10.33v19.88a20.77,20.77,0,0,0,1.56,8.55v.66Zm-8.4-56.84h5.9l9.57,9-7.93,0-4.61-4.92-4.61,4.92-7.89,0Zm1.88,48.95a6.17,6.17,0,0,0,3.13-.74,5.25,5.25,0,0,0,1.91-1.76V965h-2.66a5.67,5.67,0,0,0-4.43,1.8,6.9,6.9,0,0,0-1.62,4.8Q1101.18,976.26,1104.85,976.26Zm16.48-55.78h8.59L1122,931.1h-6.13Z"/><path class="cls-11" d="M1161.88,964.34q0,10-3.42,15.27a11.31,11.31,0,0,1-10.18,5.31,9.84,9.84,0,0,1-8.28-4.18v19.65H1129V941.88h10.23l.39,3.87a9.92,9.92,0,0,1,8.63-4.65q6.76,0,10.18,4.92t3.5,15.08Zm-11-2.77q0-6.13-1.35-8.67a4.74,4.74,0,0,0-4.55-2.54,5.26,5.26,0,0,0-5,2.85V973a5.26,5.26,0,0,0,5,2.73,4.58,4.58,0,0,0,4.55-2.77q1.27-2.77,1.27-8.63Z"/><path class="cls-11" d="M1171.85,998.48l-5.9-3.09,1.48-2.77a20.06,20.06,0,0,0,2.58-9.3v-8.79h9.61l0,7.85a20.87,20.87,0,0,1-2.11,8.59A21.9,21.9,0,0,1,1171.85,998.48Z"/><path class="cls-11" d="M1220.52,968.52l5.35-26.64h11.52l-11.6,42.27h-10.55l-11.64-42.27h11.56Z"/><path class="cls-11" d="M1263.37,980.28a10.89,10.89,0,0,1-9.22,4.65q-5.82,0-8.83-4t-3-11.66V941.88h11.05v27.66q.08,6.17,4.1,6.17a5.7,5.7,0,0,0,5.47-3.28V941.88h11.13v42.27h-10.39Z"/><path class="cls-11" d="M1282,930.94a5.71,5.71,0,0,1,1.64-4.22,6.65,6.65,0,0,1,8.75,0,5.71,5.71,0,0,1,1.64,4.22,6,6,0,1,1-12,0Zm11.6,53.2h-11.09V941.88h11.09Z"/><path class="cls-11" d="M1332.16,984.15h-11.09v-60h11.09Z"/><path class="cls-11" d="M1339.42,961.65q0-9.61,4.53-15.08t12.54-5.47q8.09,0,12.62,5.47t4.53,15.16v2.7q0,9.65-4.49,15.08t-12.58,5.43q-8.13,0-12.64-5.45t-4.51-15.14ZM1362,936.24l-9.34,0-10.78-12.11h12.38Zm-11.52,28.18q0,11.33,6.05,11.33,5.58,0,6-9.45l0-4.65q0-5.78-1.6-8.57a5,5,0,0,0-4.53-2.79,4.86,4.86,0,0,0-4.39,2.79q-1.58,2.79-1.58,8.57Z"/><path class="cls-11" d="M1390.63,941.88l.31,4.18a11.73,11.73,0,0,1,9.8-5q10.9,0,11.21,15.27v27.77h-11.09v-27a9.73,9.73,0,0,0-1.07-5.21,4.18,4.18,0,0,0-3.77-1.62,5.16,5.16,0,0,0-4.69,3.09v30.7h-11.09V941.88Z"/><path class="cls-11" d="M1418.56,961.73q0-10.39,3.75-15.51a12.28,12.28,0,0,1,10.51-5.12,10.14,10.14,0,0,1,8.87,4.53l.43-3.75h10v42.27q0,8.09-4.53,12.36t-13,4.28a21.45,21.45,0,0,1-7.3-1.39,13.53,13.53,0,0,1-5.7-3.54l3.71-7.66a11.67,11.67,0,0,0,4.06,2.68,12.39,12.39,0,0,0,4.73,1q3.71,0,5.33-1.78t1.66-5.72v-3.63a9.9,9.9,0,0,1-8.24,4.14,12,12,0,0,1-10.45-5.25q-3.69-5.25-3.77-14.82Zm11.05,2.77q0,5.86,1.52,8.54a5.17,5.17,0,0,0,4.84,2.68,5.64,5.64,0,0,0,5-2.46v-20.2a5.54,5.54,0,0,0-5-2.7,5.26,5.26,0,0,0-4.86,2.7q-1.58,2.7-1.58,8.67Z"/><path class="cls-11" d="M1491.42,931.49v10.39h5.66v8.28h-5.66v21a6.19,6.19,0,0,0,.68,3.44,3.08,3.08,0,0,0,2.64.94,10.32,10.32,0,0,0,2.62-.27l-.08,8.59a17.22,17.22,0,0,1-6.09,1.05q-10.71,0-10.82-12.28V950.16h-4.88v-8.28h4.88V931.49Z"/><path class="cls-11" d="M1513.92,945.59a10.92,10.92,0,0,1,8.83-4.49q5.78,0,8.79,4.06t3,12.11v26.88h-11.09V957.39q0-3.71-1.15-5.37a4.22,4.22,0,0,0-3.73-1.66,5.22,5.22,0,0,0-4.69,2.77v31h-11.05v-60h11.05Z"/><path class="cls-11" d="M1584,938.17q0,7-2.36,10.39t-7.64,4.18v31.41H1563.6l-.31-3.87a10.89,10.89,0,0,1-9.22,4.65q-5.82,0-8.83-4t-3-11.66V941.88h11.05v27.66q.08,6.17,4.1,6.17a5.7,5.7,0,0,0,5.47-3.28V941.88H1574v5.31a4.35,4.35,0,0,0,2.77-2.46q.82-1.84.82-6.56Zm-30-2.62-.62-5.23a7.83,7.83,0,0,0,3.2-.72,1.94,1.94,0,0,0,1-1.82,2.14,2.14,0,0,0-1.07-2.11,6.7,6.7,0,0,0-3-.55l.23-5.35q6.56,0,9.82,2.05a6.3,6.3,0,0,1,3.26,5.57,5.76,5.76,0,0,1-1.19,3.69,5.51,5.51,0,0,1-3.42,1.93v2.54Z"/><path class="cls-11" d="M1615.79,984.15H1604.7v-60h11.09Z"/><path class="cls-11" d="M1644.42,984.15a15.42,15.42,0,0,1-.94-3.28,9.45,9.45,0,0,1-8,4.06,11.9,11.9,0,0,1-8.81-3.52,12.35,12.35,0,0,1-3.5-9.1q0-6.64,4.24-10.27t12.21-3.71h3.36v-3.4a6.37,6.37,0,0,0-1-4,3.5,3.5,0,0,0-2.85-1.17q-4.14,0-4.14,4.84h-11.05a12.23,12.23,0,0,1,4.39-9.67,16.36,16.36,0,0,1,11.11-3.81q7,0,10.76,3.61T1654,955v19.88a20.77,20.77,0,0,0,1.56,8.55v.66Zm-8,3.09a6.81,6.81,0,0,1,4.63,1.54,5.14,5.14,0,0,1,0,7.77,7.66,7.66,0,0,1-9.22,0,5.14,5.14,0,0,1,0-7.77A6.74,6.74,0,0,1,1636.46,987.23Zm1.45-11a6.17,6.17,0,0,0,3.13-.74,5.25,5.25,0,0,0,1.91-1.76V965h-2.66a5.67,5.67,0,0,0-4.43,1.8,6.9,6.9,0,0,0-1.62,4.8Q1634.23,976.26,1637.9,976.26Z"/><path class="cls-11" d="M1662,930.94a5.71,5.71,0,0,1,1.64-4.22,6.65,6.65,0,0,1,8.75,0,5.71,5.71,0,0,1,1.64,4.22,6,6,0,1,1-12,0Zm11.6,53.2h-11.09V941.88h11.09Z"/><path class="cls-11" d="M1719.31,972.82a3.45,3.45,0,0,0-1.35-2.6,26.67,26.67,0,0,0-6-3.22q-6.84-2.77-9.39-5.74a10.9,10.9,0,0,1-2.56-7.38,11.8,11.8,0,0,1,4-9.16q4-3.61,10.61-3.61,7,0,11.13,3.59a12.08,12.08,0,0,1,4.18,9.65h-11.05q0-5.16-4.3-5.16a4,4,0,0,0-2.89,1.09,4,4,0,0,0-1.13,3,3.2,3.2,0,0,0,1.25,2.48,27.4,27.4,0,0,0,5.9,3.07q6.76,2.5,9.55,5.57a11.35,11.35,0,0,1,2.79,7.95,11.12,11.12,0,0,1-4.26,9.1q-4.26,3.44-11.17,3.44a17.78,17.78,0,0,1-8.2-1.82,13.75,13.75,0,0,1-5.57-5.06,13,13,0,0,1-2-7h10.51a6.68,6.68,0,0,0,1.35,4.34,5.28,5.28,0,0,0,4.16,1.45Q1719.31,976.84,1719.31,972.82Z"/><path class="cls-11" d="M1757,984.15a15.42,15.42,0,0,1-.94-3.28,9.45,9.45,0,0,1-8,4.06,11.9,11.9,0,0,1-8.81-3.52,12.35,12.35,0,0,1-3.5-9.1q0-6.64,4.24-10.27t12.21-3.71h3.36v-3.4a6.37,6.37,0,0,0-1-4,3.5,3.5,0,0,0-2.85-1.17q-4.14,0-4.14,4.84h-11.05a12.23,12.23,0,0,1,4.39-9.67A16.36,16.36,0,0,1,1752,941.1q7,0,10.76,3.61t3.81,10.33v19.88a20.77,20.77,0,0,0,1.56,8.55v.66Zm-6.52-7.89a6.17,6.17,0,0,0,3.13-.74,5.25,5.25,0,0,0,1.91-1.76V965h-2.66a5.67,5.67,0,0,0-4.43,1.8,6.9,6.9,0,0,0-1.62,4.8Q1746.81,976.26,1750.48,976.26Z"/><path class="cls-11" d="M1795.36,980.28a10.89,10.89,0,0,1-9.22,4.65q-5.82,0-8.83-4t-3-11.66V941.88h11.05v27.66q.08,6.17,4.1,6.17a5.7,5.7,0,0,0,5.47-3.28V941.88h11.13v42.27h-10.39Z"/><path class="cls-11" d="M1833,978.8a5.79,5.79,0,0,1,6.05-6.05,5.84,5.84,0,0,1,4.34,1.7,5.94,5.94,0,0,1,1.68,4.36,6,6,0,1,1-12.07,0Zm10.66-12.15h-9.18l-1.29-39.37H1845Z"/><path class="cls-11" d="M1853.84,978.8a5.79,5.79,0,0,1,6.05-6.05,5.84,5.84,0,0,1,4.34,1.7,5.94,5.94,0,0,1,1.68,4.36,6,6,0,1,1-12.07,0Zm10.66-12.15h-9.18L1854,927.27h11.76Z"/><path class="cls-7" d="M848.93,597.8c0,.27,0,.53,0,.79s0,.5,0,.75,0,.47,0,.71,0,.24,0,.36,0,.33,0,.49,0,.08,0,.12c0,.2,0,.41-.06.61s0,.17,0,.25,0,.36-.07.53,0,.1,0,.15q0,.31-.09.62a1.38,1.38,0,0,1,0,.15c0,.19-.06.38-.1.57s0,.14,0,.21-.07.37-.11.55l0,.18c0,.18-.08.37-.12.55s0,.13,0,.19-.05.23-.08.34l-.12.47q-.35,1.38-.82,2.73l-.14.39-.14.38c-.07.2-.15.4-.23.6l-.19.47-.09.23-.16.37-.16.37-.12.28-.18.38c-.09.2-.18.39-.28.59l-.19.38-.21.41-.09.18-.24.45-.27.48c-.2.35-.41.7-.62,1-.37.6-.76,1.18-1.16,1.76l-.25.35-.24.33-.34.46-.31.39-.38.48-.1.12c-.27.32-.54.64-.81,1q-.79.89-1.64,1.73l-.32.31-.3.28-.1.09A34.67,34.67,0,0,1,827.57,630l-1,.42-.37.14-1,.36-.5.16-.5.16-.51.15-.43.12-.59.16-.77.18-.65.14-.15,0-.22,0-.5.1-.13,0-.74.12a35.34,35.34,0,0,1-5.52.44h-1.57l-.45,0h-.81l-.31,0h-.09l-.64-.07h0l-.39,0-.28,0h-.16l-.5-.07-.17,0h0l-.62-.1h-.14l-.08,0-.58-.11-.19,0-.67-.15-.44-.1-.21-.05-.08,0-.08,0-.36-.09-.22-.06-.14,0-.39-.11-.21-.06-.09,0-.7-.22-.28-.09-.4-.13-.11,0-.18-.06-.17-.06-.32-.12h0l0,0-.59-.23-.18-.07-.11,0-.18-.07-.09,0-.08,0-.09,0-.15-.07-.22-.09-.27-.12-.17-.08-.4-.18-.17-.08,0,0-.41-.2-.24-.12-.2-.1-.09,0-.21-.11-.1-.06-.1-.05-.06,0-.18-.1-.43-.23-.05,0-.44-.25-.08,0-.34-.2,0,0-.25-.15-.2-.12-.17-.1-.23-.15-.11-.07-.37-.24-.2-.13-.18-.12-.14-.1-.11-.08-.24-.17-.26-.19-.19-.14-.11-.08-.31-.23-.31-.24-.21-.17-.29-.23-.31-.25-.11-.09-.12-.1h0l-.68-.58-.35-.31-.34-.31-.47-.44-.17-.17-.33-.32-.27-.27c-.25-.25-.49-.51-.73-.77l-.36-.39-.35-.4-.68-.81,0,0-.32-.4-.33-.42-.25-.33-.14-.19-.24-.34-.08-.11-.39-.56-.14-.21-.07-.1q-.49-.74-1-1.51l-.27-.46-.18-.32q-.41-.73-.79-1.49l-.3-.61-.09-.2h0l-.17-.35-.25-.58-.22-.53-.1-.24-.21-.53-.15-.38-.23-.64h0l-.11-.34-.14-.42a34.39,34.39,0,0,1-1.23-5.08l0-.23,0-.13c-.05-.33-.1-.67-.14-1,0-.16,0-.31-.06-.47s0-.35-.06-.53h0q-.16-1.62-.17-3.22h0c0-.06,0-.12,0-.18h0q0-.57,0-1.14c0-.17,0-.34,0-.51s0-.52,0-.78a34.9,34.9,0,0,1,6.1-17.35q.78-1.13,1.65-2.2v0l.24-.29.43-.51q1.07-1.25,2.26-2.39h0q1.2-1.16,2.52-2.2h0a35.27,35.27,0,0,1,3.74-2.58q1.37-.82,2.82-1.51c.59-.28,1.18-.55,1.78-.79l.58-.23.12,0,.11,0,1.07-.39,1-.32.48-.15.93-.26.57-.15.48-.11.36-.08.41-.09c.59-.12,1.17-.23,1.77-.33a35,35,0,0,1,5.59-.44h.75l.48,0h.27l.55,0,.45,0,.47,0h.07l.33,0h0l.23,0h.08l.31,0,.43.05.12,0h0l.16,0,.21,0,.5.08h.05l.25,0,.45.08.55.11.44.09.14,0,.41.09h.09l.3.07.3.07.6.16.53.15.17,0,.1,0,.62.19.42.14.05,0h0l.1,0,.43.15,0,0,.1,0,.12,0,.38.14.05,0h0l.13,0,.14.06.25.1.17.07.19.08.23.1,0,0,.53.23h0l0,0,.54.24,0,0,.07,0,.18.08.05,0,.23.11.11.05.35.17.14.07.05,0,.19.1.29.15.4.22.14.07,0,0,.55.31h0l.54.32.06,0,.54.33.25.16.11.07,0,0,.09.06.14.09.43.29h0l.34.24.15.1h0l.05,0,.14.1,0,0,.05,0,.19.14.08.06h0l0,0,.13.1.08.06.14.1,0,0,.41.32.7.56.36.3.48.42.27.24.3.28.1.09.37.35.26.25.18.17.36.36.44.46q.45.47.89,1l.39.46.39.46,0,.06.38.47.39.51q.39.51.75,1l.31.44.09.14.2.29.13.2h0l.12.19.11.18.33.53.08.13.06.1.25.42.05.09c.19.34.38.69.57,1l.1.19.05.1.12.23.14.27,0,.08.1.2.06.13.1.22.09.18,0,.09.15.32.15.35.21.49.11.26,0,.1c.08.2.16.4.23.6l.07.2,0,.08.16.43.09.26.06.17.15.43.11.34.06.19,0,.06,0,.14,0,.15.13.44,0,.12v0l.06.21,0,.08.12.45v0l.1.41.06.28,0,.18c0,.12.06.25.08.38l0,.2,0,.09,0,.12c0,.19.08.38.11.57s0,.19.05.29.08.43.11.65l0,.1q.13.8.21,1.59a.44.44,0,0,1,0,.08s0,.07,0,.1a.42.42,0,0,1,0,.06c0,.22,0,.45.06.68Q848.93,596.35,848.93,597.8Z"/><path class="cls-13" d="M820.16,599.42a3.56,3.56,0,0,1-1.93-1.31c-.19-.25-.28-1.07-.48-1.2s-.88.13-1.2.09c-.33-.92-.72-1.58-1.66-.63a1.2,1.2,0,0,0-.06-1.27c-.38-.45-.8-.21-1.28-.18-1,.06-1.29-.67-1.84-1.35-.7-.85-1.64-.4-2.66-.24a20.64,20.64,0,0,0-3.53.54c-.51.18-.89.85-1.28.24s.14-1-.49-1.35c-1.11-.63-2.41.21-3.51-.33-.62-.31-.74-.63-.35-1.23a3.43,3.43,0,0,0,.73-1.66,3,3,0,0,1,.85-1.44c.43-.56.32-.78.35-1.44,1.49-.71,3.66.12,3.84-2.16,0-.35-.34-1.09-.14-1.37s1.17-.05,1.51,0a7.23,7.23,0,0,0,3.09-.58,5.89,5.89,0,0,1,2.83-.59c1,.18,1.15,1,1.51,1.71a4.08,4.08,0,0,0,1.85,1.74,1.88,1.88,0,0,1,1.19,1.21,2.56,2.56,0,0,0,.61,1.34c.63-.45,1.52-.22,2.14-.61s.16-1.53,0-2.06c-.28-1-1-1.06-1.54-1.71a2.54,2.54,0,0,1-.28-1.22c.12-.45.33-.36.77-.43,1-.16,1.23.12,1.83.78.23.25.56.31.77.53s.37.81.65,1.13,1.26.88,1.48,1.39-.15.9-.15,1.35a8,8,0,0,0,.22,1.28c.5,0,1.19.75,1.53,1s.78.18,1.09.46.2.6.38,1,.38.45.49.88a10.83,10.83,0,0,0,.77,2.5c.5.91,1.36,1.47,1.67,2.53.74,2.54-2.73,3.22-4.53,3.5a10.5,10.5,0,0,1-2.9.3C821.4,600.4,821.24,599.61,820.16,599.42Z"/><path class="cls-13" d="M821.55,611.72h0Z"/><polygon class="cls-13" points="784.47 615.71 784.47 615.7 784.46 615.7 784.47 615.71"/><polygon class="cls-13" points="825 611.74 825 611.74 825 611.74 825 611.74"/><path class="cls-13" d="M825.93,610.46h0Z"/><polygon class="cls-13" points="825.34 607.25 825.34 607.25 825.33 607.24 825.34 607.25"/><polygon class="cls-13" points="825.01 609.55 825.01 609.54 825 609.54 825.01 609.55"/><polygon class="cls-13" points="824.45 610.09 824.45 610.08 824.45 610.08 824.45 610.09"/><polygon class="cls-13" points="825.43 607.33 825.43 607.33 825.42 607.33 825.43 607.33"/><path class="cls-13" d="M800.95,565.41c.08,0,.18,0,.26,0a1.63,1.63,0,0,0,.6-.17,5.62,5.62,0,0,0,.54-.3.74.74,0,0,1,.48-.09.94.94,0,0,1,.51.08l.29.18a.7.7,0,0,0,.29.16c.08,0,.15,0,.23,0a.94.94,0,0,0,.25,0l.62,0a5.78,5.78,0,0,0,.78-.09,2,2,0,0,1,.59,0c.15,0,.3,0,.44.07a3.67,3.67,0,0,1,.45.14.93.93,0,0,1,.17.09l.17.08a1.25,1.25,0,0,0,.89-.07c.14-.06.15-.11.34-.1l.48,0c.32,0,.52-.13.84-.11-.14,0-.25-.37-.26-.45s0,0,0-.1a.49.49,0,0,1,.3-.12,4.44,4.44,0,0,1,.75,0l.66.11c.21,0,.43,0,.64,0,.45,0,.75.13.88.44a1.23,1.23,0,0,1,.09.33,2.89,2.89,0,0,1,.1.39,1.84,1.84,0,0,0,.16.74c.13.31.09.44.37.59a.38.38,0,0,0,.35,0c.26-.08.28-.37.61-.36s.63.48,1.09.48a5.92,5.92,0,0,0,.76-.17c.17,0,.39,0,.57,0a3,3,0,0,0,.44,0,1,1,0,0,0,.33-.1c.18-.1.07-.18.07-.32s0-.38.07-.48.33-.09.47-.14.06-.26,0-.39a.46.46,0,0,1,0-.18c0-.08,0-.07.13-.07a5.45,5.45,0,0,1,1.25.24,7.15,7.15,0,0,1,.89.22,3.58,3.58,0,0,1,.66.31,2.57,2.57,0,0,1,.46.32l.44.43c.16.16.21.34.36.5a4.28,4.28,0,0,0,.66.6,1.45,1.45,0,0,0,1.21.08c.19,0,.37,0,.56-.09l.34-.06a2.79,2.79,0,0,1,.73.05,2.1,2.1,0,0,1,.67.18l.44.22c.15.08.29.18.43.27a3,3,0,0,1,.43.28c.26.23.41.54.86.6l.29,0a1.54,1.54,0,0,0,.18,0c.08,0,.18,0,.27,0a1.62,1.62,0,0,1,.27,0c.39.06,1,.18,1.34.24l-.09-.07a3,3,0,0,1,.71-.17,5,5,0,0,1,1.09.1,1,1,0,0,1,.61.22c.09.08.11.18.23.26l.23.14a1.82,1.82,0,0,0,.58.11c.07,0,.2,0,.22,0l-.06-.13a1.59,1.59,0,0,0-.06-.17c0-.09-.1-.18-.15-.26s-.11-.14,0-.26l.08-.15a35,35,0,0,0-34.2-4.32A.91.91,0,0,0,800.95,565.41Z"/><path class="cls-13" d="M835.68,592h0Z"/><path class="cls-13" d="M838.16,614.31h0Z"/><polygon class="cls-13" points="833.61 612.18 833.61 612.18 833.61 612.18 833.61 612.18"/><polygon class="cls-13" points="822.18 611.96 822.19 611.97 822.19 611.97 822.19 611.97 822.18 611.96"/><path class="cls-13" d="M828.21,610.36h0Zm0,0h0Zm0,0h0Zm20.6-15.47c0-.22,0-.45-.06-.68a.42.42,0,0,0,0-.06s0-.07,0-.1a.44.44,0,0,0,0-.08q-.08-.79-.21-1.59l0-.1c0-.22-.07-.43-.11-.65s0-.19-.05-.29-.07-.38-.11-.57l0-.12,0-.14,0-.07,0-.07c0-.13-.05-.25-.08-.38l0-.18-.06-.28-.1-.41v0l-.12-.45,0-.08c0-.12-.06-.24-.1-.36l-.13-.44,0-.15,0-.14,0-.06-.06-.19-.11-.34-.15-.43-.06-.17-.09-.26-.16-.43,0-.08-.07-.2c-.08-.2-.15-.4-.23-.6l-.15-.37-.21-.49-.15-.35-.15-.32,0-.09-.09-.18-.1-.22-.16-.33,0-.08-.14-.27-.12-.23-.05-.1-.1-.19c-.18-.35-.37-.7-.57-1l-.05-.09-.25-.42-.06-.1-.08-.13-.33-.53-.11-.18-.12-.19h0l0,0c-.08.06,0,.13-.08.2s-.06,0-.08.06a.35.35,0,0,0,0,.12.56.56,0,0,1-.12.22.7.7,0,0,1-.12.14s-.08,0-.13.07,0,.1-.1.13-.14,0-.2.09a.81.81,0,0,1-.33.18,1.76,1.76,0,0,1-.47-.07,1.17,1.17,0,0,1-.34-.07,2.33,2.33,0,0,0-.44-.17,1.39,1.39,0,0,0-.32,0,.82.82,0,0,0-.55.2c-.07.06-.08.17-.22.18a.76.76,0,0,1-.32-.09.91.91,0,0,0-.47-.06c-.09,0-.08.12-.09.19a2.78,2.78,0,0,0,0,.52c.1,0,.18.1.27.13l.26.1a1,1,0,0,1,.23.15c.09.07.07.08.05.17s-.05.27-.08.41a1.2,1.2,0,0,0,.07.54,1,1,0,0,1,.7.9.33.33,0,0,1-.15.26c-.1.07-.28.07-.37.15s-.05.09,0,.18a.55.55,0,0,1,0,.41c0,.15-.21.23-.19.4a1.37,1.37,0,0,1,.05.32,1.43,1.43,0,0,1-.06.25c-.05.16-.15.53-.47.47a.5.5,0,0,1-.35-.37,1.49,1.49,0,0,0-.12-.27c0-.08-.13-.12-.2-.2s-.09-.16-.18-.23l-.16-.12-.48-.42c-.26-.24-.59-.41-.73-.7a1.54,1.54,0,0,1-.11-.67.69.69,0,0,0-.32-.54,2,2,0,0,1-.35-.32,1.87,1.87,0,0,1-.33-.49c0-.11,0-.26.1-.36s.25-.18.38-.29.15-.44.19-.63a.64.64,0,0,1,.23-.39,3.6,3.6,0,0,1,.34-.23.84.84,0,0,0,.27-.47.65.65,0,0,0,0-.53c-.08-.14-.18-.28-.28-.42s-.09-.18-.19-.2c-.08.14,0,.3,0,.45s0,.25-.16.25-.19-.06-.3,0a.4.4,0,0,0-.15.16c0,.07,0,.17-.18.18a.69.69,0,0,1-.28-.07c-.25-.14-.17-.46-.47-.58a1.78,1.78,0,0,0-.49-.09c-.16,0-.1.05-.16.13a2.38,2.38,0,0,1-.65.45c-.17.1-.25.15-.17.32a.44.44,0,0,0,.25.24c.09,0,.27.14.31.21s-.12.17-.24.2a1.93,1.93,0,0,1-.82.07l-.09,0c-.24,0-.32-.2-.54-.26l-.2,0-.37,0-.15,0c-.24,0-.26-.09-.43-.22a2.76,2.76,0,0,0-.32-.24.76.76,0,0,0-.27-.06.37.37,0,0,0-.24,0,1.52,1.52,0,0,1-.75.15l-.68-.1a5.68,5.68,0,0,0-.76-.13,2.11,2.11,0,0,0-.65,0,1.06,1.06,0,0,0-.62.58,1.31,1.31,0,0,0-.13.57,1,1,0,0,1-.1.35,1.64,1.64,0,0,1-.39.39.55.55,0,0,0-.23.33c0,.08-.06.18,0,.24s.46.15.65.23h0a2.67,2.67,0,0,1,.48.25.41.41,0,0,0,.27.12.67.67,0,0,0,.21,0c.07,0,.16-.11.23-.14a.28.28,0,0,1,.23,0c.2,0,.41.15.6.21a1.35,1.35,0,0,1,.25.11c.18.1.33.23.51.33s.36.19.5.12,0-.07.06-.12.07-.09.08-.15,0-.12.13-.1.09,0,.14.1.08.08.11.14l.09.13a1.08,1.08,0,0,1,.2.3,2.45,2.45,0,0,1,.11.25.76.76,0,0,1,0,.32c0,.14-.13.23-.17.36a.77.77,0,0,0,0,.7,4.45,4.45,0,0,1,.34.48c.06.1.17.21.17.31a1,1,0,0,1-.05.34c0,.09-.11.17-.16.25a.53.53,0,0,1-.07.13s.09.08.09.14c-.21,0-.12.21-.11.31a.53.53,0,0,1-.09.35.29.29,0,0,1-.2.1.62.62,0,0,0-.3.17c-.1.1-.12.22-.22.33a1.39,1.39,0,0,0-.2.47c-.06.17-.26.46-.53.42a4,4,0,0,0-.9-.15c-.27,0-.28.14-.31.32a1.53,1.53,0,0,1-.06.36,1.61,1.61,0,0,0-.07.15.29.29,0,0,1-.14.22c-.16.08-.54,0-.54.25s.14.25.25.34a2.54,2.54,0,0,1,.62.62l.13.2a1.65,1.65,0,0,0,.33.35.77.77,0,0,1,.26.64.78.78,0,0,1-.14.43,1,1,0,0,1-1,.17h0a.61.61,0,0,1-.22-.11c-.06-.08,0-.19-.07-.28s-.18-.23-.35-.33a.56.56,0,0,1-.24-.26,2.56,2.56,0,0,1,0-.37c0-.1,0-.18-.08-.27a1.8,1.8,0,0,0-.14-.17l-.15-.11c-.09-.06-.2-.07-.3-.12a.63.63,0,0,1-.3-.65c0-.1.09-.27,0-.36s-.29-.16-.41-.18a2.52,2.52,0,0,0-.86,0,.69.69,0,0,0-.27.14.76.76,0,0,1-.31.15,1,1,0,0,1-.4,0s0,0,0,0h0c-.17-.05-.14-.16-.08-.25s.21-.12.26-.21a.24.24,0,0,0,0-.07.93.93,0,0,0,0-.3s0-.17,0-.19a.61.61,0,0,0-.21,0l-.31,0h-.13a.8.8,0,0,1-.15,0h0l-.11,0c-.06,0-.06,0-.09.09a1.09,1.09,0,0,1-.21.34,1.28,1.28,0,0,1-.38.27c-.15.05-.33,0-.49,0a1,1,0,0,0,.23.32,1,1,0,0,0,.21.07,1.11,1.11,0,0,0,.24,0c.27,0,.19.16.22.31s.13.23.32.29v.07h0l.25,0c.1,0,.22-.05.31-.07a1.08,1.08,0,0,1,.35,0c.17,0,.36,0,.53.07a1.69,1.69,0,0,1,.43.1l.17.07a.32.32,0,0,1,.12.33.33.33,0,0,1-.14.26c-.16.08-.45,0-.63,0a.49.49,0,0,0-.46.41c0,.18.29.35.48.45s.41.22.43.42,0,.37.13.55a4,4,0,0,1,.66.73,3.16,3.16,0,0,1,.11.33c0,.06,0,.14.06.19s.34.11.48.18.24.14.25.24-.11.29-.16.42a2.76,2.76,0,0,1-.09.27.88.88,0,0,0-.05.28c0,.09,0,.23-.12.3s-.11,0-.14,0a.52.52,0,0,0-.17.08,1,1,0,0,0-.25.65.68.68,0,0,1-.4.51c-.07,0-.15,0-.21.06s-.08.06-.13.11l-.15.16a1.79,1.79,0,0,1-.53.29,1.3,1.3,0,0,1-.46.19h-.06a1.63,1.63,0,0,0-.67.25,3.83,3.83,0,0,1-.37.19.54.54,0,0,1-.31.08,1.07,1.07,0,0,0-.38,0l-.33.06a4.33,4.33,0,0,1-.68.09h-.16a1.38,1.38,0,0,0-.75.2.43.43,0,0,0-.14.16c0,.08,0,.18-.16.21s-.26-.12-.29-.24,0-.27-.14-.41a.5.5,0,0,0-.43-.13c-.06,0-.15,0-.2,0a2.3,2.3,0,0,1-.32,0,1,1,0,0,0-.31,0c-.08,0-.09.11-.11.17a1.08,1.08,0,0,1-.17.23,2.85,2.85,0,0,1-.32.28.24.24,0,0,0-.12.2l0,.2a.35.35,0,0,0,0,.19c0,.09.08.11.16.18a1,1,0,0,1,.17.16c0,.06,0,.13,0,.19a.89.89,0,0,0,.08.15.62.62,0,0,0,.13.22c.08.08.22.13.31.2l.14.13c.06.06.14.11.19.18l.15.23c.17.23.49.36.63.61s.22.45.36.66a1,1,0,0,1,.17.85c-.07.24-.48.56-.5.82l.09,0s-.15.11-.2.13a3,3,0,0,1-.35,0l-.16,0a2.52,2.52,0,0,0-.73.08c-.14.06-.23.21-.35.3s-.39.14-.46.28-.12.32-.29.27-.13-.29-.16-.37-.11-.25-.16-.38a.87.87,0,0,0-.13-.3,1.55,1.55,0,0,0-.34-.19c-.15-.08-.31-.1-.41-.24s-.07-.2-.13-.29a1,1,0,0,0-.55-.45l-.16,0a.6.6,0,0,1-.39-.17.83.83,0,0,0-.2-.21c-.21-.13-.43,0-.46.16a3.48,3.48,0,0,1-.07.65,3.58,3.58,0,0,1-.17.44.48.48,0,0,1-.1.16s-.06,0-.08.06.07.4.2.53l0,0a1,1,0,0,1,.26.3,1.74,1.74,0,0,1,.1.44c0,.26.39.37.61.54s.14.24.27.34a2,2,0,0,0,.32.16,1.51,1.51,0,0,1,.34.23c.08.08.09.17.17.24s.31.24.32.4a1.28,1.28,0,0,1,0,.14c0,.14,0,.29.05.43s-.09.35,0,.49.17.15.23.24a.65.65,0,0,1,.12.24,1.17,1.17,0,0,1,0,.21.19.19,0,0,0,0,0,.93.93,0,0,1,0,.34.4.4,0,0,1-.22-.24h0a2.1,2.1,0,0,1-.56-.31c-.12-.07-.25-.1-.37-.18a1.25,1.25,0,0,1-.22-.22c-.06-.06-.13-.11-.19-.18s-.18-.15-.25-.23l-.15-.16a3.36,3.36,0,0,1-.3-.35,2,2,0,0,1-.17-.3c0-.1-.1-.2-.14-.29a1.67,1.67,0,0,1-.08-.33,2.68,2.68,0,0,1,0-.29,1.38,1.38,0,0,0-.27-.65.5.5,0,0,0-.2-.15,1.26,1.26,0,0,1-.19-.16l-.11-.07,0,0c-.08-.08-.09-.22-.15-.31a1.9,1.9,0,0,1-.11-.19s0-.09,0-.14-.06-.16-.09-.24a1,1,0,0,1-.08-.28,1,1,0,0,1,.08-.31A1.87,1.87,0,0,1,813,603c0-.06.08-.09.11-.16a.85.85,0,0,0,0-.18l0-.27a1.47,1.47,0,0,0,0-.53c0-.07-.09-.15-.11-.22s0-.12,0-.19-.08-.11-.1-.17a1.76,1.76,0,0,1-.08-.21,2.76,2.76,0,0,0-.09-.27,2.9,2.9,0,0,1-.12-.31c-.06-.15-.11-.46-.36-.51a1,1,0,0,0-.31.05,1.78,1.78,0,0,0-.36.11,1.13,1.13,0,0,1-.46.12c-.16,0-.15-.08-.21-.18a2.18,2.18,0,0,1-.2-.7.7.7,0,0,0-.3-.43.73.73,0,0,1-.35-.6.61.61,0,0,0,0-.28.51.51,0,0,0-.1-.12l-.09,0a1.38,1.38,0,0,1-.31-.26,2.84,2.84,0,0,1-.21-.36.73.73,0,0,1-.14-.3.61.61,0,0,0-.06-.28,1,1,0,0,0-.7-.32c-.15,0-.18.14-.29.19a1.26,1.26,0,0,1-.44.1c-.29,0-.6,0-.89,0h-.26c-.06,0-.21,0-.25,0s0,.17,0,.23a1.13,1.13,0,0,1-.13.28c-.12.2-.36.24-.62.29a.81.81,0,0,0-.51.21s0,.11,0,.16a1.1,1.1,0,0,1-.11.22c-.06.09-.15.19-.21.28a1.75,1.75,0,0,1-.68.5,1,1,0,0,0-.41.22h0l0,0c-.08.14-.12.28-.19.4s-.1.19-.32.18a1.81,1.81,0,0,0-.61,0c-.18.05-.23.11-.17.25a1,1,0,0,1,0,.11s0,.08,0,.12,0,0,.06.08a.5.5,0,0,1,0,.12.76.76,0,0,0,0,.2c0,.08-.09.12,0,.19a5.27,5.27,0,0,0-.3,1.43c0,.56,0,.7-.53,1a1,1,0,0,0-.3.17c-.2.2-.07.54-.41.67-.2,0-.16-.24-.28-.35l-.33-.15a1,1,0,0,1-.59-.39,20.18,20.18,0,0,1-1.27-1.88,8.33,8.33,0,0,1-.48-1c-.21-.52-.17-1.05-.37-1.59s-.25-1.43-1.15-1.42c-.51,0-1.2,0-1.54-.33l0,0a1.08,1.08,0,0,1-.22-.61,1.38,1.38,0,0,0-.16-.6,3.69,3.69,0,0,0-1.64-1.12,4.75,4.75,0,0,0-2.22,0,5.22,5.22,0,0,1-1.83,0c-.44-.1-.73-.4-1.14-.54a2.17,2.17,0,0,0-.78,0,4.54,4.54,0,0,1-1.11-.18,6,6,0,0,0-1.09-.19l-.27,0-.33,0h-.06l-.31,0a4.89,4.89,0,0,0-.67-.14h-.1a.41.41,0,0,0-.18,0l.07.1.07.12.14.28.13.21v0h0c.18.26.42.54.6.76a.91.91,0,0,0,.21.19c.64.44,1.54-.24,2.16-.47.26-.1.19-.11.42,0a1.14,1.14,0,0,1,.32.31,2.89,2.89,0,0,0,1.31.73c.28.1.73.24.82.48s-.31.73-.51,1a2.67,2.67,0,0,1-.69.41,1.3,1.3,0,0,0-.4.43,2,2,0,0,0-.18.54.7.7,0,0,1-.72.65,1.08,1.08,0,0,0-.9.43,5,5,0,0,1-.49.66c-.33.33-.29.65-.85.71a6.7,6.7,0,0,0-1.22.13,1.49,1.49,0,0,0-.27.11l-.2.14a6.55,6.55,0,0,1-1.79.92l-.27.06h0a1,1,0,0,1-.44,0c-.16-.06-.3-.44-.37-.54s-.27-.36-.38-.54h0c0,.18,0,.35.06.53s0,.31.06.47c0,.33.09.66.14,1l0,.13,0,.23c.14.09.29.08.56,0a8.06,8.06,0,0,0,1.29-.32c.41-.12.75-.32,1.16-.42a2.28,2.28,0,0,0,.34-.12h0a6.7,6.7,0,0,1,1-.39,3,3,0,0,0,.33-.12c.28-.1.58.09.52.33s-.07.38-.11.59h0a1.76,1.76,0,0,1-.22.72c-.2.28-.29.64-.51.9s-.2.6-.34.87c-.33.62-.88,1-1.12,1.61a2.25,2.25,0,0,1-1.1,1h0l-.45.27-.12.07.14.42.11.34h0l.23.64.15.38.21.53.1.24.22.53.25.58.17.35h0l.09.2.3.61q.37.76.79,1.49l.18.32.27.46a.16.16,0,0,1,.06-.07l.08-.08h0c.06,0,0-.1.09-.14s.05,0,.07,0h0c.11.11.14.26.22.37a.24.24,0,0,1,.09.08c.12.08,0,.22.12.3a.11.11,0,0,0,0,.07c.09.12,0,.28.1.4s0,.19,0,.29.05.12.09.17a0,0,0,0,0,0,0v0a.16.16,0,0,1,0,.16l.14.21.39.56.08.11.24.34.14.19.25.33.33.42.32.4,0,0,.68.81.35.4.36.39c.24.26.48.52.73.77l.27.27.33.32.17.17.47.44.34.31.35.31.68.58h0l.12.1.11.09.31.25.29.23.21.17.31.24.31.23.11.08.19.14.26.19.24.17.11.08.14.1.09.06.09.06.2.13.37.24.11.07.23.15.17.1.2.12.25.15,0,0,.34.2.08,0,.44.25.05,0,.43.23.18.1.06,0,.1.05.1.06.21.11.09,0,.2.1.24.12.41.2,0,0,.17.08.4.18.17.08.27.12.22.09.32.14.09,0,.18.07.11,0,.18.07.59.23,0,0h0l.33.12.17.06.18.06.11,0,.4.13.28.09.7.22.09,0,.21.06.39.11.14,0,.22.06.36.09.08,0,.08,0,.21.05.44.1.67.15.19,0,.58.11.08,0h.14l.62.1h0l.17,0,.5.07h.16l.28,0,.39,0h0l.64.07h.09l.31,0h.81l.45,0h1.57a35.34,35.34,0,0,0,5.52-.44l.74-.12.13,0,.5-.1.22,0,.15,0,.65-.14.77-.18.59-.16.43-.12.51-.15.5-.16.5-.16,1-.36.37-.14,1-.42a.48.48,0,0,0,0-.08,4.75,4.75,0,0,0-.34-1.09c0-.05-.12-.05-.17-.1a.37.37,0,0,0-.07-.09c0-.07-.11-.06-.18,0l-.15,0a.23.23,0,0,1-.08-.09.33.33,0,0,1-.07-.09.47.47,0,0,1-.08-.09,3.2,3.2,0,0,0-1-.18l-.25,0a.27.27,0,0,1-.1,0h-.08c-.05,0-.13,0-.19,0s-.13,0-.19,0h-.08c-.08.06-.19,0-.28,0h-.08c-.27.05-.52-.12-.78-.05l-.1.06h0a.31.31,0,0,1-.1.06h0c-.05,0-.13,0-.18.06l-.1.06s-.12,0-.18,0-.13,0-.19.05a.3.3,0,0,1-.1.06s0,.11-.1.14-.05.11-.11.14l-.1.06h0l-.1.07-.11.06h-.07c-.18.07-.35-.07-.52,0a2.48,2.48,0,0,0-1.13-.07l-.09.06-.1.07h0a.56.56,0,0,1-.3.2l-.09,0-.09,0,0,0-.07,0,0,0-.08,0-.09,0-.14,0-.1,0a4.61,4.61,0,0,1-.54-.07l-.1,0-.08-.06,0,0-.15-.12a.41.41,0,0,1-.06-.08l-.05-.08,0,0-.07-.07,0,0a.42.42,0,0,1,0-.45.13.13,0,0,0,0-.06c.06-.09.17-.08.26-.13l.06-.07a1,1,0,0,0,.09-.21.24.24,0,0,0,0-.09.32.32,0,0,0,0-.05l0,0,.07-.14a.22.22,0,0,1,.1-.11.51.51,0,0,0,.05-.44.12.12,0,0,0,0-.07c-.06-.07,0-.17,0-.24a.17.17,0,0,0,0-.08c0-.05,0-.11-.06-.17a.08.08,0,0,0,0-.07.13.13,0,0,1,0-.11c0-.1,0-.21,0-.32s.15-.22.09-.35a.16.16,0,0,0,0-.08c-.14-.14-.05-.32-.12-.48h0a.43.43,0,0,1,0-.39.73.73,0,0,1,0-.07c-.06-.08,0-.17,0-.25a.31.31,0,0,0,0-.07.19.19,0,0,1,0-.07l-.05,0a.76.76,0,0,0,0-.08.37.37,0,0,0-.07-.08.12.12,0,0,1,0-.08c0-.06,0-.11,0-.16a.44.44,0,0,0,0-.08c0-.07,0-.14,0-.21a.11.11,0,0,1,.11,0c.07,0,0,.12.12.09l.07-.07h.06l.05,0a.55.55,0,0,1,.09.13l0,.09a.42.42,0,0,0,0,.06.41.41,0,0,0,0-.22.71.71,0,0,1,0-.15l0-.16a.33.33,0,0,1,0-.22c.06-.08,0-.2.09-.27a.21.21,0,0,0,0-.07l.09-.08a.08.08,0,0,0,0-.06.3.3,0,0,1,.1-.08l.09-.07,0-.14a.23.23,0,0,0,0-.26.06.06,0,0,0,0,0,.31.31,0,0,1,.09-.08h0c.06,0,.06-.11.11-.15s0-.11.11-.14h0c.11-.06.11.1.2.09l.08,0,.08,0h0c.05,0,.14,0,.19-.06l.19-.07c.06,0,.13,0,.19,0l.1-.06.1-.06.1-.07h0a.16.16,0,0,1,.07-.05l.08,0h.09a.28.28,0,0,0,.13,0c.24-.12.48.11.73,0l.1-.06c.08-.07.2,0,.28,0h.17l.1-.06.1-.06a.56.56,0,0,1,.23,0l.13,0a.34.34,0,0,0,.28,0,.12.12,0,0,0,.08,0c.06,0,.14,0,.2,0l.07-.05.13,0h.09l.09,0,.1-.07.1-.07c.06,0,.06-.1.12-.14a2.54,2.54,0,0,1,.21-.19h0a.51.51,0,0,0,.31-.27c0-.1,0-.19.06-.29l.06-.08,0,0c.06,0,.14,0,.2-.08h0l.1-.06h0a.43.43,0,0,1,.23-.14c.15,0,.13.14.17.23a.44.44,0,0,1,0,.09s.05,0,.06,0a.4.4,0,0,0,0-.11.22.22,0,0,1,0-.09c0-.05,0-.1,0-.17s0,0,.06-.05h0c.18-.1.38.23.55,0,0,0,0,0,0,0s0,0,0,0h0a.09.09,0,0,1,0-.15.11.11,0,0,0,0-.06c.05-.12.2-.09.29-.13h0c.19-.07.25-.26.44-.33a.39.39,0,0,0,.15,0h.09l0,0,0,0,.06-.06s0-.07.07-.1a.14.14,0,0,1,.08,0h.1a.6.6,0,0,0,.2,0l.1,0c.13,0,.2.08.31.1a.22.22,0,0,1,.13.09c0,.07.05.16.1.23h0c.05.08.12.17.16.26s0,0,0,0,0,0,.06,0a.17.17,0,0,1,.23,0,.58.58,0,0,0,.46.08.78.78,0,0,0,0-.08l-.07-.09h0s0,0,0-.05l0,0c.07,0,.06-.11.13-.14a.48.48,0,0,0,.19-.12.11.11,0,0,0,0-.07c.11-.11.24-.22.35-.34a.64.64,0,0,0,.2-.13l.1-.06.12-.06a.1.1,0,0,0,.08,0l.11-.05h0c.26-.12.57.13.82-.06,0-.14-.21-.2-.19-.35s.28,0,.39,0,.21.2.32.31a.1.1,0,0,0,.07.09c.1.1.27,0,.36.15s.13.06.16.11a.18.18,0,0,0,.2,0h.06a.26.26,0,0,1,.09.1.17.17,0,0,0,.19,0c.05,0,.14,0,.19,0h0c.22,0,.15.21.28.27s0,0,0,0-.07-.11,0-.15c.24-.14.29.09.4.19s0,.1,0,.14l-.1.06h0l-.11.06c-.1,0,0,.16-.14.2a.53.53,0,0,0-.43.32h0c-.07,0-.07.1-.12.13l-.1.06h0a.27.27,0,0,0-.1.05.14.14,0,0,0,0,.06c-.09.12,0,.23,0,.34l.08.09h0l.07.09c.15.1.32.17.4.32a.37.37,0,0,1,.08.09c0,.05.12.06.16.11h0c.06,0,0,.11.07.17l.08.09h0c0,.05.13.06.17.11l.08,0c0,.05.14.05.17.11s.13.24.2.36.13.06.16.11a.24.24,0,0,0,.27.05c.06,0,.14,0,.19,0h0c.07,0,.06-.1.13-.12s.06-.11.12-.14h0l.1-.06c.07,0,.06-.1.13-.13h0c.06,0,.06-.11.12-.14s0-.16.13-.21a.19.19,0,0,0,0-.07c.06,0,.06-.11.13-.14s0-.1.11-.14.06-.24.09-.37,0-.33.19-.45l.1-.06a.38.38,0,0,0,0-.08.1.1,0,0,1,0-.15l.1-.06s0,0,0-.05,0,0,0,0,0-.11,0-.16a.12.12,0,0,0,0-.06l.1-.07.1-.06a.09.09,0,0,0,0-.06c.06,0,.06-.11.12-.14s0-.16.13-.21a.16.16,0,0,0,0-.06c.14-.09.26-.11.36.07s-.18.38.06.57h0a.06.06,0,0,1,0,.06s0,0,0,0a.19.19,0,0,0,0,.07s0,.05,0,.08a.42.42,0,0,1,.06.11.09.09,0,0,0,0,.06.78.78,0,0,1-.11.53l0,.16c.09.07-.14.24.12.27h0c.06,0,.14,0,.2,0s.11.06.16.11a.14.14,0,0,0,0,.07.56.56,0,0,1,.14.19l.07.1h0a.17.17,0,0,1-.06.22.35.35,0,0,0,0,.07.05.05,0,0,0,0,.06,0,0,0,0,0,0,0c0,.11-.06.24-.08.35s-.08.1,0,.17l.07.1h0a.26.26,0,0,1,.07.11.09.09,0,0,0,0,0,.06.06,0,0,0,0,.06s0,0,0,0a.12.12,0,0,0,0,.07.18.18,0,0,1-.05.23.14.14,0,0,0,0,.07c-.16.12.09.34-.1.46s-.08.08,0,.15l.1-.09.3-.28.32-.31q.85-.83,1.64-1.73c.28-.31.55-.63.81-1l.1-.12.38-.48a.3.3,0,0,1-.13-.08h0c-.15-.13-.39-.07-.53-.21h0s-.07,0-.12,0h0c-.06,0-.15-.05-.18-.12a.22.22,0,0,1-.07-.12,0,0,0,0,0,0-.06.38.38,0,0,1-.06-.1.24.24,0,0,1-.08-.09.21.21,0,0,1-.06-.09h0c-.05,0,0-.11-.06-.16l0,0h0c-.14-.07,0-.18-.07-.26h0c-.05-.06,0-.12-.06-.18s0-.11-.07-.16a.08.08,0,0,0-.07,0c-.08-.07-.22-.05-.28-.14s-.2,0-.25-.14-.28.06-.38-.08l-.09,0c-.07,0-.06.11-.15.11h-.07c-.24,0,0,.32-.27.33a.07.07,0,0,0,0,.06.22.22,0,0,1-.11.06h0c-.06,0-.14,0-.2,0s-.14,0-.21,0h-.06c-.05,0-.14-.06-.18-.11l-.1,0a1.16,1.16,0,0,1-.61-.15s0,0,0,0a.09.09,0,0,1-.06-.06c-.05,0,0-.11-.08-.16h0a.8.8,0,0,1-.06-.1.2.2,0,0,1-.08-.1h0a.16.16,0,0,1-.07-.09c-.07-.09-.14-.19-.29-.14l-.15,0s-.07-.06-.11,0a.72.72,0,0,1-.83-.17h0c.07,0,.07-.1.12-.13h0c.07,0,.06-.11.13-.12h0a.37.37,0,0,1,.1-.06l.11,0c.22,0,.27-.14.33-.25h0s0,0,0,0,0,0,0,0h0a.25.25,0,0,1-.07-.1h0c-.09-.08,0-.17-.05-.25s-.06-.31-.19-.44a.18.18,0,0,1-.08-.09h0c-.1-.09-.24-.15-.35-.23h-.06a3.64,3.64,0,0,1-.37-.23h0l-.09-.08-.16-.05c-.1-.09-.28,0-.38-.16h0a.34.34,0,0,1-.16-.18c-.06-.09-.21,0-.25-.14h0l-.32-.22a.11.11,0,0,1-.08.15h0a.22.22,0,0,1-.35,0c-.09-.19.08-.38-.1-.56l-.08-.09-.15,0c-.09-.05-.08-.1,0-.14a1.88,1.88,0,0,0,.73-.07c-.08,0-.22,0-.32-.1a.07.07,0,0,0-.09,0c-.19,0-.18-.13-.25-.21s0-.19-.15-.27-.46-.09-.52-.33c0-.08-.15-.16,0-.24a.06.06,0,0,0,.06,0,.2.2,0,0,1,.22.09c.11.15.1-.05.16,0h0a2,2,0,0,0,.62-.12.12.12,0,0,0,.08,0,.08.08,0,0,1,.09,0l.19.09c.07,0,.13,0,.16.07a.35.35,0,0,1,.08.09c.12.11.32,0,.44.17s0,.23,0,.34v0a.3.3,0,0,0-.07.15.06.06,0,0,1,0,0c0,.09,0,.17,0,.25l-.09,0a.49.49,0,0,0,.14.21s0,.09,0,.13.06.22.13.33.09.1.19.06a.25.25,0,0,1,.11-.05.18.18,0,0,1,.11-.06h0a.16.16,0,0,1,.1-.06.43.43,0,0,1,.2-.13h0c.08,0,.06-.1.14-.12l.29,0c.09-.05.11-.17.25-.18h0c.06-.05.14,0,.2,0h0c.06,0,.14,0,.21,0a.12.12,0,0,1,.17.05h0a.52.52,0,0,1,.09.09.07.07,0,0,0,.06,0c.06,0,.15.06.2.11l.09.09h0c0,.06.12.06.17.11h0c0,.06.12.06.16.12h0c0,.06.13.06.17.11l.09,0a1.2,1.2,0,0,1,.43.18l.06.07a.24.24,0,0,1,.22.07h0c0,.05.14.06.18.12s.12.06.16.12h0s.13.05.17.11.14.06.17.12h0c.06.08.2,0,.27.13a.08.08,0,0,0,.07,0c.13.08.27.12.35.24a.25.25,0,0,1,.08.09c.14.09.34.11.43.26a.31.31,0,0,1,.15.19c.05.05.14.06.17.12h0c.06.09.15.16.14.27l0,.13c0,.06-.08.1,0,.18a.07.07,0,0,0,.06,0c.06,0,.15.06.2.12a.08.08,0,0,0,.06,0,.19.19,0,0,1,.1.1s.13.06.16.12.21.05.26.14a.46.46,0,0,1,.07.09c.05.06,0,.12.06.18l0,.12c-.09.09-.22,0-.32,0h-.05c-.2-.07-.18,0-.16.14s0,.19.13.27a1.54,1.54,0,0,0,.22.29.22.22,0,0,1,.07.11.09.09,0,0,0,0,.06,3.23,3.23,0,0,0,.08.42.3.3,0,0,0,.29.07,0,0,0,0,0,.05,0c.12.1,0,.22,0,.33h0l.15.09.34-.46.24-.33.25-.35c.41-.58.8-1.16,1.16-1.76q.32-.52.62-1l.27-.48.24-.45.09-.18.21-.41.19-.38c.1-.2.19-.39.28-.59l.18-.38.12-.28.16-.37.16-.37.09-.23.19-.47c.08-.2.16-.4.23-.6l.14-.38.14-.39q.46-1.34.82-2.73l.12-.47c0-.11.06-.22.08-.34s0-.12,0-.19.08-.37.12-.55l0-.18c0-.18.07-.37.11-.55s0-.14,0-.21.07-.38.1-.57a1.38,1.38,0,0,0,0-.15q0-.31.09-.62c0-.05,0-.1,0-.15s0-.35.07-.53,0-.17,0-.25,0-.4.06-.61c0,0,0-.08,0-.12s0-.33,0-.49,0-.24,0-.36,0-.47,0-.71,0-.5,0-.75,0-.52,0-.79Q848.93,596.36,848.8,594.89Zm-24.24-5.82h0Zm-42.62,13.8h0Zm47.88,4.75c0-.08,0-.17-.06-.25l0,0-.07-.05h-.08l-.06,0a.13.13,0,0,0,0,.13c.08.05,0,.12.08.18a.06.06,0,0,0,0,.06h0c.06.14,0,.21-.17.27a.14.14,0,0,1-.19,0c0-.18-.26-.12-.35-.22s-.14,0-.18-.11h0a.46.46,0,0,1-.09-.09.52.52,0,0,1-.07-.1h0a.43.43,0,0,1,0-.35l.06-.1a.09.09,0,0,0,0-.15l-.09-.09-.41,0a1.09,1.09,0,0,1-.47-.08.07.07,0,0,0,0,.05s0,.08-.1.09,0,0,0,0,0,0,0,0a.11.11,0,0,0,0,.06.14.14,0,0,1-.19,0h0a.18.18,0,0,1,0-.23s0-.1,0-.14,0,0,.05,0,0-.15.08-.2h0a.31.31,0,0,1,.14,0l.07,0a2.61,2.61,0,0,0,.36-.17h.06c.05,0,.13-.11.2-.07.49.32.77,0,1.12-.16l.05-.05c0-.18.1-.34.06-.51a.13.13,0,0,1,.19,0s0,.09,0,.15a.19.19,0,0,1,0,.28.2.2,0,0,1,.15.14c.07.06.15.12.16.21a.07.07,0,0,0,0,.07c0,.08,0,.17,0,.24s0,.18.06.26a.06.06,0,0,0,0,.05.06.06,0,0,0,0,.09.18.18,0,0,1,.07.12v.13c0,.06,0,.11,0,.15l-.1.1h0v0H830C830,607.45,830,607.57,829.83,607.62Zm-1.43,2.68.11-.06a.55.55,0,0,1,.21-.12h0a.21.21,0,0,1,.28,0,.09.09,0,0,1,0,.16h0c-.06,0-.06.1-.11.14h0c-.09,0-.14.14-.23.18s-.05.13-.16.14h-.05c-.1,0-.22,0-.31,0h-.08a.15.15,0,0,1-.19,0l0,0h0l-.1-.08h0a.93.93,0,0,0-.59-.11l-.23,0a.23.23,0,0,0-.16,0h-.16a.15.15,0,0,1-.19,0l0,0h0c-.07,0-.14-.08-.22,0h0c-.07,0-.06.1-.13.13s0,.11-.1.15v.08a.19.19,0,0,1,0,.19l.06.05h0c0,.05.13,0,.16.11h0c.09.06,0,.16.08.22a.12.12,0,0,0,.08,0,.08.08,0,0,0,.1,0c.07,0,.05-.11.13-.13a.17.17,0,0,1,.1-.06.23.23,0,0,1,.28,0h.1l.09,0a.07.07,0,0,0,0,0c.26.08.51-.06.76,0,0,.06,0,.12,0,.18l0,0c0,.06,0,.12,0,.18a.22.22,0,0,0,0,.07c0,.1,0,.17-.12.13s-.2-.05-.3-.09l-.07,0a.17.17,0,0,1,0-.07,0,0,0,0,1-.05,0l-.1,0h0l-.11.06h0c-.06,0-.14,0-.2,0h0a.22.22,0,0,1-.11.06c-.15.11,0,.22,0,.33h0c.06,0,0,.11.07.17h0a.16.16,0,0,1,.07.11h0a0,0,0,0,0,0,.06c.08.15-.12.31,0,.47,0,0,.06,0,.07,0a.08.08,0,0,0,.1.06.11.11,0,0,1,.1,0,.15.15,0,0,1,.09.11s0,.05,0,.07-.08.06,0,.11l0,.18a.2.2,0,0,1-.1.08s0,0,0,0a0,0,0,0,0,0,0h0c.05.12,0,.17-.14.21s0,0,0,0c-.15.11-.2,0-.27-.09s-.19-.33-.09-.42c-.3,0-.4,0-.4-.16a1.1,1.1,0,0,1,0-.2c.08-.08,0-.12-.06-.17l-.08-.09a.43.43,0,0,1-.08-.09.2.2,0,0,1,0-.29c.05-.07.1-.14,0-.23l-.09,0c-.09.06-.27.06-.24.22s.06.1,0,.15,0,.15,0,.21,0,.44-.19.62c0,0,0,0,0,0s-.06.06,0,.1h0c.09.3-.22.11-.32.18a.2.2,0,0,1-.25,0c-.06-.05,0-.12-.07-.18s0,0,0,0,0-.12.1-.16a0,0,0,0,0,0-.06c.08-.07,0-.17.12-.24a.34.34,0,0,0,0-.23c-.1-.06.12-.25-.15-.26a.12.12,0,0,1-.18,0c-.1-.14,0-.28,0-.41v0a.17.17,0,0,1,.11-.08l.1-.06c.08-.05,0-.17.13-.22h0c.13-.13,0-.33.16-.45h0c.06,0,.05-.11.12-.14l.07,0a.05.05,0,0,1,0-.05h0c.17-.19.05-.49.3-.66.07,0,.06-.1.12-.13s.09-.12.2,0h0a.09.09,0,0,0,.1,0l.1-.07a0,0,0,0,0,0-.05.22.22,0,0,1,.12-.08l.16,0c.06,0,.14,0,.19.1s.2,0,.28.11l.25.06c.18.11.41.05.59.16a.11.11,0,0,0,.08,0,.22.22,0,0,0,.21,0s.1,0,.15,0Zm-3.82,4.77c0,.07-.07.08-.12.08l-.12,0a.72.72,0,0,1-.24,0c-.07,0-.1,0-.17,0h-.19l-.34.05a.84.84,0,0,1-.24,0l-.07,0a.24.24,0,0,1-.05-.07c-.07-.11-.29-.08-.41-.08a.73.73,0,0,1,0-.16s0-.1,0-.13a.32.32,0,0,1,.26,0c.08,0,.13.09.22.11l.15,0,.05,0s.07,0,.1,0a.48.48,0,0,1,0-.19,1.17,1.17,0,0,1,.21-.08c.11,0,.07,0,.18.06a2,2,0,0,1,.28.16c.11.06.22.1.32.16l0,0Zm-2-7.59h.09a4.09,4.09,0,0,0,1.07-.55s0-.11.1-.15h0c.06,0,.06-.1.13-.12s.06-.06.11-.07,0-.19.14-.21,0,0,.06,0h0c.08.08.2,0,.29,0v0c.1.07.11.18.19.25h0c.13.14.14.33.32.44s.21,0,.26.13a.16.16,0,0,1,.09.09l.1.07.15,0c.08.23.08.23-.3.26-.07,0-.14.05-.1.16s0,.21-.21.12c0,0,0,0-.06,0a.06.06,0,0,0-.06,0c-.16.18-.38.34-.3.61,0,0,0,0,0,0a.22.22,0,0,1,.06.13s0,0,0,0l.08.09a.14.14,0,0,1,0,.22c-.09.14.09.18.14.27a.23.23,0,0,1,.09.09h0l.09.08a.46.46,0,0,0,.08.09h0c.07.07.18.15,0,.23s-.45-.09-.68,0c-.05,0-.05.11-.11.14s0,.36-.09.54-.05.11-.11.14-.14,0-.19.06h0c-.08,0-.07.11-.16.11h-.06l-.1.05c-.31.14,0,.43-.19.6a.24.24,0,0,1-.09.07.06.06,0,0,0,0,.07c-.15.11,0,.27-.06.39s0,.16-.13.2-.12,0-.17,0a0,0,0,0,0,0-.06c-.06-.09-.14,0-.22,0a0,0,0,0,0-.06,0c-.06,0-.14,0-.2,0s-.14,0-.19.06-.21,0-.19-.1,0-.1,0-.16a.34.34,0,0,1-.07-.09h0l-.09-.07-.1,0a.24.24,0,0,1-.28,0s-.14,0-.18-.1a.18.18,0,0,0-.2,0,.34.34,0,0,1-.1.06c-.18,0-.38,0-.55,0-.11-.12,0-.28-.18-.35h-.09c-.07,0-.14,0-.21,0h-.06c-.11-.08-.27-.06-.38-.13s.07-.36,0-.55-.07-.07-.07-.11v0a.23.23,0,0,1,.09-.1.59.59,0,0,0,0-.08c0-.06-.07-.13-.18-.11s-.13,0-.17,0a1,1,0,0,0,0-.11c0-.06-.07-.07-.09-.12a.15.15,0,0,1,0,0,.06.06,0,0,0,0-.09h0a.76.76,0,0,1-.06-.11s0,0,0-.06,0,0,0-.05,0,0,0,0,.1-.15,0-.23v0l-.06-.09a.08.08,0,0,0,0-.07.16.16,0,0,1,0-.23.72.72,0,0,0,0-.13.63.63,0,0,1,.23-.29h0a.3.3,0,0,1,.2-.13h0c.2-.06.13.17.26.19h0l0,.06c.08,0,.15-.1.24,0h0a.26.26,0,0,1,.1.09.15.15,0,0,0,.19,0c.1,0,0-.17.13-.22s0-.09,0-.14.09-.31.36-.27h.16c.09,0,.22,0,.32,0a.08.08,0,0,0,.08,0c.06,0,.14,0,.2,0h0a.45.45,0,0,0,.1-.07h0c.07,0,.06-.1.13-.12a1.78,1.78,0,0,1,.33-.27c.07-.06,0-.17.12-.21A.06.06,0,0,1,822.58,607.47Zm7.21-2.62c0,.14-.09.1-.18.09s-.24,0-.16.17h0s0,.11.07.17l-.12.19a1.37,1.37,0,0,1-.38-.94c.15,0,.08.12.17.15s.08-.21,0-.31-.2-.18-.17-.34a1.73,1.73,0,0,1,.59.08h0c.21.18,0,.38.12.57a.27.27,0,0,1,.07.12A0,0,0,0,0,829.79,604.85Zm-2.07.46c.09-.1.27-.13.33-.25a.26.26,0,0,1-.27-.14h-.1l-.1,0c-.25-.09-.1-.21-.06-.31l0-.31-.07-.09c0-.06,0-.11,0-.14s.05,0,.08,0l.09.07.08,0a.41.41,0,0,1,.11.1c.1.1.3,0,.39.15a.29.29,0,0,1,0,.28.45.45,0,0,1,.18,0l.06,0a.1.1,0,0,1,.07,0l.07,0h.09l0-.13a.44.44,0,0,1-.12.59c-.15.12-.16.33-.34.43,0,.1-.11.12-.22.1h0c-.06,0,0-.11-.08-.16a.09.09,0,0,0-.06,0,.19.19,0,0,1-.11-.1c-.06-.05,0-.12-.08-.17A.06.06,0,0,0,827.72,605.32Zm-3,.09c.07,0,.06-.1.14-.13a.22.22,0,0,1,.12-.06h.08l.09-.06h0c.07,0,.06-.1.12-.12h0a.39.39,0,0,1,.1-.06c.06,0,.05-.11.12-.14a.37.37,0,0,1,.1-.07.66.66,0,0,1,.22-.13.1.1,0,0,0,0,0h0l0,0a.11.11,0,0,1,0-.16.14.14,0,0,0,0-.06s0,0,.05,0a.12.12,0,0,1,.05-.06h0a.15.15,0,0,1,0,0h.08a.12.12,0,0,1,0,0h0c0,.06,0,.13,0,.19a.25.25,0,0,0,0,.06h0l0,.07h0c.07.12,0,.17-.14.22h0l-.1.06a.06.06,0,0,0,0,.06c-.12.05-.28.08-.32.21s-.06.11-.13.14l-.1.06a.66.66,0,0,0-.22.13l-.11.07-.11.06a.28.28,0,0,1-.1.06h0a.14.14,0,0,1-.17,0,.09.09,0,0,1,0-.16l.1-.07ZM822,608h0Zm-4.3,4.75c.07,0,.08.12.18.14s.23,0,.34,0a.23.23,0,0,1,.2.1c0,.06.06.15.13.2a.73.73,0,0,0,.28.05,6.21,6.21,0,0,0,.63.1c.12,0,.14-.06.2-.13s0-.07.1,0,.05.06.06.1.1.09.21.13a1.39,1.39,0,0,0,.27.07s0,0,0,0,.2.1.33.14a2.88,2.88,0,0,0,.64,0c.08,0,.29,0,.31.09s-.07.09-.1.12-.07.09-.11.1-.32-.09-.35,0,.24.11.32.12a.73.73,0,0,1,.4.1c.05.05.06.11.11.17a.66.66,0,0,0,.25.12c.11,0,.32.09.32.2a.58.58,0,0,1,0,.15c0,.07-.09,0-.17,0a1.08,1.08,0,0,1-.18,0l-.11-.06a.81.81,0,0,0-.37,0,.57.57,0,0,1-.38-.12c-.07,0-.11-.11-.21-.13l-.22,0a1,1,0,0,1-.35-.1,1,1,0,0,0-.23-.11.93.93,0,0,0-.22,0c-.09,0-.14.06-.24,0a.82.82,0,0,1-.27-.11,1.23,1.23,0,0,1-.14-.1,1.5,1.5,0,0,0-.18-.12.73.73,0,0,0-.23-.05.86.86,0,0,0-.35,0,.64.64,0,0,1-.28,0c-.19,0-.32-.14-.51-.16a1.35,1.35,0,0,1-.52-.1c-.13-.07-.14-.18-.22-.27s-.28-.13-.42-.19-.14,0-.15-.1.06-.09.11-.11a.79.79,0,0,0,.18-.07s0,0,0-.09.14-.06.2-.08,0,0,.07-.1a.13.13,0,0,1,.1-.07s0,0,0,0h.08c.05,0,.05,0,.12,0a1,1,0,0,0,.18,0S817.68,612.67,817.73,612.7ZM842,580.05h0Zm-11.54,12.79h0l.12-.06h0l.12-.06a.09.09,0,0,0,0-.16h0s0,0,0-.06h0c.11,0,.25,0,.33-.1a.33.33,0,0,1,.11-.06l.11-.07h0c.1,0,0-.16.15-.2a1.35,1.35,0,0,1,.54,0,1.11,1.11,0,0,0,.4,0,.68.68,0,0,1,.52.09h0c.12.05.24.12.24,0h0a.13.13,0,0,1,0-.22l.09-.08s0,0,0,0,0,0,0,0v-.08l-.08-.1a.16.16,0,0,0,0-.07c-.08-.13,0-.16.15-.21h0a.16.16,0,0,1,.2,0,.63.63,0,0,0,0,.14c0,.06.05.11,0,.17a1.36,1.36,0,0,0,.5-.07l.1-.06a.57.57,0,0,0,0-.08c-.06-.06-.05-.11,0-.15l.11-.06a.18.18,0,0,0,0-.24.05.05,0,0,0,0-.06.1.1,0,0,0,0-.16c-.1-.11,0-.22,0-.32s-.31-.26-.25-.44a.53.53,0,0,1-.09-.1h0a.14.14,0,0,1,0-.23h0s0,0,0,0v0s0-.05,0-.07,0,0,0,0,.08-.15.19-.18l-.12,0-.11.05a.27.27,0,0,1-.34-.14.26.26,0,0,1,0-.08.42.42,0,0,0-.17-.19s0,0,0-.05h0c-.18-.11-.21-.23-.07-.35s0-.15.1-.22l.11,0c.29-.11.16-.31.14-.48a.1.1,0,0,0,0-.07c-.06-.05,0-.12-.08-.17l-.09-.1a.5.5,0,0,1-.1-.1c-.1-.06-.19-.15-.09-.22s.3.06.44.13a4.3,4.3,0,0,0,.39.32l.18.13a4.65,4.65,0,0,0,1,.52.42.42,0,0,0,.42,0c.11.07-.07.25.21.22,0-.1.06-.19.09-.29h.1c.09,0,.16,0,.19.07s0,.08-.1.1a.41.41,0,0,1-.13.18l0,0c.05.14.29.31,0,.4s-.37-.08-.54,0-.06.11-.14.14-.08.09,0,.16.06.17-.13.13-.35-.15-.5-.25-.15-.06-.19-.11h0l-.16-.07h0a.45.45,0,0,0-.24,0,.25.25,0,0,1-.17,0,.42.42,0,0,1,.15.14l.1.1.1,0,0,.14a.17.17,0,0,1,.1,0l0,0,.05,0h0l.09,0,.09.09v.08l.09.09s0,0,0,.06h0c.12.1.23.22.35.32a.36.36,0,0,1,.1.09,3.33,3.33,0,0,1,.25.36c.06.05,0,.12.08.18a.12.12,0,0,0,0,.07c.09.14-.07.27,0,.4h0c.09.14-.17.14-.17.24a.1.1,0,0,0,0,0,.36.36,0,0,1,.09.1h0c.07.05,0,.12.08.17s0,.12.07.18,0,.1,0,.15a.05.05,0,0,0,0,.05s0,0,0,0a.08.08,0,0,0,0,.07c.05.05,0,.12.06.17s.33.25.15.41c0,0,0,0,0,.05s0,0,0,0,0,.11,0,.15h0l-.11.05c-.17.07-.45-.19-.55.06a3,3,0,0,0-.74-.08A.75.75,0,0,1,834,593c-.08.18-.3.3-.34.5a.31.31,0,0,1-.31-.05,2.74,2.74,0,0,1-.28-.22c-.18,0,0-.25-.26-.27h0c0,.11,0,.22,0,.33s-.17.14-.33,0a.2.2,0,0,0-.22,0,.19.19,0,0,0-.12.15l0,0c0,.06-.1.08-.2.06l-.1-.09-.06-.12a.77.77,0,0,1-.16.17c0,.13,0,.25-.07.38s0,.48-.46.31h0c-.05-.05-.15-.05-.19-.1a1.58,1.58,0,0,0-.15-.34c0-.19-.18-.32-.36-.45h0a.35.35,0,0,1-.09-.09c-.06,0,0-.11-.08-.17C830,592.92,830.22,592.88,830.42,592.84ZM813.48,607l.27.21a.81.81,0,0,1,.25.2,3,3,0,0,1,.19.25,1.07,1.07,0,0,1,.08.15s0,.11.07.15.12.11.21.15l.23.12.21.08a2.5,2.5,0,0,1,.22.12,4.24,4.24,0,0,1,.46.29l.13.11a1.73,1.73,0,0,1,.19.22.32.32,0,0,1,.07.28,1.29,1.29,0,0,0,0,.14.54.54,0,0,0,0,.17c0,.09.2.14.28.2s.1.24.13.34a.78.78,0,0,0,.38.41c.23.11.61.21.63.48a.43.43,0,0,1,0,.17s-.07,0-.09.08,0,.07,0,.09l0,.07c0,.07,0,.14-.06.2s0,.44-.12.63a.46.46,0,0,1-.36.21h-.19l-.14,0a.38.38,0,0,1-.21,0l-.1,0s-.05-.06-.08-.09-.34-.17-.45-.3-.25-.46-.42-.67a1,1,0,0,0-.22-.24,1.35,1.35,0,0,1-.22-.12.89.89,0,0,1-.2-.22l-.08-.14a.71.71,0,0,1-.06-.19,1.09,1.09,0,0,0-.31-.39.51.51,0,0,1-.11-.13.84.84,0,0,1-.05-.24c0-.11,0-.23,0-.35v0a.67.67,0,0,0-.15-.23c-.07-.07-.18-.12-.23-.2a.29.29,0,0,1,0-.16.8.8,0,0,0,0-.21,1,1,0,0,0-.23-.48.84.84,0,0,0-.44-.33.42.42,0,0,1-.28-.18.12.12,0,0,1,0-.07l0-.09c0-.06,0-.13,0-.19s0-.07,0-.1,0-.05,0-.08-.06-.09-.09-.15a.68.68,0,0,0-.14-.16.6.6,0,0,0-.17-.09,3.8,3.8,0,0,1-.35-.17.76.76,0,0,1-.17-.15.79.79,0,0,1-.12-.15.5.5,0,0,1,0-.4c0-.05.06-.13.14-.12a.42.42,0,0,1,.17.1c.1.07.15.16.28.19s.28,0,.42,0a1.09,1.09,0,0,1,.37.14l.1.07s0,.06,0,.09a1.36,1.36,0,0,1,.1.2.55.55,0,0,0,.19.31C813.28,606.89,813.39,606.93,813.48,607Zm-7.76-9.58h0ZM802,603.76a0,0,0,0,0,0-.05c.07-.08,0-.19.07-.28h0a0,0,0,0,1,0,0s0,0,0,0,.05-.18-.08-.23-.06-.11,0-.15h.26a.26.26,0,0,1,.11.09.3.3,0,0,1,.09.08h0s0,0,0,0l.06,0h0c.06,0,0,.1.1.14h0c.07.08.12.16.19.24a.91.91,0,0,1,.18.32c.06,0,0,.11.1.16a.32.32,0,0,1,.09.08h0c.11.09,0,.22.09.32s0,.08,0,.11,0,.19-.1.25a.3.3,0,0,1-.09.08L803,605c-.05.05-.14,0-.2.07h-.08a.3.3,0,0,1-.12.06h-.07a.14.14,0,0,1-.18,0,.4.4,0,0,1-.2-.15c-.05-.05-.05-.12-.08-.18a.07.07,0,0,0,0-.06c-.11-.12,0-.27-.08-.4a.06.06,0,0,0,0-.07A.68.68,0,0,1,802,603.76ZM825.2,616c-.21.19-.39.12-.56-.06h0l-.08-.08h0c-.06-.09-.19,0-.25-.11l0,0h0l-.1-.09c-.05-.07-.06-.12.06-.14a0,0,0,0,0,.05,0,.79.79,0,0,1,.63.11.94.94,0,0,0,.18.17h0l.08.1a.2.2,0,0,1,.07.11S825.2,616,825.2,616Zm1.11-.52h-.18a.07.07,0,0,1-.07,0l-.13,0a.13.13,0,0,1-.15,0s0-.1-.09,0h-.11c-.09,0-.21,0-.28-.08s-.29-.06-.43-.11-.23-.16,0-.26l.06,0,.1,0a.37.37,0,0,1,.36,0h0c.06.08.2,0,.26.12h0a.52.52,0,0,0,.39.06h0a.12.12,0,0,1,.05.07.05.05,0,0,1,.05,0l.1,0,.09-.06h0l.11-.05a.06.06,0,0,0,0-.05c.06-.07.11,0,.18,0h0a2.73,2.73,0,0,0,.74.17l.06,0,0-.05.34.06c0,.19-.14.12-.25.12a.09.09,0,0,1,0,.07.32.32,0,0,1-.2,0l-.19-.08v0c0-.07-.09-.07-.16,0h0l-.12,0h-.05c-.09-.06-.19-.12-.3,0S826.38,615.44,826.31,615.47Zm2.8.28a.18.18,0,0,1-.11.08c-.05,0-.14,0-.2,0h-.08l-.1,0c-.08.06-.2,0-.29,0s-.14,0-.2,0-.2,0-.28,0h0l-.11.05h-.05a.13.13,0,0,1-.05.05h0l-.09.08h0l-.1.06h0l-.1.06-.12.05H827l-.1,0h0a.31.31,0,0,1-.35-.06c0-.06,0-.1.1-.13s0-.16.13-.22h0a1.06,1.06,0,0,1,.14-.11l.08,0,.1,0h0c.05-.07.15-.07.24-.09h.24s0,0,.06,0h0v0a.24.24,0,0,0,0,0l0,0a.31.31,0,0,1,.21-.07H828c.16-.08.33.08.49,0l.27,0c.13,0,.26,0,.35.09Zm.83-4.1c0-.08,0-.15,0-.23s.14-.06.22,0l.06-.07c0-.07,0-.15,0-.23a.05.05,0,0,1,0-.06.25.25,0,0,1,0-.08.23.23,0,0,1-.1-.12,1.72,1.72,0,0,1,.17-.44.07.07,0,0,0,0-.07c.06,0,.06-.11.12-.14s.06-.12.16-.12a.05.05,0,0,0,.06,0c.25.08-.06.18,0,.27s0,.08,0,.13l0,0,.05,0c.06,0,.15,0,.22,0h0a.23.23,0,0,1-.06.37.06.06,0,0,0-.06,0c-.08,0-.09.09,0,.15s.14.09.08.17l.08,0c0,.06-.12,0-.19,0a.1.1,0,0,0-.07,0v0h0c-.26-.06-.25.09-.27.21h0l0,0s0,.06,0,.08l.06.1a.17.17,0,0,0,0,.07l.07.08c0,.13-.1.12-.2,0h0l-.06,0h0a.11.11,0,0,1,0,0h0a.2.2,0,0,1-.2,0l-.08,0,0,0v0l-.07,0Zm1.88,1.92a.13.13,0,0,0,0,.06c-.06.06-.12,0-.18,0l-.09-.08h0c0-.06-.11-.06-.16-.1a0,0,0,0,0,0,0,.21.21,0,0,1-.12-.1.08.08,0,0,0-.09,0h0a.3.3,0,0,1-.28,0,.13.13,0,0,0-.07,0s-.08,0-.13,0h0a.2.2,0,0,1-.26.07l0,0a.23.23,0,0,1,0,.06h0c-.1,0-.22,0-.27-.08v0l.23,0a.91.91,0,0,1-.21-.13.11.11,0,0,0,0-.07c0-.09.07-.1.12-.13h0c.28-.19.6.08.88,0h.08c0,.06.13.06.18.11s.26,0,.35.15,0,.12.08.16h0l.07.1h0A.1.1,0,0,1,831.82,613.57Zm-3.6-3.22h0Zm0,0h0Zm0,0h0Z"/><polygon class="cls-13" points="835.87 613.19 835.86 613.19 835.86 613.19 835.87 613.19"/><path class="cls-13" d="M834.69,613.74h0Z"/><path class="cls-14" d="M848.93,597.8c0,.27,0,.53,0,.79s0,.5,0,.75,0,.47,0,.71,0,.24,0,.36,0,.33,0,.49,0,.08,0,.12c0,.2,0,.41-.06.61s0,.17,0,.25,0,.36-.07.53,0,.1,0,.15q0,.31-.09.62a1.38,1.38,0,0,1,0,.15c0,.19-.06.38-.1.57s0,.14,0,.21-.07.37-.11.55l0,.18c0,.18-.08.37-.12.55s0,.13,0,.19-.05.23-.08.34l-.12.47q-.35,1.38-.82,2.73l-.14.39-.14.38c-.07.2-.15.4-.23.6l-.19.47-.09.23-.16.37-.16.37-.12.28-.18.38c-.09.2-.18.39-.28.59l-.19.38-.21.41-.09.18-.24.45-.27.48c-.2.35-.41.7-.62,1-.37.6-.76,1.18-1.16,1.76l-.25.35-.24.33-.34.46-.31.39-.38.48-.1.12c-.27.32-.54.64-.81,1q-.79.89-1.64,1.73l-.32.31-.3.28-.1.09A34.67,34.67,0,0,1,827.57,630l-1,.42-.37.14-1,.36-.5.16-.5.16-.51.15-.43.12-.59.16-.77.18-.65.14-.15,0-.22,0-.5.1-.13,0-.74.12a35.34,35.34,0,0,1-5.52.44h-1.57l-.45,0-.31,0h-.18l-.18,0h-.14l-.31,0h-.09l-.64-.07h0l-.39,0-.28,0h-.16l-.5-.07-.17,0h0l-.62-.1h-.14l-.08,0-.58-.11-.19,0-.67-.15-.44-.1-.21-.05-.08,0-.08,0-.36-.09-.22-.06-.14,0-.39-.11-.21-.06-.09,0-.7-.22-.28-.09-.4-.13-.11,0-.18-.06-.17-.06-.32-.12h0l0,0-.59-.23-.18-.07-.11,0-.18-.07-.17-.07-.09,0-.15-.07-.22-.09-.27-.12-.17-.08-.4-.18-.17-.08,0,0-.41-.2-.24-.12-.2-.1-.09,0-.21-.11-.1-.06-.1-.05-.06,0-.18-.1-.43-.23-.05,0-.44-.25-.08,0-.34-.2,0,0-.25-.15-.2-.12-.17-.1-.23-.15-.11-.07-.37-.24-.2-.13-.09-.06-.23-.16-.11-.08-.24-.17-.26-.19-.19-.14-.11-.08-.31-.23-.31-.24-.21-.17-.29-.23-.31-.25-.11-.09-.12-.1.23.05a35,35,0,0,0,32.51-9.48l.16-.16c.59-.6,1.16-1.23,1.7-1.87.24-.28.47-.57.7-.86s.33-.42.48-.62l.38-.51.31-.43h0l.27-.4q.84-1.22,1.57-2.52a34.78,34.78,0,0,0,3.39-8.28,33.9,33.9,0,0,0,.84-4.19c.1-.72.18-1.44.23-2.17a33.32,33.32,0,0,0,.07-3.71c0-.1,0-.2,0-.31s0-.12,0-.18c0-.39,0-.79-.07-1.19q-.11-1.34-.32-2.68c-.06-.41-.14-.81-.21-1.2a34.19,34.19,0,0,0-1.23-4.64c-.1-.3-.2-.59-.32-.89q-.48-1.31-1.07-2.56l-.13-.27h0q-.54-1.14-1.16-2.22h0l-.12-.2,0-.08-.16-.28,0,0a35,35,0,0,0-5.44-7q-1.07-1.06-2.23-2l.6.15.6.16.53.15.17,0,1.14.36.06,0h0l.1,0,.43.15,0,0,.1,0,.12,0,.38.14.05,0,0,0,.25.1.25.1.59.24,0,0,.53.23h0l0,0,.54.24,0,0,.25.12.29.14.11.05.46.23.08,0,.19.1.29.15.4.21.14.07,0,0,.55.31h0l.54.32.06,0,.54.33.33.21.06,0,.09.06.14.09.43.29h0l.34.24.15.1h0l.05,0,.14.1,0,0,.05,0,.19.14.08.06h0l.16.12.08.06.14.1,0,0,.41.32.7.56.36.3.48.42.27.24.3.28.1.09.37.35.26.25.18.17.36.36.44.46q.45.47.89,1l.39.46.39.46,0,.06.38.47.39.51q.39.51.75,1l.31.44.09.14.2.29.13.2.12.19.11.18.33.53.08.13.06.1.25.42.05.09c.19.34.38.69.57,1l.1.19.05.1.12.23.14.27,0,.08.1.2.06.13.11.22.08.18,0,.09.15.32.15.35.21.49.11.26,0,.1c.08.2.16.4.23.6l.07.2,0,.08.16.43.09.26.06.17.15.43.11.34.06.19,0,.06,0,.14,0,.15.13.44,0,.12v0l.06.21,0,.08.12.45v0l.1.41.06.28,0,.18c0,.12.06.25.08.38l0,.07,0,.07v.05l0,.09,0,.12c0,.19.08.38.11.57s0,.19.05.29.08.43.11.65l0,.1q.13.8.21,1.59a.44.44,0,0,1,0,.08s0,.07,0,.1a.42.42,0,0,1,0,.06c0,.22,0,.45.06.68Q848.93,596.35,848.93,597.8Z"/><path class="cls-13" d="M800.64,569.22a31.51,31.51,0,0,0-17.77,33.47,31.51,31.51,0,0,1,22.3-30C803.63,571.57,802.15,570.37,800.64,569.22Z"/><path class="cls-15" d="M825.59,564.09c2.16-1.36,5.47-.61,7.4,1.67s1.75,5.23-.4,6.59-5.47.62-7.4-1.67-1.75-5.23.4-6.59Z"/><path class="cls-16" d="M832.81,572.65c-2.81,1.87-6.28-.7-6.33-.78l0-.07h0s4.4,2.23,6.65-.06a3.54,3.54,0,0,0,.79-1.28,5.27,5.27,0,0,0-.85-4.61,6.4,6.4,0,0,0-3.06-2.18,7.48,7.48,0,0,0-1.44-.26h-.4a9.61,9.61,0,0,1,2.09.16,5.8,5.8,0,0,1,3.25,2.37,5.17,5.17,0,0,1,1.1,4.36A4.38,4.38,0,0,1,832.81,572.65Z"/><path class="cls-17" d="M832.48,572.43c-2.81,1.87-6.28-.7-6.33-.78l0-.07-.08-.12a7.47,7.47,0,0,0,2.14,1,9.17,9.17,0,0,0,1.31.24,7.61,7.61,0,0,0,.88.06,3.93,3.93,0,0,0,2.57-1,3.72,3.72,0,0,0,1-1.63,3.9,3.9,0,0,0,.1-1.85,4.21,4.21,0,0,0-.13-.55,3.27,3.27,0,0,0-.15-.48c0-.08-.08-.18-.16-.35a5.15,5.15,0,0,0-.87-1.28h0l-.16-.17-.44-.42-.43-.36a6.46,6.46,0,0,0-2-1,5.53,5.53,0,0,0-1.7-.23h-.24a1.67,1.67,0,0,1-.28,0s.12-.06.13-.06a6.21,6.21,0,0,1,5.47,2.34,5.09,5.09,0,0,1,1.1,4.36A4.38,4.38,0,0,1,832.48,572.43Z"/><path class="cls-18" d="M805.83,562.58a33.53,33.53,0,0,0-25.08,31.59A33.53,33.53,0,0,1,809.91,567C808.51,565.61,807.2,564.07,805.83,562.58Z"/><path class="cls-19" d="M848.88,591.89l-.37.5q-.52.69-1.1,1.42c-3.64,4.53-6.93,6.51-9.82,6.71a7,7,0,0,1-4.26-1,8.77,8.77,0,0,1-2.25-2,14.81,14.81,0,0,1-2.7-5.55c-.06-.22-.13-.44-.19-.67a23.53,23.53,0,0,1-.69-3.2,30.93,30.93,0,0,1-.29-6.76c0-.51,0-1,0-1.54,0-.16,0-.32,0-.49,0-1-.71-1.76-.3-2.48a1.83,1.83,0,0,1,1-.75c.86-.31,1.35.54,2.21.29.56-.16.6-.54,1-.56h.18c.62.13,1.11,1,1.28,1.31a8,8,0,0,1,.81,2.45,39.12,39.12,0,0,1,.41,4.32c.07,1,.15,2.16.3,3.33,0,.15,0,.29.06.43.07.5.15.93.22,1.31l0,.18c0,.12.05.24.08.36h0a3.82,3.82,0,0,0,.88,2,.57.57,0,0,0,.24.13c.46.12,1.06-.14,3.15-2.52,2.31-2.62,2.83-3.74,4.68-5.95.54-.64,1-1.2,1.42-1.68l.1.19.05.1.12.23.14.27,0,.08.1.2.17.35.5-.41Z"/><path class="cls-20" d="M796,565a35.67,35.67,0,0,0-11.38,28,35.72,35.72,0,0,1,6.6-24.94Z"/><path class="cls-21" d="M821.42,597.93c-.08.62-.18,1.26-.3,1.92h0c-.62,3.21-1.86,6.59-4.33,8.69l-.05,0-.21.06-.72.2-2,.56c-3.22,1-6,1.93-8.21,2.8a33.81,33.81,0,0,0-9.28,4.9c-.7.54-1.25,1-1.63,1.37a10.54,10.54,0,0,0-1.52,1.92,9.27,9.27,0,0,0-1,2,10,10,0,0,0-.4,2.23v.13l-.11-.09-.12-.1h0l-.68-.58-.35-.31-.34-.31-.47-.44-.17-.17-.33-.32-.27-.27c-.25-.25-.49-.51-.73-.77l-.36-.39-.35-.4-.68-.81,0,0-.32-.4-.33-.42-.25-.33a7.54,7.54,0,0,0-.1.8l-.17-.21h0l-.4-.49-.52-.68-.26-.34h0a35.3,35.3,0,0,1-2.61-4.1c.13-.35.27-.7.43-1.06h0a21.19,21.19,0,0,1,1.62-3s3.61-5.11,14.38-8.41l.28-.08s2.66-1,4.9-2h0c1.67-.77,3.11-1.56,3.07-2,0,0,0-.19,0-.46a5.88,5.88,0,0,0-.38-2.94,1.3,1.3,0,0,0-1.36-.72l-.78.28c-2.33.83-5.51,2-9.33,3.6l-.06,0c-1.78.73-2.32,1-2.66,1.14a30.34,30.34,0,0,0-7.42,5.06h0q-1.1,1-2.24,2.22a29.83,29.83,0,0,0-1.07,2.93h0c-.11.35-.21.72-.31,1.1h0c-.15.57-.28,1.16-.38,1.75l-.2-.46a35.39,35.39,0,0,1-2-6.13q.46-.68,1-1.36c-.05-.33-.1-.67-.14-1,0-.16,0-.31-.06-.47s0-.35-.06-.53h0q-.16-1.62-.17-3.22a15.6,15.6,0,0,0-1,1.47c-.09.16-.21.37-.35.64,0,0,0,0,0,0-.05-.55-.09-1.1-.12-1.64h0c0-.19,0-.37,0-.56v0c0-.32,0-.63,0-.95h0a35.33,35.33,0,0,1,1.37-10l.62-.55a25.11,25.11,0,0,1,2-1.53c.33-.22.67-.45,1-.68q1.07-.68,2.38-1.38l.38-.2h0l.32-.17,1.21-.59c1.56-.74,3.34-1.49,5.37-2.22l1.3-.32c3.41-.89,12.29-3.5,11-6.3a2.23,2.23,0,0,0-.54-.7c-6.67,1.37-9.4,1.79-9.77,1.65a1.2,1.2,0,0,0-1.15.12h0a46.88,46.88,0,0,0-5.38,2.55l-1.3.74h0l-.87.51-.35.21q-1.27.78-2.62,1.69l-1.14.78q-1.53,1.07-3.15,2.32l1.4-4.63.41-1.33.1-.33a22.53,22.53,0,0,1,3.36-4.45c.49-.52,1-1.06,1.64-1.6h0a31.78,31.78,0,0,1,18.07-8,41.56,41.56,0,0,1,7-.2l1.12.07a9.77,9.77,0,0,1,2.65.54h0a9.61,9.61,0,0,1,4.6,3.24h0a10.28,10.28,0,0,1,1.71,3.49h0a17.06,17.06,0,0,1,.46,6s-.94,4.27-4,6.3a6.35,6.35,0,0,1-.69.4,13.34,13.34,0,0,1,1.83,1.55h0a13.68,13.68,0,0,1,2.4,3.19,9.66,9.66,0,0,1,1.19,4.54A35,35,0,0,1,821.42,597.93Z"/><path class="cls-22" d="M789.88,590.82l-.06.06c-4.44,1.42-8.93,3.76-11.32,7.62,0,0-3.61,6.22-2.61,9.29l-3.17.31s.63-14.57,16.12-17.1Z"/><path class="cls-23" d="M776.77,575.66l2.5,1.84s10.63-10.13,25.3-8.14l-.08-2.46L793,565.52Z"/><path class="cls-24" d="M820.41,569.55h0a20,20,0,0,1-.38,3.6s-1.61,4.76-5.37,6.14a14.06,14.06,0,0,1,2.24,2.52,13.42,13.42,0,0,1,1.14,1.95h0a10.36,10.36,0,0,1,1,3.84,9,9,0,0,1,0,1.52,35.11,35.11,0,0,1-1.3,7.77,20.4,20.4,0,0,1-2.46,5.56,12,12,0,0,1-1.27,1.62,9.81,9.81,0,0,1-1.73,1.48,106.68,106.68,0,0,0-11.43,2.37,33.68,33.68,0,0,0-9.76,3.85c-.75.46-1.36.88-1.77,1.18a10.46,10.46,0,0,0-1.36,1.3c-.12.14-.24.28-.36.44a9.27,9.27,0,0,0-1.19,1.92,9.94,9.94,0,0,0-.58,1.85c-.05.24-.1.5-.14.78h0c0,.27-.06.54-.07.82a7.14,7.14,0,0,0,1.87,4.14v0a20.43,20.43,0,0,0,3.75,3.58l0,0a27.58,27.58,0,0,0,4.11,2.54s8.37,3.68,14.13,4.22V636h0c-.76-.07-12-1.23-21-5.31-4.23-1.93-7.94-4.52-9.77-8,0,0-7.25-8.16-.29-18.29q.46-.68,1-1.36l.12-.16a8.45,8.45,0,0,1,.82-.76h0a18.74,18.74,0,0,1,2.21-1.58l.35-.21a29.14,29.14,0,0,1,4.14-2,41.4,41.4,0,0,1,7.43-2.15l.54-.1s8.36-2.14,8.36-3.11c0,0,0-.15.07-.35.14-.74.41-2.47-.2-3.37a1.38,1.38,0,0,0-.2-.24,1.32,1.32,0,0,0-.91-.33s-.45,0-1.24.07h-.05a50.59,50.59,0,0,0-11.09,2.09l-1,.35-.37.14q-.7.26-1.39.55l-.1,0,0,0-.16.07-.07,0-.06,0-.08,0-.4.18h0l-.37.18-.31.15-.26.13-.44.23-.34.19h0l-.1.06-.28.16,0,0h0l-.18.11L783,594h0l-.37.25-.14.1,0,0-.29.2-.28.21-.58.47-.27.23-.24.22-.05,0-.24.23-.26.25q-.43.44-.82.91l-.24.3h0l-.19.25h0l-.11.15c-.15.2-.29.41-.42.63,0,0-.34.58-.78,1.47-.82,1.68-2,4.46-2,6.58,0,.09,0,.18,0,.27h0a4.29,4.29,0,0,0,.06.52h0l.05.24h0a0,0,0,0,0,0,0v.08l0,.05,0,0-.15,0h0l-.29,0h0l-.75.12-1.43.23-.49.08-.12,0h-.06s-1.61-18,1.15-25c0,0,.94-2.51,6-5.28A40.3,40.3,0,0,1,787.3,575l.14,0,.11,0,1.1-.32q1.2-.34,2.52-.66s1-.11,2.36-.34l.31-.05.46-.08h0a42.17,42.17,0,0,0,6-1.43,12.57,12.57,0,0,0,2.54-1.12,2.54,2.54,0,0,0,1.36-1.59,1.47,1.47,0,0,0-.25-1,2.71,2.71,0,0,0-.26-.35s-2.44-1-7.6-.2q-.82.13-1.73.33t-1.66.41c-.7.19-1.43.41-2.21.66a56,56,0,0,0-6.9,2.84c-2,1-4.26,2.2-6.64,3.65l0-.1,2.55-5.94s10-14.93,32.6-10.63a10.21,10.21,0,0,1,6.55,4.17h0A9.75,9.75,0,0,1,820,566,13,13,0,0,1,820.41,569.55Z"/><path class="cls-25" d="M787.29,614.66c-.57.45-4.51,3.65-4.26,8.2.27,4.88,5.17,7.73,6.76,8.65s3.22,1.38,6.76,2.46c3.09.94,5.46,1.44,6.33,1.61a63.6,63.6,0,0,0,6.67,1l0-1.34a52.65,52.65,0,0,1-9.58-2.28,38.6,38.6,0,0,1-8.52-4,15.62,15.62,0,0,1-4.88-4.49,8.15,8.15,0,0,1-1.19-2.26C784.33,618.87,786.6,615.58,787.29,614.66Z"/><path class="cls-26" d="M809.51,634.58V636h0c-1.63-.21-3.61-.53-5.83-1-3.15-.66-5.51-1.36-6.33-1.61-3.54-1.08-5.31-1.61-6.76-2.46s-6.49-3.77-6.76-8.65a8.22,8.22,0,0,1,1-4.25c.11-.21.23-.42.35-.62a12.7,12.7,0,0,1,1.88-2.38,12.12,12.12,0,0,1,1.07-1l-.1.14a11.33,11.33,0,0,0-2,4.39,7.51,7.51,0,0,0-.1.8,6,6,0,0,0,.23,2.19,8.21,8.21,0,0,0,1.19,2.27l.21.3a14.71,14.71,0,0,0,3.76,3.59l.91.6a39,39,0,0,0,8.52,4A52.67,52.67,0,0,0,809.51,634.58Z"/><path class="cls-27" d="M803.31,589.28h0c-.57,0-1.49,0-2.63,0a40.38,40.38,0,0,0-9.13,1.13,36.12,36.12,0,0,0-4.57,1.54l-.05,0,0,0-.16.07-.07,0-.06,0-.08,0-.4.18h0c-.59.27-1.15.52-1.71.84l-.48.28-.63.4L783,594l-.36.26-.15.1,0,0a16.9,16.9,0,0,0-3.46,3.51h0a15.6,15.6,0,0,0-1,1.47c-.09.16-.21.37-.35.64a17.26,17.26,0,0,0-1.48,4.11,17.89,17.89,0,0,0-.41,3.48,0,0,0,0,0,0,0v.08l0,.05a.14.14,0,0,1,0,0l-.06,0-.07,0h0l-.29,0h0a6.77,6.77,0,0,0-.75.12l-1.43.23-.49.08v0l0-.19,0-.15a26.13,26.13,0,0,1,4.76-10.17q.58-.74,1.26-1.47l0,0,.15-.16.06-.06.64-.64q.65-.62,1.39-1.21a20.72,20.72,0,0,1,1.74-1.26l.59-.37.12-.07c.32-.19.64-.37,1-.54l.06,0,.27-.14a29.75,29.75,0,0,1,3.39-1.45,30.58,30.58,0,0,1,12.84-1.77c.73.05,1.39.13,2,.2.06.1.1.2.16.3l0,.08S803.28,589.23,803.31,589.28Z"/><path class="cls-28" d="M803.21,589.06l-.26,0a29.06,29.06,0,0,0-14.16,1.33,24,24,0,0,0-8,4.48,24.23,24.23,0,0,0-7.58,13.4l-.45.08-.16,0a25.93,25.93,0,0,1,3.16-8,24.71,24.71,0,0,1,2.17-3.05c.16-.19.44-.52.86-.95l0,0c.2-.21,1-1,1.57-1.52a22.78,22.78,0,0,1,5.49-3.53c.27-.12,1.06-.48,2.3-.93a31.47,31.47,0,0,1,4.13-1.23,30.08,30.08,0,0,1,5.72-.68,30.54,30.54,0,0,1,5,.29l.05.09.05.09Z"/><path class="cls-29" d="M852.5,600.16l-2.07.09s.19-7.2-2.84-4.92l3-3.54Z"/><path class="cls-30" d="M852.5,600.16s-.64-8.37-2.51-7a4,4,0,0,0-2,1.83s2.34-3.23,2.81-.23c0,0,.92,5,1.58,5.37Z"/><path class="cls-31" d="M852.79,595.46c0,.24,0,.49,0,.73s0,.75,0,1.12,0,.64-.06,1,0,.36,0,.55,0,.24,0,.36,0,.05,0,.08c0,.28-.06.56-.1.83h0v0a27.49,27.49,0,0,1-1.06-3.29c-.58-2.3-.54-3.45-1.14-3.62a.5.5,0,0,0-.28,0,1.4,1.4,0,0,0-.51.27,6.37,6.37,0,0,0-.76.71c-.18.19-.38.42-.6.67l-.26.3-.28.33c-.51.61-1.1,1.34-1.79,2.18l-.68.92-.89,1.18c-.41.54-.82,1.07-1.24,1.58l-.46.55q-.37.45-.75.87c-3.52,3.9-6.6,5.52-9.22,5.56a6.5,6.5,0,0,1-2.65-.49l-.3-.13a6.48,6.48,0,0,1-1-.62l-.42-.33c-.16-.14-.32-.29-.47-.44a8.78,8.78,0,0,1-.88-1,13.09,13.09,0,0,1-2.15-4.89c-.07-.31-.12-.6-.17-.85-.12-.72-.25-1.47-.37-2.25a48.12,48.12,0,0,1-.6-7.57c0-.28,0-.56,0-.84s0-.61,0-.91c0-.6.09-1.13.1-1.35s.06-.71.09-1.06c.18-2,.4-3.64.57-4.82v0l0-.17A18.39,18.39,0,0,1,826,576a4.45,4.45,0,0,1,.74-.81,2.64,2.64,0,0,1,.3-.21,2.28,2.28,0,0,1,.87-.3,3.34,3.34,0,0,1,2.16.12,3.12,3.12,0,0,1,1,.7h0c.09.1.18.19.25.28s.22.29.29.39a4.14,4.14,0,0,1,.5,1,3.2,3.2,0,0,1,.16,1.15c0,.25,0,.52-.05.84s0,.52-.08.84c-.06.71-.08,1.43-.12,2.15-.06,1-.11,1.9-.14,2.94-.05,1.51-.06,2.63-.06,3.48,0,.15,0,1.23.06,2.65,0,.32,0,.6,0,.84a5.8,5.8,0,0,0,.26,1.47l.05.16c.43,1.19,1,1.44,1.17,1.52a1.55,1.55,0,0,0,.54.09h.21a4.36,4.36,0,0,0,2.39-1.64,17.07,17.07,0,0,0,1.68-1.92c1.77-2.58,4.29-6.26,7.38-8.85h0l.5-.41a13.76,13.76,0,0,1,3.38-2,35.3,35.3,0,0,1,2.81,9.1c0,.16.05.31.08.47s0,.29.06.44.06.48.09.72.07.65.1,1Q852.79,593.82,852.79,595.46Z"/><path class="cls-4" d="M872.3,594.23l.14,0a30.37,30.37,0,0,1,4-3.63,13.36,13.36,0,0,1,3.29-1.73,11.07,11.07,0,0,1,3.72-.6,10.56,10.56,0,0,1,6.29,1.87,11.79,11.79,0,0,1,4,5.6,25.84,25.84,0,0,1,1.42,9.15,23.4,23.4,0,0,1-1.7,9.44,12.33,12.33,0,0,1-5,5.83,15,15,0,0,1-7.83,2,23.55,23.55,0,0,1-4.78-.46,21,21,0,0,1-4.71-1.63l-2.4,2.09-2.36-.55V584.36q0-3.29-.05-4.59a11.35,11.35,0,0,0-.27-2.21,3.84,3.84,0,0,0-.62-1.42,2.77,2.77,0,0,0-1.06-.82,11.17,11.17,0,0,0-2.42-.62v-1.78l8.29-.34h2Zm0,15a28.84,28.84,0,0,0,.24,4.2,7.84,7.84,0,0,0,.81,2.59,6.3,6.3,0,0,0,1.64,1.88,6.21,6.21,0,0,0,2.42,1.18,12.64,12.64,0,0,0,3,.32,6.92,6.92,0,0,0,6.24-3.36q2.12-3.36,2.12-10.08t-1.94-10.19a6.3,6.3,0,0,0-5.84-3.41,8.26,8.26,0,0,0-3.32.6,9.75,9.75,0,0,0-2.72,1.87,9.43,9.43,0,0,0-2,2.5,6.06,6.06,0,0,0-.63,2.81Z"/><path class="cls-4" d="M902.08,619.93a11.32,11.32,0,0,0,1.9-.72,2.86,2.86,0,0,0,1-.86,4.39,4.39,0,0,0,.62-1.68,20.13,20.13,0,0,0,.22-3.53V598.21q0-2.19-.07-3.53a5.35,5.35,0,0,0-.48-2.14,2.61,2.61,0,0,0-1.25-1.2,10,10,0,0,0-2.38-.67v-1.82l8-.31h2.09V613a20.44,20.44,0,0,0,.27,4.1,3,3,0,0,0,1,1.75,7.07,7.07,0,0,0,2.52,1v1.68H902.08Zm9.8-44.52v6.65h-6.31v-6.65Z"/><path class="cls-4" d="M930.76,594.23l.14,0a33.3,33.3,0,0,1,4.23-3.79,13.39,13.39,0,0,1,3.08-1.63,9.62,9.62,0,0,1,3.27-.55,11.64,11.64,0,0,1,3.36.45,7.49,7.49,0,0,1,2.59,1.35,7.22,7.22,0,0,1,1.82,2.23,11,11,0,0,1,1,3.15,26.06,26.06,0,0,1,.34,4.64V613a20.86,20.86,0,0,0,.26,4.06,3.17,3.17,0,0,0,.93,1.68,7.15,7.15,0,0,0,2.69,1.15v1.68H941v-1.68a12.09,12.09,0,0,0,1.92-.72,2.81,2.81,0,0,0,1-.86,4.41,4.41,0,0,0,.62-1.7,19.92,19.92,0,0,0,.22-3.48v-9a39.67,39.67,0,0,0-.46-7,6.23,6.23,0,0,0-1.82-3.61,5.52,5.52,0,0,0-3.79-1.2,6.1,6.1,0,0,0-2.47.48,10.76,10.76,0,0,0-2.54,1.71,9.7,9.7,0,0,0-2.18,2.54,5.55,5.55,0,0,0-.74,2.78V613a31.54,31.54,0,0,0,.12,3.32,4.93,4.93,0,0,0,.46,1.66,2.76,2.76,0,0,0,1,1.1,8.36,8.36,0,0,0,2.18.8v1.68H921v-1.68a9.78,9.78,0,0,0,2.16-.79,2.81,2.81,0,0,0,1-1,4.6,4.6,0,0,0,.53-1.68,24.93,24.93,0,0,0,.17-3.46V584.36q0-3.29-.05-4.59a11.35,11.35,0,0,0-.27-2.21,3.84,3.84,0,0,0-.62-1.42,2.77,2.77,0,0,0-1.06-.82,11.17,11.17,0,0,0-2.42-.62v-1.78l8.26-.34h2.06Z"/><path class="cls-4" d="M980.11,616.71l-.51-.14a20.91,20.91,0,0,1-5.6,4.32,12.64,12.64,0,0,1-5.57,1.27,10,10,0,0,1-4.59-1,7.2,7.2,0,0,1-3.05-2.84,8.29,8.29,0,0,1-1.06-4.23q0-5,5-7.73t14.86-3.17v-2.23a18.41,18.41,0,0,0-.69-5.62,5.53,5.53,0,0,0-2.16-3,7.15,7.15,0,0,0-3.94-1,6.36,6.36,0,0,0-4.3,1.41A8.6,8.6,0,0,0,966,597h-4.49v-4.46A48.8,48.8,0,0,1,967,590a31.78,31.78,0,0,1,4.39-1.27,21.61,21.61,0,0,1,4.46-.46,11.77,11.77,0,0,1,5.45,1.08,6.86,6.86,0,0,1,3.08,3.31,16.78,16.78,0,0,1,1,6.72V611.3q0,2.54,0,3.58a12.2,12.2,0,0,0,.21,1.94,4,4,0,0,0,.51,1.42,2.8,2.8,0,0,0,1,.91,10.21,10.21,0,0,0,2.18.79v1.68h-9.39ZM979.53,606q-7,.07-10.42,1.85a5.74,5.74,0,0,0-3.46,5.38,5.31,5.31,0,0,0,.79,3.08,4,4,0,0,0,2,1.56,8.44,8.44,0,0,0,2.84.43,8.12,8.12,0,0,0,4.23-1.13,8.44,8.44,0,0,0,3-2.88,6.64,6.64,0,0,0,1.06-3.46Z"/><path class="cls-4" d="M1003.83,594.13l.48.14a41.8,41.8,0,0,1,3.37-3.1,15.78,15.78,0,0,1,2.55-1.68,11.15,11.15,0,0,1,2.31-.91,9,9,0,0,1,2.21-.27,9.25,9.25,0,0,1,5.59,1.58,8.21,8.21,0,0,1,3,4.83,45.56,45.56,0,0,1,4.16-3.84,13.61,13.61,0,0,1,3.26-1.9,9.48,9.48,0,0,1,3.58-.67,10.56,10.56,0,0,1,4,.67,6.94,6.94,0,0,1,2.81,2.06,8.75,8.75,0,0,1,1.68,3.48,23.74,23.74,0,0,1,.53,5.62V613a24.79,24.79,0,0,0,.17,3.6,4.59,4.59,0,0,0,.5,1.54,2.77,2.77,0,0,0,1,.94,9.14,9.14,0,0,0,2.19.8v1.68h-13.47v-1.68a12.12,12.12,0,0,0,1.92-.72,2.81,2.81,0,0,0,1-.86,4.39,4.39,0,0,0,.62-1.7,19.9,19.9,0,0,0,.22-3.48v-9q0-2.91-.15-4.81a16.1,16.1,0,0,0-.48-3,5.32,5.32,0,0,0-1.83-2.91,4.46,4.46,0,0,0-1.37-.75,6.54,6.54,0,0,0-2.09-.27,6,6,0,0,0-2.55.55,10.19,10.19,0,0,0-2.57,1.85,8.8,8.8,0,0,0-2,2.62,7.27,7.27,0,0,0-.62,3.1V613a24.79,24.79,0,0,0,.17,3.6,4.59,4.59,0,0,0,.5,1.54,2.77,2.77,0,0,0,1,.94,9.14,9.14,0,0,0,2.19.8v1.68h-13.47v-1.68a12.12,12.12,0,0,0,1.92-.72,2.81,2.81,0,0,0,1-.86,4.39,4.39,0,0,0,.62-1.7,19.9,19.9,0,0,0,.22-3.48v-9q0-3-.17-5a15.52,15.52,0,0,0-.53-3.08,5.81,5.81,0,0,0-.93-1.88,4.89,4.89,0,0,0-1.15-1.1,4.38,4.38,0,0,0-1.37-.56,7.67,7.67,0,0,0-1.78-.19,5.69,5.69,0,0,0-2.64.63,11.43,11.43,0,0,0-2.52,1.83,8.92,8.92,0,0,0-1.94,2.5,6.19,6.19,0,0,0-.65,2.81V613q0,2,.1,3a6.5,6.5,0,0,0,.32,1.61,2.79,2.79,0,0,0,.57.94,3.68,3.68,0,0,0,1,.69,10.22,10.22,0,0,0,1.9.67v1.68H994.61v-1.68a11.49,11.49,0,0,0,1.87-.72,3,3,0,0,0,1-.86,4,4,0,0,0,.62-1.68,21.73,21.73,0,0,0,.21-3.53V598.21q0-2.19-.07-3.53a5.36,5.36,0,0,0-.48-2.14,2.61,2.61,0,0,0-1.25-1.2,10,10,0,0,0-2.38-.67v-1.82l8-.31h2.09Z"/><path class="cls-4" d="M1072.78,616.71l-.51-.14a20.91,20.91,0,0,1-5.6,4.32,12.64,12.64,0,0,1-5.57,1.27,10,10,0,0,1-4.59-1,7.2,7.2,0,0,1-3.05-2.84,8.29,8.29,0,0,1-1.06-4.23q0-5,5-7.73t14.86-3.17v-2.23a18.41,18.41,0,0,0-.69-5.62,5.53,5.53,0,0,0-2.16-3,7.15,7.15,0,0,0-3.94-1,6.36,6.36,0,0,0-4.3,1.41,8.6,8.6,0,0,0-2.45,4.22h-4.49v-4.46a48.8,48.8,0,0,1,5.48-2.52,31.78,31.78,0,0,1,4.39-1.27,21.61,21.61,0,0,1,4.46-.46,11.77,11.77,0,0,1,5.45,1.08,6.86,6.86,0,0,1,3.08,3.31,16.78,16.78,0,0,1,1,6.72V611.3q0,2.54,0,3.58a12.2,12.2,0,0,0,.21,1.94,4,4,0,0,0,.51,1.42,2.8,2.8,0,0,0,1,.91,10.21,10.21,0,0,0,2.18.79v1.68h-9.39ZM1072.2,606q-7,.07-10.42,1.85a5.74,5.74,0,0,0-3.46,5.38,5.31,5.31,0,0,0,.79,3.08,4,4,0,0,0,2,1.56,8.44,8.44,0,0,0,2.84.43,8.12,8.12,0,0,0,4.23-1.13,8.44,8.44,0,0,0,3-2.88,6.64,6.64,0,0,0,1.06-3.46Z"/><path class="cls-11" d="M872.5,423.62c-.46-10.05-6.17-18-12.77-17.77s-11.58,8.58-11.12,18.63,6.17,18,12.77,17.77S873,433.67,872.5,423.62Z"/><path class="cls-11" d="M1011.93,420.48c-.46-10.05-6.17-18-12.77-17.77s-11.58,8.58-11.12,18.63,6.17,18,12.77,17.77S1012.38,430.53,1011.93,420.48Z"/><path class="cls-11" d="M979.87,504C916.76,523.27,870,495,867.82,493.68a5,5,0,0,1-1.62-6.9,5.08,5.08,0,0,1,7-1.6c.54.33,55.06,33,123.38,1.68a5.1,5.1,0,0,1,6.72,2.44,5,5,0,0,1-2.45,6.65A168.19,168.19,0,0,1,979.87,504Z"/><path class="cls-11" d="M817.56,381.19a6,6,0,0,1-1.83-10.08C840.6,350,866.92,357.68,868,358a6,6,0,0,1,4,7.39,5.86,5.86,0,0,1-7.32,4h0c-.87-.25-21.45-6-41.29,10.82A5.89,5.89,0,0,1,817.56,381.19Z"/><path class="cls-11" d="M1046.75,385.39a6,6,0,0,1-5.36-1.72c-18.29-18.8-39.37-15.31-40.26-15.15a6,6,0,0,1-6.94-4.74,5.84,5.84,0,0,1,4.67-6.86c1.17-.19,28.12-5,51,18.58a5.87,5.87,0,0,1-3.16,9.89Z"/></svg>