<svg id="Layer_1" data-name="Layer 1" xmlns="http://www.w3.org/2000/svg" viewBox="0 0 500 333"><defs><style>.cls-1{fill:#0e8fad;}.cls-2{fill:#fff;}.cls-3{fill:#e1e1e1;}.cls-4{fill:#ececec;}</style></defs><title>â</title><rect class="cls-1" x="154.31" y="19.39" width="191.39" height="294.3" rx="14.86" ry="14.86" transform="translate(-28.73 54.55) rotate(-11.78)"/><circle class="cls-2" cx="327.77" cy="228.79" r="20.37" transform="translate(-59.23 128.75) rotate(-20.42)"/><path class="cls-2" d="M329.21,267.05a20.75,20.75,0,0,1-4.77-1.49,20.47,20.47,0,1,1,4.77,1.49Zm7.2-38.61a18.68,18.68,0,1,0,3.18,35.85h0a18.68,18.68,0,0,0-3.18-35.85Z"/><path class="cls-2" d="M202.82,127.79c-2.79.53-5.25-.88-6.15-4.77a8.44,8.44,0,0,1,.86-6.17l1.46.51a7.06,7.06,0,0,0-.82,5.29c.53,2.79,2.19,3.87,4.13,3.48s3.07-2,2.14-6.08l-.72-3.41,8.13-.87,1.83,8.75-1.46.29-1.53-7.31-5.21.51.43,2.05C207.13,124.93,205.67,127.18,202.82,127.79Z"/><path class="cls-2" d="M206.2,143.57a5.09,5.09,0,0,1-6-4q0-.22-.07-.43c-.88-4.25,1.61-7.25,6.58-8.12s8.9,1.25,9.8,5.58a7.51,7.51,0,0,1-.06,4l-1.46-.38a5.71,5.71,0,0,0,.09-3.28c-.72-3.44-3.39-5.21-7.72-4.3-.37.08-.82.18-1.3.33a5.22,5.22,0,0,1,3.7,4.32,4.94,4.94,0,0,1-3.17,6.22l-.44.12Zm-.37-1.62a.43.43,0,1,1-.5.35.43.43,0,0,1,.5-.35Z"/><path class="cls-2" d="M210.58,165.48c-2.67.55-5.15-.95-6-4.7a8.49,8.49,0,0,1,.85-6.2l1.51.53a7.16,7.16,0,0,0-.83,5.35c.56,2.65,2.08,3.86,4,3.42s2.9-2,2.27-5l-.24-1.15,1.21-.25,6.47,3.27-1.57-8.22,1.46-.29,2.16,10.28-1.15.24-6.65-3.35C214.66,162.9,213.14,164.94,210.58,165.48Z"/><path class="cls-2" d="M214.09,181.53a5.09,5.09,0,0,1-6-4q0-.22-.07-.43c-.88-4.25,1.61-7.25,6.58-8.12s8.9,1.25,9.8,5.58a7.51,7.51,0,0,1-.06,4l-1.46-.38a5.73,5.73,0,0,0,.09-3.28c-.72-3.44-3.39-5.21-7.72-4.3l-1.3.33a5.22,5.22,0,0,1,3.7,4.32,4.94,4.94,0,0,1-3.17,6.22l-.44.12Zm-.37-1.62a.2.2,0,1,1,0-.05Z"/><path class="cls-2" d="M228.38,193.85l-1.16.11L211,190.36l-.37-1.77,15.89,3.55-1.72-8.22-3,.62-.34-1.63,4.47-1Z"/><path class="cls-2" d="M233.16,216.71,232,217l-16.21-3.61-.37-1.77,15.89,3.55-1.73-8.22-3,.62-.34-1.63,4.49-1Z"/><path class="cls-2" d="M224.89,234.89c-2.82.6-5.1-1.45-6-5.28s.47-6.54,3.31-7.13a4.09,4.09,0,0,1,4.58,2.26,3.7,3.7,0,0,1,3-3.25c2.62-.54,4.74,1.35,5.39,4.71s-.43,6-3,6.52a3.7,3.7,0,0,1-4.06-1.82A4.12,4.12,0,0,1,224.89,234.89Zm-.31-1.71c2-.4,2.84-2.37,2.26-5.18s-2.17-4.23-4.13-3.82-2.86,2.33-2.29,5.17,2.17,4.24,4.16,3.84Zm3.56-5.45c.51,2.47,1.95,3.74,3.69,3.38s2.56-2.18,2-4.5-1.92-3.73-3.7-3.36-2.57,2-2.06,4.44Z"/><path class="cls-2" d="M231.82,249.63c-5.44,1.14-8.9-1.25-9.8-5.58a7.38,7.38,0,0,1,.06-4l1.42.5a5.73,5.73,0,0,0-.09,3.28c.72,3.44,3.39,5.21,7.73,4.28.37-.08.82-.18,1.3-.33a5.22,5.22,0,0,1-3.7-4.32,4.94,4.94,0,0,1,3.68-6.38,5.09,5.09,0,0,1,6,4q0,.22.07.43C239.34,245.67,236.86,248.58,231.82,249.63Zm2.7-2.94a3.79,3.79,0,0,0,2.64-4.66q0-.14-.09-.28a3.57,3.57,0,1,0-6.91,1.57,3.79,3.79,0,0,0,4.12,3.43h0l.21,0Z"/><path class="cls-2" d="M243,264.22l-16,3.33-.34-1.63,14.53-3-.79-3.77,1.46-.29Z"/><path class="cls-2" d="M232,283.69l-1.46.29-2.33-11.25,1.15-.24,7.87,5.38a5.44,5.44,0,0,0,4.41,1.32c1.86-.39,2.72-1.94,2.23-4.43a5.56,5.56,0,0,0-2.69-4l.77-1.37a7.38,7.38,0,0,1,3.4,5.16c.69,3.24-.55,5.65-3.22,6.2a6.72,6.72,0,0,1-5.55-1.58l-6.48-4.33Z"/><path class="cls-2" d="M238.09,297.38c-2.67.55-5.15-.95-6-4.7a8.49,8.49,0,0,1,.85-6.2l1.46.51a7.16,7.16,0,0,0-.83,5.35c.56,2.65,2.08,3.86,4,3.42s2.9-2,2.27-5l-.24-1.15,1.21-.25,6.47,3.27-1.7-8.17,1.46-.29,2.16,10.28-1.15.24-6.65-3.35C242.09,294.77,240.64,296.84,238.09,297.38Z"/><rect class="cls-2" x="214.46" y="183.08" width="7.09" height="130.87" transform="translate(-73.42 92.44) rotate(-20.57)"/><rect class="cls-2" x="213.79" y="246.64" width="6.82" height="64.6" transform="translate(-84.16 94.1) rotate(-20.57)"/><rect class="cls-3" x="217.2" y="40.54" width="39.63" height="53.04" rx="11.79" ry="11.79" transform="translate(-8.7 49.8) rotate(-11.78)"/><path class="cls-4" d="M222.93,42.9l2.49-.51L231,69.11a5.73,5.73,0,1,0,11.22-2.34h0l-5.58-26.73,2.49-.51,5.58,26.73a8.26,8.26,0,0,1-16.17,3.36h0Z"/><rect class="cls-4" x="238.67" y="74.56" width="2.54" height="18.75" transform="translate(-12.05 50.53) rotate(-11.73)"/><rect class="cls-2" x="287.89" y="31.7" width="12.11" height="141.21" transform="translate(-14.7 62.16) rotate(-11.78)"/></svg>