<?xml version="1.0" encoding="utf-8"?>
<!-- Generator: Adobe Illustrator 21.0.0, SVG Export Plug-In . SVG Version: 6.00 Build 0)  -->
<svg version="1.1" id="Layer_1" xmlns="http://www.w3.org/2000/svg" xmlns:xlink="http://www.w3.org/1999/xlink" x="0px" y="0px"
	 viewBox="0 0 1200 500" style="enable-background:new 0 0 1200 500;" xml:space="preserve">
<style type="text/css">
	.st0{fill:#0E3359;}
	.st1{fill:#FEDA8E;}
	.st2{fill:#BDE4EB;}
	.st3{fill:#B0D9DF;}
	.st4{opacity:0.1;fill:#FFFFFF;enable-background:new    ;}
	.st5{fill:#BDBFC0;}
	.st6{fill:#A9A9A9;}
	.st7{fill:#3FA690;}
	.st8{fill:#FFCD04;}
	.st9{fill:#FCD004;}
	.st10{opacity:0.2;fill:#939598;enable-background:new    ;}
	.st11{fill:#EFC303;}
	.st12{fill:#FFE264;}
	.st13{fill:#FA261C;}
	.st14{fill:#FFFFFF;}
	.st15{opacity:0.5;fill:#0E3359;enable-background:new    ;}
	.st16{fill:#0E0E2B;}
	.st17{fill:#FDB094;}
	.st18{fill:#9B5D60;}
	.st19{fill:#1F193D;}
	.st20{fill:#2D2451;}
	.st21{fill:#2F2C35;}
	.st22{fill:#F0E5E4;}
	.st23{fill:#D84546;}
	.st24{fill:#3C3945;}
	.st25{fill:#FF65A7;}
	.st26{fill:#EE428C;}
	.st27{fill:#CC2A70;}
	.st28{fill:#041E6B;}
</style>
<title>mail</title>
<path class="st0" d="M349.8,112.8c-0.1,2.1-1,4.2-2.6,5.6c-1.8,1.4-4,2.1-6.2,2c-2.5,0.1-5-0.9-6.7-2.8c-1.6-1.9-2.4-4.5-2.4-7.8
	v-1.3c0-1.9,0.3-3.8,1.1-5.6c0.7-1.5,1.8-2.8,3.2-3.7c3.5-2,7.8-1.7,11,0.8c1.6,1.5,2.6,3.5,2.7,5.7h-4.6c0-1.1-0.4-2.3-1.2-3.1
	c-0.9-0.7-2-1.1-3.1-1c-1.3-0.1-2.6,0.5-3.4,1.6c-0.9,1.5-1.3,3.3-1.2,5v1.7c-0.1,1.8,0.2,3.6,1.1,5.2c0.8,1.1,2.1,1.7,3.4,1.7
	c1.1,0.1,2.3-0.3,3.1-1c0.8-0.8,1.2-1.9,1.2-3L349.8,112.8z"/>
<path class="st0" d="M356.1,105.6c1.1-1.3,2.7-2.1,4.4-2.1c3.6,0,5.4,2.1,5.4,6.2v10.5h-4.4v-10.4c0.1-0.7-0.2-1.5-0.6-2.1
	c-0.5-0.5-1.3-0.7-2-0.7c-1.1-0.1-2.2,0.5-2.8,1.5v11.6h-4.4V96.9h4.4V105.6z"/>
<path class="st0" d="M378.4,118.5c-1.1,1.3-2.8,2.1-4.5,2c-1.5,0.1-2.9-0.5-4-1.5c-1-1.2-1.5-2.8-1.4-4.4v-10.8h4.4v10.6
	c0,1.7,0.8,2.6,2.3,2.6c1.2,0.1,2.4-0.5,3.1-1.6v-11.6h4.4v16.4h-4.1L378.4,118.5z M376.4,96.9h4.8l-4.2,4.7h-3.6L376.4,96.9z"/>
<path class="st0" d="M389.4,103.8l0.1,1.9c1.1-1.4,2.9-2.3,4.7-2.2c1.5-0.1,2.9,0.4,3.9,1.5c0.9,1.3,1.4,2.9,1.3,4.6v10.6H395v-10.5
	c0.1-0.7-0.2-1.4-0.6-2c-0.6-0.5-1.3-0.7-2-0.6c-1.1-0.1-2.2,0.6-2.8,1.6v11.6h-4.4v-16.4H389.4z"/>
<path class="st0" d="M401.4,111.9c-0.1-2.2,0.5-4.3,1.8-6.1c1.1-1.5,2.9-2.4,4.8-2.3c1.6-0.1,3.2,0.6,4.2,1.8l0.2-1.5h4v15.8
	c0,1.3-0.3,2.6-1,3.7c-0.7,1.1-1.6,1.9-2.8,2.4c-1.3,0.6-2.7,0.9-4.1,0.8c-1.2,0-2.4-0.2-3.5-0.7c-1-0.4-1.9-1-2.6-1.8l1.9-2.7
	c1,1.2,2.5,1.9,4,1.8c1,0.1,2-0.3,2.7-0.9c0.7-0.7,1.1-1.7,1-2.6v-0.9c-1,1.1-2.5,1.8-4,1.7c-1.9,0-3.7-0.8-4.8-2.3
	c-1.3-1.8-1.9-3.9-1.8-6.1L401.4,111.9z M405.8,112.2c-0.1,1.2,0.2,2.5,0.9,3.5c0.5,0.8,1.5,1.3,2.5,1.3c1.2,0.1,2.3-0.5,2.9-1.5
	v-6.9c-0.6-1-1.7-1.6-2.8-1.5c-1,0-1.9,0.5-2.5,1.3C406,109.5,405.7,110.9,405.8,112.2L405.8,112.2z"/>
<path class="st0" d="M431.5,99.8v4h2.8v3.2h-2.8v8.2c0,0.5,0.1,0.9,0.4,1.3c0.4,0.3,0.9,0.4,1.3,0.4c0.4,0,0.9,0,1.3-0.1v3.3
	c-0.9,0.3-1.8,0.4-2.6,0.4c-3.1,0-4.6-1.6-4.7-4.7V107h-2.4v-3.2h2.4v-4L431.5,99.8z"/>
<path class="st0" d="M435,111.8c0-1.5,0.3-3,0.9-4.3c0.6-1.2,1.5-2.3,2.7-3c1.2-0.7,2.7-1,4.1-1c2-0.1,3.9,0.6,5.4,2
	c1.5,1.5,2.3,3.4,2.3,5.5v1.1c0.1,2.2-0.7,4.3-2.1,6c-3.2,3-8.1,3-11.3,0c-1.5-1.7-2.2-3.9-2.1-6.1V111.8z M448.5,101.2v0.2H445
	l-2.3-2.2l-2.3,2.2h-3.4v-0.2l4.5-4.2h2.6L448.5,101.2z M439.4,112.2c-0.1,1.3,0.2,2.5,0.9,3.6c1.1,1.4,3,1.6,4.4,0.6
	c0.2-0.2,0.4-0.4,0.6-0.6c0.7-1.2,1-2.5,0.9-3.9c0.1-1.2-0.2-2.5-0.9-3.6c-0.6-0.8-1.5-1.3-2.5-1.3c-1,0-1.9,0.4-2.5,1.3
	C439.6,109.5,439.3,110.8,439.4,112.2L439.4,112.2z"/>
<path class="st0" d="M452.5,99.6c0-0.6,0.2-1.2,0.7-1.6c1-0.8,2.5-0.8,3.6,0c0.9,0.9,0.9,2.3,0,3.3c-1,0.8-2.5,0.8-3.6,0
	C452.8,100.8,452.5,100.2,452.5,99.6z M457.2,120.2h-4.4v-16.4h4.4V120.2z"/>
<path class="st0" d="M483.7,101.8h-2.4v18.4h-4l-0.2-1.7c-1,1.3-2.6,2-4.2,2c-1.8,0-3.6-0.8-4.6-2.3c-1.3-1.9-1.9-4.1-1.8-6.3
	c-0.1-2.2,0.5-4.3,1.7-6.1c1.1-1.5,2.9-2.3,4.7-2.3c1.5-0.1,3,0.6,4,1.8v-3.5h-3.8V99h3.8v-2h4.4v2h2.4L483.7,101.8z M471,112.2
	c-0.1,1.2,0.2,2.5,0.8,3.5c0.5,0.8,1.4,1.3,2.3,1.2c1.2,0.1,2.4-0.6,2.9-1.7v-6.5c-0.5-1.1-1.6-1.8-2.8-1.7
	C472.1,107.1,471,108.8,471,112.2z"/>
<path class="st0" d="M495.7,120.2c-0.2-0.5-0.4-1-0.4-1.5c-1,1.2-2.6,1.8-4.1,1.8c-1.5,0.1-2.9-0.4-4-1.4c-1-0.9-1.6-2.2-1.6-3.5
	c-0.1-1.6,0.6-3.1,1.9-4c1.7-1,3.6-1.5,5.6-1.4h2v-0.9c0-0.7-0.2-1.3-0.6-1.8c-0.5-0.5-1.2-0.7-1.8-0.7c-0.6,0-1.2,0.2-1.7,0.5
	c-0.4,0.4-0.7,0.9-0.6,1.4h-4.4c0-0.9,0.3-1.9,0.9-2.6c0.6-0.8,1.5-1.5,2.5-1.9c1.1-0.5,2.4-0.7,3.6-0.7c1.7-0.1,3.4,0.4,4.8,1.5
	c1.2,1.1,1.9,2.7,1.8,4.3v7.1c-0.1,1.2,0.2,2.4,0.6,3.5v0.3L495.7,120.2z M498.5,97.1c0,1-0.3,2.1-1,2.9c-0.6,0.7-1.5,1.2-2.4,1.2
	c-0.3,0-0.7,0-1-0.1c-0.4-0.1-0.8-0.3-1.2-0.6c-0.4-0.2-0.7-0.4-1.1-0.5c-0.2-0.1-0.5-0.1-0.8-0.1c-0.3,0-0.7,0.1-0.9,0.4
	c-0.3,0.3-0.4,0.7-0.4,1.1l-2.5-0.2c0-1,0.3-2.1,1-2.9c0.6-0.7,1.5-1.2,2.4-1.2c0.3,0,0.6,0,0.9,0.1c0.4,0.2,0.9,0.3,1.3,0.6
	c0.4,0.2,0.8,0.4,1.3,0.5c0.2,0.1,0.5,0.1,0.7,0.1c0.3,0,0.7-0.1,0.9-0.4c0.2-0.3,0.4-0.7,0.3-1.1L498.5,97.1z M492,117.1
	c0.6,0,1.2-0.1,1.8-0.4c0.5-0.3,0.9-0.7,1.2-1.2v-2.8h-1.6c-2.2,0-3.4,0.8-3.5,2.3v0.3c0,0.5,0.2,1,0.6,1.3
	C490.9,117,491.5,117.2,492,117.1L492,117.1z"/>
<path class="st0" d="M508.6,111.9c-0.1-2.2,0.5-4.3,1.8-6.1c1.1-1.5,2.9-2.4,4.8-2.3c1.6-0.1,3.2,0.6,4.2,1.8l0.2-1.5h4v15.8
	c0,1.3-0.3,2.6-1,3.7c-0.7,1.1-1.6,1.9-2.8,2.4c-1.3,0.6-2.7,0.9-4.2,0.8c-1.2,0-2.4-0.2-3.5-0.7c-1-0.4-1.9-1-2.6-1.8l1.9-2.7
	c1,1.2,2.5,1.9,4,1.8c1,0.1,2-0.3,2.7-0.9c0.7-0.7,1.1-1.7,1-2.6v-0.9c-1,1.1-2.5,1.8-4,1.7c-1.9,0-3.7-0.8-4.8-2.3
	c-1.3-1.8-1.9-3.9-1.8-6.1L508.6,111.9z M513,112.2c-0.1,1.2,0.2,2.5,0.9,3.5c0.5,0.8,1.5,1.3,2.5,1.3c1.2,0.1,2.3-0.5,2.9-1.5v-6.9
	c-0.6-1-1.7-1.6-2.8-1.5c-1,0-1.9,0.5-2.5,1.3C513.2,109.5,512.9,110.9,513,112.2L513,112.2z"/>
<path class="st0" d="M544.9,102.4c0.1,1.4-0.3,2.9-1.1,4.1c-0.9,1-2.1,1.5-3.4,1.6v12.2h-4.1l-0.1-1.7c-1.1,1.3-2.8,2.1-4.5,2
	c-1.5,0.1-2.9-0.5-4-1.5c-1-1.2-1.5-2.8-1.4-4.4v-10.8h4.4v10.6c0,1.7,0.8,2.6,2.3,2.6c1.2,0.1,2.4-0.5,3.1-1.6v-11.6h4.4v2.1
	c0.6-0.1,1.1-0.4,1.5-0.9c0.3-0.8,0.5-1.7,0.4-2.6L544.9,102.4z M531.8,101.4l-0.2-2c0.5,0,1.1-0.1,1.6-0.3c0.3-0.1,0.5-0.4,0.5-0.7
	c0-0.7-0.7-1-2.2-1l0.1-2c1.5-0.1,2.9,0.2,4.3,0.8c0.9,0.4,1.4,1.2,1.5,2.2c0,0.6-0.2,1.1-0.6,1.5c-0.5,0.4-1,0.7-1.7,0.7v1
	L531.8,101.4z"/>
<path class="st0" d="M544.6,99.6c0-0.6,0.2-1.2,0.7-1.6c1-0.8,2.5-0.8,3.6,0c0.9,0.9,0.9,2.3,0,3.3c-1,0.8-2.5,0.8-3.6,0
	C544.9,100.8,544.6,100.2,544.6,99.6z M549.3,120.2h-4.4v-16.4h4.4V120.2z"/>
<path class="st0" d="M563.5,103.8l0.1,1.8c1.1-1.4,2.9-2.2,4.7-2.1c1.8-0.2,3.6,0.8,4.3,2.5c1.1-1.6,3-2.6,4.9-2.5
	c1.5-0.1,3,0.4,4,1.6c1,1.4,1.4,3,1.3,4.7v10.5h-4.4v-10.5c0.1-0.7-0.1-1.4-0.5-2c-0.5-0.5-1.2-0.7-1.9-0.6
	c-1.2-0.1-2.3,0.7-2.7,1.9v11.3h-4.4v-10.5c0.1-0.7-0.1-1.5-0.6-2.1c-0.5-0.5-1.2-0.7-1.9-0.6c-1.1-0.1-2.2,0.5-2.7,1.5v11.6h-4.4
	v-16.4H563.5z"/>
<path class="st0" d="M595,120.2c-0.2-0.5-0.4-1-0.4-1.5c-1,1.2-2.6,1.8-4.1,1.8c-1.5,0.1-2.9-0.4-4-1.4c-1-0.9-1.6-2.2-1.6-3.5
	c-0.1-1.6,0.6-3.1,1.9-4c1.7-1,3.6-1.5,5.6-1.4h2v-0.9c0-0.7-0.2-1.3-0.6-1.8c-0.5-0.5-1.2-0.7-1.8-0.7c-0.6,0-1.2,0.2-1.7,0.5
	c-0.4,0.4-0.7,0.9-0.6,1.4h-4.4c0-0.9,0.3-1.9,0.9-2.6c0.6-0.8,1.5-1.5,2.5-1.9c1.1-0.5,2.4-0.7,3.6-0.7c1.7-0.1,3.4,0.4,4.8,1.5
	c1.2,1.1,1.9,2.7,1.8,4.3v7.1c-0.1,1.2,0.2,2.4,0.7,3.5v0.3L595,120.2z M591.4,117.2c0.6,0,1.2-0.1,1.8-0.4c0.5-0.3,0.9-0.7,1.2-1.2
	v-2.8h-1.6c-2.2,0-3.4,0.8-3.5,2.3v0.3c0,0.5,0.2,1,0.6,1.3C590.3,117,590.9,117.2,591.4,117.2L591.4,117.2z"/>
<path class="st0" d="M601.5,99.6c0-0.6,0.2-1.2,0.7-1.6c1-0.8,2.5-0.8,3.6,0c0.9,0.9,0.9,2.3,0,3.3c-1,0.8-2.5,0.8-3.6,0
	C601.8,100.8,601.5,100.2,601.5,99.6z M606.2,120.2h-4.4v-16.4h4.4V120.2z"/>
<path class="st0" d="M613.8,120.2h-4.4V96.9h4.4V120.2z"/>
<path class="st0" d="M630.7,117c0.7,0,1.4-0.2,2-0.7c0.5-0.4,0.8-1.1,0.8-1.8h4.1c0,1.1-0.3,2.1-0.9,3c-0.6,0.9-1.4,1.7-2.4,2.2
	c-1.1,0.5-2.2,0.8-3.4,0.8c-2.1,0.1-4.1-0.7-5.5-2.2c-1.4-1.7-2.1-3.9-2-6.2v-0.3c-0.1-2.2,0.6-4.3,2-6c1.4-1.5,3.4-2.4,5.5-2.3
	c1.8-0.1,3.6,0.5,4.9,1.8c1.3,1.2,1.9,2.9,1.9,4.7h-4.1c0-0.8-0.3-1.5-0.8-2.1c-1.2-1.1-3-1.1-4.1,0.1c-0.1,0.1-0.1,0.1-0.2,0.2
	c-0.6,1.1-0.9,2.4-0.8,3.6v0.5c-0.1,1.3,0.2,2.5,0.8,3.6C628.9,116.6,629.8,117,630.7,117z"/>
<path class="st0" d="M643.7,105.6c1.1-1.3,2.7-2.1,4.4-2.1c3.6,0,5.4,2.1,5.4,6.2v10.5h-4.4v-10.4c0.1-0.7-0.2-1.5-0.6-2.1
	c-0.5-0.5-1.3-0.7-2-0.7c-1.1-0.1-2.2,0.5-2.8,1.5v11.6h-4.4V96.9h4.4L643.7,105.6z"/>
<path class="st0" d="M655.5,111.8c0-1.5,0.3-3,0.9-4.3c0.6-1.2,1.5-2.3,2.7-3c1.2-0.7,2.7-1,4.1-1c2-0.1,3.9,0.6,5.4,2
	c1.5,1.5,2.3,3.4,2.3,5.5v1.1c0.1,2.2-0.7,4.3-2.1,6c-3.2,3-8.1,3-11.3,0c-1.5-1.7-2.2-3.9-2.1-6.2L655.5,111.8z M659.8,112.2
	c-0.1,1.3,0.2,2.5,0.9,3.6c1.1,1.4,3,1.6,4.4,0.6c0.2-0.2,0.4-0.4,0.6-0.6c0.7-1.2,1-2.5,0.9-3.9c0.1-1.2-0.2-2.5-0.9-3.6
	c-0.6-0.8-1.5-1.3-2.5-1.3c-1,0-1.9,0.4-2.5,1.3C660,109.4,659.7,110.8,659.8,112.2z"/>
<path class="st0" d="M694.9,112.2c0.1,2.2-0.5,4.3-1.7,6.1c-1.1,1.5-2.9,2.3-4.7,2.2c-1.7,0.1-3.2-0.7-4.3-2l-0.2,1.7h-3.9V96.9h4.4
	v8.3c1-1.2,2.5-1.8,4-1.8c1.8-0.1,3.6,0.7,4.7,2.2c1.2,1.8,1.8,4,1.7,6.2L694.9,112.2z M690.5,111.8c0.1-1.3-0.2-2.5-0.8-3.6
	c-0.5-0.8-1.4-1.2-2.3-1.1c-1.2-0.1-2.4,0.6-2.9,1.7v6.5c0.5,1.1,1.7,1.8,2.9,1.7c1.3,0.1,2.5-0.8,2.8-2.1
	C690.5,113.9,690.6,112.9,690.5,111.8L690.5,111.8z"/>
<path class="st0" d="M706.5,120.2c-0.2-0.5-0.4-1-0.4-1.5c-1,1.2-2.6,1.8-4.1,1.8c-1.5,0.1-2.9-0.4-4-1.4c-1-0.9-1.6-2.2-1.6-3.5
	c-0.1-1.6,0.6-3.1,1.9-4c1.7-1,3.6-1.5,5.6-1.4h2v-0.9c0-0.7-0.2-1.3-0.6-1.8c-0.5-0.5-1.2-0.7-1.8-0.7c-0.6,0-1.2,0.2-1.7,0.5
	c-0.4,0.4-0.7,0.9-0.6,1.4h-4.4c0-0.9,0.3-1.9,0.9-2.6c0.6-0.8,1.5-1.5,2.5-1.9c1.1-0.5,2.4-0.7,3.6-0.7c1.7-0.1,3.4,0.4,4.8,1.5
	c1.2,1.1,1.9,2.7,1.8,4.3v7.1c-0.1,1.2,0.2,2.4,0.7,3.5v0.3L706.5,120.2z M700,123.5c0-0.6,0.2-1.1,0.7-1.5c1-0.8,2.5-0.8,3.5,0
	c0.4,0.4,0.7,0.9,0.7,1.5c0,0.6-0.2,1.1-0.7,1.5c-0.5,0.4-1.1,0.6-1.8,0.6c-0.6,0-1.3-0.2-1.8-0.6C700.3,124.6,700,124.1,700,123.5
	L700,123.5z M702.8,117.2c0.6,0,1.2-0.1,1.8-0.4c0.5-0.3,0.9-0.7,1.2-1.2v-2.8h-1.6c-2.2,0-3.4,0.8-3.5,2.3v0.3c0,0.5,0.2,1,0.6,1.3
	C701.7,117,702.3,117.2,702.8,117.2z"/>
<path class="st0" d="M717,103.8l0.1,1.9c1.1-1.4,2.9-2.3,4.7-2.2c1.5-0.1,2.9,0.4,3.9,1.5c0.9,1.3,1.4,2.9,1.3,4.6v10.6h-4.4v-10.5
	c0.1-0.7-0.2-1.4-0.6-2c-0.6-0.5-1.3-0.7-2-0.6c-1.1-0.1-2.2,0.6-2.8,1.6v11.6h-4.4v-16.4H717z"/>
<path class="st0" d="M730.8,125.7l-2.3-1.2l0.5-1c0.6-1.1,1-2.4,1-3.7v-3.4h3.7v3c0,1.2-0.3,2.3-0.8,3.4
	C732.4,123.9,731.7,124.9,730.8,125.7z"/>
<path class="st0" d="M338.4,156l3-11h4.6l-5.5,16.4h-4.2l-5.6-16.4h4.6L338.4,156z"/>
<path class="st0" d="M357.1,159.7c-1.1,1.3-2.8,2.1-4.5,2c-1.5,0.1-2.9-0.5-4-1.5c-1-1.2-1.5-2.8-1.4-4.4V145h4.4v10.6
	c0,1.7,0.8,2.6,2.3,2.6c1.2,0.1,2.4-0.5,3.1-1.6V145h4.4v16.4h-4.1L357.1,159.7z"/>
<path class="st0" d="M364,140.8c0-0.6,0.2-1.2,0.7-1.6c1-0.8,2.5-0.8,3.6,0c0.9,0.9,0.9,2.3,0,3.3c-1,0.8-2.5,0.8-3.6,0
	C364.2,142,364,141.4,364,140.8z M368.6,161.4h-4.4V145h4.4V161.4z"/>
<path class="st0" d="M383.3,161.4h-4.4v-23.3h4.4V161.4z"/>
<path class="st0" d="M385.6,153c0-1.5,0.3-3,0.9-4.3c0.6-1.2,1.5-2.3,2.7-3c1.2-0.7,2.7-1,4.1-1c2-0.1,3.9,0.6,5.4,2
	c1.5,1.5,2.3,3.4,2.3,5.5v1.1c0.1,2.2-0.7,4.3-2.1,6c-3.2,3-8.1,3-11.3,0c-1.5-1.7-2.2-3.9-2.1-6.2L385.6,153z M395.5,142.8h-3.6
	l-4.2-4.7h4.8L395.5,142.8z M390,153.4c-0.1,1.3,0.2,2.5,0.9,3.6c1.1,1.4,3,1.6,4.4,0.6c0.2-0.2,0.4-0.4,0.6-0.6
	c0.7-1.2,1-2.5,0.9-3.9c0.1-1.2-0.2-2.5-0.9-3.6c-0.6-0.8-1.5-1.3-2.5-1.3c-1,0-1.9,0.4-2.5,1.3C390.2,150.6,389.9,152,390,153.4z"
	/>
<path class="st0" d="M407.2,145l0.1,1.9c1.1-1.4,2.9-2.3,4.7-2.2c1.5-0.1,2.9,0.4,3.9,1.5c0.9,1.3,1.4,2.9,1.3,4.6v10.6h-4.4v-10.5
	c0.1-0.7-0.2-1.4-0.6-2c-0.6-0.5-1.3-0.7-2-0.6c-1.1-0.1-2.2,0.6-2.8,1.6v11.6h-4.4V145H407.2z"/>
<path class="st0" d="M419.3,153.1c-0.1-2.2,0.5-4.3,1.8-6.1c1.1-1.5,2.9-2.4,4.8-2.3c1.6-0.1,3.2,0.6,4.2,1.9l0.2-1.5h4v15.8
	c0,1.3-0.3,2.6-1,3.7c-0.7,1.1-1.6,1.9-2.8,2.4c-1.3,0.6-2.7,0.9-4.1,0.8c-1.2,0-2.4-0.2-3.5-0.7c-1-0.4-1.9-1-2.6-1.9l1.9-2.7
	c1,1.2,2.5,1.9,4,1.8c1,0.1,2-0.3,2.7-0.9c0.7-0.7,1.1-1.7,1-2.6V160c-1,1.1-2.5,1.8-4,1.7c-1.9,0-3.7-0.8-4.8-2.3
	c-1.3-1.8-1.9-3.9-1.8-6.1L419.3,153.1z M423.7,153.4c-0.1,1.2,0.2,2.5,0.9,3.5c0.5,0.8,1.5,1.3,2.5,1.3c1.2,0.1,2.3-0.5,2.9-1.5
	v-6.9c-0.6-1-1.7-1.6-2.8-1.5c-1,0-1.9,0.5-2.5,1.3C423.9,150.7,423.6,152.1,423.7,153.4L423.7,153.4z"/>
<path class="st0" d="M450.1,154.8l-1.6,1.6v5h-4.4v-23.3h4.4V151l0.9-1.1l4.2-4.9h5.3l-5.9,6.8l6.4,9.6h-5L450.1,154.8z"/>
<path class="st0" d="M460,140.8c0-0.6,0.2-1.2,0.7-1.6c1-0.8,2.5-0.8,3.6,0c0.9,0.9,0.9,2.3,0,3.3c-1,0.8-2.5,0.8-3.6,0
	C460.2,142,460,141.4,460,140.8z M464.6,161.4h-4.4V145h4.4V161.4z"/>
<path class="st0" d="M475.2,161.7c-2.2,0.1-4.3-0.7-5.9-2.2c-1.5-1.6-2.4-3.7-2.3-5.9v-0.4c0-1.5,0.3-3,1-4.4c0.6-1.2,1.5-2.3,2.7-3
	c1.2-0.7,2.6-1.1,4-1.1c2-0.1,3.9,0.7,5.3,2.1c1.4,1.7,2.1,3.8,1.9,6v1.8h-10.5c0.1,1,0.6,1.9,1.3,2.6c0.7,0.7,1.7,1,2.7,1
	c1.6,0.1,3-0.6,4-1.8l2.1,2.4c-0.7,0.9-1.6,1.7-2.7,2.2C477.8,161.5,476.5,161.7,475.2,161.7z M479.7,142.9h-3.1l-2.4-2l-2.4,2h-3.1
	l4.2-3.5h2.6L479.7,142.9z M474.7,148.2c-0.8,0-1.6,0.3-2.1,0.9c-0.6,0.7-0.9,1.6-1,2.5h6.1v-0.4c0-0.8-0.2-1.6-0.8-2.3
	C476.3,148.5,475.5,148.2,474.7,148.2L474.7,148.2z M478.4,141l-0.2-1.7c0.5,0,0.9-0.1,1.4-0.2c0.2-0.1,0.4-0.3,0.4-0.6
	c0-0.6-0.6-0.9-1.8-0.9l0.1-1.7c1.1-0.1,2.3,0.2,3.3,0.7c0.7,0.3,1.1,1.1,1.1,1.8c0,0.5-0.2,0.9-0.5,1.2c-0.4,0.4-0.9,0.6-1.4,0.6
	v0.8L478.4,141z"/>
<path class="st0" d="M487.9,145l0.1,1.8c1.1-1.4,2.9-2.2,4.7-2.1c1.8-0.2,3.6,0.8,4.3,2.5c1.1-1.6,3-2.6,4.9-2.5
	c1.5-0.1,3,0.4,4,1.6c1,1.4,1.4,3,1.3,4.7v10.5h-4.4v-10.4c0.1-0.7-0.1-1.4-0.5-2c-0.5-0.5-1.2-0.7-1.9-0.6
	c-1.2-0.1-2.3,0.7-2.7,1.9v11.3h-4.4V151c0.1-0.7-0.1-1.5-0.6-2.1c-0.5-0.5-1.2-0.7-1.9-0.6c-1.1-0.1-2.2,0.5-2.7,1.5v11.6h-4.4V145
	H487.9z"/>
<path class="st0" d="M522.3,141v4h2.8v3.2h-2.8v8.2c0,0.5,0.1,0.9,0.3,1.3c0.4,0.3,0.9,0.4,1.3,0.4c0.4,0,0.9,0,1.3-0.1v3.3
	c-0.9,0.3-1.8,0.4-2.7,0.4c-3.1,0-4.6-1.6-4.7-4.6v-8.8h-2.4V145h2.4v-4H522.3z"/>
<path class="st0" d="M536.2,149.1c-0.5-0.1-1-0.1-1.6-0.1c-1.7,0-2.7,0.6-3.3,1.7v10.7H527V145h4.1l0.1,2c0.7-1.4,2.1-2.3,3.7-2.3
	c0.5,0,0.9,0.1,1.4,0.2L536.2,149.1z"/>
<path class="st0" d="M546.7,161.4c-0.2-0.5-0.4-1-0.4-1.5c-1,1.2-2.6,1.8-4.1,1.8c-1.5,0.1-2.9-0.4-4-1.4c-1-0.9-1.6-2.2-1.6-3.5
	c-0.1-1.6,0.6-3.1,1.9-4c1.7-1,3.6-1.5,5.6-1.4h2v-0.9c0-0.7-0.2-1.3-0.6-1.8c-0.5-0.5-1.2-0.7-1.8-0.7c-0.6,0-1.2,0.2-1.7,0.5
	c-0.4,0.4-0.7,0.9-0.6,1.4h-4.4c0-0.9,0.3-1.9,0.9-2.6c0.6-0.8,1.5-1.5,2.5-1.9c1.1-0.5,2.4-0.7,3.6-0.7c1.7-0.1,3.4,0.4,4.8,1.5
	c1.2,1.1,1.9,2.7,1.8,4.3v7.1c-0.1,1.2,0.2,2.4,0.7,3.5v0.3H546.7z M543.1,158.4c0.6,0,1.2-0.1,1.8-0.4c0.5-0.3,0.9-0.7,1.2-1.2V154
	h-1.6c-2.2,0-3.4,0.8-3.5,2.3v0.3c0,0.5,0.2,1,0.6,1.4C541.9,158.2,542.5,158.4,543.1,158.4L543.1,158.4z"/>
<path class="st0" d="M564.6,146.8c1.1-1.3,2.7-2.1,4.4-2.1c3.6,0,5.4,2.1,5.4,6.2v10.5H570V151c0.1-0.7-0.2-1.5-0.6-2.1
	c-0.5-0.5-1.3-0.7-2-0.7c-1.1-0.1-2.2,0.5-2.8,1.5v11.6h-4.4v-23.2h4.4L564.6,146.8z"/>
<path class="st0" d="M576.3,153c0-1.5,0.3-3,0.9-4.3c0.6-1.2,1.5-2.3,2.7-3c1.2-0.7,2.7-1,4.1-1c2-0.1,3.9,0.6,5.4,2
	c1.5,1.5,2.3,3.4,2.3,5.5v1.1c0.1,2.2-0.7,4.3-2.1,6c-3.2,3-8.1,3-11.3,0c-1.5-1.7-2.2-3.9-2.1-6.2L576.3,153z M589.9,142.3v0.2
	h-3.5l-2.3-2.2l-2.3,2.2h-3.4v-0.2l4.5-4.2h2.5L589.9,142.3z M580.7,153.3c-0.1,1.3,0.2,2.5,0.9,3.6c1.1,1.4,3,1.6,4.4,0.6
	c0.2-0.2,0.4-0.4,0.6-0.6c0.7-1.2,1-2.5,0.9-3.9c0.1-1.2-0.2-2.5-0.9-3.6c-0.6-0.8-1.5-1.3-2.5-1.3c-1,0-1.9,0.4-2.5,1.3
	C580.9,150.6,580.6,152,580.7,153.3L580.7,153.3z M581.6,165c0-0.6,0.2-1.1,0.7-1.5c1-0.8,2.5-0.8,3.5,0c0.4,0.4,0.7,0.9,0.7,1.5
	c0,0.6-0.2,1.1-0.7,1.5c-0.5,0.4-1.1,0.6-1.8,0.6c-0.6,0-1.3-0.2-1.8-0.6C581.9,166.1,581.6,165.6,581.6,165L581.6,165z"/>
<path class="st0" d="M608.7,153.4c0.1,2.2-0.5,4.3-1.7,6.1c-1.1,1.5-2.8,2.3-4.6,2.3c-1.5,0.1-3-0.6-4-1.7v7.7H594V145h4l0.2,1.6
	c1-1.3,2.5-2,4.2-1.9c1.8-0.1,3.6,0.8,4.7,2.2c1.2,1.8,1.8,4,1.7,6.2L608.7,153.4z M604.3,153c0.1-1.2-0.2-2.5-0.8-3.5
	c-0.5-0.8-1.4-1.3-2.3-1.2c-1.2-0.1-2.3,0.5-2.8,1.6v6.7c0.5,1.1,1.7,1.7,2.9,1.6C603.3,158.2,604.3,156.4,604.3,153z"/>
<path class="st0" d="M623.1,141v4h2.8v3.2h-2.8v8.2c0,0.5,0.1,0.9,0.3,1.3c0.4,0.3,0.9,0.4,1.3,0.4c0.4,0,0.9,0,1.3-0.1v3.3
	c-0.9,0.3-1.8,0.4-2.7,0.4c-3.1,0-4.6-1.6-4.7-4.6v-8.8h-2.4V145h2.4v-4H623.1z"/>
<path class="st0" d="M632,146.8c1.1-1.3,2.7-2.1,4.4-2.1c3.6,0,5.4,2.1,5.4,6.2v10.5h-4.4V151c0.1-0.7-0.2-1.5-0.6-2.1
	c-0.5-0.5-1.3-0.7-2-0.7c-1.1-0.1-2.2,0.5-2.8,1.5v11.6h-4.4v-23.2h4.4V146.8z"/>
<path class="st0" d="M663,143.6c0.1,1.4-0.3,2.9-1.1,4.1c-0.9,1-2.1,1.5-3.4,1.6v12.2h-4.1l-0.1-1.7c-1.1,1.3-2.8,2.1-4.5,2
	c-1.5,0.1-2.9-0.5-4-1.5c-1-1.2-1.5-2.8-1.4-4.4V145h4.4v10.6c0,1.7,0.8,2.6,2.3,2.6c1.2,0.1,2.4-0.5,3.1-1.6V145h4.4v2.1
	c0.6-0.1,1.1-0.4,1.5-0.9c0.3-0.8,0.5-1.7,0.4-2.6L663,143.6z"/>
<path class="st0" d="M686.3,143h-2.4v18.4h-4l-0.2-1.7c-1,1.3-2.6,2-4.2,2c-1.8,0-3.6-0.8-4.6-2.3c-1.3-1.9-1.9-4.1-1.8-6.3
	c-0.1-2.2,0.5-4.3,1.7-6.1c1.1-1.5,2.9-2.3,4.7-2.3c1.5-0.1,3,0.6,4,1.8V143h-3.8v-2.8h3.8v-2h4.4v2h2.4L686.3,143z M673.5,153.4
	c-0.1,1.2,0.2,2.5,0.8,3.5c0.5,0.8,1.4,1.3,2.3,1.2c1.2,0.1,2.4-0.6,2.9-1.7V150c-0.5-1.1-1.6-1.8-2.8-1.7
	C674.6,148.3,673.5,150,673.5,153.4z"/>
<path class="st0" d="M696.3,161.7c-2.2,0.1-4.3-0.7-5.9-2.2c-1.5-1.6-2.4-3.7-2.3-5.9v-0.4c0-1.5,0.3-3,1-4.4c0.6-1.2,1.5-2.3,2.7-3
	c1.2-0.7,2.6-1.1,4-1.1c2-0.1,3.9,0.7,5.3,2.1c1.4,1.7,2.1,3.8,1.9,6v1.8h-10.5c0.1,1,0.6,1.9,1.3,2.6c0.7,0.7,1.7,1,2.7,1
	c1.6,0.1,3-0.6,4-1.8l2.2,2.4c-0.7,0.9-1.6,1.7-2.7,2.2C698.9,161.5,697.6,161.7,696.3,161.7z M700.8,142.9h-3.1l-2.4-2l-2.4,2h-3.1
	l4.2-3.5h2.6L700.8,142.9z M695.8,148.2c-0.8,0-1.6,0.3-2.1,0.9c-0.6,0.7-0.9,1.6-1,2.5h6.1v-0.4c0-0.8-0.2-1.6-0.8-2.3
	C697.4,148.5,696.6,148.2,695.8,148.2L695.8,148.2z M699.4,141l-0.2-1.7c0.5,0,0.9-0.1,1.3-0.2c0.2-0.1,0.4-0.3,0.4-0.6
	c0-0.6-0.6-0.9-1.8-0.9l0.1-1.7c1.1-0.1,2.3,0.2,3.3,0.7c0.7,0.3,1.1,1.1,1.1,1.8c0,0.5-0.2,0.9-0.5,1.2c-0.4,0.4-0.9,0.6-1.4,0.6
	v0.8L699.4,141z"/>
<path class="st0" d="M716.3,146.8c1.1-1.3,2.7-2.1,4.4-2.1c3.6,0,5.4,2.1,5.4,6.2v10.5h-4.4V151c0.1-0.7-0.2-1.5-0.6-2.1
	c-0.5-0.5-1.3-0.7-2-0.7c-1.1-0.1-2.2,0.5-2.8,1.5v11.6h-4.4v-23.2h4.4L716.3,146.8z"/>
<path class="st0" d="M728,153c0-1.5,0.3-3,0.9-4.3c0.6-1.2,1.5-2.3,2.7-3c1.2-0.7,2.7-1,4.1-1c2-0.1,3.9,0.6,5.4,2
	c1.5,1.5,2.3,3.4,2.3,5.5v1.1c0.1,2.2-0.7,4.3-2.1,6c-3.2,3-8.1,3-11.3,0c-1.5-1.7-2.2-3.9-2.1-6.2L728,153z M732.4,153.3
	c-0.1,1.3,0.2,2.5,0.9,3.6c1.1,1.4,3,1.6,4.4,0.6c0.2-0.2,0.4-0.4,0.6-0.6c0.7-1.2,1-2.5,0.9-3.9c0.1-1.2-0.2-2.5-0.9-3.6
	c-0.6-0.8-1.5-1.3-2.5-1.3c-1,0-1.9,0.4-2.5,1.3C732.6,150.6,732.3,152,732.4,153.3L732.4,153.3z"/>
<path class="st0" d="M755.1,161.4c-0.2-0.5-0.4-1-0.4-1.5c-1,1.2-2.6,1.8-4.1,1.8c-1.5,0.1-2.9-0.4-4-1.4c-1-0.9-1.6-2.2-1.6-3.5
	c-0.1-1.6,0.6-3.1,1.9-4c1.7-1,3.6-1.5,5.6-1.4h2v-0.9c0-0.7-0.2-1.3-0.6-1.8c-0.5-0.5-1.2-0.7-1.8-0.7c-0.6,0-1.2,0.2-1.7,0.5
	c-0.4,0.4-0.7,0.9-0.6,1.4h-4.4c0-0.9,0.3-1.9,0.9-2.6c0.6-0.8,1.5-1.5,2.5-1.9c1.1-0.5,2.4-0.7,3.6-0.7c1.7-0.1,3.4,0.4,4.8,1.5
	c1.2,1.1,1.9,2.7,1.8,4.3v7.1c-0.1,1.2,0.2,2.4,0.7,3.5v0.3H755.1z M754.5,142.8h-3.6l-4.2-4.7h4.8L754.5,142.8z M751.5,158.4
	c0.6,0,1.2-0.1,1.8-0.4c0.5-0.3,0.9-0.7,1.2-1.2v-2.8h-1.6c-2.2,0-3.4,0.8-3.5,2.3v0.3c0,0.5,0.2,1,0.6,1.4
	C750.4,158.2,750.9,158.4,751.5,158.4L751.5,158.4z"/>
<path class="st0" d="M765.7,145l0.1,1.9c1.1-1.4,2.9-2.3,4.7-2.2c1.5-0.1,2.9,0.4,3.9,1.5c0.9,1.3,1.4,2.9,1.3,4.6v10.6h-4.4v-10.5
	c0.1-0.7-0.2-1.4-0.6-2c-0.6-0.5-1.3-0.7-2-0.6c-1.1-0.1-2.2,0.6-2.8,1.6v11.6h-4.4V145H765.7z"/>
<path class="st0" d="M790.7,141v4h2.8v3.2h-2.8v8.2c0,0.5,0.1,0.9,0.3,1.3c0.4,0.3,0.9,0.4,1.3,0.4c0.4,0,0.9,0,1.3-0.1v3.3
	c-0.9,0.3-1.8,0.4-2.7,0.4c-3.1,0-4.6-1.6-4.7-4.6v-8.8h-2.4V145h2.4v-4H790.7z"/>
<path class="st0" d="M804.8,161.4c-0.2-0.5-0.4-1-0.4-1.5c-1,1.2-2.6,1.8-4.1,1.8c-1.5,0.1-2.9-0.4-4-1.4c-1-0.9-1.6-2.2-1.6-3.5
	c-0.1-1.6,0.6-3.1,1.9-4c1.7-1,3.6-1.5,5.6-1.4h2v-0.9c0-0.7-0.2-1.3-0.6-1.8c-0.5-0.5-1.2-0.7-1.8-0.7c-0.6,0-1.2,0.2-1.7,0.5
	c-0.4,0.4-0.7,0.9-0.6,1.4H795c0-0.9,0.3-1.9,0.9-2.6c0.6-0.8,1.5-1.5,2.5-1.9c1.1-0.5,2.4-0.7,3.6-0.7c1.7-0.1,3.4,0.4,4.8,1.5
	c1.2,1.1,1.9,2.7,1.8,4.3v7.1c-0.1,1.2,0.2,2.4,0.7,3.5v0.3H804.8z M800.7,139.4h2.5l4.3,3.5h-3.3l-2.2-1.9l-2.3,1.9h-3.3
	L800.7,139.4z M801.2,158.4c0.6,0,1.2-0.1,1.8-0.4c0.5-0.3,0.9-0.7,1.2-1.2V154h-1.6c-2.2,0-3.4,0.8-3.5,2.3v0.3
	c0,0.5,0.2,1,0.6,1.4C800.1,158.2,800.6,158.4,801.2,158.4L801.2,158.4z M808.8,136.7h3.5l-3.4,4.1h-2.5L808.8,136.7z"/>
<path class="st0" d="M816.6,141v4h2.8v3.2h-2.8v8.2c0,0.5,0.1,0.9,0.3,1.3c0.4,0.3,0.9,0.4,1.3,0.4c0.4,0,0.9,0,1.3-0.1v3.3
	c-0.9,0.3-1.8,0.4-2.7,0.4c-3.1,0-4.6-1.6-4.7-4.6v-8.8h-2.4V145h2.4v-4H816.6z"/>
<path class="st0" d="M844.8,143h-2.4v18.4h-4l-0.2-1.7c-1,1.3-2.6,2-4.2,2c-1.8,0-3.6-0.8-4.6-2.3c-1.3-1.9-1.9-4.1-1.8-6.3
	c-0.1-2.2,0.5-4.3,1.7-6.1c1.1-1.5,2.9-2.3,4.7-2.3c1.5-0.1,3,0.6,4,1.8V143h-3.8v-2.8h3.8v-2h4.4v2h2.4L844.8,143z M832,153.4
	c-0.1,1.2,0.2,2.5,0.8,3.5c0.5,0.8,1.4,1.3,2.3,1.2c1.2,0.1,2.4-0.6,2.9-1.7V150c-0.5-1.1-1.6-1.8-2.8-1.7
	C833.1,148.3,832,150,832,153.4z"/>
<path class="st0" d="M856.7,161.4c-0.2-0.5-0.4-1-0.4-1.5c-1,1.2-2.6,1.8-4.1,1.8c-1.5,0.1-2.9-0.4-4-1.4c-1-0.9-1.6-2.2-1.6-3.5
	c-0.1-1.6,0.6-3.1,1.9-4c1.7-1,3.6-1.5,5.6-1.4h2v-0.9c0-0.7-0.2-1.3-0.6-1.8c-0.5-0.5-1.2-0.7-1.8-0.7c-0.6,0-1.2,0.2-1.7,0.5
	c-0.4,0.4-0.7,0.9-0.6,1.4h-4.4c0-0.9,0.3-1.9,0.9-2.6c0.6-0.8,1.5-1.5,2.5-1.9c1.1-0.5,2.4-0.7,3.6-0.7c1.7-0.1,3.4,0.4,4.8,1.5
	c1.2,1.1,1.9,2.7,1.8,4.3v7.1c-0.1,1.2,0.2,2.4,0.7,3.5v0.3H856.7z M859.1,138.3c0,1.2-0.5,2.4-1.5,3.2c-2.3,1.6-5.3,1.6-7.6,0
	c-1-0.8-1.5-2-1.5-3.3h3.1c0,0.6,0.2,1.1,0.6,1.5c0.4,0.4,1,0.6,1.6,0.5c0.6,0,1.1-0.2,1.5-0.5c0.4-0.4,0.6-0.9,0.6-1.5L859.1,138.3
	z M853.1,158.3c0.6,0,1.2-0.1,1.8-0.4c0.5-0.3,0.9-0.7,1.2-1.2v-2.8h-1.6c-2.2,0-3.4,0.8-3.5,2.3v0.3c0,0.5,0.2,1,0.6,1.4
	C852,158.2,852.5,158.4,853.1,158.3L853.1,158.3z"/>
<path class="st0" d="M867.2,145l0.1,1.9c1.1-1.4,2.9-2.3,4.7-2.2c1.5-0.1,2.9,0.4,3.9,1.5c0.9,1.3,1.4,2.9,1.3,4.6v10.6h-4.4v-10.5
	c0.1-0.7-0.2-1.4-0.6-2c-0.6-0.5-1.3-0.7-2-0.6c-1.1-0.1-2.2,0.6-2.8,1.6v11.6h-4.4V145H867.2z"/>
<path class="st0" d="M879.3,153.1c-0.1-2.2,0.5-4.3,1.8-6.1c1.1-1.5,2.9-2.4,4.8-2.3c1.6-0.1,3.2,0.6,4.2,1.9l0.2-1.5h4v15.8
	c0,1.3-0.3,2.6-1,3.7c-0.7,1.1-1.6,1.9-2.8,2.4c-1.3,0.6-2.7,0.9-4.2,0.8c-1.2,0-2.4-0.2-3.5-0.7c-1-0.4-1.9-1-2.6-1.9l1.9-2.7
	c1,1.2,2.5,1.9,4,1.8c1,0.1,2-0.3,2.7-0.9c0.7-0.7,1.1-1.7,1-2.6V160c-1,1.1-2.5,1.8-4,1.7c-1.9,0-3.7-0.8-4.8-2.3
	c-1.3-1.8-1.9-3.9-1.8-6.1L879.3,153.1z M883.7,153.4c-0.1,1.2,0.2,2.5,0.9,3.5c0.5,0.8,1.5,1.3,2.5,1.3c1.2,0.1,2.3-0.5,2.9-1.5
	v-6.9c-0.6-1-1.7-1.6-2.8-1.5c-1,0-1.9,0.5-2.5,1.3C883.9,150.7,883.6,152.1,883.7,153.4L883.7,153.4z"/>
<path class="st0" d="M910.1,154.8l-1.6,1.6v5h-4.4v-23.3h4.4V151l0.8-1.1l4.2-4.9h5.3l-5.9,6.8l6.4,9.6h-5L910.1,154.8z"/>
<path class="st0" d="M926.2,155.2l3-10.2h4.7l-6.6,18.9l-0.4,0.9c-0.8,2-2.7,3.3-4.8,3.2c-0.7,0-1.3-0.1-1.9-0.3v-3.3h0.7
	c0.6,0,1.3-0.1,1.8-0.4c0.5-0.3,0.8-0.7,1-1.3l0.5-1.4l-5.8-16.4h4.7L926.2,155.2z M927.2,138.1h4.8l-4.2,4.7h-3.6L927.2,138.1z"/>
<path class="st0" d="M937.6,157c0.7,0,1.3,0.2,1.8,0.6c0.9,0.9,0.9,2.4,0,3.3c-1,0.9-2.5,0.9-3.5,0c-0.4-0.4-0.7-1-0.7-1.6
	c0-0.6,0.2-1.2,0.7-1.7C936.3,157.2,937,157,937.6,157z M939.5,154.6h-3.6l-0.5-15.3h4.7L939.5,154.6z"/>
<path class="st1" d="M1183,431.6L13.7,431.2c23.7,19.2,50.9,33.8,80,43c59.8,18.8,111.6,8.9,134.3,4.3c18.9-3.8,20.7-6.1,36-9.7
	c71-16.6,124.6,10.8,175.4,21.4c68.2,14.2,78.8-12.9,188.6-23.7c146.8-14.4,179.6,28.9,313.1,23.7
	C999.5,488,1082.8,476.3,1183,431.6z"/>
<path class="st2" d="M337.9,76.4h123.6c0,0,8.7-20-5.2-29.6s-27.9,2.6-27.9,2.6s3.5-33.1-26.1-34.8s-26.1,25.3-26.1,25.3
	s-7-20-23.5-11.3s-6.1,22.6-6.1,22.6s-15.7-4.3-17.4,9.6C327.8,71.6,337.9,76.4,337.9,76.4z"/>
<path class="st2" d="M1003.8,69.3c-13.9-9.6-27.9,2.6-27.9,2.6s3.5-33.1-26.1-34.8s-26.1,25.3-26.1,25.3s-7-20-23.5-11.3
	c-8.3,4.4-9.8,10-9.3,14.6c-1.8,0.9-3.5,2-5,3.3c0,0,3.5-33.1-26.1-34.8s-26.1,25.3-26.1,25.3s-7-20-23.5-11.3S804,70.7,804,70.7
	s-15.7-4.3-17.4,9.6c-1.3,10.8,8.7,15.7,8.7,15.7h85.9c1.2,1.2,2.6,2.2,4.1,3H1009C1009,98.9,1017.7,78.9,1003.8,69.3z"/>
<path class="st2" d="M143.1,60.3c-6.4-4.4-12.8,1.2-12.8,1.2s1.6-15.2-12-16s-12,11.6-12,11.6s-3.2-9.2-10.8-5.2
	c-3.8,2-4.5,4.6-4.2,6.7c-0.8,0.4-1.6,0.9-2.3,1.5c0,0,1.6-15.2-12-16S65,55.6,65,55.6s-3.2-9.2-10.8-5.2s-2.8,10.4-2.8,10.4
	s-7.2-2-8,4.4c-0.6,5,4,7.2,4,7.2h39.5c0.6,0.5,1.2,1,1.9,1.4h56.7C145.5,73.8,149.5,64.7,143.1,60.3z"/>
<path d="M959.5,442.2c0,6.2-5,11.2-11.2,11.2H659.9c-6.2,0-11.2-5-11.2-11.2V255.4c0-6.2,5-11.2,11.2-11.2h288.3
	c6.2,0,11.2,5,11.2,11.2L959.5,442.2z"/>
<path class="st3" d="M950.5,437.6H658.3V254.4h292.2L950.5,437.6z"/>
<path class="st4" d="M659.9,244.2c-6.2,0-11.2,5-11.2,11.2v186.8c0,6.2,5,11.2,11.2,11.2h41.7l147.2-209.2H659.9z"/>
<rect x="618.5" y="446.5" class="st5" width="363.1" height="9"/>
<polygon class="st6" points="981.6,455.1 618.5,455.1 638,459 958.8,459 "/>
<path class="st7" d="M892,206.6c-71.8-7.2-134,26.9-139,76.2c-2.3,23.3,8.5,45.8,28.1,63.8c-3.6,18.8-19.9,32.2-19.9,32.2
	s27.1-0.5,39.3-17.6c20.2,12.5,45.5,21.2,73.6,24c71.8,7.2,134.1-26.9,139-76.2S963.9,213.8,892,206.6z"/>
<path class="st8" d="M822.4,243c-0.4-0.1-0.7-0.3-1-0.5l-0.9-0.5c-0.1,0.4-0.2,0.8-0.2,1.1l-7.2,74.1c-0.3,2.7,0.7,5.4,2.5,7.4
	l62-51.9L822.4,243z"/>
<path class="st9" d="M948.1,330.4l7.2-74.1c0-0.3,0-0.6,0-0.8l-60.5,19.3l50.3,61.6C946.8,334.8,947.9,332.7,948.1,330.4z"/>
<path class="st8" d="M894.8,274.8l-2-2.5c-3.3-4-9.1-4.6-13.1-1.3c0,0-0.1,0-0.1,0.1l-2,1.6l-62,51.9c1.6,1.7,3.7,2.7,5.9,2.9
	l116.3,11.3c2.7,0.3,5.3-0.6,7.3-2.5L894.8,274.8z"/>
<path class="st10" d="M894.8,274.8l-2-2.5c-3.3-4-9.1-4.6-13.1-1.3c0,0-0.1,0-0.1,0.1l-2,1.6l-62,51.9c1.6,1.7,3.7,2.7,5.9,2.9
	l116.3,11.3c2.7,0.3,5.3-0.6,7.3-2.5L894.8,274.8z"/>
<path class="st11" d="M894.5,277.7l-2-2.4c-3.4-3.8-9.2-4.4-13.2-1.3l-1.9,1.5l-61.8,49.1c1.6,1.6,3.7,2.6,5.9,2.8l116.3,11.3
	c2.6,0.3,5.3-0.6,7.3-2.3L894.5,277.7z"/>
<path class="st10" d="M954.7,259.8c-0.5,0.4-1.1,0.8-1.7,1.2l-4.2,2.6L890.8,300c-4.8,3-12.2,2.4-16.3-1.5l-49.3-46l-3.5-3.3
	c-0.5-0.5-0.9-0.9-1.3-1.5c-0.5-1-0.8-2.2-0.8-3.3c0.6-1,2.3-1.5,5-1.3l127.2,11.4c2.7,0.2,4.3,1,4.6,2.1
	C955.9,257.8,955.4,258.9,954.7,259.8z"/>
<path class="st12" d="M953.7,259.1c-0.5,0.4-1,0.8-1.6,1.1l-4.1,2.5l-56.8,34.8c-5.1,2.9-11.5,2.3-16-1.5l-48.9-45.2l-3.5-3.3
	c-0.5-0.4-0.9-0.9-1.3-1.4c-0.5-1-0.8-2.1-0.9-3.2c0.6-1,2.2-1.5,4.9-1.2L950.6,254c2.7,0.3,4.2,1.1,4.6,2.1
	C954.9,257.2,954.4,258.2,953.7,259.1z"/>
<ellipse transform="matrix(0.1 -0.995 0.995 0.1 592.0726 1167.6979)" class="st13" cx="941.5" cy="256.6" rx="14.4" ry="14.4"/>
<path class="st14" d="M937.5,263.1l-0.1-0.1l0.1-0.6l0.1-0.1c0.7,0,1.4,0,2.1,0c0.1,0,0.2-0.1,0.3-0.2c0.2-0.6,0.3-1.3,0.4-1.9
	c0.2-1.9,0.4-3.5,0.6-5c0.2-1.9,0.3-3,0.3-3.2c0-0.2-0.1-0.3-0.2-0.2c-0.1,0-0.2,0-0.3,0.1l-2.8,1l-0.1-0.1c0-0.4,0-0.8-0.1-1.2
	l0.1-0.1c2.1-0.4,4.2-0.8,6.3-1.4l0.2,0.2c-0.2,0.9-0.4,2.1-0.6,3.7s-0.4,3.4-0.6,5.6c-0.1,0.9-0.2,1.9-0.2,2.8
	c0,0.1,0.1,0.3,0.2,0.4c0.6,0.2,1.3,0.4,2,0.4l0.1,0.1l-0.1,0.6l-0.1,0.1l-1.2-0.1l-2.5-0.3C940.2,263.3,938.9,263.2,937.5,263.1z"
	/>
<ellipse class="st15" cx="184.5" cy="461.1" rx="65.5" ry="17.5"/>
<path class="st16" d="M219.1,224.5c-14.3,0-26.9-8.7-32.6-23.1c-1.3-3.3,0.3-7,3.6-8.3c3.3-1.3,7,0.3,8.3,3.6
	c5.3,13.4,16.9,16.2,25.2,14.7c9.8-1.9,21.2-11.3,21.2-31.5c0-3.5,2.9-6.4,6.4-6.4c3.5,0,6.4,2.9,6.4,6.4c0,28.1-17,41.3-31.6,44.1
	C223.7,224.3,221.4,224.5,219.1,224.5z"/>
<rect x="159.5" y="168.2" transform="matrix(0.9988 -4.937274e-02 4.937274e-02 0.9988 -8.6498 8.6218)" class="st17" width="21.4" height="22.4"/>
<polygon class="st18" points="181.4,190.1 159.4,177.3 159,168.7 180.3,167.7 "/>
<ellipse transform="matrix(0.9988 -4.937274e-02 4.937274e-02 0.9988 -5.5337 9.7453)" class="st19" cx="194.5" cy="116.9" rx="10.3" ry="10.3"/>
<path class="st17" d="M174,176.6c12.9-0.6,22.8-11.6,22.2-24.5l-1.8-36.2l-46.7,2.3l1.8,36.2C150.1,167.3,161.1,177.2,174,176.6z"/>
<ellipse transform="matrix(0.9988 -4.937274e-02 4.937274e-02 0.9988 -6.8526 8.2542)" class="st20" cx="163.7" cy="142.8" rx="2.1" ry="2.1"/>
<ellipse transform="matrix(0.9988 -4.937274e-02 4.937274e-02 0.9988 -6.7574 9.5321)" class="st20" cx="189.6" cy="141.5" rx="2.1" ry="2.1"/>
<path class="st19" d="M145.6,99.7l36.4-1.8l-0.2-4.7l1.8-0.1c7.7-0.4,14.3,5.6,14.6,13.3c0,0.2,0,0.4,0,0.6
	c-0.1,7.6-6.1,13.7-13.7,14l-12.3,0.6l-9.4,0.5c-5,0.2-8.9,4.5-8.6,9.5c0,0,0,0,0,0l0.4,7.6l-5.8,0.3l-0.7-13.6
	c-7.8-5.5-9.7-16.3-4.3-24.1C144.4,101.1,145,100.4,145.6,99.7L145.6,99.7z"/>
<ellipse transform="matrix(0.9988 -4.937274e-02 4.937274e-02 0.9988 -6.9743 7.6254)" class="st17" cx="150.9" cy="145" rx="6.9" ry="6.9"/>
<path class="st14" d="M166.9,159.7l19.9-1.8l0,0l0,0.5c0.3,3.3-2.2,6.3-5.5,6.6l-7.9,0.7c-3.3,0.3-6.3-2.2-6.6-5.5L166.9,159.7
	L166.9,159.7z"/>
<rect x="185.2" y="309.3" transform="matrix(0.9901 -0.1404 0.1404 0.9901 -51.3906 30.7694)" class="st16" width="14.4" height="140.8"/>
<path class="st16" d="M194.6,447.6v12.8h32.1c0-4.9-3.9-8.8-8.8-8.8c0,0,0,0,0,0c-6.3,0-6-2-9.4-4L194.6,447.6z"/>
<path class="st14" d="M194.6,457.9v2.5h32.1c0-0.8-0.1-1.7-0.4-2.5H194.6z"/>
<path class="st14" d="M204.1,449.7h5.7c0.2,0,0.4-0.2,0.4-0.4s-0.2-0.4-0.4-0.4h-5.7c-0.2,0-0.4,0.2-0.4,0.4
	S203.9,449.7,204.1,449.7z"/>
<path class="st14" d="M207.2,451.5h4.6c0.2,0,0.4-0.2,0.4-0.4s-0.2-0.4-0.4-0.4l0,0h-4.6c-0.2,0-0.4,0.2-0.4,0.4
	S207,451.5,207.2,451.5z"/>
<path class="st14" d="M210.5,453.1h3.6c0.2,0,0.4-0.2,0.4-0.4s-0.2-0.4-0.4-0.4h-3.6c-0.2,0-0.4,0.2-0.4,0.4
	S210.3,453.1,210.5,453.1z"/>
<rect x="151.2" y="315.3" class="st21" width="14.4" height="132.4"/>
<path class="st21" d="M137.2,208.7c0.3-12.2,10.5-21.9,22.8-21.6l21.5,0.6c12.3,0.3,21.9,10.5,21.6,22.8l-2.2,81.6l-65.8-1.8
	L137.2,208.7z"/>
<path class="st21" d="M200.9,292.1l-0.1,4.5c-0.3,12.3-10.5,21.9-22.8,21.6l-21.5-0.6c-12.3-0.3-21.9-10.5-21.6-22.8l0.1-4.5
	L200.9,292.1z"/>
<path class="st22" d="M169.1,212.5c0.3-10.8-3.4-20.3-9-25.3c0,0,7.2,0.2,7.3,0.1l13.9,0.4c12.4,0.3,22.2,10.7,21.8,23.1
	c0,0,0,0,0,0l-2.2,81.3l-33.9-0.9L169.1,212.5z"/>
<path class="st23" d="M172,190.6l-2.5-1.2l0.4-2h0.3l3.2,0.1h1.8l2.2,2l-0.9,1.2c5.5,6.3,8.8,14.3,9.3,22.6l3,45.5l-9.4,9.8
	l-8.9-10.3l5.6-45.6C176.9,205.1,175.5,197.4,172,190.6z"/>
<path class="st16" d="M190.2,291.8l2-73.6c0.1-3.4-0.1-6.9-0.7-10.3c-0.7-4.1-2-8.1-3.9-11.9c-1.5-3.1-3.7-6-6.3-8.3h0.1h0.4h0.7
	c11.9,1,20.9,11.1,20.6,23l-2.2,81.3L190.2,291.8L190.2,291.8z"/>
<path class="st16" d="M167.4,291.2l-0.3,10.5c-0.1,4.5-3.8,8-8.3,7.9l-19.2-0.5c-0.4-0.4-0.7-0.9-1-1.4c-2.5-3.8-3.8-8.3-3.7-12.9
	l0.1-4.5L167.4,291.2z"/>
<path class="st21" d="M166.9,289.8l-0.3,10.6c-0.1,4.5-3.8,8-8.3,7.9c0,0,0,0,0,0l-19.8-0.5c-2.5-3.8-3.8-8.3-3.7-12.9l0.2-5.9
	L166.9,289.8z"/>
<path class="st16" d="M200.9,292.1l-0.1,4.5c-0.1,4.6-1.6,9-4.4,12.7c-3.9-0.8-6.7-4.3-6.6-8.3l0.3-9.3L200.9,292.1z"/>
<path class="st16" d="M151.3,447.6v12.8h32.1c0-4.9-3.9-8.8-8.8-8.8c0,0,0,0,0,0c-6.3,0-6-2-9.4-4L151.3,447.6z"/>
<path class="st14" d="M151.3,457.9v2.5h32.1c0-0.8-0.1-1.7-0.4-2.5H151.3z"/>
<path class="st14" d="M160.8,449.7h5.7c0.2,0,0.4-0.2,0.4-0.4s-0.2-0.4-0.4-0.4h-5.7c-0.2,0-0.4,0.2-0.4,0.4
	S160.6,449.7,160.8,449.7z"/>
<path class="st14" d="M163.9,451.5h4.6c0.2,0,0.4-0.2,0.4-0.4s-0.2-0.4-0.4-0.4h-4.6c-0.2,0-0.4,0.2-0.4,0.4
	S163.7,451.5,163.9,451.5z"/>
<path class="st14" d="M167.2,453.1h3.6c0.2,0,0.4-0.2,0.4-0.4s-0.2-0.4-0.4-0.4l0,0h-3.6c-0.2,0-0.4,0.2-0.4,0.4
	S167,453.1,167.2,453.1z"/>
<path class="st24" d="M142.4,288.4c-1.4,0-2.8-0.5-3.9-1.3c-16.9-13-25.5-31.1-23.5-49.6s14.5-35.1,33.5-44.2c3.2-1.5,7-0.2,8.5,3
	s0.2,7-3,8.5c-15,7.2-24.8,19.9-26.3,34.1s5.1,27.7,18.7,38.1c2.8,2.1,3.3,6.2,1.2,8.9C146.3,287.5,144.5,288.4,142.4,288.4
	L142.4,288.4z"/>
<path class="st17" d="M152.9,289.8c-0.3,0-0.5,0-0.8,0l-11-1.4c-3.5-0.5-6-3.6-5.5-7.1c0.5-3.5,3.6-6,7.1-5.5l0,0l11,1.4
	c3.5,0.4,6,3.5,5.6,7C159,287.4,156.2,289.9,152.9,289.8L152.9,289.8z"/>
<path class="st25" d="M224.7,169.4c3.8,13.6,14.6,27.3,19,32.5c1.2,1.4,3,2,4.7,1.7l5-0.9c1.4-0.3,2.4-1.7,2.1-3.1
	c-0.1-0.3-0.2-0.6-0.3-0.9c-0.8-1.4-1.6-2.8-2.3-4.3c-3.8-7.9-6.3-17.3-7.6-23.1c-0.8-3.3-1.1-5.5-1.1-5.5L224.7,169.4z"/>
<path class="st26" d="M232,171.2c0,0,4.7,18.4,20.8,23.2c-3.8-7.9-6.3-17.3-7.6-23.1L232,171.2z"/>
<path class="st25" d="M204.1,155c0.7,2.8,1.8,5.5,3.3,8.1c2.9,4.9,7,8,10.8,8h0.1c0.6,0,1.2-0.1,1.7-0.2c4-1,6.5-5.4,7.1-11.2
	c0.3-3.5,0-7-0.9-10.4c-2.7-10.3-9.8-17.4-16-15.8c-0.6,0.1-1.1,0.4-1.6,0.6l-0.1,0.1C203.7,136.9,201.7,145.7,204.1,155z"/>
<path class="st25" d="M204.1,155c0.7,2.8,1.8,5.5,3.3,8.1l9.3-1.6l10.5-1.8l34.9-6.1c0,0-11-24.7-7-46
	c-14.7,8.5-44.4,25.4-46.3,26.5l-0.1,0.1C203.7,136.9,201.7,145.7,204.1,155z"/>
<path class="st26" d="M227.2,159.6l34.9-6.1c0,0-11-24.7-7-46l2.5-1.4c3.4-2,5.5-3.2,5.6-3.3l0.5,36.7l17.4,32.3
	c-0.6-0.2-59.9-0.8-62.7-0.9h-0.1c-0.9-5.3,2.7-10.3,8-11.3L227.2,159.6z"/>
<path class="st25" d="M287.4,175.3c9.8-2.5,9.8-23.6,4.7-43.2s-15.3-38-25.1-35.4s-9.8,23.6-4.7,43.2S277.6,177.9,287.4,175.3z"/>
<path class="st27" d="M265.9,138.9c1.1,4.3,2.5,8.5,4.1,12.6c5.4,13.6,12.5,22.4,17.9,21c6.8-1.8,8.1-19.7,2.8-40
	s-15.1-35.3-21.9-33.6c-5.3,1.4-7.3,12.6-5.4,27C264,130.3,264.8,134.7,265.9,138.9z"/>
<path class="st28" d="M265.9,138.9c1.1,4.3,2.5,8.5,4.1,12.6l16.1-6.6l-5.5-21l-17.3,2.1C264,130.4,264.8,134.7,265.9,138.9z"/>
<ellipse transform="matrix(0.9679 -0.2514 0.2514 0.9679 -24.6835 75.5525)" class="st25" cx="283.4" cy="134.4" rx="3.7" ry="10.9"/>
<path class="st17" d="M242.7,190.5c-3.5,0-6.4-2.8-6.4-6.4c0-2.4,1.3-4.6,3.5-5.7l8.4-4.3c3.2-1.5,7-0.1,8.5,3
	c1.4,3.1,0.3,6.7-2.7,8.3l-8.4,4.3C244.7,190.2,243.7,190.5,242.7,190.5z"/>
<g>
	<path class="st0" d="M331.7,188.5c0-1.3,0.2-2.5,0.5-3.5c0.3-1.1,0.8-2,1.4-2.8c0.6-0.8,1.3-1.3,2-1.6l0.5,1.3
		c-0.7,0.5-1.3,1.4-1.7,2.5c-0.4,1.1-0.6,2.5-0.6,4v0.3c0,1.6,0.2,2.9,0.6,4.1s1,2,1.7,2.5l-0.5,1.3c-0.7-0.3-1.4-0.8-2-1.6
		c-0.6-0.8-1.1-1.7-1.4-2.8s-0.5-2.2-0.5-3.4V188.5z"/>
	<path class="st0" d="M346.2,183.9h-3.4v9.3H340v-9.3h-3.4v-2.1h9.5V183.9z"/>
	<path class="st0" d="M349.8,185.6c0.6-0.7,1.3-1.1,2.2-1.1c0.9,0,1.6,0.3,2.1,0.8c0.5,0.6,0.7,1.4,0.7,2.4v5.3h-2.6v-5.3
		c0-0.4-0.1-0.8-0.3-1c-0.2-0.2-0.5-0.3-0.9-0.3c-0.5,0-0.9,0.2-1.1,0.5v6.1h-2.6v-12h2.6V185.6z"/>
	<path class="st0" d="M366,183.9c0,0.9-0.2,1.6-0.5,2.1s-0.9,0.8-1.7,0.9v6.2h-2.5l-0.1-0.9c-0.6,0.7-1.3,1.1-2.3,1.1
		c-0.9,0-1.6-0.3-2.1-0.8s-0.7-1.3-0.7-2.3v-5.5h2.6v5.5c0,0.7,0.4,1.1,1.1,1.1c0.6,0,1-0.2,1.3-0.6v-5.9h2.6v1
		c0.3-0.1,0.5-0.3,0.6-0.6c0.1-0.3,0.2-0.7,0.2-1.2H366z"/>
	<path class="st0" d="M373.4,191.3c0.4,0,0.7-0.1,0.9-0.3c0.2-0.2,0.3-0.5,0.3-0.8h2.5c0,0.9-0.3,1.7-1,2.3s-1.5,0.9-2.6,0.9
		c-1.2,0-2.2-0.4-2.9-1.2c-0.7-0.8-1.1-1.8-1.1-3.2v-0.1c0-0.9,0.2-1.6,0.5-2.3c0.3-0.7,0.8-1.2,1.4-1.5s1.3-0.5,2.1-0.5
		c1.1,0,2,0.3,2.6,0.9c0.6,0.6,1,1.4,1,2.5h-2.5c0-0.4-0.1-0.8-0.3-1c-0.2-0.2-0.5-0.4-0.9-0.4c-0.7,0-1.1,0.4-1.2,1.3
		c0,0.3-0.1,0.7-0.1,1.1c0,0.8,0.1,1.4,0.3,1.8S373,191.3,373.4,191.3z"/>
	<path class="st0" d="M377.8,188.8c0-0.8,0.2-1.6,0.5-2.3c0.3-0.7,0.8-1.2,1.4-1.5c0.6-0.4,1.3-0.5,2.2-0.5c1.3,0,2.3,0.4,3,1.2
		c0.7,0.8,1.1,1.9,1.1,3.2v0.1c0,1.3-0.4,2.4-1.1,3.1c-0.7,0.8-1.7,1.2-3,1.2c-1.2,0-2.2-0.4-2.9-1.1c-0.7-0.7-1.1-1.7-1.2-2.9
		L377.8,188.8z M380.5,189c0,0.8,0.1,1.4,0.4,1.7c0.2,0.4,0.6,0.5,1.1,0.5c0.9,0,1.4-0.7,1.4-2.2v-0.3c0-1.5-0.5-2.3-1.5-2.3
		c-0.9,0-1.4,0.7-1.4,2L380.5,189z M382.3,181.1h2.8l-2.2,2.5l-2.1,0L382.3,181.1z"/>
	<path class="st0" d="M394.2,182.6v2.1h1.4v1.8h-1.4v3.9c0,0.3,0.1,0.5,0.2,0.7c0.1,0.1,0.3,0.2,0.7,0.2c0.3,0,0.5,0,0.7,0v1.9
		c-0.5,0.2-1,0.2-1.5,0.2c-0.9,0-1.6-0.2-2-0.6c-0.4-0.4-0.6-1.1-0.6-1.9v-4.2h-1.1v-1.8h1.1v-2.1H394.2z"/>
	<path class="st0" d="M399.2,185.6c0.6-0.7,1.3-1.1,2.2-1.1c0.9,0,1.6,0.3,2.1,0.8c0.5,0.6,0.7,1.4,0.7,2.4v5.3h-2.6v-5.3
		c0-0.4-0.1-0.8-0.3-1c-0.2-0.2-0.5-0.3-0.9-0.3c-0.5,0-0.9,0.2-1.1,0.5v6.1h-2.6v-12h2.6V185.6z"/>
	<path class="st0" d="M409.7,193.3c-1.3,0-2.3-0.4-3.1-1.2c-0.8-0.8-1.2-1.8-1.2-3v-0.2c0-0.9,0.2-1.6,0.5-2.3
		c0.3-0.7,0.8-1.2,1.4-1.5c0.6-0.4,1.3-0.5,2.2-0.5c1.2,0,2.1,0.4,2.8,1.1c0.7,0.7,1,1.8,1,3.1v1h-5.2c0.1,0.5,0.3,0.8,0.6,1.1
		c0.3,0.3,0.7,0.4,1.2,0.4c0.8,0,1.5-0.3,2-0.9l1.2,1.4c-0.3,0.5-0.8,0.8-1.4,1.1S410.4,193.3,409.7,193.3z M411.9,183.6l-1.7,0
		l-1.1-0.9l-1.1,0.9l-1.7,0l2.2-1.7h1.3L411.9,183.6z M409.4,186.6c-0.8,0-1.2,0.5-1.4,1.5h2.7v-0.2c0-0.4-0.1-0.7-0.3-1
		C410.2,186.7,409.9,186.6,409.4,186.6z M411.1,182.6l-0.2-0.8c0.6,0,0.9-0.2,0.9-0.4c0-0.2-0.1-0.3-0.2-0.4
		c-0.2-0.1-0.4-0.1-0.6-0.1l0.1-0.9c0.8,0,1.4,0.1,1.8,0.3c0.4,0.2,0.6,0.5,0.6,0.9c0,0.2-0.1,0.5-0.3,0.6c-0.2,0.2-0.4,0.3-0.7,0.3
		l0,0.4H411.1z"/>
	<path class="st0" d="M421.4,182.6v2.1h1.4v1.8h-1.4v3.9c0,0.3,0.1,0.5,0.2,0.7c0.1,0.1,0.3,0.2,0.7,0.2c0.3,0,0.5,0,0.7,0v1.9
		c-0.5,0.2-1,0.2-1.5,0.2c-0.9,0-1.6-0.2-2-0.6c-0.4-0.4-0.6-1.1-0.6-1.9v-4.2h-1.1v-1.8h1.1v-2.1H421.4z"/>
	<path class="st0" d="M423.5,188.8c0-0.8,0.2-1.6,0.5-2.3c0.3-0.7,0.8-1.2,1.4-1.5c0.6-0.4,1.3-0.5,2.2-0.5c1.3,0,2.3,0.4,3,1.2
		c0.3-0.3,0.5-0.9,0.5-1.8h1.4c0,1.4-0.4,2.3-1.3,2.7c0.3,0.6,0.4,1.4,0.4,2.3c0,1.3-0.4,2.4-1.1,3.1c-0.7,0.8-1.7,1.2-3,1.2
		c-1.2,0-2.2-0.4-2.9-1.1c-0.7-0.7-1.1-1.7-1.2-2.9L423.5,188.8z M426.1,189c0,0.8,0.1,1.4,0.4,1.7c0.2,0.4,0.6,0.5,1.1,0.5
		c0.9,0,1.4-0.7,1.4-2.2v-0.3c0-1.5-0.5-2.3-1.5-2.3c-0.9,0-1.4,0.7-1.4,2L426.1,189z M427.9,181.1h2.8l-2.2,2.5l-2.1,0L427.9,181.1
		z"/>
	<path class="st0" d="M433.2,182.5c0-0.4,0.1-0.7,0.4-0.9c0.3-0.2,0.6-0.4,1.1-0.4c0.4,0,0.8,0.1,1.1,0.4c0.3,0.2,0.4,0.5,0.4,0.9
		s-0.1,0.7-0.4,0.9c-0.3,0.2-0.6,0.4-1.1,0.4c-0.4,0-0.8-0.1-1.1-0.4C433.3,183.2,433.2,182.9,433.2,182.5z M436,193.1h-2.6v-8.5
		h2.6V193.1z"/>
	<path class="st0" d="M446,190.8c0-0.2-0.1-0.4-0.4-0.5c-0.2-0.1-0.7-0.3-1.3-0.4c-0.7-0.1-1.2-0.3-1.6-0.6c-0.4-0.2-0.8-0.5-1-0.9
		c-0.2-0.3-0.3-0.7-0.3-1.2c0-0.8,0.3-1.4,1-1.9c0.6-0.5,1.5-0.8,2.5-0.8c1.1,0,2,0.3,2.7,0.8c0.7,0.5,1,1.2,1,2h-2.6
		c0-0.7-0.4-1-1.1-1c-0.3,0-0.5,0.1-0.7,0.2c-0.2,0.2-0.3,0.3-0.3,0.6c0,0.2,0.1,0.4,0.3,0.6c0.2,0.1,0.6,0.3,1.1,0.4
		c0.5,0.1,0.9,0.2,1.3,0.3c1.3,0.4,1.9,1.2,1.9,2.4c0,0.8-0.3,1.4-1,1.9c-0.7,0.5-1.6,0.7-2.7,0.7c-0.7,0-1.4-0.1-1.9-0.4
		c-0.6-0.3-1-0.6-1.3-1.1c-0.3-0.4-0.5-0.9-0.5-1.4h2.5c0,0.4,0.1,0.7,0.4,0.9s0.6,0.3,1,0.3c0.4,0,0.6-0.1,0.8-0.2
		C445.9,191.2,446,191,446,190.8z"/>
	<path class="st0" d="M454.5,193.1c-0.1-0.2-0.2-0.4-0.3-0.8c-0.5,0.6-1.2,0.9-2,0.9c-0.8,0-1.5-0.2-2-0.7c-0.6-0.5-0.8-1.1-0.8-1.8
		c0-0.9,0.3-1.6,1-2.1c0.7-0.5,1.7-0.7,3-0.7h0.8v-0.4c0-0.8-0.3-1.2-1-1.2c-0.6,0-0.9,0.3-0.9,0.9h-2.6c0-0.8,0.3-1.5,1-2
		s1.6-0.8,2.7-0.8s1.9,0.3,2.6,0.8c0.6,0.5,0.9,1.2,1,2.2v3.7c0,0.8,0.1,1.4,0.4,1.8v0.1H454.5z M452.9,191.4c0.3,0,0.6-0.1,0.8-0.2
		c0.2-0.1,0.4-0.3,0.5-0.5v-1.4h-0.8c-0.9,0-1.4,0.4-1.4,1.2c0,0.2,0.1,0.4,0.2,0.6C452.4,191.3,452.6,191.4,452.9,191.4z"/>
	<path class="st0" d="M463.3,192.2c-0.6,0.7-1.3,1.1-2.3,1.1c-0.9,0-1.6-0.3-2.1-0.8s-0.7-1.3-0.7-2.3v-5.5h2.6v5.5
		c0,0.7,0.4,1.1,1.1,1.1c0.6,0,1-0.2,1.3-0.6v-5.9h2.6v8.5h-2.5L463.3,192.2z"/>
	<path class="st0" d="M474.6,190l1.3-5.3h2.8l-2.8,8.5h-2.7l-2.8-8.5h2.8L474.6,190z"/>
	<path class="st0" d="M484.2,193.1c-0.1-0.2-0.2-0.4-0.3-0.8c-0.5,0.6-1.2,0.9-2,0.9c-0.8,0-1.5-0.2-2-0.7c-0.6-0.5-0.8-1.1-0.8-1.8
		c0-0.9,0.3-1.6,1-2.1c0.7-0.5,1.7-0.7,3-0.7h0.8v-0.4c0-0.8-0.3-1.2-1-1.2c-0.6,0-0.9,0.3-0.9,0.9h-2.6c0-0.8,0.3-1.5,1-2
		s1.6-0.8,2.7-0.8s1.9,0.3,2.6,0.8c0.6,0.5,0.9,1.2,1,2.2v3.7c0,0.8,0.1,1.4,0.4,1.8v0.1H484.2z M484.1,183.6l-2.1,0l-2.2-2.5h2.8
		L484.1,183.6z M482.5,191.4c0.3,0,0.6-0.1,0.8-0.2c0.2-0.1,0.4-0.3,0.5-0.5v-1.4h-0.8c-0.9,0-1.4,0.4-1.4,1.2
		c0,0.2,0.1,0.4,0.2,0.6C482.1,191.3,482.3,191.4,482.5,191.4z"/>
	<path class="st0" d="M487.9,182.5c0-0.4,0.1-0.7,0.4-0.9c0.3-0.2,0.6-0.4,1.1-0.4c0.4,0,0.8,0.1,1.1,0.4c0.3,0.2,0.4,0.5,0.4,0.9
		s-0.1,0.7-0.4,0.9c-0.3,0.2-0.6,0.4-1.1,0.4c-0.4,0-0.8-0.1-1.1-0.4C488,183.2,487.9,182.9,487.9,182.5z M490.7,193.1h-2.6v-8.5
		h2.6V193.1z"/>
	<path class="st0" d="M504.1,189c0,1.3-0.3,2.4-0.9,3.1c-0.6,0.8-1.4,1.2-2.4,1.2c-0.8,0-1.4-0.3-1.9-0.9v3.9h-2.6v-11.7h2.5
		l0.1,0.8c0.5-0.6,1.2-0.9,2-0.9c1,0,1.9,0.4,2.4,1.2c0.6,0.8,0.9,1.8,0.9,3.2V189z M501.5,188.8c0-1.5-0.4-2.3-1.3-2.3
		c-0.6,0-1,0.2-1.3,0.7v3.3c0.2,0.5,0.7,0.7,1.3,0.7c0.8,0,1.3-0.7,1.3-2.2V188.8z"/>
	<path class="st0" d="M507.9,185.6c0.6-0.7,1.3-1.1,2.2-1.1c0.9,0,1.6,0.3,2.1,0.8c0.5,0.6,0.7,1.4,0.7,2.4v5.3h-2.6v-5.3
		c0-0.4-0.1-0.8-0.3-1c-0.2-0.2-0.5-0.3-0.9-0.3c-0.5,0-0.9,0.2-1.1,0.5v6.1h-2.6v-12h2.6V185.6z"/>
	<path class="st0" d="M519.4,192.2c-0.6,0.7-1.3,1.1-2.3,1.1c-0.9,0-1.6-0.3-2.1-0.8s-0.7-1.3-0.7-2.3v-5.5h2.6v5.5
		c0,0.7,0.4,1.1,1.1,1.1c0.6,0,1-0.2,1.3-0.6v-5.9h2.6v8.5h-2.5L519.4,192.2z M518.4,181.1h2.8l-2.2,2.5l-2.1,0L518.4,181.1z"/>
	<path class="st0" d="M526.4,182.6v2.1h1.4v1.8h-1.4v3.9c0,0.3,0.1,0.5,0.2,0.7s0.3,0.2,0.7,0.2c0.3,0,0.5,0,0.7,0v1.9
		c-0.5,0.2-1,0.2-1.5,0.2c-0.9,0-1.6-0.2-2-0.6c-0.4-0.4-0.6-1.1-0.6-1.9v-4.2h-1.1v-1.8h1.1v-2.1H526.4z"/>
	<path class="st0" d="M535.4,185.6c0.6-0.7,1.3-1.1,2.2-1.1c0.9,0,1.6,0.3,2.1,0.8c0.5,0.6,0.7,1.4,0.7,2.4v5.3h-2.6v-5.3
		c0-0.4-0.1-0.8-0.3-1s-0.5-0.3-0.9-0.3c-0.5,0-0.9,0.2-1.1,0.5v6.1h-2.6v-12h2.6V185.6z"/>
	<path class="st0" d="M541.5,188.8c0-0.8,0.2-1.6,0.5-2.3c0.3-0.7,0.8-1.2,1.4-1.5c0.6-0.4,1.3-0.5,2.2-0.5c1.3,0,2.3,0.4,3,1.2
		c0.7,0.8,1.1,1.9,1.1,3.2v0.1c0,1.3-0.4,2.4-1.1,3.1s-1.7,1.2-3,1.2c-1.2,0-2.2-0.4-2.9-1.1c-0.7-0.7-1.1-1.7-1.2-2.9L541.5,188.8z
		 M544.2,189c0,0.8,0.1,1.4,0.4,1.7c0.2,0.4,0.6,0.5,1.1,0.5c0.9,0,1.4-0.7,1.4-2.2v-0.3c0-1.5-0.5-2.3-1.5-2.3
		c-0.9,0-1.4,0.7-1.4,2L544.2,189z"/>
	<path class="st0" d="M555.6,193.1c-0.1-0.2-0.2-0.4-0.3-0.8c-0.5,0.6-1.2,0.9-2,0.9c-0.8,0-1.5-0.2-2-0.7c-0.6-0.5-0.8-1.1-0.8-1.8
		c0-0.9,0.3-1.6,1-2.1s1.7-0.7,3-0.7h0.8v-0.4c0-0.8-0.3-1.2-1-1.2c-0.6,0-0.9,0.3-0.9,0.9h-2.6c0-0.8,0.3-1.5,1-2s1.6-0.8,2.7-0.8
		s1.9,0.3,2.6,0.8c0.6,0.5,0.9,1.2,1,2.2v3.7c0,0.8,0.1,1.4,0.4,1.8v0.1H555.6z M557.2,181.1c0,0.7-0.3,1.3-0.8,1.7
		c-0.5,0.4-1.2,0.7-2.1,0.7s-1.6-0.2-2.1-0.7c-0.5-0.4-0.8-1-0.8-1.7h1.8c0,0.3,0.1,0.6,0.3,0.7c0.2,0.2,0.5,0.3,0.8,0.3
		s0.6-0.1,0.8-0.3c0.2-0.2,0.3-0.4,0.3-0.7H557.2z M552.3,194.8c0-0.3,0.1-0.6,0.4-0.8s0.6-0.3,1-0.3s0.8,0.1,1,0.3s0.4,0.5,0.4,0.8
		c0,0.3-0.1,0.6-0.4,0.8s-0.6,0.3-1,0.3s-0.8-0.1-1-0.3S552.3,195.1,552.3,194.8z M554,191.4c0.3,0,0.6-0.1,0.8-0.2s0.4-0.3,0.5-0.5
		v-1.4h-0.8c-0.9,0-1.4,0.4-1.4,1.2c0,0.2,0.1,0.4,0.2,0.6S553.7,191.4,554,191.4z"/>
	<path class="st0" d="M562.9,191.3c0.4,0,0.7-0.1,0.9-0.3c0.2-0.2,0.3-0.5,0.3-0.8h2.5c0,0.9-0.3,1.7-1,2.3s-1.5,0.9-2.6,0.9
		c-1.2,0-2.2-0.4-2.9-1.2c-0.7-0.8-1.1-1.8-1.1-3.2v-0.1c0-0.9,0.2-1.6,0.5-2.3c0.3-0.7,0.8-1.2,1.4-1.5s1.3-0.5,2.1-0.5
		c1.1,0,2,0.3,2.6,0.9s1,1.4,1,2.5h-2.5c0-0.4-0.1-0.8-0.3-1s-0.5-0.4-0.9-0.4c-0.7,0-1.1,0.4-1.2,1.3c0,0.3-0.1,0.7-0.1,1.1
		c0,0.8,0.1,1.4,0.3,1.8S562.5,191.3,562.9,191.3z"/>
	<path class="st0" d="M575.2,191.3c0.4,0,0.7-0.1,0.9-0.3c0.2-0.2,0.3-0.5,0.3-0.8h2.5c0,0.9-0.3,1.7-1,2.3s-1.5,0.9-2.6,0.9
		c-1.2,0-2.2-0.4-2.9-1.2c-0.7-0.8-1.1-1.8-1.1-3.2v-0.1c0-0.9,0.2-1.6,0.5-2.3c0.3-0.7,0.8-1.2,1.4-1.5s1.3-0.5,2.1-0.5
		c1.1,0,2,0.3,2.6,0.9s1,1.4,1,2.5h-2.5c0-0.4-0.1-0.8-0.3-1s-0.5-0.4-0.9-0.4c-0.7,0-1.1,0.4-1.2,1.3c0,0.3-0.1,0.7-0.1,1.1
		c0,0.8,0.1,1.4,0.3,1.8S574.8,191.3,575.2,191.3z"/>
	<path class="st0" d="M579.6,188.8c0-0.8,0.2-1.6,0.5-2.3c0.3-0.7,0.8-1.2,1.4-1.5c0.6-0.4,1.3-0.5,2.2-0.5c1.3,0,2.3,0.4,3,1.2
		c0.7,0.8,1.1,1.9,1.1,3.2v0.1c0,1.3-0.4,2.4-1.1,3.1s-1.7,1.2-3,1.2c-1.2,0-2.2-0.4-2.9-1.1c-0.7-0.7-1.1-1.7-1.2-2.9L579.6,188.8z
		 M582.3,189c0,0.8,0.1,1.4,0.4,1.7c0.2,0.4,0.6,0.5,1.1,0.5c0.9,0,1.4-0.7,1.4-2.2v-0.3c0-1.5-0.5-2.3-1.5-2.3
		c-0.9,0-1.4,0.7-1.4,2L582.3,189z M584.1,181.1h2.8l-2.2,2.5l-2.1,0L584.1,181.1z"/>
	<path class="st0" d="M596,182.6v2.1h1.4v1.8H596v3.9c0,0.3,0.1,0.5,0.2,0.7s0.3,0.2,0.7,0.2c0.3,0,0.5,0,0.7,0v1.9
		c-0.5,0.2-1,0.2-1.5,0.2c-0.9,0-1.6-0.2-2-0.6c-0.4-0.4-0.6-1.1-0.6-1.9v-4.2h-1.1v-1.8h1.1v-2.1H596z"/>
	<path class="st0" d="M601,185.6c0.6-0.7,1.3-1.1,2.2-1.1c0.9,0,1.6,0.3,2.1,0.8c0.5,0.6,0.7,1.4,0.7,2.4v5.3h-2.6v-5.3
		c0-0.4-0.1-0.8-0.3-1s-0.5-0.3-0.9-0.3c-0.5,0-0.9,0.2-1.1,0.5v6.1h-2.6v-12h2.6V185.6z"/>
	<path class="st0" d="M611.5,193.3c-1.3,0-2.3-0.4-3.1-1.2s-1.2-1.8-1.2-3v-0.2c0-0.9,0.2-1.6,0.5-2.3c0.3-0.7,0.8-1.2,1.4-1.5
		c0.6-0.4,1.3-0.5,2.2-0.5c1.2,0,2.1,0.4,2.8,1.1c0.7,0.7,1,1.8,1,3.1v1h-5.2c0.1,0.5,0.3,0.8,0.6,1.1c0.3,0.3,0.7,0.4,1.2,0.4
		c0.8,0,1.5-0.3,2-0.9l1.2,1.4c-0.3,0.5-0.8,0.8-1.4,1.1S612.2,193.3,611.5,193.3z M613.7,183.6l-1.7,0l-1.1-0.9l-1.1,0.9l-1.7,0
		l2.2-1.7h1.3L613.7,183.6z M611.2,186.6c-0.8,0-1.2,0.5-1.4,1.5h2.7v-0.2c0-0.4-0.1-0.7-0.3-1C612,186.7,611.7,186.6,611.2,186.6z
		 M612.9,182.6l-0.2-0.8c0.6,0,0.9-0.2,0.9-0.4c0-0.2-0.1-0.3-0.2-0.4c-0.2-0.1-0.4-0.1-0.6-0.1l0.1-0.9c0.8,0,1.4,0.1,1.8,0.3
		c0.4,0.2,0.6,0.5,0.6,0.9c0,0.2-0.1,0.5-0.3,0.6c-0.2,0.2-0.4,0.3-0.7,0.3l0,0.4H612.9z"/>
	<path class="st0" d="M619.8,188.8c0-0.8,0.2-1.6,0.5-2.3c0.3-0.7,0.8-1.2,1.4-1.5c0.6-0.4,1.3-0.5,2.2-0.5c1.3,0,2.3,0.4,3,1.2
		c0.3-0.3,0.5-0.9,0.5-1.8h1.4c0,1.4-0.4,2.3-1.3,2.7c0.3,0.6,0.4,1.4,0.4,2.3c0,1.3-0.4,2.4-1.1,3.1s-1.7,1.2-3,1.2
		c-1.2,0-2.2-0.4-2.9-1.1c-0.7-0.7-1.1-1.7-1.2-2.9L619.8,188.8z M622.4,189c0,0.8,0.1,1.4,0.4,1.7c0.2,0.4,0.6,0.5,1.1,0.5
		c0.9,0,1.4-0.7,1.4-2.2v-0.3c0-1.5-0.5-2.3-1.5-2.3c-0.9,0-1.4,0.7-1.4,2L622.4,189z M622.9,183.2l-0.2-1c0.7,0,1.1-0.2,1.1-0.5
		c0-0.3-0.4-0.5-1.1-0.5l0.1-1.1c1.1,0,1.9,0.1,2.5,0.4c0.6,0.3,0.8,0.6,0.8,1.1c0,0.3-0.1,0.5-0.3,0.7s-0.5,0.3-0.9,0.4v0.5H622.9z
		"/>
	<path class="st0" d="M636.6,182.6v2.1h1.4v1.8h-1.4v3.9c0,0.3,0.1,0.5,0.2,0.7s0.3,0.2,0.7,0.2c0.3,0,0.5,0,0.7,0v1.9
		c-0.5,0.2-1,0.2-1.5,0.2c-0.9,0-1.6-0.2-2-0.6c-0.4-0.4-0.6-1.1-0.6-1.9v-4.2h-1.1v-1.8h1.1v-2.1H636.6z"/>
	<path class="st0" d="M644.1,187.1l-0.9-0.1c-0.8,0-1.4,0.3-1.6,0.8v5.4H639v-8.5h2.5l0.1,1.1c0.4-0.8,1.1-1.2,1.9-1.2
		c0.3,0,0.5,0,0.7,0.1L644.1,187.1z"/>
	<path class="st0" d="M644.4,188.8c0-0.8,0.2-1.6,0.5-2.3c0.3-0.7,0.8-1.2,1.4-1.5c0.6-0.4,1.3-0.5,2.2-0.5c1.3,0,2.3,0.4,3,1.2
		c0.7,0.8,1.1,1.9,1.1,3.2v0.1c0,1.3-0.4,2.4-1.1,3.1s-1.7,1.2-3,1.2c-1.2,0-2.2-0.4-2.9-1.1c-0.7-0.7-1.1-1.7-1.2-2.9L644.4,188.8z
		 M647.1,189c0,0.8,0.1,1.4,0.4,1.7c0.2,0.4,0.6,0.5,1.1,0.5c0.9,0,1.4-0.7,1.4-2.2v-0.3c0-1.5-0.5-2.3-1.5-2.3
		c-0.9,0-1.4,0.7-1.4,2L647.1,189z"/>
	<path class="st0" d="M656.2,184.7l0.1,1c0.6-0.8,1.4-1.1,2.4-1.1c0.9,0,1.5,0.3,2,0.8c0.4,0.5,0.7,1.3,0.7,2.4v5.4h-2.6v-5.3
		c0-0.4-0.1-0.7-0.3-0.9c-0.2-0.2-0.5-0.3-0.9-0.3c-0.5,0-0.9,0.2-1.1,0.6v6h-2.6v-8.5H656.2z"/>
	<path class="st0" d="M662.5,188.8c0-0.9,0.1-1.6,0.4-2.3s0.7-1.2,1.2-1.5c0.5-0.4,1.1-0.5,1.8-0.5c0.9,0,1.6,0.3,2.1,0.9l0.1-0.7
		h2.4v8.1c0,0.7-0.2,1.4-0.5,1.9c-0.3,0.5-0.8,1-1.5,1.3c-0.7,0.3-1.4,0.4-2.3,0.4c-0.6,0-1.2-0.1-1.8-0.4s-1-0.5-1.3-0.9l1.1-1.5
		c0.5,0.6,1.1,0.9,1.9,0.9c1.2,0,1.8-0.6,1.8-1.8v-0.3c-0.5,0.6-1.1,0.8-1.9,0.8c-1,0-1.9-0.4-2.5-1.2S662.5,190.3,662.5,188.8
		L662.5,188.8z M665.1,189c0,0.7,0.1,1.2,0.4,1.6c0.3,0.4,0.6,0.6,1.1,0.6c0.6,0,1-0.2,1.2-0.6v-3.6c-0.3-0.4-0.7-0.6-1.2-0.6
		c-0.5,0-0.8,0.2-1.1,0.6C665.2,187.6,665.1,188.2,665.1,189z"/>
	<path class="st0" d="M678.4,184.7l0.1,1c0.6-0.8,1.4-1.1,2.4-1.1c1.1,0,1.8,0.4,2.2,1.3c0.6-0.8,1.4-1.3,2.5-1.3
		c1.7,0,2.6,1,2.6,3.1v5.5h-2.6v-5.3c0-0.4-0.1-0.7-0.2-0.9c-0.1-0.2-0.4-0.3-0.8-0.3c-0.5,0-0.9,0.2-1.2,0.7l0,0.1v5.8h-2.6v-5.3
		c0-0.4-0.1-0.8-0.2-1c-0.1-0.2-0.4-0.3-0.8-0.3c-0.5,0-0.9,0.2-1.2,0.7v5.9H676v-8.5H678.4z"/>
	<path class="st0" d="M694.8,192.2c-0.6,0.7-1.3,1.1-2.3,1.1c-0.9,0-1.6-0.3-2.1-0.8s-0.7-1.3-0.7-2.3v-5.5h2.6v5.5
		c0,0.7,0.4,1.1,1.1,1.1c0.6,0,1-0.2,1.3-0.6v-5.9h2.6v8.5h-2.5L694.8,192.2z M691.1,194.9c0-0.3,0.1-0.6,0.4-0.8s0.6-0.3,1-0.3
		s0.8,0.1,1,0.3s0.4,0.5,0.4,0.8c0,0.3-0.1,0.6-0.4,0.8s-0.6,0.3-1,0.3s-0.8-0.1-1-0.3S691.1,195.3,691.1,194.9z"/>
	<path class="st0" d="M702.3,191.3c0.4,0,0.7-0.1,0.9-0.3c0.2-0.2,0.3-0.5,0.3-0.8h2.5c0,0.9-0.3,1.7-1,2.3s-1.5,0.9-2.6,0.9
		c-1.2,0-2.2-0.4-2.9-1.2c-0.7-0.8-1.1-1.8-1.1-3.2v-0.1c0-0.9,0.2-1.6,0.5-2.3c0.3-0.7,0.8-1.2,1.4-1.5s1.3-0.5,2.1-0.5
		c1.1,0,2,0.3,2.6,0.9s1,1.4,1,2.5h-2.5c0-0.4-0.1-0.8-0.3-1s-0.5-0.4-0.9-0.4c-0.7,0-1.1,0.4-1.2,1.3c0,0.3-0.1,0.7-0.1,1.1
		c0,0.8,0.1,1.4,0.3,1.8S701.9,191.3,702.3,191.3z"/>
	<path class="st0" d="M717,190.1c0-0.4-0.1-0.7-0.4-0.9c-0.3-0.2-0.8-0.5-1.5-0.7c-0.7-0.2-1.3-0.5-1.8-0.7c-1.5-0.7-2.2-1.7-2.2-3
		c0-0.6,0.2-1.2,0.6-1.7c0.4-0.5,0.9-0.9,1.6-1.1c0.7-0.3,1.4-0.4,2.3-0.4c0.8,0,1.6,0.1,2.2,0.4c0.6,0.3,1.2,0.7,1.5,1.2
		s0.5,1.2,0.5,1.8h-2.7c0-0.5-0.1-0.8-0.4-1.1c-0.3-0.3-0.7-0.4-1.2-0.4c-0.5,0-0.9,0.1-1.2,0.3c-0.3,0.2-0.4,0.5-0.4,0.8
		c0,0.3,0.2,0.6,0.5,0.8c0.3,0.2,0.9,0.5,1.6,0.7c0.8,0.3,1.4,0.5,1.9,0.8c1.2,0.7,1.8,1.7,1.8,2.9c0,1-0.4,1.8-1.1,2.3
		c-0.8,0.6-1.8,0.9-3.1,0.9c-0.9,0-1.8-0.2-2.5-0.5c-0.7-0.3-1.3-0.8-1.7-1.4c-0.4-0.6-0.6-1.2-0.6-2h2.8c0,0.6,0.2,1.1,0.5,1.3
		s0.8,0.4,1.5,0.4c0.5,0,0.8-0.1,1.1-0.3S717,190.5,717,190.1z"/>
	<path class="st0" d="M728.9,189c0,1.3-0.3,2.4-0.9,3.1c-0.6,0.8-1.4,1.2-2.4,1.2c-0.8,0-1.4-0.3-1.9-0.9v3.9h-2.6v-11.7h2.5
		l0.1,0.8c0.5-0.6,1.2-0.9,2-0.9c1,0,1.9,0.4,2.4,1.2c0.6,0.8,0.9,1.8,0.9,3.2V189z M726.3,188.8c0-1.5-0.4-2.3-1.3-2.3
		c-0.6,0-1,0.2-1.3,0.7v3.3c0.2,0.5,0.7,0.7,1.3,0.7c0.8,0,1.3-0.7,1.3-2.2V188.8z"/>
	<path class="st0" d="M734.8,193.1c-0.1-0.2-0.2-0.4-0.3-0.8c-0.5,0.6-1.2,0.9-2,0.9c-0.8,0-1.5-0.2-2-0.7c-0.6-0.5-0.8-1.1-0.8-1.8
		c0-0.9,0.3-1.6,1-2.1s1.7-0.7,3-0.7h0.8v-0.4c0-0.8-0.3-1.2-1-1.2c-0.6,0-0.9,0.3-0.9,0.9h-2.6c0-0.8,0.3-1.5,1-2s1.6-0.8,2.7-0.8
		s1.9,0.3,2.6,0.8c0.6,0.5,0.9,1.2,1,2.2v3.7c0,0.8,0.1,1.4,0.4,1.8v0.1H734.8z M733.2,191.4c0.3,0,0.6-0.1,0.8-0.2s0.4-0.3,0.5-0.5
		v-1.4h-0.8c-0.9,0-1.4,0.4-1.4,1.2c0,0.2,0.1,0.4,0.2,0.6S732.9,191.4,733.2,191.4z"/>
	<path class="st0" d="M741.1,184.7l0.1,1c0.6-0.8,1.4-1.1,2.4-1.1c1.1,0,1.8,0.4,2.2,1.3c0.6-0.8,1.4-1.3,2.5-1.3
		c1.7,0,2.6,1,2.6,3.1v5.5h-2.6v-5.3c0-0.4-0.1-0.7-0.2-0.9c-0.1-0.2-0.4-0.3-0.8-0.3c-0.5,0-0.9,0.2-1.2,0.7l0,0.1v5.8h-2.6v-5.3
		c0-0.4-0.1-0.8-0.2-1c-0.1-0.2-0.4-0.3-0.8-0.3c-0.5,0-0.9,0.2-1.2,0.7v5.9h-2.6v-8.5H741.1z"/>
	<path class="st0" d="M753.3,196.2l-1.3-0.6l0.3-0.5c0.4-0.7,0.6-1.3,0.6-1.9v-2h2.1l0,1.7c0,0.6-0.2,1.2-0.5,1.8
		C754.1,195.3,753.7,195.8,753.3,196.2z"/>
	<path class="st0" d="M760.3,188.8c0-1.3,0.3-2.4,0.9-3.2c0.6-0.8,1.4-1.1,2.4-1.1c0.9,0,1.6,0.4,2.1,1.1l0.2-0.9h2.3v11.7h-2.6v-4
		c-0.5,0.6-1.1,0.9-1.9,0.9c-1,0-1.8-0.4-2.4-1.2S760.3,190.3,760.3,188.8z M763,189c0,1.5,0.4,2.3,1.3,2.3c0.6,0,1-0.2,1.3-0.7
		v-3.3c-0.2-0.4-0.6-0.7-1.2-0.7c-0.8,0-1.3,0.7-1.3,2L763,189z"/>
	<path class="st0" d="M774.7,192.2c-0.6,0.7-1.3,1.1-2.3,1.1c-0.9,0-1.6-0.3-2.1-0.8s-0.7-1.3-0.7-2.3v-5.5h2.6v5.5
		c0,0.7,0.4,1.1,1.1,1.1c0.6,0,1-0.2,1.3-0.6v-5.9h2.6v8.5h-2.5L774.7,192.2z"/>
	<path class="st0" d="M782,189.4l1.4-4.8h2.8l-3.4,9.9l-0.1,0.4c-0.5,1.1-1.4,1.6-2.6,1.6c-0.3,0-0.7-0.1-1.1-0.2v-1.9h0.3
		c0.4,0,0.7-0.1,0.8-0.2c0.2-0.1,0.3-0.3,0.4-0.6l0.2-0.6l-2.9-8.5h2.8L782,189.4z M782.4,181.1h2.8l-2.2,2.5l-2.1,0L782.4,181.1z"
		/>
	<path class="st0" d="M794.3,190l-0.7,0.7v2.4H791v-12h2.6v6.4l0.3-0.4l2-2.5h3.2l-3,3.5l3.2,5h-3L794.3,190z"/>
	<path class="st0" d="M802.3,185.6c0.6-0.7,1.3-1.1,2.2-1.1c0.9,0,1.6,0.3,2.1,0.8c0.5,0.6,0.7,1.4,0.7,2.4v5.3h-2.6v-5.3
		c0-0.4-0.1-0.8-0.3-1s-0.5-0.3-0.9-0.3c-0.5,0-0.9,0.2-1.1,0.5v6.1h-2.6v-12h2.6V185.6z"/>
	<path class="st0" d="M813.5,193.1c-0.1-0.2-0.2-0.4-0.3-0.8c-0.5,0.6-1.2,0.9-2,0.9c-0.8,0-1.5-0.2-2-0.7c-0.6-0.5-0.8-1.1-0.8-1.8
		c0-0.9,0.3-1.6,1-2.1s1.7-0.7,3-0.7h0.8v-0.4c0-0.8-0.3-1.2-1-1.2c-0.6,0-0.9,0.3-0.9,0.9h-2.6c0-0.8,0.3-1.5,1-2s1.6-0.8,2.7-0.8
		s1.9,0.3,2.6,0.8c0.6,0.5,0.9,1.2,1,2.2v3.7c0,0.8,0.1,1.4,0.4,1.8v0.1H813.5z M812.5,181.1h2.8l-2.2,2.5l-2.1,0L812.5,181.1z
		 M811.8,191.4c0.3,0,0.6-0.1,0.8-0.2s0.4-0.3,0.5-0.5v-1.4h-0.8c-0.9,0-1.4,0.4-1.4,1.2c0,0.2,0.1,0.4,0.2,0.6
		S811.6,191.4,811.8,191.4z"/>
	<path class="st0" d="M820.8,191.3c0.4,0,0.7-0.1,0.9-0.3c0.2-0.2,0.3-0.5,0.3-0.8h2.5c0,0.9-0.3,1.7-1,2.3s-1.5,0.9-2.6,0.9
		c-1.2,0-2.2-0.4-2.9-1.2c-0.7-0.8-1.1-1.8-1.1-3.2v-0.1c0-0.9,0.2-1.6,0.5-2.3c0.3-0.7,0.8-1.2,1.4-1.5s1.3-0.5,2.1-0.5
		c1.1,0,2,0.3,2.6,0.9s1,1.4,1,2.5h-2.5c0-0.4-0.1-0.8-0.3-1s-0.5-0.4-0.9-0.4c-0.7,0-1.1,0.4-1.2,1.3c0,0.3-0.1,0.7-0.1,1.1
		c0,0.8,0.1,1.4,0.3,1.8S820.3,191.3,820.8,191.3z"/>
	<path class="st0" d="M828.1,185.6c0.6-0.7,1.3-1.1,2.2-1.1c0.9,0,1.6,0.3,2.1,0.8c0.5,0.6,0.7,1.4,0.7,2.4v5.3h-2.6v-5.3
		c0-0.4-0.1-0.8-0.3-1s-0.5-0.3-0.9-0.3c-0.5,0-0.9,0.2-1.1,0.5v6.1h-2.6v-12h2.6V185.6z"/>
	<path class="st0" d="M841.9,190l1.3-5.3h2.8l-2.8,8.5h-2.7l-2.8-8.5h2.8L841.9,190z"/>
	<path class="st0" d="M851.8,192.2c-0.6,0.7-1.3,1.1-2.3,1.1c-0.9,0-1.6-0.3-2.1-0.8s-0.7-1.3-0.7-2.3v-5.5h2.6v5.5
		c0,0.7,0.4,1.1,1.1,1.1c0.6,0,1-0.2,1.3-0.6v-5.9h2.6v8.5h-2.5L851.8,192.2z"/>
	<path class="st0" d="M855.8,182.5c0-0.4,0.1-0.7,0.4-0.9c0.3-0.2,0.6-0.4,1.1-0.4s0.8,0.1,1.1,0.4c0.3,0.2,0.4,0.5,0.4,0.9
		s-0.1,0.7-0.4,0.9c-0.3,0.2-0.6,0.4-1.1,0.4s-0.8-0.1-1.1-0.4C855.9,183.2,855.8,182.9,855.8,182.5z M858.6,193.1H856v-8.5h2.6
		V193.1z"/>
	<path class="st0" d="M867,193.1h-2.6v-12h2.6V193.1z"/>
	<path class="st0" d="M868.3,188.8c0-0.8,0.2-1.6,0.5-2.3c0.3-0.7,0.8-1.2,1.4-1.5c0.6-0.4,1.3-0.5,2.2-0.5c1.3,0,2.3,0.4,3,1.2
		c0.7,0.8,1.1,1.9,1.1,3.2v0.1c0,1.3-0.4,2.4-1.1,3.1s-1.7,1.2-3,1.2c-1.2,0-2.2-0.4-2.9-1.1c-0.7-0.7-1.1-1.7-1.2-2.9L868.3,188.8z
		 M873.6,183.6l-2.1,0l-2.2-2.5h2.8L873.6,183.6z M870.9,189c0,0.8,0.1,1.4,0.4,1.7c0.2,0.4,0.6,0.5,1.1,0.5c0.9,0,1.4-0.7,1.4-2.2
		v-0.3c0-1.5-0.5-2.3-1.5-2.3c-0.9,0-1.4,0.7-1.4,2L870.9,189z"/>
	<path class="st0" d="M880,184.7l0.1,1c0.6-0.8,1.4-1.1,2.4-1.1c0.9,0,1.5,0.3,2,0.8c0.4,0.5,0.7,1.3,0.7,2.4v5.4h-2.6v-5.3
		c0-0.4-0.1-0.7-0.3-0.9c-0.2-0.2-0.5-0.3-0.9-0.3c-0.5,0-0.9,0.2-1.1,0.6v6h-2.6v-8.5H880z"/>
	<path class="st0" d="M886.3,188.8c0-0.9,0.1-1.6,0.4-2.3s0.7-1.2,1.2-1.5c0.5-0.4,1.1-0.5,1.8-0.5c0.9,0,1.6,0.3,2.1,0.9l0.1-0.7
		h2.4v8.1c0,0.7-0.2,1.4-0.5,1.9c-0.3,0.5-0.8,1-1.5,1.3c-0.7,0.3-1.4,0.4-2.3,0.4c-0.6,0-1.2-0.1-1.8-0.4s-1-0.5-1.3-0.9l1.1-1.5
		c0.5,0.6,1.1,0.9,1.9,0.9c1.2,0,1.8-0.6,1.8-1.8v-0.3c-0.5,0.6-1.1,0.8-1.9,0.8c-1,0-1.9-0.4-2.5-1.2S886.3,190.3,886.3,188.8
		L886.3,188.8z M889,189c0,0.7,0.1,1.2,0.4,1.6c0.3,0.4,0.6,0.6,1.1,0.6c0.6,0,1-0.2,1.2-0.6v-3.6c-0.3-0.4-0.7-0.6-1.2-0.6
		c-0.5,0-0.8,0.2-1.1,0.6C889.1,187.6,889,188.2,889,189z"/>
	<path class="st0" d="M903.2,190l-0.7,0.7v2.4h-2.6v-12h2.6v6.4l0.3-0.4l2-2.5h3.2l-3,3.5l3.2,5h-3L903.2,190z"/>
	<path class="st0" d="M908.5,182.5c0-0.4,0.1-0.7,0.4-0.9c0.3-0.2,0.6-0.4,1.1-0.4s0.8,0.1,1.1,0.4c0.3,0.2,0.4,0.5,0.4,0.9
		s-0.1,0.7-0.4,0.9c-0.3,0.2-0.6,0.4-1.1,0.4s-0.8-0.1-1.1-0.4C908.7,183.2,908.5,182.9,908.5,182.5z M911.3,193.1h-2.6v-8.5h2.6
		V193.1z"/>
	<path class="st0" d="M917,193.3c-1.3,0-2.3-0.4-3.1-1.2s-1.2-1.8-1.2-3v-0.2c0-0.9,0.2-1.6,0.5-2.3c0.3-0.7,0.8-1.2,1.4-1.5
		c0.6-0.4,1.3-0.5,2.2-0.5c1.2,0,2.1,0.4,2.8,1.1c0.7,0.7,1,1.8,1,3.1v1h-5.2c0.1,0.5,0.3,0.8,0.6,1.1c0.3,0.3,0.7,0.4,1.2,0.4
		c0.8,0,1.5-0.3,2-0.9l1.2,1.4c-0.3,0.5-0.8,0.8-1.4,1.1S917.7,193.3,917,193.3z M919.2,183.6l-1.7,0l-1.1-0.9l-1.1,0.9l-1.7,0
		l2.2-1.7h1.3L919.2,183.6z M916.7,186.6c-0.8,0-1.2,0.5-1.4,1.5h2.7v-0.2c0-0.4-0.1-0.7-0.3-1C917.5,186.7,917.2,186.6,916.7,186.6
		z M918.5,182.6l-0.2-0.8c0.6,0,0.9-0.2,0.9-0.4c0-0.2-0.1-0.3-0.2-0.4c-0.2-0.1-0.4-0.1-0.6-0.1l0.1-0.9c0.8,0,1.4,0.1,1.8,0.3
		c0.4,0.2,0.6,0.5,0.6,0.9c0,0.2-0.1,0.5-0.3,0.6c-0.2,0.2-0.4,0.3-0.7,0.3l0,0.4H918.5z"/>
	<path class="st0" d="M924.2,184.7l0.1,1c0.6-0.8,1.4-1.1,2.4-1.1c1.1,0,1.8,0.4,2.2,1.3c0.6-0.8,1.4-1.3,2.5-1.3
		c1.7,0,2.6,1,2.6,3.1v5.5h-2.6v-5.3c0-0.4-0.1-0.7-0.2-0.9c-0.1-0.2-0.4-0.3-0.8-0.3c-0.5,0-0.9,0.2-1.2,0.7l0,0.1v5.8h-2.6v-5.3
		c0-0.4-0.1-0.8-0.2-1c-0.1-0.2-0.4-0.3-0.8-0.3c-0.5,0-0.9,0.2-1.2,0.7v5.9h-2.6v-8.5H924.2z"/>
	<path class="st0" d="M942.5,182.6v2.1h1.4v1.8h-1.4v3.9c0,0.3,0.1,0.5,0.2,0.7s0.3,0.2,0.7,0.2c0.3,0,0.5,0,0.7,0v1.9
		c-0.5,0.2-1,0.2-1.5,0.2c-0.9,0-1.6-0.2-2-0.6c-0.4-0.4-0.6-1.1-0.6-1.9v-4.2h-1.1v-1.8h1.1v-2.1H942.5z"/>
	<path class="st0" d="M950,187.1l-0.9-0.1c-0.8,0-1.4,0.3-1.6,0.8v5.4h-2.6v-8.5h2.5l0.1,1.1c0.4-0.8,1.1-1.2,1.9-1.2
		c0.3,0,0.5,0,0.7,0.1L950,187.1z"/>
	<path class="st0" d="M955.5,193.1c-0.1-0.2-0.2-0.4-0.3-0.8c-0.5,0.6-1.2,0.9-2,0.9c-0.8,0-1.5-0.2-2-0.7c-0.6-0.5-0.8-1.1-0.8-1.8
		c0-0.9,0.3-1.6,1-2.1s1.7-0.7,3-0.7h0.8v-0.4c0-0.8-0.3-1.2-1-1.2c-0.6,0-0.9,0.3-0.9,0.9h-2.6c0-0.8,0.3-1.5,1-2s1.6-0.8,2.7-0.8
		s1.9,0.3,2.6,0.8c0.6,0.5,0.9,1.2,1,2.2v3.7c0,0.8,0.1,1.4,0.4,1.8v0.1H955.5z M953.9,191.4c0.3,0,0.6-0.1,0.8-0.2s0.4-0.3,0.5-0.5
		v-1.4h-0.8c-0.9,0-1.4,0.4-1.4,1.2c0,0.2,0.1,0.4,0.2,0.6S953.6,191.4,953.9,191.4z"/>
	<path class="st0" d="M966.6,190l-0.7,0.7v2.4h-2.6v-12h2.6v6.4l0.3-0.4l2-2.5h3.2l-3,3.5l3.2,5h-3L966.6,190z"/>
	<path class="st0" d="M975.4,189.4l1.4-4.8h2.8l-3.4,9.9l-0.1,0.4c-0.5,1.1-1.4,1.6-2.6,1.6c-0.3,0-0.7-0.1-1.1-0.2v-1.9h0.3
		c0.4,0,0.7-0.1,0.8-0.2c0.2-0.1,0.3-0.3,0.4-0.6l0.2-0.6l-2.9-8.5h2.8L975.4,189.4z M978.4,181.2c0,0.6-0.2,1.1-0.5,1.5
		s-0.8,0.6-1.3,0.6c-0.3,0-0.7-0.1-1.1-0.3s-0.8-0.3-1-0.3c-0.2,0-0.3,0.1-0.4,0.2c-0.1,0.1-0.2,0.3-0.2,0.5l-1.5-0.1
		c0-0.6,0.2-1.1,0.5-1.5s0.8-0.6,1.3-0.6c0.3,0,0.6,0.1,1,0.3s0.7,0.3,0.8,0.3s0.2,0,0.4,0c0.2,0,0.3-0.1,0.4-0.2
		c0.1-0.1,0.2-0.3,0.2-0.5L978.4,181.2z"/>
	<path class="st0" d="M980.3,192c0-0.4,0.1-0.7,0.4-0.9c0.3-0.2,0.6-0.4,1-0.4s0.8,0.1,1,0.4c0.3,0.2,0.4,0.6,0.4,0.9
		c0,0.4-0.1,0.7-0.4,0.9s-0.6,0.4-1,0.4s-0.8-0.1-1-0.4S980.3,192.3,980.3,192z M982.9,189.5h-2.1l-0.3-7.8h2.8L982.9,189.5z"/>
	<path class="st0" d="M988.8,188.7c0,1.2-0.2,2.4-0.5,3.5s-0.9,2-1.5,2.8s-1.3,1.3-2.1,1.6l-0.5-1.3c0.7-0.5,1.3-1.4,1.7-2.5
		s0.6-2.4,0.6-3.9v-0.5c0-1.6-0.2-2.9-0.6-4.1c-0.4-1.2-1-2-1.7-2.5l0.5-1.3c0.7,0.3,1.4,0.8,2,1.6s1.1,1.7,1.5,2.8s0.5,2.2,0.6,3.4
		V188.7z"/>
</g>
</svg>
