<svg xmlns="http://www.w3.org/2000/svg" xmlns:xlink="http://www.w3.org/1999/xlink" viewBox="0 0 1200 500"><defs><style>.cls-1{fill:url(#radial-gradient);}.cls-2{isolation:isolate;}.cls-3{fill:#bde4eb;}.cls-4{fill:#feda8e;}.cls-5,.cls-6,.cls-7,.cls-8{fill:none;stroke:#fff;stroke-miterlimit:10;}.cls-6{stroke-dasharray:3.63 3.63;}.cls-7{stroke-dasharray:3.54 3.54;}.cls-8{stroke-dasharray:3.52 3.52;}.cls-9{fill:#1a1a1a;}.cls-10{fill:url(#åçûìßííûé_ãðàäèåíò_5);}.cls-11{fill:#f3f3f3;}.cls-12{fill:#d1d1d1;}.cls-13{fill:#313946;}.cls-14{fill:#333;}.cls-15{mask:url(#mask);}.cls-16{opacity:0.25;mix-blend-mode:multiply;fill:url(#linear-gradient);}.cls-17{fill:url(#îâûé_îáðàçåö_ãðàäèåíòà_25);}.cls-18{fill:url(#îâûé_îáðàçåö_ãðàäèåíòà_25-2);}.cls-19{fill:#fff;}.cls-20{fill:#f2f2f2;}.cls-21{fill:url(#îâûé_îáðàçåö_ãðàäèåíòà_25-3);}.cls-22{fill:url(#îâûé_îáðàçåö_ãðàäèåíòà_25-4);}.cls-23{opacity:0.03;}.cls-24,.cls-25{fill:#f6af33;}.cls-24{opacity:0.4;}.cls-25{opacity:0.5;}.cls-26{fill:#f7a491;}.cls-27{fill:#07345a;}.cls-28{fill:#b75742;}.cls-29{fill:#f47458;}.cls-30{fill:#3c8f7c;}.cls-31{fill:#fff3d9;}.cls-32{fill:#1ca0a4;}.cls-33{fill:#466eb6;}.cls-34{fill:#50bfa5;}.cls-35{fill:#f7cc7f;}.cls-36{fill:#f47257;}.cls-37{fill:#fae0b2;}.cls-38{fill:#fed333;}.cls-39{fill:#3dd83d;}.cls-40{fill:#0e3359;}</style><radialGradient id="radial-gradient" cx="1647.54" cy="1435.83" r="17.64" gradientTransform="matrix(0, -4.74, 3.14, 0, -3916.77, 8228.1)" gradientUnits="userSpaceOnUse"><stop offset="0" stop-color="#fff"/><stop offset="0.16" stop-color="#fcfcfc"/><stop offset="0.29" stop-color="#f2f2f2"/><stop offset="0.41" stop-color="#e1e1e1"/><stop offset="0.52" stop-color="#c9c9c9"/><stop offset="0.63" stop-color="#aaa"/><stop offset="0.74" stop-color="#848484"/><stop offset="0.84" stop-color="#575757"/><stop offset="0.94" stop-color="#242424"/><stop offset="1"/></radialGradient><linearGradient id="åçûìßííûé_ãðàäèåíò_5" x1="591.3" y1="273.94" x2="591.3" y2="611.35" gradientUnits="userSpaceOnUse"><stop offset="0" stop-color="#a7d63f"/><stop offset="0.07" stop-color="#9fd440"/><stop offset="1" stop-color="#39b54a"/></linearGradient><mask id="mask" x="506.99" y="402.85" width="171.85" height="33.06" maskUnits="userSpaceOnUse"><rect class="cls-1" x="585.23" y="326.83" width="17.45" height="169.75" transform="translate(181.35 1005.03) rotate(-89.91)"/></mask><linearGradient id="linear-gradient" x1="441.68" y1="-231.16" x2="441.68" y2="-200.75" gradientTransform="translate(376.06 -19.05) rotate(89.91)" gradientUnits="userSpaceOnUse"><stop offset="0" stop-color="#71756f"/><stop offset="0.03" stop-color="#828680"/><stop offset="0.1" stop-color="#a3a6a2"/><stop offset="0.18" stop-color="#c0c2bf"/><stop offset="0.27" stop-color="#d7d8d7"/><stop offset="0.37" stop-color="#e9eae9"/><stop offset="0.49" stop-color="#f6f6f6"/><stop offset="0.65" stop-color="#fdfdfd"/><stop offset="1" stop-color="#fff"/></linearGradient><linearGradient id="îâûé_îáðàçåö_ãðàäèåíòà_25" x1="591.89" y1="404.76" x2="591.89" y2="232.53" gradientUnits="userSpaceOnUse"><stop offset="0" stop-color="#ffd03f"/><stop offset="0.2" stop-color="#fdca3a"/><stop offset="0.46" stop-color="#f6b82b"/><stop offset="0.77" stop-color="#eb9c12"/><stop offset="0.9" stop-color="#e58e06"/><stop offset="1" stop-color="#df8800"/></linearGradient><linearGradient id="îâûé_îáðàçåö_ãðàäèåíòà_25-2" x1="591.89" y1="302.14" x2="591.89" y2="189.79" xlink:href="#îâûé_îáðàçåö_ãðàäèåíòà_25"/><linearGradient id="îâûé_îáðàçåö_ãðàäèåíòà_25-3" x1="591.89" y1="291.86" x2="591.89" y2="413.3" xlink:href="#îâûé_îáðàçåö_ãðàäèåíòà_25"/><linearGradient id="îâûé_îáðàçåö_ãðàäèåíòà_25-4" x1="591.89" y1="332.94" x2="591.89" y2="435.29" xlink:href="#îâûé_îáðàçåö_ãðàäèåíòà_25"/></defs><title>mail13</title><g class="cls-2"><g id="Layer_4" data-name="Layer 4"><path class="cls-3" d="M23.77,57.38H91.38s4.76-11-2.86-16.19-15.24,1.43-15.24,1.43,1.9-18.09-14.28-19S44.72,37.38,44.72,37.38s-3.81-11-12.86-6.19-3.33,12.38-3.33,12.38S20,41.19,19,48.81C18.26,54.73,23.77,57.38,23.77,57.38Z"/><path class="cls-4" d="M1189.88,434.2H7.76s7.78,20.9,58.33,26.12,62.22-15.67,120.54,0,124.43,39.19,217.76,34,159.43-41.8,241.09-31.35,202.2,39.19,365.52,31.35S1189.88,434.2,1189.88,434.2Z"/><path class="cls-3" d="M253.8,335.33H377.45s8.71-20-5.22-29.61-27.87,2.61-27.87,2.61,3.48-33.09-26.12-34.83-26.12,25.25-26.12,25.25-7-20-23.51-11.32-6.1,22.64-6.1,22.64-15.67-4.35-17.42,9.58C243.74,330.48,253.8,335.33,253.8,335.33Z"/><path class="cls-3" d="M789.78,367.32H913.43s8.71-20-5.22-29.61-27.87,2.61-27.87,2.61,3.48-33.09-26.12-34.83-26.12,25.25-26.12,25.25-7-20-23.51-11.32-6.1,22.64-6.1,22.64-15.67-4.35-17.42,9.58C779.72,362.48,789.78,367.32,789.78,367.32Z"/><line class="cls-5" x1="559.9" y1="354.43" x2="559.9" y2="356.19"/><line class="cls-6" x1="559.9" y1="359.83" x2="559.9" y2="437.93"/><polyline class="cls-5" points="559.9 439.75 559.9 441.51 561.66 441.51"/><line class="cls-7" x1="565.2" y1="441.51" x2="902.94" y2="441.51"/><polyline class="cls-5" points="904.71 441.51 906.47 441.51 906.47 439.75"/><line class="cls-8" x1="906.47" y1="436.23" x2="906.47" y2="290.03"/><line class="cls-5" x1="906.47" y1="288.27" x2="906.47" y2="286.51"/><path class="cls-9" d="M465.72,260.25H716.89a8.66,8.66,0,0,1,8.66,8.66V438.31H457.06V268.91A8.66,8.66,0,0,1,465.72,260.25Z"/><polygon class="cls-10" points="711.95 415.06 711.95 426.21 470.66 426.21 470.66 415.06 470.66 272.35 711.95 272.35 711.95 415.06"/><polygon class="cls-11" points="725.44 435.26 767.08 477.08 415.59 477.08 457.23 435.26 725.44 435.26"/><polygon class="cls-12" points="739.54 460.17 715.35 460.17 698.33 438.26 719.2 438.26 739.54 460.17"/><polygon class="cls-12" points="484.35 438.26 467.32 460.17 443.13 460.17 463.48 438.26 484.35 438.26"/><polygon class="cls-13" points="708.19 460.17 694.69 460.17 692.11 456.18 705.27 456.18 708.19 460.17"/><polygon class="cls-13" points="695.68 443.09 683.63 443.09 681.56 439.9 693.35 439.9 695.68 443.09"/><polygon class="cls-13" points="692.96 439.37 675.46 439.37 674.78 438.26 692.14 438.26 692.96 439.37"/><polygon class="cls-13" points="673.07 439.37 661.33 439.37 660.77 438.26 672.41 438.26 673.07 439.37"/><polygon class="cls-13" points="658.65 439.37 646.91 439.37 646.47 438.26 658.11 438.26 658.65 439.37"/><polygon class="cls-13" points="644.42 439.37 632.68 439.37 632.35 438.26 644 438.26 644.42 439.37"/><polygon class="cls-13" points="630 439.37 618.27 439.37 618.05 438.26 629.7 438.26 630 439.37"/><polygon class="cls-13" points="615.84 439.37 604.11 439.37 604 438.26 615.64 438.26 615.84 439.37"/><polygon class="cls-13" points="601.34 438.26 601.43 439.37 589.69 439.37 589.7 438.26 601.34 438.26"/><polygon class="cls-13" points="587.23 438.26 587.2 439.37 575.46 439.37 575.59 438.26 587.23 438.26"/><polygon class="cls-13" points="573.51 438.26 573.36 439.37 561.63 439.37 561.86 438.26 573.51 438.26"/><polygon class="cls-13" points="559.51 438.26 559.26 439.37 547.52 439.37 547.87 438.26 559.51 438.26"/><polygon class="cls-13" points="544.89 438.26 544.51 439.37 532.77 439.37 533.24 438.26 544.89 438.26"/><polygon class="cls-13" points="530.59 438.26 530.09 439.37 518.36 439.37 518.94 438.26 530.59 438.26"/><polygon class="cls-13" points="516.47 438.26 515.87 439.37 504.13 439.37 504.83 438.26 516.47 438.26"/><polygon class="cls-13" points="502.17 438.26 501.45 439.37 489.71 439.37 490.53 438.26 502.17 438.26"/><polygon class="cls-13" points="701.58 451.14 678.79 451.14 676.72 447.59 698.98 447.59 701.58 451.14"/><polygon class="cls-13" points="698.55 447 679.24 447 677.22 443.64 696.09 443.64 698.55 447"/><polygon class="cls-13" points="704.79 455.53 671.61 455.53 669.66 451.76 702.03 451.76 704.79 455.53"/><polygon class="cls-13" points="508.03 447.59 506.02 451.14 481.13 451.14 483.74 447.59 508.03 447.59"/><polygon class="cls-13" points="513.05 451.76 511.1 455.53 477.93 455.53 480.68 451.76 513.05 451.76"/><polygon class="cls-13" points="692.06 460.17 678.57 460.17 676.38 456.18 689.54 456.18 692.06 460.17"/><polygon class="cls-13" points="669.03 455.53 655.93 455.53 654.36 451.76 667.15 451.76 669.03 455.53"/><polygon class="cls-13" points="652.94 455.53 639.84 455.53 638.66 451.76 651.45 451.76 652.94 455.53"/><polygon class="cls-13" points="637.47 455.53 624.37 455.53 623.57 451.76 636.35 451.76 637.47 455.53"/><polygon class="cls-13" points="621.38 455.53 608.28 455.53 607.87 451.76 620.65 451.76 621.38 455.53"/><polygon class="cls-13" points="605.65 455.53 592.55 455.53 592.52 451.76 605.31 451.76 605.65 455.53"/><polygon class="cls-13" points="589.6 451.76 589.56 455.53 576.46 455.53 576.82 451.76 589.6 451.76"/><polygon class="cls-13" points="574.51 451.76 574.09 455.53 560.99 455.53 561.73 451.76 574.51 451.76"/><polygon class="cls-13" points="558.81 451.76 558 455.53 544.9 455.53 546.02 451.76 558.81 451.76"/><polygon class="cls-13" points="543.78 451.76 542.6 455.53 529.5 455.53 531 451.76 543.78 451.76"/><polygon class="cls-13" points="528.08 451.76 526.5 455.53 513.4 455.53 515.29 451.76 528.08 451.76"/><polygon class="cls-13" points="675.89 451.14 663.16 451.14 661.46 447.59 673.89 447.59 675.89 451.14"/><polygon class="cls-13" points="660.25 451.14 647.52 451.14 646.19 447.59 658.62 447.59 660.25 451.14"/><polygon class="cls-13" points="645.22 451.14 632.49 451.14 631.52 447.59 643.95 447.59 645.22 451.14"/><polygon class="cls-13" points="629.58 451.14 616.85 451.14 616.25 447.59 628.68 447.59 629.58 451.14"/><polygon class="cls-13" points="614.3 451.14 601.57 451.14 601.33 447.59 613.76 447.59 614.3 451.14"/><polygon class="cls-13" points="598.49 447.59 598.66 451.14 585.93 451.14 586.06 447.59 598.49 447.59"/><polygon class="cls-13" points="583.82 447.59 583.63 451.14 570.9 451.14 571.38 447.59 583.82 447.59"/><polygon class="cls-13" points="568.54 447.59 567.99 451.14 555.26 451.14 556.11 447.59 568.54 447.59"/><polygon class="cls-13" points="553.93 447.59 553.03 451.14 540.29 451.14 541.5 447.59 553.93 447.59"/><polygon class="cls-13" points="538.66 447.59 537.39 451.14 524.66 451.14 526.23 447.59 538.66 447.59"/><polygon class="cls-13" points="523.35 447.59 521.7 451.14 508.97 451.14 510.92 447.59 523.35 447.59"/><polygon class="cls-13" points="676.38 447 664 447 662.33 443.64 674.43 443.64 676.38 447"/><polygon class="cls-13" points="661.17 447 648.79 447 647.47 443.64 659.57 443.64 661.17 447"/><polygon class="cls-13" points="646.56 447 634.17 447 633.19 443.64 645.29 443.64 646.56 447"/><polygon class="cls-13" points="631.35 447 618.97 447 618.33 443.64 630.43 443.64 631.35 447"/><polygon class="cls-13" points="616.49 447 604.11 447 603.81 443.64 615.91 443.64 616.49 447"/><polygon class="cls-13" points="601.05 443.64 601.28 447 588.9 447 588.95 443.64 601.05 443.64"/><polygon class="cls-13" points="586.77 443.64 586.66 447 574.28 447 574.67 443.64 586.77 443.64"/><polygon class="cls-13" points="571.91 443.64 571.45 447 559.07 447 559.81 443.64 571.91 443.64"/><polygon class="cls-13" points="557.09 443.64 556.28 447 543.9 447 544.99 443.64 557.09 443.64"/><polygon class="cls-13" points="542.83 443.64 541.69 447 529.31 447 530.73 443.64 542.83 443.64"/><polygon class="cls-13" points="527.93 443.64 526.43 447 514.05 447 515.83 443.64 527.93 443.64"/><polygon class="cls-13" points="513.35 443.64 511.52 447 499.14 447 501.25 443.64 513.35 443.64"/><polygon class="cls-13" points="498.73 443.64 496.55 447 484.16 447 486.63 443.64 498.73 443.64"/><polygon class="cls-13" points="681.28 443.09 669.23 443.09 667.49 439.9 679.27 439.9 681.28 443.09"/><polygon class="cls-13" points="666.48 443.09 654.43 443.09 653.01 439.9 664.8 439.9 666.48 443.09"/><polygon class="cls-13" points="652.25 443.09 640.2 443.09 639.11 439.9 650.89 439.9 652.25 443.09"/><polygon class="cls-13" points="637.45 443.09 625.4 443.09 624.64 439.9 636.42 439.9 637.45 443.09"/><polygon class="cls-13" points="622.99 443.09 610.94 443.09 610.5 439.9 622.28 439.9 622.99 443.09"/><polygon class="cls-13" points="608.19 443.09 596.13 443.09 596.03 439.9 607.81 439.9 608.19 443.09"/><polygon class="cls-13" points="593.9 439.9 593.96 443.09 581.91 443.09 582.12 439.9 593.9 439.9"/><polygon class="cls-13" points="579.43 439.9 579.16 443.09 567.11 443.09 567.65 439.9 579.43 439.9"/><polygon class="cls-13" points="565.58 439.9 564.99 443.09 552.94 443.09 553.8 439.9 565.58 439.9"/><polygon class="cls-13" points="551.11 439.9 550.19 443.09 538.14 443.09 539.33 439.9 551.11 439.9"/><polygon class="cls-13" points="536.6 439.9 535.34 443.09 523.29 443.09 524.82 439.9 536.6 439.9"/><polygon class="cls-13" points="522.4 439.9 520.83 443.09 508.77 443.09 510.62 439.9 522.4 439.9"/><polygon class="cls-13" points="508.16 439.9 506.25 443.09 487.03 443.09 489.37 439.9 508.16 439.9"/><polygon class="cls-13" points="675.7 460.17 662.2 460.17 660.43 456.18 673.59 456.18 675.7 460.17"/><polygon class="cls-13" points="538.38 456.18 537.02 460.17 523.53 460.17 525.23 456.18 538.38 456.18"/><polygon class="cls-13" points="522.43 456.18 520.66 460.17 507.17 460.17 509.27 456.18 522.43 456.18"/><polygon class="cls-13" points="490.74 455.98 488.16 459.96 474.69 459.96 477.6 455.98 490.74 455.98"/><polygon class="cls-13" points="506.63 455.98 505.67 457.73 492.38 457.73 493.49 455.98 506.63 455.98"/><polygon class="cls-13" points="505.33 458.36 504.34 460.17 490.85 460.17 491.99 458.36 505.33 458.36"/><polygon class="cls-13" points="659.57 460.17 641.96 460.17 640.7 456.18 657.86 456.18 659.57 460.17"/><polygon class="cls-13" points="557.95 456.18 557.1 460.17 539.49 460.17 540.78 456.18 557.95 456.18"/><polygon class="cls-13" points="637.17 456.18 638.34 460.17 560.13 460.17 560.91 456.18 637.17 456.18"/><path class="cls-14" d="M492.76,435.26H690c.51.7.14,1.28-.84,1.28H493.59c-1,0-1.35-.58-.84-1.28Z"/><g class="cls-15"><rect class="cls-16" x="578.42" y="337.42" width="26.95" height="169.75" transform="translate(168.69 1013.55) rotate(-89.91)"/></g><polygon class="cls-17" points="676.79 296.29 676.28 358 506.99 363.27 506.99 296.29 676.79 296.29"/><path class="cls-18" d="M611.57,239.77l-15.3-13.26a6.7,6.7,0,0,0-8.77,0l-15.3,13.26L507,296.3h169.8Z"/><path class="cls-19" d="M526.33,401.08c6.78.43,13.58.62,20.37.78,24.47.57,49-.09,73.4-1.26,11.61-.55,23.24-1,34.84-1.82,4.61-.32,9.23-.72,13.82-1.28V270.74l-26-26H524.38a8.71,8.71,0,0,0-8.71,8.71v147C519.23,400.57,522.78,400.85,526.33,401.08Z"/><path class="cls-20" d="M651.45,270.74h17.31l-26-26V262A8.71,8.71,0,0,0,651.45,270.74Z"/><polygon class="cls-21" points="591.89 369.88 506.99 296.29 506.99 409.35 676.79 409.35 676.79 296.29 591.89 369.88"/><polygon class="cls-22" points="591.89 369.88 572.21 352.82 506.99 409.35 676.79 409.35 611.58 352.82 591.89 369.88"/><path class="cls-22" d="M611.57,352.82l-15.3-13.26a6.7,6.7,0,0,0-8.77,0l-15.3,13.26,19.68,17.06Z"/><polyline class="cls-23" points="612.52 352 612.26 352.23 611.58 352.82 676.79 409.35 676.79 404.02"/><polygon class="cls-24" points="612.52 352 612.26 352.23 612.52 352 612.52 352"/><polygon class="cls-23" points="506.99 404.02 506.99 409.35 572.21 352.82 571.5 352.21 571.26 352 506.99 404.02"/><polygon class="cls-25" points="571.26 352 571.5 352.21 571.26 352 571.26 352"/><circle class="cls-19" cx="596.86" cy="297.46" r="43.97"/><path class="cls-26" d="M207.65,181.14a56.78,56.78,0,0,1-1.95,7.37c-.45,1-2.45,5.06-2.45,5.06l-.93,10.91-8.17-1.1s2.77-7.86,1.83-10.23a24.7,24.7,0,0,1-1.15-6.73C195,183.1,207.65,181.14,207.65,181.14Z"/><path class="cls-26" d="M110.87,188.71a56.75,56.75,0,0,0,4.77,5.95c.84.77,4.29,3.63,4.29,3.63l5.27,9.6,7-4.31s-5.71-6.07-5.81-8.61a24.71,24.71,0,0,0-1.68-6.62C123.23,185.38,110.87,188.71,110.87,188.71Z"/><path class="cls-27" d="M171.85,221.16s-4.26-4.49-7.68,1a3.4,3.4,0,0,0-4.49,1.16s-4.77-1.43-5.92,5.69c0,0-2.45-.46-2.78,2.45a7.21,7.21,0,0,0,1.16,4.86s-1.38,1-.75,3.71a3.32,3.32,0,0,0,2.42,2.63s.51,3.84,2.17,5a5.43,5.43,0,0,0,3.93.6,2.57,2.57,0,0,0,2.54,1.9c1.94-.19,4.35-2,6.52-1.2s7.82,0,7.82,0,6.34-2.82,4.44-9.3a4.74,4.74,0,0,0,.42-6.62s2.13-5.64-2.08-9S171.85,221.16,171.85,221.16Z"/><path class="cls-26" d="M124.54,379.68s-7.34-.84-8.55-1.44-7.38,5.29-6.15,8.24c.69,1.66,2.87,1.45,2.87,1.45l1.76-1.72,9.31,1.94Z"/><path class="cls-26" d="M166.43,410.6s-3.86,6.3-4.92,7.14,1.67,8.92,4.86,9.06c1.8.08,2.53-2,2.53-2l-.81-2.32,5.7-7.62Z"/><path class="cls-27" d="M161.74,417.5a48.87,48.87,0,0,0,3.43,4,40.8,40.8,0,0,0,3.57,2.88s2.27,4.12,2.89,5.55c1.38,3.2,2.93,6.76,2.71,8.55-.07.57-1.36,1.18-2.44.85-4.48-1.38-15.93-11.85-17.38-14.67C152.84,421.38,161.74,417.5,161.74,417.5Z"/><path class="cls-28" d="M194.43,321.62c-.42-1.16-.82-2.24-1.2-3.25-4.76,1-10.15,2.18-15.68,3.36L176.87,342c0-1.57,4.16,32.36,4.16,32.36s-11.31,22.46-18.66,36.34c3,3.77,5.34,5.42,9.71,8,11.42-13.69,26-37.82,26.64-42C199.08,374.33,199.4,335.59,194.43,321.62Z"/><path class="cls-29" d="M151.91,327.49c1.3,14.07,3.44,35.36,3.83,42.52-9.09,1.31-30.58,7.77-34.58,7.77-1.52,3.4-2.36,7.52-1.3,10.91.21.67,42.38,2,53.27-4.93,2.84-1.81,3.71-21.24,3.76-41.73l.67-20.29C168.33,323.7,159.85,325.63,151.91,327.49Z"/><path class="cls-19" d="M182.2,255.42,171.85,257s-7.8.12-9.88.14c-.18,0-8.3,39.61-10.27,54.51s-.44,17.54-.44,17.54,13.77,3.1,23.95,2.19c10.59-.94,22.5-6.66,22.5-6.66s-12.27-28-14.07-36.93S182.2,255.42,182.2,255.42Z"/><path class="cls-30" d="M203.47,200.16s-.91,36.69-2,38.95l-13.2,26.71s8.71,36.44,12.37,49c.37,1.27,2,9.45,2,10.25,0,1.77-7.7,4-8.62,3.88s-7.54-34.79-11.83-51.75a48.52,48.52,0,0,0-7.36-16l-3-4.24,17.69-21.41s3.83-33.88,3.83-36C193.35,199,202.36,198.07,203.47,200.16Z"/><path class="cls-30" d="M162,257.12,144.24,230.4s-11.5-28.08-11.78-29.11-9.32.15-12.18-.13c-.92-.09,12,29.48,13.41,34.4,1.62,5.82,10.26,28.6,10.26,28.6s6,13.64,5,24.18c-1.55,17.5-4.62,42.73-3.87,43.48,4.64,2.92,19.25,2.82,20.37,1C177.95,312.76,162,257.12,162,257.12Z"/><path class="cls-26" d="M171.13,251.63l.77,5.72s1.73,8.24-.49,9.82S162,257.12,162,257.12l.76-14.49Z"/><path class="cls-29" d="M162.48,247.32a16.43,16.43,0,0,0,9.3,9.16l-.65-4.85-8.4-9Z"/><ellipse class="cls-27" cx="153.71" cy="232.79" rx="2.8" ry="3.99"/><ellipse class="cls-27" cx="162.72" cy="224.2" rx="3.41" ry="2.3"/><path class="cls-26" d="M167.86,227.41a7.64,7.64,0,0,1,10,6.09,57.77,57.77,0,0,1,.62,7.33c.12,6.68-3.34,13.18-6.37,13.18s-11.41-4.32-11.71-13.8C160.21,234.36,163.13,229,167.86,227.41Z"/><ellipse class="cls-26" cx="160.45" cy="240.96" rx="2.18" ry="2.67"/><path class="cls-27" d="M181,224.09c3.13,2.48,4.23,6.25,2.45,8.42s-5.76,1.92-8.89-.56-4.23-6.25-2.45-8.42S177.86,221.61,181,224.09Z"/><ellipse class="cls-27" cx="169.9" cy="226.12" rx="2.91" ry="1.95"/><ellipse class="cls-27" cx="178.97" cy="234.42" rx="2.48" ry="2.51"/><path class="cls-27" d="M116.31,378.35a48.84,48.84,0,0,0-2.13,4.78,40.78,40.78,0,0,0-1.1,4.45s-2.77,3.8-3.81,5c-2.31,2.6-5.15,5.68-6.86,6.24-.55.18-2.12-.29-2.1-1.5.06-4.69,4.56-20,6.49-22.46C109,371.93,116.31,378.35,116.31,378.35Z"/><path class="cls-29" d="M112.68,190.94a9.27,9.27,0,0,0,4.74,2.8c2.59.37,4.86-2.31,4.86-2.31Z"/><path class="cls-29" d="M195.56,186.38l1.78,2.73s6.51.4,8.5-4.31Z"/><path class="cls-31" d="M197.8,187.5a124.49,124.49,0,0,0-77.37,4.67,7.62,7.62,0,0,1-9.8-3.9l-14-32.34c-1.67-3.76,1.16-8.8,6.43-10.88a171,171,0,0,1,106.28-6.41c5.49,1.43,8.9,6.1,7.7,10l-10,33.79A7.62,7.62,0,0,1,197.8,187.5Z"/><path class="cls-26" d="M120.91,193.12a6.93,6.93,0,0,0,2.12-4.46c0-.34-.9-3.35.25-3.56,1.93-.34,2.51,6.84,2.51,6.84A25.78,25.78,0,0,1,120.91,193.12Z"/><path class="cls-26" d="M113.2,191.31c1.34,0,2.74-.19,2.86-.67s-.51-.77-1.26-.9c.54-.08.94-.23,1-.47.14-.53-.53-.81-1.31-1,.38-.07.64-.2.7-.39.36-1.17-3.36-1.43-3.36-1.43s-2-.34-2.23.44a1.54,1.54,0,0,0,.43.85.91.91,0,0,1,.37,1.13l0,.08a.24.24,0,0,0,.11.23c.34.29.24,1.39.23,1.45a1.1,1.1,0,0,0,.4.68c1.12,1.07,7.79,6.53,8.93,6.94,1.37.5.23-3.64.23-3.64S113.53,192.5,113.2,191.31Z"/><path class="cls-26" d="M200.26,189.24a6.93,6.93,0,0,1-3.75-3.22c-.15-.3-.53-3.43-1.67-3.15-1.9.47.47,7.27.47,7.27A25.8,25.8,0,0,0,200.26,189.24Z"/><path class="cls-26" d="M206.58,184.46c-1.22.56-2.58.94-2.88.54s.15-.91.79-1.34c-.53.15-.95.17-1.11,0-.34-.43.16-1,.81-1.41-.37.09-.66.08-.79-.07-.8-.93,2.5-2.67,2.5-2.67s1.73-1.14,2.22-.5a1.55,1.55,0,0,1,0,.95c-.27.37.12.83.13.86a1.15,1.15,0,0,1,0,.64c-.2.4.35,1.37.38,1.42a1.1,1.1,0,0,1-.09.78c-.59,1.43-4.48,9.12-5.35,10-1.05,1-1.69-3.24-1.69-3.24S206.76,185.69,206.58,184.46Z"/><path class="cls-32" d="M111.52,173.13l0-.73a3,3,0,0,0,1.2-.61,1.44,1.44,0,0,0,.35-.85,10.06,10.06,0,0,0,0-1.64l-.86-12.83A10.59,10.59,0,0,0,112,155a1.87,1.87,0,0,0-.29-.71,1.26,1.26,0,0,0-.48-.39,5,5,0,0,0-1-.28l0-.73,8.11-.54a11.72,11.72,0,0,1,3.82.25,4.24,4.24,0,0,1,2.23,1.35,4.32,4.32,0,0,1,.87,2.5,4.65,4.65,0,0,1-1.54,3.93,9.24,9.24,0,0,1-2,1.29v.13a6.11,6.11,0,0,1,3.18,1.67,4.63,4.63,0,0,1,1.24,2.95,5.61,5.61,0,0,1-.68,3.35,5,5,0,0,1-2.39,2,11.84,11.84,0,0,1-3.88.83Zm6.36-11.64a5,5,0,0,0,3.38-1.32,4.08,4.08,0,0,0,1-3.25,3.83,3.83,0,0,0-.45-1.68,2.76,2.76,0,0,0-1-1,3.86,3.86,0,0,0-1.42-.48,8.37,8.37,0,0,0-1.75-.05l-1.48.13-1.38.15.51,7.68Zm-1.94,9.93q1.09,0,2.42-.06a7.5,7.5,0,0,0,3-.69,3.13,3.13,0,0,0,1.46-1.55,5.31,5.31,0,0,0,.32-2.43,4.8,4.8,0,0,0-.68-2.34,3.23,3.23,0,0,0-1.72-1.29,8.06,8.06,0,0,0-3.06-.26l-2.3.15Z"/><path class="cls-32" d="M129.68,171.19a4.89,4.89,0,0,0,.8-.37,1.24,1.24,0,0,0,.39-.4,1.9,1.9,0,0,0,.22-.74,8.72,8.72,0,0,0,0-1.53l-.43-6.47q-.06-.95-.13-1.53a2.33,2.33,0,0,0-.27-.91,1.13,1.13,0,0,0-.58-.48,4.33,4.33,0,0,0-1-.22l-.05-.79,3.45-.36.9-.06.71,10.6a8.86,8.86,0,0,0,.24,1.76,1.3,1.3,0,0,0,.5.73,3.07,3.07,0,0,0,1.12.38l0,.73-5.81.39Zm3-19.55.19,2.88-2.73.18-.19-2.88Z"/><path class="cls-32" d="M141.35,159.24h.06a14.47,14.47,0,0,1,1.72-1.76,5.83,5.83,0,0,1,1.29-.79,4.17,4.17,0,0,1,1.4-.33,5.05,5.05,0,0,1,1.47.1,3.25,3.25,0,0,1,1.16.51,3.13,3.13,0,0,1,.85.91,4.77,4.77,0,0,1,.54,1.33,11.32,11.32,0,0,1,.28,2l.37,5.59a9.06,9.06,0,0,0,.23,1.75,1.38,1.38,0,0,0,.45.7,3.09,3.09,0,0,0,1.2.42l0,.73-5.84.39,0-.73a5.24,5.24,0,0,0,.81-.37,1.22,1.22,0,0,0,.4-.4,1.91,1.91,0,0,0,.22-.75,8.62,8.62,0,0,0,0-1.51l-.26-3.89a17.22,17.22,0,0,0-.4-3,2.7,2.7,0,0,0-.89-1.51,2.39,2.39,0,0,0-1.67-.41,2.65,2.65,0,0,0-1.05.28,4.66,4.66,0,0,0-1,.81,4.21,4.21,0,0,0-.87,1.16,2.41,2.41,0,0,0-.24,1.22l.38,5.68a13.73,13.73,0,0,0,.15,1.44,2.14,2.14,0,0,0,.25.71,1.19,1.19,0,0,0,.48.44,3.63,3.63,0,0,0,1,.29l0,.73-5.87.39,0-.73a4.26,4.26,0,0,0,.91-.4,1.22,1.22,0,0,0,.41-.44,2,2,0,0,0,.18-.74,10.83,10.83,0,0,0,0-1.5l-.83-12.41q-.1-1.42-.15-2a4.92,4.92,0,0,0-.18-.95,1.68,1.68,0,0,0-.31-.6,1.21,1.21,0,0,0-.48-.33,4.84,4.84,0,0,0-1.06-.2l-.05-.77,3.56-.39.89-.06Z"/><path class="cls-32" d="M163.36,167.54l-.23,0a9.07,9.07,0,0,1-2.3,2,5.48,5.48,0,0,1-2.37.71,4.33,4.33,0,0,1-2-.3,3.12,3.12,0,0,1-1.4-1.14,3.59,3.59,0,0,1-.58-1.8,3.67,3.67,0,0,1,1.92-3.49,15.21,15.21,0,0,1,6.34-1.8l-.06-1a8,8,0,0,0-.46-2.41,2.4,2.4,0,0,0-1-1.24,3.1,3.1,0,0,0-1.73-.3,2.76,2.76,0,0,0-1.82.73,3.73,3.73,0,0,0-.94,1.89l-1.94.13-.13-1.93a21.2,21.2,0,0,1,2.3-1.25,13.75,13.75,0,0,1,1.86-.68,9.35,9.35,0,0,1,1.91-.33,5.1,5.1,0,0,1,2.39.31A3,3,0,0,1,164.5,157a7.28,7.28,0,0,1,.64,2.88l.34,5.16q.07,1.1.12,1.55a5.36,5.36,0,0,0,.14.83,1.74,1.74,0,0,0,.26.6,1.22,1.22,0,0,0,.46.36,4.45,4.45,0,0,0,1,.28l0,.73-4.06.27Zm-.56-4.62a10.46,10.46,0,0,0-4.45,1.1,2.49,2.49,0,0,0-1.34,2.43,2.3,2.3,0,0,0,.43,1.31,1.76,1.76,0,0,0,.91.62,3.66,3.66,0,0,0,1.24.1,3.52,3.52,0,0,0,1.8-.61,3.66,3.66,0,0,0,1.2-1.33,2.88,2.88,0,0,0,.36-1.53Z"/><path class="cls-32" d="M173,157.08l.21,0a18.18,18.18,0,0,1,1.37-1.44,6.84,6.84,0,0,1,1.06-.8,4.81,4.81,0,0,1,1-.46,3.89,3.89,0,0,1,.95-.18,4,4,0,0,1,2.46.52,3.56,3.56,0,0,1,1.43,2,19.69,19.69,0,0,1,1.69-1.78,5.91,5.91,0,0,1,1.35-.92,4.12,4.12,0,0,1,1.53-.39,4.59,4.59,0,0,1,1.73.17,3,3,0,0,1,1.28.81,3.8,3.8,0,0,1,.83,1.46,10.29,10.29,0,0,1,.39,2.42l.37,5.59a10.8,10.8,0,0,0,.18,1.55,2,2,0,0,0,.26.65,1.2,1.2,0,0,0,.45.38,3.94,3.94,0,0,0,1,.29l0,.73-5.83.39,0-.73a5.24,5.24,0,0,0,.81-.37,1.22,1.22,0,0,0,.4-.4,1.91,1.91,0,0,0,.22-.75,8.61,8.61,0,0,0,0-1.51l-.26-3.89q-.08-1.26-.21-2.08a7,7,0,0,0-.3-1.3,2.31,2.31,0,0,0-.88-1.21,1.93,1.93,0,0,0-.62-.29,2.84,2.84,0,0,0-.91-.06,2.6,2.6,0,0,0-1.09.31,4.42,4.42,0,0,0-1.06.88,3.82,3.82,0,0,0-.79,1.19,3.15,3.15,0,0,0-.18,1.36l.36,5.41a10.8,10.8,0,0,0,.18,1.55,2,2,0,0,0,.26.65,1.2,1.2,0,0,0,.45.38,4,4,0,0,0,1,.29l0,.73-5.83.39,0-.73a5.27,5.27,0,0,0,.81-.37,1.22,1.22,0,0,0,.4-.4,1.92,1.92,0,0,0,.22-.75,8.62,8.62,0,0,0,0-1.51l-.26-3.89q-.09-1.32-.22-2.15a6.75,6.75,0,0,0-.32-1.32,2.52,2.52,0,0,0-.46-.79,2.11,2.11,0,0,0-.53-.44,1.91,1.91,0,0,0-.61-.2,3.33,3.33,0,0,0-.78,0,2.47,2.47,0,0,0-1.12.35,5,5,0,0,0-1,.87,3.87,3.87,0,0,0-.77,1.14,2.69,2.69,0,0,0-.2,1.24l.37,5.56q.06.85.13,1.29a2.8,2.8,0,0,0,.19.69,1.21,1.21,0,0,0,.27.39,1.58,1.58,0,0,0,.44.27,4.44,4.44,0,0,0,.84.23l0,.73-5.81.39,0-.73a5,5,0,0,0,.79-.37,1.31,1.31,0,0,0,.4-.4,1.75,1.75,0,0,0,.22-.74,9.44,9.44,0,0,0,0-1.53l-.43-6.47q-.06-.95-.13-1.53a2.33,2.33,0,0,0-.27-.91,1.13,1.13,0,0,0-.58-.48,4.33,4.33,0,0,0-1-.22l-.05-.79,3.46-.37.9-.06Z"/><path class="cls-32" d="M203.46,164.86l-.23,0a9.07,9.07,0,0,1-2.3,2,5.48,5.48,0,0,1-2.37.71,4.33,4.33,0,0,1-2-.3,3.12,3.12,0,0,1-1.4-1.14,3.59,3.59,0,0,1-.58-1.8,3.67,3.67,0,0,1,1.92-3.49,15.21,15.21,0,0,1,6.34-1.8l-.06-1a8,8,0,0,0-.46-2.41,2.4,2.4,0,0,0-1-1.24,3.1,3.1,0,0,0-1.73-.3,2.76,2.76,0,0,0-1.82.73,3.73,3.73,0,0,0-.94,1.89l-1.94.13-.13-1.93a21.2,21.2,0,0,1,2.3-1.25,13.75,13.75,0,0,1,1.86-.68,9.35,9.35,0,0,1,1.91-.33,5.1,5.1,0,0,1,2.39.31,3,3,0,0,1,1.43,1.34,7.28,7.28,0,0,1,.64,2.88l.34,5.16q.07,1.1.12,1.55a5.36,5.36,0,0,0,.14.83,1.74,1.74,0,0,0,.26.6,1.22,1.22,0,0,0,.46.36,4.45,4.45,0,0,0,1,.28l0,.73-4.06.27Zm-.56-4.62a10.46,10.46,0,0,0-4.45,1.1,2.49,2.49,0,0,0-1.34,2.43,2.3,2.3,0,0,0,.43,1.31,1.76,1.76,0,0,0,.91.62,3.66,3.66,0,0,0,1.24.1,3.52,3.52,0,0,0,1.8-.61,3.66,3.66,0,0,0,1.2-1.33,2.88,2.88,0,0,0,.36-1.53Z"/><path class="cls-26" d="M1047.59,426.13a81.93,81.93,0,0,0,8.87,10.94c.27.25,2.07.83,2.36,1.09,2.52,8-.72,14.77-4.21,20.11-.58-4.33-1-10.24-1.66-11A87.36,87.36,0,0,0,1041,435C1044.83,432.82,1045.29,429.88,1047.59,426.13Z"/><path class="cls-33" d="M1056.67,437.21c2.86.17,8.26,2,8.23,2.53s-3.1,24.23-6.82,26.3c-2.24,1.25-2.65-2.42-3.47-7.76C1058.1,452.94,1058.26,438.57,1056.67,437.21Z"/><path class="cls-26" d="M1106.77,415.12a107.71,107.71,0,0,0,12.62,6.51c.35.12,2.23-.13,2.6,0,5.69,6.15,5.64,13.68,4.76,20-2.37-3.67-5.26-8.85-6.17-9.23a115.71,115.71,0,0,0-15.95-5.35C1107.2,423.43,1106.28,419.49,1106.77,415.12Z"/><path class="cls-26" d="M1041.43,256.6s-9-17-10.36-23.07-6-36.72-5.57-38.69,7.71-6.72,6.8-8.4-7.87-1.68-9.47-1.54a14.44,14.44,0,0,0-6.18,2.21c-1.37,1.13,1.54,37.85,2.41,45.75s14.11,33.8,14.11,33.8Z"/><path class="cls-26" d="M1082,281.15s18.4,29.46,21.61,35.25,15.19,20.54,15.79,21.25,13.27.07,12.91,1.54-6.18,0-6.29,1.74,10,12.67,9,13.11c-1.9.83-6.45-6.47-7.26-5.91s5.45,7.17,4.43,8.59-5.35-6.82-6.16-6.72,3,8.28,1.27,8.36c-1,0-3.25-7.36-4.17-6.71s0,6.58-1.15,6.53-.07-5.06-1.78-7.71-1.59-5.43-5.53-8.84-19.17-13.82-24.7-23-17.78-29.48-17.78-29.48Z"/><path class="cls-30" d="M1038,325l32,10.29s-17.58,29.89-21.05,35.85-18.44,20.67-18.46,24.52c0,2.72,14.09,20.79,22.59,31.81-1.92,3.57-7.17,8.17-10.49,10.2-14.16-13.42-34.81-34.58-35.19-41.52C1006.83,386,1038,325,1038,325Z"/><path class="cls-33" d="M1119.66,421.66c2.66-1.06,8.28-1.74,8.5-1.22s7.52,23.24,5,26.7c-1.49,2.08-3.43-1.06-6.44-5.54C1127.62,435.29,1121.43,421.82,1119.66,421.66Z"/><path class="cls-34" d="M1044.59,343.42c-.41-2-3-7.75-4.4-12.35a25.24,25.24,0,0,1-.61-11.75h0l23.5-1.09.9,1.75a14.16,14.16,0,0,0,4,4.83c3.52,2.66,9.7,8.5,9.51,16.63-.26,11.34-8.33,52.91-5.65,54.47,4.84,2.81,25,12.64,37.11,18.69-.17,4.4-1.4,10.66-3.69,14.44-9.55-3.66-43.17-18.54-49.42-22.18C1053.06,405.18,1045.29,346.76,1044.59,343.42Z"/><path class="cls-29" d="M1101.38,211.15c-1.86,4.92,1.08,8.6,3.13,13.45,1.38,3.26-1.66,8.43-5.09,10.81-8.69,6-10.73,6.19-10.1,14.38,1.51,19.73-22.08,11.32-25.87,10.69s-6.66-.46-8.47-1.71c-5.46-3.78-10.59-15.14-9.63-24.71s12.35-6.28,15-10.67-5.27-9.86,1.44-17.2c19.27-21.07,39.39-6.94,40.1,1.12A8.57,8.57,0,0,1,1101.38,211.15Z"/><path class="cls-35" d="M1035.18,280.85s-6.56-15.58-7.61-18.17c0,0,9.16-8.16,14.62-7.52,0,0,7.08,11.13,11.26,11.53s18.87,1,21.44,2.56,13.5,18,13.5,18-9.82,9.84-13.77,9.82c0,0-2.68-6.64-3.6-5.43s-4.55,27-6.38,29-22.27,8.76-28.21,7.48c0,0-3.2-24.85-3-40.14C1033.44,285.62,1035.18,280.85,1035.18,280.85Z"/><path class="cls-26" d="M1063.83,259.38s-2.32,7.66-2.33,10.77-2.5,12.9-9,12.26.07-12.76,1-15.72,2-12.3,2-12.3Z"/><path class="cls-29" d="M1054.88,259.07c.37-2.55.62-4.68.62-4.68l8.33,5s-.47,1.57-1,3.57C1058.92,263.32,1056.29,261.62,1054.88,259.07Z"/><path class="cls-26" d="M1069.25,238.13a10.9,10.9,0,0,1,4,6.4c.81,4.18-1.67,14.5-10.64,16.13s-11.89-7.05-9.43-13.34S1060.39,233.23,1069.25,238.13Z"/><ellipse class="cls-26" cx="1054.2" cy="244.7" rx="3.18" ry="1.85" transform="translate(804.03 1297.62) rotate(-89.7)"/><ellipse class="cls-26" cx="1071.08" cy="254.89" rx="3.34" ry="2.26" transform="translate(189.21 914.06) rotate(-50.16)"/><path class="cls-36" d="M1026,186.51a4,4,0,0,1,.54.41l1,.9h0c-.92.22-2.45,0-3.88,1.12C1023.68,188.94,1024,187.77,1026,186.51Z"/><path class="cls-29" d="M1005.34,145c.56.67,16.15,2.4,16.15,2.4l-.3-.8s-8.61-11.54-10.77-12C1008.64,134.32,1003.82,143.24,1005.34,145Zm1.63-1.48a17.65,17.65,0,0,1,3.38-6.74c1.4,1.13,7.88,6.43,10.72,10.07C1016.53,146.33,1008.76,143.92,1007,143.55Z"/><path class="cls-29" d="M1022.87,146.56l.53,1.13s14.56-6,16-9.11-3.26-9-4.53-9.51-3.06-1.32-6.42,3.24S1022.87,146.56,1022.87,146.56Zm.71,0a58.6,58.6,0,0,1,6.44-13.15c2-2.67,3-2.88,3.28-2.88a2.21,2.21,0,0,1,.79.24c1.23.82,4.36,5.43,3.63,7C1037,139,1029.44,144,1023.58,146.58Z"/><rect class="cls-29" x="1020.78" y="145.09" width="3.21" height="4.56" rx="1.25" ry="1.25"/><path class="cls-35" d="M998.79,187.82h44.29a4.54,4.54,0,0,0,4.53-4.25l2.32-35.57H992.26l2.42,37C994.78,186.6,996.59,187.82,998.79,187.82Z"/><path class="cls-37" d="M989.87,155.76l62.61.12.67-4a4,4,0,0,0-3.91-4.6l-56.65.16c-2,0-3.59,1.25-3.41,2.69Z"/><rect class="cls-29" x="1021.25" y="147.31" width="1.19" height="8.53"/><rect class="cls-29" x="1019.75" y="155.8" width="1.49" height="32.08"/><path class="cls-26" d="M1027,190.08l.56-2.24a13,13,0,0,0,4-.64l1.56-.68a1,1,0,0,1,1.28.52h0a1,1,0,0,1-.29,1.12s-4.22,3.47-5.7,4.53c-.73.52-3,1.93-3,1.93L1024,192.1Z"/><circle class="cls-31" cx="293.95" cy="195.15" r="32.84" transform="matrix(0.69, -0.72, 0.72, 0.69, -50.37, 272.21)"/><path class="cls-38" d="M316,198.91l-14,4.3-4.38,13.95a1.42,1.42,0,0,1-2.53.39l-8.4-12-14.62.14a1.42,1.42,0,0,1-1.15-2.28l8.78-11.69L275,177.89a1.43,1.43,0,0,1,1.81-1.8l13.83,4.74,11.75-8.71a1.42,1.42,0,0,1,2.27,1.17l-.23,14.62,11.91,8.48A1.43,1.43,0,0,1,316,198.91Z"/><path class="cls-33" d="M821.89,221.83l9.52,1.88s13.91-6.5,15-9.63.57-10.35,2.61-10.8a6.29,6.29,0,0,1,7.67,4.51c1.13,3.48-2.8,14.42-1.85,15.41.59.62,6,1.86,10,2.7a7.18,7.18,0,0,1,5.43,5.16h0a4,4,0,0,1-1.93,4.52l-2.5,1.34,1.18,2.61a4,4,0,0,1-1.88,5.17l-1.95.94.86,1.57a4,4,0,0,1-1.89,5.5l-1.71.74.13.47a4,4,0,0,1-2.31,4.74l-1.71.68-25.35-5a17.49,17.49,0,0,1-6.62-2.82L816,248.26a2,2,0,0,1-1.24-2.32l4.81-22.52A2,2,0,0,1,821.89,221.83Z"/><polygon class="cls-39" points="588.55 317.52 560.17 286.66 548.69 297.22 577.07 328.08 587.41 339.32 587.63 339.56 655.03 277.57 644.48 266.09 588.55 317.52"/><path class="cls-40" d="M363.55,88.7V68.79h7.15a10.13,10.13,0,0,1,5.84,1.41,4.69,4.69,0,0,1,2,4.09,4.74,4.74,0,0,1-.71,2.64,4.14,4.14,0,0,1-2.09,1.61,4.2,4.2,0,0,1,2.39,1.53A4.45,4.45,0,0,1,379,82.8a5.27,5.27,0,0,1-1.85,4.4,8.82,8.82,0,0,1-5.49,1.5Zm4.8-11.61h2.5a3.55,3.55,0,0,0,2.24-.58,2,2,0,0,0,.67-1.66A2.14,2.14,0,0,0,373,73a3.88,3.88,0,0,0-2.34-.56h-2.35Zm0,3.14V85h3.14a3,3,0,0,0,2-.59,2.08,2.08,0,0,0,.7-1.67,2.21,2.21,0,0,0-2.47-2.5Z"/><path class="cls-40" d="M389.74,88.7a5.22,5.22,0,0,1-.44-1.33,4.28,4.28,0,0,1-3.55,1.6,5.25,5.25,0,0,1-3.55-1.26,4,4,0,0,1-1.46-3.18,4.14,4.14,0,0,1,1.78-3.64,9.05,9.05,0,0,1,5.17-1.23h1.42v-.78q0-2-1.76-2a1.44,1.44,0,0,0-1.64,1.62h-4.61A4.13,4.13,0,0,1,382.91,75a7.67,7.67,0,0,1,4.66-1.34A6.72,6.72,0,0,1,392,75a4.8,4.8,0,0,1,1.68,3.79v6.55a6.7,6.7,0,0,0,.63,3.12v.23Zm-5.85,2.84a1.78,1.78,0,0,1,.73-1.46,3.19,3.19,0,0,1,3.65,0,1.83,1.83,0,0,1,0,2.93,3.19,3.19,0,0,1-3.65,0A1.78,1.78,0,0,1,383.88,91.54Zm3-5.85a2.57,2.57,0,0,0,1.43-.37,2.32,2.32,0,0,0,.81-.83V82.12h-1.34q-2.41,0-2.41,2.16a1.32,1.32,0,0,0,.42,1A1.53,1.53,0,0,0,386.85,85.69Z"/><path class="cls-40" d="M400.5,73.9l.15,1.74a5,5,0,0,1,4.22-2A4.22,4.22,0,0,1,408.32,75a6.58,6.58,0,0,1,1.18,4.16V88.7h-4.62V79.36a2.5,2.5,0,0,0-.45-1.65,2.09,2.09,0,0,0-1.64-.53,2.2,2.2,0,0,0-2,1.07V88.7h-4.61V73.9Z"/><path class="cls-40" d="M434.07,72.08h-1.91V88.7H428l-.23-1.59A4.36,4.36,0,0,1,424.18,89a5,5,0,0,1-4.18-2,9.32,9.32,0,0,1-1.54-5.76A9,9,0,0,1,420,75.65a5,5,0,0,1,4.24-2,4.25,4.25,0,0,1,3.34,1.56v-3.1h-3.45V69.47h3.45V67.7h4.62v1.78h1.91Zm-11,9.39q0,3.94,2.3,3.94a2.27,2.27,0,0,0,2.19-1.29V78.5a2.21,2.21,0,0,0-2.16-1.31q-2.13,0-2.31,3.45Z"/><path class="cls-40" d="M445.42,88.7a5.22,5.22,0,0,1-.44-1.33,4.28,4.28,0,0,1-3.55,1.6,5.25,5.25,0,0,1-3.55-1.26,4,4,0,0,1-1.46-3.18,4.14,4.14,0,0,1,1.78-3.64,9.05,9.05,0,0,1,5.17-1.23h1.42v-.78q0-2-1.76-2a1.44,1.44,0,0,0-1.64,1.62h-4.61A4.13,4.13,0,0,1,438.59,75a7.67,7.67,0,0,1,4.66-1.34A6.72,6.72,0,0,1,447.72,75a4.8,4.8,0,0,1,1.68,3.79v6.55a6.7,6.7,0,0,0,.63,3.12v.23Zm2.75-21a3.78,3.78,0,0,1-1.38,3,6.4,6.4,0,0,1-7.36,0,3.78,3.78,0,0,1-1.38-3h3.13a1.63,1.63,0,0,0,.51,1.28,2.42,2.42,0,0,0,2.82,0,1.64,1.64,0,0,0,.5-1.29Zm-5.63,18a2.57,2.57,0,0,0,1.43-.37,2.32,2.32,0,0,0,.81-.83V82.12h-1.34q-2.41,0-2.41,2.16a1.32,1.32,0,0,0,.42,1A1.53,1.53,0,0,0,442.54,85.69Z"/><path class="cls-40" d="M456.18,73.9l.15,1.74a5,5,0,0,1,4.22-2A4.22,4.22,0,0,1,464,75a6.58,6.58,0,0,1,1.18,4.16V88.7h-4.62V79.36a2.5,2.5,0,0,0-.45-1.65,2.09,2.09,0,0,0-1.64-.53,2.2,2.2,0,0,0-2,1.07V88.7h-4.61V73.9Z"/><path class="cls-40" d="M467.2,81.19a10,10,0,0,1,.74-4,5.94,5.94,0,0,1,2.12-2.66,5.59,5.59,0,0,1,3.21-.94,4.44,4.44,0,0,1,3.61,1.56L477,73.9h4.18V88.13a6.23,6.23,0,0,1-.91,3.4,5.83,5.83,0,0,1-2.63,2.21,9.68,9.68,0,0,1-4,.77,8.35,8.35,0,0,1-3.15-.62,5.69,5.69,0,0,1-2.33-1.6l1.93-2.71a4.22,4.22,0,0,0,3.39,1.52q3.06,0,3.06-3.14v-.46A4.33,4.33,0,0,1,473.24,89a5.35,5.35,0,0,1-4.37-2.07,8.58,8.58,0,0,1-1.67-5.54Zm4.62.29a5.26,5.26,0,0,0,.68,2.88,2.16,2.16,0,0,0,1.91,1.06,2.45,2.45,0,0,0,2.17-1V78.2a2.38,2.38,0,0,0-2.15-1,2.17,2.17,0,0,0-1.93,1.1A6,6,0,0,0,471.82,81.48Z"/><path class="cls-40" d="M496.76,83.19l-1.3,1.3V88.7h-4.61v-21h4.61V78.84l.46-.62,3.47-4.32h5.52L499.74,80l5.52,8.71H500Z"/><path class="cls-40" d="M512,82.24l2.46-8.34h4.94l-6,17.27-.26.63a4.58,4.58,0,0,1-4.54,2.87,7.22,7.22,0,0,1-1.9-.27V91.12h.6a3.16,3.16,0,0,0,1.48-.28,1.7,1.7,0,0,0,.76-1l.37-1L504.78,73.9h4.92Zm.6-14.55h4.87L513.71,72H510Z"/><path class="cls-40" d="M533,70.22V73.9h2.43v3.2H533v6.77a1.73,1.73,0,0,0,.3,1.16,1.61,1.61,0,0,0,1.19.33,6.75,6.75,0,0,0,1.15-.08v3.29a8.49,8.49,0,0,1-2.6.4,4.83,4.83,0,0,1-3.51-1.12,4.59,4.59,0,0,1-1.13-3.4V77.1h-1.89V73.9h1.89V70.22Z"/><path class="cls-40" d="M546.17,78.07,544.65,78q-2.17,0-2.79,1.37V88.7h-4.61V73.9h4.32l.15,1.9A3.57,3.57,0,0,1,545,73.63a4.49,4.49,0,0,1,1.29.16Z"/><path class="cls-40" d="M547,81.16a8.73,8.73,0,0,1,.86-3.94,6.17,6.17,0,0,1,2.47-2.66,7.44,7.44,0,0,1,3.79-.93,6.77,6.77,0,0,1,5.26,2.08q.85-.79.85-3.1h2.52q0,3.56-2.26,4.77a9.7,9.7,0,0,1,.78,4.07,7.66,7.66,0,0,1-1.92,5.49,6.82,6.82,0,0,1-5.2,2A6.89,6.89,0,0,1,549,87.08,7.42,7.42,0,0,1,547,81.94Zm4.61.29a5.5,5.5,0,0,0,.64,3,2.14,2.14,0,0,0,1.9,1q2.46,0,2.52-3.79v-.46q0-4-2.54-4-2.31,0-2.5,3.43Zm.78-10.09-.3-1.72q1.87-.08,1.87-.86t-1.85-.9l.1-2a10.1,10.1,0,0,1,4.29.71,2.19,2.19,0,0,1,1.45,2,1.68,1.68,0,0,1-.55,1.28,2.69,2.69,0,0,1-1.5.65v.85Z"/><path class="cls-40" d="M576.29,70.22V73.9h2.43v3.2h-2.43v6.77a1.73,1.73,0,0,0,.3,1.16,1.61,1.61,0,0,0,1.19.33,6.75,6.75,0,0,0,1.15-.08v3.29a8.49,8.49,0,0,1-2.6.4,4.83,4.83,0,0,1-3.51-1.12,4.59,4.59,0,0,1-1.13-3.4V77.1h-1.89V73.9h1.89V70.22Z"/><path class="cls-40" d="M585,75.49a5.06,5.06,0,0,1,7.46-.41,6.51,6.51,0,0,1,1.27,4.28V88.7h-4.62V79.47a2.6,2.6,0,0,0-.48-1.73,2.06,2.06,0,0,0-1.63-.55,2.21,2.21,0,0,0-2,.9V88.7h-4.61v-21H585Z"/><path class="cls-40" d="M604.67,88.7a5.18,5.18,0,0,1-.44-1.33,4.29,4.29,0,0,1-3.55,1.6,5.25,5.25,0,0,1-3.55-1.26,4,4,0,0,1-1.46-3.18,4.14,4.14,0,0,1,1.78-3.64,9,9,0,0,1,5.17-1.23H604v-.78q0-2-1.76-2a1.44,1.44,0,0,0-1.64,1.62H596A4.13,4.13,0,0,1,597.84,75a7.68,7.68,0,0,1,4.66-1.34A6.72,6.72,0,0,1,607,75a4.8,4.8,0,0,1,1.68,3.79v6.55a6.68,6.68,0,0,0,.63,3.12v.23ZM604.55,72H600.8l-3.86-4.29h4.87Zm-2.76,13.71a2.56,2.56,0,0,0,1.43-.37,2.31,2.31,0,0,0,.81-.83V82.12h-1.34q-2.41,0-2.41,2.16a1.32,1.32,0,0,0,.42,1A1.53,1.53,0,0,0,601.79,85.69Z"/><path class="cls-40" d="M615.43,73.9l.15,1.74a5,5,0,0,1,4.22-2A4.22,4.22,0,0,1,623.26,75a6.57,6.57,0,0,1,1.18,4.16V88.7h-4.62V79.36a2.5,2.5,0,0,0-.45-1.65,2.09,2.09,0,0,0-1.64-.53,2.2,2.2,0,0,0-2,1.07V88.7h-4.61V73.9Z"/><path class="cls-40" d="M631.5,75.49a5.06,5.06,0,0,1,7.46-.41,6.53,6.53,0,0,1,1.27,4.28V88.7h-4.62V79.47a2.61,2.61,0,0,0-.48-1.73,2.06,2.06,0,0,0-1.63-.55,2.21,2.21,0,0,0-2,.9V88.7h-4.61v-21h4.61Z"/><path class="cls-40" d="M666.09,82A7.27,7.27,0,0,1,665,85.63a6.76,6.76,0,0,1-2.88,2.47,9.79,9.79,0,0,1-4.23.88,7.82,7.82,0,0,1-6.18-2.56q-2.26-2.56-2.26-7.22v-1a12.07,12.07,0,0,1,1-5.12,7.72,7.72,0,0,1,2.93-3.39,8.18,8.18,0,0,1,4.43-1.2,8.58,8.58,0,0,1,5.82,1.91,7.54,7.54,0,0,1,2.5,5.26h-4.79a3.57,3.57,0,0,0-.92-2.61,3.77,3.77,0,0,0-2.62-.79,2.86,2.86,0,0,0-2.62,1.34,8.6,8.6,0,0,0-.87,4.28v1.41a9.53,9.53,0,0,0,.8,4.55,2.93,2.93,0,0,0,2.76,1.37,3.69,3.69,0,0,0,2.53-.78,3.32,3.32,0,0,0,.93-2.47Z"/><path class="cls-40" d="M683.59,72.49h-6V88.7h-4.8V72.49h-5.87V68.79h16.64Z"/><path class="cls-40" d="M693.55,83.28l4-14.49h5.36l-6.7,19.91h-5.25l-6.64-19.91h5.32Z"/><path class="cls-40" d="M716.45,70.22V73.9h2.43v3.2h-2.43v6.77a1.72,1.72,0,0,0,.3,1.16,1.61,1.61,0,0,0,1.19.33,6.77,6.77,0,0,0,1.15-.08v3.29a8.5,8.5,0,0,1-2.6.4A4.83,4.83,0,0,1,713,87.85a4.59,4.59,0,0,1-1.13-3.4V77.1H710V73.9h1.89V70.22Z"/><path class="cls-40" d="M725.2,75.49a5.06,5.06,0,0,1,7.46-.41,6.53,6.53,0,0,1,1.27,4.28V88.7h-4.62V79.47a2.61,2.61,0,0,0-.48-1.73,2.06,2.06,0,0,0-1.63-.55,2.21,2.21,0,0,0-2,.9V88.7H720.6v-21h4.61Z"/><path class="cls-40" d="M744.84,88.7a5.18,5.18,0,0,1-.44-1.33,4.29,4.29,0,0,1-3.55,1.6,5.25,5.25,0,0,1-3.55-1.26,4,4,0,0,1-1.46-3.18,4.14,4.14,0,0,1,1.78-3.64,9,9,0,0,1,5.17-1.23h1.42v-.78q0-2-1.76-2a1.44,1.44,0,0,0-1.64,1.62h-4.61A4.13,4.13,0,0,1,738,75a7.68,7.68,0,0,1,4.66-1.34A6.72,6.72,0,0,1,747.13,75a4.8,4.8,0,0,1,1.68,3.79v6.55a6.68,6.68,0,0,0,.63,3.12v.23ZM744.71,72H741l-3.86-4.29H742ZM742,85.69a2.56,2.56,0,0,0,1.43-.37,2.31,2.31,0,0,0,.81-.83V82.12h-1.34q-2.41,0-2.41,2.16a1.32,1.32,0,0,0,.42,1A1.53,1.53,0,0,0,742,85.69Z"/><path class="cls-40" d="M755.6,73.9l.15,1.74a5,5,0,0,1,4.22-2A4.22,4.22,0,0,1,763.42,75a6.57,6.57,0,0,1,1.18,4.16V88.7H760V79.36a2.5,2.5,0,0,0-.45-1.65,2.09,2.09,0,0,0-1.64-.53,2.2,2.2,0,0,0-2,1.07V88.7h-4.61V73.9Z"/><path class="cls-40" d="M771.66,75.49a5.06,5.06,0,0,1,7.46-.41,6.53,6.53,0,0,1,1.27,4.28V88.7h-4.62V79.47a2.61,2.61,0,0,0-.48-1.73,2.06,2.06,0,0,0-1.63-.55,2.21,2.21,0,0,0-2,.9V88.7h-4.61v-21h4.61Z"/><path class="cls-40" d="M796.19,85.41a2.05,2.05,0,0,0,1.5-.53,1.93,1.93,0,0,0,.52-1.47h4.32a5.12,5.12,0,0,1-1.74,4A6.48,6.48,0,0,1,796.3,89a6.56,6.56,0,0,1-5.09-2,8,8,0,0,1-1.86-5.61v-.19a9,9,0,0,1,.83-4,6,6,0,0,1,2.39-2.64,7.11,7.11,0,0,1,3.69-.92,6.41,6.41,0,0,1,4.58,1.6,5.68,5.68,0,0,1,1.7,4.33h-4.32a2.53,2.53,0,0,0-.56-1.76,1.94,1.94,0,0,0-1.5-.62q-1.79,0-2.09,2.28a16,16,0,0,0-.1,2,6.33,6.33,0,0,0,.53,3.09A1.85,1.85,0,0,0,796.19,85.41Z"/><path class="cls-40" d="M803.9,81.16a8.73,8.73,0,0,1,.86-3.94,6.16,6.16,0,0,1,2.47-2.66,7.45,7.45,0,0,1,3.79-.93,6.8,6.8,0,0,1,5.24,2.06,7.9,7.9,0,0,1,1.91,5.6v.16a7.66,7.66,0,0,1-1.92,5.49,6.82,6.82,0,0,1-5.2,2A6.9,6.9,0,0,1,806,87.08a7.4,7.4,0,0,1-2.06-5.13Zm13-9.63v.18h-3.64l-2.17-1.86-2.17,1.86h-3.55v-.23l4.42-3.78h2.64Zm-8.37,9.92a5.49,5.49,0,0,0,.64,3,2.14,2.14,0,0,0,1.9,1q2.46,0,2.52-3.79v-.46q0-4-2.54-4-2.31,0-2.5,3.43Z"/><path class="cls-40" d="M824.43,73.9l.15,1.74a5,5,0,0,1,4.22-2A4.22,4.22,0,0,1,832.26,75a6.57,6.57,0,0,1,1.18,4.16V88.7h-4.62V79.36a2.5,2.5,0,0,0-.45-1.65,2.09,2.09,0,0,0-1.64-.53,2.2,2.2,0,0,0-2,1.07V88.7h-4.61V73.9Z"/><path class="cls-40" d="M835.45,81.19a10,10,0,0,1,.74-4,5.93,5.93,0,0,1,2.12-2.66,5.58,5.58,0,0,1,3.21-.94,4.45,4.45,0,0,1,3.61,1.56l.16-1.29h4.18V88.13a6.23,6.23,0,0,1-.91,3.4,5.82,5.82,0,0,1-2.63,2.21,9.68,9.68,0,0,1-4,.77,8.35,8.35,0,0,1-3.15-.62,5.68,5.68,0,0,1-2.33-1.6l1.93-2.71a4.22,4.22,0,0,0,3.39,1.52q3.06,0,3.06-3.14v-.46A4.33,4.33,0,0,1,841.5,89a5.35,5.35,0,0,1-4.37-2.07,8.57,8.57,0,0,1-1.67-5.54Zm4.62.29a5.25,5.25,0,0,0,.68,2.88,2.16,2.16,0,0,0,1.91,1.06,2.45,2.45,0,0,0,2.17-1V78.2a2.39,2.39,0,0,0-2.15-1,2.17,2.17,0,0,0-1.93,1.1A6,6,0,0,0,840.07,81.48Z"/><path class="cls-40" d="M859.19,86.63a2.12,2.12,0,0,1,.73-1.66,2.89,2.89,0,0,1,3.65,0,2.25,2.25,0,0,1,0,3.32,2.89,2.89,0,0,1-3.65,0A2.12,2.12,0,0,1,859.19,86.63Zm4.46-4.24h-3.73l-.59-13.6h4.91Z"/><path class="cls-40" d="M167.42,115.55a7.26,7.26,0,0,1-1.12,3.67,6.76,6.76,0,0,1-2.88,2.47,9.8,9.8,0,0,1-4.23.88A7.82,7.82,0,0,1,153,120q-2.26-2.56-2.26-7.22v-1a12.06,12.06,0,0,1,1-5.12,7.72,7.72,0,0,1,2.93-3.39,8.18,8.18,0,0,1,4.43-1.2A8.58,8.58,0,0,1,165,104a7.53,7.53,0,0,1,2.5,5.26h-4.79a3.56,3.56,0,0,0-.92-2.61,3.77,3.77,0,0,0-2.62-.79,2.87,2.87,0,0,0-2.62,1.34,8.61,8.61,0,0,0-.87,4.28v1.41a9.53,9.53,0,0,0,.8,4.55,2.93,2.93,0,0,0,2.75,1.37,3.68,3.68,0,0,0,2.53-.78,3.31,3.31,0,0,0,.93-2.47Z"/><path class="cls-40" d="M174,109.09a5.06,5.06,0,0,1,7.46-.41,6.51,6.51,0,0,1,1.27,4.28v9.34H178.1v-9.23a2.6,2.6,0,0,0-.48-1.73,2.06,2.06,0,0,0-1.63-.55,2.21,2.21,0,0,0-2,.9v10.61h-4.61v-21H174Z"/><path class="cls-40" d="M194.1,120.7a4.75,4.75,0,0,1-4,1.87,4.66,4.66,0,0,1-3.68-1.42,6,6,0,0,1-1.25-4.07V107.5h4.61v9.61a1.66,1.66,0,0,0,1.85,1.9,2.41,2.41,0,0,0,2.26-1.13V107.5h4.63v14.79h-4.32Zm-1.64-19.4h4.87l-3.8,4.29h-3.76Z"/><path class="cls-40" d="M205.31,107.5l.15,1.74a5,5,0,0,1,4.22-2,4.22,4.22,0,0,1,3.45,1.38,6.58,6.58,0,0,1,1.18,4.16v9.53H209.7V113a2.5,2.5,0,0,0-.45-1.65,2.09,2.09,0,0,0-1.64-.53,2.2,2.2,0,0,0-2,1.07v10.45H201V107.5Z"/><path class="cls-40" d="M216.33,114.79a10,10,0,0,1,.74-4,5.94,5.94,0,0,1,2.12-2.66,5.59,5.59,0,0,1,3.21-.94,4.44,4.44,0,0,1,3.61,1.56l.16-1.29h4.18v14.23a6.23,6.23,0,0,1-.91,3.4,5.83,5.83,0,0,1-2.63,2.21,9.68,9.68,0,0,1-4,.77,8.35,8.35,0,0,1-3.15-.62,5.69,5.69,0,0,1-2.33-1.6l1.93-2.71a4.22,4.22,0,0,0,3.39,1.52q3.06,0,3.06-3.14v-.46a4.33,4.33,0,0,1-3.35,1.46A5.35,5.35,0,0,1,218,120.5a8.58,8.58,0,0,1-1.67-5.54Zm4.62.29a5.26,5.26,0,0,0,.68,2.88,2.16,2.16,0,0,0,1.91,1.06,2.45,2.45,0,0,0,2.17-1v-6.22a2.38,2.38,0,0,0-2.15-1,2.17,2.17,0,0,0-1.93,1.1A6,6,0,0,0,220.95,115.08Z"/><path class="cls-40" d="M252.29,103.82v3.68h2.43v3.2h-2.43v6.77a1.73,1.73,0,0,0,.3,1.16,1.61,1.61,0,0,0,1.19.33,6.75,6.75,0,0,0,1.15-.08v3.29a8.49,8.49,0,0,1-2.6.4,4.83,4.83,0,0,1-3.51-1.12,4.59,4.59,0,0,1-1.13-3.4V110.7h-1.89v-3.2h1.89v-3.68Z"/><path class="cls-40" d="M255.54,114.76a8.73,8.73,0,0,1,.86-3.94,6.16,6.16,0,0,1,2.47-2.66,7.45,7.45,0,0,1,3.79-.93,6.8,6.8,0,0,1,5.24,2.06,7.9,7.9,0,0,1,1.91,5.6V115a7.66,7.66,0,0,1-1.92,5.49,6.82,6.82,0,0,1-5.2,2,6.9,6.9,0,0,1-5.07-1.89,7.41,7.41,0,0,1-2.06-5.13Zm13-9.63v.18h-3.64l-2.17-1.86-2.17,1.86H257v-.23l4.42-3.78H264ZM260.15,115a5.5,5.5,0,0,0,.64,3,2.14,2.14,0,0,0,1.9,1q2.46,0,2.52-3.79v-.46q0-4-2.54-4-2.31,0-2.5,3.43Z"/><path class="cls-40" d="M271.81,103.69a2.06,2.06,0,0,1,.71-1.61,3,3,0,0,1,3.69,0,2.19,2.19,0,0,1,0,3.23,3,3,0,0,1-3.69,0A2.06,2.06,0,0,1,271.81,103.69Zm4.89,18.61h-4.62V107.5h4.62Z"/><path class="cls-40" d="M294.26,118.14a1.07,1.07,0,0,0-.62-.94,9.33,9.33,0,0,0-2.34-.74,10.63,10.63,0,0,1-2.84-1,4.76,4.76,0,0,1-1.71-1.51,3.61,3.61,0,0,1-.59-2,4.09,4.09,0,0,1,1.68-3.36,6.93,6.93,0,0,1,4.4-1.32,7.68,7.68,0,0,1,4.7,1.33,4.15,4.15,0,0,1,1.78,3.49h-4.62q0-1.78-1.87-1.78a1.86,1.86,0,0,0-1.22.4,1.25,1.25,0,0,0-.49,1,1.15,1.15,0,0,0,.6,1,5.69,5.69,0,0,0,1.92.63,16.62,16.62,0,0,1,2.32.59Q298.7,115,298.7,118a3.88,3.88,0,0,1-1.8,3.29,7.88,7.88,0,0,1-4.66,1.27,8,8,0,0,1-3.39-.68,5.67,5.67,0,0,1-2.32-1.86,4.21,4.21,0,0,1-.83-2.47H290a1.78,1.78,0,0,0,.68,1.5,2.81,2.81,0,0,0,1.68.47,2.21,2.21,0,0,0,1.42-.38A1.22,1.22,0,0,0,294.26,118.14Z"/><path class="cls-40" d="M308,122.57a7.6,7.6,0,0,1-5.51-2,7,7,0,0,1-2.11-5.28v-.38a9.08,9.08,0,0,1,.84-4,6.16,6.16,0,0,1,2.45-2.69,7.4,7.4,0,0,1,3.83-1,6.4,6.4,0,0,1,4.92,1.93,7.6,7.6,0,0,1,1.8,5.39v1.79h-9.16a3.32,3.32,0,0,0,1.08,2,3.22,3.22,0,0,0,2.16.71,4.14,4.14,0,0,0,3.42-1.53l2.11,2.49a5.89,5.89,0,0,1-2.44,1.89A8.24,8.24,0,0,1,308,122.57Zm4.12-21.18a4,4,0,0,1-.91,2.65,2.82,2.82,0,0,1-2.25,1.09,4.44,4.44,0,0,1-2-.57,4.19,4.19,0,0,0-1.79-.57,1,1,0,0,0-.75.3,1.25,1.25,0,0,0-.31.93l-2.56-.14a4,4,0,0,1,.91-2.62,2.79,2.79,0,0,1,2.24-1.11,4.61,4.61,0,0,1,1.79.5,10.9,10.9,0,0,0,1.4.57,2.72,2.72,0,0,0,.62.07,1,1,0,0,0,.75-.3,1.26,1.26,0,0,0,.31-.94Zm-4.63,9.39q-2,0-2.41,2.68h4.65v-.36a2.28,2.28,0,0,0-.56-1.72A2.23,2.23,0,0,0,307.49,110.78Z"/><path class="cls-40" d="M329,116.79l-1.3,1.3v4.21h-4.61v-21h4.61v11.16l.46-.62,3.47-4.32h5.52L332,113.59l5.52,8.71h-5.28Z"/><path class="cls-40" d="M338.35,103.69a2.06,2.06,0,0,1,.71-1.61,3,3,0,0,1,3.69,0,2.19,2.19,0,0,1,0,3.23,3,3,0,0,1-3.69,0A2.06,2.06,0,0,1,338.35,103.69Zm4.89,18.61h-4.62V107.5h4.62Z"/><path class="cls-40" d="M353.24,122.57a7.6,7.6,0,0,1-5.51-2,7,7,0,0,1-2.11-5.28v-.38a9.08,9.08,0,0,1,.84-4,6.16,6.16,0,0,1,2.45-2.69,7.4,7.4,0,0,1,3.83-1,6.4,6.4,0,0,1,4.92,1.93,7.6,7.6,0,0,1,1.8,5.39v1.79h-9.16a3.32,3.32,0,0,0,1.08,2,3.22,3.22,0,0,0,2.16.71,4.14,4.14,0,0,0,3.42-1.53l2.11,2.49a5.89,5.89,0,0,1-2.44,1.89A8.24,8.24,0,0,1,353.24,122.57Zm3.75-17h-3L352,104l-1.91,1.59h-3l3.87-3h2.19Zm-4.27,5.17q-2,0-2.41,2.68H355v-.36a2.28,2.28,0,0,0-.56-1.72A2.23,2.23,0,0,0,352.72,110.78Zm3-6.85-.27-1.45q1.57-.08,1.57-.71a.61.61,0,0,0-.42-.62,3.3,3.3,0,0,0-1.12-.16l.1-1.64a6.59,6.59,0,0,1,3.13.59,1.82,1.82,0,0,1,1.05,1.65,1.43,1.43,0,0,1-.46,1.08,2.19,2.19,0,0,1-1.25.55v.71Z"/><path class="cls-40" d="M365.68,107.5l.15,1.74a5.09,5.09,0,0,1,4.22-2,3.75,3.75,0,0,1,3.79,2.23,4.92,4.92,0,0,1,4.35-2.23q4.5,0,4.62,5.44v9.63h-4.62V113a2.82,2.82,0,0,0-.38-1.65,1.63,1.63,0,0,0-1.39-.52,2.18,2.18,0,0,0-2,1.22v10.29h-4.62V113a3,3,0,0,0-.37-1.68,1.62,1.62,0,0,0-1.41-.52,2.21,2.21,0,0,0-2,1.22v10.29h-4.61V107.5Z"/><path class="cls-40" d="M391.83,114.79a9,9,0,0,1,1.52-5.54,5,5,0,0,1,4.24-2,4.25,4.25,0,0,1,3.34,1.56v-7.49h4.62v21H401.4l-.23-1.59a4.36,4.36,0,0,1-3.61,1.86,5,5,0,0,1-4.18-2A9.32,9.32,0,0,1,391.83,114.79Zm4.61.29q0,3.94,2.3,3.94a2.27,2.27,0,0,0,2.19-1.29V112.1a2.21,2.21,0,0,0-2.16-1.31q-2.13,0-2.31,3.45Z"/><path class="cls-40" d="M417,120.7a4.75,4.75,0,0,1-4,1.87,4.66,4.66,0,0,1-3.68-1.42,6,6,0,0,1-1.25-4.07V107.5h4.61v9.61a1.66,1.66,0,0,0,1.85,1.9,2.41,2.41,0,0,0,2.26-1.13V107.5h4.63v14.79h-4.32Z"/><path class="cls-40" d="M429.87,115.84l2.46-8.34h4.94l-6,17.27-.26.63a4.58,4.58,0,0,1-4.54,2.87,7.22,7.22,0,0,1-1.9-.27v-3.28h.6a3.16,3.16,0,0,0,1.48-.28,1.7,1.7,0,0,0,.76-1l.37-1-5.14-14.94h4.92Z"/><path class="cls-40" d="M445.44,122.57a7.6,7.6,0,0,1-5.51-2,7,7,0,0,1-2.11-5.28v-.38a9.08,9.08,0,0,1,.84-4,6.16,6.16,0,0,1,2.45-2.69,7.4,7.4,0,0,1,3.83-1,6.4,6.4,0,0,1,4.92,1.93,7.6,7.6,0,0,1,1.8,5.39v1.79h-9.16a3.32,3.32,0,0,0,1.08,2,3.22,3.22,0,0,0,2.16.71,4.14,4.14,0,0,0,3.42-1.53l2.11,2.49a5.89,5.89,0,0,1-2.44,1.89A8.24,8.24,0,0,1,445.44,122.57Zm4.65-17.45v.18h-3.64l-2.17-1.86-2.17,1.86h-3.55v-.23l4.42-3.78h2.64Zm-7.85,20.32A1.78,1.78,0,0,1,443,124a3.19,3.19,0,0,1,3.65,0,1.83,1.83,0,0,1,0,2.93,3.19,3.19,0,0,1-3.65,0A1.78,1.78,0,0,1,442.24,125.44Zm2.68-14.66q-2,0-2.41,2.68h4.65v-.36a2.28,2.28,0,0,0-.56-1.72A2.23,2.23,0,0,0,444.92,110.78Z"/><path class="cls-40" d="M458.9,103.82v3.68h2.43v3.2H458.9v6.77a1.73,1.73,0,0,0,.3,1.16,1.61,1.61,0,0,0,1.19.33,6.75,6.75,0,0,0,1.15-.08v3.29a8.49,8.49,0,0,1-2.6.4,4.83,4.83,0,0,1-3.51-1.12,4.59,4.59,0,0,1-1.13-3.4V110.7H452.4v-3.2h1.89v-3.68Z"/><path class="cls-40" d="M476,116.81l2.34-9.31h4.85l-4.83,14.79h-4.7l-4.83-14.79h4.87Z"/><path class="cls-40" d="M492.71,122.29a5.22,5.22,0,0,1-.44-1.33,4.28,4.28,0,0,1-3.55,1.6,5.25,5.25,0,0,1-3.55-1.26,4,4,0,0,1-1.46-3.18,4.14,4.14,0,0,1,1.78-3.64,9.05,9.05,0,0,1,5.17-1.23h1.42v-.78q0-2-1.76-2a1.44,1.44,0,0,0-1.64,1.62h-4.61a4.13,4.13,0,0,1,1.83-3.48,7.67,7.67,0,0,1,4.66-1.34,6.72,6.72,0,0,1,4.47,1.38,4.8,4.8,0,0,1,1.68,3.79v6.55a6.7,6.7,0,0,0,.63,3.12v.23Zm-.12-16.71h-3.75L485,101.29h4.87Zm-2.76,13.71a2.57,2.57,0,0,0,1.43-.37,2.32,2.32,0,0,0,.81-.83v-2.37h-1.34q-2.41,0-2.41,2.16a1.32,1.32,0,0,0,.42,1A1.53,1.53,0,0,0,489.82,119.29Z"/><path class="cls-40" d="M511.57,103.82v3.68H514v3.2h-2.43v6.77a1.73,1.73,0,0,0,.3,1.16,1.61,1.61,0,0,0,1.19.33,6.75,6.75,0,0,0,1.15-.08v3.29a8.49,8.49,0,0,1-2.6.4,4.83,4.83,0,0,1-3.51-1.12A4.59,4.59,0,0,1,507,118V110.7h-1.89v-3.2H507v-3.68Z"/><path class="cls-40" d="M520.32,109.09a5.06,5.06,0,0,1,7.46-.41,6.51,6.51,0,0,1,1.27,4.28v9.34h-4.62v-9.23a2.6,2.6,0,0,0-.48-1.73,2.06,2.06,0,0,0-1.63-.55,2.21,2.21,0,0,0-2,.9v10.61h-4.61v-21h4.61Z"/><path class="cls-40" d="M531,114.76a8.73,8.73,0,0,1,.86-3.94,6.16,6.16,0,0,1,2.47-2.66,7.45,7.45,0,0,1,3.79-.93,6.8,6.8,0,0,1,5.24,2.06,7.9,7.9,0,0,1,1.91,5.6V115a7.66,7.66,0,0,1-1.92,5.49,6.82,6.82,0,0,1-5.2,2,6.9,6.9,0,0,1-5.07-1.89,7.41,7.41,0,0,1-2.06-5.13Zm13-9.63v.18h-3.64l-2.17-1.86L536,105.31h-3.55v-.23l4.42-3.78h2.64ZM535.65,115a5.5,5.5,0,0,0,.64,3,2.14,2.14,0,0,0,1.9,1q2.46,0,2.52-3.79v-.46q0-4-2.54-4-2.31,0-2.5,3.43Z"/><path class="cls-40" d="M551.58,107.5l.15,1.74a5,5,0,0,1,4.22-2,4.22,4.22,0,0,1,3.45,1.38,6.58,6.58,0,0,1,1.18,4.16v9.53H556V113a2.5,2.5,0,0,0-.45-1.65,2.09,2.09,0,0,0-1.64-.53,2.2,2.2,0,0,0-2,1.07v10.45h-4.61V107.5Z"/><path class="cls-40" d="M562.6,114.79a10,10,0,0,1,.74-4,5.94,5.94,0,0,1,2.12-2.66,5.59,5.59,0,0,1,3.21-.94,4.44,4.44,0,0,1,3.61,1.56l.16-1.29h4.18v14.23a6.23,6.23,0,0,1-.91,3.4,5.83,5.83,0,0,1-2.63,2.21,9.68,9.68,0,0,1-4,.77,8.35,8.35,0,0,1-3.15-.62,5.69,5.69,0,0,1-2.33-1.6l1.93-2.71a4.22,4.22,0,0,0,3.39,1.52q3.06,0,3.06-3.14v-.46a4.33,4.33,0,0,1-3.35,1.46,5.35,5.35,0,0,1-4.37-2.07A8.58,8.58,0,0,1,562.6,115Zm4.62.29a5.26,5.26,0,0,0,.68,2.88,2.16,2.16,0,0,0,1.91,1.06,2.45,2.45,0,0,0,2.17-1v-6.22a2.38,2.38,0,0,0-2.15-1,2.17,2.17,0,0,0-1.93,1.1A6,6,0,0,0,567.22,115.08Z"/><path class="cls-40" d="M599.95,115a9,9,0,0,1-1.5,5.59,5,5,0,0,1-4.24,2,4.37,4.37,0,0,1-3.64-1.79l-.19,1.52h-4.13v-21h4.61v7.4a4.22,4.22,0,0,1,3.32-1.46,5,5,0,0,1,4.27,2,9.05,9.05,0,0,1,1.5,5.58Zm-4.62-.29a6,6,0,0,0-.57-3,1.91,1.91,0,0,0-1.74-.91,2.21,2.21,0,0,0-2.16,1.19v5.87A2.22,2.22,0,0,0,593,119a2,2,0,0,0,2.06-1.58A11.39,11.39,0,0,0,595.33,114.73Z"/><path class="cls-40" d="M610.31,122.29a5.26,5.26,0,0,1-.44-1.33,4.28,4.28,0,0,1-3.55,1.6,5.25,5.25,0,0,1-3.55-1.26,4,4,0,0,1-1.46-3.18,4.14,4.14,0,0,1,1.78-3.64,9.06,9.06,0,0,1,5.17-1.23h1.42v-.78q0-2-1.76-2a1.44,1.44,0,0,0-1.64,1.62h-4.61a4.13,4.13,0,0,1,1.83-3.48,7.67,7.67,0,0,1,4.65-1.34,6.72,6.72,0,0,1,4.47,1.38,4.8,4.8,0,0,1,1.68,3.79v6.55a6.73,6.73,0,0,0,.63,3.12v.23Zm-1.74-21h4.87l-3.8,4.29h-3.76Zm-1.15,18a2.57,2.57,0,0,0,1.43-.37,2.32,2.32,0,0,0,.81-.83v-2.37h-1.34q-2.41,0-2.41,2.16a1.32,1.32,0,0,0,.42,1A1.53,1.53,0,0,0,607.43,119.29Z"/><path class="cls-40" d="M616.26,114.76a8.73,8.73,0,0,1,.86-3.94,6.17,6.17,0,0,1,2.47-2.66,7.45,7.45,0,0,1,3.79-.93,6.8,6.8,0,0,1,5.24,2.06,7.89,7.89,0,0,1,1.91,5.6V115a7.67,7.67,0,0,1-1.92,5.49,6.82,6.82,0,0,1-5.2,2,6.9,6.9,0,0,1-5.07-1.89,7.42,7.42,0,0,1-2.06-5.13Zm4.61.29a5.51,5.51,0,0,0,.64,3,2.14,2.14,0,0,0,1.9,1q2.46,0,2.52-3.79v-.46q0-4-2.54-4-2.31,0-2.5,3.43Z"/><path class="cls-40" d="M639,114.75a8.89,8.89,0,0,1,1.53-5.52,5,5,0,0,1,4.22-2,4.29,4.29,0,0,1,3.64,1.86l.33-1.59h4V128H648v-6.92a4.28,4.28,0,0,1-3.36,1.5,5,5,0,0,1-4.18-2A9.37,9.37,0,0,1,639,114.75Zm4.61.29q0,4,2.3,4a2.22,2.22,0,0,0,2.19-1.2V112a2.18,2.18,0,0,0-2.16-1.18q-2.14,0-2.31,3.43Z"/><path class="cls-40" d="M664.08,120.7a4.75,4.75,0,0,1-4,1.87,4.66,4.66,0,0,1-3.68-1.42,6,6,0,0,1-1.25-4.07V107.5h4.61v9.61a1.66,1.66,0,0,0,1.85,1.9,2.4,2.4,0,0,0,2.26-1.13V107.5h4.63v14.79h-4.32Z"/><path class="cls-40" d="M679.39,122.29A5.26,5.26,0,0,1,679,121a4.28,4.28,0,0,1-3.55,1.6,5.25,5.25,0,0,1-3.55-1.26,4,4,0,0,1-1.46-3.18,4.14,4.14,0,0,1,1.78-3.64,9.06,9.06,0,0,1,5.17-1.23h1.42v-.78q0-2-1.76-2a1.44,1.44,0,0,0-1.64,1.62h-4.61a4.13,4.13,0,0,1,1.83-3.48,7.67,7.67,0,0,1,4.65-1.34,6.72,6.72,0,0,1,4.47,1.38,4.8,4.8,0,0,1,1.68,3.79v6.55a6.73,6.73,0,0,0,.63,3.12v.23Zm-2.88-3a2.57,2.57,0,0,0,1.43-.37,2.32,2.32,0,0,0,.81-.83v-2.37h-1.34q-2.41,0-2.41,2.16a1.32,1.32,0,0,0,.42,1A1.53,1.53,0,0,0,676.51,119.29Z"/><path class="cls-40" d="M697.25,107.5l.15,1.74a5.09,5.09,0,0,1,4.22-2,3.74,3.74,0,0,1,3.79,2.23,4.93,4.93,0,0,1,4.35-2.23q4.5,0,4.62,5.44v9.63h-4.62V113a2.82,2.82,0,0,0-.38-1.65,1.63,1.63,0,0,0-1.39-.52,2.18,2.18,0,0,0-2,1.22v10.29h-4.62V113a3,3,0,0,0-.37-1.68,1.62,1.62,0,0,0-1.41-.52,2.21,2.21,0,0,0-2,1.22v10.29h-4.61V107.5Z"/><path class="cls-40" d="M725.35,122.29a5.26,5.26,0,0,1-.44-1.33,4.28,4.28,0,0,1-3.55,1.6,5.25,5.25,0,0,1-3.55-1.26,4,4,0,0,1-1.46-3.18,4.14,4.14,0,0,1,1.78-3.64,9.06,9.06,0,0,1,5.17-1.23h1.42v-.78q0-2-1.76-2A1.44,1.44,0,0,0,721.3,112h-4.61a4.13,4.13,0,0,1,1.83-3.48,7.67,7.67,0,0,1,4.65-1.34,6.72,6.72,0,0,1,4.47,1.38,4.8,4.8,0,0,1,1.68,3.79v6.55a6.73,6.73,0,0,0,.63,3.12v.23Zm-2.88-3a2.57,2.57,0,0,0,1.43-.37,2.32,2.32,0,0,0,.81-.83v-2.37h-1.34q-2.41,0-2.41,2.16a1.32,1.32,0,0,0,.42,1A1.53,1.53,0,0,0,722.46,119.29Z"/><path class="cls-40" d="M731.84,103.69a2.06,2.06,0,0,1,.71-1.61,3,3,0,0,1,3.69,0,2.19,2.19,0,0,1,0,3.23,3,3,0,0,1-3.69,0A2.06,2.06,0,0,1,731.84,103.69Zm4.89,18.61h-4.62V107.5h4.62Z"/><path class="cls-40" d="M744.43,122.29h-4.62v-21h4.62Z"/><path class="cls-40" d="M759.61,103.82v3.68H762v3.2h-2.43v6.77a1.74,1.74,0,0,0,.3,1.16,1.62,1.62,0,0,0,1.19.33,6.74,6.74,0,0,0,1.15-.08v3.29a8.49,8.49,0,0,1-2.6.4,4.83,4.83,0,0,1-3.51-1.12A4.6,4.6,0,0,1,755,118V110.7h-1.89v-3.2H755v-3.68Z"/><path class="cls-40" d="M772.8,111.67l-1.52-.11q-2.17,0-2.79,1.37v9.37h-4.61V107.5h4.32l.15,1.9a3.57,3.57,0,0,1,3.24-2.17,4.49,4.49,0,0,1,1.29.16Z"/><path class="cls-40" d="M773.39,114.76a8.73,8.73,0,0,1,.86-3.94,6.17,6.17,0,0,1,2.47-2.66,7.45,7.45,0,0,1,3.79-.93,6.8,6.8,0,0,1,5.24,2.06,7.89,7.89,0,0,1,1.91,5.6V115a7.67,7.67,0,0,1-1.92,5.49,6.82,6.82,0,0,1-5.2,2,6.9,6.9,0,0,1-5.07-1.89,7.42,7.42,0,0,1-2.06-5.13ZM778,115a5.51,5.51,0,0,0,.64,3,2.14,2.14,0,0,0,1.9,1q2.46,0,2.52-3.79v-.46q0-4-2.54-4-2.31,0-2.5,3.43Z"/><path class="cls-40" d="M793.92,107.5l.15,1.74a5,5,0,0,1,4.22-2,4.22,4.22,0,0,1,3.45,1.38,6.58,6.58,0,0,1,1.18,4.16v9.53h-4.62V113a2.5,2.5,0,0,0-.45-1.65,2.09,2.09,0,0,0-1.64-.53,2.2,2.2,0,0,0-2,1.07v10.45H789.6V107.5Z"/><path class="cls-40" d="M804.94,114.79a10,10,0,0,1,.74-4,6,6,0,0,1,2.12-2.66,5.59,5.59,0,0,1,3.21-.94,4.44,4.44,0,0,1,3.61,1.56l.16-1.29H819v14.23a6.24,6.24,0,0,1-.91,3.4,5.84,5.84,0,0,1-2.63,2.21,9.68,9.68,0,0,1-4,.77,8.34,8.34,0,0,1-3.15-.62,5.69,5.69,0,0,1-2.33-1.6l1.93-2.71a4.23,4.23,0,0,0,3.39,1.52q3.06,0,3.06-3.14v-.46a4.32,4.32,0,0,1-3.35,1.46,5.35,5.35,0,0,1-4.37-2.07,8.58,8.58,0,0,1-1.67-5.54Zm4.62.29a5.27,5.27,0,0,0,.68,2.88,2.16,2.16,0,0,0,1.91,1.06,2.45,2.45,0,0,0,2.17-1v-6.22a2.38,2.38,0,0,0-2.15-1,2.17,2.17,0,0,0-1.93,1.1A6,6,0,0,0,809.56,115.08Z"/><path class="cls-40" d="M833.93,103.82v3.68h2.43v3.2h-2.43v6.77a1.74,1.74,0,0,0,.3,1.16,1.62,1.62,0,0,0,1.19.33,6.74,6.74,0,0,0,1.15-.08v3.29a8.49,8.49,0,0,1-2.6.4,4.83,4.83,0,0,1-3.51-1.12,4.6,4.6,0,0,1-1.13-3.4V110.7h-1.89v-3.2h1.89v-3.68Z"/><path class="cls-40" d="M842.68,109.09a5.06,5.06,0,0,1,7.46-.41,6.5,6.5,0,0,1,1.27,4.28v9.34h-4.62v-9.23a2.6,2.6,0,0,0-.48-1.73,2.06,2.06,0,0,0-1.63-.55,2.22,2.22,0,0,0-2,.9v10.61h-4.61v-21h4.61Z"/><path class="cls-40" d="M853.37,114.76a8.73,8.73,0,0,1,.86-3.94,6.17,6.17,0,0,1,2.47-2.66,7.44,7.44,0,0,1,3.79-.93,6.77,6.77,0,0,1,5.26,2.08q.85-.79.85-3.1h2.52q0,3.56-2.26,4.77a9.7,9.7,0,0,1,.78,4.07,7.67,7.67,0,0,1-1.92,5.49,7.72,7.72,0,0,1-10.28.14,7.43,7.43,0,0,1-2.06-5.13Zm9.38-9.18H859l-3.86-4.29H860ZM858,115a5.51,5.51,0,0,0,.64,3,2.14,2.14,0,0,0,1.9,1q2.46,0,2.52-3.79v-.46q0-4-2.54-4-2.31,0-2.5,3.43Z"/><path class="cls-40" d="M870.32,103.69a2.06,2.06,0,0,1,.71-1.61,3,3,0,0,1,3.69,0,2.19,2.19,0,0,1,0,3.23,3,3,0,0,1-3.69,0A2.06,2.06,0,0,1,870.32,103.69Zm4.89,18.61H870.6V107.5h4.62Z"/><path class="cls-40" d="M884.49,114.79a10,10,0,0,1,.74-4,6,6,0,0,1,2.12-2.66,5.59,5.59,0,0,1,3.21-.94,4.44,4.44,0,0,1,3.61,1.56l.16-1.29h4.18v14.23a6.24,6.24,0,0,1-.91,3.4,5.84,5.84,0,0,1-2.63,2.21,9.68,9.68,0,0,1-4,.77,8.34,8.34,0,0,1-3.15-.62,5.69,5.69,0,0,1-2.33-1.6l1.93-2.71a4.23,4.23,0,0,0,3.39,1.52q3.06,0,3.06-3.14v-.46a4.32,4.32,0,0,1-3.35,1.46,5.35,5.35,0,0,1-4.37-2.07,8.58,8.58,0,0,1-1.67-5.54Zm4.62.29a5.27,5.27,0,0,0,.68,2.88,2.16,2.16,0,0,0,1.91,1.06,2.45,2.45,0,0,0,2.17-1v-6.22a2.38,2.38,0,0,0-2.15-1,2.17,2.17,0,0,0-1.93,1.1A6,6,0,0,0,889.11,115.08Z"/><path class="cls-40" d="M901.1,103.69a2.06,2.06,0,0,1,.71-1.61,3,3,0,0,1,3.69,0,2.19,2.19,0,0,1,0,3.23,3,3,0,0,1-3.69,0A2.06,2.06,0,0,1,901.1,103.69ZM906,122.29h-4.62V107.5H906Z"/><path class="cls-40" d="M917.16,122.29a5.26,5.26,0,0,1-.44-1.33,4.28,4.28,0,0,1-3.55,1.6,5.25,5.25,0,0,1-3.55-1.26,4,4,0,0,1-1.46-3.18,4.14,4.14,0,0,1,1.78-3.64,9.06,9.06,0,0,1,5.17-1.23h1.42v-.78q0-2-1.76-2a1.44,1.44,0,0,0-1.64,1.62h-4.61a4.13,4.13,0,0,1,1.83-3.48,7.67,7.67,0,0,1,4.65-1.34,6.72,6.72,0,0,1,4.47,1.38,4.8,4.8,0,0,1,1.68,3.79v6.55a6.73,6.73,0,0,0,.63,3.12v.23Zm-2.88-3a2.57,2.57,0,0,0,1.43-.37,2.32,2.32,0,0,0,.81-.83v-2.37h-1.34q-2.41,0-2.41,2.16a1.32,1.32,0,0,0,.42,1A1.53,1.53,0,0,0,914.28,119.29Z"/><path class="cls-40" d="M927.92,107.5l.15,1.74a5,5,0,0,1,4.22-2,4.22,4.22,0,0,1,3.45,1.38,6.58,6.58,0,0,1,1.18,4.16v9.53h-4.62V113a2.5,2.5,0,0,0-.45-1.65,2.09,2.09,0,0,0-1.64-.53,2.2,2.2,0,0,0-2,1.07v10.45H923.6V107.5Z"/><path class="cls-40" d="M954.2,118.14a1.07,1.07,0,0,0-.62-.94,9.33,9.33,0,0,0-2.34-.74,10.65,10.65,0,0,1-2.84-1,4.78,4.78,0,0,1-1.71-1.51,3.62,3.62,0,0,1-.59-2,4.09,4.09,0,0,1,1.68-3.36,6.93,6.93,0,0,1,4.4-1.32,7.67,7.67,0,0,1,4.7,1.33,4.14,4.14,0,0,1,1.78,3.49H954q0-1.78-1.87-1.78a1.86,1.86,0,0,0-1.22.4,1.25,1.25,0,0,0-.49,1,1.15,1.15,0,0,0,.6,1,5.7,5.7,0,0,0,1.92.63,16.61,16.61,0,0,1,2.32.59q3.34,1.15,3.34,4.12a3.88,3.88,0,0,1-1.8,3.29,7.89,7.89,0,0,1-4.66,1.27,8,8,0,0,1-3.39-.68,5.68,5.68,0,0,1-2.32-1.86,4.22,4.22,0,0,1-.83-2.47h4.31a1.78,1.78,0,0,0,.68,1.5,2.81,2.81,0,0,0,1.68.47,2.22,2.22,0,0,0,1.42-.38A1.22,1.22,0,0,0,954.2,118.14Z"/><path class="cls-40" d="M960.19,114.76a8.73,8.73,0,0,1,.86-3.94,6.17,6.17,0,0,1,2.47-2.66,7.44,7.44,0,0,1,3.79-.93,6.77,6.77,0,0,1,5.26,2.08q.85-.79.85-3.1h2.52q0,3.56-2.26,4.77a9.7,9.7,0,0,1,.78,4.07,7.67,7.67,0,0,1-1.92,5.49,7.72,7.72,0,0,1-10.28.14,7.43,7.43,0,0,1-2.06-5.13Zm4.61.29a5.51,5.51,0,0,0,.64,3,2.14,2.14,0,0,0,1.9,1q2.46,0,2.52-3.79v-.46q0-4-2.54-4-2.31,0-2.5,3.43ZM968,101.29h4.87l-3.8,4.29h-3.76Z"/><path class="cls-40" d="M981.53,107.5l.15,1.74a5.09,5.09,0,0,1,4.22-2,3.74,3.74,0,0,1,3.79,2.23,4.93,4.93,0,0,1,4.35-2.23q4.5,0,4.62,5.44v9.63H994V113a2.82,2.82,0,0,0-.38-1.65,1.63,1.63,0,0,0-1.39-.52,2.18,2.18,0,0,0-2,1.22v10.29h-4.62V113a3,3,0,0,0-.37-1.68,1.62,1.62,0,0,0-1.41-.52,2.21,2.21,0,0,0-2,1.22v10.29h-4.61V107.5Z"/><path class="cls-40" d="M1012.5,107.5l.15,1.74a5,5,0,0,1,4.22-2,4.22,4.22,0,0,1,3.45,1.38,6.58,6.58,0,0,1,1.18,4.16v9.53h-4.62V113a2.5,2.5,0,0,0-.45-1.65,2.09,2.09,0,0,0-1.64-.53,2.2,2.2,0,0,0-2,1.07v10.45h-4.61V107.5Z"/><path class="cls-40" d="M1028.56,109.09a5.06,5.06,0,0,1,7.46-.41,6.5,6.5,0,0,1,1.27,4.28v9.34h-4.62v-9.23a2.6,2.6,0,0,0-.48-1.73,2.06,2.06,0,0,0-1.63-.55,2.22,2.22,0,0,0-2,.9v10.61H1024v-21h4.61Z"/><path class="cls-40" d="M1048.19,122.29a5.26,5.26,0,0,1-.44-1.33,4.28,4.28,0,0,1-3.55,1.6,5.25,5.25,0,0,1-3.55-1.26,4,4,0,0,1-1.46-3.18,4.14,4.14,0,0,1,1.78-3.64,9.06,9.06,0,0,1,5.17-1.23h1.42v-.78q0-2-1.76-2a1.44,1.44,0,0,0-1.64,1.62h-4.61a4.13,4.13,0,0,1,1.83-3.48,7.67,7.67,0,0,1,4.65-1.34,6.72,6.72,0,0,1,4.47,1.38,4.8,4.8,0,0,1,1.68,3.79v6.55a6.73,6.73,0,0,0,.63,3.12v.23Zm-3.5-19.65h2.26l3.83,3h-3l-2-1.59-2,1.59h-3Zm.62,16.64a2.57,2.57,0,0,0,1.43-.37,2.32,2.32,0,0,0,.81-.83v-2.37h-1.34q-2.41,0-2.41,2.16a1.32,1.32,0,0,0,.42,1A1.53,1.53,0,0,0,1045.31,119.29Zm6.88-19h3.29L1052.2,104h-2.41Z"/><path class="cls-40" d="M1060.09,103.82v3.68h2.43v3.2h-2.43v6.77a1.74,1.74,0,0,0,.3,1.16,1.62,1.62,0,0,0,1.19.33,6.74,6.74,0,0,0,1.15-.08v3.29a8.49,8.49,0,0,1-2.6.4,4.83,4.83,0,0,1-3.51-1.12,4.6,4.6,0,0,1-1.13-3.4V110.7h-1.89v-3.2h1.89v-3.68Z"/><path class="cls-40" d="M1071.42,120.23a2.12,2.12,0,0,1,.73-1.66,2.89,2.89,0,0,1,3.65,0,2.25,2.25,0,0,1,0,3.32,2.89,2.89,0,0,1-3.65,0A2.12,2.12,0,0,1,1071.42,120.23Zm4.46-4.24h-3.73l-.59-13.6h4.91Z"/><path class="cls-40" d="M311.77,149.16a7.26,7.26,0,0,1-1.12,3.67,6.76,6.76,0,0,1-2.88,2.47,9.8,9.8,0,0,1-4.23.88,7.82,7.82,0,0,1-6.18-2.56q-2.26-2.56-2.26-7.22v-1a12.06,12.06,0,0,1,1-5.12,7.72,7.72,0,0,1,2.93-3.39,8.18,8.18,0,0,1,4.43-1.2,8.58,8.58,0,0,1,5.82,1.91,7.53,7.53,0,0,1,2.5,5.26H307a3.56,3.56,0,0,0-.92-2.61,3.77,3.77,0,0,0-2.62-.79,2.87,2.87,0,0,0-2.62,1.34,8.61,8.61,0,0,0-.87,4.28v1.41a9.53,9.53,0,0,0,.8,4.55,2.93,2.93,0,0,0,2.75,1.37,3.68,3.68,0,0,0,2.53-.78,3.31,3.31,0,0,0,.93-2.47Z"/><path class="cls-40" d="M322.16,155.9a5.22,5.22,0,0,1-.44-1.33,4.28,4.28,0,0,1-3.55,1.6,5.25,5.25,0,0,1-3.55-1.26,4,4,0,0,1-1.46-3.18,4.14,4.14,0,0,1,1.78-3.64,9.05,9.05,0,0,1,5.17-1.23h1.42v-.78q0-2-1.76-2a1.44,1.44,0,0,0-1.64,1.62h-4.61a4.13,4.13,0,0,1,1.83-3.48,7.67,7.67,0,0,1,4.66-1.34,6.72,6.72,0,0,1,4.47,1.38,4.8,4.8,0,0,1,1.68,3.79v6.55a6.7,6.7,0,0,0,.63,3.12v.23Zm-1.74-21h4.87l-3.8,4.29h-3.76Zm-1.15,18a2.57,2.57,0,0,0,1.43-.37,2.32,2.32,0,0,0,.81-.83v-2.37h-1.34q-2.41,0-2.41,2.16a1.32,1.32,0,0,0,.42,1A1.53,1.53,0,0,0,319.28,152.89Z"/><path class="cls-40" d="M333,141.1l.15,1.74a5.09,5.09,0,0,1,4.22-2,3.75,3.75,0,0,1,3.79,2.23,4.92,4.92,0,0,1,4.35-2.23q4.5,0,4.62,5.44v9.63h-4.62v-9.34a2.82,2.82,0,0,0-.38-1.65,1.63,1.63,0,0,0-1.39-.52,2.18,2.18,0,0,0-2,1.22V155.9h-4.62v-9.31a3,3,0,0,0-.37-1.68,1.62,1.62,0,0,0-1.41-.52,2.21,2.21,0,0,0-2,1.22V155.9h-4.61V141.1Z"/><path class="cls-40" d="M359.17,148.36a8.73,8.73,0,0,1,.86-3.94,6.17,6.17,0,0,1,2.47-2.66,7.44,7.44,0,0,1,3.79-.93,6.77,6.77,0,0,1,5.26,2.08q.85-.79.85-3.1h2.52q0,3.56-2.26,4.77a9.7,9.7,0,0,1,.78,4.07,7.66,7.66,0,0,1-1.92,5.49,6.82,6.82,0,0,1-5.2,2,6.89,6.89,0,0,1-5.08-1.89,7.42,7.42,0,0,1-2.06-5.13Zm4.61.29a5.5,5.5,0,0,0,.64,3,2.14,2.14,0,0,0,1.9,1q2.46,0,2.52-3.79v-.46q0-4-2.54-4-2.31,0-2.5,3.43Z"/><path class="cls-40" d="M380.39,141.1l.15,1.74a5,5,0,0,1,4.22-2,4.22,4.22,0,0,1,3.45,1.38,6.58,6.58,0,0,1,1.18,4.16v9.53h-4.62v-9.34a2.5,2.5,0,0,0-.45-1.65,2.09,2.09,0,0,0-1.64-.53,2.2,2.2,0,0,0-2,1.07V155.9h-4.61V141.1Z"/><path class="cls-40" d="M398.34,148.35a8.88,8.88,0,0,1,1.53-5.52,5,5,0,0,1,4.22-2,4.3,4.3,0,0,1,3.64,1.86l.33-1.59h4v20.48h-4.62v-6.92a4.29,4.29,0,0,1-3.36,1.5,5,5,0,0,1-4.18-2A9.38,9.38,0,0,1,398.34,148.35Zm4.61.29q0,4,2.3,4a2.22,2.22,0,0,0,2.19-1.2v-5.85a2.18,2.18,0,0,0-2.16-1.18q-2.15,0-2.31,3.43Z"/><path class="cls-40" d="M423.47,154.3a4.75,4.75,0,0,1-4,1.87,4.66,4.66,0,0,1-3.68-1.42,6,6,0,0,1-1.25-4.07V141.1h4.61v9.61a1.66,1.66,0,0,0,1.85,1.9,2.41,2.41,0,0,0,2.26-1.13V141.1h4.63V155.9h-4.32Z"/><path class="cls-40" d="M436.36,149.44l2.46-8.34h4.94l-6,17.27-.26.63a4.58,4.58,0,0,1-4.54,2.87,7.22,7.22,0,0,1-1.9-.27v-3.28h.6a3.16,3.16,0,0,0,1.48-.28,1.7,1.7,0,0,0,.76-1l.37-1L429.1,141.1H434Zm.6-14.55h4.87l-3.8,4.29h-3.76Z"/><path class="cls-40" d="M457.87,150.39l-1.3,1.3v4.21H452v-21h4.61V146l.46-.62,3.47-4.32H466l-5.18,6.08,5.52,8.71H461.1Z"/><path class="cls-40" d="M471.75,142.69a5.06,5.06,0,0,1,7.46-.41,6.51,6.51,0,0,1,1.27,4.28v9.34h-4.62v-9.23a2.6,2.6,0,0,0-.48-1.73,2.06,2.06,0,0,0-1.63-.55,2.21,2.21,0,0,0-2,.9V155.9h-4.61v-21h4.61Z"/><path class="cls-40" d="M491.38,155.9a5.22,5.22,0,0,1-.44-1.33,4.28,4.28,0,0,1-3.55,1.6,5.25,5.25,0,0,1-3.55-1.26,4,4,0,0,1-1.46-3.18,4.14,4.14,0,0,1,1.78-3.64,9.05,9.05,0,0,1,5.17-1.23h1.42v-.78q0-2-1.76-2a1.44,1.44,0,0,0-1.64,1.62h-4.61a4.13,4.13,0,0,1,1.83-3.48,7.67,7.67,0,0,1,4.66-1.34,6.72,6.72,0,0,1,4.47,1.38,4.8,4.8,0,0,1,1.68,3.79v6.55a6.7,6.7,0,0,0,.63,3.12v.23Zm-1.74-21h4.87l-3.8,4.29h-3.76Zm-1.15,18a2.57,2.57,0,0,0,1.43-.37,2.32,2.32,0,0,0,.81-.83v-2.37H489.4q-2.41,0-2.41,2.16a1.32,1.32,0,0,0,.42,1A1.53,1.53,0,0,0,488.49,152.89Z"/><path class="cls-40" d="M504.16,152.61a2.05,2.05,0,0,0,1.5-.53,1.93,1.93,0,0,0,.52-1.47h4.32a5.11,5.11,0,0,1-1.74,4,6.48,6.48,0,0,1-4.49,1.56,6.57,6.57,0,0,1-5.09-2,8,8,0,0,1-1.86-5.61v-.19a9,9,0,0,1,.83-4,6,6,0,0,1,2.39-2.64,7.11,7.11,0,0,1,3.69-.92,6.4,6.4,0,0,1,4.58,1.6,5.67,5.67,0,0,1,1.7,4.33h-4.32a2.53,2.53,0,0,0-.56-1.76,1.94,1.94,0,0,0-1.5-.62q-1.79,0-2.09,2.28a16.18,16.18,0,0,0-.1,2,6.33,6.33,0,0,0,.53,3.09A1.85,1.85,0,0,0,504.16,152.61Z"/><path class="cls-40" d="M517,142.69a5.06,5.06,0,0,1,7.46-.41,6.51,6.51,0,0,1,1.27,4.28v9.34h-4.62v-9.23a2.6,2.6,0,0,0-.48-1.73,2.06,2.06,0,0,0-1.63-.55,2.21,2.21,0,0,0-2,.9V155.9h-4.61v-21H517Z"/><path class="cls-40" d="M550.28,139.28h-1.91V155.9h-4.14l-.23-1.59a4.36,4.36,0,0,1-3.61,1.86,5,5,0,0,1-4.18-2,9.32,9.32,0,0,1-1.54-5.76,9,9,0,0,1,1.52-5.54,5,5,0,0,1,4.24-2,4.25,4.25,0,0,1,3.34,1.56v-3.1H540.3v-2.61h3.45V134.9h4.62v1.78h1.91Zm-11,9.39q0,3.94,2.3,3.94a2.27,2.27,0,0,0,2.19-1.29V145.7a2.21,2.21,0,0,0-2.16-1.31q-2.13,0-2.31,3.45Z"/><path class="cls-40" d="M561.63,155.9a5.22,5.22,0,0,1-.44-1.33,4.28,4.28,0,0,1-3.55,1.6,5.25,5.25,0,0,1-3.55-1.26,4,4,0,0,1-1.46-3.18,4.14,4.14,0,0,1,1.78-3.64,9.05,9.05,0,0,1,5.17-1.23H561v-.78q0-2-1.76-2a1.44,1.44,0,0,0-1.64,1.62H553a4.13,4.13,0,0,1,1.83-3.48,7.67,7.67,0,0,1,4.66-1.34,6.72,6.72,0,0,1,4.47,1.38A4.8,4.8,0,0,1,565.6,146v6.55a6.7,6.7,0,0,0,.63,3.12v.23Zm3-20.89a4,4,0,0,1-.91,2.65,2.82,2.82,0,0,1-2.25,1.09,4.44,4.44,0,0,1-2-.57,4.19,4.19,0,0,0-1.79-.57,1,1,0,0,0-.75.3,1.25,1.25,0,0,0-.31.93l-2.56-.14a4,4,0,0,1,.91-2.62,2.79,2.79,0,0,1,2.24-1.11,4.61,4.61,0,0,1,1.79.5,10.9,10.9,0,0,0,1.4.57,2.72,2.72,0,0,0,.62.07,1,1,0,0,0,.75-.3,1.26,1.26,0,0,0,.31-.94Zm-5.84,17.88a2.57,2.57,0,0,0,1.43-.37,2.32,2.32,0,0,0,.81-.83v-2.37h-1.34q-2.41,0-2.41,2.16a1.32,1.32,0,0,0,.42,1A1.53,1.53,0,0,0,558.74,152.89Z"/><path class="cls-40" d="M582.87,151.74a1.07,1.07,0,0,0-.62-.94,9.33,9.33,0,0,0-2.34-.74,10.63,10.63,0,0,1-2.84-1,4.76,4.76,0,0,1-1.71-1.51,3.61,3.61,0,0,1-.59-2,4.09,4.09,0,0,1,1.68-3.36,6.93,6.93,0,0,1,4.4-1.32,7.68,7.68,0,0,1,4.7,1.33,4.15,4.15,0,0,1,1.78,3.49h-4.62q0-1.78-1.87-1.78a1.86,1.86,0,0,0-1.22.4,1.25,1.25,0,0,0-.49,1,1.15,1.15,0,0,0,.6,1,5.69,5.69,0,0,0,1.92.63,16.62,16.62,0,0,1,2.32.59q3.34,1.15,3.34,4.12a3.88,3.88,0,0,1-1.8,3.29,7.88,7.88,0,0,1-4.66,1.27,8,8,0,0,1-3.39-.68,5.67,5.67,0,0,1-2.32-1.86,4.21,4.21,0,0,1-.83-2.47h4.31a1.78,1.78,0,0,0,.68,1.5,2.81,2.81,0,0,0,1.68.47,2.21,2.21,0,0,0,1.42-.38A1.22,1.22,0,0,0,582.87,151.74Z"/><path class="cls-40" d="M606.62,139.75a6,6,0,0,1-.94,3.69,4.42,4.42,0,0,1-2.94,1.56v10.9h-4.32l-.14-1.6a4.75,4.75,0,0,1-4,1.87,4.66,4.66,0,0,1-3.68-1.42,6,6,0,0,1-1.25-4.07V141.1H594v9.61a1.66,1.66,0,0,0,1.85,1.9,2.4,2.4,0,0,0,2.26-1.13V141.1h4.63v1.82a1.88,1.88,0,0,0,1.07-1,5.58,5.58,0,0,0,.31-2.17Zm-12.39-.9-.3-1.72q1.87-.08,1.87-.86t-1.85-.9l.1-2a10.1,10.1,0,0,1,4.29.71,2.18,2.18,0,0,1,1.45,2,1.68,1.68,0,0,1-.55,1.28,2.69,2.69,0,0,1-1.5.65v.85Z"/><path class="cls-40" d="M612.69,148.39a9,9,0,0,1,1.52-5.54,5,5,0,0,1,4.24-2,4.25,4.25,0,0,1,3.34,1.56V134.9h4.62v21h-4.14l-.23-1.59a4.36,4.36,0,0,1-3.61,1.86,5,5,0,0,1-4.18-2A9.33,9.33,0,0,1,612.69,148.39Zm4.61.29q0,3.94,2.3,3.94a2.27,2.27,0,0,0,2.19-1.29V145.7a2.21,2.21,0,0,0-2.16-1.31q-2.13,0-2.31,3.45Z"/><path class="cls-40" d="M637.83,154.3a4.75,4.75,0,0,1-4,1.87,4.66,4.66,0,0,1-3.68-1.42,6,6,0,0,1-1.25-4.07V141.1h4.61v9.61a1.66,1.66,0,0,0,1.85,1.9,2.4,2.4,0,0,0,2.26-1.13V141.1h4.63V155.9H638ZM631.38,159a1.78,1.78,0,0,1,.73-1.46,3.19,3.19,0,0,1,3.65,0,1.83,1.83,0,0,1,0,2.93,3.19,3.19,0,0,1-3.65,0A1.78,1.78,0,0,1,631.38,159Z"/><path class="cls-40" d="M649,141.1l.15,1.74a5,5,0,0,1,4.22-2,4.22,4.22,0,0,1,3.45,1.38,6.58,6.58,0,0,1,1.18,4.16v9.53h-4.62v-9.34a2.5,2.5,0,0,0-.45-1.65,2.09,2.09,0,0,0-1.64-.53,2.2,2.2,0,0,0-2,1.07V155.9h-4.61V141.1Z"/><path class="cls-40" d="M660.06,148.39a10,10,0,0,1,.74-4,6,6,0,0,1,2.12-2.66,5.59,5.59,0,0,1,3.21-.94,4.44,4.44,0,0,1,3.61,1.56l.16-1.29h4.18v14.23a6.24,6.24,0,0,1-.91,3.4,5.84,5.84,0,0,1-2.63,2.21,9.68,9.68,0,0,1-4,.77,8.34,8.34,0,0,1-3.15-.62,5.69,5.69,0,0,1-2.33-1.6L663,156.8a4.23,4.23,0,0,0,3.39,1.52q3.06,0,3.06-3.14v-.46a4.32,4.32,0,0,1-3.35,1.46,5.35,5.35,0,0,1-4.37-2.07,8.58,8.58,0,0,1-1.67-5.54Zm4.62.29a5.27,5.27,0,0,0,.68,2.88,2.16,2.16,0,0,0,1.91,1.06,2.45,2.45,0,0,0,2.17-1V145.4a2.38,2.38,0,0,0-2.15-1,2.17,2.17,0,0,0-1.93,1.1A6,6,0,0,0,664.68,148.68Z"/><path class="cls-40" d="M683.1,148.39a9,9,0,0,1,1.52-5.54,5,5,0,0,1,4.24-2,4.25,4.25,0,0,1,3.34,1.56V134.9h4.62v21h-4.14l-.23-1.59a4.36,4.36,0,0,1-3.61,1.86,5,5,0,0,1-4.18-2A9.33,9.33,0,0,1,683.1,148.39Zm4.61.29q0,3.94,2.3,3.94a2.27,2.27,0,0,0,2.19-1.29V145.7a2.21,2.21,0,0,0-2.16-1.31q-2.13,0-2.31,3.45Z"/><path class="cls-40" d="M699.4,137.29a2.06,2.06,0,0,1,.71-1.61,3,3,0,0,1,3.69,0,2.19,2.19,0,0,1,0,3.23,3,3,0,0,1-3.69,0A2.06,2.06,0,0,1,699.4,137.29Zm0,21.62a1.78,1.78,0,0,1,.73-1.46,3.19,3.19,0,0,1,3.65,0,1.83,1.83,0,0,1,0,2.93,3.19,3.19,0,0,1-3.65,0A1.78,1.78,0,0,1,699.44,158.9Zm4.85-3h-4.62V141.1h4.62Z"/><path class="cls-40" d="M713.38,152.61a2,2,0,0,0,1.5-.53,1.93,1.93,0,0,0,.52-1.47h4.32a5.11,5.11,0,0,1-1.74,4,6.49,6.49,0,0,1-4.49,1.56,6.57,6.57,0,0,1-5.09-2,8,8,0,0,1-1.86-5.61v-.19a9,9,0,0,1,.83-4,6,6,0,0,1,2.38-2.64,7.11,7.11,0,0,1,3.69-.92,6.4,6.4,0,0,1,4.58,1.6,5.67,5.67,0,0,1,1.7,4.33h-4.32a2.52,2.52,0,0,0-.56-1.76,1.93,1.93,0,0,0-1.5-.62q-1.79,0-2.09,2.28a16.38,16.38,0,0,0-.1,2,6.33,6.33,0,0,0,.53,3.09A1.85,1.85,0,0,0,713.38,152.61Z"/><path class="cls-40" d="M726.18,142.69a5.06,5.06,0,0,1,7.46-.41,6.5,6.5,0,0,1,1.27,4.28v9.34h-4.62v-9.23a2.6,2.6,0,0,0-.48-1.73,2.06,2.06,0,0,0-1.63-.55,2.22,2.22,0,0,0-2,.9V155.9h-4.61v-21h4.61Z"/><path class="cls-40" d="M750.35,150.41l2.34-9.31h4.85l-4.83,14.79H748l-4.83-14.79h4.87Z"/><path class="cls-40" d="M767.73,154.3a4.75,4.75,0,0,1-4,1.87,4.66,4.66,0,0,1-3.68-1.42,6,6,0,0,1-1.25-4.07V141.1h4.61v9.61a1.66,1.66,0,0,0,1.85,1.9,2.4,2.4,0,0,0,2.26-1.13V141.1h4.63V155.9h-4.32ZM761.28,159a1.78,1.78,0,0,1,.73-1.46,3.19,3.19,0,0,1,3.65,0,1.83,1.83,0,0,1,0,2.93,3.19,3.19,0,0,1-3.65,0A1.78,1.78,0,0,1,761.28,159Z"/><path class="cls-40" d="M787.94,152.61a2,2,0,0,0,1.5-.53,1.93,1.93,0,0,0,.52-1.47h4.32a5.11,5.11,0,0,1-1.74,4,6.49,6.49,0,0,1-4.49,1.56,6.57,6.57,0,0,1-5.09-2,8,8,0,0,1-1.86-5.61v-.19a9,9,0,0,1,.83-4,6,6,0,0,1,2.38-2.64,7.11,7.11,0,0,1,3.69-.92,6.4,6.4,0,0,1,4.58,1.6,5.67,5.67,0,0,1,1.7,4.33H790a2.52,2.52,0,0,0-.56-1.76,1.93,1.93,0,0,0-1.5-.62q-1.79,0-2.09,2.28a16.38,16.38,0,0,0-.1,2,6.33,6.33,0,0,0,.53,3.09A1.85,1.85,0,0,0,787.94,152.61Z"/><path class="cls-40" d="M805,154.3a4.75,4.75,0,0,1-4,1.87,4.66,4.66,0,0,1-3.68-1.42,6,6,0,0,1-1.25-4.07V141.1h4.61v9.61a1.66,1.66,0,0,0,1.85,1.9,2.4,2.4,0,0,0,2.26-1.13V141.1h4.63V155.9h-4.32Zm-4-15.74-.3-1.72q1.88-.08,1.87-.86t-1.85-.9l.1-2a10.1,10.1,0,0,1,4.29.71,2.18,2.18,0,0,1,1.45,2,1.68,1.68,0,0,1-.55,1.28,2.69,2.69,0,0,1-1.5.65v.85Z"/><path class="cls-40" d="M820.35,155.9a5.26,5.26,0,0,1-.44-1.33,4.28,4.28,0,0,1-3.55,1.6,5.25,5.25,0,0,1-3.55-1.26,4,4,0,0,1-1.46-3.18,4.14,4.14,0,0,1,1.78-3.64,9.06,9.06,0,0,1,5.17-1.23h1.42v-.78q0-2-1.76-2a1.44,1.44,0,0,0-1.64,1.62H811.7a4.13,4.13,0,0,1,1.83-3.48,7.67,7.67,0,0,1,4.65-1.34,6.72,6.72,0,0,1,4.47,1.38,4.8,4.8,0,0,1,1.68,3.79v6.55a6.73,6.73,0,0,0,.63,3.12v.23Zm-2.88-3a2.57,2.57,0,0,0,1.43-.37,2.32,2.32,0,0,0,.81-.83v-2.37h-1.34q-2.41,0-2.41,2.16a1.32,1.32,0,0,0,.42,1A1.53,1.53,0,0,0,817.47,152.89Z"/><path class="cls-40" d="M847.59,148.62a9,9,0,0,1-1.5,5.59,5,5,0,0,1-4.24,2,4.37,4.37,0,0,1-3.64-1.79L838,155.9h-4.13v-21h4.61v7.4a4.22,4.22,0,0,1,3.32-1.46,5,5,0,0,1,4.27,2,9.05,9.05,0,0,1,1.5,5.58Zm-4.62-.29a6,6,0,0,0-.57-3,1.91,1.91,0,0,0-1.74-.91,2.21,2.21,0,0,0-2.16,1.19v5.87a2.22,2.22,0,0,0,2.19,1.17,2,2,0,0,0,2.06-1.58A11.34,11.34,0,0,0,843,148.33Z"/><path class="cls-40" d="M849.58,137.29a2.06,2.06,0,0,1,.71-1.61,3,3,0,0,1,3.69,0,2.19,2.19,0,0,1,0,3.23,3,3,0,0,1-3.69,0A2.06,2.06,0,0,1,849.58,137.29Zm4.89,18.61h-4.62V141.1h4.62Z"/><path class="cls-40" d="M861.82,142.69a5.06,5.06,0,0,1,7.46-.41,6.5,6.5,0,0,1,1.27,4.28v9.34h-4.62v-9.23a2.6,2.6,0,0,0-.48-1.73,2.06,2.06,0,0,0-1.63-.55,2.22,2.22,0,0,0-2,.9V155.9h-4.61v-21h4.61Z"/><path class="cls-40" d="M881.45,155.9a5.26,5.26,0,0,1-.44-1.33,4.28,4.28,0,0,1-3.55,1.6,5.25,5.25,0,0,1-3.55-1.26,4,4,0,0,1-1.46-3.18,4.14,4.14,0,0,1,1.78-3.64,9.06,9.06,0,0,1,5.17-1.23h1.42v-.78q0-2-1.76-2a1.44,1.44,0,0,0-1.64,1.62H872.8a4.13,4.13,0,0,1,1.83-3.48,7.67,7.67,0,0,1,4.65-1.34,6.72,6.72,0,0,1,4.47,1.38,4.8,4.8,0,0,1,1.68,3.79v6.55a6.73,6.73,0,0,0,.63,3.12v.23Zm-2.88-3a2.57,2.57,0,0,0,1.43-.37,2.32,2.32,0,0,0,.81-.83v-2.37h-1.34q-2.41,0-2.41,2.16a1.32,1.32,0,0,0,.42,1A1.53,1.53,0,0,0,878.57,152.89Z"/><path class="cls-40" d="M892.33,141.1l.15,1.74a5.09,5.09,0,0,1,4.22-2,3.74,3.74,0,0,1,3.79,2.23,4.93,4.93,0,0,1,4.35-2.23q4.5,0,4.62,5.44v9.63h-4.62v-9.34a2.82,2.82,0,0,0-.38-1.65,1.63,1.63,0,0,0-1.39-.52,2.18,2.18,0,0,0-2,1.22V155.9h-4.62v-9.31a3,3,0,0,0-.37-1.68,1.62,1.62,0,0,0-1.41-.52,2.21,2.21,0,0,0-2,1.22V155.9H888V141.1Z"/><path class="cls-40" d="M920.43,155.9a5.26,5.26,0,0,1-.44-1.33,4.28,4.28,0,0,1-3.55,1.6,5.25,5.25,0,0,1-3.55-1.26,4,4,0,0,1-1.46-3.18,4.14,4.14,0,0,1,1.78-3.64,9.06,9.06,0,0,1,5.17-1.23h1.42v-.78q0-2-1.76-2a1.44,1.44,0,0,0-1.64,1.62h-4.61a4.13,4.13,0,0,1,1.83-3.48,7.67,7.67,0,0,1,4.65-1.34,6.72,6.72,0,0,1,4.47,1.38,4.8,4.8,0,0,1,1.68,3.79v6.55a6.73,6.73,0,0,0,.63,3.12v.23Zm-2.88-3a2.57,2.57,0,0,0,1.43-.37,2.32,2.32,0,0,0,.81-.83v-2.37h-1.34q-2.41,0-2.41,2.16a1.32,1.32,0,0,0,.42,1A1.53,1.53,0,0,0,917.54,152.89Z"/><path class="cls-40" d="M927.07,153.83a2.12,2.12,0,0,1,.73-1.66,2.89,2.89,0,0,1,3.65,0,2.25,2.25,0,0,1,0,3.32,2.89,2.89,0,0,1-3.65,0A2.12,2.12,0,0,1,927.07,153.83Zm4.46-4.24H927.8l-.59-13.6h4.91Z"/></g></g></svg>