<svg xmlns="http://www.w3.org/2000/svg" xmlns:xlink="http://www.w3.org/1999/xlink" viewBox="0 0 1200 500"><defs><style>.cls-1{fill:url(#radial-gradient);}.cls-2{isolation:isolate;}.cls-3,.cls-6{fill:#0e3359;}.cls-4{fill:#feda8e;}.cls-5{fill:#545d5e;}.cls-26,.cls-6{opacity:0.5;}.cls-7{fill:#ccc;}.cls-8{fill:#d8d8d8;}.cls-9{fill:#1a1a1a;}.cls-10{fill:url(#åçûìßííûé_ãðàäèåíò_5);}.cls-11{fill:#f3f3f3;}.cls-12{fill:#d1d1d1;}.cls-13{fill:#313946;}.cls-14{fill:#333;}.cls-15{mask:url(#mask);}.cls-16{opacity:0.25;mix-blend-mode:multiply;fill:url(#linear-gradient);}.cls-17{fill:url(#îâûé_îáðàçåö_ãðàäèåíòà_25);}.cls-18{fill:url(#îâûé_îáðàçåö_ãðàäèåíòà_25-2);}.cls-19{fill:#fff;}.cls-20{fill:#f2f2f2;}.cls-21{fill:url(#îâûé_îáðàçåö_ãðàäèåíòà_25-3);}.cls-22{fill:url(#îâûé_îáðàçåö_ãðàäèåíòà_25-4);}.cls-23{fill:url(#îâûé_îáðàçåö_ãðàäèåíòà_25-5);}.cls-24{opacity:0.03;}.cls-25,.cls-26{fill:#f6af33;}.cls-25{opacity:0.4;}.cls-27{fill:#ea290a;}.cls-28{fill:#fbc0a4;}.cls-29{fill:#f8e8d8;}.cls-30{fill:#f69d7d;}.cls-31{fill:url(#linear-gradient-2);}.cls-32{fill:#3e3533;}.cls-33{fill:url(#linear-gradient-3);}.cls-34{fill:#302624;}.cls-35{fill:#330e00;}.cls-36{fill:url(#linear-gradient-4);}.cls-37{fill:url(#linear-gradient-5);}.cls-38{fill:#f84511;}.cls-39{fill:#cb4453;}.cls-40{fill:#dd5664;}.cls-41{fill:url(#radial-gradient-2);}.cls-42{fill:url(#radial-gradient-3);}.cls-43{fill:url(#linear-gradient-6);}.cls-44{fill:url(#linear-gradient-7);}.cls-45{fill:url(#linear-gradient-8);}.cls-46{fill:url(#linear-gradient-9);}.cls-47{fill:#e79355;}.cls-48{fill:#b07347;}.cls-49{fill:#ffbd9b;}</style><radialGradient id="radial-gradient" cx="1644.29" cy="21.3" r="21.27" gradientTransform="matrix(0, -4.74, 3.14, 0, 587.78, 8201.18)" gradientUnits="userSpaceOnUse"><stop offset="0" stop-color="#fff"/><stop offset="0.16" stop-color="#fcfcfc"/><stop offset="0.29" stop-color="#f2f2f2"/><stop offset="0.41" stop-color="#e1e1e1"/><stop offset="0.52" stop-color="#c9c9c9"/><stop offset="0.63" stop-color="#aaa"/><stop offset="0.74" stop-color="#848484"/><stop offset="0.84" stop-color="#575757"/><stop offset="0.94" stop-color="#242424"/><stop offset="1"/></radialGradient><linearGradient id="åçûìßííûé_ãðàäèåíò_5" x1="650.3" y1="233.72" x2="650.3" y2="640.46" gradientUnits="userSpaceOnUse"><stop offset="0" stop-color="#a7d63f"/><stop offset="0.07" stop-color="#9fd440"/><stop offset="1" stop-color="#39b54a"/></linearGradient><mask id="mask" x="548.67" y="389.11" width="207.16" height="39.85" maskUnits="userSpaceOnUse"><rect class="cls-1" x="642.98" y="297.47" width="21.04" height="204.63" transform="matrix(0, -1, 1, 0, 252.72, 1052.67)"/></mask><linearGradient id="linear-gradient" x1="500.8" y1="-244.18" x2="500.8" y2="-207.53" gradientTransform="translate(425.35 -87.9) rotate(89.91)" gradientUnits="userSpaceOnUse"><stop offset="0" stop-color="#71756f"/><stop offset="0.03" stop-color="#828680"/><stop offset="0.1" stop-color="#a3a6a2"/><stop offset="0.18" stop-color="#c0c2bf"/><stop offset="0.27" stop-color="#d7d8d7"/><stop offset="0.37" stop-color="#e9eae9"/><stop offset="0.49" stop-color="#f6f6f6"/><stop offset="0.65" stop-color="#fdfdfd"/><stop offset="1" stop-color="#fff"/></linearGradient><linearGradient id="îâûé_îáðàçåö_ãðàäèåíòà_25" x1="651.01" y1="391.41" x2="651.01" y2="183.8" gradientUnits="userSpaceOnUse"><stop offset="0" stop-color="#ffd03f"/><stop offset="0.2" stop-color="#fdca3a"/><stop offset="0.46" stop-color="#f6b82b"/><stop offset="0.77" stop-color="#eb9c12"/><stop offset="0.9" stop-color="#e58e06"/><stop offset="1" stop-color="#df8800"/></linearGradient><linearGradient id="îâûé_îáðàçåö_ãðàäèåíòà_25-2" x1="651.01" y1="267.71" x2="651.01" y2="132.28" xlink:href="#îâûé_îáðàçåö_ãðàäèåíòà_25"/><linearGradient id="îâûé_îáðàçåö_ãðàäèåíòà_25-3" x1="651.01" y1="255.32" x2="651.01" y2="401.72" xlink:href="#îâûé_îáðàçåö_ãðàäèåíòà_25"/><linearGradient id="îâûé_îáðàçåö_ãðàäèåíòà_25-4" x1="651.01" y1="304.84" x2="651.01" y2="428.22" xlink:href="#îâûé_îáðàçåö_ãðàäèåíòà_25"/><linearGradient id="îâûé_îáðàçåö_ãðàäèåíòà_25-5" x1="651.01" y1="304.84" x2="651.01" y2="428.22" xlink:href="#îâûé_îáðàçåö_ãðàäèåíòà_25"/><linearGradient id="linear-gradient-2" x1="1578.57" y1="130.86" x2="1617.83" y2="130.86" gradientTransform="matrix(-1, 0, 0, 1, 1896.81, 0)" gradientUnits="userSpaceOnUse"><stop offset="0" stop-color="#5c251c"/><stop offset="0.19" stop-color="#61271e"/><stop offset="1" stop-color="#722f27"/></linearGradient><linearGradient id="linear-gradient-3" x1="223.1" y1="191.23" x2="237.24" y2="179.18" gradientUnits="userSpaceOnUse"><stop offset="0" stop-color="#302624" stop-opacity="0.5"/><stop offset="0.24" stop-color="#302624" stop-opacity="0.36"/><stop offset="0.99" stop-color="#302624" stop-opacity="0"/></linearGradient><linearGradient id="linear-gradient-4" x1="175.67" y1="186.62" x2="180.66" y2="244.29" xlink:href="#linear-gradient-3"/><linearGradient id="linear-gradient-5" x1="179.02" y1="149" x2="201.27" y2="209.77" gradientUnits="userSpaceOnUse"><stop offset="0" stop-color="#cfd4d8"/><stop offset="0.33" stop-color="#cfd4d8" stop-opacity="0.63"/><stop offset="0.65" stop-color="#cfd4d8" stop-opacity="0.29"/><stop offset="0.88" stop-color="#cfd4d8" stop-opacity="0.08"/><stop offset="1" stop-color="#cfd4d8" stop-opacity="0"/></linearGradient><radialGradient id="radial-gradient-2" cx="-619.9" cy="167.05" r="6.16" gradientTransform="matrix(-1, 0, 0, 1, -460.13, -59.03)" gradientUnits="userSpaceOnUse"><stop offset="0" stop-color="#f69d7d" stop-opacity="0.7"/><stop offset="0.14" stop-color="#f69d7d" stop-opacity="0.63"/><stop offset="0.42" stop-color="#f69d7d" stop-opacity="0.44"/><stop offset="0.81" stop-color="#f69d7d" stop-opacity="0.15"/><stop offset="1" stop-color="#f69d7d" stop-opacity="0"/></radialGradient><radialGradient id="radial-gradient-3" cx="-647.77" cy="167.05" r="6.16" gradientTransform="matrix(-1, 0, 0, 1, -460.16, -60.28)" xlink:href="#radial-gradient-2"/><linearGradient id="linear-gradient-6" x1="-593.01" y1="100.69" x2="-588.41" y2="98.11" gradientTransform="matrix(-1, 0, 0, 1, -448.37, 0)" gradientUnits="userSpaceOnUse"><stop offset="0" stop-color="#f69d7d"/><stop offset="0.23" stop-color="#f69d7d" stop-opacity="0.93"/><stop offset="0.68" stop-color="#f69d7d" stop-opacity="0.75"/><stop offset="1" stop-color="#f69d7d" stop-opacity="0.6"/></linearGradient><linearGradient id="linear-gradient-7" x1="-323.45" y1="327.34" x2="-325.93" y2="453.23" gradientTransform="matrix(-1, 0, 0, 1, -113.38, 0)" xlink:href="#linear-gradient-3"/><linearGradient id="linear-gradient-8" x1="-276.03" y1="328.27" x2="-278.51" y2="454.17" gradientTransform="matrix(-1, 0, 0, 1, -113.38, 0)" xlink:href="#linear-gradient-3"/><linearGradient id="linear-gradient-9" x1="168.61" y1="76.46" x2="164.78" y2="57.62" gradientUnits="userSpaceOnUse"><stop offset="0" stop-color="#f8e8d8" stop-opacity="0.2"/><stop offset="0.41" stop-color="#f8e8d8" stop-opacity="0.13"/><stop offset="1" stop-color="#f8e8d8" stop-opacity="0"/></linearGradient></defs><title>mail</title><g class="cls-2"><g id="Layer_4" data-name="Layer 4"><path class="cls-3" d="M333.2,118.19V107.53h-3v-3h3V94h7.44a11.3,11.3,0,0,1,5.7,1.44,10,10,0,0,1,3.93,4.08,12.6,12.6,0,0,1,1.41,6v1.11a12.63,12.63,0,0,1-1.39,6,9.93,9.93,0,0,1-3.91,4.07,11.38,11.38,0,0,1-5.69,1.46Zm8.62-10.66h-3.64v6.66h2.41a5.39,5.39,0,0,0,4.5-2,8.79,8.79,0,0,0,1.54-5.57v-1.13A8.76,8.76,0,0,0,345.1,100a5.39,5.39,0,0,0-4.47-1.9h-2.46v6.44h3.64Z"/><path class="cls-3" d="M364.71,118.19a5.33,5.33,0,0,1-.48-1.61,5.81,5.81,0,0,1-4.53,1.94,6.38,6.38,0,0,1-4.37-1.53,4.91,4.91,0,0,1-1.73-3.85,5.08,5.08,0,0,1,2.12-4.38,10.45,10.45,0,0,1,6.12-1.54H364v-1a3,3,0,0,0-.64-2,2.51,2.51,0,0,0-2-.75,2.86,2.86,0,0,0-1.9.58,2,2,0,0,0-.69,1.59H354a4.82,4.82,0,0,1,1-2.89,6.37,6.37,0,0,1,2.72-2.08,9.92,9.92,0,0,1,4-.76,7.84,7.84,0,0,1,5.27,1.67,5.84,5.84,0,0,1,2,4.69V114a8.57,8.57,0,0,0,.71,3.87v.28Zm2.66-25.32a4.45,4.45,0,0,1-1.59,3.56,7.09,7.09,0,0,1-8.32,0,4.44,4.44,0,0,1-1.59-3.57h3.4a2.09,2.09,0,0,0,.62,1.62,2.44,2.44,0,0,0,1.72.57,2.39,2.39,0,0,0,1.69-.57,2.11,2.11,0,0,0,.61-1.62Zm-6.62,22a4.13,4.13,0,0,0,2-.47,3.11,3.11,0,0,0,1.33-1.27V110h-1.79q-3.6,0-3.83,2.49l0,.28a1.92,1.92,0,0,0,.63,1.48A2.45,2.45,0,0,0,360.74,114.85Z"/><path class="cls-3" d="M376.26,100.22l.15,2.08a6.27,6.27,0,0,1,5.16-2.41,5.21,5.21,0,0,1,4.25,1.68,7.83,7.83,0,0,1,1.43,5v11.6h-4.8V106.7a3.11,3.11,0,0,0-.66-2.22,3,3,0,0,0-2.21-.69,3.3,3.3,0,0,0-3,1.73v12.67h-4.8v-18Z"/><path class="cls-3" d="M389.51,109.07a10.52,10.52,0,0,1,2-6.66,6.37,6.37,0,0,1,5.3-2.52,5.59,5.59,0,0,1,4.6,2l.2-1.69h4.35v17.37a7.69,7.69,0,0,1-1.07,4.1,6.88,6.88,0,0,1-3,2.66,10.6,10.6,0,0,1-4.55.91,9.86,9.86,0,0,1-3.85-.79,6.84,6.84,0,0,1-2.84-2l2.13-2.92a5.62,5.62,0,0,0,4.35,2,4.11,4.11,0,0,0,3-1,3.83,3.83,0,0,0,1.06-2.9v-1a5.55,5.55,0,0,1-4.37,1.88,6.36,6.36,0,0,1-5.24-2.53,10.52,10.52,0,0,1-2-6.72Zm4.8.36a6.55,6.55,0,0,0,1,3.83,3.12,3.12,0,0,0,2.69,1.39,3.33,3.33,0,0,0,3.14-1.65v-7.57a3.32,3.32,0,0,0-3.1-1.65,3.13,3.13,0,0,0-2.71,1.41A7.38,7.38,0,0,0,394.31,109.43Z"/><path class="cls-3" d="M423.25,111l-1.73,1.73v5.48h-4.8V92.69h4.8v14.13l.93-1.2,4.6-5.4h5.76l-6.49,7.49,7.06,10.48h-5.51Z"/><path class="cls-3" d="M440.91,111.4l3.32-11.17h5.15L442.16,121l-.4.95a5.48,5.48,0,0,1-5.31,3.52,7.56,7.56,0,0,1-2.12-.32v-3.64l.73,0a4,4,0,0,0,2-.42,2.72,2.72,0,0,0,1.05-1.38l.56-1.48-6.29-18h5.16Zm1-18.71h5.23l-4.6,5.15h-3.9Z"/><path class="cls-3" d="M464.12,95.81v4.42h3.07v3.52h-3.07v9a2.14,2.14,0,0,0,.38,1.43,1.92,1.92,0,0,0,1.46.43,7.59,7.59,0,0,0,1.41-.12v3.64a9.86,9.86,0,0,1-2.91.43q-5,0-5.15-5.1v-9.68H456.7v-3.52h2.62V95.81Z"/><path class="cls-3" d="M473.87,102.18a6,6,0,0,1,4.8-2.29q5.84,0,5.93,6.79v11.5h-4.8V106.82a3.34,3.34,0,0,0-.66-2.28,2.85,2.85,0,0,0-2.21-.74,3.27,3.27,0,0,0-3.05,1.63v12.77h-4.8V92.69h4.8Z"/><path class="cls-3" d="M497.94,118.19a5.31,5.31,0,0,1-.48-1.61,5.81,5.81,0,0,1-4.53,1.94,6.38,6.38,0,0,1-4.37-1.53,4.91,4.91,0,0,1-1.73-3.85,5.08,5.08,0,0,1,2.12-4.38,10.45,10.45,0,0,1,6.12-1.54h2.21v-1a3,3,0,0,0-.64-2,2.51,2.51,0,0,0-2-.75,2.87,2.87,0,0,0-1.9.58,2,2,0,0,0-.69,1.59h-4.8a4.82,4.82,0,0,1,1-2.89,6.37,6.37,0,0,1,2.72-2.08,9.92,9.92,0,0,1,4-.76,7.84,7.84,0,0,1,5.27,1.67,5.84,5.84,0,0,1,2,4.69V114a8.58,8.58,0,0,0,.71,3.87v.28ZM493.46,94h2.71l4.73,3.81h-3.59l-2.51-2.09-2.51,2.09h-3.57Zm.51,20.83a4.13,4.13,0,0,0,2-.47,3.11,3.11,0,0,0,1.33-1.27V110h-1.79q-3.6,0-3.83,2.49l0,.28a1.92,1.92,0,0,0,.63,1.48A2.45,2.45,0,0,0,494,114.85Zm8.4-23.76h3.83l-3.77,4.52h-2.77Z"/><path class="cls-3" d="M510.82,95.81v4.42h3.07v3.52h-3.07v9a2.14,2.14,0,0,0,.38,1.43,1.92,1.92,0,0,0,1.46.43,7.59,7.59,0,0,0,1.41-.12v3.64a9.86,9.86,0,0,1-2.91.43q-5,0-5.15-5.1v-9.68H503.4v-3.52H506V95.81Z"/><path class="cls-3" d="M539.86,109.37A10.88,10.88,0,0,1,538,116.1a6.1,6.1,0,0,1-5.15,2.42,5.61,5.61,0,0,1-4.67-2.24l-.22,1.91h-4.32V92.69h4.8v9.15a5.46,5.46,0,0,1,4.37-1.94,6.16,6.16,0,0,1,5.16,2.42,10.9,10.9,0,0,1,1.87,6.8Zm-4.8-.35a7.15,7.15,0,0,0-.86-4,2.92,2.92,0,0,0-2.57-1.25,3.17,3.17,0,0,0-3.15,1.88v7.09a3.21,3.21,0,0,0,3.19,1.89,3,3,0,0,0,3.05-2.29A11.82,11.82,0,0,0,535.06,109Z"/><path class="cls-3" d="M552.55,118.19a5.31,5.31,0,0,1-.48-1.61,5.81,5.81,0,0,1-4.53,1.94,6.38,6.38,0,0,1-4.37-1.53,4.91,4.91,0,0,1-1.73-3.85,5.08,5.08,0,0,1,2.12-4.38,10.45,10.45,0,0,1,6.12-1.54h2.21v-1a3,3,0,0,0-.64-2,2.51,2.51,0,0,0-2-.75,2.87,2.87,0,0,0-1.9.58,2,2,0,0,0-.69,1.59h-4.8a4.82,4.82,0,0,1,1-2.89,6.37,6.37,0,0,1,2.72-2.08,9.92,9.92,0,0,1,4-.76,7.84,7.84,0,0,1,5.27,1.67,5.84,5.84,0,0,1,2,4.69V114a8.58,8.58,0,0,0,.71,3.87v.28Zm-7,3.62a2.08,2.08,0,0,1,.75-1.64,3.21,3.21,0,0,1,3.87,0,2.08,2.08,0,0,1,.75,1.64,2.12,2.12,0,0,1-.74,1.64,2.81,2.81,0,0,1-2,.66,2.78,2.78,0,0,1-1.94-.66A2.13,2.13,0,0,1,545.51,121.81Zm3.07-7a4.13,4.13,0,0,0,2-.47,3.11,3.11,0,0,0,1.33-1.27V110h-1.79q-3.6,0-3.83,2.49l0,.28a1.92,1.92,0,0,0,.63,1.48A2.45,2.45,0,0,0,548.58,114.85Z"/><path class="cls-3" d="M559.65,95.58a2.37,2.37,0,0,1,.72-1.78,3.11,3.11,0,0,1,3.93,0,2.53,2.53,0,0,1,0,3.57,3.08,3.08,0,0,1-3.9,0A2.35,2.35,0,0,1,559.65,95.58Zm5.1,22.61h-4.81v-18h4.81Z"/><path class="cls-3" d="M568.27,115.83A2.42,2.42,0,0,1,569,114a3,3,0,0,1,3.88,0,2.41,2.41,0,0,1,.77,1.86,2.38,2.38,0,0,1-.76,1.83,3.05,3.05,0,0,1-3.9,0A2.38,2.38,0,0,1,568.27,115.83Z"/><path class="cls-3" d="M594.25,112.19,599.73,94h5.54l-8.42,24.17h-5.2L583.28,94h5.53Z"/><path class="cls-3" d="M616.85,116.36a6,6,0,0,1-4.91,2.16,5.67,5.67,0,0,1-4.41-1.66A7.08,7.08,0,0,1,606,112V100.22h4.8v11.62q0,2.81,2.56,2.81a3.46,3.46,0,0,0,3.35-1.7V100.22h4.81v18H617Z"/><path class="cls-3" d="M624.4,95.58a2.37,2.37,0,0,1,.72-1.78,3.11,3.11,0,0,1,3.93,0,2.53,2.53,0,0,1,0,3.57,3.08,3.08,0,0,1-3.9,0A2.35,2.35,0,0,1,624.4,95.58Zm5.1,22.61h-4.81v-18h4.81Z"/><path class="cls-3" d="M645.62,118.19h-4.81V92.69h4.81Z"/><path class="cls-3" d="M648.14,109a10.65,10.65,0,0,1,1-4.76,7.54,7.54,0,0,1,3-3.24,8.65,8.65,0,0,1,4.49-1.15,8.18,8.18,0,0,1,5.93,2.22,8.93,8.93,0,0,1,2.57,6l0,1.23a9.39,9.39,0,0,1-2.31,6.63,8.94,8.94,0,0,1-12.39,0,9.55,9.55,0,0,1-2.32-6.77ZM659,97.83h-3.93l-4.58-5.15h5.23Zm-6.06,11.55a6.72,6.72,0,0,0,1,3.92,3.46,3.46,0,0,0,5.48,0,7.35,7.35,0,0,0,1-4.28,6.65,6.65,0,0,0-1-3.89,3.18,3.18,0,0,0-2.76-1.38,3.13,3.13,0,0,0-2.72,1.37A7.47,7.47,0,0,0,652.94,109.38Z"/><path class="cls-3" d="M671.85,100.22l.15,2.08a6.27,6.27,0,0,1,5.16-2.41,5.21,5.21,0,0,1,4.25,1.68,7.83,7.83,0,0,1,1.43,5v11.6H678V106.7a3.11,3.11,0,0,0-.66-2.22,3,3,0,0,0-2.21-.69,3.3,3.3,0,0,0-3,1.73v12.67h-4.8v-18Z"/><path class="cls-3" d="M685.1,109.07a10.52,10.52,0,0,1,2-6.66,6.37,6.37,0,0,1,5.3-2.52,5.59,5.59,0,0,1,4.6,2l.2-1.69h4.35v17.37a7.69,7.69,0,0,1-1.07,4.1,6.88,6.88,0,0,1-3,2.66,10.6,10.6,0,0,1-4.55.91,9.86,9.86,0,0,1-3.85-.79,6.84,6.84,0,0,1-2.84-2l2.13-2.92a5.62,5.62,0,0,0,4.35,2,4.11,4.11,0,0,0,3-1,3.83,3.83,0,0,0,1.06-2.9v-1a5.55,5.55,0,0,1-4.37,1.88A6.36,6.36,0,0,1,687.1,116a10.52,10.52,0,0,1-2-6.72Zm4.8.36a6.55,6.55,0,0,0,1,3.83,3.12,3.12,0,0,0,2.69,1.39,3.33,3.33,0,0,0,3.14-1.65v-7.57a3.32,3.32,0,0,0-3.1-1.65,3.13,3.13,0,0,0-2.71,1.41A7.38,7.38,0,0,0,689.9,109.43Z"/><path class="cls-3" d="M718.06,95.81v4.42h3.07v3.52h-3.07v9a2.14,2.14,0,0,0,.38,1.43,1.92,1.92,0,0,0,1.46.43,7.59,7.59,0,0,0,1.41-.12v3.64a9.86,9.86,0,0,1-2.91.43q-5,0-5.15-5.1v-9.68h-2.62v-3.52h2.62V95.81Z"/><path class="cls-3" d="M727.8,102.18a6,6,0,0,1,4.8-2.29q5.84,0,5.93,6.79v11.5h-4.8V106.82a3.34,3.34,0,0,0-.66-2.28,2.85,2.85,0,0,0-2.21-.74,3.27,3.27,0,0,0-3.05,1.63v12.77H723V92.69h4.8Z"/><path class="cls-3" d="M761.79,98.65a7,7,0,0,1-1.19,4.47,5.29,5.29,0,0,1-3.73,1.72v13.35h-4.52l-.13-1.83a6,6,0,0,1-4.91,2.16,5.67,5.67,0,0,1-4.41-1.66,7.08,7.08,0,0,1-1.55-4.86V100.22h4.8v11.62q0,2.81,2.56,2.81a3.46,3.46,0,0,0,3.35-1.7V100.22h4.81v2.31a2.29,2.29,0,0,0,1.58-1,6.18,6.18,0,0,0,.46-2.86Zm-15.37,23.42a2.08,2.08,0,0,1,.75-1.64,3.21,3.21,0,0,1,3.87,0,2.08,2.08,0,0,1,.75,1.64,2.12,2.12,0,0,1-.74,1.64,2.81,2.81,0,0,1-2,.66,2.78,2.78,0,0,1-1.94-.66A2.13,2.13,0,0,1,746.41,122.07Z"/><path class="cls-3" d="M769,114.65a3.15,3.15,0,0,0,2.16-.73A2.56,2.56,0,0,0,772,112h4.5a6.15,6.15,0,0,1-1,3.35,6.57,6.57,0,0,1-2.68,2.36,8.39,8.39,0,0,1-3.76.84,7.8,7.8,0,0,1-6.08-2.45,9.69,9.69,0,0,1-2.22-6.77V109a9.58,9.58,0,0,1,2.21-6.62A7.71,7.71,0,0,1,769,99.89a7.56,7.56,0,0,1,5.4,1.92,6.79,6.79,0,0,1,2.07,5.1H772a3.29,3.29,0,0,0-.86-2.28,3.21,3.21,0,0,0-4.72.35,7.09,7.09,0,0,0-.85,4v.5a7.17,7.17,0,0,0,.85,4A2.92,2.92,0,0,0,769,114.65Z"/><path class="cls-3" d="M791,102.18a6,6,0,0,1,4.8-2.29q5.84,0,5.93,6.79v11.5H797V106.82a3.34,3.34,0,0,0-.66-2.28,2.85,2.85,0,0,0-2.21-.74,3.27,3.27,0,0,0-3.05,1.63v12.77h-4.8V92.69H791Z"/><path class="cls-3" d="M804.67,95.58a2.37,2.37,0,0,1,.72-1.78,3.11,3.11,0,0,1,3.93,0,2.53,2.53,0,0,1,0,3.57,3.08,3.08,0,0,1-3.9,0A2.35,2.35,0,0,1,804.67,95.58Zm5.1,22.61H805v-18h4.81Z"/><path class="cls-3" d="M821.31,118.52a8.82,8.82,0,0,1-6.43-2.42,8.61,8.61,0,0,1-2.48-6.46v-.46a10.85,10.85,0,0,1,1-4.84,7.67,7.67,0,0,1,3-3.29,8.31,8.31,0,0,1,4.37-1.15,7.45,7.45,0,0,1,5.8,2.32,9.44,9.44,0,0,1,2.12,6.59v2H817.25a4.45,4.45,0,0,0,1.4,2.82,4.23,4.23,0,0,0,3,1.06,5.18,5.18,0,0,0,4.33-2l2.36,2.64a7.21,7.21,0,0,1-2.92,2.38A9.6,9.6,0,0,1,821.31,118.52Zm5.3-21.19v.2h-3.82l-2.56-2.41-2.56,2.41h-3.75v-.27l4.91-4.57h2.79Zm-5.84,6.43a3,3,0,0,0-2.32,1,5,5,0,0,0-1.14,2.77H824v-.38a3.57,3.57,0,0,0-.86-2.48A3.09,3.09,0,0,0,820.76,103.76ZM818,122.07a2.08,2.08,0,0,1,.75-1.64,3.21,3.21,0,0,1,3.87,0,2.08,2.08,0,0,1,.75,1.64,2.12,2.12,0,0,1-.74,1.64,2.81,2.81,0,0,1-2,.66,2.78,2.78,0,0,1-1.94-.66A2.13,2.13,0,0,1,818,122.07Z"/><path class="cls-3" d="M835.15,100.22l.15,2.08a6.27,6.27,0,0,1,5.16-2.41,5.21,5.21,0,0,1,4.25,1.68,7.83,7.83,0,0,1,1.43,5v11.6h-4.8V106.7a3.11,3.11,0,0,0-.66-2.22,3,3,0,0,0-2.21-.69,3.3,3.3,0,0,0-3,1.73v12.67h-4.8v-18Z"/><path class="cls-3" d="M861.95,118.19h-4.81V92.69h4.81Z"/><path class="cls-3" d="M875.63,118.19a5.31,5.31,0,0,1-.48-1.61,5.81,5.81,0,0,1-4.53,1.94,6.38,6.38,0,0,1-4.37-1.53,4.91,4.91,0,0,1-1.73-3.85,5.08,5.08,0,0,1,2.12-4.38,10.45,10.45,0,0,1,6.12-1.54h2.21v-1a3,3,0,0,0-.64-2,2.51,2.51,0,0,0-2-.75,2.87,2.87,0,0,0-1.9.58,2,2,0,0,0-.69,1.59h-4.8a4.82,4.82,0,0,1,1-2.89,6.37,6.37,0,0,1,2.72-2.08,9.92,9.92,0,0,1,4-.76,7.84,7.84,0,0,1,5.27,1.67,5.84,5.84,0,0,1,2,4.69V114a8.58,8.58,0,0,0,.71,3.87v.28Zm-7,3.62a2.08,2.08,0,0,1,.75-1.64,3.21,3.21,0,0,1,3.87,0,2.08,2.08,0,0,1,.75,1.64,2.12,2.12,0,0,1-.74,1.64,2.81,2.81,0,0,1-2,.66,2.78,2.78,0,0,1-1.94-.66A2.13,2.13,0,0,1,868.59,121.81Zm3.07-7a4.13,4.13,0,0,0,2-.47,3.11,3.11,0,0,0,1.33-1.27V110h-1.79q-3.6,0-3.83,2.49l0,.28a1.92,1.92,0,0,0,.63,1.48A2.45,2.45,0,0,0,871.66,114.85Z"/><path class="cls-3" d="M882.74,95.58a2.37,2.37,0,0,1,.72-1.78,3.11,3.11,0,0,1,3.93,0,2.53,2.53,0,0,1,0,3.57,3.08,3.08,0,0,1-3.9,0A2.35,2.35,0,0,1,882.74,95.58Zm5.1,22.61H883v-18h4.81Z"/><path class="cls-3" d="M904.63,95.81v4.42h3.07v3.52h-3.07v9a2.14,2.14,0,0,0,.38,1.43,1.92,1.92,0,0,0,1.46.43,7.59,7.59,0,0,0,1.41-.12v3.64a9.86,9.86,0,0,1-2.91.43q-5,0-5.15-5.1v-9.68h-2.62v-3.52h2.62V95.81Z"/><path class="cls-3" d="M914.38,102.18a6,6,0,0,1,4.8-2.29q5.84,0,5.93,6.79v11.5h-4.8V106.82a3.34,3.34,0,0,0-.66-2.28,2.85,2.85,0,0,0-2.21-.74,3.27,3.27,0,0,0-3.05,1.63v12.77h-4.8V92.69h4.8Z"/><path class="cls-3" d="M938.45,118.19a5.31,5.31,0,0,1-.48-1.61,5.81,5.81,0,0,1-4.53,1.94,6.38,6.38,0,0,1-4.37-1.53,4.91,4.91,0,0,1-1.73-3.85,5.08,5.08,0,0,1,2.12-4.38,10.45,10.45,0,0,1,6.12-1.54h2.21v-1a3,3,0,0,0-.64-2,2.51,2.51,0,0,0-2-.75,2.87,2.87,0,0,0-1.9.58,2,2,0,0,0-.69,1.59h-4.8a4.82,4.82,0,0,1,1-2.89,6.37,6.37,0,0,1,2.72-2.08,9.92,9.92,0,0,1,4-.76,7.84,7.84,0,0,1,5.27,1.67,5.84,5.84,0,0,1,2,4.69V114a8.58,8.58,0,0,0,.71,3.87v.28Zm-4-3.34a4.13,4.13,0,0,0,2-.47,3.11,3.11,0,0,0,1.33-1.27V110H936q-3.6,0-3.83,2.49l0,.28a1.92,1.92,0,0,0,.63,1.48A2.45,2.45,0,0,0,934.48,114.85Z"/><path class="cls-3" d="M944.84,109a10.65,10.65,0,0,1,1-4.76,7.54,7.54,0,0,1,3-3.24,8.65,8.65,0,0,1,4.49-1.15,8.18,8.18,0,0,1,5.93,2.22,8.93,8.93,0,0,1,2.57,6l0,1.23a9.39,9.39,0,0,1-2.31,6.63,8.94,8.94,0,0,1-12.39,0,9.55,9.55,0,0,1-2.32-6.77Zm4.8.34a6.72,6.72,0,0,0,1,3.92,3.46,3.46,0,0,0,5.48,0,7.35,7.35,0,0,0,1-4.28,6.65,6.65,0,0,0-1-3.89,3.18,3.18,0,0,0-2.76-1.38,3.13,3.13,0,0,0-2.72,1.37A7.47,7.47,0,0,0,949.64,109.38Z"/><path class="cls-3" d="M977.67,95.81v4.42h3.07v3.52h-3.07v9a2.14,2.14,0,0,0,.38,1.43,1.92,1.92,0,0,0,1.46.43,7.59,7.59,0,0,0,1.41-.12v3.64a9.86,9.86,0,0,1-2.91.43q-5,0-5.15-5.1v-9.68h-2.62v-3.52h2.62V95.81Z"/><path class="cls-3" d="M993.14,118.19a5.31,5.31,0,0,1-.48-1.61,5.81,5.81,0,0,1-4.53,1.94,6.38,6.38,0,0,1-4.37-1.53,4.91,4.91,0,0,1-1.73-3.85,5.08,5.08,0,0,1,2.12-4.38,10.45,10.45,0,0,1,6.12-1.54h2.21v-1a3,3,0,0,0-.64-2,2.51,2.51,0,0,0-2-.75,2.87,2.87,0,0,0-1.9.58,2,2,0,0,0-.69,1.59h-4.8a4.82,4.82,0,0,1,1-2.89,6.37,6.37,0,0,1,2.72-2.08,9.92,9.92,0,0,1,4-.76,7.84,7.84,0,0,1,5.27,1.67,5.84,5.84,0,0,1,2,4.69V114a8.58,8.58,0,0,0,.71,3.87v.28Zm-4-3.34a4.13,4.13,0,0,0,2-.47,3.11,3.11,0,0,0,1.33-1.27V110h-1.79q-3.6,0-3.83,2.49l0,.28a1.92,1.92,0,0,0,.63,1.48A2.45,2.45,0,0,0,989.17,114.85ZM991,92.69h5.23l-4.6,5.15h-3.9Z"/><path class="cls-3" d="M1007.75,114.65a3.15,3.15,0,0,0,2.16-.73,2.56,2.56,0,0,0,.86-1.94h4.5a6.15,6.15,0,0,1-1,3.35,6.57,6.57,0,0,1-2.68,2.36,8.39,8.39,0,0,1-3.76.84,7.8,7.8,0,0,1-6.08-2.45,9.69,9.69,0,0,1-2.22-6.77V109a9.58,9.58,0,0,1,2.21-6.62,7.71,7.71,0,0,1,6.06-2.47,7.56,7.56,0,0,1,5.4,1.92,6.79,6.79,0,0,1,2.07,5.1h-4.5a3.29,3.29,0,0,0-.86-2.28,3.21,3.21,0,0,0-4.72.35,7.09,7.09,0,0,0-.85,4v.5a7.17,7.17,0,0,0,.85,4A2.92,2.92,0,0,0,1007.75,114.65Z"/><path class="cls-3" d="M1017.58,115.83a2.42,2.42,0,0,1,.77-1.86,3,3,0,0,1,3.88,0,2.41,2.41,0,0,1,.77,1.86,2.38,2.38,0,0,1-.76,1.83,3.05,3.05,0,0,1-3.9,0A2.38,2.38,0,0,1,1017.58,115.83Z"/><path class="cls-3" d="M332.7,163V138.82h8.47q4.4,0,6.67,1.69a5.76,5.76,0,0,1,2.27,4.94,5.47,5.47,0,0,1-.91,3.13,5.27,5.27,0,0,1-2.54,2,5.11,5.11,0,0,1,2.93,1.88,5.55,5.55,0,0,1,1.07,3.45,6.38,6.38,0,0,1-2.22,5.28A10,10,0,0,1,342.1,163Zm5-14h3.69q3.77-.07,3.77-3a2.78,2.78,0,0,0-1-2.37,5,5,0,0,0-3-.72h-3.49Zm0,3.52V159h4.27a4.12,4.12,0,0,0,2.75-.84,2.88,2.88,0,0,0,1-2.32q0-3.32-3.44-3.37Z"/><path class="cls-3" d="M353.37,140.38a2.36,2.36,0,0,1,.72-1.78,3.11,3.11,0,0,1,3.93,0,2.54,2.54,0,0,1,0,3.57,3.08,3.08,0,0,1-3.9,0A2.35,2.35,0,0,1,353.37,140.38Zm5.1,22.61h-4.81V145h4.81Z"/><path class="cls-3" d="M366.42,147a6,6,0,0,1,4.8-2.29q5.84,0,5.93,6.79V163h-4.8V151.62a3.34,3.34,0,0,0-.66-2.28,2.85,2.85,0,0,0-2.21-.74,3.27,3.27,0,0,0-3.05,1.63V163h-4.8v-25.5h4.8Z"/><path class="cls-3" d="M390.49,163a5.32,5.32,0,0,1-.48-1.61,5.81,5.81,0,0,1-4.53,1.94,6.38,6.38,0,0,1-4.37-1.53,4.91,4.91,0,0,1-1.73-3.85,5.08,5.08,0,0,1,2.12-4.38A10.45,10.45,0,0,1,387.6,152h2.21v-1a3,3,0,0,0-.64-2,2.51,2.51,0,0,0-2-.75,2.87,2.87,0,0,0-1.9.58,2,2,0,0,0-.69,1.59h-4.8a4.82,4.82,0,0,1,1-2.89,6.37,6.37,0,0,1,2.72-2.08,9.92,9.92,0,0,1,4-.76,7.84,7.84,0,0,1,5.27,1.67,5.84,5.84,0,0,1,2,4.69v7.79a8.58,8.58,0,0,0,.71,3.87V163Zm-4-3.34a4.13,4.13,0,0,0,2-.47,3.11,3.11,0,0,0,1.33-1.27v-3.09H388q-3.6,0-3.83,2.49l0,.28a1.92,1.92,0,0,0,.63,1.48A2.45,2.45,0,0,0,386.52,159.65Z"/><path class="cls-3" d="M402.13,145l.15,2a6.31,6.31,0,0,1,5.16-2.34,4.79,4.79,0,0,1,4.76,2.74,6.17,6.17,0,0,1,5.4-2.74,5.36,5.36,0,0,1,4.35,1.7,7.82,7.82,0,0,1,1.43,5.12V163h-4.81V151.53a3.42,3.42,0,0,0-.6-2.23,2.65,2.65,0,0,0-2.11-.71,3,3,0,0,0-3,2.06l0,12.33h-4.8V151.55a3.38,3.38,0,0,0-.61-2.26,2.67,2.67,0,0,0-2.09-.7,3.11,3.11,0,0,0-3,1.69V163h-4.8V145Z"/><path class="cls-3" d="M436.79,163a5.32,5.32,0,0,1-.48-1.61,5.81,5.81,0,0,1-4.53,1.94,6.38,6.38,0,0,1-4.37-1.53,4.91,4.91,0,0,1-1.73-3.85,5.08,5.08,0,0,1,2.12-4.38,10.45,10.45,0,0,1,6.12-1.54h2.21v-1a3,3,0,0,0-.64-2,2.51,2.51,0,0,0-2-.75,2.87,2.87,0,0,0-1.9.58,2,2,0,0,0-.69,1.59h-4.8a4.82,4.82,0,0,1,1-2.89,6.37,6.37,0,0,1,2.72-2.08,9.92,9.92,0,0,1,4-.76,7.84,7.84,0,0,1,5.27,1.67,5.84,5.84,0,0,1,2,4.69v7.79a8.58,8.58,0,0,0,.71,3.87V163Zm-4-3.34a4.13,4.13,0,0,0,2-.47,3.11,3.11,0,0,0,1.33-1.27v-3.09h-1.79q-3.6,0-3.83,2.49l0,.28a1.92,1.92,0,0,0,.63,1.48A2.45,2.45,0,0,0,432.83,159.65Z"/><path class="cls-3" d="M459.19,159.45a3.15,3.15,0,0,0,2.16-.73,2.56,2.56,0,0,0,.86-1.94h4.5a6.15,6.15,0,0,1-1,3.35,6.59,6.59,0,0,1-2.68,2.36,8.39,8.39,0,0,1-3.76.84,7.8,7.8,0,0,1-6.08-2.45,9.69,9.69,0,0,1-2.22-6.77v-.32a9.58,9.58,0,0,1,2.21-6.62,7.71,7.71,0,0,1,6.06-2.47,7.56,7.56,0,0,1,5.4,1.92,6.79,6.79,0,0,1,2.07,5.1h-4.5a3.29,3.29,0,0,0-.86-2.28,3.21,3.21,0,0,0-4.72.35,7.09,7.09,0,0,0-.85,4v.5a7.17,7.17,0,0,0,.85,4A2.92,2.92,0,0,0,459.19,159.45Z"/><path class="cls-3" d="M479.18,163a5.32,5.32,0,0,1-.48-1.61,5.81,5.81,0,0,1-4.53,1.94,6.38,6.38,0,0,1-4.37-1.53,4.91,4.91,0,0,1-1.73-3.85,5.08,5.08,0,0,1,2.12-4.38,10.45,10.45,0,0,1,6.12-1.54h2.21v-1a3,3,0,0,0-.64-2,2.51,2.51,0,0,0-2-.75,2.87,2.87,0,0,0-1.9.58,2,2,0,0,0-.69,1.59h-4.8a4.82,4.82,0,0,1,1-2.89,6.37,6.37,0,0,1,2.72-2.08,9.92,9.92,0,0,1,4-.76,7.84,7.84,0,0,1,5.27,1.67,5.84,5.84,0,0,1,2,4.69v7.79a8.58,8.58,0,0,0,.71,3.87V163Zm-4-3.34a4.13,4.13,0,0,0,2-.47,3.11,3.11,0,0,0,1.33-1.27v-3.09h-1.79q-3.6,0-3.83,2.49l0,.28a1.92,1.92,0,0,0,.63,1.48A2.45,2.45,0,0,0,475.21,159.65ZM474.27,142l-.25-2.22a5.36,5.36,0,0,0,1.75-.31.8.8,0,0,0,.54-.77q0-1.15-2.36-1.15l.12-2.24a10.12,10.12,0,0,1,4.71.86,2.63,2.63,0,0,1,1.58,2.37,2.07,2.07,0,0,1-.68,1.6,3.32,3.32,0,0,1-1.81.79V142Z"/><path class="cls-3" d="M490.82,145l.15,2a6.31,6.31,0,0,1,5.16-2.34,4.79,4.79,0,0,1,4.76,2.74,6.17,6.17,0,0,1,5.4-2.74,5.36,5.36,0,0,1,4.35,1.7,7.82,7.82,0,0,1,1.43,5.12V163h-4.81V151.53a3.42,3.42,0,0,0-.6-2.23,2.65,2.65,0,0,0-2.11-.71,3,3,0,0,0-3,2.06l0,12.33h-4.8V151.55a3.38,3.38,0,0,0-.61-2.26,2.67,2.67,0,0,0-2.09-.7,3.11,3.11,0,0,0-3,1.69V163h-4.8V145Z"/><path class="cls-3" d="M522.08,153.84a10.62,10.62,0,0,1,1-4.78,7.52,7.52,0,0,1,3-3.23,8.71,8.71,0,0,1,4.48-1.14,8,8,0,0,1,6.26,2.57,2.39,2.39,0,0,0,1-1.49,9.65,9.65,0,0,0,.27-2.43h2.92q0,4.52-2.94,5.84a10.61,10.61,0,0,1,1,4.65v.35a10.61,10.61,0,0,1-1,4.78,7.51,7.51,0,0,1-3,3.22,8.68,8.68,0,0,1-4.49,1.13,8.15,8.15,0,0,1-6-2.31,9,9,0,0,1-2.49-6.23Zm4.81.34a6.72,6.72,0,0,0,1,3.92,3.45,3.45,0,0,0,5.48,0,7.46,7.46,0,0,0,1-4.27,6.74,6.74,0,0,0-1-3.88,3.41,3.41,0,0,0-5.48,0A7.47,7.47,0,0,0,526.89,154.18Z"/><path class="cls-3" d="M546.35,145l.15,2.08a6.27,6.27,0,0,1,5.16-2.41,5.21,5.21,0,0,1,4.25,1.68,7.83,7.83,0,0,1,1.43,5V163h-4.8V151.5a3.11,3.11,0,0,0-.66-2.22,3,3,0,0,0-2.21-.69,3.3,3.3,0,0,0-3,1.73V163h-4.8V145Z"/><path class="cls-3" d="M567.34,153.84a10.73,10.73,0,0,1,1.88-6.69,6.16,6.16,0,0,1,5.17-2.46,5.52,5.52,0,0,1,4.6,2.21l.32-1.88h4.22v24.87h-4.81v-8.45a5.53,5.53,0,0,1-4.35,1.88,6.11,6.11,0,0,1-5.11-2.49A11.26,11.26,0,0,1,567.34,153.84Zm4.8.34a7,7,0,0,0,.91,3.92,2.89,2.89,0,0,0,2.55,1.35,3.23,3.23,0,0,0,3.12-1.76v-7.43a3.2,3.2,0,0,0-3.09-1.7,2.93,2.93,0,0,0-2.57,1.35A7.79,7.79,0,0,0,572.14,154.18Z"/><path class="cls-3" d="M597.37,161.16a6,6,0,0,1-4.91,2.16,5.67,5.67,0,0,1-4.41-1.66,7.08,7.08,0,0,1-1.55-4.86V145h4.8v11.62q0,2.81,2.56,2.81a3.46,3.46,0,0,0,3.35-1.7V145H602v18H597.5Z"/><path class="cls-3" d="M611.67,156.2,615,145h5.15l-7.22,20.75-.4.95a5.48,5.48,0,0,1-5.31,3.52,7.56,7.56,0,0,1-2.12-.32v-3.64l.73,0a4,4,0,0,0,2-.42,2.72,2.72,0,0,0,1.05-1.38l.56-1.48-6.29-18h5.16Zm1-18.71h5.23l-4.6,5.15h-3.9Z"/><path class="cls-3" d="M635.66,155.78l-1.73,1.73V163h-4.8v-25.5h4.8v14.13l.93-1.2,4.6-5.4h5.76l-6.49,7.49L645.78,163h-5.51Z"/><path class="cls-3" d="M651.3,147a6,6,0,0,1,4.8-2.29q5.84,0,5.93,6.79V163h-4.8V151.62a3.34,3.34,0,0,0-.66-2.28,2.85,2.85,0,0,0-2.21-.74,3.27,3.27,0,0,0-3.05,1.63V163h-4.8v-25.5h4.8Z"/><path class="cls-3" d="M675.37,163a5.32,5.32,0,0,1-.48-1.61,5.81,5.81,0,0,1-4.53,1.94,6.38,6.38,0,0,1-4.37-1.53,4.91,4.91,0,0,1-1.73-3.85,5.08,5.08,0,0,1,2.12-4.38,10.45,10.45,0,0,1,6.12-1.54h2.21v-1a3,3,0,0,0-.64-2,2.51,2.51,0,0,0-2-.75,2.87,2.87,0,0,0-1.9.58,2,2,0,0,0-.69,1.59h-4.8a4.82,4.82,0,0,1,1-2.89,6.37,6.37,0,0,1,2.72-2.08,9.92,9.92,0,0,1,4-.76,7.84,7.84,0,0,1,5.27,1.67,5.84,5.84,0,0,1,2,4.69v7.79a8.58,8.58,0,0,0,.71,3.87V163Zm-4-3.34a4.13,4.13,0,0,0,2-.47,3.11,3.11,0,0,0,1.33-1.27v-3.09H672.9q-3.6,0-3.83,2.49l0,.28a1.92,1.92,0,0,0,.63,1.48A2.45,2.45,0,0,0,671.4,159.65Zm1.83-22.16h5.23l-4.6,5.15H670Z"/><path class="cls-3" d="M690,159.45a3.15,3.15,0,0,0,2.16-.73,2.56,2.56,0,0,0,.86-1.94h4.5a6.15,6.15,0,0,1-1,3.35,6.59,6.59,0,0,1-2.68,2.36,8.39,8.39,0,0,1-3.76.84,7.8,7.8,0,0,1-6.08-2.45,9.69,9.69,0,0,1-2.22-6.77v-.32a9.58,9.58,0,0,1,2.21-6.62,7.71,7.71,0,0,1,6.06-2.47,7.56,7.56,0,0,1,5.4,1.92,6.79,6.79,0,0,1,2.07,5.1H693a3.29,3.29,0,0,0-.86-2.28,3.21,3.21,0,0,0-4.72.35,7.09,7.09,0,0,0-.85,4v.5a7.17,7.17,0,0,0,.85,4A2.92,2.92,0,0,0,690,159.45Z"/><path class="cls-3" d="M704.24,147a6,6,0,0,1,4.8-2.29q5.84,0,5.93,6.79V163h-4.8V151.62a3.34,3.34,0,0,0-.66-2.28,2.85,2.85,0,0,0-2.21-.74,3.27,3.27,0,0,0-3.05,1.63V163h-4.8v-25.5h4.8Z"/><path class="cls-3" d="M720.79,158.19a2.69,2.69,0,0,1,2,.71,2.6,2.6,0,0,1,0,3.64,3,3,0,0,1-3.88,0,2.41,2.41,0,0,1-.74-1.81,2.44,2.44,0,0,1,.74-1.82A2.65,2.65,0,0,1,720.79,158.19Zm2-2.62h-4l-.56-16.75h5.11Z"/><path class="cls-4" d="M1183,431.57,13.67,431.24a244.32,244.32,0,0,0,80,43C153.5,493,205.29,483.16,228,478.57c18.85-3.81,20.7-6.09,36-9.67,71-16.59,124.62,10.81,175.35,21.38,68.19,14.21,78.79-12.91,188.65-23.71,146.77-14.43,179.63,28.88,313.06,23.71C999.47,488,1082.79,476.25,1183,431.57Z"/><path class="cls-5" d="M337.85,76.44H461.5s8.71-20-5.22-29.61-27.87,2.61-27.87,2.61,3.48-33.09-26.12-34.83-26.12,25.25-26.12,25.25-7-20-23.51-11.32-6.1,22.64-6.1,22.64-15.67-4.35-17.42,9.58C327.79,71.6,337.85,76.44,337.85,76.44Z"/><path class="cls-5" d="M345.23,248.88h49.53s3.49-12.88-2.09-19-11.16,1.68-11.16,1.68,1.4-21.27-10.46-22.39-10.46,16.23-10.46,16.23-2.79-12.88-9.42-7.28-2.44,14.56-2.44,14.56-6.28-2.8-7,6.16C341.2,245.77,345.23,248.88,345.23,248.88Z"/><path class="cls-5" d="M1128.24,235.83c-13.93-9.58-27.87,2.61-27.87,2.61s3.48-33.09-26.12-34.83-26.12,25.25-26.12,25.25-7-20-23.51-11.32c-8.3,4.37-9.8,10-9.25,14.63a27.9,27.9,0,0,0-5,3.27s3.48-33.09-26.12-34.83-26.12,25.25-26.12,25.25-7-20-23.51-11.32-6.1,22.64-6.1,22.64-15.67-4.35-17.42,9.58c-1.35,10.83,8.71,15.67,8.71,15.67h85.89a17.67,17.67,0,0,0,4.1,3h123.65S1142.17,245.41,1128.24,235.83Z"/><path class="cls-5" d="M143.08,60.29c-6.38-4.39-12.77,1.2-12.77,1.2s1.6-15.16-12-16-12,11.57-12,11.57-3.19-9.18-10.77-5.19c-3.8,2-4.49,4.6-4.24,6.7a12.78,12.78,0,0,0-2.29,1.5s1.6-15.16-12-16-12,11.57-12,11.57-3.19-9.18-10.77-5.19-2.79,10.38-2.79,10.38-7.18-2-8,4.39c-.62,5,4,7.18,4,7.18H86.93a8.1,8.1,0,0,0,1.88,1.37h56.67S149.47,64.68,143.08,60.29Z"/><ellipse class="cls-6" cx="184.5" cy="461.07" rx="65.5" ry="17.5"/><path class="cls-7" d="M936.8,437.72a5,5,0,0,1-5,5H508.85a5,5,0,0,1-5-5v-5.1h433Z"/><path class="cls-7" d="M745.28,432.59a2.52,2.52,0,0,1-2.52,2.52H697.85a2.52,2.52,0,0,1-2.52-2.52v-1h50Z"/><path class="cls-8" d="M676.06,417.49a6.21,6.21,0,0,1,6-4.46h76.49a6.21,6.21,0,0,1,6,4.46l1.46,6.78c.59,2.72-1.37,5-4.38,5H679c-3,0-5-2.26-4.38-5Z"/><path class="cls-9" d="M498.91,217.22H801.69a10.44,10.44,0,0,1,10.44,10.44v204.2H488.47V227.66A10.44,10.44,0,0,1,498.91,217.22Z"/><polygon class="cls-10" points="795.74 403.84 795.74 417.27 504.87 417.27 504.87 403.84 504.87 231.8 795.74 231.8 795.74 403.84"/><polygon class="cls-11" points="812 428.18 862.2 478.6 438.49 478.6 488.68 428.18 812 428.18"/><polygon class="cls-12" points="829 458.21 799.84 458.21 779.32 431.8 804.47 431.8 829 458.21"/><polygon class="cls-12" points="521.37 431.8 500.84 458.21 471.69 458.21 496.21 431.8 521.37 431.8"/><polygon class="cls-13" points="791.2 458.21 774.93 458.21 771.82 453.4 787.68 453.4 791.2 458.21"/><polygon class="cls-13" points="776.12 437.62 761.6 437.62 759.11 433.77 773.31 433.77 776.12 437.62"/><polygon class="cls-13" points="772.85 433.14 751.75 433.14 750.93 431.8 771.86 431.8 772.85 433.14"/><polygon class="cls-13" points="748.87 433.14 734.72 433.14 734.04 431.8 748.07 431.8 748.87 433.14"/><polygon class="cls-13" points="731.49 433.14 717.34 433.14 716.8 431.8 730.84 431.8 731.49 433.14"/><polygon class="cls-13" points="714.33 433.14 700.18 433.14 699.78 431.8 713.82 431.8 714.33 433.14"/><polygon class="cls-13" points="696.96 433.14 682.81 433.14 682.55 431.8 696.58 431.8 696.96 433.14"/><polygon class="cls-13" points="679.88 433.14 665.73 433.14 665.61 431.8 679.64 431.8 679.88 433.14"/><polygon class="cls-13" points="662.41 431.8 662.5 433.14 648.36 433.14 648.37 431.8 662.41 431.8"/><polygon class="cls-13" points="645.39 431.8 645.35 433.14 631.2 433.14 631.36 431.8 645.39 431.8"/><polygon class="cls-13" points="628.85 431.8 628.67 433.14 614.53 433.14 614.81 431.8 628.85 431.8"/><polygon class="cls-13" points="611.98 431.8 611.67 433.14 597.52 433.14 597.95 431.8 611.98 431.8"/><polygon class="cls-13" points="594.35 431.8 593.89 433.14 579.75 433.14 580.31 431.8 594.35 431.8"/><polygon class="cls-13" points="577.11 431.8 576.52 433.14 562.37 433.14 563.08 431.8 577.11 431.8"/><polygon class="cls-13" points="560.09 431.8 559.36 433.14 545.22 433.14 546.06 431.8 560.09 431.8"/><polygon class="cls-13" points="542.86 431.8 541.99 433.14 527.84 433.14 528.82 431.8 542.86 431.8"/><polygon class="cls-13" points="783.24 447.33 755.76 447.33 753.27 443.05 780.1 443.05 783.24 447.33"/><polygon class="cls-13" points="779.58 442.34 756.3 442.34 753.87 438.28 776.61 438.28 779.58 442.34"/><polygon class="cls-13" points="787.1 452.61 747.11 452.61 744.76 448.08 783.78 448.08 787.1 452.61"/><polygon class="cls-13" points="549.92 443.05 547.49 447.33 517.5 447.33 520.63 443.05 549.92 443.05"/><polygon class="cls-13" points="555.97 448.08 553.62 452.61 513.63 452.61 516.95 448.08 555.97 448.08"/><polygon class="cls-13" points="771.76 458.21 755.49 458.21 752.86 453.4 768.73 453.4 771.76 458.21"/><polygon class="cls-13" points="744 452.61 728.21 452.61 726.32 448.08 741.73 448.08 744 452.61"/><polygon class="cls-13" points="724.6 452.61 708.81 452.61 707.39 448.08 722.8 448.08 724.6 452.61"/><polygon class="cls-13" points="705.96 452.61 690.16 452.61 689.2 448.08 704.61 448.08 705.96 452.61"/><polygon class="cls-13" points="686.56 452.61 670.76 452.61 670.27 448.08 685.68 448.08 686.56 452.61"/><polygon class="cls-13" points="667.6 452.61 651.81 452.61 651.77 448.08 667.18 448.08 667.6 452.61"/><polygon class="cls-13" points="648.25 448.08 648.2 452.61 632.41 452.61 632.84 448.08 648.25 448.08"/><polygon class="cls-13" points="630.06 448.08 629.56 452.61 613.76 452.61 614.65 448.08 630.06 448.08"/><polygon class="cls-13" points="611.13 448.08 610.16 452.61 594.36 452.61 595.72 448.08 611.13 448.08"/><polygon class="cls-13" points="593.02 448.08 591.59 452.61 575.79 452.61 577.61 448.08 593.02 448.08"/><polygon class="cls-13" points="574.09 448.08 572.19 452.61 556.39 452.61 558.68 448.08 574.09 448.08"/><polygon class="cls-13" points="752.27 447.33 736.92 447.33 734.87 443.05 749.86 443.05 752.27 447.33"/><polygon class="cls-13" points="733.41 447.33 718.07 447.33 716.47 443.05 731.45 443.05 733.41 447.33"/><polygon class="cls-13" points="715.3 447.33 699.95 447.33 698.78 443.05 713.76 443.05 715.3 447.33"/><polygon class="cls-13" points="696.45 447.33 681.1 447.33 680.37 443.05 695.36 443.05 696.45 447.33"/><polygon class="cls-13" points="678.02 447.33 662.68 447.33 662.39 443.05 677.37 443.05 678.02 447.33"/><polygon class="cls-13" points="658.97 443.05 659.17 447.33 643.83 447.33 643.98 443.05 658.97 443.05"/><polygon class="cls-13" points="641.27 443.05 641.05 447.33 625.71 447.33 626.29 443.05 641.27 443.05"/><polygon class="cls-13" points="622.87 443.05 622.2 447.33 606.86 447.33 607.88 443.05 622.87 443.05"/><polygon class="cls-13" points="605.25 443.05 604.16 447.33 588.81 447.33 590.27 443.05 605.25 443.05"/><polygon class="cls-13" points="586.85 443.05 585.31 447.33 569.96 447.33 571.86 443.05 586.85 443.05"/><polygon class="cls-13" points="568.38 443.05 566.4 447.33 551.05 447.33 553.4 443.05 568.38 443.05"/><polygon class="cls-13" points="752.86 442.34 737.93 442.34 735.92 438.28 750.51 438.28 752.86 442.34"/><polygon class="cls-13" points="734.53 442.34 719.6 442.34 718.01 438.28 732.59 438.28 734.53 442.34"/><polygon class="cls-13" points="716.91 442.34 701.98 442.34 700.79 438.28 715.38 438.28 716.91 442.34"/><polygon class="cls-13" points="698.57 442.34 683.65 442.34 682.88 438.28 697.47 438.28 698.57 442.34"/><polygon class="cls-13" points="680.66 442.34 665.74 442.34 665.38 438.28 679.97 438.28 680.66 442.34"/><polygon class="cls-13" points="662.05 438.28 662.33 442.34 647.4 442.34 647.47 438.28 662.05 438.28"/><polygon class="cls-13" points="644.84 438.28 644.71 442.34 629.78 442.34 630.25 438.28 644.84 438.28"/><polygon class="cls-13" points="626.92 438.28 626.37 442.34 611.45 442.34 612.34 438.28 626.92 438.28"/><polygon class="cls-13" points="609.06 438.28 608.09 442.34 593.16 442.34 594.48 438.28 609.06 438.28"/><polygon class="cls-13" points="591.87 438.28 590.5 442.34 575.57 442.34 577.29 438.28 591.87 438.28"/><polygon class="cls-13" points="573.9 438.28 572.11 442.34 557.18 442.34 559.32 438.28 573.9 438.28"/><polygon class="cls-13" points="556.34 438.28 554.12 442.34 539.2 442.34 541.75 438.28 556.34 438.28"/><polygon class="cls-13" points="538.7 438.28 536.08 442.34 521.15 442.34 524.12 438.28 538.7 438.28"/><polygon class="cls-13" points="758.76 437.62 744.24 437.62 742.14 433.77 756.34 433.77 758.76 437.62"/><polygon class="cls-13" points="740.92 437.62 726.39 437.62 724.69 433.77 738.89 433.77 740.92 437.62"/><polygon class="cls-13" points="723.77 437.62 709.25 437.62 707.93 433.77 722.13 433.77 723.77 437.62"/><polygon class="cls-13" points="705.93 437.62 691.4 437.62 690.48 433.77 704.69 433.77 705.93 437.62"/><polygon class="cls-13" points="688.5 437.62 673.97 437.62 673.44 433.77 687.64 433.77 688.5 437.62"/><polygon class="cls-13" points="670.65 437.62 656.13 437.62 656 433.77 670.2 433.77 670.65 437.62"/><polygon class="cls-13" points="653.43 433.77 653.5 437.62 638.98 437.62 639.23 433.77 653.43 433.77"/><polygon class="cls-13" points="635.99 433.77 635.66 437.62 621.13 437.62 621.79 433.77 635.99 433.77"/><polygon class="cls-13" points="619.3 433.77 618.59 437.62 604.06 437.62 605.09 433.77 619.3 433.77"/><polygon class="cls-13" points="601.85 433.77 600.74 437.62 586.22 437.62 587.65 433.77 601.85 433.77"/><polygon class="cls-13" points="584.36 433.77 582.85 437.62 568.32 437.62 570.15 433.77 584.36 433.77"/><polygon class="cls-13" points="567.25 433.77 565.34 437.62 550.82 437.62 553.04 433.77 567.25 433.77"/><polygon class="cls-13" points="550.08 433.77 547.78 437.62 524.61 437.62 527.42 433.77 550.08 433.77"/><polygon class="cls-13" points="752.03 458.21 735.76 458.21 733.63 453.4 749.49 453.4 752.03 458.21"/><polygon class="cls-13" points="586.51 453.4 584.87 458.21 568.6 458.21 570.65 453.4 586.51 453.4"/><polygon class="cls-13" points="567.27 453.4 565.14 458.21 548.88 458.21 551.41 453.4 567.27 453.4"/><polygon class="cls-13" points="529.08 453.16 525.97 457.95 509.72 457.95 513.23 453.16 529.08 453.16"/><polygon class="cls-13" points="548.23 453.16 547.08 455.27 531.05 455.27 532.39 453.16 548.23 453.16"/><polygon class="cls-13" points="546.66 456.03 545.47 458.21 529.21 458.21 530.58 456.03 546.66 456.03"/><polygon class="cls-13" points="732.59 458.21 711.37 458.21 709.84 453.4 730.54 453.4 732.59 458.21"/><polygon class="cls-13" points="610.1 453.4 609.07 458.21 587.84 458.21 589.4 453.4 610.1 453.4"/><polygon class="cls-13" points="705.59 453.4 707 458.21 612.73 458.21 613.67 453.4 705.59 453.4"/><path class="cls-14" d="M531.51,428.18H769.23c.62.85.17,1.54-1,1.54H532.51c-1.18,0-1.63-.69-1-1.54Z"/><g class="cls-15"><rect class="cls-16" x="634.77" y="310.24" width="32.48" height="204.63" transform="translate(237.46 1062.94) rotate(-89.91)"/></g><polygon class="cls-17" points="753.35 260.66 752.73 335.05 548.67 341.4 548.67 260.66 753.35 260.66"/><path class="cls-18" d="M674.74,192.53l-18.44-16a8.07,8.07,0,0,0-10.58,0l-18.44,16-78.61,68.15H753.35Z"/><path class="cls-19" d="M572,387c8.17.52,16.37.75,24.56.94,29.5.68,59-.11,88.48-1.52,14-.67,28-1.23,42-2.2,5.56-.38,11.12-.87,16.66-1.54V229.86l-31.36-31.36H569.63a10.5,10.5,0,0,0-10.5,10.5V386.23C563.41,386.36,567.7,386.71,572,387Z"/><path class="cls-20" d="M722.81,229.86h20.87l-31.36-31.36v20.87A10.5,10.5,0,0,0,722.81,229.86Z"/><polygon class="cls-21" points="651.01 349.37 548.67 260.66 548.67 396.95 753.35 396.95 753.35 260.66 651.01 349.37"/><polygon class="cls-22" points="651.01 349.37 627.28 328.81 548.67 396.95 753.35 396.95 674.74 328.81 651.01 349.37"/><path class="cls-23" d="M674.74,328.81l-18.44-16a8.07,8.07,0,0,0-10.58,0l-18.44,16L651,349.37Z"/><polyline class="cls-24" points="675.88 327.82 675.56 328.09 674.74 328.81 753.35 396.95 753.35 390.52"/><polygon class="cls-25" points="675.88 327.82 675.56 328.09 675.88 327.82 675.88 327.82"/><polygon class="cls-24" points="548.67 390.52 548.67 396.95 627.28 328.81 626.43 328.07 626.14 327.82 548.67 390.52"/><polygon class="cls-26" points="626.14 327.82 626.43 328.07 626.14 327.82 626.14 327.82"/><circle class="cls-19" cx="657" cy="262.07" r="53"/><polygon class="cls-27" points="695.16 288.87 671.34 262.74 697.47 238.92 683.79 223.92 657.66 247.73 633.85 221.61 618.85 235.28 642.66 261.41 616.53 285.23 630.21 300.23 656.34 276.41 680.15 302.54 695.16 288.87"/></g><g id="Layer_3" data-name="Layer 3"><path class="cls-28" d="M272.55,179.19s2.31-4,4.3-5.44,5.19-1.16,7.67-3.89,6.34,0,6.41-5.21-2.21-3.78.41-6.23-1.51-5-1.51-5,3.44-3.22,2.13-6-6.08-2.68-15.38,1c0,0-5.16-2.69-6.49-1s-.09,17.16-.09,17.16l-5.24,9.56Z"/><path class="cls-29" d="M264.76,170.44l2.86-4.57s8.92,5,11.36,11.87l-4.46,3Z"/><path class="cls-30" d="M280.08,150.6a4.77,4.77,0,0,1,1.35-1.95l2.53-2.58c2.85-.65,4.92-.67,6.29-.13a98.77,98.77,0,0,1-9.31,6.65A1.64,1.64,0,0,1,280.08,150.6Z"/><path class="cls-30" d="M276.59,148.46c4.76,4.16,8.09,9.55,6.84,10.84s-6.84-2.78-6.84-2.78l.63,4.65s5.69,3.09,7.6-1.33S276.59,148.46,276.59,148.46Z"/><path class="cls-31" d="M279.16,150.78a.41.41,0,0,0-.18-.11l37.18-40.57,2.07,2.44-38.33,39.07A9.72,9.72,0,0,0,279.16,150.78Z"/><path class="cls-32" d="M215,150.31c1.74,3.79,18.38,44.1,18.38,44.1s4.69-5.18,4.32,0l26.33-27s12.14,4.12,13.11,14.82c0,0-32.71,45-44.58,46.2s-22.64-32.19-22.64-32.19Z"/><path class="cls-33" d="M215,150.31c1.74,3.79,18.38,44.1,18.38,44.1s4.69-5.18,4.32,0l26.33-27s12.14,4.12,13.11,14.82c0,0-32.71,45-44.58,46.2s-22.64-32.19-22.64-32.19Z"/><path class="cls-32" d="M147.19,100.39s3.22-.18,4.6-1.87S148.65,83,148.65,83,153,79.24,153,74s-3.39-7.9-8.77-7.58-13.13,7.48-13.13,7.48l3.94,2s1.27,11.83,3,14.87S147.19,100.39,147.19,100.39Z"/><path class="cls-32" d="M136.85,77.31c1.58,7.39,6.8,25.63,6.8,25.63l4.64-5.29L146,74.85Z"/><path class="cls-34" d="M156.28,447.71l2.07-11.08L171,438.47l-.68,10.4s-2.38,4.66-9,4.77S156.28,447.71,156.28,447.71Z"/><polygon class="cls-34" points="212.64 440.67 212.23 449.68 214.65 455.54 225.07 452.23 227.35 445.54 228.11 435.16 212.64 440.67"/><path class="cls-34" d="M251.44,456c-3.23-1.61-13.5-4.72-20.69-10.41a3.49,3.49,0,0,0-2.81-.68l-.55.1a9.23,9.23,0,0,1-6.24,6.53c-3.57,1.15-8.91-1.85-8.91-1.85l-1,12.78H252.4a2.38,2.38,0,0,0,1.1-1.32S255.56,458,251.44,456Z"/><path class="cls-32" d="M214.67,237.63s6.35,81,7,88.38S230,443,230,443c-9.74,3.81-20.23.88-20.23.88l-17-110.55-11.2-59-3.77-1s-1.28,71.78-1.31,71.41-1.62,96.38-1.62,96.38c-9.43,4.76-22.54-.39-22.54-.39s-4.08-93.86-5.23-99.34-1.46-110.77-1.46-110.77Z"/><path class="cls-34" d="M216.58,259.62c-13.89,4.81-45.33,12-70.91,1.5,0-6.57.06-15.29,0-19.91l69.72,6.06C215.74,251.32,216.14,254,216.58,259.62Z"/><g id="_Group_" data-name="&lt;Group&gt;"><path id="_Path_" data-name="&lt;Path&gt;" class="cls-35" d="M212.37,230.3c-.54-2-1-3.23-1-3.23l-61.55,2.53s-.22,1.26-.55,3.4c.3.42.55.74.55.74C177.31,245,197.2,245,212.37,230.3Z"/></g><path class="cls-32" d="M136.3,178l10.79,39.64-5.48,37s48.73,18.52,79.31-1.43l-6.28-82.76Z"/><g id="_Group_2" data-name="&lt;Group&gt;"><g id="_Group_3" data-name="&lt;Group&gt;"><path id="_Path_2" data-name="&lt;Path&gt;" class="cls-32" d="M204.77,143.16c2.44,1,19.05,5.56,9.86,27.27L211.82,229s3.13,9,1.16,10.93c-15.18,14.72-35.08,14.72-62.58,3.49a12.78,12.78,0,0,1-1.64-2.59c-1-4,2.35-15.08,2.35-15.08L135.74,178s-15.15-20.62-5.12-28.1C146.4,138.1,178.93,132.29,204.77,143.16Z"/></g></g><path class="cls-36" d="M220.91,253.2l-3.64-48a94.87,94.87,0,0,0-16.56,28.12,117.16,117.16,0,0,1-41.09-35.6l12,32.13c-10.39-12.19-26.77-45.12-37.16-57.32l12.62,45.1-5.48,37S190.33,273.15,220.91,253.2Z"/><path class="cls-34" d="M189,136.07s6.06-.26,7.17.42,3.86,8.64,4.42,9.9-7.37,8.67-7.37,8.67,6.54,10.74,6.27,11.6-11.87,47.8-11.87,47.8-28.12-41.94-28.69-44,2.69-12.87,2.69-12.87-8.33-6.14-8.83-7.47-1.57-9.89,0-11c1-.67,6.56-1.93,6.56-1.93Z"/><path class="cls-29" d="M159.38,139.21h0L175.58,181c6,15.41,12.56-.71,12.56-.71L190,136.17c-.41,0-1.27-.14-1.69-.16Z"/><path class="cls-37" d="M187.85,150.27c1.73-.41,1.81-5.81,1.81-5.81l.34-8.17-.05-.12c-.43,0-1.23-.14-1.63-.16l-26.68,3c.1.32-1,2.54-.78,3.17,1.54,4.55,6.53,11.09,7.52,11.25,1.17.19,4.16-3.23,4.56-4.35.61.55,1.66,2.21,2.28,2.76.33,8,0,18.41-.09,28.08l10.79,27.85c.34.45.68.87,1,1.28l1-23.63-9-34.13c1-1.31,2.19-2.28,3.15-3.59A8.39,8.39,0,0,0,187.85,150.27Z"/><g id="_Group_4" data-name="&lt;Group&gt;"><g id="_Group_5" data-name="&lt;Group&gt;"><path class="cls-28" d="M181.68,140.51c-2.59,1.49-7.94,2.27-10.84,2.35-4.32.12-2.58-2.41-4-2.79l-14-32.34,25.34,11.42.06,1.07Z"/></g></g><g id="_Group_6" data-name="&lt;Group&gt;"><g id="_Group_7" data-name="&lt;Group&gt;"><path class="cls-30" d="M174.72,130.44a25.39,25.39,0,0,1-7.78-2.27A53.1,53.1,0,0,1,160,124.4l-7.22-16.67,25.34,11.42.06,1.07L180,130.94C178.27,130.76,176.49,130.65,174.72,130.44Z"/></g></g><path class="cls-38" d="M188.15,180.33l-9-30.44,3.94-4.43-6.7-4.1-5.12,4.73,4.77,4.22a282.69,282.69,0,0,0-.44,30.73l11.31,29.17Z"/><g id="_Group_8" data-name="&lt;Group&gt;"><g id="_Group_9" data-name="&lt;Group&gt;"><path class="cls-29" d="M163.27,131.86s10.19,9.75,12.8,9.33,4-10.26,4-10.26,9.3,2.68,10.44,4-1.64,14-2.87,14.65c-2.58,1.3-10.34-7.36-11.75-6.26s-5.41,8.5-6.73,8.36-11.81-10.5-11.22-14.3S163.27,131.86,163.27,131.86Z"/></g></g><path class="cls-28" d="M143.69,90.5s-8.75-2-7.54,8.45,8.78,10.66,11,11.11c0,0,4.16,18.6,27.11,16.82s19.19-19.55,19-31.34,1.15-32.25-13.88-33.75S142.36,61.27,143.69,90.5Z"/><path class="cls-39" d="M181.69,116a4.7,4.7,0,0,0-1.18-.62s-8.5-.17-8.67-.1c-1,.4-1,.89-.66,1.34a3.86,3.86,0,0,0,2.29,1.07,20.42,20.42,0,0,0,5.37.27C182.19,117.65,182.7,116.76,181.69,116Z"/><path class="cls-40" d="M171,115.87a45.4,45.4,0,0,1,5.39.48,23.62,23.62,0,0,1,4.82,1.15,9.85,9.85,0,0,1-2.39.45,20.41,20.41,0,0,1-5.37-.27,3.86,3.86,0,0,1-2.29-1.07A.67.67,0,0,1,171,115.87Z"/><path class="cls-29" d="M171.84,115.27a5.33,5.33,0,0,1,.6-.2,14.19,14.19,0,0,1,8.06.29Z"/><path class="cls-30" d="M177,107c0-.22.73-.42,1.13-1.4a2.84,2.84,0,0,0,.14-1.75,10.61,10.61,0,0,0-.87-2.32c-1.6-3.48-2.58-6.45-2.19-6.63s2,2.49,3.61,6a8.74,8.74,0,0,1,.88,2.77,4,4,0,0,1-.09,1.4,3.35,3.35,0,0,1-.53,1.11,2.33,2.33,0,0,1-1.44,1C177.19,107.19,177,107.07,177,107Z"/><path class="cls-32" d="M159.12,89.3c.09-.21.78-.1,1.83-.05a10.52,10.52,0,0,0,7.48-2.42l1-.8c.25-.2.43-.29.52-.23s.09.26,0,.57a4.74,4.74,0,0,1-.7,1.23,8,8,0,0,1-8.47,2.74C159.61,90,159,89.48,159.12,89.3Z"/><path class="cls-32" d="M176.93,87.18c-.08-.07,0-.27.12-.56a4.79,4.79,0,0,1,.85-1.13,5.45,5.45,0,0,1,1.83-1.18,8.09,8.09,0,0,1,1.2-.38c.21-.05.43-.09.65-.13l.63-.09a7.91,7.91,0,0,1,4.61.82,4.74,4.74,0,0,1,1.15.83c.23.24.31.42.26.52s-.26.08-.57,0l-1.24-.32a11.2,11.2,0,0,0-4-.3l-.62.08-.56.09c-.37.07-.72.15-1,.24a6.72,6.72,0,0,0-1.62.69C177.7,86.9,177.09,87.34,176.93,87.18Z"/><circle class="cls-41" cx="159.8" cy="108.01" r="6.16" transform="translate(-4.75 7.38) rotate(-2.61)"/><circle class="cls-42" cx="187.64" cy="106.74" r="6.16" transform="translate(-4.66 8.64) rotate(-2.6)"/><circle class="cls-32" cx="165.03" cy="95.92" r="3.08" transform="translate(-4.19 7.6) rotate(-2.61)"/><circle class="cls-32" cx="182.58" cy="95.12" r="3.08" transform="translate(-4.14 8.4) rotate(-2.61)"/><path class="cls-43" d="M139.14,95.16c-.8,2.76.33,5.68,1.45,8.33a4.51,4.51,0,0,0,1.4,2.1,1.56,1.56,0,0,0,2.23-.36c.36-.75-.17-1.58-.58-2.3s-.65-1.79,0-2.24c.32-.21.75-.19,1.09-.37.74-.39.74-1.45.54-2.26a12.66,12.66,0,0,0-1.24-3.23c-.55-1-1.42-2-2.55-2S139.47,94,139.14,95.16Z"/><path class="cls-34" d="M167.55,449.52c-5-4.69-9.39-.74-9.39-.74l-1.89-1.07c-2.74,4.11-8,9-8.66,11.43-1.26,4.57,1,9.89,8.34,9.89,7.18,0,14.09-4.39,14.87-8,.47-2.13-.29-7.91-.53-12.2Z"/><path class="cls-44" d="M192.8,333.37l-.33-1.76c3.71,13,8.89,30.5,9.82,30.55,1.47.08,16.2-2.28,16.84-4.22.29-.87,1.52-14.07,2.79-28.46C223.43,349.75,230,443,230,443c-9.74,3.81-20.23.88-20.23.88Z"/><path class="cls-45" d="M152.36,440.77v-.3l0-.37-.08-1.77,0-.55,0-1.13,0-.47-.13-3,0-.55-.09-2v0l-.1-2.3,0-.38c-.09-2-.18-4.1-.29-6.37l0-.67c-.18-3.89-.37-8.16-.58-12.65V408l-.24-5.14v-.17c-.68-14.36-1.45-30.1-2.12-42.06v0c-.17-3-.33-5.74-.48-8.18,3,2.17,8.08,5.6,10.15,5.54,3-.1,13.18-8.37,13.78-12,.48-2.94,3.94-30.57,5.31-41.54-.35,19.37-.74,40.63-.75,40.43,0,0,0,.12,0,.39v.18c0,1.1-.07,3.76-.13,7.52q0,.33,0,.67c0,1.37,0,2.87-.08,4.49l0,1.65c0,2.25-.08,4.7-.12,7.29q0,.49,0,1c-.48,28.52-1.21,73.21-1.21,73.21a18.64,18.64,0,0,1-5.58,1.73c-.64.1-1.28.17-1.92.22s-1.28.07-1.91.07-1.26,0-1.87,0-1.22-.09-1.81-.15-1.16-.14-1.72-.23c-.84-.13-1.63-.28-2.37-.44l-1.4-.33a35.6,35.6,0,0,1-4-1.21Z"/><path class="cls-32" d="M143.69,90.5a13.7,13.7,0,0,1,4.59,8.5h2.64V88.89s8-2.2,5-14-15-.08-15-.08Z"/><path class="cls-32" d="M166.54,71.94a20.11,20.11,0,0,1-19.25,1.32c-10.71-4.85-10.66-12-10.66-12s9.37-.37,15.73-7.43,24.9-14.22,38.88-4.52,9.58,23.93,1.21,26.33-13.12-3.41-15.24-2.13S171.75,76.17,166.54,71.94Z"/><path class="cls-46" d="M196.42,54a23.23,23.23,0,0,0-3.07-3.1,96,96,0,0,1-55,15.26,14.51,14.51,0,0,0,1.28,1.71,33.85,33.85,0,0,0-4.6,2.85,65.89,65.89,0,0,0,24.3,1.32A66.28,66.28,0,0,0,196.42,54Z"/><g id="_Group_10" data-name="&lt;Group&gt;"><polygon class="cls-47" points="185.7 238.58 108.66 244.6 112.47 294.61 189.96 287.42 185.7 238.58"/></g><path class="cls-48" d="M143,241.92c1.74,6.7,1.13,13.94,1.38,20.94.29,8.24,2.43,17.36,9.35,21.83,6.44,4.16,15,2.92,22.16.2A63.56,63.56,0,0,0,189.14,278l.82,9.4-56.49,5.24c.33-3.95-.69-8-1.71-11.83l-9.67-36.69-.15-.57Z"/><path class="cls-49" d="M133.29,272.38s.94,5.1,1,7.23a33.81,33.81,0,0,0,.89,7.81c.83,3.27-2.25,2.6,1.68,6.14s4,1.29,4.57,4.46,5.6,1.71,5.6,1.71a6.27,6.27,0,0,0,3.54,3c2.78,1.11,3-.16,4.9-8,0,0,5.4-1.95,4.75-3.88s-14.38-9.42-14.38-9.42l-4-10.36Z"/><path class="cls-29" d="M131,276.86l1.37,6.91s14-1.94,17.91-4.42l-1.78-8.56Z"/><path class="cls-32" d="M118.71,210.21s.47-47.83,10.18-58.59l16.79,21.71-3.08,44.15c.32,8.67,8.93,56.78,8.93,56.78s-11,4.91-22.67,5.64C128.85,279.9,118.14,224.47,118.71,210.21Z"/></g></g></svg>