<svg id="Layer_1" data-name="Layer 1" xmlns="http://www.w3.org/2000/svg" viewBox="0 0 2000 1354"><defs><style>.cls-1{fill:#b2aea3;}.cls-2{fill:#fff;}.cls-3{fill:#e1e1e1;}.cls-4{fill:#ececec;}.cls-5{fill:#0e8fad;}.cls-6{fill:#bcbbbb;}.cls-7{fill:#3cd34e;}.cls-8{fill:#fafafa;}.cls-9{fill:#ff4f5b;}.cls-10{fill:#1a2e35;}.cls-11{isolation:isolate;}</style></defs><title>pay1</title><rect class="cls-1" x="1198.04" y="508.42" width="455.2" height="699.98" rx="35.35" ry="35.35" transform="translate(-238.48 860.94) rotate(-31.14)"/><circle class="cls-2" cx="1632.54" cy="965.42" r="48.29" transform="translate(-264.01 983.35) rotate(-31.14)"/><path class="cls-2" d="M1662.77,1065.92a51.1,51.1,0,0,1-12.23-1.46,50.4,50.4,0,1,1,12.23,1.46Zm0-96.69a46,46,0,1,0,23.88,85.34h0a46,46,0,0,0-23.88-85.34Z"/><path class="cls-2" d="M1289.22,808.61c-5.85,3.39-12.47,2.17-17.56-5.85a20.08,20.08,0,0,1-2.93-14.52h3.69a16.8,16.8,0,0,0,2.34,12.53c3.39,5.85,8,7,12,4.57s5.33-6.85,0-15.34l-4.27-7.08,17.56-8.37,11,18.2-3,1.81-9.19-15.22-11.3,5.27,2.58,4.27C1296.65,798.84,1295.13,805,1289.22,808.61Z"/><path class="cls-2" d="M1309.24,841.39a12.12,12.12,0,0,1-16.59-4.27q-.27-.46-.5-.94c-5.33-8.84-2.11-17.56,8.37-23.41s21-4.21,26.4,4.8a17.85,17.85,0,0,1,3,9l-3.57.29a13.58,13.58,0,0,0-2.34-7.43c-4.33-7.2-11.71-9-20.72-3.57-.76.47-1.7,1.05-2.63,1.76a12.41,12.41,0,0,1,11.71,6.73,11.71,11.71,0,0,1-3.1,17.09Zm-2.11-3.34a1,1,0,1,1-.06,0Z"/><path class="cls-2" d="M1336.34,887.11c-5.56,3.34-12.29,1.93-17.09-5.85a20.19,20.19,0,0,1-3-14.57h3.8a17,17,0,0,0,2.4,12.64c3.34,5.5,7.73,7,11.71,4.51s4.92-6.79,1.17-12.94l-1.46-2.4,2.52-1.52,17.09,2.22-10-17.21,3-1.81,12.94,21.36-2.4,1.46-17.56-2.28C1343.48,878.09,1341.66,883.89,1336.34,887.11Z"/><path class="cls-2" d="M1356.88,920.35a12.12,12.12,0,0,1-16.59-4.27q-.27-.46-.5-.94c-5.33-8.84-2.11-17.56,8.37-23.41s21-4.21,26.4,4.8a17.85,17.85,0,0,1,3,9l-3.57.29a13.64,13.64,0,0,0-2.34-7.43c-4.33-7.2-11.71-9-20.72-3.57l-2.63,1.76a12.41,12.41,0,0,1,11.71,6.73,11.71,11.71,0,0,1-3.1,17.09Zm-2.11-3.34a.47.47,0,1,1-.06-.12Z"/><path class="cls-2" d="M1398.67,936.74l-2.52,1.17-39.22,4.68-2.22-3.69,38.46-4.57-10.36-17.09-6.2,3.75-2-3.39,9.25-5.85Z"/><path class="cls-2" d="M1427.41,984.27l-2.4,1.46-39.22,4.68-2.22-3.69,38.46-4.57-10.36-17.09-6.2,3.75-2-3.39,9.25-5.85Z"/><path class="cls-2" d="M1423.2,1031.56c-5.85,3.57-12.58.76-17.56-7.14s-4.1-15,1.81-18.61a9.72,9.72,0,0,1,12.06,1.46,8.78,8.78,0,0,1,4.16-9.66c5.44-3.28,11.71-.7,15.8,6.32s3.75,13.75-1.7,17a8.78,8.78,0,0,1-10.54-.88A9.77,9.77,0,0,1,1423.2,1031.56Zm-2-3.57c4.1-2.46,4.51-7.55,1-13.4s-8.19-7.78-12.29-5.33-4.62,7.49-1.05,13.4S1417,1030.45,1421.15,1028Zm3.69-15c3.1,5.15,7.32,6.85,10.95,4.68s4-6.91,1.05-11.71-7.26-6.85-10.95-4.62-4.21,6.44-1.11,11.59Z"/><path class="cls-2" d="M1450.36,1059.19c-11.3,6.85-21,4.21-26.4-4.8a17.56,17.56,0,0,1-3-9h3.57a13.64,13.64,0,0,0,2.34,7.43c4.33,7.14,11.71,9,20.72,3.51.76-.47,1.7-1.05,2.63-1.76a12.41,12.41,0,0,1-11.71-6.73,11.71,11.71,0,0,1,3.22-17.21,12.12,12.12,0,0,1,16.59,4.27q.27.46.5.94C1464.11,1044.38,1460.83,1052.87,1450.36,1059.19Zm3.75-8.72a9,9,0,0,0,2.24-12.55q-.2-.29-.43-.56a8.49,8.49,0,1,0-14.22,9,9,9,0,0,0,11.95,4.44l.46-.23Z"/><path class="cls-2" d="M1487.06,1083.07l-33.25,20.08-2-3.39,30.2-18.26-4.74-7.84,3-1.81Z"/><path class="cls-2" d="M1477.51,1135.51l-3,1.81-14.11-23.41,2.4-1.46,21.89,5.85a12.94,12.94,0,0,0,10.95-.53c3.86-2.34,4.57-6.5,1.52-11.71a13.23,13.23,0,0,0-9.19-6.85l.64-3.69a17.56,17.56,0,0,1,11.71,8.9c4.1,6.73,3.22,13.11-2.34,16.45a16,16,0,0,1-13.7.82l-18-4.62Z"/><path class="cls-2" d="M1502,1161.38c-5.56,3.34-12.29,1.93-17.09-5.85a20.19,20.19,0,0,1-3-14.57h3.69a17,17,0,0,0,2.4,12.64c3.34,5.5,7.73,7,11.71,4.51s4.92-6.79,1.17-13l-1.4-2.4,2.52-1.52,17.09,2.22-10.24-17,3-1.81,12.94,21.36-2.4,1.46-17.56-2.28C1509,1152.37,1507.37,1158.17,1502,1161.38Z"/><rect class="cls-2" x="1378.18" y="908.38" width="16.86" height="311.27" transform="translate(-350.44 870.38) rotate(-31.14)"/><rect class="cls-2" x="1388.5" y="1066.47" width="16.86" height="159.62" transform="translate(-391.49 887.57) rotate(-31.14)"/><rect class="cls-3" x="1265.48" y="572.59" width="97.57" height="130.58" rx="29.03" ry="29.03" transform="translate(-140.49 771.56) rotate(-31.14)"/><path class="cls-4" d="M1261.83,593.28l5.38-3.22L1302,647.59A14.09,14.09,0,0,0,1326.09,633h0l-34.77-57.54,5.38-3.22,34.77,57.54a20.34,20.34,0,1,1-34.83,21h0Z"/><rect class="cls-4" x="1331.71" y="651.64" width="6.26" height="46.18" transform="translate(-156.68 786.21) rotate(-31.09)"/><rect class="cls-2" x="1459.22" y="511.7" width="28.8" height="335.85" transform="translate(-139.12 859.98) rotate(-31.14)"/><rect class="cls-5" x="300.49" y="574.96" width="465.07" height="715.16" rx="36.12" ry="36.12" transform="translate(-293.67 246.73) rotate(-20.57)"/><circle class="cls-2" cx="720.76" cy="1078.79" r="49.34" transform="matrix(0.94, -0.35, 0.35, 0.94, -333.08, 322.02)"/><path class="cls-2" d="M732.29,1185.4a52.21,52.21,0,0,1-12-3.76,51.49,51.49,0,1,1,12,3.76Zm18.12-97.12a47,47,0,1,0,8,90.19h0a47,47,0,0,0-8-90.19Z"/><path class="cls-2" d="M405.33,857c-6.51,2.31-12.93-.16-16.54-9.17a20.51,20.51,0,0,1-.22-15.13l3.7.69a17.16,17.16,0,0,0,0,13c2.31,6.51,6.69,8.49,11.2,6.83s6.63-5.88,2.87-15.4l-3-7.91,19.2-5.12,7.64,20.34-3.4,1.25-6.38-17-12.33,3.17,1.79,4.77C414.63,848.54,411.94,854.49,405.33,857Z"/><path class="cls-2" d="M419.3,893.64a12.38,12.38,0,0,1-15.86-7.4q-.19-.51-.33-1c-3.69-9.88,1.17-18,12.79-21.95s21.84-.31,25.61,9.77a18.24,18.24,0,0,1,1.32,9.55l-3.64-.38a13.87,13.87,0,0,0-1-7.9c-3-8-10.07-11.25-20.14-7.47-.85.33-1.9.74-3,1.27a12.68,12.68,0,0,1,10.5,9,12,12,0,0,1-6.32,16.58Zm-1.49-3.75a1.05,1.05,0,1,1-.06,0Z"/><path class="cls-2" d="M437.95,944.63c-6.21,2.31-12.71-.36-16.07-9.08a20.63,20.63,0,0,1-.27-15.2l3.82.71a17.4,17.4,0,0,0,0,13.15c2.32,6.15,6.44,8.5,10.91,6.72s6.21-5.9,3.6-12.77l-1-2.68,2.81-1.06,16.75,5.44-6.83-19.16,3.4-1.25,9,23.88-2.68,1-17.21-5.58C446.81,936.91,443.9,942.39,437.95,944.63Z"/><path class="cls-2" d="M452.35,981.87a12.38,12.38,0,0,1-15.86-7.4q-.19-.51-.33-1c-3.69-9.88,1.17-18,12.79-21.95s21.84-.31,25.61,9.77a18.24,18.24,0,0,1,1.32,9.55l-3.64-.38a13.93,13.93,0,0,0-1-7.9c-3-8-10.07-11.25-20.14-7.47l-3,1.27a12.68,12.68,0,0,1,10.5,9,12,12,0,0,1-6.32,16.58Zm-1.49-3.75a.48.48,0,1,1,0-.13Z"/><path class="cls-2" d="M491.25,1006.16l-2.75.7-40.26-2.65-1.54-4.12,39.48,2.62L479,983.61l-6.93,2.6-1.42-3.79L481,978.27Z"/><path class="cls-2" d="M511.21,1059.28l-2.68,1-40.26-2.65-1.54-4.12,39.48,2.62-7.2-19.11-6.93,2.6-1.42-3.79,10.39-4.15Z"/><path class="cls-2" d="M498.11,1106c-6.55,2.49-12.78-1.59-16.3-10.46s-1.3-15.88,5.31-18.35a9.93,9.93,0,0,1,11.84,3.73,9,9,0,0,1,6-8.92c6.08-2.27,11.89,1.49,14.69,9.31s1.18,14.52-4.9,16.79a9,9,0,0,1-10.42-2.86A10,10,0,0,1,498.11,1106Zm-1.39-4c4.58-1.7,5.94-6.74,3.51-13.28s-6.77-9.35-11.35-7.65-6,6.66-3.57,13.26S492.09,1103.71,496.72,1102Zm6.52-14.42c2.15,5.75,6.06,8.25,10.12,6.75s5.35-6.18,3.25-11.56-6-8.24-10.13-6.7-5.44,5.68-3.29,11.43Z"/><path class="cls-2" d="M520.21,1138.83c-12.63,4.76-21.84.31-25.61-9.77a17.94,17.94,0,0,1-1.32-9.55l3.59.67a13.93,13.93,0,0,0,1,7.9c3,8,10.07,11.25,20.15,7.41.85-.33,1.9-.74,3-1.27a12.68,12.68,0,0,1-10.5-9,12,12,0,0,1,6.46-16.68,12.38,12.38,0,0,1,15.86,7.4q.19.51.33,1C536.8,1126.53,531.92,1134.44,520.21,1138.83Zm5.4-8.06a9.21,9.21,0,0,0,4.6-12.18q-.15-.33-.32-.64a8.67,8.67,0,1,0-16,6.33,9.21,9.21,0,0,0,11.17,6.7l.5-.14Z"/><path class="cls-2" d="M552.59,1169.69l-37.15,13.93-1.42-3.79,33.76-12.68-3.29-8.77,3.4-1.25Z"/><path class="cls-2" d="M533.18,1220.58l-3.4,1.25L520,1195.67l2.68-1,20.89,10a13.22,13.22,0,0,0,11.09,1.52c4.32-1.63,5.8-5.67,3.72-11.47a13.51,13.51,0,0,0-7.95-8.6l1.34-3.58a17.94,17.94,0,0,1,10.09,11.13c2.85,7.53.78,13.77-5.43,16.08a16.33,16.33,0,0,1-13.91-1.74l-17.18-8Z"/><path class="cls-2" d="M553,1251.16c-6.21,2.31-12.71-.36-16.07-9.08a20.63,20.63,0,0,1-.27-15.2l3.7.69a17.4,17.4,0,0,0,0,13.15c2.32,6.15,6.44,8.5,10.91,6.72s6.21-5.9,3.61-12.83l-1-2.67,2.81-1.06,16.75,5.44-7.11-19,3.4-1.25,9,23.88-2.68,1-17.21-5.58C561.65,1243.41,558.92,1248.92,553,1251.16Z"/><rect class="cls-2" x="446.67" y="972.72" width="17.22" height="318.02" transform="translate(-368.61 232.12) rotate(-20.57)"/><rect class="cls-2" x="441.62" y="1134.75" width="17.22" height="163.08" transform="translate(-398.64 235.73) rotate(-20.57)"/><rect class="cls-3" x="412.64" y="623.48" width="99.69" height="133.42" rx="29.66" ry="29.66" transform="translate(-213.01 206.5) rotate(-20.57)"/><path class="cls-4" d="M418.18,635.55l6-2.22,24.14,64.3a14.39,14.39,0,0,0,27-10.12h0l-24.14-64.3,6-2.22,24.14,64.3a20.78,20.78,0,1,1-38.92,14.58h0Z"/><rect class="cls-4" x="473.05" y="707.45" width="6.4" height="47.18" transform="translate(-226.04 213.32) rotate(-20.52)"/><rect class="cls-2" x="600" y="590.4" width="29.42" height="343.14" transform="translate(-228.53 264.56) rotate(-20.57)"/><path class="cls-6" d="M760.31,22.21c-8.89,29.48-19.39,85.72-36.63,111.24s-38.3,51-68.42,57.34c-37.12,7.81-75.12-7.67-113-6.74-59.41,1.42-111.86,43.88-141.67,95.17S359.26,390.29,348.24,448.7L626.18,553.47s27.88-116.21,60.09-142.38,157.55-27.9,216.5-106.17c53.07-70.46,91.82-192.4,91.82-192.4Z"/><ellipse class="cls-3" cx="812.15" cy="158.63" rx="0.75" ry="60.3" transform="translate(379.11 863.77) rotate(-69.5)"/><ellipse class="cls-3" cx="807.91" cy="183.92" rx="0.75" ry="60.29" transform="translate(349.18 873.92) rotate(-69.21)"/><ellipse class="cls-3" cx="787.65" cy="202.65" rx="0.75" ry="60.3" transform="translate(321.96 869.43) rotate(-69.5)"/><ellipse class="cls-3" cx="905.44" cy="193.83" rx="0.75" ry="14.77" transform="translate(386.63 960.79) rotate(-68.01)"/><ellipse class="cls-3" cx="899.7" cy="214.42" rx="0.75" ry="14.77" transform="translate(363.95 968.35) rotate(-68.01)"/><ellipse class="cls-3" cx="665.01" cy="251.5" rx="0.75" ry="90.62" transform="translate(193.82 783.92) rotate(-69.21)"/><path class="cls-3" d="M724,303.65a10.09,10.09,0,0,1-1.94-.44l-5.34-2-19.6-7.53-64.36-25.48c-25.11-10-47.84-19.16-64.24-25.85l-19.38-8-5.24-2.28a9.91,9.91,0,0,1-1.76-.91,10.65,10.65,0,0,1,1.89.65l5.33,2,19.55,7.59,64.36,25.48,64.22,25.77,19.41,8,5.25,2.24A10.09,10.09,0,0,1,724,303.65Z"/><path class="cls-3" d="M682.28,317.82a33.63,33.63,0,0,1-7.06-2.25c-4.58-1.65-11.15-4.16-19.25-7.27-16.22-6.22-38.59-15-63.25-24.75s-47-18.74-63.08-25.19l-19-7.94-5.15-2.18a9.7,9.7,0,0,1-1.77-.87,9.69,9.69,0,0,1,1.91.43l5.24,1.95,19.22,7.41,63.19,25,63.08,25.19Z"/><ellipse class="cls-3" cx="550.35" cy="323.66" rx="0.75" ry="112.21" transform="translate(47.55 717.16) rotate(-68.51)"/><ellipse class="cls-3" cx="579.74" cy="396.93" rx="0.75" ry="36.75" transform="translate(-5.01 786.45) rotate(-68.07)"/><path class="cls-7" d="M1407.15,472.92,1041,526.51a32.31,32.31,0,0,1-36.23-27.85l-.05-.44L956.22,141.73a33.09,33.09,0,0,1,27.31-37.61l366.05-53.59a32.31,32.31,0,0,1,36.23,27.85l.05.44,48.54,356.69A33.09,33.09,0,0,1,1407.15,472.92Z"/><path class="cls-4" d="M1275.94,341.47a16.87,16.87,0,0,1-2.84.64l-8.29,1.42-30.74,4.9-103.3,15.74h-.83v-.83l-4.9-17.41-34.81-126.2.69.44L1063.35,224l-7.35.93a13.68,13.68,0,0,1-2.55,0,13.73,13.73,0,0,1,2.5-.54l7.31-1.27,27.51-4.41h.54v.54l35.5,126,4.9,17.41-1.08-.74L1234,346.87l30.84-4.27,8.34-1.08A16.72,16.72,0,0,1,1275.94,341.47Z"/><path class="cls-4" d="M1122.09,332.55h.74l2.16-.39,8.29-1.42,31.08-4.9,107.23-16.33-.83.93,1.86-61.43,1-32.26,1.13,1-126.45,18.48-37.46,5.3-10.1,1.32-2.65.29h0l2.6-.49,10.05-1.67,37.16-6.13,126.35-19.17h1.13v1.23l-1,32.26-2,61.43v.83h-.78l-107.32,15.64-31.13,4.36-8.34,1.08h-2.79Z"/><path class="cls-4" d="M1266.14,384.67a34.56,34.56,0,0,0-1.32-3.48,15,15,0,0,0-6.42-7,13.58,13.58,0,0,0-13.29,0,14.71,14.71,0,0,0-7.06,14.71,14.22,14.22,0,0,0,10.74,12,13.73,13.73,0,0,0,12.75-3.82,15.44,15.44,0,0,0,4.27-8.63c.34-2.35,0-3.68.34-3.73a7.94,7.94,0,0,1,.44,3.78,15.44,15.44,0,0,1-4,9.56,15,15,0,0,1-14.12,4.66,15.93,15.93,0,0,1-12.36-13.53,16.38,16.38,0,0,1,8.19-16.57,14.71,14.71,0,0,1,14.71.34,15.05,15.05,0,0,1,6.47,8A8,8,0,0,1,1266.14,384.67Z"/><path class="cls-8" d="M1305.95,196.3a43.24,43.24,0,0,1-35.5,49,42.16,42.16,0,0,1-47.34-36.26q0-.28-.07-.56a43.24,43.24,0,0,1,35.5-49,42.16,42.16,0,0,1,47.34,36.26Q1305.92,196,1305.95,196.3Z"/><path class="cls-9" d="M1284.77,183.06a39.76,39.76,0,0,1-4.46,7.7c-2.94,4.61-7.11,10.93-11.82,17.85l-4.9,7.35-.54.78-.74-.49a136.5,136.5,0,0,1-17-12.5,135,135,0,0,1,18,10.88l-1.27.25,4.9-7.4c4.9-6.91,9-13.09,12.26-17.5A39.22,39.22,0,0,1,1284.77,183.06Z"/><path class="cls-3" d="M719.14,1158.43a19.89,19.89,0,0,1,2.12-2.75l6.07-7.26c5.11-6.13,12.13-14.62,19.59-24.23s14.06-18.43,18.76-24.9l5.57-7.62a20.06,20.06,0,0,1,2.15-2.72,19.89,19.89,0,0,1-1.79,3c-1.23,1.89-3,4.58-5.27,7.86-4.54,6.63-11,15.52-18.5,25.13s-14.62,18-19.89,24c-2.65,3-4.81,5.4-6.33,7A20.09,20.09,0,0,1,719.14,1158.43Z"/><ellipse class="cls-3" cx="891.42" cy="328.46" rx="0.7" ry="56.29" transform="translate(445.6 1167.37) rotate(-82.24)"/><ellipse class="cls-3" cx="865.81" cy="353.25" rx="0.7" ry="56.28" transform="translate(394.8 1161.07) rotate(-81.95)"/><path class="cls-3" d="M1021.22,322.87a70.48,70.48,0,0,1-13.76-1.59A81.69,81.69,0,0,1,994,318.42a58.68,58.68,0,0,1,14,1.56A69,69,0,0,1,1021.22,322.87Z"/><path class="cls-3" d="M1011.57,346.21a70.48,70.48,0,0,1-13.76-1.59,81.69,81.69,0,0,1-13.49-2.85A58.68,58.68,0,0,1,998,343.19,69,69,0,0,1,1011.57,346.21Z"/><path class="cls-3" d="M990.55,368.38a70.48,70.48,0,0,1-13.76-1.59,81.69,81.69,0,0,1-13.49-2.85A58.68,58.68,0,0,1,977,365.43,69,69,0,0,1,990.55,368.38Z"/><path class="cls-3" d="M955.48,399.94a70.51,70.51,0,0,1-13.76-1.59,81.75,81.75,0,0,1-13.49-2.85A58.65,58.65,0,0,1,942,397,69,69,0,0,1,955.48,399.94Z"/><path class="cls-3" d="M928.39,415a70.48,70.48,0,0,1-13.76-1.59,81.69,81.69,0,0,1-13.49-2.85A58.68,58.68,0,0,1,914.87,412,69,69,0,0,1,928.39,415Z"/><path class="cls-3" d="M891.93,440.36a70.51,70.51,0,0,1-13.76-1.59A81.75,81.75,0,0,1,864.74,436a58.65,58.65,0,0,1,13.73,1.49A69,69,0,0,1,891.93,440.36Z"/><path class="cls-4" d="M1276.49,573.26a23.37,23.37,0,0,0-.9-2.35,10.14,10.14,0,0,0-4.34-4.74,9.18,9.18,0,0,0-9,0,10,10,0,0,0-4.77,9.95,9.61,9.61,0,0,0,7.26,8.09,9.28,9.28,0,0,0,8.62-2.59,10.44,10.44,0,0,0,2.88-5.83c.23-1.59,0-2.49.23-2.52a5.37,5.37,0,0,1,.3,2.55,10.44,10.44,0,0,1-2.72,6.46,10.14,10.14,0,0,1-9.55,3.15,10.77,10.77,0,0,1-8.35-9.15,11.07,11.07,0,0,1,5.54-11.21,10,10,0,0,1,9.95.23,10.18,10.18,0,0,1,4.38,5.4A5.37,5.37,0,0,1,1276.49,573.26Z"/><path class="cls-10" d="M1143.65,1292.24l-334-1.56a72.93,72.93,0,0,1-72.44-72.93l3.55-837.49a72.93,72.93,0,0,1,73.1-72.47l334,1.56a72.93,72.93,0,0,1,72.27,73l-3.32,837.46A72.93,72.93,0,0,1,1143.65,1292.24Z"/><path class="cls-8" d="M1144.61,332.75l-64.78-.3a16.08,16.08,0,0,0-15.78,16.37h0v11.74a16.08,16.08,0,0,1-15.77,16.38h0L922,376.34a16.11,16.11,0,0,1-15.65-16.56h0V348a16.11,16.11,0,0,0-15.63-16.58H867.89l-56.69-.27A51,51,0,0,0,760,381.91v0l-3.32,817.43a51,51,0,0,0,50.72,51.19h0l333.38,1.52a51,51,0,0,0,51.19-50.72v0l3.32-817.43A51,51,0,0,0,1144.61,332.75Z"/><path class="cls-10" d="M803.21,419.64a1.33,1.33,0,0,1-1-.4l-5.07-5.3a1.33,1.33,0,0,1,0-1.88h0l5.24-4.84a1.33,1.33,0,0,1,1.82,1.92l-4.11,3.95,4.18,4.34a1.33,1.33,0,0,1-1,2.25Z"/><path class="cls-7" d="M846.24,1110.43h267.94a46.64,46.64,0,0,1,46.65,46.63h0a46.64,46.64,0,0,1-46.65,46.63H846.24a46.64,46.64,0,0,1-46.65-46.63h0A46.64,46.64,0,0,1,846.24,1110.43Z"/><circle class="cls-7" cx="982.6" cy="632.41" r="69.52"/><path class="cls-2" d="M1016.84,603.1c.9.73-12.1,18.2-29,39l-10.24,12.43-1.39,1.69-1.39-1.39c-13.26-13.59-22.21-23.7-21.58-24.33s10.74,8.39,24.33,21.58h-2.92l9.95-12.56C1001.53,618.68,1015.95,602.37,1016.84,603.1Z"/><path class="cls-9" d="M1081.32,604.43c-2.06-7.29-11.54-6.63-11.54-6.63l.27,5.07c5.47-1,8.88,5.47,8.88,5.47Z"/><path class="cls-3" d="M880,619.74c-2.06-7.29-11.54-6.63-11.54-6.63l.23,5.24c5.47-1,8.88,5.47,8.88,5.47Z"/><path class="cls-3" d="M990.92,518.9c11,3.32,17.87-9.35,17.87-9.35l-6.63-3.81c-3.32,7.79-14.26,6.86-14.26,6.86Z"/><path class="cls-9" d="M929.82,532.39c-5.14.53-5.74,7-5.74,7l3.32.4c0-3.78,4.67-5.34,4.67-5.34Z"/><path class="cls-3" d="M1141,579.43c.73-5.11-5.34-7.29-5.34-7.29l-1.26,3.32c3.65.93,4,5.87,4,5.87Z"/><path class="cls-9" d="M959.72,465.29c.73-5.11-5.34-7.29-5.34-7.29l-1.26,3.32c3.65.93,4,5.87,4,5.87Z"/><path class="cls-9" d="M833.15,547.54c-.93,8,9.68,9.95,9.68,9.95l1.92-5.24c-6.37-.56-7.26-8.06-7.26-8.06Z"/><path class="cls-9" d="M1068.76,518.56c5.14.3,6.63-6,6.63-6l-3.32-1c-.6,3.75-5.5,4.51-5.5,4.51Z"/><ellipse class="cls-3" cx="1092.63" cy="539.55" rx="4.24" ry="0.43"/><ellipse class="cls-3" cx="1101.38" cy="532.29" rx="0.43" ry="4.31"/><ellipse class="cls-3" cx="1110.43" cy="539.25" rx="4.24" ry="0.43"/><ellipse class="cls-3" cx="1101.68" cy="546.51" rx="0.43" ry="4.31"/><ellipse class="cls-3" cx="1107.03" cy="544.12" rx="0.43" ry="2.35" transform="translate(-91.47 835.96) rotate(-39.86)"/><ellipse class="cls-3" cx="1106.59" cy="534.29" rx="2.22" ry="0.43" transform="translate(-51.91 944.03) rotate(-45.25)"/><ellipse class="cls-3" cx="1096.87" cy="534.81" rx="0.43" ry="1.96" transform="translate(-15.79 1035.96) rotate(-50.24)"/><ellipse class="cls-3" cx="1096.6" cy="543.4" rx="2.12" ry="0.43" transform="translate(-43.65 987.97) rotate(-47.66)"/><ellipse class="cls-9" cx="861.36" cy="515.88" rx="4.24" ry="0.43"/><ellipse class="cls-9" cx="870.11" cy="508.62" rx="0.43" ry="4.31"/><ellipse class="cls-9" cx="879.16" cy="515.58" rx="4.24" ry="0.43"/><ellipse class="cls-9" cx="870.41" cy="522.84" rx="0.43" ry="4.31"/><ellipse class="cls-9" cx="875.78" cy="520.44" rx="0.43" ry="2.35" transform="translate(-130.04 682.24) rotate(-39.86)"/><ellipse class="cls-9" cx="875.31" cy="510.64" rx="2.22" ry="0.43" transform="translate(-103.57 772.77) rotate(-45.25)"/><ellipse class="cls-9" cx="865.61" cy="511.14" rx="0.43" ry="1.96" transform="translate(-80.94 849.65) rotate(-50.24)"/><ellipse class="cls-9" cx="865.32" cy="519.74" rx="2.12" ry="0.43" transform="translate(-101.67 809.29) rotate(-47.66)"/><ellipse class="cls-10" cx="1140.67" cy="405.42" rx="18.76" ry="0.7"/><ellipse class="cls-10" cx="1140.67" cy="413.24" rx="18.76" ry="0.7"/><ellipse class="cls-10" cx="1140.67" cy="421.03" rx="18.76" ry="0.7"/><rect class="cls-4" x="929" y="964.29" width="110.36" height="87.42" transform="translate(-31.52 1984.23) rotate(-89.55)"/><polygon class="cls-8" points="994.07 956.44 992.54 1063.29 978.72 1063.15 981.67 956.34 994.07 956.44"/><polygon class="cls-3" points="890.66 955.64 940.83 956.01 1028.25 956.7 940.73 968.21 940 1062.86 889.84 1062.46 890.66 955.64"/><polygon class="cls-8" points="917.95 955.84 915.96 1062.69 901.08 1062.56 903.53 955.71 917.95 955.84"/><path class="cls-3" d="M957.67,923.35c0,.66-1.43,1.36-4.14,2a64.88,64.88,0,0,1-11.6,1.56,67,67,0,0,1-8.22,0,28.88,28.88,0,0,1-4.64-.53,38.16,38.16,0,0,1-5.11-1.09,14.78,14.78,0,0,1-3.15-1.36,10,10,0,0,1-3.32-3.12,9.22,9.22,0,0,1-1.43-4.81,15.28,15.28,0,0,1,.43-3.71,64.28,64.28,0,0,1,3.32-11.07,29.84,29.84,0,0,1,3.32-5.64,26.91,26.91,0,0,1,2.15-2.55,16,16,0,0,1,2.92-2.35,12,12,0,0,1,3.95-1.59,10.51,10.51,0,0,1,4.54,0,15.15,15.15,0,0,1,6,3.32,48.27,48.27,0,0,1,11.47,14.09A34.55,34.55,0,0,1,958,918c.33,2.85,0,4.48-.63,4.64-1.43.33-3.32-5.3-9.05-12.37a56.76,56.76,0,0,0-11.21-10.74,6.63,6.63,0,0,0-2.55-1.33,1.06,1.06,0,0,0-.46,0,3.32,3.32,0,0,0-.76.4,7.23,7.23,0,0,0-1.09,1,16,16,0,0,0-1.23,1.56,22.55,22.55,0,0,0-2.12,3.85,71.8,71.8,0,0,0-3,9.38,8.2,8.2,0,0,0-.27,1.36h-.46l.33-.23h0l.27.23a5.83,5.83,0,0,0,1.23.66,36.93,36.93,0,0,0,3.88,1.19c1.36.36,2.69.66,4,.93,2.62.53,5.14.9,7.46,1.23,4.64.63,8.52,1,11.21,1.56S957.63,922.66,957.67,923.35Z"/><path class="cls-4" d="M955.84,924.11c-.23-1.39,6.3-3.32,16.58-6.43a142.81,142.81,0,0,0,17.21-6.17,16.58,16.58,0,0,0,3.71-2.09c.4-.33.6-.63.53-.6s0,.4,0,.2a9,9,0,0,0-.63-1.53L992,904.92a43.8,43.8,0,0,0-2.65-4.74,19.63,19.63,0,0,0-3.12-3.71,16.34,16.34,0,0,0-1.76-1.39,8.19,8.19,0,0,0-1.59-.86,4,4,0,0,0-2.59-.23,8.75,8.75,0,0,0-3.08,1.79,67.73,67.73,0,0,0-11.93,13c-5.87,8.32-7.39,14.85-8.85,14.62-.63,0-1.13-1.86-.9-5.07a37.2,37.2,0,0,1,3.78-13,57.09,57.09,0,0,1,12-16.28,17.27,17.27,0,0,1,6.2-3.91,13.26,13.26,0,0,1,8.65,0,17.2,17.2,0,0,1,3.65,1.79,24.79,24.79,0,0,1,3,2.25,27.85,27.85,0,0,1,4.77,5.57,47.64,47.64,0,0,1,3.32,5.9l1.29,2.82a15.75,15.75,0,0,1,1.29,4,9.08,9.08,0,0,1-1,5.8,11,11,0,0,1-3.32,3.58,23.9,23.9,0,0,1-6,3A89.51,89.51,0,0,1,974,924.38C962.8,925.81,956.07,925.37,955.84,924.11Z"/><rect class="cls-3" x="920.92" y="873.44" width="36.53" height="128.5" transform="translate(-5.85 1869.48) rotate(-89.55)"/><rect class="cls-4" x="962" y="879.91" width="36.53" height="116.17" transform="translate(34.6 1910.86) rotate(-89.55)"/><polygon class="cls-8" points="1002.79 919.97 1001.99 956.67 988.43 956.4 989.36 919.87 1002.79 919.97"/><polygon class="cls-8" points="906.54 919.41 905.25 955.77 890.33 955.64 891.13 919.11 906.54 919.41"/><rect class="cls-4" x="1028.49" y="1005.01" width="62.53" height="49.53" transform="translate(21.7 2081.41) rotate(-89.55)"/><polygon class="cls-8" points="1065.35 1000.56 1064.45 1061.1 1056.63 1061.03 1058.32 1000.5 1065.35 1000.56"/><polygon class="cls-3" points="1006.73 1000.1 1035.14 1000.3 1084.67 1000.7 1035.11 1007.23 1034.68 1060.87 1006.27 1060.64 1006.73 1000.1"/><polygon class="cls-8" points="1022.21 1000.2 1021.09 1060.73 1012.63 1060.7 1014.02 1000.13 1022.21 1000.2"/><path class="cls-3" d="M1044.69,981.77c0,.93-3.32,2.06-8.92,2.52a32.26,32.26,0,0,1-10.38-.86,7.06,7.06,0,0,1-4-2.78,5.9,5.9,0,0,1-.93-3.05,9.39,9.39,0,0,1,.23-2.25,36.11,36.11,0,0,1,1.92-6.4,17.44,17.44,0,0,1,1.89-3.32,11.34,11.34,0,0,1,3.08-3,6.9,6.9,0,0,1,5.3-.9,9.08,9.08,0,0,1,3.65,2,27.09,27.09,0,0,1,6.63,8.22c2.69,5.4,2.29,9.25,1.43,9.38s-2.32-2.88-5.54-6.63a33.15,33.15,0,0,0-6.33-5.87,2.85,2.85,0,0,0-1.19-.6h-.2a5.74,5.74,0,0,0-1.13,1.26,12.3,12.3,0,0,0-1.13,2.06,41.57,41.57,0,0,0-1.69,5.2v.63h-.83a2.65,2.65,0,0,0,.5-.43h0a2.36,2.36,0,0,0,.56.33,47.86,47.86,0,0,0,8.52,2C1041.11,980.18,1044.69,980.81,1044.69,981.77Z"/><path class="cls-3" d="M1043.66,982.23c-.2-1.06,3.51-2.45,9.22-4.34a91.38,91.38,0,0,0,9.55-3.65,8.12,8.12,0,0,0,1.89-1.16h0a1.46,1.46,0,0,0-.17.73l-1-2.06a24.46,24.46,0,0,0-1.46-2.59,10.34,10.34,0,0,0-1.59-1.92,5.83,5.83,0,0,0-1.56-1.09,1.43,1.43,0,0,0-.83,0,3.75,3.75,0,0,0-1.43.8,40.35,40.35,0,0,0-6.63,7c-3.32,4.51-4.54,8.09-5.64,7.92s-1.76-4.41,1-10.61a31.79,31.79,0,0,1,6.8-9.58,10.54,10.54,0,0,1,3.81-2.45,8.49,8.49,0,0,1,5.54,0,10.71,10.71,0,0,1,2.29,1.09,14.88,14.88,0,0,1,1.79,1.36,16.57,16.57,0,0,1,2.88,3.32,27.39,27.39,0,0,1,1.92,3.32l.73,1.62a10,10,0,0,1,.8,2.52,6.13,6.13,0,0,1-.66,3.91,7.13,7.13,0,0,1-2.12,2.32,14,14,0,0,1-3.61,1.79,47.84,47.84,0,0,1-11,2.42C1047.74,983.69,1043.83,983.23,1043.66,982.23Z"/><rect class="cls-3" x="1023.9" y="953.52" width="20.69" height="72.8" transform="matrix(0.01, -1, 1, 0.01, 36.23, 2016.36)"/><rect class="cls-4" x="1047.2" y="957.2" width="20.69" height="65.81" transform="translate(59.16 2039.83) rotate(-89.55)"/><polygon class="cls-8" points="1070.28 979.88 1069.82 1000.66 1062.13 1000.53 1062.66 979.84 1070.28 979.88"/><polygon class="cls-8" points="1015.75 979.58 1014.99 1000.17 1006.57 1000.1 1007 979.38 1015.75 979.58"/><g class="cls-11"><path d="M781.14,791.39a9.71,9.71,0,0,1-4-4,13.81,13.81,0,0,1,0-12,9.73,9.73,0,0,1,4-4,12.37,12.37,0,0,1,6.07-1.43,13.58,13.58,0,0,1,4.23.67,9.74,9.74,0,0,1,3.35,1.78L793,776.45a9.74,9.74,0,0,0-5.65-1.94,5.15,5.15,0,0,0-4.17,1.71,9.78,9.78,0,0,0,0,10.23,5.12,5.12,0,0,0,4.17,1.73,9.74,9.74,0,0,0,5.65-1.94l1.81,4.12a9.74,9.74,0,0,1-3.35,1.78,13.58,13.58,0,0,1-4.23.67A12.38,12.38,0,0,1,781.14,791.39Z"/><path d="M812.15,778.21a7.88,7.88,0,0,1,1.36,5.06v9.26h-5.65v-9a3.33,3.33,0,0,0-.49-2,1.75,1.75,0,0,0-1.48-.63,2.61,2.61,0,0,0-2,.81,3.08,3.08,0,0,0-.75,2.17v8.69h-5.65V770.17h5.65v8.63a5.56,5.56,0,0,1,2.09-1.68,6.5,6.5,0,0,1,2.76-.57A5.06,5.06,0,0,1,812.15,778.21Z"/><path d="M832.42,776.93v15.61h-5.49v-2.09a5,5,0,0,1-1.86,1.75,5.4,5.4,0,0,1-2.59.6,5.64,5.64,0,0,1-4.47-1.67,7.5,7.5,0,0,1-1.46-5.06v-9.14h5.65v9.26q0,2.29,2,2.28a2.38,2.38,0,0,0,1.87-.82,3.14,3.14,0,0,0,.73-2.16v-8.57Z"/><path d="M846.38,777h5.52l-9.52,21.29h-5.71l3.14-6.79L833.44,777h5.9l3.43,8.79Z"/><path d="M866.93,785.81h-9.64A3.34,3.34,0,0,0,858.4,788a3.9,3.9,0,0,0,2.44.67,7.83,7.83,0,0,0,4.41-1.43l1.43,3.71a9.19,9.19,0,0,1-2.82,1.35,11.49,11.49,0,0,1-3.3.49,10.32,10.32,0,0,1-4.66-1,7.05,7.05,0,0,1-3-2.82,8.48,8.48,0,0,1-1.06-4.31,8.73,8.73,0,0,1,1-4.2,7.19,7.19,0,0,1,2.79-2.89,8,8,0,0,1,4-1,6.88,6.88,0,0,1,5.33,2.14,8.32,8.32,0,0,1,2,5.85Zm-9.2-10.91h-4l4.35-4.28h3.11l4.35,4.28h-4l-1.9-1.9Zm-.51,8.25h5q-.19-2.79-2.41-2.79T857.23,783.15Zm8.12-11.74h-2.63v-.63a1.05,1.05,0,0,1,.44-.94,4.13,4.13,0,0,1,1-.49q.57-.19.57-.25c0-.08-.07-.16-.22-.24a1.66,1.66,0,0,0-.7-.11,6.33,6.33,0,0,0-1.78.32l-.67-1.68a8.47,8.47,0,0,1,3.17-.57,5.18,5.18,0,0,1,2.52.52,1.54,1.54,0,0,1,.94,1.35,1.16,1.16,0,0,1-.4.94,4.09,4.09,0,0,1-1.13.62,4.68,4.68,0,0,0-.86.41.61.61,0,0,0-.29.54Z"/><path d="M884.16,778.21a7.88,7.88,0,0,1,1.36,5.06v9.26h-5.65v-9a3.33,3.33,0,0,0-.49-2,1.75,1.75,0,0,0-1.48-.63,2.61,2.61,0,0,0-2,.81,3.08,3.08,0,0,0-.75,2.17v8.69H869.5V776.93H875V779a5.42,5.42,0,0,1,2.13-1.84,6.5,6.5,0,0,1,2.89-.63A5.06,5.06,0,0,1,884.16,778.21Z"/><path d="M915.47,792.54h-6.82l-5.23-6.63v6.63h-5.65V770.17h5.65v13.17l5.14-6.38h6.69l-6.09,7.42Z"/><path d="M930.82,778.21a7.88,7.88,0,0,1,1.36,5.06v9.26h-5.65v-9a3.33,3.33,0,0,0-.49-2,1.75,1.75,0,0,0-1.48-.63,2.61,2.61,0,0,0-2,.81,3.08,3.08,0,0,0-.75,2.17v8.69h-5.65V770.17h5.65v8.63a5.56,5.56,0,0,1,2.09-1.68,6.5,6.5,0,0,1,2.76-.57A5.06,5.06,0,0,1,930.82,778.21Z"/><path d="M938.7,791.79a7.18,7.18,0,0,1-3-2.84,9.26,9.26,0,0,1,0-8.61,7.13,7.13,0,0,1,3-2.81,11,11,0,0,1,9.07,0,7.13,7.13,0,0,1,3,2.81,9.26,9.26,0,0,1,0,8.61,7.2,7.2,0,0,1-3,2.84,10.76,10.76,0,0,1-9.06,0Zm7.53-7.15q0-3.93-3-3.93t-3,3.93q0,3.93,3,3.93T946.24,784.64Z"/><path d="M967,778.24q1.76,1.7,1.76,5.28v9h-5.3v-2.19a3.59,3.59,0,0,1-1.49,1.79,4.65,4.65,0,0,1-2.51.65,6.43,6.43,0,0,1-2.92-.65,5.07,5.07,0,0,1-2-1.81,4.73,4.73,0,0,1-.75-2.62,3.93,3.93,0,0,1,.87-2.68,5.12,5.12,0,0,1,2.78-1.44,23.59,23.59,0,0,1,5.14-.44h.86v-.38a2.06,2.06,0,0,0-.54-1.63,3,3,0,0,0-1.9-.46,8.7,8.7,0,0,0-2.49.43,14.38,14.38,0,0,0-2.65,1.09l-1.43-3.71a13.38,13.38,0,0,1,3.41-1.38,14.45,14.45,0,0,1,3.76-.56Q965.21,776.55,967,778.24ZM963,774.9h-2.66v-.76a1.86,1.86,0,0,1,.32-1.11,4.07,4.07,0,0,1,.86-.86,3.4,3.4,0,0,0,.48-.44.63.63,0,0,0,.16-.41q0-.73-1-.73a4.15,4.15,0,0,0-1.46.29l-.73-2a6.85,6.85,0,0,1,2.79-.6,4.91,4.91,0,0,1,2.85.71,2.08,2.08,0,0,1,1,1.73,1.76,1.76,0,0,1-.41,1.22,7.11,7.11,0,0,1-1.17,1,6.37,6.37,0,0,0-.79.63.83.83,0,0,0-.25.6Zm-.38,13.31a3,3,0,0,0,.73-2.08v-.38h-.51a8.08,8.08,0,0,0-2.89.36,1.25,1.25,0,0,0-.86,1.22,1.66,1.66,0,0,0,.46,1.21,1.58,1.58,0,0,0,1.19.48A2.41,2.41,0,0,0,962.64,788.21Z"/><path d="M986.56,778.21a7.88,7.88,0,0,1,1.36,5.06v9.26h-5.65v-9a3.33,3.33,0,0,0-.49-2,1.75,1.75,0,0,0-1.48-.63,2.61,2.61,0,0,0-2,.81,3.08,3.08,0,0,0-.75,2.17v8.69H971.9V776.93h5.49V779a5.42,5.42,0,0,1,2.13-1.84,6.5,6.5,0,0,1,2.89-.63A5.06,5.06,0,0,1,986.56,778.21Z"/><path d="M1011,788.63l-.29,4a16,16,0,0,1-2,.13q-3.81,0-5.54-1.6a6.46,6.46,0,0,1-1.73-5v-5.14h-2.92v-4.16h2.92v-4.54h5.65v4.54h3.74v4.16h-3.74v5.17q0,2.47,2.32,2.47A14.19,14.19,0,0,0,1011,788.63Z"/><path d="M1027.67,778.21a7.88,7.88,0,0,1,1.36,5.06v9.26h-5.65v-9a3.34,3.34,0,0,0-.49-2,1.75,1.75,0,0,0-1.48-.63,2.6,2.6,0,0,0-2,.81,3.08,3.08,0,0,0-.75,2.17v8.69H1013V770.17h5.65v8.63a5.56,5.56,0,0,1,2.09-1.68,6.51,6.51,0,0,1,2.76-.57A5.06,5.06,0,0,1,1027.67,778.21Z"/><path d="M1044.78,778.24q1.76,1.7,1.76,5.28v9h-5.3v-2.19a3.6,3.6,0,0,1-1.49,1.79,4.65,4.65,0,0,1-2.51.65,6.43,6.43,0,0,1-2.92-.65,5.07,5.07,0,0,1-2-1.81,4.73,4.73,0,0,1-.75-2.62,3.93,3.93,0,0,1,.87-2.68,5.12,5.12,0,0,1,2.78-1.44,23.58,23.58,0,0,1,5.14-.44h.86v-.38a2.06,2.06,0,0,0-.54-1.63,3,3,0,0,0-1.9-.46,8.7,8.7,0,0,0-2.49.43,14.4,14.4,0,0,0-2.65,1.09l-1.43-3.71a13.35,13.35,0,0,1,3.41-1.38,14.44,14.44,0,0,1,3.76-.56Q1043,776.55,1044.78,778.24Zm-7-3.35-5-6.53h5.33l3.11,6.53Zm2.7,13.31a3,3,0,0,0,.73-2.08v-.38h-.51a8.08,8.08,0,0,0-2.89.36,1.25,1.25,0,0,0-.86,1.22,1.66,1.66,0,0,0,.46,1.21,1.58,1.58,0,0,0,1.19.48A2.41,2.41,0,0,0,1040.45,788.21Z"/><path d="M1064.37,778.21a7.88,7.88,0,0,1,1.36,5.06v9.26h-5.65v-9a3.34,3.34,0,0,0-.49-2,1.75,1.75,0,0,0-1.48-.63,2.6,2.6,0,0,0-2,.81,3.08,3.08,0,0,0-.75,2.17v8.69h-5.65V776.93h5.49V779a5.41,5.41,0,0,1,2.13-1.84,6.5,6.5,0,0,1,2.89-.63A5.06,5.06,0,0,1,1064.37,778.21Z"/><path d="M1083.56,778.21a7.88,7.88,0,0,1,1.36,5.06v9.26h-5.65v-9a3.34,3.34,0,0,0-.49-2,1.75,1.75,0,0,0-1.48-.63,2.6,2.6,0,0,0-2,.81,3.08,3.08,0,0,0-.75,2.17v8.69h-5.65V770.17h5.65v8.63a5.56,5.56,0,0,1,2.09-1.68,6.51,6.51,0,0,1,2.76-.57A5.06,5.06,0,0,1,1083.56,778.21Z"/><path d="M1098.69,790.63a7.74,7.74,0,0,1-2.25-5.87,8.39,8.39,0,0,1,1.09-4.31,7.37,7.37,0,0,1,3.08-2.89,9.92,9.92,0,0,1,4.58-1,11.34,11.34,0,0,1,3.38.51,7.53,7.53,0,0,1,2.65,1.36l-1.43,3.81a6.5,6.5,0,0,0-1.92-1,6.39,6.39,0,0,0-2.11-.4,3.44,3.44,0,0,0-2.62,1,4.06,4.06,0,0,0-.9,2.89,4.18,4.18,0,0,0,.9,2.92,3.38,3.38,0,0,0,2.62,1,6.36,6.36,0,0,0,2.11-.4,6.07,6.07,0,0,0,1.92-1.06l1.43,3.84a7.66,7.66,0,0,1-2.74,1.38,12.41,12.41,0,0,1-3.54.49A8.66,8.66,0,0,1,1098.69,790.63Z"/><path d="M1116.38,791.79a7.17,7.17,0,0,1-3-2.84,9.26,9.26,0,0,1,0-8.61,7.13,7.13,0,0,1,3-2.81,11,11,0,0,1,9.07,0,7.13,7.13,0,0,1,3,2.81,9.26,9.26,0,0,1,0,8.61,7.2,7.2,0,0,1-3,2.84,10.76,10.76,0,0,1-9.06,0Zm2.84-16.89H1115l4.28-6.53h3.24l4.28,6.53h-4.22l-1.68-3.36Zm4.7,9.74q0-3.93-3-3.93t-3,3.93q0,3.93,3,3.93T1123.91,784.64Z"/><path d="M1146.72,778.21a7.88,7.88,0,0,1,1.36,5.06v9.26h-5.65v-9a3.34,3.34,0,0,0-.49-2,1.75,1.75,0,0,0-1.48-.63,2.6,2.6,0,0,0-2,.81,3.08,3.08,0,0,0-.75,2.17v8.69h-5.65V776.93h5.49V779a5.41,5.41,0,0,1,2.13-1.84,6.5,6.5,0,0,1,2.89-.63A5.06,5.06,0,0,1,1146.72,778.21Z"/><path d="M1167.91,776.93v13.7a7.35,7.35,0,0,1-2.3,5.87q-2.3,2-6.8,2a17.19,17.19,0,0,1-4.12-.49,12.25,12.25,0,0,1-3.46-1.38l1.43-3.84a14.5,14.5,0,0,0,3,1.17,11.71,11.71,0,0,0,3,.41,4.07,4.07,0,0,0,2.78-.81,3.27,3.27,0,0,0,.9-2.55v-1.21a4.82,4.82,0,0,1-2,1.67,6.49,6.49,0,0,1-2.82.62,6.9,6.9,0,0,1-3.62-1,6.48,6.48,0,0,1-2.47-2.71,8.92,8.92,0,0,1-.89-4.08,9,9,0,0,1,.89-4.09,6.57,6.57,0,0,1,2.47-2.74,6.81,6.81,0,0,1,3.62-1,6.43,6.43,0,0,1,2.86.63,4.76,4.76,0,0,1,2,1.75v-2Zm-6.38,10a3.78,3.78,0,0,0,.82-2.59,3.89,3.89,0,0,0-.82-2.63,3.28,3.28,0,0,0-4.6,0,3.87,3.87,0,0,0-.83,2.65,3.73,3.73,0,0,0,.84,2.59,2.89,2.89,0,0,0,2.27.94A2.93,2.93,0,0,0,1161.53,786.94Z"/></g></svg>