<svg id="Layer_1" data-name="Layer 1" xmlns="http://www.w3.org/2000/svg" viewBox="0 0 1326 290"><defs><style>.cls-1,.cls-4{fill:#fff;}.cls-2{fill:#01a0a4;}.cls-2,.cls-4{opacity:0.2;}.cls-2,.cls-4,.cls-5,.cls-6{isolation:isolate;}.cls-3{fill-opacity:0;}.cls-5{font-size:15px;fill:#ff4500;}.cls-5,.cls-6{font-family:AmericanTypewriter-Bold, American Typewriter;font-weight:700;}.cls-6{font-size:32px;fill:#20c997;}</style></defs><title>aboutus4-03</title><path class="cls-1" d="M604,143v3.1s0,.3-.1.4v.1a.75592.75592,0,0,1-.1.4v.1l-.1.4v.1a.36739.36739,0,0,1-.1.3c-.1.1,0,.1,0,.1v.2l-.1.3a8.44684,8.44684,0,0,1-.5,1.7v.2l-.1.2-.2.4-.1.3-.1.2-.1.2-.1.2-.1.2-.1.2-.1.4-.1.2-.1.3-.1.1-.2.3-.2.3a4.348,4.348,0,0,0-.4.7,10.54016,10.54016,0,0,1-.7,1.1l-.2.1-.2.2-.2.3-.2.2-.2.3v.2l-.5.6c-.3.4-.7.7-1,1.1l-.2.2-.2.1-.1.1a20.61873,20.61873,0,0,1-6.8,4.1l-.7.3-.2.1-.7.2-.3.1-.3.1-.3.1-.3.1-.4.1-.5.1-.4.1h-.2l-.3.1h-.1l-.5.1a20.67917,20.67917,0,0,1-3.5.3h-3.4l-.4-.1h-.1l-.4-.1h-.1l-.4-.1-.3-.1h-.2l-.4-.1h-.2l-.2-.1h-.2l-.5-.6h-.2l-.2-.1H574l-.4-.1H573l-.1-.1-.2-.1h-.1l-.3-.6h-.1l-.3-.1-.1-.1-.1-.1h-.1l-.2-.1h-.2l-.1-.1-.3-.2h0l-.3-.2h0l-.3-.2h0l-.2-.1v.1l-.1-.1-.1-.1h-.1l-.3-.2-.1-.1-.1-.1H569l-.1-.2-.2-.1-.1-.1h-.1l-.2-.1-.2-.2-.1-.2-.2-.1-.2-.2-.1-.1h-.1l-.4-.3-.2-.2-.2-.2-.3-.3-.1-.1-.2-.2-.2-.2-.5-.5-.2-.2-.2-.2-.5-.5h0l-.2-.2-.2-.3-.2-.2-.1-.2-.2-.2-.1-.1-.2-.3-.1-.1v-.1a8.79236,8.79236,0,0,1-.6-1l-.2-.4-.1-.2c-.2-.3-.3-.6-.5-.9l-.2-.4-.1-.1h0V152l-.2-.4-.1-.3-.1-.1-.1-.3-.1-.2-.2-.4h0V150l-.1-.3a29.92082,29.92082,0,0,1-.8-3.2v-.3c0-.2-.1-.4-.1-.6V145h0a13.402,13.402,0,0,1-.1-2h-.1v-.1h0v-1.5a21.57826,21.57826,0,0,1,4-11,11.31873,11.31873,0,0,1,1-1.3h0l.1-.2.3-.3c.5-.5.9-1,1.4-1.5h0c.5-.5,1.1-.9,1.6-1.4h0c.8-.6,1.6-1.1,2.4-1.6.6-.3,1.2-.7,1.8-1a11.73109,11.73109,0,0,0,1.1-.5l.4-.2h.2l.6-.3.7-.2.4-.1.6-.1.4-.1.3-.1.2-.1.3-.1a5.15987,5.15987,0,0,1,1.1-.2c1.2-.2,2.3-.3,3.5-.4h3.6l.3.1.3.2.3.1h.1l.3.1h.5l.4.1.3.1h.1l.4.1.3.1h.5l.2.1h.2l.2.1h.2l.1.1h0l.3.1h0l.3.2h0l.1.1h0l.2.1h.1l.2.1h.1l.1.1.2.1.3-.1h.1l.3.2h0l.4.2h0l.3.2.2.1h.2l.1.1.3.2h0l.1.1.1.1h0l.1.1h0l.1.1h.2l.1.1h0l.3.2.4.4.2.2.3.3h.2l.2.2.1.1.2.2.2.2.1.1.2.2.3.3.6.6.2.3.2.3h0l.2.3.2.3.5.6.2.3.1.1.8,1.6.1.1h0l.1.1.1.1.2.3v.2l.2.3v.1a5.73615,5.73615,0,0,0,.4.7l.1.1v.1l.1.1.1.2h0l.1.1v.1l.1.1.1.1v.1l.1.2.1.2.1.3.1.2v.1l.2.4v.1h0l.1.3.1.2v.1l.1.3.1.2v.1h0v.2l.1.3v.1h0v.1h0l.1.3h0l.1.3v.8a.756.756,0,0,0,.1.4h0a.60123.60123,0,0,0,.1.4v.1a3.40193,3.40193,0,0,1,.1,1h0v.1h0v.4A17.65214,17.65214,0,0,1,604,143Z"/><path class="cls-2" d="M585.6,144a2.57712,2.57712,0,0,1-1.3-.8,6.89,6.89,0,0,0-.3-.8c-.1-.1-.6.1-.8.1-.2-.6-.5-1-1.1-.4a.60833.60833,0,0,0,0-.8c-.2-.3-.5-.1-.8-.1-.6,0-.8-.4-1.2-.9s-1-.2-1.7-.1a14.60412,14.60412,0,0,0-2.2.3c-.3.1-.6.5-.8.1s.1-.6-.3-.8c-.7-.4-1.5.1-2.2-.2-.4-.2-.5-.4-.2-.8a3.12806,3.12806,0,0,0,.5-1,2.62188,2.62188,0,0,1,.5-.9c.3-.4.2-.5.2-.9,1-.5,2.3.1,2.5-1.4,0-.2-.2-.7-.1-.9s.7,0,1,0a4.47709,4.47709,0,0,0,2-.4,3.92219,3.92219,0,0,1,1.8-.4c.6.1.7.6,1,1.1a2.54453,2.54453,0,0,0,1.2,1.1c.4.1.6.4.8.8a1.79687,1.79687,0,0,0,.4.9c.4-.3,1-.1,1.4-.4.4-.2.1-1,0-1.3-.2-.6-.7-.7-1-1.1a1.88389,1.88389,0,0,1-.2-.8c.1-.3.2-.2.5-.3.6-.1.8.1,1.2.5.1.2.4.2.5.3s.2.5.4.7.8.5.9.9c.1.3-.1.6-.1.9s.1.5.1.8c.3,0,.8.5,1,.6s.5.1.7.3.1.4.2.7.2.3.3.5a9.82953,9.82953,0,0,0,.5,1.6c.3.6.9.9,1.1,1.6.5,1.6-1.7,2-2.9,2.2a11.019,11.019,0,0,1-1.8.2C586.4,144.6,586.4,144.1,585.6,144Z"/><path class="cls-2" d="M573.4,122.6h.2a.60123.60123,0,0,0,.4-.1c.1-.1.2-.1.4-.2.1,0,.2-.1.3-.1a.36737.36737,0,0,1,.3.1l.2.1c.1,0,.1.1.2.1h.6a.90151.90151,0,0,0,.5-.1h.7l.3.1.1.1.1.1a.6375.6375,0,0,0,.6,0c.1,0,.1-.1.2-.1h.3c.2,0,.3-.1.5-.1-.1,0-.2-.2-.2-.3v-.1c.1,0,.1-.1.2-.1h.5l.4.1h.4a.60467.60467,0,0,1,.6.3c0,.1.1.1.1.2s0,.2.1.2a.90151.90151,0,0,0,.1.5c.1.2.1.3.2.4h.2c.1,0,.1-.2.3-.2s.4.3.7.3c.2,0,.3-.1.5-.1h.7c.1,0,.1,0,.2-.1s0-.1,0-.2v-.3c0-.1.2-.1.3-.1s0-.2,0-.2v-.1h.1a2.3535,2.3535,0,0,1,.8.2c.2,0,.4.1.6.1a.75812.75812,0,0,1,.4.2c.1.1.2.1.3.2l.2.3c.1.1.1.2.2.3l.4.4a1.94945,1.94945,0,0,0,.8.1l.3-.1h.8c.1,0,.3.1.4.1l.3.1c.1,0,.2.1.3.2.1,0,.2.1.3.2.2.1.3.3.5.4h.7l.9.1h-.1a.74936.74936,0,0,1,.5-.1,1.70178,1.70178,0,0,1,.7.1c.1,0,.3.1.4.1,0,.1.1.1.2.2l.2.1c.1,0,.2.1.4.1h.1v-.3l-.1-.2c0-.1-.1-.1,0-.2v-.1a22.51756,22.51756,0,0,0-21.7-2.7C573.3,122.6,573.3,122.6,573.4,122.6Z"/><path class="cls-2" d="M590.8,150.9Zm0,0Zm0,0Zm13.1-9.8v-.4h0v-.1h0c0-.3-.1-.7-.1-1v-.1a.60123.60123,0,0,0-.1-.4V139a.756.756,0,0,0-.1-.4v-.4l-.2-.2v-.3l-.1-.3h0l-.1-.3h0l-.1-.3-.1-.2v-.2h0v-.3l-.1-.3v-.1l-.1-.2-.1-.3h0v-.1l-.3-.4-.1-.2-.1-.3-.2-.2v-.3l-.1-.1-.1-.1-.1-.2h0l-.1-.2-.1-.2v-.1l-.1-.1a5.73615,5.73615,0,0,0-.4-.7h0l-.2-.3v-.2l-.2-.3-.1-.1-.1-.1h0v.1h0v.1c0,.1,0,.1-.1.1a.09794.09794,0,0,1-.1.1h-.1c-.1,0,0,.1-.1.1l-.1.1c-.1.1-.1.1-.2.1h-.5c-.1,0-.2-.1-.3-.1h-.2c-.1,0-.3,0-.3.1a.09794.09794,0,0,1-.1.1c-.1,0-.1,0-.2-.1h-.3c-.1,0,0,.1-.1.1v.3c.1,0,.1.1.2.1l.2.1c.1,0,.1.1.2.1s0,0,0,.1v.6a.6752.6752,0,0,1,.4.6c0,.1,0,.1-.1.2-.1,0-.2,0-.2.1v.4c0,.1-.1.1-.1.2v.4a.3193.3193,0,0,1-.3.3.21508.21508,0,0,1-.2-.2c0-.1,0-.1-.1-.2l-.1-.1a.34914.34914,0,0,1-.1-.2l-.1-.1-.3-.3c-.2-.2-.4-.3-.5-.4a.60122.60122,0,0,1-.1-.4c0-.1-.1-.3-.2-.3-.1-.1-.2-.1-.2-.2-.1-.1-.2-.2-.2-.3s0-.2.1-.2a.21509.21509,0,0,0,.2-.2c0-.1.1-.3.1-.4a.21508.21508,0,0,1,.2-.2c.1-.1.1-.1.2-.1.1-.1.1-.2.2-.3v-.3c0-.1-.1-.2-.2-.3a.1385.1385,0,0,1,0-.2v.3c0,.1,0,.2-.1.2h-.2l-.1.1a.09794.09794,0,0,1-.1.1H596c-.2-.1-.1-.3-.3-.4-.1,0-.2-.1-.3-.1s-.1,0-.1.1c-.1.1-.3.2-.4.3s-.2.1-.1.2c0,.1.1.1.2.1a.125.125,0,1,1,0,.2h-.6c-.2,0-.2-.1-.3-.2h-.4c-.1,0-.2-.1-.3-.1-.1-.1-.1-.1-.2-.1h-.4a.90151.90151,0,0,1-.5.1l-.4-.1c-.2,0-.3-.1-.5-.1H591a.78076.78076,0,0,0-.4.4c-.1.1-.1.2-.1.4,0,.1,0,.2-.1.2l-.2.2c-.1,0-.1.1-.2.2v.1a2.26851,2.26851,0,0,0,.4.1h0c.1,0,.2.1.3.2a.34914.34914,0,0,0,.2.1h.1a.34914.34914,0,0,1,.2-.1h.2c.1,0,.3.1.4.1l.2.1.3.2c.1,0,.2.1.3.1s0,0,0-.1v-.1a.09794.09794,0,0,1,.1-.1c.1,0,.1,0,.1.1l.1.1.1.1c.1.1.1.1.1.2s0,.1.1.2v.2c0,.1-.1.1-.1.2a.30417.30417,0,0,0,0,.4c.1.1.2.2.2.3s.1.1.1.2v.2c0,.1-.1.1-.1.2v.1a.09793.09793,0,0,1,.1.1c0,.1-.1.1-.1.2s0,.2-.1.2l-.1.1c-.1,0-.1.1-.2.1-.1.1-.1.1-.1.2a.36737.36737,0,0,0-.1.3.45078.45078,0,0,1-.3.3,1.26834,1.26834,0,0,0-.6-.1c-.2,0-.2.1-.2.2v.3c0,.1,0,.1-.1.1s-.3,0-.3.2.1.2.2.2a.78076.78076,0,0,1,.4.4l.1.1c.1.1.1.2.2.2a.51954.51954,0,0,1,.2.4.36737.36737,0,0,1-.1.3.66125.66125,0,0,1-.6.1h0c-.1,0-.1,0-.1-.1v-.2c0-.1-.1-.1-.2-.2-.1,0-.1-.1-.2-.2v-.4l-.1-.1-.1-.1c-.1,0-.1,0-.2-.1a.51954.51954,0,0,1-.2-.4c0-.1.1-.2,0-.2s-.2-.1-.3-.1h-.5c-.1,0-.1,0-.2.1-.1,0-.1.1-.2.1H589c-.1,0-.1-.1,0-.2,0-.1.1-.1.2-.1h0c0-.1-.1-.3-.2-.3v-.1h-1.3l-.1.1c0,.1-.1.1-.1.2-.1.1-.2.1-.2.2H587c0,.1.1.1.2.2h.3c.2,0,.1.1.1.2s.1.1.2.2h.9a.36737.36737,0,0,1,.3.1h.1c.1,0,.1.1.1.2s0,.1-.1.2h-.4a.3193.3193,0,0,0-.3.3c0,.1.2.2.3.3s.3-.1.3,0a.36737.36737,0,0,0,.1.3.99837.99837,0,0,1,.4.5c0,.1.1.1.1.2v.1a1.00729,1.00729,0,0,0,.3.1.34914.34914,0,0,1,.2.1c0,.1-.1.2-.1.3s0,.1-.1.2v.2c0,.1,0,.2-.1.2h-.2a.75812.75812,0,0,0-.2.4.3193.3193,0,0,1-.3.3H589l-.1.1-.1.1c-.1.1-.2.1-.3.2a.36736.36736,0,0,1-.3.1h0a.51955.51955,0,0,0-.4.2.34914.34914,0,0,0-.2.1c-.1,0-.1.1-.2,0h-.9a.90151.90151,0,0,0-.5.1l-.1.1a.09794.09794,0,0,1-.1.1.21508.21508,0,0,1-.2-.2.35355.35355,0,0,0-.4-.4h-.6l-.1.1c0,.1-.1.1-.1.2l-.2.2-.1.1v.2c0,.1,0,.1.1.1a.36737.36737,0,0,1,.1.3v.2c0,.1,0,.1.1.1a.34914.34914,0,0,0,.2.1l.1.1.1.1.1.1c.1.1.3.2.4.4s.1.3.2.4c.1.2.2.4.1.5,0,.1-.3.3-.3.5h.1l-.1.1h-.8c-.1,0-.1.1-.2.2s-.2.1-.3.2-.1.2-.2.2-.1-.2-.1-.2l-.1-.2c0-.1,0-.1-.1-.2-.1,0-.1-.1-.2-.1s-.2-.1-.3-.2,0-.1-.1-.2a1.38046,1.38046,0,0,0-.4-.3h-.1c-.1,0-.2,0-.2-.1a.09794.09794,0,0,0-.1-.1.19161.19161,0,0,0-.3.1v.4c0,.1-.1.2-.1.3a.09794.09794,0,0,1-.1.1h0a.49375.49375,0,0,0,.1.3h0l.2.2c0,.1.1.2.1.3,0,.2.2.2.4.3l.2.2c.1,0,.1.1.2.1a.21508.21508,0,0,1,.2.2.34914.34914,0,0,1,.1.2c0,.1.2.2.2.2v.4c0,.1-.1.2,0,.3s.1.1.1.2a.34914.34914,0,0,1,.1.2v.1h0v.2c-.1,0-.1-.1-.1-.2h0a.75812.75812,0,0,1-.4-.2.34914.34914,0,0,1-.2-.1.09794.09794,0,0,1-.1-.1l-.1.1-.2-.2-.1-.1-.2-.2c0-.1-.1-.1-.1-.2l-.1-.2v-.4a.75808.75808,0,0,0-.2-.4l-.1-.1-.1-.1h-.1a.34914.34914,0,0,1-.1-.2.09794.09794,0,0,0-.1-.1v-.1a.09794.09794,0,0,0-.1-.1V146a.09794.09794,0,0,1,.1-.1v-.6l-.1-.1v-.3c0-.1,0-.1-.1-.2,0-.1-.1-.1-.1-.2s-.1-.3-.2-.3h-.2c-.1,0-.2,0-.2.1-.1,0-.2.1-.3.1s-.1,0-.1-.1a.60123.60123,0,0,1-.1-.4c0-.1-.1-.2-.2-.3a.51954.51954,0,0,1-.2-.4V143l-.1-.1h-.1c-.1,0-.1-.1-.2-.2s-.1-.1-.1-.2-.1-.1-.1-.2v-.2a.76385.76385,0,0,0-.5-.2c-.1,0-.1.1-.2.1s-.2.1-.3.1h-1c-.1,0,0,.1,0,.2s0,.1-.1.2-.2.1-.4.2a.36737.36737,0,0,0-.3.1v.1a.09794.09794,0,0,1-.1.1l.1.2c-.1.1-.3.2-.4.3-.1,0-.2.1-.3.1h0a.34914.34914,0,0,1-.1.2c-.1.2-.1.2-.2.2h-.4c-.1,0-.1.1-.1.2v.2h0v.2s-.1.1,0,.1a2.91986,2.91986,0,0,0-.2.9c0,.3,0,.4-.3.6-.1,0-.1.1-.2.1-.1.1,0,.3-.3.4s-.1-.1-.2-.2l-.2-.1a.51954.51954,0,0,1-.4-.2,8.34152,8.34152,0,0,1-.8-1.2l-.3-.6c-.1-.3-.1-.7-.2-1s-.2-.9-.7-.9c-.3,0-.8,0-1-.2h0c-.1-.1-.1-.2-.1-.4a.60123.60123,0,0,0-.1-.4,2.286,2.286,0,0,0-1-.7,3.295,3.295,0,0,0-1.4,0,2.4375,2.4375,0,0,1-1.2,0,4.87524,4.87524,0,0,1-.7-.3h-.5c-.2,0-.5-.1-.7-.1a1.70178,1.70178,0,0,0-.7-.1h-1c-.1,0-.3-.1-.4-.1h-.2v.2l.1.2.1.1h0c.1,0,.2.1.4.3l.1.1c.4.3,1-.2,1.4-.3.2-.1.1-.1.3,0a.21508.21508,0,0,1,.2.2,2.17738,2.17738,0,0,0,.8.5c.2.1.5.2.5.3a1.68971,1.68971,0,0,1-.3.6c-.1.1-.3.2-.4.3s-.2.2-.2.3a.36737.36737,0,0,0-.1.3c0,.2-.1.4-.5.4a.86433.86433,0,0,0-.6.3c-.1.1-.2.3-.3.4-.2.2-.2.4-.5.5a2.20185,2.20185,0,0,0-.8.1l-.2.1-.2-.1a3.88053,3.88053,0,0,1-1.1.6h-.5c-.1,0-.2-.3-.2-.3s-.2-.2-.2-.3h0v.6c0,.2.1.4.1.6v.2c.1.1.2,0,.4,0a1.88389,1.88389,0,0,0,.8-.2l.6-.3.2-.1h0a1.42132,1.42132,0,0,1,.6-.2l.2-.1c.2-.1.4.1.3.2a.75592.75592,0,0,1-.1.4h0c0,.2-.1.3-.1.5l-.3.6c-.1.2.1.5,0,.7-.2.4-.6.6-.7,1a2.3364,2.3364,0,0,1-.7.7h0l-.3.2h0l.1.2.1.2h0l.2.4.1.2v.4l.1.2.1.3.2.3.1.2h0l.1.1.2.4c.2.3.3.6.5.9l.1.2.2.3h.1a.09794.09794,0,0,1,.1-.1h0a.30971.30971,0,0,1,.1.2h.1c.1,0,0,.1.1.2h0c.1.1,0,.2.1.2v.2c-.2.1-.2.2-.2.2h0v.1l.1.1.2.3.1.1.2.2.1.2.2.2.2.3.2.2h0l.4.5.2.2.2.2.5.5.2.2.2.2.1.1.3.3.2.2.2.2.4.4h0l.1.1h.1l.2.2.2.1.1.1.2.2.2.1h.1l.1.1.2.1.1.1h.1l.1.1h.1l.1.1.2.2h.1l.1.1.1.1.1.1.2.1h0l.2.1h.1l.3.2h0l.3.2.1-.1h.2l.1.1h.1l.1.1.1.1.3.1h.1l.3.1h.1l.2.1.1.1.2.1h.4l.4.1h0l.2.1h.2l.2.1.2.1.5.1h.2l.2.1h.2l.2.1h.3l.3.1.4.1h.2l.4.1h.1l.4.1h3.8a19.82661,19.82661,0,0,0,3.5-.3l.5-.1h.1l.3-.1h.2l.4-.1.5-.1.4-.1.3-.1.3-.1.3-.1.3-.1.7-.2.2-.1.7-.3h0a1.854,1.854,0,0,0-.2-.7.09794.09794,0,0,1-.1-.1v-.1h-.2v-.3a1.483,1.483,0,0,0-.7-.1h-1c-.2,0-.3-.1-.5,0H587a.09794.09794,0,0,1-.1.1c-.1,0,0,.1-.1.1h-.6a.85417.85417,0,0,0-.7,0h-.2c0,.1-.1.1-.2.1h-.5l-.3,1.8h0l-.1-.1h0a.1875.1875,0,0,1,0-.3h0c0-.1.1,0,.2-.1h0a.09793.09793,0,0,1,.1-.1v-.1h0v-.1a.09794.09794,0,0,1,.1-.1v-.3h0v-.2h0v-.1h0v-.3c0-.1.1-.1.1-.2h0c-.1-.1,0-.2-.1-.3h0v-.2h0v-.2h0v-.1h0V160h.1a.09794.09794,0,0,0,.1.1h.1a.09794.09794,0,0,0,.1.1v.1h0v-.4a.30974.30974,0,0,1,.1-.2h.1v-.3h.1a.09794.09794,0,0,1,.1-.1c.1,0,0-.1.1-.1h0a.09794.09794,0,0,1,.1.1h.5c.1-.1.3.1.5,0H588a.09794.09794,0,0,1,.1-.1l.1-.1h0a.21508.21508,0,0,0,.2-.2v-.2h.2l.1-.1c.1,0,.1.1.1.2v.1h0v-.3h0c.1-.1.2.2.3,0h0v-.1h0c0-.1.1-.1.2-.1h0c.1,0,.2-.2.3-.2h.2v-.1h.3c.1,0,.1,0,.2.1a.09794.09794,0,0,1,.1.1.09794.09794,0,0,0,.1.1h0a.34914.34914,0,0,1,.1.2h.5v-.1h0a.09794.09794,0,0,1,.1-.1.09794.09794,0,0,0,.1-.1h0l.2-.2a.09794.09794,0,0,0,.1-.1h.3c.2-.1.4.1.5,0,0-.1-.1-.1-.1-.2s.2,0,.2,0l.2.2h0c.1.1.2,0,.2.1s.1,0,.1.1h.1l.1.1h.2c.1,0,.1.1.2.2h0v-.1a1.00729,1.00729,0,0,0,.3.1c.1,0,0,.1,0,.1h-.2c-.1,0,0,.1-.1.1s-.2.1-.3.2h0a.09794.09794,0,0,1-.1.1H593c-.1.1,0,.1,0,.2V159h0c.1.1.2.1.3.2v.1a.09794.09794,0,0,1,.1.1h0v.2h0a.09794.09794,0,0,1,.1.1h0a.09794.09794,0,0,1,.1.1.34915.34915,0,0,0,.1.2.09794.09794,0,0,1,.1.1h.3a.09794.09794,0,0,1,.1-.1c.1,0,0-.1.1-.1h.1l.8-1.9h0a.09794.09794,0,0,1,.1-.1c.1,0,0-.1.1-.1h0a.09794.09794,0,0,1,.1-.1c.1,0,0-.1.1-.1s0-.2.1-.2,0-.2.1-.3h.1V157h.1v-.1h.1a.09794.09794,0,0,1,.1-.1c.1,0,0-.1.1-.1h0c.1-.1.2-.1.2,0s-.1.2,0,.4h0V157h0a.36737.36737,0,0,1-.1.3v.1c.1,0-.1.2.1.2h.1a.09794.09794,0,0,1,.1.1h0l.1.1v.1h0v.1h0v.4h0v.1h0v.2h0c-.1.1.1.2-.1.3s0,0,0,.1l.1-.1.2-.2.2-.2a9.9582,9.9582,0,0,0,1-1.1l.5-.6.1-.1.2-.3h-.1c-.1-.1-.2,0-.3-.1h-.1a.09794.09794,0,0,1-.1-.1v-.1h0v-.3h0v-.1h0c-.1,0,0-.1,0-.2h0v-.2h0a.30971.30971,0,0,1-.2-.1c-.1-.1-.1,0-.2-.1a.1385.1385,0,0,0-.2,0h-.1a.09794.09794,0,0,1-.1.1h0c-.2,0,0,.2-.2.2h-.3a.09794.09794,0,0,1-.1-.1h0a.60123.60123,0,0,1-.4-.1h0v-.1h0V155h0c0-.1-.1-.1-.2-.1h-.2a.43974.43974,0,0,1-.5-.1h0a.09794.09794,0,0,1,.1-.1h0a.09794.09794,0,0,1,.1-.1h.1a.21508.21508,0,0,0,.2-.2h0v-.1h0c-.1,0,0-.1,0-.2a.36737.36737,0,0,0-.1-.3.38079.38079,0,0,1-.7-.3h0a.30971.30971,0,0,0-.2-.1h0l-.2-.2h-.2c-.1-.1-.2,0-.2-.1h0a.09794.09794,0,0,1-.1-.1.30973.30973,0,0,1-.2-.1h0l-.3.2v.1h0c0,.1-.1.1-.2,0h0c-.1-.1,0-.2-.1-.3v-.1h-.1c-.1,0,0-.1,0-.1h.5a.30971.30971,0,0,1-.2-.1m-.1.1c-.1,0-.1-.1-.2-.1s0-.1-.1-.2-.3-.1-.3-.2-.1-.1,0-.2h0c.1,0,.1,0,.1.1.1.1.1,0,.1,0h0a.60123.60123,0,0,0,.4-.1h0m.1,0h.2v.1c.1.1.2,0,.3.1s0,.1,0,.2h0v.1h0v.2h0a.09794.09794,0,0,0,.1.1c.1,0,0,0,0,.1s0,.1.1.2.1.1.1,0h.3l.1-.1h0a.09794.09794,0,0,1,.1-.1h.2c.1,0,.1-.1.2-.1h.3l.1.1h0a.09794.09794,0,0,1,.1.1l.1.1h0a.09794.09794,0,0,1,.1.1h0a.09793.09793,0,0,1,.1.1h0a.09794.09794,0,0,1,.1.1h.1c.1,0,.2.1.3.1h.1a.09794.09794,0,0,1,.1.1c0,.1.1,0,.1.1h0a.09793.09793,0,0,1,.1.1c0,.1.1,0,.1.1h0a.30971.30971,0,0,1,.2.1h0a.21508.21508,0,0,1,.2.2v.1c.1.1.2.1.3.2l.1.1a.09794.09794,0,0,1,.1.1h0a.34914.34914,0,0,1,.1.2v.2h0a.09794.09794,0,0,1,.1.1h0l.1.1a.09793.09793,0,0,1,.1.1c0,.1.1,0,.2.1v-.3c-.1.1-.1,0-.2,0h0c-.1,0-.1,0-.1.1s0,.1.1.2c0,.1.1.1.1.2v.1h0v.3h.2c.1.1,0,.1,0,.2h0l.1.1.2-.3.2-.2.2-.2a6.727,6.727,0,0,0,.7-1.1l.4-.7.2-.3.2-.3.1-.1.1-.3.1-.2.2-.4.1-.2.1-.2.1-.2.1-.2.1-.2.1-.3.1-.4.1-.2.1-.2a10.92643,10.92643,0,0,0,.5-1.7l.1-.3v-.3a.49375.49375,0,0,1,.1-.3v-.1l.1-.4V147a.75592.75592,0,0,1,.1-.4v-.1a.60128.60128,0,0,1,.1-.4c.1-.2,0-.1,0-.1v-3a2.15528,2.15528,0,0,0,.5-1.7Zm-5.5-14.5Zm-27.1,8.7Zm30.5,3V149h-.1v.1a.09794.09794,0,0,0,.1.1h0c-.1.1-.1.2-.2.2h-.1c0-.1-.2-.1-.2-.1a.09794.09794,0,0,1-.1-.1h0l-.1-.1V149h0v-.4h-.7l-.1.1h-.1v-.2h0v-.1h.1a.34914.34914,0,0,0,.2-.1h0s.1-.1.1,0c.3.2.5,0,.7-.1h0c0-.1.1-.2,0-.3h.1v.3h0a.09794.09794,0,0,1,.1.1l.1.1h0v.8l-.1.1h-.1c.5-.3.5-.2.4-.1Zm-.9,1.7h0a.34914.34914,0,0,0,.2-.1h.2v.1h0a.09794.09794,0,0,1-.1.1h0c-.1,0-.1.1-.2.1s0,.1-.1.1h-.4c-.1-.1-.2-.1-.4-.1h-.6a.09794.09794,0,0,1-.1.1c-.1,0,0,.1-.1.1h0v.1h0a.09794.09794,0,0,1,.1.1h0c.1,0,0,.1,0,.1h.1a.09794.09794,0,0,1,.1-.1h.9v.1h0v.1h0c0,.1,0,.1-.1.1l-.2-.1h-.4c-.1.1,0,.1,0,.2h0v.1h0v.1h0c0,.1-.1.2,0,.3h.2a.09794.09794,0,0,1,.1.1h0v.2H590c0,.1,0,.1-.1.1h-.2c-.1,0-.1-.2-.1-.3-.2,0-.3,0-.3-.1V152a.1385.1385,0,0,0,0-.2h-.1c-.1,0-.2,0-.2.1v.2s0,.3-.1.4h0v.1h0c.1.2-.1.1-.2.1h-.2v-.1h0a.09794.09794,0,0,1,.1-.1h0a.30972.30972,0,0,1,.1-.2v-.2c-.1,0,.1-.2-.1-.2h-.1c-.1-.1,0-.2,0-.3h.2a.09794.09794,0,0,1,.1-.1h0c.1-.1,0-.2.1-.3h0a.09794.09794,0,0,1,.1-.1h0c.1-.1,0-.3.2-.4s0-.1.1-.1.1-.1.1,0h.4a.09794.09794,0,0,1,.1.1c0,.1.1,0,.2.1h.2c.1.1.3,0,.4.1h.2Zm-2.4,3h-1c0-.1-.2,0-.3,0v-.2h.2a.09794.09794,0,0,1,.1.1h.2v-.1h.2c.1,0,.1.1.2.1l.4.1Zm-1.3-4.8h0a4.87524,4.87524,0,0,0,.7-.3.09794.09794,0,0,1,.1-.1h0a.09794.09794,0,0,1,.1-.1h.1c.1,0,0-.1.1-.1h.2c.1,0,.1.1.1.2h0c.1.1.1.2.2.3s.1,0,.2.1h.1c0,.2,0,.2-.2.2a.09794.09794,0,0,0-.1.1c0,.1,0,.1-.1.1h0a.51954.51954,0,0,0-.2.4h0v.1h0v.2h0c-.1.1.1.1.1.2h.2v.1h0a.13851.13851,0,0,1,0,.2c-.1.1-.3,0-.4,0s0,.1-.1.1,0,.2-.1.3,0,.1-.1.1H588a.09794.09794,0,0,1-.1.1h-.1c-.2.1,0,.3-.1.4h-.1a.13851.13851,0,0,0,0,.2.09794.09794,0,0,1-.1.1h-.1c0-.1-.1,0-.1,0h-.2a.09793.09793,0,0,1-.1-.1v-.2h-.4a.09794.09794,0,0,1-.1-.1h-.6c-.2,0,0-.2-.1-.2h-.2c-.1,0-.2,0-.2-.1v-.4h0l.1-.1h0a1.00729,1.00729,0,0,1-.3.1h-.1v-.1l-.1-.1h0m.1,0h0c0-.1.1-.2,0-.2h0v-.1h0v-.2c0-.1.1-.1.1-.2h0l.1-.1h0c.1,0,.1.1.2.1h0a.13851.13851,0,0,1,.2,0h.2c.1,0,0-.1.1-.1s0-.1,0-.1.1-.2.2-.2h.5a.09794.09794,0,0,1,.1-.1l.2-.2a.09794.09794,0,0,1,.1-.1Zm6.7-3.2a.09794.09794,0,0,1-.1.1s-.2,0-.1.1h0v.1l-.1.1a.73473.73473,0,0,1-.2-.6c.1,0,0,.1.1.1s0-.1,0-.2-.1-.1-.1-.2h.4c.1.1,0,.2.1.4-.1-.1-.1,0,0,.1Zm-1.3.2c.1-.1.2-.1.2-.2-.1,0-.1,0-.2-.1h-.2c-.2-.1-.1-.1,0-.2V147h0v-.1h.1a.09794.09794,0,0,1,.1.1c.1.1.2,0,.2.1v.2h.3v-.1c.1.1,0,.3-.1.4s-.1.2-.2.3l-.1.1h0a.36737.36737,0,0,0-.1-.3h0v0Zm-2,.1h0c.1-.1.1-.1.2-.1h.1a.09794.09794,0,0,1,.1-.1h.1a.09794.09794,0,0,1,.1-.1h.1l.1-.1h0v-.1h.1v.1h0c0,.1,0,.1-.1.1h-.1c-.1,0-.2,0-.2.1s0,.1-.1.1h-.1c-.1,0-.1,0-.1.1h-.4v-.1h0l.2.1Zm-1.7,1.6Zm-2.7,3a.09794.09794,0,0,0,.1.1h.2c.1,0,.1,0,.1.1a.09794.09794,0,0,0,.1.1h.2a.60123.60123,0,0,1,.4.1c.1,0,.1,0,.1-.1s0,0,.1,0,0,0,0,.1a.09794.09794,0,0,0,.1.1h.2c.1,0,.1.1.2.1h.5s.2,0,.2.1,0,.1-.1.1,0,.1-.1.1-.2-.1-.2,0,.1.1.2.1a.36736.36736,0,0,1,.3.1.09794.09794,0,0,0,.1.1.34918.34918,0,0,0,.2.1.34914.34914,0,0,1,.2.1v.1h-.5c-.1,0-.2,0-.2-.1l-.1-.1h-.1c-.1,0-.2,0-.2-.1l-.1-.1h-.2c-.1,0-.1,0-.2-.1l-.1-.1-.5-.2h-.5c-.1,0-.2-.1-.3-.1a.36737.36737,0,0,1-.3-.1c-.1,0-.1-.1-.1-.2s-.2-.1-.3-.1-.1,0-.1-.1,0-.1.1-.1h.1v-.1c0-.1.1,0,.1,0v-.1h.3c-.1.2.1.1.1.2Zm15.4-20.6Zm-7.3,8.1h.2v-.1h0c.1,0,.2,0,.2-.1h.2c.1,0,0-.1.1-.1h.9c.1,0,.2.1.2,0h0s-.1-.1,0-.1h.1v-.1h0c0-.1,0-.1.1-.1h.1v.2h.4v-.1h.1v-.2h0v-.1h0c-.1-.1,0-.1,0-.2s-.2-.2-.2-.3l-.1-.1h0s-.1-.1,0-.1h0a.09794.09794,0,0,1,.1-.1h-.2c-.1,0-.2,0-.2-.1h0a.09794.09794,0,0,0-.1-.1h0c-.1-.1-.1-.1,0-.2s0-.1.1-.1h.1c.2-.1.1-.2.1-.3h0v-.1l-.1-.1-.1-.1a.09794.09794,0,0,1-.1-.1.36737.36737,0,0,1,.3.1l.2.2.1.1.6.3h.3c.1,0,0,.2.1.1l.1-.2h.2l-.1.1a.09794.09794,0,0,1-.1.1h0c0,.1.2.2,0,.2-.2.1-.2,0-.3,0s0,.1-.1.1,0,.1,0,.1a.09794.09794,0,0,1-.1.1c-.1,0-.2-.1-.3-.2s-.1,0-.1-.1h-.4l.1.1.1.1h.1v.1h.2l.1.1v-.6l.1.1h0l.2.2.1.1.2.2v.1h0a.13851.13851,0,0,1,0,.2h0c.1.1-.1.1-.1.1h0l.1.1h0v.3h0v.1s.2.2.1.3h0v.1h-.1c-.1,0-.3-.1-.3,0h-.5c-.1,0-.2,0-.2-.1,0,.1-.2.2-.2.3h-.2c-.1,0-.1-.1-.2-.1s0-.2-.2-.2h0v.2c0,.1-.1.1-.2,0h-.1a.09794.09794,0,0,0-.1.1h-.1l-.4-.1v-.1l-.1.1v.2c0,.1,0,.3-.3.2h0a.09794.09794,0,0,1-.1-.1.35353.35353,0,0,0-.3-.3h0l-.1-.1v-.1C592,139.6,592,139.9,592.2,139.9Zm-10.8,8.9.2.1c.1,0,.1.1.2.1,0,.1.1.1.1.2v.2l.1.1.1.1h.1l.1.1.3.2.1.1.1.1v.4c0,.1.1.1.2.1s.1.2.1.2c0,.1.1.2.2.3s.4.1.4.3v.1h-.1c-.1,0,0,0,0,.1h0v.1s0,.3-.1.4-.1.1-.2.1h-.4v-.1c0-.1-.2-.1-.3-.2s-.2-.3-.3-.4c0-.1-.1-.1-.1-.2a829303603056.7764,829303603056.7764,0,0,1-.2-.2v-.2a.21508.21508,0,0,0-.2-.2.09794.09794,0,0,1-.1-.1v-.4h0a.09794.09794,0,0,0-.1-.1l-.1-.1v-.2c0-.1-.1-.2-.1-.3-.1-.1-.2-.2-.3-.2s-.1-.1-.2-.1h0V149h0l-.1-.1-.1-.1a.09794.09794,0,0,1-.1-.1l-.2-.1-.1-.1-.1-.1v-.2a.1.1,0,1,1,.2,0c.1,0,.1.1.2.1h.3c.1,0,.2,0,.2.1h.1v.1l.1.1c0,.1.1.1.1.2Zm-5-6Zm-2.4,4h0v-.2h0v-.2h.4a.09794.09794,0,0,0,.1.1h0l.1.1c0,.1.1.1.1.2a.09794.09794,0,0,0,.1.1h.1c.1.1,0,.1.1.2s0,0,0,.1,0,.1-.1.2h-.5a.09794.09794,0,0,1-.1-.1v-.1h0a.13851.13851,0,0,1,0-.2h0c-.4-.2-.3-.2-.3-.2Zm14.8,7.7a.1875.1875,0,0,1-.3,0h0a.30971.30971,0,0,1-.2-.1h0l-.1-.1v-.1h0a.60123.60123,0,0,1,.4.1l.1.1h0v.2Zm.7-.4h-.3s0-.1-.1,0h-.3a.36736.36736,0,0,1-.3-.1c-.1-.1-.2-.1,0-.2h.3a.30971.30971,0,0,1,.2.1h0a.36737.36737,0,0,0,.3-.1h.4a.90151.90151,0,0,0,.5.1h.2c0,.1-.1.1-.2.1h-.4c-.1,0-.1-.1-.2,0s0,.1-.1.1Zm1.8.2h-1.5a.09794.09794,0,0,1,.1-.1c.1,0,0-.1.1-.1h0l.1-.1h.1a.30972.30972,0,0,0,.2-.1h.6c.1,0,.2,0,.2.1Zm.5-2.6v-.1c0-.1.1,0,.1,0h0v-.2h0l-.1-.1c0-.1.1-.2.1-.3h0a.09793.09793,0,0,1,.1-.1c.1,0,0-.1.1-.1h0c.2,0,0,.1,0,.2v.1h.1c.1,0,.1.1,0,.2h0s-.1,0,0,.1.1.1,0,.1h-.1c-.2,0-.2.1-.2.1h0v.1h0c0,.1-.1.1-.1,0Zm1.3,1.2h-.2a.09794.09794,0,0,1-.1-.1h0a.09794.09794,0,0,1-.1-.1m-.1,0H592a.09794.09794,0,0,1-.1-.1h0c0-.1,0-.1.1-.1h0c.2-.1.4,0,.6,0h0a.09794.09794,0,0,1,.1.1c0,.1.2,0,.2.1v.1h0v.1h0Zm-1.8-1.8Zm0,0Zm0,0Z"/><path class="cls-3" d="M604,143v3.1s0,.3-.1.4v.1a.75592.75592,0,0,1-.1.4v.1l-.1.4v.1a.36739.36739,0,0,1-.1.3c-.1.1,0,.1,0,.1v.2l-.1.3a8.44684,8.44684,0,0,1-.5,1.7v.2l-.1.2-.2.4-.1.3-.1.2-.1.2-.1.2-.1.2-.1.2-.1.4-.1.2-.1.3-.1.1-.2.3-.2.3a4.348,4.348,0,0,0-.4.7,10.54016,10.54016,0,0,1-.7,1.1l-.2.1-.2.2-.2.3-.2.2-.2.3v.2l-.5.6c-.3.4-.7.7-1,1.1l-.2.2-.2.1-.1.1a20.61873,20.61873,0,0,1-6.8,4.1l-.7.3-.2.1-.7.2-.3.1-.3.1-.3.1-.3.1-.4.1-.5.1-.4.1h-.2l-.3.1h-.1l-.5.1a20.67917,20.67917,0,0,1-3.5.3h-3.4l-.4-.1h-.1l-.4-.1h-.1l-.4-.1-.3-.1h-.2l-.4-.1h-.2l-.2-.1h-.2l-.5-.6h-.2l-.2-.1H574l-.4-.1H573l-.1-.1-.2-.1h-.1l-.3-.6h-.1l-.3-.1-.1-.1-.1-.1h-.1l-.2-.1h-.2l-.1-.1-.3-.2h0l-.3-.2h0l-.3-.2h0l-.2-.1v.1l-.1-.1-.1-.1h-.1l-.3-.2-.1-.1h-.1l-.2-.1h0l-.1-.2-.2-.1-.1-.1h-.1l-.2-.1-.2-.2-.1-.2-.2-.1-.2-.2-.1-.1h0a22.3,22.3,0,0,0,20.7-6l.1-.1c.4-.4.7-.8,1.1-1.2l.5-.5.3-.4.2-.3.2-.3h0l.2-.2a8.636,8.636,0,0,0,1-1.6,19.77438,19.77438,0,0,0,2.7-7.8c.1-.5.1-.9.2-1.4v-3.4a9.85239,9.85239,0,0,0-.2-1.7c0-.3-.1-.5-.1-.8a24.543,24.543,0,0,0-.8-2.9c-.1-.2-.1-.4-.2-.6a7.74064,7.74064,0,0,0-.7-1.6l-.1-.2h0c-.2-.5-.5-.9-.7-1.4h0l-.1-.1h0l-.1-.2h0a28.31423,28.31423,0,0,0-2-2.8c-.5-.6-1-1.1-1.5-1.6-.5-.4-.9-.9-1.4-1.3l.4.1.4.1.3.1h.1l.7.3h.2l.3.1h.2l.2.1h.1l.2.1.2.1.4.2h0l.3.1h0l.3.2h0l.2.1.2.1h.1V123h0l.1.1.3.1.3.1h.1l.3.2h0l.3.2h0l.3.2.3.1h.1l.1.1.2.2h0l.2.1.1.1h0l.1.1h0l.1.1h0l.1.1h0l.1.1h0l.4.1.4.4.2.2.3.3.2.1.2.2.1.1.2.2.2.2h.1l.2.2.3.3.6.6.2.3.2.3h0l.2.3.2.3.5.6.2.3.1.1.6.9.1.1.1.1.1.1.2.3v.2l.2.3v.1a5.73615,5.73615,0,0,0,.4.7l.1.1v.1l.1.1.1.2h0l.1.1v.1l.1.1v.2l.1.2.1.2.1.3.1.2v.1l.2.4v.1h0l.1.3.1.2v.1l.1.3.1.2v.1h0v.2l.1.3v.1h0v.1h0l.1.3h0l.1.3v.8a.75592.75592,0,0,0,.1.4h0a.60128.60128,0,0,0,.1.4v.1a3.40193,3.40193,0,0,1,.1,1h0v.1h0v.4A8.35174,8.35174,0,0,1,604,143Z"/><path class="cls-2" d="M573.2,125a19.67111,19.67111,0,0,0-11.3,21,19.83112,19.83112,0,0,1,14.2-18.9C575.1,126.4,574.2,125.7,573.2,125Z"/><path class="cls-4" d="M576.5,120.8a21.13168,21.13168,0,0,0-16,19.9,21.23218,21.23218,0,0,1,18.6-17.1C578.2,122.7,577.4,121.7,576.5,120.8Z"/><text class="cls-5" transform="translate(562.6787 148.3385)">NEM</text><text class="cls-6" transform="translate(612.0073 153.3383)">HOA LỆ </text></svg>