<svg id="Layer_1" data-name="Layer 1" xmlns="http://www.w3.org/2000/svg" xmlns:xlink="http://www.w3.org/1999/xlink" viewBox="0 0 1326 290"><defs><style>.cls-1{fill:#aad3d3;}.cls-2{fill:#1cb799;}.cls-3,.cls-67{fill:#fff;}.cls-4{opacity:0.6;}.cls-5,.cls-6,.cls-7,.cls-8,.cls-9{fill:#b5b5b5;}.cls-21,.cls-6{opacity:0.3;}.cls-21,.cls-23,.cls-25,.cls-37,.cls-39,.cls-6,.cls-65,.cls-67,.cls-68,.cls-69,.cls-7,.cls-8,.cls-9{isolation:isolate;}.cls-23,.cls-37,.cls-7{opacity:0.4;}.cls-25,.cls-8{opacity:0.5;}.cls-39,.cls-9{opacity:0.1;}.cls-10{opacity:0.63;}.cls-11{fill:url(#linear-gradient);}.cls-12{fill:#e8e3ca;}.cls-13{fill:#2b3990;}.cls-14{fill:#ffc4bd;}.cls-15{fill:#113a5a;}.cls-16{fill:#18445f;}.cls-17{fill:#343736;}.cls-18{fill:#404443;}.cls-19{fill:#343836;}.cls-20{fill:url(#linear-gradient-2);}.cls-21{fill:url(#linear-gradient-3);}.cls-22{fill:url(#linear-gradient-4);}.cls-23{fill:#5d5d5d;}.cls-24,.cls-25{fill:#f9c886;}.cls-26{fill:#fed948;}.cls-27{fill:#e2eeee;}.cls-28{fill:#d89e9a;}.cls-29{fill:#313b6b;}.cls-30{fill:url(#linear-gradient-5);}.cls-31{fill:#eae0b7;}.cls-32{fill:#ffdcb0;}.cls-33{fill:url(#linear-gradient-6);}.cls-34{fill:#595a5c;}.cls-35{fill:#dbcd93;}.cls-36{fill:#ff6363;}.cls-37{fill:url(#linear-gradient-7);}.cls-38{fill:#213347;}.cls-39{fill:#231f20;}.cls-40{fill:url(#linear-gradient-8);}.cls-41{fill:url(#linear-gradient-9);}.cls-42{fill:#1c244d;}.cls-43{fill:#ececec;}.cls-44{fill:#202953;}.cls-45{fill:url(#linear-gradient-10);}.cls-46{fill:url(#linear-gradient-11);}.cls-47{fill:url(#linear-gradient-12);}.cls-48{fill:#00efc1;}.cls-49{fill:#00cef1;}.cls-50{fill:#ffd64f;}.cls-51{fill:#00969f;}.cls-52{fill:#ffa085;}.cls-53{fill:#ff401b;}.cls-54{fill:#ffb099;}.cls-55{fill:#003960;}.cls-56{fill:#ff9372;}.cls-57{fill:#ff7100;}.cls-58{fill:#0096ca;}.cls-59{fill:#c8edee;}.cls-60{fill:#0072bf;}.cls-61{fill:#ff8500;}.cls-62{fill:#f43915;}.cls-63{fill:#ffd200;}.cls-64{fill:#ff5e2b;}.cls-65{fill:#01a0a4;}.cls-65,.cls-67{opacity:0.2;}.cls-66{fill-opacity:0;}.cls-68{font-size:15px;fill:#ff4500;}.cls-68,.cls-69{font-family:AmericanTypewriter-Bold, American Typewriter;font-weight:700;}.cls-69{font-size:32px;fill:#20c997;}</style><linearGradient id="linear-gradient" x1="4805.32934" y1="1354.79039" x2="4808.39941" y2="1334.6704" gradientTransform="translate(5165.55993 -2668.47009) rotate(130.53915)" gradientUnits="userSpaceOnUse"><stop offset="0" stop-color="#e9c433"/><stop offset="1" stop-color="#f9ed32"/></linearGradient><linearGradient id="linear-gradient-2" x1="5205.02014" y1="150.01814" x2="5218.27014" y2="150.01814" gradientTransform="translate(6349.3501 289) rotate(180)" gradientUnits="userSpaceOnUse"><stop offset="0" stop-color="#045f80"/><stop offset="1" stop-color="#1c4f76"/></linearGradient><linearGradient id="linear-gradient-3" x1="5220.8501" y1="97.76" x2="5242.78003" y2="97.76" xlink:href="#linear-gradient-2"/><linearGradient id="linear-gradient-4" x1="5218.27002" y1="149.07001" x2="5220.84998" y2="149.07001" xlink:href="#linear-gradient-2"/><linearGradient id="linear-gradient-5" x1="4526.66157" y1="74.18218" x2="4348.3017" y2="36.3222" gradientTransform="translate(5592.14014 289) rotate(180)" gradientUnits="userSpaceOnUse"><stop offset="0.14" stop-color="#3e4849"/><stop offset="1" stop-color="#603913"/></linearGradient><linearGradient id="linear-gradient-6" x1="4775.58144" y1="-533.76216" x2="4779.71132" y2="-533.76216" gradientTransform="translate(5734.68006 1340.63004) rotate(-158.83874)" gradientUnits="userSpaceOnUse"><stop offset="0.2" stop-color="#ff6363"/><stop offset="1" stop-color="#ef4136"/></linearGradient><linearGradient id="linear-gradient-7" x1="1043.62" y1="181.36029" x2="1074.39674" y2="181.36029" gradientTransform="matrix(1, 0, 0, -1, 0, 289)" xlink:href="#linear-gradient-6"/><linearGradient id="linear-gradient-8" x1="4622.23794" y1="1446.95721" x2="4635.41812" y2="1446.95721" gradientTransform="matrix(-0.81, 0.58, -0.58, -0.81, 5658.35992, -1427.06)" xlink:href="#linear-gradient-6"/><linearGradient id="linear-gradient-9" x1="4459.86676" y1="185.65656" x2="4454.63678" y2="194.07656" gradientTransform="translate(5468.16992 289) rotate(180)" gradientUnits="userSpaceOnUse"><stop offset="0.18" stop-color="#e3b433"/><stop offset="1" stop-color="#f9ed32"/></linearGradient><linearGradient id="linear-gradient-10" x1="4454.61039" y1="157.79365" x2="4488.06235" y2="157.79365" gradientTransform="translate(5468.16992 289) rotate(180)" xlink:href="#linear-gradient"/><linearGradient id="linear-gradient-11" x1="3708.49225" y1="1819.37611" x2="3711.84235" y2="1797.45607" gradientTransform="translate(4304.83009 -2370.05005) rotate(116.82198)" xlink:href="#linear-gradient"/><linearGradient id="linear-gradient-12" x1="4463.93106" y1="185.3625" x2="4461.62125" y2="195.6525" xlink:href="#linear-gradient-9"/></defs><title>aboutus4-01</title><g id="Layer_2" data-name="Layer 2"><rect class="cls-1" width="1326" height="290"/><path class="cls-2" d="M470.78,242.69c-20.32,0-38.51,3.28-50.66,8.48-2.49-19.75-47.43-35.54-102.85-35.59-25.48,0-48.8,3.29-66.87,8.78-23.12-20.32-78.33-34.68-143-34.74C65.77,189.57,28,195.47.08,205.07V290l283.51.29c1.62,0,3.21-.07,4.81-.11l112.56.11h0l70.48.07h0c36-.16,65.07-10.7,65.17-23.73S507.24,242.72,470.78,242.69Z"/><path class="cls-2" d="M965.26,248.09c15.58,0,29.52,2.86,38.83,7.4,1.91-17.25,36.35-31,78.82-31.08,19.53,0,37.4,2.87,51.25,7.67,17.72-17.75,60-30.28,109.6-30.34,31.9,0,60.83,5.12,82.24,13.5v74.13l-217.29.25c-1.25,0-2.46-.06-3.68994-.09l-86.27.1h0l-54,.06h0c-27.58-.14-49.87-9.35-50-20.72S937.31,248.12,965.26,248.09Z"/></g><g id="Layer_1-2" data-name="Layer 1"><path class="cls-3" d="M690.79,33.84a113.86,113.86,0,0,0-80.89,33,112.28994,112.28994,0,0,0-33.13,80.32c0,62.2,50.35,112.85,112.16,112.9h.1c62.73,0,113.8-50.69,113.85-113S752.76,34,691,33.84Z"/><path class="cls-2" d="M689.07,271.05H689c-67.9-.06-123.17-55.65-123.21-123.92A123.28011,123.28011,0,0,1,602.15,59a124.73,124.73,0,0,1,88.6-36.17H691c67.82.14,123,55.86,122.9,124.23a123.05,123.05,0,0,1-36.51,87.83A124.49,124.49,0,0,1,689.07,271.05Zm1.68-232.34a109,109,0,0,0-77.4,31.56,107.41987,107.41987,0,0,0-31.71,76.86c0,59.52,48.18,108,107.32,108h.1C749.1,255.16,798,206.65,798,147S750,38.83,691,38.71Z"/><g class="cls-4"><path class="cls-5" d="M1112,281s-6-3.7-8-4.76c-2.62-1.38-10.25-3-11.55005-3-3.14,0-5,0-4.75-.25a27.61325,27.61325,0,0,1,4-.23s-3.18-.84-3.1-1.92a18.00041,18.00041,0,0,1,4.14-.39,6.6,6.6,0,0,1,3.44995.73c2.93006,2,9.14,2.59,13.46,4,2.87.91,10.13,5,10.13,5Z"/><polygon class="cls-5" points="1115.63 283.51 1108.73 279.77 1116.93 278.97 1115.63 283.51"/><path class="cls-5" d="M1115,279.87s-2.11-.11-3.71-.12-4.85.36-4.85.36l.14-.61s-.9-.43.12-.46,8.5-.39,8.5-.39,3.12,1.08,2.25,1.11a6.42965,6.42965,0,0,1-1.31006-.06Z"/><polygon class="cls-5" points="1139.12 252.98 1138.49 251.58 1132.44 251.58 1132.86 253.22 1139.12 252.98"/><path class="cls-5" d="M1129.2,251l2.94995.93H1139.83s.56005-.69-.78-1.16a20.13009,20.13009,0,0,0-4.58-.45Z"/><path class="cls-5" d="M1134.47,250.33s-.14.9-5.27.9-4.29-.9-4.29-.9Z"/><polygon class="cls-5" points="1112.89 252.98 1112.26 251.58 1106.2 251.58 1106.63 253.22 1112.89 252.98"/><path class="cls-5" d="M1103,251l3,.93h7.67s.56006-.69-.78-1.16a20.07928,20.07928,0,0,0-4.56994-.45Z"/><path class="cls-5" d="M1108.24,250.33s-.15.9-5.28.9-4.29-.9-4.29-.9Z"/><path class="cls-5" d="M1104,265.15c.75,1.92,9.76,8.8,9.76,8.8l12,.18s.11-.15.27-.42c3.80005.54,13.27,1.64,17.07-.05,4.8-2.15-3.86-8.55-1-11.15s-.85-9.12-1.6-9.6-8.16-.17-8.16-.17-4.12,6.55-4.86,9.08c-.34,1.15-1.63,6-1.66,6a78.716,78.716,0,0,0-8.58-5.3c2.25-2-3.57-7.86-2.25-9.35s-9.18994-.52-9.18994-.52S1103.28,263.24,1104,265.15Z"/><path class="cls-5" d="M1128.39,274h7.42s.06006-.17.14-.47c1.39.17,3.43006.39,5.68994.56C1138.11,274.93,1132.29,274.47,1128.39,274Z"/><path class="cls-6" d="M1105.72,252.64h.11c.43994,3.5,1.42,10.22,2.54,11.77,1.54,2.11,14.11,9.61,14.11,9.61h3.33a.51713.51713,0,0,0-.07.11l-12-.18s-9-6.88-9.76-8.79S1105.72,252.64,1105.72,252.64Z"/><path class="cls-5" d="M1126,273.71c.65.09,1.47.2,2.4.31h-2.58A2.3558,2.3558,0,0,0,1126,273.71Z"/><path class="cls-7" d="M1144.46,271.65s-.68-.28-1.28-.54a53.3091,53.3091,0,0,0-9.33-.61c-1.85.2-1.18995.77-1.18995.77Z"/><path class="cls-5" d="M1140,284s-5.24-1.91,1.65-6.14,1.93995-6.21,1.93995-6.21a247.18916,247.18916,0,0,0-31,0s-1.53,7.23-1.53,9.31,3.85,3,11.17,3Z"/><path class="cls-8" d="M1121.81006,283.85h.81006s-3-1.8-3.76-2.46,3.44995-8.48,3.44995-8.48h-3.6s-4.78,6.13-4.42,7.35S1121.81006,283.85,1121.81006,283.85Z"/><path class="cls-5" d="M1124.16,284l.46.87,5.93994.27.6-1.14A39.18094,39.18094,0,0,0,1124.16,284Z"/><path class="cls-7" d="M1116.13,271.65l1.05-.31h1s.93006-.82-1-.7c-2.44995.15-6.59.59-6.59.59Z"/><path class="cls-5" d="M1140,283.64l.39.45s-7.77.11-8.16.15-3-.38-3-2.27,5.13-10.36,4.59-11.09,10.62.48,10.62.48,4.25,2.71,0,5.28A9.25,9.25,0,0,0,1140,283.64Z"/><path class="cls-5" d="M1131,284.4s2.35.07,2.11-.18a7.50085,7.50085,0,0,0-1.55-.71l-2.32.31Z"/><path class="cls-5" d="M1122.43005,284.25s-6.29.05-8.8-.63c-1.83-.5-3.49-1.33-3.22-3.43.85-6.73-2.14-8.55,2.56006-8.93l5.87-.46s-2.87,7.21-2,9.44C1117.29,281.26,1122.43005,284.25,1122.43005,284.25Z"/><path class="cls-5" d="M1124.38,284.44s-2.92,0-2.67-.22a7.41231,7.41231,0,0,1,1.55005-.71l2.32.31Z"/><path class="cls-5" d="M1129.85,283.91a27.31113,27.31113,0,0,0-3-.21,13.60681,13.60681,0,0,1-2-2.28c-.21-.57,0-.68,0-.68h-.49a.9001.9001,0,0,0,0,1.06,15.08663,15.08663,0,0,0,1.9,1.9l-1.55005.14.25.06a22.49214,22.49214,0,0,1,4.33,0C1131.24,284.19,1129.85,283.91,1129.85,283.91Z"/><path class="cls-5" d="M1129.59,284.94h1.08s-5.93994-.63-6.29-.77l.18006.61Z"/><path class="cls-5" d="M1122.31006,284.38c2.88.13,5.47.4,8.36.52,0,.19.92.41,1.49.53.35.07.77.14,1.21.21,1.37.25,3.14.49,3.2.82.22.85-3.31006.1-5,.15a6.999,6.999,0,0,0-1.93995.24c-.6.17-.6.41-1,.6-1,.51-2.43005.67-4.84.82-1.08.07-2.9.23-4,.2-4.1-.09-2.79-.66-3.16-1.13s-1.4-.87-1.79-1.33C1114,284.95,1116.22,284.11,1122.31006,284.38Z"/><path class="cls-5" d="M1116.1,287.65c.16.27.62.5,2.44995.58a53.39936,53.39936,0,0,0,8.06006-.51c1.27-.18,1-.35,1.68005-.61s.72-.54,3.71-.58c.53,0,1.5.17,2,.21,1.52.1,1.64.18,2.06006-.21s-1.75-.69-1.56006-.72c4.28.66,2.93994,1.36,1.06006,2.19-2.1.92-1.74.71-5.57.9-.80005,0-1.43.09-2.17.15-2.07.19-4,.61-6.26.68-3.11.1-2-.09-2.81006-.44C1117.49,288.69,1112.93994,288.28,1116.1,287.65Z"/><path class="cls-5" d="M1146,283s-4.63,1.22-5.94995,0S1146,276.86,1146,276.86l1.83-5.57H1152s1.14,4.63.78,5.79S1146,283,1146,283Z"/><path class="cls-5" d="M1152.14,271.5s-.49-.5,0-.6,2-1.1.56006-1.54-6.36-.09-6.16.15,0,.72,0,.72h-.65c-.55,0,.05.33.43006.48s1.75.38,1.58.73S1152.14,271.5,1152.14,271.5Z"/><path class="cls-5" d="M1143.77,277.78l9.55005.18s-4.56006,5.28-7.64,5.67-6.28.5-6.28.5A6.39994,6.39994,0,0,1,1143.77,277.78Z"/><path class="cls-5" d="M1168.62,259h-9.79a.25852.25852,0,0,1,0,.08c0,.8-5,1.46-11.15,1.46s-11.14-.65-11.14-1.46a.2006.2006,0,0,1,0-.08h-12.46c-3.43995,0-6.21-.57-6.21-1.27v-6.17c0-.7,2.77-1.27,6.21-1.27h44.48c3.42,0,6.21.57,6.21,1.27v6.17C1174.83,258.4,1172,259,1168.62,259Zm-29.56995.08c0,.63,3.87,1.13,8.66,1.13s8.66-.51,8.66-1.13a.16144.16144,0,0,0,0-.08h-17.26a.20021.20021,0,0,0-.06006,0Z"/><polygon class="cls-5" points="1117.93 256.94 1131.27 256.94 1131.27 257.91 1135.2 257.91 1135.2 256.94 1157.55 256.94 1157.55 257.91 1161.48 257.91 1161.48 256.94 1174.83 256.94 1174.83 256.52 1161.48 256.52 1161.48 255.57 1157.55 255.57 1157.55 256.52 1135.2 256.52 1135.2 255.57 1131.27 255.57 1131.27 256.52 1117.93 256.52 1117.93 256.94"/></g><g class="cls-4"><path class="cls-5" d="M1074.86,236.61c1.1-.16,2.06005-.27,2.68994-.35a6.58678,6.58678,0,0,1,.66,0c1.93005,0,1.37,1,1.37,1l-1.26.39-2.59.8c-1.54.47-3,.95-3.52,1.12s0,.95.77,1.59h0c-.30005,0-4,.47-5.25.63-1.08-1-2.14-2.23-1.93994-2.83C1066,238,1071.22,237.11,1074.86,236.61Z"/><path class="cls-5" d="M1084.87,237.16a6.12037,6.12037,0,0,1,2.28.35c.18995.09-.09.19-.43.17a14.44929,14.44929,0,0,1-2.58-.06,36.00067,36.00067,0,0,0-5.18005-.38l-.74-.86a18.71978,18.71978,0,0,1,4-.92c1.67-.13,5.65-.68,8.55.17.31006.09.29.24,0,.32a38.33066,38.33066,0,0,1-4.52.9c-.73.08-1.17.15-1.43.2S1084.66,237.16,1084.87,237.16Z"/><polygon class="cls-5" points="1092.92 238.52 1075.16 235.34 1082.73 231.51 1101.56 234.88 1096.34 237.52 1092.92 238.52"/><polygon class="cls-5" points="1092.92 238.52 1092.81 238.5 1092.55 237.8 1096.52 237.43 1096.34 237.52 1092.92 238.52"/><path class="cls-5" d="M1092.93994,238.45l-.23-.62,3.45-.33Z"/><path class="cls-5" d="M1097.51,235.87l1.61-.81a.31989.31989,0,0,1,.17,0h0c.05,0,.08,0,0,.05l-1.61.81a.34.34,0,0,1-.17,0h0C1097.49,235.91,1097.47,235.88,1097.51,235.87Z"/><path class="cls-5" d="M1096.86,235.75l1.62-.81a.30991.30991,0,0,1,.16,0h0c.05,0,.08,0,0,.05l-1.6.81a.29981.29981,0,0,1-.17,0h0C1096.86,235.79,1096.84,235.77,1096.86,235.75Z"/><path class="cls-5" d="M1096.24,235.64l1.6-.81a.3201.3201,0,0,1,.17,0h0c.06006,0,.08,0,0,.05l-1.6.81a.33982.33982,0,0,1-.17,0h0C1096.22,235.68,1096.2,235.66,1096.24,235.64Z"/><path class="cls-5" d="M1079.52,235.33l1.61-.81a.32013.32013,0,0,1,.17,0h0c.06006,0,.09,0,0,.05l-1.61.81a.31989.31989,0,0,1-.17,0h0C1079.51,235.37,1079.49,235.35,1079.52,235.33Z"/><path class="cls-5" d="M1078.88,235.22l1.61-.81a.33029.33029,0,0,1,.17,0h0c.07,0,.08,0,0,.05l-1.6.81a.31993.31993,0,0,1-.17,0h0C1078.87,235.26,1078.85,235.24,1078.88,235.22Z"/><path class="cls-5" d="M1078.25,235.1l1.6-.81a.3.3,0,0,1,.17,0h0l-1.61.81a.31.31,0,0,1-.17,0h0C1078.23,235.14,1078.21,235.12,1078.25,235.1Z"/><path class="cls-5" d="M1090.71,237.34l5.53-2.8a.39036.39036,0,0,1,.18,0h0c.05005,0,.07,0,0,.05l-5.54,2.8a.3201.3201,0,0,1-.17,0h0C1090.68994,237.38,1090.68005,237.36,1090.71,237.34Z"/><path class="cls-5" d="M1090.08,237.22l5.54-2.8a.29981.29981,0,0,1,.17,0h0c.06006,0,.06995,0,.05.05l-5.55,2.8a.31989.31989,0,0,1-.17,0h0C1090.06006,237.27,1090,237.24,1090.08,237.22Z"/><path class="cls-5" d="M1089.43994,237.11l5.54-2.8a.34994.34994,0,0,1,.17,0h0l-5.53,2.8a.33011.33011,0,0,1-.17,0h0C1089.43005,237.15,1089.4,237.13,1089.43994,237.11Z"/><path class="cls-5" d="M1088.15,236.88l5.54-2.8a.31.31,0,0,1,.17005,0h0c.06006,0,.06994,0,0,.05l-5.53,2.8a.34009.34009,0,0,1-.17,0h0C1088.14,236.92,1088.12,236.9,1088.15,236.88Z"/><path class="cls-5" d="M1087.52,236.77l5.53-2.8a.31.31,0,0,1,.17,0h0c.06006,0,.09,0,0,.05l-5.54,2.8a.3.3,0,0,1-.16,0h0C1087.51,236.81,1087.49,236.78,1087.52,236.77Z"/><path class="cls-5" d="M1086.88,236.65l5.54-2.8a.29.29,0,0,1,.16,0h0c.06006,0,.08,0,0,.05l-5.53,2.8a.32013.32013,0,0,1-.17,0h0C1086.87,236.69,1086.85,236.67,1086.88,236.65Z"/><path class="cls-5" d="M1085.59,236.42l5.54-2.8a.35.35,0,0,1,.17,0h0c.06006,0,.08,0,0,.05l-5.53,2.8a.2998.2998,0,0,1-.16,0h0C1085.58,236.46,1085.56006,236.44,1085.59,236.42Z"/><path class="cls-5" d="M1085,236.31l5.53-2.8a.40009.40009,0,0,1,.18005,0h0c.06006,0,.06995,0,0,.05l-5.53,2.8a.31989.31989,0,0,1-.17,0h0C1084.93994,236.35,1084.93005,236.33,1085,236.31Z"/><path class="cls-5" d="M1084.33,236.19l5.53-2.8a.37.37,0,0,1,.17,0h0c.06006,0,.08,0,0,.05l-5.54,2.8a.33029.33029,0,0,1-.17,0h0C1084.31006,236.23,1084.29,236.21,1084.33,236.19Z"/><path class="cls-5" d="M1083,236l5.53-2.79a.33982.33982,0,0,1,.17,0h0c.06006,0,.08,0,0,.05l-5.54,2.8a.33982.33982,0,0,1-.17,0h0Z"/><path class="cls-5" d="M1082.4,235.85l5.54-2.8a.32013.32013,0,0,1,.17005,0h0c.06006,0,.09,0,0,.05l-5.52,2.8a.34009.34009,0,0,1-.17,0h0C1082.39,235.89,1082.37,235.87,1082.4,235.85Z"/><path class="cls-5" d="M1081.77,235.73l5.54-2.79a.28015.28015,0,0,1,.16,0h0c.06006,0,.08,0,0,.05l-5.54,2.8a.25992.25992,0,0,1-.16,0h0A.03321.03321,0,0,1,1081.77,235.73Z"/><path class="cls-5" d="M1081.2,234.83c-.75-.13-1-.42-.54-.64a4.09009,4.09009,0,0,1,2.14-.16c.74.13,1,.42.54.65A4.09,4.09,0,0,1,1081.2,234.83Z"/><polygon class="cls-5" points="1065.1 212.09 1065.66 210.26 1071.04 210.26 1070.67 212.4 1065.1 212.09"/><path class="cls-5" d="M1074.07,209.5l-2.63,1.23H1064.62s-.5-.91.68994-1.52a12.47953,12.47953,0,0,1,4.07995-.59Z"/><path class="cls-5" d="M1069.38,208.62s.12,1.19,4.68995,1.19,3.81994-1.19,3.81994-1.19Z"/><polygon class="cls-5" points="1038.08 212.09 1038.63 210.26 1044.02 210.26 1043.64 212.4 1038.08 212.09"/><path class="cls-5" d="M1047,209.5l-2.62,1.23h-6.81994s-.5-.91.68-1.52a12.44028,12.44028,0,0,1,4.07-.59Z"/><path class="cls-5" d="M1042.36,208.62s.12,1.19,4.68994,1.19,3.81994-1.19,3.81994-1.19Z"/><path class="cls-5" d="M1069.72,232.34l1.47-20.66s-4.19995-.84-6.68-.35-6.62,15.47-6.62,15.47l-12.81994-15s-4.76-1.32-7.24-.34c-1.25.49,1.76,6.84,3.19995,12.41s1.16,10.14,7.69995,11.4C1053.6,236.18,1069.72,232.34,1069.72,232.34Z"/><path class="cls-5" d="M1077.75,247.11l.11,1.15-5.59.51-1.6-1.15S1070.65,246.45,1077.75,247.11Z"/><path class="cls-5" d="M1079.80005,240.45a34.9985,34.9985,0,0,0-5.93994-6.95,8.75971,8.75971,0,0,0-3.39-1.93,24.47934,24.47934,0,0,0-5.31994-.22c-5.72.22-16.24,1.79-19.18994,2.95-4,1.54,15.18,13.78,15.08,14a39.75937,39.75937,0,0,0,10.19995.09,6.30017,6.30017,0,0,1,3.39-1,11.56008,11.56008,0,0,1,3.17.26,1.14946,1.14946,0,0,1,.25.06s3.48-1.61,3.92-2.28C1082.84,244.19,1080.88,242.13,1079.80005,240.45Z"/><path class="cls-7" d="M1075.75,241a25.9321,25.9321,0,0,0-1.9-7.45,8.75991,8.75991,0,0,0-3.39-1.93,24.47941,24.47941,0,0,0-5.31995-.22c-5.72.22-16.24,1.79-19.18994,2.95-4,1.54,15.18006,13.78,15.08,14a39.75937,39.75937,0,0,0,10.2.09,6.30014,6.30014,0,0,1,3.39-1,2.71807,2.71807,0,0,0,.43994-.26C1077,245.67,1076,243.06,1075.75,241Z"/><path class="cls-5" d="M1077.86,248v-.18a15.99881,15.99881,0,0,0-3.2,0c-1.11.19-2.91.62-2.91.62l.41.31Z"/><path class="cls-5" d="M1081.65,252.25a12.42017,12.42017,0,0,1,4.29-.51,7.90977,7.90977,0,0,1,3.25,1.2,11.53012,11.53012,0,0,0-2-.08,2.0999,2.0999,0,0,1,1.47.4c.66.52-2.5-.39-3.85-.37,0,0,2,.27,2.08.57s-1.41-.16-2.16-.09a26.00027,26.00027,0,0,1-4.68005.57c-3.12.11-6-1.09-7.5-.53s-1.64-.81-1.89-1.28-2.48-2.74.79-2.55a13.51971,13.51971,0,0,1,5.92,1.93Z"/><path class="cls-5" d="M1076.82,247.81s3.77-.39,5.5,1.17,3.91,2.25,3.59,2.94-3,1-6.83.79-6.12-.52-6-1.09c0,0-4-.21-1.23-1.14,0,0-1.62-1.9,1.14-2.33A17.89084,17.89084,0,0,1,1076.82,247.81Z"/><path class="cls-5" d="M1086.56006,252.25s-.73-.53-3.14-.2a27.42958,27.42958,0,0,1-4.59.39,5.57991,5.57991,0,0,1-4.36-1.52c-.81994-.62.36.68-1.36.87s.07995.7.07995.7l4.62.67A29.85986,29.85986,0,0,0,1086.56006,252.25Z"/><path class="cls-9" d="M1062.29,246.86l-.09,1s11.63-3.27,12.06006-4.21,6.16-2.2,6.16-2.2l-13.74,1.49Z"/><path class="cls-5" d="M1067.87,244.21s12.36-2.78,16.08-3.53a81.74142,81.74142,0,0,1,14.34-1.29c2,.46,3.33.69,3.71.41s-2.14-.78-2.14-.78a25.5198,25.5198,0,0,0,6.39-1.45s-.13-.61-1.85-1a9.2799,9.2799,0,0,0-3.92.23c-6.36,1.5-11.9,1.26-17.84,2-4,.49-18.06006,3.5-18.06006,3.5Z"/><path class="cls-5" d="M1061,248.35s8.11-3.55,9.62-4.44c1.34-.78-.76-2-3.31006-2.45-2-.33-10.5,2.14-10.5,2.14s-5.43994.87-2.48,2.84A11.44,11.44,0,0,0,1061,248.35Z"/></g><g class="cls-10"><path class="cls-5" d="M1015,281.89s-.8.36.53.63-.44.85-5,.59-3.41-.57-3.41-.57A67.67126,67.67126,0,0,1,1015,281.89Z"/><path class="cls-5" d="M1017.87,286.36l-12.07-1.25c-1.32-.14-2.85-.34-2.78-.66s.69-.34,1.14-.51c1-.37,1-.86.05-1.23s-2.69-.6-3.84-.94c-2.28-.67-1.87-1.58-1.48-2.4a10.549,10.549,0,0,0,1-3.37c.09-.84-.26-1.83-3.52-2.3a29.57013,29.57013,0,0,0-10.81.67c-2.28.75-2.4,1.71-2.07,2.6.21.57.57,1.16-.4,1.69s-3.23,1-3.45,1.55,2,1.14,3.83,1.61a37.67851,37.67851,0,0,1,7.17,2.41c1.77.88-.26,2.29,1.45,3.17a26.42011,26.42011,0,0,0,8.55,2.16,60.1509,60.1509,0,0,0,15-.77c2.44-.63,2.37-1.54,2.18-2.36"/><path class="cls-5" d="M983.11,252.2l-2.78-.93a8.59049,8.59049,0,0,0-2.83-.49h-1.09c-.78-.06-.76-.3-.6-.47.79-.89,1.73-1.84,4.77-2.47a7.93006,7.93006,0,0,1,1.95-.18c.71,0,1.07.29.39.34a2.61938,2.61938,0,0,0,.82,0c.75.1.69.33.45.51-.46.33-1.25.64-1.74,1s-.63.71.18,1,1.83.4,2.7.61,1.42.54.62.76a15.09942,15.09942,0,0,1-3.59.14"/><path class="cls-5" d="M982.54,250.22l-2.71.89a46.93727,46.93727,0,0,1-5.62-.73c-.59-.24,3.26-1.83,5.23-2.67.81-.35,7.44-.19,7.44-.19a3.26037,3.26037,0,0,1,1.18.27c1,.31-4.32.51-4.92,1.38A8.15165,8.15165,0,0,0,982.54,250.22Z"/><path class="cls-5" d="M1016.56,251.19v-1.11c0-.27-.11-.59-1.14-.74a8.90463,8.90463,0,0,1-.9-.14c-.49-.14.11-.34.69-.47a53.9989,53.9989,0,0,1,10.23-1.53,9.66967,9.66967,0,0,1,2.08.07c.52.11.18.36-.55005.34a2.13,2.13,0,0,0,.76.07c.38.17-.26.36-.92.49-1.21.23-2.66.39-3.89.62s-2.31.52-2.39.87.53.55.74.82-.15.62-1.38.71a12.89976,12.89976,0,0,1-3.39-.29"/><path class="cls-5" d="M1002.53,280.7c.07-.91.36-1.82-1-2.69-1.07-.68-3.52-1.27-5.3-1.9-2.61-.94-3.77-2-3.33-3,.1-.23.29-.46.93-.66a26.07179,26.07179,0,0,1,4.33-.6,236.38243,236.38243,0,0,1,24.75-.7,19.16027,19.16027,0,0,1,2.48.16c.8.14.78.36.67.56a6.86984,6.86984,0,0,1-3.33,2.28,18.91006,18.91006,0,0,0-3.5,1.57c-.67.55-.29,1.17,1.95,1.58.65.12,1.43.22,2.06.34,1.81.35,2.08.88,1.36005,1.33a16.76881,16.76881,0,0,1-3.81,1.24c-3.15.8-7.1,1.15-10.25,2C1010.54,282.14,1002.33,283.17,1002.53,280.7Z"/><path class="cls-5" d="M1014.72,269.74c-.82-2.26-5.25-4.37-7.32-6.59-.91-1-1.36-2-2.27-3-2.08-2.24-6.51-4.35-10.92-6.42a26.87918,26.87918,0,0,0-7.13-2.42,13.99993,13.99993,0,0,0-4.57-.19c-.72.15-.83.39-.73.61.41.92,3.41,1.66,5.19,2.5,2.43,1.13,2.54,2.43,2.67,3.68a56.0003,56.0003,0,0,0,2,10.22,4.13,4.13,0,0,0,2.86,3c2.19.92,6.66,1.67,11.38,1.55,2.7-.07,5.08-.41,7.62-.62a64.50982,64.50982,0,0,1,12.38995-.1c1.21-3.63,1.77-7.14.45-10.77l-.91-2.5-2.58-7.09c-.22-.61-1.2-1.39-4-1.42-2.61,0-4,.65-4.52,1.22-2.1,2.4-.57,4.87.11,7.31s.37,5-5,7.15"/><path class="cls-5" d="M999.15,282.28a12.80928,12.80928,0,0,0-1.56.07h-.24a8.52,8.52,0,0,1-1.88-.46c-.52-.25-.38-.53-.26-.8a8.29082,8.29082,0,0,0,.83-2.71,2.88012,2.88012,0,0,0-.69-2.5A12.87028,12.87028,0,0,0,992.8,274a41.30023,41.30023,0,0,0-13.53-5.82c-1.3-.32-2.81-.74-1.91-1.11a14,14,0,0,1,3.36-.41c5.34-.27,11.52-.5,15.83.22,3.5.59,4.55,1.62,4.67,2.57s-.43,1.92.81,2.83c.68.5,1.9,1,2.64,1.47a3.88992,3.88992,0,0,1,1.28,1.49c1,1.76,2.82,2.65,4.57,4.38.25.25-2,1.48-1.28,1.68l.43.11A45.78074,45.78074,0,0,1,999.15,282.28Z"/><polygon class="cls-5" points="989.11 269.58 987.47 269.04 998.04 268.37 998.79 268.98 989.11 269.58"/><path class="cls-5" d="M1021.42,249.63l-5.7.18s-2-.66-1.83-1,6.6-1.13,10.38-1.62a26.77931,26.77931,0,0,1,4.12,0,.34268.34268,0,0,1,.32.36c.02991.36-2.74,1-5,1.3S1021.42,249.63,1021.42,249.63Z"/><path class="cls-5" d="M1004.22,283.41c-.45-.31-.35-.67.67-.91s4.87-.9,5.65-.62c.24.08-1.43.83-1.23.92,1.26.51,5.55.4,6.58.93.18.09.3.19.28.28-.23,1,1.49.79.73,1.4-.26.21.22.43,0,.64a5.21062,5.21062,0,0,1-1.78.73l-2.78.84a3.12884,3.12884,0,0,1-.63.14,5.55945,5.55945,0,0,1-2-.22c-1.26-.39-2-.86-3.4-1.23a18.54975,18.54975,0,0,0-5.87-.42,12.8997,12.8997,0,0,1-2.27.17c-.61,0-.94-.19-.89-.33s.4-.26.78-.37c1.22-.36,2.83-.65,4.2-1"/><path class="cls-5" d="M1011.75,281.09s15.52-4.65,17.41-5,19.64-1.41,19.64-1.41l-.57-1.39s-16.31994.19-23,1.15-29.88,6.11-27.08,7.22,13.34-.58,13.34-.58Z"/><path class="cls-5" d="M1008.33,281.61s-.12.82.41,1.06-8.45.67-10,.27-.56-.8-.56-.8Z"/><path class="cls-5" d="M1058.21,274.78a7.79923,7.79923,0,0,1,2.71.48c.16.1-.31994.18-.75.14a25.10582,25.10582,0,0,1-3.41-.22,55.59806,55.59806,0,0,0-6.55005-.7l-.12-.87a51.71063,51.71063,0,0,1,6.25-.62c2.37,0,8.26-.28,11.28.72.32.11.16.25-.37.3-1.57.17-4.85.51-7,.57-1.06006,0-1.71.06-2.11.09S1057.93005,274.77,1058.21,274.78Z"/><polygon class="cls-5" points="1048.8 274.73 1050.6 274.54 1050.21 273.52 1048.23 273.33 1048.8 274.73"/></g><path class="cls-11" d="M1023.88,104.12s9.19,22.67,10.56995,24.36,16.1,10.09,16.1,10.09l-1.9,5.68s-14.35-4.32-19.38-9.72-20.52-31.87-16.92-35.86,11.32,5.27,11.32,5.27Z"/><path class="cls-12" d="M1059,140.35a3.31,3.31,0,0,0,2.91-1.42.49.49,0,0,0-.54-.73c-.7.17-1.62-.64-3.26.2a14.67019,14.67019,0,0,1-6.54,1.52l-1,3.6s2.74,3.32,5,3.93,7.09,2.93,10.79-.58a.91.91,0,0,0,.05419-1.2858q-.026-.02822-.05419-.0542a24.09143,24.09143,0,0,0-5.64-3.85,9.47206,9.47206,0,0,1-1.80005-.85.27.27,0,0,1,.08008-.48Z"/><polygon class="cls-13" points="1050.54 138.57 1051.97 139.74 1050.6 143.89 1048.64 144.25 1050.54 138.57"/><path class="cls-14" d="M1114.67,105s-6,18.13-8,23.32c-2.62,6.76-10.25,14.56-11.55,14.51-3.14-.14-5,0-4.75,1.23.22,1,4,1.11,4,1.11a16.63021,16.63021,0,0,0-3.1,9.42,5.55013,5.55013,0,0,0,4.14,1.93c1.34,0,2.64-.91,3.45-3.56,2.93005-9.58,9.14-12.67,13.46-19.36,2.87-4.45,10.13-24.62,10.13-24.62Z"/><polygon class="cls-15" points="1118.31 92.69 1111.42 110.98 1119.62 114.94 1118.31 92.69"/><path class="cls-16" d="M1117.71,110.49a20.38059,20.38059,0,0,1-3.71.56c-1.61,0-4.85-1.74-4.85-1.74l.14,3s-.9,2.12.12,2.26,8.5,1.91,8.5,1.91,3.12-5.31,2.25-5.46a1.54009,1.54009,0,0,0-1.31005.27Z"/><polygon class="cls-14" points="1141.8 242.23 1141.18 249.06 1135.13 249.06 1135.55 241.05 1141.8 242.23"/><path class="cls-17" d="M1131.89,251.88l2.95-4.58h7.68s.56006,3.38-.78,5.67-4.58,2.21-4.58,2.21Z"/><path class="cls-18" d="M1137.16,255.18s-.14-4.42-5.27-4.42-4.29,4.42-4.29,4.42Z"/><polygon class="cls-14" points="1115.58 242.23 1114.94 249.06 1108.89 249.06 1109.31 241.05 1115.58 242.23"/><path class="cls-17" d="M1105.65,251.88l3-4.58h7.67s.56006,3.38-.78,5.67-4.57,2.21-4.57,2.21Z"/><path class="cls-18" d="M1110.93005,255.18s-.15-4.42-5.28-4.42-4.29,4.42-4.29,4.42Z"/><path class="cls-19" d="M1106.71,182.6c.75-9.38,9.76-43.09,9.76-43.09l12-.88s.11.75.27,2c3.80005-2.63,13.27-8,17.07.26,4.8,10.51-3.86,41.85-1,54.61s-.85,44.67-1.6,47-8.16.84-8.16.84-4.12-32.09-4.86-44.48c-.34-5.61-1.63-29.4-1.66-29.32-2.92,11.12-8.58,25.94-8.58,25.94,2.25,10-3.56995,38.48-2.25,45.8s-9.18994,2.54-9.18994,2.54S1106,192,1106.71,182.6Z"/><path class="cls-20" d="M1131.08,139.17h7.42s.06006.84.14,2.29a32.19357,32.19357,0,0,1,5.68995-2.72C1140.80005,134.7,1135,136.94,1131.08,139.17Z"/><path class="cls-21" d="M1108.41,243.87h.11c.43994-17.15,1.42-50.06,2.54-57.65,1.54-10.35,14.11-47.07,14.11-47.07h3.33a5.15694,5.15694,0,0,1-.07-.54l-12,.88s-9,33.7-9.76,43.08S1108.41,243.87,1108.41,243.87Z"/><path class="cls-22" d="M1128.68994,140.68a25.08459,25.08459,0,0,1,2.4-1.5h-2.58C1128.56006,139.53,1128.61,140,1128.68994,140.68Z"/><path class="cls-23" d="M1147.15,150.79s-.68,1.37-1.28,2.67-7.49,4-9.33,3-1.18994-3.79-1.18994-3.79Z"/><path class="cls-24" d="M1142.71,90.23s-5.24,9.38,1.65,30.07,1.93994,30.4,1.93994,30.4a51.79,51.79,0,0,1-31,0s-1.53-35.41-1.53-45.59,3.85-14.85,11.17-14.88C1136.23,90.21,1142.71,90.23,1142.71,90.23Z"/><path class="cls-25" d="M1124.5,91h.81006s-3,8.84-3.76,12S1125,144.52,1125,144.52h-3.6s-4.78-30-4.42-36S1124.5,91,1124.5,91Z"/><path class="cls-14" d="M1126.85,90.41l.46-4.27,5.93994-1.34.6,5.61S1128.9,92.36,1126.85,90.41Z"/><path class="cls-23" d="M1118.82,150.79l1.05,1.53,1,.16s.93005,4-1,3.45a50.46864,50.46864,0,0,1-6.59-2.91Z"/><path class="cls-26" d="M1142.71,92.07l.39-2.2s-7.77-.53-8.16-.74-3,1.86-3,11.14,5.13,50.77,4.59,54.32,10.62-2.37,10.62-2.37,4.25-13.29,0-25.88S1142.71,92.07,1142.71,92.07Z"/><path class="cls-27" d="M1133.68005,88.31s2.35-.33,2.11.9a16.47228,16.47228,0,0,1-1.55005,3.48l-2.32-1.51Z"/><path class="cls-26" d="M1125.11,89s-6.29-.26-8.8,3.09c-1.83,2.44-3.49,6.53-3.22,16.78.85,33-2.14,41.87,2.56005,43.73,1.46.58,5.87,2.27,5.87,2.27s-2.87-35.32-2-46.24C1120,103.68,1125.11,89,1125.11,89Z"/><path class="cls-27" d="M1127.06006,88.14s-2.92-.17-2.67,1.06a16.33354,16.33354,0,0,0,1.55,3.48l2.32-1.51Z"/><path class="cls-27" d="M1132.53,90.74s-2,1.17-3,1c0,0-1.81006,8.35-2,11.16a10.2916,10.2916,0,0,0,0,3.31H1127a19.32655,19.32655,0,0,1,0-5.2c.39-3,1.9-9.33,1.9-9.33l-1.55-.67.25-.28a4.85,4.85,0,0,0,4.33-.14C1133.92,89.33,1132.53,90.74,1132.53,90.74Z"/><path class="cls-28" d="M1132.28,85.68l1.08.21s-5.93995,3.08-6.29,3.78l.18-3Z"/><path class="cls-14" d="M1125,88.45c2.88-.63,5.47-2,8.36-2.56a4.73,4.73,0,0,1,1.49-2.59,10.348,10.348,0,0,1,1.21-1c1.37-1.24,3.14-2.38,3.19995-4,.22-4.14-3.31006-.5-5-.73a2.42988,2.42988,0,0,1-1.93994-1.19c-.6-.81-.6-2-1-2.92-1-2.5-2.43006-3.29-4.84-4-1.08-.35-2.9-1.11-4-1-4.1.46-2.79,3.23-3.16,5.52s-1.4,4.28-1.79,6.52C1116.67,85.65,1118.91,89.74,1125,88.45Z"/><path class="cls-29" d="M1118.79,72.42a2.84,2.84,0,0,1,2.44995-2.84c2.35-.52,6.13,1.14,8.06006,2.49,1.27.88,1,1.7,1.68,3s.72,2.66,3.71,2.83c.53,0,1.5-.85,2-1,1.52-.47,1.64-.88,2.06006,1,.48,2.17-1.75,3.37-1.56006,3.54,4.28-3.26,2.93994-6.66,1.06006-10.7-2.1-4.5-1.74-3.49-5.56994-4.39a12.1201,12.1201,0,0,1-2.17005-.75c-2.06994-.91-4-3-6.26-3.33-3.11-.47-2,.45-2.81006,2.16C1120.17,67.32,1115.63,69.32,1118.79,72.42Z"/><path class="cls-14" d="M1148.72,95.31s-4.63-6-5.95,0,5.95,30.06,5.95,30.06l1.83,27.3,4.12-.06s1.14-22.67.78-28.36S1148.72,95.31,1148.72,95.31Z"/><path class="cls-14" d="M1154.83,151.52s-.49,2.45,0,2.95,2,5.41.56005,7.56-6.36.45-6.16-.76a19.08914,19.08914,0,0,0,0-3.5,1.6702,1.6702,0,0,0-.65,0c-.55005.05.05-1.6.43-2.35s1.75-1.87,1.58-3.56S1154.83,151.52,1154.83,151.52Z"/><path class="cls-15" d="M1146.45,120.75,1156,119.88s-4.56006-25.87-7.64-27.76a20.05989,20.05989,0,0,0-6.28-2.44S1141.72,112.6,1146.45,120.75Z"/><path class="cls-30" d="M1171.31006,212.9h-9.79v-.39c0-3.94-5-7.13-11.15-7.13s-11.14,3.19-11.14,7.13a3.84921,3.84921,0,0,0,0,.39h-12.46a6.2,6.2,0,0,0-6.21,6.19v30.23a6.21,6.21,0,0,0,6.21,6.21h44.48a6.21,6.21,0,0,0,6.21-6.21V219.11A6.21,6.21,0,0,0,1171.31006,212.9Zm-29.57-.39c0-3.07,3.87-5.55,8.66-5.55s8.66,2.48,8.66,5.55a2.88726,2.88726,0,0,1,0,.39h-17.26a3.84,3.84,0,0,1-.06018-.38Z"/><polygon class="cls-26" points="1120.61 222.84 1133.96 222.84 1133.96 218.08 1137.89 218.08 1137.89 222.84 1160.24 222.84 1160.24 218.08 1164.17 218.08 1164.17 222.84 1177.52 222.84 1177.52 224.9 1164.17 224.9 1164.17 229.53 1160.24 229.53 1160.24 224.9 1137.89 224.9 1137.89 229.53 1133.96 229.53 1133.96 224.9 1120.61 224.9 1120.61 222.84"/><path class="cls-31" d="M1073.08,119c1.1.52,2.06005.89,2.68994,1.15a2.11,2.11,0,0,0,.66.14c1.93006.11,1.37-3.24,1.37-3.24l-1.26-1.28c-.73-.73-1.64-1.69-2.59-2.66-1.54-1.55-3-3.15-3.52-3.73s0-3.14.77-5.28h0c-.30005,0-4-1.57-5.25-2.1-1.08,3.37-2.14,7.39-1.93994,9.39C1064.25,114.3,1069.43994,117.3,1073.08,119Z"/><path class="cls-32" d="M1083.08,117.16a2.60992,2.60992,0,0,0,2.28-1.16.38.38,0,0,0-.43006-.57c-.55005.13-1.29-.48-2.58.19a11.65973,11.65973,0,0,1-5.18006,1.27l-.74,2.87s2.19995,2.61,4,3.07,5.65,2.25,8.55005-.57a.71.71,0,0,0,.05762-1.00244A.73286.73286,0,0,0,1088.98,121.2a19.0004,19.0004,0,0,0-4.52-3,7.81894,7.81894,0,0,1-1.43-.66.22.22,0,0,1,.05005-.38Z"/><polygon class="cls-3" points="1091.13 112.63 1073.38 123.21 1080.95 135.93 1099.77 124.71 1094.56 115.95 1091.13 112.63"/><polygon class="cls-3" points="1091.13 112.63 1091.03 112.69 1090.76 115.01 1094.73 116.25 1094.56 115.95 1091.13 112.63"/><path class="cls-33" d="M1091.16,112.85l-.23,2.05,3.45,1.08Z"/><path class="cls-34" d="M1095.72,121.45l1.61,2.69a.12.12,0,0,0,.16967.00034L1097.5,124.14h0a.12987.12987,0,0,0,0-.17l-1.61-2.69a.13.13,0,0,0-.17,0h0A.12987.12987,0,0,0,1095.72,121.45Z"/><path class="cls-34" d="M1095.08,121.83l1.62,2.69a.12.12,0,0,0,.16,0h0a.11987.11987,0,0,0,.00024-.1697L1096.86,124.35l-1.6-2.69a.11.11,0,0,0-.15479-.01522l-.01525.01522h0A.13.13,0,0,0,1095.08,121.83Z"/><path class="cls-34" d="M1094.45,122.21l1.6,2.69a.12.12,0,0,0,.16967.00034L1096.22,124.9h0a.11987.11987,0,0,0,.00024-.16971L1096.22,124.73l-1.6-2.7a.13.13,0,0,0-.17,0h0a.12.12,0,0,0-.01062.16937Z"/><path class="cls-34" d="M1077.73,123.22l1.61,2.69a.11994.11994,0,0,0,.16967.00034l.00037-.00034h0a.10994.10994,0,0,0,.01514-.15482L1079.51,125.74l-1.61-2.69a.13.13,0,0,0-.17,0h0A.15018.15018,0,0,0,1077.73,123.22Z"/><path class="cls-34" d="M1077.09,123.6l1.61,2.69a.12.12,0,0,0,.16968.00034l.00037-.00034h0a.11988.11988,0,0,0,.00024-.16971L1078.87,126.12l-1.6-2.69a.12.12,0,0,0-.16968-.00034L1077.1,123.43h0A.13.13,0,0,0,1077.09,123.6Z"/><path class="cls-34" d="M1076.46,124l1.6,2.69a.12.12,0,0,0,.16967.00034l.00037-.00034h0a.12987.12987,0,0,0,0-.17l-1.61-2.69a.12.12,0,0,0-.16968-.00033l-.00037.00033h0a.12.12,0,0,0,.0094.16945Z"/><path class="cls-34" d="M1088.92,116.56l5.53,9.29a.14.14,0,0,0,.18006,0h0a.14.14,0,0,0,0-.17l-5.54-9.29a.12.12,0,0,0-.16968-.00034l-.00037.00034h0A.12989.12989,0,0,0,1088.92,116.56Z"/><path class="cls-34" d="M1088.29,116.94l5.54,9.29a.12.12,0,0,0,.16968.00034l.00036-.00034h0a.13.13,0,0,0,.05005-.17l-5.55005-9.29a.12.12,0,0,0-.16968-.00033l-.00036.00033h0A.13006.13006,0,0,0,1088.29,116.94Z"/><path class="cls-34" d="M1087.65,117.31l5.54,9.29a.13.13,0,0,0,.17005,0h0a.11988.11988,0,0,0,.00024-.16971l-.00024-.00029-5.53-9.29a.13.13,0,0,0-.17,0h0A.13993.13993,0,0,0,1087.65,117.31Z"/><path class="cls-34" d="M1086.37,118.08l5.54,9.29a.12.12,0,0,0,.16968.00034l.00037-.00034h0a.11987.11987,0,0,0,.00024-.16971l-.00024-.00029-5.53-9.29a.13.13,0,0,0-.17,0h0A.13992.13992,0,0,0,1086.37,118.08Z"/><path class="cls-34" d="M1085.73,118.46l5.53,9.29a.12.12,0,0,0,.16968.00034l.00036-.00034h0a.11988.11988,0,0,0,.00025-.16971l-.00025-.00029-5.54-9.29a.12.12,0,0,0-.16,0h0A.14.14,0,0,0,1085.73,118.46Z"/><path class="cls-34" d="M1085.09,118.83l5.54,9.3a.11.11,0,0,0,.15552.00454l.00452-.00454h0a.11985.11985,0,0,0,.00024-.1697L1090.79,127.96l-5.53-9.3a.12.12,0,0,0-.16968-.00033l-.00036.00033h0a.11988.11988,0,0,0-.00025.16971Z"/><path class="cls-34" d="M1083.81006,119.6l5.54,9.29a.13.13,0,0,0,.17,0h0a.11988.11988,0,0,0,.00025-.16971l-.00025-.00029-5.53-9.29a.11.11,0,0,0-.15552-.00454l-.00451.00454h0a.12009.12009,0,0,0-.02136.16837Z"/><path class="cls-34" d="M1083.17,120l5.53,9.29a.15.15,0,0,0,.18006,0h0a.12988.12988,0,0,0,0-.17l-5.53-9.29a.12.12,0,0,0-.16968-.00033l-.00037.00033h0a.12.12,0,0,0-.01062.16938Z"/><path class="cls-34" d="M1082.54,120.37l5.53,9.29a.14.14,0,0,0,.17,0h0a.14.14,0,0,0,0-.17l-5.54-9.29a.13.13,0,0,0-.17,0h0A.13.13,0,0,0,1082.54,120.37Z"/><path class="cls-34" d="M1081.25,121.13l5.53,9.28a.13.13,0,0,0,.17,0h0a.12986.12986,0,0,0,0-.17l-5.54-9.29a.13.13,0,0,0-.17,0h0A.14.14,0,0,0,1081.25,121.13Z"/><path class="cls-34" d="M1080.61,121.5l5.54,9.29a.12.12,0,0,0,.16968.00034l.00037-.00034h0a.10992.10992,0,0,0,.01514-.15481l-.01514-.01518-5.52-9.29a.13.13,0,0,0-.17,0h0a.1201.1201,0,0,0-.02136.16836Z"/><path class="cls-34" d="M1080,121.89l5.54,9.29a.11.11,0,0,0,.15552.00453l.00451-.00453h0a.11988.11988,0,0,0,.00025-.16971l-.00025-.00029-5.54-9.29a.11.11,0,0,0-.15551-.00454L1080,121.72h0a.11987.11987,0,0,0-.00024.16971Z"/><path class="cls-34" d="M1079.41,124.88a1.54639,1.54639,0,1,0,.0011-.00067Z"/><polygon class="cls-31" points="1063.31 200.46 1063.88 206.53 1069.26 206.53 1068.89 199.4 1063.31 200.46"/><path class="cls-17" d="M1072.29,209l-2.63-4.07h-6.81994a8.76955,8.76955,0,0,0,.68994,5c1.2,2,4.08,2,4.08,2Z"/><path class="cls-18" d="M1067.59,212s.12-3.94,4.68994-3.94,3.81994,3.94,3.81994,3.94Z"/><polygon class="cls-31" points="1036.29 200.46 1036.85 206.53 1042.23 206.53 1041.85 199.4 1036.29 200.46"/><path class="cls-17" d="M1045.26,209l-2.62-4.07h-6.81994a8.77983,8.77983,0,0,0,.68,5c1.18994,2,4.07,2,4.07,2Z"/><path class="cls-18" d="M1040.57,212s.12-3.94,4.68994-3.94,3.81994,3.94,3.81994,3.94Z"/><path class="cls-35" d="M1067.93005,133.17l1.47,68.63s-4.19995,2.79-6.68,1.17-6.62-51.38-6.62-51.38l-12.82,49.91s-4.76,4.38-7.24,1.14c-1.25-1.63,1.76-22.72,3.19995-41.24,1.41-18.13,1.16-33.68,7.69995-37.87C1051.82,120.4,1067.93005,133.17,1067.93005,133.17Z"/><path class="cls-31" d="M1076,84.1l.11-3.81-5.59-1.68-1.6,3.82S1068.86,86.28,1076,84.1Z"/><path class="cls-36" d="M1078,106.23c-.78,4-3.24,15.58-5.93994,23.08-1.12,3.14-2.31006,5.57-3.39,6.41s-3,1-5.31994.72c-5.72-.72-16.24-5.94-19.18994-9.8-4-5.1,15.18005-45.79,15.08-46.66,3.55005-1.4,7.22-1.83,10.19995-.31,0,0,1.12,3,3.39,3.45a4,4,0,0,0,3.17-.87.62982.62982,0,0,0,.25-.19s3.48,5.35,3.92005,7.56C1081.06006,93.79,1079.1,100.63,1078,106.23Z"/><path class="cls-37" d="M1074,104.55c-.12,4.23-.62,15.55-1.9,24.76-1.12,3.14-2.31006,5.57-3.39,6.41s-3,1-5.31995.72c-5.72-.72-16.24-5.94-19.18994-9.8-4-5.1,15.18006-45.79,15.08-46.66,3.55005-1.4,7.22-1.83,10.2-.31,0,0,1.12,3,3.39,3.45a5.75812,5.75812,0,0,1,.43994.87C1075.18005,88.88,1074.18005,97.55,1074,104.55Z"/><path class="cls-35" d="M1076.08,81.3v.6s-2.09.76-3.2.14a28.40422,28.40422,0,0,1-2.91-2.07l.41-1Z"/><path class="cls-38" d="M1079.86,67s2.39,2.45,4.29,1.68,3.25-4,3.25-4a3.69008,3.69008,0,0,1-2,.28s.82.4,1.47-1.31-2.5,1.29-3.85,1.23c0,0,2-.89,2.08-1.91s-1.41.52-2.16.3-1.56994-1.55-4.68-1.91-6,3.62-7.5,1.75-1.64,2.68-1.89,4.25-2.48,9.11.79,8.47,5.92-6.42,5.92-6.42Z"/><path class="cls-31" d="M1075,81.75s3.77,1.31,5.5-3.87,3.91-7.48,3.59-9.76-3-3.16-6.83-2.63-6.12,1.72-6,3.61c0,0-4,.71-1.23,3.79,0,0-1.62,6.3,1.14,7.75S1075,81.75,1075,81.75Z"/><path class="cls-38" d="M1084.77,67s-.73,1.75-3.14.67A9.29008,9.29008,0,0,0,1077,66.4c-2.61-.29-3.55005,3-4.36,5.06s.36-2.26-1.36-2.88.08-2.34.08-2.34L1076,64A10.49,10.49,0,0,1,1084.77,67Z"/><path class="cls-39" d="M1060.5,84.92l-.09-3.23s11.63,10.87,12.06006,14,6.16,7.3,6.16,7.3l-13.74-5Z"/><path class="cls-31" d="M1066.09,93.73s12.36,9.23,16.08,11.74c4.86,3.27,13.51,4.92,14.34,4.29,2-1.54,3.33-2.29,3.71-1.37s-2.14,2.59-2.14,2.59a13.38969,13.38969,0,0,1,6.39,4.81,4.47987,4.47987,0,0,1-1.85,3.19c-.9.6-2.16.61-3.92-.77-6.36-5-11.9-4.18-17.84-6.63-4-1.63-18.06006-11.64-18.06006-11.64Z"/><path class="cls-40" d="M1059.25,80s8.11,11.81,9.62,14.74c1.34,2.59-.76,6.72-3.31006,8.14-2,1.11-10.5-7.1-10.5-7.1s-5.43994-2.89-2.48-9.43C1055.88,79.05,1059.25,80,1059.25,80Z"/><path class="cls-41" d="M1018,96a2.61011,2.61011,0,0,1,.53-2.92c1.33-1.25-.44-4-5-2.73s-3.41,2.67-3.41,2.67S1016.17,96.69,1018,96Z"/><path class="cls-42" d="M1020.91,75.17,1008.84,81c-1.32.64-2.85,1.6-2.78,3.06a5.77969,5.77969,0,0,0,1.14,2.38,5.88994,5.88994,0,0,1,.05,5.76c-1,1.7-2.69,2.8-3.84,4.38-2.28,3.12-1.87,7.37-1.48,11.21q.81,7.845,1,15.73c.09,3.94-.26,8.54-3.52,10.75-3.46,2.34-8.53.38-10.81-3.13s-2.4-8-2.07-12.13c.21-2.66.57-5.42-.4-7.91s-3.23-4.54-3.45-7.22c-.24-2.89,2-5.32,3.83-7.52a44.91923,44.91923,0,0,0,7.17-11.25c1.77-4.11-.26-10.67,1.45-14.81a20.08018,20.08018,0,0,1,8.55-10.08c3.94-2.13,12.15.12,15,3.58,2.44,3,2.37,7.19,2.18,11"/><path class="cls-31" d="M986.15,234.64,983.36,239c-.68,1.06-1.56,2.25-2.83,2.3a3.25,3.25,0,0,0-1.09.07c-.78.3-.76,1.38-.6,2.19.79,4.15,1.73,8.59,4.77,11.53a2.29,2.29,0,0,0,1.95.84c.71-.16,1.07-1.33.39-1.61a.65.65,0,0,1,.82.13c.75-.46.69-1.56.45-2.4-.46-1.55-1.25-3-1.74-4.53a5.94016,5.94016,0,0,1,.18-4.7c.66-1.14,1.83-1.86,2.7-2.84s1.42-2.52.62-3.55-2.33-.89-3.59-.67"/><path class="cls-17" d="M985.58,243.88l-2.71-4.16s-4.79,1.83-5.62,3.39c-.59,1.11,3.26,8.56,5.23,12.49.81,1.62,7.44.89,7.44.89s.2.22,1.18-1.24-4.32-2.39-4.92-6.43C985.81,246.25,985.58,243.88,985.58,243.88Z"/><path class="cls-31" d="M1019.6,239.33v5.17c0,1.26-.11,2.73-1.14,3.45a3.45935,3.45935,0,0,0-.9.65c-.49.67.11,1.57.69,2.17,2.91,3.08,6.09,6.31,10.23,7.15a2.28,2.28,0,0,0,2.08-.34c.52-.52.18-1.69-.55005-1.57a.67.67,0,0,1,.76-.34c.38-.79-.26-1.69-.92-2.27-1.21-1.06-2.66-1.84-3.89-2.87a5.94,5.94,0,0,1-2.39-4.06c-.06-1.31.53-2.55.74-3.84s-.15-2.9-1.38-3.33-2.44.5-3.39,1.37"/><path class="cls-43" d="M1005.57,101.58c.07,4.23.36,8.51-1,12.57-1.07,3.17-3.52,5.92-5.3,8.89a23.34991,23.34991,0,0,0-3.33,14.11,6.22981,6.22981,0,0,0,.93,3.08,9.50988,9.50988,0,0,0,4.33,2.82,52.65007,52.65007,0,0,0,24.74994,3.27,4.77014,4.77014,0,0,0,2.48-.76,2.74,2.74,0,0,0,.67-2.62,31.8582,31.8582,0,0,0-3.33-10.66c-1.24-2.42-2.82-4.77-3.5-7.33a7.09,7.09,0,0,1,1.95-7.39c.65-.56,1.43-1,2.06006-1.58a5.71989,5.71989,0,0,0,1.36-6.21,19.10009,19.10009,0,0,0-3.81-5.8c-3.15-3.73-7.1-5.38-10.25-9.12C1013.58,94.85,1005.37,90.07,1005.57,101.58Z"/><path class="cls-44" d="M1017.76,152.76c-.82,10.54-5.25,20.4-7.32,30.76-.91,4.6-1.36,9.29-2.27,13.88-2.08,10.48-6.51,20.29-10.92,30-1.86,4.1-3.81,8.33-7.13,11.32-1.27,1.16-3.32,2.07-4.57.89a3.44017,3.44017,0,0,1-.73-2.83c.41-4.29,3.41-7.76,5.19-11.67,2.43-5.3,2.54-11.34,2.67-17.19q.52-23.87,2-47.71c.3-4.84.68-9.83,2.86-14.14s6.66-7.8,11.38-7.23c2.7.33,5.08,1.9,7.62,2.89,4.55,1.79,7.9,2.38,12.38995.46,1.21,17,1.77,33.33.44995,50.28q-.44988,5.84-.91,11.67-1.2799,16.56-2.58,33.12c-.22,2.85-1.19995,6.5-4,6.64-2.61.12-4-3.05-4.52-5.67-2.1-11.21-.57-22.74.11-34.13s.37-23.36-5-33.39"/><path class="cls-45" d="M1002.19,94.21a3.00011,3.00011,0,0,1-1.56-.31,2.47547,2.47547,0,0,0-.24.17,6,6,0,0,0-1.88,2.14,7.30985,7.30985,0,0,0-.26,3.73q.66989,6.32.83,12.66a53.83844,53.83844,0,0,1-.69,11.67,64.76383,64.76383,0,0,1-2.57,8.72c-3.33,9.62-6.81,19.51-13.53,27.17-1.3,1.49-2.81,3.44-1.91,5.2.61,1.19,2.07,1.61,3.36,1.92,5.34,1.26,11.52,2.36,15.83-1,3.5-2.73,4.55-7.55,4.67-12s-.43-9,.81-13.23c.68-2.35,1.9-4.51,2.64-6.84a38.54417,38.54417,0,0,0,1.28-6.94c1-8.21,2.82-12.36,4.57-20.44.25-1.16-2-6.91-1.28-7.86a3.55078,3.55078,0,0,1,.43-.5C1009.2,95.4,1006.89,94,1002.19,94.21Z"/><polygon class="cls-44" points="992.15 153.48 990.51 155.99 1001.08 159.14 1001.83 156.3 992.15 153.48"/><path class="cls-17" d="M1024.46,246.64l-5.7-.84s-2,3.08-1.83,4.84c.09,1.25,6.6,5.3,10.38,7.55,1.55.92,4.12,0,4.12,0s.29.08.32-1.68-2.74-4.78-5-6.08A4.85014,4.85014,0,0,1,1024.46,246.64Z"/><path class="cls-12" d="M1007.26,88.94a4.35994,4.35994,0,0,0,.67,4.23c1,1.1,4.87,4.19,5.65,2.91.24-.38-1.43-3.87-1.23-4.27,1.26-2.4,5.55-1.85,6.58-4.36a2.9995,2.9995,0,0,0,.28-1.32c-.23-4.57,1.49-3.67.73-6.53-.26-1,.22-2,0-3a9.25023,9.25023,0,0,0-1.78-3.42l-2.78-3.92a1.86047,1.86047,0,0,0-.63-.64c-.74-.37-1.57.34-2,1-1.26,1.84-2,4-3.4,5.73s-3.88,3-5.87,2c-.74-.37-1.49-1-2.27-.79a1.47006,1.47006,0,0,0-.89,1.53,3.51007,3.51007,0,0,0,.78,1.73c1.22,1.68,2.83,3,4.2,4.59"/><path class="cls-46" d="M1014.79,99.76s15.52,21.69,17.41,23.12,19.64,6.59,19.64,6.59l-.57,6.5s-16.31995-.91-23-5.36-29.88-28.54-27.08-33.69,13.34,2.69,13.34,2.69Z"/><path class="cls-47" d="M1011.37,97.33s-.12-3.84.41-5-8.45-3.13-10-1.24a3.46008,3.46008,0,0,0-.56,3.72Z"/><path class="cls-12" d="M1061.25,129.19A3.61,3.61,0,0,0,1064,127a.53.53,0,0,0-.75-.64c-.69995.35-1.89-.26-3.41,1a15.9998,15.9998,0,0,1-6.55005,3.28l-.12,4.07s3.75,2.83,6.25,2.9,8.26,1.3,11.28-3.37a1.00008,1.00008,0,0,0-.316-1.37847c-.01758-.01106-.03564-.02159-.05395-.03154-1.57-.81-4.85-2.38-7-2.65a10.45945,10.45945,0,0,1-2.11-.43.3.3,0,0,1,.03-.56Z"/><polygon class="cls-13" points="1051.84 129.47 1053.64 130.35 1053.25 135.09 1051.27 135.97 1051.84 129.47"/><path class="cls-48" d="M209.73,247s40-61.32,37.17-104.05a7.47,7.47,0,0,0-7.89582-7.01839q-.12223.00718-.24418.01839c-11.62,1.07-30.86.31-3.1-22.14a7.41,7.41,0,0,0,2.35-8.13c-1-3.07-2.49-7.11-4.13-10.83A7.43,7.43,0,0,0,224.47,91c-11.26,4.21-32.43,9.88-12.9-16.06a7.47,7.47,0,0,0-.37-9.46c-4.66-5.25-14-13.83-30.51-22A111.59962,111.59962,0,0,0,161.2,75.65a8.67,8.67,0,0,0,3.6,10.44c9.17,5.65,23,16.83-5.34,19.89a8.68,8.68,0,0,0-7.59,7,79.54024,79.54024,0,0,0-1.52,14.2,8.67,8.67,0,0,0,5.49,8.09c10.28,4.12,30.16,14.07,5.35,21.67a8.66,8.66,0,0,0-5.85,10.29C159.49,184.76,172.81,225.61,209.73,247Z"/><path class="cls-3" d="M209.82,247.42l-.24-.14c-37.23-21.6-50.54-63.16-54.54-80a9,9,0,0,1,6-10.63c7.66-2.35,11.62-5.09,11.74-8.15.22-5.24-10.63-10.38-17.12-13a9,9,0,0,1-5.67-8.36,78.69066,78.69066,0,0,1,1.53-14.26,8.92,8.92,0,0,1,7.84-7.19c10.23-1.1,15.8-3.35,16.55-6.67s-3.29-7.73-11.33-12.68a9,9,0,0,1-3.71-10.79A112.88983,112.88983,0,0,1,180.48,43.3l.15-.16.19.1c16.22,8,25.6,16.41,30.6,22.05a7.79,7.79,0,0,1,.38,9.82c-6.79,9-9.22,14.93-7.24,17.59,2.75,3.69,13.59.34,19.81-2a7.73,7.73,0,0,1,9.79,4.09c1.69,3.84,3.18,8,4.13,10.85a7.73,7.73,0,0,1-2.44,8.45c-10.68,8.64-15.37,14.82-13.93,18.36,1.22,3,7.19,4.16,16.82,3.27a7.76,7.76,0,0,1,8.44342,7.01027q.0097.10473.01659.20973C250,185.3,210.37,246.58,210,247.19ZM180.76,43.85a112.5,112.5,0,0,0-19.29,31.9,8.39,8.39,0,0,0,3.48,10.09c5.85,3.6,12.6,8.83,11.59,13.3-.81,3.59-6.55,6-17.05,7.12a8.34,8.34,0,0,0-7.34,6.72,78.13014,78.13014,0,0,0-1.52,14.15,8.43,8.43,0,0,0,5.3,7.82c6.63,2.66,17.72,7.95,17.48,13.54-.14,3.33-4.23,6.25-12.15,8.68a8.38,8.38,0,0,0-5.65,9.95c4,16.76,17.17,58,54,79.52,2.68-4.18,39.69-62.81,37-103.64a7.18,7.18,0,0,0-7.62447-6.70615q-.10287.00659-.20553.01614c-7,.65-15.71.54-17.41-3.63-1.55-3.81,3.2-10.21,14.1-19a7.14,7.14,0,0,0,2.26-7.81c-1-2.82-2.44-7-4.12-10.81a7.15,7.15,0,0,0-9.06-3.78c-7.78,2.91-17.64,5.57-20.47,1.78-2.19-2.93.18-8.91,7.24-18.28a7.21,7.21,0,0,0-.35-9.09C206,60.09,196.78,51.79,180.76,43.85Z"/><path class="cls-3" d="M209.8,243.39h-.58C213.65,159.25,181.29,50.78,181,49.7l.55-.17C181.84,50.62,214.24,159.17,209.8,243.39Z"/><path class="cls-3" d="M307,63.8c20.48,164.2-44.16,196.92-86.53,201.37a49.79,49.79,0,0,1-51.3-31C153.35,194.64,152.21,122.18,307,63.8Z"/><path class="cls-49" d="M215.33,265.73a50.18,50.18,0,0,1-46.43-31.42c-6.53-16.35-11.73-41.7.59-69.68C186.76,125.42,233,91.41,306.9,63.53l.34-.13v.36c9.78,78.39,1.23,135.14-25.42,168.7-19,23.94-43.87,31.16-61.38,33A49.67737,49.67737,0,0,1,215.33,265.73ZM306.76,64.2C233.2,92,187.2,125.86,170,164.86c-12.25,27.8-7.08,53-.58,69.24a49.6,49.6,0,0,0,45.9,31.05,48.85546,48.85546,0,0,0,5.11-.27c17.4-1.82,42.1-9,61-32.78C307.92,198.73,316.45,142.24,306.76,64.2Z"/><path class="cls-3" d="M307,63.8,189.65,258.24Z"/><rect class="cls-49" x="134.77926" y="160.74966" width="227.11" height="0.58" transform="translate(-17.83162 290.49777) rotate(-58.9)"/><path class="cls-3" d="M187.57,137l19.75,92Z"/><rect class="cls-49" x="197.14961" y="135.95669" width="0.58" height="94.06" transform="translate(-34.01893 45.53317) rotate(-12.12)"/><path class="cls-3" d="M211.36,222.27l88.32-23.48Z"/><rect class="cls-49" x="211.14826" y="210.31639" width="91.77759" height="0.58246" transform="translate(-45.76269 73.72836) rotate(-15.00492)"/><path class="cls-3" d="M222,106.59l16.94,70Z"/><rect class="cls-49" x="230.18382" y="105.56213" width="0.58" height="72" transform="translate(-26.83951 58.20827) rotate(-13.61)"/><path class="cls-3" d="M245.77,165.25l63-6.4Z"/><rect class="cls-49" x="245.61323" y="161.74852" width="63.31999" height="0.58" transform="translate(-15.00204 28.95174) rotate(-5.82)"/><path class="cls-3" d="M268.55,127.52,264.3,82.08Z"/><rect class="cls-49" x="266.13184" y="81.97255" width="0.57999" height="45.64" transform="translate(-8.61019 25.29754) rotate(-5.35)"/><path class="cls-3" d="M271.33,122.91l39.45-11Z"/><rect class="cls-49" x="270.57858" y="117.1292" width="40.95001" height="0.58" transform="matrix(0.96354, -0.26757, 0.26757, 0.96354, -20.80576, 82.16003)"/><path class="cls-50" d="M199.22,261.66c10.43-1.75,16.94-4.23,25.14-11.41,17.88-15.93,8.39-30.68,2.33-35.09-13.09-9.5,18.56-25,3.12-45.24-12.62-14.94-27.36-6.53-35.36-13.3-12-9.25-1.33-20.44-9-30.7-16.87-20.33-26.9,2.32-39.06-10.1-12.54-12.32-34-22.14-41-13.09-6.87,8.82,8.45,21.92,20.1,32.35,11.45,10.55-7.07,15.35,2.13,33.24,5.55,12.62,25.24,4.49,26.78,17.68.52,8.92-17.8,13.28-17.21,27.29-.26,17.24,32.09,8.19,25,22.13-3.38,6.54-8.05,18.63,11.16,24.63C182.24,263,188.76,263.42,199.22,261.66Z"/><path class="cls-3" d="M188.41,263a46.53037,46.53037,0,0,1-15.15-2.66c-7.17-2.24-11.72-5.57-13.53-9.89-2.25-5.39.18-11.22,2.2-15.14,1-2,1.25-3.62.66-4.87-1.14-2.44-5.37-3.4-9.85-4.42-7.5-1.7-16-3.64-15.86-12.72-.33-7.89,5.23-12.75,10.13-17,3.92-3.43,7.31-6.4,7.09-10.23-.76-6.56-6-7.64-12.15-8.89-5.82-1.19-11.85-2.42-14.6-8.69-4.72-9.18-2.18-15.07-.14-19.8s3.57-8.28-1.92-13.34l-1.38-1.23c-11.37-10.17-25.53-22.82-18.76-31.51a10,10,0,0,1,7.6-3.6c10.3-.68,25.14,8.08,33.88,16.66,5.27,5.38,10.19,4,15.4,2.58,6.64-1.84,14.16-3.92,23.68,7.55,3.49,4.68,3.24,9.56,3,14.27-.29,5.84-.57,11.37,5.92,16.38,3.13,2.65,7.29,2.93,12.1,3.24,7.34.48,15.65,1,23.31,10.1,8.58,11.25,2.77,21.15-1.89,29.1-3.91,6.67-7,11.94-1.29,16.09A21,21,0,0,1,235,230.11c.35,7-3.16,13.9-10.41,20.36C216,258,209,260.3,199.27,261.94h0A65.23134,65.23134,0,0,1,188.41,263ZM113.83,99.49h-1a9.42,9.42,0,0,0-7.18,3.38c-6.44,8.27,7.49,20.72,18.69,30.72l1.38,1.23c5.8,5.34,4.07,9.35,2.07,14-2.1,4.86-4.47,10.37.13,19.32,2.64,6,8.52,7.21,14.19,8.37,6.07,1.24,11.8,2.41,12.61,9.41.24,4.13-3.41,7.33-7.28,10.71-4.8,4.2-10.25,9-9.93,16.6-.13,8.63,8.13,10.51,15.41,12.16,4.82,1.1,9,2,10.25,4.74.67,1.42.45,3.18-.67,5.38-2,3.82-4.34,9.49-2.19,14.66,1.74,4.16,6.17,7.38,13.17,9.56,8.92,2.93,15.42,3.33,25.74,1.59h0c9.88-1.66,16.45-3.87,25-11.34,7.11-6.34,10.55-13,10.21-19.9a20.39,20.39,0,0,0-7.86-14.74c-6.14-4.45-2.77-10.2,1.13-16.85,4.81-8.21,10.27-17.52,1.94-28.45-7.49-8.86-15.67-9.4-22.9-9.88-4.91-.32-9.15-.6-12.42-3.37-6.72-5.19-6.42-11.13-6.14-16.86.23-4.61.47-9.38-2.88-13.88-9.27-11.17-16.29-9.23-23.07-7.35-5.38,1.49-10.46,2.9-16-2.73C136.44,106.42,122.77,99.49,113.83,99.49Z"/><path class="cls-3" d="M198.16,261.8c-2.42-66.2-36.3-124.09-92.94-158.83l.3-.49c56.81,34.84,90.78,92.9,93.21,159.3Z"/><path class="cls-3" d="M195.82,234.42l-.23-.53c11.42-5,22.92-10.38,34.19-15.85l.25.52C218.75,224,207.24,229.37,195.82,234.42Z"/><path class="cls-3" d="M191,213.72l-.47-.33A287.17136,287.17136,0,0,0,219.06,162l.53.23A287.75976,287.75976,0,0,1,191,213.72Z"/><path class="cls-3" d="M177.18,179l-.43-.38c6.21-7,12.27-14.35,18-21.78l.46.35C189.46,164.63,183.4,172,177.18,179Z"/><path class="cls-3" d="M165.39,159.18l-.54-.21a249.66126,249.66126,0,0,0,11.8-40.51l.57.11A250.25181,250.25181,0,0,1,165.39,159.18Z"/><path class="cls-3" d="M133.17,123.53a182.55023,182.55023,0,0,0-16-23.84l.45-.36a183.17094,183.17094,0,0,1,16,23.92Z"/><path class="cls-3" d="M147.14,136.46l-.55-.18c1.82-5.64,3.46-11.41,4.88-17.16l.56.14C150.61,125,149,130.81,147.14,136.46Z"/><path class="cls-3" d="M197,245.06a266.582,266.582,0,0,0-36.13-6.75l.07-.57a267.14935,267.14935,0,0,1,36.21,6.76Z"/><path class="cls-3" d="M192.87,221.78a308.999,308.999,0,0,0-53-1v-.58a309.71929,309.71929,0,0,1,53.05,1Z"/><path class="cls-3" d="M142,202.2l-.06-.57a312.51871,312.51871,0,0,1,44.51-1.71v.58A311.78738,311.78738,0,0,0,142,202.2Z"/><path class="cls-3" d="M180.12,185.87a245.36269,245.36269,0,0,0-26.55-2.69v-.58a245.90788,245.90788,0,0,1,26.62,2.7Z"/><path class="cls-3" d="M129.31,171.28l-.11-.57a302.27673,302.27673,0,0,1,40.31-5.12v.58A301.83092,301.83092,0,0,0,129.31,171.28Z"/><path class="cls-3" d="M161.26,154.14a245.55864,245.55864,0,0,0-35.43-.85v-.58a246.29218,246.29218,0,0,1,35.52.86Z"/><path class="cls-3" d="M142.8,132.56c-7.59-1.11-15.34-1.86-23-2.23v-.58c7.71.37,15.47,1.13,23.08,2.24Z"/><path class="cls-3" d="M128.62,119.64c-7.27-1.64-14.74-2.95-22.18-3.9l.07-.57c7.46.95,14.95,2.26,22.24,3.9Z"/><path class="cls-51" d="M332.66,172.64c0-2-.52-3.44-2-3.74-1.72-.36-3,1.12-3.57,3.09-3.86,12.33-1.74,15.17-4.08,22.91a2.5,2.5,0,0,0,2,3.23c1.06.22,2-.68,2.54-2.06C334.41,179.29,332.65,174.56,332.66,172.64Z"/><circle class="cls-52" cx="288.35606" cy="207.13611" r="3.73001" transform="translate(-1.44615 412.24405) rotate(-70.98)"/><path class="cls-52" d="M291.51,208.19l-6.68-2.25c-2.77,7-6.14,19.65-9.62,30.43h0a6.36993,6.36993,0,0,1-4.22,3.56,9.86,9.86,0,0,1-2.12.27c-.38,1.9,7.14,3.6,8.83-.3a2.41,2.41,0,0,1,.1-1.32C281.71,230.43,293.09,217.75,291.51,208.19Z"/><path class="cls-53" d="M275.89,245.51l-11.4-4.79.08-.18a1,1,0,0,1,1.18-.61,12.50011,12.50011,0,0,0,3.12.26c.07.31.42.68,1.51.94,2.06.48,6.15.82,7.32-1.23a2.01236,2.01236,0,0,0,.08.66C278.11,242.8,276.69,244.15,275.89,245.51Z"/><circle class="cls-54" cx="287.53001" cy="218.73632" r="3.73001" transform="translate(-13.69041 19.27369) rotate(-3.75)"/><path class="cls-54" d="M290.83,218.47l-7,.51c.17,7.56,1.09,20.66,2,32h0a6.37,6.37,0,0,1-2.52,4.92,9.859,9.859,0,0,1-1.85,1.07c.38,1.9,8,.55,8-3.69a2.41,2.41,0,0,1-.42-1.26C289.55,242.94,296,226.67,290.83,218.47Z"/><path class="cls-53" d="M290,259.1H277.66v-.2a1,1,0,0,1,.86-1,12.49977,12.49977,0,0,0,3-1c.18.26.65.47,1.76.28,2.09-.35,6-1.62,6.27-4,.09.18.2.36.33.58C291,255.74,290.22,257.54,290,259.1Z"/><path class="cls-54" d="M321.88,202.27c-12.5,4.07-22.22,7.64-35.61,13l.59,7.88c15.45-.57,32.33-1.6,39.26-4.44Z"/><path class="cls-52" d="M326.4,205.27c-13.1-1.08-23.44-1.56-37.85-1.84l-2.5,7.5c14.47,5.45,30.43,11,37.92,11.1Z"/><path class="cls-55" d="M325.23,201.11c-5.42-1.64-2.9,4.19-25,2,0,0-5,13.18,4.27,20.18,0,0,3.45-1.26,9.72-1,2.94.13,15.25,3.7,18.21-6.4C336.42,202.24,332.43,203.29,325.23,201.11Z"/><circle class="cls-56" cx="331.24143" cy="172.01444" r="2.39001" transform="translate(82.06068 449.89716) rotate(-75.56)"/><circle class="cls-56" cx="323.41993" cy="194.61338" r="2.01001" transform="translate(54.30457 459.28628) rotate(-75.56)"/><path class="cls-56" d="M333.77,173.13c.1-2-.37-3.46-1.8-3.83-1.7-.44-3,1-3.71,2.92-4.41,12.14-4.37,13.41-7.06,21a2.5,2.5,0,0,0,1.84,3.31c1,.27,1.87-.66,2.63-1.94C333,182.28,333.67,175,333.77,173.13Z"/><path class="cls-57" d="M313.54,201.64s12,11,20.74,5c0,0-4-6.78.28-16,1.57-3.42,4.23-9.83,4.07-15.76a15.6,15.6,0,0,0-.49-3.6,11.89954,11.89954,0,0,0-1.15-2.83,10.611,10.611,0,0,0-1-1.43,3.78,3.78,0,0,0-3.69-1.38,11.40888,11.40888,0,0,0-2.21.59c-2.88,1-6.81,5.68-12,7.1,0,0-2.29,5.37,1.54,8.28C319.63,181.54,321.62,196,313.54,201.64Z"/><circle class="cls-54" cx="328.44623" cy="172.16997" r="2.39001" transform="translate(57.83798 425.72589) rotate(-70.8)"/><circle class="cls-54" cx="318.77289" cy="194.04496" r="2.01001" transform="translate(30.68765 431.27164) rotate(-70.8)"/><path class="cls-54" d="M330.89,173.51c.27-2-.08-3.48-1.47-4-1.66-.58-3.07.73-3.94,2.6-5.4,11.73-5.46,13-8.78,20.37a2.5,2.5,0,0,0,1.56,3.46c1,.36,1.92-.5,2.78-1.71C329.37,182.56,330.63,175.41,330.89,173.51Z"/><path class="cls-54" d="M293.15,186.23s-.9-.62.26-1.53,1.87-.53,1.35-.08c-1,.83-.69.84.54.71C294.87,185.93,293.15,186.23,293.15,186.23Z"/><path class="cls-58" d="M312.47,186.49l-13.4,3.89a1.34,1.34,0,0,1-1.34-.49l-13-17.58a.57.57,0,0,1,.28-1l13.4-3.89a1.34,1.34,0,0,1,1.34.49l13,17.58a.57.57,0,0,1-.28,1Z"/><path class="cls-3" d="M298.44,167.47,285,171.36a.57.57,0,0,0-.28,1l13,17.58a1.34,1.34,0,0,0,1.34.48l13.4-3.89a.57.57,0,0,0,.28-1l-13-17.58A1.34,1.34,0,0,0,298.44,167.47Zm14.17,18.1a.47.47,0,0,1-.23.79L299,190.25a1.11,1.11,0,0,1-1.11-.4l-13-17.58a.47.47,0,0,1,.23-.79l13.4-3.89a1.11,1.11,0,0,1,1.11.4Z"/><polygon class="cls-59" points="311.58 184.94 297.78 188.95 285.94 172.9 299.74 168.9 311.58 184.94"/><path class="cls-60" d="M305.63,188.17a1,1,0,0,1-1-.38.44.44,0,0,1,.22-.75,1,1,0,0,1,1,.38.44.44,0,0,1-.22.75Zm-.76-1a.37.37,0,0,0-.18.63.88.88,0,0,0,.88.32.37.37,0,0,0,.18-.63.88.88,0,0,0-.88-.35Z"/><path class="cls-60" d="M292.49,170.1a.14.14,0,0,1-.07.24.33.33,0,0,1-.33-.12.14.14,0,0,1,.07-.24A.33.33,0,0,1,292.49,170.1Z"/><path class="cls-49" d="M299.3,168.25l.1.14a.11.11,0,0,1-.05.18l-6.5,1.89a.39.39,0,0,0,0-.45.81008.81008,0,0,0-.31-.25l6.1-1.77A.71.71,0,0,1,299.3,168.25Z"/><path class="cls-49" d="M292.29,170.62l-6.5,1.89a.26.26,0,0,1-.26-.09l-.1-.14a.3.3,0,0,1,.15-.51l6.1-1.77a.45015.45015,0,0,0,.1.31A.85994.85994,0,0,0,292.29,170.62Z"/><path class="cls-54" d="M299.52,186.61s-1.07-1.82-2.37-2.07c-1.7-.32-1.86-.9-2-.67-.34.42.54,1.18,1.22,1.53.92.47.68,1.75,2.13,2a.86.86,0,0,0,1.02-.79Z"/><path class="cls-54" d="M294.58,185.42c-1.43.29-1.5.58-1.46.79a1.89031,1.89031,0,0,0,.54.19.57006.57006,0,0,0-.22.49h0c0,.46.63.82,1.15.87-.22.61.5.84.79.84a.99993.99993,0,0,0,.7.54c.27.08,1.89-.16,3,0,1.76.25,2.49,1.11,2.8.63a1.65,1.65,0,0,0-1.24-2.19,2.36017,2.36017,0,0,1-1.17-1A7.70993,7.70993,0,0,0,294.58,185.42Z"/><path class="cls-56" d="M294.7,186.61a5.89966,5.89966,0,0,1-.86-.07.11.11,0,0,1-.09064-.12642L293.75,186.41a.12.12,0,0,1,.13-.09,5.00017,5.00017,0,0,0,.88.07.11.11,0,0,1,.11954.09955L294.88,186.5a.12.12,0,0,1-.11.12Z"/><path class="cls-56" d="M295.08,187.87h-.33a.12.12,0,0,1-.1-.13.11.11,0,0,1,.1178-.10159l.01221.00158a2.59054,2.59054,0,0,0,.39,0,.11.11,0,0,1,.11954.09955l.00046.01045a.12.12,0,0,1-.11.12Z"/><path class="cls-56" d="M297.31,185.65h0a7.83166,7.83166,0,0,0-.79-.17.11.11,0,0,1-.10159-.1178L296.42,185.35a.12.12,0,0,1,.13-.1,7.66687,7.66687,0,0,1,.83.18.11.11,0,1,1,0,.22Z"/><circle class="cls-54" cx="318.85137" cy="194.10237" r="2.01001" transform="translate(89.38749 488.53107) rotate(-83.4)"/><path class="cls-54" d="M300,189.26c17.37,7.82,17.11,6.58,18.07,6.79a2.16,2.16,0,0,0,2.70685-1.41571q.03153-.10078.05316-.20429a2.59,2.59,0,0,0-1.79-3c-7-2.21-10.58-2.55-19.44-4Z"/><path class="cls-52" d="M335.47,168.16c-.33-1.61.25-4.26.78-6.19a2.15,2.15,0,0,0-1.22-2.77h0a2.15,2.15,0,0,0-2.4,1.85c-.45,2-1.22,4.56-2.28,5.81C330,168.61,335,169.89,335.47,168.16Z"/><path class="cls-54" d="M330.54,146.64c-3.86,4.89-2.71,12.32-2.71,12.32,1.38,9.09,9.19.63,9.9-.21,1.87-2.22,3-7,1.19-9.37C336.65,146.38,331.4,145.58,330.54,146.64Z"/><path class="cls-58" d="M346.14,169.44c-.61-2.64-3.32-4.43-3.83-7.09-.41-2.16,2-4.2,2.41-6.37A11,11,0,0,0,340,145.23a10.39,10.39,0,0,0-8.09-1.84,4.72,4.72,0,0,0-3.29,3.38,3.72,3.72,0,0,0,2.25,4.12c4.79,2.08,1.15,7.38,1.75,11.24.27,1.74,1.32,3.26,2,4.88.87,2.07.41,3.53-.14,5.53a43.99843,43.99843,0,0,0-1.12,7.84,11.72005,11.72005,0,0,0,.74,6.28,6.62,6.62,0,0,0,5,3.45,3.79,3.79,0,0,0,3.27-.92,4.23,4.23,0,0,0,.82-3.71c-.24-1.3-.79-2.52-1.06-3.81-.53-2.49.74-3.54,1.94-5.45S346.68,171.8,346.14,169.44Z"/><path class="cls-60" d="M352.62,168.39c7.78,0,17.57,16.7,17.57,45.79,0,17.48-12.27,44.92-31.23,44.92h-32.7c-18.14,0-26.12-11.86-23.33-23,2.59-10.37,9.79-13.27,23.33-16.43s19.87-12.08,29.08-32.23S348.3,168.39,352.62,168.39Z"/><path class="cls-55" d="M146.19,251.65s-.38,3.85-.35,5.23h9.54v-.18a.76.76,0,0,0-.64-.76,7,7,0,0,1-6.1-5.15Z"/><path class="cls-61" d="M115.8,210.34s12.52,5.43,22.08,10.15c1.78,3.13,2.61,6.1,1.36,8.73,0,0-8.9-2.75-11.75-2.49-4.35.39-14.65,5.79-19.54-13.13Z"/><path class="cls-61" d="M148,218.5s-.33,23.3,1.19,32.86l-3.66,1.72c-3.77-9.82-7.68-21.87-6-32.36C140.46,216.1,144.44,217.14,148,218.5Z"/><path class="cls-55" d="M165,251.65s-.38,3.85-.35,5.23h9.54v-.18a.76.76,0,0,0-.64-.76,7,7,0,0,1-6.1-5.15Z"/><path class="cls-57" d="M120.58,209s14.54-.73,33.73,4.73a6.22,6.22,0,0,1,4.08,3.51c.82,2,.47,4-1.72,6.12a28.8999,28.8999,0,0,0-10.2-.51c-16.46,1.92-30.16,9.62-33.55-10Z"/><path class="cls-57" d="M158.87,219.2s5,23.77,9.31,32.49l-3.6,1.4c-6.81-8.25-15.13-20.76-14.43-30C149.87,218.3,154.65,219,158.87,219.2Z"/><path class="cls-60" d="M108.33,171c-3.78-1.39-7,4-8.35,9.51s-2.16,7.7-.54,19.2c.37,2.63,2.72,2.55,7.46,1.08a160.58243,160.58243,0,0,1,3-17.73C111.93,174.09,109.63,171.43,108.33,171Z"/><path class="cls-58" d="M109.19,167.11c6.12-1.66,11,6.2,14.69,15.66a168.55926,168.55926,0,0,1,7.7,26.06c-.79,3.12-16.09,11.46-23.49,10,0,0-1.63-19.69-4-30.53C101.66,177.31,102.73,168.86,109.19,167.11Z"/><path class="cls-54" d="M113.33,150.51c1.56,3.06,4.85,10.83,1.35,13.07-2.4,1.54-8.25-1.44-9.56-3.85s-4.74-5.61.88-9.37C110.52,147.34,112.48,148.83,113.33,150.51Z"/><path class="cls-52" d="M107.92,167.91c.69-1.29.73-3.64.64-5.37a2,2,0,0,1,1.82-2.11h0a2,2,0,0,1,1.92,2c0,1.73.15,4.07.9,5.33C113.21,169.33,108,169.46,107.92,167.91Z"/><path class="cls-57" d="M107.44,164.44c2.16-.4,5.26-2.13,4.3-3.92-.68-1.25-1.54-1.13-2.28-2.55s-.19-2.08.36-1.84a3,3,0,0,1,1.26,1.54s.34-.76-.61-2-1.59-1.76-1.72-3.48,1.91-3.76,3.34-3.12a2.14992,2.14992,0,0,1,1,1,8.55,8.55,0,0,0-4.52-5.05,6.29,6.29,0,0,0-5.33.41c-2.13,1.52-.32,3.18.22,4.07,0,0-3.41.29-3.74,2.11a2.49,2.49,0,0,0,1.58,2.8s-.91.28-.74,1.57a6.47,6.47,0,0,0,1.91,3.52c1.07,1.18,3.33,1.68,4.12,2.86A4.78009,4.78009,0,0,1,107.44,164.44Z"/><circle class="cls-58" cx="115.50767" cy="175.76352" r="3.77" transform="translate(-36.83104 30.75402) rotate(-13.09999)"/><circle class="cls-58" cx="121.2474" cy="199.1441" r="3.15"/><path class="cls-58" d="M111.71,176.13c.1-2,.93-3.58,3-4.05a3.94,3.94,0,0,1,4.78,2.76c4.63,12.19,2.27,16.07,5.08,23.73.52,1.42-.61,3.19-2.87,3.71a3.19,3.19,0,0,1-3.48-2C111.4,185.95,111.61,178.09,111.71,176.13Z"/><path class="cls-54" d="M149.66,213.21c-.2.19-.51-.22-1-1,0,0,.3.78,0,.84s-1.09-.85-1.09-.85.17.4,0,.55-.6-.09-1.36-.77a3.5,3.5,0,0,0-1.92-.4c-.49,0-1.38,0-1.7-.37s-1.15-.1-1-.75,4-1.49,4.68-1.31a6.66,6.66,0,0,1,2.37,1.7C149.23,211.46,149.9,213,149.66,213.21Z"/><path class="cls-52" d="M147.45,212.12a.09009.09009,0,0,1-.08,0,3.00019,3.00019,0,0,0-1-.86.09394.09394,0,1,1,.08-.17,3.08974,3.08974,0,0,1,1.1.92.09.09,0,0,1,.00276.12725L147.55,212.14Z"/><path class="cls-52" d="M148.51,212.1a.09.09,0,0,1-.08-.05,3.8,3.8,0,0,0-1.72-1.61.09394.09394,0,0,1,.08-.17,3.92005,3.92005,0,0,1,1.81,1.7.09.09,0,0,1,.00276.12724L148.6,212.1Z"/><circle class="cls-58" cx="121.26047" cy="199.13669" r="3.15"/><path class="cls-58" d="M142.66,211.41c-15.87-4.46-22.14-9-23-9.58a3.12,3.12,0,0,1-1.11685-4.26866L118.58,197.5c.89-1.49,2-2.34,4.13-1.45,6,2.57,13,7.9,20.93,13.23Z"/><path class="cls-60" d="M93.26,169.84c-7.46,0-16.85,16-16.85,43.93,0,16.77,11.77,43.1,30,43.1h31.38c17.41,0,25.06-11.38,22.38-22.1-2.49-9.95-9.39-12.73-22.38-15.77s-19.07-11.59-27.91-30.93S97.4,169.84,93.26,169.84Z"/><circle class="cls-54" cx="227.61255" cy="89.67985" r="3.32"/><circle class="cls-54" cx="210.01703" cy="119.54404" r="2.78"/><path class="cls-54" d="M230.54,92.23c.94-2.6.91-4.74-.84-5.81-2.08-1.27-4.72-.12-6.1,2.39-8.78,15.88-9.3,19-16,28.08a3.47,3.47,0,0,0,1.11,5.14c1.28.78,2.51.48,4-.9C231.23,104.37,229.64,94.73,230.54,92.23Z"/><circle class="cls-54" cx="210.11055" cy="119.63277" r="2.78"/><path class="cls-54" d="M189.78,94.75c10,20.1,16.93,25.35,17.83,26.39a3,3,0,0,0,4.18489.69762q.11673-.08337.22511-.17762a3.59,3.59,0,0,0,.58-4.87c-5.88-8.3-12.43-14.18-21-23.18Z"/><path class="cls-54" d="M225.57,251.12c.48,5.48-10.41,7.06-10.94,4.61a16.00041,16.00041,0,0,0,2.62-1.4,7.86,7.86,0,0,0,3-5.57,4.37863,4.37863,0,0,0-.07-.74c-1.23-6.63-2.45-13.14-3.52-19.18l9.48.84c-.66,6.9-1.9,13.84-1.62,19.25A5.99992,5.99992,0,0,0,225.57,251.12Z"/><path class="cls-62" d="M226.17,258.14h-16v-.26a1.33,1.33,0,0,1,1.11-1.32,16.21975,16.21975,0,0,0,3.86-1.25c.24.33.84.61,2.28.36,2.71-.46,7.78-2.11,8.14-5.15.12.23.26.47.43.75C227.47,253.78,226.43,256.12,226.17,258.14Z"/><path class="cls-54" d="M250.72,253.44a13.059,13.059,0,0,0,1.36-2.42,8.99985,8.99985,0,0,0,.61-3.31,6.78,6.78,0,0,0-1-3.84c-3.7-5.22-7.34-10.37-10.7-15.2l7.89-5.48c2.56,7,4.43,14.53,7.14,19.71a7.1798,7.1798,0,0,0,1.84,1.88C260.57,249.56,252.4,255.32,250.72,253.44Z"/><path class="cls-62" d="M261.14,250.36l-5.8,4.29a18.45971,18.45971,0,0,1-6.56,3.08l-1.67.41-.12-.22a1.33,1.33,0,0,1,.33-1.69,16.22026,16.22026,0,0,0,2.77-3,2.76,2.76,0,0,0,2.81-.36c2.15-1.72,5.14-6.05,4-8.89.21.14.45.29.74.45C260.16,245.92,260.39,248.46,261.14,250.36Z"/><path class="cls-60" d="M224,210.26c.65-3.35,1.29-6.74,1.89-10.11,0,0-8-28.41-3.57-53.88a29.08,29.08,0,0,1-10.06-2.9c-.07.22-.14.44-.22.67a106.86011,106.86011,0,0,0-.32,52c.59,4.29,1.24,8.78,2,13.61h0v.23h0c.65,5.28,1.71,11.8,3,19l9.48.84C226.85,222.56,226.9,215.5,224,210.26Z"/><path class="cls-58" d="M239.5,208.13c.15-4.75.26-9.57.3-14.28a89.48024,89.48024,0,0,1,4.43-24.19,27.13,27.13,0,0,0-3.36-24.14,20.70821,20.70821,0,0,1-1.31-2.3c-6.57,3.05-16.77,2.49-21.5,2-7.7,26.62,10,61.67,11.11,65.32h0a4.82985,4.82985,0,0,0,.65,1.4h0c2.91,4.72,6.79,10.46,11.14,16.72l7.89-5.48C246.61,217.09,243.83,211.43,239.5,208.13Z"/><path class="cls-60" d="M215.85,230s17.35,7.2,32.85-5.89l-.63-2.29a78.49983,78.49983,0,0,1-1.23-36.35h0s6.2-38.64-8.68-45.84c0,0-16.73,11.79-25.41,0C212.76,139.64,200.36,168.45,215.85,230Z"/><path class="cls-63" d="M239.56,143.23c-13.15,6.11-23.69,2-27.28.14a74.2502,74.2502,0,0,0,2.55-33.89c-6-3-4.23-10.91-4.23-10.91,6.75-3.28,10.91-10.67,14.58-12.78,2.16-1.25,5.33-2.94,8.25-.44a15.67,15.67,0,0,1,4,5.26A3.31,3.31,0,0,1,239,95.4c1.74,8.05-.23,17.47-1.5,22.55C234.88,128.61,236.85,137.74,239.56,143.23Z"/><path class="cls-52" d="M233.9,85.16c-1.15-1.88-1.62-5.49-1.83-8.17-.13-1.74-1.39-3.08-2.8-2.95h0c-1.41.14-2.39,1.69-2.19,3.43.31,2.67.54,6.31-.23,8.37C227.15,88.24,234.08,87.57,233.9,85.16Z"/><path class="cls-54" d="M224.62,60c-4.76,6.17-3.23,15.45-3.23,15.45,1.84,11.36,11.51.67,12.38-.39,2.31-2.8,3.65-8.78,1.37-11.74C232.26,59.6,225.68,58.66,224.62,60Z"/><circle class="cls-54" cx="236.19761" cy="93.70947" r="3.32001" transform="translate(-15.08636 131.48699) rotate(-30.19)"/><circle class="cls-54" cx="251.21528" cy="124.87062" r="2.78"/><path class="cls-54" d="M239.81,92.33c-1.84-2.06-3.74-3.06-5.51-2-2.11,1.23-1.56,3.74-.81,6.5,4.9,18.19,8.52,19.51,14.25,28.91a3.59,3.59,0,0,0,4.82685,1.574q.08786-.04464.17315-.094c1.3-.75,1.41-2.54.71-4.48C245,99.05,241.58,94.31,239.81,92.33Z"/><path class="cls-55" d="M221.76,67.25c.83-2.73,1.31-4.71,3-7.18-.52,3.75,2.27,4.57,5,5.95,5.82,3,1.21,9.34,1.67,14.21.21,2.2,1.39,4.17,2.13,6.25.93,2.65.24,4.44-.6,6.9a55.07926,55.07926,0,0,0-2,9.7c-.38,2.65-.62,5.45.44,7.9a8.28,8.28,0,0,0,6,4.7,4.75,4.75,0,0,0,4.15-.89,5.29,5.29,0,0,0,1.31-4.58c-.2-1.64-.79-3.2-1-4.84-.47-3.15,1.2-4.37,2.84-6.66,1.77-2.47,3.54-5.33,3-8.33-.56-3.34-3.81-5.79-4.23-9.15-.35-2.73,1.24-5.29,1.92-8a13.81,13.81,0,0,0-5-13.78A17,17,0,0,0,229,56.07c-1.3.06-3.24,0-4.36.69a8.58,8.58,0,0,0-2.86,4.5,8.99984,8.99984,0,0,0-.44,3.12A15.54987,15.54987,0,0,0,221.76,67.25Z"/><path class="cls-54" d="M241.47,138.27s-2.46-1.41-4.28-.76c-2.38.85-3,.23-3.08.66s.28.75,1.4.76C236.93,138.95,241.47,138.27,241.47,138.27Z"/><path class="cls-64" d="M240.18,149.74l-26.68-1.15a1.81,1.81,0,0,1-1.5-1l-9.2-21.1a.89.89,0,0,1,.85-1.33l27,.14a1.8,1.8,0,0,1,1.57,1.07l2.7,6.74,1,2.57.54,1.35,3.55,8.85,1,2.59a.89.89,0,0,1-.83,1.27Z"/><path class="cls-3" d="M235.09,136.25a.29.29,0,0,1-.27-.18L231,126.83a.44.44,0,0,0-.37-.25l-26.71-.28a.29.29,0,0,1-.28-.29.32.32,0,0,1,.29-.28l26.71.28a1,1,0,0,1,.89.61l3.84,9.24a.29.29,0,0,1-.15.38Z"/><path class="cls-3" d="M239.65,148a.29.29,0,0,1-.26-.18l-.69-1.64a.29.29,0,1,1,.53-.22l.69,1.64a.29.29,0,0,1-.15.38Z"/><circle class="cls-54" cx="251.28536" cy="124.8009" r="2.78"/><path class="cls-54" d="M223.8,138.32c25.7-5.73,27.26-9.25,28.47-10.28,1.48-1.27,2.26-3.06,1.44-4.62a3.59,3.59,0,0,0-4.6-1.72c-9.46,3.75-9,7.47-26.2,14.18C222.41,136.91,223.18,137.52,223.8,138.32Z"/><path class="cls-54" d="M188.11,87.87c-1.3.48-.15,3.19-.52,3.2-3.22.09-6.39,1.22-6.24,1.78s3.13-.64,3.27-.4c.26.42-4.58.86-4.28,1.79s3.86-.75,4-.22c.25.77-3.94.51-3.77,1.54.13.79,3.91-.55,3.92,0s-3.11,1-2.82,1.68,2.58-.55,4.6-.57a22.99958,22.99958,0,0,0,4.91-.83,1.1,1.1,0,0,0,.47-2.06,19.07072,19.07072,0,0,1-2-2.56C188,89.33,188.57,87.7,188.11,87.87Z"/><path class="cls-54" d="M224.56,136.32c-.54-.58-1.21-2.19-2-2.72-1.8-1.2-4.77-2.07-4.74-1.41s2.08,1,2,1.41c0,.13-3.33-.84-3.45.11-.07.57,1.39.82,1.46,1.1.11.51-1.42-.71-1.74-.11s1.7,1.08,1.54,1.5c-.1.26-1.14-.39-1.15.35,0,.4,1.45.49,1.16.66-.06,0-.86-.46-.86.15,0,1,6,.93,6.72,1C224.81,138.36,225.36,137.19,224.56,136.32Z"/><path class="cls-3" d="M639,141v3.1s0,.3-.1.4v.1a.75592.75592,0,0,1-.1.4v.1l-.1.4v.1a.36739.36739,0,0,1-.1.3c-.1.1,0,.1,0,.1v.2l-.1.3a8.44684,8.44684,0,0,1-.5,1.7v.2l-.1.2-.2.4-.1.3-.1.2-.1.2-.1.2-.1.2-.1.2-.1.4-.1.2-.1.3-.1.1-.2.3-.2.3a4.348,4.348,0,0,0-.4.7,10.54016,10.54016,0,0,1-.7,1.1l-.2.1-.2.2-.2.3-.2.2-.2.3v.2l-.5.6c-.3.4-.7.7-1,1.1l-.2.2-.2.1-.1.1a20.61873,20.61873,0,0,1-6.8,4.1l-.7.3-.2.1-.7.2-.3.1-.3.1-.3.1-.3.1-.4.1-.5.1-.4.1h-.2l-.3.1h-.1l-.5.1a20.67917,20.67917,0,0,1-3.5.3h-3.4l-.4-.1h-.1l-.4-.1h-.1l-.4-.1-.3-.1h-.2l-.4-.1h-.2l-.2-.1h-.2l-.5-.6h-.2l-.2-.1H609l-.4-.1H608l-.1-.1-.2-.1h-.1l-.3-.6h-.1l-.3-.1-.1-.1-.1-.1h-.1l-.2-.1h-.2l-.1-.1-.3-.2h0l-.3-.2h0l-.3-.2h0l-.2-.1v.1l-.1-.1-.1-.1h-.1l-.3-.2-.1-.1-.1-.1H604l-.1-.2-.2-.1-.1-.1h-.1l-.2-.1-.2-.2-.1-.2-.2-.1-.2-.2-.1-.1h-.1l-.4-.3-.2-.2-.2-.2-.3-.3-.1-.1-.2-.2-.2-.2-.5-.5-.2-.2-.2-.2-.5-.5h0l-.2-.2-.2-.3-.2-.2-.1-.2-.2-.2-.1-.1-.2-.3-.1-.1v-.1a8.79236,8.79236,0,0,1-.6-1l-.2-.4-.1-.2c-.2-.3-.3-.6-.5-.9l-.2-.4-.1-.1h0V150l-.2-.4-.1-.3-.1-.1-.1-.3-.1-.2-.2-.4h0V148l-.1-.3a29.92082,29.92082,0,0,1-.8-3.2v-.3c0-.2-.1-.4-.1-.6V143h0a13.402,13.402,0,0,1-.1-2h-.1v-.1h0v-1.5a21.57826,21.57826,0,0,1,4-11,11.31873,11.31873,0,0,1,1-1.3h0l.1-.2.3-.3c.5-.5.9-1,1.4-1.5h0c.5-.5,1.1-.9,1.6-1.4h0c.8-.6,1.6-1.1,2.4-1.6.6-.3,1.2-.7,1.8-1a11.73109,11.73109,0,0,0,1.1-.5l.4-.2h.2l.6-.3.7-.2.4-.1.6-.1.4-.1.3-.1.2-.1.3-.1a5.15987,5.15987,0,0,1,1.1-.2c1.2-.2,2.3-.3,3.5-.4h3.6l.3.1.3.2.3.1h.1l.3.1h.5l.4.1.3.1h.1l.4.1.3.1h.5l.2.1h.2l.2.1h.2l.1.1h0l.3.1h0l.3.2h0l.1.1h0l.2.1h.1l.2.1h.1l.1.1.2.1.3-.1h.1l.3.2h0l.4.2h0l.3.2.2.1h.2l.1.1.3.2h0l.1.1.1.1h0l.1.1h0l.1.1h.2l.1.1h0l.3.2.4.4.2.2.3.3h.2l.2.2.1.1.2.2.2.2.1.1.2.2.3.3.6.6.2.3.2.3h0l.2.3.2.3.5.6.2.3.1.1.8,1.6.1.1h0l.1.1.1.1.2.3v.2l.2.3v.1a5.73615,5.73615,0,0,0,.4.7l.1.1v.1l.1.1.1.2h0l.1.1v.1l.1.1.1.1v.1l.1.2.1.2.1.3.1.2v.1l.2.4v.1h0l.1.3.1.2v.1l.1.3.1.2v.1h0v.2l.1.3v.1h0v.1h0l.1.3h0l.1.3v.8a.756.756,0,0,0,.1.4h0a.60123.60123,0,0,0,.1.4v.1a3.40193,3.40193,0,0,1,.1,1h0v.1h0v.4A17.65214,17.65214,0,0,1,639,141Z"/><path class="cls-65" d="M620.6,142a2.57712,2.57712,0,0,1-1.3-.8,6.89,6.89,0,0,0-.3-.8c-.1-.1-.6.1-.8.1-.2-.6-.5-1-1.1-.4a.60833.60833,0,0,0,0-.8c-.2-.3-.5-.1-.8-.1-.6,0-.8-.4-1.2-.9s-1-.2-1.7-.1a14.60412,14.60412,0,0,0-2.2.3c-.3.1-.6.5-.8.1s.1-.6-.3-.8c-.7-.4-1.5.1-2.2-.2-.4-.2-.5-.4-.2-.8a3.12806,3.12806,0,0,0,.5-1,2.62188,2.62188,0,0,1,.5-.9c.3-.4.2-.5.2-.9,1-.5,2.3.1,2.5-1.4,0-.2-.2-.7-.1-.9s.7,0,1,0a4.47709,4.47709,0,0,0,2-.4,3.92219,3.92219,0,0,1,1.8-.4c.6.1.7.6,1,1.1a2.54453,2.54453,0,0,0,1.2,1.1c.4.1.6.4.8.8a1.79687,1.79687,0,0,0,.4.9c.4-.3,1-.1,1.4-.4.4-.2.1-1,0-1.3-.2-.6-.7-.7-1-1.1a1.88389,1.88389,0,0,1-.2-.8c.1-.3.2-.2.5-.3.6-.1.8.1,1.2.5.1.2.4.2.5.3s.2.5.4.7.8.5.9.9c.1.3-.1.6-.1.9s.1.5.1.8c.3,0,.8.5,1,.6s.5.1.7.3.1.4.2.7.2.3.3.5a9.82953,9.82953,0,0,0,.5,1.6c.3.6.9.9,1.1,1.6.5,1.6-1.7,2-2.9,2.2a11.019,11.019,0,0,1-1.8.2C621.4,142.6,621.4,142.1,620.6,142Z"/><path class="cls-65" d="M608.4,120.6h.2a.60123.60123,0,0,0,.4-.1c.1-.1.2-.1.4-.2.1,0,.2-.1.3-.1a.36737.36737,0,0,1,.3.1l.2.1c.1,0,.1.1.2.1h.6a.90151.90151,0,0,0,.5-.1h.7l.3.1.1.1.1.1a.6375.6375,0,0,0,.6,0c.1,0,.1-.1.2-.1h.3c.2,0,.3-.1.5-.1-.1,0-.2-.2-.2-.3v-.1c.1,0,.1-.1.2-.1h.5l.4.1h.4a.60467.60467,0,0,1,.6.3c0,.1.1.1.1.2s0,.2.1.2a.90151.90151,0,0,0,.1.5c.1.2.1.3.2.4h.2c.1,0,.1-.2.3-.2s.4.3.7.3c.2,0,.3-.1.5-.1h.7c.1,0,.1,0,.2-.1s0-.1,0-.2v-.3c0-.1.2-.1.3-.1s0-.2,0-.2v-.1h.1a2.3535,2.3535,0,0,1,.8.2c.2,0,.4.1.6.1a.75812.75812,0,0,1,.4.2c.1.1.2.1.3.2l.2.3c.1.1.1.2.2.3l.4.4a1.94945,1.94945,0,0,0,.8.1l.3-.1h.8c.1,0,.3.1.4.1l.3.1c.1,0,.2.1.3.2.1,0,.2.1.3.2.2.1.3.3.5.4h.7l.9.1h-.1a.74936.74936,0,0,1,.5-.1,1.70178,1.70178,0,0,1,.7.1c.1,0,.3.1.4.1,0,.1.1.1.2.2l.2.1c.1,0,.2.1.4.1h.1v-.3l-.1-.2c0-.1-.1-.1,0-.2v-.1a22.51756,22.51756,0,0,0-21.7-2.7C608.3,120.6,608.3,120.6,608.4,120.6Z"/><path class="cls-65" d="M625.8,148.9Zm0,0Zm0,0Zm13.1-9.8v-.4h0v-.1h0c0-.3-.1-.7-.1-1v-.1a.60123.60123,0,0,0-.1-.4V137a.756.756,0,0,0-.1-.4v-.4l-.2-.2v-.3l-.1-.3h0l-.1-.3h0l-.1-.3-.1-.2v-.2h0v-.3l-.1-.3v-.1l-.1-.2-.1-.3h0v-.1l-.3-.4-.1-.2-.1-.3-.2-.2v-.3l-.1-.1-.1-.1-.1-.2h0l-.1-.2-.1-.2v-.1l-.1-.1a5.73615,5.73615,0,0,0-.4-.7h0l-.2-.3v-.2l-.2-.3-.1-.1-.1-.1h0v.1h0v.1c0,.1,0,.1-.1.1a.09794.09794,0,0,1-.1.1h-.1c-.1,0,0,.1-.1.1l-.1.1c-.1.1-.1.1-.2.1h-.5c-.1,0-.2-.1-.3-.1h-.2c-.1,0-.3,0-.3.1a.09794.09794,0,0,1-.1.1c-.1,0-.1,0-.2-.1h-.3c-.1,0,0,.1-.1.1v.3c.1,0,.1.1.2.1l.2.1c.1,0,.1.1.2.1s0,0,0,.1v.6a.6752.6752,0,0,1,.4.6c0,.1,0,.1-.1.2-.1,0-.2,0-.2.1v.4c0,.1-.1.1-.1.2v.4a.3193.3193,0,0,1-.3.3.21508.21508,0,0,1-.2-.2c0-.1,0-.1-.1-.2l-.1-.1a.34914.34914,0,0,1-.1-.2l-.1-.1-.3-.3c-.2-.2-.4-.3-.5-.4a.60122.60122,0,0,1-.1-.4c0-.1-.1-.3-.2-.3-.1-.1-.2-.1-.2-.2-.1-.1-.2-.2-.2-.3s0-.2.1-.2a.21509.21509,0,0,0,.2-.2c0-.1.1-.3.1-.4a.21508.21508,0,0,1,.2-.2c.1-.1.1-.1.2-.1.1-.1.1-.2.2-.3v-.3c0-.1-.1-.2-.2-.3a.1385.1385,0,0,1,0-.2v.3c0,.1,0,.2-.1.2h-.2l-.1.1a.09794.09794,0,0,1-.1.1H631c-.2-.1-.1-.3-.3-.4-.1,0-.2-.1-.3-.1s-.1,0-.1.1c-.1.1-.3.2-.4.3s-.2.1-.1.2c0,.1.1.1.2.1a.125.125,0,1,1,0,.2h-.6c-.2,0-.2-.1-.3-.2h-.4c-.1,0-.2-.1-.3-.1-.1-.1-.1-.1-.2-.1h-.4a.90151.90151,0,0,1-.5.1l-.4-.1c-.2,0-.3-.1-.5-.1H626a.78076.78076,0,0,0-.4.4c-.1.1-.1.2-.1.4,0,.1,0,.2-.1.2l-.2.2c-.1,0-.1.1-.2.2v.1a2.26851,2.26851,0,0,0,.4.1h0c.1,0,.2.1.3.2a.34914.34914,0,0,0,.2.1h.1a.34914.34914,0,0,1,.2-.1h.2c.1,0,.3.1.4.1l.2.1.3.2c.1,0,.2.1.3.1s0,0,0-.1v-.1a.09794.09794,0,0,1,.1-.1c.1,0,.1,0,.1.1l.1.1.1.1c.1.1.1.1.1.2s0,.1.1.2v.2c0,.1-.1.1-.1.2a.30417.30417,0,0,0,0,.4c.1.1.2.2.2.3s.1.1.1.2v.2c0,.1-.1.1-.1.2v.1a.09793.09793,0,0,1,.1.1c0,.1-.1.1-.1.2s0,.2-.1.2l-.1.1c-.1,0-.1.1-.2.1-.1.1-.1.1-.1.2a.36737.36737,0,0,0-.1.3.45078.45078,0,0,1-.3.3,1.26834,1.26834,0,0,0-.6-.1c-.2,0-.2.1-.2.2v.3c0,.1,0,.1-.1.1s-.3,0-.3.2.1.2.2.2a.78076.78076,0,0,1,.4.4l.1.1c.1.1.1.2.2.2a.51954.51954,0,0,1,.2.4.36737.36737,0,0,1-.1.3.66125.66125,0,0,1-.6.1h0c-.1,0-.1,0-.1-.1v-.2c0-.1-.1-.1-.2-.2-.1,0-.1-.1-.2-.2v-.4l-.1-.1-.1-.1c-.1,0-.1,0-.2-.1a.51954.51954,0,0,1-.2-.4c0-.1.1-.2,0-.2s-.2-.1-.3-.1h-.5c-.1,0-.1,0-.2.1-.1,0-.1.1-.2.1H624c-.1,0-.1-.1,0-.2,0-.1.1-.1.2-.1h0c0-.1-.1-.3-.2-.3v-.1h-1.3l-.1.1c0,.1-.1.1-.1.2-.1.1-.2.1-.2.2H622c0,.1.1.1.2.2h.3c.2,0,.1.1.1.2s.1.1.2.2h.9a.36737.36737,0,0,1,.3.1h.1c.1,0,.1.1.1.2s0,.1-.1.2h-.4a.3193.3193,0,0,0-.3.3c0,.1.2.2.3.3s.3-.1.3,0a.36737.36737,0,0,0,.1.3.99837.99837,0,0,1,.4.5c0,.1.1.1.1.2v.1a1.00729,1.00729,0,0,0,.3.1.34914.34914,0,0,1,.2.1c0,.1-.1.2-.1.3s0,.1-.1.2v.2c0,.1,0,.2-.1.2h-.2a.75812.75812,0,0,0-.2.4.3193.3193,0,0,1-.3.3H624l-.1.1-.1.1c-.1.1-.2.1-.3.2a.36736.36736,0,0,1-.3.1h0a.51955.51955,0,0,0-.4.2.34914.34914,0,0,0-.2.1c-.1,0-.1.1-.2,0h-.9a.90151.90151,0,0,0-.5.1l-.1.1a.09794.09794,0,0,1-.1.1.21508.21508,0,0,1-.2-.2.35355.35355,0,0,0-.4-.4h-.6l-.1.1c0,.1-.1.1-.1.2l-.2.2-.1.1v.2c0,.1,0,.1.1.1a.36737.36737,0,0,1,.1.3v.2c0,.1,0,.1.1.1a.34914.34914,0,0,0,.2.1l.1.1.1.1.1.1c.1.1.3.2.4.4s.1.3.2.4c.1.2.2.4.1.5,0,.1-.3.3-.3.5h.1l-.1.1h-.8c-.1,0-.1.1-.2.2s-.2.1-.3.2-.1.2-.2.2-.1-.2-.1-.2l-.1-.2c0-.1,0-.1-.1-.2-.1,0-.1-.1-.2-.1s-.2-.1-.3-.2,0-.1-.1-.2a1.38046,1.38046,0,0,0-.4-.3h-.1c-.1,0-.2,0-.2-.1a.09794.09794,0,0,0-.1-.1.19161.19161,0,0,0-.3.1v.4c0,.1-.1.2-.1.3a.09794.09794,0,0,1-.1.1h0a.49375.49375,0,0,0,.1.3h0l.2.2c0,.1.1.2.1.3,0,.2.2.2.4.3l.2.2c.1,0,.1.1.2.1a.21508.21508,0,0,1,.2.2.34914.34914,0,0,1,.1.2c0,.1.2.2.2.2v.4c0,.1-.1.2,0,.3s.1.1.1.2a.34914.34914,0,0,1,.1.2v.1h0v.2c-.1,0-.1-.1-.1-.2h0a.75812.75812,0,0,1-.4-.2.34914.34914,0,0,1-.2-.1.09794.09794,0,0,1-.1-.1l-.1.1-.2-.2-.1-.1-.2-.2c0-.1-.1-.1-.1-.2l-.1-.2v-.4a.75808.75808,0,0,0-.2-.4l-.1-.1-.1-.1h-.1a.34914.34914,0,0,1-.1-.2.09794.09794,0,0,0-.1-.1v-.1a.09794.09794,0,0,0-.1-.1V144a.09794.09794,0,0,1,.1-.1v-.6l-.1-.1v-.3c0-.1,0-.1-.1-.2,0-.1-.1-.1-.1-.2s-.1-.3-.2-.3h-.2c-.1,0-.2,0-.2.1-.1,0-.2.1-.3.1s-.1,0-.1-.1a.60123.60123,0,0,1-.1-.4c0-.1-.1-.2-.2-.3a.51954.51954,0,0,1-.2-.4V141l-.1-.1h-.1c-.1,0-.1-.1-.2-.2s-.1-.1-.1-.2-.1-.1-.1-.2v-.2a.76385.76385,0,0,0-.5-.2c-.1,0-.1.1-.2.1s-.2.1-.3.1h-1c-.1,0,0,.1,0,.2s0,.1-.1.2-.2.1-.4.2a.36737.36737,0,0,0-.3.1v.1a.09794.09794,0,0,1-.1.1l.1.2c-.1.1-.3.2-.4.3-.1,0-.2.1-.3.1h0a.34914.34914,0,0,1-.1.2c-.1.2-.1.2-.2.2h-.4c-.1,0-.1.1-.1.2v.2h0v.2s-.1.1,0,.1a2.91986,2.91986,0,0,0-.2.9c0,.3,0,.4-.3.6-.1,0-.1.1-.2.1-.1.1,0,.3-.3.4s-.1-.1-.2-.2l-.2-.1a.51954.51954,0,0,1-.4-.2,8.34152,8.34152,0,0,1-.8-1.2l-.3-.6c-.1-.3-.1-.7-.2-1s-.2-.9-.7-.9c-.3,0-.8,0-1-.2h0c-.1-.1-.1-.2-.1-.4a.60123.60123,0,0,0-.1-.4,2.286,2.286,0,0,0-1-.7,3.295,3.295,0,0,0-1.4,0,2.4375,2.4375,0,0,1-1.2,0,4.87524,4.87524,0,0,1-.7-.3h-.5c-.2,0-.5-.1-.7-.1a1.70178,1.70178,0,0,0-.7-.1h-1c-.1,0-.3-.1-.4-.1h-.2v.2l.1.2.1.1h0c.1,0,.2.1.4.3l.1.1c.4.3,1-.2,1.4-.3.2-.1.1-.1.3,0a.21508.21508,0,0,1,.2.2,2.17738,2.17738,0,0,0,.8.5c.2.1.5.2.5.3a1.68971,1.68971,0,0,1-.3.6c-.1.1-.3.2-.4.3s-.2.2-.2.3a.36737.36737,0,0,0-.1.3c0,.2-.1.4-.5.4a.86433.86433,0,0,0-.6.3c-.1.1-.2.3-.3.4-.2.2-.2.4-.5.5a2.20185,2.20185,0,0,0-.8.1l-.2.1-.2-.1a3.88053,3.88053,0,0,1-1.1.6h-.5c-.1,0-.2-.3-.2-.3s-.2-.2-.2-.3h0v.6c0,.2.1.4.1.6v.2c.1.1.2,0,.4,0a1.88389,1.88389,0,0,0,.8-.2l.6-.3.2-.1h0a1.42132,1.42132,0,0,1,.6-.2l.2-.1c.2-.1.4.1.3.2a.75592.75592,0,0,1-.1.4h0c0,.2-.1.3-.1.5l-.3.6c-.1.2.1.5,0,.7-.2.4-.6.6-.7,1a2.3364,2.3364,0,0,1-.7.7h0l-.3.2h0l.1.2.1.2h0l.2.4.1.2v.4l.1.2.1.3.2.3.1.2h0l.1.1.2.4c.2.3.3.6.5.9l.1.2.2.3h.1a.09794.09794,0,0,1,.1-.1h0a.30971.30971,0,0,1,.1.2h.1c.1,0,0,.1.1.2h0c.1.1,0,.2.1.2v.2c-.2.1-.2.2-.2.2h0v.1l.1.1.2.3.1.1.2.2.1.2.2.2.2.3.2.2h0l.4.5.2.2.2.2.5.5.2.2.2.2.1.1.3.3.2.2.2.2.4.4h0l.1.1h.1l.2.2.2.1.1.1.2.2.2.1h.1l.1.1.2.1.1.1h.1l.1.1h.1l.1.1.2.2h.1l.1.1.1.1.1.1.2.1h0l.2.1h.1l.3.2h0l.3.2.1-.1h.2l.1.1h.1l.1.1.1.1.3.1h.1l.3.1h.1l.2.1.1.1.2.1h.4l.4.1h0l.2.1h.2l.2.1.2.1.5.1h.2l.2.1h.2l.2.1h.3l.3.1.4.1h.2l.4.1h.1l.4.1h3.8a19.82661,19.82661,0,0,0,3.5-.3l.5-.1h.1l.3-.1h.2l.4-.1.5-.1.4-.1.3-.1.3-.1.3-.1.3-.1.7-.2.2-.1.7-.3h0a1.854,1.854,0,0,0-.2-.7.09794.09794,0,0,1-.1-.1v-.1h-.2v-.3a1.483,1.483,0,0,0-.7-.1h-1c-.2,0-.3-.1-.5,0H622a.09794.09794,0,0,1-.1.1c-.1,0,0,.1-.1.1h-.6a.85417.85417,0,0,0-.7,0h-.2c0,.1-.1.1-.2.1h-.5l-.3,1.8h0l-.1-.1h0a.1875.1875,0,0,1,0-.3h0c0-.1.1,0,.2-.1h0a.09793.09793,0,0,1,.1-.1v-.1h0v-.1a.09794.09794,0,0,1,.1-.1v-.3h0v-.2h0v-.1h0v-.3c0-.1.1-.1.1-.2h0c-.1-.1,0-.2-.1-.3h0v-.2h0v-.2h0v-.1h0V158h.1a.09794.09794,0,0,0,.1.1h.1a.09794.09794,0,0,0,.1.1v.1h0v-.4a.30974.30974,0,0,1,.1-.2h.1v-.3h.1a.09794.09794,0,0,1,.1-.1c.1,0,0-.1.1-.1h0a.09794.09794,0,0,1,.1.1h.5c.1-.1.3.1.5,0H623a.09794.09794,0,0,1,.1-.1l.1-.1h0a.21508.21508,0,0,0,.2-.2v-.2h.2l.1-.1c.1,0,.1.1.1.2v.1h0v-.3h0c.1-.1.2.2.3,0h0v-.1h0c0-.1.1-.1.2-.1h0c.1,0,.2-.2.3-.2h.2v-.1h.3c.1,0,.1,0,.2.1a.09794.09794,0,0,1,.1.1.09794.09794,0,0,0,.1.1h0a.34914.34914,0,0,1,.1.2h.5v-.1h0a.09794.09794,0,0,1,.1-.1.09794.09794,0,0,0,.1-.1h0l.2-.2a.09794.09794,0,0,0,.1-.1h.3c.2-.1.4.1.5,0,0-.1-.1-.1-.1-.2s.2,0,.2,0l.2.2h0c.1.1.2,0,.2.1s.1,0,.1.1h.1l.1.1h.2c.1,0,.1.1.2.2h0v-.1a1.00729,1.00729,0,0,0,.3.1c.1,0,0,.1,0,.1h-.2c-.1,0,0,.1-.1.1s-.2.1-.3.2h0a.09794.09794,0,0,1-.1.1H628c-.1.1,0,.1,0,.2V157h0c.1.1.2.1.3.2v.1a.09794.09794,0,0,1,.1.1h0v.2h0a.09794.09794,0,0,1,.1.1h0a.09794.09794,0,0,1,.1.1.34915.34915,0,0,0,.1.2.09794.09794,0,0,1,.1.1h.3a.09794.09794,0,0,1,.1-.1c.1,0,0-.1.1-.1h.1l.8-1.9h0a.09794.09794,0,0,1,.1-.1c.1,0,0-.1.1-.1h0a.09794.09794,0,0,1,.1-.1c.1,0,0-.1.1-.1s0-.2.1-.2,0-.2.1-.3h.1V155h.1v-.1h.1a.09794.09794,0,0,1,.1-.1c.1,0,0-.1.1-.1h0c.1-.1.2-.1.2,0s-.1.2,0,.4h0V155h0a.36737.36737,0,0,1-.1.3v.1c.1,0-.1.2.1.2h.1a.09794.09794,0,0,1,.1.1h0l.1.1v.1h0v.1h0v.4h0v.1h0v.2h0c-.1.1.1.2-.1.3s0,0,0,.1l.1-.1.2-.2.2-.2a9.9582,9.9582,0,0,0,1-1.1l.5-.6.1-.1.2-.3h-.1c-.1-.1-.2,0-.3-.1h-.1a.09794.09794,0,0,1-.1-.1v-.1h0v-.3h0v-.1h0c-.1,0,0-.1,0-.2h0v-.2h0a.30971.30971,0,0,1-.2-.1c-.1-.1-.1,0-.2-.1a.1385.1385,0,0,0-.2,0h-.1a.09794.09794,0,0,1-.1.1h0c-.2,0,0,.2-.2.2h-.3a.09794.09794,0,0,1-.1-.1h0a.60123.60123,0,0,1-.4-.1h0v-.1h0V153h0c0-.1-.1-.1-.2-.1h-.2a.43974.43974,0,0,1-.5-.1h0a.09794.09794,0,0,1,.1-.1h0a.09794.09794,0,0,1,.1-.1h.1a.21508.21508,0,0,0,.2-.2h0v-.1h0c-.1,0,0-.1,0-.2a.36737.36737,0,0,0-.1-.3.38079.38079,0,0,1-.7-.3h0a.30971.30971,0,0,0-.2-.1h0l-.2-.2h-.2c-.1-.1-.2,0-.2-.1h0a.09794.09794,0,0,1-.1-.1.30973.30973,0,0,1-.2-.1h0l-.3.2v.1h0c0,.1-.1.1-.2,0h0c-.1-.1,0-.2-.1-.3v-.1h-.1c-.1,0,0-.1,0-.1h.5a.30971.30971,0,0,1-.2-.1m-.1.1c-.1,0-.1-.1-.2-.1s0-.1-.1-.2-.3-.1-.3-.2-.1-.1,0-.2h0c.1,0,.1,0,.1.1.1.1.1,0,.1,0h0a.60123.60123,0,0,0,.4-.1h0m.1,0h.2v.1c.1.1.2,0,.3.1s0,.1,0,.2h0v.1h0v.2h0a.09794.09794,0,0,0,.1.1c.1,0,0,0,0,.1s0,.1.1.2.1.1.1,0h.3l.1-.1h0a.09794.09794,0,0,1,.1-.1h.2c.1,0,.1-.1.2-.1h.3l.1.1h0a.09794.09794,0,0,1,.1.1l.1.1h0a.09794.09794,0,0,1,.1.1h0a.09793.09793,0,0,1,.1.1h0a.09794.09794,0,0,1,.1.1h.1c.1,0,.2.1.3.1h.1a.09794.09794,0,0,1,.1.1c0,.1.1,0,.1.1h0a.09793.09793,0,0,1,.1.1c0,.1.1,0,.1.1h0a.30971.30971,0,0,1,.2.1h0a.21508.21508,0,0,1,.2.2v.1c.1.1.2.1.3.2l.1.1a.09794.09794,0,0,1,.1.1h0a.34914.34914,0,0,1,.1.2v.2h0a.09794.09794,0,0,1,.1.1h0l.1.1a.09793.09793,0,0,1,.1.1c0,.1.1,0,.2.1v-.3c-.1.1-.1,0-.2,0h0c-.1,0-.1,0-.1.1s0,.1.1.2c0,.1.1.1.1.2v.1h0v.3h.2c.1.1,0,.1,0,.2h0l.1.1.2-.3.2-.2.2-.2a6.727,6.727,0,0,0,.7-1.1l.4-.7.2-.3.2-.3.1-.1.1-.3.1-.2.2-.4.1-.2.1-.2.1-.2.1-.2.1-.2.1-.3.1-.4.1-.2.1-.2a10.92643,10.92643,0,0,0,.5-1.7l.1-.3v-.3a.49375.49375,0,0,1,.1-.3v-.1l.1-.4V145a.75592.75592,0,0,1,.1-.4v-.1a.60128.60128,0,0,1,.1-.4c.1-.2,0-.1,0-.1v-3a2.15528,2.15528,0,0,0,.5-1.7Zm-5.5-14.5Zm-27.1,8.7Zm30.5,3V147h-.1v.1a.09794.09794,0,0,0,.1.1h0c-.1.1-.1.2-.2.2h-.1c0-.1-.2-.1-.2-.1a.09794.09794,0,0,1-.1-.1h0l-.1-.1V147h0v-.4h-.7l-.1.1h-.1v-.2h0v-.1h.1a.34914.34914,0,0,0,.2-.1h0s.1-.1.1,0c.3.2.5,0,.7-.1h0c0-.1.1-.2,0-.3h.1v.3h0a.09794.09794,0,0,1,.1.1l.1.1h0v.8l-.1.1h-.1c.5-.3.5-.2.4-.1Zm-.9,1.7h0a.34914.34914,0,0,0,.2-.1h.2v.1h0a.09794.09794,0,0,1-.1.1h0c-.1,0-.1.1-.2.1s0,.1-.1.1h-.4c-.1-.1-.2-.1-.4-.1h-.6a.09794.09794,0,0,1-.1.1c-.1,0,0,.1-.1.1h0v.1h0a.09794.09794,0,0,1,.1.1h0c.1,0,0,.1,0,.1h.1a.09794.09794,0,0,1,.1-.1h.9v.1h0v.1h0c0,.1,0,.1-.1.1l-.2-.1h-.4c-.1.1,0,.1,0,.2h0v.1h0v.1h0c0,.1-.1.2,0,.3h.2a.09794.09794,0,0,1,.1.1h0v.2H625c0,.1,0,.1-.1.1h-.2c-.1,0-.1-.2-.1-.3-.2,0-.3,0-.3-.1V150a.1385.1385,0,0,0,0-.2h-.1c-.1,0-.2,0-.2.1v.2s0,.3-.1.4h0v.1h0c.1.2-.1.1-.2.1h-.2v-.1h0a.09794.09794,0,0,1,.1-.1h0a.30972.30972,0,0,1,.1-.2v-.2c-.1,0,.1-.2-.1-.2h-.1c-.1-.1,0-.2,0-.3h.2a.09794.09794,0,0,1,.1-.1h0c.1-.1,0-.2.1-.3h0a.09794.09794,0,0,1,.1-.1h0c.1-.1,0-.3.2-.4s0-.1.1-.1.1-.1.1,0h.4a.09794.09794,0,0,1,.1.1c0,.1.1,0,.2.1h.2c.1.1.3,0,.4.1h.2Zm-2.4,3h-1c0-.1-.2,0-.3,0v-.2h.2a.09794.09794,0,0,1,.1.1h.2v-.1h.2c.1,0,.1.1.2.1l.4.1Zm-1.3-4.8h0a4.87524,4.87524,0,0,0,.7-.3.09794.09794,0,0,1,.1-.1h0a.09794.09794,0,0,1,.1-.1h.1c.1,0,0-.1.1-.1h.2c.1,0,.1.1.1.2h0c.1.1.1.2.2.3s.1,0,.2.1h.1c0,.2,0,.2-.2.2a.09794.09794,0,0,0-.1.1c0,.1,0,.1-.1.1h0a.51954.51954,0,0,0-.2.4h0v.1h0v.2h0c-.1.1.1.1.1.2h.2v.1h0a.13851.13851,0,0,1,0,.2c-.1.1-.3,0-.4,0s0,.1-.1.1,0,.2-.1.3,0,.1-.1.1H623a.09794.09794,0,0,1-.1.1h-.1c-.2.1,0,.3-.1.4h-.1a.13851.13851,0,0,0,0,.2.09794.09794,0,0,1-.1.1h-.1c0-.1-.1,0-.1,0h-.2a.09793.09793,0,0,1-.1-.1v-.2h-.4a.09794.09794,0,0,1-.1-.1h-.6c-.2,0,0-.2-.1-.2h-.2c-.1,0-.2,0-.2-.1v-.4h0l.1-.1h0a1.00729,1.00729,0,0,1-.3.1h-.1v-.1l-.1-.1h0m.1,0h0c0-.1.1-.2,0-.2h0v-.1h0v-.2c0-.1.1-.1.1-.2h0l.1-.1h0c.1,0,.1.1.2.1h0a.13851.13851,0,0,1,.2,0h.2c.1,0,0-.1.1-.1s0-.1,0-.1.1-.2.2-.2h.5a.09794.09794,0,0,1,.1-.1l.2-.2a.09794.09794,0,0,1,.1-.1Zm6.7-3.2a.09794.09794,0,0,1-.1.1s-.2,0-.1.1h0v.1l-.1.1a.73473.73473,0,0,1-.2-.6c.1,0,0,.1.1.1s0-.1,0-.2-.1-.1-.1-.2h.4c.1.1,0,.2.1.4-.1-.1-.1,0,0,.1Zm-1.3.2c.1-.1.2-.1.2-.2-.1,0-.1,0-.2-.1h-.2c-.2-.1-.1-.1,0-.2V145h0v-.1h.1a.09794.09794,0,0,1,.1.1c.1.1.2,0,.2.1v.2h.3v-.1c.1.1,0,.3-.1.4s-.1.2-.2.3l-.1.1h0a.36737.36737,0,0,0-.1-.3h0v0Zm-2,.1h0c.1-.1.1-.1.2-.1h.1a.09794.09794,0,0,1,.1-.1h.1a.09794.09794,0,0,1,.1-.1h.1l.1-.1h0v-.1h.1v.1h0c0,.1,0,.1-.1.1h-.1c-.1,0-.2,0-.2.1s0,.1-.1.1h-.1c-.1,0-.1,0-.1.1h-.4v-.1h0l.2.1Zm-1.7,1.6Zm-2.7,3a.09794.09794,0,0,0,.1.1h.2c.1,0,.1,0,.1.1a.09794.09794,0,0,0,.1.1h.2a.60123.60123,0,0,1,.4.1c.1,0,.1,0,.1-.1s0,0,.1,0,0,0,0,.1a.09794.09794,0,0,0,.1.1h.2c.1,0,.1.1.2.1h.5s.2,0,.2.1,0,.1-.1.1,0,.1-.1.1-.2-.1-.2,0,.1.1.2.1a.36736.36736,0,0,1,.3.1.09794.09794,0,0,0,.1.1.34918.34918,0,0,0,.2.1.34914.34914,0,0,1,.2.1v.1h-.5c-.1,0-.2,0-.2-.1l-.1-.1h-.1c-.1,0-.2,0-.2-.1l-.1-.1h-.2c-.1,0-.1,0-.2-.1l-.1-.1-.5-.2h-.5c-.1,0-.2-.1-.3-.1a.36737.36737,0,0,1-.3-.1c-.1,0-.1-.1-.1-.2s-.2-.1-.3-.1-.1,0-.1-.1,0-.1.1-.1h.1v-.1c0-.1.1,0,.1,0v-.1h.3c-.1.2.1.1.1.2Zm15.4-20.6Zm-7.3,8.1h.2v-.1h0c.1,0,.2,0,.2-.1h.2c.1,0,0-.1.1-.1h.9c.1,0,.2.1.2,0h0s-.1-.1,0-.1h.1v-.1h0c0-.1,0-.1.1-.1h.1v.2h.4v-.1h.1v-.2h0v-.1h0c-.1-.1,0-.1,0-.2s-.2-.2-.2-.3l-.1-.1h0s-.1-.1,0-.1h0a.09794.09794,0,0,1,.1-.1h-.2c-.1,0-.2,0-.2-.1h0a.09794.09794,0,0,0-.1-.1h0c-.1-.1-.1-.1,0-.2s0-.1.1-.1h.1c.2-.1.1-.2.1-.3h0v-.1l-.1-.1-.1-.1a.09794.09794,0,0,1-.1-.1.36737.36737,0,0,1,.3.1l.2.2.1.1.6.3h.3c.1,0,0,.2.1.1l.1-.2h.2l-.1.1a.09794.09794,0,0,1-.1.1h0c0,.1.2.2,0,.2-.2.1-.2,0-.3,0s0,.1-.1.1,0,.1,0,.1a.09794.09794,0,0,1-.1.1c-.1,0-.2-.1-.3-.2s-.1,0-.1-.1h-.4l.1.1.1.1h.1v.1h.2l.1.1v-.6l.1.1h0l.2.2.1.1.2.2v.1h0a.13851.13851,0,0,1,0,.2h0c.1.1-.1.1-.1.1h0l.1.1h0v.3h0v.1s.2.2.1.3h0v.1h-.1c-.1,0-.3-.1-.3,0h-.5c-.1,0-.2,0-.2-.1,0,.1-.2.2-.2.3h-.2c-.1,0-.1-.1-.2-.1s0-.2-.2-.2h0v.2c0,.1-.1.1-.2,0h-.1a.09794.09794,0,0,0-.1.1h-.1l-.4-.1v-.1l-.1.1v.2c0,.1,0,.3-.3.2h0a.09794.09794,0,0,1-.1-.1.35353.35353,0,0,0-.3-.3h0l-.1-.1v-.1C627,137.6,627,137.9,627.2,137.9Zm-10.8,8.9.2.1c.1,0,.1.1.2.1,0,.1.1.1.1.2v.2l.1.1.1.1h.1l.1.1.3.2.1.1.1.1v.4c0,.1.1.1.2.1s.1.2.1.2c0,.1.1.2.2.3s.4.1.4.3v.1h-.1c-.1,0,0,0,0,.1h0v.1s0,.3-.1.4-.1.1-.2.1h-.4v-.1c0-.1-.2-.1-.3-.2s-.2-.3-.3-.4c0-.1-.1-.1-.1-.2a829303603048.7625,829303603048.7625,0,0,1-.2-.2v-.2a.21508.21508,0,0,0-.2-.2.09794.09794,0,0,1-.1-.1v-.4h0a.09794.09794,0,0,0-.1-.1l-.1-.1v-.2c0-.1-.1-.2-.1-.3-.1-.1-.2-.2-.3-.2s-.1-.1-.2-.1h0V147h0l-.1-.1-.1-.1a.09794.09794,0,0,1-.1-.1l-.2-.1-.1-.1-.1-.1v-.2a.1.1,0,1,1,.2,0c.1,0,.1.1.2.1h.3c.1,0,.2,0,.2.1h.1v.1l.1.1c0,.1.1.1.1.2Zm-5-6Zm-2.4,4h0v-.2h0v-.2h.4a.09794.09794,0,0,0,.1.1h0l.1.1c0,.1.1.1.1.2a.09794.09794,0,0,0,.1.1h.1c.1.1,0,.1.1.2s0,0,0,.1,0,.1-.1.2h-.5a.09794.09794,0,0,1-.1-.1v-.1h0a.13851.13851,0,0,1,0-.2h0c-.4-.2-.3-.2-.3-.2Zm14.8,7.7a.1875.1875,0,0,1-.3,0h0a.30971.30971,0,0,1-.2-.1h0l-.1-.1v-.1h0a.60123.60123,0,0,1,.4.1l.1.1h0v.2Zm.7-.4h-.3s0-.1-.1,0h-.3a.36736.36736,0,0,1-.3-.1c-.1-.1-.2-.1,0-.2h.3a.30971.30971,0,0,1,.2.1h0a.36737.36737,0,0,0,.3-.1h.4a.90151.90151,0,0,0,.5.1h.2c0,.1-.1.1-.2.1h-.4c-.1,0-.1-.1-.2,0s0,.1-.1.1Zm1.8.2h-1.5a.09794.09794,0,0,1,.1-.1c.1,0,0-.1.1-.1h0l.1-.1h.1a.30972.30972,0,0,0,.2-.1h.6c.1,0,.2,0,.2.1Zm.5-2.6v-.1c0-.1.1,0,.1,0h0v-.2h0l-.1-.1c0-.1.1-.2.1-.3h0a.09793.09793,0,0,1,.1-.1c.1,0,0-.1.1-.1h0c.2,0,0,.1,0,.2v.1h.1c.1,0,.1.1,0,.2h0s-.1,0,0,.1.1.1,0,.1h-.1c-.2,0-.2.1-.2.1h0v.1h0c0,.1-.1.1-.1,0Zm1.3,1.2h-.2a.09794.09794,0,0,1-.1-.1h0a.09794.09794,0,0,1-.1-.1m-.1,0H627a.09794.09794,0,0,1-.1-.1h0c0-.1,0-.1.1-.1h0c.2-.1.4,0,.6,0h0a.09794.09794,0,0,1,.1.1c0,.1.2,0,.2.1v.1h0v.1h0Zm-1.8-1.8Zm0,0Zm0,0Z"/><path class="cls-66" d="M639,141v3.1s0,.3-.1.4v.1a.75592.75592,0,0,1-.1.4v.1l-.1.4v.1a.36739.36739,0,0,1-.1.3c-.1.1,0,.1,0,.1v.2l-.1.3a8.44684,8.44684,0,0,1-.5,1.7v.2l-.1.2-.2.4-.1.3-.1.2-.1.2-.1.2-.1.2-.1.2-.1.4-.1.2-.1.3-.1.1-.2.3-.2.3a4.348,4.348,0,0,0-.4.7,10.54016,10.54016,0,0,1-.7,1.1l-.2.1-.2.2-.2.3-.2.2-.2.3v.2l-.5.6c-.3.4-.7.7-1,1.1l-.2.2-.2.1-.1.1a20.61873,20.61873,0,0,1-6.8,4.1l-.7.3-.2.1-.7.2-.3.1-.3.1-.3.1-.3.1-.4.1-.5.1-.4.1h-.2l-.3.1h-.1l-.5.1a20.67917,20.67917,0,0,1-3.5.3h-3.4l-.4-.1h-.1l-.4-.1h-.1l-.4-.1-.3-.1h-.2l-.4-.1h-.2l-.2-.1h-.2l-.5-.6h-.2l-.2-.1H609l-.4-.1H608l-.1-.1-.2-.1h-.1l-.3-.6h-.1l-.3-.1-.1-.1-.1-.1h-.1l-.2-.1h-.2l-.1-.1-.3-.2h0l-.3-.2h0l-.3-.2h0l-.2-.1v.1l-.1-.1-.1-.1h-.1l-.3-.2-.1-.1h-.1l-.2-.1h0l-.1-.2-.2-.1-.1-.1h-.1l-.2-.1-.2-.2-.1-.2-.2-.1-.2-.2-.1-.1h0a22.3,22.3,0,0,0,20.7-6l.1-.1c.4-.4.7-.8,1.1-1.2l.5-.5.3-.4.2-.3.2-.3h0l.2-.2a8.636,8.636,0,0,0,1-1.6,19.77438,19.77438,0,0,0,2.7-7.8c.1-.5.1-.9.2-1.4v-3.4a9.85239,9.85239,0,0,0-.2-1.7c0-.3-.1-.5-.1-.8a24.543,24.543,0,0,0-.8-2.9c-.1-.2-.1-.4-.2-.6a7.74064,7.74064,0,0,0-.7-1.6l-.1-.2h0c-.2-.5-.5-.9-.7-1.4h0l-.1-.1h0l-.1-.2h0a28.31423,28.31423,0,0,0-2-2.8c-.5-.6-1-1.1-1.5-1.6-.5-.4-.9-.9-1.4-1.3l.4.1.4.1.3.1h.1l.7.3h.2l.3.1h.2l.2.1h.1l.2.1.2.1.4.2h0l.3.1h0l.3.2h0l.2.1.2.1h.1V121h0l.1.1.3.1.3.1h.1l.3.2h0l.3.2h0l.3.2.3.1h.1l.1.1.2.2h0l.2.1.1.1h0l.1.1h0l.1.1h0l.1.1h0l.1.1h0l.4.1.4.4.2.2.3.3.2.1.2.2.1.1.2.2.2.2h.1l.2.2.3.3.6.6.2.3.2.3h0l.2.3.2.3.5.6.2.3.1.1.6.9.1.1.1.1.1.1.2.3v.2l.2.3v.1a5.73615,5.73615,0,0,0,.4.7l.1.1v.1l.1.1.1.2h0l.1.1v.1l.1.1v.2l.1.2.1.2.1.3.1.2v.1l.2.4v.1h0l.1.3.1.2v.1l.1.3.1.2v.1h0v.2l.1.3v.1h0v.1h0l.1.3h0l.1.3v.8a.75592.75592,0,0,0,.1.4h0a.60128.60128,0,0,0,.1.4v.1a3.40193,3.40193,0,0,1,.1,1h0v.1h0v.4A8.35174,8.35174,0,0,1,639,141Z"/><path class="cls-65" d="M608.2,123a19.67111,19.67111,0,0,0-11.3,21,19.83112,19.83112,0,0,1,14.2-18.9C610.1,124.4,609.2,123.7,608.2,123Z"/><path class="cls-67" d="M611.5,118.8a21.13168,21.13168,0,0,0-16,19.9,21.23218,21.23218,0,0,1,18.6-17.1C613.2,120.7,612.4,119.7,611.5,118.8Z"/><text class="cls-68" transform="translate(597.6787 146.3385)">NEM</text><text class="cls-69" transform="translate(647.0073 151.3383)">HOA L </text></g></svg>