<svg id="Layer_1" data-name="Layer 1" xmlns="http://www.w3.org/2000/svg" xmlns:xlink="http://www.w3.org/1999/xlink" viewBox="0 0 150 150"><defs><style>.cls-1,.cls-10,.cls-11,.cls-12,.cls-13,.cls-14,.cls-15,.cls-16,.cls-18,.cls-19,.cls-2,.cls-20,.cls-21,.cls-22,.cls-23,.cls-24,.cls-25,.cls-26,.cls-27,.cls-28,.cls-29,.cls-3,.cls-30,.cls-31,.cls-32,.cls-33,.cls-4,.cls-5,.cls-6,.cls-7,.cls-8,.cls-9{fill-rule:evenodd;}.cls-1{fill:url(#linear-gradient);}.cls-2{fill:url(#linear-gradient-2);}.cls-3{fill:#f9917a;}.cls-4{fill:url(#linear-gradient-3);}.cls-5{fill:url(#linear-gradient-4);}.cls-6{fill:url(#linear-gradient-5);}.cls-7{fill:url(#linear-gradient-6);}.cls-8{fill:url(#linear-gradient-7);}.cls-9{fill:url(#linear-gradient-8);}.cls-10{fill:url(#linear-gradient-9);}.cls-11{fill:url(#linear-gradient-10);}.cls-12{fill:url(#linear-gradient-11);}.cls-13{fill:url(#linear-gradient-12);}.cls-14{fill:url(#linear-gradient-13);}.cls-15{fill:url(#linear-gradient-14);}.cls-16{fill:url(#linear-gradient-15);}.cls-17{fill:none;}.cls-18{fill:url(#linear-gradient-16);}.cls-19{fill:url(#linear-gradient-17);}.cls-20{fill:url(#linear-gradient-18);}.cls-21{fill:url(#linear-gradient-19);}.cls-22{fill:#cdcdcd;}.cls-23{fill:url(#linear-gradient-20);}.cls-24{fill:url(#linear-gradient-21);}.cls-25{fill:url(#linear-gradient-22);}.cls-26{fill:url(#linear-gradient-23);}.cls-27{fill:url(#linear-gradient-24);}.cls-28{fill:url(#linear-gradient-25);}.cls-29{fill:#fff;}.cls-30{fill:#bbf9f9;}.cls-31{fill:url(#linear-gradient-26);}.cls-32{fill:url(#linear-gradient-27);}.cls-33{fill:url(#linear-gradient-28);}</style><linearGradient id="linear-gradient" x1="-923.69" y1="1075.12" x2="-923.6" y2="1075.12" gradientTransform="matrix(-51.21, 568.13, 568.13, 51.21, -657988.93, 469782.05)" gradientUnits="userSpaceOnUse"><stop offset="0" stop-color="#93e0ba"/><stop offset="1" stop-color="#54bc9e"/></linearGradient><linearGradient id="linear-gradient-2" x1="-923.8" y1="1074.89" x2="-923.71" y2="1074.89" gradientTransform="matrix(-35.32, 595.02, 595.02, 35.32, -672075.06, 511783.88)" gradientUnits="userSpaceOnUse"><stop offset="0" stop-color="#6bd7a7"/><stop offset="1" stop-color="#1daa91"/></linearGradient><linearGradient id="linear-gradient-3" x1="-923.88" y1="1075.26" x2="-923.79" y2="1075.26" gradientTransform="matrix(4.74, 431.14, 333.9, -6.12, -354547.59, 404978.72)" gradientUnits="userSpaceOnUse"><stop offset="0" stop-color="#d0c6e1"/><stop offset="0.47" stop-color="#eee8f7"/><stop offset="1" stop-color="#f7f2fe"/></linearGradient><linearGradient id="linear-gradient-4" x1="-923.07" y1="1071.23" x2="-922.98" y2="1071.28" gradientTransform="matrix(29.96, 59.82, 35.13, -51.01, -9893.26, 109919.32)" gradientUnits="userSpaceOnUse"><stop offset="0" stop-color="#ffcaaf"/><stop offset="1" stop-color="#ff9d87"/></linearGradient><linearGradient id="linear-gradient-5" x1="-921.19" y1="1072.7" x2="-921.1" y2="1072.7" gradientTransform="matrix(55.75, 84.25, 84.25, -55.75, -38937.5, 137450.48)" gradientUnits="userSpaceOnUse"><stop offset="0" stop-color="#4e8e9e"/><stop offset="1" stop-color="#28465d"/></linearGradient><linearGradient id="linear-gradient-6" x1="-922.7" y1="1074.39" x2="-922.62" y2="1074.39" gradientTransform="matrix(133.19, 233.41, 233.41, -133.19, -127780.66, 358489)" xlink:href="#linear-gradient-5"/><linearGradient id="linear-gradient-7" x1="-923.64" y1="1074.82" x2="-923.56" y2="1074.82" gradientTransform="matrix(249.2, 221.54, 221.54, -249.2, -7860.61, 472510.97)" xlink:href="#linear-gradient-4"/><linearGradient id="linear-gradient-8" x1="-923.13" y1="1077.19" x2="-923.05" y2="1077.19" gradientTransform="matrix(4.4, -248.69, -248.69, -4.4, 272046.68, -224731.9)" xlink:href="#linear-gradient-5"/><linearGradient id="linear-gradient-9" x1="-923.78" y1="1079.02" x2="-923.69" y2="1079.02" gradientTransform="matrix(1.96, -97.72, -97.72, -1.96, 107354.65, -88068.62)" xlink:href="#linear-gradient-5"/><linearGradient id="linear-gradient-10" x1="-922.87" y1="1073.8" x2="-922.79" y2="1073.8" gradientTransform="matrix(2.09, 104.61, 146.98, -1.49, -155795.68, 98205.6)" xlink:href="#linear-gradient-3"/><linearGradient id="linear-gradient-11" x1="-922.85" y1="1073.54" x2="-922.76" y2="1073.54" gradientTransform="matrix(1.47, 92.65, 103.23, -1.32, -109369.08, 86986.99)" xlink:href="#linear-gradient-3"/><linearGradient id="linear-gradient-12" x1="-923.88" y1="1074.91" x2="-923.8" y2="1074.91" gradientTransform="matrix(85.42, 419.41, 380.61, -94.13, -330090.13, 488736.12)" xlink:href="#linear-gradient-5"/><linearGradient id="linear-gradient-13" x1="-922.76" y1="1076.53" x2="-922.68" y2="1076.53" gradientTransform="matrix(164.02, -269.11, -269.11, -164.02, 441122.03, -71631.31)" xlink:href="#linear-gradient-5"/><linearGradient id="linear-gradient-14" x1="-923.87" y1="1075.02" x2="-923.79" y2="1075.08" gradientTransform="matrix(40.49, 399.9, 180.43, -89.75, -156464.69, 466019.83)" xlink:href="#linear-gradient-5"/><linearGradient id="linear-gradient-15" x1="-923.38" y1="1074.91" x2="-923.3" y2="1074.91" gradientTransform="matrix(-33.05, 360.2, 360.2, 33.05, -417596.46, 297137.55)" xlink:href="#linear-gradient-5"/><linearGradient id="linear-gradient-16" x1="-932.72" y1="1081.58" x2="-932.64" y2="1081.53" gradientTransform="matrix(37.15, 21.21, 43.56, -18.09, -12384.17, 39448.32)" xlink:href="#linear-gradient-4"/><linearGradient id="linear-gradient-17" x1="-925.32" y1="1076.86" x2="-925.24" y2="1076.86" gradientTransform="matrix(161.24, 98.16, 98.16, -161.24, 43581.68, 264569.92)" xlink:href="#linear-gradient-4"/><linearGradient id="linear-gradient-18" x1="-923.14" y1="1076.97" x2="-923.06" y2="1076.97" gradientTransform="matrix(66.64, -512, -512, -66.64, 613032.32, -400755.69)" xlink:href="#linear-gradient-5"/><linearGradient id="linear-gradient-19" x1="-923.48" y1="1075.42" x2="-923.39" y2="1075.42" gradientTransform="matrix(-9.08, 367.44, 367.44, 9.08, -403441.72, 329611.38)" xlink:href="#linear-gradient-5"/><linearGradient id="linear-gradient-20" x1="-926.28" y1="1078.19" x2="-926.19" y2="1078.19" gradientTransform="matrix(-92.05, 132.21, 132.21, 92.05, -227789.08, 23303.23)" xlink:href="#linear-gradient-2"/><linearGradient id="linear-gradient-21" x1="-921.97" y1="1080.91" x2="-921.88" y2="1080.91" gradientTransform="matrix(71.53, 116.19, 116.19, -71.53, -59641, 184534.27)" xlink:href="#linear-gradient-2"/><linearGradient id="linear-gradient-22" x1="-924.03" y1="1079.94" x2="-923.94" y2="1079.94" gradientTransform="matrix(2.38, 156.21, 156.21, -2.38, -166485.36, 146996.02)" xlink:href="#linear-gradient-2"/><linearGradient id="linear-gradient-23" x1="-925.13" y1="1078.41" x2="-925.04" y2="1078.41" gradientTransform="matrix(0, 218.41, 253.06, 0, -272882.08, 202143.05)" gradientUnits="userSpaceOnUse"><stop offset="0" stop-color="#f1f9fd"/><stop offset="1" stop-color="#cdcdcd"/></linearGradient><linearGradient id="linear-gradient-24" x1="-924.14" y1="1076.33" x2="-924.14" y2="1076.33" gradientTransform="matrix(118.26, 441.35, 677.4, 0, -619775.46, 407945.65)" xlink:href="#linear-gradient-23"/><linearGradient id="linear-gradient-25" x1="-934.23" y1="1076.14" x2="-934.14" y2="1076.14" gradientTransform="matrix(0, 35.42, 706.39, 0, -760119.62, 33203.27)" xlink:href="#linear-gradient-23"/><linearGradient id="linear-gradient-26" x1="-923.62" y1="1077.93" x2="-923.54" y2="1077.93" gradientTransform="matrix(-149.29, 51.91, 51.91, 149.29, -193771.05, -112942.3)" xlink:href="#linear-gradient-5"/><linearGradient id="linear-gradient-27" x1="-923.62" y1="1077.97" x2="-923.54" y2="1077.97" gradientTransform="matrix(-149.29, 51.91, 51.91, 149.29, -193771.05, -112942.3)" xlink:href="#linear-gradient-5"/><linearGradient id="linear-gradient-28" x1="-923.62" y1="1078" x2="-923.54" y2="1078" gradientTransform="matrix(-149.29, 51.91, 51.91, 149.29, -193771.05, -112942.3)" xlink:href="#linear-gradient-5"/></defs><title>icontim</title><g id="orang"><path class="cls-1" d="M87.85,71.23a5.34,5.34,0,0,1,5.32-4.87h44.88l-4.32,49.42H84l3.9-44.55Z"/><path class="cls-2" d="M142.65,71.67a4.89,4.89,0,0,0-4.87-5.32h0a4.3,4.3,0,0,0-4.28,3.92l-4,45.5h9.28l3.86-44.1Z"/><path class="cls-3" d="M96.35,65a10.23,10.23,0,0,1,0,3.94c-.45,1.77,4.81,5.56,4.81,5.56l8.29-7.88a25.57,25.57,0,0,1-.26-8.31c.54-5.81-10,1.79-10,1.79L96.35,65Z"/><path class="cls-4" d="M93.93,113.25H106l4-46.2-8.54,3.13-.33.56-.47-.56-5.13-1.25-4.36,34.72,2.74,9.61Z"/><path class="cls-5" d="M88.39,51.17s-.75-1.27-1.71-1.06-1.49,1.71-1,3,1.65,3.89,2.55,4a2.39,2.39,0,0,0,1.21,0S89.71,55.22,88.39,51.17Z"/><path class="cls-6" d="M88.54,52.13s-2.34-.73-3.25-4.78S83,39.13,87.61,36.18h4.57L90.7,41,88.54,52.13Z"/><path class="cls-7" d="M90.7,41s-4-3.35-3.09-8,6.15-5.56,11.62-6.39,9.25.67,11.78,4.59,6.64,10.41,5.69,13.58l-1.94,6.52c-.83,3.19-3.27,5.17-5.17,6.75l-.55-5.3L92.18,44.16,90.7,41Z"/><path class="cls-8" d="M88.09,49.05s1.24,9.77,2.6,11.56,5.76,5.85,7.17,5.9,9.36-3.31,10.44-4.87S110,56,110,56s1.17,1.34,2.16.49,3.65-2.29,2.71-4.4-2.67-3.11-4.15-.29a24.55,24.55,0,0,1-2.39-4.2s-8,1.41-17.62-6.59a20.89,20.89,0,0,1-2.6,8Z"/><path class="cls-9" d="M99.89,74.66l-3.51,29.1,3.51,7.59,3.42-7.59-.52-30.38Z"/><path class="cls-10" d="M98.53,73.06s.93,2,1.78,2.32a3.14,3.14,0,0,0,1.7,0l2.26-1.85-.78-3.22a7.39,7.39,0,0,1-4.35.42C96.32,70.31,98.53,73.06,98.53,73.06Z"/><path class="cls-11" d="M101.16,70.74s.9-.62,1.73.74,3.06,5.87,3.06,5.87l3.51-6.61-.15-4.6c.7.7-7.39,3.74-8.14,4.6Z"/><path class="cls-12" d="M101,70.84c-.08-.24-.08-.51-.51-.71-1.45-.65-3.69-1.24-4.16-2.49l-1,1.63L96,77.34l3.76-6.4a.38.38,0,0,1,.37-.19Z"/><path class="cls-13" d="M125.57,76.78s-.56-2.19-14.66-9.36l-1.59-.65L106,101.95v11.31l12.34-1.9,7.23-34.57Z"/><path class="cls-14" d="M86.52,72.92,72,109.32l8.65,3.15,7.89-18.28,2.87-18.67Z"/><path class="cls-15" d="M93.93,101.74v11.52H87.11l-.59-40.34,9.28-4-1.86,32.81Z"/><path class="cls-16" d="M109.22,65.34c0,3.87-2.29,25.6-3.21,36.4l7-19.52-2.89-3,2.89.41-2.24-13-1.56-1.31Z"/><path class="cls-17" d="M114.07,84.24s6.88-8,11.5-7.46"/><path class="cls-18" d="M84.79,105.8a19,19,0,0,0-2.91.38c-.7.24-2,.49-2,1.12s1.5,1.36,2.78.85A5.41,5.41,0,0,0,84.79,105.8Z"/><path class="cls-19" d="M96.32,106.18A19.74,19.74,0,0,0,87,104.92c-2.87.36-9.65,6.76-9.65,6.76s6.82,3,9.2,1.92,2.59-2,4.09-1.92,1.1,1.48,2.91,1.4,4.33,0,5.9-.68-.87-5.38-3.1-6.22Z"/><path class="cls-20" d="M125.57,76.78c2.12,2-.7,24.49-2.73,34.78a4.78,4.78,0,0,1-5,3.83l-21-1.56s1.08-5.6-2.06-8.77a26.17,26.17,0,0,1,8.12,0,49.47,49.47,0,0,0,7.49.69,2.78,2.78,0,0,0,2.87-2.76c0-4.81.17-14.49.83-18.74.7-4.52,9.11-9.72,11.5-7.46Z"/><path class="cls-21" d="M96,68.23l-1.2.7L89.6,76.36l2.8,2.43-2.8,2.33,4.33,20.6C95,88,95.43,73.5,96,68.23Z"/><path class="cls-22" d="M72.28,83a.92.92,0,0,1,.89-1.15h0a.92.92,0,0,1,.89.68l8.24,30.77H80.4L72.28,83Z"/></g><g id="vase"><path class="cls-23" d="M25.53,88.63c-2-.2-5.44,2.25-7.9,5.92s-3.21,7.44-2,8.86c2,.2,5.44-2.25,7.9-5.92s3.21-7.44,2-8.86Z"/><path class="cls-24" d="M5,88.63c-1.22,1.43-.47,5.19,2,8.86s5.86,6.12,7.9,5.92c1.22-1.43.47-5.19-2-8.86S7,88.43,5,88.63Z"/><path class="cls-25" d="M15.27,81.81c-2.21.84-4,5-4,10s1.79,9.19,4,10c2.21-.84,4-5,4-10S17.48,82.64,15.27,81.81Z"/><path class="cls-26" d="M7,101a.92.92,0,0,1,.92-.92H22.65a.92.92,0,0,1,.92.92v.3a.27.27,0,0,1,0,0l-2,13.19a1.31,1.31,0,0,1-1.29,1.11H10.31A1.31,1.31,0,0,1,9,114.58L7,101.38a.26.26,0,0,1,0,0V101Z"/></g><g id="macbook"><path class="cls-27" d="M74.21,83a1.6,1.6,0,0,0-1.55-1.19H31.56a1.61,1.61,0,0,0-1.55,2l7.31,27.27a2.9,2.9,0,0,0,2.8,2.15H82.32Z"/><path class="cls-28" d="M85.9,113.25H39.57v.87a1.65,1.65,0,0,0,1.65,1.65H85.9v-2.52Z"/><path class="cls-22" d="M82.32,113.25l24.89,1h0a1.55,1.55,0,0,1-1.55,1.55H84.47a2.16,2.16,0,0,1-2.16-2.16Z"/><path class="cls-29" d="M54,94A5.23,5.23,0,0,1,59,98.17a3.43,3.43,0,0,1-3.46,4.2,5.23,5.23,0,0,1-4.94-4.2A3.43,3.43,0,0,1,54,94Z"/></g><g id="text-baloon"><path class="cls-30" d="M37.55,49.27A13.31,13.31,0,0,1,50.85,36H64a13.3,13.3,0,1,1,0,26.6,11,11,0,0,0,5.31,6.36c-5.67-.86-9.45-3-11.28-6.36h-7.2A13.31,13.31,0,0,1,37.55,49.27Z"/><path class="cls-31" d="M59.23,44.86a.79.79,0,0,0-.79-.79H46.89a.79.79,0,0,0-.79.79h0a.79.79,0,0,0,.79.79H58.45a.79.79,0,0,0,.79-.79Z"/><path class="cls-32" d="M68.77,50.09A.79.79,0,0,0,68,49.3H46.89a.79.79,0,0,0-.79.79h0a.79.79,0,0,0,.79.79H68a.79.79,0,0,0,.79-.79h0Z"/><path class="cls-33" d="M62.69,55.31a.79.79,0,0,0-.79-.79h-15a.79.79,0,0,0-.79.79h0a.79.79,0,0,0,.79.79h15a.79.79,0,0,0,.79-.79Z"/></g></svg>