<svg id="Layer_1" data-name="Layer 1" xmlns="http://www.w3.org/2000/svg" xmlns:xlink="http://www.w3.org/1999/xlink" viewBox="0 0 150 150"><defs><style>.cls-1,.cls-11,.cls-12,.cls-14,.cls-15,.cls-16,.cls-17,.cls-18,.cls-19,.cls-2,.cls-20,.cls-21,.cls-22,.cls-23,.cls-24,.cls-25,.cls-26,.cls-27,.cls-28,.cls-29,.cls-30,.cls-31,.cls-32,.cls-33,.cls-34,.cls-35,.cls-36,.cls-37,.cls-38,.cls-39,.cls-4,.cls-40,.cls-41,.cls-42,.cls-43,.cls-44,.cls-45,.cls-46,.cls-47,.cls-48,.cls-49,.cls-5,.cls-50,.cls-51,.cls-52,.cls-53,.cls-54,.cls-55,.cls-56,.cls-57,.cls-58,.cls-59,.cls-6,.cls-60,.cls-8,.cls-9{fill-rule:evenodd;}.cls-1{fill:url(#linear-gradient);}.cls-2{fill:url(#linear-gradient-2);}.cls-3{fill:url(#linear-gradient-3);}.cls-4{fill:url(#linear-gradient-4);}.cls-5{fill:url(#linear-gradient-5);}.cls-6{fill:url(#linear-gradient-6);}.cls-7{fill:url(#linear-gradient-7);}.cls-8{fill:url(#linear-gradient-8);}.cls-9{fill:url(#linear-gradient-9);}.cls-10{fill:url(#linear-gradient-10);}.cls-11{fill:url(#linear-gradient-11);}.cls-12{fill:url(#linear-gradient-12);}.cls-13{fill:url(#linear-gradient-13);}.cls-14{fill:url(#linear-gradient-14);}.cls-15{fill:url(#linear-gradient-15);}.cls-16{fill:#70522c;fill-opacity:0.55;}.cls-17{fill:url(#linear-gradient-16);}.cls-18{fill:url(#linear-gradient-17);}.cls-19{fill:#e87965;}.cls-20{fill:url(#linear-gradient-18);}.cls-21{fill:url(#linear-gradient-19);}.cls-22{fill:url(#linear-gradient-20);}.cls-23{fill:url(#linear-gradient-21);}.cls-24{fill:url(#linear-gradient-22);}.cls-25{fill:url(#linear-gradient-23);}.cls-26{fill:url(#linear-gradient-24);}.cls-27{fill:url(#linear-gradient-25);}.cls-28{fill:url(#linear-gradient-26);}.cls-29{fill:url(#linear-gradient-27);}.cls-30{fill:url(#linear-gradient-28);}.cls-31{fill:url(#linear-gradient-29);}.cls-32{fill:url(#linear-gradient-30);}.cls-33{fill:url(#linear-gradient-31);}.cls-34{fill:url(#linear-gradient-32);}.cls-35{fill:url(#linear-gradient-33);}.cls-36{fill:url(#linear-gradient-34);}.cls-37{fill:url(#linear-gradient-35);}.cls-38{fill:url(#linear-gradient-36);}.cls-39{fill:url(#linear-gradient-37);}.cls-40{fill:url(#linear-gradient-38);}.cls-41{fill:url(#linear-gradient-39);}.cls-42{fill:url(#linear-gradient-40);}.cls-43{fill:url(#linear-gradient-41);}.cls-44{fill:url(#linear-gradient-42);}.cls-45{fill:url(#linear-gradient-43);}.cls-46{fill:url(#linear-gradient-44);}.cls-47{fill:url(#linear-gradient-45);}.cls-48{fill:url(#linear-gradient-46);}.cls-49{fill:url(#linear-gradient-47);}.cls-50{fill:url(#linear-gradient-48);}.cls-51{fill:url(#linear-gradient-49);}.cls-52{fill:url(#linear-gradient-50);}.cls-53{fill:url(#linear-gradient-51);}.cls-54{fill:url(#linear-gradient-52);}.cls-55{fill:url(#linear-gradient-53);}.cls-56{fill:url(#linear-gradient-54);}.cls-57{fill:url(#linear-gradient-55);}.cls-58{fill:url(#linear-gradient-56);}.cls-59{fill:#bbf9f9;}.cls-60{fill:#32546d;}</style><linearGradient id="linear-gradient" x1="-1084.43" y1="1077.83" x2="-1084.33" y2="1077.83" gradientTransform="matrix(-294.64, -285.38, -285.38, 294.64, -11880.65, -626904.38)" gradientUnits="userSpaceOnUse"><stop offset="0" stop-color="#072e28"/><stop offset="0.54" stop-color="#238c5e"/><stop offset="1" stop-color="#3fa863"/></linearGradient><linearGradient id="linear-gradient-2" x1="-1084.19" y1="1075.19" x2="-1084.12" y2="1075.19" gradientTransform="matrix(-113.89, -355.28, -355.28, 113.89, 258627.83, -507506.14)" xlink:href="#linear-gradient"/><linearGradient id="linear-gradient-3" x1="-1084.32" y1="1075.54" x2="-1084.25" y2="1075.54" gradientTransform="matrix(0, 281.27, 281.27, 0, -302392.31, 305007.34)" gradientUnits="userSpaceOnUse"><stop offset="0" stop-color="#caf1ff"/><stop offset="1" stop-color="#3ccbff"/></linearGradient><linearGradient id="linear-gradient-4" x1="-1082.03" y1="1072.2" x2="-1081.95" y2="1072.2" gradientTransform="matrix(-99.83, 0, 0, 113.56, -107892.98, -121638.5)" gradientUnits="userSpaceOnUse"><stop offset="0" stop-color="#15627f"/><stop offset="1" stop-color="#063c50"/></linearGradient><linearGradient id="linear-gradient-5" x1="-1082.03" y1="1072.28" x2="-1081.95" y2="1072.28" xlink:href="#linear-gradient-4"/><linearGradient id="linear-gradient-6" x1="-1082.03" y1="1072.13" x2="-1081.95" y2="1072.13" xlink:href="#linear-gradient-4"/><linearGradient id="linear-gradient-7" x1="-1077.99" y1="1076.16" x2="-1077.91" y2="1076.16" gradientTransform="matrix(-49.91, 0, 0, 3622.84, -53683.91, -3898673.62)" xlink:href="#linear-gradient-4"/><linearGradient id="linear-gradient-8" x1="-1070.31" y1="1092.72" x2="-1070.23" y2="1092.72" gradientTransform="matrix(-27.2, 4.91, 4.91, 27.2, -34351.31, -24432.59)" xlink:href="#linear-gradient-4"/><linearGradient id="linear-gradient-9" x1="-1068.16" y1="1098.61" x2="-1068.08" y2="1098.61" gradientTransform="matrix(-24.65, -0.72, -0.72, 24.65, -25422.25, -27816.87)" xlink:href="#linear-gradient-4"/><linearGradient id="linear-gradient-10" x1="-1067.47" y1="1064.91" x2="-1067.39" y2="1064.91" gradientTransform="matrix(0, 33.38, 33.38, 0, -35422.41, 35651.36)" gradientUnits="userSpaceOnUse"><stop offset="0" stop-color="#15627f"/><stop offset="0.2" stop-color="#0f536c"/><stop offset="0.42" stop-color="#094359"/><stop offset="1" stop-color="#063c50"/></linearGradient><linearGradient id="linear-gradient-11" x1="-1076.31" y1="1071.1" x2="-1076.23" y2="1071.1" gradientTransform="matrix(0, 68.55, 68.55, 0, -73301.44, 73797.17)" xlink:href="#linear-gradient-4"/><linearGradient id="linear-gradient-12" x1="-1074.35" y1="1070.49" x2="-1074.27" y2="1070.49" gradientTransform="matrix(0, 62.16, 62.16, 0, -66425.46, 66798.33)" xlink:href="#linear-gradient-4"/><linearGradient id="linear-gradient-13" x1="-1083.79" y1="1078.8" x2="-1083.71" y2="1078.8" gradientTransform="matrix(-176.41, 0, 0, 149.73, -191066.69, -161489.7)" xlink:href="#linear-gradient-4"/><linearGradient id="linear-gradient-14" x1="-1087.64" y1="1077.11" x2="-1087.56" y2="1077.11" gradientTransform="matrix(0, 380.07, 1327.44, 0, -1429725.78, 413493.57)" gradientUnits="userSpaceOnUse"><stop offset="0" stop-color="#d9f735"/><stop offset="1" stop-color="#6ea94f"/></linearGradient><linearGradient id="linear-gradient-15" x1="-1085.31" y1="1075.8" x2="-1085.23" y2="1075.8" gradientTransform="matrix(-332.46, -328.04, -328.04, 332.46, -7832.96, -713545.02)" gradientUnits="userSpaceOnUse"><stop offset="0" stop-color="#ffcc8e"/><stop offset="1" stop-color="#e68a43"/></linearGradient><linearGradient id="linear-gradient-16" x1="-1087.16" y1="1075.11" x2="-1087.08" y2="1075.1" gradientTransform="matrix(185.55, -120.43, -108.33, -206.29, 318268.71, 90888.17)" gradientUnits="userSpaceOnUse"><stop offset="0" stop-color="#264358"/><stop offset="1" stop-color="#588193"/></linearGradient><linearGradient id="linear-gradient-17" x1="-1091.41" y1="1071.75" x2="-1091.34" y2="1071.72" gradientTransform="matrix(30.4, -27.83, -17.75, -47.67, 52287.25, 20757.66)" xlink:href="#linear-gradient-16"/><linearGradient id="linear-gradient-18" x1="-1081.68" y1="1074.58" x2="-1081.6" y2="1074.59" gradientTransform="matrix(-31.32, -101.45, -78.82, 40.31, 50906.21, -152934.25)" gradientUnits="userSpaceOnUse"><stop offset="0" stop-color="#683957"/><stop offset="1" stop-color="#331c3c"/></linearGradient><linearGradient id="linear-gradient-19" x1="-1080.16" y1="1075.7" x2="-1080.08" y2="1075.68" gradientTransform="matrix(-58.6, -102.05, -147.46, 40.55, 95433.89, -153716.68)" xlink:href="#linear-gradient-18"/><linearGradient id="linear-gradient-20" x1="-1086.67" y1="1076.99" x2="-1086.59" y2="1076.99" gradientTransform="matrix(127.82, 591.1, 642.24, -117.64, -552699.77, 769117.84)" gradientUnits="userSpaceOnUse"><stop offset="0" stop-color="#253c4c"/><stop offset="1" stop-color="#315e72"/></linearGradient><linearGradient id="linear-gradient-21" x1="-1084.47" y1="1077.35" x2="-1084.39" y2="1077.36" gradientTransform="matrix(109.27, -37.36, -564.28, -7.23, 726521.17, -32636.94)" gradientUnits="userSpaceOnUse"><stop offset="0" stop-color="#f89f1e"/><stop offset="0.48" stop-color="#f08d16"/><stop offset="1" stop-color="#db5d00"/></linearGradient><linearGradient id="linear-gradient-22" x1="-1085.52" y1="1076.12" x2="-1085.44" y2="1076.16" gradientTransform="matrix(80.95, 171.71, 113.2, -122.8, -33854.06, 318610.65)" gradientUnits="userSpaceOnUse"><stop offset="0" stop-color="#e2f9ff"/><stop offset="1" stop-color="#b5cacf"/></linearGradient><linearGradient id="linear-gradient-23" x1="-1087.99" y1="1077.24" x2="-1087.92" y2="1077.24" gradientTransform="matrix(-31.1, -202.49, -213.78, 29.45, 196553.38, -251982.11)" gradientUnits="userSpaceOnUse"><stop offset="0" stop-color="#fe8c77"/><stop offset="1" stop-color="#fdcb9f"/></linearGradient><linearGradient id="linear-gradient-24" x1="-1089.34" y1="1076.84" x2="-1089.27" y2="1076.84" gradientTransform="matrix(92.67, -70.27, -70.27, -92.67, 176721.2, 23296.34)" xlink:href="#linear-gradient-23"/><linearGradient id="linear-gradient-25" x1="-1086.58" y1="1077.45" x2="-1086.5" y2="1077.45" gradientTransform="matrix(0, -273.56, -388.57, 0, 418767.89, -297170.58)" xlink:href="#linear-gradient-16"/><linearGradient id="linear-gradient-26" x1="-1086.58" y1="1076.63" x2="-1086.5" y2="1076.63" gradientTransform="matrix(25.17, -343.91, -343.91, -25.17, 397690.42, -346520.8)" xlink:href="#linear-gradient-16"/><linearGradient id="linear-gradient-27" x1="-1086.31" y1="1077.08" x2="-1086.23" y2="1077.07" gradientTransform="matrix(48.47, -331.29, -250.3, -64.16, 322331.35, -290704.15)" xlink:href="#linear-gradient-21"/><linearGradient id="linear-gradient-28" x1="-1086.33" y1="1076.83" x2="-1086.25" y2="1076.83" gradientTransform="matrix(-11.52, -481.89, -481.89, 11.52, 506476.55, -535813.9)" xlink:href="#linear-gradient-16"/><linearGradient id="linear-gradient-29" x1="-1087.17" y1="1077.06" x2="-1087.09" y2="1077.06" gradientTransform="matrix(-40.98, -212.18, -212.18, 40.98, 184072.74, -274750.78)" xlink:href="#linear-gradient-16"/><linearGradient id="linear-gradient-30" x1="-1091.86" y1="1075.98" x2="-1091.79" y2="1076" gradientTransform="matrix(27.12, -43.28, -140.04, -8.38, 180383.28, -38182.61)" xlink:href="#linear-gradient-21"/><linearGradient id="linear-gradient-31" x1="-1081.16" y1="1081.03" x2="-1081.08" y2="1081.03" gradientTransform="matrix(-26.11, 35.09, 35.09, 26.11, -66083.61, 9766.38)" xlink:href="#linear-gradient-22"/><linearGradient id="linear-gradient-32" x1="-1080.91" y1="1073.22" x2="-1080.83" y2="1073.22" gradientTransform="matrix(20.51, 39.32, 39.32, -20.51, -19939, 64572.84)" xlink:href="#linear-gradient-22"/><linearGradient id="linear-gradient-33" x1="-1086.67" y1="1076.09" x2="-1086.59" y2="1076.09" gradientTransform="matrix(89.09, -99.16, -99.16, -89.09, 203603.65, -11819.06)" xlink:href="#linear-gradient-23"/><linearGradient id="linear-gradient-34" x1="-1086.09" y1="1076.41" x2="-1086.01" y2="1076.41" gradientTransform="matrix(149.94, -149.67, -149.67, -149.94, 324034.38, -1088.34)" xlink:href="#linear-gradient-16"/><linearGradient id="linear-gradient-35" x1="-1086.45" y1="1077.24" x2="-1086.37" y2="1077.24" gradientTransform="matrix(-19.04, -382.32, -382.32, 19.04, 391261.86, -435814.8)" xlink:href="#linear-gradient-16"/><linearGradient id="linear-gradient-36" x1="-1087.28" y1="1077.47" x2="-1087.2" y2="1077.47" gradientTransform="matrix(-23.7, -191.61, -191.61, 23.7, 180776.95, -233810.18)" xlink:href="#linear-gradient-16"/><linearGradient id="linear-gradient-37" x1="-1085.22" y1="1074.9" x2="-1085.15" y2="1074.88" gradientTransform="matrix(199.69, -177.06, -116.58, -303.28, 342068.43, 133886.83)" xlink:href="#linear-gradient-16"/><linearGradient id="linear-gradient-38" x1="-1086.53" y1="1075.35" x2="-1086.45" y2="1075.35" gradientTransform="matrix(81.63, -116.09, -116.09, -81.63, 213607.83, -38286.76)" xlink:href="#linear-gradient-23"/><linearGradient id="linear-gradient-39" x1="-1085.27" y1="1076.21" x2="-1085.2" y2="1076.21" gradientTransform="matrix(202.89, -71.74, -71.74, -202.89, 297455.42, 140565.7)" xlink:href="#linear-gradient-16"/><linearGradient id="linear-gradient-40" x1="-1086.39" y1="1078.57" x2="-1086.31" y2="1078.57" gradientTransform="matrix(-146.05, 324.02, 324.02, 146.05, -508096.09, 194546.25)" xlink:href="#linear-gradient-16"/><linearGradient id="linear-gradient-41" x1="-1080.4" y1="1073.42" x2="-1080.33" y2="1073.4" gradientTransform="matrix(77.28, -68.44, -45.12, -117.24, 131956.81, 51972.55)" xlink:href="#linear-gradient-16"/><linearGradient id="linear-gradient-42" x1="-1086.55" y1="1080.92" x2="-1086.47" y2="1080.92" gradientTransform="matrix(-18.13, 140.29, 140.29, 18.13, -171303.18, 132913.1)" xlink:href="#linear-gradient-23"/><linearGradient id="linear-gradient-43" x1="-1090.15" y1="1074.09" x2="-1090.07" y2="1074.09" gradientTransform="matrix(-109.03, 80.13, 80.13, 109.03, -204847.55, -29621.99)" xlink:href="#linear-gradient-18"/><linearGradient id="linear-gradient-44" x1="-1090.55" y1="1075.22" x2="-1090.47" y2="1075.22" gradientTransform="matrix(-88.11, 119.27, 119.27, 88.11, -224255.88, 35452.42)" gradientUnits="userSpaceOnUse"><stop offset="0" stop-color="#826979"/><stop offset="1" stop-color="#3f2535"/></linearGradient><linearGradient id="linear-gradient-45" x1="-1086.64" y1="1077.61" x2="-1086.57" y2="1077.61" gradientTransform="matrix(112.87, 567.12, 567.12, -112.87, -488425.51, 737971.4)" xlink:href="#linear-gradient-20"/><linearGradient id="linear-gradient-46" x1="-1082.83" y1="1071.25" x2="-1082.76" y2="1071.25" gradientTransform="matrix(-44.65, -112.37, -112.37, 44.65, 72069.53, -169372.7)" xlink:href="#linear-gradient-18"/><linearGradient id="linear-gradient-47" x1="-1087.02" y1="1077.96" x2="-1086.94" y2="1077.96" gradientTransform="matrix(-51.8, 426.39, 426.39, 51.8, -515884.07, 407749.21)" xlink:href="#linear-gradient-20"/><linearGradient id="linear-gradient-48" x1="-1086.13" y1="1076.15" x2="-1086.06" y2="1076.15" gradientTransform="matrix(0, -499.35, -499.35, 0, 537428.06, -542269.68)" xlink:href="#linear-gradient-16"/><linearGradient id="linear-gradient-49" x1="-1085.17" y1="1079" x2="-1085.1" y2="1079" gradientTransform="matrix(0.41, 212.15, 212.15, -0.41, -228407.39, 230717.81)" xlink:href="#linear-gradient-22"/><linearGradient id="linear-gradient-50" x1="-1086.59" y1="1074.15" x2="-1086.51" y2="1074.15" gradientTransform="matrix(29.69, -148.38, -153.29, -28.73, 196962.67, -130292.7)" xlink:href="#linear-gradient-21"/><linearGradient id="linear-gradient-51" x1="-1091.49" y1="1073.17" x2="-1091.42" y2="1073.18" gradientTransform="matrix(29.71, -41.2, -153.42, -7.98, 197124.57, -36355.31)" xlink:href="#linear-gradient-21"/><linearGradient id="linear-gradient-52" x1="-1084.62" y1="1078.94" x2="-1084.54" y2="1078.94" gradientTransform="matrix(43.67, 202.45, 202.45, -43.67, -171019.17, 266748.32)" xlink:href="#linear-gradient-16"/><linearGradient id="linear-gradient-53" x1="-1085.6" y1="1078.93" x2="-1085.53" y2="1078.93" gradientTransform="matrix(-46.57, 212.15, 212.15, 46.57, -279397.2, 180113.47)" xlink:href="#linear-gradient-16"/><linearGradient id="linear-gradient-54" x1="-1084.71" y1="1088.78" x2="-1084.63" y2="1088.78" gradientTransform="matrix(-18.42, 40.61, 40.61, 18.42, -64145.76, 24045.72)" xlink:href="#linear-gradient-22"/><linearGradient id="linear-gradient-55" x1="-1074.74" y1="1080.89" x2="-1074.66" y2="1080.89" gradientTransform="matrix(23.17, 32.4, 32.4, -23.17, -10065.16, 59917.28)" xlink:href="#linear-gradient-22"/><linearGradient id="linear-gradient-56" x1="-1088.41" y1="1074.96" x2="-1088.34" y2="1074.96" gradientTransform="matrix(-15.52, -170.87, -170.87, 15.52, 166845.16, -202605.39)" xlink:href="#linear-gradient-23"/></defs><title>icontim</title><path class="cls-1" d="M58.94,141.27l-42.38,1.23a7,7,0,0,1-1.76-7.21c1.38-4.48,5.71-2.84,5.71-2.84s-2.39-2-2-3.94S23,128,23,128s-4.41-2.65-3.16-6.36a3.6,3.6,0,0,1,4.79-2.38s-3.29-3.72-1.31-5.74,6.52-.56,6.52-.56a6,6,0,0,1,1.48-7.4c3.79-3.36,7.46,1.33,7.46,1.33A2.42,2.42,0,0,1,40.18,104c1.9-.74,4.08,1.78,4.08,1.78l.88,1.87a50.31,50.31,0,0,0,.34,11.15c2.36,16,11.6,20.13,14.84,21.09l.29.62-1.68.71Z"/><path class="cls-2" d="M97,123.31a1.55,1.55,0,0,1,2.35-.57s-2.07-3.39.59-5.29a4.18,4.18,0,0,1,5.08.18s-.77-3,1.86-3.62,4.91,2.59,4.91,2.59-.71-4.24,2.51-4.5,4.11,3.6,4.11,3.6a2.78,2.78,0,0,1,3-2.15c2.58.13,2,2.83,2,2.83a2.31,2.31,0,0,1,2.95-.39c1.74,1,1.81,3.57,1.81,3.57a1.74,1.74,0,0,1,2.09-1.49c1.86.29,4.17,2.33,4.17,2.33l-4.8,9.11-3.34,2.07s-13.35,1-29.32-8.28Z"/><g id="lamp"><rect class="cls-3" x="116.44" y="24.39" width="9.53" height="17.54"/><path class="cls-4" d="M125.39,130.54h-8.34l1.11-14.41h6.12l1.11,14.41Z"/><path class="cls-5" d="M127.06,134.7H115.38l1.67-4.16h8.34Z"/><path class="cls-6" d="M124.28,116.13h-6.12l1.53-2.19h3.06Z"/><rect class="cls-7" x="119.69" y="44.18" width="3.06" height="69.75"/><path class="cls-8" d="M116.84,24.39l-1.92.17,1.51,17.31,1.92-.17-1.51-17.31Z"/><path class="cls-9" d="M125.61,24.39l1.92.17L126,41.87l-1.92-.17,1.51-17.31Z"/><rect class="cls-10" x="113.79" y="22.39" width="14.88" height="2.61"/><path class="cls-11" d="M127.52,22.39h-12.6L117.21,17h8l2.29,5.35Z"/><path class="cls-12" d="M121.22,12.12,123,17h-3.48l1.74-4.91Z"/><rect class="cls-13" x="115.82" y="41.3" width="10.81" height="2.88"/></g><g id="Floor"><path id="floor-2" data-name="floor" class="cls-14" d="M14.61,142.93H138.37s-11.37-20-62.8-20-61,20-61,20Z"/><path class="cls-15" d="M31.93,130c9.23-3.83,23.09-7,43.63-7,4.11,0,8,.13,11.57.36,29.57,4.72,40.67,19.62,40.68,19.63H53.58c-7.88-8.24-15.9-11.62-21.65-13Z"/><path class="cls-16" d="M54.86,124.19c3.17.47,6.33,1.06,8.52,3.13a27.09,27.09,0,0,1,3.49,4.9c.92,1.38,3.22,5,3.22,5-5.65,1.88-7.89-1.94-12.92-3.17-4.46-1.09-8.67.66-13.08.06-2.06-.28-3.54-2.06-5.38-2.86a24.47,24.47,0,0,0-6.44-1.43A91,91,0,0,1,54.86,124.19Z"/><path class="cls-16" d="M74.5,122.95h1.06a158,158,0,0,1,23.29,1.59c.55.62,1.09,1.29,1.65,2,2,2.36,6.95,5.4,4,8.6l-2.17.91c-7.68,1.73-4.76-3.32-10.37-5.83-4.29-1.92-9.69-.38-13.51-3.52a26.3,26.3,0,0,1-3.93-3.72Z"/></g><g id="_2" data-name=" 2"><path class="cls-17" d="M81.14,33.9a2.79,2.79,0,0,1-2-2.78c-.09-2.36,1.19-3.79,2-3.79s1.28,1.45,2.38,1.43,3.83-.89,6.47-.35a6.84,6.84,0,0,1,4.85,3.29,9.48,9.48,0,0,1,.5,6.81c-.74,2.88-9.86.87-9.86.87Z"/><path class="cls-18" d="M94.4,42.15a3.24,3.24,0,0,1-2,2c-1.5.47-.3-2.9-.3-2.9Z"/><path class="cls-19" d="M91.27,46a16.84,16.84,0,0,0,0,4.75c.41,1.81-3,3.32-3,3.32l-3.41-3.17s.72-1.14.53-4S91.27,46,91.27,46Z"/><path class="cls-20" d="M85.43,119.06s0,2.61.2,4.61-.55,3-1.54,3-3.31,0-3.6-1.85a19.43,19.43,0,0,1,.46-6.61c.44-1.5.93-2.41,1.39-2.46S85.43,119.06,85.43,119.06Z"/><path class="cls-21" d="M96.12,127.3a5.47,5.47,0,0,0,0,2.73c.34,1.86,1.08,1.62,2,3.09s1.54,3.11,2.67,3.14,4.65-1.2,5-2.39a2.73,2.73,0,0,0-.92-3.1c-1-.83-2.89-2.34-3.25-3.19l-1-2.31Z"/><path class="cls-22" d="M82.78,87.56s.89,14.24.45,17.61l-1.15,8.66a38.55,38.55,0,0,0-.39,4.49,4.4,4.4,0,0,0,4.71.66s3.45-7.9,3.45-9.85.55-17.05.68-19.5c0,0,2,11.47,2.75,14.33a91.66,91.66,0,0,1,1.4,14.35c0,3.3.4,8.88.4,8.88a7.64,7.64,0,0,0,3.88.64,4.42,4.42,0,0,0,3.19-1.71s-.5-17.85-1.23-21-4.46-23.1-4.46-23.1H85.63l-2.85,5.49Z"/><path class="cls-23" d="M84.76,82.31H96.46l-.34-2.58H84.89Z"/><path class="cls-24" d="M84.49,80.61H96.24s-2-27.69-3.81-29.06-3.72.63-3.72.63l-4.63-1.72-2,3.62Z"/><path class="cls-25" d="M81.14,33.9a32.23,32.23,0,0,0,0,6.86c.44,2.75,1,5.32,3.86,6.05s5.84-.07,6.66-1.14a10.7,10.7,0,0,0,1.3-3.4,1.84,1.84,0,0,0,2.12-.84c.65-1.26.88-2.86,0-3.06A1.79,1.79,0,0,0,93,39.58s-.43-.22-.72-1.94-.87-3.23-2.64-3.89-5.16.76-8.46.16Z"/><path class="cls-26" d="M107.81,56.78a3.57,3.57,0,0,0,1.24-2c.11-1.1-.28-3.56.11-4.31s1.28-.22,1.45.75l.34,1.93a10.45,10.45,0,0,1,3.29-1.93c1.36-.3,2.06,0,2.28.77s.82,3.43.46,3.95-5.35,1.13-6,1.89a11.55,11.55,0,0,0-1.29,1.91l-1.86-2.94Z"/><path class="cls-27" d="M96.26,52.18a7.28,7.28,0,0,1,2,3.45,90.79,90.79,0,0,0,3.66,8.48l5.48-7.68,4,3.29s-2.63,4.24-4.48,8.06-3.79,6.46-5.67,6.22S94.68,66,94.68,66l1.58-13.78Z"/><path class="cls-28" d="M78.44,52.18a6.28,6.28,0,0,0-1.94,3.45c-.57,2.41-1.91,12.31-2.08,14.42s-.18,3.4,1.54,4.29,3.9-1.07,4.06-2.68l1.37-14-2.95-5.44Z"/><path class="cls-29" d="M88.1,55.75l-.55,18.86,3.09,3L92.73,74,89.48,54.77l-1.38,1Z"/><path class="cls-30" d="M84.09,50.46s-3.6.31-5.65,1.72c0,0,2,8.54,2,13s-2,19.64-2,19.64l6.74,4.27s1.31-18.5,1-23.91S84.09,50.46,84.09,50.46Z"/><path class="cls-31" d="M84.09,50.46l-.9.12-.4,4.48,1.3.24-1.3,1.49,3.41,8.83s-.8-10.07-2.1-15.15Z"/><path class="cls-32" d="M87,54.57s.74,1.36,1.73,1.36,1.48-1.84,1.48-1.84l-1.48-1.9Z"/><path class="cls-33" d="M84.09,50.46l.81-.75,3.82,2.47-2.52,3.45-2.1-5.17Z"/><path class="cls-34" d="M88.71,52.18l2,3.2.95-3.27-.56-2.4Z"/><path class="cls-35" d="M81.39,63.67A8.67,8.67,0,0,1,82,60.93c.52-1,.8-2.76,1.36-2.61s.86.88.71,1.84a11.5,11.5,0,0,0-.15,1.65A4.3,4.3,0,0,1,85.38,60c1-.68,1.37-1,2-.68s2.31,3.29,2,4.07a10,10,0,0,1-3.6,3.32A12,12,0,0,1,82,67.89l-.63-4.22Z"/><path class="cls-36" d="M74.42,70.05A4,4,0,0,1,76,67.79c1.33-1,5.43-4.12,5.43-4.12s1.42,3.77,3.1,5.41c0,0-5.08,5.48-7.2,5.48S74.7,73.2,74.7,73.2a5.23,5.23,0,0,1-.28-3.15Z"/><path class="cls-37" d="M91.21,50.46s4.26.77,5.06,1.72,0,7.17,0,11S99,84.84,99,84.84l-4,4.8S93.6,56.89,91.21,50.46Z"/><path class="cls-38" d="M91.21,50.46l1.06.22,1.48,2.92L93,54l1.2.61a71.66,71.66,0,0,1-.88,10.22S92.51,55,91.21,50.46Z"/></g><g id="_1" data-name=" 1"><path class="cls-39" d="M59.5,38.9s2.37-1.83,2-3.24S59.13,28.43,56.22,28s-8.86-.63-8.32,3.86a4.05,4.05,0,0,0-3.23,1.6,7.72,7.72,0,0,0-.6,6.26,15.88,15.88,0,0,0,4,6.8l1.11-2.08L59.5,38.9Z"/><path class="cls-40" d="M71.43,60.81a27.7,27.7,0,0,1,1-3.43c.48-1.16.89-3.37,1.37-3.29s.76.36.78,1.83-.31,1.47-.31,1.47a3.52,3.52,0,0,1,1.57-1.09c1-.37,4.29-1,4.29-1a4.5,4.5,0,0,1,0,3.54,5.3,5.3,0,0,1-4.29,2.43c-1.27,0-2.41,2.47-2.41,2.47l-2-2.87Z"/><path class="cls-41" d="M59.75,54.57s2.14,3.9,3.63,7,2.57,3.6,2.57,3.6l5.48-4.35,4.07,3.85s-4.68,7.06-8.78,9.68c0,0-6.29-4.17-8.85-8.47l1.88-11.3Z"/><path class="cls-42" d="M41.95,54s-.92.17-1.9,3.07S33.82,72.4,33.47,74s-.09,3.08,1.62,3.8,3.89-.81,5-4.48,3.76-10.59,3.76-10.59L41.95,54Z"/><path class="cls-43" d="M38,70.73a6.63,6.63,0,0,0-3.69,1c-1.42,1.08-1.42,2.93-.71,4.59S34.85,78,36,78s4.2-2.26,4-4.48a3,3,0,0,0-2-2.75Z"/><path class="cls-44" d="M37.41,70.87c-1.53.37-4.65,1-4.56,1.91s1.39.93,2.68.93-.05,2.57.22,3.72.79,1.53,2,2,3.88.57,4.24-.44,1.18-6.78-.35-7.43A6.07,6.07,0,0,0,37.41,70.87Z"/><path class="cls-45" d="M64.43,131.86a8.62,8.62,0,0,0,1.46,5c4.71-2.35,6.92-6.39,9.6-10.25a5,5,0,0,0-2.56,1,55,55,0,0,1-6.26,3l-2.24,1.21Z"/><path class="cls-46" d="M75.49,126.66a1.21,1.21,0,0,1,1.17,1c.14,1,0,2.16-1.5,4.1s-3.4,2.12-4.17,3.62-1,2.68-2,3c-.88.27-3,.48-3.08-1.51.11-1.27,4.24-3.37,4.65-4.2.58-1.18,2.86-5.64,4.95-6Z"/><path class="cls-47" d="M53,91.77s3.85,13.41,4.91,16.56,3.58,21.51,5,23.32c0,0,2.85,1.26,7.37-2.24,0,0-3.76-13.45-4.53-18.75s-3.89-20.5-5-23.4-8.58,2.9-8.58,2.9L53,91.77Z"/><path class="cls-48" d="M47,123.73a17.88,17.88,0,0,0,0,3.74c.24,1.39,2.3,3.68,1.92,4.39a2.94,2.94,0,0,1-2.57,1.81,3.24,3.24,0,0,1-3.87-2.32c-.54-1.83-1.24-4.31-1-5.66l.66-4.06Z"/><path class="cls-49" d="M44.63,90.78,43.81,110s-2.45,9.88-2.65,11.48,2.42,3,3.47,2.86,3.35-.48,3.78-2.19,2.81-9.37,3.14-12.56,1.82-23.26,1.82-23.26l-2.6-3.63-6.14,8.08Z"/><path class="cls-50" d="M47.6,51.32S42.91,53.1,41.95,54c0,0,1.94,12.57,1.94,15.66s-1.49,21-1.49,21l8.37.48,1.4-5.87,1.2,5.87s6.49.43,10-1.28l-3-12.12s.13-18.36-.62-23.17a29.33,29.33,0,0,0-5.23-2.76C52.59,51.2,47.6,51.32,47.6,51.32Z"/><path class="cls-19" d="M54.06,49a8.25,8.25,0,0,0,0,3.22c.31,2.17-6.09,0-6.09,0A16.35,16.35,0,0,0,48,46a2.26,2.26,0,0,1,1.7-3.06Z"/><path class="cls-51" d="M47,51.55l4.26,17.19L55.5,52.18c-2,.29-2.47.92-4,.58-1.79-.39-3.6-1.14-4.47-1.21Z"/><path class="cls-52" d="M50.51,56.3l-.74,9,1.5,3.41,2-4.29-1.42-8.53Z"/><path class="cls-53" d="M49.25,54.57s1.13,2.06,2,2.21,2.22-2.69,2.22-2.69l-2-1.32-2.24,1.81Z"/><path class="cls-54" d="M47,51.55l-1.1.44-.71,3.55,2.3.71-2.54,2,6.32,10.49L47,51.55Z"/><path class="cls-55" d="M55.5,52.18l.93.45.66,4.66L55.24,57l1.86,1.56L51.28,68.74Z"/><path class="cls-56" d="M48.22,56.44l3.26-3.68-3.86-2-.61.79Z"/><path class="cls-57" d="M51.49,52.76l3,3.68,1-4.25-1.32-1.27-2.7,1.85Z"/><path class="cls-58" d="M59.5,38.9s.64,6.45-.2,7.78S56,49.57,55,49.57s-5.5-1-5.84-5.1c0,0-2,.33-2.28-2.15s.8-2.32,1.54-1.44l.74.73a23.23,23.23,0,0,0,2.31-5.94C53.92,37.85,56.36,39.21,59.5,38.9Z"/></g><g id="text-baloon"><path class="cls-59" d="M15.12,37.92a9,9,0,0,1,9-9H33a9,9,0,0,1,0,17.95,7.41,7.41,0,0,0,3.58,4.29c-3.82-.58-6.37-2-7.61-4.29H24.09a9,9,0,0,1-9-9Z"/><path class="cls-60" d="M29.74,34.95a.53.53,0,0,0-.53-.53h-7.8a.53.53,0,0,0-.53.53h0a.53.53,0,0,0,.53.53h7.8a.53.53,0,0,0,.53-.53Z"/><path class="cls-60" d="M36.18,38.47a.53.53,0,0,0-.53-.53H21.41a.53.53,0,0,0-.53.53h0a.53.53,0,0,0,.53.53H35.65a.53.53,0,0,0,.53-.53Z"/><path class="cls-60" d="M32.08,42a.53.53,0,0,0-.53-.53H21.41a.53.53,0,0,0-.53.53h0a.53.53,0,0,0,.53.53H31.55a.53.53,0,0,0,.53-.53Z"/></g><g id="text-baloon1"><path class="cls-59" d="M134.64,78.88a9,9,0,0,1-9,9h-8.88a9,9,0,1,1,0-17.95,7.41,7.41,0,0,0-3.58-4.29c3.82.58,6.37,2,7.61,4.29h4.86a9,9,0,0,1,9,9Z"/><path class="cls-60" d="M113.58,82.75a.53.53,0,0,0,.53.53h7.8a.53.53,0,0,0,.53-.53h0a.53.53,0,0,0-.53-.53h-7.8a.53.53,0,0,0-.53.53Z"/><path class="cls-60" d="M113.58,79.23a.53.53,0,0,0,.53.53h14.24a.53.53,0,0,0,.53-.53h0a.53.53,0,0,0-.53-.53H114.1a.53.53,0,0,0-.53.53Z"/><path class="cls-60" d="M113.58,75.7a.53.53,0,0,0,.53.53h10.14a.53.53,0,0,0,.53-.53h0a.53.53,0,0,0-.53-.53H114.1a.53.53,0,0,0-.53.53Z"/></g></svg>