<svg xmlns="http://www.w3.org/2000/svg" viewBox="0 0 220 140"><defs><style>.cls-1{isolation:isolate;}.cls-2{fill:#84c9f7;}.cls-3{fill:#f6b381;}.cls-4{fill:#f6906b;}.cls-5{fill:#e4863d;}.cls-6{fill:#393c63;}.cls-16,.cls-7{fill:#4f577f;}.cls-8{fill:#f3eedd;}.cls-9{fill:#fff;}.cls-10{fill:#f6a737;}.cls-11{fill:#ddd9d1;}.cls-12{fill:#ffcb5a;}.cls-13{fill:#ffe1a1;}.cls-14{fill:#4f7598;}.cls-15,.cls-23{fill:#2f2d4f;}.cls-16{font-size:6.42px;font-family:Roboto-Bold, Roboto;font-weight:700;letter-spacing:0.08em;}.cls-17{fill:#e3e3e6;}.cls-18{fill:#f1e8e1;}.cls-19{fill:#ddd3d2;}.cls-20{fill:none;stroke:#4f577f;stroke-miterlimit:10;}.cls-21{fill:#d4d6d9;}.cls-22{fill:#acaab1;}.cls-23{opacity:0.22;mix-blend-mode:multiply;}</style></defs><title>iconchinhS</title><g class="cls-1"><g id="Layer_1" data-name="Layer 1"><path class="cls-2" d="M180.5,80.51c3.3,17.66,10,27.93,4.33,39.33-.73,1.46-4.54,6.35-10.67,11a57.31,57.31,0,0,1-7.92,4.92c-12.12,6-31.62,1.65-54.75,1.42-7-.07-6.92.32-35.25.83-9.1.17-18.83.21-28-5.87a36.58,36.58,0,0,1-7.08-6.29c-9.56-11-15.82-30.89-8.33-46C38,69.47,46.92,68.38,51.5,55.17c3.75-10.8-.54-14.94,2-23C59.15,14.28,89.1,7,106.83,5.84c26.33-1.67,63.5,7.89,73,31.67C185.29,51.17,175.66,54.6,180.5,80.51Z"/><path class="cls-3" d="M157.35,110l-1.76-13.61a5.48,5.48,0,0,0-2.11-3.65l-8.58-6.55-4.65,14.78,10.67,11.9Z"/><path class="cls-4" d="M148.23,93.34l2.9,2.38a.69.69,0,0,1,.23.71l-2.14,8.34A.69.69,0,0,1,148,105l-4.3-5.48a.69.69,0,0,1,0-.81l3.53-5.25A.69.69,0,0,1,148.23,93.34Z"/><path class="cls-5" d="M113.85,21.79h-1.11a2.11,2.11,0,0,1,0-4.21h1.11a2.11,2.11,0,1,1,0,4.21Zm.63-6.62h-2.38a4.51,4.51,0,0,0,0,9h2.38a4.51,4.51,0,0,0,0-9Z"/><rect class="cls-6" x="77.59" y="22.57" width="71.42" height="94.13" rx="10.17" ry="10.17"/><rect class="cls-7" x="77.59" y="22.57" width="71.42" height="92.4" rx="10.07" ry="10.07"/><rect class="cls-8" x="84.16" y="28.49" width="58.28" height="80.85"/><path class="cls-6" d="M84.16,109.34h58.28a0,0,0,0,1,0,0v0a1.48,1.48,0,0,1-1.48,1.48H84.16a0,0,0,0,1,0,0v-1.48A0,0,0,0,1,84.16,109.34Z"/><rect class="cls-9" x="84.16" y="28.49" width="58.28" height="80.09"/><path class="cls-10" d="M114.72,14.27h-2.85a5.42,5.42,0,0,0,0,10.83h2.85a5.42,5.42,0,0,0,0-10.83ZM114,22.21h-1.33a2.53,2.53,0,1,1,0-5.05H114a2.53,2.53,0,1,1,0,5.05Z"/><rect class="cls-11" x="91.89" y="28.49" width="42.82" height="3.25"/><path class="cls-6" d="M96.14,24.08h34.32a4.25,4.25,0,0,1,4.25,4.25v.09a0,0,0,0,1,0,0H91.89a0,0,0,0,1,0,0v-.09A4.25,4.25,0,0,1,96.14,24.08Z"/><path class="cls-12" d="M103.28,20h20a9.75,9.75,0,0,1,9.75,9.75v.51a0,0,0,0,1,0,0H93.53a0,0,0,0,1,0,0v-.51A9.75,9.75,0,0,1,103.28,20Z"/><rect class="cls-10" x="93.53" y="27.09" width="39.54" height="3.15"/><rect class="cls-13" x="107.21" y="27.09" width="12.18" height="3.15" rx="1.57" ry="1.57"/><rect class="cls-5" x="123.36" y="27.09" width="6.26" height="3.15" rx="1.57" ry="1.57"/><path class="cls-13" d="M108.82,22h-9.1a1,1,0,0,1-1-1h0a1,1,0,0,1,1-1h9.1a1,1,0,0,1,1,1h0A1,1,0,0,1,108.82,22Z"/><path class="cls-14" d="M123.85,116.7H111.5a.87.87,0,0,1-.87-.87h0a.87.87,0,0,1,.87-.87h12.35a.87.87,0,0,1,.87.87h0A.87.87,0,0,1,123.85,116.7Z"/><path class="cls-15" d="M91.84,116.7H85.08a.87.87,0,0,1-.87-.87h0a.87.87,0,0,1,.87-.87h6.76a.87.87,0,0,1,.87.87h0A.87.87,0,0,1,91.84,116.7Z"/><path class="cls-12" d="M114.16,16h-1.44a.85.85,0,0,1-.85-.85h0a.85.85,0,0,1,.85-.85h1.44a.85.85,0,0,1,.85.85h0A.85.85,0,0,1,114.16,16Z"/><text class="cls-16" transform="translate(92.5 39.61)">Thành Công</text><path class="cls-3" d="M147.72,118.4l-1-3.31a.57.57,0,0,0-.33-.36l-3.93-1.57c-3.61-1.44-3.48-7.09-3.37-8.6a.56.56,0,0,0-.32-.55l-4.94-2.4A3.5,3.5,0,0,1,132,97.23h0a2.2,2.2,0,0,1,2.81-1.3l10.51,3.79a.57.57,0,0,1,.3.24l5.51,9.25a.57.57,0,0,0,.67.25l4.65-1.54a.57.57,0,0,1,.73.42l2.17,9.77a.57.57,0,0,1-.56.69H148.26A.57.57,0,0,1,147.72,118.4Z"/><path class="cls-4" d="M149.28,112.51l-1.78-.27c-7.66-1.37-5.75-9.3-5.75-9.3l-10.07-4.42a2.93,2.93,0,0,0,1.64,2.86l5.75,2.8s-.84,7.31,3.34,9l4.18,1.67,1.25,4h2.93Z"/><path class="cls-17" d="M132.77,98.23l.4-.78a.88.88,0,0,1,1.08-.43l2,.72a.88.88,0,0,1,.49,1.23l-.57,1.12a.88.88,0,0,1-1.23.36l-1.82-1.06A.88.88,0,0,1,132.77,98.23Z"/><rect class="cls-18" x="145.36" y="116.74" width="15.6" height="4.51" rx="2.26" ry="2.26" transform="translate(-16.79 25.53) rotate(-9.03)"/><rect class="cls-19" x="145.4" y="117.23" width="9.35" height="4.51" rx="2.26" ry="2.26" transform="translate(-16.9 25.05) rotate(-9.03)"/><polygon class="cls-6" points="165.03 137.73 162.03 118.48 144.29 121.31 146.84 137.73 165.03 137.73"/><path class="cls-15" d="M157.69,137.73l-2.32-15a3.19,3.19,0,0,0-3.65-2.65l-7.43,1.18,2.55,16.43Z"/><line class="cls-20" x1="87.88" y1="41.82" x2="139.6" y2="41.82"/><line class="cls-20" x1="87.88" y1="105.29" x2="105.32" y2="105.29"/><rect class="cls-21" x="88.15" y="45.66" width="10.4" height="9.29" rx="3.23" ry="3.23"/><path class="cls-21" d="M123.75,46.7h-23.4a.52.52,0,0,1-.52-.52h0a.52.52,0,0,1,.52-.52h23.4a.52.52,0,0,1,.52.52h0A.52.52,0,0,1,123.75,46.7Z"/><path class="cls-22" d="M139.07,49.62H100.35a.52.52,0,0,1-.52-.52h0a.52.52,0,0,1,.52-.52h38.73a.52.52,0,0,1,.52.52h0A.52.52,0,0,1,139.07,49.62Z"/><path class="cls-22" d="M139.07,51.88H100.35a.52.52,0,0,1-.52-.52h0a.52.52,0,0,1,.52-.52h38.73a.52.52,0,0,1,.52.52h0A.52.52,0,0,1,139.07,51.88Z"/><path class="cls-22" d="M112,54.14H100.35a.52.52,0,0,1-.52-.52h0a.52.52,0,0,1,.52-.52H112a.52.52,0,0,1,.52.52h0A.52.52,0,0,1,112,54.14Z"/><rect class="cls-21" x="88.15" y="60.55" width="10.4" height="9.29" rx="3.23" ry="3.23"/><path class="cls-21" d="M123.75,61.6h-23.4a.52.52,0,0,1-.52-.52h0a.52.52,0,0,1,.52-.52h23.4a.52.52,0,0,1,.52.52h0A.52.52,0,0,1,123.75,61.6Z"/><path class="cls-22" d="M139.07,64.51H100.35a.52.52,0,0,1-.52-.52h0a.52.52,0,0,1,.52-.52h38.73a.52.52,0,0,1,.52.52h0A.52.52,0,0,1,139.07,64.51Z"/><path class="cls-22" d="M139.07,66.77H100.35a.52.52,0,0,1-.52-.52h0a.52.52,0,0,1,.52-.52h38.73a.52.52,0,0,1,.52.52h0A.52.52,0,0,1,139.07,66.77Z"/><path class="cls-22" d="M112,69H100.35a.52.52,0,0,1-.52-.52h0a.52.52,0,0,1,.52-.52H112a.52.52,0,0,1,.52.52h0A.52.52,0,0,1,112,69Z"/><path class="cls-22" d="M139.07,75.21H88.67a.52.52,0,0,1-.52-.52h0a.52.52,0,0,1,.52-.52h50.4a.52.52,0,0,1,.52.52h0A.52.52,0,0,1,139.07,75.21Z"/><path class="cls-21" d="M118.18,78.08H88.67a.52.52,0,0,1-.52-.52h0a.52.52,0,0,1,.52-.52h29.5a.52.52,0,0,1,.52.52h0A.52.52,0,0,1,118.18,78.08Z"/><path class="cls-7" d="M97.41,103.74a1,1,0,0,1-.24,0c-.81-.2-1-1.3-1-1.67-.13-.89-.26-1.8-.37-2.74a39.74,39.74,0,0,1-3,4.12.14.14,0,0,1-.21-.17,39.5,39.5,0,0,0,3.15-4.38,25.57,25.57,0,0,1,0-6.57,4.13,4.13,0,0,1,.53-1.66,1.74,1.74,0,0,1,1.54-.85,1.78,1.78,0,0,1,1.46,1.66,4.58,4.58,0,0,1-.5,2.2A39.78,39.78,0,0,1,96,98.92c.12,1.06.27,2.09.41,3.08s.39,1.33.81,1.44.89-.23,1.23-.53a19.8,19.8,0,0,0,3.18-3.65.14.14,0,0,1,.25.1l-.43,2.56c0,.1-.08.57.16.65s.27-.06.39-.14a5.67,5.67,0,0,0,.63-.54,1.4,1.4,0,0,1,.77-.92.14.14,0,0,1,.18.19,5.89,5.89,0,0,1-.68.83.32.32,0,0,0,0,.09c.11.22.42.25.74.29s.79.08,1,.45a.14.14,0,0,1-.25.11c-.1-.23-.41-.26-.73-.29s-.78-.08-1-.44h0a6,6,0,0,1-.53.44.74.74,0,0,1-.63.18c-.31-.09-.43-.44-.35-1l.33-2a20.08,20.08,0,0,1-2.87,3.2A2,2,0,0,1,97.41,103.74ZM97.67,90a1.5,1.5,0,0,0-1.2.73A3.89,3.89,0,0,0,96,92.33a24.64,24.64,0,0,0,0,6.15,39.5,39.5,0,0,0,2.53-4.94A4.36,4.36,0,0,0,99,91.47a1.52,1.52,0,0,0-1.21-1.42Z"/><polygon class="cls-3" points="86.42 89.3 95.36 96.59 91.89 101.34 83.14 100.97 86.42 89.3"/><path class="cls-3" d="M71,110l1.76-13.61A5.48,5.48,0,0,1,74.9,92.7l11.52-3.4,1.72,11.63-10.67,11.9Z"/><path class="cls-4" d="M79.82,102.36l-.93-5.87a.86.86,0,0,1,.68-1l5.92-1.21a.86.86,0,0,1,.71.17l2.43,1.95a.86.86,0,0,1,0,1.38l-7.42,5.13A.86.86,0,0,1,79.82,102.36Z"/><path class="cls-11" d="M67.65,85.22l1.2-.9a81.25,81.25,0,0,1,10.74,4.59l.12.07-.4.19s-8-4-10.37-3.85a4.75,4.75,0,0,0-.51.82Z"/><rect class="cls-11" x="64.86" y="83.89" width="1.96" height="3.81" rx="0.98" ry="0.98" transform="translate(171.77 64) rotate(115.88)"/><path class="cls-6" d="M99.1,101.55l.61.63a.08.08,0,0,1-.07.13l-.88-.11a.08.08,0,0,1-.06-.12l.28-.52A.08.08,0,0,1,99.1,101.55Z"/><polygon class="cls-12" points="97.49 100.27 99.28 101.52 98.87 102.38 96.82 101.73 97.49 100.27"/><path class="cls-6" d="M75,92.35c-3.22-1.7-6-3.29-8-4.59l1.1-2.27c2.26.77,5.22,2,8.55,3.44Z"/><path class="cls-6" d="M81.32,91.1l1.1.53c7,3.41,12.92,6.76,15.62,8.8l-.79,1.64c-3.27-.86-9.55-3.41-16.57-6.82l-1.1-.54Z"/><path class="cls-11" d="M81.52,91.19,79.77,94.8c-1.77-.87-3.46-1.73-5-2.57l1.65-3.41C78,89.55,79.74,90.34,81.52,91.19Z"/><path class="cls-23" d="M67.47,86.73l30.12,14.61-.35.72c-3.27-.86-9.55-3.41-16.57-6.82A138.48,138.48,0,0,1,67,87.76Z"/><rect class="cls-11" x="65.84" y="86.15" width="2.87" height="0.78" transform="translate(174.51 63.78) rotate(115.88)"/><rect class="cls-23" x="66.24" y="86.79" width="1.46" height="0.78" transform="translate(174.64 64.97) rotate(115.88)"/><path class="cls-3" d="M80.66,118.4l1-3.31a.57.57,0,0,1,.33-.36L86,113.15c3.61-1.44,3.48-7.09,3.37-8.6a.56.56,0,0,1,.32-.55l4.94-2.4a3.5,3.5,0,0,0,1.74-4.37h0a2.2,2.2,0,0,0-2.81-1.3L83,99.72a.57.57,0,0,0-.3.24l-5.51,9.25a.57.57,0,0,1-.67.25l-4.65-1.54a.57.57,0,0,0-.73.42L69,118.1a.57.57,0,0,0,.56.69H80.12A.57.57,0,0,0,80.66,118.4Z"/><path class="cls-3" d="M80.54,118.79l1.25-4L86,113.15c4.18-1.67,3.34-9,3.34-9l5.82-2.83a2.85,2.85,0,0,0,1.42-3.56l-.43-1.15a1.55,1.55,0,0,0-2-.91l-11.3,4.08L77,109.6l-5.68-1.88-2.46,11.07Z"/><path class="cls-4" d="M79.1,112.51l1.78-.27c7.66-1.37,5.75-9.3,5.75-9.3L96.7,98.52a2.93,2.93,0,0,1-1.64,2.86l-5.75,2.8s.84,7.31-3.34,9l-4.18,1.67-1.25,4H77.61Z"/><path class="cls-17" d="M95.61,98.23l-.4-.78A.88.88,0,0,0,94.13,97l-2,.72A.88.88,0,0,0,91.65,99l.57,1.12a.88.88,0,0,0,1.23.36l1.82-1.06A.88.88,0,0,0,95.61,98.23Z"/><rect class="cls-18" x="67.43" y="116.74" width="15.6" height="4.51" rx="2.26" ry="2.26" transform="translate(130.84 248.33) rotate(-170.97)"/><rect class="cls-19" x="73.64" y="117.23" width="9.35" height="4.51" rx="2.26" ry="2.26" transform="translate(136.9 249.79) rotate(-170.97)"/><polygon class="cls-6" points="63.36 137.73 66.35 118.48 84.1 121.31 81.54 137.73 63.36 137.73"/><path class="cls-15" d="M70.7,137.73l2.32-15a3.19,3.19,0,0,1,3.65-2.65l7.43,1.18-2.55,16.43Z"/><path class="cls-21" d="M138.17,87.18H127.56a1.43,1.43,0,0,1-1.43-1.43h0a1.43,1.43,0,0,1,1.43-1.43h10.61a1.43,1.43,0,0,1,1.43,1.43h0A1.43,1.43,0,0,1,138.17,87.18Z"/></g></g></svg>