<svg xmlns="http://www.w3.org/2000/svg" xmlns:xlink="http://www.w3.org/1999/xlink" viewBox="0 0 220 140"><defs><style>.cls-1,.cls-12{fill:#c2d4ea;}.cls-2{isolation:isolate;}.cls-3{fill:#84c9f7;}.cls-4{fill:#d2d5da;}.cls-5{fill:#2c4482;}.cls-6{fill:#486ed1;}.cls-7{fill:#3b65c4;}.cls-8{fill:#27272f;}.cls-9{fill:#1ca0a4;}.cls-10{fill:#acacad;}.cls-11{fill:#fefefe;}.cls-12{mix-blend-mode:multiply;}.cls-13{fill:#fff;}.cls-14{clip-path:url(#clip-path);}.cls-15{fill:#492817;}.cls-16{fill:#ffaa81;}.cls-17{fill:#f4946e;}.cls-18{fill:#ffd22e;}.cls-19{fill:#f4c42a;}.cls-20{fill:#2e5ee5;}.cls-21{fill:#d4e0f6;}.cls-22{fill:#38c388;}.cls-23{fill:#97caff;}.cls-24{fill:#092140;}.cls-25{fill:#ef487c;}.cls-26{fill:#52517b;}.cls-27{fill:#45446c;}.cls-28{fill:#2c2b57;}.cls-29{fill:#f2f2f2;}.cls-30{fill:#292951;}.cls-31{fill:#8db0da;}.cls-32{fill:#76a2ce;}.cls-33{fill:#60c0fd;opacity:0.5;}.cls-34{fill:#7374a4;}</style><clipPath id="clip-path"><path class="cls-1" d="M98.28,42.85A7.32,7.32,0,0,1,91,49.79a6.7,6.7,0,0,1-6.8-6.94,7.32,7.32,0,0,1,7.31-6.94A6.7,6.7,0,0,1,98.28,42.85Z"/></clipPath></defs><title>iconchinhS</title><g class="cls-2"><g id="Layer_2" data-name="Layer 2"><path class="cls-3" d="M158.5,4.33a58.75,58.75,0,0,0-41.6,17.57,86.82,86.82,0,0,0-27.07-4.57c-28.94,0-58.22,16.89-71.53,39.16a10.66,10.66,0,1,0-7,19c-.15,1.06-.27,2.12-.34,3.18A53.36,53.36,0,0,0,24.67,117c10.37,11.27,23.5,14.55,36,17.67,4.55,1.13,18.39,4.27,32.67,3,10.21-.91,22.18-4.21,33.54-9.49a57.68,57.68,0,0,0,31.63,9.49c34,0,61.5-29.85,61.5-66.67S192.47,4.33,158.5,4.33Z"/></g><g id="Layer_1" data-name="Layer 1"><rect class="cls-4" x="73.75" y="25.88" width="66.9" height="97.86" rx="6.55" ry="6.55" transform="translate(182.01 -32.4) rotate(90)"/><rect class="cls-5" x="58.27" y="41.36" width="97.86" height="59.1" rx="5.51" ry="5.51"/><path class="cls-6" d="M150.15,95.92H64a2.3,2.3,0,0,1-2.3-2.3l.13-46.07a2.3,2.3,0,0,1,2.3-2.29h86.15a2.3,2.3,0,0,1,2.3,2.3l-.13,46.07A2.3,2.3,0,0,1,150.15,95.92Z"/><path class="cls-7" d="M143.9,63.39A120.41,120.41,0,0,1,116.31,92q-2.78,2.05-5.68,3.94h39.52a2.3,2.3,0,0,0,2.3-2.29l.12-45A120.17,120.17,0,0,1,143.9,63.39Z"/><path class="cls-4" d="M175.51,126.63H38.9a.33.33,0,0,1-.22-.57l19.58-17.7a.33.33,0,0,1,.22-.08h97.45a.33.33,0,0,1,.22.08l19.58,17.7A.33.33,0,0,1,175.51,126.63Z"/><path class="cls-8" d="M126.58,124.65H87.83c-.51,0-.71-.39-.45-.86l1.92-3.56a1.44,1.44,0,0,1,1.16-.67H124a1.44,1.44,0,0,1,1.16.67l1.92,3.56C127.29,124.25,127.09,124.65,126.58,124.65Z"/><path class="cls-8" d="M67.54,110H63.73c-.53,0-.85-.1-.72-.22l.39-.36a2.46,2.46,0,0,1,1.18-.21h3.74c.52,0,.85.1.74.21l-.34.36A2.31,2.31,0,0,1,67.54,110Z"/><path class="cls-8" d="M74,110H70.16c-.53,0-.87-.1-.76-.22l.33-.36a2.25,2.25,0,0,1,1.14-.21h3.74c.52,0,.87.1.77.21l-.28.36A2.1,2.1,0,0,1,74,110Z"/><path class="cls-8" d="M80.39,110H76.58c-.53,0-.89-.1-.79-.22l.28-.36a2,2,0,0,1,1.11-.21h3.74c.52,0,.88.1.81.21l-.23.36A1.91,1.91,0,0,1,80.39,110Z"/><path class="cls-8" d="M86.82,110H83c-.53,0-.9-.1-.83-.22l.22-.36a1.86,1.86,0,0,1,1.08-.21h3.74c.52,0,.9.1.84.21l-.17.36C87.83,109.94,87.35,110,86.82,110Z"/><path class="cls-8" d="M93.25,110H89.43c-.53,0-.92-.1-.86-.22l.16-.36c.05-.12.52-.21,1-.21h3.74c.52,0,.91.1.88.21l-.11.36C94.24,109.94,93.78,110,93.25,110Z"/><path class="cls-8" d="M99.67,110H95.86c-.53,0-.93-.1-.9-.22l.11-.36c0-.12.49-.21,1-.21h3.74c.52,0,.93.1.91.21l-.06.36C100.65,109.94,100.2,110,99.67,110Z"/><path class="cls-8" d="M106.1,110h-3.81c-.53,0-.95-.1-.93-.22l.05-.36c0-.12.45-.21,1-.21h3.74c.52,0,.94.1.94.21v.36C107.06,109.94,106.63,110,106.1,110Z"/><path class="cls-8" d="M112.52,110h-3.81c-.53,0-1-.1-1-.22v-.36c0-.12.42-.21.94-.21h3.74c.52,0,1,.1,1,.21l.05.36C113.47,109.94,113.06,110,112.52,110Z"/><path class="cls-8" d="M119,110h-3.81c-.53,0-1-.1-1-.22l-.06-.36c0-.12.39-.21.91-.21h3.74c.52,0,1,.1,1,.21l.11.36C119.88,109.94,119.48,110,119,110Z"/><path class="cls-8" d="M125.38,110h-3.81c-.53,0-1-.1-1-.22l-.12-.36c0-.12.35-.21.87-.21H125c.52,0,1,.1,1,.21l.17.36C126.29,109.94,125.91,110,125.38,110Z"/><path class="cls-8" d="M131.8,110H128c-.53,0-1-.1-1.07-.22l-.17-.36c-.06-.12.32-.21.84-.21h3.74a1.86,1.86,0,0,1,1.08.21l.22.36C132.7,109.94,132.34,110,131.8,110Z"/><path class="cls-8" d="M138.23,110h-3.81a1.92,1.92,0,0,1-1.1-.22l-.23-.36c-.08-.12.29-.21.81-.21h3.74a2.05,2.05,0,0,1,1.11.21l.28.36C139.12,109.94,138.76,110,138.23,110Z"/><path class="cls-8" d="M144.66,110h-3.81a2.11,2.11,0,0,1-1.14-.22l-.28-.36c-.09-.12.25-.21.77-.21h3.74a2.25,2.25,0,0,1,1.14.21l.33.36C145.53,109.94,145.19,110,144.66,110Z"/><path class="cls-8" d="M151.08,110h-3.81a2.32,2.32,0,0,1-1.17-.22l-.34-.36c-.11-.12.22-.21.74-.21h3.74a2.47,2.47,0,0,1,1.18.21l.39.36C151.94,109.94,151.61,110,151.08,110Z"/><path class="cls-8" d="M66.65,111.4H61.72c-.12,0-.2,0-.17-.05l1.23-1.13a.56.56,0,0,1,.27,0h4.78c.12,0,.19,0,.17,0l-1.08,1.13A.53.53,0,0,1,66.65,111.4Z"/><path class="cls-8" d="M75.28,112.93H70.17c-.13,0-.21,0-.18-.06l1-1.22a.5.5,0,0,1,.27-.05h5c.12,0,.21,0,.18.05l-.88,1.22A.47.47,0,0,1,75.28,112.93Z"/><path class="cls-8" d="M75.62,114.57h-5.3c-.13,0-.22,0-.19-.06l1.07-1.31a.5.5,0,0,1,.28-.06h5.13c.13,0,.21,0,.19.06l-.9,1.31A.47.47,0,0,1,75.62,114.57Z"/><path class="cls-8" d="M78.12,116.34h-5.5c-.14,0-.23,0-.2-.07l1-1.41a.49.49,0,0,1,.29-.06h5.32c.13,0,.22,0,.2.06l-.86,1.41A.46.46,0,0,1,78.12,116.34Z"/><path class="cls-8" d="M59.84,118.48H54.12c-.15,0-.24,0-.19-.08l1.88-1.74a.67.67,0,0,1,.34-.07h5.5c.15,0,.23,0,.2.07l-1.66,1.74A.64.64,0,0,1,59.84,118.48Z"/><path class="cls-8" d="M67.48,118.48H61.76c-.15,0-.24,0-.2-.08l1.61-1.74a.6.6,0,0,1,.33-.07H69c.15,0,.24,0,.21.07l-1.39,1.74A.57.57,0,0,1,67.48,118.48Z"/><path class="cls-8" d="M74.88,118.48H69.16c-.15,0-.25,0-.22-.08l1.35-1.74a.55.55,0,0,1,.32-.07h5.5c.15,0,.24,0,.22.07l-1.13,1.74A.52.52,0,0,1,74.88,118.48Z"/><path class="cls-8" d="M84.22,118.48H76.67c-.17,0-.29,0-.26-.09l1.07-1.71a.56.56,0,0,1,.35-.08H85.1c.17,0,.29,0,.27.08l-.79,1.71S84.39,118.48,84.22,118.48Z"/><path class="cls-8" d="M130.65,118.48H123.1c-.17,0-.33,0-.34-.09l-.54-1.71s.11-.08.28-.08h7.26c.17,0,.32,0,.34.08l.82,1.71S130.82,118.48,130.65,118.48Z"/><path class="cls-8" d="M138.29,118.48h-5.64c-.15,0-.29,0-.31-.08l-.88-1.74s.08-.07.23-.07h5.42a.49.49,0,0,1,.31.07l1.1,1.74S138.44,118.48,138.29,118.48Z"/><path class="cls-8" d="M121.22,118.48H86.39c-.37,0-.63-.08-.58-.18l.67-1.53c0-.09.36-.17.71-.17h33.5c.35,0,.66.08.69.17l.45,1.53C121.86,118.39,121.58,118.48,121.22,118.48Z"/><path class="cls-8" d="M85.27,116.34h-5.5c-.14,0-.23,0-.21-.07l.83-1.41a.44.44,0,0,1,.28-.06H86c.13,0,.23,0,.21.06l-.65,1.41S85.41,116.34,85.27,116.34Z"/><path class="cls-8" d="M92.42,116.34h-5.5c-.14,0-.24,0-.22-.07l.62-1.41s.13-.06.27-.06H92.9c.13,0,.23,0,.22.06l-.44,1.41S92.55,116.34,92.42,116.34Z"/><path class="cls-8" d="M99.56,116.34h-5.5c-.14,0-.24,0-.23-.07l.4-1.41s.13-.06.26-.06h5.32c.13,0,.24,0,.23.06l-.22,1.41S99.7,116.34,99.56,116.34Z"/><path class="cls-8" d="M106.71,116.34h-5.5c-.14,0-.24,0-.24-.07l.19-1.41s.12-.06.25-.06h5.32c.13,0,.24,0,.24.06v1.41S106.85,116.34,106.71,116.34Z"/><path class="cls-8" d="M113.86,116.34h-5.5c-.14,0-.25,0-.25-.07l0-1.41s.11-.06.24-.06h5.32c.13,0,.24,0,.25.06l.2,1.41S114,116.34,113.86,116.34Z"/><path class="cls-8" d="M121,116.34h-5.5c-.14,0-.25,0-.26-.07l-.24-1.41s.1-.06.23-.06h5.32c.13,0,.25,0,.26.06l.42,1.41S121.14,116.34,121,116.34Z"/><path class="cls-8" d="M128.15,116.34h-5.5c-.14,0-.26,0-.27-.07l-.45-1.41s.09-.06.22-.06h5.32c.13,0,.25,0,.27.06l.63,1.41S128.29,116.34,128.15,116.34Z"/><path class="cls-8" d="M135.3,116.34h-5.5c-.14,0-.26,0-.28-.07l-.66-1.41s.08-.06.21-.06h5.32a.44.44,0,0,1,.28.06l.84,1.41S135.43,116.34,135.3,116.34Z"/><path class="cls-8" d="M145.06,118.5h-4.38a1.9,1.9,0,0,1-1.19-.28l-.29-.44c-.1-.15.27-.27.81-.27h4.29a2,2,0,0,1,1.2.27l.35.44C146,118.38,145.61,118.5,145.06,118.5Z"/><path class="cls-8" d="M152.55,118.5h-4.38a2.11,2.11,0,0,1-1.23-.28l-.36-.44c-.12-.15.22-.27.77-.27h4.29a2.25,2.25,0,0,1,1.24.27l.41.44C153.44,118.38,153.11,118.5,152.55,118.5Z"/><path class="cls-8" d="M151.54,117.4h-4.28a2.07,2.07,0,0,1-1.2-.27l-.34-.42c-.12-.14.22-.26.76-.26h4.19a2.21,2.21,0,0,1,1.21.26l.4.42C152.41,117.28,152.09,117.4,151.54,117.4Z"/><path class="cls-8" d="M160.05,118.5h-4.38a2.33,2.33,0,0,1-1.27-.28l-.42-.44c-.14-.15.18-.27.73-.27H159a2.48,2.48,0,0,1,1.28.27l.48.44C160.92,118.38,160.61,118.5,160.05,118.5Z"/><path class="cls-8" d="M82.56,114.57h-5.3c-.13,0-.22,0-.2-.06l.87-1.31a.45.45,0,0,1,.27-.06h5.13c.13,0,.22,0,.2.06l-.7,1.31S82.7,114.57,82.56,114.57Z"/><path class="cls-8" d="M89.51,114.57h-5.3c-.13,0-.22,0-.21-.06l.67-1.31s.13-.06.26-.06h5.13c.13,0,.22,0,.21.06l-.5,1.31S89.64,114.57,89.51,114.57Z"/><path class="cls-8" d="M96.45,114.57h-5.3c-.13,0-.23,0-.22-.06l.47-1.31s.12-.06.25-.06h5.13c.13,0,.23,0,.22.06l-.31,1.31S96.58,114.57,96.45,114.57Z"/><path class="cls-8" d="M103.35,114.57h-5.3c-.13,0-.23,0-.23-.06l.27-1.31s.12-.06.24-.06h5.13c.13,0,.23,0,.23.06l-.11,1.31S103.48,114.57,103.35,114.57Z"/><path class="cls-8" d="M110.29,114.57H105c-.13,0-.24,0-.24-.06l.07-1.31s.11-.06.23-.06h5.13c.13,0,.23,0,.24.06l.09,1.31S110.42,114.57,110.29,114.57Z"/><path class="cls-8" d="M116.94,114.57h-5.3c-.13,0-.24,0-.24-.06l-.12-1.31s.1-.06.23-.06h5.13c.13,0,.24,0,.24.06l.28,1.31S117.07,114.57,116.94,114.57Z"/><path class="cls-8" d="M123.82,114.57h-5.3c-.13,0-.25,0-.25-.06l-.32-1.31s.09-.06.22-.06h5.13c.13,0,.24,0,.25.06l.48,1.31S123.95,114.57,123.82,114.57Z"/><path class="cls-8" d="M130.69,114.57h-5.3c-.13,0-.25,0-.26-.06l-.51-1.31s.08-.06.21-.06H130c.13,0,.24,0,.26.06l.68,1.31S130.83,114.57,130.69,114.57Z"/><path class="cls-8" d="M137.53,114.57h-5.3c-.13,0-.25,0-.27-.06l-.71-1.31s.07-.06.2-.06h5.13a.46.46,0,0,1,.27.06l.88,1.31S137.66,114.57,137.53,114.57Z"/><path class="cls-8" d="M144.37,114.57h-5.3a.47.47,0,0,1-.28-.06l-.91-1.31s.06-.06.19-.06h5.13a.5.5,0,0,1,.28.06l1.07,1.31S144.5,114.57,144.37,114.57Z"/><path class="cls-8" d="M142.37,116.34h-5.5a.46.46,0,0,1-.29-.07l-.87-1.41s.07-.06.2-.06h5.32a.49.49,0,0,1,.29.06l1.05,1.41S142.51,116.34,142.37,116.34Z"/><path class="cls-8" d="M156.48,114.57H146.25a.72.72,0,0,1-.4-.08l-1.07-1.26s.08-.08.25-.08h9.91a.81.81,0,0,1,.4.08l1.38,1.26C156.77,114.53,156.66,114.57,156.48,114.57Z"/><path class="cls-8" d="M158.34,116.34H144.09a.81.81,0,0,1-.47-.1l-1-1.34c0-.05.09-.1.3-.1h13.79a1,1,0,0,1,.49.1l1.45,1.34C158.68,116.29,158.56,116.34,158.34,116.34Z"/><path class="cls-8" d="M68.74,114.57H58.4c-.18,0-.29,0-.24-.08l1.37-1.26a.81.81,0,0,1,.4-.08h10c.18,0,.29,0,.25.08l-1.06,1.26A.72.72,0,0,1,68.74,114.57Z"/><path class="cls-8" d="M70.89,116.34H56.43c-.22,0-.34,0-.28-.1l1.45-1.33a1,1,0,0,1,.49-.1h14c.21,0,.35,0,.31.1l-1,1.33A.81.81,0,0,1,70.89,116.34Z"/><path class="cls-8" d="M81.94,112.93H76.83c-.13,0-.21,0-.19-.06l.85-1.22a.45.45,0,0,1,.26-.05h5c.12,0,.21,0,.19.05l-.7,1.22A.43.43,0,0,1,81.94,112.93Z"/><path class="cls-8" d="M88.55,112.93H83.45c-.13,0-.22,0-.2-.06l.67-1.22a.41.41,0,0,1,.25-.05h5c.12,0,.21,0,.2.05l-.51,1.22S88.68,112.93,88.55,112.93Z"/><path class="cls-8" d="M95.21,112.93H90.1c-.13,0-.22,0-.21-.06l.48-1.22s.12-.05.24-.05h5c.12,0,.22,0,.21.05l-.33,1.22S95.34,112.93,95.21,112.93Z"/><path class="cls-8" d="M101.87,112.93H96.76c-.13,0-.22,0-.22-.06l.3-1.22s.11-.05.24-.05h5c.12,0,.22,0,.22.05l-.14,1.22S102,112.93,101.87,112.93Z"/><path class="cls-8" d="M108.48,112.93h-5.11c-.13,0-.23,0-.22-.06l.12-1.22s.11-.05.23-.05h5c.12,0,.22,0,.22.05l0,1.22S108.61,112.93,108.48,112.93Z"/><path class="cls-8" d="M115,112.93h-5.11c-.13,0-.23,0-.23-.06l-.06-1.22s.1-.05.22-.05h5c.12,0,.23,0,.23.05l.22,1.22S115.08,112.93,115,112.93Z"/><path class="cls-8" d="M121.66,112.93h-5.11c-.13,0-.24,0-.24-.06l-.25-1.22s.09-.05.21-.05h5c.12,0,.23,0,.24.05l.4,1.22S121.79,112.93,121.66,112.93Z"/><path class="cls-8" d="M128.29,112.93h-5.11c-.13,0-.24,0-.25-.06l-.43-1.22s.08-.05.2-.05h5c.12,0,.23,0,.25.05l.59,1.22S128.42,112.93,128.29,112.93Z"/><path class="cls-8" d="M134.81,112.93h-5.11c-.13,0-.24,0-.26-.06l-.62-1.22s.07-.05.2-.05h5a.43.43,0,0,1,.26.05l.77,1.22S134.94,112.93,134.81,112.93Z"/><path class="cls-8" d="M141.61,112.93H136.5a.45.45,0,0,1-.27-.06l-.8-1.22s.06-.05.19-.05h5a.48.48,0,0,1,.27.05l1,1.22S141.74,112.93,141.61,112.93Z"/><path class="cls-8" d="M148.1,112.93H143a.5.5,0,0,1-.28-.06l-1-1.22s.06-.05.18-.05h5a.53.53,0,0,1,.27.05l1.14,1.22S148.23,112.93,148.1,112.93Z"/><path class="cls-8" d="M154.79,112.93h-5.11a.55.55,0,0,1-.28-.06l-1.17-1.22s0-.05.17-.05h5a.58.58,0,0,1,.28.05l1.32,1.22S154.91,112.93,154.79,112.93Z"/><path class="cls-8" d="M73.17,111.4H68.24c-.12,0-.2,0-.17-.05l1.05-1.13a.51.51,0,0,1,.26,0h4.78c.12,0,.2,0,.18,0l-.91,1.13A.48.48,0,0,1,73.17,111.4Z"/><path class="cls-8" d="M79.49,111.4H74.56c-.12,0-.2,0-.18-.05l.88-1.13a.47.47,0,0,1,.25,0H80.3c.12,0,.2,0,.18,0l-.74,1.13A.44.44,0,0,1,79.49,111.4Z"/><path class="cls-8" d="M86,111.4H81c-.12,0-.21,0-.19-.05l.71-1.13a.42.42,0,0,1,.25,0h4.78c.12,0,.2,0,.19,0l-.57,1.13S86.09,111.4,86,111.4Z"/><path class="cls-8" d="M92.28,111.4H87.36c-.12,0-.21,0-.2-.05l.54-1.13s.12,0,.24,0h4.78c.12,0,.21,0,.2,0l-.4,1.13S92.41,111.4,92.28,111.4Z"/><path class="cls-8" d="M98.8,111.4H93.87c-.12,0-.21,0-.21-.05l.37-1.13s.11,0,.23,0H99c.12,0,.21,0,.21,0L99,111.35S98.92,111.4,98.8,111.4Z"/><path class="cls-8" d="M105.06,111.4h-4.93c-.12,0-.22,0-.21-.05l.2-1.13s.11,0,.22,0h4.78c.12,0,.21,0,.21,0l-.05,1.13S105.18,111.4,105.06,111.4Z"/><path class="cls-8" d="M111.56,111.4h-4.93c-.12,0-.22,0-.22-.05l0-1.13s.1,0,.22,0h4.78c.12,0,.22,0,.22,0l.12,1.13S111.69,111.4,111.56,111.4Z"/><path class="cls-8" d="M117.88,111.4H113c-.12,0-.23,0-.23-.05l-.15-1.13s.09,0,.21,0h4.78c.12,0,.22,0,.23,0l.29,1.13S118,111.4,117.88,111.4Z"/><path class="cls-8" d="M124.38,111.4h-4.93c-.12,0-.23,0-.24-.05l-.32-1.13s.08,0,.2,0h4.78c.12,0,.22,0,.24,0l.46,1.13S124.5,111.4,124.38,111.4Z"/><path class="cls-8" d="M130.85,111.4h-4.93c-.12,0-.23,0-.25-.05l-.49-1.13s.07,0,.19,0h4.78a.41.41,0,0,1,.24,0l.64,1.13S131,111.4,130.85,111.4Z"/><path class="cls-8" d="M137.27,111.4h-4.93a.42.42,0,0,1-.25-.05l-.67-1.13s.07,0,.19,0h4.78a.45.45,0,0,1,.25,0l.81,1.13S137.39,111.4,137.27,111.4Z"/><path class="cls-8" d="M143.43,111.4H138.5a.46.46,0,0,1-.26-.05l-.83-1.13s.06,0,.18,0h4.78a.49.49,0,0,1,.26,0l1,1.13S143.55,111.4,143.43,111.4Z"/><path class="cls-8" d="M152.66,111.4h-7.37a1.41,1.41,0,0,1-.75-.15l-.84-1c-.07-.08.15-.14.48-.14h7.15a1.55,1.55,0,0,1,.75.14l1,1C153.21,111.33,153,111.4,152.66,111.4Z"/><path class="cls-8" d="M68.12,112.93H60.49c-.35,0-.56-.07-.47-.16l1.11-1a1.59,1.59,0,0,1,.78-.15h7.41c.34,0,.56.07.49.15l-.9,1A1.44,1.44,0,0,1,68.12,112.93Z"/><path class="cls-9" d="M142.76,18.52H98a3,3,0,0,0-3,3V53.24a3,3,0,0,0,3,3h35c4.67,0,6.78-3.79,6.78-8.46V21.56A3,3,0,0,1,142.76,18.52Z"/><path class="cls-10" d="M133.56,53.24V32.59a3,3,0,0,0-3-3h-.22a3,3,0,0,0-3,3V56.28h9.35A3,3,0,0,1,133.56,53.24Z"/><path class="cls-10" d="M146,45.26V21.56a3,3,0,0,0-3-3h-.22a3,3,0,0,0-3,3V45.26Z"/><path class="cls-9" d="M136.67,18.52h-.06a3,3,0,0,0-3,3V53.24a3,3,0,0,0,3,3h.06a3,3,0,0,0,3-3V21.56A3,3,0,0,0,136.67,18.52Z"/><path class="cls-11" d="M130.3,29.54h-48a3,3,0,0,0-3,3l.46,63.33h48l-.46-63.33A3,3,0,0,1,130.3,29.54Z"/><path class="cls-12" d="M99.14,43a6.89,6.89,0,1,1-6.91-7A6.91,6.91,0,0,1,99.14,43Z"/><path class="cls-13" d="M121.1,40.36H103.9a1,1,0,0,1-1-1h0a1,1,0,0,1,1-1h17.2a1,1,0,0,1,1,1h0A1,1,0,0,1,121.1,40.36Z"/><path class="cls-1" d="M121.11,45.13h-17.2a1,1,0,0,1-1-1h0a1,1,0,0,1,1-1h17.2a1,1,0,0,1,1,1h0A1,1,0,0,1,121.11,45.13Z"/><path class="cls-1" d="M98.28,42.85A7.32,7.32,0,0,1,91,49.79a6.7,6.7,0,0,1-6.8-6.94,7.32,7.32,0,0,1,7.31-6.94A6.7,6.7,0,0,1,98.28,42.85Z"/><g class="cls-14"><path class="cls-15" d="M89.24,43a1.41,1.41,0,0,0,.41.72,2,2,0,0,0,1.27.3,2.44,2.44,0,0,0,1.49-.3,1.6,1.6,0,0,0,.49-.67,3.15,3.15,0,0,0-.06-2.67,1.13,1.13,0,0,0-.3-.4,1.26,1.26,0,0,0-.66-.21,2.9,2.9,0,0,0-1.75.42A2.51,2.51,0,0,0,89,41.45,2.83,2.83,0,0,0,89.24,43Z"/><path class="cls-16" d="M92.07,46.48c-.25.16-1,.06-1.2.19a2.79,2.79,0,0,1-1.26.11c0-1.15.62-2.31.67-3.36.43,1,.95.44,1.45-.23C91.68,44.23,92.09,45.44,92.07,46.48Z"/><path class="cls-17" d="M90.23,44.25a1.39,1.39,0,0,0,.16.32.9.9,0,0,0,.53.38.85.85,0,0,0,.74-.22l.19-.17a6.78,6.78,0,0,1-.11-1.36c-.5.66-1,1.2-1.45.23a.78.78,0,0,1,0,.28c0,.1,0,.21,0,.31A.53.53,0,0,0,90.23,44.25Z"/><path class="cls-18" d="M94.63,51.22c0-.4-.08-.79-.12-1.19s-.07-.64-.11-1-.08-.66-.12-1a11.86,11.86,0,0,0-.6-3l0-.08a13.24,13.24,0,0,0-1.81-.53c0,.31-.27,1-.9,1-.39,0-.84-.57-.84-1a10.65,10.65,0,0,0-1.85.54c-.31.06-.57,1.84-.62,2.06-.19,1-.41,2-.58,3v0q-.09.56-.18,1.13Z"/><path class="cls-19" d="M88.25,45h0a9.82,9.82,0,0,0-1.32.67,4,4,0,0,0-1.4,1.36,7.63,7.63,0,0,0-.8,1.71,2.17,2.17,0,0,0,.67.75,7.77,7.77,0,0,0,1.3.61c.2-.34.37-.55.45-.74.14-.73.31-1.58.46-2.31C87.67,46.86,87.94,45.09,88.25,45Z"/><path class="cls-19" d="M96.23,47a3.58,3.58,0,0,0-1.3-1.38c-.35-.2-1.31-.59-1.29-.58s.51,2.11.63,3.06c0,.34,0,.34.08.67A4.36,4.36,0,0,0,95,50.2a6,6,0,0,0,1.23-.59,1.91,1.91,0,0,0,.64-.61A9.32,9.32,0,0,0,96.23,47Z"/><path class="cls-16" d="M89.26,42.2a3.26,3.26,0,0,0,.44,1.42,1.59,1.59,0,0,0,1.23.76,1.83,1.83,0,0,0,1.56-1,4.77,4.77,0,0,0,.45-1.86,2.9,2.9,0,0,0-.16-1.59,1.13,1.13,0,0,0-.38-.44,1.37,1.37,0,0,0-.38-.17,2.36,2.36,0,0,0-1.77.19C89.2,40.08,89.14,41.17,89.26,42.2Z"/><path class="cls-15" d="M93.47,40a1,1,0,0,0,.3-.62c0-.08,0-.18-.12-.15l0,.14c-.11,0-.2-.06-.27-.14l-.25-.28a2.1,2.1,0,0,0-.17-.22l0,0a3.11,3.11,0,0,0-.29-.43,1.75,1.75,0,0,0-1.4-.39,2.75,2.75,0,0,0-.92.16,1.15,1.15,0,0,0-.67.63.76.76,0,0,0,0,.11,2,2,0,0,0-.94,2.08,1.76,1.76,0,0,1,.11.79c0,.15,0,.31,0,.46a.29.29,0,0,0,.41.08.45.45,0,0,0,.11-.32l.05-1a.4.4,0,0,1,0-.19.48.48,0,0,1,.15-.13,1.86,1.86,0,0,0,.54-.6,2.25,2.25,0,0,0,.7.45,3.19,3.19,0,0,0,1.48.13l.41-.07,0,1.42c0,.18,0,.39.21.44a.31.31,0,0,0,.32-.13.84.84,0,0,0,.12-.34A5.24,5.24,0,0,0,93.48,40Z"/><path class="cls-17" d="M89.39,42.41c0-.26-.06-.55-.06-.81a.22.22,0,0,0-.12,0,.21.21,0,0,0-.13,0,.33.33,0,0,0-.12.21,1.61,1.61,0,0,0,0,.81.83.83,0,0,0,.47.57.12.12,0,0,0,.08,0A3.68,3.68,0,0,1,89.39,42.41Z"/><path class="cls-17" d="M93.24,41.8a.3.3,0,0,0-.11-.21.2.2,0,0,0-.13,0,.43.43,0,0,0-.27.15l0,0c0,.16,0,.31,0,.47a4.77,4.77,0,0,1-.06.8,2.24,2.24,0,0,1-.06.22.33.33,0,0,0,.12,0,.92.92,0,0,0,.51-.57A1.62,1.62,0,0,0,93.24,41.8Z"/></g><path class="cls-20" d="M90.13,61.84H87.22a1.53,1.53,0,0,1-1.53-1.53V57.4a1.53,1.53,0,0,1,1.53-1.53h2.91a1.53,1.53,0,0,1,1.53,1.53v2.91A1.53,1.53,0,0,1,90.13,61.84Zm-2.91-5.35a.91.91,0,0,0-.91.91v2.91a.91.91,0,0,0,.91.91h2.91a.91.91,0,0,0,.91-.91V57.4a.91.91,0,0,0-.91-.91Z"/><path class="cls-20" d="M90.13,70.6H87.22a1.53,1.53,0,0,1-1.53-1.53V66.16a1.53,1.53,0,0,1,1.53-1.53h2.91a1.53,1.53,0,0,1,1.53,1.53v2.91A1.53,1.53,0,0,1,90.13,70.6Zm-2.91-5.35a.91.91,0,0,0-.91.91v2.91a.91.91,0,0,0,.91.91h2.91a.91.91,0,0,0,.91-.91V66.16a.91.91,0,0,0-.91-.91Z"/><path class="cls-20" d="M90.13,79.23H87.22a1.53,1.53,0,0,1-1.53-1.53V74.79a1.53,1.53,0,0,1,1.53-1.53h2.91a1.53,1.53,0,0,1,1.53,1.53V77.7A1.53,1.53,0,0,1,90.13,79.23Zm-2.91-5.35a.91.91,0,0,0-.91.91V77.7a.91.91,0,0,0,.91.91h2.91A.91.91,0,0,0,91,77.7V74.79a.91.91,0,0,0-.91-.91Z"/><rect class="cls-21" x="100.41" y="56.79" width="22.08" height="0.61" rx="0.22" ry="0.22"/><rect class="cls-21" x="96.57" y="58.55" width="25.91" height="0.61" rx="0.22" ry="0.22"/><rect class="cls-21" x="96.57" y="60.32" width="23.35" height="0.61" rx="0.22" ry="0.22"/><rect class="cls-21" x="100.41" y="65.25" width="22.08" height="0.61" rx="0.22" ry="0.22"/><rect class="cls-21" x="96.57" y="67.02" width="25.91" height="0.61" rx="0.22" ry="0.22"/><rect class="cls-21" x="96.57" y="68.79" width="10.58" height="0.61" rx="0.22" ry="0.22"/><rect class="cls-21" x="100.41" y="74.18" width="22.08" height="0.61" rx="0.22" ry="0.22"/><rect class="cls-21" x="96.57" y="75.94" width="25.91" height="0.61" rx="0.22" ry="0.22"/><path class="cls-21" d="M96.85,78.31a.28.28,0,0,1-.28-.28V78a.28.28,0,0,1,.28-.28H117.1a.28.28,0,0,1,.28.28V78a.28.28,0,0,1-.28.28"/><path class="cls-21" d="M122.18,84.15H86.61a.3.3,0,0,1-.3-.3h0a.3.3,0,0,1,.3-.3h35.57a.3.3,0,0,1,.3.3h0A.3.3,0,0,1,122.18,84.15Z"/><path class="cls-21" d="M105.44,85.91H86.61a.3.3,0,0,1-.3-.3h0a.3.3,0,0,1,.3-.3h18.82a.3.3,0,0,1,.3.3h0A.3.3,0,0,1,105.44,85.91Z"/><path class="cls-21" d="M105.44,89.52H86.61a.3.3,0,0,1-.3-.3h0a.3.3,0,0,1,.3-.3h18.82a.3.3,0,0,1,.3.3h0A.3.3,0,0,1,105.44,89.52Z"/><path class="cls-21" d="M120.09,87.68H86.61a.3.3,0,0,1-.3-.3h0a.3.3,0,0,1,.3-.3h33.47a.3.3,0,0,1,.3.3h0A.3.3,0,0,1,120.09,87.68Z"/><path class="cls-22" d="M89.36,60.14A.52.52,0,0,1,89,60l-1.67-1.46a.52.52,0,0,1,.69-.79l1.29,1.12,4.79-5.27a.52.52,0,0,1,.77.7L89.75,60A.52.52,0,0,1,89.36,60.14Z"/><path class="cls-22" d="M89.36,68.6a.52.52,0,0,1-.34-.13L87.35,67a.52.52,0,0,1,.69-.79l1.29,1.12,4.79-5.27a.52.52,0,0,1,.77.7l-5.14,5.65A.52.52,0,0,1,89.36,68.6Z"/><path class="cls-22" d="M89.36,77.23A.52.52,0,0,1,89,77.1l-1.67-1.46a.52.52,0,0,1,.69-.79L89.32,76l4.79-5.27a.52.52,0,0,1,.77.7l-5.14,5.65A.52.52,0,0,1,89.36,77.23Z"/><polygon class="cls-23" points="127.77 110.64 123.31 113.12 127.77 115.61 127.77 110.64"/><polygon class="cls-24" points="124.38 112.42 123.31 113.12 124.37 113.83 124.38 112.42"/><rect class="cls-25" x="152.58" y="109.09" width="4.97" height="8.13" rx="1.83" ry="1.83" transform="translate(268.48 -41.71) rotate(90.1)"/><rect class="cls-26" x="127.77" y="110.66" width="24.51" height="1.66"/><rect class="cls-27" x="127.77" y="112.31" width="24.51" height="1.66"/><rect class="cls-28" x="127.77" y="113.97" width="24.51" height="1.66"/><rect class="cls-29" x="149.67" y="112.65" width="4.97" height="1" transform="translate(265.56 -38.81) rotate(90.1)"/><path class="cls-16" d="M110.57,70.57s4.14-2.3,4.86-2.89,1-1.05.72-3a25.64,25.64,0,0,0-.81-4.4,2.66,2.66,0,0,0-1.18-.66c-.55-.22-1.36-.66-1.05-.75a1.66,1.66,0,0,1,1,.13,3.14,3.14,0,0,0,.64.22s.18-.46,0-.66-1.34-.22-1.47-.24-.26-.31.37-.44a1.62,1.62,0,0,1,1.1,0,4.46,4.46,0,0,1,1.16.77c.15.2.13,1,.22,1.31s1.36,3.51,1.67,4.65,1.34,2.3-.39,4.25-7.14,7-7.14,7a4.48,4.48,0,0,1-1.53-2.61C108.6,71.8,110.57,70.57,110.57,70.57Z"/><path class="cls-18" d="M115.6,70.54l-.07-.08-.28-.32a9.12,9.12,0,0,0-.66-.65l-.07-.06-.08-.05-.33-.2-.25-.12-.23-.07-.19-.06c-1.36.8-2.89,1.65-2.89,1.65s-2,1.23-1.88,2.63a4.48,4.48,0,0,0,1.53,2.61s3.17-2.94,5.44-5.19Z"/><path class="cls-15" d="M104.87,118.33a25.2,25.2,0,0,0-.2,3.23l.2.08c-.08.65-.1,1.3-.14,1.95a8.38,8.38,0,0,1-1.18-.26,20.18,20.18,0,0,1-.46-4.82A5.8,5.8,0,0,0,104.87,118.33Z"/><path class="cls-15" d="M109.35,118a30.34,30.34,0,0,0-.51,3.51,11.35,11.35,0,0,1,2.42,1.51c.25.44,0,.6-1.16.67a6.91,6.91,0,0,1-2.52-.51,20.18,20.18,0,0,1-.06-4.84C108.09,118.52,108.78,118,109.35,118Z"/><path class="cls-15" d="M109.12,85.82a2.11,2.11,0,0,0-1.51.56,2.13,2.13,0,0,0-1.42-.55c-2.9-.1-3.94,2-3.86,4.16,0,.24.15,17.34.74,28.55l1.85,0c.18-3.3,1.3-13.24,2.28-20.5.22,7.26.28,17.15.34,20.44l1.71.1c1.89-10.1,3.55-28.19,3.57-28.43C113,87.92,112,85.82,109.12,85.82Z"/><path class="cls-16" d="M107,87a16.78,16.78,0,0,1-2.58-.57,5.59,5.59,0,0,1,.2,1.41l1.32.08c1.23.08,2.57.1,2.94.11a13.83,13.83,0,0,1-1-1.34C107.47,86.83,107,87,107,87Z"/><path class="cls-16" d="M105.48,87.92a3.73,3.73,0,0,0-.33-1.25c-1.74-.44-4.12-1.34-4.4-3s1.55-7,2.29-9.3c-.31-.08-.62-.14-.94-.19a20.59,20.59,0,0,1-2.16-.31c-.53,1.42-2.52,7.13-1.86,10.31C98.77,87.53,103.54,87.82,105.48,87.92Z"/><path class="cls-16" d="M104,68.73l0-.15a2.41,2.41,0,0,1-.13-.24,2.45,2.45,0,0,1,.14-2.31c.5-.79,2-1.54,2.74-.68a3.87,3.87,0,0,1,.61,3.67,1.46,1.46,0,0,1-.34.52,1.16,1.16,0,0,1-.62.28c0,.49-.15,1-.18,1.45a2.77,2.77,0,0,1-.34,1.46c-.21.25-.48.14-.71,0a2.38,2.38,0,0,1-1.36-1.35,2.06,2.06,0,0,1-.13-.61,3.92,3.92,0,0,1,.07-.8Z"/><path class="cls-15" d="M107,67a5.29,5.29,0,0,1,.66-.09.38.38,0,0,0,.25-.14,1,1,0,0,0,.14-1.09c-.1-.24-.29-.44-.39-.68a1.37,1.37,0,0,1-.06-.65,1.62,1.62,0,0,0-.13-.77.36.36,0,0,0-.35-.19h0a4.31,4.31,0,0,0-1,.23.37.37,0,0,1-.18,0c-1.33-.22-3.1.45-3.51,1.25a.76.76,0,0,0-.08.25.35.35,0,0,1-.09.19.88.88,0,0,0-.21.38c-.19.79.93,1.48,1.08,2.29,0,.19,0,.38,0,.57a2,2,0,0,0,1.86,1.32A1.85,1.85,0,0,0,107,68.76a.44.44,0,0,0,0-.31c-.07-.14-.24-.23-.36-.35A.67.67,0,0,1,107,67Z"/><path class="cls-18" d="M111.32,76.21a12.19,12.19,0,0,0-.42-1.29c.2,0-.57-2.65-.92-4-1.12-.12-2.14-.24-2.62-.24h0l-.13,0c0-.24,0-.43-.52-.49a11.86,11.86,0,0,0-3.06.2c-.25.06-.23.23-.17.44l0,0-.06,0s-3.66-.16-4.66,7c.38.93,2.38,1.22,2.84,1.26a5.9,5.9,0,0,0,.22-.76c.27,1.76.4,2.22.68,5.5a22.94,22.94,0,0,0-.12,4.51c.37.26,8.2.18,9.89-.48l.16,0c.88-.13.29-1.4.25-1.62C112,83,112.17,79.45,111.32,76.21Z"/><path class="cls-19" d="M112.47,87.38a10,10,0,0,1-6.93-2.93,18.13,18.13,0,0,1-3.47-6.29c-.2-.54-.38-1.08-.55-1.64l0,0c.27,1.75.68,4,1,7.28a22.94,22.94,0,0,0-.12,4.51c.37.26,8.2.18,9.89-.48l.16,0a.51.51,0,0,0,.47-.47Z"/><path class="cls-27" d="M107.19,70.67c0-.24,0-.43-.52-.49a11.86,11.86,0,0,0-3.06.2c-.24.06-.23.21-.18.41A13.64,13.64,0,0,0,107.19,70.67Z"/><path class="cls-30" d="M105.53,122.63a3.44,3.44,0,0,0-.37-.84,3.41,3.41,0,0,0-.49-.72c0-.26,0-.51,0-.77a5.08,5.08,0,0,1-1.53,0c0,.37,0,.73,0,1.07s-.1.65-.14,1a1.38,1.38,0,0,0,.17,1.12,1,1,0,0,0,.84.24c.3,0,1.12,0,1.22-.07a.37.37,0,0,0,.15-.15A1.16,1.16,0,0,0,105.53,122.63Z"/><path class="cls-30" d="M111.27,123a7.91,7.91,0,0,0-2-1.28,3.3,3.3,0,0,0-.42-.61c0-.29.05-.58.09-.86a5.08,5.08,0,0,1-1.53-.1c0,.34,0,.67,0,1l0,.06a7.45,7.45,0,0,0-.19,1.18,1.38,1.38,0,0,0,.17,1.12,1,1,0,0,0,.84.24c.3,0,1.12,0,1.22-.07h0a3.8,3.8,0,0,0,.63,0C111.23,123.61,111.52,123.44,111.27,123Z"/><polygon class="cls-13" points="111.56 58.01 111.13 57.49 111.8 57.4 111.56 58.01"/><polygon class="cls-24" points="111.22 57.63 111.13 57.49 111.29 57.45 111.22 57.63"/><rect class="cls-30" x="116.95" y="59.35" width="0.66" height="1.08" rx="0.24" ry="0.24" transform="translate(19 147.53) rotate(-68.78)"/><polygon class="cls-31" points="111.64 57.81 116.9 59.85 116.82 60.06 111.56 58.01 111.64 57.81"/><polygon class="cls-32" points="111.72 57.6 116.98 59.65 116.9 59.85 111.64 57.81 111.72 57.6"/><polygon class="cls-31" points="111.8 57.4 117.06 59.44 116.98 59.65 111.72 57.6 111.8 57.4"/><rect class="cls-29" x="116.59" y="59.68" width="0.66" height="0.13" transform="translate(18.9 147.11) rotate(-68.78)"/><path class="cls-16" d="M114.69,58.54h0c.39.17.8.31,1.21.46h0a.93.93,0,0,0-.11-.39,4.46,4.46,0,0,0-1.16-.77,1.62,1.62,0,0,0-1.1,0c-.64.13-.5.42-.37.44s1.27,0,1.47.24Z"/><path class="cls-16" d="M116.07,59.83l-.43-.25a2.27,2.27,0,0,0-.53-.29l0,0-.34-.08a3.13,3.13,0,0,1-.64-.22,1.66,1.66,0,0,0-1-.13c-.31.09.5.53,1.05.75a2.66,2.66,0,0,1,1.18.66,1.86,1.86,0,0,1,.16.48l.82-.14c-.13-.33-.21-.57-.23-.64A1.11,1.11,0,0,1,116.07,59.83Z"/><ellipse class="cls-33" cx="77.68" cy="114.66" rx="5.57" ry="2.99"/><path class="cls-26" d="M77.62,119.29c-3.54,0-6.31-1.7-6.31-3.87s2.77-3.87,6.31-3.87,6.31,1.7,6.31,3.87S81.16,119.29,77.62,119.29Zm0-6.75c-2.89,0-5.32,1.32-5.32,2.88s2.44,2.88,5.32,2.88,5.32-1.32,5.32-2.88S80.51,112.54,77.62,112.54Z"/><path class="cls-31" d="M77.62,118.42c-3.54,0-6.31-1.7-6.31-3.87s2.77-3.87,6.31-3.87,6.31,1.7,6.31,3.87S81.16,118.42,77.62,118.42Zm0-6.75c-2.89,0-5.32,1.32-5.32,2.88s2.44,2.88,5.32,2.88,5.32-1.32,5.32-2.88S80.51,111.67,77.62,111.67Z"/><path class="cls-34" d="M70.1,118.39l2.21-1.22s.25-.19.73.31a.3.3,0,0,1-.09.53l-2.38,1.27Z"/><path class="cls-31" d="M71.94,119.65c.35-.42.13-1.19-.49-1.7a1.38,1.38,0,0,0-1.76-.17L64.5,120.9l2,2.07Z"/><ellipse class="cls-26" cx="65.49" cy="121.96" rx="1" ry="1.46" transform="translate(-70.17 94.42) rotate(-50.29)"/><ellipse class="cls-13" cx="75.84" cy="113.63" rx="1.24" ry="0.49"/><ellipse class="cls-13" cx="74.17" cy="114.35" rx="0.72" ry="0.28"/></g></g></svg>