<svg xmlns="http://www.w3.org/2000/svg" viewBox="0 0 220 140"><defs><style>.cls-1{isolation:isolate;}.cls-2{fill:#84c9f7;}.cls-3{fill:#056d6d;}.cls-4{fill:#074745;}.cls-17,.cls-5{fill:#ddd;}.cls-6{fill:#fff;}.cls-7{fill:#4da78b;}.cls-8{fill:#fc5252;}.cls-9{fill:#a7d4c6;}.cls-10{fill:#e0935f;}.cls-11{fill:#030303;}.cls-12{fill:#f2b78b;}.cls-13{fill:#214c46;}.cls-14{fill:#003a61;}.cls-15{fill:#00527c;}.cls-16{fill:#007796;}.cls-17{mix-blend-mode:multiply;}.cls-18{fill:#42aeba;}.cls-19{fill:#215ace;}.cls-20{fill:#18898d;}.cls-21{fill:#001738;}.cls-22{fill:#002853;}</style></defs><title>iconchinhS</title><g class="cls-1"><g id="Layer_1" data-name="Layer 1"><path class="cls-2" d="M176.83,87c-10.14-2.76-5.38-14.4,4.37-35.87C191.68,28.05,178,7.85,160.49,4.18,143.4.61,135,17.82,106.47,15.8,87.3,14.45,83.06,4.69,66,7.83,53.26,10.18,39,18.68,38.37,28.17c-.39,5.62,4.25,7.18,5.38,17.71a38.1,38.1,0,0,1-1.5,15.38A44.14,44.14,0,0,1,35.5,74c-2.21,2.75-4.12,4.28-6,8.07a46.51,46.51,0,0,0-2.22,6.64c-1.23,4.74,2.48,7.23,5.69,15,5.48,13.32.63,20.53,3.75,26.75,3.33,6.64,15.75,12.12,56.66,6h81c17.09,0,25.34-11.69,25.56-24.17C200.23,98.58,194.32,91.75,176.83,87Z"/><path class="cls-3" d="M168.21,84.91,168,84.7a61.52,61.52,0,0,0-13.39,36h.28A61.21,61.21,0,0,1,168.21,84.91Z"/><path class="cls-3" d="M171.65,80.73c-.77-.79-3.83,1.52-3.78,4.35C170.53,84.48,172.39,81.5,171.65,80.73Z"/><path class="cls-3" d="M166.16,87.34c2,1.84,5.55,1.2,5.66.14S168.45,85.3,166.16,87.34Z"/><path class="cls-3" d="M163.34,91.65c2.55,2,6.64.87,6.67-.37S165.85,89,163.34,91.65Z"/><path class="cls-3" d="M155,116.63c3.36.77,7-2.49,6.49-3.82S156.31,112.38,155,116.63Z"/><path class="cls-3" d="M160.49,97c3.21,2,7.89.26,7.81-1.18S163.17,93.48,160.49,97Z"/><path class="cls-3" d="M156.05,110.11c3.74,1.27,8.19-1.78,7.82-3.28S158,105.59,156.05,110.11Z"/><path class="cls-3" d="M158,103.2c3.8,1.8,8.83-.71,8.6-2.29S160.58,98.82,158,103.2Z"/><path class="cls-3" d="M164.7,81.69c-1.19.46-1,4.37,1.46,5.65C167.35,84.6,165.87,81.28,164.7,81.69Z"/><path class="cls-3" d="M161.15,85.06c-1.38.68-.84,5.35,2.19,6.6C164.49,88.28,162.5,84.44,161.15,85.06Z"/><path class="cls-3" d="M150,110.54c-1.1,1.47,1.49,6.33,5,6.09C154.66,112.36,151.08,109.18,150,110.54Z"/><path class="cls-3" d="M157.28,89.36c-1.59,1-.48,6.56,3.21,7.64C161.49,92.86,158.83,88.47,157.28,89.36Z"/><path class="cls-3" d="M151.07,102.68c-1.44,1.49.94,7.26,5,7.43C156.16,105.38,152.49,101.31,151.07,102.68Z"/><path class="cls-3" d="M153.59,94.87c-1.69,1.36.15,7.61,4.4,8.32C158.63,98.36,155.24,93.66,153.59,94.87Z"/><path class="cls-3" d="M164.36,102.69c3.33-2.38,4,.7,5.33-3.71,2-6.4,5-7.35,7.44-5.91s3,4.57-1.66,9.35c-3.23,3.3-.22,2.39-.73,6.45-.44,3.53-6,6.94-6,10.34.05,8.39-9.09,9.95-12.08,8.16s-6-10.57,1.45-14.5C161.11,111.29,161.47,104.75,164.36,102.69Z"/><path class="cls-4" d="M159.25,122.47l7.33-12.29-1.94-7.68c.19-.12.37-.23.54-.32l1.84,7.27,7.11-11.92L173,93.24a4.24,4.24,0,0,1,.53-.34l1,3.92,2.32-3.89.26.14.25.16-2.32,3.89,3.92-1a4.24,4.24,0,0,1,0,.63l-4.31,1.09-7.11,11.92,7.27-1.84c0,.19,0,.4,0,.62l-7.68,1.94-7.33,12.29,8.91-2.25q0,.33-.1.64l-9.24,2.33-2.19,3.67-.21.35L153.08,134l-.51-.31,3.84-6.44.21-.35,2.19-3.67L156.48,114l.52-.39Z"/><path class="cls-3" d="M165.52,66.08l-.42-.27A69.14,69.14,0,0,0,154,105.58h.43A68.67,68.67,0,0,1,165.52,66.08Z"/><path class="cls-3" d="M165.06,66l0,.27.26-.07c2.56-.73,4.29-5.76,4.43-6l.27-.7-.64.4C169.19,60,164.62,63.21,165.06,66Z"/><path class="cls-3" d="M154.25,100.18v.28h.22c5.27,0,9.94-6,10.27-6l.37-.4h-.52C164.22,94,154.57,94.17,154.25,100.18Z"/><path class="cls-3" d="M155.23,91.45l0,.28.22,0c4.75.68,9.54-4.05,9.83-4.11l.42-.36-.53-.06C164.81,87.14,156.17,86.3,155.23,91.45Z"/><path class="cls-3" d="M157.19,83.33l-.08.27.22.07c4.12,1.15,8.76-2.47,9-2.51l.46-.32-.53-.12C166,80.61,158.52,79,157.19,83.33Z"/><path class="cls-3" d="M160,75.85l-.11.26.22.1c3.42,1.42,7.69-1.21,7.9-1.25l.51-.28L168,74.5C167.72,74.39,161.49,72.4,160,75.85Z"/><path class="cls-3" d="M163,69.71l-.14.25.21.12c2.7,1.46,6.39-.37,6.56-.4l.54-.24-.52-.23C169.49,69.11,164.54,67,163,69.71Z"/><path class="cls-3" d="M145.57,90.75l-.48-.2.2.66c0,.49,3.24,9.2,8.73,9.24h.22v-.28C154.62,94.61,146,91,145.57,90.75Z"/><path class="cls-3" d="M148.41,82.31l-.47-.26.13.67c0,.42,2,8.24,6.89,9l.22,0,0-.28C156.16,86.64,148.76,82.56,148.41,82.31Z"/><path class="cls-3" d="M152,74.81l-.45-.31q0,.34.07.68c-.05.35,1,7.17,5.22,8.36l.22.07.08-.27C158.49,79.29,152.34,75,152,74.81Z"/><path class="cls-3" d="M156.3,68.23l-.43-.36q0,.34,0,.67c-.06.28.25,6,3.76,7.47l.22.1.11-.26C161.45,72.58,156.53,68.45,156.3,68.23Z"/><path class="cls-3" d="M160.56,63.27l-.41-.4q0,.33,0,.67c-.05.21-.18,4.81,2.57,6.3l.21.12.14-.25C164.5,67.16,160.73,63.46,160.56,63.27Z"/><path class="cls-3" d="M63.63,110.38l.12-.23a48.17,48.17,0,0,1,21,21.71l-.2.1A47.93,47.93,0,0,0,63.63,110.38Z"/><path class="cls-3" d="M59.83,108.45c.32-.81,3.26-.11,4.11,1.94C61.81,110.79,59.52,109.23,59.83,108.45Z"/><path class="cls-3" d="M65.89,111.48c-.9,2-3.67,2.61-4.07,1.88S63.58,110.73,65.89,111.48Z"/><path class="cls-3" d="M69.29,113.7c-1.25,2.21-4.56,2.72-5,1.83S66.62,112.56,69.29,113.7Z"/><path class="cls-3" d="M83.18,129.08c-2.21,1.61-5.85.4-5.92-.71S80.9,126.43,83.18,129.08Z"/><path class="cls-3" d="M73,116.66c-1.71,2.44-5.66,2.67-6.06,1.6S70,115,73,116.66Z"/><path class="cls-3" d="M80.38,124.71c-2.32,2.09-6.52,1.3-6.72.1S77.52,122.08,80.38,124.71Z"/><path class="cls-3" d="M76.81,120.34c-2.2,2.49-6.65,2.27-7,1.05S73.54,118,76.81,120.34Z"/><path class="cls-3" d="M65.18,107c1,0,2.1,2.84.71,4.53C64.17,109.88,64.2,107,65.18,107Z"/><path class="cls-3" d="M68.82,108.26c1.22.06,2.29,3.59.47,5.44C67.4,111.63,67.64,108.24,68.82,108.26Z"/><path class="cls-3" d="M84.93,123.11c1.26.71.9,5-1.75,6C82.1,125.9,83.71,122.48,84.93,123.11Z"/><path class="cls-3" d="M73,110.14c1.47.22,2.4,4.58.05,6.52C71,114,71.58,110,73,110.14Z"/><path class="cls-3" d="M81.68,117.79c1.52.62,1.59,5.53-1.3,6.93C78.82,121.34,80.22,117.25,81.68,117.79Z"/><path class="cls-3" d="M77.4,113c1.66.44,2.27,5.53-.59,7.38C74.83,117.06,75.82,112.6,77.4,113Z"/><path class="cls-3" d="M75.14,105.42l.22-.18a38.19,38.19,0,0,1,8.51,21.35l-.24,0A37.93,37.93,0,0,0,75.14,105.42Z"/><path class="cls-3" d="M75.39,105.36v.15l-.15,0c-1.47-.26-2.73-2.94-2.82-3.06l-.19-.37.38.18C72.73,102.25,75.48,103.78,75.39,105.36Z"/><path class="cls-3" d="M83.4,123.63l0,.16-.12,0c-2.94.32-5.9-2.71-6.08-2.74l-.23-.2.29,0C77.47,120.77,82.88,120.32,83.4,123.63Z"/><path class="cls-3" d="M82.35,118.86l0,.15-.12,0c-2.61.65-5.56-1.69-5.73-1.7l-.26-.18.29-.06C76.75,117,81.53,116.06,82.35,118.86Z"/><path class="cls-3" d="M80.79,114.48l.06.14-.12.05c-2.23.88-5-.85-5.18-.86l-.28-.15.29-.1C75.71,113.49,79.79,112.18,80.79,114.48Z"/><path class="cls-3" d="M78.8,110.5l.08.14-.12.07c-1.83,1-4.36-.22-4.49-.23l-.3-.13.28-.13C74.39,110.15,77.75,108.68,78.8,110.5Z"/><path class="cls-3" d="M76.74,107.29l.09.13-.11.08c-1.42,1-3.59.17-3.69.16l-.31-.1.28-.16C73.09,107.33,75.74,105.9,76.74,107.29Z"/><path class="cls-3" d="M87.71,117.9l.26-.14-.07.38c0,.27-1.28,5.28-4.34,5.63l-.12,0,0-.16C82.88,120.57,87.48,118.06,87.71,117.9Z"/><path class="cls-3" d="M85.64,113.4l.25-.17,0,.38c0,.23-.62,4.68-3.33,5.36l-.12,0,0-.15C81.55,116.25,85.45,113.56,85.64,113.4Z"/><path class="cls-3" d="M83.17,109.46l.24-.2q0,.19,0,.38c0,.19-.13,4-2.44,4.93l-.12.05-.06-.14C79.83,112.32,83,109.61,83.17,109.46Z"/><path class="cls-3" d="M80.41,106.07l.22-.23,0,.37c0,.15.21,3.34-1.67,4.35l-.12.07-.08-.14C77.79,108.78,80.3,106.21,80.41,106.07Z"/><path class="cls-3" d="M77.75,103.58l.21-.25.06.37c0,.12.38,2.65-1.07,3.64l-.11.08-.09-.13C75.77,106,77.66,103.69,77.75,103.58Z"/><path class="cls-5" d="M83,30.75a7.66,7.66,0,0,0-15.31,0V78.1h0A7.52,7.52,0,0,1,60,85.48H83V30.75Z"/><path class="cls-6" d="M67.68,78.1h0v-25H52.38v25a7.66,7.66,0,0,0,15.31,0Z"/><path class="cls-6" d="M155.49,128.61h0V30.75h0a7.52,7.52,0,0,0-7.65-7.38H75.34A7.52,7.52,0,0,1,83,30.75v97.87A7.52,7.52,0,0,0,90.64,136h72.5A7.52,7.52,0,0,1,155.49,128.61Z"/><path class="cls-5" d="M98.2,125.63v3h0A7.52,7.52,0,0,1,90.54,136H163a7.52,7.52,0,0,0,7.65-7.38v-3Z"/><path class="cls-7" d="M98.71,51.19H91.13a.59.59,0,0,1-.59-.58V43.1a.59.59,0,0,1,.59-.58h7.58a.59.59,0,0,1,.59.58v7.51A.59.59,0,0,1,98.71,51.19Zm-7-1.17h6.4V43.68h-6.4Z"/><path class="cls-8" d="M94.91,49a.59.59,0,0,1-.51-.3c-1.51-2.64-5-4.36-5-4.37a.58.58,0,0,1-.27-.78.59.59,0,0,1,.79-.26,15.3,15.3,0,0,1,4.91,4,21.28,21.28,0,0,1,9.25-8.84.59.59,0,0,1,.77.31.58.58,0,0,1-.32.76,19.94,19.94,0,0,0-9.1,9.17.59.59,0,0,1-.51.34Z"/><rect class="cls-9" x="105.11" y="41.91" width="43.7" height="1.18"/><rect class="cls-9" x="105.11" y="44.81" width="14.42" height="1.18"/><rect class="cls-9" x="125.13" y="44.81" width="16.94" height="1.18"/><rect class="cls-9" x="105.11" y="47.71" width="24.15" height="1.18"/><rect class="cls-9" x="132.25" y="47.71" width="16.57" height="1.18"/><rect class="cls-9" x="105.11" y="50.61" width="10.46" height="1.18"/><rect class="cls-9" x="122.1" y="50.61" width="26.71" height="1.18"/><path class="cls-7" d="M98.71,68.83H91.13a.59.59,0,0,1-.59-.58V60.74a.59.59,0,0,1,.59-.58h7.58a.59.59,0,0,1,.59.58v7.51A.59.59,0,0,1,98.71,68.83Zm-7-1.17h6.4V61.32h-6.4Z"/><path class="cls-8" d="M94.91,66.68a.59.59,0,0,1-.51-.3c-1.51-2.64-5-4.36-5-4.37a.58.58,0,0,1-.27-.78.59.59,0,0,1,.79-.26,15.3,15.3,0,0,1,4.91,4,21.28,21.28,0,0,1,9.25-8.84.59.59,0,0,1,.77.31.58.58,0,0,1-.32.76,19.94,19.94,0,0,0-9.1,9.17.59.59,0,0,1-.51.34Z"/><rect class="cls-9" x="105.11" y="68.25" width="31.33" height="1.18" transform="translate(241.56 137.69) rotate(180)"/><rect class="cls-9" x="126.96" y="65.35" width="14.42" height="1.18" transform="translate(268.35 131.89) rotate(180)"/><rect class="cls-9" x="105.11" y="65.35" width="16.94" height="1.18" transform="translate(227.16 131.89) rotate(180)"/><rect class="cls-9" x="124.67" y="62.45" width="24.15" height="1.18" transform="translate(273.48 126.09) rotate(180)"/><rect class="cls-9" x="105.11" y="62.45" width="16.57" height="1.18" transform="translate(226.79 126.09) rotate(180)"/><rect class="cls-9" x="138.35" y="59.55" width="10.46" height="1.18" transform="translate(287.17 120.29) rotate(180)"/><rect class="cls-9" x="105.11" y="59.55" width="26.71" height="1.18" transform="translate(236.94 120.29) rotate(180)"/><path class="cls-7" d="M98.71,86.47H91.13a.59.59,0,0,1-.59-.58V78.38a.59.59,0,0,1,.59-.58h7.58a.59.59,0,0,1,.59.58v7.51A.59.59,0,0,1,98.71,86.47Zm-7-1.17h6.4V79h-6.4Z"/><path class="cls-8" d="M94.91,84.32a.59.59,0,0,1-.51-.3c-1.51-2.64-5-4.36-5-4.37a.58.58,0,0,1-.27-.78.59.59,0,0,1,.79-.26,15.3,15.3,0,0,1,4.91,4,21.28,21.28,0,0,1,9.25-8.84.59.59,0,0,1,.77.31.58.58,0,0,1-.32.76A19.94,19.94,0,0,0,95.44,84a.59.59,0,0,1-.51.34Z"/><rect class="cls-9" x="105.11" y="77.19" width="43.7" height="1.18" transform="translate(253.93 155.56) rotate(180)"/><rect class="cls-9" x="127.31" y="80.09" width="14.42" height="1.18" transform="translate(269.03 161.36) rotate(180)"/><rect class="cls-9" x="105.11" y="80.09" width="16.94" height="1.18" transform="translate(227.16 161.36) rotate(180)"/><rect class="cls-9" x="124.67" y="82.99" width="24.15" height="1.18" transform="translate(273.48 167.16) rotate(180)"/><rect class="cls-9" x="105.11" y="82.99" width="16.57" height="1.18" transform="translate(226.79 167.16) rotate(180)"/><rect class="cls-9" x="138.35" y="85.89" width="10.46" height="1.18" transform="translate(287.17 172.97) rotate(180)"/><rect class="cls-9" x="105.11" y="85.89" width="26.71" height="1.18" transform="translate(236.94 172.97) rotate(180)"/><path class="cls-7" d="M98.71,104.11H91.13a.59.59,0,0,1-.59-.58V96a.59.59,0,0,1,.59-.58h7.58a.59.59,0,0,1,.59.58v7.51A.59.59,0,0,1,98.71,104.11Zm-7-1.17h6.4V96.6h-6.4Z"/><path class="cls-8" d="M94.91,102a.59.59,0,0,1-.51-.3c-1.51-2.64-5-4.36-5-4.37a.58.58,0,0,1-.27-.78.59.59,0,0,1,.79-.26,15.3,15.3,0,0,1,4.91,4,21.28,21.28,0,0,1,9.25-8.84.59.59,0,0,1,.77.31.58.58,0,0,1-.32.76,19.94,19.94,0,0,0-9.1,9.17.59.59,0,0,1-.51.34Z"/><rect class="cls-9" x="105.11" y="103.53" width="43.7" height="1.18"/><rect class="cls-9" x="105.11" y="100.63" width="14.42" height="1.18"/><rect class="cls-9" x="125.13" y="100.63" width="16.94" height="1.18"/><rect class="cls-9" x="105.11" y="97.73" width="24.15" height="1.18"/><rect class="cls-9" x="132.25" y="97.73" width="16.57" height="1.18"/><rect class="cls-9" x="105.11" y="94.83" width="10.46" height="1.18"/><rect class="cls-9" x="119.53" y="94.83" width="26.71" height="1.18"/><path class="cls-7" d="M98.71,121.75H91.13a.59.59,0,0,1-.59-.58v-7.51a.59.59,0,0,1,.59-.58h7.58a.59.59,0,0,1,.59.58v7.51A.59.59,0,0,1,98.71,121.75Zm-7-1.17h6.4v-6.34h-6.4Z"/><rect class="cls-9" x="105.11" y="112.47" width="43.7" height="1.18"/><rect class="cls-9" x="105.11" y="115.37" width="14.42" height="1.18"/><rect class="cls-9" x="126.52" y="115.37" width="16.94" height="1.18"/><rect class="cls-9" x="105.11" y="118.27" width="24.15" height="1.18"/><rect class="cls-9" x="132.25" y="118.27" width="16.57" height="1.18"/><rect class="cls-9" x="105.11" y="121.17" width="10.46" height="1.18"/><rect class="cls-9" x="119.89" y="121.17" width="20.17" height="1.18"/><path class="cls-10" d="M51,77.44a4.3,4.3,0,0,1-1.32,2.63A2,2,0,0,0,51,81.71a1.53,1.53,0,0,0,2-.34l.42-2.22A3.88,3.88,0,0,0,51,77.44Z"/><path class="cls-11" d="M53.7,72.12a.93.93,0,0,0-1-.71.88.88,0,0,0-.86.87,1,1,0,0,0-1.3-.28,1.06,1.06,0,0,0-.39,1.36.85.85,0,0,0-1,.63,1.45,1.45,0,0,0,.49,1.57.78.78,0,0,0-.56,1c.3.92,1.8.91,1.8.91l-.43-1.92h0c.35-.33,1.39-1.34,1.21-1.43s-.55-.23-.85-.34l1.39-.67,0-.09a8.71,8.71,0,0,0,1.46.33l.8.55a8,8,0,0,0-.18,1.13c0,.1.46-.78.46-.78a1.25,1.25,0,0,0,.28-2A1.08,1.08,0,0,0,53.7,72.12Z"/><path class="cls-11" d="M50.67,73.15s-.49,1.62-.49,1.62v1.79a16.5,16.5,0,0,0,2.36,1.38c.31,0,1.19-2.23,1.19-2.23l.86-2.38-1.88-.76S50.7,73.12,50.67,73.15Z"/><path class="cls-12" d="M54.19,74.12A4.14,4.14,0,0,1,52,74a25.58,25.58,0,0,1-.22,3.07l-.39-.16s-.16-.93-.18-1c-.17-.17-.74-.7-1.22-.21s-.2,1.43.66,1.74c1.38,2.19,3.64,2,4,1.49.83-1.42.35-3.65.05-4.68A.8.8,0,0,0,54.19,74.12Z"/><path class="cls-11" d="M52.22,73.3s-1.76.5-1.76.52S51.63,76,51.63,76l.17,1.1c.11-1.17.09-1.77.64-2.2a3.45,3.45,0,0,1,2.24-.56C54.79,73.69,52.22,73.3,52.22,73.3Z"/><path class="cls-12" d="M72.2,84.3c.5-.21,1.2-1.06.82-1.28s-.92.56-1.62.82a2.66,2.66,0,0,0-1,.92l-4,.46L66.7,87l3.93-.75a5.38,5.38,0,0,0,2.28.25c1.27-.21,2.35-.8,2.17-1.88S73,84.43,72.2,84.3Z"/><path class="cls-13" d="M59.89,84.59c-3.72-1.5-8.61-2.57-9.11-.62-.59,2.32,4.75,3.64,8.24,4.1,4.8.62,11.09-1.41,11.09-1.41L70,84.46S62.77,85.75,59.89,84.59Z"/><path class="cls-13" d="M55.72,86.4a15.38,15.38,0,0,0-2.78-5,4.41,4.41,0,0,1-3.26-1.29C47.57,81.92,46,84,46.78,90.55c.43,3.85,1.61,8.7,1.61,10.71h7.91s-.15-3-.53-6.28C55.19,90,56.29,89,55.72,86.4Z"/><path class="cls-13" d="M51.68,91.74a29.32,29.32,0,0,0,.09-3.86.22.22,0,0,0-.08-.16.22.22,0,0,0-.14,0,.22.22,0,0,0-.22.23,28.82,28.82,0,0,1-.09,3.8c-.24,2.69,2.1,7.75,2.84,9.28a.22.22,0,0,1-.12.31l-1.26.48a.22.22,0,0,1-.26-.09c-.78-1.19-3.66-5.77-4.32-9.82a28.93,28.93,0,0,1-.38-4,.22.22,0,0,0-.22-.22h0a.23.23,0,0,0-.15.06.22.22,0,0,0-.07.17,29,29,0,0,0,.39,4c.79,4.77,4.56,10.24,4.59,10.3l.1.14,2.46-.93-.11-.22C54.66,101.16,51.41,94.74,51.68,91.74Z"/><path class="cls-12" d="M57.47,133.1s.22.8.22.82,1.48-.6,1.48-.6l.06-.94-1.84-.2Z"/><path class="cls-14" d="M56.29,101.27H49.39c.48,6.37,3.79,11.74,6,17.6.74,4.32,1.15,8.89,1.52,13.26l2.79.31a70.42,70.42,0,0,0-.2-16.4C58.66,110.86,57.55,106.26,56.29,101.27Z"/><path class="cls-11" d="M60.57,134.54a7.81,7.81,0,0,1-1.39-1.21,1.44,1.44,0,0,1-1.7-.23,3.06,3.06,0,0,0-.47,2.15l1.55.26.05-.33a11.87,11.87,0,0,0,2.49.75c1.27.21,1.56-.1,1.45-.33S61.59,135.21,60.57,134.54Z"/><path class="cls-15" d="M49.77,119.08c-.2,2.61.35,13.72.35,13.72h2.81s1.32-12.7,1.55-15.77.73-14,.73-15.77H48.38C47.12,106.54,49.42,112.53,49.77,119.08Z"/><rect class="cls-16" x="68.86" y="76.6" width="3.97" height="17.19" transform="translate(73.74 -25.57) rotate(41.24)"/><path class="cls-17" d="M102,49.68A18.65,18.65,0,1,0,103.71,76,18.67,18.67,0,0,0,102,49.68Z"/><path class="cls-18" d="M76.07,79.24a20.66,20.66,0,1,1,29.16-1.92A20.68,20.68,0,0,1,76.07,79.24ZM102,49.68A18.65,18.65,0,1,0,103.71,76,18.67,18.67,0,0,0,102,49.68Z"/><path class="cls-19" d="M65.36,91.46l-1.49-1.31a.2.2,0,0,0-.28,0L46.23,108.61l0,0a.72.72,0,0,0-.05.51,4.58,4.58,0,0,0,1.71,2.27A5.72,5.72,0,0,0,50,112.76a1,1,0,0,0,.79,0l.06,0,16-19.62a.2.2,0,0,0,0-.28Z"/><path class="cls-12" d="M55.67,102.55a2.66,2.66,0,0,0-1.2-.63l-1.76-3.61-1.54.85,2,3.46a5.38,5.38,0,0,0,.52,2.23c.62,1.13,1.54,1.95,2.49,1.42s-.53-2-.69-2.81c.36.4,1.4.78,1.48.35C57,103.54,56.15,103.13,55.67,102.55Z"/><path class="cls-13" d="M51.45,91.72c.36-4,0-9-2-8.9-2.39.11-2.11,5.6-1.54,9.07.79,4.78,4.56,10.21,4.56,10.21l2.06-.78S51.17,94.82,51.45,91.72Z"/><polygon class="cls-12" points="50.67 133.8 51.67 134.93 52.39 133.75 52.41 132.8 50.58 132.8 50.67 133.8"/><path class="cls-11" d="M54,134.72a7.81,7.81,0,0,1-1.57-1,1.44,1.44,0,0,1-1.72.06,3.06,3.06,0,0,0-.11,2.2h1.58v-.33a11.87,11.87,0,0,0,2.58.33c1.29,0,1.52-.36,1.38-.56S55.08,135.21,54,134.72Z"/><path class="cls-11" d="M132.44,77.88c0-1.55,2-2.3,3.58-1.69,3.18,1.22,1.33,7.87,2.48,8.67s1.11,3.52,0,4-6.54-.32-6.54-.61a34.67,34.67,0,0,0,1-3.6C133.18,83,132.44,77.88,132.44,77.88Z"/><path class="cls-10" d="M136.12,81a4.3,4.3,0,0,0,1.32,2.63,2,2,0,0,1-1.29,1.63,1.53,1.53,0,0,1-2-.34l-.42-2.22A3.88,3.88,0,0,1,136.12,81Z"/><path class="cls-12" d="M135.11,77.57a25.58,25.58,0,0,0,.22,3.07l.39-.16s.16-.93.18-1c.17-.17.74-.7,1.22-.21s.2,1.43-.66,1.74c-1.38,2.19-3.64,2-4,1.49-.83-1.42-.35-3.65-.05-4.68C133.21,77.11,134.44,78,135.11,77.57Z"/><path class="cls-16" d="M130.57,93.43c1.1-2.16,2-7.09,4.65-6.13,3.15,1.15.18,5.85-1.38,7.58-2.15,2.38-5.38,3.91-8.33,5.22a10.06,10.06,0,0,1-1.28-1.83C126.18,97.39,129.71,95.1,130.57,93.43Z"/><path class="cls-18" d="M130.23,90c.49-2.27,4-5,4-5a4.41,4.41,0,0,0,3.26-1.29c2.11,1.85,3,3.91,1.8,10.44-.62,3.28-2.22,7.67-.51,10.75h-7.91c0-.28.84-9.09.54-10C130.75,92.78,129.84,91.78,130.23,90Z"/><path class="cls-16" d="M133.41,93a13.91,13.91,0,0,0,.72-2.2,18.32,18.32,0,0,1,.75-2.33.22.22,0,1,1,.41.18,18,18,0,0,0-.73,2.28,14.2,14.2,0,0,1-.75,2.28,8,8,0,0,1-2.38,2.46c0-.16-.23-.3-.24-.42s.22-.08.22-.12A7,7,0,0,0,133.41,93Z"/><path class="cls-16" d="M136.79,94.11a9.66,9.66,0,0,0,1.59-3.37.22.22,0,0,1,.43.11,10.13,10.13,0,0,1-1.68,3.54,16.82,16.82,0,0,1-5.82,4.23l0-.51A16.09,16.09,0,0,0,136.79,94.11Z"/><path class="cls-18" d="M133.61,93.06c1-2.14,1.18-6.87,3.92-6.22,2.54.6.92,5.59-.57,7.42-2.05,2.52-5.26,4.05-8.28,5.28-.44-.62-.91-1.2-1.31-1.86C129.32,96.93,132.81,94.72,133.61,93.06Z"/><path class="cls-20" d="M125.7,102.58l4.09.2a.09.09,0,0,0,.08-.12l-2.82-7.42,0,0,0,0L122.9,95a.09.09,0,0,0-.08.12l2.82,7.42,0,0Z"/><path class="cls-12" d="M125.52,99.2a1.45,1.45,0,0,1-1,1.4c-.44.1-1.19-1.66-.69-1.93S125.46,98.53,125.52,99.2Z"/><path class="cls-21" d="M130.83,104.85h6.91c-.48,6.42-3.79,11.83-6,17.73-.74,4.35-1.15,9.41-1.52,13.8h-2.79a72.63,72.63,0,0,1,.2-16.65C128.47,114.51,129.57,109.88,130.83,104.85Z"/><path class="cls-22" d="M137.35,122.66c.2,2.61-.35,13.72-.35,13.72h-2.81s-1.32-12.7-1.55-15.77-.73-14-.73-15.77h6.84C142.19,110.67,137.7,116.11,137.35,122.66Z"/><path class="cls-12" d="M134.45,137.5a1.85,1.85,0,0,0,.27-1.12h1.83l-.09,1-1,1.13-1.7.48-.86-.58A5.78,5.78,0,0,0,134.45,137.5Z"/><path class="cls-11" d="M132.89,138.41a3.92,3.92,0,0,0,3.56-1,2.46,2.46,0,0,1,.26,1.25,2.77,2.77,0,0,1-.15.95H136v-.69a10.66,10.66,0,0,1-2.75.69C130.86,139.58,130.94,138.8,132.89,138.41Z"/><path class="cls-12" d="M127.6,137.5a1.85,1.85,0,0,0,.27-1.12h1.83l-.09,1-1,1.13-1.7.48-.86-.58A5.78,5.78,0,0,0,127.6,137.5Z"/><path class="cls-11" d="M126,138.41a3.92,3.92,0,0,0,3.56-1,2.46,2.46,0,0,1,.26,1.25,2.77,2.77,0,0,1-.15.95h-.53v-.69a10.66,10.66,0,0,1-2.75.69C124,139.58,124.1,138.8,126,138.41Z"/><path class="cls-11" d="M133.61,77a5.26,5.26,0,0,1,2.61.55c1.37.67,1.75,2.28,1.83,3.84s1.75,3.4,1.15,4.49c-.93,1.83-3.48-1.06-3.89-3.4-.24-1.36-.22-3.49-.92-4.39-.5-.64-1.74-.29-1.95-.24A1.25,1.25,0,0,1,133.61,77Z"/><polygon class="cls-12" points="136.45 137.38 135.46 138.51 134.73 137.33 134.72 136.38 136.54 136.38 136.45 137.38"/><path class="cls-11" d="M133.16,138.3a7.81,7.81,0,0,0,1.57-1,1.44,1.44,0,0,0,1.72.06,3.06,3.06,0,0,1,.11,2.2H135v-.33a11.87,11.87,0,0,1-2.58.33c-1.29,0-1.52-.36-1.38-.56S132,138.79,133.16,138.3Z"/><polygon class="cls-12" points="129.65 137.38 128.66 138.51 127.93 137.33 127.92 136.38 129.74 136.38 129.65 137.38"/><path class="cls-11" d="M126.36,138.3a7.81,7.81,0,0,0,1.57-1,1.44,1.44,0,0,0,1.72.06,3.06,3.06,0,0,1,.11,2.2h-1.58v-.33a11.87,11.87,0,0,1-2.58.33c-1.29,0-1.52-.36-1.38-.56S125.24,138.79,126.36,138.3Z"/></g></g></svg>