<svg id="Layer_1" data-name="Layer 1" xmlns="http://www.w3.org/2000/svg" xmlns:xlink="http://www.w3.org/1999/xlink" viewBox="0 0 499 365"><defs><style>.cls-1{fill:none;}.cls-2{opacity:0.8;}.cls-3{opacity:0.5;}.cls-4{fill:#1ca0a4;}.cls-5{fill:#152038;}.cls-6{fill:#8eacef;}.cls-7{fill:#ccd3e6;}.cls-8{fill:#575759;}.cls-9{fill:#fff;}.cls-10{fill:#363638;}.cls-11{fill:#fd615b;}.cls-12{fill:#0592f5;}.cls-13{fill:#cedcec;}.cls-14{clip-path:url(#clip-path);}.cls-15{fill:#ff9b79;}.cls-16{fill:#f56c63;}.cls-17{fill:#ffb028;}.cls-18{fill:#dc7f21;}.cls-19{fill:#00b570;}.cls-20{fill:#0076fa;}.cls-21{fill:#004ecb;}</style><clipPath id="clip-path"><path class="cls-1" d="M176.16,179.69c-1,3-1,3.5-1,3l0-85.06c0-.52,0-.44,0-62H366.46l0,144.1Z"/></clipPath></defs><title>imagaCS </title><g class="cls-2"><g class="cls-3"><path class="cls-4" d="M231.45,114.05a107.5,107.5,0,0,1-49-20.77C160.8,77,115.51,49.15,72.3,63,12.71,82.1,12.44,137.35,28,167.36s125.6,117.9,268.31,103.92C424,258.76,448.87,115.52,380.76,89.6,321.69,67.12,301.53,124.4,231.45,114.05Z"/></g><g class="cls-3"><ellipse class="cls-4" cx="415.3" cy="92.85" rx="5.54" ry="5.96"/></g><path class="cls-4" d="M32.81,66.49a6.6,6.6,0,0,1,7.38,4.13c1.88,5.08-3,10.78-9.65,8.22h0C24.84,74.62,27.33,67.5,32.81,66.49Z"/><circle class="cls-4" cx="400.18" cy="39.58" r="7.21"/><g class="cls-2"><circle class="cls-4" cx="68.62" cy="49.87" r="7.29" transform="translate(-10.91 20.38) rotate(-15.66)"/></g><path class="cls-4" d="M20.6,81.51a6,6,0,0,1,7.61.63c3.44,3.47,1.54,10-4.84,10.36h0C17.1,91.16,16.47,84.39,20.6,81.51Z"/><path class="cls-4" d="M12.51,97.09a4.34,4.34,0,0,1,5.55.46c2.51,2.53,1.12,7.28-3.53,7.56h0C10,104.14,9.5,99.19,12.51,97.09Z"/><path class="cls-4" d="M6.88,111a2.5,2.5,0,0,1,3.2.27c1.45,1.46.65,4.19-2,4.35H8A2.54,2.54,0,0,1,6.88,111Z"/><g class="cls-2"><circle class="cls-4" cx="49.78" cy="61" r="7.41" transform="translate(-27.6 46.48) rotate(-40.15)"/></g><path class="cls-4" d="M363.95,265a3.59,3.59,0,0,1,4.36,1.46c1.52,2.53-.53,6.07-4.32,5.37h0C360.51,270.15,361.12,266.09,363.95,265Z"/><circle class="cls-4" cx="377.85" cy="258.58" r="7.29" transform="translate(-75.54 194.8) rotate(-26.38)"/><circle class="cls-4" cx="386.59" cy="28.54" r="4.44"/></g><g class="cls-2"><path class="cls-4" d="M402.85,108.93c0-39.64-33-83.08-74.09-85.71l-2.19-.12c-58.89-2.74-63.38,69.08-116.66,77.18s-94-32.8-157.73-6.11c-57.26,24-72.77,158.63,95.47,164C282.26,262.52,402.86,227.21,402.85,108.93Z"/></g><ellipse class="cls-5" cx="273.53" cy="295.69" rx="129.83" ry="6.7"/><path class="cls-5" d="M361.47,276.94h-18v18.71h21V280A3,3,0,0,0,361.47,276.94Z"/><rect class="cls-5" x="247.23" y="236.85" width="62.45" height="40.09"/><path class="cls-6" d="M201.07,276.94H341.51a15.92,15.92,0,0,1,15.92,15.92v2.79a0,0,0,0,1,0,0H185.15a0,0,0,0,1,0,0v-2.79A15.92,15.92,0,0,1,201.07,276.94Z"/><rect class="cls-6" x="239.58" y="236.85" width="62.45" height="40.09"/><polygon class="cls-5" points="239.58 249.16 302.03 244.16 302.04 236.85 239.66 236.85 239.58 249.16"/><rect class="cls-7" x="129.54" y="62.95" width="283.34" height="173.91" rx="8.34" ry="8.34"/><path class="cls-8" d="M412.87,71.29v145.6h-25.8V62.95h17.45A8.34,8.34,0,0,1,412.87,71.29Z"/><path class="cls-9" d="M402.26,71.29V228.52a8.34,8.34,0,0,1-8.34,8.34h-256a8.34,8.34,0,0,1-8.34-8.34V71.29a8.34,8.34,0,0,1,8.34-8.34H394.29l.27,0h0l.19,0,.32,0,.21,0,.1,0,.2,0A8.35,8.35,0,0,1,402.26,71.29Z"/><path class="cls-10" d="M395.6,63.12l-.2,0-.1,0-.21,0-.32,0-.19,0h0l-.27,0H137.88a8.34,8.34,0,0,0-8.34,8.34v145.6H402.26V71.29A8.35,8.35,0,0,0,395.6,63.12Zm-4.15,139.23a2.27,2.27,0,0,1-2.27,2.27H142.62a2.27,2.27,0,0,1-2.27-2.27V76a2.27,2.27,0,0,1,2.27-2.27H389.17A2.27,2.27,0,0,1,391.44,76Z"/><rect class="cls-7" x="140.35" y="73.76" width="251.09" height="130.85" rx="2.27" ry="2.27"/><path class="cls-9" d="M391.44,76V88H140.35V76a2.27,2.27,0,0,1,2.27-2.27H389.17A2.27,2.27,0,0,1,391.44,76Z"/><circle class="cls-11" cx="370.07" cy="80.67" r="1.93"/><circle class="cls-12" cx="376.32" cy="80.67" r="1.93"/><rect class="cls-13" x="162.28" y="78.63" width="199.75" height="4.08" rx="1.8" ry="1.8"/><path d="M149.42,80.67v1.89a.35.35,0,0,1-.52.3l-1.64-.94L145.63,81a.35.35,0,0,1,0-.6l1.64-.94,1.64-.94a.35.35,0,0,1,.52.3Z"/><path d="M152.29,80.67v1.89a.35.35,0,0,0,.52.3l1.64-.94,1.64-.94a.35.35,0,0,0,0-.6l-1.64-.94-1.64-.94a.35.35,0,0,0-.52.3Z"/><rect class="cls-10" x="380.12" y="80.05" width="4.63" height="1.09" rx="0.48" ry="0.48" transform="translate(55.02 294.03) rotate(-45)"/><rect class="cls-10" x="381.89" y="78.28" width="1.09" height="4.63" rx="0.48" ry="0.48" transform="translate(55.02 294.03) rotate(-45)"/><rect class="cls-9" x="168.74" y="90.83" width="193.65" height="108.7" rx="4.75" ry="4.75"/><path class="cls-7" d="M224.79,146.45H182.33a1.18,1.18,0,0,1-1.18-1.18h0a1.18,1.18,0,0,1,1.18-1.18h42.46a1.18,1.18,0,0,1,1.18,1.18h0A1.18,1.18,0,0,1,224.79,146.45Z"/><path class="cls-7" d="M224.79,136.47H182.33a1.18,1.18,0,0,1-1.18-1.18h0a1.18,1.18,0,0,1,1.18-1.18h42.46a1.18,1.18,0,0,1,1.18,1.18h0A1.18,1.18,0,0,1,224.79,136.47Z"/><path class="cls-7" d="M224.79,156.43H182.33a1.18,1.18,0,0,1-1.18-1.18h0a1.18,1.18,0,0,1,1.18-1.18h42.46a1.18,1.18,0,0,1,1.18,1.18h0A1.18,1.18,0,0,1,224.79,156.43Z"/><path class="cls-7" d="M355.25,146.45H312.79a1.18,1.18,0,0,1-1.18-1.18h0a1.18,1.18,0,0,1,1.18-1.18h42.46a1.18,1.18,0,0,1,1.18,1.18h0A1.18,1.18,0,0,1,355.25,146.45Z"/><path class="cls-7" d="M355.25,136.47H312.79a1.18,1.18,0,0,1-1.18-1.18h0a1.18,1.18,0,0,1,1.18-1.18h42.46a1.18,1.18,0,0,1,1.18,1.18h0A1.18,1.18,0,0,1,355.25,136.47Z"/><path class="cls-7" d="M355.25,156.43H312.79a1.18,1.18,0,0,1-1.18-1.18h0a1.18,1.18,0,0,1,1.18-1.18h42.46a1.18,1.18,0,0,1,1.18,1.18h0A1.18,1.18,0,0,1,355.25,156.43Z"/><path class="cls-10" d="M168.74,182.65H362.39v15.88a1,1,0,0,1-1,1H169.74a1,1,0,0,1-1-1Z"/><path class="cls-9" d="M343.37,188.91v-1.43h1.79V186.2h-2.43a.64.64,0,0,0-.64.64v2.07Z"/><path class="cls-9" d="M343.37,191.46h-1.27v2.18a.64.64,0,0,0,.64.64h2.43V193h-1.79Z"/><path class="cls-9" d="M348.89,188.91h1.27v-2.07a.64.64,0,0,0-.64-.64h-2.33v1.27h1.7Z"/><path class="cls-9" d="M348.89,191.46V193h-1.7v1.27h2.33a.64.64,0,0,0,.64-.64v-2.18Z"/><polygon class="cls-9" points="180.02 190.51 180.02 186.49 183.5 188.5 186.98 190.51 183.5 192.52 180.02 194.53 180.02 190.51"/><rect class="cls-9" x="197.79" y="186.89" width="2.16" height="7.32" rx="0.84" ry="0.84"/><rect class="cls-9" x="202.3" y="186.89" width="2.16" height="7.32" rx="0.84" ry="0.84"/><rect class="cls-7" x="168.74" y="179.48" width="193.65" height="3.17"/><rect class="cls-11" x="168.74" y="179.48" width="99.37" height="3.17"/><path class="cls-10" d="M331.42,167.13h2.18v4.79h2.93v1.69h-5.11Z"/><path class="cls-10" d="M337.13,167.13h2.18v6.48h-2.18Z"/><path class="cls-10" d="M347.3,167.13l-2.74,6.48h-2.15l-2.74-6.48H342l1.55,3.79,1.58-3.79Z"/><path class="cls-10" d="M352.9,172v1.65h-5.39v-6.48h5.27v1.65h-3.12v.76h2.74v1.57h-2.74V172Z"/><circle class="cls-11" cx="325.16" cy="170.31" r="2.66"/><path class="cls-10" d="M192.39,172.12c0,1.48-1.4,2.44-3.42,2.44s-3.42-1-3.42-2.44a2,2,0,0,1,1-1.75,1.85,1.85,0,0,1-.75-1.5c0-1.38,1.29-2.27,3.14-2.27s3.14.89,3.14,2.27a1.85,1.85,0,0,1-.75,1.5A2,2,0,0,1,192.39,172.12Zm-2.58-.09a.84.84,0,1,0-.84.79A.77.77,0,0,0,189.81,172ZM188.37,169a.61.61,0,1,0,.61-.65A.59.59,0,0,0,188.37,169Z"/><path class="cls-10" d="M192.87,170.57c0-2.52,1.44-4,3.45-4s3.45,1.46,3.45,4-1.44,4-3.45,4S192.87,173.1,192.87,170.57Zm4.32,0c0-1.47-.37-1.93-.87-1.93s-.87.46-.87,1.93.37,1.93.87,1.93S197.19,172,197.19,170.57Z"/><circle class="cls-11" cx="178.76" cy="168.44" r="2.34"/><path class="cls-11" d="M183.13,174.36h-8.75a4.53,4.53,0,0,1,4.31-2.78h.13A4.53,4.53,0,0,1,183.13,174.36Z"/><g class="cls-14"><path class="cls-15" d="M205.65,115.6s-1.17,7.14-6.43,8.42c-4.25,1-8.25-3-9.63-4.65-.33-.38-.51-.63-.51-.63a7.32,7.32,0,0,1-.79,0c-1.11,0-3.08-.24-3.85-1.6-1.1-1.94,2.9-3.26,2.9-3.26s-2-1.83-1.54-3.16,3.25-1.58,3.25-1.58-3-1.92-2-3.6c1.49-2.52,4.55.25,4.8.41-.19-.22-4-4.19-1.93-4.9,1.83-.62,4.84,1.44,6.82,3.48l.49.51.33-.23c1-.66,4-2.44,6-.82C205.91,106,205.65,115.6,205.65,115.6Z"/><path class="cls-16" d="M200.16,120a.42.42,0,0,1-.53-.61,3.75,3.75,0,0,0,.64-3.12c-.69-2.67-4.27-4.52-4.31-4.54a.42.42,0,1,1,.38-.74c.16.08,3.95,2,4.73,5.08a4.55,4.55,0,0,1-.75,3.8A.42.42,0,0,1,200.16,120Z"/><path class="cls-16" d="M196.51,109.69a1.3,1.3,0,0,1-.59,1.14,1.45,1.45,0,0,1-.27.14,3,3,0,0,1-.75.17,3,3,0,0,1,.54.44,1.45,1.45,0,0,1,.32.49,1.09,1.09,0,0,1-.18,1.05c-.67.89-2.22,1.25-3.47,1.4a4.41,4.41,0,0,1,1.94,2,1.31,1.31,0,0,1-.16,1.27,2.47,2.47,0,0,1-.9.66,13.64,13.64,0,0,1-3.39.94c-.33-.38-.51-.63-.51-.63a7.23,7.23,0,0,1-.79,0,.41.41,0,0,1,.22-.09c1.55-.18,4.19-.72,4.71-1.41a.48.48,0,0,0,0-.49,5,5,0,0,0-3.08-2.17.42.42,0,0,1,.11-.82c1,0,3.87-.16,4.63-1.16.11-.15.08-.23.06-.27a1.39,1.39,0,0,0-.63-.58,10.28,10.28,0,0,0-2.47-.93.4.4,0,0,1-.21-.13.41.41,0,0,1-.09-.37.42.42,0,0,1,.5-.31c.14,0,.44.11.81.23a9.38,9.38,0,0,0,1.89.07,1.66,1.66,0,0,0,.71-.19.48.48,0,0,0,.21-.44,2.66,2.66,0,0,0-.45-1.27.41.41,0,0,1,0-.47h0a.41.41,0,0,1,.67,0A3.5,3.5,0,0,1,196.51,109.69Z"/><path class="cls-10" d="M193.45,101.88a11.37,11.37,0,0,1,2,1.44c.59.56,1,.85,1.37,1.22h0l-8-34a.41.41,0,0,0-.81.17l5.5,31.21Z"/><path class="cls-10" d="M200.42,120.78c-2.78,1.79-3.56.47-3.56.47l-1.41-8,.12-.14a1.09,1.09,0,0,0,.18-1.05,1.45,1.45,0,0,0-.32-.49,2.49,2.49,0,0,0-.32-.29l0-.17a2.88,2.88,0,0,0,.57-.15,1.45,1.45,0,0,0,.27-.14,1.23,1.23,0,0,0,.52-.67,2.07,2.07,0,0,0,1.25.56,2.81,2.81,0,0,0,.4,0Z"/><path class="cls-16" d="M202.84,108.3a13.73,13.73,0,0,1-2.74,1.84,4.69,4.69,0,0,1-2.42.58,2.08,2.08,0,0,1-1.51-.85c-1.32-1.78-.19-4.1.6-5.32l.49.51.33-.23c-.68,1-1.83,3.1-.75,4.54a1.25,1.25,0,0,0,.93.52c1.47.15,3.76-1.54,4.52-2.21a.42.42,0,0,1,.55.63Z"/><path class="cls-17" d="M245.78,100v0s0,0,0,0v0l0,.1-.05.25-.11.54q-.06.28-.12.57c0,.19-.08.38-.13.58-.18.78-.37,1.57-.58,2.36-.43,1.58-.89,3.17-1.43,4.73s-1.09,3.12-1.73,4.64c-.32.76-.64,1.51-1,2.26s-.69,1.48-1,2.22c-.73,1.45-1.5,2.89-2.32,4.27-.2.35-.42.69-.62,1s-.41.69-.64,1c-.44.66-.87,1.34-1.34,2-.9,1.31-1.9,2.54-2.89,3.76s-2.07,2.36-3.19,3.44l-.83.82-.87.78-.43.39-.11.1.06,0,.08-.06a3,3,0,0,1,.32-.23,5.07,5.07,0,0,1,1.56-.72l.37-.09.19,0,.16,0,.31,0h.44l.16,0h.17c.12,0-.12,0-.48-.16a12.29,12.29,0,0,1-1.39-.73c-.53-.32-1.11-.7-1.7-1.12-1.19-.84-2.44-1.85-3.68-2.92s-2.5-2.23-3.75-3.42-2.5-2.43-3.73-3.7-2.47-2.55-3.68-3.86q-.92-1-1.81-2l-1.74-1.91L194.7,125l.45.68.43.63.85,1.23q.86,1.22,1.74,2.42c1.18,1.59,2.39,3.16,3.65,4.71s2.56,3.08,3.93,4.59c.68.75,1.38,1.5,2.1,2.25s1.45,1.48,2.21,2.22a62.34,62.34,0,0,0,5,4.33c.91.71,1.87,1.41,2.93,2.09a29.9,29.9,0,0,0,3.55,2,21.47,21.47,0,0,0,4.85,1.66l.37.07.4.06.8.11.87.07.44,0h.47l.95,0c.33,0,.67-.06,1-.1l.51-.07.53-.1c.35-.08.7-.15,1.06-.25a14.55,14.55,0,0,0,4.1-1.91c.3-.21.59-.43.88-.66l.21-.17.19-.16.15-.14.62-.55,1.23-1.1c.4-.38.79-.76,1.19-1.15,1.59-1.52,3.05-3.16,4.48-4.82s2.73-3.42,3.94-5.21,2.36-3.63,3.42-5.5l.77-1.42c.25-.47.49-1,.73-1.43s.48-1,.71-1.44l.68-1.45a78.62,78.62,0,0,0,4.28-12c.54-2,1-4.09,1.4-6.19.19-1,.36-2.1.5-3.18,0-.27.07-.54.1-.81s.06-.55.09-.83.06-.57.08-.85l.08-1Z"/><circle class="cls-18" cx="204.66" cy="122.88" r="1.16" transform="translate(-9.72 17.88) rotate(-4.89)"/><path class="cls-18" d="M227.64,142.93a.5.5,0,0,0,.48-.38,37.36,37.36,0,0,0,.81-8.6.5.5,0,1,0-1,0,37.08,37.08,0,0,1-.78,8.33.5.5,0,0,0,.36.6Z"/><path class="cls-18" d="M230.82,139.34a.5.5,0,0,0,.44-.72,40.21,40.21,0,0,0-2.43-4.3.5.5,0,1,0-.78.62,40.89,40.89,0,0,1,2.32,4.12A.5.5,0,0,0,230.82,139.34Z"/><path class="cls-18" d="M199.94,132.61a.49.49,0,0,0,.36-.15c4.15-4.28,13.53-11.05,13.62-11.12a.5.5,0,0,0-.58-.8c-.1.07-9.54,6.89-13.75,11.23a.5.5,0,0,0,.36.84Z"/><path class="cls-18" d="M203.95,129a.5.5,0,0,0,.38-.81l-5-6a.5.5,0,1,0-.76.64l5,6A.49.49,0,0,0,203.95,129Z"/><path class="cls-10" d="M258,246l6.72-39.67.55-3.24L246,196.27l-1.1-.39-4.61-1.63s-.37,1.7-.94,4.61L239.1,200c-1.82,9.38-5.22,28.71-6.15,46Z"/><path class="cls-8" d="M254.61,246c2.91-15.82,6.64-38.93,6.86-40.28a.52.52,0,1,0-1-.17c-.05.33-3.93,24.33-6.9,40.44Z"/><path class="cls-10" d="M297.19,181.59s1.46,13.81-1.69,21.51-43.83,3.73-54.2-3.19c-4.25-2.84,4.8-29,4.8-29Z"/><path class="cls-8" d="M239.1,200a11.9,11.9,0,0,0,1.8-.46,12.06,12.06,0,0,0,2.68-1.3,14.13,14.13,0,0,0,2.39-1.95c4.49-4.52,5.81-11.36,5.87-11.7a.52.52,0,1,0-1-.19c0,.08-1.39,7.19-5.94,11.5a12.56,12.56,0,0,1-1.86,1.46,11,11,0,0,1-3.69,1.52C239.24,199.22,239.17,199.59,239.1,200Z"/><path class="cls-8" d="M264.2,203.84a.51.51,0,0,0,.49.53h0a.51.51,0,0,0,.55-.48c.09-1.89.2-3.82.32-5.75,0-.34,0-.68.07-1,.41-6.31.93-12.51,1.33-16.89,0-.35.06-.7.09-1,.09-1,.17-1.81.24-2.53l-1-.17c-.07.72-.15,1.58-.24,2.55,0,.33-.06.67-.09,1-.39,4.34-.91,10.48-1.32,16.76,0,.35,0,.69-.07,1C264.41,199.88,264.29,201.89,264.2,203.84Z"/><path class="cls-8" d="M262.71,197.18a13.65,13.65,0,0,0,1.82.7c.33.1.67.19,1,.26a7.49,7.49,0,0,0,1,.13,3.6,3.6,0,0,0,1.75-.27,2.14,2.14,0,0,0,1.19-1.59c.38-1.95,1.18-10,1.71-15.68,0-.35.07-.69.1-1l.23-2.44-1-.13c-.07.71-.14,1.55-.23,2.47l-.1,1c-.54,5.67-1.33,13.7-1.7,15.59a1.12,1.12,0,0,1-.63.88,3.69,3.69,0,0,1-2.21,0c-.35-.08-.7-.17-1-.28a12.43,12.43,0,0,1-1.43-.56.53.53,0,0,0-.7.23A.5.5,0,0,0,262.71,197.18Z"/><path class="cls-10" d="M292.13,246c1.61-14.72,3.47-34.42,4.52-45.84,0-.36.07-.7.1-1,.46-5,.75-8.21.75-8.21-2.5-1-7-.33-11.84,1l-1,.3A143.91,143.91,0,0,0,267,199.16V246Z"/><path class="cls-8" d="M289.67,246c1.39-16.37,3-40,3.06-40.32a.52.52,0,1,0-1-.07c0,.31-1.68,24-3.07,40.4Z"/><path class="cls-8" d="M281.72,184.57a27.36,27.36,0,0,0,2.88,7.69,16.86,16.86,0,0,0,5.37,6,12.22,12.22,0,0,0,6.67,2l.1-1a11.24,11.24,0,0,1-6.2-1.78,15.64,15.64,0,0,1-4.89-5.38,26.87,26.87,0,0,1-2.91-7.58.52.52,0,1,0-1,.19Z"/><path class="cls-17" d="M239.88,180.72c11.26,10.51,37.9,16.1,58.43,6.11,2.25-6.15,4.73-28.12,5.39-34.68.13-1.31.24-2.61.33-3.92a172.18,172.18,0,0,0,0-19.28l-.05-1.08c-.27-5.46-.67-11.12-1-17.13-.75-11.9-4.72-19.23-11.62-20.33a28.15,28.15,0,0,1-7.62-2.3l-.65-.32a21.56,21.56,0,0,1-3.49-2.16H264.17a11.73,11.73,0,0,1-4.79,4l-.6.27c-5.46,2.36-11.83,1.89-13.15,8.48-.83,4.14,2.34,12.65,2,29.9q0,1.9-.13,3.94t-.24,4c-.09,1.27-.21,2.58-.34,3.92q-.18,1.77-.4,3.62t-.52,3.91C245,154.79,242.24,171.5,239.88,180.72Z"/><path class="cls-18" d="M292.62,184.31l-.12,0a.46.46,0,0,1-.32-.57c8.55-31.34,6.82-63.2,6.8-63.52a.46.46,0,1,1,.92-.05c0,.32,1.75,32.33-6.84,63.81A.46.46,0,0,1,292.62,184.31Z"/><path class="cls-18" d="M246.24,143.61a.5.5,0,0,0,.49-.44c1-9.06,1-27.1,1-27.28a.5.5,0,1,0-1,0c0,.18,0,18.16-1,27.17a.5.5,0,0,0,.44.55Z"/><circle class="cls-18" cx="268.48" cy="177.65" r="1.16" transform="translate(-14.16 23.52) rotate(-4.89)"/><circle class="cls-18" cx="268.3" cy="183.26" r="1.16" transform="translate(-14.63 23.51) rotate(-4.88)"/><path class="cls-18" d="M253.59,121.61c-3-3.51-1.89-11.32-1.84-11.65a.5.5,0,0,1,.49-.42h10.25a.5.5,0,0,1,.49.42c0,.33,1.18,8.14-1.84,11.65a5.08,5.08,0,0,1-7.55,0Zm-.91-11.08c-.19,1.65-.69,7.7,1.66,10.43a4.09,4.09,0,0,0,6,0c2.35-2.73,1.85-8.79,1.66-10.44Z"/><path class="cls-10" d="M281,47.67c-2.87-1.86-11.9-2.79-11.9-2.79s-1.49-3.9-3.16-5c-3.81-2.54-4.28,2.6-4.28,2.6s-3.72-5.21-7.07-3.72.93,6.32.93,6.32-5-.93-4.46,3.35,5.39,6.14,5.39,6.14a9.38,9.38,0,0,0-.74,6.32c.74,3.9,2.42,4.09,2.42,4.09l20.83,1.86s4.28,0,5.39-5.39-2.6-7.62-2.6-7.62S284.11,49.72,281,47.67Z"/><path class="cls-15" d="M263.94,83v3.91a12.14,12.14,0,0,0,1.38,1c6.79,4.08,14.12-1,14.12-1V73.35l-13.66,8.5Z"/><path class="cls-10" d="M263.94,82.89v4a12.14,12.14,0,0,0,1.38,1c5.78-2.29,10-8.36,10-8.36l-9.53,2.33Z"/><path class="cls-17" d="M279.41,82.94a7.74,7.74,0,0,1,5.83,6c-4.45,4.66-8.39,8.7-14.76,9.88V89.46A16.49,16.49,0,0,0,279.41,82.94Z"/><path class="cls-17" d="M263.8,84.29s-4.08.88-5.67,6.1c4.12,5,6.31,6.89,12.35,8.42V89.46S267.11,89.4,263.8,84.29Z"/><polygon class="cls-10" points="261.5 157.03 264.14 163.43 264.14 163.43 265.33 166.3 268.69 174.41 270.31 171.28 270.88 170.17 272.19 167.66 272.76 166.55 274.06 164.04 274.63 162.93 275.94 160.42 275.94 160.41 276.51 159.31 277.73 156.95 277.71 156.69 277.52 154.82 277.08 150.57 276.89 148.7 276.46 144.45 276.27 142.58 275.84 138.33 275.65 136.46 275.21 132.22 275.02 130.34 274.59 126.1 274.4 124.22 273.97 119.98 273.78 118.1 273.35 113.86 273.16 111.99 272.72 107.74 272.53 105.87 272.09 101.48 268.84 101.35 268.75 102.08 268.55 103.57 268.11 106.94 267.91 108.42 267.47 111.79 267.27 113.28 266.83 116.65 266.63 118.13 266.19 121.5 265.99 122.99 265.55 126.36 265.35 127.84 264.9 131.21 264.71 132.7 264.26 136.07 264.07 137.56 263.62 140.92 263.43 142.41 262.98 145.78 262.79 147.26 262.34 150.63 262.14 152.12 261.7 155.49 261.5 156.98 261.5 157.03"/><polygon class="cls-8" points="268.55 103.57 272.72 107.74 272.53 105.87 268.75 102.08 268.55 103.57"/><polygon class="cls-8" points="267.91 108.42 273.35 113.86 273.16 111.99 268.11 106.94 267.91 108.42"/><polygon class="cls-8" points="267.27 113.28 273.97 119.98 273.78 118.1 267.47 111.79 267.27 113.28"/><polygon class="cls-8" points="266.63 118.13 274.59 126.1 274.4 124.22 266.83 116.65 266.63 118.13"/><polygon class="cls-8" points="265.99 122.99 275.21 132.22 275.02 130.34 266.19 121.5 265.99 122.99"/><polygon class="cls-8" points="265.35 127.84 275.84 138.33 275.65 136.46 265.55 126.36 265.35 127.84"/><polygon class="cls-8" points="264.71 132.7 276.46 144.45 276.27 142.58 264.9 131.21 264.71 132.7"/><polygon class="cls-8" points="264.07 137.56 277.08 150.57 276.89 148.7 264.26 136.07 264.07 137.56"/><polygon class="cls-8" points="263.43 142.41 277.71 156.69 277.52 154.82 263.62 140.92 263.43 142.41"/><polygon class="cls-8" points="262.79 147.26 275.94 160.41 276.51 159.31 262.98 145.78 262.79 147.26"/><polygon class="cls-8" points="262.14 152.12 274.06 164.04 274.63 162.93 262.34 150.63 262.14 152.12"/><polygon class="cls-8" points="261.5 156.98 272.19 167.66 272.76 166.55 261.7 155.49 261.5 156.98"/><polygon class="cls-8" points="264.14 163.43 265.33 166.3 270.31 171.28 270.88 170.17 264.14 163.43"/><polygon class="cls-8" points="272.09 101.48 270.47 103.88 268.84 101.35 268.56 103.51 270.45 105.44 272.26 103.15 272.09 101.48"/><polygon class="cls-10" points="274.8 97.45 270.47 103.88 266.33 97.45 270.47 92.08 274.8 97.45"/><path class="cls-18" d="M277.31,101.85a.5.5,0,0,0,.31-.11c4.28-3.42,7.93-12.24,8.08-12.62a.5.5,0,1,0-.92-.38c0,.09-3.47,8.4-7.39,11.88l-6.52-8.85a.5.5,0,0,0-.8,0L264,100.42c-.93-1.67-3.37-6.13-5.42-10.25a.5.5,0,0,0-.89.44c2.59,5.21,5.79,10.93,5.82,11a.5.5,0,0,0,.84,0l6.14-8.71,6.42,8.72a.5.5,0,0,0,.33.2Z"/><path class="cls-18" d="M270.48,92.57a.5.5,0,0,0,.5-.5V89.86a.5.5,0,1,0-1,0v2.22A.5.5,0,0,0,270.48,92.57Z"/><path class="cls-16" d="M259.05,65.66s-2.22-2.63-3.48,0-.29,7.94,3.09,7.07Z"/><path class="cls-15" d="M256.68,74.87s0,8.09,8.4,8.07,14.06-6.58,14.36-6.89h0l.09-1.7.48-8.82.25-4.72s1.07-8.49-7-10c-5.9-1.13-11.43-.15-14.22,2.92l-.26.31a7.25,7.25,0,0,0-1.59,4l-.26,8.47-.06,2.08Z"/><path class="cls-10" d="M266.34,60.35s3.53,2.63,5.63,1-2.79-3.5-4.4-3.36S265.29,59.75,266.34,60.35Z"/><path class="cls-10" d="M262.5,60.35s-3.53,2.63-5.63,1,2.79-3.5,4.4-3.36S263.55,59.75,262.5,60.35Z"/><path class="cls-16" d="M265.28,75.93a3.5,3.5,0,0,0,2.41-.77.37.37,0,0,0-.48-.56,2.57,2.57,0,0,1-2.59.4.37.37,0,0,0-.3.68A3,3,0,0,0,265.28,75.93Z"/><path class="cls-9" d="M268.93,70.15s-5.13,1-7.73.8c0,0,1,3.82,4.78,2.86A3.83,3.83,0,0,0,268.93,70.15Z"/><path class="cls-10" d="M258.79,54c1.32-.47,2.27,0,4.33.87,3,1.31,6.3.13,9.23-1.37s4.7.59,3.7,2-.89,2.48.22,4.23-2.1,2.56-.33,3.93a1.82,1.82,0,0,1,.4,2.24,1.21,1.21,0,0,0,1.36,1.6h0c1-.24,2.31-1.94,2.31-1.94l.25-4.72s1.07-8.49-7-10c-5.9-1.13-11.43-.15-14.22,2.92Z"/><ellipse class="cls-16" cx="270.62" cy="67.46" rx="2.71" ry="1.07"/><path class="cls-16" d="M256.88,68.5c.21,0,.43,0,.65,0,1.49,0,2.71-.48,2.71-1.07s-1.21-1.07-2.71-1.07l-.59,0Z"/><ellipse class="cls-10" cx="267.56" cy="64.22" rx="0.82" ry="1.46"/><ellipse class="cls-10" cx="259.43" cy="64.22" rx="0.82" ry="1.46"/><path class="cls-10" d="M276.8,72.77c0,.09,1.1,2.56,2.63,3.28h0l.09-1.7A5.81,5.81,0,0,1,276.8,72.77Z"/><path class="cls-15" d="M278.29,67.15s3.23-4.34,5.6-.93c2,2.81-1.74,10.14-5.6,7.63Z"/><path class="cls-10" d="M278.73,72.55a.33.33,0,0,0,.33-.3,5.56,5.56,0,0,1,3.23-4.48.33.33,0,0,0-.25-.62,6.23,6.23,0,0,0-3.65,5,.33.33,0,0,0,.29.37Z"/><path class="cls-10" d="M281.83,70.53a.33.33,0,0,0,.21-.59,3.21,3.21,0,0,0-2.33-.79.33.33,0,0,0,.16.64c.57-.15,1.45.43,1.74.66A.33.33,0,0,0,281.83,70.53Z"/><path class="cls-10" d="M264.12,68.29a.33.33,0,1,0,0-.67,2.29,2.29,0,0,1-2-.93c1.33-2.74,2.65-5.49,2.66-5.52a.33.33,0,1,0-.6-.29s-1.38,2.89-2.74,5.68a.33.33,0,0,0,0,.29A2.84,2.84,0,0,0,264.12,68.29Z"/><path class="cls-15" d="M344.62,98.28s4.48,4.52,8.9,2.76c3.57-1.43,4.36-6.39,4.54-8.25,0-.44,0-.71,0-.71a6.44,6.44,0,0,0,.58-.38c.79-.57,2.08-1.74,1.94-3.11-.2-2-3.74-.86-3.74-.86s.54-2.36-.51-3.05-3.14.53-3.14.53,1.14-2.89-.42-3.58c-2.35-1-3.14,2.5-3.23,2.74,0-.26,1.15-11.14-.72-10.58-1.63.49-3.13,9.58-3.51,12.06-.06.39-.09.62-.09.62h-.35c-1,0-4.13.31-4.7,2.46C339.51,91.5,344.62,98.28,344.62,98.28Z"/><path class="cls-16" d="M353.78,90.59A3.89,3.89,0,0,0,353.4,93a1.15,1.15,0,0,0,.77.83,2.18,2.18,0,0,0,1,0,12,12,0,0,0,2.91-1.06c0-.45,0-.71,0-.71a6.18,6.18,0,0,0,.58-.38.36.36,0,0,0-.2,0c-1.2.66-3.37,1.62-4.1,1.39a.42.42,0,0,1-.28-.33,4.4,4.4,0,0,1,1.1-3.13.37.37,0,0,0-.49-.54c-.73.54-2.85,1.86-3.91,1.52-.15,0-.17-.12-.18-.16a1.24,1.24,0,0,1,.16-.74,9,9,0,0,1,1.3-1.93.37.37,0,0,0,0-.52.37.37,0,0,0-.52,0,9.94,9.94,0,0,0-1.32,1.91,3.12,3.12,0,0,0-.31.92,1.26,1.26,0,0,0,0,.52,1,1,0,0,0,.67.66A4.67,4.67,0,0,0,353.78,90.59Z"/><path class="cls-16" d="M348.17,87.5a.36.36,0,0,1,.26.32,2.36,2.36,0,0,0,.32,1.14.42.42,0,0,0,.38.21,1.45,1.45,0,0,0,.6-.22,10.79,10.79,0,0,0,2-1.63.36.36,0,0,1-.09.2,9,9,0,0,0-1.3,1.93l-.22.13a2.8,2.8,0,0,1-.67.29l-.26,0a1.14,1.14,0,0,1-1-.52,3.06,3.06,0,0,1-.46-1.51.36.36,0,0,1,.46-.37Z"/><path class="cls-16" d="M342.91,91.61a12.09,12.09,0,0,0,2.9-.08,4.13,4.13,0,0,0,2-.82,1.83,1.83,0,0,0,.65-1.38c0-1.95-2-3-3.15-3.51-.06.39-.09.62-.09.62h-.35c1,.38,2.89,1.29,2.86,2.87a1.1,1.1,0,0,1-.4.85c-1,.86-3.48.81-4.37.72a.37.37,0,0,0-.08.73Z"/><path class="cls-16" d="M350.79,98.63a.37.37,0,0,0,.07-.71,3.3,3.3,0,0,1-2-1.92c-.87-2.27.76-5.42.77-5.45a.37.37,0,0,0-.65-.34c-.07.14-1.79,3.48-.81,6.05a4,4,0,0,0,2.48,2.34A.37.37,0,0,0,350.79,98.63Z"/><path class="cls-17" d="M296.28,93l7.66,6.65q1.84,1.71,3.69,3.4c1.23,1.13,2.45,2.26,3.69,3.37s2.46,2.21,3.69,3.29,2.46,2.14,3.68,3.15,2.43,2,3.57,2.85c.56.42,1.11.8,1.56,1.09l.3.19.12.08,0,0,.1.1c0,.05,0,.09.08.13a.57.57,0,0,0,.38.06,5.8,5.8,0,0,0,2.15-.83,18.46,18.46,0,0,0,2.94-2.2,39.83,39.83,0,0,0,3-3,74.91,74.91,0,0,0,5.71-7.35c1.82-2.62,3.1-4.65,4.75-7.44a12.29,12.29,0,0,0,11.16,4.27,99.32,99.32,0,0,1-4.32,10,77.23,77.23,0,0,1-5.68,9.65,49.21,49.21,0,0,1-3.69,4.69,34.56,34.56,0,0,1-4.8,4.48,24.19,24.19,0,0,1-3.13,2,20.48,20.48,0,0,1-3.88,1.62,17.71,17.71,0,0,1-4.68.74,17,17,0,0,1-5-.63,18,18,0,0,1-2.29-.81l-.53-.24-.45-.22-.42-.21-.4-.21c-1-.56-1.92-1.1-2.77-1.64-1.69-1.07-3.2-2.14-4.69-3.21s-2.89-2.17-4.3-3.27-2.78-2.2-4.13-3.32-2.69-2.24-4-3.38-2.63-2.28-3.94-3.43-2.59-2.32-3.87-3.5l-1.91-1.77-.95-.9-1-.92Z"/><path class="cls-18" d="M303.58,124.41a.46.46,0,0,1-.26-.08c-5.06-3.54-14-11-14.13-11.07a.46.46,0,0,1,.59-.71c.09.07,9.05,7.51,14.07,11a.46.46,0,0,1-.27.84Z"/><path class="cls-18" d="M293.13,116.35h-.07l-3.56-.52a.46.46,0,1,1,.13-.91l3.56.52a.46.46,0,0,1-.07.92Z"/><path class="cls-18" d="M352.06,106.54a.47.47,0,0,0-.32-.88c-6.71,1.46-10-4.94-10.08-5a.47.47,0,0,0-.63-.21h0a.47.47,0,0,0-.2.63c0,.07,3.71,7.11,11.12,5.49Z"/><path class="cls-18" d="M348.61,106.66a.47.47,0,0,0,.22-.23l2.21-5.15a.47.47,0,1,0-.86-.37L348,106.06a.47.47,0,0,0,.65.6Z"/><circle class="cls-18" cx="345.38" cy="101.33" r="0.82" transform="translate(-7.8 170.73) rotate(-27.47)"/><path class="cls-18" d="M323.38,123.13a.47.47,0,0,0,.25-.34A20.34,20.34,0,0,1,325,118.1a.47.47,0,1,0-.84-.43,20.87,20.87,0,0,0-1.46,5,.47.47,0,0,0,.68.49Z"/><path class="cls-18" d="M326.43,122.07l.09-.06a.47.47,0,0,0,.06-.66,8.64,8.64,0,0,1-1.64-3.13.47.47,0,0,0-.92.19,9.45,9.45,0,0,0,1.84,3.55A.47.47,0,0,0,326.43,122.07Z"/></g><ellipse class="cls-7" cx="453.61" cy="356.26" rx="41.67" ry="4.12"/><rect class="cls-10" x="424.71" y="322.03" width="56.23" height="4.45" rx="2.23" ry="2.23"/><rect class="cls-8" x="425.63" y="272.69" width="54.49" height="9.41" rx="1.55" ry="1.55"/><path class="cls-19" d="M439.32,232.65s-21.67-4.28-27.72-19.4,16.07-26.46,27.72-18.34C451.79,203.6,439.32,232.65,439.32,232.65Z"/><path class="cls-10" d="M452.2,272.38a.39.39,0,0,1-.39-.33c-2.08-14-10.44-34.25-17.1-48.73-7.22-15.7-14-28.23-14.09-28.35a.39.39,0,0,1,.69-.38c.07.13,6.89,12.68,14.12,28.4,6.68,14.52,15.07,34.81,17.16,48.94a.39.39,0,0,1-.33.45Z"/><path class="cls-10" d="M438.5,231.19a.39.39,0,0,1-.35-.21c-9.43-17.56-24.73-30.3-24.89-30.42a.39.39,0,1,1,.5-.61c.15.13,15.58,13,25.08,30.66a.39.39,0,0,1-.35.58Z"/><path class="cls-10" d="M438.93,232.45a.39.39,0,0,1-.3-.14A75.27,75.27,0,0,0,420,216.39a46.73,46.73,0,0,0-8.63-4.17.39.39,0,0,1,.24-.75,46.47,46.47,0,0,1,8.77,4.23,76,76,0,0,1,18.83,16.1.39.39,0,0,1-.3.65Z"/><path class="cls-10" d="M437,227.85a.39.39,0,0,1-.37-.27c-5.28-15.51-3.34-34.36-3.32-34.54a.39.39,0,0,1,.78.08c0,.19-1.94,18.87,3.28,34.21a.39.39,0,0,1-.24.5Z"/><path class="cls-10" d="M438.35,230.92a.39.39,0,0,1-.39-.33,54.6,54.6,0,0,1,1-22.81,36.23,36.23,0,0,1,3.32-8.6.39.39,0,0,1,.67.4,36.27,36.27,0,0,0-3.24,8.43,53.82,53.82,0,0,0-.93,22.45.39.39,0,0,1-.32.45Z"/><path class="cls-19" d="M462.18,236.61s21.89-3,28.82-17.73-14.47-27.37-26.59-20C451.45,206.86,462.18,236.61,462.18,236.61Z"/><path class="cls-10" d="M453.88,271.09h0a.39.39,0,0,1-.39-.4c.09-7.23,1.66-15.47,4.69-24.49a161.25,161.25,0,0,1,9.93-22.92,211.1,211.1,0,0,1,14.32-23.64.39.39,0,0,1,.64.46,210.28,210.28,0,0,0-14.27,23.55c-6.52,12.52-14.33,30.84-14.52,47A.39.39,0,0,1,453.88,271.09Z"/><path class="cls-10" d="M463.1,235.19a.39.39,0,0,1-.33-.6c10.53-17.1,26.69-29,26.85-29.12a.39.39,0,0,1,.46.63c-.16.12-16.2,11.93-26.64,28.9A.39.39,0,0,1,463.1,235.19Z"/><path class="cls-10" d="M462.6,236.42a.39.39,0,0,1-.28-.66,76,76,0,0,1,19.75-15,46.45,46.45,0,0,1,9-3.7.39.39,0,0,1,.19.76,46.73,46.73,0,0,0-8.87,3.65,75.26,75.26,0,0,0-19.52,14.79A.39.39,0,0,1,462.6,236.42Z"/><path class="cls-10" d="M464.78,231.94a.39.39,0,0,1-.36-.54c6.13-15,5.31-33.77,5.3-34a.39.39,0,1,1,.78,0c0,.19.83,19.12-5.36,34.29A.39.39,0,0,1,464.78,231.94Z"/><path class="cls-10" d="M463.27,234.93h-.09a.39.39,0,0,1-.3-.47,53.82,53.82,0,0,0,.4-22.47,36.28,36.28,0,0,0-2.74-8.61.39.39,0,0,1,.7-.36,36.25,36.25,0,0,1,2.8,8.78,54.6,54.6,0,0,1-.4,22.83A.39.39,0,0,1,463.27,234.93Z"/><path class="cls-19" d="M453.75,208.09s-18.55-12-18.56-28.29,24.72-18.63,32.54-6.77C476.09,185.71,453.75,208.09,453.75,208.09Z"/><path class="cls-10" d="M451.16,249.79h-.09a.39.39,0,0,1-.29-.47c3.27-13.81,3-35.68,2.16-51.6-.89-17.26-2.58-31.42-2.59-31.56a.39.39,0,1,1,.78-.09c0,.14,1.71,14.33,2.6,31.61.82,16,1.11,37.91-2.18,51.82A.39.39,0,0,1,451.16,249.79Z"/><path class="cls-10" d="M453.68,206.46a.39.39,0,0,1-.39-.35c-2.25-19.8-11.76-37.3-11.85-37.48a.39.39,0,0,1,.69-.38c.1.18,9.67,17.81,11.95,37.76a.39.39,0,0,1-.35.43Z"/><path class="cls-10" d="M453.61,207.78a.39.39,0,0,1-.37-.27,75.27,75.27,0,0,0-11.39-21.68,46.75,46.75,0,0,0-6.48-7.07.39.39,0,0,1,.5-.61,46.47,46.47,0,0,1,6.58,7.18A76,76,0,0,1,454,207.27a.39.39,0,0,1-.25.5Z"/><path class="cls-10" d="M453.55,202.8h0a.39.39,0,0,1-.37-.41c.83-16.36,9.62-33.15,9.71-33.32a.39.39,0,0,1,.69.37c-.09.17-8.79,16.81-9.62,33A.39.39,0,0,1,453.55,202.8Z"/><path class="cls-10" d="M453.65,206.15h-.08a.39.39,0,0,1-.3-.47,55.33,55.33,0,0,1,9.36-20.94,37.32,37.32,0,0,1,6.29-6.86.39.39,0,0,1,.48.62,37.36,37.36,0,0,0-6.16,6.73,54.55,54.55,0,0,0-9.2,20.62A.39.39,0,0,1,453.65,206.15Z"/><path class="cls-20" d="M476.41,247.68l-.65,1.72-.41,1.09-1.17,3.11-.41,1.09-1.2,3.2-.41,1.09L467,272.69H438.77L433.6,259l-.41-1.09-1.2-3.2-.41-1.09-1.17-3.11L430,249.4l-.65-1.72a1.8,1.8,0,0,1,1.68-2.43h43.7A1.8,1.8,0,0,1,476.41,247.68Z"/><polygon class="cls-21" points="475.76 249.4 475.35 250.49 430.4 250.49 430 249.4 475.76 249.4"/><polygon class="cls-21" points="474.18 253.6 473.77 254.69 431.99 254.69 431.58 253.6 474.18 253.6"/><polygon class="cls-21" points="472.57 257.88 472.16 258.97 433.6 258.97 433.19 257.88 472.57 257.88"/><polygon class="cls-10" points="445.32 282.1 443.75 287.14 421.96 357.37 417.71 357.37 431.52 288.58 432.83 282.1 445.32 282.1"/><polygon class="cls-10" points="488.18 357.37 483.92 357.37 461.49 285.06 460.57 282.1 473.06 282.1 473.37 283.67 473.38 283.67 488.18 357.37"/><rect class="cls-8" x="424.71" y="312.35" width="56.23" height="4.45" rx="2.23" ry="2.23"/><ellipse class="cls-7" cx="111.08" cy="38.85" rx="29.14" ry="28.78"/><ellipse class="cls-20" cx="111.08" cy="35.1" rx="29.14" ry="28.78"/><path class="cls-9" d="M111.08,58.5a23.4,23.4,0,1,1,23.69-23.4A23.57,23.57,0,0,1,111.08,58.5Z"/><path class="cls-7" d="M134.77,35.1q0,.93-.07,1.85a23.72,23.72,0,0,0-47.24,0q-.07-.91-.07-1.85a23.69,23.69,0,0,1,47.39,0Z"/><path class="cls-10" d="M111.08,37.54a.59.59,0,0,1-.48-.24L99,21.85A.58.58,0,0,1,99.1,21a.6.6,0,0,1,.83.12l11.34,15.08,12.89-5.59a.6.6,0,0,1,.78.3.58.58,0,0,1-.3.77l-13.32,5.77A.6.6,0,0,1,111.08,37.54Z"/></svg>