<svg id="Layer_1" data-name="Layer 1" xmlns="http://www.w3.org/2000/svg" viewBox="0 0 499 365"><defs><style>.cls-1{opacity:0.22;}.cls-2{fill:#3b5f7f;}.cls-3{opacity:0.08;}.cls-4{fill:#fff;}.cls-5{fill:#f2f2f2;}.cls-6{fill:#e6e6e6;}.cls-7{fill:#3b4d81;}.cls-8{fill:none;stroke:#231f20;stroke-linecap:round;stroke-miterlimit:10;stroke-width:3px;}.cls-9{fill:#db1a21;}.cls-10{fill:#231f20;}.cls-11{fill:#54c2ba;}.cls-12{fill:#ed1c24;}</style></defs><title>imagaCS </title><path class="cls-1" d="M336.83,93.94l-33.6-8.2A44.41,44.41,0,0,0,271.12,55l-6.64-1.62a44.41,44.41,0,0,0-42.65,12.46L196.11,59.6h0l-7.88-1.92a17.09,17.09,0,0,0-20.66,12.55L114.9,286.08a17.09,17.09,0,0,0,12.55,20.66L276.06,343c.53.13,1.07.23,1.6.31l.53.06c.35,0,.71.08,1.06.09l.63,0h.94l.67,0,.88-.1.68-.1c.28,0,.55-.11.82-.17a17.07,17.07,0,0,0,3-1l.41-.17c.32-.15.63-.31.94-.48l.35-.19c.32-.18.64-.38.95-.58l.24-.16c.34-.23.66-.47,1-.72l0,0a17,17,0,0,0,4.43-5.33h0a17.07,17.07,0,0,0,1.53-4l52.67-215.86A17.09,17.09,0,0,0,336.83,93.94Zm-80-27.43a7.69,7.69,0,1,1,5.65,9.29A7.69,7.69,0,0,1,256.88,66.51Z"/><path class="cls-2" d="M342.82,86.25,309.21,78A44.41,44.41,0,0,0,277.1,47.34l-6.64-1.62a44.41,44.41,0,0,0-42.65,12.46L194.21,50a17.09,17.09,0,0,0-20.66,12.55L120.88,278.39A17.09,17.09,0,0,0,133.44,299L282,335.31a17.09,17.09,0,0,0,20.66-12.55L355.37,106.9A17.09,17.09,0,0,0,342.82,86.25Zm-74.3-18.13a7.69,7.69,0,1,1,9.3-5.65A7.69,7.69,0,0,1,268.51,68.11Z"/><path class="cls-3" d="M284.92,307c-58.4-73.88-90.25-164.53-82.84-255.08L194.21,50a17.09,17.09,0,0,0-20.66,12.55L120.88,278.39A17.09,17.09,0,0,0,133.44,299L282,335.31a17.08,17.08,0,0,0,19.12-8.58Q293.09,317,284.92,307Z"/><polygon class="cls-4" points="289.07 289.99 333.95 106.07 192.81 71.64 142.37 278.36 240.09 302.2 289.07 289.99"/><rect class="cls-5" x="212.88" y="102" width="92.29" height="9.4" transform="translate(32.68 -58.36) rotate(13.71)"/><path class="cls-5" d="M285,180.34l-34.87-8.51L258.68,137l34.87,8.51Zm-28.67-12.27,24.91,6.08,6.08-24.91-24.91-6.08Z"/><path class="cls-5" d="M270.86,238.46,236,229.95l8.51-34.87,34.87,8.51Zm-28.67-12.27,24.91,6.08,6.08-24.91-24.91-6.08Z"/><rect class="cls-5" x="201.11" y="131.89" width="51.27" height="5.13" transform="translate(38.33 -49.92) rotate(13.71)"/><rect class="cls-5" x="198.07" y="144.34" width="51.27" height="5.13" transform="translate(41.2 -48.84) rotate(13.71)"/><rect class="cls-5" x="195.03" y="156.79" width="51.27" height="5.13" transform="translate(44.06 -47.77) rotate(13.71)"/><rect class="cls-5" x="187.13" y="189.17" width="51.27" height="5.13" transform="translate(51.51 -44.97) rotate(13.71)"/><rect class="cls-5" x="184.09" y="201.63" width="51.27" height="5.13" transform="translate(54.38 -43.9) rotate(13.71)"/><rect class="cls-5" x="181.05" y="214.08" width="51.27" height="5.13" transform="translate(57.25 -42.82) rotate(13.71)"/><path class="cls-6" d="M240.09,302.2s25.28-6.65,30.29-16.09c0,0,12.86,5.51,18.69,3.87C289.07,290,267.64,305.5,240.09,302.2Z"/><path class="cls-7" d="M388.85,99.7a.85.85,0,0,1-.25,0c-1.77-.12-7.16-.5-9.63-33.88-1-13.78-1.13-27.65-1.14-31.54l-14.36,3.21a.85.85,0,1,1-.37-1.67l15.4-3.45a.85.85,0,0,1,1,.84C379.43,58,381.82,97.53,388.72,98a.85.85,0,0,1,.13,1.69Z"/><line class="cls-8" x1="393.26" y1="206.33" x2="396.87" y2="222.49"/><rect class="cls-9" x="359.76" y="27.61" width="24.45" height="167.36" transform="translate(-15.33 83.93) rotate(-12.62)"/><path class="cls-7" d="M365.64,27,341.78,32.3l-2-8.92A12.23,12.23,0,0,1,349,8.78h0A12.23,12.23,0,0,1,363.65,18Z"/><path class="cls-7" d="M400.13,213.08l2.06-22.8-23.86,5.34,11.58,19.75A5.5,5.5,0,0,0,400.13,213.08Z"/><path class="cls-3" d="M359.75,77.32c-3-22.61-10.94-45.73-10.25-68.62l-.45.08a12.23,12.23,0,0,0-9.26,14.6l2,8.92,36.55,163.32,11.58,19.75a5.51,5.51,0,0,0,9,.68q-.55-1.82-1.08-3.64C385.09,167.1,365.84,124.12,359.75,77.32Z"/><path class="cls-1" d="M366.08,38.26l10-2.25c0,3.89.12,17.76,1.14,31.54,2.47,33.37,7.86,33.75,9.63,33.88a.84.84,0,0,0,.25,0,.85.85,0,0,0-.13-1.69c-6.9-.49-9.29-40-9.18-64.78a.85.85,0,0,0-1-.84l-11.09,2.48-1.77-7.92-2-8.92a12.22,12.22,0,0,0-14.3-9.31l-.3.05a12.28,12.28,0,0,0-2.35.78,12.13,12.13,0,0,0-2.08,1.2,12.23,12.23,0,0,0-4.83,12.62l2,8.92,36.55,163.32,5.79,9.88,5.79,9.88h0a5.88,5.88,0,0,0,.5.72l.17.2a5.45,5.45,0,0,0,.41.42l.2.18a5.22,5.22,0,0,0,.49.35l.17.11a5.22,5.22,0,0,0,.67.33l.24.08.47.14.33.07.38.06.38,0h.23l1.05,4.69a1.28,1.28,0,0,0,2.5-.56l-1.05-4.69a5.34,5.34,0,0,0,3.06-4.43l2.06-22.8Z"/><path class="cls-7" d="M388.85,99.7a.85.85,0,0,1-.25,0c-1.77-.12-7.16-.5-9.63-33.88-1-13.78-1.13-27.65-1.14-31.54l-14.36,3.21a.85.85,0,1,1-.37-1.67l15.4-3.45a.85.85,0,0,1,1,.84C379.43,58,381.82,97.53,388.72,98a.85.85,0,0,1,.13,1.69Z"/><path class="cls-10" d="M396.87,223.77a1.28,1.28,0,0,1-1.25-1L392,206.61a1.28,1.28,0,0,1,2.5-.56l3.62,16.15a1.28,1.28,0,0,1-1.25,1.56Z"/><rect class="cls-9" x="359.76" y="27.61" width="24.45" height="167.36" transform="translate(-15.33 83.93) rotate(-12.62)"/><path class="cls-7" d="M365.64,27,341.78,32.3l-2-8.92A12.23,12.23,0,0,1,349,8.78h0A12.23,12.23,0,0,1,363.65,18Z"/><path class="cls-7" d="M400.13,213.08l2.06-22.8-23.86,5.34,11.58,19.75A5.5,5.5,0,0,0,400.13,213.08Z"/><path class="cls-3" d="M359.75,77.32c-3-22.61-10.94-45.73-10.25-68.62l-.45.08a12.23,12.23,0,0,0-9.26,14.6l2,8.92,36.55,163.32,11.58,19.75a5.51,5.51,0,0,0,9,.68q-.55-1.82-1.08-3.64C385.09,167.1,365.84,124.12,359.75,77.32Z"/><path class="cls-11" d="M181,152.85a55.91,55.91,0,1,0-13.25,15.39l17.13,3.52Z"/><path class="cls-3" d="M88.72,90.39a55.85,55.85,0,0,0,72.41,82.46A89.49,89.49,0,0,1,88.72,90.39Z"/><rect class="cls-12" x="130.86" y="99.17" width="8.33" height="61" transform="translate(-51.95 120.43) rotate(-41.01)"/><rect class="cls-12" x="130.86" y="99.17" width="8.33" height="61" transform="translate(148.68 -57.04) rotate(50.34)"/><path class="cls-11" d="M276.51,260.39a55.91,55.91,0,1,1,13.25,15.39l-17.13,3.52Z"/><polygon class="cls-4" points="350.78 214.29 347.27 210.78 311.32 246.73 302.27 237.68 298.77 241.19 311.32 253.74 350.78 214.29"/><path class="cls-3" d="M350.78,280.77a68.8,68.8,0,0,1-66.3-87.18,55.82,55.82,0,0,0-8,66.81l-3.89,18.91,17.13-3.52a55.82,55.82,0,0,0,62.8,4.94C352,280.74,351.37,280.77,350.78,280.77Z"/></svg>