<svg id="Layer_1" data-name="Layer 1" xmlns="http://www.w3.org/2000/svg" viewBox="0 0 499 365"><defs><style>.cls-1{fill:#f5f5f5;}.cls-2{fill:#e1e1e1;}.cls-3{fill:#ececec;}.cls-4{fill:#1a2e35;}.cls-5{fill:#ff4f5b;}.cls-6{fill:#21a5a5;}.cls-7{fill:#fafafa;}.cls-8{fill:#375a64;}.cls-9{fill:#1ca0a4;}.cls-10{fill:#fff;}.cls-11{fill:none;}.cls-12{fill:#38f93d;}</style></defs><title>imagaCS </title><rect class="cls-1" x="102.56" y="59.2" width="41.32" height="56.54"/><rect class="cls-2" x="92.08" y="66.32" width="41.32" height="56.54"/><path class="cls-3" d="M328.13,143.63h-1.07l-3.11,0-11.67,0-40.29.06h-.11l0-.1a10,10,0,0,1,9.88-12.81l-.15.19a8.48,8.48,0,0,1-.31-2.7,8.91,8.91,0,0,1,4.61-7.51,9.12,9.12,0,0,1,8.54,0l-.21.07a13.29,13.29,0,0,1,7.82-7.28,12.48,12.48,0,0,1,9.91.47,13.52,13.52,0,0,1,6.14,6.7,12.81,12.81,0,0,1,.75,8l-.11-.13a9.58,9.58,0,0,1,4.66.67,9.75,9.75,0,0,1,3.46,2.37,6.22,6.22,0,0,1,1.09,1.56,8.79,8.79,0,0,1,.58,1.66,14.79,14.79,0,0,1,.4,3,17.21,17.21,0,0,1-.36,4.19,9.51,9.51,0,0,1-.29,1.06c-.08.23-.13.35-.13.35"/><path class="cls-3" d="M435.55,116.76a10.3,10.3,0,1,0,12,10.87h0l2.82-.47,1.51-3.17,2.2,2.56,3.54-.59,1.51-3.17,2.2,2.56,3-.51.92-1.93,1.34,1.56,1.77-.29,1.94-2.57L467,117.93l-21,3.49A10.3,10.3,0,0,0,435.55,116.76Zm-5.73,11.39a3,3,0,1,1,3.4,2.43A3,3,0,0,1,429.81,128.15Z"/><path class="cls-3" d="M425.11,195.44l1.27,23.32a1.57,1.57,0,0,0,1.56,1.49l42,.31a1.57,1.57,0,0,0,1.59-1.56l.13-18.15a1.57,1.57,0,0,0-1.57-1.59l-25.8,0a1.57,1.57,0,0,1-1.11-.46l-4.45-4.45a1.57,1.57,0,0,0-1.1-.46l-10.88-.08A1.57,1.57,0,0,0,425.11,195.44Z"/><rect class="cls-1" x="425.7" y="196.34" width="45.84" height="27.39" transform="translate(1.55 -3.28) rotate(0.42)"/><path class="cls-3" d="M422.13,198.6l3.29,28.59a1,1,0,0,0,1,.9l44.68.33a1,1,0,0,0,1-.93l2.46-28.55a1,1,0,0,0-1-1.1l-50.43-.37A1,1,0,0,0,422.13,198.6Z"/><path class="cls-3" d="M419.81,324.18c-10.64-7.43-13-21.22-12.63-33.62.07-2.07-.16-4.25.83-6.07s3.28-3.06,5.13-2.18c1.54.72,2.21,2.51,3.07,4a12.11,12.11,0,0,0,4.85,4.64,4.61,4.61,0,0,0,4.25.38c1.79-1,2-3.45,2-5.51q0-5.75-.07-11.51a19.19,19.19,0,0,1,.62-6.11,6.38,6.38,0,0,1,4-4.32c2-.55,4.38.58,4.79,2.6a19,19,0,0,1,.06,2.56,2.17,2.17,0,0,0,1.27,2,2.49,2.49,0,0,0,2.26-.94,27.37,27.37,0,0,0,4.91-7.42,38,38,0,0,1,4.58-7.65,11.13,11.13,0,0,1,7.54-4.23c2.95-.17,6.09,1.65,6.83,4.55s-.95,5.85-2.79,8.19a46,46,0,0,1-9.57,9.12,3.78,3.78,0,0,0-1.6,1.72c-.45,1.37.85,2.74,2.21,3.19,1.53.51,3.2.35,4.8.54s3.34.9,4,2.41c.84,2.1-.92,4.31-2.65,5.75A39.36,39.36,0,0,1,446.82,293a13.27,13.27,0,0,0-4.33,2.1,3.81,3.81,0,0,0-1.22,4.36c.74,1.45,2.63,1.92,4.22,1.62a27.43,27.43,0,0,0,4.52-1.73c2.83-1.07,6.48-.87,8.29,1.57a6.51,6.51,0,0,1,.69,5.76,15,15,0,0,1-3.12,5.09A39.58,39.58,0,0,1,439,323.68c-6.56,2.28-12.64,2.89-19.16.51"/><path class="cls-2" d="M419.65,333.37a90.37,90.37,0,0,1,3.36-17,184.36,184.36,0,0,1,7.32-19.86l2.19-5.11c.72-1.67,1.44-3.33,2.24-4.92a92.09,92.09,0,0,1,5.12-8.82c1.76-2.73,3.54-5.25,5.21-7.6s3.29-4.5,4.84-6.4a73.07,73.07,0,0,1,8-8.42c1-.92,1.83-1.6,2.38-2.06l.64-.52.22-.17-.2.2-.61.54c-.54.48-1.33,1.18-2.33,2.11a77.29,77.29,0,0,0-7.86,8.49c-1.53,1.91-3.12,4.07-4.79,6.42s-3.42,4.88-5.17,7.6a93.12,93.12,0,0,0-5.08,8.8c-.79,1.57-1.5,3.22-2.22,4.9l-2.18,5.1a189,189,0,0,0-7.34,19.81,91.94,91.94,0,0,0-3.43,16.89"/><path class="cls-2" d="M434.87,286.52a4.18,4.18,0,0,1-.2-.88c-.11-.57-.24-1.4-.38-2.42-.29-2-.6-4.89-.92-8s-.67-6-1-8c-.16-1-.29-1.84-.4-2.41a4.12,4.12,0,0,1-.11-.89,4.1,4.1,0,0,1,.26.86c.15.56.32,1.38.51,2.4.39,2,.78,4.87,1.1,8l.81,8,.26,2.43A4.11,4.11,0,0,1,434.87,286.52Z"/><path class="cls-2" d="M461.33,281.57a5.71,5.71,0,0,1-1.06.13c-.68.06-1.66.14-2.87.28-2.42.26-5.76.74-9.42,1.43s-6.94,1.47-9.3,2.09c-1.18.3-2.13.58-2.79.76a5.68,5.68,0,0,1-1,.25,5.65,5.65,0,0,1,1-.4c.65-.23,1.59-.54,2.76-.88,2.35-.69,5.63-1.51,9.3-2.21a93.34,93.34,0,0,1,9.46-1.32c1.22-.11,2.21-.15,2.89-.16A5.61,5.61,0,0,1,461.33,281.57Z"/><path class="cls-2" d="M423.34,315.92a1.36,1.36,0,0,1-.18-.32l-.45-1c-.39-.83-.92-2.05-1.56-3.57-1.28-3-2.91-7.27-4.65-12s-3.33-9-4.54-12l-1.45-3.61-.39-1a1.36,1.36,0,0,1-.11-.35,1.39,1.39,0,0,1,.18.32l.45,1c.39.83.92,2.05,1.56,3.57,1.28,3,2.91,7.27,4.65,12s3.33,9,4.54,12l1.45,3.61.39,1A1.37,1.37,0,0,1,423.34,315.92Z"/><path class="cls-2" d="M458.5,304.59a1.42,1.42,0,0,1-.35.14l-1,.34-3.77,1.22c-3.18,1-7.55,2.51-12.39,4.14s-9.23,3.07-12.43,4c-1.6.48-2.9.86-3.8,1.1l-1,.27a1.38,1.38,0,0,1-.37.07,1.44,1.44,0,0,1,.35-.14l1-.34,3.77-1.22c3.18-1,7.56-2.51,12.39-4.14s9.22-3.07,12.43-4c1.6-.48,2.9-.86,3.8-1.1l1-.27A1.38,1.38,0,0,1,458.5,304.59Z"/><path class="cls-4" d="M463.08,333.4c0,.1-98.32.18-219.58.18s-219.6-.08-219.6-.18,98.3-.18,219.6-.18S463.08,333.3,463.08,333.4Z"/><path class="cls-5" d="M414.51,299.84c1.65,2.12,4.6,1.24,5.92-.17s1.8-3.38,2.24-5.26c1-4.29,2-8.79.88-13.06a7.22,7.22,0,0,0-1.84-3.44,3.77,3.77,0,0,0-3.63-1c-1.49.47-2.35,2-3,3.43a31,31,0,0,0-2.39,13.43,10.75,10.75,0,0,0,1.76,6.07"/><path class="cls-6" d="M414.51,299.84c1.65,2.12,4.6,1.24,5.92-.17s1.8-3.38,2.24-5.26c1-4.29,2-8.79.88-13.06a7.22,7.22,0,0,0-1.84-3.44,3.77,3.77,0,0,0-3.63-1c-1.49.47-2.35,2-3,3.43a31,31,0,0,0-2.39,13.43,10.75,10.75,0,0,0,1.76,6.07"/><path class="cls-6" d="M420.83,310.66a13.34,13.34,0,0,1,8.21-1.42,6.88,6.88,0,0,1,4.17,1.62c1.08,1.07,1.37,3,.25,4.07a3.92,3.92,0,0,1-2.54.78c-2.19.09-4.63-.18-6.31,1.23-1,.8-1.56,2.08-2.73,2.51a2.82,2.82,0,0,1-3.17-1.22,4.82,4.82,0,0,1-.53-3.53A5.43,5.43,0,0,1,420.83,310.66Z"/><path class="cls-6" d="M410.45,303.2a8,8,0,0,0,.87-7.41,14.19,14.19,0,0,0-4.67-6.1,23.47,23.47,0,0,0-8-4.21,8.33,8.33,0,0,0-3.54-.42,3.68,3.68,0,0,0-2.85,1.93c-.74,1.61.14,3.46,1.07,5a59.48,59.48,0,0,0,5.51,7.54c1.63,1.9,3.49,3.76,5.88,4.54s4.81.55,6-1.14"/><path class="cls-4" d="M416.08,333a4.78,4.78,0,0,0,.09-1l.13-2.74a39.37,39.37,0,0,1,.41-4,30.86,30.86,0,0,1,1.21-4.79,17.4,17.4,0,0,1,2.19-4.39,9,9,0,0,1,2.91-2.68,8.52,8.52,0,0,1,2.52-.93,4.78,4.78,0,0,0,1-.19,4.69,4.69,0,0,0-1,0,7.77,7.77,0,0,0-2.64.83,9,9,0,0,0-3.08,2.71,17,17,0,0,0-2.27,4.48,28.85,28.85,0,0,0-1.2,4.86,33.79,33.79,0,0,0-.33,4.07c0,1.16,0,2.1,0,2.75A4.68,4.68,0,0,0,416.08,333Z"/><path class="cls-4" d="M416.16,330.85a2,2,0,0,0,0-.46l-.07-1.32c-.06-1.15-.14-2.81-.19-4.87-.11-4.11,0-9.8.33-16.06s1-11.92,1.63-16c.15-1,.3-1.94.44-2.74s.25-1.5.37-2.06l.24-1.3a2,2,0,0,0,.06-.46,2,2,0,0,0-.14.44l-.32,1.29c-.14.56-.28,1.25-.44,2.05s-.34,1.72-.5,2.73a150.4,150.4,0,0,0-1.75,16c-.37,6.28-.39,12-.21,16.09.08,2.06.21,3.72.32,4.87l.15,1.32A2,2,0,0,0,416.16,330.85Z"/><path class="cls-4" d="M415.63,319.89a8.83,8.83,0,0,0-.08-1.38c-.1-.89-.28-2.16-.61-3.72a49.41,49.41,0,0,0-1.49-5.4,48.41,48.41,0,0,0-2.61-6.34,34.45,34.45,0,0,0-7.23-10.1,17.05,17.05,0,0,0-1.65-1.39c-.25-.19-.48-.39-.7-.54l-.63-.39a8.79,8.79,0,0,0-1.2-.69,41.26,41.26,0,0,1,4,3.21,36.3,36.3,0,0,1,7.06,10.07,51.6,51.6,0,0,1,2.62,6.28,55.58,55.58,0,0,1,1.57,5.34c.36,1.54.59,2.81.74,3.68A8.9,8.9,0,0,0,415.63,319.89Z"/><rect class="cls-7" x="13.37" y="179.88" width="77.32" height="51.78"/><path class="cls-4" d="M69.69,211.29H67.63V198.9a5.4,5.4,0,0,0-10.8,0v12.39H54.77V198.9a7.46,7.46,0,0,1,14.92,0Z"/><rect class="cls-4" x="52.03" y="205.78" width="20.4" height="13.09" rx="3.39" ry="3.39"/><path class="cls-8" d="M62.23,212.32a1.7,1.7,0,1,1,1.7-1.7,1.7,1.7,0,0,1-1.7,1.7"/><rect class="cls-8" x="61.76" y="211.29" width="0.93" height="3.51"/><path class="cls-9" d="M51.52,211.14a8.25,8.25,0,0,0,4.92-7.64,8,8,0,0,0-7.71-8.29A8,8,0,0,0,41,203.44a8.24,8.24,0,0,0,4.93,7.71C34,212.94,34.52,225.89,34.52,225.89l28.17.13S63.33,212.93,51.52,211.14Z"/><path class="cls-4" d="M90.69,231.67s0-.33,0-.95l0-2.74,0-10.42-.07-37.69.14.14-77.31,0h0l.18-.18c0,18.45,0,36,0,51.78l-.16-.16,55.69.08,15.92,0,4.24,0h0l-4.2,0-15.88,0-55.8.08h-.16v-.16c0-15.79,0-33.34,0-51.78v-.18h.18l77.31,0h.14v.14l-.07,37.77,0,10.39,0,2.71C90.7,231.36,90.69,231.67,90.69,231.67Z"/><ellipse class="cls-4" cx="52.04" cy="186.11" rx="38.63" ry="0.18"/><circle class="cls-4" cx="17.66" cy="183" r="0.8"/><circle class="cls-4" cx="20.28" cy="183" r="0.8"/><circle class="cls-4" cx="23.1" cy="183" r="0.8"/><path class="cls-4" d="M90.69,231.67s0-.33,0-.95l0-2.74,0-10.42-.07-37.69.14.14-77.31,0h0l.18-.18c0,18.45,0,36,0,51.78l-.16-.16,55.69.08,15.92,0,4.24,0h0l-4.2,0-15.88,0-55.8.08h-.16v-.16c0-15.79,0-33.34,0-51.78v-.18h.18l77.31,0h.14v.14l-.07,37.77,0,10.39,0,2.71C90.7,231.36,90.69,231.67,90.69,231.67Z"/><ellipse class="cls-4" cx="51.53" cy="232.52" rx="0.18" ry="0.85"/><ellipse class="cls-4" cx="51.53" cy="238.99" rx="0.18" ry="1.87"/><ellipse class="cls-4" cx="51.53" cy="246.47" rx="0.18" ry="1.87"/><ellipse class="cls-4" cx="51.53" cy="253.96" rx="0.18" ry="1.87"/><ellipse class="cls-4" cx="51.53" cy="261.44" rx="0.18" ry="1.87"/><path class="cls-4" d="M53.24,268.76a4.26,4.26,0,0,1-1.71.18l-.18-.18h0v-.64c0-.2,0-.39,0-.54,0-.31.08-.5.13-.5s.09.19.13.5c0,.15,0,.34,0,.54v.64h0l-.18-.18A4.26,4.26,0,0,1,53.24,268.76Z"/><ellipse class="cls-4" cx="58.28" cy="268.76" rx="1.68" ry="0.18"/><ellipse class="cls-4" cx="65" cy="268.76" rx="1.68" ry="0.18"/><ellipse class="cls-4" cx="71.72" cy="268.76" rx="1.68" ry="0.18"/><ellipse class="cls-4" cx="78.44" cy="268.76" rx="1.68" ry="0.18"/><ellipse class="cls-4" cx="85.16" cy="268.76" rx="1.68" ry="0.18"/><ellipse class="cls-4" cx="91.88" cy="268.76" rx="1.68" ry="0.18"/><ellipse class="cls-4" cx="98.6" cy="268.76" rx="1.68" ry="0.18"/><ellipse class="cls-4" cx="105.32" cy="268.76" rx="1.68" ry="0.18"/><ellipse class="cls-4" cx="112.05" cy="268.76" rx="1.68" ry="0.18"/><ellipse class="cls-4" cx="118.77" cy="268.76" rx="1.68" ry="0.18"/><ellipse class="cls-4" cx="124.66" cy="268.76" rx="0.85" ry="0.18"/><rect class="cls-10" x="85" y="75" width="41.32" height="56.54"/><path class="cls-4" d="M126.34,131.52s0-.1,0-.28v-.8l0-3.09-.06-11.61c0-10-.07-24.06-.12-40.76l.19.19L85,75.22h0l.21-.21c0,21.12,0,40.67,0,56.54l-.17-.17,30,.07,8.35,0,2.2,0,.77,0-.73,0-2.17,0-8.31,0L85,131.72h-.17v-.17c0-15.87,0-35.42-.08-56.54v-.21h41.71V75c0,16.75,0,30.9-.06,40.88l0,11.57,0,3.05v.78A2.11,2.11,0,0,1,126.34,131.52Z"/><ellipse class="cls-4" cx="100.22" cy="86.37" rx="10.04" ry="0.21"/><ellipse class="cls-4" cx="105.65" cy="91.28" rx="15.47" ry="0.21"/><ellipse class="cls-4" cx="105.66" cy="96.4" rx="15.47" ry="0.21"/><ellipse class="cls-4" cx="105.66" cy="101.53" rx="15.47" ry="0.21"/><ellipse class="cls-4" cx="105.66" cy="106.65" rx="15.47" ry="0.21"/><ellipse class="cls-4" cx="105.67" cy="111.78" rx="15.47" ry="0.21"/><ellipse class="cls-4" cx="105.67" cy="116.9" rx="15.47" ry="0.21"/><ellipse class="cls-4" cx="98.52" cy="122.03" rx="8.31" ry="0.21"/><circle class="cls-5" cx="122.73" cy="127.24" r="8.39"/><path class="cls-2" d="M127.54,124c.36.34-1.29,2.68-3.68,5.25-.38.41-.77.8-1.13,1.16l-.58.58-.58-.48c-2.09-1.75-3.45-3.26-3.2-3.58s2,.63,4.26,2.22l-1.16.09c.33-.39.7-.79,1.08-1.2C125,125.48,127.18,123.67,127.54,124Z"/><ellipse class="cls-4" cx="102.54" cy="132.91" rx="0.18" ry="1.71"/><ellipse class="cls-4" cx="102.54" cy="139.75" rx="0.18" ry="1.71"/><ellipse class="cls-4" cx="102.54" cy="146.59" rx="0.18" ry="1.71"/><ellipse class="cls-4" cx="102.54" cy="153.43" rx="0.18" ry="1.71"/><ellipse class="cls-4" cx="102.54" cy="160.27" rx="0.18" ry="1.71"/><ellipse class="cls-4" cx="102.54" cy="167.1" rx="0.18" ry="1.71"/><ellipse class="cls-4" cx="102.54" cy="173.94" rx="0.18" ry="1.71"/><ellipse class="cls-4" cx="102.54" cy="180.78" rx="0.18" ry="1.71"/><path class="cls-4" d="M105.84,186a4.26,4.26,0,0,1-1.71.18,8,8,0,0,1-1.59-.11l-.08,0v0c0-.08,0-.12.06-.12s0,0,.06.12l-.06-.06a8,8,0,0,1,1.59-.11A4.26,4.26,0,0,1,105.84,186Z"/><ellipse class="cls-4" cx="110.96" cy="186.03" rx="1.71" ry="0.18"/><ellipse class="cls-4" cx="117.8" cy="186.03" rx="1.71" ry="0.18"/><ellipse class="cls-4" cx="124.64" cy="186.03" rx="1.71" ry="0.18"/><ellipse class="cls-4" cx="131.48" cy="186.03" rx="1.71" ry="0.18"/><ellipse class="cls-4" cx="247.09" cy="122.46" rx="0.18" ry="1.71"/><ellipse class="cls-4" cx="247.09" cy="129.29" rx="0.18" ry="1.71"/><ellipse class="cls-4" cx="247.09" cy="136.13" rx="0.18" ry="1.71"/><ellipse class="cls-4" cx="247.09" cy="142.97" rx="0.18" ry="1.71"/><ellipse class="cls-4" cx="247.09" cy="149.81" rx="0.18" ry="1.71"/><ellipse class="cls-4" cx="247.09" cy="156.65" rx="0.18" ry="1.71"/><ellipse class="cls-4" cx="247.09" cy="163.49" rx="0.18" ry="1.71"/><ellipse class="cls-4" cx="247.09" cy="170.33" rx="0.18" ry="1.71"/><path class="cls-9" d="M293.54,128.56l-.4,0-1.21,0-4.71,0-17.67.06-61,.09h-.16l0-.16a15.15,15.15,0,0,1,15-19.4l-.23.29a12.84,12.84,0,0,1-.47-4.1,13.49,13.49,0,0,1,7-11.38,13.81,13.81,0,0,1,12.92.07l-.32.11a20.12,20.12,0,0,1,11.84-11,18.89,18.89,0,0,1,15,.71A20.47,20.47,0,0,1,278.31,94a19.39,19.39,0,0,1,1.14,12.17l-.17-.19a14.51,14.51,0,0,1,7.06,1,14.77,14.77,0,0,1,5.24,3.59,9.41,9.41,0,0,1,1.65,2.36,13.3,13.3,0,0,1,.88,2.51,22.39,22.39,0,0,1,.6,4.59,26.06,26.06,0,0,1-.55,6.34,14.41,14.41,0,0,1-.44,1.6c-.12.36-.19.52-.19.52"/><path class="cls-2" d="M285.8,105.13h-2.63V89.29a6.9,6.9,0,0,0-13.8,0v15.84h-2.63V89.29a9.53,9.53,0,0,1,19.07,0Z"/><rect class="cls-2" x="263.23" y="98.09" width="26.07" height="16.72" rx="3.39" ry="3.39"/><path class="cls-8" d="M276.26,106.45a2.18,2.18,0,1,1,2.18-2.18,2.18,2.18,0,0,1-2.18,2.18"/><rect class="cls-8" x="275.67" y="105.13" width="1.19" height="4.48"/><path class="cls-4" d="M436.55,99.88a14.26,14.26,0,1,0-22.13-3.38l-2.9,2.71.69,4.82-4.5-1.26-3.63,3.39.69,4.82-4.5-1.26-3.12,2.91.42,2.94-2.74-.77L393,116.47l-.27,4.46,6.65,1.67L421,102.46A14.27,14.27,0,0,0,436.55,99.88Zm-2.11-17.54a4.09,4.09,0,1,1-5.78-.2A4.09,4.09,0,0,1,434.45,82.34Z"/><path class="cls-11" d="M436.55,99.88a14.26,14.26,0,1,0-22.13-3.38l-2.9,2.71.69,4.82-4.5-1.26-3.63,3.39.69,4.82-4.5-1.26-3.12,2.91.42,2.94-2.74-.77L393,116.47l-.27,4.46,6.65,1.67L421,102.46A14.27,14.27,0,0,0,436.55,99.88Zm-2.11-17.54a4.09,4.09,0,1,1-5.78-.2A4.09,4.09,0,0,1,434.45,82.34Z"/><path class="cls-4" d="M434.45,82.34s-.27-.25-.81-.58a4.08,4.08,0,0,0-2.57-.57,3.94,3.94,0,1,0,4.3,4.61,4.08,4.08,0,0,0-.39-2.61c-.3-.57-.56-.83-.53-.85s.08.05.2.18a3.15,3.15,0,0,1,.45.61,4.07,4.07,0,0,1,.51,2.72,4.22,4.22,0,0,1-4.94,3.48,4.23,4.23,0,0,1-3.44-3.69A4.22,4.22,0,0,1,431,80.94a4.07,4.07,0,0,1,2.67.7,3.14,3.14,0,0,1,.57.49C434.4,82.26,434.46,82.33,434.45,82.34Z"/><path class="cls-4" d="M436.55,99.88l-.21.2-.63.56a14.93,14.93,0,0,1-2.76,1.75,14.36,14.36,0,0,1-12,.17l.12,0-21.55,20.18-.06.06-.09,0-6.65-1.67-.13,0v-.14l.27-4.46v-.07l0,0,1.82-1.7.07-.07.09,0,2.74.77-.22.19-.42-2.94v-.09l.07-.06,3.12-2.91.07-.07.1,0,4.5,1.26-.22.2-.69-4.82v-.09L404,106l1-.9,2.67-2.49.07-.07.1,0,4.5,1.26-.22.2-.69-4.82v-.09l.07-.06,2.9-2.71,0,.21a14.55,14.55,0,0,1-1.85-6.49,13.83,13.83,0,0,1,.24-3.3,14,14,0,0,1,.95-3.1,14.37,14.37,0,0,1,27.51,6.89,14.1,14.1,0,0,1-1.6,5.49l-.27.51L439,97c-.19.29-.36.57-.54.81-.38.46-.68.88-1,1.17l-.66.66-.23.22.21-.24.63-.68c.28-.3.57-.72.94-1.18.18-.24.34-.52.53-.81l.28-.45.26-.51a14.28,14.28,0,0,0,.1-12.82,14.13,14.13,0,0,0-25.6.63,13.68,13.68,0,0,0-.92,3,13.5,13.5,0,0,0-.23,3.22,14.22,14.22,0,0,0,1.82,6.34l.07.12-.1.09-2.9,2.71.05-.15.69,4.82,0,.27-.26-.07-4.5-1.26.17,0-2.67,2.49-1,.9.05-.16.69,4.82,0,.27-.26-.07-4.5-1.26.17,0-3.12,2.91.05-.15.42,2.94,0,.26-.26-.07-2.74-.77.16,0-1.82,1.69.05-.11-.28,4.46-.13-.17,6.65,1.68-.15,0,21.62-20.1.05,0,.07,0a14.29,14.29,0,0,0,11.88-.08,15.72,15.72,0,0,0,2.77-1.7l.65-.54Z"/><path class="cls-2" d="M436.08,98.26a14.26,14.26,0,1,0-22.13-3.38h0l-2.9,2.7.69,4.82-4.5-1.26-3.63,3.39.69,4.82-4.5-1.26L396.68,111l.42,2.94-2.74-.77-1.82,1.69-.27,4.46,6.65,1.67,21.59-20.14A14.27,14.27,0,0,0,436.08,98.26ZM434,80.72a4.09,4.09,0,1,1-5.78-.2A4.09,4.09,0,0,1,434,80.72Z"/><path class="cls-11" d="M436.08,98.26a14.26,14.26,0,1,0-22.13-3.38h0l-2.9,2.7.69,4.82-4.5-1.26-3.63,3.39.69,4.82-4.5-1.26L396.68,111l.42,2.94-2.74-.77-1.82,1.69-.27,4.46,6.65,1.67,21.59-20.14A14.27,14.27,0,0,0,436.08,98.26ZM434,80.72a4.09,4.09,0,1,1-5.78-.2A4.09,4.09,0,0,1,434,80.72Z"/><path class="cls-4" d="M434,80.72s-.27-.25-.81-.58a4.08,4.08,0,0,0-2.57-.57,3.94,3.94,0,1,0,4.3,4.61,4.08,4.08,0,0,0-.39-2.61c-.3-.57-.56-.83-.53-.85s.08.05.2.18a3.15,3.15,0,0,1,.45.61,4.07,4.07,0,0,1,.51,2.72,4.22,4.22,0,0,1-4.94,3.48A4.23,4.23,0,0,1,426.75,84a4.22,4.22,0,0,1,3.81-4.69,4.07,4.07,0,0,1,2.67.7,3.15,3.15,0,0,1,.57.49C433.92,80.64,434,80.71,434,80.72Z"/><path class="cls-4" d="M436.08,98.26l-.21.2-.63.56a14.93,14.93,0,0,1-2.76,1.75,14.36,14.36,0,0,1-12,.17l.12,0L399,121.1l-.06.06-.09,0-6.65-1.67-.13,0v-.14l.27-4.46v-.07l0,0,1.82-1.7.07-.07.09,0,2.74.77-.22.19L396.5,111v-.09l.07-.06,3.12-2.91.07-.07.1,0,4.5,1.26-.22.2-.69-4.82v-.09l.07-.06,1-.9,2.67-2.49.07-.07.1,0,4.5,1.26-.22.2-.69-4.82v-.09l.07-.06,2.9-2.71,0,.21a14.55,14.55,0,0,1-1.85-6.49,13.83,13.83,0,0,1,.24-3.3,14,14,0,0,1,.95-3.1A14.37,14.37,0,0,1,440.64,89a14.1,14.1,0,0,1-1.6,5.49l-.27.51-.29.45c-.19.29-.36.57-.54.81-.38.46-.68.88-1,1.17l-.66.66-.23.22.21-.24.63-.68c.28-.3.57-.72.94-1.18.18-.24.34-.52.53-.81l.28-.45.26-.51a14.28,14.28,0,0,0,.1-12.82,14.13,14.13,0,0,0-25.6.63,13.68,13.68,0,0,0-.92,3,13.5,13.5,0,0,0-.23,3.22,14.22,14.22,0,0,0,1.82,6.34l.07.12-.1.09-2.9,2.71.05-.15.69,4.82,0,.27-.26-.07-4.5-1.26.17,0-2.67,2.49-1,.9.05-.16.69,4.82,0,.27-.26-.07-4.5-1.26.17,0-3.12,2.91.05-.15.42,2.94,0,.26-.26-.07-2.74-.77.16,0L392.65,115l.05-.11-.28,4.46-.13-.17,6.65,1.68-.15,0,21.62-20.1.05,0,.07,0a14.29,14.29,0,0,0,11.88-.08,15.72,15.72,0,0,0,2.77-1.7l.65-.54Z"/><path class="cls-4" d="M434.77,97.15a19.46,19.46,0,0,0,1.92-2.42,12,12,0,0,0,1.47-3.28,12.42,12.42,0,0,0-6.32-14.51,11.64,11.64,0,0,0-3.37-1.14,11.33,11.33,0,0,0-3.71-.12,12.33,12.33,0,0,0-10.7,10,11.33,11.33,0,0,0-.14,3.71,11.64,11.64,0,0,0,.9,3.44,12.46,12.46,0,0,0,14,7.31,12,12,0,0,0,3.38-1.24,19.46,19.46,0,0,0,2.54-1.74l-.14.14-.45.4a5.8,5.8,0,0,1-.77.6,8.86,8.86,0,0,1-1.12.72,11.87,11.87,0,0,1-3.4,1.31,12.66,12.66,0,0,1-10.21-2.13,12.72,12.72,0,0,1-4.17-5.25,11.94,11.94,0,0,1-.94-3.53,11.64,11.64,0,0,1,.13-3.81,12.65,12.65,0,0,1,11-10.26,11.64,11.64,0,0,1,3.81.13A11.94,11.94,0,0,1,432,76.65a12.72,12.72,0,0,1,4.94,4.52,12.66,12.66,0,0,1,1.41,10.33,11.87,11.87,0,0,1-1.54,3.3,8.86,8.86,0,0,1-.79,1.07,5.81,5.81,0,0,1-.65.72l-.43.42Z"/><path class="cls-4" d="M434.19,87s.3-.31.7-.95a4.78,4.78,0,0,0,.67-3A4.66,4.66,0,0,0,433,79.4a4.59,4.59,0,0,0-2.65-.46,4.61,4.61,0,0,0-4,3.73,4.59,4.59,0,0,0,.28,2.67,4.66,4.66,0,0,0,3.47,2.78,4.78,4.78,0,0,0,3.07-.46c.66-.35,1-.66,1-.63s-.06.09-.21.22a3.75,3.75,0,0,1-.71.52,4.77,4.77,0,0,1-3.18.59,4.86,4.86,0,0,1-2.1-.87,4.94,4.94,0,0,1-1.63-2A4.89,4.89,0,0,1,426,82.6a4.93,4.93,0,0,1,4.3-4,4.89,4.89,0,0,1,2.84.52,4.94,4.94,0,0,1,1.92,1.77,4.86,4.86,0,0,1,.72,2.15,4.77,4.77,0,0,1-.81,3.13,3.76,3.76,0,0,1-.57.68C434.28,87,434.2,87,434.19,87Z"/><ellipse class="cls-4" cx="408.15" cy="109.95" rx="15.01" ry="0.18" transform="translate(34.71 307.99) rotate(-43.01)"/><ellipse class="cls-4" cx="374.46" cy="181.97" rx="1.71" ry="0.18"/><ellipse class="cls-4" cx="381.3" cy="181.97" rx="1.71" ry="0.18"/><ellipse class="cls-4" cx="388.14" cy="181.97" rx="1.71" ry="0.18"/><ellipse class="cls-4" cx="394.97" cy="181.97" rx="1.71" ry="0.18"/><ellipse class="cls-4" cx="401.81" cy="181.97" rx="1.71" ry="0.18"/><ellipse class="cls-4" cx="408.65" cy="181.97" rx="1.71" ry="0.18"/><path class="cls-4" d="M416.16,180.94c.07,0,.14.43.16,1v.16h-.84a4.26,4.26,0,0,1-1.71-.18,4.26,4.26,0,0,1,1.71-.18h.67L416,182C416,181.37,416.09,180.94,416.16,180.94Z"/><ellipse class="cls-4" cx="416.16" cy="175.81" rx="0.18" ry="1.71"/><ellipse class="cls-4" cx="416.16" cy="168.97" rx="0.18" ry="1.71"/><ellipse class="cls-4" cx="416.16" cy="162.13" rx="0.18" ry="1.71"/><ellipse class="cls-4" cx="416.16" cy="155.29" rx="0.18" ry="1.71"/><ellipse class="cls-4" cx="416.16" cy="148.45" rx="0.18" ry="1.71"/><ellipse class="cls-4" cx="416.16" cy="141.62" rx="0.18" ry="1.71"/><ellipse class="cls-4" cx="416.16" cy="134.78" rx="0.18" ry="1.71"/><ellipse class="cls-4" cx="416.16" cy="127.94" rx="0.18" ry="1.71"/><ellipse class="cls-4" cx="416.16" cy="121.1" rx="0.18" ry="1.71"/><ellipse class="cls-4" cx="416.16" cy="114.26" rx="0.18" ry="1.71"/><ellipse class="cls-4" cx="363.18" cy="250.14" rx="1.71" ry="0.18"/><ellipse class="cls-4" cx="370.02" cy="250.14" rx="1.71" ry="0.18"/><ellipse class="cls-4" cx="376.86" cy="250.14" rx="1.71" ry="0.18"/><ellipse class="cls-4" cx="383.7" cy="250.14" rx="1.71" ry="0.18"/><ellipse class="cls-4" cx="390.53" cy="250.14" rx="1.71" ry="0.18"/><ellipse class="cls-4" cx="397.37" cy="250.14" rx="1.71" ry="0.18"/><ellipse class="cls-4" cx="404.21" cy="250.14" rx="1.71" ry="0.18"/><ellipse class="cls-4" cx="411.05" cy="250.14" rx="1.71" ry="0.18"/><ellipse class="cls-4" cx="417.89" cy="250.14" rx="1.71" ry="0.18"/><ellipse class="cls-4" cx="424.73" cy="250.14" rx="1.71" ry="0.18"/><path class="cls-4" d="M432.64,249.5c.06,0,.1.25.13.64v.12h-.15c-.29,0-.66,0-1.07,0a4.26,4.26,0,0,1-1.71-.18,4.26,4.26,0,0,1,1.71-.18c.41,0,.78,0,1.07,0l-.14.14C432.53,249.75,432.59,249.5,432.64,249.5Z"/><ellipse class="cls-4" cx="432.69" cy="244.37" rx="1.71" ry="0.18" transform="translate(184.06 674.63) rotate(-89.43)"/><ellipse class="cls-4" cx="432.76" cy="237.53" rx="1.71" ry="0.18" transform="matrix(0.01, -1, 1, 0.01, 190.97, 667.93)"/><ellipse class="cls-4" cx="432.83" cy="230.69" rx="1.71" ry="0.18" transform="translate(197.87 661.22) rotate(-89.43)"/><path class="cls-9" d="M410.22,207.55l1.26,23.11a1.56,1.56,0,0,0,1.55,1.48l41.59.3a1.56,1.56,0,0,0,1.57-1.55l.13-18a1.56,1.56,0,0,0-1.56-1.57l-25.58,0a1.56,1.56,0,0,1-1.1-.46l-4.41-4.41a1.56,1.56,0,0,0-1.09-.46l-10.78-.08A1.56,1.56,0,0,0,410.22,207.55Z"/><rect class="cls-9" x="410.8" y="208.45" width="45.44" height="27.15" transform="translate(1.64 -3.17) rotate(0.42)"/><path class="cls-9" d="M407.27,210.69,410.53,239a1,1,0,0,0,1,.89l44.28.32a1,1,0,0,0,1-.92l2.44-28.3a1,1,0,0,0-1-1.09l-50-.37A1,1,0,0,0,407.27,210.69Z"/><rect class="cls-4" x="131.31" y="166.63" width="248.82" height="164.54" rx="14.57" ry="14.57"/><path class="cls-4" d="M120.9,319H390.48a0,0,0,0,1,0,0v3.19a11.21,11.21,0,0,1-11.21,11.21H132.11a11.21,11.21,0,0,1-11.21-11.21V319a0,0,0,0,1,0,0Z"/><rect class="cls-8" x="137.98" y="173.17" width="234.76" height="138.95"/><polygon class="cls-8" points="231.19 319 234.53 324.32 281.6 324.32 284.71 319 231.19 319"/><rect class="cls-3" x="142.82" y="177.87" width="225.58" height="133.8" rx="3.27" ry="3.27"/><rect class="cls-7" x="142.82" y="187.68" width="225.58" height="124"/><circle class="cls-4" cx="159.52" cy="183.04" r="1.8"/><circle class="cls-4" cx="148.6" cy="183.04" r="1.8"/><circle class="cls-4" cx="153.84" cy="183.04" r="1.8"/><path class="cls-8" d="M378,319c0,.09-55.23.16-123.33.16s-123.35-.07-123.35-.16,55.21-.16,123.35-.16S378,318.91,378,319Z"/><rect class="cls-2" x="158.45" y="250.14" width="51.48" height="3.44"/><rect class="cls-2" x="224.94" y="202.33" width="51.48" height="3.44"/><path class="cls-2" d="M353,215.16c0,.09-28.66.16-64,.16s-64-.07-64-.16,28.66-.16,64-.16S353,215.07,353,215.16Z"/><path class="cls-2" d="M353,222.68c0,.09-28.66.16-64,.16s-64-.07-64-.16,28.66-.16,64-.16S353,222.59,353,222.68Z"/><path class="cls-2" d="M353,230.2c0,.09-28.66.16-64,.16s-64-.07-64-.16,28.66-.16,64-.16S353,230.11,353,230.2Z"/><path class="cls-2" d="M353,237.72c0,.09-28.66.16-64,.16s-64-.07-64-.16,28.66-.16,64-.16S353,237.63,353,237.72Z"/><path class="cls-2" d="M353,245.23c0,.09-28.66.16-64,.16s-64-.07-64-.16,28.66-.16,64-.16S353,245.15,353,245.23Z"/><ellipse class="cls-2" cx="249.93" cy="252.75" rx="24.99" ry="0.16"/><path class="cls-2" d="M352,267.35c0,.09-18.84.16-42.08.16s-42.08-.07-42.08-.16,18.84-.16,42.08-.16S352,267.26,352,267.35Z"/><path class="cls-2" d="M352,275.33c0,.09-18.84.16-42.08.16s-42.08-.07-42.08-.16,18.84-.16,42.08-.16S352,275.24,352,275.33Z"/><path class="cls-2" d="M352,283.31c0,.09-18.84.16-42.08.16s-42.08-.07-42.08-.16,18.84-.16,42.08-.16S352,283.22,352,283.31Z"/><path class="cls-2" d="M352,291.29c0,.09-18.84.16-42.08.16s-42.08-.07-42.08-.16,18.84-.16,42.08-.16S352,291.2,352,291.29Z"/><ellipse class="cls-2" cx="184.98" cy="266.58" rx="25.08" ry="0.16"/><ellipse class="cls-2" cx="184.98" cy="272.85" rx="25.08" ry="0.16"/><ellipse class="cls-2" cx="184.98" cy="279.12" rx="25.08" ry="0.16"/><ellipse class="cls-2" cx="184.98" cy="285.39" rx="25.08" ry="0.16"/><ellipse class="cls-2" cx="184.98" cy="291.66" rx="25.08" ry="0.16"/><rect class="cls-1" x="224.91" y="263.54" width="36.52" height="35.33"/><polygon class="cls-3" points="227.74 295.85 237.84 277.67 246.11 289.29 251.13 283.12 258.6 295.85 227.74 295.85"/><circle class="cls-3" cx="247" cy="274.13" r="2.63"/><path class="cls-3" d="M258.6,295.95a1.09,1.09,0,0,1,0-.14c0-.11,0-.24,0-.41l0-1.59c0-1.4,0-3.43,0-6,0-5.16,0-12.51-.08-21.33l.15.15-30.86,0,.17-.17h0v2q0,1,0,2,0,2,0,3.93c0,2.6,0,5.14,0,7.61,0,4.95,0,9.63,0,13.93l-.15-.15,22.31.08,6.29,0,1.67,0h0l-1.64,0-6.26,0-22.41.08h-.15v-.15c0-4.3,0-9,0-13.93,0-2.47,0-5,0-7.61q0-1.95,0-3.93,0-1,0-2v-2h0l.18-.18,30.86,0h.15v.15c0,8.86-.06,16.25-.08,21.43,0,2.56,0,4.57,0,6q0,1,0,1.56v.4A.64.64,0,0,1,258.6,295.95Z"/><rect class="cls-1" x="159.42" y="196.45" width="49.53" height="47.92"/><polygon class="cls-2" points="163.26 240.28 176.97 215.62 188.18 231.38 194.99 223.01 205.12 240.28 163.26 240.28"/><circle class="cls-2" cx="189.38" cy="210.82" r="3.56"/><path class="cls-2" d="M205.12,240.41a1.48,1.48,0,0,1,0-.2c0-.14,0-.33,0-.56l0-2.16c0-1.9,0-4.65-.05-8.14,0-7-.06-17-.1-28.94l.2.2-41.85,0,.23-.23h0v2.71q0,1.36,0,2.71,0,2.69,0,5.34c0,3.52,0,7,0,10.33,0,6.71,0,13.06,0,18.89l-.21-.21,30.26.1,8.54.05,2.26,0h0l-2.22,0-8.49.05-30.39.1h-.21v-.21c0-5.84,0-12.18,0-18.89,0-3.36,0-6.81,0-10.33q0-2.64,0-5.34,0-1.35,0-2.71v-2.71h0l.24-.24,41.85,0h.2v.2c0,12-.08,22-.1,29.07,0,3.47,0,6.2-.05,8.09q0,1.37,0,2.12v.54A.86.86,0,0,1,205.12,240.41Z"/><polygon class="cls-12" points="215.6 214.67 218.04 219.62 223.52 220.42 219.56 224.28 220.49 229.73 215.6 227.16 210.7 229.73 211.64 224.28 207.68 220.42 213.15 219.62 215.6 214.67"/><polygon class="cls-12" points="232.83 197.43 235.28 202.39 240.75 203.18 236.79 207.04 237.73 212.49 232.83 209.92 227.94 212.49 228.87 207.04 224.91 203.18 230.38 202.39 232.83 197.43"/><polygon class="cls-12" points="254.58 189.37 257.05 194.37 262.56 195.18 258.57 199.07 259.51 204.56 254.58 201.97 249.65 204.56 250.59 199.07 246.59 195.18 252.11 194.37 254.58 189.37"/><polygon class="cls-12" points="278.62 196.36 281.09 201.36 286.6 202.16 282.61 206.05 283.55 211.54 278.62 208.95 273.68 211.54 274.63 206.05 270.63 202.16 276.15 201.36 278.62 196.36"/><polygon class="cls-12" points="295.19 212.92 297.65 217.92 303.17 218.72 299.18 222.62 300.12 228.11 295.19 225.52 290.25 228.11 291.19 222.62 287.2 218.72 292.72 217.92 295.19 212.92"/><polygon class="cls-12" points="301.19 236.96 303.66 241.96 309.18 242.76 305.19 246.66 306.13 252.15 301.19 249.56 296.26 252.15 297.2 246.66 293.21 242.76 298.73 241.96 301.19 236.96"/><polygon class="cls-12" points="296.19 261.68 298.65 266.68 304.17 267.48 300.18 271.37 301.12 276.87 296.19 274.27 291.25 276.87 292.19 271.37 288.2 267.48 293.72 266.68 296.19 261.68"/><polygon class="cls-12" points="278.59 278.25 281.06 283.24 286.58 284.05 282.59 287.94 283.53 293.43 278.59 290.84 273.66 293.43 274.6 287.94 270.61 284.05 276.13 283.24 278.59 278.25"/><polygon class="cls-12" points="254.95 285.07 257.42 290.07 262.94 290.88 258.95 294.77 259.89 300.26 254.95 297.67 250.02 300.26 250.96 294.77 246.97 290.88 252.49 290.07 254.95 285.07"/><polygon class="cls-12" points="232.38 278.25 234.84 283.25 240.36 284.05 236.37 287.94 237.31 293.44 232.38 290.85 227.44 293.44 228.38 287.94 224.39 284.05 229.91 283.25 232.38 278.25"/><polygon class="cls-12" points="214.51 261.25 216.98 266.25 222.5 267.05 218.5 270.94 219.45 276.43 214.51 273.84 209.58 276.43 210.52 270.94 206.53 267.05 212.04 266.25 214.51 261.25"/><polygon class="cls-12" points="209.34 237.89 211.78 242.85 217.25 243.64 213.29 247.5 214.23 252.95 209.34 250.38 204.44 252.95 205.38 247.5 201.42 243.64 206.89 242.85 209.34 237.89"/><path class="cls-4" d="M272.75,252.89H268V226.84a11.12,11.12,0,1,0-22.24,0v26.06h-4.79V226.84a15.91,15.91,0,1,1,31.82,0Z"/><rect class="cls-9" x="235.4" y="241.3" width="42.88" height="27.51" rx="5.81" ry="5.81"/><circle class="cls-4" cx="256.84" cy="251.48" r="3.58"/><rect class="cls-4" x="255.87" y="252.89" width="1.96" height="7.37"/><ellipse class="cls-7" cx="237.69" cy="255.96" rx="0.18" ry="10.25"/><path class="cls-7" d="M254,256.07s-.17-.06-.42-.24a4.38,4.38,0,0,1-.92-.94,5,5,0,0,1,1.78-7.54,4.38,4.38,0,0,1,1.25-.43,1.1,1.1,0,0,1,.48,0,11.18,11.18,0,0,0-1.61.67,5,5,0,0,0-1.7,7.17A11.16,11.16,0,0,0,254,256.07Z"/></svg>