<svg id="Layer_1" data-name="Layer 1" xmlns="http://www.w3.org/2000/svg" xmlns:xlink="http://www.w3.org/1999/xlink" viewBox="0 0 499 365"><defs><style>.cls-1,.cls-23{fill:none;}.cls-1{clip-rule:evenodd;}.cls-2{fill:#9ca4ff;}.cls-10,.cls-11,.cls-12,.cls-13,.cls-14,.cls-15,.cls-16,.cls-17,.cls-18,.cls-19,.cls-2,.cls-20,.cls-21,.cls-22,.cls-26,.cls-27,.cls-28,.cls-29,.cls-3,.cls-30,.cls-31,.cls-32,.cls-35,.cls-36,.cls-37,.cls-38,.cls-43,.cls-44,.cls-47,.cls-5,.cls-7,.cls-8{fill-rule:evenodd;}.cls-3{fill:#ffbdc8;}.cls-11,.cls-4{fill:#fff;}.cls-5{fill:#152038;}.cls-18,.cls-47,.cls-6{fill:#1ca0a4;}.cls-47,.cls-6{opacity:0.51;}.cls-7{fill:#ffa281;}.cls-8{fill:#f2ba59;}.cls-9{fill:#059170;}.cls-10{fill:#f29d7e;}.cls-12{fill:#f2b741;}.cls-13{fill:#281616;}.cls-14{fill:#3b47bc;}.cls-15{fill:#ffc45c;}.cls-16{fill:#e5ac8e;}.cls-17{fill:#faa098;}.cls-19{fill:#d49682;}.cls-20{fill:#c26b29;}.cls-21{fill:#f29524;}.cls-22{fill:#f28c83;}.cls-23{stroke:#fff;stroke-miterlimit:2.61;stroke-width:2.83px;}.cls-24{clip-path:url(#clip-path);}.cls-25{fill:url(#linear-gradient);}.cls-26{fill:#f7b290;}.cls-27{fill:#f7bcaa;}.cls-28{fill:#3a438c;}.cls-29{fill:#343c7d;}.cls-30{fill:#45ef79;}.cls-31{fill:#3f4a99;}.cls-32{fill:#fdce3d;}.cls-33{clip-path:url(#clip-path-2);}.cls-34{fill:url(#linear-gradient-2);}.cls-35{fill:#345f82;}.cls-36{fill:#61b2c6;}.cls-37{fill:#e6a586;}.cls-38{fill:#ea5766;}.cls-39{clip-path:url(#clip-path-3);}.cls-40{fill:url(#linear-gradient-3);}.cls-41{clip-path:url(#clip-path-4);}.cls-42{fill:url(#linear-gradient-4);}.cls-43{fill:#bd8a6f;}.cls-44{fill:#2d357d;}.cls-45{clip-path:url(#clip-path-5);}.cls-46{fill:url(#linear-gradient-5);}</style><clipPath id="clip-path"><path class="cls-1" d="M143.33,276c1.28-1.27,3.92-7.55-1.36-11.57a13.25,13.25,0,0,0-12.09-1.8c-4.92,1.83-4.77,6.56-7.55,7.62-2.35.89-8.83-1.74-14.5,2.27-4.05,2.86-1.86,9-4.17,11-1.17,1-13.93,5.46-7.92,16.52,3.14,5.78,10.58,6.25,14.6,5.15s5.75-5.26,9.23-7.93c2.23-1.71,5.43-1.34,6.94-2.66,3-2.62,2.16-7.22,6.75-8.15l3.41-8.52Z"/></clipPath><linearGradient id="linear-gradient" x1="104.31" y1="300.06" x2="134.51" y2="265.46" gradientUnits="userSpaceOnUse"><stop offset="0" stop-color="#d18965"/><stop offset="1" stop-color="#de936d"/></linearGradient><clipPath id="clip-path-2"><path class="cls-1" d="M137.78,286.3l.49-4.4a5,5,0,0,0,1.48-.32c-2.89,1-6.76-1.26-8.8-2.49l-.69,6.19s2,2.29,4.19,2.53a3.65,3.65,0,0,0,3.32-1.51"/></clipPath><linearGradient id="linear-gradient-2" x1="134.57" y1="287.55" x2="135.42" y2="279.9" gradientUnits="userSpaceOnUse"><stop offset="0" stop-color="#e09a77"/><stop offset="0.72" stop-color="#f0aa88"/><stop offset="1" stop-color="#f7b290"/></linearGradient><clipPath id="clip-path-3"><path class="cls-1" d="M347.1,203.63s-4.37-1.33-5.9-2.72l-1,1.6v3.4c.41,2.41,3.48,3.62,4.64,3.57a2.85,2.85,0,0,0,2.3-1.67Z"/></clipPath><linearGradient id="linear-gradient-3" x1="343.63" y1="207.1" x2="343.63" y2="201.33" gradientUnits="userSpaceOnUse"><stop offset="0" stop-color="#d49f82"/><stop offset="1" stop-color="#e5ac8e"/></linearGradient><clipPath id="clip-path-4"><path class="cls-1" d="M430.15,212.88l-.12,0,.46,0c2.2-.22,3.29-.56,5.8-2.84l1.08,1.66v3.11c-.42,2.51-3.62,3.77-4.83,3.72a3,3,0,0,1-2.4-1.74v-3.91Z"/></clipPath><linearGradient id="linear-gradient-4" x1="433.7" y1="216.17" x2="433.7" y2="210.46" xlink:href="#linear-gradient-3"/><clipPath id="clip-path-5"><path class="cls-1" d="M428.73,211.86c-2.24-2-.12-8.08.67-9.84a10.17,10.17,0,0,0,6.17,2.43l-.61,2.14,1.45.57a29.82,29.82,0,0,1-1.09,3.37c1.17-.5,2-3.24,3.05-2.12s-.52,2.48-2,3l.19.68c-2.43,1.11-5.68,1.77-7.86-.19"/></clipPath><linearGradient id="linear-gradient-5" x1="430.23" y1="216.31" x2="431.91" y2="211.03" xlink:href="#linear-gradient-3"/></defs><title>imagaCS </title><path class="cls-2" d="M408,349.6c1-34.85-30.78-32-33.49-40.32-7-21.26,8.92-46,2-59.88-11.09-22.23-57.66-19.07-77.51-28-11.44-5.16-5.49-29-30.92-37.49-34-11.34-41.61,18.48-72.83,26.3-33.24,8.33-46.69-9.13-66.61,7.56-17.6,14.75-.83,41.52-3.93,65.69-2.19,17.09-45.35,20.9-33.83,66.16Z"/><path class="cls-3" d="M174.92,168.65c-1.49,1.21-3.05,1.76-3.49,1.23s.42-1.95,1.92-3.16,3.05-1.76,3.49-1.23-.42,1.95-1.92,3.16m.08,6.54c-.46.22-.92.22-1,0s.18-.58.65-.8.92-.22,1,0S175.46,175,175,175.2Zm-13.57,10.36c-.67.34-1.32.4-1.47.13s.29-.77,1-1.12,1.32-.4,1.47-.13S162.1,185.21,161.43,185.55Zm12-27c-.57-.58-3.37.47-4.9,1.79s-2.37,2.52-1.44,3.76C168.66,166.13,174.29,159.45,173.48,158.55Zm-6.21-5c.26.28-.09,1.77-1,2.87s-1.59,1.25-2,1.12a1.41,1.41,0,0,1-.71-1.82C163.85,154.83,166.59,152.42,167.27,153.6Zm-17.5-10.09c1.06.42,2.15.3,2.45-.28s-.33-1.38-1.39-1.8-2.15-.3-2.45.28S148.71,143.09,149.77,143.51Zm.69,9.6c.13-.68,2-1.26,3.2-1.3A2.63,2.63,0,0,1,156,153c.19.46,0,1.43-1.28,1.78S150.1,154.53,150.46,153.11Zm0,9.49c0-.64,2.2-2,4.54-2.2s3.33.41,3.72,1.11a2.35,2.35,0,0,1-1.32,3C156,165.19,149.91,164.77,150.51,162.6Zm4.59,16.73c0-.62,2.29-1.6,3.77-2s3.45-.21,3.53.66-1.63,1.61-2.85,1.89S155.12,180,155.11,179.33Zm-2.82-7.66c0-.82,2.73-2,4.76-2.14s3.45.15,3.65,1.68C161,173.72,152.33,172.87,152.29,171.67Zm-3.1-55.1c2.82-.27,5.63-.18,6.33.95,1.49,2.39-2.74,12-.27,13.09,1,.23,3.28-10.05,3.18-11.75a2.37,2.37,0,0,0-1.49-2.06.16.16,0,0,1,.06-.3c2,0,5.82.75,6.48,2a18.94,18.94,0,0,1-.23,10c-2.24,7-6.94,14.53-3.54,15.92,2.55,1.18,7.28-16.17,6.18-26.95a.47.47,0,0,1,.6-.49c2.34.73,6.43,3.73,8,4a21.8,21.8,0,0,1-.56,9.92c-1.91,6.42-5.46,13.75-6.74,17.24-1.58,4.35,2.31,2.18,3.71-.7s8.65-16.85,9-23.68a.55.55,0,0,1,.74-.48c3.1,1.18,7.87,5.83,7.07,10.91a25.7,25.7,0,0,1-3.77,9.34c-3.85,5.79-9.39,11.32-8.57,12,.27.24,2.67-1.08,4.15-3.08,2.58-3.48,4.78-8.81,5.49-10s3.56-5.78,3.94-8.14a.16.16,0,0,1,.29,0c2.75,5.49,5.5,6.42,5.24,12.14-.27,5.08-14.23,15.29-13.83,16.65s3.89.71,6.91-2.89A64.52,64.52,0,0,0,194.7,148c1.24,2.13,7.38,7.19,4.48,13.08-4.36,8.23-17.78,8.77-17.12,10.95.2.67,2.58-.3,3-.46,4.79-1.92,14.18-6.86,15.73-7.55-3,2.25,1.63,10.3-5,14.14-3,1.75-14.78-1-15.84,2.4-.52.92,1.52,3.09,10.77-.31-.54,1.41,1.73,4.1.85,5.81s-3.17,2.41-4.28,3.6c-2.2,2.37-3,4.08-5.58,4.66a6,6,0,0,1-6.22-2.38c-.91-1.08-2.64-5.55-4.11-8h0c-2.13-6.13-14.58-31.89-22.1-67.4Zm-2,22.63c1.15-1.92-4-3.71-7.77-7.61s-6.72-8.64-4.85-9.62c.85-.38,8.5,6,10.63,5.2,1.2-.6-3.6-7.65-2.64-9.2.22-.3,3.27-1.05,6.37-1.38h0c3.09,25.47,16.75,59.55,20,68.61h0c.47,5.12,5.85,14,2.44,19.12-5,7.42-13.48,4.77-16.88,5.36,4.51-1.28,13-13.93,9.82-16.43-.36-.33-1.69.63-2.92,2.49-2,3-4,7.44-5.68,10.13a5.18,5.18,0,0,1-4.93,2.46c-3.1-.26-7.82-2-11.29-8.85a.23.23,0,0,1,.27-.33c5.08,1.37,10.72-.77,12.3-1.55s5.9-7.26,4.53-8.82c-.54-.61-3,0-5.75,1.62-4.23,2.52-9.5,6.75-12.17,6.83-4.4.12-9.37-7.71-10.82-12.17,7.37-1.67,12.84-.79,14.93-1.3s9.56-2.56,9.39-3.53-9.29.41-11.11.67-11.32,2.61-15.62,0c-1.66-1.07-5.6-10.73-4-15.1,3.72,2.93,9.26,1,11.71,5.72,2.38.55,15,1.35,15.52-.13.31-.61-14.55-2.58-18.15-4.24-1.32-.69-1.92-1.57-2.69-1.87s-6-1.25-6.68-3.92,0-9.4.89-10.93c3.2,3.29,22.65,13.09,25.73,11.54,1.8-1-2.18-2.71-4.29-3.15s-17.93-4.7-22.14-11.37c-.93-2.29,1.14-11.59,1.75-13.17,2.7,6.94,25.51,20.87,26.15,15.48.1-.93-19.4-6.11-24.39-16.16-.51-1.42,2.89-7.37,3.87-8.51,4.09,3.88,15.14,17.54,18.31,14.28Z"/><rect class="cls-4" x="163.48" y="81.26" width="170" height="268.35"/><path class="cls-5" d="M202.14,253.34h-5.45v5.45h10.9v-5.45ZM213,204.28h-5.45v5.45h10.9v-5.45Zm-27.26,0h-5.45v5.45h5.45Zm0,5.45v5.45h5.45v-5.45h5.45v-5.45h-10.9Zm76.32,5.45h-5.45v-5.45h5.45Zm-21.8,5.45v5.45h5.45v-5.45h5.45v-5.45h5.45v5.45h10.9v-10.9H262.1v-5.45H251.2v5.45h-5.45v-5.45H240.3v5.45h5.45v5.45H240.3Zm-16.35,5.45h-5.45v5.45h10.9V215.18h-5.45v-5.45h5.45v-5.45h-5.45v5.45h-5.45v10.9h5.45Zm-43.61,0v5.45h5.45v-10.9h-5.45Zm54.51,5.45V237h5.45V220.63h-5.45v-5.45h5.45v-5.45h-5.45v5.45H229.4v5.45h5.45v10.9Zm-21.8,0h-5.45V237H213v-5.45h5.45v-10.9H213v-5.45h-5.45v10.9H213Zm-16.35,0V237h5.45v-10.9h5.45v-5.45h-5.45v-5.45h5.45v-10.9h-10.9v16.35h5.45v5.45h-5.45Zm-10.9,0V237h10.9v-5.45h-5.45v-5.45h5.45v-5.45h-10.9v10.9ZM223.95,237h-5.45v5.45h10.9V237Zm5.45,5.45v5.45h5.45v-5.45h5.45V237H229.4Zm-21.8,0v5.45H213v-5.45h5.45V237h-10.9Zm-5.45,0v5.45h5.45V237h-10.9v5.45Zm-5.45,0h-5.45V237h-5.45v5.45h5.45v5.45h5.45Zm-16.35,0v5.45h5.45V237h-5.45Zm81.77,5.45h-5.45v10.9h5.45v-10.9Zm-10.9,0h-5.45v5.45H240.3v5.45h5.45v-5.45h5.45Zm-16.35,0H229.4v10.9h5.45v-5.45h5.45v-5.45Zm-10.9,0h-5.45v5.45h5.45Zm-10.9,0h-5.45v10.9H213v-10.9Zm-21.8,0h-5.45v10.9h10.9v-5.45h-5.45Zm119.93-32.71h-10.9v-5.45h10.9Zm-16.35,5.45v-5.45h5.45v5.45Zm-5.45,5.45h-5.45v5.45h5.45Zm10.9,0v-5.45h5.45v5.45Zm0,16.35v5.45h5.45V237H278.46v5.45H273V237h-5.45v5.45H262.1V237H240.3v10.9h16.35v-5.45h5.45v5.45h16.35v-5.45h5.45v5.45h10.9v-5.45Zm10.9,0v5.45h5.45V237h-5.45Zm5.45,5.45h-21.8v5.45h21.8ZM273,291.5h-5.45v5.45H273Zm-10.9-32.71h-5.45v5.45h10.9v5.45H273v-10.9H262.1Zm-38.16,0h-5.45v5.45h10.9v-5.45Zm27.26,5.45h-5.45v-5.45H240.3v5.45h5.45v5.45h5.45Zm-16.35,0v5.45h5.45v-10.9H229.4v5.45Zm-27.26,0v5.45h10.9v-10.9h-10.9Zm-10.9,0v5.45h5.45v-10.9h-5.45Zm-5.45,0h-5.45v5.45h10.9v-5.45Zm-5.45,0h-5.45v5.45h5.45Zm65.41,10.9h-5.45v-5.45H240.3v5.45h5.45v5.45h21.8v-5.45H273v-5.45H256.65v5.45Zm-10.9,0h-5.45v-5.45H229.4v5.45h5.45v5.45h5.45Zm-21.8,0v5.45h10.9v-5.45h-5.45v-5.45h-5.45Zm-5.45,0h-5.45v5.45H213v-5.45h5.45v-5.45H213Zm-10.9,0v5.45h5.45v-10.9h-10.9v5.45Zm-10.9,0h-5.45v5.45h5.45Zm-10.9,0v5.45h5.45v-10.9h-5.45Zm43.61,5.45h-5.45V286h10.9v-5.45ZM240.3,286v5.45h10.9V286h5.45v5.45H273V286h-5.45v-5.45H262.1V286h-5.45v-5.45H240.3Zm-5.45,0v5.45h5.45v-10.9H229.4V286ZM213,286v5.45h5.45v-10.9h-10.9V286Zm-10.9,0v5.45h5.45v-10.9h-10.9V286Zm-5.45,0h-5.45v5.45h5.45Zm-10.9,0h-5.45v5.45h5.45Zm65.41,5.45h-5.45v5.45h5.45Zm-16.35,0H229.4v5.45h5.45Zm-10.9,0h-5.45v5.45h10.9V291.5Zm-10.9,0h-5.45v5.45H213Zm-10.9,0h-5.45v5.45h5.45Zm-10.9,0h-5.45v5.45h10.9V291.5Zm76.32-38.16v5.45H273v-5.45h5.45v-5.45h-10.9ZM273,226.08h-5.45v5.45H262.1v-5.45H251.2v5.45h-5.45V237h5.45v-5.45h10.9V237h5.45v-5.45H273V237h5.45V220.63h5.45v-5.45h0v5.45h10.9V237h5.45v-5.45h5.45v-5.45h5.45v5.45h5.45v-21.8h-5.45v-5.45H294.81v10.9h-5.45v-10.9h-10.9v5.45H273v5.45h5.45v5.45H273Zm-87.22-32.71V166.12H213v27.26H185.79Zm32.71-32.71H180.34v38.16h38.16V160.67Zm27.26,10.9v-5.45h5.45v5.45Zm-38.16,0H191.24v16.35h16.35V171.57ZM240.3,177v-5.45h5.45V177Zm-10.9,16.35v-5.45h5.45V177h5.45v5.45h5.45V177h10.9v10.9H251.2v5.45h-5.45v-5.45H240.3v5.45H229.4Zm27.26,5.45v-5.45h5.45v5.45Zm27.26-5.45V166.12h27.26v27.26H283.91Zm32.71-32.71H278.46v38.16h38.16V160.67Zm-10.9,10.9H289.36v16.35h16.35V171.57ZM283.91,291.5V264.24h27.26V291.5H283.91Zm32.71-32.71H278.46v38.16h38.16V258.79Zm-10.9,10.9H289.36V286h16.35V269.69ZM273,160.67H262.1v10.9h-5.45v-10.9h-10.9v5.45h-10.9v-5.45H229.4v10.9h5.45V177h-10.9v16.35h5.45v5.45h-5.45v5.45H240.3v-10.9h5.45v10.9H262.1v-5.45h5.45v5.45H273v-10.9H262.1v-5.45h5.45V177H273V160.67Z"/><path class="cls-6" d="M303.79,141.36h-3.42V129.81h-4.24v-3.3H308v3.3h-4.24Zm-9.32-14.86v14.86h-3.07l-6-8.73v8.73H282V126.51H285l6,8.73v-8.73Zm-25.7,0h10.61v3.3h-7.19v2.36h6.6v3.3h-6.6v2.59h7.43v3.3H268.77Zm-5.9,0h3.07v14.86h-3.42v-7.43l-3.42,7.43H257l-3.42-7.43v7.43h-3.42V126.51h3.07L258,137Zm-22.52,9.32-5-9.32h3.66l3,5.9,3-5.9h3.66l-5,9.32v5.54h-3.42ZM227,138.53l-.94,2.83h-3.54l5.31-14.86h3.54l5.31,14.86h-3.54l-.94-2.83Zm4.24-2.95-1.65-5-1.65,5Zm-13.91-2.24a1.85,1.85,0,0,0,1.34-.53,1.68,1.68,0,0,0,0-2.48,1.85,1.85,0,0,0-1.34-.53H215v3.54Zm0-6.84a5.63,5.63,0,0,1,2.12.39,5,5,0,0,1,1.67,1.08,5.11,5.11,0,0,1,1.11,1.62,5.1,5.1,0,0,1,0,4,5.11,5.11,0,0,1-1.11,1.62,5,5,0,0,1-1.67,1.08,5.63,5.63,0,0,1-2.12.39H215v4.72h-3.42V126.51Z"/><path class="cls-7" d="M357.53,223.82c-1.74.19-5.22.44-7.16,1.52a103.54,103.54,0,0,0,2.7,12.81c.61,1.85,1.94,2.76,3.35,2.65s1.87-2.3,2-5.09a74.07,74.07,0,0,0-.87-11.89"/><path class="cls-8" d="M350.46,227.26a38.83,38.83,0,0,0,8.35-.73c0-3.15-.69-12.69-3.68-16.79-.89-.51-4.13-2.47-4.92-1.65-3.19,3.33-.68,16.18.25,19.17"/><rect class="cls-9" x="365.16" y="206.49" width="12" height="6.39" transform="translate(71.09 512.48) rotate(-74.72)"/><path class="cls-7" d="M373.83,211.81c-2.61-5.72-9.72-2.76-3.52,2.34-.87,6.63-12.61,14.25-15.32,20-1.36,4-.62,7.21.51,7.61,5.68,2,19.94-26.38,18.33-29.91"/><path class="cls-10" d="M343.62,330.4l-4.43,5.1c-.7.7-2.74,2.5-5.33,4.76-2-.26-3.33-2.29-2.74-3.23s8.08-8.9,8.08-8.9Z"/><path class="cls-11" d="M328.08,337.76c.54.75,2.71,3.43,2.91,3.7s.31,1.09.44,1.26a10.41,10.41,0,0,0,2.32,1.84c.31.22,4.19,4.42,4.3,4.38a1.08,1.08,0,0,0,.41-1.11c-.09-.28-.57-1.4-1.09-2.76s-1-2.84-1.2-3.55.06-1.22-.52-2-2-.65-2.54-1.63.35-1.86,0-2.34-2.16-.38-5,2.18"/><path class="cls-12" d="M328.09,337.78h0a2.86,2.86,0,0,0-.84.48c-.07.14,1.08,2.25,4,5.36s5.44,5.67,6.81,5.32h0c-.2-.06-4-4.16-4.29-4.38a10.41,10.41,0,0,1-2.32-1.84c-.13-.17-.24-1-.44-1.26s-2.33-2.91-2.9-3.68"/><path class="cls-11" d="M336,340.31a13.81,13.81,0,0,0-.17-2.15,4.29,4.29,0,0,0-1.72-.37,2.92,2.92,0,0,0-.32.79c.63.33,1.44.44,1.84,1a1.88,1.88,0,0,1,.37.77"/><path class="cls-10" d="M361.27,331l.84,6.7c.06,1,0,3.71,0,7.14-1.51,1.3-3.93.95-4.24-.12s-1.23-12-1.23-12Z"/><path class="cls-11" d="M356.37,347.5c.92.1,4.36.28,4.7.3s1,.5,1.23.51a10.42,10.42,0,0,0,2.92-.5c.37-.08,6.09-.16,6.13-.28a1.08,1.08,0,0,0-.55-1c-.27-.12-1.42-.51-2.79-1s-2.78-1.15-3.44-1.48-.87-.86-1.82-.93-1.85,1.09-2.91.81-1.15-1.51-1.75-1.55-1.73,1.35-1.73,5.2"/><path class="cls-12" d="M356.4,347.5l0,0a2.86,2.86,0,0,0-.2.95c.06.14,2.4.7,6.67.58s7.85-.26,8.51-1.52h0c-.18.11-5.76.19-6.12.27a10.42,10.42,0,0,1-2.92.5c-.21,0-.89-.48-1.23-.51s-3.72-.21-4.68-.3"/><path class="cls-11" d="M363.58,343.29a13.82,13.82,0,0,0-1.71-1.31c-.18,0-1.43.83-1.43,1a2.92,2.92,0,0,0,.38.76c.67-.25,1.29-.77,1.94-.72a1.88,1.88,0,0,1,.82.24"/><path class="cls-13" d="M355,254.42c4.7,6.5,21.24,27.33,15.37,41.24C364.93,308,343.59,331.94,341,334.21c-1.35-.45-4.38-4.88-4.85-5.82a10.28,10.28,0,0,0,2.07-3.48,6.48,6.48,0,0,1-.32-2.09c.14-.9,3.68-4.35,4-5.34s.09-1.56.43-2.26,4.59-5.77,5.24-6.86.91-4.85,2.64-6.39c1-1,7.33-5.26,9.32-11.54s-18.92-17.69-22.78-33.93Z"/><path class="cls-14" d="M350.18,254.82c.78,4.93,11,61.51,12.18,82.75-1.27.32-6.84,1.15-8.11,1.21.12-2.84-1.65-5.63-1.74-6.41s.32-2,.07-3.1-2.22-2.49-2.53-3.8c-.1-.51.41-2.11.17-2.88s-1.38-.86-1.62-1.81,1.07-3.22.83-3.86-3.64-4.24-3.6-5.66c.12-1,1.72-1.32,1.54-2.67-1.66-12.08-15.61-35.87-16.57-54.68l10.7,1.42Z"/><path class="cls-15" d="M328.28,210.35c-1.54,1.42-8.54,9.87-9.8,12.16l.11.13a62.24,62.24,0,0,0,5.46,5.06c.49.41.87.71,1.05.84a73.8,73.8,0,0,0,6-7.39c-.11,11.49-.15,23.7-.31,34.68,4.06,1,22.2,1.83,25.07-.31-.94-13-.21-35.37-2.36-46.53-1.64-1.49-6.87-2.49-8.47-2.73-4.41-.14-12.27.55-16.74,4.09"/><path class="cls-10" d="M329.3,252.86c-.69-1.37-8.83-16.68-9.9-19.16.15-.9,3.5-4.5,4.65-6a62.27,62.27,0,0,1-5.46-5.06c-2.09,2.66-6.49,9.32-6.45,11.09.17,6.43,11.7,17.22,15.74,22.32.14,1.07,1.85,5.44,6.63,4.95.86-.17-.78-3-2.49-4.92-.44-.07-.85-.15-1.23-.25v-1q0-1,0-1.92a4.28,4.28,0,0,0-1.52-.08"/><path class="cls-16" d="M50.89,329.32,50,336.57c-.06,1.07,0,4,0,7.72,1.64,1.41,4.25,1,4.58-.13s1.33-12.92,1.33-12.92Z"/><path class="cls-11" d="M56.18,347.14c-1,.1-4.72.3-5.08.33s-1.1.54-1.33.55a11.26,11.26,0,0,1-3.16-.54c-.4-.09-6.58-.18-6.62-.3a1.17,1.17,0,0,1,.59-1.13c.29-.13,1.54-.55,3-1.12s3-1.24,3.72-1.6c.44-.22.7-.53,1.08-.75h0a14.88,14.88,0,0,1,1.85-1.42c.2,0,1.54.9,1.54,1.12a3.16,3.16,0,0,1-.41.83h0a1.68,1.68,0,0,0,1,.09c1.15-.31,1.24-1.63,1.89-1.68s1.87,1.46,1.87,5.62"/><path class="cls-16" d="M76.43,329.36l-1.62,5.28c-.06,1.07.67,6,.72,9.68,1.64,1.41,4.25,1,4.58-.13s.61-12.6.61-12.6Z"/><path class="cls-14" d="M56.16,347.14l0,0a3.09,3.09,0,0,1,.22,1c-.06.15-2.59.75-7.21.63s-8.49-.28-9.2-1.64h0c.19.12,6.22.21,6.62.3a11.26,11.26,0,0,0,3.16.54c.23,0,1-.52,1.33-.55s4-.22,5.06-.33"/><path class="cls-11" d="M71.39,348.83h10a11.83,11.83,0,0,0-.25-3.81c-.35-1-.75-1.94-1.22-2-.94,0-.39,1.71-1.75,1.63s-.88-1.19-2.69-1.24c-.32,0-2.15,1.61-3.45,3.14a3,3,0,0,0-.69,2.24"/><path class="cls-14" d="M71.39,348.83h10a6.48,6.48,0,0,0,.06-1.27l-9.93-.09a8.14,8.14,0,0,0-.17,1.37"/><path class="cls-14" d="M74.6,338.53c-1.09-22.83-3.95-45.77-5-69.51-1.16,6.67-3.18,15.63-5,23.63-1.55,6.95-2.92,13.17-3.42,16.51-.92,6.25-.6,13.09-.91,14.55-.23,1.1-1.25,2-1.56,3.59-.2,1,.66,2.86.65,4.26,0,.84-1.34.19-1.32,1.07.07,3.12.52,4.81.22,5.1s-1,.06-1.59,0c-3.64-.14-3-.06-6.91,1.08.32-42.44-.4-39.87,6.33-81,2.8-1.86,5.43-1,9.18-.91s6.93-4.17,13.49-2.35a16.47,16.47,0,0,1,6.93,4.15c1.17,13.49-1.87,37.38-2,46.36s1.32,15.44,1.11,16.56-1,1.7-1.19,2.47c-.66,2.62.7,5.83.5,7.56A10.08,10.08,0,0,1,82.36,336c-.49.52.52,1.46-.35,2a12.28,12.28,0,0,1-7.4.53"/><path class="cls-14" d="M61.46,203.34a48.25,48.25,0,0,1-2.95,23.29c5.23-1.29,6.75-2.77,8.06-9l2-1.61-.84-5.69L66,206.71l-2.09-2.09-.7-2.48Z"/><path class="cls-14" d="M68.05,199v0Zm14.29,10.25c-1.16-2.74-3-2.51-4.22-4.6-1.52-2.69.12-5.88-2.33-9A8.81,8.81,0,0,0,70,192.77c-8.09-.5-13.11,6.65-7.51,13.47a17,17,0,0,1-.14-2.36c1-.66,3.2-1.5,4.58-3,0,.17,0,.39.06.68a9.85,9.85,0,0,0-1.23,2.36,7.44,7.44,0,0,1,1.29-1.85c.21,1.74.75,5.21,2.1,12,2.4,12.12,10.16,13.58,13.89,11.32,6.26-3.78.25-7.62-.14-8.94C82.26,214.22,83.31,211.56,82.34,209.26Z"/><path class="cls-17" d="M86.57,251.42a77.16,77.16,0,0,1-3.48,9c-1.48.64-3.88,1.3-4.12,2-.13.4,2.41-.12,2.24.38-.5,1.43-4.46,4.55-3.88,5.16.75.82,4.57.2,6.11-1a8.47,8.47,0,0,0,2.32-5c1.72-3,3.53-5.89,5.07-9Z"/><path class="cls-18" d="M83,258.47c5.51-8.83,7-22.33.14-31A24.34,24.34,0,0,1,81,225c-1.83-4.31,1.15-10.49,1.71-10.68,4.08,1.93,9.84,8.71,12.09,18.25,1.31,5.59,0,20.8-7.44,29.58Z"/><path class="cls-19" d="M43.87,213.35c0-2,.54-6.53,1.25-7.22l2.84.61a44.26,44.26,0,0,0,.18,7,38.85,38.85,0,0,0,1.15,6.84,34.66,34.66,0,0,1-5.51.26c-.07-3.11,0-5.86.09-7.51"/><path class="cls-20" d="M48.55,202.51c.33,1.36-.95,6.57-3.55,8.7l2.84,2.12c1.34-.9,4.37-5.17,3.91-9.7Z"/><path class="cls-17" d="M47,210.38c1.1.39,4.32.85,4.94-.4s-.54-3.28-2-4.07-4.28-1.58-5.08.91c-.7,2.16,1.68,3.35,2.17,3.56"/><path class="cls-18" d="M50.85,226.52c3.67-9,7.78-12.43,9.43-13.19-.42,2.58-.66,13.93-.9,16.26-.66.94-2.6,3.81-3.39,4.74a19.44,19.44,0,0,1-5.14-7.82"/><path class="cls-18" d="M48.6,215.15c0,2.19,1.55,8.9,2.2,10.69,1.17,3.26,2.84,6.44,5.2,8.49-1.78,2.1-3.82,3.85-5.69,3.78-8.55-.3-7.46-19.91-7.46-25.14a13.77,13.77,0,0,0,5.76,2.18"/><path class="cls-21" d="M59.78,202.35c.46,2.8,0,4.06-2.18,5.43-6.49-2.61-17.73-5.86-24.75-3.53a1.19,1.19,0,0,1-1.11.32c-1.24-.5-.61-5,1.4-10S37.78,186,39,186.47c.3.12.49.47.58,1,3.46,6.55,13.69,12.27,20.19,14.88"/><path class="cls-18" d="M60.21,213.36c-8.43,11,1.22,15.66.62,28.4-.25,5.22-3.52,10.37-5.16,18.87,1.75.28,28.68,1,30.26.22-1.94-8-5.7-14.87-5.65-21.16.08-9.09,1.5-12.61,3.73-24.62a25.58,25.58,0,0,0-23.79-1.7"/><path class="cls-17" d="M67,218c1.13-.42,4.75-3.33,5.49-5-.1-1.11-.06-4.07-.1-4.66,3.18-2.23,3.37-4.22,2.38-5.09-1.28-.67-2.82,2-2.67,2.87-1.18-2.11,1.4-5.43-2.52-7.72-.53,2.12-3,3.81-3.74,5.5.56-1.88,2.48-3.56,2.26-5-.67,2.75-4.27,4-5.67,4.91a17,17,0,0,0,.14,2.36,8.39,8.39,0,0,0,1,3.26,3.19,3.19,0,0,0,2,1.59c1.1,1.86.1,6.28,1.44,7"/><path class="cls-22" d="M65.53,211.09a5.46,5.46,0,0,1,.54,2.25h0c3.9-1,5.38-4,5.38-4.81-.33,1.11-2.51,2.83-5.06,2.72a3.69,3.69,0,0,1-.86-.16m-2-1.59v0a3.22,3.22,0,0,0,2,1.57A3.54,3.54,0,0,1,63.57,209.5Z"/><line class="cls-23" x1="15.24" y1="349.6" x2="481.71" y2="349.6"/><g class="cls-24"><rect class="cls-25" x="89.73" y="261.31" width="57.51" height="45.02"/></g><path class="cls-26" d="M165.79,306c-1.27,1.27-6.34,7.37-13.89.63s1.44-11.51,1.44-11.51l5.3,6.36,3.2-1.8Z"/><path class="cls-26" d="M187,284.16c-2.85,6.08-14.25,15.2-19.95,20.77-7.58,7.41-9.44-.64-8.24-2.13a30.69,30.69,0,0,1,3.41-3.49c9-7.54,22.58-15.38,23.07-16.64-1.2-4.38,1.3-5.37,1.16-2.17.63-2.32,3.54-3.63,4.65-3.2.85.33,1,2.13-4.1,6.86"/><path class="cls-26" d="M153.24,322.67c-1.79-.56-23.93-7.12-27-8.29-.67-.9-1-6.9-1.33-9.18a76.1,76.1,0,0,1-9.09.51c.56,4.1,2.7,13.62,4.29,15.08,5.8,5.31,25.08,4.31,33,5.08,1.06.78,6.31,3.86,9.93-.77,1.42-2.22-5.83-3.36-7.51-2.18,1.63-1.51,1.69-2.81,1.13-3.37-.5-.32-1.67.53-3.4,3.1"/><path class="cls-27" d="M120.72,347.32c-1.05.08-3.36,1.59-4.46,2.81s-4.73-5.44-4.73-5.44l.34-.6c1-1,5.62-2.54,7-3.05Z"/><path class="cls-28" d="M109.22,342.45a15.68,15.68,0,0,0,1.34,4.75c.86,1.84,2.81,4.55,3.43,4.85s3.13-2.12,3.28-2.43-1.66-6.41-2.74-7.21-5.23-.52-5.31,0"/><path class="cls-13" d="M173.18,333.74c-17.06,12.93-21,13.89-31.74,14.18s-24-6.18-34.47-13.22l3-4.45,15.66-1.47,18.4,5.48L160.91,333Z"/><path class="cls-13" d="M117.26,340.72,121,349c6.51-1.17,20.88-3.34,36.39-7.86,5.32-1.55,24.24-8.24,18.78-17-3.79-6.07-22.53-1-59,16.54"/><path class="cls-16" d="M156.46,340.71l5.6-.1c1.06.24,5.63,2.33,9.23,3.42.91,2-.19,4.42-1.41,4.43s-12.45-2.93-12.45-2.93Z"/><path class="cls-29" d="M176.83,341.25,174,351a12,12,0,0,1-3.65-1.32c-.92-.64-1.68-1.28-1.56-1.73.24-.92,1.77.1,2.08-1.25s-.91-1.19-.46-3c.08-.32,2.17-1.64,4-2.48a3,3,0,0,1,2.38,0"/><path class="cls-29" d="M176.83,341.25,174,351a6.56,6.56,0,0,1-1.26-.3l3.11-9.69a4.39,4.39,0,0,1,1,.21"/><path class="cls-30" d="M149.12,304.9a76.75,76.75,0,0,0,8.09-7.37c-1.53-2.81-8-10.8-9.91-12.53h0c-2-1.82-7.17-2.24-9.14-2.53l0,.4c0,.9-1,3.72-2.18,3.86s-5.21-3.21-5.38-3.79v-.22c-1.58.37-7.06,2-10.46,3.29-2.18.52-4.41,2.63-5.3,6-1.08,4.13.23,13.49,1.18,16.54h.2a51.19,51.19,0,0,0,6.07-.15c.56,7.6-.09,15.17-4.2,25.62,5.2,1.27,27.55,5.95,31.43,3-5.69-16.44-4.53-26.77-3.17-35.33A29.28,29.28,0,0,0,149.12,304.9Z"/><path class="cls-31" d="M167.83,342.21l-3.69,7.43c-6.42-1-29.46-4.46-44.11-8.53-5.72-1.59-24-10.13-18.34-18.3,4.07-5.88,29.43,2.46,66.14,19.4"/><path class="cls-32" d="M125.66,325.34H136.6v1.9H124.71v-.95a1,1,0,0,1,.95-.95"/><polygon class="cls-32" points="135.15 327.24 142.68 305.7 176.92 305.7 169.55 327.24 135.15 327.24"/><path class="cls-26" d="M138.28,281.9a5,5,0,0,0,1.48-.32c2.17-.88,3.2-3,3.63-5.6a19.77,19.77,0,0,0,.23-2.2c-1-2-4.82-4.79-7.13-5.83-.27,2.13-1.28,5.8-4.86,7.53a1.74,1.74,0,0,0-2.4-1.15c-1,.51-1.9,2.93,2.68,5.49l-.65,5.78a4.64,4.64,0,0,0,3.24,1.95,3.65,3.65,0,0,0,3.32-1.51Z"/><g class="cls-33"><rect class="cls-34" x="130.27" y="279.09" width="9.49" height="8.97"/></g><path class="cls-11" d="M157.8,313.32a2.85,2.85,0,1,0,2.85,2.85,2.85,2.85,0,0,0-2.85-2.85"/><path class="cls-16" d="M414.31,330l-.9,7.14c-.06,1.05,0,4,0,7.61,1.61,1.39,4.18,1,4.51-.13s1.31-12.73,1.31-12.73Z"/><path class="cls-35" d="M419.52,347.52c-1,.1-4.65.29-5,.32s-1.09.53-1.31.54a11.09,11.09,0,0,1-3.11-.53c-.4-.09-6.49-.18-6.53-.3a1.15,1.15,0,0,1,.59-1.12c.28-.12,1.51-.54,3-1.1s3-1.22,3.66-1.58c.44-.22.69-.52,1.07-.74h0a14.67,14.67,0,0,1,1.82-1.4c.19,0,1.52.89,1.52,1.1a3.11,3.11,0,0,1-.4.81h0a1.66,1.66,0,0,0,1,.09c1.13-.3,1.23-1.61,1.86-1.65s1.84,1.44,1.85,5.54"/><path class="cls-36" d="M419.5,347.52l0,0a3,3,0,0,1,.21,1c-.06.15-2.55.74-7.11.62s-8.36-.27-9.06-1.62h0c.19.12,6.13.2,6.52.29a11.09,11.09,0,0,0,3.11.53c.22,0,1-.51,1.31-.54s4-.22,5-.32"/><path class="cls-13" d="M421.83,306.63c.09,6.91,2.86,14.23,2.7,14.94-.23,1.08-1.48.21-1.9,2.68-.25,1.46.69,3.69.68,5.06,0,.83-1.32.19-1.3,1.06.07,3.07.27,7.1,0,7.38s-1-.16-1.57,0-.54.66-1.22.74c-1.17.14-2.78-.79-6.51.29-1.45-14.55-3.66-29.11-2.11-43.73,1.33-12.51,4.53-24.1,6.53-36.33,2.76-1.83,5.11-.24,8.8-.13a41.17,41.17,0,0,0,5.87-.39c4.26,14.59-4.79,24.85-7.62,34.94-.91,3.26-2.42,6.71-2.33,13.47"/><path class="cls-37" d="M405.07,188c.14,1.45,1.24,7.86,2,12-1.45-.09-3.57-.39-5.4-.64,0-4.19,0-9.14.29-11.52l3.21.09-.08.05"/><path class="cls-37" d="M403.51,188.91c-3-.58-2.46-2.83-4.07-4.61-.48-.48-2.37-1.54-2.14-2.23.51-1.51,4.72,1,6.26,2.72.07,0,1.15-2.14,2.41-1.2.19.14-.58.85-.58,2.1,0,1.74,0,3.57-1.88,3.22"/><path class="cls-16" d="M473.26,310.9l7,1.81c1,.2,3.91.54,7.55,1,1.58-1.42,1.54-4,.46-4.49s-12.45-2.94-12.45-2.94Z"/><path class="cls-35" d="M491.34,308c0,1-.31,4.65-.32,5s.39,1.15.37,1.37a11.1,11.1,0,0,1-.93,3c-.14.38-1,6.41-1.13,6.43a1.15,1.15,0,0,1-1-.72c-.09-.3-.34-1.57-.71-3.08s-.83-3.09-1.09-3.84c-.16-.46-.43-.75-.59-1.15h0a14.66,14.66,0,0,1-1.15-2c.05-.19,1.08-1.39,1.29-1.37a3.11,3.11,0,0,1,.76.5h0a1.66,1.66,0,0,0,.22-1c-.15-1.16-1.43-1.42-1.4-2.06s1.67-1.64,5.73-1.12"/><path class="cls-36" d="M491.34,308l0,0a3,3,0,0,1,1-.08c.14.08.41,2.63-.3,7.13s-1.35,8.26-2.77,8.78h0c.14-.17,1-6.05,1.13-6.43a11.09,11.09,0,0,0,.93-3c0-.23-.39-1-.37-1.37s.29-4,.32-5"/><path class="cls-14" d="M427.79,258.57c5.56-2.17,12.29-3.76,16.28.28,2.72,10.18-1.43,29.32,4.06,35.33,3.58,3.92,11.25,2.91,18.9,3.49,1.12.09,3,1.83,3.65,2.23,2.34,1.27,4.08.44,5.68,1a7.92,7.92,0,0,1,3.27,2.9c.38.59,2.87-.95,3.16,0s-.55,6.49-2,9.14c-10.7-2.42-23-3.64-35.29-4.95a20.41,20.41,0,0,1-10.75-5.92c-6.22-7.19-7.43-35-6.91-43.55"/><path class="cls-37" d="M472,201.54c-.66,1.29-4,6.85-6.25,10.45,1.38.45,3.47,1,5.26,1.39,1.55-3.89,3.33-8.51,4-10.82l-3-1.1.05.08"/><path class="cls-38" d="M469.89,203.46c-1.76,2.87-11.9,17.52-14.45,18.35-3.6-1.42-7.65-3.5-11.75-4.76-4.39-1.91-8.06-3.11-11.15-3.12-.72,0-1.39,0-2,.08h0c-5.47-.7-13.14.19-17.5-1-2-1.6-4.69-15.48-5.27-18.79-1-.06-6.6-.66-6.6-.36.09,7.14,2.2,21.52,5.16,24.13a28.28,28.28,0,0,0,5.63,3.08h0c2.71,1.27,5.76,2.51,8.53,3.53-2.45,8.84-3.1,23-3.34,34.2,2.11.16,19.25,2.08,27.56.42-.76-10,.16-22.4.39-31.15,2.88.87,5.66,1.46,7.35,1.81h0c3.47.8,5.58.69,6.6.39,4.05-1.46,13-13.91,15.55-25.41C474.61,204.53,470.86,203.77,469.89,203.46Z"/><path class="cls-37" d="M473.09,202.94c3,.58,3.33-1.73,5.48-2.79.63-.27,2.77-.56,2.81-1.29.08-1.59-4.77-.78-6.82.23,0-.07-.28-2.42-1.8-2-.23.06.23,1-.23,2.16-.64,1.61-1.29,3.33.56,3.69"/><g class="cls-39"><rect class="cls-40" x="340.16" y="200.91" width="6.94" height="8.62"/></g><path class="cls-16" d="M348.54,204.14c0,.21-.76.52-1.3.37s-.69-.43-.61-.63.76-.28,1.11-.19.83.23.8.45"/><path class="cls-16" d="M346,202.4c-.76.19-1.54,1.64-2-.31-.14-.51-1.79-1.21-1.85-1.43a17.43,17.43,0,0,1-.57-3.54c.14-.51,1.27-.83,1.38-1.22s-.68-1.54.27-2.1,2.42.63,3.28.51c.5-.06.87-.67,1.47-1a1.93,1.93,0,0,1,1.34-.19c2.69,1,1.61,8.51-.15,11.75-.13.07.34-1.74.09-1.95a7.21,7.21,0,0,0-3.3-.52"/><path class="cls-16" d="M341.17,198.38s.31,2.58.42,3.16c-1.54-.6-2.91-2.9-2-3.66a1.23,1.23,0,0,1,1.61.49"/><path class="cls-13" d="M347.74,203.69c-.35-.08-1,0-1.11.19s.06.48.61.63,1.27-.16,1.3-.37-.45-.37-.8-.45m-6.12-6.58a17.42,17.42,0,0,0,.57,3.54c.06.22,1.72.92,1.85,1.43.42,1.95,1.2.5,2,.31a7.2,7.2,0,0,1,3.3.52c.25.21.26,1.35.39,1.28a8.18,8.18,0,0,1-1.52,2,3.42,3.42,0,0,1-2,.39,4.57,4.57,0,0,1-2.93-1.35,8.75,8.75,0,0,1-1.66-3.66h0c-.1-.58-.42-3.16-.42-3.16a1,1,0,0,0-1.23-.21c-.31.27-.54,2,1.6,3.38,0,0-.6.78-.61.79a1.91,1.91,0,0,0-.76.47c-1.61-1.07-.7-1.89-1-2.6s-1.52-1.61-1.7-2.66a4.05,4.05,0,0,1,.47-2.21c.12-.49-.64-2.86-.53-3.3s.92-.51,1.09-.81c.22-.47-.36-1.51.06-2.1s1.49-.14,1.63-.17c.64-.18,1.82-1.74,3.88-1.85s2.31,1.3,2.66,1.39,1.46-.58,2.56-.35a2.45,2.45,0,0,1,1.85,1.39,1.56,1.56,0,0,1,1.5,1.16c.32,1.12-.59,2.55-.66,2.9-.09.51.82,1.06.78,1.68s-1.3,1.27-1.76,1.83c0-2-.48-3.56-1.62-4a1.93,1.93,0,0,0-1.34.19c-.6.34-1,.94-1.47,1-.87.11-2.33-1.08-3.28-.51s-.15,1.72-.27,2.1S341.76,196.6,341.61,197.11Z"/><g class="cls-41"><rect class="cls-42" x="430.03" y="210.04" width="7.34" height="8.54"/></g><path class="cls-43" d="M430.15,212.64c1.84.24,4-.28,4.73-1.72-.14,1.53-1.58,3.46-4.73,3.51Z"/><path class="cls-44" d="M435.32,210.53a29.86,29.86,0,0,0,1.09-3.37l-1.45-.57.61-2.14c-1.37-.2-4.91-.34-7.22-3.66-4.18-6,3.19-9.9,4.77-5.06a9,9,0,0,1,7.46,2.15,5.73,5.73,0,0,1,1.77,5.46c1.19.26,2.49,2.29,1.78,5s-3.83,5.5-7.1,5.27l-.62-2.26c1.45-.47,2.91-1.94,2-3s-1.88,1.62-3,2.12"/><g class="cls-45"><rect class="cls-46" x="426.49" y="202.02" width="12.83" height="11.8"/></g><path class="cls-47" d="M37.23,102a5.18,5.18,0,0,0,0,2.92h74a6.54,6.54,0,0,0-.05-1.62c-.72-4.6-5.17-3.58-8.49-5-1.35-.64-1.45-4.11-4.18-5.69s-6.27,1.7-9.12,1.07S77.62,85.84,67.6,87.38s-10.31,9.48-12.15,10S42.55,91.58,37.23,102"/><path class="cls-47" d="M478.83,102.58a63.12,63.12,0,0,0-7.29-1.39c3-2.93-1.63-9.94-5.56-8.69a2.75,2.75,0,0,0-3.22-2.95,6.33,6.33,0,0,0-7.63-4.6,8.43,8.43,0,0,0-10-4.88,12.81,12.81,0,0,0-24.26,7.38,7.2,7.2,0,0,0-8.57,8.44,2.69,2.69,0,0,0-1.25,4.29,108,108,0,0,0-13.12,2.4Z"/><path class="cls-47" d="M316.16,50.72a2.72,2.72,0,0,1-1,1.94H224.49a4.4,4.4,0,0,1,0-2c1.56-7,15.24-2.93,18.71-4.62,1.19-.63,3.33-8.54,10.13-11.34s9.5.28,10.94.28S270,26.67,278,27.83s8.95,13.77,10,14,1.76-1.66,3.85-1.33,2.7,5.58,3.91,5.86,3.72-1.25,5.82-1.34,5.07,3.72,6.47,3.63,7.12-3.4,8.12,2.06"/></svg>