<svg xmlns="http://www.w3.org/2000/svg" xmlns:xlink="http://www.w3.org/1999/xlink" viewBox="0 0 499 365"><defs><style>.cls-1{fill:#ffce68;}.cls-2{fill:#47648f;}.cls-3{fill:#798ec9;}.cls-4{fill:#ffd555;}.cls-5{fill:#dd7e62;}.cls-6{fill:#ffeaaa;}.cls-7{fill:#ffd1bb;}.cls-8{isolation:isolate;}.cls-9{fill:#1ca0a4;opacity:0.4;}.cls-10{fill:#215b74;}.cls-11,.cls-19{fill:#1d262d;}.cls-11,.cls-15,.cls-23{opacity:0.2;}.cls-11,.cls-15,.cls-19,.cls-23,.cls-26{mix-blend-mode:multiply;}.cls-12,.cls-25{fill:#fff;}.cls-13{fill:#dc894e;}.cls-14{clip-path:url(#clip-path);}.cls-15{fill:#cc2a3a;}.cls-16{fill:#abd5e6;}.cls-17{fill:#23809b;}.cls-18{clip-path:url(#clip-path-2);}.cls-19{opacity:0.1;}.cls-20{clip-path:url(#clip-path-3);}.cls-21{clip-path:url(#clip-path-4);}.cls-22{clip-path:url(#clip-path-5);}.cls-23,.cls-26{fill:#d15579;}.cls-24{clip-path:url(#clip-path-6);}.cls-25{opacity:0.43;}.cls-26{opacity:0.5;}.cls-27{clip-path:url(#clip-path-7);}.cls-28{fill:#ffaa4d;}.cls-29{fill:#27305c;}.cls-30{clip-path:url(#clip-path-8);}.cls-31{fill:#ffa690;}.cls-32{fill:#0a303e;}.cls-33{fill:#e15c56;}</style><clipPath id="clip-path"><rect id="_Rectangle_" data-name="&lt;Rectangle&gt;" class="cls-1" x="256.25" y="56.51" width="72.25" height="24.29"/></clipPath><clipPath id="clip-path-2"><path id="_Clipping_Path_" data-name="&lt;Clipping Path&gt;" class="cls-2" d="M79.83,326.73l-1.72,8.52s-10.86,2.36-11.51,4.85,22.8.79,22.8.79l2.49-14.15"/></clipPath><clipPath id="clip-path-3"><path id="_Clipping_Path_2" data-name="&lt;Clipping Path&gt;" class="cls-2" d="M138.8,326.73l-.27,8.52s10.86,2.36,11.51,4.85-22.8.79-22.8.79l-.5-14.15"/></clipPath><clipPath id="clip-path-4"><path id="_Clipping_Path_3" data-name="&lt;Clipping Path&gt;" class="cls-3" d="M94.7,227.08S83.52,290.43,78.11,328.34c11.62,1.28,14.07.5,14.07.5l21.58-77.45h9.48c.7.75,2.83,77.45,2.83,77.45s9.75,1.44,13.59-.55c0,0,4.39-59,5.56-91Z"/></clipPath><clipPath id="clip-path-5"><path id="_Clipping_Path_4" data-name="&lt;Clipping Path&gt;" class="cls-4" d="M125.61,161.79s-12.26.7-15.66,4S99.28,191.42,94.7,227.08c18.26,19.26,50.52,10.16,50.52,10.16s1.64-65-.09-68.25C141.82,162.75,125.61,161.79,125.61,161.79Z"/></clipPath><clipPath id="clip-path-6"><path id="_Rectangle_2" data-name="&lt;Rectangle&gt;" class="cls-5" d="M94.74,146.31H116a0,0,0,0,1,0,0V265a7.38,7.38,0,0,1-7.38,7.38h-6.52A7.38,7.38,0,0,1,94.74,265V146.31A0,0,0,0,1,94.74,146.31Z" transform="translate(277.6 50.37) rotate(74)"/></clipPath><clipPath id="clip-path-7"><polygon id="_Clipping_Path_5" data-name="&lt;Clipping Path&gt;" class="cls-6" points="163.06 181.75 182.85 187.16 168.93 202.22 163.06 181.75"/></clipPath><clipPath id="clip-path-8"><polyline id="_Clipping_Path_6" data-name="&lt;Clipping Path&gt;" class="cls-7" points="116.5 146.65 118.91 165.11 128.4 173.19 136.31 165.11 136.31 153.21"/></clipPath></defs><title>imagaCS </title><g class="cls-8"><g id="Layer_1" data-name="Layer 1"><path class="cls-9" d="M297.5,68.11c-13.16,2.48-26.57-2.69-38.24-9.24-16.25-9.12-30.76-21-46.55-31s-33.52-18-52.16-18S122.35,19.45,115,36.59c-7.79,18.17-.56,39.27-3.93,58.74-5.47,31.58-37.48,53.55-42.81,85.16-3.06,18.1,3.38,36.76,13.63,52,21.81,32.4,62.55,51.66,101.17,45.78,24.58-3.74,47-16.79,65.63-33.22s34-36.23,49.19-55.89"/><path class="cls-9" d="M308.74,295.85A167.41,167.41,0,0,1,296,278.57c-3.71-5.78-7.11-11.91-8.47-18.64-1.82-9,.21-18.39,2.71-27.27,2.88-10.18,6.47-20.32,12.44-29s14.6-16,24.85-18.63c8.35-2.13,17.21-1.08,25.65-2.81,16.33-3.34,29-16.63,37.16-31.14,4.33-7.64,8.33-16.39,16.28-20.12,9.32-4.37,21.17.46,26.88,9s6.18,19.76,3.83,29.79-7.22,19.25-11.64,28.55-8.49,19-9,29.33c-.91,17,7.85,33.63,5.45,50.44-1.35,9.45-6.19,18.12-12.26,25.49-5,6.12-11.09,11.55-18.24,15-10.71,5.12-23.33,5.39-34.78,2.29S335,311.47,325.67,304.1"/><rect class="cls-10" x="187.39" y="59.74" width="209.97" height="280.12"/><rect class="cls-11" x="200.24" y="78.62" width="184.27" height="250.94"/><rect class="cls-12" x="200.24" y="74.33" width="184.27" height="250.94"/><polygon class="cls-13" points="186.47 77.17 186.47 58.82 204.82 58.82 186.47 77.17"/><polygon class="cls-13" points="398.28 77.17 398.28 58.82 379.93 58.82 398.28 77.17"/><polygon class="cls-13" points="186.47 323.14 186.47 341.5 204.82 341.5 186.47 323.14"/><polygon class="cls-13" points="398.28 323.14 398.28 341.5 379.93 341.5 398.28 323.14"/><path class="cls-1" d="M292.37,66.64h0c-7.24,0-13.12,3.35-13.12-3.89V61.63a13.12,13.12,0,0,1,13.12-13.12h0a13.12,13.12,0,0,1,13.12,13.12v1.11C305.49,70,299.62,66.64,292.37,66.64Z"/><rect class="cls-11" x="258.12" y="77.17" width="68.52" height="6.17"/><rect id="_Rectangle_3" data-name="&lt;Rectangle&gt;" class="cls-1" x="256.25" y="56.51" width="72.25" height="24.29"/><g class="cls-14"><rect class="cls-15" x="249.03" y="69.86" width="88.6" height="13.92"/></g><rect class="cls-16" x="218.67" y="120.83" width="25.21" height="25.21"/><path class="cls-16" d="M246.55,148.71H216V118.16h30.55Zm-29.63-.92h28.7v-28.7h-28.7Z"/><rect class="cls-16" x="218.67" y="159.45" width="25.21" height="25.21"/><path class="cls-16" d="M246.55,187.33H216V156.78h30.55Zm-29.63-.92h28.7v-28.7h-28.7Z"/><rect class="cls-16" x="218.67" y="198.08" width="25.21" height="25.21"/><path class="cls-16" d="M246.55,226H216V195.41h30.55ZM216.93,225h28.7v-28.7h-28.7Z"/><path class="cls-17" d="M229,142.26l-14.55-14.4a2.57,2.57,0,0,1,3.61-3.65l10.74,10.63,17-18.83a2.56,2.56,0,1,1,3.8,3.44Z"/><path class="cls-17" d="M229,181.18l-14.55-14.4a2.57,2.57,0,0,1,3.61-3.65l10.74,10.63,17-18.83a2.56,2.56,0,1,1,3.8,3.44Z"/><path class="cls-17" d="M229,219.17l-14.55-14.4a2.57,2.57,0,1,1,3.61-3.65l10.74,10.63,17-18.83a2.56,2.56,0,1,1,3.8,3.44Z"/><rect class="cls-16" x="218.67" y="236.7" width="25.21" height="25.21"/><path class="cls-16" d="M246.55,264.58H216V234h30.55Zm-29.63-.92h28.7V235h-28.7Z"/><rect class="cls-16" x="218.67" y="275.33" width="25.21" height="25.21"/><path class="cls-16" d="M246.55,303.21H216V272.66h30.55Zm-29.63-.92h28.7v-28.7h-28.7Z"/><rect class="cls-17" x="255.68" y="124.6" width="111.56" height="3.04"/><rect class="cls-17" x="255.68" y="131.91" width="111.56" height="3.04"/><rect class="cls-17" x="255.68" y="139.22" width="34.49" height="3.04"/><rect class="cls-17" x="255.68" y="162.74" width="111.56" height="3.04"/><rect class="cls-17" x="255.68" y="170.05" width="111.56" height="3.04"/><rect class="cls-17" x="255.68" y="177.36" width="72.9" height="3.04"/><rect class="cls-17" x="255.68" y="200.88" width="111.56" height="3.04"/><rect class="cls-17" x="255.68" y="208.19" width="95.42" height="3.04"/><rect class="cls-17" x="255.68" y="215.5" width="34.49" height="3.04"/><rect class="cls-17" x="255.68" y="239.02" width="111.56" height="3.04"/><rect class="cls-17" x="255.68" y="246.33" width="56.22" height="3.04"/><rect class="cls-17" x="255.68" y="277.16" width="111.56" height="3.04"/><rect class="cls-17" x="255.68" y="284.47" width="111.56" height="3.04"/><rect class="cls-17" x="255.68" y="291.78" width="81.35" height="3.04"/><rect class="cls-17" x="239.5" y="93.57" width="106.07" height="7.52"/><circle class="cls-12" cx="292.37" cy="54.37" r="3.02"/><path id="_Clipping_Path_7" data-name="&lt;Clipping Path&gt;" class="cls-2" d="M79.83,326.73l-1.72,8.52s-10.86,2.36-11.51,4.85,22.8.79,22.8.79l2.49-14.15"/><g class="cls-18"><path class="cls-19" d="M76.2,322.93a2.6,2.6,0,0,0-.92,2.35,4.6,4.6,0,0,0,1.1,2.36A11.37,11.37,0,0,0,81.88,331,22,22,0,0,0,88,332a11.1,11.1,0,0,0,7.29-2c2-1.62,3-4.65,1.73-6.89a7.42,7.42,0,0,0-3.19-2.68,22.82,22.82,0,0,0-7.22-2.31"/></g><path id="_Clipping_Path_8" data-name="&lt;Clipping Path&gt;" class="cls-2" d="M138.8,326.73l-.27,8.52s10.86,2.36,11.51,4.85-22.8.79-22.8.79l-.5-14.15"/><g class="cls-20"><path class="cls-19" d="M127.22,322.21a11.21,11.21,0,0,0-4,4,6.1,6.1,0,0,0-1,2.87,3.23,3.23,0,0,0,1.17,2.69,3.86,3.86,0,0,0,1.75.65,30,30,0,0,0,5.24.4,14.55,14.55,0,0,0,8.47-3.43,9.79,9.79,0,0,0,2.88-11.23"/></g><path class="cls-7" d="M187,129.39s-8.06-2.51-7.89-4.85,5.6-.43,5.6-.43-3-11.13-1.72-12,3.26,6.06,3.26,6.06.38-6.79,2.13-6.66,1.42,5.57,1.42,5.57,2-4.32,3.67-3.61-1.1,5.43-1.1,5.43,4.35-2.46,5-1.28-2.73,5.11-2.73,5.11,4.22,4-.87,11.61c-1.39-.59-5.35-2.42-7.42-2Z"/><path class="cls-4" d="M134.71,163.19s36.48,3.22,50.42-32.15c10-1.5,10,5.53,10,5.53s-13.79,51.8-56.59,45"/><path id="_Clipping_Path_9" data-name="&lt;Clipping Path&gt;" class="cls-3" d="M94.7,227.08S83.52,290.43,78.11,328.34c11.62,1.28,14.07.5,14.07.5l21.58-77.45h9.48c.7.75,2.83,77.45,2.83,77.45s9.75,1.44,13.59-.55c0,0,4.39-59,5.56-91Z"/><g class="cls-21"><path class="cls-19" d="M72.29,227.73A81.41,81.41,0,0,0,181,219.14c-34-2.47-69.11-4.46-101.33,6.72"/></g><path id="_Clipping_Path_10" data-name="&lt;Clipping Path&gt;" class="cls-4" d="M125.61,161.79s-12.26.7-15.66,4S99.28,191.42,94.7,227.08c18.26,19.26,50.52,10.16,50.52,10.16s1.64-65-.09-68.25C141.82,162.75,125.61,161.79,125.61,161.79Z"/><g class="cls-22"><path class="cls-23" d="M109.57,227.79c19,1.53,34.86-8.09,41.7-13.39,1.34-1,3.24-1.18,4.53-2.28a4.87,4.87,0,0,0,1.86-4.49c-.54-2.62-3.62-3.73-6.25-4.23-12.53-2.39-25.45-1.48-37.85,1.25-5.52,1.22-30.67,5.21-22.12,15.29C95.12,224.27,104.06,227.34,109.57,227.79Z"/></g><path id="_Rectangle_4" data-name="&lt;Rectangle&gt;" class="cls-5" d="M94.74,146.31H116a0,0,0,0,1,0,0V265a7.38,7.38,0,0,1-7.38,7.38h-6.52A7.38,7.38,0,0,1,94.74,265V146.31A0,0,0,0,1,94.74,146.31Z" transform="translate(277.6 50.37) rotate(74)"/><g class="cls-24"><rect class="cls-25" x="129.28" y="192.88" width="44.81" height="3.96" transform="translate(297.2 -4.65) rotate(74)"/><rect class="cls-25" x="36.2" y="219.56" width="44.81" height="3.96" transform="translate(255.42 104.15) rotate(74)"/><rect class="cls-10" x="19.51" y="211.55" width="44.81" height="32.01" transform="translate(249.11 124.56) rotate(74)"/><rect class="cls-26" x="101.51" y="148.55" width="21.5" height="149.31" transform="translate(295.89 53.78) rotate(74)"/><rect class="cls-23" x="92.9" y="118.52" width="21.5" height="149.31" transform="translate(260.79 40.3) rotate(74)"/></g><polygon id="_Clipping_Path_11" data-name="&lt;Clipping Path&gt;" class="cls-6" points="163.06 181.75 182.85 187.16 168.93 202.22 163.06 181.75"/><g class="cls-27"><circle class="cls-17" cx="188.41" cy="185.86" r="12.82" transform="translate(-43.93 59.12) rotate(-16)"/></g><path class="cls-7" d="M107.51,213.5s6.06-.31,8.77.84,4,1.83,4,1.83l5.42-1.55s-1.31,7.13-7.78,7.66a33.33,33.33,0,0,1-12-1.35Z"/><path class="cls-4" d="M118.6,162.75s-38.26,2.36-41.49,36.14c-2.22,23.23,30.17,24.4,30.17,24.4L108.8,213s-13.6-5.63-13.6-14,14.75-14.47,14.75-14.47Z"/><path class="cls-28" d="M126.06,161.23a44.42,44.42,0,0,0-13.31,2.38L128.55,177l12.73-13.94S136.94,161.23,126.06,161.23Z"/><path class="cls-29" d="M117.36,151.75s-5.72.43-7.71-1.38c-4-3.65-6.88-24.61-7-29s5.09-10.63,11.17-10.67c.87-6.48,4.49-4.48,4.49-4.48s-1.7-2.72.44-4.68a44.71,44.71,0,0,1,1.91,4.11s3.38-2.77,11-1.36S144,102,145.84,105.73s4.78,15-.17,17.19S115.09,138.6,117.36,151.75Z"/><polyline id="_Clipping_Path_12" data-name="&lt;Clipping Path&gt;" class="cls-7" points="116.5 146.65 118.91 165.11 128.4 173.19 136.31 165.11 136.31 153.21"/><g class="cls-30"><path class="cls-23" d="M124.91,137.59a6.55,6.55,0,0,0-5.39,3.7,13.26,13.26,0,0,0-1.18,6.68,14.9,14.9,0,0,0,1.08,5.41,13.94,13.94,0,0,0,13,7.75,8.57,8.57,0,0,0,7.13-5c1.27-3.16.12-6.82-1.74-9.67a15,15,0,0,0-9.23-6.79,5.33,5.33,0,0,0-4.75.92"/></g><path class="cls-7" d="M120,114.43c-6.36,2.72-12.41,26.21-4.49,36.34s26.9,8.21,33.5.49C154.4,145,146.52,103.1,120,114.43Z"/><path class="cls-31" d="M138.85,128.57c-1.12.53.88,11.53.88,11.53,1.51.19,6.2-2.31,6.2-3.29C145.92,136.81,141,127.55,138.85,128.57Z"/><path class="cls-29" d="M107.68,138.48c.1-1.84,1.68-3.29,3.36-4s4.32,3.56,6.16,3.46c3-.16,5.46-1.63,5.79-2.85.24-.86,0-11,1.31-12.49,2.17-2.48,5.91-2.61,9.2-2.59s7-.19,9.13-2.74a4.14,4.14,0,0,0,.94-2,4.76,4.76,0,0,0-1.06-3.33c-2.42-3.3-6.91-4.41-11-4.18a24.92,24.92,0,0,0-17.3,8.79,28.9,28.9,0,0,0-6.64,18.38"/><path class="cls-7" d="M118.29,139.66s.79-12.28-5.52-10.51S108,143.29,115.14,143"/><path class="cls-29" d="M128.46,128.23c-.28.62.53,2.28,1.41,2.14s5.22-.69,5.65-1.71a2.08,2.08,0,0,0-.92-2.48C134,126,128.81,127.46,128.46,128.23Z"/><path class="cls-29" d="M142,124.92c-.32.59.23,2.32,1,2.28s4.69-.11,5.18-1.07a2.23,2.23,0,0,0-.55-2.56C147.16,123.29,142.4,124.19,142,124.92Z"/><path class="cls-32" d="M134.08,135.48a1.47,1.47,0,0,0,1,0,1.44,1.44,0,0,0,1.17-1.11,3.35,3.35,0,0,0-.36-1.9,3.77,3.77,0,0,0-.52-.88,1.15,1.15,0,0,0-1.92,0C132.9,132.44,133,135,134.08,135.48Z"/><path class="cls-32" d="M144.77,132.9a1.47,1.47,0,0,0,1,0A1.44,1.44,0,0,0,147,131.8a3.35,3.35,0,0,0-.36-1.9,3.76,3.76,0,0,0-.52-.88,1.15,1.15,0,0,0-1.92,0C143.59,129.86,143.65,132.4,144.77,132.9Z"/><path class="cls-31" d="M116.49,134.49a3.72,3.72,0,0,0-2-3,2.55,2.55,0,0,0-2.53,0,1.68,1.68,0,0,0-.46,2.32c.28.35.74.57.87,1a1.83,1.83,0,0,1-.28,1.23,2.34,2.34,0,0,0,.14,2.54,1.55,1.55,0,0,0,1.5.4C115.37,138.57,116.6,136,116.49,134.49Z"/><path class="cls-7" d="M113.13,214.46s5.06-2.32,6.35-2.49,2,1,1.62,1.66-3.94,2.83-3.94,2.83"/><circle class="cls-33" cx="418.71" cy="100.36" r="5.48"/><circle class="cls-10" cx="408.62" cy="43.29" r="5.23"/><circle class="cls-1" cx="363.18" cy="19.99" r="4.06" transform="translate(92.24 262.66) rotate(-45)"/><circle class="cls-1" cx="428.25" cy="220.25" r="4.06" transform="translate(-30.31 367.33) rotate(-45)"/><circle class="cls-1" cx="323.24" cy="9.94" r="3.84"/><circle class="cls-1" cx="54.15" cy="274.53" r="3.84"/><circle class="cls-17" cx="352.96" cy="45.15" r="1.86"/><circle class="cls-17" cx="405.31" cy="8.01" r="1.92"/><circle class="cls-17" cx="440.6" cy="126.67" r="1.92"/><circle class="cls-13" cx="254.23" cy="23.88" r="3.89"/><circle class="cls-17" cx="156.4" cy="69.44" r="3.43"/><circle class="cls-1" cx="155.22" cy="35.9" r="4.6"/><circle class="cls-1" cx="87.46" cy="84.68" r="4.42"/><circle class="cls-10" cx="133.67" cy="71.29" r="2.64"/><circle class="cls-10" cx="77" cy="255.04" r="2.64"/><circle class="cls-13" cx="91.08" cy="41.68" r="3.62"/><circle class="cls-33" cx="54.15" cy="140.89" r="3.09"/></g></g></svg>