<svg id="Layer_1" data-name="Layer 1" xmlns="http://www.w3.org/2000/svg" viewBox="0 0 499 365"><defs><style>.cls-1,.cls-20{fill:#1ca0a4;}.cls-1{opacity:0.51;}.cls-2{fill:#00b570;}.cls-3{opacity:0.5;}.cls-4,.cls-5,.cls-6,.cls-8,.cls-9{fill:#2591b7;}.cls-5{opacity:0.1;}.cls-6,.cls-7{opacity:0.2;}.cls-8{opacity:0.7;}.cls-9{opacity:0.3;}.cls-10{fill:#91c4f2;}.cls-11{fill:#fff;}.cls-12{fill:#45ef79;}.cls-13{fill:#fdaeb3;}.cls-14{fill:#3396a0;}.cls-15{fill:#4bb1ca;}.cls-16{fill:#e58099;}.cls-17,.cls-31{fill:none;stroke-linecap:round;stroke-miterlimit:10;}.cls-17{stroke:#fff;stroke-width:0.25px;}.cls-18{fill:#491e53;}.cls-19{fill:#169393;}.cls-21{fill:#423d73;}.cls-22{fill:#9e9dba;}.cls-23{fill:#ffd4d8;}.cls-24{fill:#fcb9c1;}.cls-25{fill:#f9a7b9;}.cls-26{fill:#332f62;}.cls-27{fill:#de7385;}.cls-28{fill:#fac12a;}.cls-29{fill:#fcae24;}.cls-30{fill:#1d9f9d;}.cls-31{stroke:#0e7c74;stroke-width:0.5px;}.cls-32{fill:#72d3dd;}.cls-33{fill:#0e7c74;}.cls-34{fill:#f49a38;}</style></defs><title>imagaCS </title><path class="cls-1" d="M456.5,42a139.73,139.73,0,0,0-37-20c-18.11-6.46-33.74-7-65-8-27.78-.91-45.84-1.51-70,3-12.51,2.33-15.13,3.88-33,7-18.69,3.26-31.63,5.45-48,5-7.31-.2-18.1-2-39.66-5.55-22.27-3.68-29.89-5-45.2-7.07a150,150,0,0,0-22.22-1.61,116.39,116.39,0,0,0-12.66.71C62.93,18.57,49.17,61.64,47.5,67c-11.38,36.69-.06,41.21-12,73-8.75,23.29-17.76,28.69-15,43,2.95,15.27,15.29,19.87,17.43,38.45.52,4.55.19,7.81-3.55,24.35C24.28,290.45,19.2,299.89,23.5,313c1.92,5.87,6.21,14,17,22a146.07,146.07,0,0,0,51,18,153.48,153.48,0,0,0,50-1c23.7-4.34,25.2-10.31,42-12,21.72-2.18,32.72,6.45,57,14,26.47,8.23,46.92,8.4,78.67,8.67A365.2,365.2,0,0,0,420.5,349c20.41,2.33,48.57,2.54,61-14,15.68-20.87-10.57-45.89-14-103-3.62-60.31,22.92-78.13,12-133A169.52,169.52,0,0,0,456.5,42Z"/><path class="cls-2" d="M379.53,231c2.11-4.43,4.27-9.06,4.15-14-.11-4.54.06-9.59-1.12-14a36.79,36.79,0,0,1-.9-13.52c1.54-14.17,7.52-13.29,9.74-12.47s3.42,3,3.93,6.61c.41,2.93-.16,16.9,4.1,14.39,4.93-2.91,3.23-17.26,3.54-22.13.46-7.29,2.58-15.25,7.53-20.8,2.44-2.74,6.22-5,9.67-3.69a8.48,8.48,0,0,1,4.46,4.61c2.78,6,1.3,12.7-.53,18.74-.77,2.53-7.9,14.58-1.15,12.77,1.61-.43,14.15-12.58,16.66-1.63.88,3.86-3.06,8.33-9.48,14.07-4,3.59-19.18,13.45-17.91,17.69s9.42-3.6,9.22,4.56c-.11,4.57-5.69,8.44-9.53,10.57-1.83,1-3.85,1.65-5.6,2.78-2.08,1.34-4.49,4.3-2.54,6.73.85,1.06,2.33,1.48,3.15,2.57a3.88,3.88,0,0,1,.17,3.94,9,9,0,0,1-2.76,3c-7,5.4-16.37,7.14-25.21,6.34s-17.28-3.94-25.41-7.49"/><g class="cls-3"><path class="cls-2" d="M416.69,159.35s-4.13,48.07-29.63,80.45"/><path class="cls-2" d="M433,189s-14.66,14.14-27.61,17.32"/><path class="cls-2" d="M389.6,183.14c-.06,7.5,1.46,28.24,9.52,37.48"/><path class="cls-2" d="M415.71,224.36s-5.7,6.08-24.88,10.33"/><path class="cls-2" d="M403.24,246.55s-9.84,2.82-19.3-1.49"/></g><path class="cls-4" d="M96.12,172.08l2.48-1.84a15.35,15.35,0,0,0-4.72-4.72L92,168a12.12,12.12,0,0,0-3.45-1.43L89,163.5a15,15,0,0,0-6.68,0l.45,3.06A12.12,12.12,0,0,0,79.35,168l-1.84-2.48a15.35,15.35,0,0,0-4.72,4.72l2.48,1.84a12.13,12.13,0,0,0-1.43,3.45l-3.06-.45a15,15,0,0,0,0,6.68l3.06-.45a12.13,12.13,0,0,0,1.43,3.45l-2.48,1.84a15.35,15.35,0,0,0,4.72,4.72l1.84-2.48a12.12,12.12,0,0,0,3.45,1.43l-.45,3.06a15,15,0,0,0,6.68,0l-.45-3.06A12.12,12.12,0,0,0,92,188.85l1.84,2.48a15.35,15.35,0,0,0,4.72-4.72l-2.48-1.84a12.13,12.13,0,0,0,1.43-3.45l3.06.45a15,15,0,0,0,0-6.68l-3.06.45A12.13,12.13,0,0,0,96.12,172.08ZM85.69,186.53a8.12,8.12,0,1,1,8.12-8.12A8.12,8.12,0,0,1,85.69,186.53Z"/><path class="cls-4" d="M360,52.59l4.34-3.23a26.92,26.92,0,0,0-8.28-8.28l-3.23,4.34a21.27,21.27,0,0,0-6-2.5l.78-5.36a26.28,26.28,0,0,0-11.72,0l.78,5.36a21.27,21.27,0,0,0-6,2.5l-3.23-4.34a26.91,26.91,0,0,0-8.28,8.28l4.34,3.23a21.26,21.26,0,0,0-2.51,6l-5.36-.78a26.28,26.28,0,0,0,0,11.72l5.36-.78a21.26,21.26,0,0,0,2.51,6l-4.34,3.23a26.92,26.92,0,0,0,8.28,8.28L330.59,82a21.26,21.26,0,0,0,6,2.51l-.78,5.36a26.28,26.28,0,0,0,11.72,0l-.78-5.36a21.26,21.26,0,0,0,6-2.51l3.23,4.34a26.91,26.91,0,0,0,8.28-8.28L360,74.82a21.26,21.26,0,0,0,2.5-6l5.36.78a26.27,26.27,0,0,0,0-11.72l-5.36.78A21.26,21.26,0,0,0,360,52.59Zm-15.5,25.09a14.25,14.25,0,1,1,11.18-11.18A14.26,14.26,0,0,1,344.49,77.67Z"/><circle class="cls-5" cx="186.78" cy="53.45" r="5.28"/><circle class="cls-4" cx="59.23" cy="129.23" r="8.26"/><circle class="cls-5" cx="413.69" cy="139.46" r="8.26"/><circle class="cls-6" cx="93.8" cy="48.17" r="6.3" transform="translate(14.32 117.47) rotate(-68.26)"/><polyline class="cls-4" points="91.12 47.42 92.53 50.58 97.27 47.65"/><circle class="cls-4" cx="413.69" cy="81.51" r="6.3" transform="translate(-3.98 23.77) rotate(-3.28)"/><polyline class="cls-4" points="410.94 81.97 413.56 84.23 416.61 79.57"/><circle class="cls-4" cx="86.94" cy="210.84" r="2.32"/><circle class="cls-6" cx="64.71" cy="236.76" r="1.42"/><circle class="cls-6" cx="76.09" cy="264.54" r="1.42"/><circle class="cls-6" cx="212.91" cy="309.3" r="2.15"/><circle class="cls-4" cx="406.09" cy="167.9" r="2.32"/><circle class="cls-4" cx="292.12" cy="32.54" r="2.32"/><path class="cls-4" d="M75.73,149.51a.74.74,0,0,1-.74-.74v-5.21a.74.74,0,0,1,1.48,0v5.21A.74.74,0,0,1,75.73,149.51Z"/><path class="cls-4" d="M78.34,146.9H73.13a.74.74,0,0,1,0-1.48h5.21a.74.74,0,0,1,0,1.48Z"/><g class="cls-7"><path class="cls-4" d="M383.56,143.42a.74.74,0,0,1-.74-.74v-5.21a.74.74,0,0,1,1.48,0v5.21A.74.74,0,0,1,383.56,143.42Z"/><path class="cls-4" d="M386.17,140.81H381a.74.74,0,1,1,0-1.48h5.21a.74.74,0,1,1,0,1.48Z"/></g><path class="cls-6" d="M84.33,198.69H82.47v-1.87a.74.74,0,0,0-1.48,0v1.87H79.12a.74.74,0,1,0,0,1.48H81V202a.74.74,0,1,0,1.48,0v-1.87h1.87a.74.74,0,1,0,0-1.48Z"/><g class="cls-7"><path class="cls-4" d="M176.77,47.22a.74.74,0,0,1-.74-.74V41.27a.74.74,0,0,1,1.48,0v5.21A.74.74,0,0,1,176.77,47.22Z"/><path class="cls-4" d="M179.38,44.61h-5.21a.74.74,0,1,1,0-1.48h5.21a.74.74,0,1,1,0,1.48Z"/></g><g class="cls-7"><path class="cls-4" d="M408.41,287.32a.74.74,0,0,1-.74-.74v-5.21a.74.74,0,0,1,1.48,0v5.21A.74.74,0,0,1,408.41,287.32Z"/><path class="cls-4" d="M411,284.71H405.8a.74.74,0,0,1,0-1.48H411a.74.74,0,1,1,0,1.48Z"/></g><path class="cls-4" d="M263.26,44.44a14.62,14.62,0,0,1-.56,4.05,14.81,14.81,0,1,1-14.25-18.86V44.44L261.22,37A14.71,14.71,0,0,1,263.26,44.44Z"/><path class="cls-8" d="M262.56,34.36A14.79,14.79,0,0,0,249.79,27V41.83Z"/><path class="cls-9" d="M263.26,44.44a14.62,14.62,0,0,1-.56,4.05l-14.25-4.05L261.22,37A14.71,14.71,0,0,1,263.26,44.44Z"/><path class="cls-6" d="M248.44,29.63V44.44l-12.21,8.37a14.81,14.81,0,0,1,12.21-23.18Z"/><path class="cls-4" d="M391.48,311.92a7.95,7.95,0,1,0,8,7.94A7.95,7.95,0,0,0,391.48,311.92Zm0,11.53a3.59,3.59,0,1,1,3.59-3.59A3.58,3.58,0,0,1,391.48,323.45Z"/><path class="cls-4" d="M391.48,303.48a16.39,16.39,0,1,0,16.39,16.39A16.4,16.4,0,0,0,391.48,303.48Zm0,28.56a12.16,12.16,0,1,1,12.17-12.17A12.16,12.16,0,0,1,391.48,332Z"/><path class="cls-4" d="M391.48,311.92a7.95,7.95,0,1,0,8,7.94A7.95,7.95,0,0,0,391.48,311.92Zm0,11.53a3.59,3.59,0,1,1,3.59-3.59A3.58,3.58,0,0,1,391.48,323.45Z"/><path class="cls-4" d="M391.48,311.92a7.95,7.95,0,1,0,8,7.94A7.95,7.95,0,0,0,391.48,311.92Zm0,11.53a3.59,3.59,0,1,1,3.59-3.59A3.58,3.58,0,0,1,391.48,323.45Z"/><rect class="cls-4" x="387.93" y="311.17" width="23.03" height="0.74" transform="translate(-101.81 384.75) rotate(-46.26)"/><rect class="cls-4" x="391.27" y="318.76" width="0.37" height="2.22" transform="translate(-108.41 395.31) rotate(-47.84)"/><rect class="cls-4" x="390.35" y="319.68" width="2.22" height="0.37" transform="translate(-108.38 395.47) rotate(-47.85)"/><path class="cls-4" d="M409.93,303.62h-2.51a.37.37,0,0,1-.37-.4l.23-2.75a.37.37,0,0,1,.4-.34.37.37,0,0,1,.34.4l-.2,2.34h2.11a.37.37,0,1,1,0,.74Z"/><path class="cls-4" d="M408.52,305H406a.37.37,0,0,1-.37-.4l.23-2.75a.37.37,0,0,1,.4-.34.37.37,0,0,1,.34.4l-.2,2.34h2.11a.37.37,0,1,1,0,.74Z"/><path class="cls-4" d="M85.13,231.57c0-.18-.08-.38-.13-.56a17.77,17.77,0,0,0-.61-2.21,19.45,19.45,0,0,0-2.29-4.57L84.33,222,79,216.66l-.1.1-2.12,2.13a19.87,19.87,0,0,0-7.34-3V212.7H61.87v3.15a19.87,19.87,0,0,0-7.34,3l-2.22-2.23L47,222l2.23,2.22a19.87,19.87,0,0,0-3,7.34H43v7.55h3.16a19.63,19.63,0,0,0,3,7.34L47,248.69,52.3,254l2.22-2.23a19.63,19.63,0,0,0,7.34,3V258h7.55v-3.16a19.63,19.63,0,0,0,7.34-3l2.12,2.13.1.1,3.21-3.21,2.13-2.13-2.13-2.12-.1-.1.1-.16a19.56,19.56,0,0,0,2.93-7.19h3.16v-7.55ZM65.65,248a12.61,12.61,0,1,1,12.61-12.61A12.61,12.61,0,0,1,65.65,248Z"/><rect class="cls-10" x="148.45" y="73.47" width="244.63" height="183.38"/><rect class="cls-11" x="156.81" y="79.7" width="227.91" height="170.93"/><rect class="cls-10" x="171.54" y="90.23" width="197.57" height="13.15"/><rect class="cls-12" x="180.18" y="196.22" width="13.1" height="32.88"/><rect class="cls-12" x="209.7" y="167.36" width="13.1" height="61.74"/><rect class="cls-12" x="239.21" y="173.75" width="13.1" height="55.36"/><rect class="cls-12" x="268.72" y="142.49" width="13.1" height="86.61"/><polygon class="cls-12" points="332.71 238.15 171.53 238.15 171.53 119 173.32 119 173.32 236.37 332.71 236.37 332.71 238.15"/><polygon class="cls-12" points="185.98 178.42 184.79 177.09 215.45 149.56 243.85 155.73 274.6 121.49 275.93 122.69 244.49 157.69 215.96 151.5 185.98 178.42"/><polygon class="cls-12" points="278.34 127.74 269.67 119.43 280.87 116.43 278.34 127.74"/><rect class="cls-12" x="309.23" y="120.89" width="59.88" height="2.35"/><rect class="cls-12" x="301.14" y="126.57" width="67.96" height="2.35"/><rect class="cls-12" x="301.14" y="132.25" width="67.96" height="2.35"/><rect class="cls-12" x="301.14" y="137.93" width="67.96" height="2.35"/><rect class="cls-12" x="301.14" y="143.61" width="67.96" height="2.35"/><rect class="cls-12" x="301.14" y="149.3" width="67.96" height="2.35"/><rect class="cls-12" x="301.14" y="154.98" width="67.96" height="2.35"/><rect class="cls-12" x="301.14" y="160.66" width="67.96" height="2.35"/><rect class="cls-12" x="301.14" y="166.34" width="67.96" height="2.35"/><rect class="cls-12" x="301.14" y="172.02" width="67.96" height="2.35"/><rect class="cls-12" x="301.14" y="177.7" width="67.96" height="2.35"/><rect class="cls-12" x="301.14" y="183.39" width="67.96" height="2.35"/><rect class="cls-12" x="301.14" y="189.07" width="67.96" height="2.35"/><rect class="cls-12" x="301.14" y="194.75" width="67.96" height="2.35"/><rect class="cls-12" x="301.14" y="200.43" width="67.96" height="2.35"/><rect class="cls-12" x="301.14" y="206.11" width="67.96" height="2.35"/><rect class="cls-12" x="301.14" y="211.8" width="67.96" height="2.35"/><rect class="cls-12" x="301.14" y="217.48" width="67.96" height="2.35"/><rect class="cls-12" x="339.17" y="223.16" width="29.94" height="2.35"/><polyline class="cls-13" points="338.45 318.71 340.02 324.94 343.8 324.27 343.55 318.39"/><path class="cls-14" d="M336.12,260.66c-10.15-16.59-13.55-1.51-13.55-1.51l16.58,63a5,5,0,0,0,4.58-.67S346.28,277.24,336.12,260.66Z"/><path class="cls-14" d="M334.25,217.17a16.93,16.93,0,0,1,2.68,7.75c.35,4.1,0,7.68.36,11.41s0,26.38,0,26.38-10.9,5.57-12.35,2.3c-2.93-6.63-12.08-43.73-12.08-43.73S324.38,221.59,334.25,217.17Z"/><path class="cls-15" d="M338.41,215.32A21.43,21.43,0,0,1,339.85,228c-.68,4.05-2.91,6.29-4.28,11.15-1,3.61-6.7,26.66-6.7,26.66s-13.22-1.63-13.84-5.16c-1.26-7.14-2.92-45.75-2.92-45.75S327.77,217.25,338.41,215.32Z"/><polyline class="cls-13" points="318.5 319.12 318.74 325.54 322.57 325.67 323.55 319.87"/><path class="cls-15" d="M327.64,261.39c-6.75-18.24-13-4.1-13-4.1l3.73,64.91a6.94,6.94,0,0,0,5,.39S334.4,279.63,327.64,261.39Z"/><path class="cls-13" d="M330.9,151.45c-4.31,3.18-12.61,2.6-12.61,2.6l1.14-9,.49-3.82s.69-.84,1.71-2c3.16-3.64,9.53-10.4,8.57-4.75C328.92,142,330.9,151.45,330.9,151.45Z"/><path class="cls-16" d="M324.29,139.93a13.66,13.66,0,0,1-4.87,5.17l.49-3.82s.69-.84,1.71-2l.38-.14Z"/><path class="cls-13" d="M311.3,126S311,141.9,313.9,144s13.43-4.65,13.43-4.65,7.4-9.92,5.42-17.32c-1.67-6.25-15.95-9.15-20.49-1.56C311.42,121.91,311.38,123.8,311.3,126Z"/><path class="cls-17" d="M319.79,217.29S322,228.59,323,229.5a8.8,8.8,0,0,0,1.55,1.21"/><path class="cls-17" d="M325.87,219.14s-4.28,37.06-4.43,45.85-.42,55.73-.42,55.73"/><path class="cls-18" d="M308.23,115.83s-1.08,8.37,5.37,10.16c4.28,1.19,8.85.8,9.19,2.75s.93.39,1.73-.13c1.71-1.09,3.08,1.29,2.37,3.89-.54,2,.08,4.82,3,5a77.51,77.51,0,0,0,3.45-7.71c.84-2.43,2.65-10.79-2.85-11.55a6.78,6.78,0,0,0-4.54-3.62c-5.38-1.38-9.92.13-13.46.93C310.83,115.92,308.43,112.82,308.23,115.83Z"/><path class="cls-13" d="M317.68,180.45c-1.24,1.61-3.18,3.9-5.27,6.29-1.64,1.87-3.37,3.8-4.93,5.51-2.87,3.18-5.14,5.63-5.14,5.63s-6.7-4.48-6.58-6.11c.07-1,3.27-7.49,5.85-12.62.55-1.09,1.07-2.13,1.54-3,1-2,1.67-3.3,1.67-3.3Z"/><path class="cls-16" d="M312.4,186.74c-1.64,1.87-3.37,3.8-4.93,5.51-.68-3.43-1.22-8.93-1.22-8.93a38.38,38.38,0,0,1-3.74-4.84l4.21-2.84,4.75,2.37S312,182.73,312.4,186.74Z"/><path class="cls-13" d="M295.76,191.77a46.12,46.12,0,0,0-7.83,2.41c-1.86.86-8.22,4.75-12.9,7.3a40.6,40.6,0,0,1-5.15,2.37l.94,2.6s9.67-1.38,17.9-3.09,10.89-2.52,13.62-5.49S298.76,191,295.76,191.77Z"/><path class="cls-19" d="M310.05,162.71l-8.86,14.46s5.81,6.42,12,8c4.23-2.64,8.55-12.14,8.55-12.14"/><path class="cls-20" d="M340.25,187.38c-.1.37-.2.74-.31,1.11-.54,1.81-1,3.64-1.47,5.46-3.4,14.54-.05,21.36-.05,21.36-9.35,3-26.24,1.06-26.24,1.06s-.21-1.37-.43-2.43c-1.45-7.13-6.85-35.2-3.85-45.65,3.46-12,10.38-14.24,10.38-14.24a48.9,48.9,0,0,0,12.61-2.6C343.51,156,343.76,174.48,340.25,187.38Z"/><path class="cls-20" d="M340.25,187.38c-.1.37-.2.74-.31,1.11-.54,1.81-1,3.65-1.47,5.46v0c-9.89-14-14.11-24.23-14.11-24.23l4.7.92,5.73,2.88Z"/><path class="cls-13" d="M351.49,192.59s-7.19,3.64-8.55,2.73c-.81-.54-4.92-6.53-8.11-11.29-.69-1-1.33-2-1.88-2.83-1.23-1.82-2.05-3.08-2.05-3.08l13-7.46C346.42,176.7,351.49,192.59,351.49,192.59Z"/><path class="cls-16" d="M343.49,177c-2,2.92-7.21,6.18-8.66,7-.69-1-1.33-2-1.88-2.83C336.21,179.32,345.37,174.17,343.49,177Z"/><rect class="cls-21" x="325.37" y="203.61" width="35.44" height="24.48" rx="0.6" ry="0.6" transform="translate(31.6 -43.53) rotate(7.61)"/><rect class="cls-11" x="327.19" y="204.86" width="31.81" height="21.97" transform="translate(31.6 -43.53) rotate(7.61)"/><rect class="cls-22" x="323.24" y="212.19" width="8.44" height="1.63" transform="matrix(0.13, -0.99, 0.99, 0.13, 73.61, 509.92)"/><path class="cls-13" d="M342.94,195.32a46.1,46.1,0,0,0-1.74,8c-.16,2,.1,9.5,0,14.82a40.61,40.61,0,0,1-.47,5.65l2.73.45s3.55-9.1,6.1-17.11,3.15-10.73,1.91-14.56S343.76,192.34,342.94,195.32Z"/><path class="cls-20" d="M336.07,154.64c7,7,10.6,20.57,10.6,20.57A49.83,49.83,0,0,1,333.3,183c-3-2.46-8.7-12.83-8.7-12.83s-5.81-10.15.79-14.74C332.19,150.72,336.07,154.64,336.07,154.64Z"/><path class="cls-13" d="M343.88,223.23a3.38,3.38,0,0,0-.07,2.36,3.17,3.17,0,0,1-.33,3c-.47.32-3.65-.15-3.94-.36s.17-2.06.14-2.59.9-.84,1.2-2.75"/><path class="cls-13" d="M340.47,224.53a3.94,3.94,0,0,0-1.51,1.19c-.21.25-1,1-1,1.17a.66.66,0,0,0,.66.25,6.84,6.84,0,0,0,1.17-.54"/><path class="cls-20" d="M318.29,154.05l1.14-2.21A29.91,29.91,0,0,0,330.63,150l.27,1.49-4.52,1.82A15.82,15.82,0,0,1,318.29,154.05Z"/><path class="cls-19" d="M319.42,151.84l1.18,4.39s7.44-1.64,11.25-4.41l-1.31-2.4S326.65,151.27,319.42,151.84Z"/><path class="cls-21" d="M322.66,325.17a6.28,6.28,0,0,1-3,.33s-.4-.83-1-.83-1.4.89-1.82,1.09-8.52,2.79-5.79,3.31c.1.12,9.64,0,11.74,0a.52.52,0,0,0,.51-.41A4.27,4.27,0,0,0,322.66,325.17Z"/><path class="cls-21" d="M343.8,323.9a4.43,4.43,0,0,1-2.67.67,4.49,4.49,0,0,0-1.25-.22c-.3.07-.83.9-1.05,1.14a9.81,9.81,0,0,1-2,1.3c-.53.24-2.54.9-2.91,1.67a.49.49,0,0,0,.44.7h3.42a7.65,7.65,0,0,0,2.14-.28,48.35,48.35,0,0,0,5-1.64A4.15,4.15,0,0,0,343.8,323.9Z"/><path class="cls-17" d="M323.69,167a8.81,8.81,0,0,1,1.31-6.72c2.55-3.79,6.57-6,12.13-3.63"/><line class="cls-17" x1="327.79" y1="154.45" x2="329.57" y2="156.01"/><path class="cls-13" d="M270.82,206.46a4.74,4.74,0,0,0-1.27.36,8.19,8.19,0,0,1-2.87-.18l-1.29-1.9s.47-.6.53-.69a11.88,11.88,0,0,1,1.67-.28,22,22,0,0,0,3,.77c.29-.07,1.24.44,1.22.62A9.24,9.24,0,0,1,270.82,206.46Z"/><path class="cls-23" d="M212.36,176.16s-1.57,14.4-1.57,19c1.46,6.87,6.34,24.93,6.34,24.93l6.34-15.46-2.39-19.19"/><path class="cls-24" d="M217.73,248.6s-.88,16.68-1,19.86-3.43,5.9-5.52,12.86-4.91,36.53-4.91,36.53l3.84.53s12.5-35.55,15.08-44.77,7.09-22.8,7.09-22.8"/><path class="cls-24" d="M210.18,318.38a3.12,3.12,0,0,0,.06,1.69c.3.76,1.06,4.1,3.28,6.48l.19.87-2.27-.13a30.88,30.88,0,0,1-3.13-2.79c-.16-.4-.77-2.14-.95-2.67s-1.1-1.6-1-2a13.63,13.63,0,0,0-.16-2,15,15,0,0,1,1.66-.91c.22,0,1.19,0,1.19,0Z"/><path class="cls-21" d="M206.36,317a7.9,7.9,0,0,0-2.05,4.38,59.72,59.72,0,0,1-.12,6.32l.53.07,1.5-4.49s3.23,4.72,4.06,5.05a38.32,38.32,0,0,0,4.5.84c.18,0,3-.21-1.27-2.59,0,0-.09.9-1.75-.27a15.41,15.41,0,0,1-4-4.92A10.85,10.85,0,0,1,206.36,317Z"/><path class="cls-23" d="M232.34,249.45s-1,7.43-2,15.14c0,.1,0,.2,0,.3-.38,2.81-.76,5.64-1.09,8.16-1.27,9.48-6.41,46.07-6.41,46.07h-3.88s-3.29-30.09-2.19-37.27,1.88-9.43,1.54-12.6c-.06-.6-.17-1.66-.29-3-.07-.71-.14-1.49-.21-2.33-.55-6-1.27-14.46-1.27-14.46Z"/><path class="cls-25" d="M230.32,264.89a2.51,2.51,0,0,1-.49.2c-3.35,1.08-9.82,1.15-11.83,1.15-.07-.71-.14-1.49-.21-2.33,2.47,0,11.51,0,12.57.68C230.49,264.67,230.48,264.77,230.32,264.89Z"/><path class="cls-26" d="M233.46,130.11s3.19-.49,4.34,2-.18,5.6-2.18,7.17-3.49-7.26-3.49-7.26"/><path class="cls-23" d="M222.81,319.12a3.12,3.12,0,0,0,.29,1.67c.4.72,1.62,3.92,4.14,6l.31.84-2.27.19a30.88,30.88,0,0,1-3.48-2.33c-.22-.37-1.06-2-1.31-2.51s-1.31-1.44-1.31-1.87a13.62,13.62,0,0,0-.44-1.95,15,15,0,0,1,1.52-1.13c.22-.06,1.18-.16,1.18-.16Z"/><path class="cls-23" d="M229.61,150.55s-.16.94-.33,2.21c-.08.49-.15,1-.21,1.59,0,.34-.08.69-.11,1-.16,1.8-.1,3.22-.36,5.63L220,159.14s1.86-3.13.84-11.36Z"/><path class="cls-24" d="M229.28,152.76c-.08.49-.15,1-.21,1.59a16.3,16.3,0,0,1-3.77-2.91Z"/><path class="cls-23" d="M234.56,153a1.65,1.65,0,0,1-1.71,1,23,23,0,0,1-10.31-3.77c-4.65-3.33-2.37-19.63,10.17-19.06C235.14,131.24,239.71,141.39,234.56,153Z"/><path class="cls-27" d="M211.69,213.44s-5.18,8.64,0,19.71c2.76,13.28,3.81,24.59,4.78,31.68,0,0,8.78,1.24,14.29.08,0,0,5.85-33.64,5.09-51.47"/><path class="cls-28" d="M235.27,207.21c.52,5.33.65,6.49.65,6.49s-8.05,3.65-24.64.32c0,0,1-1.66,2.13-9.18,1.28-8.93-1.84-23.19-1.51-30.88s5.22-14.7,8.69-16.29a13.09,13.09,0,0,0,8.18,1.93s5.93,10.79,8.33,16c2.13,4.66-1.11,8.84-2.38,12.72a10.49,10.49,0,0,0-.36,1.38,20.82,20.82,0,0,0-.12,3.75C234.34,197.14,234.8,202.52,235.27,207.21Z"/><path class="cls-29" d="M234.36,189.7a20.82,20.82,0,0,0-.12,3.75c-14.69-12.45-16-20.27-16-20.27l6.24,3.1,7.84,8,2.39,4A10.49,10.49,0,0,0,234.36,189.7Z"/><path class="cls-26" d="M216.53,133.93s-2-.5-3,.31c0,0,2.61.16,3.14,1.4"/><path class="cls-26" d="M217.91,135.18s-4.29-1-5.26-4.84c-1.34-5.26,8.66-9.59,10,0"/><path class="cls-28" d="M216.18,135.89a1.64,1.64,0,0,1-.33-1.43,9.22,9.22,0,0,1,6.39-6.16s1.14-.3,1.47.4"/><path class="cls-26" d="M221.14,150.84s-7.09-6.64-4.93-15.66,18.28-10.64,19.41-.41c0,0-4-1.1-6.35,1.06s-3.74,6.35-4.45,5.14a1.81,1.81,0,0,0-3.28.48c-.45,1.35.7,3.84.82,6A4.51,4.51,0,0,1,221.14,150.84Z"/><path class="cls-26" d="M236.38,133.37s1.83,6-8.37,5.66c1.21-1.34,1-6.28,1-6.28"/><path class="cls-21" d="M218.84,318.25a7.9,7.9,0,0,0-1.43,4.63,59.74,59.74,0,0,1,.75,6.28h.53l.87-4.66s3.85,4.24,4.72,4.45a38.32,38.32,0,0,0,4.57.21c.19,0,2.92-.62-1.62-2.39,0,0,0,.9-1.77,0a15.42,15.42,0,0,1-4.63-4.32A10.85,10.85,0,0,1,218.84,318.25Z"/><path class="cls-23" d="M244.14,190.69s-3.31,3.56-5.22,3.31c-1.45-.19-8.6-7.6-11.91-11.12l-1.7-1.82,3.74-3,3.48-2.8Z"/><path class="cls-24" d="M232.33,177.53a20.41,20.41,0,0,1-5.32,5.36l-1.7-1.82,3.74-3Z"/><path class="cls-28" d="M225.3,165.64c-4.91-2.56-7.47,1.41-7.43,5.39.06,5.25,7.18,11.56,7.18,11.56s6.33-3.33,8.44-6.46C233.5,176.13,230.06,168.13,225.3,165.64Z"/><path class="cls-23" d="M242.17,189.78a25.8,25.8,0,0,1,6.12,3.57c2.4,2.07,14.1,10.53,14.1,10.53L261,206.46s-14.58-4.73-23.79-13.55Z"/><path class="cls-17" d="M217.9,171.5s-1-7.64,4.94-8.15c3.64-.31,6.63,4.2,7.4,6.53"/><path class="cls-17" d="M222.21,163.39a19.41,19.41,0,0,1,1.25-3.19"/><path class="cls-23" d="M261,206.46s2.55,1.6,3.67,2.1,4.44-.72,4.9-1.74a8.86,8.86,0,0,1-1-.06c-.44-.06-2.27-2.07-3.55-2.53a4.1,4.1,0,0,0-1.76,0,3,3,0,0,1-.83-.35"/><path class="cls-13" d="M269.87,203.86a3.24,3.24,0,0,1-1.7-.28,4,4,0,0,0-2.14-.46c-.56.08-1,.54-.58.73l.95.41a8.38,8.38,0,0,0,4.51.65C271.66,204.79,269.87,203.86,269.87,203.86Z"/><path class="cls-13" d="M265.45,203.37s-1.54.92-1.49,1.11.44.54,1.1.37a9,9,0,0,0,1.76-.83"/><path class="cls-13" d="M261.49,206.78a3,3,0,0,0,1,1,.8.8,0,0,0,.65.41s.13.37.9.36a.79.79,0,0,0,.7.08l-1.14-.6C263.14,207.76,261.49,206.78,261.49,206.78Z"/><path class="cls-30" d="M121.57,307.64S86.42,260.16,97.45,250,124.59,275.6,121.57,307.64Z"/><path class="cls-31" d="M101,255.52c18.5,27.27,22.47,58.16,23.29,75.75"/><path class="cls-31" d="M119.75,284.51c0,4.46-.35,8.69-.6,12.2"/><path class="cls-31" d="M114.28,268.24c0,4.46-.19,8.51-.44,12"/><path class="cls-31" d="M106.25,253.58a56.21,56.21,0,0,1,.25,11"/><path class="cls-31" d="M99.94,262a53.7,53.7,0,0,1,8.53,6.47"/><path class="cls-31" d="M101,264.8a59.33,59.33,0,0,1,9.06,6.7"/><path class="cls-31" d="M107.06,279.13a56.21,56.21,0,0,1,8.78,6.56"/><path class="cls-32" d="M130.58,297.79s33.88-48.39,22.59-58.23S126.71,265.84,130.58,297.79Z"/><path class="cls-31" d="M149.81,245.14c-17.78,27.75-20.94,58.74-21.29,76.34"/><path class="cls-33" d="M131.6,274.62a56.13,56.13,0,0,0,.79,12c0,.18.32.14.32,0,0-4-.37-8.06-.73-12a.19.19,0,0,0-.38,0Z"/><path class="cls-31" d="M136.83,258.21c.13,4.46.42,8.5.76,12"/><path class="cls-31" d="M144.47,243.35a56.21,56.21,0,0,0,0,11"/><path class="cls-31" d="M151,251.55a55.46,55.46,0,0,0-8.5,6.79"/><path class="cls-31" d="M150,254.42a57.73,57.73,0,0,0-8.81,6.79"/><path class="cls-31" d="M144.33,268.91a56.21,56.21,0,0,0-8.61,6.79"/><path class="cls-32" d="M127.16,285s-34.1-48.23-22.86-58.13S130.89,253.08,127.16,285Z"/><path class="cls-31" d="M107.7,232.49c17.9,27.67,21.09,58.64,21.53,76.24"/><path class="cls-31" d="M125.86,261.88c-.11,4.46-.38,8.51-.7,12"/><path class="cls-31" d="M120.74,245.5c-.11,4.46-.38,8.51-.7,12"/><path class="cls-31" d="M113,230.67a56.21,56.21,0,0,1,0,11"/><path class="cls-31" d="M106.54,238.9a56.2,56.2,0,0,1,8.64,6.75"/><path class="cls-31" d="M107.57,241.77a56.2,56.2,0,0,1,8.64,6.75"/><path class="cls-31" d="M113.29,256.23a56.21,56.21,0,0,1,8.64,6.75"/><path class="cls-30" d="M124,299.12s21-28.84,14.28-34.91S122,279.78,124,299.12Z"/><path class="cls-31" d="M136.18,267.54c-11,16.56-13.28,35.23-13.69,45.86"/><path class="cls-31" d="M125,285.14c0,2.7.16,5.14.33,7.25"/><path class="cls-31" d="M128.2,275.29c0,2.7.16,5.14.33,7.25"/><path class="cls-31" d="M133,266.4a33.93,33.93,0,0,0-.1,6.62"/><path class="cls-31" d="M136.83,271.42a33.94,33.94,0,0,0-5.27,4"/><path class="cls-31" d="M136.18,273.15a33.94,33.94,0,0,0-5.27,4"/><path class="cls-31" d="M132.61,281.83a33.93,33.93,0,0,0-5.27,4"/><polygon class="cls-28" points="138.09 320.09 137.94 321.09 137.63 323.21 134.59 343.6 116.47 343.6 113.43 323.21 113.12 321.09 112.97 320.09 138.09 320.09"/><polygon class="cls-34" points="137.94 321.09 137.63 323.21 113.43 323.21 113.12 321.09 137.94 321.09"/><path class="cls-28" d="M138.44,322H112.61a1.5,1.5,0,0,1-1.5-1.5h0a1.5,1.5,0,0,1,1.5-1.5h25.83a1.5,1.5,0,0,1,1.5,1.5h0A1.5,1.5,0,0,1,138.44,322Z"/></svg>