<svg id="Layer_1" data-name="Layer 1" xmlns="http://www.w3.org/2000/svg" viewBox="0 0 499 365"><defs><style>.cls-1,.cls-8{fill:#1ca0a4;}.cls-1{opacity:0.4;}.cls-2{fill:#e8e8e8;}.cls-3{fill:#ffbc9f;}.cls-4{fill:#ffccb9;}.cls-5{fill:#a66d2a;}.cls-6{fill:#773b1e;}.cls-7{fill:#347574;}.cls-9{fill:#5b8fc9;}.cls-10{fill:#3a5d9d;}.cls-11{fill:#d9e9d1;}.cls-12{fill:#7c5048;}.cls-13{fill:#b34b3c;}.cls-14{fill:#85c4b6;}.cls-15{fill:#59484a;}.cls-16{fill:#7c737c;}.cls-17{fill:#afaab8;}.cls-18{fill:#5c617e;}.cls-19{fill:#3cd34e;}.cls-20{fill:#dc4827;}.cls-21{fill:#9a3b52;}.cls-22{fill:#e9f0ef;}.cls-23{fill:#276d6a;}.cls-24{fill:#accdde;}.cls-25{fill:#ffaa57;}.cls-26{fill:#f19224;}.cls-27{fill:#f7b61c;}.cls-28{fill:#fff;}</style></defs><title>imagaCS </title><path class="cls-1" d="M289.43,48.43q-5.25.25-10.79.39c-38.53,1-125.6-2-173.4,31.9-1.44,1-3.83,2.71-6.86,5-41.91,32.19-54.09,80-56.27,88.3-5.4,20.53-6.82,44.43-3.62,68.1C16.65,213.79,4.14,181.24,6.38,149.62,9.56,104.8,41.68,72.3,55.22,60.2c2.09-1.87,3.71-3.25,4.67-4,0,0,38.57-32.07,95.14-40.36C186.64,11.18,241.17,23.18,289.43,48.43Z"/><path class="cls-1" d="M471,131.06c3.51,45.32,18.25,44.79,22,96,1.86,25.42,4.61,71.8-25,101a91.92,91.92,0,0,1-12.86,10.15c-49.7,32.5-111.89,3.31-181.14-4.65-113.76-13.08-143.19,43-188,10-46.63-34.33-54.77-124.5-44-168.91.57-2.34,1.25-4.83,1.29-5,4.21-15.26,17.65-55.47,53.91-84,3-2.36,5.37-4.09,6.8-5.13,48.95-35.63,147.81-33.9,173-34C406.16,46.18,457.28,6,477,34.06,490.5,53.3,466.39,71.51,471,131.06Z"/><path class="cls-2" d="M400.15,309.91c-2.4-.91-13.26-.86-15.74-1.56a155.59,155.59,0,0,0-22.57-4.29,251.4,251.4,0,0,0-37.5-2.32c-11.18.25-22.73,1.73-33,5.81-3.16,1.26-8.84,3.38-8.74,7.33.09,3.39,2.53,5.81,5.37,7.74a20.08,20.08,0,0,0,9.38,2.89,30.85,30.85,0,0,0,5.19.74c12.94.82,25.79,2.71,38.74,3.27,10.64.46,21.54.67,32.15-.43,8.3-.86,21-4.39,26.68-5.26s42,3.15,42.5-4.65S401.91,310.58,400.15,309.91Z"/><path class="cls-2" d="M132.58,310.75c9.52-3.6,19.74-5.4,29.89-6.7a251.4,251.4,0,0,1,37.5-2.32c11.17.25,22.73,1.73,33,5.81,1.4.56,20.2-.54,27.37,1,9,2,13,10.81,6.31,12.32s-27.47-.21-30.31,1.72a20.08,20.08,0,0,1-9.38,2.89,30.84,30.84,0,0,1-5.19.74C208.8,327,196,328.94,183,329.5c-10.64.46-21.54.67-32.15-.43-8.3-.86-17.11-2.73-23.51-7.92C121.87,316.7,128.2,312.41,132.58,310.75Z"/><path class="cls-3" d="M247.19,160.21s-2.27,6.56.76,8.33,14.63,3,18.17,3.78,3.28-4,3.53-5.55,1.77-3,.76-4.79-5.3-4-8.58-4S247.19,160.21,247.19,160.21Z"/><path class="cls-4" d="M276.45,157.6s-10.09-3.7-14.47-1.35-4.88,5.47-2.86,5.47,6.22-2.1,6.22-2.1,8.41,9.08,11.44,5.38S276.45,157.6,276.45,157.6Z"/><path class="cls-4" d="M276.28,160.21s2.27,6.56-.76,8.33c-1,.57-2.78.55-5,1-4.63,1-9.84,2.77-12.24,3.28-3.53.76-7-2.27-7.23-3.78s1-5.3,2-7.07,5.3-4,8.58-4S276.28,160.21,276.28,160.21Z"/><path class="cls-5" d="M353,298.26l12.43.38s.43,1.2,1.26,3.36c3.89,3.75,13.55,12.58,12.52,13.69-1.37,1.48-25,.82-26.6-1.82S353,298.26,353,298.26Z"/><path class="cls-6" d="M364.37,308.08a13.65,13.65,0,0,1,.83-1.1,12.77,12.77,0,0,1,1.33-1.09,6.74,6.74,0,0,1,3.11-1.51c.68-.11,1.27.9.52,1.22-2,.86-3.29,3-5.6,3A.29.29,0,0,1,364.37,308.08Z"/><path class="cls-6" d="M364.41,304a30.76,30.76,0,0,1,2.8-2.08c.68-.46,1.4.55.85,1.11-.77.78-1.54,1.54-2.35,2.28s-1.56,1.69-2.66,1.63a.41.41,0,0,1-.4-.41C362.61,305.41,363.66,304.64,364.41,304Z"/><path class="cls-5" d="M328.26,299.29l-12.43.38s-.43,1.2-1.25,3.36c-3.89,3.75-13.56,12.58-12.52,13.69,1.38,1.48,25,.82,26.6-1.82S328.26,299.29,328.26,299.29Z"/><path class="cls-6" d="M316.94,309.11c-.29-.36-.5-.76-.83-1.1a13.37,13.37,0,0,0-1.34-1.09,6.74,6.74,0,0,0-3.11-1.51c-.68-.11-1.27.9-.51,1.22,2,.86,3.29,3,5.6,3A.29.29,0,0,0,316.94,309.11Z"/><path class="cls-6" d="M316.89,305a31.34,31.34,0,0,0-2.8-2.08c-.68-.46-1.4.55-.85,1.11.77.78,1.54,1.54,2.35,2.28s1.56,1.69,2.66,1.63a.41.41,0,0,0,.4-.41C318.7,306.44,317.65,305.67,316.89,305Z"/><path class="cls-7" d="M368.71,188.61l-2.89,111.15h-13s-6.63-87.11-7.13-90.62-2.5-4.51-3-2.5c-.23.9-4.29,23.49-7.14,40.13-3.09,18-6.6,53.59-6.6,53.59l-14-.5,4.89-112.66Z"/><path class="cls-8" d="M321.15,144.06c1.43-6.17,3.08-25.4,6-26.69s22.16-2.91,22.16-2.91,10.21-1,13.65,3.79,4.91,23.59,5.38,27.59,4.14,46.2,4.14,46.2-9.4,3.93-27.33,5.23-26.44-3.69-26.44-3.69S320.55,146.65,321.15,144.06Z"/><path class="cls-8" d="M321.7,120.09c-7.06,5-9.71,26.9-14.59,30.17s-30.14,4.27-32,5.32-.82,12.87.35,13.89,30.39,2,35.8,2.83,10.66-3.48,13-9.83,9.81-28.75,9.59-36.84S328.76,115,321.7,120.09Z"/><path class="cls-9" d="M337.94,131.92c-1.09-.67-2.3-6.15-1.8-7.54s3.42-1.85,5.52-2,4.78,2,4.57,4-1.25,5.21-2.31,5.93c.63,4.61,3.94,35,2.91,39.45-1.14,4.95-6.17,10.46-7.47,10.73s-5-8.84-5.72-11.44C333,168.65,337.34,135.62,337.94,131.92Z"/><path class="cls-10" d="M338.82,132.5a9.14,9.14,0,0,0,2.12-.15c.63,0,1.25,0,1.88,0a.42.42,0,0,1,0,.84c-.72,0-1.44.22-2.16.2a4.23,4.23,0,0,1-1.92-.65C338.56,132.67,338.68,132.46,338.82,132.5Z"/><path class="cls-11" d="M348.2,113.7c1.74.33,5.63-1.39,6,4.79s-8.15,12.3-8.15,12.3L340.45,122l3.5-6.12S346.46,113.37,348.2,113.7Z"/><path class="cls-11" d="M339.91,113.62a6.14,6.14,0,0,0-7.27,3.9c-1.79,4.4,2.61,11.41,2.61,11.41l6.75-6.29,1-5.51S341.59,113.92,339.91,113.62Z"/><path class="cls-4" d="M354.51,79c-3.4-5.86-8.58-8-15.1-6.65-4.43.93-9.23,4.24-10.77,9-1.25,3.88-1.86,16.48-.85,18a10.37,10.37,0,0,0,5.46,7.23,16.65,16.65,0,0,0,13.78.22C357.89,102.34,360,88.45,354.51,79Z"/><path class="cls-4" d="M336.08,104.31l-.27,15.32a17.64,17.64,0,0,0,7.51,2.26c4.31.26,7.22-3.8,7.22-3.8l-2.32-16.53Z"/><path class="cls-12" d="M339.46,95.95c-.5-.41-1.13-.59-1.63-1-.68-.58-1.29-1.74.08-1.47a.72.72,0,0,0,.81-.62c.2-1.55.59-3,.68-4.6a.47.47,0,0,0-.93-.12c-.33,1.29-.74,2.55-1,3.85-3.73-.05-.49,6.18,2,4.59A.39.39,0,0,0,339.46,95.95Z"/><path class="cls-12" d="M344,97.47c-1.28.74-2.34,1.67-3.85,1.89-1.72.26-3.33-.66-4.87-1.25a.52.52,0,0,0-.51.88c2.7,2.31,8.3,2.93,9.82-1.07A.39.39,0,0,0,344,97.47Z"/><path class="cls-12" d="M333.64,90.32a1.38,1.38,0,0,0-.36,2.73A1.38,1.38,0,0,0,333.64,90.32Z"/><path class="cls-12" d="M345.22,90.32a1.4,1.4,0,0,0-.36,2.78A1.4,1.4,0,0,0,345.22,90.32Z"/><path class="cls-12" d="M334.76,85.78a2,2,0,0,0-2.9.5.64.64,0,0,0,.2.76.66.66,0,0,0,.9-.12c.25-.25.78-.15,1.08-.18S335.17,86.31,334.76,85.78Z"/><path class="cls-12" d="M347.95,86.48a2.14,2.14,0,0,0-1-.35L345.92,86a.6.6,0,0,0-.15,1.18l1.06.16a2.17,2.17,0,0,0,1-.09A.46.46,0,0,0,347.95,86.48Z"/><path class="cls-4" d="M361.12,93a2.78,2.78,0,0,0-1.61-2.84,3.51,3.51,0,0,0-2.85.54c-.74.42-2.72,2.05-2.57,3.15a1.18,1.18,0,0,0-.75.49A2.83,2.83,0,0,0,353.4,98a3,3,0,0,0,3.09.53A6.68,6.68,0,0,0,361.12,93Z"/><path class="cls-13" d="M356.6,79.66c1.48-2.49-2-5.24-3.79-6.5a19.65,19.65,0,0,0-7.28-3.31l-.33-.33c-1.29-1.31-2.57-3.09-4.44-3.61a2.48,2.48,0,0,0-3,1.57,4.7,4.7,0,0,0-.12,2.13c-1.4-1.32-2.9-2.38-4.86-2a1.54,1.54,0,0,0-1.13,1.49,6.25,6.25,0,0,0,1,3.41c-3.7-1-8.16-1.5-7.11,2.31.46,1.68,2.07,2.79,4,3.35,1.79,1.6,4.77,2.16,7,2.6a39.18,39.18,0,0,0,8.56.62c3.21-.08,6.51.53,9.66.19-.11,2.89-.8,5.87-1,8.69a51.38,51.38,0,0,1-.44,5.19,9.87,9.87,0,0,1-.82,2.27,4,4,0,0,0-.72.34c-1-1.18-4.14-.76-5.33-.9-3.39-.42-6.59-1.09-10-.85-2.61.18-5.63,2.24-8,.43a.57.57,0,0,0-.4-.12.52.52,0,0,0-.92,0c-3,5.75,5,11.64,9.79,12.79,5.09,1.23,14.32-2.79,16.73-8.29l.57-.62c.26-.28.51-.58.75-.89,1.67-1.65,1.7-5.65,1.74-7.53C356.89,88.42,358.27,83.18,356.6,79.66ZM339,103.3a4.22,4.22,0,0,1-4-4.16s5.3-2.78,8.58-.25C344.72,99.77,343.05,103.68,339,103.3Z"/><path class="cls-14" d="M319.31,150.36c.44-6.88,1.18-14,2.26-20.77.06-.36.59-.25.6.08.31,6.86-1.12,13.84-1.58,20.68-.41,6.09.79,12.42-.47,18.42a.29.29,0,0,1-.55,0C318.35,163,318.93,156.24,319.31,150.36Z"/><path class="cls-15" d="M346.08,221.45s0-9.18,2.91-10.11,18.9-1.19,20.13-.32,2.18,10.2,2.18,10.2l-4.71-.38-1.85-5.73s-12.94.06-13,.39-1.3,6.27-1.3,6.27Z"/><path class="cls-15" d="M333.38,222.07c2.28-2,51.26-4.78,53-2.94s3,32,2,33.46-52,4.28-53.34,2.88S331.1,224.09,333.38,222.07Z"/><path class="cls-16" d="M383.32,222.13c-3.31,3.32-2.08,10.24-8,11.17a129.74,129.74,0,0,1-13.68.93A132.24,132.24,0,0,0,346.35,236c-5.16.84-7.69-4.9-9.23-9a.45.45,0,0,0-.86.22c.22,3.52,2.64,7.18,5.08,9.6,1.31,1.3,3.57,1,5.22.86,3.83-.34,7.63-1.2,11.48-1.55,3.5-.31,7-.33,10.53-.63,2.54-.22,6,0,8.37-.85,4.62-1.59,5.66-7.89,7.23-12A.5.5,0,0,0,383.32,222.13Z"/><path class="cls-17" d="M356.25,230.13a30.6,30.6,0,0,1,6.08-.41c.36.14.2,2.37-.14,2.77s-5.32.71-5.57.5S355.75,230.4,356.25,230.13Z"/><path class="cls-4" d="M352.36,208.17a31.25,31.25,0,0,1,4.21-5,40.33,40.33,0,0,1,3.74-2.94,2.24,2.24,0,0,1,.34-.38c2.08-1.83,4.69.27,6.42,1.21s3.22,1.7,2.15,4.07c.31,2-.87,4.83-1.39,6.63-.89,3.09-2.12,5.77-4.6,7.76-2.78,2.24-12.17,3.2-11.46-2.62.36-3,2.05-5.26,3.78-7.62l.18-.25c-.44.11-1.89,1.18-2.31,1.19A1.3,1.3,0,0,1,352.36,208.17Z"/><path class="cls-12" d="M359.85,221c2.59-1.87,3.78-5.46,5.11-8.29.23-.49.85-.12.64.36-1.41,3.17-2.44,6.77-5.6,8.32C359.77,221.53,359.65,221.17,359.85,221Z"/><path class="cls-12" d="M354.72,221.82c2.93-2.43,6.31-5.73,7.21-9.74.09-.41.71-.37.67,0-.22,2.27-1.53,4.26-2.85,6.06-1.13,1.55-3,3.9-5,3.87C354.65,222,354.62,221.9,354.72,221.82Z"/><path class="cls-12" d="M352,219.33c3.24-2,4.79-5.54,6.42-9a.25.25,0,0,1,.46.18,21.92,21.92,0,0,1-3,6.36c-.81,1.23-2.34,3.3-3.88,2.81A.19.19,0,0,1,352,219.33Z"/><path class="cls-8" d="M353,126.28c-1,7.34,12.25,31.44,12.24,37.71s-6.77,30.81-5.38,33.64,10.36,7.07,12.11,7.07,8.75-26.58,10.09-37-4.71-24.9-7.23-31.46S363,115.89,359.55,115.89,354,118.94,353,126.28Z"/><path class="cls-14" d="M354,132.5c2.62,3.3,3.52,8.09,5.57,11.82,2.65,4.82,4.93,9.61,5.9,15.06.88,4.95-.37,10.31-1.23,15.19A202.64,202.64,0,0,1,360,194.75c-.15.54-1,.45-1-.13.81-10.59,4.66-20.76,5.25-31.43.35-6.36-2.86-12.78-5.81-18.2-2.13-3.91-2.93-8.24-4.91-12.12C353.43,132.57,353.82,132.22,354,132.5Z"/><path class="cls-3" d="M247,157.6s9.85-3.19,14.47-1.35c5,2,4.88,5.47,2.86,5.47s-6.22-2.1-6.22-2.1-8.41,9.08-11.44,5.38S247,157.6,247,157.6Z"/><path class="cls-5" d="M170.43,298.26l-12.43.38s-.43,1.2-1.26,3.36c-3.89,3.75-13.55,12.58-12.52,13.69,1.38,1.48,25,.82,26.6-1.82S170.43,298.26,170.43,298.26Z"/><path class="cls-6" d="M159.11,308.08a13.46,13.46,0,0,0-.83-1.1,12.76,12.76,0,0,0-1.33-1.09,6.74,6.74,0,0,0-3.11-1.51c-.68-.11-1.27.9-.52,1.22,2,.86,3.29,3,5.6,3A.29.29,0,0,0,159.11,308.08Z"/><path class="cls-6" d="M159.06,304a30.76,30.76,0,0,0-2.8-2.08c-.68-.46-1.4.55-.85,1.11.77.78,1.54,1.54,2.35,2.28s1.56,1.69,2.66,1.63a.41.41,0,0,0,.4-.41C160.87,305.41,159.82,304.64,159.06,304Z"/><path class="cls-5" d="M195.22,299.29l12.43.38s.43,1.2,1.25,3.36c3.89,3.75,13.56,12.58,12.52,13.69-1.38,1.48-25,.82-26.6-1.82S195.22,299.29,195.22,299.29Z"/><path class="cls-6" d="M206.54,309.11a13.77,13.77,0,0,1,.83-1.1,13.37,13.37,0,0,1,1.34-1.09,6.74,6.74,0,0,1,3.11-1.51c.68-.11,1.27.9.51,1.22-2,.86-3.29,3-5.6,3A.28.28,0,0,1,206.54,309.11Z"/><path class="cls-6" d="M206.58,305a31.34,31.34,0,0,1,2.8-2.08c.68-.46,1.4.55.85,1.11-.77.78-1.54,1.54-2.35,2.28s-1.56,1.69-2.66,1.63a.41.41,0,0,1-.4-.41C204.77,306.44,205.83,305.67,206.58,305Z"/><path class="cls-18" d="M154.77,188.61l2.89,111.15h13s6.63-87.11,7.13-90.62,2.5-4.51,3-2.5c.23.9,4.29,23.49,7.14,40.13,3.09,18,6.6,53.59,6.6,53.59l14-.5-4.89-112.66Z"/><path class="cls-19" d="M202.33,144.06c-1.43-6.17-3.08-25.4-6-26.69s-22.16-2.91-22.16-2.91-10.21-1-13.65,3.79-4.91,23.59-5.38,27.59S151,192,151,192s9.4,3.93,27.33,5.23,26.44-3.69,26.44-3.69S202.93,146.65,202.33,144.06Z"/><path class="cls-19" d="M201.78,120.09c7.06,5,9.71,26.9,14.59,30.17s30.14,4.27,32,5.32.82,12.87-.35,13.89-30.39,2-35.8,2.83-10.66-3.48-13-9.83-9.81-28.75-9.59-36.84S194.71,115,201.78,120.09Z"/><path class="cls-20" d="M185.53,131.92c1.09-.67,2.3-6.15,1.8-7.54s-3.42-1.85-5.52-2-4.78,2-4.57,4,1.25,5.21,2.31,5.93c-.63,4.61-3.94,35-2.91,39.45,1.14,4.95,6.17,10.46,7.47,10.73s5-8.84,5.72-11.44C190.49,168.65,186.14,135.62,185.53,131.92Z"/><path class="cls-21" d="M184.65,132.5a9.14,9.14,0,0,1-2.12-.15c-.63,0-1.25,0-1.88,0a.42.42,0,0,0,0,.84c.72,0,1.44.22,2.16.2a4.23,4.23,0,0,0,1.92-.65C184.91,132.67,184.79,132.46,184.65,132.5Z"/><path class="cls-22" d="M175.27,113.7c-1.75.33-5.63-1.39-6,4.79s8.15,12.3,8.15,12.3L183,122l-3.5-6.12S177,113.37,175.27,113.7Z"/><path class="cls-22" d="M183.56,113.62a6.14,6.14,0,0,1,7.27,3.9c1.79,4.4-2.61,11.41-2.61,11.41l-6.75-6.29-1-5.51S181.88,113.92,183.56,113.62Z"/><path class="cls-3" d="M169,79c3.4-5.86,8.58-8,15.1-6.65,4.43.93,9.23,4.24,10.77,9,1.25,3.88,1.85,16.48.85,18a10.38,10.38,0,0,1-5.46,7.23,16.65,16.65,0,0,1-13.78.22C165.58,102.34,163.49,88.45,169,79Z"/><path class="cls-3" d="M187.39,104.31l.27,15.32a17.64,17.64,0,0,1-7.51,2.26c-4.31.26-7.22-3.8-7.22-3.8l2.32-16.53Z"/><path class="cls-12" d="M184,95.95c.5-.41,1.13-.59,1.63-1,.68-.58,1.29-1.74-.08-1.47a.72.72,0,0,1-.81-.62c-.2-1.55-.59-3-.68-4.6a.47.47,0,0,1,.93-.12c.33,1.29.74,2.55,1,3.85,3.73-.05.49,6.18-2,4.59A.39.39,0,0,1,184,95.95Z"/><path class="cls-12" d="M179.45,97.47c1.28.74,2.34,1.67,3.84,1.89,1.72.26,3.33-.66,4.87-1.25a.52.52,0,0,1,.51.88c-2.7,2.31-8.3,2.93-9.82-1.07A.39.39,0,0,1,179.45,97.47Z"/><path class="cls-12" d="M189.83,90.32a1.38,1.38,0,0,1,.36,2.73A1.38,1.38,0,0,1,189.83,90.32Z"/><path class="cls-12" d="M178.25,90.32a1.4,1.4,0,0,1,.36,2.78A1.4,1.4,0,0,1,178.25,90.32Z"/><path class="cls-12" d="M188.71,85.78a2,2,0,0,1,2.9.5.64.64,0,0,1-.2.76.66.66,0,0,1-.9-.12c-.25-.25-.78-.15-1.08-.18S188.3,86.31,188.71,85.78Z"/><path class="cls-12" d="M175.52,86.48a2.14,2.14,0,0,1,1-.35l1.07-.12a.6.6,0,0,1,.15,1.18l-1.06.16a2.17,2.17,0,0,1-1-.09A.46.46,0,0,1,175.52,86.48Z"/><path class="cls-3" d="M162.36,93A2.78,2.78,0,0,1,164,90.19a3.51,3.51,0,0,1,2.85.54c.74.42,2.72,2.05,2.57,3.15a1.18,1.18,0,0,1,.75.49,2.83,2.83,0,0,1-.06,3.58,3,3,0,0,1-3.09.53A6.69,6.69,0,0,1,162.36,93Z"/><path class="cls-12" d="M175.3,106.76c2.7,1.25,7.69,2.27,10.41.77.49-.27,1,.44.48.72-3.22,1.85-8.18.76-11-1.26C175,106.9,175.16,106.7,175.3,106.76Z"/><path class="cls-23" d="M195.46,72.77a14.53,14.53,0,0,0-5.85-1.33,5.82,5.82,0,0,0,.87-1.14c1.71-3.06-4.06-3.76-5.52-3.89-4.64-.41-9.47,2.53-13.13,5.24-1.27.94-4.52,4.06-4.37,6.3a.61.61,0,0,0-.69.29c-2.18,3.4-2.55,8.24-1.49,12.11a1.28,1.28,0,0,0,2.49.11,23.82,23.82,0,0,0,1.63-5.72,17.33,17.33,0,0,0,.39-5.33c2.09.83,5.4.38,6.94.35,4.49-.08,9-.31,13.46-.65,2.24-.17,4.32.11,6.51-.64C200.58,77.12,197.61,73.81,195.46,72.77Z"/><path class="cls-24" d="M204.17,150.36c-.44-6.88-1.18-14-2.26-20.77-.06-.36-.59-.25-.6.08-.32,6.86,1.12,13.84,1.58,20.68.41,6.09-.79,12.42.47,18.42a.29.29,0,0,0,.55,0C205.12,163,204.54,156.24,204.17,150.36Z"/><path class="cls-3" d="M271,168.54a3.54,3.54,0,0,0-2.46-2.1,1.84,1.84,0,0,0-1.77.66,1.61,1.61,0,0,0-.33,1.06,4.12,4.12,0,0,0-1.53-.22,1.59,1.59,0,0,0-1.54,2,6,6,0,0,0-.69-.3c-1-.36-2.52-.13-2.82.95a1.85,1.85,0,0,0-.06.52,1.44,1.44,0,0,0-1.57.76,1.3,1.3,0,0,0,1.19,1.71c.37,0,1.23.17,1.68.23a.71.71,0,0,0,.74-.43,2.82,2.82,0,0,0,2,0,1.71,1.71,0,0,0,.45-.35,1.11,1.11,0,0,0,.92-1,2.67,2.67,0,0,0,2,.29,1.51,1.51,0,0,0,1.08-.5,1.59,1.59,0,0,0,.38-.77,2,2,0,0,0,2.18-.53A1.86,1.86,0,0,0,271,168.54Z"/><path class="cls-12" d="M264.43,157.81c-.11-.08-.26.05-.23.17a13,13,0,0,0,.82,1.94c1,2.58-2.18,1.84-2.89,1.67-1.2-.29-1.91-1.42-3-1.72-.75-.2-1.14.08-1.72.54-1.45,1.16-2.69,2.48-4.53,3a.2.2,0,0,0,.11.39,9.93,9.93,0,0,0,4.47-2.48c1.31-1.1,2-.36,3.16.42a6.26,6.26,0,0,0,2.41.74C266.29,163.08,266.77,159.48,264.43,157.81Z"/><path class="cls-12" d="M261.57,172.61a4.09,4.09,0,0,1-1.54-1.34c-.16-.29-.6,0-.45.26a2.26,2.26,0,0,0,1.91,1.37A.15.15,0,0,0,261.57,172.61Z"/><path class="cls-12" d="M265.29,172a21.72,21.72,0,0,1-1.89-1.82.33.33,0,0,0-.47.47c.63.67,1.22,1.77,2.29,1.58A.14.14,0,0,0,265.29,172Z"/><path class="cls-12" d="M268,169.25c-.3-.39-.52-.84-.82-1.23s-.91,0-.63.37c.4.59,1.08,2.43,2.06,2.05a.23.23,0,0,0,.16-.28C268.63,169.76,268.26,169.57,268,169.25Z"/><path class="cls-12" d="M256.66,164.57c-1.37.07-2.12,1-2.84,2.07s-2,2.7-1.65,3.95a.08.08,0,0,0,.15,0c.7-.93,1.09-2.14,1.74-3.13s1.51-2.41,2.62-2.78C256.73,164.66,256.73,164.56,256.66,164.57Z"/><path class="cls-12" d="M258.88,165.86c-1.69.43-3,2.64-3.86,4-.26.4-1,1.38-.82,1.9,0,.15.31.56.44.23a15.81,15.81,0,0,1,1.63-2.48c.69-1,1.72-2.59,2.85-3.08C259.45,166.28,259.21,165.78,258.88,165.86Z"/><path class="cls-12" d="M260.13,168.43a8.26,8.26,0,0,0-2.17,2.46c-.09.13-1.3,1.76-.68,1.8a.12.12,0,0,0,.12-.12c0,.14,0,0,.08-.08s.19-.25.28-.38c.29-.44.62-.86.95-1.27a19.86,19.86,0,0,0,1.58-2.24A.12.12,0,0,0,260.13,168.43Z"/><path class="cls-15" d="M178.25,221.45s0-9.18-2.91-10.11-18.9-1.19-20.13-.32-2.18,10.2-2.18,10.2l4.71-.38,1.85-5.73s12.94.06,13,.39,1.3,6.27,1.3,6.27Z"/><path class="cls-15" d="M190.94,222.07c-2.28-2-51.26-4.78-53-2.94s-3,32-2,33.46,52,4.28,53.34,2.88S193.22,224.09,190.94,222.07Z"/><path class="cls-16" d="M141,222.13c3.31,3.32,2.08,10.24,8,11.17a129.74,129.74,0,0,0,13.68.93A132.24,132.24,0,0,1,178,236c5.16.84,7.69-4.9,9.23-9a.45.45,0,0,1,.87.22c-.22,3.52-2.64,7.18-5.08,9.6-1.31,1.3-3.57,1-5.22.86-3.83-.34-7.63-1.2-11.48-1.55-3.5-.31-7-.33-10.53-.63-2.54-.22-5.95,0-8.37-.85-4.62-1.59-5.66-7.89-7.23-12A.5.5,0,0,1,141,222.13Z"/><path class="cls-17" d="M168.08,230.13a30.59,30.59,0,0,0-6.08-.41c-.36.14-.2,2.37.14,2.77s5.32.71,5.57.5S168.57,230.4,168.08,230.13Z"/><path class="cls-3" d="M171.12,208.17a31.27,31.27,0,0,0-4.21-5,40.27,40.27,0,0,0-3.74-2.94,2.22,2.22,0,0,0-.34-.38c-2.08-1.83-4.69.27-6.42,1.21s-3.22,1.7-2.15,4.07c-.31,2,.87,4.83,1.39,6.63.89,3.09,2.12,5.77,4.6,7.76,2.78,2.24,12.17,3.2,11.46-2.62-.36-3-2.05-5.26-3.78-7.62l-.18-.25c.44.11,1.89,1.18,2.31,1.19A1.3,1.3,0,0,0,171.12,208.17Z"/><path class="cls-3" d="M163.63,221c-2.59-1.87-3.78-5.46-5.11-8.29-.23-.49-.85-.12-.64.36,1.41,3.17,2.44,6.77,5.59,8.32C163.7,221.53,163.82,221.17,163.63,221Z"/><path class="cls-3" d="M168.75,221.82c-2.93-2.43-6.31-5.73-7.21-9.74-.09-.41-.71-.37-.67,0,.22,2.27,1.53,4.26,2.85,6.06,1.13,1.55,3,3.9,5,3.87C168.82,222,168.85,221.9,168.75,221.82Z"/><path class="cls-3" d="M171.46,219.33c-3.25-2-4.79-5.54-6.42-9a.25.25,0,0,0-.46.18,21.92,21.92,0,0,0,3,6.36c.81,1.23,2.34,3.3,3.88,2.81A.19.19,0,0,0,171.46,219.33Z"/><path class="cls-19" d="M170.45,126.28c1,7.34-12.25,31.44-12.24,37.71s6.77,30.81,5.38,33.64-10.36,7.07-12.11,7.07-8.75-26.58-10.09-37,4.71-24.9,7.23-31.46,11.88-20.35,15.31-20.35S169.47,118.94,170.45,126.28Z"/><path class="cls-25" d="M169.44,132.5c-2.62,3.3-3.52,8.09-5.57,11.82-2.65,4.82-4.92,9.61-5.9,15.06-.88,4.95.37,10.31,1.23,15.19a203,203,0,0,0,4.24,20.17c.15.54,1,.45,1-.13-.81-10.59-4.66-20.76-5.25-31.43-.35-6.36,2.86-12.78,5.81-18.2,2.13-3.91,2.93-8.24,4.91-12.12C170,132.57,169.66,132.22,169.44,132.5Z"/><polygon class="cls-26" points="197.77 152.34 194.46 150.23 191.05 152.28 191.12 143.81 197.84 143.87 197.77 152.34"/><circle class="cls-27" cx="194.51" cy="140.31" r="6.22" transform="translate(52.59 333.65) rotate(-89.52)"/><polygon class="cls-28" points="194.63 136.82 195.62 138.88 197.89 139.23 196.23 140.81 196.6 143.07 194.58 141.99 192.54 143.04 192.95 140.79 191.32 139.17 193.59 138.86 194.63 136.82"/><polygon class="cls-26" points="332.47 155.51 328.74 153.15 324.91 155.45 324.99 145.93 332.55 145.99 332.47 155.51"/><circle class="cls-27" cx="328.8" cy="141.99" r="6.99" transform="matrix(0.01, -1, 1, 0.01, 184.09, 469.6)"/><polygon class="cls-28" points="328.93 138.07 330.05 140.38 332.59 140.78 330.73 142.56 331.15 145.1 328.88 143.88 326.59 145.06 327.05 142.53 325.22 140.72 327.77 140.37 328.93 138.07"/></svg>