<?xml version="1.0" encoding="utf-8"?>
<!-- Generator: Adobe Illustrator 22.0.0, SVG Export Plug-In . SVG Version: 6.00 Build 0)  -->
<svg version="1.1" id="Layer_1" xmlns="http://www.w3.org/2000/svg" xmlns:xlink="http://www.w3.org/1999/xlink" x="0px" y="0px"
	 viewBox="0 0 30 30" style="enable-background:new 0 0 30 30;" xml:space="preserve">
<style type="text/css">
	.st0{display:none;}
	.st1{display:inline;fill:#FFFFFF;stroke:#4C84AD;stroke-width:5;stroke-miterlimit:10;}
	.st2{display:inline;fill:#9ED9F1;stroke:#4C84AD;stroke-width:5;stroke-miterlimit:10;}
	.st3{display:inline;fill:none;stroke:#4C84AD;stroke-width:5;stroke-miterlimit:10;}
	.st4{display:inline;fill:#4C84AD;}
	.st5{display:inline;fill:#FFFFFF;stroke:#00AEDF;stroke-width:0.7;stroke-miterlimit:10;}
	.st6{display:inline;fill:#1CA0A4;stroke:#00AEDF;stroke-width:0.7;stroke-miterlimit:10;}
	.st7{display:inline;fill:#00AEDF;}
	.st8{fill:#FFFFFF;}
	.st9{opacity:0.2;fill:#01A0A4;enable-background:new    ;}
	.st10{fill:#01A0A4;}
	.st11{fill-opacity:0;}
	.st12{opacity:0.2;fill:#FFFFFF;enable-background:new    ;}
	.st13{fill:#FF4500;}
	.st14{font-family:'AmericanTypewriter-Bold';}
	.st15{font-size:9.3656px;}
</style>
<g id="Layer_1_1_" class="st0">
	<circle class="st1" cx="14.7" cy="16.7" r="13.8"/>
	<path class="st2" d="M21.8,20.2H8.1c-2.7,0-4.9-2.2-4.9-4.9l0,0c0-2.7,2.2-4.9,4.9-4.9h13.6c2.7,0,4.9,2.2,4.9,4.9l0,0
		C26.6,18,24.4,20.2,21.8,20.2z"/>
	<path class="st3" d="M14.9,25.7c2,0,3.7-1.6,3.7-3.5h-7.4C11.2,24.2,12.9,25.7,14.9,25.7z"/>
	<circle class="st1" cx="8.5" cy="15.2" r="2.4"/>
	<circle class="st1" cx="21.4" cy="15.3" r="2.4"/>
	<path class="st1" d="M6.7,5.3c-1.6,1.2-3,2.6-4,4.4C2.3,9.2,2.1,8.6,2.1,8c0-1.7,1.4-3,3-3C5.7,4.9,6.3,5.1,6.7,5.3z"/>
	<path class="st1" d="M28,8c0,0.9-0.4,1.7-1,2.3c-1-1.8-2.3-3.4-3.9-4.7c0.5-0.4,1.2-0.7,1.9-0.7C26.6,4.9,28,6.3,28,8z"/>
	<polygon class="st4" points="26.7,5.6 26.2,5.2 29.6,1.4 30,1.7 	"/>
	<polygon class="st4" points="3.5,5.3 3,5.7 -0.1,1.6 0.3,1.3 	"/>
	<path class="st2" d="M31.1,2.1c-0.8,0.2-1.7-0.3-1.9-1.2s0.3-1.7,1.2-1.9c0.8-0.2,1.7,0.3,1.9,1.2C32.5,1,32,1.9,31.1,2.1z"/>
	<path class="st2" d="M-0.1,2.1C-0.9,2.2-1.8,1.7-2,0.9S-1.6-0.8-0.8-1s1.7,0.3,1.9,1.2S0.8,1.9-0.1,2.1z"/>
</g>
<g id="Layer_2_1_" class="st0">
	<circle class="st5" cx="15.1" cy="16.9" r="10.6"/>
	<path class="st6" d="M20.5,19.6H10.1c-2,0-3.7-1.7-3.7-3.7l0,0c0-2,1.7-3.7,3.7-3.7h10.4c2,0,3.7,1.7,3.7,3.7l0,0
		C24.2,17.9,22.5,19.6,20.5,19.6z"/>
	<path class="st5" d="M15.3,23.9c1.6,0,2.8-1.2,2.8-2.7h-5.6C12.5,22.7,13.7,23.9,15.3,23.9z"/>
	<circle class="st5" cx="10.3" cy="15.8" r="1.8"/>
	<circle class="st5" cx="20.2" cy="15.9" r="1.8"/>
	<path class="st6" d="M9,8.3c-1.2,0.9-2.3,2-3.1,3.3c-0.3-0.4-0.4-0.8-0.4-1.3C5.5,9,6.5,8,7.8,8C8.3,8,8.6,8.1,9,8.3z"/>
	<path class="st6" d="M25.2,10.3c0,0.7-0.3,1.3-0.8,1.7c-0.7-1.4-1.8-2.6-3-3.5C21.8,8.2,22.3,8,22.9,8C24.2,8,25.2,9,25.2,10.3z"/>
	<polygon class="st7" points="24.2,8.5 23.9,8.2 26.5,5.3 26.8,5.5 	"/>
	<polygon class="st7" points="6.5,8.3 6.2,8.6 3.8,5.5 4.1,5.2 	"/>
	<path class="st6" d="M27.6,5.8c-0.6,0.1-1.3-0.3-1.4-0.9s0.3-1.3,0.9-1.4c0.6-0.1,1.3,0.3,1.4,0.9C28.7,5,28.3,5.6,27.6,5.8z"/>
	<path class="st6" d="M3.8,5.8C3.2,5.9,2.5,5.5,2.4,4.9s0.3-1.3,0.9-1.4c0.6-0.1,1.3,0.3,1.4,0.9S4.4,5.6,3.8,5.8z"/>
</g>
<path class="st8" d="M28.2,15.6c0,0.1,0,0.2,0,0.3s0,0.2,0,0.3s0,0.2,0,0.3c0,0.1,0,0.1,0,0.1c0,0.1,0,0.1,0,0.2s0,0,0,0.1
	s0,0.2,0,0.2s0,0.1,0,0.1s0,0.1,0,0.2c0,0.1,0,0.1,0,0.1s0,0.2-0.1,0.2v0.1c0,0.1,0,0.1-0.1,0.2v0.1l-0.1,0.2v0.1
	c0,0.1,0,0.1-0.1,0.2c-0.1,0.1,0,0.1,0,0.1s0,0.1,0,0.1l-0.1,0.2c-0.1,0.4-0.2,0.7-0.3,1.1l0,0.1l-0.1,0.1l-0.1,0.2l-0.1,0.2
	l-0.1,0.1l-0.1,0.1l-0.1,0.1l-0.1,0.1l-0.1,0.1L27,21.7l-0.1,0.1L26.9,22l-0.1,0.1l-0.1,0.2l-0.1,0.2c-0.1,0.1-0.2,0.2-0.2,0.4
	c-0.1,0.2-0.3,0.5-0.4,0.7l-0.1,0.1l-0.1,0.1l-0.1,0.2l-0.1,0.1l-0.1,0.2l0,0.1l-0.3,0.4c-0.2,0.2-0.4,0.4-0.6,0.7l-0.1,0.1
	l-0.1,0.1L24,25.7c-1.2,1.1-2.7,2-4.2,2.6l-0.4,0.2l-0.1,0.1l-0.4,0.1l-0.2,0.1l-0.2,0.1l-0.2,0.1L18,28.9l-0.2,0.1L17.4,29L17.2,29
	h-0.1h-0.1l-0.2,0.1h-0.1l-0.3,0.1c-0.7,0.1-1.4,0.2-2.2,0.2h-0.6h-0.2h-0.3h-0.1H13h-0.2l0,0h-0.1h-0.1h-0.1h-0.2h-0.1l0,0L12,29.3
	h-0.1l-0.2-0.1h-0.1l-0.2-0.1l-0.2-0.1h-0.1H11L10.8,29h-0.1h-0.1L10.5,29h-0.1h-0.1l-0.3-0.4H10l-0.1-0.1H9.8H9.7H9.6l-0.1,0l0,0
	l-0.2-0.1H9.2H9.1H9.1H9l0,0H9H8.9l-0.1-0.1l-0.1-0.1H8.6L8.5,28H8.4l0,0l-0.2-0.1l-0.1-0.1l-0.1-0.1H8l-0.1-0.1H7.8H7.8l0,0
	l-0.1-0.1l-0.2-0.1l0,0l-0.2-0.1l0,0l-0.2-0.1l0,0L7,27.2l0,0.1L7,27.2l-0.1-0.1H6.8L6.6,27L6.6,27l-0.1-0.1l-0.1,0l0,0l-0.1-0.1
	l-0.1-0.1l-0.1-0.1H6.1L6,26.6l-0.1-0.1l-0.1-0.1l-0.1-0.1l-0.1-0.1l-0.1-0.1H5.4l0,0l-0.2-0.2L5,25.8l-0.1-0.1l-0.2-0.2l-0.1-0.1
	l-0.1-0.1l-0.1-0.1l-0.3-0.3L4,24.7l-0.1-0.1l-0.3-0.3l0,0l-0.1-0.1L3.3,24l-0.1-0.1l-0.1-0.1L3,23.6l-0.1-0.1l-0.1-0.2l-0.1-0.1
	v-0.1c-0.1-0.2-0.2-0.4-0.4-0.6l-0.1-0.2l-0.1-0.1C2,22.1,2,21.9,1.8,21.7l-0.1-0.2l-0.1-0.1l0,0v-0.1L1.5,21l-0.1-0.2l-0.1-0.1
	l-0.1-0.2l-0.1-0.1l-0.1-0.2l0,0l0-0.2l-0.1-0.2c-0.2-0.6-0.4-1.3-0.5-2v-0.1v-0.1c0-0.1-0.1-0.2-0.1-0.4v-0.2c0-0.1,0-0.1,0-0.2
	l0,0c-0.1-0.4-0.1-0.8-0.1-1.2H0.4v-0.1l0,0c0-0.1,0-0.3,0-0.4c0-0.1,0-0.1,0-0.2c0-0.1,0-0.2,0-0.3c0.1-1.4,0.4-2.8,1-4.2
	c0.4-0.9,0.9-1.9,1.5-2.7c0.2-0.2,0.4-0.6,0.6-0.8l0,0l0.1-0.1l0.2-0.2C4.1,6.3,4.3,6,4.6,5.7l0,0c0.3-0.3,0.7-0.6,1-0.9l0,0
	c0.5-0.4,1-0.7,1.5-1c0.4-0.2,0.7-0.4,1.1-0.6C8.5,3.1,8.8,3,9,2.9l0.2-0.1h0.1h0.1l0.4-0.2l0.4-0.1l0.2-0.1l0.4-0.1L11,2.3l0.2-0.1
	l0.1-0.1l0.2-0.1C11.8,2,12,1.9,12.2,1.9c0.7-0.1,1.4-0.2,2.2-0.2H15h0.2h0.2h0.2l0,0h0.1l0,0h0.1l0,0h0.1h0.2h0.1h0.1h0.2l0,0h0.1
	l0.2,0.1L17,1.9l0.2,0.1h0.1L17.4,2h0.1h0.1h0.1L18,2.1l0.2,0.1h0.1l0,0l0.2,0.1l0.2,0.1h0.1h0.1l0.1,0l0,0h0.1H19l0.1,0.1l0,0h0.1
	h0.1l0.1,0.1h0.1h0.1l0.1,0.1l0,0l0.2,0.1l0,0l0.2,0.1l0,0l0,0L20,2.7l0,0l0.1,0.1h0.1l0.1,0.1h0.1l0,0l0.1,0.1l0.1,0.1l0.2-0.1h0.1
	l0,0L21,3l0,0l0.2,0.1l0,0l0.2,0.1l0.1,0.1h0.1l0,0h0.1l0.1,0.1l0.2,0.1l0,0L22,3.6l0.1,0.1l0,0l0,0l0.1,0.1l0,0l0,0l0.1,0.1l0,0
	l0,0l0,0h0.1l0,0l0.1,0.1l0,0l0.2,0.1l0.2,0.2l0.1,0.1l0.2,0.2h0.1l0.1,0.1l0.1,0.1l0.1,0.1l0.1,0.1L23.8,5l0.1,0.1l0.2,0.2l0.4,0.4
	l0.1,0.2l0.1,0.2l0,0l0.1,0.2l0.1,0.2l0.3,0.4L25.4,7l0.1,0.1l0.5,1L26,8.1l0,0l0.1,0.1l0.1,0.1l0.1,0.2v0.1v0.1l0.1,0.2v0.1
	c0.1,0.1,0.1,0.2,0.2,0.4l0.1,0.1v0.1l0.1,0.1l0.1,0.1l0,0l0.1,0.1v0.1l0.1,0.1L27,9.8v0.1l0.1,0.1l0.1,0.1l0.1,0.2l0.1,0.1v0.1
	l0.1,0.2v0.1l0,0l0.1,0.2l0.1,0.1v0.1l0.1,0.2l0.1,0.1v0.1l0,0v0.1v0.1l0.1,0.2v0.1l0,0V12l0,0l0.1,0.2l0,0l0.1,0.2v0.1v0.1v0.1v0.1
	v0.1v0.1c0,0.1,0,0.1,0.1,0.2v0c0,0.1,0,0.2,0.1,0.2v0.1c0.1,0.2,0.1,0.4,0.1,0.6l0,0v0.1l0,0c0,0.1,0,0.2,0,0.2
	C28.1,14.8,28.2,15.2,28.2,15.6z"/>
<path class="st9" d="M16.8,16.2c-0.3-0.1-0.6-0.2-0.8-0.5c-0.1-0.1-0.1-0.4-0.2-0.5c-0.1-0.1-0.4,0.1-0.5,0.1
	c-0.1-0.4-0.3-0.6-0.7-0.2c0.1-0.1,0.1-0.4,0-0.5c-0.1-0.2-0.3-0.1-0.5-0.1c-0.4,0-0.5-0.2-0.7-0.6s-0.6-0.1-1.1-0.1
	c-0.5,0-0.9,0.1-1.4,0.2c-0.2,0.1-0.4,0.3-0.5,0.1s0.1-0.4-0.2-0.5c-0.4-0.2-0.9,0.1-1.4-0.1c-0.2-0.1-0.3-0.2-0.1-0.5
	C8.8,12.8,9,12.6,9,12.4c0.1-0.2,0.2-0.4,0.3-0.6c0.2-0.2,0.1-0.3,0.1-0.6c0.6-0.3,1.4,0.1,1.6-0.9c0-0.1-0.1-0.4-0.1-0.6
	c0.1-0.1,0.4,0,0.6,0c0.4,0,0.9-0.1,1.2-0.2s0.7-0.2,1.1-0.2c0.4,0.1,0.4,0.4,0.6,0.7c0.2,0.3,0.4,0.6,0.7,0.7
	c0.2,0.1,0.4,0.2,0.5,0.5c0,0.2,0.1,0.4,0.2,0.6c0.2-0.2,0.6-0.1,0.9-0.2c0.2-0.1,0.1-0.6,0-0.8c-0.1-0.4-0.4-0.4-0.6-0.7
	c-0.1-0.1-0.1-0.3-0.1-0.5c0.1-0.2,0.1-0.1,0.3-0.2c0.4-0.1,0.5,0.1,0.7,0.3c0.1,0.1,0.2,0.1,0.3,0.2s0.1,0.3,0.2,0.4
	c0.1,0.1,0.5,0.3,0.6,0.6c0.1,0.2-0.1,0.4-0.1,0.6c0,0.2,0.1,0.3,0.1,0.5c0.2,0,0.5,0.3,0.6,0.4c0.1,0.1,0.3,0.1,0.4,0.2
	c0.1,0.1,0.1,0.2,0.1,0.4c0.1,0.2,0.1,0.2,0.2,0.3c0.1,0.3,0.2,0.7,0.3,1c0.2,0.4,0.6,0.6,0.7,1c0.3,1-1.1,1.2-1.8,1.4
	c-0.4,0.1-0.7,0.1-1.1,0.1C17.3,16.6,17.3,16.3,16.8,16.2z"/>
<path class="st10" d="M17.3,21.1L17.3,21.1L17.3,21.1z"/>
<path class="st10" d="M2.6,22.6L2.6,22.6L2.6,22.6z"/>
<path class="st10" d="M18.7,21.1L18.7,21.1L18.7,21.1z"/>
<path class="st10" d="M19.1,20.6L19.1,20.6L19.1,20.6z"/>
<path class="st10" d="M18.8,19.3L18.8,19.3L18.8,19.3z"/>
<path class="st10" d="M18.7,20.2L18.7,20.2L18.7,20.2z"/>
<path class="st10" d="M18.5,20.4L18.5,20.4L18.5,20.4z"/>
<path class="st10" d="M18.9,19.4L18.9,19.4L18.9,19.4z"/>
<path class="st9" d="M9.1,2.9h0.1c0.1,0,0.2,0,0.2-0.1c0.1-0.1,0.1-0.1,0.2-0.1c0.1,0,0.1-0.1,0.2-0.1c0.1,0,0.1,0,0.2,0.1l0.1,0.1
	c0.1,0,0.1,0.1,0.1,0.1h0.1c0.1,0,0.1,0,0.1,0h0.2c0.1,0,0.2,0,0.3-0.1c0.1,0,0.2,0,0.2,0h0.2l0.2,0.1l0.1,0.1l0.1,0.1
	C12,3,12.1,3,12.2,2.9c0.1,0,0.1-0.1,0.1-0.1h0.2c0.1,0,0.2-0.1,0.3-0.1c-0.1,0-0.1-0.1-0.1-0.2c0-0.1,0,0,0-0.1
	c0.1,0,0.1-0.1,0.1-0.1c0.1,0,0.2,0,0.3,0l0.2,0.1h0.2c0.2,0,0.3,0.1,0.4,0.2c0,0.1,0.1,0.1,0.1,0.1s0,0.1,0.1,0.1
	c0,0.1,0,0.2,0.1,0.3c0.1,0.1,0.1,0.2,0.1,0.2c0.1,0,0.1,0,0.1,0c0.1,0,0.1-0.1,0.2-0.1s0.2,0.2,0.4,0.2c0.1,0,0.2-0.1,0.3-0.1h0.2
	c0.1,0,0.1,0,0.2,0c0.1,0,0.1,0,0.1-0.1c0.1-0.1,0-0.1,0-0.1s0-0.1,0-0.2c0-0.1,0.1-0.1,0.2-0.1c0.1,0,0-0.1,0-0.1V2.9
	c0,0,0,0,0.1,0c0.2,0,0.3,0.1,0.5,0.1c0.1,0,0.2,0.1,0.4,0.1c0.1,0,0.2,0.1,0.2,0.1s0.1,0.1,0.2,0.1l0.1,0.2
	c0.1,0.1,0.1,0.1,0.1,0.2C17.8,3.8,17.9,3.9,18,4c0.1,0.1,0.3,0.1,0.5,0.1L18.7,4h0.2c0.1,0,0.2,0,0.3,0c0.1,0,0.2,0.1,0.2,0.1
	l0.2,0.1c0.1,0,0.1,0.1,0.2,0.1c0.1,0,0.1,0.1,0.2,0.1c0.1,0.1,0.2,0.2,0.3,0.2h0.1h0.1h0.1h0.1l0.6,0.1h-0.1
	c0.1-0.1,0.2-0.1,0.3-0.1c0.1,0,0.3,0,0.4,0.1c0.1,0,0.2,0.1,0.2,0.1c0,0.1,0.1,0.1,0.1,0.1l0.1,0.1c0.1,0,0.1,0.1,0.2,0.1h0.1V4.9
	V4.8l-0.1-0.1c0-0.1-0.1-0.1,0-0.1V4.5C18.8,1.6,13.7,1,9.1,2.9C9.1,2.9,9.1,2.9,9.1,2.9z"/>
<path class="st10" d="M22.9,13.3L22.9,13.3L22.9,13.3z"/>
<path class="st10" d="M23.9,22.1L23.9,22.1L23.9,22.1z"/>
<path class="st10" d="M22.1,21.2L22.1,21.2L22.1,21.2z"/>
<polygon class="st10" points="17.6,21.2 17.6,21.2 17.6,21.2 "/>
<path class="st9" d="M20,20.6L20,20.6z M20,20.6L20,20.6z M20,20.6L20,20.6z M28.2,14.4c0-0.1,0-0.2,0-0.2l0,0v-0.1l0,0
	c0-0.2-0.1-0.4-0.1-0.6v-0.1c0-0.1,0-0.2-0.1-0.2v-0.1c0-0.1,0-0.1-0.1-0.2v-0.1v-0.1v-0.1l-0.1-0.1v-0.1v-0.1l-0.1-0.2l0,0
	l-0.1-0.2l0,0l-0.1-0.2l-0.1-0.1v-0.1v-0.1l0,0v-0.1v-0.1l-0.1-0.2v-0.1l-0.1-0.1l-0.1-0.2l0,0v-0.1l-0.2-0.2l-0.1-0.1l-0.1-0.2
	L27,10V9.9V9.8l-0.1-0.1l-0.1-0.1l-0.1-0.1l0,0l-0.1-0.1l-0.1-0.1V9.3l-0.1-0.1c-0.1-0.1-0.1-0.2-0.2-0.4v0l-0.1-0.2V8.5V8.4
	l-0.1-0.2l-0.1-0.1L26,8.1l0,0v0.1l0,0c0,0,0,0,0,0.1c0,0.1,0,0.1-0.1,0.1c0,0,0,0.1-0.1,0.1c0,0,0,0-0.1,0c-0.1,0,0,0.1-0.1,0.1
	l-0.1,0.1c-0.1,0.1-0.1,0.1-0.1,0.1c-0.1,0-0.1,0-0.2,0c-0.1,0-0.1,0-0.1,0c-0.1,0-0.1-0.1-0.2-0.1h-0.1c-0.1,0-0.2,0-0.2,0.1
	c0,0,0,0.1-0.1,0.1c-0.1,0-0.1,0-0.1-0.1c-0.1,0-0.1,0-0.2,0c-0.1,0,0,0.1-0.1,0.1c0,0.1,0,0.1,0,0.2c0.1,0,0.1,0.1,0.1,0.1l0.1,0.1
	c0.1,0,0.1,0.1,0.1,0.1s0,0,0,0.1c0,0.1,0,0.1,0,0.2c0,0.1,0,0.1,0,0.2c0.1,0.1,0.2,0.2,0.2,0.4c0,0.1,0,0.1-0.1,0.1
	c-0.1,0-0.1,0-0.1,0.1c0,0.1,0,0.1,0,0.1c0,0.1,0,0.1,0,0.2c0,0.1-0.1,0.1-0.1,0.1c0,0.1,0,0.1,0,0.1c0,0.1,0,0.1,0,0.1
	s-0.1,0.2-0.2,0.2c-0.1,0-0.1-0.1-0.1-0.1c0-0.1,0-0.1-0.1-0.1l-0.1-0.1c0,0-0.1-0.1-0.1-0.1l-0.1-0.1l-0.2-0.2
	c-0.1-0.1-0.2-0.2-0.3-0.2c-0.1-0.1-0.1-0.2-0.1-0.2s-0.1-0.2-0.1-0.2c-0.1-0.1-0.1-0.1-0.1-0.1c-0.1-0.1-0.1-0.1-0.1-0.2
	c0-0.1,0-0.1,0.1-0.1c0.1,0,0.1-0.1,0.1-0.1s0.1-0.2,0.1-0.2c0-0.1,0.1-0.1,0.1-0.1c0.1-0.1,0.1-0.1,0.1-0.1
	c0.1-0.1,0.1-0.1,0.1-0.2c0-0.1,0-0.1,0-0.2c0-0.1-0.1-0.1-0.1-0.2c-0.1-0.1,0-0.1,0-0.1s0,0.1,0,0.2c0,0.1,0,0.1-0.1,0.1
	c-0.1,0-0.1,0-0.1,0l-0.1,0.1c0,0,0,0.1-0.1,0.1c-0.1,0-0.1,0-0.1,0c-0.1-0.1-0.1-0.2-0.2-0.2c-0.1,0-0.1-0.1-0.2-0.1
	s-0.1,0-0.1,0.1c-0.1,0.1-0.2,0.1-0.2,0.2c-0.1,0.1-0.1,0.1-0.1,0.1c0,0.1,0.1,0.1,0.1,0.1s0.1,0.1,0.1,0.1s-0.1,0.1-0.1,0.1
	c-0.1,0-0.2,0-0.3,0h-0.1c-0.1,0-0.1-0.1-0.2-0.1H22h-0.1h-0.1c-0.1,0-0.1-0.1-0.2-0.1c-0.1-0.1-0.1-0.1-0.1-0.1c-0.1,0-0.1,0-0.1,0
	c0,0-0.1,0-0.1,0c-0.1,0.1-0.2,0.1-0.3,0.1l-0.2-0.1c-0.1,0-0.2-0.1-0.3-0.1c-0.1,0-0.2,0-0.2,0c-0.1,0.1-0.2,0.1-0.2,0.2
	c-0.1,0.1-0.1,0.1-0.1,0.2c0,0.1,0,0.1-0.1,0.1c-0.1,0.1-0.1,0.1-0.1,0.1c-0.1,0-0.1,0.1-0.1,0.1v0.1c0,0,0.2,0.1,0.2,0.1l0,0
	c0.1,0,0.1,0.1,0.2,0.1c0,0,0.1,0.1,0.1,0.1h0.1c0,0,0.1-0.1,0.1-0.1c0,0,0.1,0,0.1,0c0.1,0,0.2,0.1,0.2,0.1l0.1,0.1l0.2,0.1
	c0.1,0,0.1,0.1,0.2,0.1c0.1,0,0,0,0-0.1s0-0.1,0-0.1s0-0.1,0.1-0.1c0.1,0,0.1,0,0.1,0.1l0.1,0.1l0.1,0.1c0.1,0.1,0.1,0.1,0.1,0.1
	c0,0.1,0,0.1,0.1,0.1c0,0.1,0,0.1,0,0.1c0,0.1-0.1,0.1-0.1,0.1c-0.1,0.1-0.1,0.2,0,0.2c0.1,0.1,0.1,0.1,0.1,0.2
	c0,0.1,0.1,0.1,0.1,0.1c0,0.1,0,0.1,0,0.1c0,0.1-0.1,0.1-0.1,0.1v0.1c0,0,0.1,0,0.1,0.1s-0.1,0.1-0.1,0.1c0,0.1,0,0.1-0.1,0.1
	l-0.1,0.1c-0.1,0-0.1,0.1-0.1,0.1c-0.1,0.1-0.1,0.1-0.1,0.1c-0.1,0.1-0.1,0.1-0.1,0.2c0,0.1-0.1,0.2-0.2,0.2
	c-0.1-0.1-0.2-0.1-0.4-0.1s-0.1,0.1-0.1,0.1c0,0.1,0,0.1,0,0.1v0.1c0,0.1,0,0.1-0.1,0.1c-0.1,0-0.2,0-0.2,0.1c0,0.1,0.1,0.1,0.1,0.1
	c0.1,0.1,0.2,0.1,0.2,0.2l0.1,0.1c0.1,0.1,0.1,0.1,0.1,0.1c0.1,0.1,0.1,0.1,0.1,0.2c0,0.1,0,0.1-0.1,0.2c-0.1,0.1-0.2,0.1-0.4,0.1
	l0,0c-0.1,0-0.1,0-0.1-0.1c0,0,0-0.1,0-0.1c0-0.1-0.1-0.1-0.1-0.1c-0.1,0-0.1-0.1-0.1-0.1c0-0.1,0-0.1,0-0.1c0-0.1,0-0.1,0-0.1
	l-0.1-0.1l-0.1-0.1c-0.1,0-0.1,0-0.1-0.1s-0.1-0.1-0.1-0.2c0-0.1,0.1-0.1,0-0.1c-0.1,0-0.1-0.1-0.2-0.1c-0.1,0-0.2,0-0.3,0
	s-0.1,0-0.1,0.1c-0.1,0-0.1,0.1-0.1,0.1c-0.1,0-0.1,0-0.2,0l0,0c-0.1,0-0.1-0.1,0-0.1c0-0.1,0.1-0.1,0.1-0.1l0,0
	c0-0.1-0.1-0.2-0.1-0.2v-0.1h-0.1h-0.6h-0.2c0,0,0,0-0.1,0.1c0,0.1-0.1,0.1-0.1,0.1c-0.1,0.1-0.1,0.1-0.1,0.1c-0.1,0-0.1,0-0.2,0
	c0,0.1,0.1,0.1,0.1,0.1h0.1h0.1c0.1,0,0.1,0.1,0.1,0.1c0,0.1,0.1,0.1,0.1,0.1l0,0l0,0h0.1c0.1,0,0.1,0,0.1,0c0.1,0,0.1,0,0.1,0h0.2
	c0.1,0,0.1,0,0.2,0.1h0.1c0.1,0,0.1,0.1,0.1,0.1c0,0.1,0,0.1-0.1,0.1c-0.1,0-0.2,0-0.2,0c-0.1,0-0.2,0.1-0.2,0.2
	c0,0.1,0.1,0.1,0.2,0.2c0.1,0.1,0.2-0.1,0.2,0c0,0.1,0,0.1,0.1,0.2c0.1,0.1,0.2,0.2,0.2,0.3c0,0.1,0.1,0.1,0.1,0.1v0.1
	c0,0,0.1,0.1,0.2,0.1c0.1,0,0.1,0.1,0.1,0.1c0,0.1-0.1,0.1-0.1,0.2s0,0.1-0.1,0.1c0,0.1,0,0.1,0,0.1s0,0.1-0.1,0.1
	c-0.1,0-0.1,0-0.1,0h-0.1c-0.1,0.1-0.1,0.2-0.1,0.2c0,0.1-0.1,0.2-0.2,0.2h-0.1c0,0,0,0-0.1,0.1l-0.1,0.1c-0.1,0.1-0.1,0.1-0.2,0.1
	c-0.1,0.1-0.1,0.1-0.2,0.1l0,0c-0.1,0-0.2,0.1-0.2,0.1c-0.1,0-0.1,0.1-0.1,0.1c-0.1,0-0.1,0.1-0.1,0c-0.1,0-0.1,0-0.1,0h-0.1
	c-0.1,0-0.2,0-0.2,0h-0.1c-0.1,0-0.2,0-0.3,0.1l-0.1,0.1c0,0,0,0.1-0.1,0.1s-0.1-0.1-0.1-0.1c0-0.1,0-0.1-0.1-0.2
	c-0.1-0.1-0.1-0.1-0.2-0.1h-0.1h-0.1c-0.1,0-0.1,0-0.1,0l-0.1,0.1c0,0.1-0.1,0.1-0.1,0.1c-0.1,0.1-0.1,0.1-0.1,0.1l-0.1,0.1v0.1v0.1
	c0,0.1,0,0.1,0.1,0.1c0.1,0.1,0.1,0.1,0.1,0.2v0.1v0.1c0,0.1,0,0.1,0.1,0.1c0,0,0.1,0.1,0.1,0.1l0.1,0.1l0.1,0.1l0.1,0.1
	c0.1,0.1,0.2,0.1,0.2,0.2c0.1,0.1,0.1,0.2,0.1,0.2c0.1,0.1,0.1,0.2,0.1,0.3c0,0.1-0.2,0.2-0.2,0.3h0.1l-0.1,0.1c-0.1,0-0.1,0-0.1,0
	h-0.1c-0.1,0-0.2,0-0.3,0c-0.1,0-0.1,0.1-0.1,0.1c-0.1,0.1-0.1,0.1-0.2,0.1c-0.1,0.1-0.1,0.1-0.1,0.1c-0.1,0-0.1-0.1-0.1-0.1
	l-0.1-0.1c0-0.1,0-0.1-0.1-0.1c-0.1,0-0.1-0.1-0.1-0.1s-0.1-0.1-0.2-0.1s0-0.1-0.1-0.1c-0.1-0.1-0.1-0.1-0.2-0.2h-0.1
	c-0.1,0-0.1,0-0.1-0.1c0-0.1-0.1-0.1-0.1-0.1c-0.1-0.1-0.2,0-0.2,0.1c0,0.1,0,0.2,0,0.2s-0.1,0.1-0.1,0.2c0,0,0,0.1-0.1,0.1l0,0
	c0,0,0,0.1,0.1,0.2l0,0c0.1,0.1,0.1,0.1,0.1,0.1c0,0.1,0.1,0.1,0.1,0.2c0,0.1,0.1,0.1,0.2,0.2c0.1,0.1,0.1,0.1,0.1,0.1
	c0.1,0,0.1,0.1,0.1,0.1c0.1,0,0.1,0.1,0.1,0.1c0,0,0.1,0.1,0.1,0.1c0,0.1,0.1,0.1,0.1,0.1v0.1c0,0.1,0,0.1,0,0.2s-0.1,0.1,0,0.2
	c0.1,0.1,0.1,0.1,0.1,0.1c0,0,0.1,0.1,0.1,0.1v0.1l0,0c0,0.1,0,0.1,0,0.1c-0.1,0-0.1-0.1-0.1-0.1l0,0c-0.1,0-0.2-0.1-0.2-0.1
	c-0.1,0-0.1-0.1-0.1-0.1c-0.1,0-0.1-0.1-0.1-0.1l-0.1,0.1c0,0-0.1-0.1-0.1-0.1l-0.1-0.1c-0.1-0.1-0.1-0.1-0.1-0.1
	c0-0.1-0.1-0.1-0.1-0.1l-0.1-0.1c0-0.1,0-0.1,0-0.1s0-0.1,0-0.1c0-0.1-0.1-0.2-0.1-0.2l-0.1-0.1l-0.1-0.1h-0.1l0,0
	c0,0-0.1-0.1-0.1-0.1c0,0,0-0.1-0.1-0.1v-0.1c0,0,0-0.1-0.1-0.1c0-0.1,0-0.1,0-0.1s0-0.1,0-0.1c0-0.1,0-0.1,0-0.1c0,0,0-0.1,0.1-0.1
	v-0.1v-0.1c0-0.1,0-0.1,0-0.2L13.9,17v-0.1l0-0.1v-0.1c0-0.1,0-0.1-0.1-0.1c0-0.1-0.1-0.1-0.1-0.1c0-0.1-0.1-0.2-0.1-0.2
	c-0.1,0-0.1,0-0.1,0c-0.1,0-0.1,0-0.1,0.1c-0.1,0-0.1,0.1-0.2,0.1c-0.1,0-0.1,0-0.1-0.1c-0.1-0.1-0.1-0.2-0.1-0.2S13.1,16.1,13,16
	c-0.1-0.1-0.1-0.1-0.1-0.2c0-0.1,0-0.1,0-0.1l-0.1-0.1h-0.1c-0.1,0-0.1-0.1-0.1-0.1c-0.1-0.1-0.1-0.1-0.1-0.1c0-0.1-0.1-0.1-0.1-0.1
	c0-0.1,0-0.1,0-0.1c-0.1-0.1-0.2-0.1-0.3-0.1c-0.1,0-0.1,0.1-0.1,0.1c-0.1,0-0.1,0.1-0.2,0.1c-0.1,0-0.2,0-0.4,0h-0.1
	c0,0-0.1,0-0.1,0c-0.1,0,0,0.1,0,0.1c0,0.1,0,0.1-0.1,0.1c-0.1,0.1-0.1,0.1-0.2,0.1c-0.1,0-0.1,0-0.2,0.1v0.1c0,0,0,0.1-0.1,0.1
	l0.1,0.1c-0.1,0.1-0.2,0.1-0.2,0.2c-0.1,0-0.1,0.1-0.2,0.1l0,0l0,0c0,0.1-0.1,0.1-0.1,0.1c-0.1,0.1-0.1,0.1-0.1,0.1
	c-0.1,0-0.2,0-0.2,0c-0.1,0-0.1,0.1-0.1,0.1v0.1c0,0,0,0,0,0.1l0,0v0.1v0.1c0,0-0.1,0.1,0,0.1c-0.1,0.2-0.1,0.4-0.1,0.6
	s0,0.2-0.2,0.4c-0.1,0-0.1,0.1-0.1,0.1c-0.1,0.1,0,0.2-0.2,0.2C9,18,9.1,17.9,9.1,17.8L9,17.7c-0.1,0-0.2-0.1-0.2-0.1
	c-0.2-0.2-0.4-0.5-0.5-0.7c-0.1-0.1-0.1-0.2-0.2-0.4C8,16.3,8,16.1,7.9,15.9c-0.1-0.2-0.1-0.6-0.4-0.6c-0.2,0-0.5,0-0.6-0.1l0,0
	c-0.1-0.1-0.1-0.1-0.1-0.2c0-0.1,0-0.2-0.1-0.2c-0.2-0.2-0.4-0.4-0.6-0.4c-0.3-0.1-0.6-0.1-0.9,0c-0.2,0.1-0.5,0.1-0.7,0
	c-0.2-0.1-0.3-0.1-0.4-0.2c-0.1,0-0.2,0-0.3,0S3.4,14,3.3,14c-0.1-0.1-0.3-0.1-0.4-0.1H2.5H2.3l0,0H2.2c-0.1,0-0.2-0.1-0.2-0.1H1.9
	H1.8v0.1V14l0.1,0.1L2,14.2l0,0c0.1,0,0.1,0.1,0.2,0.2l0.1,0.1c0.2,0.2,0.6-0.1,0.9-0.2c0.1-0.1,0.1-0.1,0.2,0
	c0.1,0,0.1,0.1,0.1,0.1c0.1,0.1,0.3,0.2,0.5,0.3c0.1,0.1,0.3,0.1,0.3,0.2s-0.1,0.3-0.2,0.4c-0.1,0.1-0.2,0.1-0.2,0.2
	c-0.1,0.1-0.1,0.1-0.1,0.2c-0.1,0.1-0.1,0.1-0.1,0.2c0,0.1-0.1,0.2-0.3,0.2c-0.1,0-0.2,0.1-0.4,0.2c-0.1,0.1-0.1,0.2-0.2,0.2
	c-0.1,0.1-0.1,0.2-0.3,0.3c-0.2,0-0.3,0-0.5,0.1l-0.1,0.1l-0.1-0.1c-0.2,0.2-0.4,0.2-0.7,0.4H0.9l0,0c-0.1,0-0.1,0-0.2,0
	c-0.1,0-0.1-0.2-0.1-0.2s-0.1-0.1-0.1-0.2l0,0c0,0.1,0,0.1,0,0.2v0.2c0,0.1,0.1,0.2,0.1,0.4v0.1v0.1c0.1,0.1,0.1,0,0.2,0
	c0.2,0,0.4-0.1,0.5-0.1c0.1-0.1,0.2-0.1,0.4-0.2l0.1-0.1l0,0c0.1-0.1,0.2-0.1,0.4-0.1l0.1-0.1c0.1-0.1,0.2,0.1,0.2,0.1
	c0,0.1,0,0.1-0.1,0.2l0,0c0,0.1-0.1,0.2-0.1,0.3c-0.1,0.1-0.1,0.2-0.2,0.4c-0.1,0.1,0.1,0.3,0,0.4c-0.1,0.2-0.4,0.4-0.4,0.6
	c-0.1,0.2-0.2,0.3-0.4,0.4l0,0l-0.2,0.1l0,0L1.1,20l0.1,0.1l0,0l0.1,0.2l0.1,0.1l0,0.2l0.1,0.1l0.1,0.2l0.1,0.2l0.1,0.1l0,0l0.1,0.1
	l0.1,0.2c0.1,0.2,0.2,0.4,0.3,0.6l0.1,0.1l0.1,0.2l0,0h0.1l0,0c0,0,0-0.1,0.1-0.1c0.1,0,0,0,0,0l0,0c0.1,0.1,0.1,0.1,0.1,0.1h0.1
	c0.1,0,0,0.1,0.1,0.1l0,0c0.1,0.1,0,0.1,0.1,0.1V23c-0.1,0.1-0.1,0.1-0.1,0.1l0,0l0,0v0.1l0.1,0.1l0.1,0.2l0.1,0.1L3,23.6l0.1,0.1
	l0.1,0.1l0.1,0.2l0.1,0.1l0,0l0.2,0.3l0.1,0.1L4,24.7l0.3,0.3l0.1,0.1l0.1,0.1l0.1,0.1l0.2,0.2l0.1,0.1L5,25.8l0.2,0.2l0,0l0.1,0.1
	h0.1l0.1,0.1l0.1,0.1l0.1,0.1l0.1,0.1L6,26.5H6l0.1,0.1l0.1,0.1l0.1,0.1h0.1l0.1,0.1l0,0h0.1l0.1,0.1L6.6,27h0.1L6.8,27l0.1,0.1
	l0.1,0.1L7,27.2l0,0l0.1,0.1h0.1l0.2,0.1l0,0l0.2,0.1l0.1-0.1l0,0h0.1h0.1l0.1,0.1h0.1L8,27.6L8,27.7l0.2,0.1l0,0h0.1l0.2,0.1h0.1
	l0.1,0.1l0.1,0.1L8.8,28h0.1H9H9h0.1L9.3,28l0,0l0.1,0.1h0.1h0h0.1l0.1,0.1l0.1,0.1l0.3,0.1h0.1h0.1l0.1,0.1h0.1h0.1l0.1,0.1h0.1
	h0.1l0.2,0.1l0.2,0.1h0.1l0.2,0.1h0.1l0.2,0.1l0,0H12h0.2h0.1h0.1h0.1l0,0h0.2h0.1h0.1h0.6h0.2h0.6c0.7,0,1.5-0.1,2.2-0.2l0.3-0.1
	h0.1l0.2-0.1h0.1h0.1l0.2-0.1l0.3-0.1l0.2-0.1l0.2-0.1l0.2-0.1l0.2-0.1l0.2-0.1l0.4-0.1l0.1-0.1l0.4-0.2l0,0c0-0.1-0.1-0.3-0.1-0.4
	c0,0-0.1,0-0.1-0.1V27h-0.1h-0.1c0,0,0,0,0-0.1c0,0,0,0,0-0.1v-0.1c-0.1-0.1-0.2-0.1-0.4-0.1h-0.1h-0.1l0,0h-0.1h-0.1l0,0
	c0,0-0.1,0-0.1,0h-0.2c-0.1,0-0.2-0.1-0.3,0H18l0,0h-0.1l0,0h-0.1h-0.1h-0.1h-0.1h-0.1c0,0,0,0.1-0.1,0.1s0,0.1-0.1,0.1h-0.1l0,0
	h-0.1h-0.1l0,0c-0.1,0-0.1,0-0.2,0c-0.1-0.1-0.3-0.1-0.4,0h-0.1h-0.1l0,0c0,0.1-0.1,0.1-0.1,0.1h-0.1h-0.1l0,0l0,0l0,0l0,0h-0.1
	h-0.1h0.2h-0.2h-0.1L15.9,28l0,0L15.9,28l0,0l0,0l0,0l0,0l0,0c-0.1-0.1-0.1-0.1,0-0.2l0,0c0-0.1,0.1,0,0.1-0.1l0,0
	c0,0,0-0.1,0.1-0.1c0,0,0,0,0-0.1l0,0l0,0v-0.1c0,0,0-0.1,0.1-0.1c0-0.1,0-0.1,0-0.2l0,0c0,0,0-0.1,0-0.1l0,0v-0.1l0,0
	c0,0,0,0,0-0.1c0-0.1,0-0.1,0-0.1s0.1-0.1,0.1-0.1l0,0c-0.1-0.1,0-0.1-0.1-0.2l0,0c0-0.1,0-0.1,0-0.1l0,0c0,0,0-0.1,0-0.1l0,0l0,0
	l0,0l0,0l0,0l0,0v-0.1l0,0v-0.1c0,0,0,0,0.1,0c0,0,0,0.1,0.1,0.1l0,0h0.1c0,0,0,0.1,0.1,0.1v0.1l0,0v-0.1v-0.1v-0.1v-0.1
	c0,0,0-0.1,0.1-0.1l0,0h-0.1l0,0h0.1h0.1V26c0,0,0-0.1,0-0.1l0,0h0.1l0,0c0,0,0-0.1,0.1-0.1s0-0.1,0.1-0.1l0,0
	c0.1,0,0.1,0.1,0.1,0.1l0,0l0,0l0,0h0.1h0.1h0.1H17h0.1H17l0,0l0,0l0,0h0.1c0.1-0.1,0.2,0.1,0.3,0h0.1c0,0,0.1,0,0.1,0h0.1l0,0h0.1
	c0,0,0.1,0,0.1,0h0.1c0.1,0,0.1,0,0.1,0l0,0h0.1l0,0h0.1h0.1h0.1h0c0,0,0-0.1,0.1-0.1l0.1-0.1l0,0c0.1,0,0.1-0.1,0.1-0.1
	s0-0.1,0-0.1l0,0l0,0h0.1l0,0h0.1l0,0l0.1-0.1c0.1,0,0.1,0.1,0.1,0.1c0,0,0,0,0,0.1l0,0c0,0,0,0,0-0.1c0,0,0,0,0-0.1v-0.1l0,0l0,0
	c0.1-0.1,0.1,0.1,0.2,0c0.1-0.1,0,0,0,0l0,0l0,0v-0.1l0,0l0,0c0-0.1,0.1-0.1,0.1-0.1l0,0c0.1,0,0.1-0.1,0.2-0.1h0.1h0.1l0,0l0,0l0,0
	v-0.1l0,0h0.2c0.1,0,0.1,0,0.1,0.1c0,0,0.1,0,0.1,0.1c0,0,0,0.1,0.1,0.1l0,0c0,0,0.1,0.1,0.1,0.1s0,0,0,0l0,0c0,0,0.1,0,0.1,0
	c0.1,0,0.1,0,0.2,0l0,0v-0.1l0,0l0,0l0,0c0,0,0-0.1,0.1-0.1c0,0,0.1,0,0.1-0.1l0,0l0.1-0.1c0,0,0.1,0,0.1-0.1h0.1h0.1l0,0h0.1l0,0
	c0.1-0.1,0.2,0.1,0.3,0c0-0.1-0.1-0.1-0.1-0.1s0.1,0,0.1,0s0.1,0.1,0.1,0.1l0,0c0.1,0.1,0.1,0,0.1,0.1c0,0.1,0.1,0,0.1,0.1h0.1l0,0
	c0,0,0,0,0.1,0.1h0.1h0.1l0,0c0.1,0,0.1,0.1,0.1,0.1c0.1,0.1,0,0,0,0v-0.1c0,0,0.1,0.1,0.2,0.1c0.1,0,0,0.1,0,0.1h-0.1l0,0h-0.1
	c-0.1,0,0,0.1-0.1,0.1c-0.1,0-0.1,0.1-0.2,0.1l0,0c0,0,0,0.1-0.1,0.1h-0.1l0,0h-0.1l0,0c-0.1,0.1,0,0.1,0,0.1v-0.1l0,0l0,0
	c0.1,0.1,0.1,0.1,0.2,0.1v0.1c0,0,0.1,0,0.1,0.1l0,0v0.1V26l0,0c0,0,0.1,0,0.1,0.1l0,0c0,0,0.1,0,0.1,0.1c0,0.1,0.1,0.1,0.1,0.1
	s0.1,0,0.1,0.1c0.1,0,0.1,0,0.1,0h0.1l0,0c0,0,0-0.1,0.1-0.1c0.1,0,0-0.1,0.1-0.1l0,0h0.1l0.5-1.2l0,0c0,0,0-0.1,0.1-0.1
	c0.1,0,0-0.1,0.1-0.1l0,0c0,0,0-0.1,0.1-0.1c0.1,0,0-0.1,0.1-0.1c0.1,0,0-0.1,0.1-0.1c0.1,0,0-0.1,0.1-0.2h0.1l0,0v-0.1l0,0h0.1l0,0
	l0,0v-0.1l0,0l0,0h0.1l0,0c0,0,0-0.1,0.1-0.1c0.1,0,0-0.1,0.1-0.1l0,0c0.1-0.1,0.1-0.1,0.1,0c0,0.1-0.1,0.1,0,0.2l0,0l0,0l0,0l0,0
	l0,0v-0.1l0,0c0,0.1,0,0.1-0.1,0.2v0.1c0.1,0-0.1,0.1,0.1,0.1l0,0h0.1c0,0,0.1,0,0.1,0.1l0,0l0.1,0.1v0.1l0,0V25l0,0l0,0l0,0v0.1
	v0.1v0.1l0,0c0,0,0,0,0,0.1l0,0l0,0l0,0l0,0c0,0,0,0.1,0,0.1l0,0c-0.1,0.1,0.1,0.1-0.1,0.2s0,0,0,0.1l0.1-0.1l0.1-0.1l0.1-0.1
	c0.2-0.2,0.4-0.4,0.6-0.7l0.3-0.4l0.1-0.1l0.1-0.2h-0.1l0,0c-0.1-0.1-0.1,0-0.2-0.1l0,0c0,0,0,0-0.1,0l0,0c0,0-0.1,0-0.1-0.1
	c0,0,0,0,0-0.1l0,0c0,0,0,0,0-0.1c0,0,0,0,0-0.1c0,0,0,0,0-0.1l0,0v-0.1l0,0c-0.1,0,0-0.1,0-0.1l0,0v-0.1v-0.1l0,0
	c0,0-0.1,0-0.1-0.1c-0.1-0.1-0.1,0-0.1-0.1s-0.1,0-0.1,0h-0.1c0,0,0,0.1-0.1,0.1l0,0c-0.1,0,0,0.1-0.1,0.1l0,0c0,0,0,0-0.1,0l0,0H24
	h-0.1l0,0c0,0-0.1,0-0.1-0.1h0c-0.1,0-0.2,0-0.2-0.1l0,0l0,0v-0.1l0,0v-0.1c0,0,0,0,0-0.1l0,0l0,0c0-0.1-0.1-0.1-0.1-0.1h-0.1
	c0,0,0,0-0.1,0c-0.1,0.1-0.2,0-0.3-0.1l0,0c0,0,0-0.1,0.1-0.1l0,0c0,0,0-0.1,0.1-0.1l0,0h0.1h0c0.1,0,0.1-0.1,0.1-0.1l0,0l0,0l0,0
	l0,0c0,0,0,0,0-0.1l0,0c-0.1,0,0-0.1,0-0.1c0-0.1,0-0.1-0.1-0.2c-0.1,0.1-0.2,0.2-0.3,0.1c-0.1-0.1-0.2-0.2-0.1-0.3l0,0
	c-0.1-0.1-0.1-0.1-0.1-0.1l0,0L22.6,22l0,0h-0.1h-0.1c-0.1-0.1-0.1,0-0.1-0.1l0,0c-0.1,0-0.1-0.1-0.1-0.1s-0.1,0-0.1-0.1l0,0
	L22,21.9V22l0,0l0,0c0,0.1-0.1,0.1-0.1,0l0,0c-0.1-0.1,0-0.1-0.1-0.2v-0.1h-0.1c-0.1,0,0-0.1,0-0.1c0.1,0,0.2,0,0.3,0
	c0,0-0.1,0-0.1-0.1 M21.9,21.7c-0.1,0-0.1-0.1-0.1-0.1s0-0.1-0.1-0.1c-0.1-0.1-0.2-0.1-0.2-0.1c0-0.1-0.1-0.1,0-0.1l0,0
	c0.1,0,0.1,0,0.1,0.1c0.1,0.1,0.1,0,0.1,0l0,0c0.1,0,0.2,0,0.2-0.1l0,0 M21.9,21.2L21.9,21.2h0.1c0,0,0,0,0,0.1
	c0.1,0.1,0.1,0,0.2,0.1c0.1,0.1,0,0.1,0,0.1l0,0v0.1l0,0c0,0.1,0,0.1,0,0.1l0,0c0,0,0,0.1,0.1,0.1c0.1,0,0,0,0,0.1
	c0,0.1,0,0.1,0.1,0.1c0.1,0.1,0.1,0.1,0.1,0h0.1c0,0,0,0,0.1,0l0,0c0,0,0,0,0.1,0l0.1-0.1l0,0c0,0,0-0.1,0.1-0.1h0.1
	c0.1,0,0.1-0.1,0.1-0.1l0,0h0.1l0,0h0.1h0.1l0,0l0,0l0.1,0.1l0,0c0,0,0.1,0,0.1,0.1l0.1,0.1l0,0c0,0,0.1,0,0.1,0.1l0,0
	c0,0,0.1,0,0.1,0.1l0,0c0,0,0.1,0,0.1,0.1h0.1c0.1,0,0.1,0.1,0.2,0.1l0,0h0.1l0,0c0,0,0.1,0,0.1,0.1c0,0.1,0.1,0,0.1,0.1l0,0
	c0,0,0.1,0,0.1,0.1s0.1,0,0.1,0.1l0,0c0,0,0.1,0,0.1,0.1l0,0c0.1,0,0.1,0.1,0.1,0.1c0,0,0,0,0,0.1c0.1,0.1,0.1,0.1,0.2,0.1l0.1,0.1
	c0,0,0.1,0,0.1,0.1l0,0c0,0,0.1,0.1,0.1,0.1v0.1v0.1l0,0c0,0,0.1,0,0.1,0.1l0,0c0,0,0,0,0.1,0.1c0,0,0.1,0,0.1,0.1
	c0,0.1,0.1,0,0.1,0.1v-0.3v0.1v0.1c-0.1,0.1-0.1,0-0.1,0l0,0c-0.1,0-0.1,0-0.1,0.1c0,0.1,0,0.1,0.1,0.1c0,0.1,0.1,0.1,0.1,0.1
	c0,0,0,0,0,0.1l0,0c0,0.1,0,0.1,0,0.2c0.1,0,0.1,0,0.1,0l0,0c0.1,0.1,0,0.1,0,0.1l0,0l0.1,0.1l0.1-0.2l0.1-0.1l0.1-0.1
	c0.2-0.2,0.3-0.4,0.4-0.7l0.2-0.4l0.1-0.2l0.1-0.2l0.1-0.1l0.1-0.2l0.1-0.1l0.1-0.2l0.1-0.1l0.1-0.1l0.1-0.1l0.1-0.1l0.1-0.1
	l0.1-0.2l0.1-0.2l0.1-0.1l0.1-0.1c0.1-0.4,0.2-0.7,0.3-1.1l0.1-0.2c0-0.1,0-0.1,0-0.1s0-0.1,0-0.1s0-0.1,0.1-0.2v-0.1l0.1-0.2v-0.1
	c0-0.1,0-0.1,0.1-0.2v-0.1c0-0.1,0-0.2,0.1-0.2c0.1-0.1,0-0.1,0-0.1s0-0.1,0-0.2c0-0.1,0-0.1,0-0.1s0-0.1,0-0.2c0-0.1,0,0,0-0.1
	s0-0.1,0-0.2c0-0.1,0-0.1,0-0.1c0-0.1,0-0.2,0-0.3c0-0.1,0-0.2,0-0.3c0-0.1,0-0.2,0-0.3c0.2-0.3,0.4-0.7,0.3-1.1L21.9,21.2z
	 M18.5,12.2L18.5,12.2z M1.6,17.6L1.6,17.6z M20.6,19.5c0,0,0-0.1,0-0.1l0,0l0,0h-0.1l0,0L20.6,19.5C20.6,19.4,20.6,19.5,20.6,19.5
	L20.6,19.5L20.6,19.5c-0.1,0.1-0.1,0.1-0.1,0.1h-0.1c0-0.1-0.1-0.1-0.1-0.1s-0.1,0-0.1-0.1l0,0l-0.1-0.1v-0.1l0,0c0-0.1,0-0.1,0-0.1
	v-0.1v-0.1l0,0l-0.1,0h-0.2c-0.1,0-0.1,0-0.2,0l0,0c0,0,0,0-0.1,0.1c-0.1,0.1,0,0,0,0l0,0l0,0h-0.1l0,0v-0.1v-0.1l0,0V19l0,0h0.1
	l0,0c0.1,0,0.1-0.1,0.1-0.1l0,0c0,0,0.1-0.1,0.1,0c0.2,0.1,0.3,0,0.4-0.1l0,0c0-0.1,0.1-0.1,0-0.2h0.1l0,0v0.1c0,0,0,0.1,0,0.1l0,0
	c0,0,0.1,0,0.1,0.1l0.1,0.1l0,0c0,0,0,0.1,0,0.1c0,0.1,0,0.1,0,0.1v0.1c0,0,0,0,0,0.1v0.1v0.1l-0.1,0.1l0,0l0,0h-0.1
	C20.7,19.4,20.7,19.4,20.6,19.5L20.6,19.5z M20.1,20.6L20.1,20.6c0.1,0,0.1-0.1,0.1-0.1l0,0c0.1,0,0.1,0,0.1,0v0.1l0,0
	c0,0,0,0.1-0.1,0.1l0,0c-0.1,0-0.1,0.1-0.1,0.1s0,0.1-0.1,0.1l0,0c-0.1,0-0.1,0-0.1,0l0,0h-0.1l0,0h-0.1l0,0
	c-0.1-0.1-0.1-0.1-0.2-0.1h-0.1h-0.1h-0.1h-0.1l0,0h-0.1l0,0c0,0,0,0.1-0.1,0.1c-0.1,0,0,0.1-0.1,0.1l0,0v0.1l0,0l0,0
	c0,0,0.1,0,0.1,0.1l0,0c0.1,0,0,0.1,0,0.1l0,0c0,0,0,0,0.1,0c0,0,0-0.1,0.1-0.1c0,0,0,0,0.1,0c0.1,0,0.1,0,0.1,0h0.1l0,0
	c0.1,0,0.2,0,0.3,0V21l0,0v0.1l0,0c0,0.1,0,0.1-0.1,0.1l-0.1-0.1l0,0l0,0l0,0h-0.1l0,0h-0.1l0,0h-0.1l0,0c0,0,0,0-0.1,0
	c-0.1,0.1,0,0.1,0,0.1l0,0v0.1l0,0c0,0,0,0,0,0.1l0,0l0,0c0,0.1-0.1,0.1,0,0.2c0.1,0.1,0,0,0,0s0,0,0.1,0c0,0,0,0,0.1,0
	c0,0,0.1,0,0.1,0.1l0,0c0,0,0,0,0,0.1v0.1c0,0,0,0-0.1,0l0,0l0,0l0,0c0,0.1,0,0.1-0.1,0.1c-0.1,0,0,0,0,0s-0.1,0-0.1,0
	c-0.1,0-0.1-0.1-0.1-0.2c-0.1,0-0.2,0-0.2-0.1v-0.1v-0.1v0.1v-0.1c0-0.1,0-0.1,0-0.1c0,0,0.1-0.1,0-0.1H19c-0.1,0-0.1,0-0.1,0.1
	c0,0.1,0,0.1,0,0.1v0.1c0,0,0,0.2-0.1,0.2c-0.1,0.1,0,0,0,0s0,0,0,0.1l0,0c0.1,0.1-0.1,0.1-0.1,0.1c0,0-0.1,0-0.1,0v-0.1l0,0
	c0,0,0-0.1,0.1-0.1l0,0c0,0,0-0.1,0.1-0.1c0,0,0-0.1,0-0.1c-0.1,0,0.1-0.1-0.1-0.1h-0.1c-0.1-0.1,0-0.1,0-0.2l0,0c0,0,0,0,0.1,0h0.1
	c0,0,0-0.1,0.1-0.1l0,0c0.1-0.1,0-0.1,0.1-0.2l0,0c0,0,0-0.1,0.1-0.1l0,0l0,0l0,0c0.1-0.1,0-0.2,0.1-0.2s0-0.1,0.1-0.1
	c0.1,0,0.1-0.1,0.1,0l0,0c0,0,0,0,0.1,0h0.1l0,0c0,0,0,0,0.1,0h0.1c0,0,0.1,0,0.1,0.1c0,0.1,0.1,0,0.1,0.1h0.1
	c0.1,0.1,0.2,0,0.2,0.1l0,0L20.1,20.6L20.1,20.6L20.1,20.6z M18.6,22.4L18.6,22.4h-0.1c-0.1,0-0.1,0-0.1,0h-0.1h-0.1h-0.1l0,0l0,0
	c0-0.1-0.1,0-0.2,0v-0.1v-0.1c0.1,0,0.1,0,0.1,0c0,0,0.1,0,0.1,0.1H18l0,0c0,0,0,0,0.1,0v-0.1h0.1c0.1,0,0,0,0.1,0
	c0.1,0,0.1,0.1,0.1,0.1L18.6,22.4L18.6,22.4L18.6,22.4z M17.8,19.4L17.8,19.4c0.2-0.1,0.3-0.1,0.4-0.2c0,0,0-0.1,0.1-0.1l0,0
	c0,0,0-0.1,0.1-0.1c0.1,0,0,0,0.1,0s0-0.1,0.1-0.1c0.1,0,0,0,0,0l0,0c0,0,0.1,0,0.1,0l0,0c0.1,0,0.1,0.1,0.1,0.1l0,0
	c0.1,0.1,0.1,0.1,0.1,0.2c0.1,0.1,0.1,0,0.1,0.1c0,0,0,0,0.1,0h-0.1h0.1c0,0.1,0,0.1-0.1,0.1c0,0-0.1,0-0.1,0.1s0,0.1-0.1,0.1
	c-0.1,0,0,0,0,0l0,0c-0.1,0.1-0.1,0.1-0.1,0.2l0,0V20l0,0v0.1v0.1l0,0c-0.1,0.1,0.1,0.1,0.1,0.1c0,0,0,0,0.1,0l0,0h0.1v0.1l0,0
	c0,0,0.1,0.1,0,0.1s-0.2,0-0.2,0s0,0.1-0.1,0.1c-0.1,0,0,0.1-0.1,0.2c-0.1,0.1,0,0.1-0.1,0.1c-0.1,0-0.1,0-0.1,0l0,0
	c0,0,0,0.1-0.1,0.1l0,0h-0.1c-0.1,0.1,0,0.2-0.1,0.2c0,0,0,0-0.1,0l0,0c-0.1,0.1,0,0.1,0,0.1s0,0.1-0.1,0.1c-0.1,0-0.1,0-0.1,0l0,0
	c0-0.1-0.1,0-0.1,0l0,0h-0.1h-0.1c0,0-0.1,0-0.1-0.1s0-0.1,0-0.1v-0.1l0,0h-0.1h-0.1c-0.1,0-0.1,0-0.1,0c0,0-0.1,0-0.1-0.1h-0.1
	h-0.1c-0.1,0-0.1,0-0.2,0s0-0.1-0.1-0.1h-0.1h-0.1l0,0c-0.1,0-0.1,0-0.1-0.1c0-0.1,0-0.1,0-0.2c0-0.1,0,0,0-0.1l0,0c0,0,0,0,0.1-0.1
	l0,0c0,0-0.1,0.1-0.2,0.1c-0.1,0-0.1,0-0.1,0s0,0,0-0.1c0,0,0,0-0.1-0.1l0,0 M16.4,20.4L16.4,20.4L16.4,20.4L16.4,20.4L16.4,20.4
	L16.4,20.4c0-0.1,0.1-0.1,0-0.1l0,0v-0.1l0,0v-0.1v-0.1c0-0.1,0.1-0.1,0.1-0.1l0,0l0.1-0.1l0,0c0.1,0,0.1,0.1,0.1,0.1l0,0l0,0
	c0,0,0.1-0.1,0.1,0l0,0c0,0,0,0,0.1,0h0.1c0.1,0,0-0.1,0.1-0.1s0-0.1,0-0.1s0.1-0.1,0.1-0.1h0.1c0.1,0,0.1,0,0.1,0l0,0h0.1l0,0h0.1
	l0,0c0,0,0-0.1,0.1-0.1c0.1-0.1,0.1-0.1,0.1-0.1c0,0,0-0.1,0.1-0.1L16.4,20.4z M20.6,18.4C20.6,18.5,20.6,18.5,20.6,18.4
	c-0.1,0.1-0.2,0.1-0.1,0.1l0,0v0.1l-0.1,0.1c-0.1-0.1-0.1-0.2-0.1-0.4c0.1,0,0,0.1,0.1,0.1c0.1,0,0-0.1,0-0.1s-0.1-0.1-0.1-0.1
	c0.1,0,0.2,0,0.2,0l0,0C20.6,18.2,20.6,18.2,20.6,18.4C20.6,18.3,20.6,18.4,20.6,18.4L20.6,18.4z M19.8,18.6
	c0.1-0.1,0.1-0.1,0.1-0.1c-0.1,0-0.1,0-0.1-0.1h-0.1h-0.1c-0.1-0.1-0.1-0.1,0-0.1v-0.1v0v-0.1l0,0h0.1l0,0c0,0,0.1,0,0.1,0.1
	c0.1,0.1,0.1,0,0.1,0.1s0,0.1,0,0.1h0.2l0,0l0,0l0,0l0,0v-0.1c0.1,0.1,0,0.2-0.1,0.2c-0.1,0.1-0.1,0.1-0.1,0.2
	c-0.1,0.1-0.1,0.1-0.1,0.1l0,0C19.9,18.7,19.9,18.6,19.8,18.6L19.8,18.6C19.8,18.6,19.8,18.6,19.8,18.6L19.8,18.6L19.8,18.6z
	 M18.6,18.6C18.6,18.6,18.6,18.6,18.6,18.6c0.1-0.1,0.1-0.1,0.1-0.1l0,0h0.1l0,0c0,0,0-0.1,0.1-0.1l0,0h0.1c0,0,0-0.1,0.1-0.1H19
	l0.1-0.1l0,0l0,0l0,0v-0.1l0,0l0,0l0,0l0,0l0,0l0,0h0.1l0,0l0,0v0.1l0,0l0,0l0,0l0,0c0,0.1,0,0.1-0.1,0.1l0,0H19l0,0
	c-0.1,0-0.1,0-0.1,0.1s0,0.1-0.1,0.1h-0.1c-0.1,0-0.1,0-0.1,0.1H18.6L18.6,18.6L18.6,18.6L18.6,18.6h-0.1v-0.1l0,0L18.6,18.6
	L18.6,18.6z M17.5,19.6L17.5,19.6z M15.8,21.5C15.8,21.5,15.8,21.6,15.8,21.5l0.2,0.1c0.1,0,0.1,0,0.1,0.1c0,0,0,0.1,0.1,0.1
	c0.1,0,0.1,0,0.1,0s0.2,0,0.2,0.1c0.1,0,0.1,0,0.1-0.1c0-0.1,0,0,0.1,0c0.1,0,0,0,0,0.1c0,0.1,0.1,0.1,0.1,0.1h0.1l0,0
	c0.1,0,0.1,0.1,0.1,0.1c0.1,0,0.2,0,0.3,0c0,0,0.1,0,0.1,0.1c0,0.1,0,0.1-0.1,0.1s0,0.1-0.1,0.1c-0.1,0-0.1-0.1-0.1,0
	s0.1,0.1,0.1,0.1c0.1,0,0.1,0,0.2,0.1c0,0,0,0.1,0.1,0.1c0,0,0.1,0.1,0.1,0.1c0.1,0,0.1,0.1,0.1,0.1v0.1h-0.1h-0.1h-0.1
	c-0.1,0-0.1,0-0.1,0c-0.1,0-0.1,0-0.1-0.1l-0.1-0.1h-0.1c-0.1,0-0.1,0-0.1-0.1L17,22.2h-0.1c-0.1,0-0.1,0-0.1,0
	c-0.1,0-0.1,0-0.1-0.1l-0.1-0.1l-0.3-0.1h-0.1c-0.1,0-0.1,0-0.1,0c-0.1,0-0.1,0-0.1,0s-0.1-0.1-0.2-0.1c-0.1,0-0.1,0-0.2-0.1
	c-0.1,0-0.1-0.1-0.1-0.1s-0.1-0.1-0.2-0.1s-0.1,0-0.1-0.1c0-0.1,0-0.1,0.1-0.1h0.1c0,0,0,0,0-0.1c0-0.1,0.1,0,0.1,0s0,0,0-0.1
	c0,0,0,0,0.1,0l0,0l0,0c0,0,0,0,0.1,0h0.1C15.7,21.5,15.8,21.4,15.8,21.5L15.8,21.5z M25.4,8.6L25.4,8.6z M20.9,13.7L20.9,13.7
	L20.9,13.7L20.9,13.7H21v-0.1l0,0l0,0l0,0l0,0c0.1,0,0.1,0,0.1-0.1h0.1h0.1l0,0c0.1,0,0-0.1,0.1-0.1c0.1,0,0.1,0,0.2,0
	c0.1,0,0.1,0,0.2,0c0.1,0,0.1,0,0.2,0l0,0c0.1,0,0.1,0.1,0.1,0l0,0c0,0-0.1-0.1,0-0.1l0,0h0.1l0,0l0,0l0,0v-0.1l0,0
	c0-0.1,0-0.1,0.1-0.1l0,0h0.1v0.1v0.1c0.1,0,0.1,0,0.2,0h0.1l0,0v-0.1h0.1c0,0,0-0.1,0-0.1l0,0v-0.1l0,0c-0.1-0.1,0-0.1,0-0.1
	c0-0.1-0.1-0.1-0.1-0.2l-0.1-0.1l0,0c0,0-0.1-0.1,0-0.1l0,0l0,0l0,0l0,0l0,0l0,0c0,0,0-0.1,0.1-0.1h-0.1h-0.1c-0.1,0-0.1,0-0.1-0.1
	l0,0c0-0.1-0.1-0.1-0.1-0.1l0,0l0,0c-0.1-0.1-0.1-0.1,0-0.1c0.1-0.1,0-0.1,0.1-0.1h0.1c0.1-0.1,0.1-0.1,0.1-0.2l0,0v-0.1l-0.1-0.1
	L22.1,12c-0.1,0-0.1-0.1-0.1-0.1c0.1,0,0.1,0,0.2,0.1l0.1,0.1l0.1,0.1c0.1,0.1,0.2,0.1,0.4,0.2c0.1,0,0.1,0,0.2,0
	c0.1,0,0,0.1,0.1,0.1l0.1-0.1h0.1c0.1,0,0.1,0,0.1,0s0,0-0.1,0.1c0,0,0,0.1-0.1,0.1l0,0c0,0.1,0.1,0.1,0,0.1c-0.1,0.1-0.1,0-0.2,0
	c-0.1,0,0,0.1-0.1,0.1c-0.1,0,0,0.1,0,0.1s0,0.1-0.1,0.1c-0.1,0-0.1-0.1-0.2-0.1c-0.1-0.1-0.1,0-0.1-0.1l0,0h-0.1l0,0
	c-0.1,0-0.1,0-0.1,0h-0.1l0.1,0.1l0.1,0.1h0.1v0.1h0.1l0,0l0,0h0.1l0.1,0.1v-0.4l0.1,0.1l0,0l0,0l0.1,0.1l0.1,0.1
	c0.1,0.1,0.1,0.1,0.1,0.1v0.1l0,0c0.1,0.1,0,0.1,0,0.1l0,0c0.1,0.1-0.1,0.1-0.1,0.1l0,0l0.1,0.1l0,0v0.1v0.1v0.1l0,0l0,0l0,0v0.1
	c0,0,0.1,0.1,0.1,0.2c-0.1,0.1,0,0,0,0l0,0v0.1l0,0h-0.1c-0.1,0-0.2-0.1-0.2,0c-0.1,0-0.2,0-0.3,0c-0.1,0-0.1,0-0.1-0.1
	c0,0.1-0.1,0.1-0.1,0.2c-0.1,0-0.1,0-0.1,0s-0.1-0.1-0.1-0.1c-0.1,0,0-0.1-0.1-0.1l0,0c0,0.1,0,0.1,0,0.1c0,0.1-0.1,0.1-0.1,0h-0.1
	c0,0-0.1,0-0.1,0.1l0,0h-0.1l-0.2-0.1v-0.1l-0.1,0.1c0,0.1,0,0.1,0,0.1c0,0.1,0,0.2-0.2,0.1l0,0c0,0-0.1,0-0.1-0.1
	c0-0.1-0.1-0.1-0.1-0.1C21,13.8,20.9,13.7,20.9,13.7L20.9,13.7L20.9,13.7l-0.1-0.1C20.8,13.5,20.8,13.7,20.9,13.7z M14.1,19.2
	l0.1,0.1c0.1,0,0.1,0.1,0.1,0.1c0,0.1,0.1,0.1,0.1,0.1v0.1v0.1l0.1,0.1l0.1,0.1h0.1l0.1,0.1l0.2,0.1l0.1,0.1l0.1,0.1
	c0,0.1,0,0.1,0,0.1v0.1v0.1c0,0.1,0.1,0.1,0.1,0.1c0.1,0,0.1,0.1,0.1,0.1c0,0.1,0.1,0.1,0.1,0.2s0.2,0.1,0.2,0.2v0.1c0,0,0,0-0.1,0
	c-0.1,0,0,0,0,0.1l0,0v0.1c0,0,0,0.2-0.1,0.2c-0.1,0.1-0.1,0.1-0.1,0.1h-0.1h-0.1h-0.1h-0.1c0,0,0,0,0-0.1c0-0.1-0.1-0.1-0.2-0.1
	s-0.1-0.2-0.2-0.2c0-0.1-0.1-0.1-0.1-0.1c0,0-0.1,0-0.1-0.1c-0.1,0-0.1-0.1-0.1-0.1v-0.1v-0.1c0-0.1-0.1-0.1-0.1-0.1
	c0,0-0.1,0-0.1-0.1c0,0,0-0.1,0-0.1c0-0.1,0-0.1,0-0.1l0,0c0-0.1-0.1-0.1-0.1-0.1L14.2,20v-0.1v-0.1c0-0.1-0.1-0.1-0.1-0.2
	c-0.1-0.1-0.1-0.1-0.2-0.1c-0.1,0-0.1-0.1-0.1-0.1l0,0l0,0v-0.1c0,0,0,0,0-0.1l0,0l-0.1-0.1l-0.1-0.1c0,0-0.1,0-0.1-0.1l-0.1-0.1
	l-0.1-0.1L13.4,19c0-0.1,0-0.1,0-0.1s0-0.1,0.1-0.1c0,0,0.1,0,0.1,0.1c0.1,0,0.1,0.1,0.1,0.1c0.1,0,0.1,0,0.2,0c0.1,0,0.1,0,0.1,0.1
	H14c0,0,0,0,0,0.1l0.1,0.1C14.1,19.2,14.1,19.2,14.1,19.2L14.1,19.2z M11,15.5L11,15.5z M9.5,18L9.5,18c0,0,0-0.1,0-0.1l0,0l0,0
	v-0.1v-0.1h0.1h0.1h0.1l0,0l0,0l0,0l0,0c0,0,0,0.1,0.1,0.1l0,0l0.1,0.1c0,0.1,0.1,0.1,0.1,0.1c0,0,0,0.1,0.1,0.1h0.1l0,0
	c0.1,0.1,0,0.1,0.1,0.1c0.1,0.1,0,0,0,0.1s0,0.1-0.1,0.1H10H10H9.9l0,0H9.8l0,0H9.8c-0.1,0-0.1-0.1-0.1-0.1v-0.1l0,0
	c-0.1-0.1,0-0.1,0-0.1l0,0C9.5,18,9.5,18,9.5,18L9.5,18z M18.8,22.8c-0.1,0.1-0.1,0.1-0.2,0l0,0l0,0l0,0c0,0-0.1,0-0.1-0.1l0,0
	l-0.1-0.1v-0.1l0,0c0.1,0,0.2,0,0.2,0.1L18.8,22.8L18.8,22.8L18.8,22.8C18.7,22.8,18.7,22.8,18.8,22.8L18.8,22.8z M19.2,22.6
	L19.2,22.6L19.2,22.6h-0.1H19c0,0,0-0.1-0.1,0h-0.1c-0.1,0-0.1,0-0.1,0s-0.1,0-0.2-0.1c-0.1-0.1-0.1-0.1,0-0.1l0,0h0.1
	c0.1,0,0.1,0,0.1,0l0,0c0,0,0.1,0,0.1,0.1l0,0c0.1,0,0.1,0,0.2-0.1l0,0l0,0h0.1h0.1l0,0h0.1l0,0h0.1l0,0c0.1,0.1,0.2,0.1,0.3,0.1
	l0,0l0,0h0.1c0,0.1-0.1,0.1-0.1,0.1l0,0h-0.1h-0.1l0,0h-0.1l0,0h-0.1l0,0C19.3,22.5,19.3,22.4,19.2,22.6
	C19.2,22.6,19.3,22.6,19.2,22.6L19.2,22.6z M20.3,22.7C20.3,22.7,20.3,22.7,20.3,22.7c-0.1,0-0.1,0-0.1,0l0,0h-0.1c0,0-0.1,0-0.1,0
	c-0.1,0-0.1,0-0.1,0s-0.1,0-0.1,0l0,0h-0.1l0,0l0,0l0,0h-0.1l0,0h-0.1l0,0h-0.1h-0.1h0l0,0l0,0c-0.1,0-0.1,0-0.1,0s0-0.1,0.1-0.1
	c0.1,0,0-0.1,0.1-0.1l0,0l0.1-0.1l0,0h0.1c0,0,0.1,0,0.1-0.1h0.1l0,0l0,0l0,0l0,0h0.1h0.1c0.1,0,0.1,0,0.2,0h0c0.1,0,0.1,0,0.1,0.1
	L20.3,22.7z M20.6,21.1L20.6,21.1C20.6,20.9,20.7,21,20.6,21.1L20.6,21.1c0.1-0.1,0.1-0.1,0.1-0.2l0,0l0,0c0,0,0,0-0.1-0.1
	c0-0.1,0.1-0.1,0.1-0.2l0,0c0,0,0-0.1,0.1-0.1c0.1,0,0-0.1,0.1-0.1l0,0c0.1,0,0,0.1,0,0.1s0,0,0,0.1l0,0l0,0h0.1l0,0
	c0.1,0,0.1,0.1,0,0.1l0,0l0,0c0,0-0.1,0,0,0.1c0.1,0.1,0.1,0.1,0,0.1l0,0h-0.1l0,0l0,0l0,0C20.7,20.9,20.7,21,20.6,21.1L20.6,21.1
	L20.6,21.1L20.6,21.1L20.6,21.1L20.6,21.1L20.6,21.1C20.7,21.1,20.6,21.1,20.6,21.1L20.6,21.1L20.6,21.1L20.6,21.1L20.6,21.1
	L20.6,21.1C20.7,21.2,20.7,21.2,20.6,21.1L20.6,21.1L20.6,21.1L20.6,21.1L20.6,21.1L20.6,21.1z M21.4,21.8L21.4,21.8
	C21.4,21.8,21.4,21.8,21.4,21.8C21.4,21.8,21.4,21.8,21.4,21.8h-0.1l0,0c0,0-0.1,0-0.1-0.1l0,0c0,0-0.1,0-0.1-0.1 M21.1,21.7
	L21.1,21.7c-0.1,0-0.1,0-0.1,0l0,0c0,0,0,0-0.1,0l0,0c0,0-0.1,0-0.1,0l0,0l0,0l0,0c-0.1,0-0.1,0-0.1,0l0,0h0.1c0,0-0.1,0-0.1-0.1
	l0,0c0-0.1,0-0.1,0.1-0.1l0,0c0.1-0.1,0.2,0,0.4,0l0,0C21.1,21.6,21.2,21.6,21.1,21.7c0.1,0,0.2-0.1,0.2,0c0,0.1,0,0.1,0,0.1l0,0
	v0.1l0,0l0,0L21.1,21.7z M20,20.6L20,20.6z M20,20.6L20,20.6z M20,20.6L20,20.6z"/>
<path class="st10" d="M23,21.7L23,21.7L23,21.7z"/>
<path class="st10" d="M22.6,21.9L22.6,21.9L22.6,21.9z"/>
<path class="st11" d="M28.2,15.6c0,0.1,0,0.2,0,0.3s0,0.2,0,0.3s0,0.2,0,0.3c0,0.1,0,0.1,0,0.1c0,0.1,0,0.1,0,0.2s0,0,0,0.1
	s0,0.2,0,0.2s0,0.1,0,0.1s0,0.1,0,0.2c0,0.1,0,0.1,0,0.1s0,0.2-0.1,0.2v0.1c0,0.1,0,0.1-0.1,0.2v0.1l-0.1,0.2v0.1
	c0,0.1,0,0.1-0.1,0.2c-0.1,0.1,0,0.1,0,0.1s0,0.1,0,0.1l-0.1,0.2c-0.1,0.4-0.2,0.7-0.3,1.1l0,0.1l-0.1,0.1l-0.1,0.2l-0.1,0.2
	l-0.1,0.1l-0.1,0.1l-0.1,0.1l-0.1,0.1l-0.1,0.1L27,21.7l-0.1,0.1L26.9,22l-0.1,0.1l-0.1,0.2l-0.1,0.2c-0.1,0.1-0.2,0.2-0.2,0.4
	c-0.1,0.2-0.3,0.5-0.4,0.7l-0.1,0.1l-0.1,0.1l-0.1,0.2l-0.1,0.1l-0.1,0.2l0,0.1l-0.3,0.4c-0.2,0.2-0.4,0.4-0.6,0.7l-0.1,0.1
	l-0.1,0.1L24,25.7c-1.2,1.1-2.7,2-4.2,2.6l-0.4,0.2l-0.1,0.1l-0.4,0.1l-0.2,0.1l-0.2,0.1l-0.2,0.1L18,28.9l-0.2,0.1L17.4,29L17.2,29
	h-0.1h-0.1l-0.2,0.1h-0.1l-0.3,0.1c-0.7,0.1-1.4,0.2-2.2,0.2h-0.6h-0.2h-0.3h-0.1H13h-0.2l0,0h-0.1h-0.1h-0.1h-0.2h-0.1l0,0L12,29.3
	h-0.1l-0.2-0.1h-0.1l-0.2-0.1l-0.2-0.1h-0.1H11L10.8,29h-0.1h-0.1L10.5,29h-0.1h-0.1l-0.3-0.4H10l-0.1-0.1H9.8H9.7H9.6l-0.1,0l0,0
	l-0.2-0.1H9.2H9.1H9.1H9H9H8.9l-0.1-0.1l-0.1-0.1H8.6L8.5,28H8.4l0,0l-0.2-0.1l-0.1-0.1l-0.1-0.1H8l-0.1-0.1H7.8H7.8l0,0l-0.1-0.1
	l-0.2-0.1l0,0l-0.2-0.1l0,0l-0.2-0.1l0,0L7,27.2l0,0.1L7,27.2l-0.1-0.1H6.8L6.6,27L6.6,27H6.5l-0.1-0.1l0,0l-0.1-0.1l-0.1-0.1
	l-0.1-0.1H6.1L6,26.6l-0.1-0.1l-0.1-0.1l-0.1-0.1l-0.1-0.1l-0.1-0.1H5.4h0.1c4.7,1.1,9.6-0.4,12.9-3.7l0.1-0.1
	c0.2-0.2,0.4-0.5,0.7-0.7l0.3-0.3l0.2-0.2l0.1-0.2l0.1-0.2l0,0l0.1-0.1c0.2-0.3,0.4-0.6,0.6-1c0.6-1,1.1-2.1,1.4-3.2
	c0.1-0.6,0.2-1.1,0.3-1.6c0.1-0.3,0.1-0.6,0.1-0.9c0-0.5,0-1,0-1.4c0-0.1,0-0.1,0-0.1c0-0.1,0-0.1,0-0.1c0-0.1,0-0.3,0-0.5
	c0-0.4-0.1-0.7-0.1-1.1c0-0.2-0.1-0.3-0.1-0.5c-0.1-0.6-0.3-1.2-0.5-1.8c-0.1-0.1-0.1-0.2-0.1-0.4c-0.1-0.4-0.2-0.7-0.4-1l-0.1-0.1
	l0,0c-0.1-0.3-0.3-0.6-0.4-0.9l0,0l-0.1-0.1v0l-0.1-0.1l0,0c-0.4-0.6-0.8-1.2-1.2-1.7c-0.3-0.4-0.6-0.7-0.9-1
	c-0.3-0.2-0.6-0.6-0.9-0.8l0.2,0.1L18,2.3l0.2,0.1h0.1l0.4,0.2h0.1h0.1L19,2.6l0,0h0.1h0.1l0.1,0.1h0.1l0.1,0.1l0.1,0.1l0.2,0.1l0,0
	L20,2.9l0,0l0.2,0.1l0,0l0.1,0.1l0.1,0.1h0.1l0-0.1l0,0l0.1,0.1l0.2,0.1l0.2,0.1H21l0,0l0.2,0.1l0,0l0.2,0.1l0,0l0.2,0.1l0.2,0.1
	l0,0h0.1l0.1,0.1L22,3.9l0,0L22.1,4l0.1,0.1l0,0l0,0l0.1,0.1l0,0l0,0l0.1,0.1l0,0l0,0l0.1,0.1l0,0l0.1,0.1l0,0l0.2,0.1l0.2,0.2
	l0.1,0.1l0.2,0.2L23.4,5l0.1,0.1l0.1,0.1l0.1,0.1l0.1,0.1h0.1L24,5.6l0.2,0.2l0.4,0.4l0.1,0.2l0.1,0.2l0,0l0.1,0.2l0.1,0.2l0.3,0.4
	l0.1,0.2l0.1,0.1l0.4,0.6L26,8.1l0.1,0.1l0.1,0.1l0.1,0.2v0.1v0.1l0.1,0.2v0.1c0.1,0.1,0.1,0.2,0.2,0.4l0.1,0.1v0.1l0.1,0.1l0.1,0.1
	l0,0l0.1,0.1v0.1l0.1,0.1v0.1v0.1L27,10l0.1,0.1l0.1,0.2l0.1,0.1v0.1l0.1,0.2v0.1l0,0l0.1,0.2l0.1,0.1v0.1l0.1,0.2l0.1,0.1v0.1l0,0
	v0.1v0.1l0.1,0.2v0.1l0,0V12l0,0l0.1,0.2l0,0l0.1,0.2v0.1v0.1v0.1v0.1v0.1c0,0.1,0,0.1,0.1,0.2v0c0,0.1,0,0.2,0.1,0.2v0.1
	c0.1,0.2,0.1,0.4,0.1,0.6l0,0v0.1l0,0c0,0.1,0,0.2,0,0.2C28.1,14.8,28.2,15.2,28.2,15.6z"/>
<path class="st9" d="M9,4.4C4,6.7,1.1,12.1,2,17.5C2,12,5.6,7.3,10.8,5.7C10.2,5.3,9.6,4.8,9,4.4z"/>
<path class="st12" d="M11.1,1.8c-5.7,1.4-9.8,6.5-10,12.4C2.2,8.4,6.9,4.1,12.7,3.5C12.1,2.9,11.6,2.3,11.1,1.8z"/>
<text transform="matrix(1 0 0 1 2.4473 18.957)" class="st13 st14 st15">NEM</text>
</svg>
