<svg xmlns="http://www.w3.org/2000/svg" viewBox="0 0 41 39"><defs><style>.cls-1{fill:#29ab87;}.cls-2{fill:#fdfffe;}</style></defs><title>ChiPhiSinhDe</title><g id="Layer_2" data-name="Layer 2"><rect class="cls-1" width="41" height="39"/></g><g id="Layer_20" data-name="Layer 20"><path class="cls-2" d="M25.58,10.87a1.32,1.32,0,0,0-2.25-.93.46.46,0,1,0,.65.65.41.41,0,1,1,.57.57.46.46,0,0,0,.65.65A1.31,1.31,0,0,0,25.58,10.87Z" transform="translate(-0.05 0)"/><path class="cls-2" d="M35,17.73a9.56,9.56,0,0,0,.69-3.47A9.2,9.2,0,0,0,33.3,7.93,4,4,0,0,1,34.95,7a.46.46,0,0,0-.25-.88,5,5,0,0,0-2,1.18,9.38,9.38,0,0,0-9.8-1.69,3.52,3.52,0,0,0-2.19-.76h-.05A3.54,3.54,0,0,0,17.52,10a2.09,2.09,0,0,0-.83.13,22.28,22.28,0,0,0-6.8,4.58,5,5,0,0,0-1.4,3.75c0,.41.06.86.11,1.35a14.89,14.89,0,0,0-3,3.87c-.47.91-1.18,2.59-.64,3.71H5a6.39,6.39,0,0,0,8.2,8.2h0a2.15,2.15,0,0,0,1,.2,7,7,0,0,0,3.35-1.16A15.17,15.17,0,0,0,20.78,32c.49.05.95.09,1.35.11h.28a5,5,0,0,0,3.47-1.41A22.73,22.73,0,0,0,29,26.75a.46.46,0,1,0-.77-.49,21.79,21.79,0,0,1-3,3.78,4,4,0,0,1-3.06,1.15l-.68,0,.35-.47a4.82,4.82,0,0,0,.86-2.82,54.62,54.62,0,0,0-.78-7.92l0-.09A27.81,27.81,0,0,1,29,22.11a1.19,1.19,0,0,1,.56,1.47c-.1.27-.23.57-.38.88a.46.46,0,1,0,.82.4c.16-.34.3-.66.41-1a2.09,2.09,0,0,0,.13-.83A3.54,3.54,0,0,0,35,17.73ZM18.81,6.51A2.61,2.61,0,0,1,21.89,6a9.78,9.78,0,0,0-3.63,3.38A2.62,2.62,0,0,1,18.81,6.51Zm-11.7,27a5.47,5.47,0,0,1-1.4-5.36A19.17,19.17,0,0,0,10.61,30c.34,1.2.68,2.26,1,3.11a9.93,9.93,0,0,0,.86,1.8A5.47,5.47,0,0,1,7.11,33.48Zm14-3.33A13.7,13.7,0,0,1,17,33.86c-1.48.88-2.8,1.24-3.43.93l0,0-.05,0c-.37-.34-1.12-1.74-2.07-5.22v0q-.16-.59-.33-1.27a.46.46,0,0,0-.89.22l.14.53c-3.46-1-4.3-1.66-4.49-1.88h0l0-.06c-.49-1,.72-3.77,2.95-6,.22,1.61.55,3.49,1,5.38a.46.46,0,0,0,.89-.2A54.63,54.63,0,0,1,9.4,18.4a4,4,0,0,1,1.15-3.06A21.22,21.22,0,0,1,17,11a1.19,1.19,0,0,1,1.47.56,32,32,0,0,1,2.41,7.74.46.46,0,0,0,0,.12,47.39,47.39,0,0,1,.89,8.46A3.91,3.91,0,0,1,21.1,30.15Zm9-8.29a2.09,2.09,0,0,0-.67-.56,28.91,28.91,0,0,0-7.75-2.44,30,30,0,0,0-2.44-7.75,2.09,2.09,0,0,0-.56-.67,8.81,8.81,0,0,1,1.53-2.06,8.55,8.55,0,0,1,12.08-.14,8.55,8.55,0,0,1-.14,12.08A8.81,8.81,0,0,1,30.14,21.86Zm3.93-.08a2.62,2.62,0,0,1-2.92.55,9.83,9.83,0,0,0,3.39-3.62A2.61,2.61,0,0,1,34.07,21.78Z" transform="translate(-0.05 0)"/><path class="cls-2" d="M29.71,15a1.31,1.31,0,0,0-.93.39.46.46,0,0,0,.65.65.41.41,0,0,1,.57.57.46.46,0,0,0,.65.65A1.32,1.32,0,0,0,29.71,15Z" transform="translate(-0.05 0)"/><path class="cls-2" d="M26.89,14.5a.76.76,0,0,1-.81-.81.46.46,0,1,0-.91-.06,1.67,1.67,0,0,0,1.66,1.78H27a.46.46,0,1,0-.06-.91Z" transform="translate(-0.05 0)"/></g></svg>