<svg xmlns="http://www.w3.org/2000/svg" viewBox="0 0 41 39"><defs><style>.cls-1{fill:#29ab87;}.cls-2{fill:#fff;}</style></defs><title>chiphiPhauThuat</title><g id="Layer_2" data-name="Layer 2"><rect class="cls-1" width="41" height="39"/></g><g id="Layer_13" data-name="Layer 13"><g id="_005---Budget-Sheet" data-name="005---Budget-Sheet"><path id="Shape" class="cls-2" d="M8.15,37.16H33a3,3,0,0,0,3-3V4.62a3,3,0,0,0-3-3H8.15a3,3,0,0,0-3,3V34.2A3,3,0,0,0,8.15,37.16ZM32.4,28.93v4.68H25.53A12.89,12.89,0,0,0,32.4,28.93ZM20.15,33.48c2.11-1.16,4.64-3.13,5.09-6.06,1.32.58,4,1.49,6.31.68-2.56,3.88-8,5-11.39,5.38ZM32.4,21.19a.59.59,0,1,0,0,1.18v3.87C29.76,28.57,25,26,25,26a.59.59,0,0,0-.88.52c0,4.55-6.41,6.84-7.19,7.1H8.74V22.37a.59.59,0,1,0,0-1.18v-16h3.55v.59a1.77,1.77,0,0,0,1.77,1.77h13a1.77,1.77,0,0,0,1.77-1.77V5.22H32.4ZM27.67,2.85v3a.59.59,0,0,1-.59.59H25.9V5.22a.59.59,0,0,0-1.18,0V6.4H16.43V5.22a.59.59,0,1,0-1.18,0V6.4H14.07a.59.59,0,0,1-.59-.59v-3ZM6.38,4.62A1.77,1.77,0,0,1,8.15,2.85h4.14V4H8.74A1.18,1.18,0,0,0,7.56,5.22V33.61a1.18,1.18,0,0,0,1.18,1.18c10.14,0,9.07,0,9.51,0H32.4a1.18,1.18,0,0,0,1.18-1.18V5.22A1.18,1.18,0,0,0,32.4,4H28.85V2.85H33a1.77,1.77,0,0,1,1.77,1.77V34.2A1.77,1.77,0,0,1,33,36H8.15A1.77,1.77,0,0,1,6.38,34.2Z" transform="translate(-0.05 0)"/><path id="Shape-2" data-name="Shape" class="cls-2" d="M12.85,16.9a.58.58,0,0,0-1.12,0,1.18,1.18,0,0,1-.62-1,.59.59,0,0,0-1.18,0,2.37,2.37,0,0,0,1.77,2.28v.68a.59.59,0,0,0,1.18,0v-.68a2.36,2.36,0,0,0-.59-4.65,1.18,1.18,0,0,1-.56-2.22.58.58,0,0,0,1.12,0,1.18,1.18,0,0,1,.62,1,.59.59,0,1,0,1.18,0A2.37,2.37,0,0,0,12.88,10V9.36a.59.59,0,1,0-1.18,0V10a2.36,2.36,0,0,0,.59,4.65,1.18,1.18,0,0,1,.56,2.22Z" transform="translate(-0.05 0)"/><path id="Shape-3" data-name="Shape" class="cls-2" d="M17,11.72h1.18a.59.59,0,0,0,0-1.18H17a.59.59,0,1,0,0,1.18Z" transform="translate(-0.05 0)"/><path id="Shape-4" data-name="Shape" class="cls-2" d="M17,14.68h1.18a.59.59,0,0,0,0-1.18H17a.59.59,0,0,0,0,1.18Z" transform="translate(-0.05 0)"/><path id="Shape-5" data-name="Shape" class="cls-2" d="M17,17.64h1.18a.59.59,0,0,0,0-1.18H17a.59.59,0,1,0,0,1.18Z" transform="translate(-0.05 0)"/><path id="Shape-6" data-name="Shape" class="cls-2" d="M22.35,11.72h1.18a.59.59,0,0,0,0-1.18H22.35a.59.59,0,0,0,0,1.18Z" transform="translate(-0.05 0)"/><path id="Shape-7" data-name="Shape" class="cls-2" d="M25.9,11.72h1.77a.59.59,0,1,0,0-1.18H25.9a.59.59,0,1,0,0,1.18Z" transform="translate(-0.05 0)"/><path id="Shape-8" data-name="Shape" class="cls-2" d="M30,11.72h.59a.59.59,0,1,0,0-1.18H30a.59.59,0,0,0,0,1.18Z" transform="translate(-0.05 0)"/><path id="Shape-9" data-name="Shape" class="cls-2" d="M22.35,14.68h4.14a.59.59,0,1,0,0-1.18H22.35a.59.59,0,0,0,0,1.18Z" transform="translate(-0.05 0)"/><path id="Shape-10" data-name="Shape" class="cls-2" d="M30.63,13.5H28.85a.59.59,0,1,0,0,1.18h1.77a.59.59,0,1,0,0-1.18Z" transform="translate(-0.05 0)"/><path id="Shape-11" data-name="Shape" class="cls-2" d="M25.3,17a.59.59,0,0,0-.59-.59H22.35a.59.59,0,0,0,0,1.18h2.37A.59.59,0,0,0,25.3,17Z" transform="translate(-0.05 0)"/><path id="Shape-12" data-name="Shape" class="cls-2" d="M30.63,16.45H27.08a.59.59,0,1,0,0,1.18h3.55a.59.59,0,1,0,0-1.18Z" transform="translate(-0.05 0)"/><path id="Shape-13" data-name="Shape" class="cls-2" d="M12.29,21.19H11.11a.59.59,0,1,0,0,1.18h1.18a.59.59,0,1,0,0-1.18Z" transform="translate(-0.05 0)"/><path id="Shape-14" data-name="Shape" class="cls-2" d="M14.07,21.78a.59.59,0,0,0,.59.59h1.18a.59.59,0,1,0,0-1.18H14.66A.59.59,0,0,0,14.07,21.78Z" transform="translate(-0.05 0)"/><path id="Shape-15" data-name="Shape" class="cls-2" d="M17.61,21.78a.59.59,0,0,0,.59.59h1.18a.59.59,0,1,0,0-1.18H18.21A.59.59,0,0,0,17.61,21.78Z" transform="translate(-0.05 0)"/><path id="Shape-16" data-name="Shape" class="cls-2" d="M22.94,21.19H21.76a.59.59,0,0,0,0,1.18h1.18a.59.59,0,0,0,0-1.18Z" transform="translate(-0.05 0)"/><path id="Shape-17" data-name="Shape" class="cls-2" d="M26.49,21.19H25.3a.59.59,0,0,0,0,1.18h1.18a.59.59,0,0,0,0-1.18Z" transform="translate(-0.05 0)"/><path id="Shape-18" data-name="Shape" class="cls-2" d="M30,21.19H28.85a.59.59,0,1,0,0,1.18H30a.59.59,0,0,0,0-1.18Z" transform="translate(-0.05 0)"/><path id="Shape-19" data-name="Shape" class="cls-2" d="M21.76,26.51H11.7a1.77,1.77,0,0,0-1.77,1.77v1.18a1.77,1.77,0,0,0,1.77,1.77h7.1a.59.59,0,1,0,0-1.18H11.7a.59.59,0,0,1-.59-.59V28.28a.59.59,0,0,1,.59-.59H21.76a.59.59,0,0,0,0-1.18Z" transform="translate(-0.05 0)"/></g></g></svg>