<svg xmlns="http://www.w3.org/2000/svg" viewBox="0 0 41 39"><defs><style>.cls-1{fill:#29ab87;}.cls-2{fill:#fff;}</style></defs><title>noitru</title><g id="Layer_2" data-name="Layer 2"><rect class="cls-1" width="41" height="39"/></g><g id="Layer_22" data-name="Layer 22"><path class="cls-2" d="M16.49,20.95a.51.51,0,0,0,.51-.51V15a.51.51,0,0,0-.51-.51H13.75a.51.51,0,0,0-.51.51v5.43a.51.51,0,0,0,.51.51Zm-2.23-5.43H16v4.42H14.25Z" transform="translate(-0.05 0)"/><path class="cls-2" d="M19,20.95H21.7a.51.51,0,0,0,.51-.51V15a.51.51,0,0,0-.51-.51H19a.51.51,0,0,0-.51.51v5.43A.51.51,0,0,0,19,20.95Zm.51-5.43h1.73v4.42H19.46Z" transform="translate(-0.05 0)"/><path class="cls-2" d="M9.48,28.77a.5.5,0,0,0,.51-.51V22.83a.51.51,0,0,0-.51-.51H6.74a.51.51,0,0,0-.51.51v5.43a.5.5,0,0,0,.51.51ZM7.24,23.34H9v4.42H7.24Z" transform="translate(-0.05 0)"/><path class="cls-2" d="M31.18,28.77h2.74a.5.5,0,0,0,.51-.51V22.83a.51.51,0,0,0-.51-.51H31.18a.5.5,0,0,0-.51.51v5.43A.5.5,0,0,0,31.18,28.77Zm.51-5.43h1.73v4.42H31.68Z" transform="translate(-0.05 0)"/><path class="cls-2" d="M24.16,20.95H26.9a.51.51,0,0,0,.51-.51V15a.51.51,0,0,0-.51-.51H24.16a.51.51,0,0,0-.51.51v5.43A.51.51,0,0,0,24.16,20.95Zm.51-5.43H26.4v4.42H24.67Z" transform="translate(-0.05 0)"/><path class="cls-2" d="M19.82,7.81a.51.51,0,0,0,1,0v-1h1a.51.51,0,0,0,0-1h-1v-1a.51.51,0,1,0-1,0v1h-1a.51.51,0,1,0,0,1h1Z" transform="translate(-0.05 0)"/><path class="cls-2" d="M37.06,17.12a.51.51,0,0,0,.51-.51V14.8a.51.51,0,0,0-.51-.51H34a.51.51,0,0,0,0,1h2.56v.81H29.26V15.3h2.22a.51.51,0,1,0,0-1H29.26V11.92H30a.5.5,0,0,0,.51-.51V9.6A.51.51,0,0,0,30,9.1H25.53V2.92A.51.51,0,0,0,25,2.42h-9.4a.51.51,0,0,0-.51.51V9.1H10.61a.5.5,0,0,0-.51.51v1.82a.5.5,0,0,0,.51.51h.78v2.37H3.59a.51.51,0,0,0-.51.51v1.82a.51.51,0,0,0,.51.51h.22v3.32a.51.51,0,1,0,1,0V17.12h6.57V34H4.82V23a.51.51,0,1,0-1,0V34H3.59a.51.51,0,0,0-.51.51V36.4a.51.51,0,0,0,.51.51H37.06a.51.51,0,0,0,.51-.51V34.49a.51.51,0,0,0-.51-.51h-.22V17.12Zm-25.94-7H19a.51.51,0,0,0,0-1H16.13V3.43h8.39V9.1H21.83a.51.51,0,1,0,0,1h7.7v.81H11.12Zm-7,5.2h7.29v.81H4.09Zm8.31-3.38H28.25V34H25.34V26a.51.51,0,0,0-.51-.51h-9a.51.51,0,0,0-.51.51v8H12.4ZM16.32,34V26.49h3.5V34Zm4.51-7.49h3.5V34h-3.5Zm15.73,9.4H4.09V35H36.56ZM35.83,34H29.26V17.12h6.56V34Z" transform="translate(-0.05 0)"/></g></svg>