<svg xmlns="http://www.w3.org/2000/svg" viewBox="0 0 41 39"><defs><style>.cls-1{fill:#29ab87;}.cls-2{fill:#fff;}</style></defs><title>phitrarsau</title><g id="Layer_2" data-name="Layer 2"><rect class="cls-1" width="41" height="39"/></g><g id="Layer_10" data-name="Layer 10"><path class="cls-2" d="M37.53,21.43a.58.58,0,0,0-.58.58,1.75,1.75,0,0,1-1.75,1.75H26.43a.58.58,0,0,1,0-1.17h3.51a.58.58,0,1,0,0-1.17H26.43a.58.58,0,1,1,0-1.17h3.51a.58.58,0,0,0,0-1.17H26.43a.58.58,0,1,1,0-1.17h3.51a.58.58,0,1,0,0-1.17H26.43a.58.58,0,0,1,0-1.17h5.26a.58.58,0,0,0,0-1.17H29.94a.58.58,0,0,1-.58-.58v-.58a.58.58,0,0,1,.58-.58h2.34A1.75,1.75,0,0,1,34,14.42V15a.58.58,0,0,0,.58.58h.58a1.75,1.75,0,0,1,1.75,1.75.58.58,0,1,0,1.17,0,2.92,2.92,0,0,0-2.92-2.92,2.92,2.92,0,0,0-2.92-2.92H29.94a1.75,1.75,0,0,0-1.75,1.75v0A9.93,9.93,0,0,0,13,13.3v0a1.75,1.75,0,0,0-1.75-1.75H8.91A2.92,2.92,0,0,0,6,14.42a2.92,2.92,0,0,0-2.92,2.92.58.58,0,1,0,1.17,0A1.75,1.75,0,0,1,6,15.59h.58A.58.58,0,0,0,7.15,15v-.58a1.75,1.75,0,0,1,1.75-1.75h2.34a.58.58,0,0,1,.58.58v.58a.58.58,0,0,1-.58.58H9.49a.58.58,0,0,0,0,1.17h5.26a.58.58,0,0,1,0,1.17H11.24a.58.58,0,1,0,0,1.17h3.51a.58.58,0,0,1,0,1.17H11.24a.58.58,0,1,0,0,1.17h3.51a.58.58,0,0,1,0,1.17H11.24a.58.58,0,1,0,0,1.17h3.51a.58.58,0,0,1,0,1.17H6A1.75,1.75,0,0,1,4.23,22a.58.58,0,1,0-1.17,0A2.92,2.92,0,0,0,6,24.94h6.19a9.93,9.93,0,0,0,16.84,0H35.2A2.92,2.92,0,0,0,38.12,22,.58.58,0,0,0,37.53,21.43Zm-16.94,7a8.76,8.76,0,0,1-7-3.51h1.17A1.75,1.75,0,0,0,16.05,22a1.75,1.75,0,0,0,0-2.34,1.75,1.75,0,0,0,0-2.34,1.75,1.75,0,0,0-1.3-2.92H13.58a8.76,8.76,0,0,1,14,0H26.43a1.75,1.75,0,0,0-1.3,2.92,1.75,1.75,0,0,0,0,2.34,1.75,1.75,0,0,0,0,2.34,1.75,1.75,0,0,0,1.3,2.92H27.6A8.76,8.76,0,0,1,20.59,28.45Z" transform="translate(-0.05 0)"/><path class="cls-2" d="M20.59,17.34a.88.88,0,0,1,.87.88.58.58,0,0,0,1.17,0,2.05,2.05,0,0,0-1.45-2v-.67a.58.58,0,0,0-1.17,0v.67a2,2,0,0,0,.58,4,.88.88,0,1,1-.88.88.58.58,0,0,0-1.17,0,2.05,2.05,0,0,0,1.46,2v.67a.58.58,0,0,0,1.17,0V23.1a2,2,0,0,0-.58-4,.88.88,0,1,1,0-1.75Z" transform="translate(-0.05 0)"/><path class="cls-2" d="M20.59,34.29a.58.58,0,0,0-.58.58v1.75a.58.58,0,1,0,1.17,0V34.87A.58.58,0,0,0,20.59,34.29Z" transform="translate(-0.05 0)"/><path class="cls-2" d="M20.59,30.78a.58.58,0,0,0-.58.58v1.17a.58.58,0,1,0,1.17,0V31.37A.58.58,0,0,0,20.59,30.78Z" transform="translate(-0.05 0)"/><path class="cls-2" d="M20.59,5.08a.58.58,0,0,0,.58-.58V2.74a.58.58,0,1,0-1.17,0V4.49A.58.58,0,0,0,20.59,5.08Z" transform="translate(-0.05 0)"/><path class="cls-2" d="M20.59,8.58A.58.58,0,0,0,21.17,8V6.83a.58.58,0,0,0-1.17,0V8A.58.58,0,0,0,20.59,8.58Z" transform="translate(-0.05 0)"/><path class="cls-2" d="M23.8,25.24a6.47,6.47,0,0,1-6.43,0,.58.58,0,0,0-.58,1,7.53,7.53,0,0,0,7.6,0,.58.58,0,0,0-.58-1Z" transform="translate(-0.05 0)"/><path class="cls-2" d="M17.38,14.13a6.47,6.47,0,0,1,6.43,0,.58.58,0,0,0,.58-1,7.66,7.66,0,0,0-7.6,0,.58.58,0,0,0,.58,1Z" transform="translate(-0.05 0)"/><path class="cls-2" d="M24.68,8.58H27v1.75a.58.58,0,0,0,1.17,0V8a.58.58,0,0,0-.58-.58H26.2l4.32-3.89,4.32,3.89h-1.4a.58.58,0,0,0-.58.58v2.34a.58.58,0,1,0,1.17,0V8.58h2.34a.58.58,0,0,0,.39-1L30.91,2.31a.58.58,0,0,0-.78,0L24.29,7.56a.58.58,0,0,0,.39,1Z" transform="translate(-0.05 0)"/><path class="cls-2" d="M15.33,30.78H13V29a.58.58,0,0,0-1.17,0v2.34a.58.58,0,0,0,.58.58h1.4L9.49,35.84,5.17,32h1.4a.58.58,0,0,0,.58-.58V26.69a.58.58,0,1,0-1.17,0v4.09H3.65a.58.58,0,0,0-.39,1L9.1,37.06a.58.58,0,0,0,.78,0l5.84-5.26a.58.58,0,0,0-.39-1Z" transform="translate(-0.05 0)"/></g></svg>