<svg xmlns="http://www.w3.org/2000/svg" viewBox="0 0 41 39"><defs><style>.cls-1{fill:#29ab87;}.cls-2{fill:#fff;}</style></defs><title>tuvongtainan</title><g id="Layer_2" data-name="Layer 2"><rect class="cls-1" width="41" height="39"/></g><g id="Layer_6" data-name="Layer 6"><g id="outline"><path class="cls-2" d="M14.21,27.19a1.27,1.27,0,1,0-.38,2.5h.23a1.27,1.27,0,0,0,.15-2.52ZM14,29.08l.05-.55v-.09Z" transform="translate(-0.05 0)"/><path class="cls-2" d="M39,16.88l.72-1A2.5,2.5,0,0,0,38,15.41l-8.77,1.15a2.53,2.53,0,0,0-1.89,1.25L25,21.88l-2.12-1.46a2.26,2.26,0,0,0-2.95.35l.94.85a1,1,0,0,1,1.29-.15l1.61,1.11-.17.18L23,22.52a.63.63,0,0,0-.76.23l-.14.21a.86.86,0,0,0-.93-.14,2.52,2.52,0,0,0-.8.66,2.24,2.24,0,0,0-1.17-.64l-.41-.55a.63.63,0,0,0-.48-.25.62.62,0,0,0-.5.2l-.29.32-.34-.49a.63.63,0,0,0-.88-.16l0,0-.37.29-2.54-4.44a2.56,2.56,0,0,0-1.89-1.26L2.65,15.4a2.5,2.5,0,0,0-1.58.32l.64,1.09a1.23,1.23,0,0,1,.78-.16L6,17.1l-.46,3.78-4-.51-.16,1.26,4,.51-.54,4.4-3.33-.42-.16,1.25,8.95,1.13a3.79,3.79,0,0,0,3.33,3.71l.47,0a3.79,3.79,0,0,0,3.65-2.8l2,.25h.08a.63.63,0,0,0,.56-.34.63.63,0,0,0,.56.35H21L23,29.44a3.8,3.8,0,0,0,3.2,2.77l.47,0a3.8,3.8,0,0,0,3.76-3.34,3.93,3.93,0,0,0,0-.4l8.94-1.14-.16-1.26-3.46.44-.54-4.4,4.16-.53-.16-1.26-4.16.52-.46-3.78,3.47-.45A1.23,1.23,0,0,1,39,16.88Zm-31.81.38,4.06.53a1.29,1.29,0,0,1,.95.63l2,3.57L6.76,21Zm9.35,11.49a2.53,2.53,0,0,1-5-.62h0a2.53,2.53,0,0,1,2.51-2.22l.31,0a2.53,2.53,0,0,1,2.21,2.82Zm3-3.54-.4,3.14-1.37-.17a3.8,3.8,0,0,0-7.4-.93L6.05,26.7l.54-4.4,8.25,1v0a.63.63,0,0,0,1,.47l.62-.49.41.59a.63.63,0,0,0,.48.27.65.65,0,0,0,.51-.2l.31-.34.1.13a.63.63,0,0,0,.43.25.92.92,0,0,1,.89,1.17Zm8.81-6.78a1.27,1.27,0,0,1,.95-.62l4.06-.53.46,3.78L26.37,22Zm.81,10.32a2.53,2.53,0,0,1-5-.62h0a2.53,2.53,0,0,1,2.51-2.22l.31,0a2.53,2.53,0,0,1,2.21,2.82Zm1.09-1.5a3.8,3.8,0,0,0-7.37.73c0,.07,0,.13,0,.2l-1.5.19L21,25.24a1.27,1.27,0,0,1,.44-1.13,1.15,1.15,0,0,0,.85.34.63.63,0,0,0,.46-.28l.2-.29.55.21a.63.63,0,0,0,.69-.16l.4-.43L34,22.32l.54,4.4Z" transform="translate(-0.05 0)"/><path class="cls-2" d="M26.88,27.19a1.27,1.27,0,1,0-.38,2.5h.23a1.27,1.27,0,0,0,.15-2.52Zm-.22,1.89.05-.55v-.09Z" transform="translate(-0.05 0)"/><path class="cls-2" d="M15.37,18.79l1.18-.47-1.69-4.24,3.26,2.44a.63.63,0,0,0,1-.32l1.38-4.59,1.86,4.65a.63.63,0,0,0,.82.35l.1-.05,3.16-2-1.53,3.05,1.13.57,2.53-5.07a.63.63,0,0,0-.9-.82l-4.42,2.77L21,9.46a.62.62,0,0,0-.62-.4.63.63,0,0,0-.58.45L18.14,15,13.8,11.72a.63.63,0,0,0-1,.74Z" transform="translate(-0.05 0)"/><polygon class="cls-2" points="6.86 10.77 7.68 9.95 8.5 10.77 9.39 9.87 8.57 9.05 9.39 8.24 8.5 7.34 7.68 8.16 6.86 7.34 5.96 8.24 6.78 9.05 5.96 9.87 6.86 10.77"/><rect class="cls-2" x="10.25" y="11.15" width="1.27" height="4.05" transform="translate(-5.89 9.67) rotate(-38.62)"/><rect class="cls-2" x="23.46" y="9.84" width="4.95" height="1.27" transform="translate(0.14 21.4) rotate(-45)"/><polygon class="cls-2" points="29.02 8.24 29.84 7.42 30.66 8.24 31.55 7.34 30.73 6.52 31.55 5.7 30.66 4.81 29.84 5.63 29.02 4.81 28.13 5.7 28.95 6.52 28.13 7.34 29.02 8.24"/><rect class="cls-2" x="8.14" y="23.47" width="1.27" height="1.96" transform="translate(-16.82 29.17) rotate(-80.73)"/><rect class="cls-2" x="30.74" y="23.56" width="1.97" height="1.27" transform="translate(-3.89 6.13) rotate(-10.41)"/></g></g></svg>