<svg xmlns="http://www.w3.org/2000/svg" viewBox="0 0 41 39"><defs><style>.cls-1{fill:#29ab87;}.cls-2{fill:#fff;}</style></defs><title>tuvongdobenh</title><g id="Layer_2" data-name="Layer 2"><rect class="cls-1" width="41" height="39"/></g><g id="Layer_7" data-name="Layer 7"><path class="cls-2" d="M32.13,19.48V18.39a11.69,11.69,0,0,0-.56-3.6l4.21-3.39A1.33,1.33,0,0,0,34.94,9H33.13l2.79-4.92a1.58,1.58,0,0,0-1.37-2.36H29.39A1.59,1.59,0,0,0,28,2.64h0L25.45,7.8a11.63,11.63,0,0,0-2.82-.93,11.74,11.74,0,0,0-9.85,2.61.53.53,0,1,0,.7.81A10.65,10.65,0,0,1,25,8.76l-.89,1.83a1.31,1.31,0,0,0,1.18,1.89H27l-1.56,4.14a1.3,1.3,0,0,0,2,1.47l3.21-2.59a10.64,10.64,0,0,1,.39,2.88V19.5c-3.66,0-8.7-.56-12.94-2.63a12,12,0,0,1-3.76-2.61.53.53,0,0,0-.95.34,4.53,4.53,0,0,1-1.3,2.9,7.4,7.4,0,0,1-2.36,1.75v-.87a10.56,10.56,0,0,1,2.18-6.46.53.53,0,0,0-.85-.65,11.62,11.62,0,0,0-2.4,7.11v1.09H8.47a4.2,4.2,0,1,0,0,8.4l.36,0a11.72,11.72,0,0,0,21.42,4.52.53.53,0,1,0-.9-.58A10.65,10.65,0,0,1,9.76,26V20.41a8.31,8.31,0,0,0,3.16-2.2,6.27,6.27,0,0,0,1.42-2.5,15.54,15.54,0,0,0,3.24,2.08c2.5,1.23,6.85,2.69,13.49,2.77V26a10.59,10.59,0,0,1-.8,4.05.53.53,0,1,0,1,.41A11.62,11.62,0,0,0,32,27.87h.07a4.2,4.2,0,0,0,.08-8.4Zm-5.35-2.21a.23.23,0,0,1-.36-.26l1.83-4.87a.53.53,0,0,0-.5-.72H25.27a.24.24,0,0,1-.22-.35l3.87-8h0a.51.51,0,0,1,.46-.29h5.15a.51.51,0,0,1,.44.76L31.75,9.3a.53.53,0,0,0,.46.8h2.73a.27.27,0,0,1,.17.47ZM8.47,26.81a3.13,3.13,0,1,1,0-6.26h.21v1.79a2.08,2.08,0,0,0-2.08,1.23.53.53,0,1,0,1,.43,1.05,1.05,0,0,1,1.1-.59V26c0,.27,0,.53,0,.79Zm23.63,0q0-.4,0-.8v-2.6a1.05,1.05,0,0,1,1.1.59.53.53,0,1,0,1-.43,2.08,2.08,0,0,0-2.08-1.23v-1.8a3.13,3.13,0,0,1,0,6.26Z" transform="translate(-0.05 0)"/><path class="cls-2" d="M17.71,30.81a3.83,3.83,0,0,1,5.4,0,.53.53,0,1,0,.76-.76,4.9,4.9,0,0,0-6.92,0,.53.53,0,1,0,.76.76Z" transform="translate(-0.05 0)"/><path class="cls-2" d="M14.11,25.92a.53.53,0,0,0,.51.38l.16,0,2.82-.87a.53.53,0,0,0,.22-.89l-1.9-1.9a.53.53,0,1,0-.76.76l1.27,1.27-2,.61A.53.53,0,0,0,14.11,25.92Z" transform="translate(-0.05 0)"/><path class="cls-2" d="M26.13,26.29a.53.53,0,0,0,.16-1l-2-.61,1.27-1.27a.53.53,0,0,0-.76-.76l-1.9,1.9a.53.53,0,0,0,.22.89l2.82.87Z" transform="translate(-0.05 0)"/><path class="cls-2" d="M7.55,8.25l-2.07.48a.53.53,0,0,0-.32.82l2.17,3.26a.53.53,0,0,0,.89-.59L6.47,9.6l2.07-.48a.53.53,0,0,0,.32-.82l-3-4.45a.53.53,0,1,0-.89.6Z" transform="translate(-0.05 0)"/><path class="cls-2" d="M11.6,8.33a.53.53,0,1,0,1-.42l-.86-2,1.41-.06a.53.53,0,0,0,.47-.75l-1.1-2.52a.53.53,0,1,0-1,.43l.79,1.81-1.41.06a.53.53,0,0,0-.47.74Z" transform="translate(-0.05 0)"/></g></svg>