<?xml version="1.0" encoding="utf-8"?>
<!-- Generator: Adobe Illustrator 21.0.0, SVG Export Plug-In . SVG Version: 6.00 Build 0)  -->
<svg version="1.1" id="Layer_1" xmlns="http://www.w3.org/2000/svg" xmlns:xlink="http://www.w3.org/1999/xlink" x="0px" y="0px"
	 viewBox="0 0 1400 934" style="enable-background:new 0 0 1400 934;" xml:space="preserve">
<style type="text/css">
	.st0{fill:#A5D7EE;}
	.st1{opacity:0.83;}
	.st2{fill:#B5E3F4;}
	.st3{opacity:0.42;fill:#0782AD;enable-background:new    ;}
	.st4{fill:#80B7B6;}
	.st5{fill:url(#SVGID_1_);}
	.st6{fill:#E0E8EE;}
	.st7{fill:#4DEF54;}
	.st8{fill:#FAD9C7;}
	.st9{fill:#3F392C;}
	.st10{fill:#85827F;}
	.st11{fill:#ABA6A4;}
	.st12{fill:#DADDDC;}
	.st13{fill:#88898B;}
	.st14{fill:#302E2E;}
	.st15{fill:#3D3E3D;}
	.st16{fill:#888888;}
	.st17{fill:#E7E8EA;}
	.st18{fill:#F8CAB2;}
	.st19{fill:#2C2B2B;}
	.st20{fill:#203450;}
	.st21{fill:#F0F1F1;}
	.st22{fill:#231916;}
	.st23{fill:#3E3A39;}
	.st24{fill:#EAAA85;}
	.st25{fill:#EEEEEF;}
	.st26{fill:#F3A780;}
	.st27{fill:#CF6743;}
	.st28{fill:#F9CFA0;}
	.st29{fill:#F5AC5F;}
	.st30{fill:#CED0D0;}
	.st31{fill:#E1DFDE;}
	.st32{fill:#C6C5C6;}
	.st33{fill:#312424;}
	.st34{fill:#28282B;}
	.st35{fill:#242424;}
	.st36{fill:#1B1B1B;}
	.st37{fill:#353333;}
	.st38{fill:#772E1E;}
	.st39{fill:#C8C9CA;}
	.st40{fill:#E7373E;}
	.st41{fill:#B4B5B5;}
	.st42{fill:#F5B390;}
	.st43{fill:#444443;}
	.st44{fill:#424040;}
	.st45{fill:#FFFFFF;}
	.st46{fill:#3A3B3B;}
	.st47{fill:#2A2727;}
	.st48{fill:#823A2C;}
	.st49{fill:#6C281A;}
	.st50{fill:#FFD800;}
	.st51{display:none;}
	.st52{display:inline;}
	.st53{fill:#3E495D;}
	.st54{fill:#2871CB;}
	.st55{fill:#FFF4F2;}
	.st56{fill:#4580D1;}
	.st57{fill:none;stroke:#212237;stroke-width:0.6206;stroke-miterlimit:10;}
	.st58{fill:#FFE0D8;}
	.st59{fill:#212237;}
	.st60{fill:#FFC7C8;}
	.st61{fill:#FFB1AE;}
	.st62{fill:#FF9899;}
	.st63{fill:#FC99BA;}
	.st64{fill:#FFABC3;}
	.st65{fill:none;stroke:#FF5F5C;stroke-width:1.5516;stroke-miterlimit:10;}
	.st66{fill:#1B2C1F;}
	.st67{fill:#E9E8E6;}
	.st68{fill:#FF5F5C;}
</style>
<g id="Layer_1_1_">
	<rect y="1.1" class="st0" width="1400" height="934"/>
</g>
<g class="st1">
	<path class="st2" d="M81.5,529.2c-50.7,14.7-86.1,125.5-31.2,179c45.4,44.4-165.3,176.3,117,170.5c57.2-1.1,730,8.4,748.7-11.1
		c108.3,2.9,318.3-47.4,221.9-191.2c-40.7-60.7,18.4-117.6-8.5-172.4c-27.8-57-93.6-20-125.5-71.4c-38.5-62.1,43.2-124.2-23.3-181.7
		c-33.9-29.3-139.7,18.6-163.8-31.4c-29.4-60.7-95.9-211.2-212.8-105c-91.5,83.1-214.4-46.1-287.4,55.5
		c-39.3,54.8-4.9,78.2-36.9,119.3c-42,53.9-103.1,18.3-129.9,49.8C104.1,392.9,210,492,81.5,529.2L81.5,529.2z"/>
</g>
<path class="st3" d="M773,810.6c8.3-1.7,12.6-3.4,12.6-5.3c0-11.3-168.9-20.5-377.3-20.5S31,793.9,31,805.3
	c0,6.1,48.4,11.5,125.3,15.2c-21.7,4.6-33.8,9.6-33.8,15c0,20,168.9,36.2,377.3,36.2s377.3-16.2,377.3-36.2
	C877.1,826,837.5,817.1,773,810.6z"/>
<g>
	<g>
		<path class="st4" d="M280,726.1L280,726.1c102.8,0,186.1-83.3,186.1-186.1V419.8c0-102.8-83.3-186.1-186.1-186.1l0,0
			c-102.8,0-186.1,83.3-186.1,186.1v120.3C93.9,642.8,177.2,726.1,280,726.1z"/>
	</g>
	
		<linearGradient id="SVGID_1_" gradientUnits="userSpaceOnUse" x1="321.3694" y1="-1082.3048" x2="321.3694" y2="-906.0588" gradientTransform="matrix(1 0 0 1 0 1129)">
		<stop  offset="0" style="stop-color:#E0E8EE"/>
		<stop  offset="1" style="stop-color:#FCF8F4"/>
	</linearGradient>
	<path class="st5" d="M525.7,164.3c-81.2,5.2-82.7,97.5-82.7,97.5v439.5H117V261.8c0,0-0.4-92,83.1-97.5
		C200.1,164.3,525.7,164.3,525.7,164.3z"/>
	<rect x="159.8" y="279.1" class="st6" width="223.9" height="19.8"/>
	<rect x="159.8" y="324.8" class="st6" width="191.2" height="14"/>
	<rect x="159.8" y="361.7" class="st6" width="96.1" height="20.8"/>
	<rect x="159.8" y="401.7" class="st6" width="153.1" height="14.8"/>
	<rect x="159.8" y="438.8" class="st6" width="172.5" height="8.2"/>
	<rect x="159.8" y="475.8" class="st6" width="207.4" height="8.2"/>
	<g>
		<path class="st6" d="M256.6,558.8h-97.4v-46.6h97.4V558.8z M160.5,557.5h94.8v-44h-94.8L160.5,557.5L160.5,557.5z"/>
	</g>
	<g>
		<path class="st7" d="M409.8,645.6h-61.4v-61.4h61.4V645.6z M354.1,640H404v-49.9h-49.9V640L354.1,640z"/>
	</g>
	<g>
		<polygon class="st7" points="380,627.9 358.4,607.5 365,600.5 380.5,615.1 414.2,587.3 420.3,594.7 		"/>
	</g>
</g>
<g>
	<path class="st8" d="M326.4,441.4c-3.9-10.8-9.3-10.5-17.4-17.1c0,0-5.8-2.1-13.6-8.5c-7.7-6.4-9.2-7.7-11.5-6.6
		c-2.3,1.1-0.5,6-0.5,6s-7-6-8.9-3.3c-1.8,2.7,6.3,9.7,6.3,9.7s-6.4-3.9-7.8-1.3c-1.4,2.3,4.1,6.9,5.6,8.3c0,0-4.5-1.8-4.2,1.8
		c0.4,3.7,13.5,12.3,13.1,12c-0.3-0.3,4.7,4.5,10.1,8.6s17.9,10.3,19.7,7.2C319.4,455,326.4,441.4,326.4,441.4z"/>
	<path class="st9" d="M293.7,415.9c5.3,11.9,9.2,22.8,11,29.4l-4.1,1.8c-3.7-5.8-8.9-16-14.2-27.9c-5.3-12.3-9.5-23.2-11.2-29.9
		c0.1,0-0.3-0.8,1.7-1.6c1.8-0.7,2.2-0.1,2.3-0.1C282.9,393.2,288.3,403.6,293.7,415.9z"/>
	<path class="st10" d="M275.9,391.4L275.9,391.4c-0.5,0.1-0.9,0.4-1.1,0.6c-0.3,0.5,5,14,6.5,17c2.2,4.6,3.8,4.9,2.9,10.3
		c0,0-10.7-27.3-10.7-27.6c0.1-1.1,1.2-1.5,2.1-1.8l4.2-1.8c0.3,0.5,0.6,0.8,0.8,1.3l-4,1.8L275.9,391.4z"/>
	<path class="st11" d="M294.8,418.2c0.2,0.5,0.4,0.9,0.6,1.4l-7.3,3.2c-0.2-0.5-0.5-0.9-0.6-1.4L294.8,418.2z"/>
	<path class="st11" d="M304.7,445.2c0.7,2.8,1.1,4.9,1,5.9l-1.3,0.6c-0.9-0.6-2.1-2.3-3.7-4.7L304.7,445.2z"/>
	<path class="st8" d="M319.6,433.5c-0.2-2.1-1-10.1-4-11.9c-3.8-2.2-26.7-10.1-26.1-5c0.4,3.8,1.5,4.3,6.3,6.7
		c4.8,2.3,10.1,3.5,10.1,3.5s-1.5,2.2-0.1,7.6c1.4,5.3,5.7,8.6,9.1,6.1C318.4,438,319.6,433.5,319.6,433.5z"/>
	<path class="st12" d="M422.6,393.3c1-4.8,33.2-14.5,31.8-14.1c-4.1,1-18.6,106.1-69.3,104.1c-51.6-2-75.4-21.3-75.4-21.3
		c3.9-7.1,6-10.5,12.6-21.8c21.5,4.7,65.8,13.8,67.6,13.6C397.8,449.6,407.7,421.5,422.6,393.3z"/>
	<polygon class="st13" points="507.3,373 508.6,359.8 460.3,366.9 457.3,384.8 	"/>
	<path class="st14" d="M531.9,553c-0.2,0,0.6,6.1,2.8,16.1c1.5,6.9,4.1,17.7,5.2,21.3l-12.5,229.7l-21.1-0.4
		c0,0-16.7-215.4-19.6-199.6s1.2,198.6,1.2,198.6l-20.3,1.2l-31.1-232.7l5.6-29.7C486.7,574.2,533.3,552.9,531.9,553z"/>
	<path class="st15" d="M534.7,569.2c-32.9,6.4-62.3,11.3-95.7,3.7l0.8-10.3c0,0,41.4,1.4,60.8-1.8c19.4-3.1,33.3-6.5,33.3-6.5
		L534.7,569.2z"/>
	<polygon class="st16" points="490.4,564.5 491.2,579.3 465.3,579.6 465.4,565 	"/>
	<path class="st17" d="M492.2,368.2c3.4,1.2,16.6,3.3,21,4.3c13.6,3,35.7,9.6,35.4,9.3c-0.3-0.4-6.3,112.6-12.1,173.5
		c-1.4,14.8-93.7,19.6-100.6,8.8s-13.4-171.9-13.4-171.9l39.1-18.4L492.2,368.2z"/>
	<path class="st18" d="M503.2,342.1c-0.5,3.3-0.5,31.4-0.5,31.4s-9.6,8.1-24.6,11.3c-15,3.1-19.1-0.5-19.1-0.5l7.7-29.7L503.2,342.1
		z"/>
	<path class="st19" d="M472.1,813.6c-0.5,1.5-4.8,7.4-8.2,9.9c-3.4,2.5-30.3,10.7-27.4,12.3c2.9,1.6,31.4,0,33.2,0.3
		c1.8,0.3,6-1.9,6.1-1.8c0,0,0,2.2,0.8,2.3c0.8,0.1,12.4,0.3,12.7-0.8c0.5-1.1,0.1-8.7-0.1-11.2c-0.3-2.5-2.4-8.2-2.4-8.2
		L472.1,813.6z"/>
	<path class="st19" d="M511.2,813c-0.5,1.5-4.8,7.4-8.2,9.9s-30.3,10.7-27.4,12.3c2.9,1.6,31.4,0,33.2,0.3s6-1.9,6.1-1.8
		c0,0,0,2.2,0.8,2.3c0.8,0.1,12.4,0.3,12.7-0.8c0.5-1.1,0.1-8.7-0.1-11.2c-0.3-2.5-2.4-8.2-2.4-8.2L511.2,813z"/>
	<path class="st20" d="M462.3,381.2c1.3-0.4,12.5,0.1,12.5,0.1s5.3,13.6,3.3,15.9c-2,2.3-7.4,7.1-8.1,7.1c-0.7,0-10.3,1.7-12-0.8
		C453.8,397,453.2,384,462.3,381.2z"/>
	<path class="st12" d="M463.6,380.7c-0.5,0.7-8.2,21.7-8.5,20.8s-6.4-22.5-6.4-22.5l11.6-12.2L463.6,380.7z"/>
	<path class="st20" d="M470.8,401.4c0,0.8,10.8,135.9,10.8,135.9s-16.2,31.1-16.2,29.4S450,534.6,450,534.6l7.3-132.6L470.8,401.4z"
		/>
	<path class="st12" d="M467.5,381.4c0.6,0.7,12.6,23.7,12.8,22.3c0.1-1.3,32.9-31.3,32.9-31.3l-4.7-12.6L467.5,381.4z"/>
	<path class="st21" d="M523.2,408c-2.4-14.1,21.4-26.1,25.5-26.1c5.6,0,17.2,100.6-11.3,114.5c-52.1,23.4-99.3,23.9-99.3,23.9
		c-0.4-11,4.9-27.7,4.9-27.7c29,1.3,67.8-12.2,78.5-20.4C526.7,467.9,526.3,442.3,523.2,408z"/>
	<path class="st22" d="M440.2,263.5c-1.1,0.4-8,9.8-8.8,21.2c-0.7,11.3,5.7,29.7,5.6,28.3c-0.1-1.3,10-43.1,10-43.1L440.2,263.5z"/>
	<path class="st8" d="M448.7,262.9c-7.1,10.3-17.7,14.2-14.8,40.2c-12.7,33.1,8,62.1,35.6,63.2c28.5,1.2,44.4-8.4,54.5-34.5
		c8.1-20.9,10.8-44.4,3.7-57.1C518.1,257.4,448.7,262.9,448.7,262.9z"/>
	<path class="st22" d="M523,322l-11.3-0.4c0,0,2.3-41.8,0.2-42.1c-9.1,2.8-66.9,30-95.5-15.4c26.4-10.2,24.3-17.8,47.7-24.1
		c17.8-4.2,65.5-1.8,67.3,24.7c19.1,14.5,20.7,53.3-13.5,79.3C523,334.7,522.1,332.7,523,322z"/>
	<path class="st8" d="M517.9,305.2c3.6-1.5,17.2-9.1,19.6,2.7c2.4,11.7-3.6,21-11.7,22.2c-8.1,1.2-7.7-6.9-7.7-6.9L517.9,305.2z"/>
	<path class="st23" d="M445,315.8c2.8,0,5-2.8,5-6.2s-2.2-6.2-5-6.2s-5,2.8-5,6.2S442.4,315.8,445,315.8z"/>
	<path class="st23" d="M485.7,319.2c2.8,0,5-2.8,5-6.2s-2.2-6.2-5-6.2c-2.8,0-5,2.8-5,6.2C480.7,316.4,482.9,319.2,485.7,319.2z"/>
	<path class="st24" d="M470.6,329.4c-1.7,1.5-5.4,2-7.3,1.8c-1.7-0.3-7-6-6.8-6.3l0,0c0,0,7.8-11.4,9.1-12.5
		c1.3-1.1-5.8,10.1-5.8,12c0,0.8,0.6,1.6,1.3,2.2C466.5,328,471.9,328.2,470.6,329.4z"/>
	<ellipse class="st25" cx="483.7" cy="311.5" rx="2.1" ry="2.7"/>
	<ellipse class="st25" cx="443.9" cy="307.7" rx="2.1" ry="2.7"/>
	<path class="st22" d="M498.3,299.1l-21.7-1.4c-1.5-0.1-2.7,1-2.8,2.5l0,0c-0.1,1.5,1,2.8,2.5,2.9l21.7,1.4c1.5,0.1,2.7-1,2.8-2.5
		l0,0C500.9,300.5,499.8,299.2,498.3,299.1z"/>
	<path class="st22" d="M457.2,296.1l-19.2-1.8c-1.5-0.1-2.8,1-2.8,2.5c0,1.5,1,2.7,2.5,2.9l19.2,1.8c1.5,0.1,2.8-1,2.8-2.5
		C459.8,297.5,458.7,296.2,457.2,296.1z"/>
	<path class="st26" d="M533.1,307.1c2.3,3.4-0.4,14-2.5,16c-2.1,1.9-6.7,3.8-7.6,1.3c-0.8-2.4-1.3-4.8-0.7-5.1
		c0.6-0.3,3.2-1.1,3-3.1c-0.3-2-0.3-2.7-2.3-3.3c-1.9-0.7-1.9-3-1.3-3.9C524,305.9,530.7,303.7,533.1,307.1z"/>
	<path class="st27" d="M455.1,343.2c-0.2-0.4-0.1-0.8,0.3-1.1c0.4-0.2,0.8-0.1,1.1,0.3c0.2,0.3,0.4,0.5,0.7,0.7
		c1.8,1.3,5.8,2.2,10.1,2.2c4.4,0,9.3-0.8,12.9-3c1.4-0.8,2.6-1.8,3.5-3c0.3-0.4,0.7-0.5,1.1-0.2c0.4,0.3,0.5,0.7,0.2,1.1
		c-1,1.4-2.4,2.6-4,3.5c-3.9,2.3-9,3.2-13.7,3.1c-4.7,0-9-1-11.2-2.5C455.7,344,455.4,343.7,455.1,343.2z"/>
	<path class="st28" d="M334.8,457.3c-2.8-1.7-38.6-35-38.6-35l30.4-40.3L364,440l-14.4,27.7L334.8,457.3z"/>
	<path class="st29" d="M364.6,505.6c3.3-0.6,77.6-18.4,77.6-18.4s-70.9-88.3-73.1-88.3c-2.2,0-72.9,23.4-72.9,23.4L364.6,505.6z"/>
	<path class="st8" d="M446.6,496.1C440,493.7,435,489,435,489c-0.4-0.3-9.9,2.3-10.6,2.6c0,0-8.7-5.6-18.6-9.2s-11.8-4.5-13.7-2.6
		s1.7,6.1,1.7,6.1s-9.1-3.5-10-0.3c-0.8,3.3,9.6,7.5,9.6,7.5s-7.7-1.6-8.3,1.5c-0.6,2.8,6.5,5.4,8.5,6.3c0,0-5.1-0.3-3.5,3.2
		c1.7,3.5,17.6,7.5,17.2,7.3c-0.4-0.1,26.7,13.1,31.1,1.2C440,508.2,446.6,496.1,446.6,496.1z"/>
	<path class="st30" d="M448.7,491.3c-1.7-0.3-9.7-0.1-9.7-0.1l-3.6,31.2l13.3,2.3l3-33.5L448.7,491.3z"/>
	<path class="st31" d="M449.9,510.8l-0.8,8.9c0.6-0.1,1.1-0.1,1.7-0.2c7.3-0.7,17.2-2,29-4.5c16.6-3.5,36.6-9.1,57.6-18.5
		c0.8-0.4,1.7-0.9,2.4-1.5c19.5-14,17.6-72.5,13.2-99.5c-0.2,5.5-0.7,13.4-1.8,22.7c-1.4,12.3-4.3,34.1-9.3,50.5
		c-3,9.9-6.8,17.7-11.5,20.3c-7,3.8-31.4,10.1-51.5,15c-12.7,3.1-23.8,5.6-27.6,6.5C450.4,510.7,449.9,510.8,449.9,510.8z"/>
	<polygon class="st32" points="449.2,519.6 449.9,510.8 439,511 438.7,511 436.7,511 436.2,515.6 435.4,522.4 448.7,524.7 	"/>
	<path class="st33" d="M434.6,272.3c-8.9-3.6-18.3-8-18.3-8c4.6,7.2,9.9,12.6,15.6,16.6c1,0.7,2,1.4,3,1.9c2.6,1.6,5.3,2.8,8,3.8
		c28.6,10.7,62.1-4.8,68.9-6.9c2.1,0.3-0.2,42.1-0.2,42.1l6.2-51.9c0,0-5.3-1.2-19.1-0.6c-13.7,0.6-21.4-3-21.4-3s14,10.1,8.8,9.7
		c-4.8-0.4-35-6.6-41-8.4c-0.6-0.2-0.9-0.3-1-0.3c0.1,0.1,0.4,0.3,0.7,0.6c2.9,2.3,12.3,10.1,13,10.3c0.8,0.4-2-0.3-9.7-1.3
		c-0.7-0.1-1.6-0.3-2.6-0.6c-1.8-0.5-3.9-1.2-6.1-2C437.9,273.6,436.3,272.9,434.6,272.3z"/>
</g>
<polygon class="st11" points="575.7,333.1 576.8,332.6 577.3,332.8 578,334.3 577.8,334.8 576.7,335.3 576.2,335.1 575.5,333.6 "/>
<g>
	<path class="st34" d="M191.9,620.8l119.4,2.7c4.7,0.1,8.4,4,8.3,8.7l-1.9,82.3c-0.1,4.7-4,8.4-8.7,8.3l-119.4-2.7
		c-4.7-0.1-8.4-4-8.3-8.7l1.9-82.3C183.4,624.4,187.2,620.7,191.9,620.8z"/>
	<path class="st35" d="M191.9,620.8l57.7,1.3l-4.7,30.8l-5.8-0.1l-4.3,59.2c0,0-0.2,4.2-0.5,9l-44.6-1c-4.7-0.1-8.4-4-8.3-8.7
		l1.9-82.3C183.4,624.4,187.2,620.7,191.9,620.8z"/>
	<path class="st8" d="M263.5,585.8c0.4,1.1,5.8,12.7,5.8,18.5c-0.2,5.8-13.4,9.2-19.2,8.6c-5.8-0.5-8.4-4-8.5-6.4s1.1-22.3,1.1-22.3
		L263.5,585.8z"/>
	<path class="st36" d="M185.7,620.4l39.1,1.2l0.4-16c0.1-2,1.6-3.6,3.4-3.6l47,1.1c1.8,0,3.3,1.7,3.2,3.7l-0.4,16l39.8,0.9
		c4.7,0.1,4.1,3.7,4,8.4c-0.5,8.5-1,17.9-1.3,22.1l-139.8-2.2C181,651.7,178.7,620.2,185.7,620.4L185.7,620.4z M231.6,621.7
		L231.6,621.7l40.2,0.9l0.3-10.1c0-1.3-1-2.4-2.2-2.5l-35.8-0.8c-1.3,0-2.2,1.1-2.2,2.3L231.6,621.7z"/>
	<path class="st8" d="M266.6,586.2c0.5-1.7,2-6.7-1.7-8.4c-3.7-1.7-17.4-0.9-18.4,2.5s1.9,7,5.7,7.9
		C255.9,589.2,266.6,586.2,266.6,586.2z"/>
	<path class="st8" d="M263,587c0.2,0.4,3.7,5.8,2.2,9.6c-1.4,3.8-6.6,12.4-9.8,10c-3.2-2.4,2.6-10.7,2.1-11.4
		c-0.5-0.7-7.3-4.3-6-5.8C252.8,587.7,263,587,263,587z"/>
	<path class="st37" d="M232.1,416.2c3.4-3.8,16-23.3,25.3-16.1c9.3,7.2,11.3,187,11.3,187s-29.5,4.6-27.5,0.1
		C243.2,582.6,232.1,416.2,232.1,416.2z"/>
	<path class="st38" d="M245.8,280.7c1.1,0.4,7.8,9.5,8.5,20.7c0.7,11.1-5.6,29-5.5,27.6c0.1-1.3-9.7-42-9.7-42L245.8,280.7z"/>
	<polygon class="st13" points="176.3,388.1 175,375.3 222,382.2 225,399.6 	"/>
	<path class="st39" d="M191,383.4c-3.3,1.2-16.2,3.2-20.5,4.2c-13.3,3-34.8,9.4-34.5,9.1c0.3-0.4,11.3,116.1,17,174.1
		c29.8,9.5,84.2,13,90.9,2.5c6.7-10.5,14.9-166.6,14.9-166.6l-38.1-18L191,383.4z"/>
	<path class="st18" d="M180.2,358.1c0.4,3.2,0.4,30.6,0.4,30.6s9.4,7.9,24,11c14.7,3.1,18.6-0.4,18.6-0.4l-7.5-29L180.2,358.1z"/>
	<path class="st19" d="M210.5,817.6c0.4,1.4,4.7,7.2,8,9.6s29.5,10.4,26.7,12c-2.8,1.5-30.7,0-32.4,0.3c-1.7,0.3-5.8-1.9-5.9-1.8
		c0,0,0,2.2-0.8,2.2c-0.8,0.1-12,0.3-12.4-0.8c-0.4-1.1-0.1-8.5,0.1-10.9c0.3-2.4,2.3-8,2.3-8L210.5,817.6z"/>
	<path class="st19" d="M172.5,817.1c0.4,1.4,4.7,7.2,8,9.6c3.3,2.4,29.5,10.4,26.7,12c-2.8,1.5-30.7,0-32.4,0.3
		c-1.7,0.3-5.8-1.9-5.9-1.8c0,0,0,2.2-0.8,2.2c-0.8,0.1-12,0.3-12.4-0.8c-0.4-1.1-0.1-8.5,0.1-10.9c0.3-2.4,2.3-8,2.3-8L172.5,817.1
		z"/>
	<path class="st14" d="M152.2,563.6c0.3,0-3.1,20.5-5.8,29l10.3,231.4l20.6-0.4c0,0,16.3-209.9,19.1-194.6s-1.2,193.6-1.2,193.6
		l19.8,1.2l29-236.2l-4-19.6C196.3,584.3,150.9,563.5,152.2,563.6z"/>
	<path class="st15" d="M163.4,576.2c38.7,11.4,73.7,4.8,73.8,2.3l0.5-10.9c-15.6,5.8-44.9,3.4-72.8-3.2L163.4,576.2z"/>
	<polygon class="st16" points="198.7,569.6 197.9,584 223.2,584.3 223.1,570 	"/>
	<path class="st40" d="M220.1,396.1c-1.3-0.4-12.2,0.1-12.2,0.1s-5.2,13.3-3.2,15.5c2,2.2,7.2,6.9,7.9,6.9s10.1,1.6,11.7-0.8
		C228.4,411.6,228.9,398.8,220.1,396.1z"/>
	<path class="st41" d="M218.9,395.7c0.4,0.7,8,21.1,8.3,20.3c0.3-0.8,6.2-21.9,6.2-21.9L222,382.2L218.9,395.7z"/>
	<path class="st40" d="M211.9,415.8c0,0.8-14.7,137.2-14.7,137.2s15.6,25.2,15.6,23.6s17.7-22,17.7-22l-5.4-138.2L211.9,415.8z"/>
	<path class="st8" d="M237.5,280.1c6.9,10.1,17.3,13.8,14.5,39.2c9.2,27.5-1.9,60.2-34.7,61.6c-27.8,1.2-43.2-8.2-53.1-33.6
		c-7.9-20.4-10.5-43.2-3.6-55.7C170,274.8,237.5,280.1,237.5,280.1z"/>
	<path class="st42" d="M254.2,348c-3.2,17.5-15.4,32-36.9,32.9c-24.8,1-39.8-6.4-49.8-26.2c0.3-1.3-2.2-5.9-1.9-9.2
		c0.4-3.2,4.2-8.9,4.2-8.9l2.2-3.2c0.7,0,3.9,4,3.9,4s6,16.5,11.6,21.3c5.6,4.8,7.4-6.4,13.8-7.6s31.9-3.9,35.4-0.8
		c3.5,3.1,3.2,5.7,10.1,3.1C250.9,351.8,253.1,349.5,254.2,348z"/>
	<path class="st38" d="M170,335.4c-1.1,3.8,6.6,5,6.1,2c-0.5-12.9-2.6-30.4,3.7-37.1c5.6-3.9,52.1,7.6,67.7-10.4s1.6-31.6,1.6-31.6
		c-17.9,19.6-63.7-4.8-83,10.3c-8.6,6.7-9.1,13.5-9.1,13.5c-30,3.8-14.5,71.6,13.1,77.3C165.2,350.1,165.4,340.1,170,335.4z"/>
	<path class="st23" d="M170.4,387.6c0,0,14.4,12.7,15.7,49.1s2,94.7-8.1,128.5s-9.6,35.7-9.6,35.7l-49.9-20.9c0,0,10.3-6,15.4-57.8
		c3.1-32.2-2.8-91.9-6.8-126.6c-0.4-3.3,6-3.5,18.5-4.6C152.2,390.2,160.5,389.3,170.4,387.6z"/>
	<path class="st23" d="M233.4,394.1c2.4,1.8,4,51.7,2.3,115.4c-1.7,63.7-10.8,80.7-1.4,78.9c9.4-2,19.6,4.2,19.6,1.4
		s4.2-72.3,8.9-125s-5.4-64.6-5.4-64.6L233.4,394.1z"/>
	<path class="st43" d="M186.2,436.7c-0.7-19-4.9-31.5-8.9-39.1c-1.4-2.9-2.9-5-4-6.6c-1.7-2.3-2.9-3.3-2.9-3.3
		c-9.9,1.7-18.2,2.5-24.8,3.1c0.4,0.9,1.6,2.5,3.4,4.4c6.9,7.4,21.4,19.9,20.1,20.1c-1.6,0.3-16.8,8.9-15.4,11.1
		c1.4,2.3,32.5,80.4,32.5,80.4C187.5,481.9,187,456.1,186.2,436.7z"/>
	<path class="st41" d="M215,396.3c-0.5,0.7-12.3,23.1-12.5,21.8c-0.1-1.3-32.1-30.5-32.1-30.5l4.6-12.3L215,396.3z"/>
	<path class="st43" d="M233.7,395c2.2,7,3.5,52.9,2,111c0,0,15.6-51.5,15.7-56.4c0.2-4.9-8.6-10.1-8.6-10.1s6.7-22.7,10.3-35.4
		c0.6-2.4,1.2-4.5,1.5-5.9l-21.3-4C233.4,394.1,233.6,394.5,233.7,395z"/>
	<path class="st8" d="M170.1,321.4c-3.5-1.4-16.8-8.9-19.2,2.6c-2.3,11.4,3.5,20.5,11.4,21.7s7.5-6.7,7.5-6.7L170.1,321.4z"/>
	<path class="st8" d="M248.2,472.2c6.5-2.3,12.1-7.2,12.1-7.2s18.2-15.1,20.5-11.3c2.3,3.7-8.7,12.4-8.7,12.4s6.2-3.6,15.9-7.2
		c9.7-3.5,11.5-4.4,13.4-2.5c1.9,1.9-1.6,5.9-1.6,5.9s8.9-3.4,9.7-0.3c0.8,3.2-9.4,7.3-9.4,7.3s7.5-1.5,8.1,1.4
		c0.5,2.7-6.3,5.3-8.3,6.1c0,0,4.9-0.3,3.4,3.1c-1.6,3.4-17.2,7.3-16.8,7.1s-6,2.7-12.7,4.9c-6.7,2.1-20.9,3.9-21.6,0.2
		C251.5,488.5,248.2,472.2,248.2,472.2z"/>
	<path class="st44" d="M148.1,421c2.3-13.8-15.9-27.7-19.9-27.7c-19,4.2-21.4,95.9,35.8,128.9c16.1,11.1,96.2-27.2,96.2-27.2
		c0.4-10.7-8.9-25.6-8.9-25.6c-16.5,7-70.6,27.8-77,22.3C165.7,477.8,153.1,454.9,148.1,421z"/>
	<path class="st23" d="M241.1,331.7c2.7,0,4.9-2.7,4.9-6s-2.2-6-4.9-6c-2.7,0-4.9,2.7-4.9,6S238.4,331.7,241.1,331.7z"/>
	<path class="st23" d="M201.4,335c2.7,0,4.9-2.7,4.9-6c0-3.3-2.2-6-4.9-6s-4.9,2.7-4.9,6C196.6,332.3,198.8,335,201.4,335z"/>
	<path class="st24" d="M217.3,341.4c1.2,1.9,4.6,3.4,6.4,3.6c1.6,0.2,7.9-4,7.8-4.2l0,0c0,0-4.8-13.1-5.7-14.6
		c-0.9-1.4,3.1,11.2,2.7,13.1c-0.2,0.8-0.9,1.3-1.6,1.8C221.4,341,216.4,339.8,217.3,341.4z"/>
	<ellipse class="st25" cx="203.5" cy="327.4" rx="2.1" ry="2.6"/>
	<ellipse class="st25" cx="242.2" cy="323.8" rx="2.1" ry="2.6"/>
	<path class="st38" d="M189.2,315.5l21.1-1.3c1.4-0.1,2.6,1,2.7,2.4l0,0c0.1,1.4-1,2.7-2.4,2.8l-21.1,1.3c-1.4,0.1-2.6-1-2.7-2.4
		l0,0C186.7,316.7,187.8,315.6,189.2,315.5z"/>
	<path class="st38" d="M229.2,312.4l18.7-1.7c1.4-0.1,2.7,1,2.7,2.4s-1,2.6-2.4,2.8l-18.7,1.7c-1.4,0.1-2.7-1-2.7-2.4
		S227.8,312.6,229.2,312.4z"/>
	<path class="st27" d="M231.6,352.9c-1.7,3.7-0.4,15.1-12.3,15.7c-11.9,0.6-11.2-14.3-11.2-14.3L231.6,352.9z"/>
	<path class="st26" d="M155.3,323.3c-2.2,3.3,0.4,13.7,2.4,15.6c2.1,1.9,6.6,3.7,7.4,1.3c0.8-2.3,1.3-4.7,0.7-4.9
		c-0.5-0.3-3.1-1.1-2.9-3.1c0.3-2,0.3-2.6,2.2-3.2c1.9-0.7,1.9-2.9,1.3-3.8C164.2,322.1,157.6,319.9,155.3,323.3z"/>
	<path class="st45" d="M227.1,357.7c1.1-0.7,0.9-3.1,0.6-4.7l-19.7,1.2c0,0-0.1,2.1,0.4,4.7C215,359,226,358.5,227.1,357.7z"/>
	<path class="st46" d="M120.5,401.7c-7.7,17.9-6.4,60.3,14.3,92.3c3.5,5.4,7.6,10.5,12.1,15.1c4.9,4.9,10.6,9.4,17,13
		c4,2.7,11.7,2.5,21.1,0.6c5.8-1.2,12.1-3,18.6-5c8.8-2.9,18-6.3,26.3-9.6c2-0.8,3.9-1.5,5.7-2.3l0,0c1-0.4,1.9-0.8,2.9-1.2
		c5.7-2.4,10.6-4.6,14.4-6.3c4.5-2.1,7.2-3.3,7.2-3.3c0-0.3,0-0.5,0-0.7c0-1.9-0.4-4-0.8-5.9c-1.5,0.5-3.5,1.3-5.8,2.2
		c-0.5,0.2-1,0.4-1.5,0.5c-11,4.1-76.6,29-84.6,23.5C140.8,496.2,120.8,432.7,120.5,401.7z"/>
	<path class="st47" d="M172.5,611.3l8.2-19.2c0,0,23.1,3.7,42,2.6c6-0.4,13-2.5,16.8-6.9c-1.7-0.1-3.4,0-5.1,0.4
		c-3.5,0.7-4.4-1.2-4.1-7.2c-2,0.4-4.2,0.7-6.9,1v2.2l-25.4-0.3l0.1-1.6c-7.5-0.4-15.6-1.5-23.9-3.4c-5.8,20.5-5.6,21.8-5.6,21.8
		l-21.8-9.2c-0.1,0.4-0.2,0.7-0.3,1l10.3,231.1v0.4l7.6-0.1l0.9-5.7l-12-215.3L172.5,611.3z"/>
	<path class="st47" d="M196.9,720.2c-0.6,50-1.8,101.8-1.8,102.6l0,0l9.9,0.5l0.1-4.8l1.3-98.2l0.9-68.1l0.4-31.2V621v-2.2l-2.7,2.2
		l-0.2,0.2l-9,7.3c0.2-0.1,0.3,0.2,0.4,0.8c0.5,2.9,0.8,11.2,0.9,22.9C197.5,669.6,197.3,694.7,196.9,720.2z"/>
	<path class="st48" d="M146.2,301.7c-0.3,1.2,1.7,11,2,8.9c0.3-2.1,4.2-16.1,7.6-20.3c3.4-4.2,4.2-5.2,3.9-4.3c-0.4,0.9,1,5.7,1,5.7
		s4-10.2,16.8-19.2c12.9-9,26.3-3.6,26.3-3.6s7.8,4.8,16.5-1.2c0.7-0.4,1.3-1,2-1.4c-20-0.6-43.7-7.5-56.2,2.2
		c-8.6,6.7-9.1,13.5-9.1,13.5c-18.3,2.3-19.7,28.1-11.9,49.4c0,0-2.1-13-1-20.7C145.1,303.2,146.4,300.5,146.2,301.7z"/>
	<path class="st49" d="M184.1,285.7c-9.7,8-11.1,16.4-11,17.2c0.1,0.8-1.3-5-1.3-5s-1.2,3.5-1.3,13.2c-0.1,6.5,0.7,16.7,1.3,22.8
		c0.3,3.1,0.5,5.1,0.5,5.1c1.8,0.5,4,0.2,3.7-1.4c-0.5-12.9-2.6-30.4,3.7-37.1c4.9-3.4,42.1,5.1,61.3-5.4c2-1.1,3.8-2.4,5.4-4
		c0.4-0.4,0.6-0.7,1-1.1c1-1.1,1.8-2.2,2.6-3.3c11.3-16.3-0.9-28.3-0.9-28.3s3.1,11.1-2.2,17.9c-2.6,3.4-5.3,5.2-7.5,6.4
		c-2.2,1.2-4,1.5-4.7,1.9c-0.7,0.5,0.3-2.2,1.2-4.4c0.5-1.3,1.1-2.5,1.1-2.5l-4.6,2.3l-15.1,7.6c0,0,0.7-1.1,2.3-4.2
		c0.6-1.2,1.3-2.6,1.9-3.9c0.9-2,1.6-3.7,1.6-3.7l-9.9,3.6l-18.1,6.7c0,0,1.6-3.4,3.1-6.1c0.9-1.7,1.8-3.1,2.2-3.3
		c0.7-0.4-2.9,0.4-8.6,3.8C189.5,281.7,186.9,283.5,184.1,285.7z"/>
</g>
<g>
	<polygon class="st50" points="589.8,143.1 489.9,143.1 489.9,218.1 489.9,233.9 505.2,218.1 589.8,218.1 	"/>
	<g>
		<g>
			<path class="st45" d="M538.6,205.4c-2.1-0.1-3.9-0.9-5.4-2.2c-1.7-1.4-2.6-3.3-2.6-5.4c-0.3-4-1.6-8.1-2.5-10.9
				c-4.9-3.9-7.5-9.9-7.1-16.1c0.8-10.4,9.8-18.1,20.1-17.3c10.4,0.8,18.1,9.8,17.3,20.1c-0.5,5.6-3.3,10.7-7.9,13.9
				c-1.4,3.8-2.3,7.3-2.5,10.4c-0.1,4.1-4,7.4-8.8,7.4C539.2,205.4,538.9,205.4,538.6,205.4z M541.2,155
				c-9.5-0.7-17.8,6.4-18.5,15.9c-0.5,5.8,2,11.3,6.6,15l0.2,0.1l0.1,0.2c1.1,2.9,2.4,7.3,2.7,11.6v0.1c0,1.6,0.7,3,2,4.2
				c1.4,1.2,3.2,1.8,5.1,1.8c3.9,0,7.2-2.7,7.3-6l0,0l0,0c0.3-3.3,1.2-7,2.7-11l0.1-0.3l0.2-0.1c4.3-3,7.1-7.7,7.4-12.9
				C557.8,164,550.6,155.7,541.2,155z"/>
		</g>
		<g>
			<polygon class="st45" points="535.2,199 532.7,178.4 537,182 539.6,179 541.9,181.8 545.9,178.4 543.5,199 541.9,198.8 
				543.9,182.1 541.7,184 539.6,181.4 537.1,184.1 534.7,182.1 536.7,198.8 			"/>
		</g>
		<g>
			
				<rect x="536.7" y="199.5" transform="matrix(6.688748e-03 -1 1 6.688748e-03 329.707 744.1605)" class="st45" width="5.4" height="13.3"/>
		</g>
		<g>
			
				<rect x="535.1" y="193.5" transform="matrix(6.759294e-03 -1 1 6.759294e-03 333.4526 740.3174)" class="st45" width="8.7" height="17.6"/>
		</g>
	</g>
</g>
<g>
	<polygon class="st50" points="65.9,161.8 166.4,161.8 166.4,237.3 166.4,253.1 151,237.3 65.9,237.3 	"/>
	<g>
		<path class="st45" d="M128.5,189.2c-0.4-0.4-0.9-0.9-1.6-1.3c-0.7-0.5-1.6-0.9-2.5-1.4c-1-0.4-2-0.8-3.1-1.1
			c-1.1-0.3-2.3-0.5-3.5-0.6v12.9l1.2,0.3c2.2,0.5,4.3,1.2,6.1,1.8c1.8,0.7,3.3,1.5,4.6,2.4c1.2,1,2.2,2.1,2.9,3.5
			c0.7,1.4,1,3.1,1,5.1c0,2.2-0.4,4.1-1.2,5.6c-0.8,1.6-1.9,2.9-3.3,3.9c-1.4,1-3,1.8-4.9,2.3s-3.8,0.8-6,0.8v6.5H115v-6.7
			c-3-0.2-5.8-0.8-8.5-1.8s-5.2-2.4-7.4-4.1l3.2-6c0.5,0.5,1.1,1,2,1.6c0.9,0.6,1.9,1.1,3,1.7c1.2,0.5,2.4,1,3.8,1.4
			c1.4,0.4,2.8,0.7,4.3,0.9V204c-0.2-0.1-0.5-0.2-0.8-0.2c-0.3-0.1-0.5-0.1-0.8-0.2c-2.2-0.6-4.1-1.2-5.8-1.9
			c-1.6-0.6-3-1.4-4.1-2.3c-1.1-0.9-1.9-2-2.5-3.2s-0.8-2.7-0.8-4.5c0-2,0.4-3.8,1.1-5.4c0.7-1.6,1.7-2.9,3-4.1
			c1.3-1.1,2.8-2,4.5-2.7c1.7-0.6,3.6-1,5.7-1.2V172h3.2v6.3c2.7,0.2,5.2,0.7,7.5,1.6c2.3,0.9,4.3,2,6,3.3L128.5,189.2z M108,190.8
			c0,1.7,0.6,3.1,1.8,3.9c1.2,0.9,3.1,1.7,5.6,2.3v-12.3c-2.5,0.1-4.4,0.7-5.6,1.8S108,189,108,190.8z M125.9,211.5
			c0-1.8-0.7-3.2-2.2-4.2c-1.5-0.9-3.5-1.8-6.1-2.5v12.3c2.7,0,4.7-0.5,6.1-1.5C125.2,214.7,125.9,213.4,125.9,211.5z"/>
	</g>
</g>
<g>
	<path class="st50" d="M383.1,225.4c-0.4-1.1-1-2.4-2.1-3.9c-1-1.6-2.2-3.1-3.7-4.7c-1.5-1.6-3.2-3.3-5.1-4.7
		c-1.9-1.6-4.1-2.9-6.3-4.1l-10.7,24.8l2.1,1.5c3.9,2.9,7.3,5.7,10.2,8.5c3,2.8,5.2,5.6,6.8,8.5c1.6,2.9,2.5,5.9,2.7,9.2
		c0.1,3.3-0.6,6.8-2.2,10.7c-1.9,4.2-4.2,7.6-7,9.9c-2.8,2.4-6,3.9-9.6,4.8c-3.6,0.8-7.3,1-11.3,0.4c-4-0.5-8.1-1.6-12.2-3.3
		l-5.4,12.6l-6.2-2.7l5.6-12.8c-5.6-2.9-10.6-6.4-15-10.5c-4.4-4.2-8-8.8-10.9-14l11.1-8.9c0.4,1.3,1.3,3,2.5,4.7
		c1.2,1.9,2.7,3.8,4.5,5.8c1.8,2,3.9,4,6.2,5.9s4.9,3.7,7.6,5.3l10.7-24.8c-0.4-0.4-0.9-0.7-1.3-1c-0.4-0.4-0.9-0.7-1.3-1
		c-3.8-3-7-5.7-9.6-8.3c-2.7-2.6-4.6-5.3-5.9-7.9c-1.3-2.7-2-5.4-2.1-8.2s0.6-5.9,2.1-9.3c1.7-3.9,3.9-7.1,6.5-9.6s5.7-4.2,9.1-5.4
		c3.4-1.1,7-1.6,10.9-1.4c3.9,0.2,7.9,1,12,2.4l5.2-12.2l6.2,2.7l-5.2,12.2c5,2.6,9.4,5.7,13.1,9.3c3.6,3.6,6.6,7.5,8.9,11.4
		L383.1,225.4z M342.1,211.5c-1.5,3.3-1.3,6.4,0.3,9.1c1.6,2.7,4.6,5.7,8.8,9l10.2-23.7c-5-1.9-9.1-2.3-12.3-1.3
		C345.9,205.8,343.6,208,342.1,211.5z M359.7,266.3c1.5-3.6,1.3-6.8-0.7-9.8c-2-3-5.3-6.3-9.7-9.9L339,270.3
		c5.2,2.2,9.5,2.9,13.1,2.2C355.6,271.9,358.1,269.8,359.7,266.3z"/>
</g>
<g id="Layer_3" class="st51">
	<g class="st52">
		<g>
			<path class="st53" d="M-719.7,1408.2l54.1,17.3c0,0,4.8-7.9-7.8-20.5l-41-13.5C-717.7,1401.9-719.7,1408.2-719.7,1408.2z"/>
			<g>
				<path class="st54" d="M-550.4,1109v-62.7h-110.4c0,0-2.1,136.7-8.4,180.9c-5,34.7-33.3,126.6-45.2,164.4l41,13.5
					c34.7-87.4,69.1-217.9,69.1-301.6l7.6,307.3h43.9L-550.4,1109z"/>
				<path class="st53" d="M-552.9,1410.8h-43.9l0.4,16.3h59.8C-536.6,1427.1-535.1,1417.6-552.9,1410.8z"/>
			</g>
		</g>
		<polygon class="st55" points="-671.5,1117.2 -671.5,1125.4 -546.8,1125.4 -546.9,1117.2 		"/>
		<path class="st56" d="M-701.3,943.5l2,0.4l42.1,8.1l19.6,3.8l14-96.6C-623.7,859.2-695.4,854.8-701.3,943.5z"/>
		<path class="st56" d="M-674.4,1120.3l13.1-244.2c0,0,16.5-18.4,56.9-18.4s53.9,31.6,53.9,65.3s6,197.3,6,197.3H-674.4z"/>
		<g>
			<path class="st57" d="M-616.6,854.4L-616.6,854.4c-2.5,0.1-23.8,1.5-23.8,21.7s21.5,50.7,24.1,53.7c2.6-2.9,23.8-33.5,23.8-53.7
				S-614,854.5-616.6,854.4z"/>
			<rect x="-629.8" y="931.9" class="st45" width="26.7" height="16"/>
			<line class="st57" x1="-616.3" y1="929.8" x2="-616.3" y2="934.1"/>
			<rect x="-626.8" y="936.2" class="st58" width="6.1" height="6.1"/>
			<rect x="-617.7" y="936.2" class="st55" width="12.6" height="1"/>
			<rect x="-617.7" y="938.7" class="st55" width="12.6" height="1"/>
			<rect x="-617.7" y="941.2" class="st55" width="12.6" height="1"/>
			<rect x="-617.7" y="943.8" class="st55" width="12.6" height="1"/>
			<rect x="-626.8" y="943.8" class="st58" width="6.1" height="1"/>
		</g>
		<path class="st59" d="M-564.2,1021.9h-58.1c-4.9,0-8.6-4.6-7.6-9.4l18.2-83.1c0.8-3.5,3.9-6.1,7.6-6.1h58.1c4.9,0,8.6,4.6,7.6,9.4
			l-18.2,83.1C-557.5,1019.4-560.6,1021.9-564.2,1021.9z"/>
		<path class="st60" d="M-668.1,979.8c0,0,4.7-11.3,10.9-27.8l-42.1-8.1c-7.4,54.2-2.4,67,16,67c19.5,0,77.5-5.1,77.5-5.1v-19.5
			L-668.1,979.8z"/>
		<g>
			<path class="st61" d="M-616.4,881.1L-616.4,881.1c-8.6,0-15.6-7-15.6-15.6v-26.7h31.1v26.7C-600.9,874.1-607.8,881.1-616.4,881.1
				z"/>
			<path class="st60" d="M-589.8,817.9c0,19.8-9.3,31-23.9,31c-14.6,0-29-11.2-29-31s0-40.6,26.4-40.6
				C-589.8,777.3-589.8,798.1-589.8,817.9z"/>
			<path class="st60" d="M-650.2,816.3c0,10.3,10.3,11.2,10.3,11.2v-17.9C-639.9,809.6-650.2,806-650.2,816.3z"/>
			<path class="st61" d="M-646.7,817.2c0,5.5,4.9,6,4.9,6v-9.6C-641.8,813.5-646.7,811.6-646.7,817.2z"/>
			<ellipse class="st45" cx="-626.1" cy="811.4" rx="3.6" ry="2.7"/>
			<ellipse class="st45" cx="-600.9" cy="811.4" rx="3.6" ry="2.7"/>
			<circle class="st59" cx="-625" cy="811.4" r="2.1"/>
			<circle class="st59" cx="-599.7" cy="811.4" r="2.1"/>
			<path class="st62" d="M-613.7,813.2v14.2C-602.3,827.5-613.7,813.2-613.7,813.2z"/>
			<path class="st45" d="M-607.6,832c-6.2,6.2-12.3,0-12.3,0H-607.6z"/>
			<path class="st57" d="M-622.2,807.3c0,0-3.9-2.9-7.9,0"/>
			<path class="st57" d="M-596.9,807.3c0,0-3.9-2.9-7.9,0"/>
			<circle class="st61" cx="-631.1" cy="824.4" r="7.6"/>
			<g>
				<path class="st61" d="M-595.4,816.8c-4.2,0-7.6,3.4-7.6,7.6s3.4,7.6,7.6,7.6c1.5,0,2.8-0.4,4-1.1c1-3.4,1.5-7.3,1.6-11.6
					C-591.2,817.7-593.2,816.8-595.4,816.8z"/>
			</g>
		</g>
		<path class="st60" d="M-609.1,987.5c0,0,25.6-11,28.5-7.2c2.9,3.7-6,6-6,6s18.8-1,18.4,2.3c-0.4,3.3-5.3,3.4-5.3,3.4
			s2.1,0.4,1.9,2.1c-0.2,1.7-3.7,2.2-3.7,2.7c3.3,1,1.3,4.2-2.7,3.7c3.2,2.3-0.1,4.1-5.9,4.4c-5.9,0.3-27.5,1.7-27.5,1.7"/>
		<path class="st60" d="M-574.8,954.9c0.1-3.3,18.5,0.5,18.5,0.5s-8.4-3.6-5-6.8c2.4-2.2,14.4,4.1,21.6,8.2c3.4,2,5.5,5.6,5.3,9.5
			l0,0c-0.2,6.7-6.4,11.5-12.9,10.1c-5.7-1.2-11.7-2.5-14.4-3.1c-5.7-1.2-8.7-3.4-5.2-5.2c-4-0.1-5.5-3.6-2.1-4.1
			c0-0.4-3.3-1.5-3.3-3.2s2.2-1.8,2.2-1.8S-574.9,958.3-574.8,954.9z"/>
		<path class="st53" d="M-648.1,808.2c0.7,2.8,3.2,5,6,4.8c1-0.1,2.1-0.4,2.9-1.3c3.1-3.1-0.7-26.3,24.2-23.6s17.5,14.8,25.9,13.1
			c8.4-1.6,2.7-13.1,2.7-13.1s7,2.9,8.6-2.7c1.6-5.6-6.5-8.3-6.5-8.3s6.6-2.3,5.4-8.4c-1.3-6.1-7.8-7.2-11.5-3.4
			c-3.7,3.7-22.1,3.8-32.4,1.6C-632.6,764.9-656.9,772.6-648.1,808.2z"/>
		<path class="st55" d="M-632,861.8c0,0,3.7,15.9,15.4,15.9s15.8-15.9,15.8-15.9s7.4,17.5-15.8,40.7
			C-639.2,879.6-632,861.8-632,861.8z"/>
		<polygon class="st54" points="-666.1,1082.8 -643.2,1059.8 -635.5,1067.5 -658.5,1090.4 		"/>
		<polygon class="st54" points="-550.4,1082.8 -573.3,1059.8 -581,1067.5 -558,1090.4 		"/>
		<line class="st57" x1="-666.1" y1="1082.8" x2="-643.2" y2="1059.8"/>
		<line class="st57" x1="-573.3" y1="1059.8" x2="-550.4" y2="1082.8"/>
	</g>
	<g class="st52">
		<g>
			<path class="st53" d="M-216.6,1433.2h55.7l0.4-15.2h-40.9C-217.9,1424.4-216.6,1433.2-216.6,1433.2z"/>
			<path class="st63" d="M-93,1247c-5.9-41.2-7.8-168.5-7.8-168.5h-102.8v58.4l2.3,281.1h40.9l7.1-286.2c0,77.9,32,199.5,64.3,280.9
				l37.9-13.5C-62.5,1363.4-88.4,1279.1-93,1247z"/>
			<path class="st53" d="M-89.1,1412.7c-11.8,11.8-7.3,19.1-7.3,19.1l50.4-16.1c0,0-2-6.3-5.2-16.4L-89.1,1412.7z"/>
		</g>
		<path class="st60" d="M-171.4,906.2c0,0-1.5,48.1,0,61.6c6.6,57.4-14.9,61.6-32.6,61.6s-70.2-4.6-70.2-4.6V1007l56.5-5.9
			C-217.8,1001.1-219.6,921.9-171.4,906.2z"/>
		<polygon class="st55" points="-209,1130.5 -209,1138.7 -96,1138.7 -96.1,1130.5 		"/>
		<path class="st64" d="M-93.6,1134.6l-6.8-179c0-28.8-23.1-52.4-51.9-52.7c-0.4,0-0.7,0-1.1,0c-37.6,0-50.2,29.4-50.2,60.8
			c0,31.4-7.3,170.4-7.3,170.4L-93.6,1134.6z"/>
		<path class="st60" d="M-140.3,903.5l3,17.6c5.6,33.2,15.3,65.4,27.9,96.6c22.7,56,22,116.8,22,116.8H-68
			C-68.1,901.2-140.3,903.5-140.3,903.5z"/>
		<path class="st64" d="M-225.5,985.3l63.6,12.3l9.5-94.5C-152.3,903-219.5,896.5-225.5,985.3z"/>
		<path class="st64" d="M-79.2,985.3l-63.6,12.3l-9.5-94.5C-152.3,903-85.1,896.5-79.2,985.3z"/>
		<path class="st63" d="M-158.4,984.2h29.1c0,0,1.2,26.7-14.2,26.7S-158.4,984.2-158.4,984.2z"/>
		<g>
			<path class="st57" d="M-160.1,899.7L-160.1,899.7c-2.5,0.1-23.8,1.5-23.8,21.7s21.5,50.7,24.1,53.7c2.6-2.9,23.8-33.5,23.8-53.7
				S-157.6,899.8-160.1,899.7z"/>
			<rect x="-173.3" y="977.2" class="st45" width="26.7" height="16"/>
			<line class="st57" x1="-159.9" y1="975.1" x2="-159.9" y2="979.4"/>
			<rect x="-170.4" y="981.5" class="st58" width="6.1" height="6.1"/>
			<rect x="-161.2" y="981.5" class="st55" width="12.6" height="1"/>
			<rect x="-161.2" y="984" class="st55" width="12.6" height="1"/>
			<rect x="-161.2" y="986.5" class="st55" width="12.6" height="1"/>
			<rect x="-161.2" y="989.1" class="st55" width="12.6" height="1"/>
			<rect x="-170.4" y="989.1" class="st58" width="6.1" height="1"/>
		</g>
		<path class="st56" d="M-263,1046.9h58.1c4.9,0,8.6-4.6,7.6-9.4l-18.2-83.1c-0.8-3.5-3.9-6.1-7.6-6.1h-58.1c-4.9,0-8.6,4.6-7.6,9.4
			l18.2,83.1C-269.7,1044.3-266.6,1046.9-263,1046.9z"/>
		<g>
			<path class="st61" d="M-162.3,930.3L-162.3,930.3c8.6,0,15.6-7,15.6-15.6V888h-31.1v26.7C-177.8,923.3-170.9,930.3-162.3,930.3z"
				/>
			<path class="st60" d="M-188.9,867.1c0,19.8,9.3,31,23.9,31c14.6,0,29-11.2,29-31s0-40.6-26.4-40.6
				C-188.9,826.5-188.9,847.3-188.9,867.1z"/>
			<path class="st60" d="M-128.5,865.5c0,10.3-10.3,11.2-10.3,11.2v-17.9C-138.8,858.8-128.5,855.2-128.5,865.5z"/>
			<path class="st61" d="M-132,866.4c0,5.5-4.9,6-4.9,6v-9.6C-136.9,862.8-132,860.9-132,866.4z"/>
			<ellipse class="st45" cx="-152.6" cy="860.6" rx="3.6" ry="2.7"/>
			<ellipse class="st45" cx="-177.8" cy="860.6" rx="3.6" ry="2.7"/>
			<circle class="st59" cx="-153.2" cy="860.3" r="2.1"/>
			<circle class="st59" cx="-178.5" cy="860.3" r="2.1"/>
			<path class="st45" d="M-158.8,881.2c-6.2,6.2-12.3,0-12.3,0H-158.8z"/>
			<path class="st62" d="M-165,862.4v14.2C-176.4,876.7-165,862.4-165,862.4z"/>
			<path class="st57" d="M-156.5,856.5c0,0,3.9-2.9,7.9,0"/>
			<path class="st57" d="M-181.8,856.5c0,0,3.9-2.9,7.9,0"/>
			<circle class="st61" cx="-147.6" cy="873.6" r="7.6"/>
			<g>
				<path class="st61" d="M-183.3,866c4.2,0,7.6,3.4,7.6,7.6s-3.4,7.6-7.6,7.6c-1.5,0-2.8-0.4-4-1.1c-1-3.4-1.5-7.3-1.6-11.6
					C-187.5,867-185.5,866-183.3,866z"/>
			</g>
		</g>
		<path class="st60" d="M-87,1133.1c0,0-7.2,26.9-3.1,29.3c4.1,2.3,5.1-6.8,5.1-6.8s1.7,18.7,4.9,17.9c3.2-0.9,2.7-5.7,2.7-5.7
			s0.7,2,2.3,1.6c1.7-0.5,1.7-3.9,2.1-4.1c1.5,3.1,4.4,0.7,3.3-3.2c2.7,2.8,4-0.7,3.5-6.5s-1.8-24.2-1.8-24.2"/>
		<path class="st60" d="M-257.6,996.9c-1.4-3-16.9,7.6-16.9,7.6s6.4-6.5,2-8.2c-3-1.2-11.7,9.3-16.7,15.9c-2.4,3.1-2.9,7.3-1.3,10.9
			l0,0c2.7,6.1,10.3,8.2,15.8,4.4c4.8-3.3,9.8-6.9,12.1-8.4c4.8-3.3,6.7-6.5,2.8-6.8c3.7-1.7,3.7-5.4,0.4-4.6
			c-0.2-0.4,2.5-2.6,1.8-4.2c-0.7-1.6-2.7-0.8-2.7-0.8S-256.2,999.9-257.6,996.9z"/>
		<path class="st54" d="M-154.5,824.7c-3.3-3-5.7-7-6.1-11.4c-0.3-3.5,0.3-7.6,4.4-10.2c8.2-5.1,33,5.6,28.6,21.3
			C-131.3,837.2-146,832.3-154.5,824.7z"/>
		<path class="st54" d="M-124.9,846.6c-1.2-28.1-34-42.8-56.8-26.4c-4.5,3.2-8,7.1-9.5,11.6c-7,22.2-12.5,20-10.3,27.6
			s14.4,5.4,17-7.1s28.5-3.1,41-15.6c0,14.2,7.4,29.7,15.9,21.2C-125.6,855.9-124.7,851.7-124.9,846.6z"/>
		<path class="st57" d="M-160.6,813.2c0,0,19.3-2,30.2,16.2"/>
		<path class="st55" d="M-177.9,908.4c0,0,3.7,15.9,15.4,15.9s15.8-15.9,15.8-15.9s7.4,17.5-15.8,40.7
			C-185,926.2-177.9,908.4-177.9,908.4z"/>
		<polygon class="st63" points="-200.7,1090.2 -181.6,1071.1 -175.2,1077.5 -194.3,1096.6 		"/>
		<polygon class="st63" points="-104.2,1090.2 -123.3,1071.1 -129.6,1077.5 -110.5,1096.6 		"/>
		<line class="st57" x1="-200.7" y1="1090.2" x2="-181.6" y2="1071.1"/>
		<line class="st57" x1="-104.2" y1="1090.2" x2="-123.3" y2="1071.1"/>
	</g>
	<g class="st52">
		<polygon class="st58" points="-470.6,1220.3 -336.4,1220.3 -336.4,1095.3 -455.4,1095.3 		"/>
		<g>
			<polygon class="st59" points="-399.2,1057.7 -455.6,1057.7 -453.3,1408.7 -410.6,1408.7 			"/>
			<path class="st53" d="M-453.3,1408.7c-18.8,7.3-17.3,17.3-17.3,17.3h59.4l0.6-17.3H-453.3z"/>
		</g>
		<g>
			<polygon class="st59" points="-351.1,1060.7 -399.2,1057.7 -387,1408.7 -344.2,1408.7 			"/>
			<path class="st53" d="M-344.2,1408.7H-387l0.8,17.3h59.3C-326.9,1426-325.4,1416-344.2,1408.7z"/>
		</g>
		<path class="st54" d="M-350.9,1072.4l-1.9-107c0,0,20.4-95.5-45.4-95.5c-33,0-52.5,16.1-51,57.2c1.6,46.1-4.9,145.3-4.9,145.3
			H-350.9z"/>
		<path class="st55" d="M-422.9,872.8c0,0-66.1,8.7-66.1,139.3c0,49.6,39.6,79,39.6,79l15.6-15.6c0,0-63.3-64.2,10.9-138.3V872.8z"
			/>
		<path class="st55" d="M-380.1,872.8c0,0,66.1,8.7,66.1,139.3c0,49.6-39.6,79-39.6,79l-15.6-15.6c0,0,63.3-64.2-10.9-138.3V872.8z"
			/>
		<g>
			<path class="st57" d="M-400.8,870.2L-400.8,870.2c-2.5,0.1-23.8,1.5-23.8,21.7s21.5,50.7,24.1,53.7c2.6-2.9,23.8-33.5,23.8-53.7
				C-376.7,871.7-398.3,870.3-400.8,870.2z"/>
			<rect x="-414" y="947.7" class="st45" width="26.7" height="16"/>
			<line class="st57" x1="-400.6" y1="945.6" x2="-400.6" y2="949.9"/>
			<rect x="-411.1" y="952" class="st58" width="6.1" height="6.1"/>
			<rect x="-401.9" y="952" class="st55" width="12.6" height="1"/>
			<rect x="-401.9" y="954.5" class="st55" width="12.6" height="1"/>
			<rect x="-401.9" y="957" class="st55" width="12.6" height="1"/>
			<rect x="-401.9" y="959.6" class="st55" width="12.6" height="1"/>
			<rect x="-411.1" y="959.6" class="st58" width="6.1" height="1"/>
		</g>
		<polyline class="st55" points="-420.1,872.2 -420.1,1220.3 -475.3,1220.3 -447.7,910.2 -422.9,872.8 		"/>
		<polyline class="st55" points="-380.1,872.8 -384.5,1220.3 -318.1,1220.3 -345.7,910.2 -380.1,872.8 		"/>
		<polygon class="st58" points="-420.1,1054 -430.1,874.8 -415.6,868 		"/>
		<path class="st58" d="M-368.6,970.1h24.5c0,0,1,26.7-12,26.7S-368.6,970.1-368.6,970.1z"/>
		<polygon class="st58" points="-382.4,1052.9 -370.1,875.9 -385.2,866.6 		"/>
		<g>
			<path class="st65" d="M-427.7,941.8c0,0-13.7,4.1-9.9-33.5c0,0,1.7-16.1,7.5-14.7c5.8,1.4,2.4,16.6,2.4,16.6
				c-6.6,37.2-18.6,29.6-18.6,29.6"/>
			<path class="st65" d="M-430.1,893.6c0,0-2.1-29.1,32.1-29.1s22.6,44.8,31.1,59.5"/>
			<circle class="st66" cx="-446.3" cy="939.7" r="2.2"/>
			<circle class="st66" cx="-366.8" cy="924" r="5.5"/>
			<circle class="st67" cx="-366.8" cy="924" r="2.9"/>
			<circle class="st66" cx="-427.4" cy="941.9" r="2.2"/>
		</g>
		<g>
			<path class="st61" d="M-400.5,893.5L-400.5,893.5c8.6,0,15.6-7,15.6-15.6v-26.7H-416V878C-416.1,886.6-409.1,893.5-400.5,893.5z"
				/>
			<path class="st60" d="M-427.1,830.3c0,19.8,9.3,31,23.9,31s29-11.2,29-31s0-40.6-26.4-40.6C-427.1,789.7-427.1,810.5-427.1,830.3
				z"/>
			<path class="st60" d="M-366.8,828.7c0,10.3-10.3,11.2-10.3,11.2V822C-377,822-366.8,818.5-366.8,828.7z"/>
			<path class="st61" d="M-370.2,829.6c0,5.5-4.9,6-4.9,6V826C-375.1,826-370.2,824.1-370.2,829.6z"/>
			<ellipse class="st45" cx="-390.8" cy="823.9" rx="3.6" ry="2.7"/>
			<ellipse class="st45" cx="-416.1" cy="823.9" rx="3.6" ry="2.7"/>
			<circle class="st59" cx="-390.6" cy="823.9" r="2.1"/>
			<circle class="st59" cx="-415.9" cy="823.9" r="2.1"/>
			<path class="st62" d="M-403.2,825.7v14.2C-414.6,839.9-403.2,825.7-403.2,825.7z"/>
			<path class="st57" d="M-397.1,844.4c0,0-6.2,3.2-12.3,0"/>
			<path class="st57" d="M-394.7,819.7c0,0,3.9-2.9,7.9,0"/>
			<path class="st57" d="M-420,819.7c0,0,3.9-2.9,7.9,0"/>
			<circle class="st61" cx="-385.9" cy="836.8" r="7.6"/>
			<g>
				<path class="st61" d="M-421.5,829.2c4.2,0,7.6,3.4,7.6,7.6s-3.4,7.6-7.6,7.6c-1.5,0-2.8-0.4-4-1.1c-1-3.4-1.5-7.3-1.6-11.6
					C-425.7,830.2-423.7,829.2-421.5,829.2z"/>
			</g>
		</g>
		<path class="st68" d="M-371.9,819.1c0,0-1.4,4.6-5.1,2.9c-3.7-1.6-3.2-21.4-23.7-22.7c-7.8,17.8-23.8,20.3-28.4,15.6
			s0.3-35,27.6-35C-374.2,780-366.8,801.9-371.9,819.1z"/>
		<polygon class="st58" points="-452.5,1089.5 -431.3,1068.4 -424.3,1075.5 -445.5,1096.6 		"/>
		<polygon class="st58" points="-346,1089.5 -367.1,1068.4 -374.1,1075.5 -353,1096.6 		"/>
		<polygon class="st53" points="-382.5,1066.2 -420.1,1066.2 -420.1,1072.4 -382.6,1072.4 		"/>
		<path class="st56" d="M-383.6,872.8l-1.3-1c0,14.9-15.6,19.8-15.6,19.8s-15.6-4.9-15.6-19.8l-1.3,1c-7.9,5.8-9.1,17.5-2,24.3
			c4.1,3.9,10.2,5.4,18.9-1c8.7,6.4,14.8,5,18.9,1C-374.5,890.3-375.8,878.6-383.6,872.8z"/>
		<line class="st57" x1="-431.3" y1="1068.4" x2="-452.5" y2="1089.5"/>
		<line class="st57" x1="-367.1" y1="1068.4" x2="-346" y2="1089.5"/>
		<path class="st68" d="M-385.6,849.9c0-4.8-3.9-8.7-8.7-8.7h-8.7h-0.5h-8.7c-4.8,0-8.7,3.9-8.7,8.7c0,9.7,7.8,17.7,17.5,17.8l0,0
			c0.1,0,0.2,0,0.2,0c0.1,0,0.2,0,0.2,0l0,0C-393.3,867.6-385.6,859.6-385.6,849.9z M-400.1,847.8h-2.9h-0.5h-2.9
			c0,0-5.1,0.3-5.1-2.9c0-2.1,2.4-2.5,8.2-2.5c5.8,0,8.2,0.5,8.2,2.5C-395,848.1-400.1,847.8-400.1,847.8z"/>
	</g>
</g>
</svg>
