<?xml version="1.0" encoding="utf-8"?>
<!-- Generator: Adobe Illustrator 21.0.0, SVG Export Plug-In . SVG Version: 6.00 Build 0)  -->
<svg version="1.1" id="Layer_1" xmlns="http://www.w3.org/2000/svg" xmlns:xlink="http://www.w3.org/1999/xlink" x="0px" y="0px"
	 viewBox="0 0 1400 934" style="enable-background:new 0 0 1400 934;" xml:space="preserve">
<style type="text/css">
	.st0{fill:#1992A5;}
	.st1{opacity:0.83;}
	.st2{fill:#B5E3F4;}
	.st3{opacity:0.42;fill:#0782AD;enable-background:new    ;}
	.st4{fill:#80B7B6;}
	.st5{fill:url(#SVGID_1_);}
	.st6{fill:#E0E8EE;}
	.st7{fill:#4DEF54;}
	.st8{fill:#ABA6A4;}
	.st9{fill:#28282B;}
	.st10{fill:#242424;}
	.st11{fill:#FAD9C7;}
	.st12{fill:#1B1B1B;}
	.st13{fill:#353333;}
	.st14{fill:#772E1E;}
	.st15{fill:#88898B;}
	.st16{fill:#C8C9CA;}
	.st17{fill:#F8CAB2;}
	.st18{fill:#2C2B2B;}
	.st19{fill:#302E2E;}
	.st20{fill:#3D3E3D;}
	.st21{fill:#888888;}
	.st22{fill:#E7373E;}
	.st23{fill:#B4B5B5;}
	.st24{fill:#F5B390;}
	.st25{fill:#3E3A39;}
	.st26{fill:#444443;}
	.st27{fill:#424040;}
	.st28{fill:#EAAA85;}
	.st29{fill:#EEEEEF;}
	.st30{fill:#CF6743;}
	.st31{fill:#F3A780;}
	.st32{fill:#FFFFFF;}
	.st33{fill:#3A3B3B;}
	.st34{fill:#2A2727;}
	.st35{fill:#823A2C;}
	.st36{fill:#6C281A;}
	.st37{fill:#3F392C;}
	.st38{fill:#85827F;}
	.st39{fill:#DADDDC;}
	.st40{fill:#E7E8EA;}
	.st41{fill:#203450;}
	.st42{fill:#F0F1F1;}
	.st43{fill:#231916;}
	.st44{fill:#F9CFA0;}
	.st45{fill:#F5AC5F;}
	.st46{fill:#CED0D0;}
	.st47{fill:#E1DFDE;}
	.st48{fill:#C6C5C6;}
	.st49{fill:#312424;}
	.st50{fill:#FFD800;}
	.st51{display:none;}
	.st52{display:inline;}
	.st53{fill:#3E495D;}
	.st54{fill:#2871CB;}
	.st55{fill:#FFF4F2;}
	.st56{fill:#4580D1;}
	.st57{fill:none;stroke:#212237;stroke-width:0.6206;stroke-miterlimit:10;}
	.st58{fill:#FFE0D8;}
	.st59{fill:#212237;}
	.st60{fill:#FFC7C8;}
	.st61{fill:#FFB1AE;}
	.st62{fill:#FF9899;}
	.st63{fill:#FC99BA;}
	.st64{fill:#FFABC3;}
	.st65{fill:none;stroke:#FF5F5C;stroke-width:1.5516;stroke-miterlimit:10;}
	.st66{fill:#1B2C1F;}
	.st67{fill:#E9E8E6;}
	.st68{fill:#FF5F5C;}
</style>
<g id="Layer_1_1_">
	<rect class="st0" width="1400" height="934"/>
</g>
<g class="st1">
	<path class="st2" d="M223.2,517.1c-50.7,14.7-86.1,125.5-31.2,179c45.4,44.4-165.3,176.3,117,170.5c57.2-1.1,730,8.4,748.7-11.1
		c108.3,2.9,318.3-47.4,221.9-191.2c-40.7-60.7,18.4-117.6-8.5-172.4c-27.8-57-93.6-20-125.5-71.4c-38.5-62.1,43.2-124.2-23.3-181.7
		c-33.9-29.3-139.7,18.6-163.8-31.4c-29.4-60.7-95.9-211.2-212.8-105c-91.5,83.1-214.4-46.1-287.4,55.5
		c-39.3,54.8-4.9,78.2-36.9,119.3c-42,53.9-103.1,18.3-129.9,49.8C245.8,380.8,351.7,479.9,223.2,517.1L223.2,517.1z"/>
</g>
<path class="st3" d="M1038.1,773.3c9.1-2.4,13.9-4.8,13.9-7.4c0-15.8-185.8-28.7-415-28.7S222,750,222,765.9
	c0,8.5,53.2,16.1,137.8,21.3c-23.9,6.4-37.2,13.5-37.2,21c0,28,185.8,50.8,415,50.8s415-22.7,415-50.8
	C1152.6,794.8,1109,782.4,1038.1,773.3z"/>
<g>
	<g>
		<path class="st4" d="M732.7,617.6L732.7,617.6c102.8,0,186.1-83.3,186.1-186.1V311.2c0-102.8-83.3-186.1-186.1-186.1l0,0
			c-102.8,0-186.1,83.3-186.1,186.1v120.3C546.6,534.2,629.9,617.6,732.7,617.6z"/>
	</g>
	
		<linearGradient id="SVGID_1_" gradientUnits="userSpaceOnUse" x1="774.05" y1="1562.8795" x2="774.05" y2="1386.6335" gradientTransform="matrix(1 0 0 -1 0 1501)">
		<stop  offset="0" style="stop-color:#E0E8EE"/>
		<stop  offset="1" style="stop-color:#FCF8F4"/>
	</linearGradient>
	<path class="st5" d="M978.4,55.7c-81.2,5.2-82.7,97.5-82.7,97.5v439.5h-326V153.2c0,0-0.4-92,83.1-97.5
		C652.8,55.7,978.4,55.7,978.4,55.7z"/>
	<rect x="612.5" y="170.5" class="st6" width="223.9" height="19.8"/>
	<rect x="612.5" y="216.2" class="st6" width="191.2" height="14"/>
	<rect x="612.5" y="253.1" class="st6" width="96.1" height="20.8"/>
	<rect x="612.5" y="293.1" class="st6" width="153.1" height="14.8"/>
	<rect x="612.5" y="330.2" class="st6" width="172.5" height="8.2"/>
	<rect x="612.5" y="367.2" class="st6" width="207.4" height="8.2"/>
	<g>
		<path class="st6" d="M709.3,450.2h-97.4v-46.6h97.4V450.2z M613.2,448.9H708v-44h-94.8V448.9z"/>
	</g>
	<g>
		<path class="st7" d="M862.5,537.1h-61.4v-61.4h61.4V537.1z M806.8,531.4h49.9v-49.9h-49.9V531.4z"/>
	</g>
	<g>
		<polygon class="st7" points="832.7,519.3 811.1,498.9 817.7,491.9 833.2,506.5 866.9,478.7 873,486.1 		"/>
	</g>
</g>
<polygon class="st8" points="680.7,333.1 681.8,332.6 682.3,332.8 683,334.3 682.8,334.8 681.7,335.3 681.2,335.1 680.5,333.6 "/>
<g>
	<path class="st9" d="M509.9,573.3l132.8,3c5.2,0.1,9.3,4.5,9.2,9.7l-2.1,91.5c-0.1,5.2-4.5,9.3-9.7,9.2l-132.8-3
		c-5.2-0.1-9.3-4.5-9.2-9.7l2.1-91.5C500.4,577.3,504.7,573.2,509.9,573.3z"/>
	<path class="st10" d="M509.9,573.3l64.2,1.5l-5.2,34.3l-6.5-0.1l-4.8,65.8c0,0-0.2,4.7-0.6,10l-49.6-1.1c-5.2-0.1-9.3-4.5-9.2-9.7
		l2.1-91.5C500.4,577.3,504.7,573.2,509.9,573.3z"/>
	<path class="st11" d="M589.5,534.4c0.5,1.2,6.5,14.1,6.4,20.6c-0.2,6.5-14.9,10.2-21.4,9.6c-6.5-0.6-9.3-4.5-9.5-7.1
		s1.2-24.8,1.2-24.8L589.5,534.4z"/>
	<path class="st12" d="M503,572.8l43.5,1.3l0.4-17.8c0.1-2.2,1.8-4,3.8-4l52.3,1.2c2,0,3.7,1.9,3.6,4.1l-0.4,17.8l44.3,1
		c5.2,0.1,4.6,4.1,4.5,9.3c-0.6,9.5-1.1,19.9-1.5,24.6L498,607.9C497.8,607.7,495.2,572.6,503,572.8L503,572.8z M554,574.3
		L554,574.3l44.7,1l0.3-11.2c0-1.5-1.1-2.7-2.4-2.8l-39.8-0.9c-1.4,0-2.5,1.2-2.5,2.6L554,574.3z"/>
	<path class="st11" d="M593,534.8c0.6-1.9,2.2-7.4-1.9-9.3c-4.1-1.9-19.4-1-20.5,2.8s2.1,7.8,6.3,8.8S593,534.8,593,534.8z"/>
	<path class="st11" d="M589,535.7c0.2,0.5,4.1,6.5,2.5,10.7s-7.3,13.8-10.9,11.1c-3.6-2.7,2.9-11.9,2.3-12.7
		c-0.6-0.8-8.1-4.8-6.7-6.5C577.6,536.5,589,535.7,589,535.7z"/>
	<path class="st13" d="M554.6,345.7c3.8-4.2,17.8-25.9,28.1-17.9s12.6,208,12.6,208s-32.8,5.1-30.6,0.1
		C566.9,530.8,554.6,345.7,554.6,345.7z"/>
	<path class="st14" d="M569.8,195c1.2,0.4,8.7,10.6,9.5,23c0.8,12.3-6.2,32.2-6.1,30.7c0.1-1.4-10.8-46.7-10.8-46.7L569.8,195z"/>
	<polygon class="st15" points="492.5,314.5 491.1,300.2 543.4,307.9 546.7,327.3 	"/>
	<path class="st16" d="M508.9,309.3c-3.7,1.3-18,3.6-22.8,4.7c-14.8,3.3-38.7,10.4-38.4,10.1c0.3-0.4,12.6,129.1,18.9,193.6
		c33.1,10.6,93.6,14.5,101.1,2.8s16.6-185.3,16.6-185.3l-42.4-20L508.9,309.3z"/>
	<path class="st17" d="M496.9,281.1c0.5,3.6,0.5,34,0.5,34s10.4,8.8,26.7,12.2c16.3,3.4,20.7-0.5,20.7-0.5l-8.3-32.2L496.9,281.1z"
		/>
	<path class="st18" d="M530.6,792.2c0.5,1.6,5.2,8,8.9,10.7s32.8,11.6,29.7,13.3s-34.1,0-36,0.3s-6.5-2.1-6.6-2c0,0,0,2.4-0.9,2.5
		s-13.4,0.3-13.8-0.9c-0.5-1.2-0.1-9.4,0.1-12.1c0.3-2.7,2.6-8.9,2.6-8.9L530.6,792.2z"/>
	<path class="st18" d="M488.3,791.6c0.5,1.6,5.2,8,8.9,10.7c3.7,2.7,32.8,11.6,29.7,13.3c-3.1,1.7-34.1,0-36,0.3s-6.5-2.1-6.6-2
		c0,0,0,2.4-0.9,2.5s-13.4,0.3-13.8-0.9c-0.5-1.2-0.1-9.4,0.1-12.1c0.3-2.7,2.6-8.9,2.6-8.9L488.3,791.6z"/>
	<path class="st19" d="M465.8,509.7c0.3,0-3.5,22.8-6.5,32.3l11.4,257.4l22.9-0.4c0,0,18.1-233.5,21.2-216.4
		c3.1,17.1-1.3,215.3-1.3,215.3l22,1.3l32.2-262.7l-4.5-21.8C514.8,532.7,464.3,509.6,465.8,509.7z"/>
	<path class="st20" d="M478.2,523.7c43,12.7,82,5.3,82.1,2.6l0.6-12.1c-17.4,6.4-49.9,3.8-81-3.6L478.2,523.7z"/>
	<polygon class="st21" points="517.5,516.3 516.6,532.4 544.7,532.7 544.6,516.8 	"/>
	<path class="st22" d="M541.3,323.4c-1.4-0.4-13.6,0.1-13.6,0.1s-5.8,14.8-3.6,17.2c2.2,2.5,8,7.7,8.8,7.7s11.2,1.8,13-0.9
		C550.5,340.6,551.1,326.4,541.3,323.4z"/>
	<path class="st23" d="M539.9,322.9c0.5,0.8,8.9,23.5,9.2,22.6s6.9-24.4,6.9-24.4l-12.6-13.2L539.9,322.9z"/>
	<path class="st22" d="M532.1,345.3c0,0.9-16.3,152.6-16.3,152.6s17.4,28,17.4,26.2s19.7-24.5,19.7-24.5l-6-153.7L532.1,345.3z"/>
	<path class="st11" d="M560.6,194.4c7.7,11.2,19.2,15.4,16.1,43.6c10.2,30.6-2.1,67-38.6,68.5c-30.9,1.3-48.1-9.1-59.1-37.4
		c-8.8-22.7-11.7-48.1-4-61.9C485.5,188.5,560.6,194.4,560.6,194.4z"/>
	<path class="st24" d="M579.2,269.9c-3.6,19.5-17.1,35.6-41,36.6c-27.6,1.1-44.3-7.1-55.4-29.1c0.3-1.5-2.5-6.6-2.1-10.2
		s4.7-9.9,4.7-9.9l2.5-3.6c0.8,0,4.3,4.5,4.3,4.5s6.7,18.4,12.9,23.7c6.2,5.3,8.2-7.1,15.3-8.4c7.1-1.3,35.5-4.3,39.4-0.9
		s3.6,6.3,11.2,3.4C575.5,274.1,578,271.6,579.2,269.9z"/>
	<path class="st14" d="M485.5,255.9c-1.2,4.2,7.3,5.6,6.8,2.2c-0.6-14.3-2.9-33.8,4.1-41.3c6.2-4.3,57.9,8.4,75.3-11.6
		s1.8-35.2,1.8-35.2c-19.9,21.8-70.9-5.3-92.3,11.4c-9.6,7.5-10.1,15-10.1,15c-33.4,4.2-16.1,79.6,14.6,86
		C480.2,272.2,480.4,261.1,485.5,255.9z"/>
	<path class="st25" d="M486,313.9c0,0,16,14.1,17.5,54.6s2.2,105.3-9,142.9s-10.7,39.7-10.7,39.7l-55.5-23.3c0,0,11.4-6.7,17.1-64.3
		c3.5-35.8-3.1-102.2-7.6-140.8c-0.4-3.7,6.7-3.9,20.6-5.1C465.8,316.8,475,315.8,486,313.9z"/>
	<path class="st25" d="M556,321.1c2.7,2,4.5,57.5,2.6,128.3s-12,89.8-1.6,87.7c10.4-2.2,21.8,4.7,21.8,1.6c0-3.1,4.7-80.4,9.9-139
		s-6-71.8-6-71.8L556,321.1z"/>
	<path class="st26" d="M503.6,368.5c-0.8-21.1-5.5-35-9.9-43.5c-1.6-3.2-3.2-5.6-4.5-7.3c-1.9-2.6-3.2-3.7-3.2-3.7
		c-11,1.9-20.2,2.8-27.6,3.5c0.4,1,1.8,2.8,3.8,4.9c7.7,8.2,23.8,22.1,22.4,22.3c-1.8,0.3-18.7,9.9-17.1,12.4
		c1.6,2.6,36.1,89.4,36.1,89.4C505,418.8,504.4,390.1,503.6,368.5z"/>
	<path class="st23" d="M535.6,323.6c-0.6,0.8-13.7,25.7-13.9,24.2c-0.1-1.4-35.7-33.9-35.7-33.9l5.1-13.7L535.6,323.6z"/>
	<path class="st26" d="M556.4,322.1c2.4,7.8,3.9,58.8,2.2,123.4c0,0,17.3-57.3,17.5-62.7s-9.6-11.2-9.6-11.2s7.5-25.2,11.4-39.4
		c0.7-2.7,1.3-5,1.7-6.6l-23.7-4.5C556.1,321.2,556.3,321.6,556.4,322.1z"/>
	<path class="st11" d="M485.7,240.3c-3.9-1.6-18.7-9.9-21.3,2.9c-2.6,12.7,3.9,22.8,12.7,24.1c8.8,1.3,8.3-7.5,8.3-7.5L485.7,240.3z
		"/>
	<path class="st11" d="M572.5,408c7.2-2.6,13.5-8,13.5-8s20.2-16.8,22.8-12.6c2.6,4.1-9.7,13.8-9.7,13.8s6.9-4,17.7-8
		c10.8-3.9,12.8-4.9,14.9-2.8c2.1,2.1-1.8,6.6-1.8,6.6s9.9-3.8,10.8-0.3c0.9,3.6-10.4,8.1-10.4,8.1s8.3-1.7,9,1.6
		c0.6,3-7,5.9-9.2,6.8c0,0,5.5-0.3,3.8,3.5c-1.8,3.8-19.1,8.1-18.7,7.9c0.4-0.2-6.7,3-14.1,5.4c-7.4,2.3-23.2,4.3-24,0.2
		C576.2,426.1,572.5,408,572.5,408z"/>
	<path class="st27" d="M461.2,351.1c2.6-15.3-17.7-30.8-22.1-30.8C418,325,415.3,427,478.9,463.7c17.9,12.4,107-30.3,107-30.3
		c0.4-11.9-9.9-28.5-9.9-28.5c-18.4,7.8-78.5,30.9-85.6,24.8C480.8,414.2,466.7,388.8,461.2,351.1z"/>
	<path class="st25" d="M564.6,251.8c3,0,5.4-3,5.4-6.7s-2.4-6.7-5.4-6.7s-5.4,3-5.4,6.7C559.2,248.8,561.6,251.8,564.6,251.8z"/>
	<path class="st25" d="M520.5,255.4c3,0,5.4-3,5.4-6.7s-2.4-6.7-5.4-6.7s-5.4,3-5.4,6.7S517.6,255.4,520.5,255.4z"/>
	<path class="st28" d="M538.2,262.5c1.3,2.1,5.1,3.8,7.1,4c1.8,0.2,8.8-4.4,8.7-4.7l0,0c0,0-5.3-14.6-6.3-16.2
		c-1-1.6,3.5,12.5,3,14.6c-0.2,0.9-1,1.5-1.8,2C542.7,262.1,537.1,260.8,538.2,262.5z"/>
	<ellipse class="st29" cx="522.8" cy="247" rx="2.3" ry="2.9"/>
	<ellipse class="st29" cx="565.8" cy="243" rx="2.3" ry="2.9"/>
	<path class="st14" d="M506.9,233.7l23.5-1.5c1.6-0.1,2.9,1.1,3,2.7l0,0c0.1,1.6-1.1,3-2.7,3.1l-23.5,1.5c-1.6,0.1-2.9-1.1-3-2.7
		l0,0C504.1,235.1,505.3,233.8,506.9,233.7z"/>
	<path class="st14" d="M551.4,230.3l20.8-1.9c1.6-0.1,3,1.1,3,2.7c0,1.6-1.1,2.9-2.7,3.1l-20.8,1.9c-1.6,0.1-3-1.1-3-2.7
		C548.7,231.8,549.8,230.5,551.4,230.3z"/>
	<path class="st30" d="M554,275.3c-1.9,4.1-0.5,16.8-13.7,17.5s-12.5-15.9-12.5-15.9L554,275.3z"/>
	<path class="st31" d="M469.2,242.4c-2.5,3.7,0.4,15.2,2.7,17.3c2.3,2.1,7.3,4.1,8.2,1.4c0.9-2.6,1.4-5.2,0.8-5.5s-3.5-1.2-3.2-3.4
		s0.3-2.9,2.5-3.6c2.1-0.8,2.1-3.2,1.4-4.2C479.1,241.1,471.7,238.6,469.2,242.4z"/>
	<path class="st32" d="M549,280.7c1.2-0.8,1-3.4,0.7-5.2l-21.9,1.3c0,0-0.1,2.3,0.5,5.2C535.6,282.1,547.8,281.6,549,280.7z"/>
	<path class="st33" d="M430.5,329.6c-8.6,19.9-7.1,67.1,15.9,102.7c3.9,6,8.4,11.7,13.5,16.8c5.5,5.5,11.8,10.4,18.9,14.5
		c4.4,3,13,2.8,23.5,0.7c6.4-1.3,13.5-3.3,20.7-5.6c9.8-3.2,20-7,29.2-10.7c2.2-0.9,4.3-1.7,6.3-2.6l0,0c1.1-0.4,2.1-0.9,3.2-1.3
		c6.3-2.7,11.8-5.1,16-7c5-2.3,8-3.7,8-3.7c0-0.3,0-0.6,0-0.8c0-2.1-0.4-4.4-0.9-6.6c-1.7,0.6-3.9,1.5-6.5,2.5
		c-0.6,0.2-1.1,0.4-1.7,0.6c-12.2,4.6-85.2,32.3-94.1,26.1C453.1,434.7,430.8,364.1,430.5,329.6z"/>
	<path class="st34" d="M488.3,562.7l9.1-21.3c0,0,25.7,4.1,46.7,2.9c6.7-0.4,14.5-2.8,18.7-7.7c-1.9-0.1-3.8,0-5.7,0.4
		c-3.9,0.8-4.9-1.3-4.6-8c-2.2,0.4-4.7,0.8-7.7,1.1v2.5l-28.2-0.3l0.1-1.8c-8.3-0.5-17.3-1.7-26.6-3.8c-6.5,22.8-6.2,24.3-6.2,24.3
		l-24.2-10.2c-0.1,0.4-0.2,0.8-0.3,1.1l11.4,257v0.4l8.5-0.1l1-6.3L467,553.4L488.3,562.7z"/>
	<path class="st34" d="M515.5,683.8c-0.7,55.6-2,113.2-2,114.1l0,0l11,0.6l0.1-5.3L526,684l1-75.7l0.5-34.7v-0.1V571l-3,2.4
		l-0.2,0.2l-10,8.1c0.2-0.1,0.3,0.2,0.4,0.9c0.6,3.2,0.9,12.5,1,25.5C516.1,627.6,515.9,655.5,515.5,683.8z"/>
	<path class="st35" d="M459.1,218.4c-0.3,1.3,1.9,12.2,2.2,9.9c0.3-2.3,4.7-17.9,8.4-22.6c3.8-4.7,4.7-5.8,4.3-4.8
		c-0.4,1,1.1,6.3,1.1,6.3s4.4-11.3,18.7-21.3c14.3-10,29.2-4,29.2-4s8.7,5.3,18.4-1.3c0.8-0.5,1.5-1.1,2.2-1.6
		c-22.2-0.7-48.6-8.3-62.5,2.5c-9.6,7.5-10.1,15-10.1,15c-20.3,2.6-21.9,31.3-13.2,54.9c0,0-2.3-14.5-1.1-23
		C457.9,220.1,459.3,217.1,459.1,218.4z"/>
	<path class="st36" d="M501.2,200.6c-10.8,8.9-12.3,18.2-12.2,19.1c0.1,0.9-1.4-5.6-1.4-5.6s-1.3,3.9-1.4,14.7
		c-0.1,7.2,0.8,18.6,1.5,25.4c0.3,3.4,0.6,5.7,0.6,5.7c2,0.6,4.4,0.2,4.1-1.6c-0.6-14.3-2.9-33.8,4.1-41.3c5.5-3.8,46.8,5.7,68.2-6
		c2.2-1.2,4.2-2.7,6-4.4c0.4-0.4,0.7-0.8,1.1-1.2c1.1-1.2,2-2.5,2.9-3.7c12.6-18.1-1-31.5-1-31.5s3.4,12.3-2.5,19.9
		c-2.9,3.8-5.9,5.8-8.3,7.1c-2.5,1.3-4.5,1.7-5.2,2.1c-0.8,0.6,0.3-2.5,1.3-4.9c0.6-1.5,1.2-2.8,1.2-2.8l-5.1,2.6l-16.8,8.5
		c0,0,0.8-1.2,2.6-4.7c0.7-1.3,1.4-2.9,2.1-4.3c1-2.2,1.8-4.1,1.8-4.1l-11,4l-20.1,7.4c0,0,1.8-3.8,3.4-6.8c1-1.9,2-3.5,2.4-3.7
		c0.8-0.4-3.2,0.5-9.6,4.2C507.2,196.1,504.3,198.1,501.2,200.6z"/>
</g>
<g>
	<path class="st11" d="M784,405.5c-4.2-11.7-10.1-11.4-18.9-18.5c0,0-6.3-2.3-14.7-9.2c-8.4-6.9-10-8.4-12.5-7.2
		c-2.5,1.2-0.5,6.5-0.5,6.5s-7.6-6.5-9.6-3.6c-1.9,2.9,6.8,10.5,6.8,10.5s-6.9-4.2-8.5-1.4c-1.5,2.5,4.4,7.5,6.1,9
		c0,0-4.9-2-4.5,1.9c0.4,4,14.6,13.3,14.2,13c-0.3-0.3,5.1,4.9,11,9.3s19.4,11.2,21.4,7.8C776.4,420.2,784,405.5,784,405.5z"/>
	<path class="st37" d="M748.5,377.8c5.7,12.9,10,24.7,11.9,31.9l-4.4,1.9c-4-6.3-9.7-17.4-15.4-30.3c-5.8-13.3-10.3-25.2-12.1-32.4
		c0.1,0-0.3-0.9,1.8-1.7c2-0.8,2.4-0.1,2.5-0.1C736.8,353.2,742.7,364.5,748.5,377.8z"/>
	<path class="st38" d="M729.2,351.3L729.2,351.3c-0.5,0.1-1,0.4-1.2,0.7c-0.3,0.5,5.4,15.2,7,18.4c2.4,5,4.1,5.3,3.1,11.2
		c0,0-11.6-29.6-11.6-29.9c0.1-1.2,1.3-1.6,2.3-2l4.5-2c0.3,0.5,0.6,0.9,0.9,1.4l-4.3,1.9L729.2,351.3z"/>
	<path class="st8" d="M749.7,380.3c0.2,0.5,0.4,1,0.7,1.5l-7.9,3.5c-0.2-0.5-0.5-1-0.7-1.5L749.7,380.3z"/>
	<path class="st8" d="M760.5,409.6c0.8,3,1.2,5.3,1.1,6.4l-1.4,0.6c-1-0.7-2.3-2.5-4-5.1L760.5,409.6z"/>
	<path class="st11" d="M776.6,396.9c-0.2-2.3-1.1-11-4.3-12.9c-4.1-2.4-29-11-28.3-5.4c0.4,4.1,1.6,4.7,6.8,7.3
		c5.2,2.5,11,3.8,11,3.8s-1.6,2.4-0.1,8.2c1.5,5.8,6.2,9.3,9.9,6.6S776.6,396.9,776.6,396.9z"/>
	<path class="st39" d="M888.3,353.3c1.1-5.2,36-15.7,34.5-15.3c-4.4,1.1-20.2,115-75.1,112.9c-55.9-2.2-81.7-23.1-81.7-23.1
		c4.2-7.7,6.5-11.4,13.7-23.6c23.3,5.1,71.3,15,73.3,14.7C861.4,414.4,872.1,383.9,888.3,353.3z"/>
	<polygon class="st15" points="980.1,331.3 981.5,317 929.2,324.7 925.9,344.1 	"/>
	<path class="st19" d="M1006.8,526.5c-0.2,0,0.7,6.6,3,17.5c1.6,7.5,4.4,19.2,5.6,23.1l-13.5,249.1l-22.9-0.4
		c0,0-18.1-233.5-21.2-216.4c-3.1,17.1,1.3,215.3,1.3,215.3l-22,1.3l-33.7-252.3l6.1-32.2C957.8,549.5,1008.3,526.4,1006.8,526.5z"
		/>
	<path class="st20" d="M1009.8,544c-35.7,6.9-67.5,12.2-103.8,4l0.9-11.2c0,0,44.9,1.5,65.9-1.9s36.1-7,36.1-7L1009.8,544z"/>
	<polygon class="st21" points="961.8,538.9 962.7,555 934.6,555.3 934.7,539.5 	"/>
	<path class="st40" d="M963.7,326.1c3.7,1.3,18,3.6,22.8,4.7c14.8,3.3,38.7,10.4,38.4,10.1c-0.3-0.4-6.8,122.1-13.1,188.1
		c-1.5,16.1-101.6,21.2-109.1,9.5s-14.5-186.4-14.5-186.4l42.4-20L963.7,326.1z"/>
	<path class="st17" d="M975.7,297.8c-0.5,3.6-0.5,34-0.5,34s-10.4,8.8-26.7,12.2c-16.3,3.4-20.7-0.5-20.7-0.5l8.3-32.2L975.7,297.8z
		"/>
	<path class="st18" d="M942,809c-0.5,1.6-5.2,8-8.9,10.7s-32.8,11.6-29.7,13.3s34.1,0,36,0.3s6.5-2.1,6.6-2c0,0,0,2.4,0.9,2.5
		s13.4,0.3,13.8-0.9c0.5-1.2,0.1-9.4-0.1-12.1c-0.3-2.7-2.6-8.9-2.6-8.9L942,809z"/>
	<path class="st18" d="M984.3,808.4c-0.5,1.6-5.2,8-8.9,10.7s-32.8,11.6-29.7,13.3s34.1,0,36,0.3s6.5-2.1,6.6-2c0,0,0,2.4,0.9,2.5
		s13.4,0.3,13.8-0.9c0.5-1.2,0.1-9.4-0.1-12.1c-0.3-2.7-2.6-8.9-2.6-8.9L984.3,808.4z"/>
	<path class="st41" d="M931.3,340.2c1.4-0.4,13.6,0.1,13.6,0.1s5.8,14.8,3.6,17.2c-2.2,2.5-8,7.7-8.8,7.7s-11.2,1.8-13-0.9
		C922.1,357.3,921.5,343.2,931.3,340.2z"/>
	<path class="st39" d="M932.7,339.7c-0.5,0.8-8.9,23.5-9.2,22.6s-6.9-24.4-6.9-24.4l12.6-13.2L932.7,339.7z"/>
	<path class="st41" d="M940.5,362.1c0,0.9,11.7,147.4,11.7,147.4s-17.6,33.7-17.6,31.9S918,506.5,918,506.5l7.9-143.8L940.5,362.1z"
		/>
	<path class="st39" d="M937,340.4c0.6,0.8,13.7,25.7,13.9,24.2c0.1-1.4,35.7-33.9,35.7-33.9l-5.1-13.7L937,340.4z"/>
	<path class="st42" d="M997.4,369.2c-2.6-15.3,23.2-28.3,27.6-28.3c6.1,0,18.6,109.1-12.3,124.2C956.2,490.5,905,491,905,491
		c-0.4-11.9,5.3-30,5.3-30c31.4,1.4,73.5-13.2,85.1-22.1C1001.2,434.2,1000.7,406.4,997.4,369.2z"/>
	<path class="st43" d="M907.4,212.6c-1.2,0.4-8.7,10.6-9.5,23c-0.8,12.3,6.2,32.2,6.1,30.7c-0.1-1.4,10.8-46.7,10.8-46.7
		L907.4,212.6z"/>
	<path class="st11" d="M916.6,211.9c-7.7,11.2-19.2,15.4-16.1,43.6c-13.8,35.9,8.7,67.3,38.6,68.5c30.9,1.3,48.1-9.1,59.1-37.4
		c8.8-22.7,11.7-48.1,4-61.9C991.8,206,916.6,211.9,916.6,211.9z"/>
	<path class="st43" d="M997.1,276l-12.2-0.4c0,0,2.5-45.3,0.2-45.6c-9.9,3-72.5,32.5-103.6-16.7c28.6-11.1,26.4-19.3,51.7-26.1
		c19.3-4.5,71-1.9,73,26.8c20.7,15.7,22.4,57.8-14.6,86C997.1,289.8,996.2,287.6,997.1,276z"/>
	<path class="st11" d="M991.6,257.8c3.9-1.6,18.7-9.9,21.3,2.9c2.6,12.7-3.9,22.8-12.7,24.1c-8.8,1.3-8.3-7.5-8.3-7.5L991.6,257.8z"
		/>
	<path class="st25" d="M912.6,269.3c3,0,5.4-3,5.4-6.7s-2.4-6.7-5.4-6.7s-5.4,3-5.4,6.7C907.2,266.3,909.7,269.3,912.6,269.3z"/>
	<path class="st25" d="M956.7,273c3,0,5.4-3,5.4-6.7s-2.4-6.7-5.4-6.7s-5.4,3-5.4,6.7C951.3,269.9,953.7,273,956.7,273z"/>
	<path class="st28" d="M940.3,284c-1.8,1.6-5.9,2.2-7.9,1.9c-1.8-0.3-7.6-6.5-7.4-6.8l0,0c0,0,8.5-12.4,9.9-13.6s-6.3,10.9-6.3,13
		c0,0.9,0.6,1.7,1.4,2.4C935.9,282.5,941.7,282.7,940.3,284z"/>
	<ellipse class="st29" cx="954.5" cy="264.6" rx="2.3" ry="2.9"/>
	<ellipse class="st29" cx="911.4" cy="260.5" rx="2.3" ry="2.9"/>
	<path class="st43" d="M970.4,251.2l-23.5-1.5c-1.6-0.1-2.9,1.1-3,2.7l0,0c-0.1,1.6,1.1,3,2.7,3.1l23.5,1.5c1.6,0.1,2.9-1.1,3-2.7
		l0,0C973.2,252.7,972,251.3,970.4,251.2z"/>
	<path class="st43" d="M925.8,247.9L905,246c-1.6-0.1-3,1.1-3,2.7c0,1.6,1.1,2.9,2.7,3.1l20.8,1.9c1.6,0.1,3-1.1,3-2.7
		C928.6,249.4,927.4,248,925.8,247.9z"/>
	<path class="st31" d="M1008.1,259.9c2.5,3.7-0.4,15.2-2.7,17.3c-2.3,2.1-7.3,4.1-8.2,1.4c-0.9-2.6-1.4-5.2-0.8-5.5
		c0.6-0.3,3.5-1.2,3.2-3.4c-0.3-2.2-0.3-2.9-2.5-3.6c-2.1-0.8-2.1-3.2-1.4-4.2C998.2,258.6,1005.5,256.2,1008.1,259.9z"/>
	<path class="st30" d="M923.5,299c-0.2-0.4-0.1-0.9,0.3-1.2c0.4-0.2,0.9-0.1,1.2,0.3c0.2,0.3,0.4,0.5,0.8,0.8c2,1.4,6.3,2.4,11,2.4
		c4.8,0,10.1-0.9,14-3.2c1.5-0.9,2.8-2,3.8-3.3c0.3-0.4,0.8-0.5,1.2-0.2s0.5,0.8,0.2,1.2c-1.1,1.5-2.6,2.8-4.3,3.8
		c-4.2,2.5-9.8,3.5-14.9,3.4c-5.1,0-9.8-1.1-12.1-2.7C924.2,299.9,923.8,299.5,923.5,299z"/>
	<path class="st44" d="M793.1,422.7c-3-1.8-41.9-38-41.9-38l33-43.7l40.6,63l-15.6,30L793.1,422.7z"/>
	<path class="st45" d="M825.4,475.1c3.6-0.6,84.1-20,84.1-20s-76.9-95.7-79.3-95.7c-2.4,0-79,25.4-79,25.4L825.4,475.1z"/>
	<path class="st11" d="M914.3,464.8c-7.2-2.6-12.6-7.7-12.6-7.7c-0.4-0.3-10.7,2.5-11.5,2.8c0,0-9.4-6.1-20.2-10s-12.8-4.9-14.9-2.8
		c-2.1,2.1,1.8,6.6,1.8,6.6s-9.9-3.8-10.8-0.3c-0.9,3.6,10.4,8.1,10.4,8.1s-8.3-1.7-9,1.6c-0.6,3,7,5.9,9.2,6.8c0,0-5.5-0.3-3.8,3.5
		c1.8,3.8,19.1,8.1,18.7,7.9c-0.4-0.1,28.9,14.2,33.7,1.3C907.2,477.9,914.3,464.8,914.3,464.8z"/>
	<path class="st46" d="M916.6,459.6c-1.8-0.3-10.5-0.1-10.5-0.1l-3.9,33.8l14.4,2.5l3.2-36.3L916.6,459.6z"/>
	<path class="st47" d="M917.9,480.7l-0.9,9.6c0.6-0.1,1.2-0.1,1.8-0.2c7.9-0.8,18.7-2.2,31.4-4.9c18-3.8,39.7-9.9,62.4-20.1
		c0.9-0.4,1.8-1,2.6-1.6c21.1-15.2,19.1-78.6,14.3-107.9c-0.2,6-0.8,14.5-1.9,24.6c-1.5,13.3-4.7,37-10.1,54.8
		c-3.3,10.7-7.4,19.2-12.5,22c-7.6,4.1-34,11-55.8,16.3c-13.8,3.4-25.8,6.1-29.9,7C918.4,480.6,917.9,480.7,917.9,480.7z"/>
	<polygon class="st48" points="917.1,490.3 917.9,480.7 906.1,480.9 905.7,480.9 903.6,480.9 903,485.9 902.2,493.3 916.6,495.8 	
		"/>
	<path class="st49" d="M901.3,222.1c-9.6-3.9-19.8-8.7-19.8-8.7c5,7.8,10.7,13.7,16.9,18c1.1,0.8,2.2,1.5,3.3,2.1
		c2.8,1.7,5.7,3,8.7,4.1c31,11.6,67.3-5.2,74.7-7.5c2.3,0.3-0.2,45.6-0.2,45.6l6.7-56.3c0,0-5.8-1.3-20.7-0.6
		c-14.9,0.6-23.2-3.2-23.2-3.2s15.2,10.9,9.5,10.5c-5.2-0.4-37.9-7.2-44.5-9.1c-0.6-0.2-1-0.3-1.1-0.3c0.1,0.1,0.4,0.3,0.8,0.7
		c3.1,2.5,13.3,10.9,14.1,11.2c0.9,0.4-2.2-0.3-10.5-1.4c-0.8-0.1-1.7-0.3-2.8-0.6c-1.9-0.5-4.2-1.3-6.6-2.2
		C904.9,223.5,903.1,222.8,901.3,222.1z"/>
</g>
<g>
	<polygon class="st50" points="1192.6,122.3 1038.3,122.3 1038.3,238.1 1038.3,262.5 1061.9,238.1 1192.6,238.1 	"/>
	<g>
		<g>
			<path class="st32" d="M1113.6,218.5c-3.2-0.2-6.1-1.4-8.3-3.4c-2.6-2.2-4-5.1-4-8.3c-0.4-6.2-2.4-12.5-3.9-16.9
				c-7.5-6-11.6-15.3-10.9-24.9c1.2-16,15.2-28,31.1-26.7c16,1.2,28,15.2,26.7,31.1c-0.7,8.7-5.1,16.5-12.2,21.5
				c-2.2,5.9-3.5,11.3-3.9,16c-0.1,6.4-6.2,11.5-13.6,11.5C1114.4,218.5,1114,218.5,1113.6,218.5z M1117.5,140.7
				c-14.7-1.1-27.5,9.9-28.6,24.6c-0.7,8.9,3.1,17.5,10.2,23.1l0.3,0.2l0.1,0.3c1.7,4.5,3.7,11.3,4.2,17.9v0.1
				c0,2.4,1.1,4.7,3.1,6.5c2.1,1.8,4.9,2.8,7.9,2.8c6.1,0,11.1-4.1,11.2-9.2l0,0l0,0c0.4-5.1,1.8-10.8,4.1-17l0.1-0.4l0.3-0.2
				c6.7-4.6,10.9-11.9,11.5-20C1143.2,154.6,1132.1,141.8,1117.5,140.7z"/>
		</g>
		<g>
			<polygon class="st32" points="1108.3,208.6 1104.5,176.9 1111.1,182.4 1115.1,177.8 1118.7,182.1 1124.8,176.9 1121.1,208.6 
				1118.7,208.3 1121.8,182.6 1118.4,185.5 1115.1,181.5 1111.3,185.7 1107.5,182.5 1110.6,208.3 			"/>
		</g>
		<g>
			
				<rect x="1110.6" y="209.4" transform="matrix(6.689493e-03 -1 1 6.689493e-03 887.6168 1332.9856)" class="st32" width="8.3" height="20.6"/>
		</g>
		<g>
			
				<rect x="1108" y="200.2" transform="matrix(6.760068e-03 -1 1 6.760068e-03 893.3903 1327.0596)" class="st32" width="13.4" height="27.2"/>
		</g>
	</g>
</g>
<g>
	<polygon class="st50" points="301.1,194.8 401.6,194.8 401.6,270.3 401.6,286.1 386.2,270.3 301.1,270.3 	"/>
	<g>
		<path class="st32" d="M363.7,222.2c-0.4-0.4-0.9-0.9-1.6-1.3c-0.7-0.5-1.6-0.9-2.5-1.4c-1-0.4-2-0.8-3.1-1.1s-2.3-0.5-3.5-0.6
			v12.9l1.2,0.3c2.2,0.5,4.3,1.2,6.1,1.8c1.8,0.7,3.3,1.5,4.6,2.4c1.2,1,2.2,2.1,2.9,3.5c0.7,1.4,1,3.1,1,5.1c0,2.2-0.4,4.1-1.2,5.6
			c-0.8,1.6-1.9,2.9-3.3,3.9s-3,1.8-4.9,2.3c-1.9,0.5-3.8,0.8-6,0.8v6.5h-3.2v-6.7c-3-0.2-5.8-0.8-8.5-1.8s-5.2-2.4-7.4-4.1l3.2-6
			c0.5,0.5,1.1,1,2,1.6s1.9,1.1,3,1.7c1.2,0.5,2.4,1,3.8,1.4s2.8,0.7,4.3,0.9V237c-0.2-0.1-0.5-0.2-0.8-0.2
			c-0.3-0.1-0.5-0.1-0.8-0.2c-2.2-0.6-4.1-1.2-5.8-1.9c-1.6-0.6-3-1.4-4.1-2.3c-1.1-0.9-1.9-2-2.5-3.2s-0.8-2.7-0.8-4.5
			c0-2,0.4-3.8,1.1-5.4c0.7-1.6,1.7-2.9,3-4.1c1.3-1.1,2.8-2,4.5-2.7c1.7-0.6,3.6-1,5.7-1.2V205h3.2v6.3c2.7,0.2,5.2,0.7,7.5,1.6
			c2.3,0.9,4.3,2,6,3.3L363.7,222.2z M343.2,223.8c0,1.7,0.6,3.1,1.8,3.9c1.2,0.9,3.1,1.7,5.6,2.3v-12.3c-2.5,0.1-4.4,0.7-5.6,1.8
			S343.2,222,343.2,223.8z M361.1,244.5c0-1.8-0.7-3.2-2.2-4.2c-1.5-0.9-3.5-1.8-6.1-2.5v12.3c2.7,0,4.7-0.5,6.1-1.5
			C360.4,247.7,361.1,246.4,361.1,244.5z"/>
	</g>
</g>
<g>
	<path class="st50" d="M766,107.4c-0.5-1.5-1.4-3.3-2.8-5.3c-1.4-2.1-3-4.2-5-6.4c-2-2.2-4.3-4.4-6.9-6.4c-2.6-2.1-5.5-3.9-8.5-5.5
		l-14.4,33.5l2.8,2c5.2,3.9,9.8,7.7,13.8,11.5c4,3.8,7,7.6,9.2,11.4c2.2,3.9,3.4,8,3.6,12.4c0.2,4.4-0.8,9.2-3,14.4
		c-2.5,5.7-5.6,10.2-9.4,13.3c-3.8,3.2-8.1,5.3-12.9,6.5c-4.8,1.1-9.9,1.4-15.3,0.6c-5.4-0.7-10.9-2.2-16.4-4.5l-7.3,17l-8.4-3.6
		l7.5-17.3c-7.5-3.9-14.3-8.6-20.2-14.2c-5.9-5.6-10.8-11.9-14.7-18.9l15-12c0.6,1.8,1.7,4,3.4,6.4c1.6,2.5,3.6,5.1,6.1,7.8
		c2.4,2.7,5.2,5.4,8.4,8s6.6,5,10.3,7.1l14.4-33.5c-0.6-0.5-1.2-1-1.8-1.4c-0.6-0.5-1.2-0.9-1.8-1.4c-5.1-4-9.4-7.7-12.9-11.2
		c-3.6-3.5-6.2-7.1-8-10.6c-1.8-3.6-2.7-7.3-2.8-11.1c-0.1-3.8,0.8-8,2.8-12.5c2.3-5.3,5.2-9.6,8.8-12.9s7.7-5.7,12.3-7.3
		c4.6-1.5,9.5-2.2,14.7-1.9s10.6,1.3,16.2,3.2l7-16.4l8.4,3.6l-7,16.4c6.8,3.5,12.7,7.7,17.6,12.6c4.9,4.9,8.9,10.1,12,15.4
		L766,107.4z M710.7,88.6c-2,4.5-1.8,8.6,0.4,12.3c2.2,3.6,6.2,7.7,11.9,12.2l13.7-31.9c-6.7-2.5-12.3-3.1-16.6-1.7
		C715.9,81,712.7,84,710.7,88.6z M734.4,162.6c2-4.8,1.7-9.2-1-13.2c-2.7-4.1-7.1-8.5-13.1-13.4l-13.8,32c7,2.9,12.8,3.9,17.6,3
		C728.9,170.1,732.3,167.3,734.4,162.6z"/>
</g>
<g id="Layer_3" class="st51">
	<g class="st52">
		<g>
			<path class="st53" d="M-719.7,1408.2l54.1,17.3c0,0,4.8-7.9-7.8-20.5l-41-13.5C-717.7,1401.9-719.7,1408.2-719.7,1408.2z"/>
			<g>
				<path class="st54" d="M-550.4,1109v-62.7h-110.4c0,0-2.1,136.7-8.4,180.9c-5,34.7-33.3,126.6-45.2,164.4l41,13.5
					c34.7-87.4,69.1-217.9,69.1-301.6l7.6,307.3h43.9L-550.4,1109z"/>
				<path class="st53" d="M-552.9,1410.8h-43.9l0.4,16.3h59.8C-536.6,1427.1-535.1,1417.6-552.9,1410.8z"/>
			</g>
		</g>
		<polygon class="st55" points="-671.5,1117.2 -671.5,1125.4 -546.8,1125.4 -546.9,1117.2 		"/>
		<path class="st56" d="M-701.3,943.5l2,0.4l42.1,8.1l19.6,3.8l14-96.6C-623.7,859.2-695.4,854.8-701.3,943.5z"/>
		<path class="st56" d="M-674.4,1120.3l13.1-244.2c0,0,16.5-18.4,56.9-18.4s53.9,31.6,53.9,65.3s6,197.3,6,197.3H-674.4z"/>
		<g>
			<path class="st57" d="M-616.6,854.4L-616.6,854.4c-2.5,0.1-23.8,1.5-23.8,21.7s21.5,50.7,24.1,53.7c2.6-2.9,23.8-33.5,23.8-53.7
				S-614,854.5-616.6,854.4z"/>
			<rect x="-629.8" y="931.9" class="st32" width="26.7" height="16"/>
			<line class="st57" x1="-616.3" y1="929.8" x2="-616.3" y2="934.1"/>
			<rect x="-626.8" y="936.2" class="st58" width="6.1" height="6.1"/>
			<rect x="-617.7" y="936.2" class="st55" width="12.6" height="1"/>
			<rect x="-617.7" y="938.7" class="st55" width="12.6" height="1"/>
			<rect x="-617.7" y="941.2" class="st55" width="12.6" height="1"/>
			<rect x="-617.7" y="943.8" class="st55" width="12.6" height="1"/>
			<rect x="-626.8" y="943.8" class="st58" width="6.1" height="1"/>
		</g>
		<path class="st59" d="M-564.2,1021.9h-58.1c-4.9,0-8.6-4.6-7.6-9.4l18.2-83.1c0.8-3.5,3.9-6.1,7.6-6.1h58.1c4.9,0,8.6,4.6,7.6,9.4
			l-18.2,83.1C-557.5,1019.4-560.6,1021.9-564.2,1021.9z"/>
		<path class="st60" d="M-668.1,979.8c0,0,4.7-11.3,10.9-27.8l-42.1-8.1c-7.4,54.2-2.4,67,16,67c19.5,0,77.5-5.1,77.5-5.1v-19.5
			L-668.1,979.8z"/>
		<g>
			<path class="st61" d="M-616.4,881.1L-616.4,881.1c-8.6,0-15.6-7-15.6-15.6v-26.7h31.1v26.7C-600.9,874.1-607.8,881.1-616.4,881.1
				z"/>
			<path class="st60" d="M-589.8,817.9c0,19.8-9.3,31-23.9,31c-14.6,0-29-11.2-29-31s0-40.6,26.4-40.6
				C-589.8,777.3-589.8,798.1-589.8,817.9z"/>
			<path class="st60" d="M-650.2,816.3c0,10.3,10.3,11.2,10.3,11.2v-17.9C-639.9,809.6-650.2,806-650.2,816.3z"/>
			<path class="st61" d="M-646.7,817.2c0,5.5,4.9,6,4.9,6v-9.6C-641.8,813.5-646.7,811.6-646.7,817.2z"/>
			<ellipse class="st32" cx="-626.1" cy="811.4" rx="3.6" ry="2.7"/>
			<ellipse class="st32" cx="-600.9" cy="811.4" rx="3.6" ry="2.7"/>
			<circle class="st59" cx="-625" cy="811.4" r="2.1"/>
			<circle class="st59" cx="-599.7" cy="811.4" r="2.1"/>
			<path class="st62" d="M-613.7,813.2v14.2C-602.3,827.5-613.7,813.2-613.7,813.2z"/>
			<path class="st32" d="M-607.6,832c-6.2,6.2-12.3,0-12.3,0H-607.6z"/>
			<path class="st57" d="M-622.2,807.3c0,0-3.9-2.9-7.9,0"/>
			<path class="st57" d="M-596.9,807.3c0,0-3.9-2.9-7.9,0"/>
			<circle class="st61" cx="-631.1" cy="824.4" r="7.6"/>
			<g>
				<path class="st61" d="M-595.4,816.8c-4.2,0-7.6,3.4-7.6,7.6s3.4,7.6,7.6,7.6c1.5,0,2.8-0.4,4-1.1c1-3.4,1.5-7.3,1.6-11.6
					C-591.2,817.7-593.2,816.8-595.4,816.8z"/>
			</g>
		</g>
		<path class="st60" d="M-609.1,987.5c0,0,25.6-11,28.5-7.2c2.9,3.7-6,6-6,6s18.8-1,18.4,2.3c-0.4,3.3-5.3,3.4-5.3,3.4
			s2.1,0.4,1.9,2.1c-0.2,1.7-3.7,2.2-3.7,2.7c3.3,1,1.3,4.2-2.7,3.7c3.2,2.3-0.1,4.1-5.9,4.4c-5.9,0.3-27.5,1.7-27.5,1.7"/>
		<path class="st60" d="M-574.8,954.9c0.1-3.3,18.5,0.5,18.5,0.5s-8.4-3.6-5-6.8c2.4-2.2,14.4,4.1,21.6,8.2c3.4,2,5.5,5.6,5.3,9.5
			l0,0c-0.2,6.7-6.4,11.5-12.9,10.1c-5.7-1.2-11.7-2.5-14.4-3.1c-5.7-1.2-8.7-3.4-5.2-5.2c-4-0.1-5.5-3.6-2.1-4.1
			c0-0.4-3.3-1.5-3.3-3.2s2.2-1.8,2.2-1.8S-574.9,958.3-574.8,954.9z"/>
		<path class="st53" d="M-648.1,808.2c0.7,2.8,3.2,5,6,4.8c1-0.1,2.1-0.4,2.9-1.3c3.1-3.1-0.7-26.3,24.2-23.6s17.5,14.8,25.9,13.1
			c8.4-1.6,2.7-13.1,2.7-13.1s7,2.9,8.6-2.7c1.6-5.6-6.5-8.3-6.5-8.3s6.6-2.3,5.4-8.4c-1.3-6.1-7.8-7.2-11.5-3.4
			c-3.7,3.7-22.1,3.8-32.4,1.6C-632.6,764.9-656.9,772.6-648.1,808.2z"/>
		<path class="st55" d="M-632,861.8c0,0,3.7,15.9,15.4,15.9s15.8-15.9,15.8-15.9s7.4,17.5-15.8,40.7
			C-639.2,879.6-632,861.8-632,861.8z"/>
		<polygon class="st54" points="-666.1,1082.8 -643.2,1059.8 -635.5,1067.5 -658.5,1090.4 		"/>
		<polygon class="st54" points="-550.4,1082.8 -573.3,1059.8 -581,1067.5 -558,1090.4 		"/>
		<line class="st57" x1="-666.1" y1="1082.8" x2="-643.2" y2="1059.8"/>
		<line class="st57" x1="-573.3" y1="1059.8" x2="-550.4" y2="1082.8"/>
	</g>
	<g class="st52">
		<g>
			<path class="st53" d="M-216.6,1433.2h55.7l0.4-15.2h-40.9C-217.9,1424.4-216.6,1433.2-216.6,1433.2z"/>
			<path class="st63" d="M-93,1247c-5.9-41.2-7.8-168.5-7.8-168.5h-102.8v58.4l2.3,281.1h40.9l7.1-286.2c0,77.9,32,199.5,64.3,280.9
				l37.9-13.5C-62.5,1363.4-88.4,1279.1-93,1247z"/>
			<path class="st53" d="M-89.1,1412.7c-11.8,11.8-7.3,19.1-7.3,19.1l50.4-16.1c0,0-2-6.3-5.2-16.4L-89.1,1412.7z"/>
		</g>
		<path class="st60" d="M-171.4,906.2c0,0-1.5,48.1,0,61.6c6.6,57.4-14.9,61.6-32.6,61.6s-70.2-4.6-70.2-4.6V1007l56.5-5.9
			C-217.8,1001.1-219.6,921.9-171.4,906.2z"/>
		<polygon class="st55" points="-209,1130.5 -209,1138.7 -96,1138.7 -96.1,1130.5 		"/>
		<path class="st64" d="M-93.6,1134.6l-6.8-179c0-28.8-23.1-52.4-51.9-52.7c-0.4,0-0.7,0-1.1,0c-37.6,0-50.2,29.4-50.2,60.8
			c0,31.4-7.3,170.4-7.3,170.4L-93.6,1134.6z"/>
		<path class="st60" d="M-140.3,903.5l3,17.6c5.6,33.2,15.3,65.4,27.9,96.6c22.7,56,22,116.8,22,116.8H-68
			C-68.1,901.2-140.3,903.5-140.3,903.5z"/>
		<path class="st64" d="M-225.5,985.3l63.6,12.3l9.5-94.5C-152.3,903-219.5,896.5-225.5,985.3z"/>
		<path class="st64" d="M-79.2,985.3l-63.6,12.3l-9.5-94.5C-152.3,903-85.1,896.5-79.2,985.3z"/>
		<path class="st63" d="M-158.4,984.2h29.1c0,0,1.2,26.7-14.2,26.7S-158.4,984.2-158.4,984.2z"/>
		<g>
			<path class="st57" d="M-160.1,899.7L-160.1,899.7c-2.5,0.1-23.8,1.5-23.8,21.7s21.5,50.7,24.1,53.7c2.6-2.9,23.8-33.5,23.8-53.7
				S-157.6,899.8-160.1,899.7z"/>
			<rect x="-173.3" y="977.2" class="st32" width="26.7" height="16"/>
			<line class="st57" x1="-159.9" y1="975.1" x2="-159.9" y2="979.4"/>
			<rect x="-170.4" y="981.5" class="st58" width="6.1" height="6.1"/>
			<rect x="-161.2" y="981.5" class="st55" width="12.6" height="1"/>
			<rect x="-161.2" y="984" class="st55" width="12.6" height="1"/>
			<rect x="-161.2" y="986.5" class="st55" width="12.6" height="1"/>
			<rect x="-161.2" y="989.1" class="st55" width="12.6" height="1"/>
			<rect x="-170.4" y="989.1" class="st58" width="6.1" height="1"/>
		</g>
		<path class="st56" d="M-263,1046.9h58.1c4.9,0,8.6-4.6,7.6-9.4l-18.2-83.1c-0.8-3.5-3.9-6.1-7.6-6.1h-58.1c-4.9,0-8.6,4.6-7.6,9.4
			l18.2,83.1C-269.7,1044.3-266.6,1046.9-263,1046.9z"/>
		<g>
			<path class="st61" d="M-162.3,930.3L-162.3,930.3c8.6,0,15.6-7,15.6-15.6V888h-31.1v26.7C-177.8,923.3-170.9,930.3-162.3,930.3z"
				/>
			<path class="st60" d="M-188.9,867.1c0,19.8,9.3,31,23.9,31c14.6,0,29-11.2,29-31s0-40.6-26.4-40.6
				C-188.9,826.5-188.9,847.3-188.9,867.1z"/>
			<path class="st60" d="M-128.5,865.5c0,10.3-10.3,11.2-10.3,11.2v-17.9C-138.8,858.8-128.5,855.2-128.5,865.5z"/>
			<path class="st61" d="M-132,866.4c0,5.5-4.9,6-4.9,6v-9.6C-136.9,862.8-132,860.9-132,866.4z"/>
			<ellipse class="st32" cx="-152.6" cy="860.6" rx="3.6" ry="2.7"/>
			<ellipse class="st32" cx="-177.8" cy="860.6" rx="3.6" ry="2.7"/>
			<circle class="st59" cx="-153.2" cy="860.3" r="2.1"/>
			<circle class="st59" cx="-178.5" cy="860.3" r="2.1"/>
			<path class="st32" d="M-158.8,881.2c-6.2,6.2-12.3,0-12.3,0H-158.8z"/>
			<path class="st62" d="M-165,862.4v14.2C-176.4,876.7-165,862.4-165,862.4z"/>
			<path class="st57" d="M-156.5,856.5c0,0,3.9-2.9,7.9,0"/>
			<path class="st57" d="M-181.8,856.5c0,0,3.9-2.9,7.9,0"/>
			<circle class="st61" cx="-147.6" cy="873.6" r="7.6"/>
			<g>
				<path class="st61" d="M-183.3,866c4.2,0,7.6,3.4,7.6,7.6s-3.4,7.6-7.6,7.6c-1.5,0-2.8-0.4-4-1.1c-1-3.4-1.5-7.3-1.6-11.6
					C-187.5,867-185.5,866-183.3,866z"/>
			</g>
		</g>
		<path class="st60" d="M-87,1133.1c0,0-7.2,26.9-3.1,29.3c4.1,2.3,5.1-6.8,5.1-6.8s1.7,18.7,4.9,17.9c3.2-0.9,2.7-5.7,2.7-5.7
			s0.7,2,2.3,1.6c1.7-0.5,1.7-3.9,2.1-4.1c1.5,3.1,4.4,0.7,3.3-3.2c2.7,2.8,4-0.7,3.5-6.5s-1.8-24.2-1.8-24.2"/>
		<path class="st60" d="M-257.6,996.9c-1.4-3-16.9,7.6-16.9,7.6s6.4-6.5,2-8.2c-3-1.2-11.7,9.3-16.7,15.9c-2.4,3.1-2.9,7.3-1.3,10.9
			l0,0c2.7,6.1,10.3,8.2,15.8,4.4c4.8-3.3,9.8-6.9,12.1-8.4c4.8-3.3,6.7-6.5,2.8-6.8c3.7-1.7,3.7-5.4,0.4-4.6
			c-0.2-0.4,2.5-2.6,1.8-4.2c-0.7-1.6-2.7-0.8-2.7-0.8S-256.2,999.9-257.6,996.9z"/>
		<path class="st54" d="M-154.5,824.7c-3.3-3-5.7-7-6.1-11.4c-0.3-3.5,0.3-7.6,4.4-10.2c8.2-5.1,33,5.6,28.6,21.3
			C-131.3,837.2-146,832.3-154.5,824.7z"/>
		<path class="st54" d="M-124.9,846.6c-1.2-28.1-34-42.8-56.8-26.4c-4.5,3.2-8,7.1-9.5,11.6c-7,22.2-12.5,20-10.3,27.6
			s14.4,5.4,17-7.1s28.5-3.1,41-15.6c0,14.2,7.4,29.7,15.9,21.2C-125.6,855.9-124.7,851.7-124.9,846.6z"/>
		<path class="st57" d="M-160.6,813.2c0,0,19.3-2,30.2,16.2"/>
		<path class="st55" d="M-177.9,908.4c0,0,3.7,15.9,15.4,15.9s15.8-15.9,15.8-15.9s7.4,17.5-15.8,40.7
			C-185,926.2-177.9,908.4-177.9,908.4z"/>
		<polygon class="st63" points="-200.7,1090.2 -181.6,1071.1 -175.2,1077.5 -194.3,1096.6 		"/>
		<polygon class="st63" points="-104.2,1090.2 -123.3,1071.1 -129.6,1077.5 -110.5,1096.6 		"/>
		<line class="st57" x1="-200.7" y1="1090.2" x2="-181.6" y2="1071.1"/>
		<line class="st57" x1="-104.2" y1="1090.2" x2="-123.3" y2="1071.1"/>
	</g>
	<g class="st52">
		<polygon class="st58" points="-470.6,1220.3 -336.4,1220.3 -336.4,1095.3 -455.4,1095.3 		"/>
		<g>
			<polygon class="st59" points="-399.2,1057.7 -455.6,1057.7 -453.3,1408.7 -410.6,1408.7 			"/>
			<path class="st53" d="M-453.3,1408.7c-18.8,7.3-17.3,17.3-17.3,17.3h59.4l0.6-17.3H-453.3z"/>
		</g>
		<g>
			<polygon class="st59" points="-351.1,1060.7 -399.2,1057.7 -387,1408.7 -344.2,1408.7 			"/>
			<path class="st53" d="M-344.2,1408.7H-387l0.8,17.3h59.3C-326.9,1426-325.4,1416-344.2,1408.7z"/>
		</g>
		<path class="st54" d="M-350.9,1072.4l-1.9-107c0,0,20.4-95.5-45.4-95.5c-33,0-52.5,16.1-51,57.2c1.6,46.1-4.9,145.3-4.9,145.3
			H-350.9z"/>
		<path class="st55" d="M-422.9,872.8c0,0-66.1,8.7-66.1,139.3c0,49.6,39.6,79,39.6,79l15.6-15.6c0,0-63.3-64.2,10.9-138.3V872.8z"
			/>
		<path class="st55" d="M-380.1,872.8c0,0,66.1,8.7,66.1,139.3c0,49.6-39.6,79-39.6,79l-15.6-15.6c0,0,63.3-64.2-10.9-138.3V872.8z"
			/>
		<g>
			<path class="st57" d="M-400.8,870.2L-400.8,870.2c-2.5,0.1-23.8,1.5-23.8,21.7s21.5,50.7,24.1,53.7c2.6-2.9,23.8-33.5,23.8-53.7
				C-376.7,871.7-398.3,870.3-400.8,870.2z"/>
			<rect x="-414" y="947.7" class="st32" width="26.7" height="16"/>
			<line class="st57" x1="-400.6" y1="945.6" x2="-400.6" y2="949.9"/>
			<rect x="-411.1" y="952" class="st58" width="6.1" height="6.1"/>
			<rect x="-401.9" y="952" class="st55" width="12.6" height="1"/>
			<rect x="-401.9" y="954.5" class="st55" width="12.6" height="1"/>
			<rect x="-401.9" y="957" class="st55" width="12.6" height="1"/>
			<rect x="-401.9" y="959.6" class="st55" width="12.6" height="1"/>
			<rect x="-411.1" y="959.6" class="st58" width="6.1" height="1"/>
		</g>
		<polyline class="st55" points="-420.1,872.2 -420.1,1220.3 -475.3,1220.3 -447.7,910.2 -422.9,872.8 		"/>
		<polyline class="st55" points="-380.1,872.8 -384.5,1220.3 -318.1,1220.3 -345.7,910.2 -380.1,872.8 		"/>
		<polygon class="st58" points="-420.1,1054 -430.1,874.8 -415.6,868 		"/>
		<path class="st58" d="M-368.6,970.1h24.5c0,0,1,26.7-12,26.7S-368.6,970.1-368.6,970.1z"/>
		<polygon class="st58" points="-382.4,1052.9 -370.1,875.9 -385.2,866.6 		"/>
		<g>
			<path class="st65" d="M-427.7,941.8c0,0-13.7,4.1-9.9-33.5c0,0,1.7-16.1,7.5-14.7c5.8,1.4,2.4,16.6,2.4,16.6
				c-6.6,37.2-18.6,29.6-18.6,29.6"/>
			<path class="st65" d="M-430.1,893.6c0,0-2.1-29.1,32.1-29.1s22.6,44.8,31.1,59.5"/>
			<circle class="st66" cx="-446.3" cy="939.7" r="2.2"/>
			<circle class="st66" cx="-366.8" cy="924" r="5.5"/>
			<circle class="st67" cx="-366.8" cy="924" r="2.9"/>
			<circle class="st66" cx="-427.4" cy="941.9" r="2.2"/>
		</g>
		<g>
			<path class="st61" d="M-400.5,893.5L-400.5,893.5c8.6,0,15.6-7,15.6-15.6v-26.7H-416V878C-416.1,886.6-409.1,893.5-400.5,893.5z"
				/>
			<path class="st60" d="M-427.1,830.3c0,19.8,9.3,31,23.9,31s29-11.2,29-31s0-40.6-26.4-40.6C-427.1,789.7-427.1,810.5-427.1,830.3
				z"/>
			<path class="st60" d="M-366.8,828.7c0,10.3-10.3,11.2-10.3,11.2V822C-377,822-366.8,818.5-366.8,828.7z"/>
			<path class="st61" d="M-370.2,829.6c0,5.5-4.9,6-4.9,6V826C-375.1,826-370.2,824.1-370.2,829.6z"/>
			<ellipse class="st32" cx="-390.8" cy="823.9" rx="3.6" ry="2.7"/>
			<ellipse class="st32" cx="-416.1" cy="823.9" rx="3.6" ry="2.7"/>
			<circle class="st59" cx="-390.6" cy="823.9" r="2.1"/>
			<circle class="st59" cx="-415.9" cy="823.9" r="2.1"/>
			<path class="st62" d="M-403.2,825.7v14.2C-414.6,839.9-403.2,825.7-403.2,825.7z"/>
			<path class="st57" d="M-397.1,844.4c0,0-6.2,3.2-12.3,0"/>
			<path class="st57" d="M-394.7,819.7c0,0,3.9-2.9,7.9,0"/>
			<path class="st57" d="M-420,819.7c0,0,3.9-2.9,7.9,0"/>
			<circle class="st61" cx="-385.9" cy="836.8" r="7.6"/>
			<g>
				<path class="st61" d="M-421.5,829.2c4.2,0,7.6,3.4,7.6,7.6s-3.4,7.6-7.6,7.6c-1.5,0-2.8-0.4-4-1.1c-1-3.4-1.5-7.3-1.6-11.6
					C-425.7,830.2-423.7,829.2-421.5,829.2z"/>
			</g>
		</g>
		<path class="st68" d="M-371.9,819.1c0,0-1.4,4.6-5.1,2.9c-3.7-1.6-3.2-21.4-23.7-22.7c-7.8,17.8-23.8,20.3-28.4,15.6
			s0.3-35,27.6-35C-374.2,780-366.8,801.9-371.9,819.1z"/>
		<polygon class="st58" points="-452.5,1089.5 -431.3,1068.4 -424.3,1075.5 -445.5,1096.6 		"/>
		<polygon class="st58" points="-346,1089.5 -367.1,1068.4 -374.1,1075.5 -353,1096.6 		"/>
		<polygon class="st53" points="-382.5,1066.2 -420.1,1066.2 -420.1,1072.4 -382.6,1072.4 		"/>
		<path class="st56" d="M-383.6,872.8l-1.3-1c0,14.9-15.6,19.8-15.6,19.8s-15.6-4.9-15.6-19.8l-1.3,1c-7.9,5.8-9.1,17.5-2,24.3
			c4.1,3.9,10.2,5.4,18.9-1c8.7,6.4,14.8,5,18.9,1C-374.5,890.3-375.8,878.6-383.6,872.8z"/>
		<line class="st57" x1="-431.3" y1="1068.4" x2="-452.5" y2="1089.5"/>
		<line class="st57" x1="-367.1" y1="1068.4" x2="-346" y2="1089.5"/>
		<path class="st68" d="M-385.6,849.9c0-4.8-3.9-8.7-8.7-8.7h-8.7h-0.5h-8.7c-4.8,0-8.7,3.9-8.7,8.7c0,9.7,7.8,17.7,17.5,17.8l0,0
			c0.1,0,0.2,0,0.2,0c0.1,0,0.2,0,0.2,0l0,0C-393.3,867.6-385.6,859.6-385.6,849.9z M-400.1,847.8h-2.9h-0.5h-2.9
			c0,0-5.1,0.3-5.1-2.9c0-2.1,2.4-2.5,8.2-2.5c5.8,0,8.2,0.5,8.2,2.5C-395,848.1-400.1,847.8-400.1,847.8z"/>
	</g>
</g>
</svg>
